<?xml version="1.0" ?>
<svg id="Layer_1" style="enable-background:new 0 0 512 512;" version="1.1" viewBox="0 0 512 512" xml:space="preserve"
     xmlns="http://www.w3.org/2000/svg" xmlns:xlink="http://www.w3.org/1999/xlink"><style type="text/css">
	.st0 {
    fill: #F0E030;
  }

  .st1 {
    fill: #FFFFFF;
  }

  .st2 {
    fill: #010101;
  }

  .st3 {
    fill: #BD2033;
  }

  .st4 {
    clip-path: url(#XMLID_3_);
    fill: #BD2033;
  }

  .st5 {
    clip-path: url(#XMLID_3_);
  }

  .st6 {
    clip-path: url(#XMLID_202_);
    fill: #BD2033;
  }

  .st7 {
    clip-path: url(#XMLID_202_);
  }

  .st8 {
    fill: #F4D030;
  }

  .st9 {
    fill: #BB4C4C;
  }

  .st10 {
    fill: none;
  }
</style>
  <g id="XMLID_1_"><rect class="st0" height="298.7" id="XMLID_201_" width="512" y="106.7"/>
    <polygon class="st1" id="XMLID_200_" points="0,197.9 512,322.4 512,251.9 0,127.4  "/>
    <polygon class="st2" id="XMLID_199_" points="0,260.1 512,384.6 512,322.4 0,197.9  "/>
    <rect class="st3" height="14.3" id="XMLID_198_" width="5.4" x="253" y="231.1"/>
    <g><path class="st2" d="M258.9,245.9h-6.3v-15.3h6.3V245.9L258.9,245.9z M253.5,244.9h4.4v-13.4h-4.4V244.9L253.5,244.9z"/></g>
    <path class="st3"
          d="M263.8,268.9c-0.1-9.9,0.3-19.3,1-22c0.7-2.7,1.7-3.2,2.9-4.6c-3-0.3-6.2,2.5-7.7,6.3   c-1-4.2-2.7-7.1-4.3-8.5c-1.6,1.4-3.4,4.3-4.3,8.6c-1.5-3.1-4.2-6.6-7.5-6.2c1.1,1.4,2.2,1.9,2.9,4.5c0.7,2.6,1,12,0.8,21.9   L263.8,268.9z"
          id="XMLID_195_"/>
    <g><path class="st2" d="M262.8,268.9c-0.1-8.9,0.2-19.2,1-22.3c0.3-1.2,0.7-2.1,1.1-2.7c-1.6,0.9-3.2,2.8-4.1,5    l-1.1,2.9l-0.7-3c-0.7-3-1.9-5.7-3.4-7.4c-1,1.1-2.5,3.5-3.3,7.4l-0.6,2.8l-1.2-2.5c-0.5-1-1.9-3.7-3.9-5c0.4,0.6,0.8,1.4,1.1,2.5    c0.7,2.7,1.1,12.3,0.8,22.2l-1.9,0c0.2-9.6-0.1-19.1-0.8-21.6c-0.5-1.8-1.1-2.4-1.9-3.2c-0.3-0.3-0.5-0.6-0.8-0.9l-1.1-1.4    l1.8-0.2c3.2-0.4,5.7,2.3,7.2,4.7c0.9-2.8,2.3-5.2,3.9-6.7l0.6-0.6l0.6,0.6c1.6,1.5,3,3.8,3.9,6.6c1.9-3,4.8-4.9,7.5-4.6l1.9,0.2    l-2,2.1c-0.9,0.9-1.5,1.5-2,3.5c-0.6,2.5-1,11.4-0.9,21.8L262.8,268.9L262.8,268.9z" id="XMLID_194_"/></g>
    <path class="st3"
          d="M264.3,293.6c-0.1-11.8,0.4-21.9,1-25.1c0.6-3.2,1.7-3.8,3.1-5.2c-3.2-0.4-6.3,0.6-8.1,6.1   c-1-5.1-3-7.6-4.7-9.3c-1.7,1.7-3.7,4.3-4.6,9.4c-2-5.4-4.7-6.7-8.2-6.2c1.5,1.5,2.6,2.1,3.3,5.2c0.7,3.1,0.8,13.1,0.5,25   L264.3,293.6z"
          id="XMLID_193_"/>
    <g><path class="st2" d="M263.4,293.6c-0.1-11.5,0.4-21.9,1-25.3c0.5-2.2,1.1-3.3,1.9-4.2c-2,0.3-3.9,1.5-5.2,5.6    l-1,3.1l-0.6-3.1c-0.8-4.3-2.4-6.6-3.9-8.3c-1.5,1.6-3,4-3.8,8.3l-0.6,3.1l-1.1-2.9c-1.5-4.2-3.5-5.5-5.5-5.7    c0.9,0.9,1.6,2,2.2,4.3c0.9,3.9,0.7,17.5,0.6,25.2l-1.7,0c0.3-13.2,0.1-22-0.5-24.8c-0.5-2.3-1.2-3-2.3-4.1l-1.9-2l1.6-0.2    c3.7-0.5,6.2,0.9,8.1,4.4c1.1-3.7,2.8-5.9,4.3-7.3l0.6-0.6l0.6,0.6c1.5,1.5,3.2,3.6,4.3,7.3c1.7-3.3,4.4-4.7,8-4.3l1.8,0.2    l-1.8,1.7c-1.2,1.1-1.9,1.7-2.4,4.3c-0.7,3.3-1.1,13.5-1,25L263.4,293.6L263.4,293.6z" id="XMLID_192_"/></g>
    <path class="st3"
          d="M267.5,300.1c-0.1-2.8,0.3-6.4,0.9-7.9c0.6-1.4,1.5-2.5,2.4-3.7c-3.8-0.5-7.6-0.3-9.7,5.3   c-1.3-5.1-3.3-7.7-5.4-9.4c-2.1,1.7-4,4.4-5.3,9.4c-2-5.5-5.9-5.9-9.8-5.3c0.9,1.2,1.8,2.3,2.4,3.7c0.7,1.4,1.1,5.1,1,7.9H267.5z"
          id="XMLID_191_"/>
    <g><path class="st2" d="M244.7,300.2l-1.5-0.1c0.1-2.7-0.3-6.3-0.9-7.5c-0.5-1.1-1.1-1.9-1.8-2.8l-1.3-1.7l1.2-0.2    c3.3-0.5,7.3-0.5,9.7,3.9c1.2-3.6,2.8-6.1,5-7.9l0.5-0.4l0.5,0.4c2.3,1.9,4,4.4,5.1,7.9c2.4-4.3,6.2-4.4,9.6-3.9l1.2,0.2l-1.2,1.6    c-0.7,0.9-1.3,1.8-1.8,2.9c-0.5,1.3-0.9,4.8-0.8,7.5l-1.5,0.1c-0.1-2.7,0.2-6.6,0.9-8.2c0.5-1.1,1.1-1.9,1.7-2.8    c-3.4-0.2-6,0.7-7.6,4.9l-0.8,2.2l-0.6-2.3c-1.3-5-3.2-7.3-4.7-8.6c-2.1,1.9-3.6,4.6-4.6,8.6l-0.6,2.3l-0.8-2.2    c-1.7-4.5-4.6-5.2-7.7-4.9c0.6,0.8,1.3,1.7,1.8,2.8C244.5,293.6,244.9,297.5,244.7,300.2L244.7,300.2z" id="XMLID_190_"/></g>
    <rect class="st3" height="11.3" id="XMLID_189_" width="4" x="253.7" y="203.2"/>
    <g><path class="st2" d="M258.5,215.3H253v-12.8h5.5V215.3L258.5,215.3z M254.5,213.8h2.5v-9.9h-2.5V213.8L254.5,213.8z"/></g>
    <g><g><defs><rect height="35.7" id="XMLID_184_" width="140.4" x="185.7" y="309"/></defs><clipPath id="XMLID_3_"><use style="overflow:visible;" xlink:href="#XMLID_184_"/></clipPath><path
      class="st4"
      d="M281.5,343.1c1,0.7,4.9,1.4,12.1,0.1c12.5-2.2,12.4-14.5,31.9-8.8c-0.9-1.8-4-7.2-11.6-7.4     c0.8-2.5,1.3-6.3-0.1-8.6c-1.5,3.3-3.7,4.8-5.4,5.9c-0.5-0.3-3.4-2.7-3.8-6.3c-0.4-7.2-3.9-8.5-4.3-8.3     c-2.3-0.1-15.8,21.4-44.8,21.5c-28.6,0.1-42.9-21.3-44.5-21.5c-0.4-0.2-3.9,1.1-4.3,8.3c-0.3,3.6-3.3,5.9-3.8,6.2     c-1.6-1-3.9-2.5-5.4-5.8c-1.4,2.3-0.9,6.1-0.1,8.6c-7.6,0.2-10.7,5.6-11.6,7.4c19.5-5.7,19.5,6.6,32,8.8c7.2,1.3,10.9,0.7,11.9,0     L281.5,343.1z"
      id="XMLID_186_"/><g class="st5"><path class="st2" d="M225.3,344.7c-1.9,0-4.4-0.2-7.5-0.7c-4.9-0.8-7.9-3.2-10.8-5.4c-4.7-3.6-9-6.9-20.9-3.4      l-0.9-1c1.3-2.7,4.6-7.2,11.3-7.7c-0.5-2-1.1-5.8,0.4-8.3l1.3,0.1c1.2,2.7,3,4.1,4.6,5.2c0.8-0.7,2.8-2.6,3.1-5.4      c0.4-6,2.8-8,3.8-8.6c0.5-0.3,1.1-0.5,1.6-0.3c0.2,0.1,0.7,0.4,2.4,2.1c5.1,5.3,18.7,19.3,41.5,19.3c0.1,0,0.2,0,0.3,0      c22.3-0.1,35.5-13.1,41.1-18.6c2-2,2.9-2.9,3.7-2.9c0,0,0,0,0,0c0.1-0.2,0.7,0.1,1.2,0.3c1,0.6,3.5,2.6,3.9,8.6      c0.2,2.8,2.2,4.8,3,5.5c1.5-1,3.4-2.4,4.7-5.3l1.3-0.1c1.6,2.5,0.9,6.3,0.4,8.3c6.7,0.6,9.9,5,11.3,7.7l-0.9,1      c-11.8-3.5-16.2-0.1-20.8,3.4c-2.9,2.2-5.9,4.5-10.8,5.4c-7.7,1.3-11.6,0.5-12.6-0.2l0.8-1.2c0.8,0.5,4.6,1.2,11.6,0      c4.5-0.8,7.4-3,10.1-5.1c4.5-3.4,9.1-7,20.3-4.2c-1.6-2.4-4.7-5.3-10-5.4l-0.7-1c0.6-2,1-4.6,0.5-6.6c-1.5,2.5-3.5,3.8-4.9,4.7      l-0.8,0c-0.6-0.3-3.8-2.9-4.2-6.9c-0.4-6-2.9-7.5-3.5-7.6c-0.4,0.1-1.6,1.3-2.8,2.4c-5.8,5.7-19.2,19-42.1,19.1      c-0.1,0-0.2,0-0.3,0c-23.5,0-37.4-14.3-42.6-19.8c-0.8-0.8-1.6-1.7-1.8-1.8c-0.5,0.1-3,1.6-3.4,7.6c-0.3,3.6-3.1,6.2-4.1,6.8      l-0.8,0c-1.2-0.7-3.3-2-4.9-4.7c-0.5,2-0.1,4.6,0.5,6.6l-0.7,1c-5.4,0.2-8.4,3-10,5.4c11.2-2.8,15.9,0.7,20.4,4.2      c2.8,2.1,5.6,4.3,10.1,5.1c7.5,1.3,10.7,0.5,11.3,0.1l0.8,1.2C229.5,344.3,227.9,344.7,225.3,344.7L225.3,344.7z" id="XMLID_185_"/></g></g></g>
    <g><g><defs><rect height="26.3" id="XMLID_179_" width="107.3" x="202" y="323.3"/></defs><clipPath id="XMLID_202_"><use style="overflow:visible;" xlink:href="#XMLID_179_"/></clipPath><path
      class="st6"
      d="M221.1,336.9c-6.8-0.3-20-10.6-18.1-12.7c0.6-0.6,3.5,0,8.6,3.6c7.5,5.1,13.9,21.2,44,21.1     c30.6-0.1,36.9-16,44.4-21.1c5-3.5,8.2-4.1,8.5-3.4c1.8,2-11.4,12.3-18.2,12.6L221.1,336.9z"
      id="XMLID_183_"/><g class="st7"><path class="st2" d="M255.2,349.6c-18.3,0-28.1-6.1-34.4-11.9c-6.2-0.5-16.9-8.3-18.5-11.9c-0.4-1-0.2-1.7,0.1-2      c1.2-1.2,4.8,0.1,9.5,3.4c1.8,1.2,3.4,3,5.4,5c6.4,6.7,15.2,16,37.8,16c0.1,0,0.2,0,0.3,0c23.4-0.1,32.2-9.3,38.7-16.1      c1.9-2,3.5-3.7,5.3-4.9c3.8-2.7,7.2-4.1,8.8-3.7l0.8,0.6c0.2,0.2,0.5,0.8,0,1.8c-1.5,3.6-12.3,11.4-18.5,11.9      c-6.4,5.8-16.3,11.8-35.1,11.9C255.4,349.6,255.3,349.6,255.2,349.6L255.2,349.6z M307.7,324.8c-0.7,0-3.3,0.7-7.4,3.6      c-1.6,1.1-3.2,2.8-5.1,4.7c-0.8,0.8-1.7,1.8-2.6,2.7c5.1-1.5,12.1-6.5,14.5-9.6c0.8-1,0.7-1.4,0.7-1.4      C307.8,324.8,307.8,324.8,307.7,324.8L307.7,324.8z M203.5,324.8c0.1,0,0.1,0.4,0.6,1.1c2.2,3.1,9.4,8.3,14.6,9.8      c-0.9-0.9-1.7-1.8-2.5-2.6c-1.9-2-3.5-3.7-5.1-4.8C206.3,325,203.9,324.7,203.5,324.8L203.5,324.8z"/></g></g></g>
    <path class="st3"
          d="M211.8,232.8c-26.8,28.2-12.4,93.1,43.3,94c56,0.6,72.3-64.9,44.5-94.2L211.8,232.8z M217.2,233.7   c-14.3,24,0.6,66.1,38.7,66.1c38.4,0,52.5-42.4,38.4-66.2L217.2,233.7z"/>
    <g><path class="st2" d="M255.9,327.6c-0.3,0-0.5,0-0.8,0c-24.1-0.4-43.2-13-52.2-34.4c-8.9-21.3-5.5-46.3,8.3-60.9l1.1,1    c-13.4,14.2-16.7,38.5-8,59.3c8.8,20.9,27.3,33.1,50.8,33.5c23.6,0,42.7-11.7,51.9-32.8c9.1-20.9,5.8-45.6-7.9-60.2l1.1-1    c14.2,14.9,17.6,40.3,8.2,61.8C299.1,315.3,280,327.6,255.9,327.6L255.9,327.6z M255.9,300.6c-16.4,0-30.4-8-38.3-22    c-8.1-14.3-8.5-32.5-1-45.2l1.3,0.8c-7.3,12.3-6.9,29.9,1,43.7c7.7,13.5,21.2,21.2,37,21.2c16,0,29.1-7.5,36.8-21    c8-13.9,8.3-31.7,1-44.1l1.3-0.8c7.6,12.9,7.2,31.2-1,45.6C286,292.8,272.5,300.6,255.9,300.6L255.9,300.6z"/></g>
    <path class="st8"
          d="M265.7,335.1c1.9,0.4,3.7,2.4,3,4.5c-0.8,2.5-3.7,3.1-4.8,2.9c-1.2-0.7-0.5-1.7,3.2-2.1   c2.4-0.9,0.2-2.5-1.6-3.3C264.5,336.7,264.8,334.9,265.7,335.1L265.7,335.1z"
          id="XMLID_174_"/>
    <g><path class="st3" d="M264.3,342.6l-0.4,0c-0.6-0.3-0.6-0.6-0.6-0.9c0.1-0.7,1.5-1.2,3.8-1.4c0.6-0.2,1-0.5,1-0.9    c0-0.8-1.3-1.7-2.6-2.2c-0.6-0.2-0.7-0.9-0.6-1.4c0.1-0.5,0.4-0.8,0.7-0.8c1.3,0.3,2.4,1.1,3,2.1c0.5,0.8,0.5,1.7,0.3,2.5    C268.1,341.8,265.7,342.6,264.3,342.6L264.3,342.6z M265.6,335.2c-0.5,0-0.6,0.3-0.7,0.6c-0.1,0.4,0,1,0.5,1.2    c1.3,0.5,2.7,1.5,2.7,2.3c0,0.4-0.4,0.8-1.1,1c-2.2,0.2-3.5,0.7-3.7,1.3c-0.1,0.3,0.2,0.6,0.5,0.7l0.4,0c1.4,0,3.7-0.8,4.4-2.9    c0.3-0.8,0.2-1.6-0.2-2.4C267.8,336.2,266.8,335.4,265.6,335.2C265.7,335.2,265.6,335.2,265.6,335.2L265.6,335.2z"/></g>
    <path class="st8"
          d="M259.6,334.5c0.9-1,1.6,2.1,1.8,4.3c0.3,2.1,0.3,4.8-0.6,4.9c-0.5,0.1-0.1-2.5-0.6-4.8   C259.6,336.2,259.3,334.9,259.6,334.5L259.6,334.5z"
          id="XMLID_171_"/>
    <g><path class="st3" d="M260.9,343.8c-0.3,0-0.3-0.6-0.3-1.6c0-0.9-0.1-2.1-0.3-3.2c-0.7-2.7-1-4-0.6-4.5    c0.1,0,0.2,0,0.3,0c-0.5,0.7-0.2,2,0.4,4.5c0.3,1.1,0.3,2.4,0.3,3.3c0,0.8,0,1.5,0.2,1.5V343.8l0-0.1c0.8-0.1,0.8-2.5,0.5-4.8    c-0.1-1.4-0.4-2.8-0.8-3.7c0.5,0.9,0.8,2.5,0.9,3.7C261.6,339.6,262.1,343.6,260.9,343.8L260.9,343.8L260.9,343.8z" id="XMLID_170_"/></g>
    <path class="st8"
          d="M257.6,338.4c2.3,2.2-1.6,8.6-10,5.8c-0.5-0.9,3.3,0,6-0.5   C258.7,342.9,256.5,337.4,257.6,338.4L257.6,338.4z"
          id="XMLID_169_"/>
    <g><path class="st9" d="M251.5,344.9c-1.3,0-2.6-0.2-4-0.7c0-0.1,0-0.2,0.1-0.2c1.4,0.6,2.7,0.8,3.9,0.8    c3.6,0,5.7-1.9,6.3-3.6c0.5-1.1,0.3-2.2-0.4-2.8c-0.2-0.1-0.2,0.3-0.2,0.6c0,1.4-0.1,4.2-3.7,4.8c-0.7,0.1-1.4,0.2-2.1,0.2h0    c-0.6,0-1.2,0-1.8,0l-1.2,0c-0.2,0-0.8,0-0.9,0.2c0.1-0.2,0.4-0.3,0.9-0.3l1.2,0c1.2,0.1,2.6,0.1,3.8-0.1c3.5-0.5,3.5-3.3,3.6-4.6    c0-0.5,0-0.8,0.2-0.8c1,0.8,1.1,1.9,0.6,3.1C257.3,343,255.2,344.9,251.5,344.9L251.5,344.9z" id="XMLID_168_"/></g>
    <path class="st8"
          d="M253.4,334c0.9-1,0.4,2.2,0.6,4.4c0.2,2.1,0,4.6-1,4.2c-0.5-0.3,0.3-2.6-0.2-4.7   C252.2,335.2,252.7,334.7,253.4,334L253.4,334z"
          id="XMLID_167_"/>
    <g><path class="st3" d="M253.1,342.7l-0.2,0c-0.3-0.1-0.2-0.7-0.2-1.5c0.1-0.9,0.2-2.1-0.1-3.3    c-0.6-2.7,0-3.3,0.6-3.9c0.1,0,0.2,0,0.3,0c-0.9,0.8-1.3,1.4-0.8,3.9c0.3,1.2,0.2,2.4,0.1,3.3c-0.1,0.7-0.1,1.3,0.1,1.4    L253.1,342.7l0.3-0.3c0.5-0.6,0.6-2.5,0.5-4c-0.1-0.7,0-1.6,0-2.4c0-0.7,0-1.3,0-1.7c0.2,0.3,0.2,0.9,0.1,1.7c0,0.8,0,1.6,0,2.4    c0.1,1.6,0,3.5-0.5,4.1L253.1,342.7L253.1,342.7z" id="XMLID_166_"/></g>
    <path class="st8"
          d="M247.6,333.1c1.6,0,1.2,0.4,1.1,4.7c-0.1,4.8-4.2,5.4-5.2,4c-0.8-1-0.5-1.3-4.1-1   c-0.8-0.4-0.8-1.3-3.4-1.1c-0.7,0.1-0.7-1.2-1.9-2c-2.2-1.3-2.9,1-7-1.4c-0.3-0.1-1.9-1.2-1.6-3.3c0.3-2.6-2.1,0.3-4.7-0.8   c-0.5-0.2-2.1-0.9-3.4-2.1c-1.9-1.7,0.1-2,2.7-0.3c1.6,1,4-1.3,4.1-3.7c0.1-2.5-1.1-3.1,0.8-3.1c1.1,0,0.8,4.4-1,6.3   c-2.4,2.6-0.8,2.1,0.1,2c0.9-0.2,5-5.3,5.7-4.9c1.1,0.7-3.2,4-2.3,7.1c0.5,1.4,3,2.7,5.1,2.9c2.5,0.4,2.5-3,3.5-2.3   c1.4,0.9-2.7,2.6,1.6,3.9c0.9,0.3,1.5-2.1,2-2c1.3,0.2-0.9,2.8,1.5,3.2c1.7,0.3,1.2-2.4,2.2-2.2c1.2-0.1,0.1,4.3,3.4,3.8   C248.1,340.7,246,333.1,247.6,333.1L247.6,333.1z"
          id="XMLID_165_"/>
    <g><path class="st3" d="M245.1,342.6c-0.7,0-1.3-0.2-1.6-0.6c-0.9-1.2-1-1.3-4.1-1c-0.3-0.1-0.4-0.3-0.6-0.4    c-0.5-0.4-0.9-0.8-2.9-0.7c-0.4,0.2-0.6-0.3-0.8-0.7c-0.2-0.4-0.5-0.9-1.1-1.3c-0.7-0.4-1.5-0.5-2.3-0.3c-0.9,0.1-1.8,0.6-4.7-1.1    c-0.2-0.1-2-1.2-1.7-3.4c0.1-0.5,0-0.8-0.1-0.9c-0.5-0.1-0.9,0-1.2,0.1c-0.9,0.3-2.3,0.6-3.4,0.1c-0.6-0.3-2.1-0.9-3.5-2.1    c-0.6-0.5-0.9-0.9-0.8-1.2c0.1-0.3,1.3-0.6,3.6,0.8c1.5,0.9,3.9-1.4,3.9-3.6c0.1-0.9-0.1-1.6-0.2-2c-0.1-0.4-0.1-0.7,0-0.9    c0.1-0.1,0.4-0.2,0.8-0.2c0.4,0,0.6,0.1,0.7,0.5c0.5,1.2,0,4.4-1.5,5.9c-0.8,0.9-1.1,1.4-1.2,1.7c0-0.3,0.3-0.8,1.1-1.7    c1.5-1.5,1.9-4.6,1.4-5.8l-0.4-0.4l-0.2,0.1c-0.4,0-0.6,0.1-0.7,0.2c-0.1,0.1-0.1,0.4,0,0.8c0.1,0.5,0.2,1.2,0.2,2.1    c-0.1,2.4-2.6,4.7-4.2,3.7c-1.3-0.8-2.3-1.1-2.8-1.1c-0.6,0.3-0.6,0.6,0.2,1.3c1.3,1.1,2.8,1.8,3.3,2c1.3,0.5,2.4,0.2,3.3-0.1    c0.4-0.1,0.7-0.2,1-0.2c0.6,0.3,0.6,0.7,0.6,1.2c-0.3,2.1,1.4,3.1,1.6,3.2c2.8,1.6,3.7,1.2,4.6,1.1c0.9-0.1,1.6-0.1,2.4,0.4    c0.6,0.4,0.9,0.9,1.2,1.4c0.2,0.3,0.3,0.6,0.6,0.6c0.4,0,0.7,0,0.9,0c1.3,0,1.8,0.4,2.2,0.7c0.2,0.1,0.3,0.3,0.5,0.4    c3.1-0.3,3.4-0.1,3.9,0.7c0.5,0.7,1.1,0.9,1.7,0.9c1.7,0,3.5-1.4,3.6-4.6l0.1-2.2c0.1-1.4,0.1-2-0.2-2.3c-0.1-0.2-0.4-0.2-0.9-0.2    c-0.8,0.6-0.7,2.3-0.5,4c0.2,1.9,0.3,3.7-0.4,3.8c-2-0.2-2.5-1.5-2.7-2.6c-0.1-0.7-0.4-1.4-0.6-1.2c-0.5,0-0.6,0.4-0.8,0.9    c-0.2,0.6-0.5,1.4-1.3,1.4c-1.7-0.3-1.5-1.3-1.4-2.1c0.1-0.7,0.1-1.1-0.4-1.1c0,0,0,0,0,0c-0.2,0-0.4,0.4-0.7,0.8    c-0.3,0.6-0.7,1.2-1.2,1.2c-1.3-0.4-2-0.8-2.2-1.3c-0.2-0.5,0.1-1,0.3-1.4c0.3-0.6,0.5-0.9,0-1.2c-0.5-0.1-0.7,0.3-0.9,0.7    c-0.4,0.7-1,1.7-2.2,1.7c-2.5-0.2-5.1-1.6-5.6-3c-0.6-1.8,0.7-3.7,1.6-5.1c0.6-0.9,1.1-1.7,0.7-2h0c-0.5,0-1.9,1.4-3.1,2.7    c-1.1,1.2-2.1,2.2-2.5,2.3c-0.5,0.1-0.7,0.1-1,0.1c-0.1-0.1-0.2-0.2-0.2-0.2c0.5,0.1,0.7,0.1,0.9,0c0.6-0.1,1.7-1.2,2.7-2.3    c1.3-1.3,2.7-2.7,3.2-2.7c0.6,0.4,0.1,1.1-0.5,2.2c-0.9,1.4-2.1,3.2-1.6,5c0.5,1.4,3.1,2.7,5.1,2.9c1.6,0.1,2-0.9,2.4-1.6    c0.3-0.5,0.5-0.8,0.8-0.8c0.9,0.5,0.6,1,0.3,1.5c-0.2,0.4-0.5,0.9-0.3,1.3c0.2,0.4,0.8,0.8,1.9,1.1c0.5,0,0.9-0.6,1.2-1.1    c0.3-0.5,0.5-0.9,0.8-0.9c0.7,0.1,0.6,0.7,0.5,1.3c-0.1,0.8-0.2,1.7,1.1,1.9c0,0,0,0,0,0c0.9,0,1.1-0.6,1.3-1.3    c0.2-0.5,0.3-1,0.8-1c0.6,0,0.7,0.6,0.9,1.3c0.2,1.1,0.5,2.5,2.1,2.5c1-0.1,0.9-1.9,0.7-3.7c-0.1-1.7-0.3-3.4,0.2-4    c0.9-0.2,1.2-0.1,1.4,0.1c0.3,0.3,0.3,1,0.2,2.4l-0.1,2.2C248.7,341.1,246.8,342.6,245.1,342.6L245.1,342.6z" id="XMLID_164_"/></g>
    <path class="st8"
          d="M217.7,327.4c1-0.2,2.6-1.1,2.7-2.5c0.1-1.6-2-2.1-4.6-1.7c-1.4,0.2-3.7-0.7-5.1-1.8   c-1.4-1.7-1.4-3.6-3-2.8c-1.2,0.5,1.7,3.7,3.1,4.4c1.4,0.8,3.8,0.7,3.9,1.8C214.8,325.9,214.2,327.6,217.7,327.4L217.7,327.4z"
          id="XMLID_163_"/>
    <g><path class="st3" d="M217.3,327.5c-2.6,0-2.7-1.2-2.7-2.2c-0.1-1.2-1-1.4-2-1.7c-0.6-0.2-1.3-0.3-1.9-0.6    c-1.2-0.6-3.5-3-3.5-4.1c0.2-0.2,0.3-0.3,0.4-0.4c-0.3,1.4,1.9,3.7,3.1,4.3c0.5,0.3,1.2,0.4,1.8,0.6c1,0.3,2,0.5,2.1,1.2    c0,1.6,0,2.6,2.5,2.6V327.5l0.4-0.1c0.8-0.2,2.5-1,2.6-2.5c0-0.4-0.1-0.7-0.3-1c-0.7-0.7-2.3-1-4.3-0.7c-1.9,0.2-3.8-0.8-5.1-1.9    c-0.5-0.6-0.8-1.1-1-1.6c-0.5-1-0.9-1.7-1.9-1.1c0.3-0.3,0.5-0.3,0.6-0.3c0.6,0,1,0.6,1.4,1.4c0.3,0.5,0.6,1.1,1,1.6    c1.2,1,3.2,1.9,4.6,1.9c1-0.1,1.5-0.2,2-0.2c1.3,0,2.3,0.3,2.8,0.8c0.3,0.3,0.4,0.7,0.4,1.1c-0.1,1.4-1.6,2.4-2.7,2.6L217.3,327.5    L217.3,327.5z" id="XMLID_162_"/></g>
    <path class="st8"
          d="M275.8,334.8c-0.5,0.3-1,5,2,5.1c3.7,0.1,5.6-1.8,6.6-2.4c1.6-1.2,4.4-3.6,3.1-5.6   c-0.6-0.7-1,1.4-1.8,2.6c-1,1.8-4.5,3.9-7.2,3.7C275.3,337.9,276.5,334.6,275.8,334.8L275.8,334.8z"
          id="XMLID_161_"/>
    <g><path class="st3" d="M278.3,340l-0.4,0c-1.2,0-2-0.9-2.3-2.3c-0.3-1.3-0.1-2.8,0.3-3c0.4-0.1,0.3,0.3,0.4,0.7    c0.1,0.9,0.2,2.5,2.4,2.6c3.2-0.1,6.2-1.9,7.1-3.6c0.3-0.4,0.5-0.9,0.7-1.4c0.3-0.8,0.6-1.4,0.9-1.4c0.1,0.1,0.1,0.2,0.2,0.2    c-0.5,0-0.7,0.5-0.9,1.2c-0.2,0.5-0.4,1-0.7,1.4c-1,1.7-4.1,3.7-6.7,3.7c-2.8-0.2-2.9-1.9-3-2.8c0-0.3,0-0.6-0.2-0.6    c-0.3,0.1-0.5,1.5-0.2,2.8c0.2,1,0.8,2.2,2.2,2.2L278.3,340v-0.1c3,0,4.7-1.3,5.8-2.1c2.6-2,3.8-3.5,3.8-4.8    c0.1,1.4-1,2.8-3.3,4.6C283.1,338.6,281.3,340,278.3,340L278.3,340z" id="XMLID_160_"/></g>
    <path class="st8"
          d="M283.5,332.6c-0.8-0.6,1.7-1.5,1.9-2.4c0.3-0.9-1.1-1.7-0.3-2.7c0.8-1.3,0.8,2.4,1.8,2.5   c2.7,0.3,0.8,2.1-0.3,1.7C285.5,331.3,284,333,283.5,332.6L283.5,332.6z"
          id="XMLID_159_"/>
    <g><path class="st3" d="M283.7,332.7l-0.2-0.1c0-0.1,0-0.2,0-0.3l0.3,0.3c0.2,0,0.5-0.2,0.9-0.4c0.5-0.3,1.1-0.6,1.7-0.6l0.6,0.1    c0.6,0,1.3-0.5,1.3-0.9c0-0.4-0.5-0.6-1.3-0.7c-0.5-0.1-0.8-0.9-1-1.7c-0.1-0.4-0.2-0.8-0.4-1c0.2,0.1,0.3,0.5,0.5,0.9    c0.2,0.7,0.5,1.6,0.9,1.6c1.3,0.1,1.5,0.6,1.5,0.9c0,0.5-0.8,1-1.4,1l-0.6-0.1c-0.5,0-1.1,0.3-1.6,0.6    C284.3,332.5,284,332.7,283.7,332.7L283.7,332.7L283.7,332.7z M283.5,332.3c0.1-0.4,0.4-0.7,0.8-1c0.5-0.4,1-0.8,1.1-1.1    c0.1-0.4-0.1-0.7-0.3-1.1c-0.3-0.5-0.5-1.1-0.1-1.6c0.1,0,0.2-0.1,0.3-0.1c-0.6,0.7-0.3,1.2-0.1,1.7c0.2,0.4,0.4,0.8,0.3,1.2    c-0.1,0.4-0.7,0.8-1.2,1.2C284,331.7,283.5,332,283.5,332.3L283.5,332.3z"/></g>
    <path class="st8" d="M281.4,326.9c-0.2,1.2,0.6,1.5,0.8,0.8C282.5,326.5,281.7,325.8,281.4,326.9L281.4,326.9z"
          id="XMLID_156_"/>
    <g><path class="st10" d="M281.4,326.9c-0.2,1.2,0.6,1.5,0.8,0.8C282.5,326.5,281.7,325.8,281.4,326.9z" id="XMLID_155_"/></g>
    <path class="st8"
          d="M283.4,325.7c-0.4,0-0.5,1.6,0.1,1.6c0.6,0,0.3,1.1,0.9,1.1c0.6,0,0.7-1.8,0-1.8   C283.6,326.6,283.8,325.7,283.4,325.7L283.4,325.7z"
          id="XMLID_154_"/>
    <g><path class="st3" d="M284.3,328.4L284.3,328.4l-0.4-0.5c-0.1-0.3-0.1-0.5-0.4-0.5c-0.4,0-0.5-0.5-0.5-0.9c0-0.4,0.1-0.8,0.4-0.9    c0.5,0.7,0.6,0.9,0.9,0.9c0.4,0,0.6,0.5,0.6,0.9C284.9,327.9,284.7,328.4,284.3,328.4L284.3,328.4L284.3,328.4z M283.4,325.9    c-0.2,0-0.3,0.3-0.3,0.5c0,0.4,0.1,0.7,0.4,0.7c0.4,0,0.5,0.4,0.5,0.6l0.3,0.5l0-0.1c0.3,0,0.4-0.4,0.4-0.8c0-0.4-0.1-0.8-0.4-0.8    c-0.4,0-0.5-0.3-0.6-0.6C283.5,326,283.4,325.9,283.4,325.9L283.4,325.9z"/></g>
    <path class="st8"
          d="M288.4,325.4c-0.5,0.7-1.5-2.6,1.8-3c1.6,0.1,3,2.8,2.8,5.3c-0.1,0.9-0.1,3.1-0.6,4.1   c-0.4,1-2,4.2-2.7,3.9c-0.8-0.3,0.2-1.6,1.5-3.5c1-1.5,1.4-5.8,0.9-6.6c-0.5-0.8-1,1.9-2.1,2.4c-0.9,0.5-1.8-0.9-2-1.5   c-0.1-0.8,0.6-1.3,1.1-0.3c0.4,0.7,1.6-0.7,1.5-1.7C290.6,322.9,289.5,324.1,288.4,325.4L288.4,325.4z"
          id="XMLID_151_"/>
    <g><path class="st3" d="M289.8,335.8l-0.1,0c-0.1-0.1-0.1-0.2-0.1-0.3l0.2,0.2c0.7,0,2-2.6,2.6-3.9c0.4-0.9,0.5-2.6,0.6-3.7    c0.2-2.9-1.2-5.5-2.7-5.6c-1.8,0.2-2.4,1.3-2.3,2.3c0,0.4,0.2,0.7,0.3,0.7c1.1-1.1,1.7-1.7,2.1-1.7c0.3,0.2,0.4,0.4,0.4,0.8    c0,0.6-0.3,1.2-0.7,1.6c-0.2,0.2-0.4,0.3-0.6,0.3c-0.5-0.5-0.7-0.7-0.9-0.7c-0.4,0.3-0.5,0.5-0.4,0.8c0.1,0.5,0.8,1.6,1.5,1.6    c0.9-0.3,1.2-1.1,1.6-1.7c0.3-0.6,0.5-1,0.7-1c0.1,0.1,0.1,0.2,0.2,0.3c0,0,0,0,0,0c-0.3-0.1-0.5,0.3-0.8,0.8    c-0.3,0.6-0.7,1.4-1.3,1.7c-1.2,0-1.9-1-2.1-1.6c0-0.3,0-0.6,0.2-0.7c0.5-0.2,0.8-0.1,1,0.4l0.8-0.2c0.3-0.3,0.7-1,0.7-1.5    c0-0.4-0.1-0.6-0.1-0.6c-0.4-0.1-1,0.6-1.7,1.3l-0.5,0.4c-0.2,0-0.4-0.4-0.5-0.8c-0.1-1,0.5-2.1,2.4-2.4c1.6,0.2,3,2.8,2.9,5.4    c-0.1,1.4-0.2,3.2-0.6,4.1C292.5,331.8,290.8,335.8,289.8,335.8L289.8,335.8z M289.5,335c0.1-0.7,0.7-1.6,1.4-2.6    c1-1.6,1.4-5.1,1.2-6.4c0.4,1.5-0.1,4.9-0.9,6.2C290.4,333.4,289.7,334.4,289.5,335L289.5,335z"/></g>
    <path class="st8"
          d="M295.6,318.2c-0.4,0.6-1.9,2-2.2,2.5c-0.3,0.6-0.3,1.6,0.1,2.5c0.5,0.9,1.5,2.4,1.3,3.8   s-1.1,4.2-0.6,3.9c0.5-0.2,1.8-3,1.5-5.1c-0.3-2.1-1.3-3.3-1.1-4c0.2-0.7,1.4-2,1.6-2.9c0.2-0.9-0.1-3.3-0.5-3.5   c-0.3-0.2-1.5,0.2-1.1,1C295,317.3,295.8,316.8,295.6,318.2L295.6,318.2z"
          id="XMLID_148_"/>
    <g><path class="st3" d="M294.2,331l-0.1-0.1c-0.2-0.2,0-0.9,0.3-2.2c0.2-0.7,0.3-1.3,0.4-1.8c0.2-1.1-0.5-2.4-1-3.3    c-0.8-1.5-0.7-2.5-0.4-3c0.2-0.3,0.7-0.9,1.2-1.5c0.4-0.4,0.8-0.8,0.9-1.1c0.1-0.8-0.1-0.9-0.4-1.1c-0.2-0.1-0.4-0.2-0.6-0.6    c-0.1-0.2-0.1-0.5,0-0.7c0.2-0.3,0.6-0.5,1-0.5c0.6,0.3,1,2.7,0.7,3.6c-0.1,0.5-0.5,1.1-0.9,1.6c-0.3,0.5-0.6,1-0.7,1.3    c-0.1,0.3,0.1,0.7,0.3,1.3c0.3,0.7,0.6,1.5,0.8,2.6C296.1,327.9,294.8,330.7,294.2,331L294.2,331L294.2,331z M295.6,315.5    c-0.4,0-0.7,0.2-0.9,0.4c0.1,0.8,0.3,0.9,0.5,1.1c0.3,0.2,0.6,0.3,0.4,1.2c-0.2,0.3-0.6,0.7-1,1.1c-0.5,0.6-1.1,1.1-1.2,1.5    c-0.3,0.5-0.3,1.5,0.1,2.4c0.8,1.4,1.4,2.7,1.3,3.8c-0.1,0.5-0.2,1.2-0.4,1.8c-0.2,0.8-0.5,1.9-0.3,2.1l0,0c0.5-0.2,1.7-2.9,1.5-5    c-0.1-1.1-0.5-1.9-0.7-2.6c-0.2-0.6-0.4-1.1-0.3-1.4c0.1-0.3,0.4-0.8,0.7-1.3c0.4-0.6,0.7-1.1,0.9-1.6c0.2-0.9-0.2-3.2-0.4-3.4    C295.7,315.5,295.7,315.5,295.6,315.5L295.6,315.5z"/></g>
    <path class="st8" d="M297.5,319.3c-0.5,0.5-0.3,3.1,0.5,2.2C298.7,320.5,298,318.8,297.5,319.3L297.5,319.3z"
          id="XMLID_145_"/>
    <g><path class="st10" d="M297.5,319.3c-0.5,0.5-0.3,3.1,0.5,2.2C298.7,320.5,298,318.8,297.5,319.3z" id="XMLID_144_"/></g>
    <path class="st8" d="M283.7,338.7c-0.2,1.1,0.9,1.5,1.2,0.9C285.3,338.3,284.2,337.7,283.7,338.7L283.7,338.7z"
          id="XMLID_143_"/>
    <g><path class="st10" d="M283.7,338.7c-0.2,1.1,0.9,1.5,1.2,0.9C285.3,338.3,284.2,337.7,283.7,338.7z" id="XMLID_142_"/></g>
    <path class="st8" d="M285.5,337.7c-0.4,0.9,1.3,1,1.7,0.5C287.7,337.2,286.1,336.9,285.5,337.7L285.5,337.7z"
          id="XMLID_141_"/>
    <g><path class="st3" d="M286.3,338.6c-0.4,0-0.7-0.1-0.9-0.3c0-0.2,0.1-0.3,0.1-0.4c0.3,1.1,1.3,0.6,1.6,0.3    c-0.1-1.4-1-0.9-1.5-0.5c0.5-0.8,1.4-0.5,1.6-0.1c0.1,0.1,0.1,0.4,0,0.7C287.1,338.5,286.7,338.6,286.3,338.6L286.3,338.6z" id="XMLID_140_"/></g>
    <path class="st3" d="M217.5,324.2c-0.9-0.4-0.8,1.4-0.4,1.8C217.5,326.5,219.9,325.3,217.5,324.2L217.5,324.2z"
          id="XMLID_139_"/>
    <g><path class="st3" d="M217.4,326.2L217.4,326.2L217,326c-0.3-0.3-0.4-1.2-0.2-1.7l0.7-0.2c1,0.5,1.1,0.9,1.1,1.2    C218.5,325.9,217.8,326.2,217.4,326.2L217.4,326.2z M217.5,324.2c-0.7,0.6-0.6,1.4-0.3,1.7l0.3,0.1l0,0c0.4,0,1-0.3,1.1-0.7    C218.5,324.9,218.2,324.6,217.5,324.2L217.5,324.2z"/></g>
    <path class="st3"
          d="M256.1,227.7c-8.8,1.8-14.8,6.9-12,8.7c1.7,1.2,9.9-2,11.6-4.7c3.1,4.8,11.6,6.6,13.6,5.5   L256.1,227.7z"
          id="XMLID_136_"/>
    <g><path class="st2" d="M267.5,238.1c-3.4,0-9-1.9-11.9-5.3c-1.8,1.9-5.8,3.7-8.7,4.3c-1.6,0.3-2.6,0.3-3.3-0.2    c-0.8-0.5-1.2-1.3-1-2.2c0.5-2.9,6.6-6.5,13.3-7.8c0.4-0.1,0.8,0.2,0.9,0.6c0.1,0.4-0.2,0.8-0.6,0.9c-6.9,1.4-11.8,4.9-12.1,6.6    c0,0.2,0,0.5,0.3,0.7c0.2,0.1,0.8,0.2,2.2,0c2.9-0.6,7.3-2.7,8.4-4.4l0.6-1l0.6,1c3,4.6,11.1,6.1,12.7,5.2c0.4-0.2,0.8,0,1,0.3    c0.2,0.4,0.1,0.8-0.3,1C269.1,238,268.4,238.1,267.5,238.1L267.5,238.1z" id="XMLID_135_"/></g>
    <path class="st3"
          d="M210.5,224.8c1.5,2.3,9,7.7,14.4,8.1c5.4,0.4,17.8,2.9,20.1,1.9c2.4-1.1,9.1-5.7,10.9-4.9   c1.7,0.8,11.8,6.4,15.5,6.2c3.7-0.1,27.7-6.9,28.5-8.2c0.8-1.3-4.8-4.8-8.3-4.8C288,223.1,210.5,225,210.5,224.8L210.5,224.8z"
          id="XMLID_134_"/>
    <path class="st3" d="M231.6,235.8c0,1.4,1.1,2.3,3.6,2.4c4.2,0.1,11.3-1.9,15.5-6.7L231.6,235.8z" id="XMLID_133_"/>
    <g><path class="st2" d="M235.5,238.9c-0.1,0-0.2,0-0.3,0c-3.8,0-4.3-2.2-4.3-3.1c0-0.4,0.3-0.8,0.7-0.8    c0.6,0,0.8,0.3,0.8,0.7c0,1.1,1,1.6,2.8,1.6c4.4,0,11.1-2.1,15-6.4c0.3-0.3,0.8-0.3,1.1-0.1c0.3,0.3,0.3,0.7,0.1,1.1    C246.8,237.1,239.5,238.9,235.5,238.9L235.5,238.9z" id="XMLID_132_"/></g>
    <path class="st3" d="M219.1,233.8c-0.2,1.1,1.7,2.6,5.3,2.7c3.7,0,16.5-1.5,20.6-5.8L219.1,233.8z" id="XMLID_131_"/>
    <g><path class="st2" d="M224.5,237.2c0,0-0.1,0-0.1,0c-2.5,0-4.6-0.7-5.6-1.9c-0.4-0.5-0.6-1.1-0.5-1.6    c0.1-0.4,0.5-0.7,0.9-0.6c0.4,0.1,0.7,0.5,0.6,0.9c0,0.1,0,0.3,0.2,0.4c0.5,0.6,2,1.3,4.4,1.4c4-0.1,16.2-1.6,20-5.6    c0.3-0.3,0.8-0.3,1.1,0c0.3,0.3,0.3,0.8,0,1.1C241.1,235.7,227.9,237.2,224.5,237.2L224.5,237.2z" id="XMLID_130_"/></g>
    <path class="st3" d="M210.4,230.3c-2,2.5,4.3,3.4,8.1,3.4c3.8,0,13.4-0.1,17.8-3.3L210.4,230.3z" id="XMLID_129_"/>
    <g><path class="st2" d="M218.4,234.5c-1.3,0-7.8-0.1-9-2.5c-0.2-0.4-0.4-1.2,0.3-2.1c0.3-0.3,0.7-0.4,1-0.1    c0.3,0.3,0.4,0.7,0.1,1c-0.3,0.4-0.2,0.5-0.2,0.6c0.5,0.9,4.1,1.6,7.6,1.6c3.8,0,13.3-0.1,17.4-3.2c0.3-0.2,0.8-0.2,1,0.2    c0.2,0.3,0.2,0.8-0.2,1c-4.5,3.3-14,3.4-18,3.5C218.6,234.5,218.5,234.5,218.4,234.5L218.4,234.5z" id="XMLID_128_"/></g>
    <path class="st3" d="M203.5,226.1c-1.9,2.5,4.4,4.7,12.1,4.5c7.1-0.2,14.3-2.6,14.3-2.6L203.5,226.1z"
          id="XMLID_127_"/>
    <g><path class="st2" d="M214.8,231.3c-5.3,0-11-1.1-12.2-3.5c-0.4-0.7-0.3-1.5,0.3-2.3c0.2-0.3,0.7-0.4,1-0.1    c0.3,0.2,0.4,0.7,0.2,1c-0.2,0.3-0.2,0.5-0.1,0.7c0.7,1.4,5.6,2.8,11.6,2.6c6.9-0.2,14-2.6,14.1-2.6c0.4-0.1,0.8,0.1,0.9,0.5    c0.1,0.4-0.1,0.8-0.5,0.9c-0.3,0.1-7.4,2.5-14.5,2.7C215.4,231.3,215.1,231.3,214.8,231.3L214.8,231.3z" id="XMLID_126_"/></g>
    <path class="st3" d="M279.6,235.8c0,1.4-1.1,2.3-3.6,2.4c-4.2,0.1-11.3-1.9-15.5-6.7L279.6,235.8z" id="XMLID_125_"/>
    <g><path class="st2" d="M275.8,238.9c-4,0-11.3-1.8-15.8-6.9c-0.3-0.3-0.2-0.8,0.1-1.1c0.3-0.3,0.8-0.2,1.1,0.1    c3.8,4.3,10.5,6.4,15,6.4c1.9,0,2.8-0.6,2.8-1.6c0-0.4,0.2-0.7,0.8-0.7c0.4,0,0.7,0.4,0.7,0.8c0,0.9-0.5,3-4.3,3.1    C275.9,238.9,275.9,238.9,275.8,238.9L275.8,238.9z" id="XMLID_124_"/></g>
    <path class="st3" d="M292.2,233.8c0.2,1.1-1.7,2.6-5.3,2.7c-3.7,0-16.5-1.5-20.6-5.8L292.2,233.8z" id="XMLID_123_"/>
    <g><path class="st2" d="M286.7,237.2c-3.4,0-16.6-1.4-21-6c-0.3-0.3-0.3-0.8,0-1.1c0.3-0.3,0.8-0.3,1.1,0    c3.8,4,16,5.6,20,5.6c2.5,0,3.9-0.8,4.4-1.4c-0.1-0.4,0.3-1,0.7-1.1c0.4-0.1,0.9,0,1,0.4c0.1,0.5-0.1,1.1-0.5,1.6    c-1,1.2-3,1.9-5.6,1.9C286.8,237.2,286.8,237.2,286.7,237.2L286.7,237.2z" id="XMLID_122_"/></g>
    <path class="st3" d="M300.8,230.4c2,2.5-4.2,3.4-8,3.3c-3.8,0-13.5-0.1-17.8-3.3L300.8,230.4z" id="XMLID_121_"/>
    <g><path class="st2" d="M293,234.5c-0.1,0-0.2,0-0.2,0c-4.2,0-13.8-0.2-18.2-3.5c-0.3-0.2-0.4-0.7-0.2-1    c0.2-0.3,0.7-0.4,1-0.2c4.1,3,13.6,3.1,17.2,3.2c3.7,0.2,7.3-0.7,7.8-1.6c-0.3-0.3-0.3-1.1,0-1.3c0.3-0.2,0.7-0.5,0.9-0.1    c0.7,0.9,0.6,1.7,0.4,2.1C300.6,234.3,294.4,234.5,293,234.5L293,234.5z" id="XMLID_120_"/></g>
    <path class="st3" d="M307.7,226c1.9,2.5-4.5,4.7-12.1,4.5c-7.1-0.2-14.3-2.6-14.3-2.6L307.7,226z" id="XMLID_119_"/>
    <g><path class="st2" d="M296.4,231.3c-0.3,0-0.5,0-0.8,0c-7.1-0.2-14.2-2.6-14.5-2.7c-0.4-0.1-0.6-0.6-0.5-0.9    c0.1-0.4,0.6-0.6,0.9-0.5c0.1,0,7.2,2.4,14.1,2.6c6,0.1,10.9-1.3,11.6-2.7c0.1-0.2,0.1-0.4-0.1-0.7c-0.2-0.3-0.2-0.8,0.2-1    c0.3-0.3,0.8-0.2,1,0.1c0.5,0.7,0.6,1.5,0.2,2.3C307.4,230.2,301.7,231.3,296.4,231.3L296.4,231.3z" id="XMLID_118_"/></g>
    <path class="st3"
          d="M218.6,225.8c-9.8,1.4-14.3,0.7-16.2-0.2c-2.4-1.1-6.6-4.3-0.4-4.5c4.1-0.1,6.1,0.2,10.8,0.2   c11.9-0.2,29-9.5,34.2-9.6c4.8,0,6.1,2.2,8.9,2.2c2.8,0,3.7-2.3,8.5-2.2c5.2,0,22.3,9.4,34.2,9.6c4.6,0,6.7-0.3,10.8-0.2   c6.2,0.1,2,3.4-0.5,4.5c-1.9,0.9-6.4,1.7-16.2,0.2H218.6z"
          id="XMLID_117_"/>
    <g><path class="st2" d="M302.1,227.4c-2.4,0-5.6-0.2-9.6-0.8c-0.4-0.1-0.7-0.4-0.6-0.8c0.1-0.4,0.5-0.7,0.8-0.6    c10.3,1.5,14.3,0.5,15.8-0.2c1.8-0.8,3.3-2.1,3.2-2.6l0,0c0,0-0.3-0.4-2.5-0.5c-2.1,0-3.6,0-5.3,0.1c-1.6,0.1-3.2,0.1-5.5,0.1    c-7.3-0.1-16.3-3.5-23.6-6.3c-4.6-1.8-8.7-3.3-10.6-3.3c-2.5,0.1-3.9,0.7-5.1,1.3c-1,0.5-2,1-3.4,1c-1.3,0-2.3-0.5-3.4-1    c-1.3-0.6-2.9-1.3-5.5-1.3c-1.9,0-6,1.5-10.6,3.3c-7.3,2.8-16.3,6.2-23.6,6.3c-2.2,0-3.9-0.1-5.5-0.1c-1.7-0.1-3.2-0.1-5.3-0.1    c-2.2,0-2.5,0.5-2.5,0.5c0,0.4,1.4,1.7,3.2,2.5c1.5,0.7,5.5,1.7,15.8,0.2c0.4-0.1,0.8,0.2,0.8,0.6c0.1,0.4-0.2,0.8-0.6,0.8    c-10.2,1.5-14.7,0.6-16.6-0.3c-1.2-0.5-4.4-2.4-4.1-4.2c0.3-1.4,2.4-1.7,3.9-1.7c2.1,0,3.7,0,5.4,0.1c1.5,0.1,3.1,0.1,5.4,0.1    c7-0.1,15.9-3.5,23.1-6.2c5-1.9,8.9-3.4,11.1-3.4c3.1,0.1,4.7,0.8,6.1,1.4c1,0.5,1.8,0.8,2.8,0.8c0.8-0.2,1.8-0.4,2.7-0.8    c1.3-0.6,2.8-1.3,5.8-1.4c2.2,0,6.1,1.5,11.1,3.4c7.2,2.7,16.1,6.1,23.1,6.2c2.3,0,3.8-0.1,5.4-0.1c1.7-0.1,3.3-0.1,5.4-0.1    c1.5,0,3.6,0.2,3.9,1.7c0.4,1.8-2.8,3.6-4.1,4.2C307.9,226.9,305.8,227.4,302.1,227.4L302.1,227.4z" id="XMLID_116_"/></g>
    <path class="st3"
          d="M255.6,190.8c-4.6,0.2-10.9-0.6-12.9,4.6c-3.1,5.9-2.2,12.5-0.8,12.7c2.5,0.3,2.7-6.6,3.8-6.6   c1.1,0,1.1,6,3.3,6c1.6,0,2.6-6.1,3.1-6c0.5,0,1.6,5.8,3.6,5.8c2.2,0,3.1-5.7,3.6-5.8c0.5,0,1.5,6,3.1,6c2.2,0,2.2-6,3.3-6   c1.1,0,1.5,6.9,4,6.6c1.4-0.1,2.1-6.7-1-12.6C266.6,190.2,260.2,191,255.6,190.8L255.6,190.8z"
          id="XMLID_115_"/>
    <g><path class="st2" d="M242,208.7l-0.2,0c-0.3,0-0.8-0.2-1.2-1c-1.1-2-1.2-7.7,1.5-12.8c1.9-4.8,7.2-4.8,11.5-4.9    c0.7,0,1.4,0,2.1-0.1c0.7,0,1.5,0,2.2,0.1c4.3,0.1,9.7,0.2,11.6,5c2.7,5.1,2.6,10.7,1.6,12.7c-0.4,0.7-0.9,0.9-1.2,0.9    c0,0,0,0,0,0c-2.2,0-3-2.7-3.7-4.8c-0.2-0.5-0.3-1.1-0.5-1.5c0,0.4-0.1,1-0.2,1.4c-0.5,1.9-1.1,4.3-2.9,4.3    c-1.6,0-2.4-2.5-3.1-4.7c0-0.1,0-0.1-0.1-0.2c-0.7,1.9-1.7,4.7-3.6,4.7c-1.9,0-2.9-2.7-3.6-4.7c0,0.1,0,0.1-0.1,0.2    c-0.7,2.2-1.5,4.7-3.1,4.7c-1.9,0-2.5-2.4-3-4.3c-0.1-0.4-0.2-1-0.4-1.4c0,0.4-0.1,1-0.3,1.4C244.7,206,243.9,208.7,242,208.7    L242,208.7z M255.6,191.5c-0.6,0-1.3,0-2.1,0.1c-4.2,0.1-8.6,0.1-10.1,4c-3,5.6-2,11.2-1.3,11.7l0,0c0.8,0,1.5-2.5,1.9-3.8    c0.5-1.7,0.8-2.9,1.8-2.9c1,0,1.4,1.2,1.8,2.8c0.3,1.1,0.8,3.1,1.5,3.1c0.6-0.2,1.4-2.8,1.7-3.7c0.5-1.6,0.7-2.3,1.5-2.3    c0.7,0.1,0.9,0.6,1.4,2c0.4,1.1,1.4,3.8,2.2,3.8c0.9,0,1.9-2.7,2.3-3.8c0.4-1.3,0.6-1.9,1.3-1.9c0.6-0.2,1,0.7,1.6,2.3    c0.3,1,1.1,3.5,1.7,3.7c0.7,0,1.2-2.1,1.5-3.2c0.4-1.6,0.7-2.8,1.8-2.8c1,0,1.3,1.1,1.8,2.8c0.4,1.4,1.2,3.8,2,3.8    c0.6-0.5,1.4-6-1.5-11.5c-1.6-4-6.2-4-10.3-4.1C257,191.5,256.2,191.5,255.6,191.5L255.6,191.5z"/></g>
    <path class="st3" d="M244.6,192.9c1.2,2.1,10.9,2,11.4,2c0.5,0,8.9,0.1,10.9-1.9L244.6,192.9z" id="XMLID_112_"/>
    <g><path class="st2" d="M256.3,195.6c-0.1,0-0.2,0-0.3,0c-4.1,0-10.8-0.3-12-2.4l1.3-0.8c0.6,1,5,1.7,10.6,1.7    c0.1,0,0.2,0,0.3,0c5.2,0,9.2-0.7,10.2-1.7l1.1,1C265.6,195.3,259.7,195.6,256.3,195.6L256.3,195.6z" id="XMLID_111_"/></g>
    <path class="st3" d="M253.9,171.2v20.4c0,0,0.1,1.1,1.8,1.2c1.7,0,2-1,2-1.1l-0.1-20.6L253.9,171.2z" id="XMLID_110_"/>
    <g><path class="st2" d="M255.7,193.6c0,0-0.1,0-0.1,0c-1.9,0-2.5-1.2-2.5-1.9l0-20.5h1.5v20.4h0c0,0,0.2,0.4,1.1,0.4    c1.1,0,1.2-0.4,1.2-0.5l-0.1-20.5h1.5l0.1,20.6c0,0.3-0.1,0.7-0.6,1.1C257.5,193.2,256.8,193.6,255.7,193.6L255.7,193.6z" id="XMLID_109_"/></g>
    <path class="st3"
          d="M255.8,173.6c7.7-0.4,10,4.1,12.2,5.1c2.2,1,3.2,1.4,6.1,1.2c3-0.2-5.1,4.9-5.1,5.1l3,5.3   c-2.8,0.4-8-2.2-10.1-3.6c-2.3-1.4-4.9-0.6-5.9-0.8L255.8,173.6z"
          id="XMLID_108_"/>
    <g><path class="st2" d="M271.3,191.2c-3.3,0-8.1-2.6-9.9-3.7c-1.1-0.6-2.8-0.8-4.2-0.7l-0.8,0l-0.6-0.1l-0.6-0.7l-0.1-13.2l1.7-0.1    c5.3,0,8.1,2.4,9.9,4c0.6,0.6,1.2,1,1.7,1.2c2.1,1,3,1.3,5.8,1.1c0,0,0,0,0,0c1,0,1.3,0.4,1.4,0.7c0.3,0.9-0.7,1.9-4.9,4.9    c-0.2,0.2-0.5,0.3-0.6,0.5l3.2,5.7L271.3,191.2L271.3,191.2z M258.4,185.2c1.5,0,2.8,0.3,3.8,0.9c2,1.3,5.9,3.2,8.4,3.5l-2.3-4.2    c-0.1-0.8,0-0.8,1.4-1.8c0.8-0.6,2.8-2,3.8-2.9c-2.9,0.1-3.7-0.3-5.8-1.3c-0.7-0.3-1.3-0.8-2-1.5c-1.7-1.5-4.1-3.6-8.9-3.6l-0.2,0    l0.1,11l0.4,0C257.5,185.3,258,185.2,258.4,185.2L258.4,185.2z"/></g>
    <path class="st3"
          d="M260.1,167.4c0,2.3-2,4.2-4.4,4.2c-2.5,0-4.4-1.9-4.4-4.2c0-2.3,2-4.2,4.4-4.2   C258.1,163.1,260.1,165,260.1,167.4L260.1,167.4z"
          id="XMLID_105_"/>
    <g><path class="st2" d="M255.7,172.1c-2.7,0-4.9-2.1-4.9-4.7c0-2.6,2.2-4.7,4.9-4.7c2.7,0,4.9,2.1,4.9,4.7    C260.6,170,258.4,172.1,255.7,172.1L255.7,172.1z M255.7,163.6c-2.2,0-3.9,1.7-3.9,3.7c0,2.1,1.8,3.7,3.9,3.7    c2.2,0,3.9-1.7,3.9-3.7C259.6,165.3,257.8,163.6,255.7,163.6L255.7,163.6z"/></g>
    <path class="st8"
          d="M208.1,268.9c-0.6,0.8-1.1-1.3-3.1,0.2c-1.1,1-1.6,2.5-1.6,5.6c0,2.6,1.5,4.4,2.4,4.2   c1.4-0.2,0.6-3.4,2.1-4c2.1-1,5.1,0.5,5.6,2.5c0.5,1.9-1,4-2.6,3.8c-0.9-0.3,0.5-1.7,0.6-2.3c0.1-0.6,0.3-2.5-1.1-3.1   c-1.4-0.5-1.2,1.4-1.2,1.9c-0.1,0.5-1.1,2.2-2.2,2.1c-1.1-0.1-2.9-0.1-4.6-1.9c-0.9-1-2.1-3.6-1.1-6.9c1-3.3,2.7-3.6,3.6-3.6   C205.9,267.4,208.3,268,208.1,268.9L208.1,268.9z"
          id="XMLID_102_"/>
    <g><path class="st3" d="M211.2,281.3l-0.3,0c-0.5-0.7-0.2-1.2,0.2-1.7c0.2-0.3,0.4-0.5,0.4-0.7c0-0.1,0.5-2.4-1-2.9    c-1,0-1.1,0.7-1.1,1.5c-0.1,0.9-1.1,2.6-2.2,2.6c-1.4-0.1-3.1-0.2-4.8-2c-1-1-2.1-3.7-1.1-7c1-3.2,2.6-3.7,3.7-3.7    c1.1-0.1,2.5,0.3,3.1,1l0,0l0.1,0.6l-0.9,0c-0.5-0.3-1.3-0.5-2.2,0.2c-1.1,1-1.5,2.5-1.5,5.5c0,2.6,1.4,4.1,2.2,4.1    c0.7-0.1,0.9-0.9,1-1.7c0.2-0.9,0.4-1.9,1.2-2.2c2-1,5.2,0.5,5.8,2.5c0.3,1,0,2.1-0.6,2.9C212.5,280.9,211.8,281.3,211.2,281.3    L211.2,281.3z M210,275.6c2.2,0.7,1.7,3.2,1.7,3.3c0,0.2-0.2,0.5-0.4,0.8c-0.3,0.4-0.6,0.9-0.5,1.2l0.4,0.2c0.6,0,1.3-0.3,1.7-1    c0.6-0.8,0.8-1.8,0.6-2.7c-0.5-1.9-3.5-3.3-5.5-2.4c-0.7,0.3-0.9,1.2-1,2.1c-0.2,0.9-0.4,1.8-1.1,1.9c0,0,0,0,0,0    c-1.1,0-2.5-1.7-2.5-4.3c0-3.1,0.4-4.6,1.6-5.7c1.1-0.8,2-0.5,2.5-0.2c0-0.9-1.5-1.3-2.3-1.3c-0.8,0-2.6,0.2-3.7,3.6    c-1,3.2,0.1,5.8,1,6.8c1.6,1.8,3.3,1.8,4.4,1.9c0,0,0,0,0,0c1.2,0,2.2-1.5,2.2-2C209.1,276.8,209.1,275.6,210,275.6L210,275.6z"/></g>
    <path class="st8"
          d="M205.7,282.6c-1-0.5,0.4-2.4-2.2-1.8c-1,0.3,1.5,3.2,2.6,3.3C207.4,284,207,283.2,205.7,282.6   L205.7,282.6z"
          id="XMLID_99_"/>
    <g><path class="st3" d="M206.2,284.3L206.2,284.3c-1-0.1-2.9-2.1-3-3.1c0.7-0.6,1-0.6,1.2-0.6c0.8,0,0.9,0.6,0.9,1    c0,0.4,0.1,0.7,0.4,0.9c0.9,0.4,1.4,0.9,1.3,1.3C207,284,206.8,284.2,206.2,284.3L206.2,284.3L206.2,284.3z M204.4,280.8    c-0.2,0-0.5,0-0.9,0.1c-0.1,1.1,1.8,3,2.6,3.1c0.4,0,0.6-0.1,0.6-0.3c0-0.2-0.3-0.6-1.2-1.1c-0.4-0.2-0.5-0.7-0.5-1    C205.1,281.1,205,280.8,204.4,280.8L204.4,280.8z"/></g>
    <path class="st8"
          d="M208.4,284.2c0.5,2.4,1,2.2,1.1,3.4c0,1.5-2.6,0.9-2.9,1.6c-0.3,0.7-0.8,2.5,0.9,2.6   c1.7,0.1,4.1-0.5,4.6,0.6c1.3,3.3,4.1,2.8,5.5,2.3c1.5-0.6,5-3.8,5.8-4c1.2-0.4-1.1-1.3-2.5-0.1c-0.3,0.3-3.3,3.3-4.8,3.4   c-1.1,0.1-2.8-2.7-2.8-3.7c0.1-0.7,2.7-0.1,3-1.6c0.3-1,0.3-2.2-0.5-2.2c-0.8-0.1-4.7,0.5-4.8-0.1c-0.7-1.7,0.7-2.4,0.2-2.9   C210.6,283.3,208.4,282.9,208.4,284.2L208.4,284.2z"
          id="XMLID_96_"/>
    <g><path class="st3" d="M215.7,295.2c-1.2,0-2.8-0.5-3.7-2.8c-0.3-0.6-1.4-0.7-2.9-0.6c-0.4,0-0.8,0-1.2,0c-1-0.1-1.4-0.3-1.6-0.6    c-0.4-0.7-0.1-1.7,0.2-2.2c0.2-0.3,0.7-0.4,1.3-0.5c0.8-0.1,1.7-0.2,1.7-1.1c0-0.5-0.2-0.8-0.3-1.1c-0.2-0.4-0.5-1-0.8-2.3    c0-0.7,0.6-1,1.5-1c0.5,0,1.1,0.1,1.4,0.2c0.3,0.3,0.2,0.6,0,0.9c-0.2,0.5-0.5,1.1-0.1,2c0,0,0.1,0.2,1.2,0.2    c0.6,0,1.4-0.1,2.1-0.1c0.5,0,1-0.1,1.3-0.1c0.4,0,0.6,0.1,0.8,0.3c0.4,0.5,0.2,1.5,0,2.1c-0.2,0.9-1.3,1.1-2.1,1.2    c-0.5,0.1-0.9,0.1-1,0.4c-0.1,0.6,0.6,2,1.4,2.8c0.4,0.5,0.8,0.7,1.1,0.7c1,0,2.7-1.3,4.8-3.3c1.6-1.4,2.9-0.7,3-0.2    c-0.7,0.5-1.6,1.2-2.6,2c-1.3,1-2.7,2.1-3.6,2.5C217.2,295,216.5,295.2,215.7,295.2L215.7,295.2z M210.2,291.6    c0.8,0,1.7,0.1,2,0.8c1.5,3.7,4.5,2.6,5.3,2.3c0.8-0.3,2.3-1.4,3.5-2.4c1-0.8,1.9-1.5,2.3-1.6c0.4-0.5-0.8-1.3-2.4,0.1    c-1.3,1.3-3.5,3.4-4.9,3.4h0c-0.5,0-1-0.4-1.4-0.8c-0.8-0.9-1.5-2.3-1.5-3c0.1-0.4,0.6-0.5,1.2-0.5c0.8-0.1,1.7-0.3,1.9-1.1    c0.2-0.9,0.2-1.5,0-1.9l-0.6-0.2c-0.3,0-0.7,0-1.2,0.1c-1.7,0.1-3.4,0.2-3.5-0.3c-0.4-1-0.1-1.7,0.1-2.2c0.2-0.4,0.2-0.5,0.1-0.6    c-0.5-0.2-2.6-0.6-2.6,0.6c0.3,1.2,0.6,1.8,0.8,2.2c0.2,0.4,0.3,0.6,0.4,1.2c0,1-1,1.2-1.9,1.3c-0.5,0.1-1,0.1-1.1,0.4    c-0.2,0.4-0.5,1.4-0.2,2c0.2,0.3,0.5,0.5,1,0.5c0.8,0,1.2,0,1.6,0C209.5,291.6,209.9,291.6,210.2,291.6L210.2,291.6z"/></g>
    <path class="st8"
          d="M221.4,293.5c-1.2,1.3-4.5,3.4-4.5,4.9c0,0.8,0.9,2.1,1.7,2.5c1.1,0.4,2.8,0.3,4.2-0.7   c1.5-1.2,2.2-2.4,1.5-2.6c-2.2-0.6-2.3,2.5-3.4,2.5c-1,0.1-2.6-1.6-0.5-3.6c2.1-2.1,4.9-4.1,4.8-4.7   C225,291.1,222.3,292.6,221.4,293.5L221.4,293.5z"
          id="XMLID_93_"/>
    <g><path class="st3" d="M220,301.1c-0.5,0-1-0.1-1.4-0.3c-0.8-0.3-1.7-1.7-1.7-2.6c0-1.1,1.6-2.4,3-3.6    c0.6-0.5,1.1-0.9,1.5-1.3c0.8-0.8,2.9-2,3.6-2c0.1,0.1,0.1,0.2,0.1,0.3c0,0,0,0,0,0c-0.8,0-2.8,1.1-3.5,1.9    c-0.4,0.4-0.9,0.9-1.5,1.4c-1.3,1.1-2.9,2.4-2.9,3.4c0,0.8,0.9,2,1.6,2.4c1.2,0.5,2.9,0.2,4-0.7c1.2-1,1.8-1.9,1.7-2.3l-0.7-0.3    c-0.9,0-1.3,0.8-1.7,1.5c-0.3,0.6-0.6,1.1-1.1,1.1c0,0,0,0,0,0c-0.7,0-1.3-0.4-1.5-1.1c-0.2-0.5-0.4-1.5,0.9-2.8    c0.8-0.8,1.7-1.6,2.5-2.3c1-0.9,2.1-1.9,2.3-2.2c0,0.6-0.8,1.3-2.1,2.4c-0.8,0.7-1.7,1.5-2.5,2.3c-1.2,1.2-1,2.1-0.9,2.5    c0.3,0.6,0.8,0.9,1.2,0.9c0.4,0,0.7-0.5,1-1c0.4-0.7,0.9-1.6,1.9-1.6l0.6,0.1c0.4,0.9-0.3,1.9-1.5,2.8    C222,300.8,221,301.1,220,301.1L220,301.1z" id="XMLID_92_"/></g>
    <path class="st8" d="M216.1,302.1c-0.1,0.8,2.1,0.8,2.5,0.1C218.9,301.7,216.2,301.3,216.1,302.1L216.1,302.1z"
          id="XMLID_91_"/>
    <g><path class="st3" d="M217.2,302.9L217.2,302.9c-0.5,0-0.9-0.1-1.1-0.3c-0.2-1.5,2.2-1.2,2.6-0.5    C218.5,302.7,217.8,302.9,217.2,302.9L217.2,302.9z M217.1,301.7c-0.4,0-0.9,0.1-1,0.4c0.2,0.4,0.6,0.5,1,0.5l0,0    c0.6,0,1.1-0.2,1.3-0.5C218.4,301.9,217.8,301.7,217.1,301.7L217.1,301.7z"/></g>
    <path class="st8"
          d="M223.5,302.6c-1.2,1.3,0.1,2.8,1.1,4c0.5,0.6,1.7,1.3,2.5,1.6c1.1,0.4,3.4,0.3,4.7-0.7   c1.5-1.2,1.6-3.3,0.7-3.3c-2.3,0-0.7,3.1-1.8,3.2c-1,0.1-3.9-0.6-5.3-3.5c-0.8-1.7,1.5-2.1,1.1-2.8   C226.1,300.1,224.4,301.8,223.5,302.6L223.5,302.6z"
          id="XMLID_88_"/>
    <g><path class="st3" d="M228.5,308.6c-0.6,0-1.1-0.1-1.5-0.2c-0.8-0.3-2-1-2.5-1.6c-1.2-1.4-2.3-2.9-1.1-4.1c0.9-0.9,2.1-1.9,2.7-1.9    c0.6,0.7,0.3,0.9-0.1,1.2c-0.5,0.4-1.1,0.9-0.6,1.9c1.4,2.9,4.1,3.5,5,3.5c0.5,0,0.5-0.4,0.5-1.1c0-0.6,0-1.3,0.4-1.8    c0.4-0.4,1.4-0.6,1.7,0.1c0.3,0.8-0.2,2.2-1.2,3C231,308.2,229.8,308.6,228.5,308.6L228.5,308.6z M226.2,301    c-0.7,0-1.5,0.7-2.6,1.7c-1.1,1.1,0,2.4,0.9,3.5c0.8,1,2,1.6,2.7,1.9c1.2,0.5,3.5,0.1,4.6-0.7c1.1-0.9,1.4-2.2,1.2-2.8    c-0.8-0.3-1.1-0.3-1.3,0c-0.4,0.4-0.3,1-0.3,1.6c0,0.6,0,1.3-0.5,1.3c0,0,0,0,0,0c-1.4,0-4.1-0.8-5.4-3.6    c-0.5-1.1,0.2-1.7,0.7-2.2c0.4-0.3,0.5-0.5,0.4-0.7C226.3,301,226.2,301,226.2,301L226.2,301z"/></g>
    <path class="st8" d="M229.5,302.5c0.5,0.7,2.1-0.8,1.9-1.6C231.3,300.3,229,301.8,229.5,302.5L229.5,302.5z"
          id="XMLID_85_"/>
    <g><path class="st3" d="M229.9,302.8L229.9,302.8l-0.5-0.3l0.1-0.6c0.3-0.6,1.3-1.3,1.8-1.3c0.4,0.6,0.1,1.1,0,1.3    C230.9,302.4,230.3,302.8,229.9,302.8L229.9,302.8z" id="XMLID_84_"/></g>
    <path class="st8"
          d="M232.8,308.7c-0.1,0.9,0.2,2.2-0.9,2.3c-1.1,0-2.5-1.5-3.7-1.4c-1.1,0-1.6,0.9-1.5,1.4   c0.1,0.5,2.1,1,5.4,0.8c3.3-0.2,2.6,1.8,4.9,1.6c2.3-0.2,2.7-0.9,2.5-1.5c-0.2-0.5-2.2-0.2-2.9-0.3c-0.7-0.1-2-1.3-2.2-2.3   c-0.2-1-0.2-2.7,0.7-2.7c1.6,0,0.9,1.4,0.9,2c0,0.5,0.6,0.9,1.3,0.1c0.9-1.1,0.4-2.8-0.5-3.5C236,304.7,233,306.4,232.8,308.7   L232.8,308.7z"
          id="XMLID_83_"/>
    <g><path class="st3" d="M236.8,313.5c-0.9,0-1.3-0.4-1.8-0.8c-0.5-0.4-1-0.9-2.4-0.9c-1,0-1.5,0.1-1.9,0.1c-2.2,0-3.9-0.4-4.1-0.9    c-0.1-0.3,0-0.6,0.2-0.9c0.2-0.2,0.6-0.6,1.3-0.7l0,0c0.6,0,1.3,0.4,1.9,0.7c0.6,0.3,1.2,0.7,1.7,0.7c0.8,0,0.8-0.6,0.8-1.6    c0.2-2.7,2.6-4.3,3.7-4.3c1,0.5,1.4,1.1,1.5,1.9c0.1,0.7-0.1,1.4-0.5,1.9c-0.3,0.3-0.6,0.5-0.8,0.5l0,0c-0.4,0-0.6-0.3-0.6-0.7    c0.1-0.9,0.2-1.4,0-1.6c-0.1-0.2-0.4-0.2-0.7-0.2c-0.7,0.6-0.8,1.7-0.6,2.6c0.2,1,1.4,2.1,2.1,2.2l1.1,0l0.7,0    c0.6,0,1.1,0,1.2,0.4c0.1,0.2,0,0.5-0.1,0.7c-0.3,0.5-1.2,0.8-2.5,0.9L236.8,313.5L236.8,313.5z M232.3,311.7c1.9,0,2.5,0.5,3,0.9    c0.4,0.4,0.8,0.7,1.6,0.7v0.1l0.3-0.1c1.6-0.1,2.1-0.5,2.3-0.8c0-0.7-0.3-0.7-1-0.7l-0.6,0l-1.1,0c-0.8-0.1-2.1-1.4-2.3-2.4    c-0.1-0.7-0.2-2,0.3-2.6l0.6-0.3c0.4,0,0.7,0.1,0.9,0.3c0.3,0.3,0.2,0.9,0.1,1.3c0,1.2,0.5,1.1,1,0.5c0.4-0.5,0.5-1.1,0.4-1.7    c-0.1-0.7-0.4-1.3-0.9-1.6c-1.4,0-3.8,1.4-3.9,3.4c0,1.4,0,2.3-1,2.4l0,0c-0.6,0-1.3-0.4-1.9-0.7c-0.6-0.3-1.2-0.7-1.7-0.7    c-0.7,0-1.1,0.4-1.2,0.6c-0.2,0.2-0.2,0.5-0.2,0.7C227,311.3,228.7,311.9,232.3,311.7C232.2,311.7,232.2,311.7,232.3,311.7    L232.3,311.7z"/></g>
    <path class="st8"
          d="M241,308.9c-0.2,1.7-1.4,1.8-1.3,2.5c0.2,0.7,0.6,0.9,0.9,2.7c0.2,0.9,1.3,1.2,2.6,1.2   c1.1,0,1.9-1.6,2.6-1.5c1,0.1,0.2,2.4,2.6,2.4c1.9,0,2.4-1.7,3.1-1.7c0.7,0,0.6,1.9,2.2,1.9c1.6,0,2.3-1.8,3-1.9   c0.8,0,0.8,1.9,3.1,1.8c2.4-0.1,4.1-0.5,4.7-0.9c0.6-0.5,0.8-2,1.6-2.1c0.8-0.1,2,1.5,3.1,1.5s3.3-2.7,4-2.8c0.7,0,1.3,1.7,2.8,1.7   c2.4,0,2.7-3.2,3.8-3.3c2-0.2,2.1-1,2.2-1.2c0.2-0.6,0-3.4-0.5-4.7c-0.2-0.7-2.8-6.4-4-6.6c-1.2-0.1-0.8,1.6-0.1,2.5   c0.7,1,4.2,5.6,3.7,6.9c-0.5,1.3-3-0.6-5-0.6c-2.8,0-4.4,5.6-6.4,5.8c-0.9,0.1-1.8-0.7-1.5-1.3c0.6-0.9,1.2-2.9-0.9-2.6   c-2.2,0.3-4.4,1.3-4,2.5c0.3,1.2,1.6,2.3,0.2,2.8c-1.4,0.5-3.9,0.6-5.1,0.2c-1.2-0.4-0.5-3.1-1.2-3.1c-0.8,0-0.9,3.2-2,3.3   c-1.2,0.1-2.2-0.4-2.5-1.3c-0.3-0.9,0.4-2-0.3-2.2c-0.8-0.1-1.6,3.6-2.7,3.5c-1.2-0.1-1.2-0.3-1.9-1.1c-0.7-0.7,0.6-3.2-0.6-3.4   c-1.2-0.2-2.3,3.7-3.1,3.7c-0.8,0-1.9-0.1-2.3-0.9c-0.2-0.4-0.1-2.8-0.1-3.8C242.1,308.2,241,308.4,241,308.9L241,308.9z"
          id="XMLID_80_"/>
    <g><path class="st3" d="M253.8,316.4c-1,0-1.4-0.8-1.7-1.3c-0.2-0.3-0.3-0.6-0.5-0.6c-0.2,0-0.4,0.2-0.7,0.5    c-0.5,0.5-1.2,1.2-2.4,1.2c-1.5,0-1.8-0.9-2-1.6c-0.1-0.5-0.2-0.7-0.6-0.8c-0.2,0.2-0.6,0.3-1,0.6c-0.5,0.4-1,0.9-1.6,0.9    c-1.6,0-2.6-0.5-2.7-1.3c-0.2-1.1-0.4-1.6-0.6-2c-0.1-0.2-0.2-0.4-0.3-0.7c-0.1-0.3,0.1-0.5,0.4-0.8c0.3-0.3,0.8-0.8,0.9-1.7    c0.3-0.5,0.6-0.6,0.8-0.6l0.5,0.4c-0.1,1.3-0.1,3.4,0.1,3.8c0.3,0.7,1.4,0.8,2.1,0.8l0,0c0.3,0,0.8-0.8,1.2-1.5    c0.6-1.1,1.2-2.2,1.9-2.2c0.9,0.2,0.7,1,0.6,1.9c-0.1,0.6-0.2,1.3,0.1,1.6c0.7,0.8,0.9,1,1.8,1l0,0c0.6,0,1.1-1,1.5-1.9    c0.4-0.9,0.7-1.6,1.2-1.6c0.6,0.1,0.6,0.6,0.5,1.1c0,0.3-0.1,0.7,0,1.1c0.2,0.7,1,1.2,2.1,1.2c0.8,0,1.1-1,1.4-1.8    c0.3-0.8,0.5-1.5,0.9-1.5c0.4,0,0.5,0.6,0.5,1.3c0.1,0.8,0.1,1.7,0.7,1.9c1.1,0.4,3.7,0.2,5-0.2c0.3-0.1,0.5-0.2,0.5-0.4    c0.1-0.3-0.1-0.8-0.4-1.3c-0.2-0.3-0.4-0.7-0.5-1c-0.1-0.3,0-0.6,0.1-0.9c0.6-0.9,2.4-1.5,4-1.7c0.9-0.1,1.3,0.1,1.5,0.5    c0.4,0.7-0.1,1.7-0.4,2.3c0.3,0.9,0.8,1.2,1.2,1.2c0.9-0.1,1.8-1.3,2.6-2.5c1.1-1.6,2.3-3.3,3.9-3.3c0.8,0,1.7,0.3,2.5,0.6    c1.1,0.4,2.1,0.7,2.3,0c0.4-1.1-2.3-4.9-3.3-6.3l-0.4-0.5c-0.5-0.7-0.8-1.8-0.5-2.4c0.1-0.2,0.3-0.4,0.6-0.4c1.4,0.1,4,6,4.2,6.7    c0.5,1.3,0.7,4.2,0.5,4.8c-0.2,0.4-0.4,1.1-2.3,1.3c-0.4,0-0.7,0.6-1,1.2c-0.6,1-1.3,2.1-2.8,2.2c-1,0-1.6-0.6-2-1.1    c-0.3-0.3-0.5-0.6-0.7-0.6c-0.3,0-0.9,0.6-1.5,1.1c-0.9,0.8-1.9,1.7-2.5,1.7c-0.6,0-1.2-0.4-1.8-0.8c-0.5-0.3-0.9-0.6-1.2-0.6    c-0.5,0-0.7,0.6-1,1.1c-0.2,0.4-0.4,0.8-0.6,1c-0.6,0.5-2.3,0.8-4.8,1c0,0,0,0,0,0c-1.6,0-2.2-0.7-2.6-1.3    c-0.2-0.3-0.4-0.5-0.6-0.5c-0.2,0-0.5,0.3-0.8,0.6C255.5,315.7,254.8,316.4,253.8,316.4L253.8,316.4z M251.6,314.3    c0.4,0,0.5,0.3,0.7,0.7c0.3,0.6,0.6,1.2,1.5,1.2c0.9,0,1.5-0.6,2-1.2c0.3-0.4,0.6-0.7,1-0.7c0.3,0,0.5,0.3,0.8,0.6    c0.4,0.5,0.9,1.2,2.2,1.2c2.6-0.1,4.3-0.5,4.8-0.9c0.2-0.2,0.4-0.5,0.6-0.9c0.3-0.6,0.6-1.2,1.1-1.3c0.4,0,0.9,0.3,1.4,0.7    c0.6,0.4,1.1,0.8,1.6,0.8c0.6,0,1.6-0.9,2.4-1.6c0.8-0.7,1.3-1.1,1.6-1.2c0,0,0,0,0,0c0.3,0,0.6,0.3,0.9,0.6    c0.4,0.5,1,1.1,1.9,1.1c1.4,0,2-1.1,2.6-2.1c0.4-0.6,0.7-1.2,1.2-1.3c1.7-0.2,2-0.8,2.1-1.1c0.2-0.7,0-3.5-0.4-4.7    c-0.2-0.8-2.8-6.4-3.9-6.5c-0.8,0.7-0.5,1.7,0,2.4l0.4,0.5c1.9,2.6,3.8,5.4,3.4,6.5c-0.3,0.8-1.3,0.5-2.6,0.1    c-0.8-0.3-1.7-0.6-2.4-0.6c-1.5,0-2.7,1.7-3.7,3.2c-0.9,1.3-1.7,2.5-2.6,2.6c-0.7,0-1.2-0.3-1.5-0.7c-0.2-0.3-0.2-0.5-0.1-0.8    c0.4-0.6,0.7-1.6,0.4-2.1c-0.1-0.3-0.4-0.4-0.9-0.4c-2.2,0.3-3.7,0.9-4.2,1.7c-0.1,0.2-0.2,0.5-0.1,0.7c0.1,0.3,0.3,0.6,0.4,1    c0.3,0.5,0.5,1,0.4,1.4c-0.1,0.2-0.3,0.4-0.7,0.5c-1.4,0.5-4,0.6-5.2,0.2c-0.7-0.2-0.8-1.3-0.9-2.1c-0.1-1.3-0.6-0.9-1,0.3    c-0.3,0.9-0.6,1.9-1.3,1.9c0,0,0,0,0,0c-1.4,0-2.3-0.5-2.5-1.4c-0.1-0.4-0.1-0.8,0-1.2c0.1-0.6,0.1-0.8-0.2-0.9l0,0    c-0.3,0-0.7,0.8-1,1.4c-0.5,1-1,2.1-1.7,2.1c-1.1-0.1-1.3-0.3-1.8-0.8c-0.6-0.7-0.5-1.4-0.4-2.1c0.1-0.9,0.2-1.6-0.3-1.6h0    c-0.6,0-1.3,1.1-1.8,2c-0.5,0.9-0.9,1.6-1.3,1.6c-0.9,0-2-0.1-2.4-0.9c-0.2-0.5-0.1-3.8-0.1-3.9l-0.8,0.1c-0.2,1.3-0.6,1.7-1,2.1    c-0.2,0.2-0.4,0.4-0.3,0.6c0.1,0.2,0.2,0.4,0.3,0.6c0.2,0.4,0.5,0.9,0.6,2.1c0.1,0.7,0.9,1.1,2.2,1.1c0.9,0,1.4-0.5,1.8-0.9    c0.4-0.3,0.7-0.7,1.1-0.7c0.5,0,0.7,0.5,0.8,0.9c0.2,0.7,0.4,1.4,1.8,1.4c1.2,0,1.8-0.6,2.3-1.1    C251.1,314.5,251.3,314.3,251.6,314.3L251.6,314.3L251.6,314.3z"/></g>
    <path class="st8"
          d="M280.2,298.3c2.1,3.2,4,7.6,5.2,7.8c0.8,0.1-2.5-5.8-3.5-7.2   C281,297.6,278.4,295.5,280.2,298.3L280.2,298.3z"
          id="XMLID_77_"/>
    <g><path class="st3" d="M285.4,306.2L285.4,306.2c-0.9-0.2-1.9-2-3.2-4.3c-0.7-1.2-1.4-2.4-2.1-3.5c-0.7-1-0.7-1.3-0.6-1.5    c0.7-0.2,1.9,1.1,2.5,2c0.9,1.1,4,6.5,3.6,7.2L285.4,306.2L285.4,306.2z M279.7,297.1c0,0,0,0.2,0.6,1.2c0.7,1.1,1.5,2.4,2.1,3.6    c1.2,2.1,2.3,4,3,4.2c0.2-0.5-2.6-5.6-3.6-7C281.2,298.1,280,297.1,279.7,297.1L279.7,297.1z"/></g>
    <path class="st8"
          d="M240.8,306.2c-0.3,0.8-0.2,1.5,0.3,1.4c0.5-0.1,1.2-1.4,1.1-1.7   C242.1,305.7,241.3,305.4,240.8,306.2L240.8,306.2z"
          id="XMLID_74_"/>
    <g><path class="st3" d="M241.1,307.7l-0.4-0.2c-0.2-0.3-0.2-0.8,0.1-1.4c0.7-1.1,1.4-0.6,1.6-0.3    c-0.2,1-0.7,1.8-1.1,1.9L241.1,307.7L241.1,307.7z" id="XMLID_73_"/></g>
    <path class="st8"
          d="M286.4,299.8c0,1.7,1.2,3.7,3.5,3.6c2.3-0.1,4.8-2.7,5-5.3c0.2-2.6-3-4.5-3.8-4   c-0.8,0.6,0.3,2.5,2.4,2.6c0.9,0.1,0.6,1.8-1.1,3.1c-1.8,1.4-4.4,1.4-5,0.4C286.9,298.9,286.4,298.9,286.4,299.8L286.4,299.8z"
          id="XMLID_72_"/>
    <g><path class="st3" d="M289.8,303.5c-0.9,0-1.7-0.3-2.3-0.9c-0.7-0.7-1.1-1.7-1.1-2.8l0.1-0.6c0.6-0.1,0.8,0.6,1,1.1    c0.6,0.9,3.4,0.7,4.9-0.5c1.3-1,1.7-2.2,1.5-2.7c-1.8-0.4-2.8-1.3-3-2.1c-0.1-0.4,0-0.8,0.3-1c1.2-0.1,2.2,0.5,2.9,1.3    c0.8,0.8,1.2,1.8,1.1,2.8c-0.2,2.6-2.7,5.3-5.1,5.4L289.8,303.5L289.8,303.5z M286.6,299.3c-0.1,1.4,0.3,2.4,0.9,3.1    c0.6,0.6,1.3,0.9,2.2,0.9v0.1l0.2-0.1c2.3-0.1,4.7-2.7,4.9-5.2c0.1-0.9-0.3-1.9-1.1-2.7c-0.8-0.8-1.8-1.3-2.3-1.3    c-0.6,0.3-0.5,0.6-0.5,0.8c0.2,0.7,1.1,1.6,2.5,1.7l0.1,0l0.5,0.4c0.2,0.6-0.3,1.9-1.6,2.9c-1.6,1.3-4.5,1.4-5.2,0.4    C286.9,299.5,286.7,299.3,286.6,299.3L286.6,299.3z"/></g>
    <path class="st8" d="M287.8,294.5c-0.3,0.7,0.4,2.3,1.1,2.2C289.7,296.6,288.1,294,287.8,294.5L287.8,294.5z"
          id="XMLID_69_"/>
    <g><path class="st3" d="M287.9,294.5c-0.1,0.3,0,1,0.3,1.5c0.2,0.3,0.5,0.5,0.7,0.5v0.1l0-0.1    C289,295.8,288.1,294.5,287.9,294.5L287.9,294.5z" id="XMLID_68_"/></g>
    <path class="st8"
          d="M294.6,293.2c0.5,1,1,2.6,1.9,2.6s1.7,0.3,1.7,1.1c0,0.8-2.5,3.5-2.5,4.4   c-0.1,1.5,1,1.4,1.5,0.6c0.5-0.8,2-4.8,2.3-5.8c0.1-0.9,1.2-2.5,1.2-4.1c-0.1-1.9,1.7-0.4,2.5-0.3c0.8,0,1.6-1.4,1.7-2.4   c0.1-1-0.8-1.2-0.8-2.1c0-0.5,1-2.1,1-3.2c0.1-1-1.9-3.7-2.7-3.7c-0.7,0-0.1,1.1,0.3,1.5c0.4,0.4,1.4,1.3,1.1,2.1   c-0.7,1.6-3.8,2-4,3.6c-0.2,1.2,0.1,5-0.8,5s-1.8-2.4-3.3-2.4C294,290,294.2,292.5,294.6,293.2L294.6,293.2z"
          id="XMLID_67_"/>
    <g><path class="st3" d="M296.3,302.6l-0.5-0.2c-0.2-0.2-0.3-0.6-0.2-1.1c0-0.5,0.7-1.3,1.3-2.3c0.6-0.8,1.2-1.7,1.2-2.1    c0-0.6-0.5-0.9-1.6-0.9c-0.9,0-1.4-1.3-1.9-2.3c-0.4-1-0.6-2.4-0.1-3.2c0.7-1.1,2.4-0.2,3.3,0.8c0.4,0.5,0.8,0.9,1.2,0.9    c0.6,0,0.6-2.1,0.7-3.5c0-0.6,0-1.1,0.1-1.4c0.1-0.9,1.1-1.5,2.1-2c0.8-0.5,1.7-0.9,1.9-1.6c0.3-0.6-0.4-1.4-0.9-1.9    c-0.4-0.5-0.9-1.2-0.8-1.6c0.8-0.2,1.3,0.2,1.7,0.6c0.8,0.9,1.6,2.3,1.5,2.9c0,0.6-0.4,1.5-0.7,2.2c-0.2,0.5-0.4,0.9-0.4,1.1    c0,0.4,0.2,0.6,0.4,0.9c0.2,0.3,0.5,0.6,0.4,1.2c-0.1,1-0.9,2.5-1.8,2.5c-0.3,0-0.6-0.2-0.9-0.3c-0.4-0.2-0.7-0.3-1-0.3    c-0.4,0.2-0.5,0.5-0.4,0.8c0,1.1-0.5,2.1-0.8,3c-0.2,0.5-0.4,0.9-0.4,1.2c-0.3,1-1.8,5-2.3,5.9C297,302.3,296.6,302.6,296.3,302.6    L296.3,302.6z M295.7,290.2c-0.5,0-0.8,0.2-1,0.5c-0.5,0.7-0.3,2,0,2.6c0.6,1.4,1.1,2.5,1.8,2.5c1.5,0,1.8,0.6,1.8,1.2    c0,0.4-0.6,1.3-1.3,2.2c-0.6,0.9-1.2,1.7-1.3,2.2c-0.1,0.6,0.1,0.8,0.2,0.9l0.3,0.1c0.3,0,0.6-0.2,0.8-0.5c0.5-0.8,2-4.7,2.3-5.8    c0-0.3,0.2-0.7,0.4-1.2c0.3-0.8,0.8-1.8,0.8-2.9c0-0.4,0.1-0.7,0.2-0.9c0.8-0.2,1.2,0,1.6,0.2c0.3,0.1,0.6,0.3,0.8,0.3l0,0    c0.7,0,1.5-1.3,1.6-2.3c0.1-0.5-0.2-0.8-0.4-1.1c-0.2-0.3-0.4-0.6-0.4-1c0-0.2,0.2-0.6,0.4-1.1c0.3-0.7,0.6-1.5,0.6-2.1    c0.1-0.5-0.6-1.8-1.5-2.8c-0.5-0.5-0.9-0.8-1.1-0.8c-0.3,0.3,0,0.9,0.4,1.3c0.6,0.7,1.4,1.5,1.1,2.3c-0.3,0.8-1.2,1.2-2,1.7    c-1,0.5-1.9,1-1.9,1.9c0,0.3,0,0.8-0.1,1.4c0,1.7-0.1,3.7-0.9,3.7c-0.5,0-0.9-0.5-1.4-1C297.1,290.9,296.5,290.2,295.7,290.2    L295.7,290.2L295.7,290.2z"/></g>
    <path class="st8"
          d="M297.1,278.9c0,0.7,1.4,3.6,2.3,3.6c1.2,0-0.5-1.4-0.4-1.9c0.1-0.5,1.8-1.3,1.1-1.4   C298.8,278.8,297,278,297.1,278.9L297.1,278.9z"
          id="XMLID_64_"/>
    <g><path class="st3" d="M299.4,282.6c-1,0-2.4-3-2.4-3.7l0.6-0.5c0.5,0,1.2,0.2,1.9,0.5l0.6,0.2c0.3,0.4,0,0.6-0.4,0.9    c-0.3,0.2-0.6,0.5-0.7,0.7c0,0.2,0.2,0.5,0.4,0.8c0.3,0.4,0.5,0.8,0.4,1L299.4,282.6L299.4,282.6z M297.6,278.6    c-0.3,0.9,1.1,3.8,1.8,3.8v0.1l0.3-0.2c0.1-0.1-0.2-0.5-0.4-0.8c-0.3-0.4-0.5-0.7-0.4-0.9c0.1-0.3,0.4-0.5,0.8-0.8    c0.2-0.2,0.5-0.4,0.5-0.5l-0.7-0.2C298.7,278.8,298,278.6,297.6,278.6L297.6,278.6z"/></g>
    <path class="st8"
          d="M297,275.1c0.3,0.9,4.1,2.4,5.8,2.8c1.7,0.5,3.7,2.5,4.5,1.8c0.8-0.6-5.1-3-6-3.3   C300.4,276.2,296.8,274.2,297,275.1L297,275.1z"
          id="XMLID_61_"/>
    <g><path class="st3" d="M306.8,280c-0.5,0-1.2-0.4-2-0.9c-0.7-0.4-1.4-0.9-2.1-1c-1.1-0.3-5.6-1.8-5.9-2.9    c0.1,0,0.2-0.1,0.4-0.1c0.2,1,3.8,2.3,5.6,2.8c0.7,0.2,1.4,0.6,2.1,1.1c0.7,0.4,1.4,0.9,1.9,0.9v0.1l0.3-0.2    c-0.1-0.7-4-2.4-5.9-3.1c-0.2-0.1-0.6-0.2-1-0.5c-0.8-0.4-1.9-0.9-2.6-1.1c0.9,0,1.9,0.5,2.7,0.9c0.4,0.2,0.8,0.4,1,0.5    c0.1,0,5.9,2.3,6.1,3.2L306.8,280L306.8,280z" id="XMLID_60_"/></g>
    <path class="st8"
          d="M308.7,281.2c1.4,0,0.7-2.8,0.3-3.5c-0.4-0.7-0.9,1.3-0.8,1.9   C308.2,280.2,308.2,281.2,308.7,281.2L308.7,281.2z"
          id="XMLID_59_"/>
    <g><path class="st3" d="M308.7,281.4L308.7,281.4L308.7,281.4c-0.5,0-0.6-0.8-0.6-1.5c-0.1-0.7,0.2-1.9,0.5-2.3    c0.1,0.1,0.2,0.1,0.2,0.2c-0.4,0.3-0.6,1.4-0.6,1.8c0.1,0.7,0.2,1.5,0.4,1.5l0,0.1v-0.1c0.2,0,0.4-0.1,0.5-0.3    c0.4-0.6,0-2-0.2-2.8c0.5,0.8,0.8,2.2,0.4,2.9C309.3,281.2,309,281.4,308.7,281.4L308.7,281.4z" id="XMLID_58_"/></g>
    <path class="st8"
          d="M300.2,267c0,0.6,4,0.2,5.9,0.7c0.8,0.2,3.6,1.7,4.1,1.3c0.6-0.8-3.7-2.4-6.2-2.4   C303.2,266.6,300.2,266.2,300.2,267L300.2,267z"
          id="XMLID_57_"/>
    <g><path class="st3" d="M309.9,269.2c-0.6,0-1.7-0.5-2.6-0.9c-0.5-0.2-1-0.4-1.2-0.5c-0.8-0.2-2.1-0.3-3.3-0.3    c-1.8,0-2.7-0.1-2.7-0.5c0-0.9,2-0.6,3-0.5l0.8,0c2.2,0,5.9,1.3,6.4,2.2L309.9,269.2L309.9,269.2z M301.7,266.6    c-1.2,0-1.4,0.2-1.4,0.3c0,0.2,1.5,0.3,2.4,0.3c1.2,0,2.5,0.1,3.3,0.3c0.3,0.1,0.7,0.3,1.3,0.5c0.9,0.4,2,0.9,2.5,0.9v0.1l0.2-0.2    c-0.4-0.9-3.9-2.2-6.1-2.2l-0.8,0C302.7,266.7,302.2,266.6,301.7,266.6L301.7,266.6z"/></g>
    <path class="st8"
          d="M299.2,268.8c-0.7,0.8,2.4,1.6,5.2,1.7c2.8,0.1,4.6,1.8,4.3,3c-0.4,2.1-3.9,0.7-3.4,1.9   c0.3,0.9,1.8,0.6,2,1.5c0.1,0.9,1.1,1.1,1-0.1c0-0.9,2.2-2.5,2.1-2.9c-0.1-0.9-1.4-3.9-4.8-4.2   C302.3,269.4,300.1,267.8,299.2,268.8L299.2,268.8z"
          id="XMLID_54_"/>
    <g><path class="st3" d="M307.9,277.8c-0.3,0-0.6-0.3-0.7-0.9c-0.1-0.4-0.5-0.5-0.9-0.7c-0.4-0.2-0.9-0.3-1-0.8    c0.2-0.6,0.6-0.7,1.1-0.7c0.9-0.1,2.1-0.1,2.3-1.2c0.1-0.4-0.1-0.8-0.4-1.2c-0.6-0.7-1.9-1.6-3.8-1.6c-2.3-0.1-5.1-0.7-5.4-1.5    c0.8-1.6,1.6-0.8,3.1-0.4c1,0.3,2.2,0.7,3.6,0.8c3.3,0.3,4.7,3.3,4.9,4.3c0,0.2-0.3,0.5-0.8,1.1c-0.6,0.6-1.3,1.3-1.3,1.8    c0,0.4-0.1,0.7-0.2,0.8L307.9,277.8L307.9,277.8z M300,268.6c-0.4,0-0.6,0.1-0.8,0.3c0.2,0.8,2.7,1.5,5.1,1.6c2,0.1,3.4,0.9,4,1.7    c0.4,0.5,0.5,1,0.4,1.4c-0.2,1.3-1.5,1.3-2.5,1.4c-0.4,0-0.9,0-1,0.2c0.1,0.6,0.5,0.7,0.9,0.8c0.4,0.2,1,0.3,1.1,0.9    c0.1,0.4,0.3,0.7,0.5,0.7v0.1l0.2-0.2c0.1-0.1,0.2-0.3,0.2-0.6c0-0.6,0.7-1.3,1.4-2c0.3-0.3,0.8-0.8,0.8-0.9    c-0.1-1-1.5-3.8-4.7-4.1c-1.4-0.1-2.6-0.5-3.6-0.8C301.2,268.8,300.6,268.6,300,268.6L300,268.6z"/></g>
    <path class="st3" d="M210,289.2c-0.5-0.3-2,1.2-1.5,1.5C209.7,291.3,210.7,289.6,210,289.2L210,289.2z"
          id="XMLID_51_"/>
    <g><path class="st3" d="M209,290.8L209,290.8l-0.5-0.1c0-0.1,0-0.2,0-0.2L209,290.8c0.5,0,1-0.6,1.2-1    c0.1-0.3,0-0.5-0.2-0.6c-0.2,0-0.7,0.2-1,0.5c0.3-0.3,0.7-0.6,0.9-0.6c0.3,0.1,0.4,0.4,0.3,0.7C210.1,290.3,209.6,290.8,209,290.8    L209,290.8z" id="XMLID_50_"/></g>
    <path class="st3" d="M213.5,287.5c-0.8-0.1-1.1,1.5-0.5,1.6C214.6,289.3,214.9,287.6,213.5,287.5L213.5,287.5z"
          id="XMLID_49_"/>
    <g><path class="st3" d="M213.3,289.2L213.3,289.2l-0.3,0c-0.2,0-0.4-0.3-0.3-0.7c0-0.5,0.3-1,0.8-1    c0.8,0.1,1,0.5,1,0.9C214.4,288.7,214,289.2,213.3,289.2L213.3,289.2z" id="XMLID_48_"/></g>
    <path class="st3"
          d="M296.9,292.1c-0.4,0-1.5,0.5-1.1,1.3c0.4,0.8,1.5,0.8,2.1,0.4   C298.3,293.3,298.2,292.1,296.9,292.1L296.9,292.1z"
          id="XMLID_47_"/>
    <g><path class="st3" d="M296.9,294.1c-0.5,0-1-0.3-1.2-0.7c-0.1-0.2-0.1-0.5,0-0.7c0.3-0.4,0.9-0.6,1.1-0.6c0.6,0,1,0.2,1.1,0.7    c0.1,0.4,0.1,0.8-0.2,1C297.6,294,297.3,294.1,296.9,294.1L296.9,294.1z M296.9,292.1c-0.2,0-0.8,0.2-1.1,0.6    c-0.1,0.2-0.1,0.4,0,0.7c0.3,0.7,1.5,0.8,2,0.4c0.2-0.2,0.3-0.6,0.2-1C297.9,292.5,297.6,292.1,296.9,292.1L296.9,292.1z"/></g>
    <path class="st3"
          d="M301.4,288.6c0.1,0.9,0.8,0.7,1.3,0.5c0.6-0.3,0.8-1,0.2-1.3   C302.3,287.5,301.3,288,301.4,288.6L301.4,288.6z"
          id="XMLID_44_"/>
    <g><path class="st3" d="M302.1,289.3c-0.4,0-0.6-0.2-0.7-0.7c0.1-0.1,0.1-0.2,0.2-0.3c-0.1,1.3,0.7,1,1.1,0.8    c0.3-0.1,0.5-0.4,0.5-0.7c0-0.1,0-0.3-0.1-0.4c0.1,0.1,0.2,0.2,0.2,0.4c0,0.3-0.2,0.6-0.5,0.8    C302.5,289.2,302.3,289.3,302.1,289.3L302.1,289.3z" id="XMLID_43_"/></g>
    <path class="st3"
          d="M275.2,309.1c-0.8,1.7-0.1,3.4,1.1,3.1c1.2-0.3,2.5-2.7,1.6-3.5C277,308,275.7,308,275.2,309.1   L275.2,309.1z"
          id="XMLID_42_"/>
    <g><path class="st3" d="M276.1,312.3c-0.4,0-0.7-0.2-0.9-0.5c-0.4-0.6-0.4-1.7,0-2.6c0.5-1,1.8-1.2,2.7-0.4c0.3,0.2,0.4,0.7,0.3,1.2    c-0.2,0.9-1,2-1.9,2.3L276.1,312.3L276.1,312.3z M276.6,308.2c-0.6,0-1.1,0.3-1.3,0.9c-0.4,0.9-0.4,2,0,2.6    c0.2,0.3,0.5,0.5,0.9,0.5v0l0.3-0.1c0.8-0.2,1.6-1.3,1.8-2.2c0.1-0.5,0-1-0.3-1.2C277.5,308.4,277,308.2,276.6,308.2L276.6,308.2z    "/></g>
    <path class="st3"
          d="M170.1,237.5c-2.9-0.3-9.5-1.6-9.8-0.3c-0.3,1.3,3.6,16.8,5.5,18.8c2,2,11.2,6.2,12.2,5.7   c0.9-0.5-1.9-10.2-2.9-11.9c-1.1-1.7-4.2-7.9-4-8.2C171.4,241.3,170,237.5,170.1,237.5L170.1,237.5z"
          id="XMLID_39_"/>
    <path class="st3" d="M164.3,237c0.7-3.7,5,0.7,4.6,5.6c-0.2,1.6,0.7,3.5,1.6,4.3L164.3,237z" id="XMLID_38_"/>
    <g><path class="st2" d="M170,247.4c-1.1-1.1-2-3.1-1.8-5c0.3-3.2-1.8-6-2.7-6.1c-0.2,0-0.4,0.6-0.4,0.8l-1.5-0.3    c0.4-2.1,1.7-2,2.1-2c2,0.3,4.3,4,4,7.8c-0.2,1.4,0.6,3,1.4,3.8L170,247.4L170,247.4z" id="XMLID_37_"/></g>
    <path class="st3" d="M168,237.2l-0.2,0.2c2.2-3.7,4.3,1.6,4.6,7.6L168,237.2z" id="XMLID_36_"/>
    <g><path class="st2" d="M171.7,245c-0.3-4.7-1.5-7.9-2.3-8.1c-0.2-0.1-0.4,0.2-0.8,0.7l0,0l-0.2,0.2l-1.2-0.8    c0.9-1.6,1.9-1.7,2.5-1.5c2.4,0.6,3.3,6.2,3.5,9.5L171.7,245L171.7,245z" id="XMLID_35_"/></g>
    <path class="st3"
          d="M160.6,236.6c-0.1-3,4.8-3.9,4.5,7c2.1,1.4,4.6,6.6,4.8,8.5c1.6,0.4,4.3,2.3,4.9,4L160.6,236.6   z"
          id="XMLID_34_"/>
    <g><path class="st2" d="M174,256.3c-0.5-1.4-3-3.2-4.4-3.5l-0.5-0.1l0-0.6c-0.1-1.8-2.6-6.8-4.4-7.9l-0.4-0.2l0-0.4    c0.2-6.6-1.5-7.9-1.9-8.1c-0.2-0.1-0.4-0.2-0.6,0c-0.3,0.2-0.5,0.6-0.5,1.1l-1.5,0.1c0-1.1,0.4-2,1.2-2.5c0.7-0.4,1.4-0.4,2.2,0    c1,0.6,2.7,2.6,2.6,9c2.1,1.6,4.2,6,4.7,8.3c1.8,0.6,4.2,2.6,4.9,4.3L174,256.3L174,256.3z" id="XMLID_33_"/></g>
    <path class="st3"
          d="M172.5,296.8c0.2-8.3,0.4-26-0.5-27.9c-1.5-3.6-9.2-7.7-11.5-13.3c-2.3-5.9-4.3-19.4-3.4-21   c1.2-2.3,5.4,2.9,4.3,8.6c5,5.9,4,9.4,4.9,10.1c3.1,2.4,7.8,4,8.6,6.1c1.7,3.8-0.4-5.4-1.8-7.3c-1.4-1.9-3.8-6-2.1-7   c1.6-1,4.5,1.6,4.9,2.4c0.4,0.8,4.3,5,5.4,6c2,1.5,7.1,4.9,7,7.7c0,4.7,0.4,35.3,0.4,35.3L172.5,296.8z"
          id="XMLID_32_"/>
    <g><path class="st2" d="M173.3,296.8l-1.5,0c0.3-10.5,0.3-26-0.4-27.6c-0.6-1.4-2.5-3.1-4.4-4.9    c-2.7-2.4-5.7-5.1-7.1-8.4c-2.2-5.5-4.6-19.6-3.3-21.7c0.4-0.8,1.2-1.1,2.1-0.8c2,0.7,4.3,5,3.6,9.6c3.4,4.1,4,7.1,4.3,8.7    c0.1,0.4,0.2,0.9,0.3,1.1c1.1,0.9,2.5,1.6,3.8,2.4c1.4,0.8,2.8,1.6,3.7,2.4c-0.5-1.9-1.2-4.1-1.8-4.9c-0.3-0.5-3.2-4.5-2.8-6.8    c0.1-0.6,0.4-1,0.9-1.3c0.4-0.2,1.1-0.5,2.1-0.2c1.7,0.5,3.4,2.2,3.8,2.9c0.3,0.6,4,4.7,5.2,5.8l0.7,0.5c2.5,1.8,6.7,4.9,6.6,7.9    c0,4.6,0.4,35.3,0.4,35.3l-1.5,0c0,0-0.4-30.7-0.4-35.3c0.1-2.2-4-5.2-6-6.6l-0.7-0.5c-1.1-1-5.1-5.3-5.6-6.3    c-0.2-0.4-1.6-1.8-2.9-2.1c-0.4-0.1-0.7-0.1-0.9,0c-0.4,1.4,0.9,4,2.3,5.9c1,1.3,3,7.9,2.4,8.9l-0.2,0.4l-0.5,0    c-0.6,0-0.9-0.5-1.2-1.4c-0.4-1.1-2.4-2.2-4.4-3.3c-1.4-0.8-2.8-1.6-4-2.5c-0.5-0.4-0.6-1-0.8-1.9c-0.3-1.6-0.9-4.4-4.2-8.3    l-0.2-0.3l0.1-0.4c0.8-4.2-1.4-7.9-2.6-8.3c-1,1.5,0.6,14.3,3.1,20.6c1.2,3,4.1,5.6,6.7,7.9c2.2,2,4.1,3.7,4.8,5.4    C173.8,270.9,173.4,291.5,173.3,296.8L173.3,296.8z" id="XMLID_31_"/></g>
    <path class="st3"
          d="M171.6,307.7c0,0,0,3.3,0,3.4c1.4,1.8,7.5,2,8.8,1.9c1.3,0,7,0.1,8.3-2.1   c0-0.1,0.1-2.8,0.1-3.6L171.6,307.7z"
          id="XMLID_30_"/>
    <g><path class="st2" d="M180.6,313.8c-1.7,0-7.9-0.2-9.6-2.2l-0.1-3.9l1.5,0l0,3.4c0.8,0.7,5.3,1.1,8.1,1.2    c4.6-0.1,7-0.7,7.7-1.7c-0.1,0,0-2.5,0-3.2h1.5c0,1.1,0,3.6-0.1,3.9c-1.3,2.1-5.3,2.5-8.5,2.5    C180.8,313.8,180.7,313.8,180.6,313.8L180.6,313.8z" id="XMLID_29_"/></g>
    <path class="st3"
          d="M171.3,302.8c-1.7,0.4-2.1,2.4-0.9,3.9c1,1.2,4.9,2.6,9.5,2.7c4.6,0.1,10.6-1.5,10.9-4   c0.1-2.5-2.3-2.4-2-2.3L171.3,302.8z"
          id="XMLID_28_"/>
    <g><path class="st2" d="M180.3,310.1c-0.1,0-0.3,0-0.4,0c-4.4-0.1-8.8-1.4-10-3c-0.8-1-1-2.3-0.6-3.3    c0.3-0.9,1.1-1.6,2-1.8l0.3,1.5c-0.6,0.1-0.8,0.5-0.9,0.8c-0.2,0.6,0,1.3,0.4,1.9c0.7,0.9,4.5,2.3,8.9,2.4    c4.7-0.1,9.9-1.6,10.1-3.3c0-0.5-0.1-0.9-0.4-1.2c-0.3-0.3-0.5-0.4-0.8-0.3l-0.1-0.7l-0.2,0.7L188,303l1-0.5l0,0l0.2-0.1    c1.1,0.2,2.4,1,2.3,3.1C191.1,308.6,184.9,310.1,180.3,310.1L180.3,310.1z" id="XMLID_27_"/></g>
    <path class="st3"
          d="M171.3,298.2c-1.7,0.4-2,2.5-0.8,4c1,1.2,5,2.9,9.5,3c4.6,0.1,10.3-1.8,10.6-4.3   c0.1-2.5-1.6-2.3-1.8-2.2L171.3,298.2z"
          id="XMLID_26_"/>
    <g><path class="st2" d="M180.4,305.9c-0.1,0-0.2,0-0.3,0c-4.6-0.1-8.9-1.8-10.1-3.3c-0.8-1-1.1-2.3-0.7-3.5    c0.3-0.9,1-1.5,1.9-1.7l0.3,1.5c-0.4,0.1-0.7,0.3-0.8,0.7c-0.2,0.6,0,1.4,0.5,2c0.7,0.9,4.4,2.6,9,2.7c4.7,0.1,9.6-1.8,9.8-3.6    c0-0.6-0.1-1.1-0.3-1.3l-1-1.5c0.3-0.2,1.1-0.2,1.8,0.2c0.5,0.3,1.1,1.1,1.1,2.7C191,304,184.8,305.9,180.4,305.9L180.4,305.9z" id="XMLID_25_"/></g>
    <path class="st3"
          d="M180.8,300.8c6,0.1,9.9-2.9,9.9-4.5c0-1.6-2-1.7-3.2-1.2c-1.2,0.5-3.1,1.6-7,1.7   c-4,0.1-7.5-2.8-8.7-2.7c-1.2,0.1-2.2,1.4-1.8,2.8C170.6,298.2,174.9,300.9,180.8,300.8L180.8,300.8z"
          id="XMLID_24_"/>
    <g><path class="st2" d="M180.2,301.5c-5.7,0-10.2-2.6-10.8-4.4c-0.3-0.9-0.1-1.9,0.4-2.6c0.5-0.7,1.2-1.1,2-1.2    c0.9,0.3,1.5,0.4,2.5,0.9c1.6,0.8,3.7,1.8,6,1.8c3.3,0,5.1-0.8,6.2-1.3l0.7-0.3c1.9-0.7,4.2,0.1,4.2,1.9c0,2.1-4.1,5.2-10.4,5.2    L180.2,301.5L180.2,301.5z M171.9,294.8c-0.3,0-0.7,0.2-0.9,0.5c-0.3,0.4-0.3,0.8-0.2,1.3c0.3,0.8,3.7,3.4,9.4,3.4v0.8l0.6-0.8h0    c6,0,9.2-2.8,9.2-3.7c0-0.2,0-0.7-1.1-0.7c-0.4,0-0.7,0.1-1.1,0.2l-0.7,0.3c-1.3,0.6-3.2,1.4-6.6,1.4c0,0,0,0,0,0    c-2.9,0-5.2-1.1-6.9-2C173,295.2,172.2,294.8,171.9,294.8L171.9,294.8z"/></g>
    <path class="st3"
          d="M341.9,237.5c2.9-0.3,9.5-1.6,9.8-0.3c0.3,1.3-3.6,16.8-5.5,18.8c-2,2-11.2,6.2-12.2,5.7   c-0.9-0.5,1.9-10.2,2.9-11.9c1.1-1.7,4.2-7.9,4-8.2C340.6,241.3,342,237.5,341.9,237.5L341.9,237.5z"
          id="XMLID_21_"/>
    <path class="st3" d="M347.7,237c-0.7-3.7-5,0.7-4.6,5.6c0.2,1.6-0.7,3.5-1.6,4.3L347.7,237z" id="XMLID_20_"/>
    <g><path class="st2" d="M342,247.4l-1.1-1.1c0.8-0.8,1.6-2.4,1.4-3.7c-0.3-3.8,1.9-7.5,4-7.8c0.4,0,1.7-0.1,2.1,2    l-1.5,0.3c0-0.2-0.1-0.7-0.4-0.8c-0.9,0.1-3,2.9-2.7,6.1C344.1,244.3,343.1,246.4,342,247.4L342,247.4z" id="XMLID_19_"/></g>
    <path class="st3" d="M344,237.2l0.2,0.2c-2.2-3.7-4.3,1.6-4.6,7.6L344,237.2z" id="XMLID_18_"/>
    <g><path class="st2" d="M340.3,245l-1.5-0.1c0.2-3.2,1.1-8.9,3.5-9.5c0.6-0.2,1.6,0,2.5,1.5l-1.2,0.8l0.2-0.2    l-0.2,0.1c-0.4-0.6-0.7-0.9-0.9-0.8C341.8,237.1,340.6,240.3,340.3,245L340.3,245z" id="XMLID_17_"/></g>
    <path class="st3"
          d="M351.4,236.6c0.1-3-4.8-3.9-4.5,7c-2.1,1.4-4.6,6.6-4.8,8.5c-1.6,0.4-4.3,2.3-4.9,4   L351.4,236.6z"
          id="XMLID_16_"/>
    <g><path class="st2" d="M338,256.3l-1.4-0.6c0.7-1.7,3.1-3.6,4.9-4.3c0.4-2.3,2.6-6.7,4.7-8.3c-0.1-6.4,1.6-8.4,2.6-9    c0.7-0.4,1.5-0.4,2.2,0c0.8,0.5,1.2,1.4,1.2,2.5l-1.5-0.1c0-0.5-0.2-0.9-0.5-1.1c-0.2-0.1-0.4-0.1-0.6,0c-0.3,0.2-2.1,1.5-1.9,8.1    l0,0.4l-0.4,0.2c-1.8,1.2-4.3,6.2-4.4,7.9l0,0.6l-0.5,0.1C341,253.2,338.6,255,338,256.3L338,256.3z" id="XMLID_15_"/></g>
    <path class="st3"
          d="M339.5,296.8c-0.2-8.3-0.4-26,0.5-27.9c1.5-3.6,9.2-7.7,11.5-13.3c2.3-5.9,4.3-19.4,3.4-21   c-1.2-2.3-5.4,2.9-4.3,8.6c-5,5.9-4,9.4-4.9,10.1c-3.1,2.4-7.8,4-8.6,6.1c-1.7,3.8,0.4-5.4,1.7-7.3c1.4-1.9,3.8-6,2.1-7   c-1.6-1-4.5,1.6-4.9,2.4c-0.4,0.8-4.3,5-5.4,6c-2,1.5-7.1,4.9-7,7.7c0,4.7-0.4,35.3-0.4,35.3L339.5,296.8z"
          id="XMLID_14_"/>
    <g><path class="st2" d="M338.7,296.8c-0.2-5.4-0.5-25.9,0.6-28.2c0.7-1.7,2.6-3.4,4.8-5.4c2.6-2.3,5.5-4.9,6.7-7.9    c2.5-6.3,4.1-19.1,3.4-20.4c-1.5,0.2-3.7,3.9-2.9,8.1l0.1,0.4l-0.2,0.3c-3.3,3.9-3.9,6.7-4.2,8.3c-0.2,0.9-0.3,1.5-0.8,1.9    c-1.2,0.9-2.7,1.8-4.1,2.5c-1.9,1.1-3.9,2.2-4.4,3.3c-0.4,0.8-0.7,1.4-1.2,1.4l-0.5,0l-0.3-0.4c-0.6-1.1,1.5-7.6,2.4-8.9    c1.4-1.9,2.7-4.6,2.5-5.7c-0.4-0.4-0.7-0.4-1.1-0.3c-1.3,0.4-2.7,1.7-2.9,2.1c-0.5,0.9-4.5,5.3-5.6,6.2l-0.8,0.6    c-2,1.4-6,4.4-5.9,6.6c0,4.7-0.4,35.3-0.4,35.3l-1.5,0c0,0,0.4-30.6,0.4-35.3c-0.1-3,4.1-6,6.6-7.8l0.7-0.5c1.1-1,4.9-5.1,5.2-5.7    c0.4-0.7,2.1-2.4,3.8-2.9c1-0.3,1.7,0,2.1,0.2c0.5,0.3,0.7,0.7,0.9,1.3c0.5,2.3-2.4,6.4-2.8,6.8c-0.5,0.8-1.3,3-1.8,4.9    c0.9-0.8,2.3-1.6,3.7-2.4c1.3-0.7,2.7-1.5,3.9-2.4c0.1-0.1,0.2-0.6,0.3-1c0.3-1.6,0.9-4.7,4.3-8.7c-0.7-4.6,1.6-8.9,3.6-9.6    c0.9-0.3,1.7,0,2.1,0.9c1.2,2.1-1.2,16.2-3.3,21.7c-1.4,3.3-4.4,6-7.1,8.4c-2,1.8-3.8,3.4-4.4,4.9c-0.7,1.6-0.7,17.1-0.4,27.6    L338.7,296.8L338.7,296.8z" id="XMLID_13_"/></g>
    <path class="st3"
          d="M340.4,307.7c0,0,0,3.3,0,3.4c-1.4,1.8-7.5,2-8.8,1.9c-1.3,0-7,0.1-8.3-2.1   c0-0.1-0.1-2.8-0.1-3.6L340.4,307.7z"
          id="XMLID_12_"/>
    <g><path class="st2" d="M331.7,313.8C331.6,313.8,331.6,313.8,331.7,313.8c-3.8-0.1-7.8-0.4-9-2.5    c-0.2-0.4-0.2-2.9-0.2-4h1.5c0,0.7,0,3.2,0.1,3.5c0.6,0.8,3,1.4,7.2,1.4c3.3-0.1,7.7-0.5,8.7-1.7l-0.2-2.9l1.5,0l0,3.4    C339.3,313.7,332.7,313.8,331.7,313.8L331.7,313.8z" id="XMLID_11_"/></g>
    <path class="st3"
          d="M340.7,302.8c1.7,0.4,2.1,2.4,0.9,3.9c-1,1.2-4.9,2.6-9.5,2.7c-4.5,0.1-10.6-1.5-10.9-4   c-0.1-2.5,2.3-2.4,2-2.3L340.7,302.8z"
          id="XMLID_10_"/>
    <g><path class="st2" d="M331.7,310.1c-4.6,0-10.9-1.6-11.2-4.7c-0.1-2.1,1.2-3,2.3-3.1l0.7-0.1l0.7,1.3l-0.7,0.2    l-0.2-0.7l-0.1,0.7c-0.1-0.1-0.5,0-0.8,0.3c-0.3,0.3-0.4,0.7-0.4,1.2c0.2,1.7,5.3,3.2,10.1,3.3c4.4-0.1,8.1-1.5,8.9-2.4    c0.5-0.6,0.6-1.3,0.4-1.9c-0.1-0.3-0.4-0.7-0.9-0.8l0.3-1.5c1,0.2,1.7,0.9,2,1.8c0.4,1.1,0.1,2.3-0.6,3.3c-1.3,1.6-5.7,2.9-10,3    C332,310.1,331.9,310.1,331.7,310.1L331.7,310.1z" id="XMLID_9_"/></g>
    <path class="st3"
          d="M340.7,298.2c1.7,0.4,2,2.5,0.8,4c-1,1.2-5,2.9-9.5,3c-4.5,0.1-10.3-1.8-10.6-4.3   c-0.1-2.5,1.6-2.3,1.8-2.2L340.7,298.2z"
          id="XMLID_8_"/>
    <g><path class="st2" d="M331.6,305.9c-4.5,0-10.7-1.8-11-4.9c-0.1-1.7,0.5-2.4,1.1-2.7c0.7-0.4,1.4-0.4,1.8-0.2    l-0.6,1.3c-0.6,0.4-0.7,0.9-0.7,1.5c0.2,1.8,5.2,3.5,9.8,3.6c4.6-0.1,8.3-1.8,9-2.7c0.5-0.6,0.7-1.4,0.5-2    c-0.1-0.4-0.4-0.6-0.8-0.7l0.3-1.5c0.9,0.2,1.6,0.8,1.9,1.7c0.4,1.1,0.1,2.4-0.7,3.5c-1.2,1.5-5.5,3.2-10.1,3.3    C331.9,305.9,331.8,305.9,331.6,305.9L331.6,305.9z" id="XMLID_7_"/></g>
    <path class="st3"
          d="M331.2,300.8c-6,0.1-9.9-2.9-9.9-4.5c0-1.6,2-1.7,3.2-1.2c1.2,0.5,3.1,1.6,7,1.7   c4,0.1,7.5-2.8,8.7-2.7c1.2,0.1,2.2,1.4,1.8,2.8C341.4,298.2,337.1,300.9,331.2,300.8L331.2,300.8z"
          id="XMLID_6_"/>
    <g><path class="st2" d="M331.8,301.5l-0.6,0c0,0,0,0,0,0c-3,0-5.6-0.6-7.6-1.7c-1.9-1-3-2.3-3-3.5c0-1.8,2.3-2.6,4.2-1.9l0.7,0.3    c1.2,0.5,2.9,1.3,6,1.3c0,0,0,0,0,0c2.5,0,4.7-1.1,6.2-1.8c1-0.5,1.8-0.9,2.4-0.9c0.9,0.1,1.6,0.5,2.1,1.2    c0.5,0.7,0.7,1.7,0.4,2.6C342,298.9,337.4,301.5,331.8,301.5L331.8,301.5z M323.1,295.6c-1.1,0-1.1,0.5-1.1,0.7    c0,0.3,0.5,1.2,2.2,2.2c1.8,1,4.2,1.6,6.7,1.6l0.9,0c5.6,0,9.1-2.6,9.4-3.4c0.1-0.4,0-0.9-0.2-1.3c-0.2-0.3-0.5-0.5-0.9-0.5    c-0.3,0-1.1,0.4-1.8,0.7c-1.7,0.8-4,2-6.7,2c-3.6,0-5.5-0.9-6.8-1.4l-0.7-0.3C323.8,295.7,323.5,295.6,323.1,295.6L323.1,295.6z"/></g></g></svg>
