<?xml version="1.0" ?>
<svg id="Layer_1" style="enable-background:new 0 0 512 512;" version="1.1" viewBox="0 0 512 512" xml:space="preserve"
     xmlns="http://www.w3.org/2000/svg"><style type="text/css">
	.st0 {
    fill: #231E60;
  }

  .st1 {
    fill: #AC1E2F;
  }

  .st2 {
    fill-rule: evenodd;
    clip-rule: evenodd;
    fill: #FFFFFF;
  }

  .st3 {
    fill-rule: evenodd;
    clip-rule: evenodd;
    fill: #8F3A1F;
  }

  .st4 {
    fill: #010101;
  }

  .st5 {
    fill-rule: evenodd;
    clip-rule: evenodd;
    fill: #F3C033;
  }
</style>
  <g id="XMLID_1_"><rect class="st0" height="298.7" id="XMLID_71_" width="512" y="106.7"/>
    <polygon class="st1" id="XMLID_70_" points="512,106.7 0,256 0,256 512,405.3  "/>
    <polygon class="st2" id="XMLID_69_" points="512,122.7 512,389.3 54.9,256  "/>
    <path class="st3"
          d="M411.7,289.5c0,0-3.7-3,0.7-8c-2.4-2-0.2-5.9-0.2-5.9s-4.1-1.5,0.2-7.8c-3.1-2-1.7-6.6-1.7-6.6   s-10-3.7-0.5-7.3c-7.8,3.4-15.1-4.6-15.1-4.6l-11.4,0.3c-1.9-9.4-16.9-1.2-5.8-28.3c-2.9-0.5-6.1-1.3-9.3,1   c-3.2,2.4-12.4,7.5-17.8,2.4c-5.4-5.1,3.6-12.4,3.7-12.5c0.2-0.2,12-6.3,13.7-10.3c-0.2-3-3.9-5.4-0.5-12   c3.9-6.3,27.8-12.2,38.6-14.2c5.3-2.4,7.6-7,7.6-7l1.2,4.4c0,0,24.1-7.1,25.2-10.5c1.2-3.4,0.5,3.1,0.5,3.1   c9.5-0.8,21.5-9,23.2-5.3c8-1.5,23.2-8.3,23.2-8.3s5.2-0.2,1.5,5.6c2.4,3.7-0.7,6.9-0.9,6.9c-0.2,0,1,3.7-2,5.8   c1,3.2-1.9,5.8-1.9,5.8s1.4,3.9-4.1,5.9c0.5,3.4-3.1,4.1-3.1,4.1s0.5,3.6-1.9,5.1c0,2.7-2.7,4.1-2.7,4.1s1.7,1-0.7,2.7   c-2.4,1.7-27,16.8-27,16.6c0-0.2,18,3.2,19.2,3.9c1.2,0.7,14.7,9.7,14.7,9.7l-13.7,16.9c0,0-15.2-1.7-15.9-0.8   c-0.7,0.8,3.2,1.2,4.1,2.5c0.8,1.4,2.2,4.6,4.9,4.2c2.7-0.3-5.1,4.9-10.2,5.4c0,1.9,6.4,2,8.1,0.5c1.7-1.5-4.1,4.4-4.8,5.3   c-0.7,0.8,7.6-1.2,7.6-1.2s-1.4,5.6-8.6,7.3c2.9,4.7,1.7,7.8,1.5,7.8c-0.2,0-4.8-4.7-9.2-3.9c1.2,4.6,4.8,8.8,5.8,9.5   c1,0.7-8,0.5-9.2-2c-1.2-2.5-2.2,6.1,1,8.8c-3.7,0.2-7-2-7-2s-2.2,5.1-0.7,7.6c1.5,2.5-5.3-5.1-5.3-5.1l-12.9,5.4L411.7,289.5z"
          id="XMLID_68_"/>
    <g><path class="st4" d="M432.9,295.1c-0.3,0-0.7,0-5.8-5.8l-12.3,5.6c-0.2,0.1-0.5,0-0.6-0.2l-2.9-4.9c0,0,0,0,0,0    c0,0-1.4-1.2-1.5-3.2c-0.1-1.6,0.5-3.3,2-5c-1.7-1.9-0.7-4.6-0.2-5.7c-0.5-0.3-1.1-0.9-1.4-1.9c-0.5-1.6,0-3.6,1.6-6    c-2.3-1.9-1.9-5.2-1.6-6.4c-1.2-0.5-4.5-2.1-4.5-4.2c0-0.7,0.3-1.4,1.1-2.1c-6.5,0.2-11.7-5.3-11.9-5.6l-11,0.5    c-0.3-0.1-0.5-0.2-0.5-0.4c-0.6-2.9-2.5-4-4.6-5.2c-4.3-2.4-8.7-4.9-1.4-22.8l-0.1,0c-2.8-0.5-5.8-0.6-8.2,1.1    c-2.9,2.1-7.9,4.6-12.2,4.6c-2.5,0-4.6-0.8-6.2-2.3c-1.3-1.2-1.9-2.7-1.9-4.3c0.1-4,4.3-7.9,5.6-9c0.1-0.1,0.1-0.1,0.8-0.5    c9.5-5.3,12.2-8.2,12.8-9.7c-0.1-0.6-0.4-1.4-0.8-2.3c-1-2.2-2.2-4.9,0.3-9.8c5-8,38.7-14.4,39-14.5c4.9-2.3,7.3-6.6,7.3-6.7    c0.1-0.2,0.3-0.3,0.5-0.3c0.2,0,0.4,0.2,0.4,0.4l1.1,3.9c9.2-2.8,23.6-7.8,24.4-10c0.3-0.9,0.6-1.3,1-1.3c0.5,0.3,0.9,0.7,0.6,4    c4-0.5,8.4-2.2,12.3-3.7c5.2-2,9.3-3.4,10.6-1.6c7.9-1.6,22.6-8.1,22.8-8.2c0.6,0,2.5,0,3.3,1.4c0.6,1.2,0.2,2.8-1.1,4.9    c1.7,2.1,0.8,4.4,0.2,5.6c0,0-0.5,0.9-1,1.3c0.1,1.3,0.3,4-1.9,5.7c0.7,3.1-1.7,5.6-2.1,5.9c0.3,0.1,1.1,3.8-3.9,5.9    c0.2,2.5-1.7,3.7-3.1,4.1c0.1,1.1,0,3.8-2.1,5.1c0.2,1.9-1.3,3.1-2.2,3.7c0.2,0.2,0.3,0.5,0.3,0.8c0,0.7-0.5,1.5-1.5,2.2    c-1.8,1.3-20.5,12.8-25.7,15.9c4.3,0.7,16.8,3.1,17.9,3.7c1.2,0.7,14.2,9.3,14.8,9.7c0.1,0.1,0.2,0.2,0.2,0.3c0,0.1,0,0.3-0.1,0.4    l-13.7,16.9c-0.5,0.2-10.2-0.9-14.4-0.9c-0.6,0-1,0-1.2,0.1c0.3,0,0.7,0.2,1,0.3c1.1,0.4,2.3,0.8,2.8,1.7l0.4,0.7    c0.8,1.4,2.2,3.4,3.9,3.4c1.1,0,1.3,0.3,1.3,0.6c0.1,1.4-6.2,4.9-10.4,5.7c1.1,0.7,5.9,0.7,7-0.3c0.1-0.1,0.5-0.4,0.6-0.4    c0.6,0.7,0.6,0.7-2.2,3.7c-0.7,0.7-1.3,1.4-1.8,1.9c2.2-0.3,6.4-1.3,6.5-1.3c0.2,0,0.4,0,0.5,0.1c0.1,0.1,0.2,0.3,0.1,0.5    c-0.1,0.2-1.4,5.6-8.4,7.5c2.2,4,1.7,6.9,1.3,7.6c-0.1,0.2-0.3,0.3-0.5,0.3c-0.1,0-0.6-0.3-0.7-0.4c-1.1-0.9-4.4-3.9-7.8-3.6    c1.3,4.2,4.5,8,5.4,8.6c0.2,0.1,0.3,0.5,0.3,0.7c-0.1,0.4-0.5,0.6-2,0.6c-1.9,0-7.2-0.5-8.2-2.7c0,0.1-0.2,1.3-0.1,3.1    c0.1,1.1,0.4,3.8,2,5.1c0.2,0.1,0.2,0.4,0.2,0.6c-0.1,0.2-0.3,0.3-0.5,0.3c0,0,0,0,0,0c-3.1,0-5.6-1.2-6.7-1.8    c-0.5,1.3-1.6,4.8-0.5,6.6c0.1,0.2,0.3,0.9,0.2,1L432.9,295.1C432.9,295.1,432.9,295.1,432.9,295.1L432.9,295.1z M409.7,254.6    L409.7,254.6c-2.1,0.9-3.1,1.8-3.1,2.7c0,1.5,3.2,3,4.3,3.4c0.3,0.1,0.4,0.4,0.3,0.6c0,0-1.2,4.2,1.5,6c0.1,0.1,0.2,0.2,0.2,0.3    c0,0.1,0,0.3-0.1,0.4c-1.5,2.3-2.1,4.2-1.7,5.6c0.3,1.1,1.3,1.5,1.3,1.5c0.1,0.1,0.2,0.2,0.3,0.3c0.1,0.1,0,0.3,0,0.4    c0,0-2,3.5,0.1,5.3c0.1,0.1,0.2,0.2,0.2,0.4c0,0.1,0,0.3-0.1,0.4c-1.5,1.6-2.1,3.2-2,4.6c0.1,1.7,1.3,2.6,1.3,2.6l2.8,4.7    l12.5-5.2c1.9,1.7,3.6,3.5,4.7,4.6c-0.8-2.8,0.9-6.7,0.9-6.9c0.1-0.1,0.2-0.2,0.3-0.3c0.1-0.1,0.3,0,0.4,0.1c0,0,2.5,1.7,5.5,1.9    c-1.8-2.5-1.7-6.9-1.2-8.4c0.5-1.3,1.6-0.4,1.8-0.1c0.6,1.4,4.6,2.1,7.3,2.1c0.2,0,0.3,0,0.4,0c-1.5-1.5-4.3-5.3-5.3-9.2    c0-0.1,0-0.3,0.1-0.4c0.1-0.1,0.2-0.2,0.3-0.2c4-0.8,8,2.7,9.2,3.7c-0.1-0.2,0.5-2.9-1.9-6.8c-0.1-0.1-0.1-0.3,0-0.5    c0.1-0.2,0.2-0.3,0.4-0.3c5.3-1.2,7.3-4.5,8-6.1c-1.7,0.4-5.2,1.2-6.5,1.2c-0.2,0-0.8-0.2-0.9-0.4c-0.1-0.2,0-0.5,0.1-0.7    c0.3-0.3,1.4-1.5,2.5-2.7c0.3-0.3,0.6-0.6,0.9-1c-3.1,0.7-6.9,0.2-6.9-1.8c0-0.3,0.2-0.5,0.5-0.5c4.1-0.4,9.9-4,10.3-4.8l-0.4,0.5    c-2.4,0-3.8-2.4-4.6-3.9l-0.4-0.6c-0.3-0.5-1.4-0.9-2.3-1.2c-1-0.4-1.7-0.6-1.9-1.2c0-0.2,0.1-0.6,0.2-0.7    c0.2-0.3,0.7-0.4,2.3-0.4c4.2,0,13.7,1,14.1,1.1l12.9-16.3c-2.4-1.6-13.2-8.7-14.2-9.3c-1-0.5-17.6-3.8-18.9-3.8    c-0.2,0-0.4-0.1-0.5-0.3c-0.1-0.2-0.1-0.4,0-0.5c1-0.6,24.4-14.9,27.1-16.8c0.7-0.5,1.1-1,1-1.3c0-0.3-0.3-0.5-0.3-0.5    c-0.2-0.1-0.3-0.3-0.2-0.5c0-0.2,0.1-0.4,0.3-0.4c0,0,2.4-1.2,2.4-3.6c2.3-1.8,1.9-5,1.9-5c0-0.3,0.1-0.5,0.4-0.6    c0.1,0,3.1-0.6,2.6-3.5c0-0.2,0.1-0.5,0.3-0.6c4.9-1.8,3.8-5.1,3.8-5.3c0.2-0.6,2.8-2.9,1.9-5.8c-0.1-0.2,0-0.5,0.2-0.6    c2.2-1.5,1.9-4,1.8-4.9c0-0.1,0-0.6,0.1-0.7c0.2-0.1,3-2.9,0.8-6.3c1.1-2.3,1.5-3.7,1.1-4.4c-0.5-0.9-2-0.9-2.1-0.9    c-0.5,0.2-15.2,6.8-23.2,8.3c-0.2,0-0.5-0.1-0.6-0.3c-0.1-0.3-0.4-0.7-1.4-0.7c-1.8,0-4.7,1.1-8.1,2.4c-4.2,1.6-8.9,3.4-13.2,3.8    c-0.2,0-0.3,0-0.4-0.2c-0.1-0.1-0.2-0.3-0.1-0.4c0.1-0.8,0.1-1.6,0.2-2.3c-2.9,3.6-22.9,9.6-25.3,10.3c-0.1,0-0.3,0-0.4,0    c-0.1-0.1-0.2-0.2-0.2-0.3l-0.9-3.3c-1,1.5-3.4,4.4-7.2,6.1c-13.6,2.6-34.9,8.4-38.4,14c-2.2,4.4-1.2,6.8-0.3,8.9    c0.4,1,0.8,1.9,0.9,2.9c-1.1,2.7-5.4,6-13.3,10.4l-0.6,0.3c-2.5,2.1-5.2,5.4-5.3,8.2c0,1.3,0.5,2.5,1.6,3.5c1.4,1.4,3.3,2,5.5,2    c5.4,0,11-4,11.6-4.5c2.5-1.9,5.9-1.8,9-1.3l0.8,0.1c0.2,0,0.3,0.1,0.4,0.3c0.1,0.1,0.1,0.3,0,0.4c-7.2,17.6-3.4,19.8,0.7,22.2    c2.1,1.2,4.2,2.4,5,5.4l10.9-0.3c0.4,0.2,5.3,5.4,11.1,5.4c1.1,0,2.2-0.2,3.2-0.5l0.6-0.3c0.3-0.1,0.6,0,0.7,0.3    c0.1,0.3,0,0.6-0.3,0.7L409.7,254.6L409.7,254.6L409.7,254.6z"/></g>
    <path class="st5"
          d="M312.1,279.4c0.3,0,18.7-0.3,27.2-5.1c4.2,6.7,10,11.2,10,11.2l2.7-9.7c0,0,6.6,0.3,7.2,1.8   c-0.9,1.8-1.2,4.2-1.2,4.2s4.5,0.3,4.8,0.9c0.3,0.6-1.2,5.7-1.2,5.7l19.3,4.5c0,0,1.5-7.5,3-6.6c1.5,0.9,8.1,10.3,17.5,10.9   c9.4,0.6,10-7.9,10-7.9l2.1,1.2c0,0,3.9-8.5,4.5-8.5c0.6,0,1.5,1.2,6.6,1.2c1.5,1.8,2.1,6,2.1,6s-5.7,5.7-3.9,10.3   c1.8,4.5,2.1,3.3,2.1,3.3l41.7,10c0,0,2.1,3.3-1.5,5.1c0,0.3-42-9.7-42-9.7s-3.9,4.5-6.9,3.6c-3-0.9-0.9,1.8-0.9,1.8l45.3,3.6   c0,0,3.3,4.2,0.9,5.4c-3,0.3-48.9-3-48.9-3s-2.7,5.7-5.7,0.9c-2.1,3.3-4.5-0.9-4.5-0.9s-3.9,3-4.5-0.3c-3.3,2.4-5.4-1.5-5.4-1.5   l-19.3-1.2l-1.2,1.8c0,0,3.3,0.9-1.8,3c-5.1,2.1,30.8,1.2,31.7,1.5c0.9,0.3-2.4,3-2.4,3s18.4,1.2,21.7-2.7c3.3-3.9-1.2,5.1-1.2,5.1   s14.5-0.6,14.5-1.2c0-0.6-0.3,4.5-10.3,3.9c6,3.9,13.6,6.3,13.6,6.3s-7.5,1.8-16.3-0.3c1.5,3.9,8.1,7.5,8.1,7.5s-4.8,4.2-15.7-6   c3,5.4,0.6,7.5,0.3,6.9c-0.3-0.6-5.4-8.1-17.5-10.9c7.5,4.8,4.2,6.9,4.2,6.9s-3.9-6.9-10.3,0c-2.4-6.3-11.8-10-23.2-10.6   c-3.6-4.2-5.7-3-14.2-5.4c-4.8-5.4-11.8-11.5-11.8-11.5s0.3-8.1,8.5-7.2c0.9,2.7,0.9,1.8,0.9,1.8s9.1-3.3,11.8,1.2   c3.9-6.9,9.4-1,10.3,1.4c2.6,0.4,15.7,0.7,15.7,0.7s-1.5-2.7-0.6-2.4c0.9,0.3,8.1-2.7,7.9-3.6c-0.3-0.9-0.6-3.9,0.6-3.6   c1.2,0.3-10.3-1.5-16.6,3.3c-2.1-2.1-0.6-7.9-0.6-7.9l-18.7-3.9l-0.9,4.8c0,0-5.4,0.9-5.1-0.3c0.3-1.2-1.2,4.2-1.2,4.2   s-7.2-1.8-7.2-2.1c0-0.3,2.1-10.9,2.1-10.6c0,0.3-6,0.6-14.5,7C331.1,289.7,312.1,279.7,312.1,279.4L312.1,279.4z"
          id="XMLID_65_"/>
    <g><path class="st4" d="M414.3,346.4C414.3,346.4,414.3,346.4,414.3,346.4l-0.3,0l-0.3-0.4c0-0.1-4.1-6.7-14.4-9.9    c1.9,1.6,2.9,3,2.9,4.3c0,1.3-0.9,1.9-1,1.9l-0.5,0.3l-0.3-0.5c0,0-1.5-2.5-3.9-2.8c-1.7-0.2-3.6,0.8-5.5,2.9l-0.6,0.6l-0.3-0.8    c-2.2-5.8-10.7-9.6-22.8-10.2c-2.7-2.9-4.3-3.3-7.9-4c-1.7-0.3-3.7-0.7-6.4-1.5c-5-5.5-11.9-11.5-12-11.6c-0.2-0.6,0-4.3,2.6-6.5    c1.6-1.3,3.7-1.9,6.2-1.6c0.6,1.3,0.9,1.8,1,2c2.2-0.9,8.7-2.7,11.6,0.6c1.7-2.5,3.5-2.9,4.7-2.8c3,0.2,5.5,3.4,6,5    c1.8,0,11.4,0.3,14.4,0.4c-0.8-1.7-0.5-2-0.4-2.2l0.2-0.3l0.6,0.1c0.8,0.2,6.8-2.3,7.2-3.2c-0.2-0.3-0.5-2-0.2-3.1    c-8.3-0.4-12.8,1.5-15,3.3l-0.4,0.3l-0.3-0.3c-1.9-1.9-1.2-6.3-0.9-7.8l-17.7-3.7l-0.8,4.3c-1.8,0.6-4.2,0.9-5.4,0.6    c-0.4,1.3-1,3.4-1,3.4l-0.1,0.5l-0.5-0.1c-7.6-1.9-7.6-2.1-7.6-2.6c0-0.2,0.4-2,1-5.5c0.4-2.2,0.7-3.5,0.9-4.3    c-1.9,0.5-6.9,1.7-13.5,6.6l-0.6,0.4l-0.2-0.7c-1.9-6-15.2-13.9-19.6-16.5c-1.9-1.1-1.9-1.1-1.9-1.5v-0.5h0.5    c0.2,0,18.6-0.3,26.9-5.1l0.4-0.2l0.3,0.4c3.3,5.3,7.7,9.2,9.2,10.6l2.6-9.3l0.4,0c1.6,0.1,7,0.4,7.7,2.1c-0.6,1.5-1,3.1-1.1,4    c4.3,0.3,4.6,0.9,4.7,1.1c0.2,0.5-0.1,2.4-1,5.6l18.3,4.3c0.4-1.9,1.4-5.9,2.7-6.5l0.2-0.1l0.7,0.2c0.4,0.2,0.9,0.8,1.7,1.6    c2.7,2.8,8.4,8.7,15.5,9.2c8.8,0.5,9.4-7.1,9.4-7.4l0.1-0.8l2.3,1.3c3.9-8.2,4.4-8.2,4.8-8.2l0.8,0.2c0.7,0.3,2.1,1,5.9,1    c2,2.1,2.6,6.3,2.6,6.5c-0.2,0.5-5.6,6-4,10.2c1.1,2.8,1.6,3.1,1.6,3.2l41.8,9.8c0.4,0.3,1.3,1.9,0.9,3.6    c-0.3,1.1-1.1,1.9-2.3,2.5c-0.1,0.1-0.2,0.1-3.9-0.7c0.8,1.1,1.7,2.8,1.4,4.1c-0.1,0.6-0.5,1.1-1.1,1.4c-3.2,0.4-46.5-2.8-49.1-3    c0.2,0.2-1.1,2.7-3.1,2.8c-1,0.1-1.9-0.5-2.7-1.6c-0.5,0.6-1.2,0.9-1.8,0.9c-1.3,0-2.3-1.3-2.8-2c-0.8,0.5-2.4,1.4-3.6,0.9    c-0.5-0.2-0.9-0.6-1.1-1.1c-0.9,0.5-1.7,0.6-2.6,0.4c-1.9-0.4-3-2.4-3-2.5l-18.9-0.9l-0.5,1c0.4,0.2,0.8,0.6,0.9,1.1    c0.1,0.9-0.9,1.7-3.2,2.6c1,0.5,16.7,0.5,24.3,0.5c5.7,0,7.1,0,7.4,0.1l0.3,0.1l0.2,0.4c0.1,0.5-0.5,1.4-1.8,2.5    c5.7,0.3,17.6,0.2,20-2.6c0.7-0.8,1.3-1.4,1.8-1.1c0.4,0.2,0.9,0.6-1.8,6c5.8-0.3,12-0.7,13.2-1l0.1-0.2l0.9,0.1l0,0.5    c0,0.1,0,0.2-0.1,0.3c-0.6,1.4-2.5,4.1-8.8,4.1c5.6,3.3,11.8,5.3,11.8,5.3l1.7,0.6l-1.8,0.4c-0.3,0.1-7.2,1.7-15.5-0.1    c2,3.3,7.4,6.3,7.5,6.4l0.6,0.4l-0.6,0.5c-0.2,0.2-4.7,4-14.5-4.4c1,2.8,0.3,4.3,0,4.8C415,346.1,414.7,346.4,414.3,346.4    L414.3,346.4z M393.9,333.8l2.8,0.6c10.9,2.5,16.6,9,17.7,10.9c0-0.1,0.1-0.3,0.2-0.6c0.2-0.6,0.5-2.4-1.3-5.6l-1.6-2.9l2.4,2.3    c8,7.6,12.6,7,14.3,6.4c-1.8-1.1-6.3-4.1-7.6-7.3l-0.4-0.9l1,0.2c6,1.4,11.4,1,14.2,0.6c-2.6-1-7.6-3-11.8-5.7l-1.6-1.1l1.9,0.1    c5.9,0.3,8.3-1.4,9.2-2.6c-1.7,0.3-5.5,0.6-13.4,0.9l-0.9,0l0.4-0.8c0.8-1.6,1.6-3.4,2-4.5c-3.5,4.1-21.4,2.9-22.1,2.9l-1.3-0.1    l1-0.8c1.2-1,2.3-2.1,2.4-2.4c-0.1,0.3-3.4,0.3-6.9,0.3c-22.7,0-25.3-0.4-25.5-1.5c-0.1-0.6,0.6-0.9,0.8-1c2.6-1,2.5-1.6,2.5-1.6    c0-0.1-0.4-0.3-0.7-0.4l-0.7-0.2l1.6-2.4l19.8,1c0.4,0.3,1.3,1.9,2.8,2.2c0.7,0.2,1.5,0,2.3-0.6l0.7-0.5l0.2,0.8    c0.2,0.9,0.5,1,0.7,1.1c0.9,0.4,2.5-0.7,3-1.1l0.5-0.4l0.3,0.5c0.3,0.5,1.3,1.9,2.3,1.9c0.5,0.1,0.9-0.3,1.4-1l0.4-0.7l0.4,0.7    c0.7,1.2,1.5,1.7,2.2,1.7c1.2-0.1,2.3-1.9,2.7-2.6c0.9-0.3,42.5,2.7,48.7,2.8c0.3,0,0.5,0,0.6,0c0.1-0.1,0.3-0.3,0.4-0.6    c0.3-1.2-1.1-3.3-1.6-4l-44.9-3.4c-0.7-0.7-1.5-1.8-1-2.6c0.4-0.6,1.4-0.4,2.1-0.2c2.2,0.7,5.4-2.3,6.4-3.5c0,0,0,0,0,0l1.1-4.9    l0.2,0c-0.4-0.5-0.9-1.4-1.7-3.4c-1.9-4.7,3.5-10.3,4-10.8c-0.2,0-0.8-3.8-2.1-5.4c-3.6,0.2-5.1-0.5-5.9-0.9    c-0.6,0.2-2.7,4.3-4.4,8l-0.2,0.5l-2-1.1c-0.4,2.2-2.3,8.1-10.4,7.6c-7.6-0.5-13.4-6.6-16.2-9.5c-0.7-0.7-1.2-1.3-1.5-1.5    c-0.5,0.1-1.6,3.1-2.3,6.3l-0.1,0.4l0.1,0l-1.8,5.4l-0.1,0c-0.4,1.7-0.7,4.9,0.3,6.4c2.6-1.8,7.4-3.7,16.1-3.1l0,0l0.5,0    c0.5,0.1,0.5,0.5,0.5,0.6l-0.1,0.5l-0.7,0c-0.3,0.3-0.3,2,0,2.9l0.1,0.3l-0.4,0.6c-1.1,1.1-6.5,3.5-8,3.4c0.3,0.2,0.7,0.9,1.1,1.6    l0.4,0.8l-0.9,0c-0.5,0-13.2-0.4-15.8-0.8c-0.9-1.7-3.2-4.4-5.6-4.6c-1.6-0.1-3,0.9-4.2,3l-0.4,0.8l-0.5-0.8    c-2.5-4.1-11.1-1-11.2-1c-0.7,0.3-0.9-0.1-1.6-2.1c-1.8,0.1-3.7,0.6-5,1.7c-2.2,1.9-2.4,5.2-2.5,5.4c0-0.2,6.9,5.8,11.6,11.1    c2.4,0.6,4.4,1,6.1,1.3c3.6,0.7,5.5,1.1,8.1,4.1c11.6,0.5,20.3,4.2,23,10c2-2,4-2.9,5.9-2.7c2.2,0.2,3.6,1.8,4.3,2.7    c0.1-0.2,0.2-0.4,0.2-0.6c0-0.8-0.6-2.4-4.7-5L393.9,333.8L393.9,333.8z M423.8,308.2c16.7,3.7,40.2,9.2,41.3,9.3    c0.7-0.4,1.3-1,1.5-1.8c0.4-1.3-0.4-2.5-0.4-2.5l-41.1-9.7l-0.3,0.1c0,0,0,0,0,0L423.8,308.2L423.8,308.2z M415.2,312.3    c-0.1,0-0.2,0-0.2,0c0,0.1,0.3,0.7,0.7,1.1l40.1,3.1c-6.1-1.4-16.2-3.7-32.7-7.7c0.3,0.1-3.7,4.6-7,3.6    C415.7,312.3,415.4,312.3,415.2,312.3L415.2,312.3z M346.5,300.8c0.6,0,3.5,0.8,6.3,1.5c0.4-1.3,0.6-2.2,0.8-2.8l0,0l3.9-17.2h0    l0.1-0.5c0-0.1,0.3-2.5,1.3-4.4c-0.3-0.3-3.5-0.9-6.4-1l-2.8,10l-0.6-0.5c-0.1,0-5.6-4.5-9.8-10.9c-7.2,3.8-20.6,4.7-25.3,4.9    c0.1,0,0.1,0.1,0.2,0.1c4.7,2.8,17.1,10.2,19.8,16.4c6.5-4.7,11.4-5.9,13.4-6.4c0.3-0.1,0.5-0.1,0.6-0.1c0.1-0.1,0.2-0.1,0.3-0.1    h0.5l0,0.5c0,0.1,0,0.2-0.1,0.3c-0.3,1.2-2,9.8-2.1,10.3C346.4,300.8,346.5,300.8,346.5,300.8L346.5,300.8z M354.9,298.1l0.1,0    l-0.2,0.7c0.3,0.1,2.4,0,4.5-0.3l0.6-4.9l0.1,0l1-4.8l-0.1,0l0.2-0.5c0.7-2.2,1.3-5,1.2-5.4c-0.2-0.1-2.1-0.4-3.9-0.5L354.9,298.1    L354.9,298.1z M361.1,293.8l17.9,3.7l1.4-4.2l-18.3-4.3L361.1,293.8L361.1,293.8z M418.9,337.9h-1c-0.1-0.4-1.6-1.9-13.4-6    c-1.6-0.6-1.6-0.6-1.5-1.1l0.7-0.3c0.9,0.2,7.2-0.5,9.4-0.8c0.8-0.1,1.3-0.2,1.4-0.2l0,1c-0.1,0-0.6,0.1-1.3,0.1    c-2.8,0.3-5.1,0.6-6.8,0.7C416.7,335.2,418.9,336.8,418.9,337.9L418.9,337.9z M397.3,332.6c-3.4-2.2-7.4-4.5-9.3-5.2    c-0.8,0-1.4,0-1.6-0.1l-0.4-0.5l0.5-0.6c0.3-0.1,0.9-0.1,1.6,0.2c2.6-0.1,7.9-0.8,8.5-1.3l0.7,0.7c-0.6,0.6-4.2,1.1-7.1,1.4    c2.6,1.3,5.9,3.3,7.7,4.4L397.3,332.6L397.3,332.6z M378.6,331.2c-1.5,0-4.9-2-9.7-5.2c-0.4-0.3-0.8-0.5-1.1-0.7    c-0.2-0.1-0.4-0.2-0.5-0.3l-0.3-0.3l0.2-0.4c0.2-0.3,0.3-0.4,1.1,0.2c1.3,0.4,5.9,0.5,9.9,0.3l0,1c-1.9,0.1-5.4,0.1-8-0.1    c4.9,3.2,7.8,4.7,8.4,4.5l0.3,1C378.9,331.2,378.7,331.2,378.6,331.2L378.6,331.2z M360.3,325.5c-5.1-1-7.3-3.5-9.2-5.7    c-0.4-0.5-0.9-1-1.3-1.4l-1.2-1.2l1.7,0.4c1.8,0.4,5.1,1.6,7.3,2.3c1,0.4,1.8,0.6,2,0.7l-0.1,1c-0.2,0-0.3,0-2.3-0.7    c-1.6-0.6-3.7-1.3-5.5-1.8c0,0,0.1,0.1,0.1,0.1c1.9,2.2,3.9,4.4,8.6,5.4L360.3,325.5L360.3,325.5z M361.5,317.5    c-0.2-0.2-1.8-0.8-3.2-1.4c-6.2-2.4-9-3.7-9-5v-0.7l0.7,0.2c3.1,1,6.7,2,10,1.2l0.3,1c-2.8,0.7-5.7,0.2-8.3-0.5    c1.9,1,5.1,2.2,6.7,2.9c3.1,1.2,3.5,1.4,3.7,1.8L361.5,317.5L361.5,317.5z"/></g>
    <path class="st5"
          d="M335.7,254.6c0,0-12.7,10.9,0,17.2c0.6-4.2,1.5-4.8,1.5-4.8s10.6,3.9,16.9-5.4   c-2.7-3.9-7.5-2.4-7.5-2.4S336.6,259.2,335.7,254.6L335.7,254.6z"
          id="XMLID_52_"/>
    <g><path class="st4" d="M407.3,321.1l-0.5-0.9c0.4-0.3,0.9-2.9,1.1-5.7l0,0c-0.2-0.4-1-1.9-1.5-2.8l-2.4,3c0,1.3-0.4,5.1-1.5,5.7    l-0.5-0.9c0.4-0.3,0.9-2.7,1.1-5.2l0.1-0.1l0,0c-0.1-0.3-0.6-1.9-0.9-2.7c-1.3,0.8-2.8,1.9-3,2.6c-0.1,0.4-0.2,1-0.3,1.7    c-0.3,2.3-0.6,3.8-1.4,4.1l-0.4-1c0.3-0.3,0.6-2.3,0.8-3.3c0.1-0.7,0.2-1.4,0.3-1.8c0-0.2,0.1-0.4,0.3-0.6l-0.3,0    c0.1-1.1,0-2.3-0.2-2.5c-0.8,0.1-5.1,4-5.2,7.5l-1,0c0.1-1.6,0.9-3.2,1.9-4.7l-5.3-0.8l0.2-1l5.9,0.9c1.4-1.7,3-2.9,3.7-2.9h0.2    l0.5,0.3c0.4,0.5,0.5,1.5,0.5,2.3c1-1,2.5-1.8,2.9-2l0.5-0.3l0.2,0.6c0.5,1.4,0.8,2.2,1,2.7l2-2.5c-0.5-0.2-0.9-0.4-1.3-0.7    c-0.5-0.4-0.7-0.9-0.8-1.4c-1.6,0.2-2.8-0.2-3.6-1c-0.3-0.3-0.6-0.7-0.8-1c-0.6,0-3.4,0.2-3.4,0.2l-0.1-1c0,0,2.1-0.1,3-0.2    c-0.3-1-0.4-2.1-0.3-2.6c-1.8,0-2.2,0-2.3,0l0,0l0,0.2l-0.7-0.7c0.1-0.5,0.1-0.6,4.2-0.5c1.2,0.1,2.2-0.3,2.9-1    c1.6-1.6,1.5-4.4,1.5-4.4l1,0c0,0.1,0.1,3.3-1.8,5.1c-0.9,0.9-2.2,1.4-3.6,1.3c-0.1,0-0.1,0-0.2,0c0,0.7,0,2.7,1.3,3.8    c0.8,0.7,2.1,0.9,3.7,0.6c4.3-3.2,4.6-6.5,4.8-8.5c0.1-0.6,0.1-1,0.2-1.4c0.3-1-1.2-1.6-1.2-1.6l0.3-1c0.7,0.2,1.7,0.8,1.9,1.8    c0.5-0.3,2.2-1.1,3.5-0.4c0.7,0.3,1.1,0.9,1.3,1.8c0.6-0.4,1.9-1.1,3.1-0.7c0.7,0.2,1.2,0.8,1.6,1.7c0.6-0.2,2.1-0.6,3.2,0.3    l-0.7,0.8c-0.8-0.7-2-0.3-2.3-0.1c0.4,2.9-1.4,7.8-3,10.2c-0.7,1-1.2,1.5-1.8,1.6l-0.1-1c0.1,0,0.5-0.3,1.2-1.4    c1.5-2.4,3.3-7.2,2.6-9.7c-0.2-0.8-0.6-1.2-1.1-1.4c-0.9-0.3-2.1,0.5-2.5,0.8l-0.1-0.1c0.2,3.6-2.7,9-5.1,10.8l0.1-0.1    c0.9,1.9,3.5,1.7,4,1.6l0.2,1c-0.5,0.1-2,0.2-3.3-0.3l1,1.5l3-0.3l0.1,1l-3,0.3l0.4,4.7l-1,0.1l-0.3-5.6l-0.9-1.1l-2,2    C408.8,316.8,408.4,320.6,407.3,321.1L407.3,321.1z M407.3,311c0.4,0.7,1.1,2,1.4,2.7l1.9-2c-0.3-0.3-0.6-0.7-0.8-1.1c0,0,0,0,0,0    C408.9,310.9,408.1,311.1,407.3,311L407.3,311z M406.7,309.9c0.8,0.1,1.7,0.1,2.6-0.3c2.3-0.9,5.7-7.3,5.3-10.6    c-0.1-0.8-0.4-1.3-0.8-1.5c-0.8-0.4-2.2,0.2-2.7,0.5l-0.3-0.6c0,0.2,0,0.4-0.1,0.6c-0.1,0.2-0.1,0.7-0.2,1.1    c-0.2,2-0.5,5.8-5.4,9.3c-0.1,0-0.1,0-0.2,0c0,0.3,0.2,0.5,0.4,0.8C405.6,309.6,406.1,309.8,406.7,309.9L406.7,309.9L406.7,309.9    L406.7,309.9z M373.8,317.1l-0.9-0.6c1.6-2.3-0.1-4.2-0.2-4.3l0.8-0.7C374.3,312.4,375.4,314.7,373.8,317.1L373.8,317.1z     M336.1,272.6l-0.6-0.3c-3.5-1.8-5.5-4.1-5.9-6.9c-0.7-5.6,5.5-11,5.8-11.2l0.7-0.6l0.2,0.9c0.7,3.4,7.7,4.1,10.4,4.1    c-0.1,0,5.1-1.5,8,2.6c-6.1,9.5-16,6.7-17.3,6.3c0.1,0.2-0.5,1.3-1,4.4L336.1,272.6L336.1,272.6z M335.4,255.6    c-1.5,1.5-5.3,5.6-4.8,9.8c0.3,2.3,1.8,4.2,4.7,5.7c0.6-3.5,1.4-4.3,1.6-4.5c0.1,0,0.2,0,0.3,0.1l0,0l8.1-7    C342.6,259.5,336.9,258.7,335.4,255.6L335.4,255.6z M338.4,266.9c3.2,0.7,10.4,1.5,15.3-5.6c-2.5-3-6.9-1.7-7-1.6c0,0-0.1,0-0.3,0    l0.2,0.2L338.4,266.9L338.4,266.9z"/></g>
    <path class="st2"
          d="M336.1,254.7L336.1,254.7c0,0,1.7-1.7,2.2-3.7c0.5-2-0.7-4.2,1.4-6.1c2-1.9,28.8-13.2,31-15.4   c2.2-2.2,6.3-7,6.8-8c0.5-1,2,5.1-2.6,7.8c4.9-1.3,8.2-2.9,10.2-2.2c-2,2.9-7.4,7.6-10,7.6c6-2.2,11.4-4.1,12.9-2.9   c1.5,1.2-7.3,7.1-10.8,7.5c6-1.5,13.9-3.9,14.9-1.3c-3.2,1-2.2,1.9-8.8,5.6c-0.8,0.7-5.1,0.8-5.1,0.8c5.1-0.5,12-2.5,12.7,1.2   c-4.1,1.5-5.6,3.6-9,4.4c-3.4,0.8-11.2,2.4-15.9,4.2c-4.8,1.9-11.7,7.3-11.7,7.3s-15.1,0.5-15.1,0.3   C339.1,261.7,336.2,254.9,336.1,254.7L336.1,254.7z"
          id="XMLID_44_"/>
    <g><path class="st4" d="M340,262.4c-1,0-1.4,0-1.4-0.6c-0.1-0.4-2.7-6.4-3-6.8c-0.2-0.2-0.1-0.5,0.1-0.6c0,0,1.6-1.6,2.1-3.5    c0.2-0.6,0.1-1.3,0.1-2c-0.1-1.4-0.1-3,1.4-4.3c0.9-0.9,6-3.3,14.3-7.1c7.3-3.4,15.6-7.2,16.7-8.3c2.2-2.2,6.2-6.9,6.7-7.8    c0.1-0.2,0.4-0.4,0.6-0.4c0.6,0,0.8,0.7,0.8,1c0.4,1.5,0.3,4.2-1.4,6.3c0.5-0.2,1-0.3,1.5-0.5c3-0.9,5.2-1.6,6.7-1.1    c0.2,0.1,0.3,0.2,0.3,0.3c0.1,0.2,0,0.3-0.1,0.5c-0.9,1.3-2.7,3.2-4.6,4.7c3.4-1.1,6.2-1.6,7.4-0.7c0.1,0.1,0.4,0.8,0.4,1    c-0.2,1.2-2.7,3.2-5.3,4.8c4.7-1.1,8.4-1.3,9.1,0.6c0.1,0.1,0,0.3,0,0.4c-0.1,0.1-0.2,0.2-0.3,0.3c-1.5,0.5-2,0.9-2.9,1.7    c-0.8,0.7-1.9,1.5-4,2.8c0.5,0,1-0.1,1.5-0.1c1,0,4.1,0,4.5,2.6c0,0.2-0.1,0.5-0.3,0.6c-1.9,0.7-3.2,1.5-4.4,2.3    c-1.4,0.9-2.7,1.7-4.6,2.2l-3,0.7c-3.9,0.9-9.3,2.1-12.9,3.5c-4.6,1.8-11.5,7.2-11.6,7.2C354.2,262,343.3,262.4,340,262.4    L340,262.4z M339.5,261.4c2.1,0,14.7-0.4,14.7-0.4c0-0.1,6.8-5.4,11.5-7.3c3.7-1.4,9.1-2.7,13-3.6l3-0.7c1.7-0.4,2.9-1.2,4.3-2    c1.1-0.7,2.4-1.5,4.2-2.2c-0.3-0.7-1-1.4-3.4-1.4c-1.2,0-2.5,0.2-3.9,0.3c-1.3,0.5-4.6,0.7-4.8,0.7c-0.4,0-0.5-0.2-0.5-0.5    c0-0.3,0.2-0.5,0.5-0.5c1-0.1,2.2-0.3,3.3-0.4l1.4-0.2c3.5-2,4.8-3.1,5.8-3.9c0.8-0.7,1.4-1.1,2.6-1.6c-1.5-0.9-7.3,0.4-12,1.6    c-0.7,0.3-1.4,0.5-2,0.5c-0.2,0.1-0.5-0.2-0.6-0.4c0-0.3,0.1-0.5,0.4-0.6l1.8-0.5c4-1.5,9-5.3,8.9-6.1c-0.1-0.1-0.5-0.2-1.1-0.2    c-2,0-5.6,1.2-8.5,2.2c-1.1,0.7-2.1,1-2.9,1c-0.2,0-0.5-0.2-0.5-0.4c0-0.2,0.1-0.5,0.3-0.6l2.7-1c2.3-1.4,5.1-3.9,6.6-5.8    c-1.2,0-3.1,0.5-5.4,1.2c-1.1,0.4-2.4,0.8-3.8,1.1c-0.2,0.1-0.5-0.1-0.6-0.3c-0.1-0.2,0-0.5,0.2-0.6c1.9-1.1,2.6-2.8,2.8-4    c0.3-1.6,0-2.8-0.1-3c0,1-4.1,5.9-6.3,8.1c-1.1,1.1-7.5,4.1-17,8.5c-6.5,3-13.2,6.1-14.1,6.9c-1.2,1.1-1.1,2.2-1.1,3.6    c0,0.7,0.1,1.5-0.1,2.3c-0.4,1.7-1.6,3.1-2.1,3.7C337.3,256.2,339,260,339.5,261.4L339.5,261.4z"/></g>
    <g><path class="st4" d="M343.7,253.6l-1,0c0-0.2,0.2-3.7,1.9-5c0.6-0.4,1.7-1,3.2-1.7c2.7-1.3,6.5-3.2,7.5-4.8    c0.4-0.6,0.7-1,1.1-0.7c0.4,0.3,0.3,0.5-0.1,1.4c-0.6,1.1-2.3,4.6-1.9,5.6l-1,0.3c-0.3-0.9,0.2-2.7,1.1-4.6    c-1.8,1.4-4.2,2.5-6.2,3.5c-0.4,0.2-0.8,0.4-1.1,0.5c1.4,0.7,3.1,2.3,2.5,4.6l-1-0.3c0.7-2.4-2.4-3.6-2.6-3.6l0-0.1    c-0.4,0.2-0.7,0.4-0.9,0.6C344.1,250.2,343.7,252.7,343.7,253.6L343.7,253.6z" id="XMLID_41_"/></g>
    <g><path class="st4" d="M347.8,253.6c-1.8,0-3.2-1.5-3.2-3.2c0-1.8,1.5-3.3,3.2-3.3c1.8,0,3.2,1.5,3.2,3.3    C351.1,252.2,349.6,253.6,347.8,253.6L347.8,253.6z M347.8,248c-1.3,0-2.4,1.1-2.4,2.4c0,1.3,1.1,2.3,2.4,2.3s2.4-1.1,2.4-2.3    C350.2,249.1,349.1,248,347.8,248L347.8,248z"/></g>
    <path class="st2"
          d="M465.4,244.4l29.3,5.6c0,0,3.2-3.7,1.5-5.8c4.4-1,3.2-6.8,3.2-6.8s5.1-2.2,0.8-7.3   c2.9-2.9-0.7-5.1-0.7-5.1s1.2-5.1-2.5-5.6c1-4.1-6.4-5.4-6.4-5.4s-15.4,4.2-26.3,4.6c3.6,3.6-1.4,5.8-1.4,5.8s2.9,2,2,3.7   c-0.8,1.7,0.5,3.6-3.2,4.7c4.9,2.2-0.5,5.9-0.5,5.9S466.8,242.5,465.4,244.4L465.4,244.4z"
          id="XMLID_38_"/>
    <g><path class="st4" d="M432.8,287.1c-4.9-5.1-3.1-13-3-13.4l1,0.2c0,0.1-1.7,7.8,2.8,12.4L432.8,287.1L432.8,287.1z M424.8,284.5    c-0.1-0.2-0.2-0.6,0.1-3.9l1.1-0.5l0,0.5c-0.2,2-0.2,3.1-0.2,3.4L424.8,284.5L424.8,284.5z M417.8,282.6c-3.9-3.5-1.3-8.6-0.8-9.4    c-1.6-3.1,1.6-7.4,1.8-7.6l0.2,0.2c-0.8-3.1,1.7-7.8,2.2-8.6c-0.5-0.7-1-1.5-1.6-2.3c-1-1.4-2-2.9-2.9-4c-1.9-2.2-9.4-3-10.5-3    l0-0.2c-0.5,1.1-1.8,1.6-2,1.7l-9.3,0.5l-0.1-1l9.2-0.5c0.2-0.1,1.2-0.7,1.4-1.4c0.1-0.4-0.2-0.8-0.7-1.3l0.7-0.8    c0.7,0.6,1,1.3,1,1.9c1.2,0.1,8.8,0.8,11.1,3.4c0.9,1.1,2,2.6,2.9,4.1c1.3,1.9,2.6,3.9,3.4,4.3c0.4,0.2,0.7,0.3,0.9,0.2l1.2,0    c0,0.1-0.2,0.6-0.8,0.9c-0.5,0.2-1.1,0.1-1.8-0.3c-0.4-0.2-0.9-0.7-1.4-1.4c-1.3,2.4-3.3,7.4-0.9,9l-0.6,0.9    c-0.5-0.3-0.9-0.8-1.1-1.2c-0.8,1.3-3,5.1-0.6,7l-0.7,0.8c-0.1-0.1-0.2-0.2-0.3-0.3c-0.7,1.3-2.1,5,0.9,7.7L417.8,282.6    L417.8,282.6z M438.4,279.9c-4.4-2.3-5.6-8.4-5.7-8.7l1-0.2c0,0.1,1.2,5.9,5.1,7.9L438.4,279.9L438.4,279.9z M414.4,277.8    l-2.5-1.7l0.6-0.8l2.5,1.7L414.4,277.8L414.4,277.8z M442.2,272.2c-0.1-0.9-2.3-2.9-3.9-4l0.6-0.8c0.7,0.5,4.1,3.1,4.3,4.8    L442.2,272.2L442.2,272.2z M414.7,269.6c-1.4,0-2.8-1.3-2.9-1.5l0.7-0.7c0.4,0.4,1.6,1.3,2.4,1.2l0.2,1    C414.9,269.6,414.8,269.6,414.7,269.6L414.7,269.6z M449.5,269.2c-3.8,0-8.4-3.1-8.6-3.2l0.6-0.9c0.1,0,5.5,3.6,8.9,3l0.2,1    C450.2,269.2,449.9,269.2,449.5,269.2L449.5,269.2z M447.1,263.4c-4.6,0-7.9-1.5-8.1-1.6l0.4-0.9c0.1,0,5.5,2.5,11.9,1l0.2,1    C450,263.2,448.5,263.4,447.1,263.4L447.1,263.4z M411.3,262.2c-0.3,0-0.5,0-0.7-0.2l0.5-0.9c0.9,0.4,4.1-1.6,4.7-2.1l0.7,0.7    C416.3,259.8,413.2,262.2,411.3,262.2L411.3,262.2z M444.5,257.6c-4.7,0-8.1-2.8-8.3-3l0.7-0.8c0,0,4.8,4,10.7,2.3l0.3,1    C446.7,257.4,445.6,257.6,444.5,257.6L444.5,257.6z M495.1,250.3l-30.6-5.6l0.5-0.7c0.1-0.1,0.2-0.3,0.1-0.5    c-0.2-1.3-2.7-3.3-3.8-4.2l-0.1,0.1c-0.6-0.5-7.4-2.1-13.6-3.4l0.2-1c2.7,0.6,10.7,2.3,13.3,3.3c0.7-0.5,2.5-2,2.3-3.3    c-0.1-0.7-0.6-1.3-1.7-1.7l0,0.2c0,0-8.9-0.3-9.1-0.3l0-1c0.1,0,7,0.3,8.8,0.3l0.4-0.1c2-0.6,2.3-1.4,2.4-2.3    c-1.4-2.2-11-2.4-17.2-2l-0.1-1c1.5-0.1,13.8-0.8,17.4,1.7c0.1-0.3,0.2-0.6,0.3-0.9c0.5-1-1-2.5-1.8-3l-0.2,0.2    c-0.9-0.7-12.3-1.5-22.5-1.8l0-1c5.9,0.2,19,0.8,22.4,1.8l0.2-0.1c0,0,2-0.9,2.3-2.4c0.1-0.8-0.2-1.6-1.1-2.5l-0.8-0.8l1.2,0    c10.7-0.3,26-4.5,26.2-4.5c0.4,0,5,0.9,6.6,3.4c0.4,0.7,0.6,1.4,0.5,2.2c0.8,0.2,1.4,0.6,1.9,1.3c1,1.4,0.8,3.5,0.7,4.4    c0,0,0,0,0,0l0,0c0,0.1,0,0.2,0,0.3c0.2-0.1,1.6,0.9,1.8,2.5c0.1,0.9-0.2,1.8-1,2.6c1.3,1.7,1.8,3.2,1.4,4.6    c-0.4,1.6-1.7,2.5-2.4,2.9c0.3,2.1,0,5.7-3,6.8C498.1,246.9,495.3,250.2,495.1,250.3L495.1,250.3z M466.1,244l28.7,5.5    c0.3-0.8,2.2-3.5,1-4.9l-0.4-0.5c-1.3-1.2-4.8-2.3-5.8-2.3c-1.2,0-26.1-2.9-27.2-3.1l0-0.1c-0.1,0.1-0.2,0.2-0.3,0.2    c1.2,0.9,3.6,2.9,3.9,4.6C466.1,243.6,466.1,243.8,466.1,244L466.1,244z M463.3,237.7c7.7,0.9,25.4,3,26.3,3c1.2,0,5.5,1.3,6.8,3    c2.9-0.9,2.7-4.5,2.6-5.7l-35.2-0.8l0-0.2C463.7,237.2,463.5,237.4,463.3,237.7L463.3,237.7z M466,236.1l33.4,0.8    c0.4-0.2,1.7-1,2-2.4c0.2-1-0.1-2.2-1-3.5C495.7,234,473.2,235.7,466,236.1L466,236.1z M463.1,232.9c0.8,0.6,1.3,1.3,1.4,2    c0,0.1,0,0.1,0,0.2c12.4-0.8,31.8-2.7,35.3-4.9l-0.1-0.2l0.3-0.3c0.7-0.7,1.1-1.4,1-2.1c-0.1-1.3-1.5-2.1-1.5-2.1c0,0,0-0.1,0-0.1    c-1.5,0-21,2-34,3.4c-0.1,0.3-0.1,0.6-0.2,1C465.1,230.8,465,232,463.1,232.9L463.1,232.9z M464,224.6c0.8,0.7,1.8,1.9,1.7,3.1    c24.6-2.7,31.6-3.1,33.6-3.1c0-1,0.1-2.6-0.6-3.6c-0.4-0.5-0.9-0.9-1.7-1l-0.6-0.1l0,0C492.8,220.2,475.6,222.7,464,224.6    L464,224.6z M465.5,219.1c0.6,0.9,0.8,1.7,0.7,2.6c-0.1,0.6-0.4,1.2-0.8,1.6c21.4-3.4,28.8-4.2,31.3-4.2c0.1-0.6,0-1.1-0.4-1.6    c-1.4-2.1-5.7-2.9-5.7-2.9C490.6,214.6,476.2,218.5,465.5,219.1L465.5,219.1z M445.2,245.6l-0.3-1c2.7-0.7,4.2-0.9,4.7-0.4    l-0.7,0.7C448.6,244.8,446.7,245.1,445.2,245.6L445.2,245.6z M427,243.3c-3.2,0-4.9-1.3-5-1.4l0.3-0.3c-3.8,0.9-6.7-0.6-6.8-0.6    l0.1-0.1c-1.6,0.7-3.2,1-4.7,0.9c-4.8-0.4-7.6-4.5-7.7-4.6l0.1-0.1c-2,0-3.8-0.4-5.6-1.1c-2.2-0.9-3.7-2.3-4.1-3.7    c-0.3-1.5,0.5-2,1.1-2.4c0.7-0.5,1.2-0.8,0.9-2.2c-0.5-3.7-8-4.9-11.6-5.5c-1.1-0.2-1.7-0.3-2-0.4c-0.9-0.3-2.5-2.3-3.7-3.8    c0.3,1.4,0.5,2.8,0.3,4l-1-0.1c1-7.5-9.3-18.8-9.4-18.9l0.8-0.7c0.3,0.4,6.2,6.9,8.6,13.4l0.2-0.2c1.3,1.9,3.6,4.9,4.5,5.2    c0.2,0.1,0.9,0.2,1.8,0.3c3.9,0.6,11.9,1.9,12.5,6.4c0.4,2-0.6,2.7-1.3,3.2c-0.6,0.4-0.9,0.6-0.7,1.3c0.3,1,1.7,2.2,3.5,3    c3.9,1.7,8.9,1.3,13.2-1l0.5,0.9c-2.4,1.3-4.9,2-7.4,2.1c0.9,1.1,3.2,3.4,6.6,3.7c3.2,0.3,6.5-1.5,9.9-5.1l0.8,0.7    c-1.6,1.8-3.3,3.1-5,4c2,0.7,8.7,2.3,14.5-7.4l0.9,0.5c-2.9,4.8-6.1,7-8.9,7.9c1.2,0.7,5.2,2.2,12.1-1.5l0.5,0.9    C432,242.7,429.1,243.3,427,243.3L427,243.3z M434.8,221.9l-0.8-0.6c1.5-2.2,3.6-2.9,5.3-3.5c1.2-0.4,2.2-0.8,2.7-1.5    c0.9-0.9,1.2-1.6,1.1-2.1c-0.1-0.4-0.5-0.7-0.8-0.9l0,0c-0.2-0.1-0.3-0.1-0.3-0.1l0.1-0.2l-0.1-0.1l-0.1,0.5    c-1-0.3-1.9,0.3-2.4,0.8l0.1,0.6c-0.3,1.6-3,3.7-7.8,6.2l-0.5-0.9c5.6-2.9,6.9-4.6,7.2-5.3l0,0c-0.1,0-1.9-0.7-3.6,0.8l-0.3,0.3    l0.1,0.1c-0.2,0.1-4.5,3.4-8.3,5.1l-0.4-0.9c3.5-1.5,7.6-4.6,8-4.9c-0.7-0.9-1.9-0.9-2.3-0.9l-0.1,0c-2.2,1.8-7.9,6.2-9.7,5.9    l0.2-1c0.9,0.2,5.4-2.9,9.1-5.8c0-0.4-0.1-1-0.4-1.3c-0.3-0.3-0.9-0.4-1.7-0.2l-0.1,0c-1,0.7-3.7,2.3-10.7,6.4l-0.5-0.9    c3.8-2.2,9.3-5.4,10.7-6.3c0.2-1.6-0.1-2.8-0.7-3.3c-1-0.8-2.7-0.1-2.7-0.1l0.1,0.1l-12.7,7.8l-0.5-0.9l12.4-7.7    c0.1-0.4,0.2-1.6-0.4-2.1c-0.5-0.5-1.6-0.3-2.3,0l-0.1,0c-1.3,0.9-5.1,3.1-16.4,9.4l-0.5-0.9c5.9-3.2,14.6-8.1,16.4-9.3    c0.1-1-0.1-1.8-0.6-2.3c-0.6-0.7-1.7-0.8-2-0.8c0,0,0,0,0,0c-3.6,2.7-17.6,9.8-18.2,10.1l-0.5-0.9c0.1-0.1,14.6-7.3,17.9-9.8    c0.4-1.1,0.4-2.1-0.2-2.8c-0.9-1.1-3.1-1.2-3.8-1.1c-0.2,0.7-0.6,1.3-1,2c-3.6,1-12.1,6.3-15.8,8.6c-1.7,1.1-1.7,1.1-1.9,1.1    l-0.2-1c0.1-0.1,0.7-0.4,1.6-1c3.7-2.3,12.4-7.6,15.8-8.5c0.8-1.3,1.1-2.9,0.4-4c-0.5-0.9-1.6-1.2-3.1-0.9l-0.1-0.3    c-1,1.6-2.5,2.9-3.6,3.3c-2.4,0.9-18.1,9-18.3,9.1l-0.5-0.9c0.6-0.3,15.9-8.2,18.4-9.1c1.4-0.5,4.1-3.5,3.8-5.3    c-0.2-1.4-2.3-1.7-4-1.7v-0.2c-6.3,2.7-19.5,9.5-22.7,11.5c-3.8,2.5-8.3,0.1-8.5,0l0.5-0.9c0,0,4.2,2.2,7.5,0    c3.7-2.4,20.9-11.1,25.3-12.5c4.2-1.3,6.6-9.4,7.5-12.8l1,0.3c-0.6,2.5-1.7,5.9-3.3,8.8l24.2-7.1c-0.1,0,3.7-3.3,3.9-9.1l1,0    c-0.1,2.5-0.8,4.6-1.6,6.2c4.2-0.5,23.7-3.4,23.7-11.2h1c0,2.2-1.3,4-3.3,5.5c8-2.2,25.3-7.3,27.1-9.3l0.8,0.7    c-2.4,2.6-24.7,8.8-28.6,9.9c1.2,1.2,1.7,2.3,1.6,3.5l25.4-7.1l0.3,1l-26.1,7.3c0,0.1-0.1,0.1-0.1,0.2c0.5,0.2,1.4,0.6,1.9,1.7    c0.3,0.7,0.3,1.5,0.1,2.4l21.9-6.7l0.3,1l-22.7,6.9c0,0.1-0.1,0.2-0.1,0.3c0.6,0.3,1.7,1.1,1.8,2.3c0,0.3,0,0.6-0.1,0.9l18.8-5.7    l0.3,1l-19.9,6c-0.1,0.1-0.1,0.1-0.2,0.2c0.4,0.1,2,0.8,2.3,2.1c0,0.2,0.1,0.3,0.1,0.5c5.5-1.7,13.3-4.1,13.8-4.1l0,1    c-0.6,0.1-8.5,2.5-14.1,4.2c-0.2,0.5-0.5,0.9-1,1.4l0.4-0.2c0.8,0.3,2,0.7,2.2,1.6l9-3.6l0.4,0.9l-9.3,3.7l-0.1-0.2    c-0.2,0.7-0.9,1.5-2.1,2.5c-4.4,2-14.1,5.8-16.3,6.7l-0.9,1.4c0.4,0.1,1,0.4,1.3,0.9c0.2,0.3,0.3,0.7,0.2,1.1    c0.7-0.3,9.4-3.6,13.4-5.8c1.3-0.8,2.1-1.8,2.3-2.6c0.1-0.7-0.3-1.2-0.3-1.2l0.8-0.7c0,0,0.5,0.6,0.5,1.5c7.4-3.3,7.7-3.3,7.8-3.3    l0.1,1c-0.5,0.1-5.1,2.1-7.9,3.3l-0.1-0.2c-0.3,1-1,1.9-2.3,2.8c0.3,0.3,0.6,0.7,0.6,1.3c0,0.8-0.5,1.5-1.5,2.3    c-0.6,0.3-1.7,0.9-2.9,1.5c0.4,0.3,0.8,0.9,0.6,1.7l-1-0.2c0.1-0.6-0.3-0.8-0.4-0.9l0.1-0.4c-3.7,1.9-8.7,4.6-10.2,5.3    c0,0,0,0,0,0.1l0,0c-0.2,0.1-0.3,0.2-0.3,0.2l-6.3,4.2c0.4,0.3,0.7,0.7,0.8,1.3c0.2,0.9-0.2,1.9-1.3,3c-0.6,0.9-1.9,1.3-3.1,1.8    C438,219.4,436.1,220,434.8,221.9L434.8,221.9z M433.1,213.4c0.5,0.1,1,0.3,1.4,0.6c0.1,0.1,0.2,0.2,0.3,0.3c1.5-1,3-0.8,3.7-0.6    c0.5-0.6,1.8-1.7,3.5-1.4l7.1-4.7c0,0,0,0,0,0c0-0.7-0.2-1-0.6-1.3l0,0.1C447.8,206.6,436.9,210.6,433.1,213.4L433.1,213.4z     M429.9,210.7c0.7,0,1.2,0.2,1.6,0.6c0.5,0.4,0.6,1,0.7,1.5c3.3-2.6,13.4-6.6,15.8-7.2l0-0.1c1.4-2.1,1.3-3,1.1-3.3    c-0.3-0.5-1.2-0.5-1.2-0.5l-0.6,0l-17.7,7.7c0,0.4,0,0.8,0,1.3C429.7,210.7,429.8,210.7,429.9,210.7L429.9,210.7z M426.5,206.2    c0.6,0,1.4,0.1,2,0.6c0.5,0.4,0.8,0.9,1,1.5l18.3-7.8l0.8-1.7c0,0,0,0,0.1,0c-0.2-0.4-0.8-1.5-3.1-2.1l-0.1,0    c-0.6,0.6-1.7,1.4-3.1,1.8c-2.1,0.6-14.9,5.9-16.8,6.7c0.1,0.4,0.2,0.9,0.2,1.2C425.8,206.3,426.1,206.2,426.5,206.2L426.5,206.2z     M449.2,205.6c0.6,0.4,0.9,0.9,1,1.4c0,0,0,0.1,0,0.1c2.9-1.5,10.7-5.6,13-6.7c0.6-0.5,1-0.9,1-1.4c0-0.5-0.5-0.8-0.5-0.8l0.1-0.1    c-4.5,2.3-13,5.6-13.1,5.7l-0.3-0.9C450.2,203.7,449.8,204.6,449.2,205.6L449.2,205.6z M423.1,203.5c0.7,0,1.2,0.2,1.6,0.6    c0,0,0.1,0.1,0.1,0.1c1.5-0.6,14.8-6.1,17.1-6.7c1.6-0.5,2.8-1.5,3.2-2c-0.1-1.9-2.1-3.4-2.8-3.8c0,0.4-0.3,1.2-0.9,1.6    c-0.7,0.5-14.8,5.3-20.9,7.3c0.2,0.1,0.5,0.3,0.7,0.6c0.6,0.6,0.9,1.5,0.9,2.6C422.5,203.6,422.8,203.5,423.1,203.5L423.1,203.5z     M418.8,199.9C418.8,199.9,418.9,200,418.8,199.9L418.8,199.9c8.5-2.8,21.3-7.1,22-7.6c0.4-0.3,0.6-1.1,0.7-1.6    c0,0,0.2-0.1,0.4-0.2c0-0.6-0.2-1.9-2-3.2l-0.3-0.2c-0.4,0.5-1.1,1.1-2.2,1.7c-1.7,0.9-17,5.3-22.1,6.7c0.9,0.2,2,0.5,2.7,1.2    C418.7,197.3,419.3,198.3,418.8,199.9L418.8,199.9z M446.3,195.8c2.1,0.7,2.9,1.7,3.2,2.5c3-1.2,11.8-4.8,15.8-6.6    c1.6-1.3,1.7-1.9,1.7-2.1c-0.1-0.5-1-0.8-1.6-1l-0.6-0.2l0.1-0.1c0,0,0,0,0,0C460.7,190.9,448.6,195,446.3,195.8L446.3,195.8z     M443.3,191c0.9,0.7,2.5,2,2.8,3.9c3-1.1,14.3-5,18.1-7.3c0.5-0.5,0.9-1,1.1-1.5l-0.1-0.3c0.1,0,0.2-0.1,0.2-0.1    c0-0.2,0-0.4,0-0.6c-0.2-1-1.7-1.4-1.7-1.4l0.2-0.8c-0.2,0.2-0.5,0.5-0.9,0.7C459.2,185.9,447,189.8,443.3,191L443.3,191z     M410.4,191.6c1.3,0,2.4,0.5,3,1.5c0.3,0.5,0.5,1.1,0.5,1.7c7.5-2.1,21.5-6.2,23-7c1.8-1,2.5-2.1,2.5-2.1c0,0,0.2-0.1,0.5-0.2    c0-1.6-1.3-3-1.8-3.6l-0.3-0.4l-27.7,9.4c-0.1,0.2-0.2,0.5-0.3,0.7C410.1,191.6,410.2,191.6,410.4,191.6L410.4,191.6z     M440.8,186.7c1.6,1.3,2,2.6,2.1,3.5c4.1-1.5,15.9-5.3,19.7-7.5c0.7-0.6,1.7-1.4,1.6-2.3c-0.1-0.8-1.1-1.4-1.4-1.6    c-6.6,2.6-18.5,6.3-21.8,7.4C440.9,186.4,440.9,186.5,440.8,186.7L440.8,186.7z M407.1,186.9c2.4,0.4,3.1,1.5,3.2,2.4    c0,0.2,0,0.3,0,0.5l27.2-9.1c0-0.4,0.8-2.5,0.2-3.7c-0.2-0.4-0.6-0.7-1.2-0.9l0.1-0.3l-24.6,7.2l-0.1-0.3    c-1.2,1.8-2.6,3.3-4.3,3.9C407.5,186.7,407.3,186.8,407.1,186.9L407.1,186.9z M438.7,181.1c0.7,0.7,2,2.3,2.2,4.1    c4.1-1.3,15.3-4.9,21.4-7.2c0.7-1.3,1-2.6,0.6-3.5c-0.4-0.9-1.4-1.2-1.4-1.2l0.1-0.3c-4.3,2.5-21.9,6.7-22.7,6.9l-0.1-0.3    c-0.2,0.9-0.5,1.6-0.6,1.8h0.6h-0.5L438.7,181.1L438.7,181.1z M437.5,175.4c0.5,0.3,0.9,0.6,1.2,1.2c0.3,0.7,0.4,1.5,0.3,2.3    c2.4-0.6,18.5-4.5,22-6.6c1.2-1.9,0-3.3-1.2-4.3l-0.3-0.3c-7.1,3.9-18.8,5.2-20,5.4C438.7,174.2,438,175,437.5,175.4L437.5,175.4z     M465.6,199.1l-0.4-0.9l7.1-3.4l0.4,0.9L465.6,199.1L465.6,199.1z"/></g></g></svg>
