<?xml version="1.0" ?>
<svg id="Layer_1" style="enable-background:new 0 0 512 512;" version="1.1" viewBox="0 0 512 512" xml:space="preserve"
     xmlns="http://www.w3.org/2000/svg"><style type="text/css">
	.st0 {
    fill: #E91D26;
  }

  .st1 {
    fill: #FFFFFF;
  }

  .st2 {
    fill: #469F46;
  }

  .st3 {
    fill: #4AA647;
  }

  .st4 {
    fill: #4AA146;
  }

  .st5 {
    fill: #010101;
  }
</style>
  <g><rect class="st0" height="99.6" width="512" y="305.8"/>
    <rect class="st1" height="99.6" width="512" y="206.2"/>
    <rect class="st2" height="99.6" width="512" y="106.7"/>
    <path class="st1"
          d="M147,130.4c-0.5,6.9-1.1,19.1,4.7,20.4c7.1,0.7,3.2-12,5.8-14.4c0.5-1.1,1.4-1.1,1.5,0.3v10.8   c-0.1,3.5,2.2,4.5,4,5.3c1.9-0.1,3.1-0.1,3.8,1.7c0.3,6.2,0.6,12.4,0.9,18.7c0,0,4.3,1.2,4.5-10.5c0.2-6.9-1.4-12.7-0.5-14   c0-1.3,1.7-1.4,2.9-0.8c1.9,1.3,2.7,2.9,5.6,2.3c4.4-1.2,7-3.3,7.1-6.7c-0.3-3.2-0.6-6.4-2-9.6c0.2-0.6-0.8-2.1-0.6-2.7   c0.8,1.2,2,1.1,2.3,0c-0.7-2.5-1.9-4.8-3.8-5.9c-1.6-1.4-3.8-1.1-4.7,1.8c-0.4,3.3,1.2,7.2,3.6,10.4c0.5,1.3,1.2,3.3,0.9,5.2   c-1.3,0.7-2.5,0.4-3.6-0.7c0,0-3.5-2.6-3.5-3.2c0.9-6,0.2-6.6-0.3-8.3c-0.4-2.3-1.4-3-2.3-4.6c-0.9-0.9-2.1-0.9-2.6,0   c-1.6,2.7-0.8,8.4,0.3,11c0.8,2.4,2,3.9,1.5,3.9c-0.5,1.3-1.5,1-2.2-0.5c-1-3.2-1.2-8-1.2-10.1c-0.3-2.7-0.6-8.4-2.4-9.8   c-1.1-1.5-2.6-0.7-3.2,0.6c-0.1,2.6-0.1,5.3,0.2,7.7c1.2,4.3,1.6,8,2.2,12.4c0.2,5.9-3.4,2.5-3.2-0.4c0.8-3.8,0.6-9.7-0.1-11.2   c-0.6-1.5-1.3-1.9-2.7-1.6c-1.1-0.1-4,3.1-4.8,8.3c0,0-0.7,2.7-1,5c-0.4,2.7-2.2,4.6-3.4-0.4C149.4,137.2,148.7,128.3,147,130.4"/>
    <path class="st1"
          d="M166.3,158.8c-6.3,3.1-12.3,5.9-18.5,8.9c0.2-4.2,8.8-11.8,14.7-11.9C166.2,155.9,165.3,157.3,166.3,158.8"/>
    <path class="st1"
          d="M163.1,164.6c-9.8,25.2,22.9,28.7,26.5,1c0.3-1.1,1.7-2.3,2-0.4c-0.8,25-25.2,26.8-29.4,18.9   c-1-1.9-1.3-6-1.4-8.5c-0.6-4.9-3.2-3-3.6,1.9c-0.4,2.7-0.3,3.5-0.3,6.1c1.3,19.8,32.8,11.3,38-5c2.7-9-0.4-15.7,1-15.7   c3.1,3.4,7.5,0.4,8.5-0.7c0.4-0.6,1.5-1,2.2-0.2c2.4,1.7,6.7,0.9,7.6-2.2c0.5-3,0.9-6.2,1-9.4c-2,0.6-3.5,1-3.6,1.9   c-0.1,0.9-0.3,1.8-0.4,2.7c-0.2,0.9-1.9,0.9-2-0.2c-0.8-3.4-3.9-3.9-5.8,1.4c-1.3,1-3.6,1.2-3.8-0.3c0.3-3.6-1.1-4.1-4-2.4   c-0.9-7.1-1.9-13.9-2.8-20.9c1.2,0,2.3,0.9,3.4-0.5c-1.2-3.7-3.8-11.4-5.2-12c-0.7-0.8-1.3-0.3-2.2-0.1c-1.5,0.5-2.9,1.8-2.5,4.3   c1.8,10.9,3,19.2,4.7,30c0.3,1.3-0.8,3-2.2,2.8c-2.3-1.6-2.9-4.8-6.9-4.6c-2.9,0-6.2,3.2-6.6,6.2c-0.5,2.4-0.6,5,0,7.1   c2,2.4,4.5,2.2,6.6,1.6c1.8-0.7,3.2-2.5,3.8-2.1c0.4,0.5,0.1,6.3-8.3,10.7c-5,2.3-9.1,2.8-11.2-1.3   C164.9,172.2,166.4,162.4,163.1,164.6"/>
    <path class="st1"
          d="M204.5,139c2-0.7,11.2-11.4,11.2-11.4c-0.5-0.4-0.9-0.7-1.4-1.1c-0.5-0.5-0.5-0.9,0-1.3   c2.3-1.3,1.6-4.3,0.4-5.6c-2-0.9-3.7-0.6-5,0.1c-1.6,1.5-2,4-0.7,5.6c1.2,0.6,2.5,1.8,1.6,2.5c-3.8,4.1-14.2,11.1-13,11.3   C197.9,139.4,204.3,139.4,204.5,139"/>
    <path class="st1"
          d="M148.4,176.6c-3.5,5.5-3.8,13.8-1.9,16.3c1,1.2,2.7,1.7,3.9,1.3c2.2-0.9,3.1-5.4,2.6-7c-0.7-1.1-1.3-1.3-2-0.3   c-1.5,3.1-2.2,1-2.3-0.8c-0.2-3.3,0.1-6.4,0.4-8.8C149.6,174.9,149.2,175.6,148.4,176.6"/>
    <path class="st1"
          d="M297.2,167.8c-3.4-7.3-8-14.4-9.5-17.2c-1.5-2.8-12.7-19-14.3-20.8c-3.6-4.3,5.9,1.8-1.2-6.8   c-2.7-2.3-2.9-2.5-5.1-4.4c-1.1-0.8-3.9-2.3-4.4,0.2c-0.3,2.2-0.1,3.3,0.2,5.1c0.3,1.2,2,3.2,2.9,4.4   c11.4,15.3,21.4,30.7,31.1,50.1C298.4,177.6,298.1,169,297.2,167.8"/>
    <path class="st1"
          d="M282.4,192c-0.7,0.7,1.6,3.9,4.6,3.9c5-0.6,9.4-3.4,13.5-10.8c1.1-1.7,3-5.4,3.1-8.3   c0.4-16.7-0.8-29.8-3.4-41.9c-0.2-1.2-0.1-2.6,0.1-2.9c0.3-0.4,1.4,0,2-0.9c0.9-0.9-2.3-8.1-4-10.9c-0.6-1.2-0.9-2.1-1.9,0.1   c-1.1,1.8-1.8,4.9-1.7,7.9c2.4,16.5,3.1,30.9,4.7,47.4c0.1,1.6-0.1,3.9-1.2,4.8C294.2,184.6,288.6,189.7,282.4,192"/>
    <path class="st1"
          d="M349.8,191.9c-3.6,2.1-3.6,4.4-0.7,4.5c5-0.6,10.9-1,15-7.1c1.1-1.7,2.4-6.4,2.4-9.2   c0.4-16.7-0.2-29.2-2.7-41.3c-0.2-1.2-0.7-3.9-0.5-4.2c0.3-0.8,1.9,0.1,2.5-0.9c0.9-0.9-4.2-7.4-6-10.2c-0.6-1.2-0.8-2.1-1.9,0.1   c-1.1,1.8-1.5,5-1,7.9c2.6,17.9,4.6,31.4,5,47.2c-0.2,1.5-0.3,2.3-1,4.2c-1.6,2-3.3,4.5-4.9,5.7C354.4,189.9,351,191,349.8,191.9"/>
    <path class="st1"
          d="M352.5,175.9c0-4.2,0.1-7.8-0.1-10.9c-0.1-3.1-0.7-5.7-1.8-7.9c-1-2.4-0.4-4.3-0.9-6.8   c-0.5-2.5-0.4-6.3-1.1-9.3c-0.2-1.2-0.8-4.9-0.6-5.3c0.3-0.8,1.4,0,2-0.9c0.8-0.9-2.9-10.4-4.7-13.1c-0.7-1.2-1.9-0.8-3.4,1.2   c-1.4,1.3-0.9,4.3-0.3,7.1c3.6,18.7,6.3,35.6,5.7,53.4C347.1,184.7,352.6,178.7,352.5,175.9"/>
    <path class="st1"
          d="M326.1,152.7c-2.3,0-7-4.4-8.4-6.9c-0.5-1.5-0.2-2.9,0.3-3.7c0.8-0.5,2.1-1.2,3.1-0.6c0,0,1,1.4,0.8,1.6   c1.2,0.6,1.7,0.3,1.9-0.2c0.1-0.9-0.4-1.4-0.4-2.4c0.5-2.6,3.5-3,4.6-1.4c0.8,1,1.1,3.2,1.3,4.6c0,0.7-1.2-0.1-1.9,0   c-0.7,0.2-0.8,1-0.9,1.7C326.3,147.3,326.1,150.4,326.1,152.7"/>
    <path class="st1"
          d="M284.5,180.5c0.6-5.7-0.2-15.8-0.3-19.2c-0.2-7.9-1.5-23.3-2.1-25.8c-0.7-4.8,2,0.5,1.6-2.3   c-0.9-4.8-3.5-8.1-6.7-12.5c-1-1.4-1-1.7-2.5,0.4c-1.7,3.9-0.2,6.6,0.2,9.7c2.3,10,3.6,19.1,4.2,28.2c0.6,9.1,0.8,18.9,0.2,28.4   C280.8,187.4,283.5,184.6,284.5,180.5"/>
    <path class="st1"
          d="M360.2,171.4c-4-6.7-10-13.9-11.6-16.6c-1.6-2.7-15.1-20.2-16.9-21.9c-5-5.2,2.3-0.8-0.9-4.9   c-2.7-3-3.5-3.9-5.8-5.7c-1.2-0.8-1.9-2.2-2.3,0.3c-0.2,2.2-0.3,4.7-0.2,6.5c0,1,1,2.9,1.9,4c12,14.8,25.1,29.8,35.7,48.8   C361.6,181.1,361.1,172.6,360.2,171.4"/>
    <path class="st3"
          d="M180,159.1c-0.3,0.5-0.9,1.2-0.7,1.8c0.4,0.6,0.8,0.7,1.5,0.8c0.6,0,1.6,0.2,1.7-0.2c0.3-0.4,0.6-1.2,0.3-1.9   C182.2,157.9,180.3,158.5,180,159.1"/>
    <path class="st1"
          d="M218.2,124.7c-3.6,10.3,2.1,21.6,6,20.5c2.8,1.2,4.7-4.2,5.8-10.2c0.8-1.7,1.4-1.8,1.8-1   c-0.1,7.9,0.6,9.6,2.6,12c4.5,3.5,8.3,0.4,8.6,0.2c0.3-0.3,3.5-3.5,3.5-3.5c0.8-0.8,1.8-0.9,2.9-0.1c1.1,1,0.9,2.7,3.2,3.8   c1.9,0.8,6.1,0.2,7-1.5c1.3-2.2,1.6-3,2.2-3.8c0.9-1.2,2.5-0.7,2.5-0.3c-0.2,0.7-1.1,1.4-0.4,2.6c1.1,0.8,1.3,0.3,2,0.1   c2.3-1.1,4-6.1,4-6.1c0.1-1.9-0.9-1.7-1.6-1.3c-0.9,0.5-0.9,0.7-1.8,1.3c-1.1,0.2-3.3,0.9-4.4-0.8c-1.1-2-1.1-4.8-1.9-6.8   c0-0.2-1.5-3.2-0.1-3.4c0.7,0.1,2.2,0.5,2.4-0.7c0.7-1.2-1.5-4.6-3.1-6.3c-1.3-1.5-3.2-1.7-5-0.2c-1.3,1.2-1.1,2.5-1.3,3.7   c-0.3,1.4-0.3,3.1,1.2,5c1.3,2.5,3.5,5.7,2.8,10.1c0,0-1.3,2.1-3.7,1.8c-1-0.2-2.5-0.6-3.4-6.8c-0.6-4.7,0.1-11.3-1.9-14.4   c-0.7-1.9-1.2-3.7-3-0.5c-0.5,1.3-2.5,3.1-1,7c1.2,2.5,1.7,6.5,1.2,11c-0.8,1.3-1,1.7-2.1,3c-1.5,1.6-3.2,1.2-4.5,0.6   c-1.2-0.8-2.1-1.2-2.7-3.8c0.1-4.1,0.3-10.7-0.4-12.1c-1.1-2.2-2.9-1.4-3.7-0.7c-3.7,3.4-5.5,9.1-6.6,13.6c-1,3.3-2.1,2.4-2.9,1   C220.6,136.2,220.5,122.4,218.2,124.7"/>
    <path class="st1"
          d="M229.1,147.2c1.6-1.2,0.9-2,3.3,0.5c3.1,5.3,5,12.1,5.3,18.1c-0.1,1.5,0.9,2.4,1.4,2.1   c0.3-3.5,8.8-8.4,16.6-9.1c1.2-0.3,0.6-2.5,0.8-3.7c-0.5-4.3,2.4-8.2,6.5-8.6c5.5,0.8,7.4,3.8,7.5,8.3c-0.6,8.6-9.6,10.1-14.7,10.8   c-0.8,0.3-1.1,0.6,0,1.1l21.2,0.1l1.1,0.6c0.1,0.5-0.3,0.1-1.1,1.5c-0.8,1.4-2.1,4.6-2.1,6.7c-6.3,2-12.8,2.9-19.5,3.7   c-2.3,1.2-3.4,2.7-3,4.5c0.8,1.9,5.9,3.9,5.9,4c1,0.6,2.1,2-0.3,4.9c-10.3-0.5-18.3-4.9-21.1-11.1c-0.8-0.6-1.7,0-2.3,0.8   c-4,5.2-8,9.9-14.9,12.4c-4.1,1-8.3-0.6-10.3-3.3c-1.3-1.5-1.3-3.2-1.8-3.6c-2.2,1-21.3,9.1-18.9,5.3c4.6-5,12.7-8.6,19.8-13.5   c0.5-1.6,1.4-7.2,4.2-9c0.2,0-0.4,3.3-0.4,4.6c0,1.1-0.1,1.6,0.2,1.3c0.5-0.3,9.1-7.1,9.7-9.1c0.8-1.2,0.3-4.2,0.3-4.3   c-1.6-4.2-3.9-4.5-4.7-6.6c-0.8-2.8-0.4-5.9,1.2-6.8c1.4-1.3,3-1.1,4.6,0.3c1.7,1.6,3.3,4.6,3.7,6.9c-0.3,0.9-2.3-0.6-3-0.2   c1.2,1.3,1.8,2.7,2.2,4.5c1.1,4.7,0.8,6.6-0.3,9.7c-3.8,8-8.7,10.4-13,13.4c-0.1,0-0.2,2,1.4,3.1c0.6,0.6,2.8,0.9,5.4,0   c5.1-2.8,10.3-7.9,12.9-13.5c0.8-4.3-0.3-8.8-1.4-12.8c-1.7-3.9-3.7-9.4-3.7-9.5C227.8,149.2,228,148.4,229.1,147.2"/>
    <path class="st1"
          d="M173.6,124.8c2.4,1.2,7,0.7,6.8-3.3c0-0.3-0.1-1.5-0.1-1.8c-0.5-1.2-1.9-0.9-2.2,0.3c-0.1,0.4,0.2,1-0.2,1.2   c-0.2,0.2-1,0.1-0.9-1c0-0.3-0.3-0.7-0.4-0.9c-0.2-0.1-0.3-0.1-0.5-0.1c-0.3,0-0.3,0.1-0.5,0.4c-0.1,0.3-0.2,0.6-0.2,0.9   c0,0.4-0.2,0.5-0.5,0.6c-0.3,0-0.3,0-0.5-0.1c-0.2-0.2-0.3-0.2-0.3-0.5c0-0.3-0.1-0.8-0.2-1c-0.1-0.2-0.3-0.3-0.6-0.3   c-1.3,0-1.4,1.5-1.4,2.1C171.9,121.3,171.8,124.1,173.6,124.8"/>
    <path class="st1"
          d="M245.1,155.1c2.4,1.2,8.2,0.5,6.8-3.3c0-0.3-0.1-1.5-0.1-1.8c-0.5-1.2-1.9-0.9-2.2,0.3c-0.1,0.4,0.2,1-0.2,1.2   c-0.2,0.2-1,0.1-0.9-1c0-0.3-0.3-0.7-0.4-0.9c-0.2-0.1-0.3-0.1-0.5-0.1c-0.3,0-0.3,0.1-0.5,0.4c-0.1,0.3-0.2,0.6-0.2,0.9   c0,0.4-0.2,0.5-0.5,0.6c-0.3,0-0.3,0-0.5-0.1c-0.2-0.2-0.3-0.2-0.3-0.5c0-0.3-0.1-0.8-0.2-1c-0.1-0.2-0.3-0.3-0.6-0.3   c-1.3,0-1.4,1.5-1.3,2.1C243.3,151.6,243.3,154.3,245.1,155.1"/>
    <path class="st1"
          d="M286.8,142.6c2.4,1.2,7,0.7,6.8-3.3c0-0.3-0.1-1.5-0.1-1.8c-0.5-1.2-1.9-0.9-2.2,0.3c-0.1,0.4,0.2,1-0.2,1.2   c-0.2,0.2-1,0.1-0.9-1c0-0.3-0.3-0.7-0.4-0.9c-0.2-0.1-0.3-0.1-0.5-0.1c-0.3,0-0.3,0.1-0.5,0.4c-0.1,0.3-0.2,0.6-0.2,0.9   c0,0.4-0.2,0.5-0.5,0.6c-0.3,0-0.3,0-0.5-0.1c-0.2-0.2-0.3-0.2-0.3-0.5c0-0.3-0.1-0.8-0.2-1c-0.1-0.2-0.3-0.3-0.6-0.3   c-1.3,0-1.4,1.5-1.4,2.1C285,139.1,284.9,141.8,286.8,142.6"/>
    <path class="st1"
          d="M308.3,174c-4.3,4.8-2.4,12.7-1.4,14.4c1.4,2.8,2.5,4.6,5.3,6c2.5,1.8,4.4,0.7,5.5-0.6   c2.5-2.6,2.5-9.2,3.7-10.5c0.8-2.4,2.9-2,3.9-0.9c1,1.4,2.1,2.3,3.6,3.1c2.3,2.1,5.1,2.4,7.9,0.6c1.9-1,3.1-2.4,4.2-5.1   c1.2-3.3,0.5-18.3,0.3-27.2c-0.1-0.7-2.4-12.3-2.4-12.4c0-0.1-0.3-5.9-0.6-7.3c0-0.6-0.2-0.7,0.4-0.6c0.6,0.5,0.7,0.6,1.1,0.7   c0.6,0.1,1.2-0.9,0.8-1.9c-1.9-3.6-3.9-7.1-5.8-10.7c-0.5-0.5-1.1-1-1.8,0.1c-0.7,0.6-1.5,1.7-1.4,3.2c0.2,2.5,0.6,5.1,0.8,7.7   c0.8,4.4,1.6,8.7,2.3,13.1c0.7,9.3,0.9,16.9,1.6,26.2c-0.1,3.9-1.3,7.4-2.5,7.9c0,0-1.7,1-2.9-0.1c-0.9-0.3-4.3-5.7-4.3-5.7   c-1.7-1.6-2.9-1.1-4.1,0c-3.4,3.3-5,9.5-7.3,13.8c-0.6,0.9-2.3,1.8-4.2-0.1C306.1,180.9,308.9,171.6,308.3,174"/>
    <path class="st1"
          d="M287.9,119.7c2.2,0.9,3.7,5.3,3.2,7.5c-0.4,2.7-1.6,5.6-2.4,5.2c-0.9-0.3,0.6-2.7-0.3-5.1   c-0.5-1.6-3.5-4.5-3.1-5.3C284.6,120.2,286.5,119.4,287.9,119.7"/>
    <path class="st1"
          d="M315.4,176.6c0.5-5.3-0.3-8.5-0.5-11.7c-0.1-3.1-3.5-26.9-4.2-29.3c-0.8-4.5,3.3-0.6,2.8-3.2   c-1.4-3.3-5-8-6.1-10.9c-0.7-1.2-0.4-2.3-1.9-0.3c-1.4,4.6-1.9,8.3-1.3,11.1c3.6,18.7,7.2,34.2,6.7,52   C312.6,184.4,314.5,180.5,315.4,176.6"/>
    <path class="st1"
          d="M352.7,127.3c2,1,3.2,6.5,2.9,8.1c-0.4,2.9-1.5,6-2.2,5.6c-0.8-0.4,0.2-4.3-0.2-5.5c-0.4-1.7-3.2-4.8-2.9-5.8   C349.8,127.8,351.5,126.9,352.7,127.3"/>
    <path class="st1"
          d="M204.7,166.6c1.9,0.7,3,4.8,2.8,6c-0.4,2.1-1.4,4.4-2.1,4.1c-0.8-0.3,0.2-3.2-0.2-4.1   c-0.2-2.2-2.8-3.3-2.8-4.2C202,166.6,203.6,166.3,204.7,166.6"/>
    <path class="st2"
          d="M250.7,172.7c2.5,0.2,3.7,2.1,1.4,2.9c-2.3,0.8-4.5,1.4-4.5,4.7c0.8,4.6-1.1,3-2.3,2.4c-1.4-1-5.3-3.4-5.9-8.6   c-0.1-1.3,0.9-2.3,2.5-2.3C244.2,172.3,247.7,172.4,250.7,172.7"/>
    <path class="st1"
          d="M153.8,118.4c2.8,0.8,3,5,2.8,6.2c-0.4,2.2-1.4,4.6-2.1,4.3c-0.8-0.3,0-3.3-0.4-4.2c-0.4-1.3-2.8-3.7-2.5-4.4   C151.1,118.8,152.7,118.1,153.8,118.4"/>
    <path class="st1"
          d="M209.3,137.9c-2.2,1.2-3,4.7-1.6,6.7c1.3,1.8,3.2,1.1,3.5,1.1c2.1,0.3,3.4-4,3.4-4s0.1-1.2-2.4,1.1   c-1,0.2-1.2-0.2-1.4-0.8c-0.2-1.1-0.2-2.2,0.3-3.3C211.3,137.6,210.5,137.2,209.3,137.9"/>
    <path class="st1"
          d="M225.5,116.8c-1.1,0.7-3.2,3-3.3,5.5c-0.1,1.5-0.3,1.5,0.6,2.4c0.7,1,1.4,0.9,2.8,0.2c0.8-0.6,1.1-1,1.3-2   c0.3-1.6-1.7,0.8-2-1.1c-0.5-1.7,0.9-2.4,2.1-4.1C227,116.7,227,115.9,225.5,116.8"/>
    <path class="st1"
          d="M238.5,119.1c-0.5,1-1,6.4-0.9,6.4c-0.4,1.6,1.7,2.3,2.6,0.2c1.4-3.8,1.4-5.4,1.5-7   C241.2,116.3,239.6,116.4,238.5,119.1"/>
    <path class="st1"
          d="M320.6,160.9c0.3-0.3,11.6-8.3,11.6-8.3c1.2-0.4,0.9,4.1,0.4,4.1c0.2,0.9-11.1,8.6-11.9,8.3   C320.1,165.4,319.5,161.9,320.6,160.9"/>
    <path class="st1"
          d="M330.9,160.9c2,1,2.8,6.8,2.6,8.4c0.1,3.1-1.9,5.6-2.7,5.1c-0.8-0.4,0.1-3.8-0.3-5c-0.4-1.7-2.1-4.9-1.9-5.9   C328.1,161.5,329.7,160.5,330.9,160.9"/>
    <path class="st1"
          d="M263.8,185.9c0.8-1.2,3.2-2.8,3.3-2.8c1.1-0.6,2.2,0.4,2.2,0.4c0.2,1.1-0.7,2.2-0.4,3.7c0.2,0.6,0.4,1.3,1.5,1   c1.8-1.4,3.4-1.5,5.3-1.6c1.4,0.1,1.4,2.4,0.6,2.4c-3.3,0.7-4.8,1.6-7.2,2.5c-1.1,0.6-2.1-0.2-2.1-0.3c0-0.1-0.6-0.6-0.2-2.1   c0.1-1.2-0.4-1.8-1.4-1.7c-0.8,0.4-1.4,0.7-1.8-0.2C263.3,186.6,263.3,186.3,263.8,185.9"/>
    <path class="st1"
          d="M342.8,189.1c0.5,0.6,0.8,1.2,0,2.2c-0.8,0.7-1.4,1.1-2.2,1.9c-0.4,0.6-0.6,1.6,0.5,1.9c2.1,0.6,7-2.6,7-2.6   c0.8-0.6,0.5-1.7,0.5-1.7c-0.5-0.5-1.5-0.2-2.2-0.3c-0.3,0-1.4-0.2-0.9-1.1c0.4-0.6,0.6-1,0.9-1.7c0.3-0.7,0-1.2-1.1-1.6   c-1.2-0.2-1.7-0.1-3,0c-0.7,0.2-1,0.5-1.1,1.4C341.2,188.6,342,188.6,342.8,189.1"/>
    <path class="st4"
          d="M264.2,156.2c-0.3,0.5-1.4,0.5-2.3-0.1c-1-0.6-1.5-1.5-1.2-2c0.3-0.5,1.3-0.5,2.3,0.1   C264,154.8,264.5,155.7,264.2,156.2"/>
    <path class="st4"
          d="M212.6,125.2c-0.6,0.1-1.3-0.4-1.7-1.2c-0.4-0.8-0.2-1.6,0.4-1.7c0.6-0.1,1.4,0.4,1.7,1.2   C213.4,124.3,213.2,125.1,212.6,125.2"/>
    <polygon class="st5"
             points="274.6,285.7 256.1,272.4 237.7,285.9 244.6,264.2 226.1,250.8 248.9,250.6 255.9,229 263.1,250.6    285.9,250.5 267.5,264  "/></g></svg>
