<?xml version="1.0" ?>
<svg id="Layer_1" style="enable-background:new 0 0 512 512;" version="1.1" viewBox="0 0 512 512" xml:space="preserve"
     xmlns="http://www.w3.org/2000/svg"><style type="text/css">
	.st0 {
    fill: #4165B0;
  }

  .st1 {
    fill: #FFFFFF;
  }

  .st2 {
    fill: #F6CD2A;
  }

  .st3 {
    fill: #9AD2F2;
  }

  .st4 {
    fill: none;
  }

  .st5 {
    fill: #497BA2;
  }

  .st6 {
    fill: #C01F3F;
  }

  .st7 {
    fill: #010101;
  }

  .st8 {
    fill: #5C7233;
  }

  .st9 {
    fill: #273833;
  }

  .st10 {
    fill: #94C43E;
  }

  .st11 {
    fill: #AE2089;
  }

  .st12 {
    fill: #F4CD2E;
  }

  .st13 {
    fill: #6192BF;
  }

  .st14 {
    fill: #304891;
  }
</style>
  <g><rect class="st0" height="99.6" width="512" y="305.8"/>
    <rect class="st0" height="99.6" width="512" y="106.7"/>
    <rect class="st1" height="99.6" width="512" y="206.2"/>
    <polygon class="st2" points="226,273.3 256,221.3 286,273.3  "/>
    <polygon class="st3" points="228.9,271.6 256,224.8 283.1,271.6  "/>
    <g><path class="st3" d="M234.3,267.3c-0.4,0-0.8-0.1-1.1-0.1l-0.8-0.2l-0.1-0.5l1,0.3c0.8,0.1,1.6,0.2,2.5,0.2    C235.3,267.2,234.8,267.3,234.3,267.3L234.3,267.3z"/></g>
    <g><path class="st3" d="M231.8,270.6l-0.6-0.4c0.3-0.1,0.6-0.5,1-0.9c0.7-0.2,1-0.1,1.4,0c0.3,0.1,0.6,0.2,0.9,0.2    c0.5,0.3,1.4,0.3,1.9,0l0.8-0.1l-0.6,0.5c-0.6,0.3-1.6,0.4-2.2,0c-0.3,0-0.6-0.1-0.9-0.1c-0.4-0.1-0.6-0.2-1.1-0.1    C232.1,270.1,231.9,270.4,231.8,270.6L231.8,270.6z"/></g>
    <g><path class="st3" d="M237,271.1c-0.8-0.1-1.3-0.1-2.1-0.1l-0.8-0.2l0,0.2c-0.5,0-0.7,0-0.9,0l-0.1,0v-0.3c0.4-0.2,0.8-0.2,1-0.2    l0.8,0C235.8,270.5,236.5,270.5,237,271.1L237,271.1z"/></g>
    <g><path class="st3" d="M244.6,267.1c-1.1,0-1.4-0.4-1.6-1.4c-0.4-0.1-1.1-0.1-1.6,0.2l-0.8,0l-0.2-0.5h0.9c0.5-0.3,1.5-0.3,2.1,0    c0.3,1.1,0.6,1.3,1.3,1.3c0-0.2,0.4-0.4,0.7-0.5l0.7,0.2c-0.7,0.4-1.1,0.5-1.2,0.7C244.7,267.1,244.6,267.1,244.6,267.1    L244.6,267.1z"/></g>
    <g><polygon class="st4" points="240.8,267.4 241,267.4 241.7,267.4 243.4,267.4   "/></g>
    <g><path class="st3" d="M242.8,269.8l-0.6-0.4c0.3-0.1,0.6-0.5,1-0.9c0.8-0.6,1.3-0.9,2.4-0.6c1,0.7,1.2,0.9,2,1    c0.5,0,0.8-0.1,1.1-0.1c0.3,0,0.5-0.1,0.8-0.1c-0.3,0.5-0.5,0.6-0.7,0.6c-0.4,0.1-0.7,0.1-1.2,0.1c-0.9-0.1-1.3-0.4-1.8-0.8    c-1.2-0.5-1.5-0.2-2.2,0.2C243.2,269.3,243,269.7,242.8,269.8L242.8,269.8z"/></g>
    <g><path class="st3" d="M248.3,271.5c-0.8,0-1.4-0.2-1.9-0.5l-0.7-0.3c-0.2,0.2-0.5,0.3-0.6,0.4l-0.2-0.4h0.2c0-0.2,0.2-0.3,0.6-0.5    l0.9,0.3c0.6,0.2,1,0.5,1.7,0.5c0.2,0,0.4-0.1,0.7-0.1c0.3-0.1,0.6-0.1,1-0.1c-0.3,0.5-0.6,0.6-0.8,0.6    C248.8,271.5,248.6,271.5,248.3,271.5L248.3,271.5z"/></g>
    <g><path class="st3" d="M254.8,266.1c-0.8-0.3-1.5-0.3-2.3-0.3h-0.9l-0.2-0.5h0.9c1.1,0,1.9,0,2.6,0.3l2.5,0L254.8,266.1L254.8,266.1    z"/></g>
    <g><path class="st3" d="M255.9,269.2c-0.9-0.1-1.3-0.4-1.8-0.7l-0.5-0.4c-0.5-0.5-1.3-0.6-2-0.7c-0.2,0.2-0.5,0.3-0.7,0.4l-0.2-0.4    h0.2c-0.1-0.1,0.2-0.3,0.6-0.5c1,0.1,1.9,0.2,2.5,0.8l0.5,0.3c0.5,0.3,0.8,0.6,1.5,0.6c0.7-0.3,0.9-0.4,1.2-0.5l-0.4,0.7    C256.5,269.1,256.3,269.2,255.9,269.2L255.9,269.2z"/></g>
    <g><path class="st3" d="M257.1,270.5c-0.7,0-1.3,0-1.9-0.2c-0.7-0.4-1.5,0-1.8,0.2l-0.3-0.4c0.4-0.3,1.5-0.8,2.3-0.3    c0.6,0.2,1.4,0.2,2.2,0.2c0.3-0.1,0.6-0.2,0.9-0.4c0.4-0.2,0.9-0.4,1.1-0.6l0.1-0.1h0.6l-0.5,0.5c-0.1,0.2-0.6,0.4-1.1,0.6    c-0.3,0.1-0.6,0.3-0.8,0.4C257.7,270.5,257.4,270.5,257.1,270.5L257.1,270.5z"/></g>
    <g><path class="st3" d="M263.7,267.4c-0.8-0.3-2-0.3-2.5-0.3l-0.3-0.2l0.2-0.3c0.6,0,1.9-0.1,2.6,0.3c0.5-0.1,0.9-0.5,1.3-1l0.4-0.5    c0.8-0.1,1.5-0.1,2.1,0.2c-0.7,0.2-1.3,0.2-1.9,0.2C265,266.8,264.6,267.3,263.7,267.4L263.7,267.4z"/></g>
    <g><path class="st3" d="M264.5,270.2l-0.1-0.5c0,0,0.7-0.2,1.3-0.3c0.5-0.7,1-0.3,1.3-0.1c0.2,0.1,0.4,0.3,0.6,0.3    c0.7-0.3,1.1-0.9,1.5-1.7c0.1,1-0.4,1.8-1.5,2.2c-0.5-0.1-0.7-0.3-0.9-0.4c-0.3-0.3-0.4-0.3-0.8,0.1    C265.2,270,264.5,270.2,264.5,270.2L264.5,270.2z"/></g>
    <g><path class="st3" d="M266.6,268.3l-0.2-0.3h0.2c-0.1-0.2,0.2-0.4,0.6-0.7l0.5-0.4c0.3-0.3,0.6-0.6,1.3-0.7c0.4-0.6,1-0.1,1.3,0.2    c-0.7,0-0.9,0-1.1,0.2c-0.7,0.1-0.9,0.3-1.2,0.6c-0.1,0.1-0.3,0.3-0.5,0.5C267,268,266.8,268.1,266.6,268.3L266.6,268.3z"/></g>
    <g><path class="st3" d="M270.4,270.3l-0.5-0.1c0-0.2,0.4-1.4,0.6-1.9c0.6-0.4,0.9-0.6,1.4-0.5c0.3,0.1,0.6,0.4,0.9,1    c0.2,0,0.5,0.2,0.8,0.4c0.3,0.2,0.7,0.4,1,0.5c-0.6,0.3-0.9,0.1-1.3-0.1c-0.3-0.2-0.6-0.4-0.9-0.5c-0.4-0.6-0.6-0.8-0.7-0.9    c-0.2,0-0.5,0.1-0.9,0.3C270.8,269,270.5,270.1,270.4,270.3L270.4,270.3z"/></g>
    <g><path class="st3" d="M274.9,267.4c-0.7-1.1-0.9-1.6-1.5-1.8c0,0.4-0.2,0.8-0.3,1.1l-0.6-0.3c0.3-0.2,0.4-0.6,0.8-1.2    c1.2,0.1,1.5,0.8,1.8,1.6c0.8,0.1,1.3,0.1,1.7-0.3C276.5,267.4,275.8,267.4,274.9,267.4L274.9,267.4z"/></g>
    <g><path class="st3" d="M280.6,269.8c-0.8-0.1-1.1-0.4-1.3-0.6c-0.2-0.2-0.5-0.4-0.8-0.6c-0.4-0.2-0.6-0.1-1.1,0.9l-0.5-0.2    c0.3-0.6,0.7-1.3,1.2-1.4l0.6,0.4c0.4,0.1,0.6,0.3,0.9,0.6c0.2,0.2,0.5,0.4,0.8,0.6c-0.2-0.4,0.1-0.5,0.6-0.5    C280.7,269.5,280.7,269.6,280.6,269.8L280.6,269.8z"/></g>
    <g><path class="st3" d="M261.3,270.6l-0.2-0.4h0.2c0-0.2,0.2-0.3,0.6-0.5c0.8-0.6,1.1-0.9,1.5-1.7c0.6-0.1,1-0.1,1.3,0    c0.4,0.1,0.8,0.1,1.3,0.1c-0.5,0.5-0.9,0.4-1.3,0.4c-0.3,0-0.6-0.1-1-0.1c-0.2,0.8-0.6,1.1-1.3,1.6    C261.8,270.4,261.5,270.6,261.3,270.6L261.3,270.6z"/></g>
    <g><path class="st3" d="M238.2,267.5l-0.5,0c0-0.3,0.3-0.5,1.2-1c0.3-0.4,0.7-0.2,1-0.1l0.5,0.6c-0.3,0-0.5-0.1-0.7-0.1l0,0l-0.6,0.1    C238.4,267.2,238.2,267.4,238.2,267.5L238.2,267.5z"/></g>
    <g><path class="st3" d="M241,270c-0.2,0-0.4-0.1-0.5-0.2c-0.2-0.1-0.5-0.3-0.7-0.3c-0.2,0.2-0.5,0.3-0.7,0.4l-0.2-0.4h0.2    c-0.1-0.1,0.2-0.3,0.6-0.5c0.5,0,0.8,0.2,1.1,0.4c0.3,0.2,0.5,0.3,0.9,0.4C241.4,269.9,241.2,270,241,270L241,270z"/></g>
    <g><polygon class="st1" points="256.1,261 255.9,225.2 256.1,225.2 256.1,261   "/></g>
    <g><polygon class="st1" points="243.1,247.4 243.1,247.1 268.9,247.1 243.1,247.4   "/></g>
    <g><polygon class="st1" points="275.4,258.4 246.4,241.9 246.6,241.7 275.4,258.4   "/></g>
    <g><polygon class="st1" points="236.7,258.6 265.7,241.6 265.9,241.8 236.7,258.6   "/></g>
    <g><polygon class="st1" points="250.3,257.5 250.1,257.4 261,238.5 250.3,257.5   "/></g>
    <g><polygon class="st1" points="262.9,259 250.5,238 250.7,237.8 262.9,259   "/></g>
    <path class="st3"
          d="M260,247.2c0,2.2-1.8,4-4,4c-2.2,0-4-1.8-4-4c0-2.2,1.8-4,4-4C258.2,243.3,260,245,260,247.2L260,247.2z"/>
    <path class="st5"
          d="M278.2,263.2l-13.4,0.2c0,0,0.1,2,0.9,2c0.9,0.1,12-0.1,12.4,0.8c0.5,0.9-10.8,1.4-10.8,1.4s9.9-0.1,10.5,0.7   c0.5,0.8-5.5,0.9-5,1c0.5,0.1,7-0.1,7.6,0.6c0.6,0.7-3,1.2-3,1.2s5.4,0.5,5.6,0.5C281.7,269.3,278.2,263.2,278.2,263.2L278.2,263.2   z"/>
    <path class="st6"
          d="M254,244.6c-0.4,0.3,1,0.5,0.9,1.4c-0.1,0.7-0.9,1.6-1.2,2.2c-0.3,0.6,1.6,2.8,3.3,1.6   c1.8-1.2,1.6-3.4,0.9-3.8C256.5,245.1,255.6,243.7,254,244.6L254,244.6z"/>
    <g><path class="st7" d="M256.5,249.8c-0.1-0.2-0.7-0.8-1.2-1.1c-0.4-0.3-1.1-0.5-1.3-0.3c0,0,0,0.2-0.1,0.2c0,0-0.1,0.2-0.1,0.1    c0,0,0-0.4,0.1-0.5c0.3-0.3,1.1,0.1,1.5,0.3C255.8,248.7,256.6,249.4,256.5,249.8L256.5,249.8z"/></g>
    <path class="st8"
          d="M244.5,252.8c1.6-0.4,2,1.5,2.5,1.8c0.5,0.3,1.9,0.5,2.2,0.7c0.3,0.2,1.7,1.1,1.7,1.1s0.6-1.6,1.3-1.8   c0.7-0.2,3.8,1.9,3.8,1.9s0.3-1.9,1.2-1.7c0.8,0.3,4.9,3.3,4.9,3.3s0.2-1.1,1.1-1.4c0.9-0.3,3.9,1.5,3.9,1.5s0.3-1.5,1-1.5   c1.8,0,7.5,6.3,8.8,6.4c0.6,0.1-2.1,0.9-2.1,0.9s0.5,0.4,0.2,0.8c-0.3,0.4-8.2,0-8.2,0s0.2,0.5,0.1,0.7c-0.2,0.3-34.6,0.5-34.6,0.5   C235.3,260.6,241.7,253.4,244.5,252.8L244.5,252.8z"/>
    <path class="st9"
          d="M258.1,265.8c1.2-0.3,0.4-3.7-6.2-8.7c10.4,7.2,3.8,8.2,14.5,8.5C264.4,265.8,258.1,265.8,258.1,265.8   L258.1,265.8z"/>
    <path class="st9" d="M256.4,256.9c0,0,9.9,7.6,10.3,8c0.5,0,2.1,0.1,2.1,0.1S267.4,264.8,256.4,256.9L256.4,256.9z"/>
    <path class="st9"
          d="M262.3,258.3c0,0,8.3,6.5,6.9,6.6c-1.4,0,4.5,0.2,5.6-0.1C269.4,264.5,270.5,264.3,262.3,258.3L262.3,258.3z"/>
    <path class="st9" d="M267.3,258.6l7.3,5.4c0,0,1.1-0.3,1.7-0.6C274.2,263.8,273.8,262.8,267.3,258.6L267.3,258.6z"/>
    <path class="st10"
          d="M245.8,253.5c0.6,0.4,0.7,1.1,1.1,1.3c0.4,0.2,3.8,1.8,5.6,3.7c1.9,1.9,4.7,4.4,3.7,4.7c-1,0.3-2-0.8-2-0.8   s1.4,2.3-0.5,2.5c-1.9,0.2-6.5-6.8-6.5-6.8s2.2,6.3-0.6,6c-2.8-0.3-2.5-4.8-2.5-4.8s-0.8,2.2-1.3,2.1c-0.6-0.1,0-2.8,0-2.8   s-3.2,5.4-4.5,4.8C237,262.9,243.3,253,245.8,253.5L245.8,253.5z"/>
    <path class="st10"
          d="M252.6,255.3c-0.1-0.5,0.4-0.3,1.4,0.2c1,0.5,9.2,6.8,9,7.5C262.7,263.6,253,258.3,252.6,255.3L252.6,255.3z"/>
    <path class="st10" d="M258.6,256.4c-0.6-0.1,6.5,7.1,8.2,6.6C268.4,262.5,259,256.5,258.6,256.4L258.6,256.4z"/>
    <path class="st10" d="M263.5,257c-0.8-0.1,6.9,6.9,8.6,6.5C273.7,263.2,264.7,257.1,263.5,257L263.5,257z"/>
    <path class="st10" d="M268,257.4c-0.9,0.1,5.7,5.2,6.5,5.2C275.4,262.5,270,257.1,268,257.4L268,257.4z"/>
    <path class="st11"
          d="M245.3,243.3c0,0,4.1-4.7,10.7-4.7s10.7,4.7,10.7,4.7l-1.6-2.8c0,0-3.3-3.3-9.1-3.3c-5.8,0-9,3.3-9,3.3   L245.3,243.3z"/>
    <path class="st6"
          d="M264.1,238.7c0,0-2.9-2.5-8.1-2.5c-5.2,0-8.1,2.5-8.1,2.5l-1.3,2.3c0,0,3.1-3.5,9.4-3.5c6.3,0,9.4,3.6,9.4,3.6   L264.1,238.7z"/>
    <path class="st12"
          d="M263.1,236.7c0,0-2.6-2-7.1-2c-4.4,0-6.8,1.8-6.8,1.8l-1.4,2.5c0,0,2.6-2.6,8.2-2.6c5.6,0,8.2,2.6,8.2,2.6   L263.1,236.7z"/>
    <path class="st10"
          d="M261.8,234.8l1.3,2.2c0,0-2.6-1.9-7.1-1.9s-7.1,2-7.1,2l1.3-2.2c0,0,1.8-1.3,5.8-1.3   C260.1,233.6,261.8,234.8,261.8,234.8L261.8,234.8z"/>
    <path class="st13"
          d="M260.9,233.3l1.1,1.9c0,0-2.6-1.3-6-1.3c-3.4,0-6.2,1.6-6.2,1.6l1-1.8c0,0,1.8-1.1,5.1-1.1   C259.3,232.6,260.9,233.3,260.9,233.3L260.9,233.3z"/>
    <path class="st14"
          d="M260.4,232.3l0.9,1.5c0,0-1.6-1.1-5.2-1.1c-3.6,0-5.2,1.1-5.2,1.1l0.9-1.6c0,0,1.6-0.6,4.3-0.6   C258.8,231.7,260.4,232.3,260.4,232.3L260.4,232.3z"/>
    <path class="st1"
          d="M249.4,266.6l13.5,0.1c0,0-2.4,0.3-2.3,0.6c0.1,0.3,4.8,0.4,4.8,0.4s-2.9,0.2-3,0.5c-0.1,0.3,1.3,0.4,1.3,0.4   s-2.6,0.3-2.6,0.5s3.4,0.4,3.1,0.4c-0.3,0-4.5,0.1-4.5,0.4c0,0.3,3,1.1,3,1.1l-17.7,0.3c0,0,2.8-0.4,2.8-0.9c0-0.6-2-0.7-2-0.7   s7.2,0.1,7.6-0.2c0.3-0.3-1.5-0.6-1.5-0.6s2.9,0.2,3.1-0.2c0.2-0.3-3.9-0.9-3.9-0.9s2.4,0.1,2.7-0.3   C254.2,267.1,249.4,266.6,249.4,266.6L249.4,266.6z"/>
    <path class="st5"
          d="M246.9,266.9c0,0-13.3,0.4-14.4,1.2c-1.2,0.7,7.4,1.5,7.4,1.5s-8.9,0.1-9.5,0.9c-0.7,0.8,5.3,0.7,5.3,0.7   l-6.6,0.5l3.2-5.5L246.9,266.9z"/>
    <path class="st12"
          d="M217.3,267.8c0.1,0.5-0.1,0.9-0.6,1.1c-0.4,0.1-0.9-0.1-1.1-0.6c-0.1-0.5,0.1-1,0.6-1.1   C216.6,267.1,217.1,267.3,217.3,267.8L217.3,267.8z"/>
    <g><path class="st4" d="M217.3,267.8c0.1,0.5-0.1,0.9-0.6,1.1c-0.4,0.1-0.9-0.1-1.1-0.6c-0.1-0.5,0.1-1,0.6-1.1    C216.6,267.1,217.1,267.3,217.3,267.8z"/></g>
    <path class="st12"
          d="M218.6,276.3c-0.5,0.5-0.9,0.8-0.6,1.6l-0.3,0.1l-1.4-3l0.3-0.1c0.3,0.5,0.4,0.6,0.7,0.5   c0.2-0.1,0.3-0.2,0.5-0.3l0.9-0.8l-1-2.2L217,272c-0.3,0-0.6,0.1-0.8,0.2c-0.4,0.2-0.4,0.7-0.3,1.1l-0.3,0.1l-1.1-2.3l0.3-0.1   c0.6,0.7,1.1,0.7,1.9,0.6l5.2-0.5l1,1.1L218.6,276.3z M221.3,271.6l-3.2,0.3l0.9,1.9L221.3,271.6z"/>
    <g><path class="st7" d="M217.7,278l-1.4-3c0.2,0.1,0.3,0.1,0.4,0.2L217.7,278l0.3-0.2c-0.4-0.7,0-1,0.5-1.5l4.5-4.2l-1-1l-5.8,0.5    c-0.3,0-0.6-0.1-0.9-0.2c0.4,0.1,0.6,0.2,0.9,0.2l5.9-0.5l1,1.1l-4.4,4.1c-0.6,0.5-0.9,0.8-0.6,1.5L217.7,278L217.7,278L217.7,278    L217.7,278z M217.1,275.4c-0.1,0-0.2-0.1-0.4-0.2C217,275.3,217.1,275.3,217.1,275.4l1.5-1.3l-1-2.2l-0.6,0.1    c-0.3,0-0.6,0.1-0.8,0.2c-0.5,0.2-0.3,0.8-0.2,1l-0.3-0.4c0.1-0.3,0.2-0.6,0.5-0.7c0.2-0.1,0.5-0.1,0.7-0.2l0.8-0.1l1.1,2.2    L217.1,275.4L217.1,275.4z"/></g>
    <path class="st12"
          d="M223.4,283.8c-0.5,0.4-0.6,0.7-0.2,1.3l-0.3,0.2l-2-2.8l0.3-0.2c0.4,0.6,0.7,0.6,1.3,0.2l4-3l0,0l-6.2,1.9   l-0.2-0.3l3.5-5.3v0l-3.1,2.3c-1.2,0.9-1.3,1.1-0.9,1.8l-0.3,0.2l-1.4-2l0.2-0.2c0.6,0.6,0.8,0.6,2-0.3l2.9-2.2   c0.6-0.4,0.5-0.8,0.2-1.3l0.2-0.2l1.6,2.3l-2.6,3.8l4.4-1.3l1.6,2.2l-0.3,0.2c-0.4-0.5-0.7-0.7-1.2-0.2L223.4,283.8z"/>
    <g><path class="st7" d="M222.9,285.3l-2-2.8c0.2,0,0.3,0.1,0.4,0.1L222.9,285.3l0.3-0.3c-0.4-0.5-0.4-0.9,0.2-1.3l3.7-2.7    c0.5-0.4,0.7-0.3,1-0.1c-0.2-0.1-0.3-0.1-0.4-0.1l-4.2,3c-0.5,0.4-0.5,0.7-0.1,1.2L222.9,285.3L222.9,285.3z M221.9,282.8    c-0.2,0-0.3-0.1-0.4-0.2C221.6,282.7,221.7,282.7,221.9,282.8l4.3-3.1l-3.7,2.9C222.2,282.7,222,282.8,221.9,282.8L221.9,282.8z     M220.2,281.5l0.2-0.4l6-1.6l0,0L220.2,281.5L220.2,281.5z M228.6,281.1c-0.2,0-0.3-0.1-0.4-0.1l-1.3-2.1l-4.4,1.4l2.6-3.9    l-0.3-0.3l0.3,0.3l-2.6,3.9l4.4-1.4L228.6,281.1L228.6,281.1z M219.6,280l-0.4-0.4c0-0.5,0.3-0.8,1.2-1.5l3.1-2.3l0,0l-3,2.4    C219.2,279.1,219.2,279.3,219.6,280L219.6,280z M218.8,278.5c-0.2,0-0.3-0.1-0.5-0.2c0.6,0.1,0.7,0.2,1.8-0.6l2.9-2.2    c0.6-0.4,0.5-0.7,0.2-1.2l0.4,0.4c0,0.3-0.1,0.6-0.5,0.9l-2.9,2.2C219.5,278.3,219.2,278.5,218.8,278.5L218.8,278.5z"/></g>
    <path class="st12"
          d="M224.5,286.3c0.5,0.5,0.8,0.5,1.3,0l3-3.5c0.4-0.5,0.4-0.8-0.1-1.3l0.2-0.2l4.3,3.9l-0.7,1.7l-0.3-0.1   c0.1-1.1-0.2-2.2-1-3c-0.6-0.6-0.8-0.4-1.3,0.2l-1.2,1.4l0.1,0.1c0.7,0.6,1.1,0.8,2,0.3l0.3,0.3l-1.8,2.1l-0.3-0.3   c0.4-0.9,0.2-1.4-0.5-2l-0.2-0.1l-1.3,1.5c-0.4,0.4-0.6,0.7-0.1,1.2c0.9,0.8,2.1,1,3.2,0.9l0.1,0.3l-1.7,0.9l-4.3-3.8L224.5,286.3z   "/>
    <g><path class="st7" d="M228.5,290.4L228.5,290.4l-4.3-3.9c0.2,0,0.3,0,0.4,0l3.9,3.8l0.4-0.2L228.5,290.4L228.5,290.4z M229.9,289.4    c-0.2,0-0.3,0-0.5,0c-0.7,0-1.7-0.2-2.6-0.9c-0.3-0.3-0.2-0.9,0.1-1.2l1.3-1.5c0.6,0.5,0.9,0.9,0.9,1.4c-0.1-0.5-0.4-0.8-0.8-1.2    l-1.4,1.4c-0.2,0.3-0.3,0.9-0.1,1.1c1.1,1,2.3,1,3.2,0.8L229.9,289.4L229.9,289.4z M225.1,286.7c-0.1,0-0.3,0-0.4-0.1    c0.5,0,0.6,0.1,1-0.3l3-3.5c0.2-0.2,0.3-0.4,0.3-0.6c0-0.2-0.1-0.4-0.4-0.6l0.4,0.3c0,0.1,0.1,0.2,0.1,0.3c0,0.2-0.1,0.4-0.3,0.7    l-3,3.5C225.5,286.6,225.3,286.7,225.1,286.7L225.1,286.7z M232.1,285.5c-0.2-0.7-0.6-1.3-1-1.7c-0.6-0.6-0.8-0.4-1.2,0.2    l-0.5,0.6l0.4-0.6c0.5-0.5,0.7-0.8,1.3-0.2C231.6,284.2,232,284.8,232.1,285.5L232.1,285.5z"/></g>
    <path class="st12"
          d="M235.4,293.1c0,0.7-0.1,1.4,0.6,1.9l-0.2,0.3l-2-1.3c0-0.3,0-0.6,0.1-0.9l0.1-1.3c0.2-1.3-0.1-1.6-0.4-1.9   l-1.1,1.8c-0.3,0.6-0.3,0.9,0.3,1.3l-0.2,0.3l-2.9-1.8l0.2-0.3c0.6,0.4,0.9,0.3,1.2-0.3l2.4-3.9c0.3-0.6,0.3-0.9-0.3-1.2l0.2-0.3   l3.5,2.2c1.2,0.8,1.5,1.9,1,2.7c-0.6,0.9-1.6,0.8-2.5,0.5c0.1,0.3,0.1,0.7,0.1,1.1L235.4,293.1z M234,289.6c1.3,0.8,2,0.7,2.5-0.2   c0.5-0.8,0.2-1.4-0.6-2c-0.5-0.3-0.7-0.1-1,0.3l-1.1,1.7L234,289.6z"/>
    <g><path class="st7" d="M235.8,295.3l-2-1.3c0-0.3,0-0.6,0-0.8l0.2-1.5c0.2-1.3-0.1-1.6-0.4-1.8l-1.1,1.8c-0.3,0.5-0.3,0.8,0.3,1.2    l-0.5-0.2c-0.1-0.3-0.1-0.6,0.1-1l1.1-1.8c0.4,0.2,0.7,0.5,0.5,1.9l-0.1,1.3c-0.1,0.4-0.1,0.6-0.1,0.9L235.8,295.3l0.2-0.3    c-0.7-0.5-0.6-1.1-0.6-1.9l0.1-1.1c0-0.4,0.1-0.7-0.1-1c1.2,0.3,2,0.2,2.5-0.5c0.5-0.9,0.2-1.9-1-2.7l-0.8-0.5l0.8,0.4    c1.2,0.7,1.6,1.9,1,2.8c-0.5,0.8-1.4,0.9-2.5,0.5c0.2,0.2,0.2,0.6,0.1,0.9l-0.1,1.3c0,0.7-0.1,1.4,0.6,1.9L235.8,295.3    L235.8,295.3z M230.6,291.4c-0.1,0-0.2,0-0.4-0.1C230.4,291.3,230.5,291.3,230.6,291.4c0.2-0.1,0.4-0.2,0.6-0.6l2.4-3.9    c0.3-0.5,0.3-0.8-0.3-1.2l0.5,0.3c0.1,0.3,0.1,0.6-0.1,1l-2.4,3.9C231,291.3,230.8,291.4,230.6,291.4L230.6,291.4z M235.5,290.2    L235.5,290.2c-0.4,0-0.9-0.2-1.4-0.6l0,0C234.7,290,235.1,290.1,235.5,290.2L235.5,290.2c0.4-0.1,0.8-0.3,1.1-0.8    c0.5-0.7,0.3-1.3-0.6-1.9l-0.4-0.2c-0.2,0-0.3,0.2-0.5,0.5l-0.4,0.7l0.4-0.8c0.2-0.3,0.3-0.5,0.6-0.5l0.5,0.2    c0.9,0.6,1.1,1.2,0.7,2C236.3,290,235.9,290.2,235.5,290.2L235.5,290.2z"/></g>
    <path class="st12"
          d="M239.4,290.4c0.3-0.6,0.1-0.9-0.5-1.2l0.1-0.3l3.1,1.4l-0.1,0.3c-0.6-0.3-0.9-0.2-1.2,0.4l-1.9,4.2   c-0.3,0.6-0.1,0.9,0.5,1.2l-0.1,0.3l-3.1-1.4l0.1-0.3c0.6,0.3,0.9,0.2,1.2-0.4L239.4,290.4z"/>
    <g><path class="st7" d="M239.3,296.7l-3.1-1.4l0.1,0l3,1.4l0.1-0.2c-0.6-0.2-0.8-0.6-0.5-1.2l1.9-4.2c0.2-0.4,0.4-0.6,0.7-0.6    l0.5-0.1l-0.5,0.2c-0.3,0-0.4,0.2-0.6,0.5l-1.9,4.2c-0.3,0.6-0.2,0.8,0.4,1.1L239.3,296.7L239.3,296.7z M236.4,295.2l0.5-0.2    c0.3,0,0.4-0.2,0.6-0.5l1.9-4.2c0.3-0.6,0.2-0.8-0.5-1.1l0.6,0.2c0.2,0.3,0.2,0.6,0,1l-1.9,4.2c-0.2,0.4-0.4,0.6-0.7,0.6l0,0    L236.4,295.2L236.4,295.2z"/></g>
    <path class="st12"
          d="M247,294h-0.4c-0.1-1-0.6-2.2-1.6-2.5c-1.4-0.4-2.2,1.2-2.6,2.3c-0.7,2.2,0.1,3.5,1.1,3.8   c0.9,0.3,1.7-0.1,2.3-0.7l0.2,0.3c-1,0.9-2,1.4-3.4,0.9c-1.8-0.6-2.6-2.5-2-4.3c0.6-1.9,2.4-3.3,4.3-2.7c0.3,0.1,0.6,0.3,0.8,0.4   c0.2,0.1,0.4,0.3,0.6,0.3c0.2,0.1,0.5,0,0.7,0l0.1,0L247,294z"/>
    <g><path class="st7" d="M243.6,298.3c-0.3,0-0.6-0.1-1-0.2c-1.7-0.6-2.6-2.5-2-4.3c0.6-2,2.6-3.3,4.4-2.8c0.3,0.1,0.6,0.3,0.8,0.4    l0.5,0.4l0,0l0.7,0l-0.7,0l-0.6-0.4c-0.2-0.1-0.4-0.3-0.7-0.4c-1.7-0.6-3.6,0.7-4.3,2.7c-0.6,1.8,0.3,3.7,2,4.2    c0.8,0.3,1.6,0.2,2.4-0.2C244.6,298.1,244.1,298.3,243.6,298.3L243.6,298.3z M242.5,296.7c-0.5-0.7-0.5-1.7-0.1-2.9    c0.2-0.6,0.9-2.4,2.2-2.4c0.2,0,0.3,0.1,0.5,0.2c0,0-0.1,0-0.1,0c-1.6,0-2.3,1.7-2.4,2.3C242,295,242.1,296,242.5,296.7    L242.5,296.7z"/></g>
    <path class="st12"
          d="M251.7,298.3c0.1,0.7,0.1,1.2,1,1.4l0,0.3l-3.3-0.5l0.1-0.3c0.6,0.1,0.8,0,0.8-0.3c0-0.2,0-0.4,0-0.6   l-0.2-1.2l-2.4-0.4l-0.3,0.6c-0.1,0.2-0.3,0.5-0.3,0.8c-0.1,0.5,0.3,0.7,0.7,0.8l-0.1,0.3l-2.5-0.4l0-0.3c0.9-0.1,1.2-0.5,1.6-1.3   l2.6-4.6l1.4-0.2L251.7,298.3z M249.5,293.4l-1.6,2.9l2.1,0.3L249.5,293.4z"/>
    <g><path class="st7" d="M252.6,300l-3.3-0.5l0.8-0.6c-0.1,0.3-0.2,0.3-0.4,0.3L252.6,300l0-0.4c-0.8-0.1-0.8-0.6-0.9-1.2l-0.9-6.1    l-1.4,0.3l-2.6,4.6c-0.3,0.5-0.5,0.9-0.9,1.1c0.4-0.3,0.6-0.7,0.8-1.1l2.6-4.6l1.5-0.2l0.9,6c0.1,0.8,0.2,1.2,0.9,1.3L252.6,300    L252.6,300z M247.8,298.8l-0.4,0c-0.2-0.2-0.4-0.5-0.4-0.8c0-0.3,0.2-0.5,0.3-0.8l0.3-0.6l2.4,0.4l0.2,1.2c0,0.2,0,0.4-0.1,0.6h0    l-0.2-1.7l-2.3-0.3l-0.3,0.5c-0.1,0.2-0.3,0.5-0.3,0.8C247,298.6,247.6,298.8,247.8,298.8L247.8,298.8z"/></g>
    <path class="st12"
          d="M261.5,294.7l-0.4,0.2c-0.5-0.9-1.3-1.8-2.4-1.8c-1.4,0.1-1.6,1.9-1.6,3.1c0.1,2.3,1.3,3.2,2.4,3.1   c0.9,0,1.5-0.7,1.9-1.5l0.3,0.2c-0.6,1.2-1.4,2-2.8,2.1c-1.9,0.1-3.3-1.4-3.4-3.2c-0.1-2,1.1-4,3-4.1c0.3,0,0.6,0,0.9,0.1   c0.2,0.1,0.4,0.1,0.6,0.1c0.3,0,0.5-0.1,0.7-0.3l0.1,0L261.5,294.7z"/>
    <g><path class="st7" d="M258.7,300.1c-1.7,0-3.1-1.4-3.2-3.3c-0.1-1.9,1-4,3.1-4.2c0.5-0.1,0.7,0.1,0.9,0.1l0.6,0.1    c0.2,0,0.4-0.1,0.6-0.2l0,0.1c-0.2,0.2-0.4,0.3-0.6,0.3l-0.6-0.1c-0.2-0.1-0.4-0.1-0.7-0.1c-2.1,0.1-3.3,2.2-3.1,4.1    C255.6,298.6,257,300,258.7,300.1L258.7,300.1l0.2-0.1c0.7,0,1.3-0.3,1.8-0.8c-0.5,0.6-1.1,0.8-1.8,0.9L258.7,300.1L258.7,300.1z     M259.5,299.3c-1.1,0-2.3-0.8-2.4-3.2c-0.1-1.5,0.3-3,1.6-3.1h0c0.8,0,1.3,0.4,1.8,0.8c-0.5-0.4-1-0.8-1.6-0.8    c-1.7,0.1-1.7,2.5-1.7,3c0.1,2.3,1.3,3.1,2.2,3.1c1,0,1.6-0.7,2-1.5c0,0.2-0.1,0.4-0.2,0.6C260.7,298.8,260.2,299.3,259.5,299.3    C259.5,299.3,259.5,299.3,259.5,299.3L259.5,299.3z"/></g>
    <path class="st12"
          d="M262.8,299.2c0.7-0.2,0.9-0.4,0.7-1.1l-1-4.5c-0.1-0.7-0.4-0.8-1.1-0.6l-0.1-0.3l5.6-1.3l1,1.6l-0.3,0.2   c-0.8-0.7-1.9-1.1-3-0.9c-0.8,0.2-0.8,0.5-0.6,1.2l0.4,1.8l0.2,0c0.9-0.2,1.3-0.5,1.4-1.5l0.4-0.1l0.6,2.7l-0.4,0.1   c-0.5-0.9-1-1-1.9-0.8l-0.2,0l0.4,2c0.1,0.5,0.3,0.9,0.9,0.7c1.1-0.3,2-1.2,2.5-2.2l0.3,0.1l-0.3,1.9l-5.6,1.3L262.8,299.2z"/>
    <g><path class="st7" d="M262.8,299.6l-0.1-0.4c0.4-0.1,0.6-0.2,0.7-0.4c0.1-0.2,0.1-0.4,0-0.7l-1-4.5c-0.1-0.5-0.3-0.7-0.6-0.7    l0.2-0.1c0.3,0.2,0.4,0.4,0.5,0.7l1,4.5c0.1,0.3,0.1,0.6,0,0.7c-0.1,0.2-0.3,0.3-0.7,0.4L262.8,299.6l5.6-1.7l0,0.4L262.8,299.6    L262.8,299.6z M265.8,298.5c-0.7,0-0.8-0.4-0.9-0.8l-0.4-2c1.5-0.5,1.4-0.2,1.8,0.2c-0.5-0.3-0.8-0.3-1.6-0.2l0.3,2    c0.1,0.5,0.2,0.7,0.6,0.7c1.3-0.3,2.2-1.1,2.8-2.2l0,0.4c-0.7,0.9-1.6,1.6-2.5,1.8C265.9,298.5,265.8,298.5,265.8,298.5    L265.8,298.5z M264.2,294.1l-0.3-0.7c-0.2-0.7-0.2-1,0.6-1.2c0.8-0.1,1.5,0.1,2.1,0.3c-0.5-0.2-1-0.3-1.5-0.3    c-1.4,0.2-1.3,0.5-1.1,1.2L264.2,294.1L264.2,294.1z"/></g>
    <path class="st12"
          d="M274.7,293.4l-1.3-2.9c-0.3-0.7-0.6-1.1-1.5-0.8l-0.1-0.3l2.3-1l0.1,0.3c-0.8,0.5-0.7,0.9-0.4,1.6l2.1,4.9   l-0.8,0.3l-5.7-3.5l1.5,3.4c0.4,0.9,0.6,1.1,1.6,0.9l0.1,0.3l-2.5,1.1l-0.1-0.3c0.8-0.5,0.8-0.8,0.5-1.6l-1.7-4   c-0.4-0.2-0.8-0.3-1.3-0.2l-0.1-0.3l2.2-1L274.7,293.4z"/>
    <g><path class="st7" d="M270.3,297.8l-0.2-0.3c0.8-0.6,0.8-0.9,0.5-1.6l-1.7-4c-0.2-0.1-0.5-0.2-0.8-0.2l-0.3-0.2    c0.7,0.1,1,0.2,1.2,0.3l1.8,4.1c0.3,0.8,0.3,1.2-0.5,1.7l0.1,0.2l0.5-0.2L270.3,297.8L270.3,297.8z M272.3,296.5    c-0.1,0-0.2,0-0.3,0c-0.5,0-0.7-0.3-1-1l-1.5-3.4l5.7,3.4l0.8-0.4l-2.1-4.8c-0.2-0.5-0.3-0.9-0.1-1.2c-0.1,0.4,0,0.7,0.2,1.2    l2.1,4.9l-0.8,0.4l-5.7-3.5l1.5,3.3c0.4,1,0.5,1.1,1.5,0.9L272.3,296.5L272.3,296.5z M274.7,293.4l-5.1-3.1l-2.1,0.9l-0.1-0.1    l2.2-1L274.7,293.4l-1.4-2.9c-0.2-0.5-0.4-0.9-0.9-0.9l-0.3-0.1l0.3,0c0.5,0,0.7,0.4,1,1L274.7,293.4L274.7,293.4z"/></g>
    <path class="st12"
          d="M279.2,284.8l1.5,1.3l-0.2,0.3c-0.8-0.3-2-0.6-2.7-0.1l3,4.5c0.4,0.6,0.7,0.6,1.3,0.2l0.2,0.3l-2.8,1.9   l-0.2-0.3c0.6-0.4,0.6-0.7,0.3-1.3l-3-4.5c-0.7,0.6-0.9,1.7-0.9,2.6l-0.3,0.1l-0.7-1.9L279.2,284.8z"/>
    <g><path class="st7" d="M279.3,293.2l-0.2-0.3c0.6-0.4,0.6-0.7,0.3-1.3l-3-4.5c-0.7,0.7-0.8,1.8-0.8,2.6l-0.2-0.4    c0.2-0.8,0.4-1.7,1.1-2.3l3.1,4.5c0.4,0.6,0.3,0.9-0.3,1.3l0.1,0.2l0.6-0.4L279.3,293.2L279.3,293.2z M281.4,291.3    c-0.2,0-0.4-0.2-0.7-0.5l-3-4.5c0.5-0.4,1.3-0.4,2.1-0.2c-1,0-1.6-0.1-2.1,0.2l3.1,4.4c0.4,0.6,0.6,0.6,1.2,0.2l-0.4,0.3    C281.5,291.3,281.4,291.3,281.4,291.3L281.4,291.3z M274.6,288.3l-0.1-0.2l4.7-3.3l1.5,1.3c-0.2,0-0.3,0-0.4,0l-1.1-1.3l-4.6,3.2    L274.6,288.3L274.6,288.3z"/></g>
    <path class="st12"
          d="M287.3,284.4c0.7,0.2,1.3,0.4,2-0.1l0.2,0.2l-1.7,1.7c-0.3-0.1-0.6-0.2-0.9-0.3l-1.2-0.5   c-1.3-0.5-1.6-0.3-1.9,0l1.5,1.5c0.5,0.5,0.8,0.5,1.3,0l0.2,0.2l-2.4,2.4l-0.2-0.2c0.5-0.5,0.5-0.8,0-1.3l-3.2-3.3   c-0.5-0.5-0.8-0.5-1.3,0l-0.2-0.2l2.9-2.9c1-1,2.2-1.1,2.9-0.3c0.7,0.8,0.4,1.8-0.1,2.5c0.3-0.1,0.7,0.1,1,0.2L287.3,284.4z    M283.7,285c1.1-1.1,1.1-1.8,0.4-2.5c-0.7-0.7-1.3-0.6-2,0.2c-0.5,0.4-0.3,0.6,0.1,1l1.4,1.5L283.7,285z"/>
    <g><path class="st7" d="M284.4,289.6l-0.2-0.3c0.5-0.5,0.5-0.8,0-1.3l-3.2-3.3c-0.5-0.5-0.7-0.5-1.2,0l0.3-0.4c0.4-0.1,0.6-0.1,1,0.3    l3.2,3.3c0.5,0.5,0.5,0.8-0.1,1.3L284.4,289.6l0.5-0.6L284.4,289.6L284.4,289.6z M285.9,287.4c-0.2,0-0.4-0.1-0.6-0.4l-1.5-1.5    c0.3-0.5,0.8-0.5,1.9-0.1l2.1,0.8l0,0l0.4-0.4l-0.3,0.5l-2.1-0.8c-1.1-0.4-1.5-0.3-1.8,0l1.5,1.5c0.5,0.5,0.7,0.5,1.2,0l-0.3,0.4    C286.1,287.3,286,287.4,285.9,287.4L285.9,287.4z M283.7,285L283.7,285c1.1-1.3,0.9-1.9,0.3-2.5c-0.6-0.6-1.2-0.6-2,0.2    c-0.4,0.4-0.3,0.6,0.1,1l0.6,0.6l-0.7-0.5c-0.4-0.4-0.6-0.6-0.1-1.1c0.8-0.8,1.4-0.9,2.1-0.2C284.9,283.2,284.8,284,283.7,285    L283.7,285z M288.4,284.7c-0.3,0-0.7-0.1-1.1-0.2l-1.1-0.4c-0.3-0.1-0.5-0.2-0.8-0.2c0-0.1,0.1,0,0.2,0c0.3,0,0.5,0.1,0.6,0.1    l1.1,0.4c0.7,0.2,1.4,0.3,1.9-0.1l-0.2,0.3C288.8,284.6,288.6,284.7,288.4,284.7L288.4,284.7z M285.5,283.3c0.2-0.6,0.3-1.3-0.3-2    c-0.7-0.7-1.9-0.6-2.8,0.3l-0.7,0.6l0.6-0.7c1-1,2.2-1.1,2.9-0.3C286,282,285.8,282.8,285.5,283.3L285.5,283.3z"/></g>
    <path class="st12"
          d="M292.1,278.2c0.7,0.2,1.1,0.4,1.6-0.3l0.3,0.2l-1.9,2.7l-0.3-0.2c0.3-0.5,0.3-0.7,0.1-0.9   c-0.1-0.1-0.3-0.2-0.5-0.2l-1.1-0.4l-1.4,2l0.4,0.5c0.1,0.2,0.3,0.5,0.5,0.6c0.4,0.3,0.8,0,1.1-0.3l0.3,0.2l-1.5,2.1l-0.3-0.2   c0.3-0.9,0-1.3-0.4-2l-2.9-4.4l0.4-1.4L292.1,278.2z M286.8,278.1l1.8,2.7l1.2-1.7L286.8,278.1z"/>
    <g><path class="st7" d="M289.7,284.4l-0.3-0.2c0.3-0.9,0-1.3-0.4-2l-2.9-4.4l0.4-1.4l5.7,1.8c0.9,0.3,1.2,0.3,1.6-0.2l-0.2,0.4    c-0.4,0.2-0.8,0.1-1.3-0.1l-5.8-1.9l-0.4,1.4l2.9,4.4c0.5,0.7,0.7,1.2,0.4,2L289.7,284.4l0.3-0.6L289.7,284.4L289.7,284.4z     M290.2,282.5c-0.6-0.3-0.8-0.5-0.9-0.8l-0.4-0.5l1.4-2l1.2,0.4c0.2,0.1,0.4,0.2,0.5,0.3l-1.6-0.6l-1.4,2l0.4,0.5    c0.2,0.2,0.3,0.5,0.5,0.6c0.5,0.1,0.8,0,1-0.3l-0.2,0.3C290.5,282.4,290.3,282.5,290.2,282.5L290.2,282.5z M288.7,280.8l-2-2.8    l3.1,1L288.7,280.8L288.7,280.8z"/></g>
    <path class="st12"
          d="M293.9,277.5c0.3-0.6,0.2-0.9-0.4-1.2l-4.1-2.1c-0.6-0.3-0.9-0.2-1.2,0.4l-0.3-0.1l1.5-3.1l0.3,0.1   c-0.3,0.6-0.2,0.9,0.4,1.2l4.1,2.1c0.5,0.3,0.7,0.4,1-0.3c0.5-1.1,0.3-2.3-0.2-3.3l0.2-0.2l1.4,1.4l-2.5,5.2L293.9,277.5z"/>
    <g><path class="st7" d="M294.2,277.7l-0.3-0.2c0.3-0.7,0.2-0.9-0.4-1.2l-4.1-2.1c-0.7-0.1-0.9,0-1.1,0.4l0.2-0.5    c0.2-0.1,0.3-0.2,0.5-0.2l4.6,2.2c0.6,0.3,0.7,0.6,0.4,1.3L294.2,277.7l2.5-5.3l-0.3-0.2l0.3,0.2L294.2,277.7L294.2,277.7z     M294.8,275.1l-4.7-2.3c-0.4-0.2-0.6-0.4-0.6-0.7c0.1,0.3,0.3,0.5,0.6,0.7l4.1,2.1c0.7,0.2,0.8,0.1,1-0.3c0.4-0.9,0.4-2-0.2-3.3    l0.3,0.2c0.4,1.3,0.4,2.3-0.1,3.1C295.1,275,295,275.1,294.8,275.1L294.8,275.1z"/></g>
    <path class="st12"
          d="M294.6,267.8c0.1-0.5,0.6-0.7,1.1-0.6c0.5,0.1,0.7,0.6,0.6,1.1c-0.1,0.5-0.6,0.7-1.1,0.6   C294.7,268.8,294.5,268.3,294.6,267.8L294.6,267.8z"/>
    <g><path class="st7" d="M295.4,269l-0.3,0c-0.5-0.2-0.7-0.7-0.6-1.2c0.1-0.4,0.5-0.6,0.9-0.6c0.8,0.2,1,0.7,0.9,1.2    C296.2,268.7,295.8,269,295.4,269L295.4,269z"/></g>
    <path class="st12"
          d="M217.3,259.2c0.6-0.5,1.1-0.9,1-1.7l0.3,0l0.4,2.3c-0.2,0.2-0.5,0.4-0.7,0.5l-1.1,0.7   c-1.1,0.8-1.2,1.1-1.1,1.5l2.1-0.3c0.7-0.1,0.8-0.4,0.7-1.1l0.3,0l0.5,3.4l-0.3,0c-0.1-0.7-0.3-0.9-1-0.8l-4.5,0.7   c-0.7,0.1-0.8,0.4-0.7,1l-0.3,0l-0.6-4.1c-0.2-1.4,0.4-2.4,1.4-2.5c1-0.2,1.7,0.7,2,1.6c0.2-0.3,0.5-0.5,0.7-0.7L217.3,259.2z    M215.6,262.5c-0.2-1.6-0.8-1.9-1.8-1.8c-0.9,0.1-1.2,0.7-1,1.8c0.1,0.6,0.3,0.6,0.9,0.5l2-0.3L215.6,262.5z"/>
    <g><path class="st7" d="M212.9,265.6l-0.6-4.1c-0.2-1.4,0.4-2.4,1.4-2.6c1.2-0.2,1.8,1,2,1.6c0.1-0.3,0.4-0.5,0.6-0.7l1-0.7    c0.6-0.5,1.1-0.9,1-1.7l0.2,0.5c-0.2,0.6-0.7,0.9-1.1,1.2l-0.9,0.7c-0.3,0.2-0.6,0.4-0.7,0.7c-0.3-0.6-0.8-1.6-1.8-1.6    c-1.2,0.2-1.8,1.2-1.6,2.5L212.9,265.6l0.4-0.1c-0.1-0.3-0.1-0.6,0.1-0.7c0.1-0.2,0.3-0.3,0.7-0.3l4.5-0.7    c0.4-0.1,0.7,0.1,0.9,0.3c-0.2-0.2-0.4-0.2-0.6-0.2l-4.8,0.7c-0.3,0-0.5,0.1-0.6,0.3c-0.1,0.1-0.1,0.4-0.1,0.7L212.9,265.6    L212.9,265.6z M213.5,263c-0.5,0-0.7-0.2-0.7-0.6c-0.1-0.6,0-1.1,0.2-1.4c0.2-0.2,0.5-0.4,0.9-0.5l0.4,0c0.8,0,1.3,0.6,1.5,1.9    l-0.1,0c-0.3-1.3-0.7-1.8-1.4-1.8v0l-0.4,0.1c-0.4,0.1-0.7,0.2-0.8,0.4c-0.2,0.3-0.3,0.7-0.2,1.3c0.1,0.4,0.2,0.5,0.5,0.5l1.3-0.2    l-0.9,0.2C213.6,263,213.5,263,213.5,263L213.5,263z M216.1,262.6c-0.1-0.4-0.1-0.8,1.1-1.6l1.1-0.7c0.4-0.3,0.6-0.4,0.7-0.5    l-0.1-0.4l0.1,0.4c-0.2,0.2-0.4,0.3-0.5,0.4l-1.3,0.9C216.1,261.8,216.1,262.2,216.1,262.6l2.1-0.4c0.6-0.1,0.8-0.3,0.7-1l0.2,0.6    c-0.1,0.3-0.4,0.5-0.8,0.5L216.1,262.6L216.1,262.6z"/></g>
    <path class="st12"
          d="M218.4,257.1c0-0.7-0.2-0.9-0.8-1L213,256c-0.7,0-0.9,0.2-0.9,0.9l-0.3,0l0.2-5.8l1.8-0.5l0.1,0.3   c-0.9,0.6-1.6,1.6-1.6,2.7c0,0.9,0.3,0.9,0.9,0.9l1.9,0.1l0-0.2c0-1-0.1-1.4-1.1-1.8l0-0.4l2.7,0.1l0,0.4c-1,0.2-1.2,0.7-1.2,1.6   l0,0.2l2,0.1c0.6,0,0.9,0,0.9-0.7c0-1.2-0.6-2.3-1.4-3.1l0.1-0.3l1.7,0.8l-0.2,5.8L218.4,257.1z"/>
    <g><path class="st7" d="M218.7,257.2l-0.4,0c0-0.7-0.2-0.9-0.8-1L213,256c-0.4,0-0.8,0.2-0.9,0.9l0-0.6c0.2-0.2,0.4-0.3,0.8-0.3    l4.7,0.2c0.7,0,0.9,0.3,0.9,1L218.7,257.2l0.1-5.8l-0.3-0.1l0.3,0.1L218.7,257.2L218.7,257.2z M217.6,254.6l-2.1-0.1    c0-0.8,0.1-1.3,0.5-1.6c-0.3,0.4-0.4,0.8-0.4,1.3l1.9,0.2c0,0,0,0,0,0c0.6,0,0.9-0.1,0.9-0.7c0.1-1.4-0.8-2.5-1.4-3l0.4,0.1    c0.5,0.7,1.1,1.7,1.1,2.9C218.5,254.6,218.1,254.6,217.6,254.6L217.6,254.6z M213.2,254.4c-0.7,0-1,0-1-0.9c0-0.6,0.3-1.3,0.8-1.9    c-0.4,0.6-0.6,1.3-0.7,1.9C212.3,254.3,212.5,254.3,213.2,254.4l0.7-0.1L213.2,254.4L213.2,254.4z"/></g>
    <path class="st12"
          d="M216.4,247.2l2,0.4c0.6,0.1,0.9,0,1-0.7l0.3,0.1l-0.7,3.4l-0.3-0.1c0.2-0.7,0-0.9-0.6-1.1l-4.5-1   c-0.6-0.1-0.9,0-1,0.7l-0.3-0.1l0.7-3.4c0.5-2.1,1.5-2.7,2.4-2.5c1.7,0.4,1.5,2.1,1.2,3.4L216.4,247.2z M216.1,247.1l0.1-0.6   c0.3-1.1,0-1.7-1.1-2c-1-0.2-1.6,0.2-1.8,1.1c-0.2,0.8,0.1,0.8,0.8,1L216.1,247.1z"/>
    <g><path class="st7" d="M219,250.4l-0.4-0.1c0-0.4,0-0.6-0.1-0.8c-0.1-0.2-0.3-0.2-0.6-0.3l-4.5-1c-0.7,0-0.9,0.2-1,0.7l0.1-0.5    c0.2-0.2,0.3-0.3,0.6-0.3l4.8,1.1c0.3,0.1,0.5,0.2,0.6,0.4c0.1,0.2,0.1,0.4,0,0.8L219,250.4l0.1-0.8L219,250.4L219,250.4z     M218.7,247.7L218.7,247.7l-2.3-0.5l0.1-0.9c0.3-1.5,0.4-3-1.2-3.4c-1.3,0-2,0.9-2.4,2.5l-0.2,0.8l0.1-0.8    c0.4-1.6,1.1-2.6,2.1-2.6c2,0.4,1.9,2,1.6,3.5l-0.2,0.8l1.9,0.4c0.7,0,0.9-0.2,1-0.7l-0.1,0.5C219.2,247.6,219,247.7,218.7,247.7    L218.7,247.7z M214,246.7c-0.6-0.1-1-0.2-0.8-1c0.2-0.8,0.6-1.2,1.3-1.2l0.5,0.1c1.1,0.3,1.4,0.9,1.2,2h-0.1    c0.2-1.3-0.2-1.7-1.1-2l-0.5-0.1c-0.7,0-1.1,0.4-1.2,1.1C213.2,246.4,213.4,246.4,214,246.7l0.3,0L214,246.7L214,246.7z"/></g>
    <path class="st12"
          d="M218.9,241.3c1.6,0.7,2.2,0.4,2.6-0.6c0.5-1.3-0.1-2-1.4-2.5l-3.1-1.3c-0.6-0.3-0.9-0.1-1.2,0.5l-0.3-0.1   l0.9-2.2l0.3,0.1c-0.3,0.6-0.2,0.9,0.5,1.2l3.2,1.3c1.5,0.6,2.1,1.6,1.4,3.4c-0.7,1.8-1.9,2.3-3.2,1.8l-3.3-1.4   c-0.6-0.3-0.9-0.1-1.2,0.5l-0.3-0.1l1.3-3.2l0.3,0.1c-0.3,0.6-0.2,0.9,0.5,1.2L218.9,241.3z"/>
    <g><path class="st7" d="M219.5,243.1c-0.3,0-0.6-0.1-1-0.2l-3.3-1.4c-0.7-0.1-0.9,0.1-1.1,0.5l0.1-0.5c0.2-0.1,0.3-0.2,0.5-0.2    l3.8,1.5c1.4,0.6,2.5,0,3.1-1.7c0.3-0.8,0.4-1.5,0.2-2.1c-0.2-0.5-0.7-0.9-1.5-1.2l-3.1-1.3c-0.3-0.1-0.5-0.3-0.6-0.5    c-0.1-0.1-0.1-0.3,0-0.5c0.1,0.2,0.1,0.3,0.1,0.4c0.1,0.2,0.2,0.3,0.5,0.4l3.1,1.3c0.8,0.3,1.3,0.8,1.5,1.3    c0.2,0.6,0.2,1.3-0.2,2.1C221.3,242.4,220.5,243.1,219.5,243.1L219.5,243.1z M220.3,241.7L220.3,241.7c-0.4,0-0.8-0.1-1.4-0.4    l-3.1-1.3c-0.4-0.2-0.6-0.4-0.6-0.7c0.1,0.3,0.3,0.5,0.6,0.6l3.1,1.3C219.5,241.5,219.9,241.6,220.3,241.7L220.3,241.7    c0.6-0.1,0.9-0.4,1.2-1c0.5-1.1,0.1-1.9-1.4-2.5l-3.1-1.3c-0.7-0.1-0.9,0.1-1.1,0.5l0.1-0.5c0.2-0.1,0.3-0.2,0.5-0.2l3.6,1.4    c1.4,0.6,1.9,1.4,1.4,2.6C221.3,241.4,220.9,241.7,220.3,241.7L220.3,241.7z"/></g>
    <path class="st12"
          d="M222.7,238.2l-0.3-0.2c0.4-0.6,0.3-0.9-0.3-1.3l-3.8-2.5c-0.6-0.4-0.9-0.3-1.2,0.3l-0.3-0.2l1.9-2.9   c1.3-2.1,2.2-2.1,2.9-1.7c0.8,0.5,0.7,1.6,0.4,2.4l0,0c0.7-0.8,1.6-1.5,2.7-0.8c0.9,0.6,1.1,1.7,0.1,3.3L222.7,238.2z M221,233.5   c0.6-1,0.6-1.7-0.2-2.2c-0.8-0.5-1.4-0.2-1.9,0.6c-0.1,0.2-0.3,0.5-0.2,0.7c0.1,0.2,0.2,0.3,0.4,0.4l1.7,1.1L221,233.5z    M222.8,235.2c0.7,0.4,1,0.7,1.5-0.2c0.5-0.8,0.5-1.6-0.6-2.3c-0.7-0.5-1.4-0.6-2.4,0.9l-0.3,0.5L222.8,235.2z"/>
    <g><path class="st7" d="M222.8,238.2l-0.3-0.2c0.3-0.6,0.3-0.9-0.3-1.3l-3.8-2.5c-0.8-0.2-0.9-0.1-1.2,0.3l0.2-0.5    c0.2-0.1,0.3-0.1,0.4-0.1l0.6,0.2l3.8,2.5c0.6,0.4,0.6,0.7,0.3,1.3L222.8,238.2l2.1-3.5c0.9-1.5,0.9-2.6-0.1-3.2    c-1-0.6-2,0.1-2.7,0.8c0,0,0,0,0-0.1c0.6-0.8,1.7-1.5,2.7-0.8c1,0.7,1.1,1.8,0.1,3.3L222.8,238.2L222.8,238.2z M223.6,235.7    c-0.2,0-0.5-0.2-0.8-0.4l-1.7-1.1c1.2-2.1,1.7-2.1,2.7-1.5c1.2,0.8,1,1.7,0.6,2.3C224.1,235.5,223.9,235.7,223.6,235.7    L223.6,235.7z M222.9,232.5c-0.5,0-1,0.4-1.5,1.2l1.4,1.5c0.8,0.5,1,0.6,1.5-0.2c0.5-0.9,0.4-1.6-0.5-2.2    C223.4,232.6,223.2,232.5,222.9,232.5L222.9,232.5z M221.1,233.5L221.1,233.5c0.5-1.2,0.4-1.8-0.3-2.2c-0.7-0.5-1.3-0.3-1.8,0.5    c-0.1,0.1-0.1,0.3-0.2,0.4c0-0.2,0-0.4,0.1-0.5c0.6-0.9,1.2-1.1,2-0.6C221.7,231.7,221.7,232.4,221.1,233.5L221.1,233.5z     M218.4,232.2l0.3-0.7c1.1-1.7,2-2.3,3-1.7c0.9,0.6,0.6,1.8,0.4,2.4c0.1-0.6,0.4-1.8-0.5-2.3c-0.9-0.6-1.8-0.1-2.9,1.6    L218.4,232.2L218.4,232.2z"/></g>
    <path class="st12"
          d="M226.3,232c0.5-0.5,0.5-0.8,0-1.3l-3.4-3.1c-0.5-0.4-0.8-0.4-1.3,0.1l-0.2-0.2l2.3-2.5l0.2,0.2   c-0.5,0.5-0.5,0.8,0,1.3l3.4,3.1c0.4,0.4,0.6,0.5,1.1,0c0.8-0.9,0.9-2.1,0.7-3.2l0.2-0.1l1,1.7l-3.8,4.3L226.3,232z"/>
    <g><path class="st7" d="M226.5,232.3l-0.3-0.3c0.2-0.3,0.3-0.5,0.3-0.7c0-0.2-0.1-0.4-0.4-0.6l-3.4-3.1c-0.5-0.4-0.7-0.4-1.2,0.1    l0.3-0.4c0.4-0.2,0.6-0.1,1,0.2l3.4,3.1c0.3,0.2,0.4,0.4,0.4,0.6c0,0.2-0.1,0.4-0.4,0.7L226.5,232.3l3.8-4.4l-0.2-0.3l0.2,0.3    L226.5,232.3L226.5,232.3z M227.9,230c-0.2,0-0.3-0.1-0.6-0.4l-3.4-3.1c-0.3-0.3-0.5-0.6-0.4-0.9c0,0.3,0.1,0.5,0.4,0.8l3.4,3.1    C227.6,229.8,227.7,229.9,227.9,230c1.1-1.1,1.4-2.2,1.2-3.6l0.2,0.3c0,1.3-0.3,2.3-0.9,3C228.2,229.9,228.1,230,227.9,230    L227.9,230z"/></g>
    <path class="st12"
          d="M227.9,222.5c-0.4-0.5-0.7-0.5-1.3-0.1l-0.2-0.3l2.6-2.2l0.2,0.2c-0.5,0.4-0.6,0.8-0.1,1.3l2.9,3.6   c0.4,0.5,0.7,0.5,1.3,0.1l0.2,0.2l-2.6,2.2l-0.2-0.2c0.5-0.4,0.6-0.8,0.1-1.3L227.9,222.5z"/>
    <g><path class="st7" d="M230.9,227.6l-0.2-0.3c0.5-0.5,0.5-0.8,0.1-1.3l-2.9-3.5c-0.4-0.5-0.7-0.5-1.2-0.1l0.3-0.4    c0.4-0.1,0.6,0,0.9,0.4l2.9,3.5c0.4,0.5,0.4,0.9-0.2,1.3l0.1,0.2l0.6-0.5L230.9,227.6L230.9,227.6z M232.7,225.5    c-0.2,0-0.4-0.1-0.7-0.4l-2.9-3.6c-0.3-0.4-0.4-0.6-0.2-0.9c0,0.3,0,0.5,0.3,0.8l2.9,3.6c0.4,0.5,0.7,0.5,1.2,0.1l-0.3,0.3    C232.9,225.5,232.8,225.5,232.7,225.5L232.7,225.5z"/></g>
    <path class="st12"
          d="M236.1,217.7l-0.3,0.3c-0.8-0.6-2-1-2.9-0.4c-1.2,0.8-0.5,2.5,0.1,3.5c1.2,2,2.7,2.2,3.6,1.6   c0.8-0.5,0.9-1.4,1-2.2l0.3,0c0.1,1.3-0.3,2.5-1.4,3.2c-1.6,1-3.6,0.4-4.5-1.2c-1.1-1.7-1-4,0.7-5.1c0.3-0.2,0.6-0.3,0.8-0.3   c0.2-0.1,0.5-0.1,0.6-0.2c0.2-0.1,0.3-0.3,0.5-0.6l0.1-0.1L236.1,217.7z"/>
    <g><path class="st7" d="M234.7,224.2c-1.1,0-2.3-0.6-2.9-1.7c-1-1.6-1-4,0.7-5.2c0.3-0.2,0.6-0.3,0.8-0.3l0.6-0.2    c0.2-0.1,0.3-0.3,0.4-0.5l0,0c-0.1,0.3-0.2,0.4-0.4,0.5l-0.6,0.2c-0.2,0.1-0.5,0.1-0.8,0.3c-1.7,1.1-1.7,3.5-0.7,5    c1,1.5,3,2.1,4.5,1.2c0.6-0.4,1-0.9,1.3-1.6c-0.1,0.7-0.6,1.3-1.2,1.7C235.9,224,235.3,224.2,234.7,224.2L234.7,224.2z M235.6,223    c-0.5,0-1.6-0.2-2.7-1.9c-0.8-1.2-1.2-2.8-0.1-3.5c0.7-0.4,1.6-0.3,2.3,0c-0.8-0.2-1.6-0.3-2.3,0.1c-1.4,0.9-0.2,3,0.1,3.4    c1.6,2.6,2.8,2,3.5,1.6c0.8-0.5,0.9-1.4,1-2.2c0.1,0.2,0.1,0.4,0.1,0.6c-0.2,0.6-0.4,1.3-1.1,1.7C236.3,222.9,235.9,223,235.6,223    L235.6,223z"/></g>
    <path class="st12"
          d="M243.8,218.2c0.5,0.6,0.7,1,1.5,0.7l0.1,0.3l-3.1,1.3l-0.1-0.3c0.6-0.3,0.6-0.4,0.5-0.7   c-0.1-0.2-0.2-0.3-0.3-0.5l-0.7-0.9l-2.2,0.9l0,0.6c0,0.3,0,0.6,0.1,0.8c0.2,0.5,0.7,0.5,1.1,0.3l0.1,0.3l-2.3,1l-0.1-0.3   c0.7-0.6,0.7-1.1,0.7-1.9l-0.1-5.3l1.1-0.9L243.8,218.2z M239.4,215.2l0.1,3.3l1.9-0.8L239.4,215.2z"/>
    <g><path class="st7" d="M238.4,222.1l-0.1-0.3c0.7-0.6,0.7-1.1,0.7-1.9l-0.1-5.3l1.1-1l3.8,4.7c0.4,0.5,0.6,0.8,1,0.8l0.3,0.2    c-0.8-0.1-1-0.4-1.3-0.7l-3.9-4.8l-1,1l0.2,5.3c0,0.8,0,1.4-0.7,2l0.1,0.2l2.3-1c-0.8-0.1-1.1-0.2-1.2-0.6    c-0.1-0.3-0.1-0.6-0.1-0.8l0-0.7l2.3-1l0.8,0.9c0.1,0.2,0.2,0.4,0.2,0.5l-1.1-1.4l-2.2,0.9l0.1,0.6c0,0.3,0,0.6,0.1,0.8    c0.1,0.3,0.4,0.4,0.6,0.4l0,0l0.6,0.3L238.4,222.1L238.4,222.1z M239.5,218.5l-0.2-3.5l2.1,2.6L239.5,218.5L239.5,218.5z"/></g>
    <path class="st12"
          d="M248.2,218.1c0.7-0.1,0.9-0.3,0.8-1l-0.5-4.6c-0.1-0.7-0.3-0.9-1-0.8l0-0.3l3.3-0.4c0.6-0.1,1.1-0.1,1.6,0.1   c1.3,0.4,2.3,1.4,2.5,3.1c0.2,1.6-0.6,2.8-1.7,3.4c-0.5,0.3-1,0.4-1.6,0.4l-3.3,0.4L248.2,218.1z M250.6,216.9   c0.1,0.7,0.1,0.9,0.9,0.8c1.2-0.1,2-0.9,1.7-3.5c-0.3-2.3-1.2-2.8-2.5-2.7c-0.7,0.1-0.7,0.4-0.6,1L250.6,216.9z"/>
    <g><path class="st7" d="M248.2,218.5l0-0.4c0.7-0.1,0.9-0.3,0.8-1l-0.5-4.6c-0.1-0.6-0.2-0.8-0.7-0.8l0.3-0.1    c0.3,0.2,0.4,0.4,0.5,0.8l0.5,4.6c0.1,0.7-0.1,0.9-0.9,1L248.2,218.5L248.2,218.5l3.3-0.5c0.7-0.1,1.2-0.2,1.6-0.4    c1.2-0.6,1.8-1.9,1.7-3.3c-0.2-1.5-1.1-2.7-2.4-3c-0.5-0.1-1-0.1-1.6-0.1l-0.7,0.1l0.6-0.2c0.6-0.1,1.2-0.1,1.7,0.1    c1.4,0.4,2.3,1.5,2.5,3.1c0.2,1.4-0.5,2.8-1.7,3.4c-0.4,0.2-0.9,0.4-1.6,0.4L248.2,218.5L248.2,218.5z M251.4,217.7    c-0.8,0-0.8-0.3-0.9-0.9l-0.5-4.4c-0.1-0.6-0.1-0.9,0.7-1l0.4,0c1.3,0,1.9,0.9,2.1,2.8C253.5,216.5,253,217.6,251.4,217.7    C251.5,217.7,251.4,217.7,251.4,217.7L251.4,217.7z M251.1,211.5l-0.4,0.1c-0.7,0.1-0.7,0.3-0.6,0.9l0.5,4.4    c0.1,0.6,0.1,0.8,0.6,0.8c1.3-0.1,2.3-0.6,2-3.5C252.9,212.3,252.3,211.5,251.1,211.5L251.1,211.5L251.1,211.5z"/></g>
    <path class="st12"
          d="M255.3,217.4c0.7,0,0.9-0.2,1-0.8l0.3-4.6c0-0.7-0.2-0.9-0.9-0.9l0-0.3l5.7,0.4l0.5,1.8l-0.3,0.1   c-0.6-0.9-1.5-1.7-2.6-1.7c-0.8,0-0.9,0.2-0.9,0.9l-0.1,1.9l0.2,0c0.9,0.1,1.4-0.1,1.8-1l0.4,0l-0.2,2.8l-0.4,0   c-0.2-1-0.7-1.2-1.6-1.3l-0.2,0l-0.1,2c0,0.6,0,0.9,0.7,1c1.2,0.1,2.3-0.5,3.1-1.3l0.3,0.1l-0.8,1.7l-5.7-0.4L255.3,217.4z"/>
    <g><path class="st7" d="M261.1,218.1L261.1,218.1l-5.7-0.4c0.2-0.1,0.3-0.2,0.5-0.3L261.1,218.1l0.1-0.5L261.1,218.1L261.1,218.1z     M258.8,217.6c-0.9-0.1-1-0.5-0.9-1l0.1-2c0.8,0,1.2,0.1,1.5,0.5c-0.4-0.3-0.8-0.4-1.3-0.4l-0.3,2c0,0.5,0,0.9,0.6,0.9    c0,0,0,0,0,0c1.2,0,2.2-0.5,3-1.3l-0.1,0.4C260.6,217.2,259.7,217.6,258.8,217.6L258.8,217.6z M255.9,217.4    c0.3-0.2,0.4-0.4,0.4-0.8l0.3-4.6c0-0.6-0.2-0.8-0.8-0.9h0.6c0.2,0.2,0.3,0.5,0.3,0.9l-0.3,4.6C256.3,217,256.2,217.3,255.9,217.4    L255.9,217.4z M258.2,212.5l-0.1-0.3c0-0.7,0.1-1,0.8-1c0.7,0,1.4,0.3,2,0.8c-0.6-0.4-1.2-0.7-1.8-0.7c0,0,0,0,0,0    c-0.8,0-0.8,0.2-0.8,0.9L258.2,212.5L258.2,212.5z"/></g>
    <path class="st12"
          d="M270.5,218.4l1-3c0.3-0.8,0.3-1.2-0.5-1.6l0.1-0.3l2.4,0.8l-0.1,0.3c-0.9-0.1-1.1,0.2-1.4,1l-1.7,5.1   l-0.8-0.3l-1.9-6.4l-1.2,3.5c-0.3,1-0.3,1.2,0.6,1.7l-0.1,0.3l-2.5-0.9l0.1-0.3c0.9,0.2,1.2-0.1,1.4-0.9l1.4-4.2   c-0.1-0.4-0.4-0.8-0.8-1l0.1-0.3l2.3,0.8L270.5,218.4z"/>
    <g><path class="st7" d="M270.3,220.7l-0.9-0.3l-1.9-6.4l-1.1,3.5c-0.3,1-0.3,1.2,0.6,1.7l-0.5-0.1c-0.4-0.5-0.4-0.8-0.1-1.6l1.2-3.5    l2,6.4l0.7,0.2l1.7-5c0.2-0.6,0.4-1,0.9-1c-0.5,0.3-0.6,0.6-0.8,1.1L270.3,220.7L270.3,220.7z M266,218.9l-1.6-0.3l0,0l0.6-0.3    c0.5,0,0.7-0.2,0.9-0.9l1.4-4.2c-0.1-0.4-0.4-0.7-0.8-0.9l0.4,0.1c0.2,0.3,0.4,0.6,0.5,0.9l-1.4,4.2c-0.2,0.7-0.4,1-1,1L266,218.9    L266,218.9z M270.5,218.4l-1.7-5.7l-0.4-0.1l0.4,0.1L270.5,218.4l0.9-3.1c0.3-0.8,0.3-1.2-0.5-1.6l0.5,0.1    c0.4,0.5,0.3,0.9,0.1,1.5L270.5,218.4L270.5,218.4z"/></g>
    <path class="st12"
          d="M274.5,216.3c0.3-0.6,0.2-0.9-0.4-1.2l0.1-0.3l3,1.6l-0.1,0.3c-0.6-0.3-0.9-0.2-1.2,0.4l-2.1,4.1   c-0.3,0.6-0.2,0.9,0.4,1.2l-0.1,0.3l-3-1.5l0.1-0.3c0.6,0.3,0.9,0.2,1.2-0.4L274.5,216.3z"/>
    <g><path class="st7" d="M274.1,222.6l-3-1.5l0.4-0.1l2.6,1.6l0.1-0.2c-0.6-0.3-0.7-0.6-0.4-1.2l2.1-4.1c0.2-0.4,0.4-0.6,0.7-0.6    l0.2,0l-0.2,0c-0.2,0-0.4,0.2-0.6,0.5l-2.1,4.1c-0.3,0.6-0.2,0.9,0.4,1.2L274.1,222.6L274.1,222.6z M271.8,221l-0.2,0L271.8,221    L271.8,221c0.2-0.1,0.4-0.2,0.6-0.6l2.1-4.1c0.3-0.6,0.2-0.8-0.4-1.1l0.5,0.2c0.2,0.3,0.2,0.6-0.1,1l-2.1,4.1    C272.3,220.8,272.1,221,271.8,221L271.8,221z"/></g>
    <path class="st12"
          d="M282.2,221.9l-0.4-0.1c0.2-1,0.1-2.3-0.8-2.9c-1.2-0.8-2.5,0.5-3.1,1.5c-1.3,1.9-0.9,3.4,0,4   c0.8,0.5,1.6,0.3,2.4,0l0.1,0.3c-1.2,0.6-2.3,0.7-3.5-0.1c-1.6-1.1-1.8-3.1-0.8-4.7c1.1-1.6,3.3-2.5,4.9-1.4   c0.3,0.2,0.5,0.4,0.6,0.6c0.2,0.2,0.3,0.4,0.4,0.5c0.2,0.1,0.5,0.2,0.7,0.2l0.1,0L282.2,221.9z"/>
    <g><path class="st7" d="M278.5,225.1c-0.6,0-1.2-0.2-1.7-0.6c-1.5-1-1.9-3.1-0.8-4.7c1.2-1.7,3.5-2.4,5-1.4c0.3,0.2,0.5,0.4,0.6,0.6    l0.4,0.5c0.2,0.1,0.4,0.2,0.7,0.2l0,0c-0.2-0.1-0.5,0-0.7-0.2l-0.4-0.5l0,0c-0.2-0.2-0.3-0.4-0.6-0.6c-1.5-1-3.7-0.3-4.8,1.4    c-1.1,1.6-0.7,3.6,0.7,4.6c0.8,0.6,1.7,0.7,2.7,0.4C279.2,225.1,278.9,225.1,278.5,225.1L278.5,225.1z M278.9,224.7    c-0.4,0-0.8-0.1-1.1-0.3c-0.9-0.6-1.3-2.1,0-4c0.7-1.1,2.1-2.2,3.2-1.5c0.6,0.4,0.9,1.2,0.9,1.8c-0.1-0.6-0.4-1.3-1-1.7    c-1-0.7-2.3,0.4-3,1.5c-1.2,1.8-0.9,3.3,0,3.9c0.7,0.5,1.7,0.3,2.4,0c-0.1,0.1-0.2,0.2-0.2,0.3    C279.6,224.6,279.2,224.7,278.9,224.7L278.9,224.7z"/></g>
    <path class="st12"
          d="M284.8,229.2c-0.3,0.6-0.6,1.1,0,1.7l-0.2,0.2l-2.4-2.3l0.2-0.2c0.4,0.4,0.6,0.4,0.8,0.2   c0.1-0.1,0.2-0.3,0.3-0.5l0.5-1l-1.7-1.7l-0.6,0.3c-0.2,0.1-0.5,0.3-0.7,0.4c-0.3,0.3-0.2,0.8,0.1,1.1l-0.2,0.2l-1.8-1.8l0.2-0.2   c0.8,0.4,1.3,0.2,2-0.1l4.8-2.3l1.3,0.7L284.8,229.2z M285.7,223.9l-2.9,1.4l1.5,1.5L285.7,223.9z"/>
    <g><path class="st7" d="M284.5,231.2l-2.4-2.3c0.2,0,0.3,0,0.4,0L284.5,231.2l0.2-0.3c-0.6-0.5-0.4-1-0.1-1.6l2.8-5.5l-1.3-0.6    l-4.7,2.3c-0.7,0.3-1.1,0.5-1.8,0.3c0.2,0,0.4,0,0.6,0c0.4,0,0.7-0.2,1.2-0.4l4.8-2.3l1.3,0.7l-2.7,5.4c-0.4,0.7-0.6,1.1,0,1.6    L284.5,231.2L284.5,231.2L284.5,231.2L284.5,231.2z M283,229c-0.1,0-0.2,0-0.4-0.1C282.8,228.8,282.9,228.9,283,229l1.1-1.7    l-1.7-1.7l-0.5,0.3c-0.3,0.1-0.5,0.3-0.7,0.4c-0.4,0.4,0,0.9,0.1,1l-0.4-0.3c-0.1-0.3-0.1-0.6,0.2-0.8c0.2-0.2,0.4-0.3,0.6-0.4    l0.6-0.3l1.8,1.7L283,229L283,229z"/></g>
    <path class="st12"
          d="M289.2,235.2c-0.3,0.7-0.6,1.3-0.2,2l-0.3,0.2l-1.3-1.9c0.1-0.3,0.3-0.5,0.4-0.8l0.7-1.1   c0.7-1.2,0.6-1.5,0.3-1.9l-1.8,1.2c-0.6,0.4-0.6,0.7-0.2,1.3l-0.3,0.2l-1.9-2.8l0.3-0.2c0.4,0.6,0.7,0.6,1.2,0.3l3.8-2.6   c0.5-0.4,0.6-0.7,0.2-1.3l0.3-0.2l2.3,3.4c0.8,1.2,0.7,2.3-0.2,2.9c-0.9,0.6-1.8,0.1-2.4-0.6c0,0.4-0.2,0.7-0.4,1L289.2,235.2z    M289.3,231.5c0.9,1.3,1.6,1.4,2.4,0.8c0.8-0.5,0.8-1.2,0.2-2c-0.3-0.5-0.6-0.4-1-0.1l-1.7,1.2L289.3,231.5z"/>
    <g><path class="st7" d="M288.7,237.4l-1.3-1.9c0.1-0.2,0.2-0.4,0.3-0.6l0.8-1.4c0.7-1.1,0.6-1.5,0.3-1.8l-1.7,1.2    c-0.5,0.4-0.6,0.6-0.2,1.2l-0.4-0.4c0-0.3,0.1-0.6,0.5-0.8l1.8-1.2c0.3,0.4,0.4,0.8-0.3,1.9l-0.7,1.1c-0.2,0.4-0.3,0.6-0.4,0.8    L288.7,237.4l0.3-0.2c-0.4-0.7-0.1-1.3,0.2-2l0.6-1c0.2-0.4,0.4-0.7,0.4-1c0.9,0.8,1.8,1,2.5,0.5c0.8-0.6,0.9-1.7,0.2-2.8    l-0.5-0.7l0.6,0.7c0.8,1.2,0.7,2.4-0.2,3c-0.7,0.5-1.7,0.3-2.5-0.6c0.1,0.3-0.1,0.6-0.2,0.9l-0.6,1.1c-0.3,0.6-0.6,1.2-0.2,1.9    L288.7,237.4L288.7,237.4z M290.9,232.7c-0.5,0-1-0.4-1.6-1.2l0,0c0.9,1.2,1.5,1.4,2.4,0.8c0.7-0.5,0.8-1.1,0.2-2l-0.4-0.4    l-1.2,0.8l1.2-0.8l0.5,0.4c0.6,0.9,0.6,1.6-0.2,2.1C291.4,232.6,291.1,232.7,290.9,232.7L290.9,232.7z M285.7,231.8    c-0.2,0-0.3-0.1-0.5-0.2C285.4,231.7,285.5,231.7,285.7,231.8l4.3-2.9c0.3-0.2,0.4-0.3,0.4-0.5c0-0.2,0-0.4-0.2-0.7l0.3,0.4    c0,0.1,0,0.2,0,0.3c0,0.2-0.2,0.4-0.5,0.6l-3.8,2.6C286,231.7,285.8,231.8,285.7,231.8L285.7,231.8z"/></g>
    <path class="st12"
          d="M292.7,243c-0.6,0.5-1,0.7-0.7,1.5l-0.3,0.1l-1.3-3.1l0.3-0.1c0.3,0.6,0.4,0.6,0.7,0.5   c0.2-0.1,0.3-0.2,0.5-0.3l0.9-0.7l-0.9-2.3l-0.6,0c-0.3,0-0.6,0-0.8,0.1c-0.4,0.2-0.5,0.7-0.3,1.1l-0.3,0.1l-1-2.4l0.3-0.1   c0.6,0.7,1.1,0.7,1.9,0.7l5.3-0.2l0.9,1.1L292.7,243z M295.6,238.6l-3.2,0.1l0.8,1.9L295.6,238.6z"/>
    <g><path class="st7" d="M291.7,244.7l-1.3-3.1c0.2,0.1,0.3,0.1,0.4,0.2L291.7,244.7l0.3-0.2c-0.3-0.7,0.1-1,0.6-1.4l4.7-3.9l-0.9-1.1    l-5.2,0.2c-0.8,0-1.1-0.1-1.5-0.3c0.4,0.1,0.7,0.2,1.1,0.2l5.6-0.2l1,1.1l-4.6,3.9c-0.6,0.5-0.9,0.8-0.7,1.5L291.7,244.7    L291.7,244.7z M291.3,242.1c-0.1,0-0.2-0.1-0.4-0.2C291.1,241.9,291.2,242,291.3,242.1l1.5-1.2l-0.9-2.2l-0.6,0.1    c-0.3,0-0.6,0-0.8,0.1c-0.5,0.2-0.4,0.8-0.3,1l-0.2-0.4c0.1-0.4,0.2-0.6,0.5-0.7c0.2-0.1,0.5-0.1,0.7-0.1l0.8,0l1,2.3L291.3,242.1    L291.3,242.1z"/></g>
    <path class="st12"
          d="M297.9,249.7l-0.2-0.3c0.9-1.1,1.4-1.8,1.3-2.6c-0.2-0.9-1.2-1.7-3.6-1.2c-2.3,0.5-3.1,1.4-2.8,2.4   c0.2,1,1,1,1.9,0.9c0.8-0.2,0.8-0.4,0.7-1.1l0.4-0.1l0.6,3.2l-0.4,0.1c-0.2-0.7-0.5-0.8-1.2-0.6l-1.4,0.3c-0.1-0.7-0.2-0.7-0.5-1.3   c-0.3-0.5-0.5-0.9-0.6-1.4c-0.4-2,0.7-3.6,2.7-4c1.9-0.4,4.1,0.6,4.5,2.6c0.1,0.3,0,0.5,0,0.8c0,0.2-0.1,0.4,0,0.6   c0,0.2,0.3,0.6,0.4,0.7L297.9,249.7z"/>
    <g><path class="st7" d="M295.7,251c-0.2-0.5-0.3-0.7-0.6-0.7l-1.8,0.3c-0.2-0.7-0.2-0.7-0.5-1.2c-0.3-0.5-0.5-0.9-0.6-1.5    c-0.2-1-0.1-1.9,0.4-2.6c0.5-0.7,1.3-1.2,2.3-1.4c1.8-0.4,4.1,0.4,4.5,2.7c0.1,0.2,0,0.5,0,0.7l0,0.7c0,0.2,0.2,0.5,0.4,0.7    l-1.9,1c0.1-0.2,0.2-0.3,0.2-0.5l1.6-0.6c-0.2-0.1-0.4-0.4-0.4-0.7l0-0.6c0-0.3,0-0.5,0-0.7c-0.4-2.2-2.7-2.9-4.4-2.6    c-1,0.2-1.8,0.7-2.2,1.4c-0.5,0.7-0.6,1.6-0.4,2.5c0.1,0.5,0.3,0.9,0.5,1.4c0.3,0.6,0.3,0.6,0.5,1.3l1.3-0.3    C295.4,250.2,295.6,250.4,295.7,251l0.4-0.1l-0.1-0.3l0.1,0.3L295.7,251L295.7,251z M293.7,249c-0.7,0-1-0.3-1.2-1    c-0.2-1.2,0.7-2,2.9-2.5c2.7-0.6,3.5,0.7,3.6,1.2c0.1,0.5-0.1,1-0.4,1.5c0.3-0.6,0.4-1,0.3-1.5c-0.1-0.5-0.9-1.7-3.5-1.1    c-2.1,0.4-3,1.2-2.8,2.4c0.2,0.8,0.9,1,1.8,0.8c0.7-0.2,0.8-0.3,0.7-1.1l0.2,0.6c-0.1,0.3-0.3,0.5-0.8,0.6    C294.2,249,293.9,249,293.7,249L293.7,249z"/></g>
    <path class="st12"
          d="M295.5,253.5c-1.7,0-2.2,0.6-2.2,1.6c0,1.4,0.9,1.8,2.3,1.8l3.3-0.1c0.7,0,0.9-0.3,0.9-0.9h0.3l0,2.4l-0.3,0   c0-0.7-0.2-0.9-0.9-0.9l-3.4,0.1c-1.6,0-2.5-0.7-2.6-2.5c0-1.9,0.8-2.9,2.3-2.9l3.6-0.1c0.7,0,0.9-0.3,0.9-0.9h0.3l0.1,3.4l-0.3,0   c0-0.7-0.2-0.9-0.9-0.9L295.5,253.5z"/>
    <g><path class="st7" d="M299.7,258.2c0-0.7-0.2-0.9-0.8-0.9l-3.4,0.1h0c-1.8,0-2.6-0.8-2.6-2.6c0-1,0.2-1.8,0.7-2.3    c0.4-0.4,0.9-0.6,1.6-0.6l3.6-0.1c0.6,0,0.8-0.2,0.8-0.9l0.1,0.6c-0.2,0.3-0.4,0.4-0.9,0.4l-3.6,0.1c-0.7,0-1.2,0.2-1.6,0.6    c-0.5,0.5-0.7,1.2-0.7,2.3c0,1.7,0.8,2.5,2.4,2.5l3.5-0.1l0,0C299.6,257.2,299.8,257.5,299.7,258.2l0.4-0.1l0-0.3l0.1,0.3    L299.7,258.2L299.7,258.2L299.7,258.2L299.7,258.2z M295.5,256.9c-1.6,0-2.3-0.6-2.3-1.8c0-0.5,0.1-0.9,0.4-1.1    c0.3-0.3,0.9-0.5,1.9-0.5l3.3-0.1l0,0c0.5,0,0.7,0.1,0.8,0.4c-0.2-0.2-0.4-0.3-0.8-0.3l-3.4,0.1c-0.9,0-1.5,0.2-1.8,0.5    c-0.2,0.2-0.3,0.6-0.3,1.1c0,1.2,0.7,1.7,2.1,1.7l3.4-0.1c0.6,0,0.8-0.2,0.8-0.9l0.1,0.5c-0.2,0.3-0.4,0.4-0.9,0.5L295.5,256.9    L295.5,256.9L295.5,256.9z"/></g>
    <path class="st12"
          d="M293.7,264.3c-0.7,0.1-1.2,0.1-1.4,1l-0.3,0l0.5-3.3l0.3,0c-0.1,0.6,0,0.8,0.3,0.8c0.2,0,0.4,0,0.6,0l1.2-0.2   l0.4-2.4l-0.6-0.3c-0.2-0.1-0.5-0.3-0.7-0.3c-0.5-0.1-0.7,0.3-0.8,0.7l-0.3,0l0.4-2.5l0.3,0c0.1,0.9,0.5,1.2,1.3,1.6l4.6,2.7   l0.2,1.4L293.7,264.3z M298.5,262l-2.8-1.6l-0.3,2.1L298.5,262z"/>
    <g><path class="st7" d="M292.3,265.3l-0.4-0.1l0.5-3.4c0.1,0.2,0.2,0.3,0.2,0.4l-0.7,2.9L292.3,265.3L292.3,265.3    c0.1-0.9,0.6-1,1.2-1l6-0.9l-0.3-1.4l-4.5-2.6c-0.5-0.3-0.9-0.5-1.1-0.9c0.3,0.4,0.7,0.6,1.1,0.9l4.6,2.7l0.2,1.5l-5.9,0.9    C292.9,264.5,292.5,264.5,292.3,265.3L292.3,265.3L292.3,265.3z M293.7,262.8c-0.2,0-0.4,0-0.6-0.1l1.7-0.2l0.4-2.4l-0.5-0.3    c-0.3-0.1-0.5-0.3-0.7-0.3c-0.6,0.1-0.7,0.5-0.8,0.7v-0.4c0.2-0.2,0.4-0.4,0.7-0.4c0.4,0.1,0.6,0.2,0.9,0.3l0.6,0.3l-0.4,2.5    L293.7,262.8L293.7,262.8z"/></g></g></svg>
