<?xml version="1.0" ?>
<svg id="Layer_1" style="enable-background:new 0 0 512 512;" version="1.1" viewBox="0 0 512 512" xml:space="preserve"
     xmlns="http://www.w3.org/2000/svg"><style type="text/css">
	.st0 {
    fill: #357A5F;
  }

  .st1 {
    fill: #FFFFFF;
  }

  .st2 {
    fill: #F2D031;
  }
</style>
  <g><rect class="st0" height="298.7" width="512" y="106.7"/>
    <path class="st1"
          d="M256,276.3c-7.6,5.2-15.5,16.5-33.9,16.5c-26,0-35.7-7.6-43.4-13.4c-0.3-0.9,6.6-4,6.6-4   c10.4,7.3,22,13.7,43.7,12.8c-26.7-2.4-44.9-16.9-50.3-30.4c14.5-10,38.5-9.8,58.1,4c-6.1-7.6-26.7-16-42-13.6   c-2.2-2.3-4.1-5.1-6.3-7.4c17.6-3.9,42.2,7.3,51.2,16.5c-9.5-15-16.4-32.1-5.2-52.8c2.2,2.1,4.7,4.2,6.9,6.3   c-8.4,15.2-5.4,33,1.4,45.4c-11.8-24-2.3-47.8,13.2-59.3c15.5,11.5,25,35.3,13.2,59.3c6.8-12.4,9.9-30.2,1.4-45.4   c2.2-2.1,4.7-4.2,6.9-6.3c11.2,20.7,4.3,37.8-5.2,52.8c9-9.2,33.6-20.3,51.2-16.5c-2.2,2.3-4.1,5.1-6.3,7.4   c-15.3-2.4-35.9,6.1-42,13.6c19.7-13.8,43.6-14,58.1-4c-5.5,13.4-23.6,28-50.3,30.4c21.7,0.9,33.3-5.5,43.7-12.8c0,0,6.9,3.1,6.6,4   c-7.7,5.8-17.4,13.4-43.4,13.4C271.5,292.9,263.6,281.5,256,276.3"/>
    <path class="st1"
          d="M256,281.4c-10.8,9-17.4,14.7-31.7,14.7L181,296c1.1,2.1,2.3,4.1,3.5,6l41,0.1c19.7,0,30.5-12.5,30.5-12.5   s10.8,12.5,30.5,12.5l41-0.1c1.3-1.9,2.4-4,3.5-6l-43.3,0C273.4,296,266.8,290.3,256,281.4"/>
    <polygon class="st2"
             points="256,155.6 260,167.7 272.8,167.7 262.4,175.1 266.4,187.1 256,179.7 245.6,187.1 249.6,175.1    239.2,167.7 252,167.7  "/>
    <polygon class="st2"
             points="179,209.4 186.8,211.1 190.7,204.3 191.6,212.1 199.4,213.7 192.1,216.9 192.9,224.7 187.6,218.9    180.3,222.1 184.3,215.3  "/>
    <polygon class="st2"
             points="206,174.4 211.9,179.7 218.8,175.7 215.6,182.9 221.5,188.2 213.6,187.4 210.4,194.6 208.7,186.9    200.8,186 207.7,182.1  "/>
    <polygon class="st2"
             points="333,209.4 325.2,211.1 321.3,204.3 320.4,212.1 312.6,213.7 319.9,216.9 319.1,224.7 324.4,218.9    331.7,222.1 327.7,215.3  "/>
    <polygon class="st2"
             points="306,174.4 300.1,179.7 293.2,175.7 296.4,182.9 290.5,188.2 298.4,187.4 301.6,194.6 303.3,186.9    311.2,186 304.3,182.1  "/>
    <path class="st1"
          d="M188.3,307.4c0.5,0.7,1.1,1.4,1.6,2.1h132.1c0.6-0.7,1.1-1.4,1.6-2.1H188.3z M195.6,315.8   c1.4,1.4,2.9,2.8,4.5,4.2H312c1.5-1.3,3-2.7,4.5-4.2H195.6z M205.2,324.1c3.1,2.3,6.4,4.4,9.8,6.3h82c3.4-1.9,6.7-4,9.8-6.3H205.2z    M219.1,332.5c10.9,5.2,23,8.2,35.8,8.4h2.2c12.8-0.2,25-3.2,35.8-8.4H219.1z"/></g></svg>
