<?xml version="1.0" ?>
<svg id="Layer_1" style="enable-background:new 0 0 512 512;" version="1.1" viewBox="0 0 512 512" xml:space="preserve"
     xmlns="http://www.w3.org/2000/svg" xmlns:xlink="http://www.w3.org/1999/xlink"><style type="text/css">
	.st0 {
    fill: #120065;
  }

  .st1 {
    fill: #FFFFFF;
  }

  .st2 {
    fill: #28632E;
  }

  .st3 {
    fill: #EDC526;
  }

  .st4 {
    clip-path: url(#SVGID_2_);
    fill: url(#SVGID_3_);
  }

  .st5 {
    clip-path: url(#SVGID_5_);
    fill: url(#SVGID_6_);
  }

  .st6 {
    clip-path: url(#SVGID_8_);
    fill: url(#SVGID_9_);
  }

  .st7 {
    clip-path: url(#SVGID_11_);
    fill: url(#SVGID_12_);
  }

  .st8 {
    clip-path: url(#SVGID_14_);
    fill: url(#SVGID_15_);
  }

  .st9 {
    clip-path: url(#SVGID_17_);
    fill: url(#SVGID_18_);
  }

  .st10 {
    clip-path: url(#SVGID_20_);
    fill: url(#SVGID_21_);
  }

  .st11 {
    clip-path: url(#SVGID_23_);
    fill: url(#SVGID_24_);
  }

  .st12 {
    clip-path: url(#SVGID_26_);
    fill: url(#SVGID_27_);
  }

  .st13 {
    clip-path: url(#SVGID_29_);
    fill: url(#SVGID_30_);
  }

  .st14 {
    clip-path: url(#SVGID_32_);
    fill: url(#SVGID_33_);
  }

  .st15 {
    clip-path: url(#SVGID_35_);
    fill: url(#SVGID_36_);
  }

  .st16 {
    fill: #F5C3B4;
  }

  .st17 {
    fill: none;
  }

  .st18 {
    fill: #905115;
  }

  .st19 {
    fill: #BA0019;
  }
</style>
  <g><rect class="st0" height="298.7" width="512" y="106.7"/>
    <path class="st1"
          d="M335.5,179.4l108.2-0.4l-0.2,96.4c0,0,3.8,14.7-45.4,36.9c17.7-1.8,36.9-20.7,36.9-20.7s7.8-10,11.6-4.4   c3.8,5.6,7.4,8.4,10.2,10.6c2.8,2.2,5,8.2,0.8,12.6c-4.2,4.4-10.8,5-12.6-0.4c-2.8,1.4-20.1,22.3-55.4,23.3   c-35.9-0.6-55.6-23.5-55.6-23.5s-4.8,7.6-11.6,1.6c-6.6-7.8-1.6-12.9-1.6-12.9s5.6-3.2,7.2-5.4c2.6-3,3.4-7,7.8-7   c5.2,0.4,7.2,4.6,7.2,4.6s18.1,19.1,37.5,21.5c-44-21.1-45.6-34.1-45.4-37.4L335.5,179.4z"/>
    <path class="st2" d="M338.1,182l103.2-0.6v92.8c0.2,12-20.1,24.3-51.8,40c-32.7-16.9-51.6-27.1-51.8-40.2L338.1,182z"/>
    <g><path d="M389.5,314.5l-0.1-0.1c-33.1-17-51.8-27.3-52-40.4l0.4-92l103.5-0.9l0.3,93.1c0.2,12-19.7,24.3-52,40.2L389.5,314.5    L389.5,314.5z M441,181.4l-102.9,0.9L338,274c0.2,12.7,18.7,22.9,51.5,39.8c31.9-15.8,51.7-27.9,51.5-39.6V181.4L441,181.4z"/></g>
    <g><polygon class="st3" points="350.7,284.4 350.3,284.1 356.4,275.2 362.9,284.1 356.4,275.5 350.7,284.4   "/></g>
    <path class="st3"
          d="M357.8,280.9c0,0.7-0.5,1.2-1.2,1.2c-0.7,0-1.2-0.5-1.2-1.2c0-0.7,0.5-1.2,1.2-1.2   C357.3,279.7,357.8,280.2,357.8,280.9L357.8,280.9z"/>
    <g><path d="M356.6,282.3c-0.7,0-1.4-0.6-1.4-1.4c0-1.5,2.7-1.5,2.7,0C358,281.7,357.3,282.3,356.6,282.3L356.6,282.3z M356.6,279.8    c-0.6,0-1.1,0.5-1.1,1.1c0,1.2,2.1,1.2,2.1,0C357.7,280.3,357.2,279.8,356.6,279.8L356.6,279.8z"/></g>
    <path class="st3"
          d="M351.6,290.9l9.4,0c0,0,0.2-1.2-1-2c4.9-0.7,3.7-5,7.8-5.3c0.8,0.1-2.2,1.9-2.2,1.9s-2.5,1.8-1.4,2.7   c0.9,0.7,1.3-0.4,1.4-1.3c0.1-0.9,4-1.4,3.5-3.9c-0.9-2-6.4,1.4-6.4,1.4l-3.9,0c-0.2-0.4-1.3-2.2-2.4-2.2c-1.3,0-2.2,2.2-2.2,2.2   h-5.6h-3.2c0,0-0.3,2.3,4.1,2.7c1,1.3,1.8,1.7,2.7,2C351.8,289.5,351.6,290.1,351.6,290.9L351.6,290.9z"/>
    <g><path d="M361.2,291.1l-9.6,0c-0.2-1.1,0.1-1.7,0.6-2.1c-0.9-0.1-1.7-0.5-2.7-1.8c-1.8-0.1-3.1-0.6-3.7-1.5    c-0.5-0.7-0.5-1.3-0.5-1.3l8.9-0.1c-0.1,0,0.8-2.2,2.2-2.2c1.3,0,2.5,2.2,2.6,2.3l3.7-0.1c0.1-0.1,5.7-3.1,6.5-1.3    c0.4,1.8-1.2,2.6-2.4,3.2c-0.5,0.3-1,0.5-1.1,0.8c-0.1,0.5-0.3,1.7-1.1,1.7l-0.6-0.3c-0.2-0.2-0.4-0.4-0.4-0.7    c0-1,1.7-2.2,1.7-2.2c1-0.6,2.2-1.4,2.2-1.6c-1.9,0.2-2.6,1.2-3.4,2.4c-0.8,1.2-1.8,2.6-4.4,3c1.3,0.5,1.1,1.8,1.1,1.8    L361.2,291.1L361.2,291.1z M345.7,284.5c0.1,0.1,0.1,0.5,0.5,0.9c0.4,0.5,1.4,1.2,3.6,1.4c1.1,1.3,1.8,1.7,2.7,2    c-0.4,0.7-0.6,1.2-0.6,2l9.1-0.1c0-0.3-0.1-1.1-0.9-1.7c2.5-0.6,3.4-1.9,4.2-3.1c0.8-1.2,1.6-2.3,3.7-2.4c0.4,0.6-0.9,1.5-2.1,2.2    c-0.4,0.3-1.6,1.3-1.6,1.9l0.1,0.6l0.5,0.1c0.4,0,0.6-0.7,0.7-1.4c0.1-0.4,0.6-0.7,1.2-1c1.1-0.6,2.5-1.3,2.2-2.8    c-0.7-1.5-6.1,1.4-6.1,1.5h-4c-0.5-0.8-1.5-2.2-2.4-2.2c-1.2,0-2.1,2.1-2.1,2.1L345.7,284.5L345.7,284.5z"/></g>
    <g><polygon points="352.3,289.1 352.3,288.8 360.2,288.8 352.3,289.1   "/></g>
    <g><path d="M352.3,288.7c-3.1-0.6-3.7-4.2-3.7-4.4l0.3-0.1C348.9,284.3,349.5,287.9,352.3,288.7L352.3,288.7z"/></g>
    <g><defs><path d="M345.7,279.3c0,1.3,1.1,1,1,3c0.1,1.2-0.3,0.9-0.4,2h1.9c0.3-1.4,0.8-1.6,1.4-3.4c0.1-1.7-1.4-1.6-1-2.7     c0.8-1.2,0.4-2.4-1.1-3.3C347.9,276.5,345.7,278,345.7,279.3" id="SVGID_1_"/></defs>
      <clipPath id="SVGID_2_"><use style="overflow:visible;" xlink:href="#SVGID_1_"/></clipPath>
      <linearGradient gradientTransform="matrix(-9.0356 -6.8132 3.013 -20.432 -4926.7324 11816.0957)"
                      gradientUnits="userSpaceOnUse" id="SVGID_3_" x1="-355.8277" x2="-355.326" y1="683.3043"
                      y2="683.3043"><stop offset="0" style="stop-color:#EA0020"/>
        <stop offset="1" style="stop-color:#FCFF2C"/></linearGradient>
      <polygon class="st4" points="351,275.8 346.1,272.1 344.5,283.3 349.3,287   "/></g>
    <g><path d="M348.4,284.4h-2.1c-0.1-0.7,0-0.9,0.1-1.1c0.1-0.2,0.2-0.4,0.1-1c0.1-1.1-0.2-1.4-0.5-1.8c-0.2-0.3-0.5-0.6-0.5-1.2    c0-0.6,0.4-1.3,0.9-1.9c0.6-0.8,1.1-1.6,1-2.4c1.8,0.8,2.2,2.1,1.4,3.4c-0.2,0.4,0,0.6,0.3,0.8c0.3,0.3,0.8,0.8,0.7,1.7    c-0.3,0.9-0.6,1.4-0.8,1.9c-0.3,0.5-0.5,0.9-0.6,1.6L348.4,284.4L348.4,284.4z M347.5,275c0.4,0.8-0.2,1.7-0.8,2.5    c-0.4,0.6-0.9,1.2-0.9,1.8c0,0.5,0.2,0.8,0.4,1c0.3,0.4,0.7,0.8,0.6,2c0.1,0.7-0.1,0.9-0.2,1.1c-0.1,0.2-0.2,0.4-0.2,0.8l1.6-0.2    c0.2-0.7,0.4-1.1,0.6-1.6c0.2-0.4,0.5-0.9,0.8-1.8c0-0.8-0.3-1.1-0.6-1.4c-0.3-0.3-0.6-0.6-0.4-1.2    C349.4,276.6,348.5,275.6,347.5,275L347.5,275z"/></g>
    <path class="st3"
          d="M357.7,275.5c0,0.6-0.5,1.1-1.1,1.1c-0.6,0-1.1-0.5-1.1-1.1c0-0.6,0.5-1.1,1.1-1.1   C357.2,274.4,357.7,274.9,357.7,275.5L357.7,275.5z"/>
    <g><path d="M356.6,276.8c-0.7,0-1.3-0.6-1.3-1.3c0-1.4,2.5-1.4,2.5,0C357.9,276.2,357.3,276.8,356.6,276.8L356.6,276.8z M356.6,274.6    c-0.5,0-0.9,0.4-0.9,1c0,1,1.9,1,1.9,0C357.6,275,357.1,274.6,356.6,274.6L356.6,274.6z"/></g>
    <g><polygon class="st3" points="350.4,266 349.9,265.7 356,256.7 362.6,265.7 356,257 350.4,266   "/></g>
    <path class="st3"
          d="M357.5,262.5c0,0.7-0.5,1.2-1.2,1.2s-1.2-0.5-1.2-1.2c0-0.7,0.5-1.2,1.2-1.2S357.5,261.8,357.5,262.5   L357.5,262.5z"/>
    <g><path d="M356.3,263.8c-0.7,0-1.4-0.6-1.4-1.4c0-1.5,2.7-1.5,2.7,0C357.6,263.2,357,263.8,356.3,263.8L356.3,263.8z M356.3,261.4    c-0.6,0-1.1,0.5-1.1,1.1c0,1.2,2.1,1.2,2.1,0C357.3,261.9,356.8,261.4,356.3,261.4L356.3,261.4z"/></g>
    <path class="st3"
          d="M351.3,272.4l9.4,0c0,0,0.2-1.2-1-2c4.9-0.7,3.7-5.1,7.8-5.3c0.8,0.1-2.2,1.9-2.2,1.9s-2.5,1.8-1.4,2.7   c0.9,0.7,1.3-0.4,1.4-1.3c0.1-0.9,4-1.4,3.5-3.9c-0.9-2-6.4,1.4-6.4,1.4l-3.9,0c-0.2-0.4-1.3-2.2-2.4-2.2c-1.3,0-2.2,2.2-2.2,2.2   h-5.6h-3.2c0,0-0.3,2.3,4.1,2.7c1,1.3,1.8,1.7,2.7,2C351.5,271.1,351.3,271.7,351.3,272.4L351.3,272.4z"/>
    <g><path d="M360.9,272.6l-9.6,0c-0.2-1.1,0.1-1.7,0.6-2.1c-0.9-0.1-1.7-0.5-2.7-1.8c-1.8-0.1-3.1-0.6-3.7-1.5    c-0.5-0.7-0.5-1.3-0.5-1.3l8.9-0.1c-0.1,0,0.8-2.2,2.2-2.2c1.3,0,2.4,2.1,2.6,2.3l3.7-0.1c0.1-0.1,5.7-3.1,6.5-1.3    c0.4,1.8-1.2,2.6-2.4,3.2c-0.5,0.3-1,0.5-1.1,0.8c-0.1,0.5-0.3,1.7-1.1,1.7l-0.6-0.3c-0.2-0.2-0.4-0.4-0.4-0.7    c0-1,1.7-2.2,1.7-2.2c1-0.6,2.2-1.4,2.2-1.6c-1.9,0.2-2.6,1.2-3.4,2.4c-0.8,1.2-1.8,2.6-4.4,3c1.3,0.5,1.1,1.8,1.1,1.8    L360.9,272.6L360.9,272.6z M345.3,266c0.1,0.1,0.1,0.5,0.5,0.9c0.4,0.5,1.4,1.2,3.6,1.4c1.1,1.3,1.8,1.7,2.7,2    c-0.4,0.7-0.6,1.2-0.6,2l9.1-0.1c0-0.3-0.1-1.1-0.9-1.7c2.5-0.6,3.4-1.9,4.2-3.1c0.8-1.2,1.6-2.3,3.7-2.4c0.4,0.6-0.9,1.5-2.1,2.2    c-0.4,0.3-1.6,1.3-1.6,1.9l0.1,0.6l0.5,0.1c0.4,0,0.6-0.7,0.7-1.4c0.1-0.4,0.6-0.7,1.2-1c1.1-0.6,2.6-1.3,2.2-2.8    c-0.7-1.5-6.1,1.4-6.1,1.5l-4,0c-0.5-0.8-1.5-2.2-2.4-2.2c-1.2,0-2.1,2.1-2.1,2.1L345.3,266L345.3,266z"/></g>
    <g><polygon points="352,270.7 352,270.4 359.8,270.3 352,270.7   "/></g>
    <g><path d="M352,270.3c-3.1-0.6-3.7-4.2-3.7-4.4l0.3-0.1C348.5,265.9,349.2,269.4,352,270.3L352,270.3z"/></g>
    <g><defs><path d="M345.4,260.9c0,1.3,1.1,1,1,3c0.1,1.2-0.3,0.9-0.4,2h1.9c0.3-1.4,0.8-1.6,1.4-3.4c0.1-1.7-1.4-1.6-1-2.7     c0.8-1.2,0.4-2.4-1.1-3.3C347.6,258,345.4,259.5,345.4,260.9" id="SVGID_4_"/></defs>
      <clipPath id="SVGID_5_"><use style="overflow:visible;" xlink:href="#SVGID_4_"/></clipPath>
      <linearGradient gradientTransform="matrix(-9.0356 -6.8132 3.013 -20.432 -4927.3535 11779.0645)"
                      gradientUnits="userSpaceOnUse" id="SVGID_6_" x1="-356.1284" x2="-355.627" y1="682.4938"
                      y2="682.4938"><stop offset="0" style="stop-color:#EA0020"/>
        <stop offset="1" style="stop-color:#FCFF2C"/></linearGradient>
      <polygon class="st5" points="350.6,257.4 345.8,253.7 344.1,264.9 349,268.6   "/></g>
    <g><path d="M348,266H346c-0.1-0.7,0-0.9,0.1-1.1c0.1-0.2,0.2-0.4,0.1-1c0.1-1.1-0.2-1.4-0.5-1.8c-0.2-0.3-0.5-0.6-0.5-1.2    c0-0.6,0.4-1.3,0.9-2c0.5-0.8,1.1-1.6,1-2.4c1.8,0.8,2.2,2.1,1.4,3.3c-0.2,0.4,0,0.6,0.3,0.9c0.3,0.3,0.8,0.7,0.7,1.7    c-0.3,0.9-0.6,1.4-0.8,1.9c-0.3,0.5-0.5,0.9-0.6,1.6L348,266L348,266z M347.2,256.6c0.4,0.8-0.2,1.7-0.8,2.5    c-0.4,0.6-0.9,1.2-0.9,1.8c0,0.5,0.2,0.7,0.4,1c0.3,0.4,0.7,0.8,0.6,2c0.1,0.7-0.1,0.9-0.2,1.1c-0.1,0.2-0.2,0.4-0.2,0.8l1.6-0.2    c0.2-0.7,0.4-1.1,0.6-1.6c0.2-0.4,0.5-0.9,0.8-1.8c0-0.8-0.3-1.1-0.6-1.4c-0.3-0.3-0.6-0.6-0.4-1.2    C349.1,258.2,348.1,257.2,347.2,256.6L347.2,256.6z"/></g>
    <path class="st3"
          d="M357.4,257.1c0,0.6-0.5,1.1-1.1,1.1c-0.6,0-1.1-0.5-1.1-1.1s0.5-1.1,1.1-1.1   C356.9,256,357.4,256.5,357.4,257.1L357.4,257.1z"/>
    <g><path d="M356.3,258.4c-0.7,0-1.3-0.6-1.3-1.3c0-1.4,2.5-1.4,2.5,0C357.5,257.8,357,258.4,356.3,258.4L356.3,258.4z M356.3,256.2    c-0.5,0-0.9,0.4-0.9,1c0,1.1,1.9,1,1.9,0C357.2,256.6,356.8,256.2,356.3,256.2L356.3,256.2z"/></g>
    <g><polygon class="st3" points="415.1,249.2 414.7,249 420.7,240 427.3,249 420.7,240.3 415.1,249.2   "/></g>
    <path class="st3"
          d="M422.2,245.7c0,0.7-0.5,1.2-1.2,1.2c-0.7,0-1.2-0.5-1.2-1.2c0-0.7,0.5-1.2,1.2-1.2   C421.6,244.5,422.2,245.1,422.2,245.7L422.2,245.7z"/>
    <g><path d="M421,247.1c-0.7,0-1.4-0.6-1.4-1.4c0-1.5,2.7-1.5,2.7,0C422.3,246.5,421.7,247.1,421,247.1L421,247.1z M421,244.7    c-0.6,0-1.1,0.5-1.1,1.1c0,1.2,2.1,1.2,2.1,0C422,245.2,421.6,244.7,421,244.7L421,244.7z"/></g>
    <path class="st3"
          d="M416,255.7l9.4,0c0,0,0.1-1.2-1-2c5-0.7,3.7-5,7.8-5.3c0.8,0.1-2.2,1.9-2.2,1.9s-2.5,1.8-1.4,2.7   c0.9,0.7,1.3-0.4,1.4-1.3c0.1-0.9,4-1.4,3.5-3.9c-0.9-2-6.4,1.4-6.4,1.4l-3.9,0c-0.2-0.4-1.3-2.2-2.4-2.2c-1.3,0-2.2,2.2-2.2,2.2   h-5.6H410c0,0-0.3,2.2,4.1,2.7c1,1.3,1.8,1.7,2.7,2C416.2,254.3,416,254.9,416,255.7L416,255.7z"/>
    <g><path d="M425.6,255.9l-9.6,0c-0.2-1.1,0.1-1.7,0.6-2.1c-0.8-0.1-1.6-0.5-2.7-1.8c-1.8-0.1-3.1-0.6-3.7-1.5    c-0.5-0.7-0.5-1.3-0.4-1.3l8.9-0.1c-0.1,0,0.8-2.2,2.2-2.2c1.2,0,2.4,1.9,2.6,2.3l3.7-0.1c0.1-0.1,5.7-3.1,6.5-1.3    c0.4,1.8-1.2,2.6-2.4,3.2c-0.5,0.3-1,0.5-1.1,0.8c-0.1,0.5-0.3,1.7-1.1,1.7l-0.6-0.3c-0.2-0.2-0.4-0.4-0.4-0.7    c0-1,1.7-2.1,1.7-2.2c1-0.6,2.2-1.4,2.2-1.6c-1.9,0.2-2.6,1.2-3.4,2.4c-0.8,1.2-1.8,2.6-4.4,3c1.3,0.5,1.1,1.8,1.1,1.8    L425.6,255.9L425.6,255.9z M410,249.3c0.1,0.1,0.1,0.5,0.5,0.9c0.4,0.5,1.4,1.2,3.6,1.4c1.1,1.3,1.8,1.7,2.7,2    c-0.4,0.7-0.6,1.2-0.6,2l9.1-0.1c0-0.3-0.1-1.1-0.9-1.7c2.5-0.6,3.4-1.9,4.2-3.1c0.8-1.2,1.6-2.3,3.7-2.4c0.4,0.6-0.9,1.5-2.1,2.2    c-0.4,0.3-1.6,1.2-1.6,1.9l0.1,0.6l0.5,0.1c0.4,0,0.6-0.7,0.7-1.4c0.1-0.4,0.6-0.7,1.2-1c1.1-0.6,2.6-1.3,2.2-2.8    c-0.7-1.5-6.1,1.4-6.1,1.5h-4c-0.6-0.9-1.5-2.2-2.4-2.2c-1.2,0-2.1,2.1-2.1,2.1L410,249.3L410,249.3z"/></g>
    <g><polygon points="416.7,254 416.7,253.6 424.6,253.6 416.7,254   "/></g>
    <g><path d="M416.7,253.5c-3.1-0.6-3.7-4.2-3.7-4.4l0.3-0.1C413.3,249.2,413.9,252.7,416.7,253.5L416.7,253.5z"/></g>
    <g><defs><path d="M410.1,244.1c0,1.3,1.1,1,1,3c0.1,1.2-0.3,0.9-0.4,2h1.9c0.3-1.4,0.8-1.6,1.4-3.4c0.1-1.7-1.4-1.6-1-2.7     c0.8-1.2,0.4-2.4-1.1-3.3C412.3,241.3,410.1,242.8,410.1,244.1" id="SVGID_7_"/></defs>
      <clipPath id="SVGID_8_"><use style="overflow:visible;" xlink:href="#SVGID_7_"/></clipPath>
      <linearGradient gradientTransform="matrix(-9.0352 -6.8129 3.0128 -20.431 -4799.6099 11744.8818)"
                      gradientUnits="userSpaceOnUse" id="SVGID_9_" x1="-350.0875" x2="-349.5858" y1="679.6664"
                      y2="679.6664"><stop offset="0" style="stop-color:#EA0020"/>
        <stop offset="1" style="stop-color:#FCFF2C"/></linearGradient>
      <polygon class="st6" points="415.4,240.6 410.5,237 408.8,248.2 413.7,251.8   "/></g>
    <g><path d="M412.7,249.3h-2.1c-0.1-0.7,0-0.9,0.1-1.1c0.1-0.2,0.2-0.4,0.1-1c0.1-1.1-0.2-1.4-0.5-1.8c-0.2-0.3-0.5-0.6-0.5-1.2    c0-0.6,0.4-1.3,0.9-1.9c0.6-0.8,1.1-1.6,1-2.4c1.1,0.4,1.6,1,1.7,1.6c0.1,0.6,0,1.1-0.4,1.7c-0.2,0.4,0,0.6,0.3,0.8    c0.3,0.3,0.8,0.8,0.7,1.7c-0.3,0.9-0.6,1.4-0.8,1.9c-0.2,0.5-0.5,0.9-0.6,1.6L412.7,249.3L412.7,249.3z M411.9,239.8    c0.4,0.8-0.2,1.7-0.8,2.5c-0.4,0.6-0.9,1.2-0.9,1.8c0,0.5,0.2,0.8,0.4,1c0.3,0.4,0.6,0.8,0.6,2c0.1,0.7-0.1,0.9-0.2,1.1    c-0.1,0.2-0.2,0.4-0.2,0.9l1.6-0.2c0.2-0.7,0.4-1.1,0.6-1.6c0.2-0.4,0.5-0.9,0.8-1.8c0-0.8-0.3-1.1-0.6-1.4    c-0.3-0.3-0.6-0.6-0.4-1.2c0.3-0.5,0.4-1,0.3-1.5C413.1,240.9,412.6,240.3,411.9,239.8L411.9,239.8z"/></g>
    <path class="st3"
          d="M422.1,240.4c0,0.6-0.5,1.1-1.1,1.1c-0.6,0-1.1-0.5-1.1-1.1c0-0.6,0.5-1.1,1.1-1.1   C421.6,239.3,422.1,239.8,422.1,240.4L422.1,240.4z"/>
    <g><path d="M421,241.7c-0.7,0-1.3-0.6-1.3-1.3c0-1.4,2.5-1.4,2.5,0C422.2,241.1,421.7,241.7,421,241.7L421,241.7z M421,239.4    c-0.5,0-0.9,0.4-0.9,0.9c0,1.1,1.9,1.1,1.9,0C421.9,239.8,421.5,239.4,421,239.4L421,239.4z"/></g>
    <g><polygon class="st3" points="351.9,231.3 351.4,231.1 357.5,222.1 364.1,231.1 357.5,222.4 351.9,231.3   "/></g>
    <path class="st3"
          d="M359,227.8c0,0.7-0.5,1.2-1.2,1.2c-0.7,0-1.2-0.5-1.2-1.2c0-0.7,0.5-1.2,1.2-1.2   C358.4,226.6,359,227.2,359,227.8L359,227.8z"/>
    <g><path d="M357.8,229.2c-0.8,0-1.4-0.6-1.4-1.4c0-1.5,2.7-1.5,2.7,0C359.1,228.6,358.5,229.2,357.8,229.2L357.8,229.2z M357.8,226.8    c-0.6,0-1.1,0.5-1.1,1.1c0,1.2,2.1,1.2,2.1,0C358.8,227.3,358.4,226.8,357.8,226.8L357.8,226.8z"/></g>
    <path class="st3"
          d="M352.8,237.8l9.4,0c0,0,0.1-1.2-1-2c4.9-0.7,3.7-5,7.8-5.3c0.8,0.1-2.2,1.9-2.2,1.9s-2.5,1.8-1.4,2.7   c0.9,0.7,1.3-0.4,1.4-1.3c0.1-0.9,4-1.4,3.5-3.9c-0.9-2-6.4,1.4-6.4,1.4l-3.9,0c-0.2-0.4-1.3-2.2-2.4-2.2c-1.3,0-2.2,2.2-2.2,2.2   h-5.6h-3.2c0,0-0.3,2.3,4.2,2.7c1,1.3,1.8,1.7,2.7,2C353,236.4,352.8,237,352.8,237.8L352.8,237.8z"/>
    <g><path d="M362.4,238l-9.6,0c-0.2-0.8-0.1-1.6,0.6-2.1c-0.8-0.1-1.6-0.5-2.7-1.8c-1.8-0.1-3.1-0.6-3.7-1.5c-0.5-0.7-0.5-1.3-0.5-1.3    l8.9-0.1c-0.1,0,0.8-2.2,2.2-2.2c1.2,0,2.3,1.7,2.6,2.3l3.7-0.1c0-0.1,3.2-2,5.1-2c0.7,0,1.2,0.3,1.4,0.8c0.4,1.8-1.2,2.6-2.4,3.2    c-0.5,0.3-1,0.5-1.1,0.8c-0.1,0.5-0.3,1.7-1.1,1.7l-0.6-0.3c-0.2-0.2-0.4-0.4-0.4-0.7c0-1,1.7-2.1,1.7-2.2c1-0.6,2.2-1.4,2.2-1.6    c-1.9,0.2-2.6,1.2-3.4,2.4c-0.8,1.2-1.8,2.6-4.4,3c1.3,0.5,1.1,1.8,1.1,1.8L362.4,238L362.4,238z M346.8,231.4    c0.1,0.1,0.1,0.5,0.5,0.9c0.4,0.5,1.4,1.2,3.6,1.4c1.1,1.3,1.8,1.7,2.7,2c-0.4,0.7-0.6,1.2-0.6,2l9.1-0.1c0-0.3-0.1-1.1-0.9-1.7    c2.5-0.6,3.4-1.9,4.2-3.1c0.8-1.2,1.6-2.3,3.7-2.4c0.4,0.6-0.9,1.5-2.1,2.2c-0.4,0.3-1.6,1.2-1.6,1.9l0.1,0.6l0.5,0.1    c0.4,0,0.6-0.7,0.7-1.4c0.1-0.4,0.6-0.7,1.2-1c1.1-0.6,2.6-1.3,2.2-2.8c-0.7-1.4-6.1,1.4-6.1,1.5h-4c-0.7-1-1.6-2.2-2.4-2.2    c-1.2,0-2.1,2.1-2.1,2.1L346.8,231.4L346.8,231.4z"/></g>
    <g><polygon points="353.5,236 353.5,235.7 361.3,235.7 353.5,236   "/></g>
    <g><path d="M353.5,235.6c-3.1-0.6-3.7-4.2-3.7-4.4l0.3-0.1C350,231.3,350.7,234.8,353.5,235.6L353.5,235.6z"/></g>
    <g><defs><path d="M346.9,226.2c0,1.3,1.1,1,1,3c0.1,1.2-0.3,0.9-0.4,2h1.9c0.3-1.4,0.8-1.6,1.4-3.4c0.1-1.7-1.4-1.6-1-2.7     c0.8-1.2,0.4-2.4-1.1-3.3C349.1,223.4,346.9,224.9,346.9,226.2" id="SVGID_10_"/></defs>
      <clipPath id="SVGID_11_"><use style="overflow:visible;" xlink:href="#SVGID_10_"/></clipPath>
      <linearGradient gradientTransform="matrix(-9.0365 -6.8139 3.0133 -20.4341 -4924.6504 11711.6563)"
                      gradientUnits="userSpaceOnUse" id="SVGID_12_" x1="-356.4579" x2="-355.9561" y1="680.9412"
                      y2="680.9412"><stop offset="0" style="stop-color:#EA0020"/>
        <stop offset="1" style="stop-color:#FCFF2C"/></linearGradient>
      <polygon class="st7" points="352.1,222.7 347.3,219.1 345.6,230.3 350.5,233.9   "/></g>
    <g><path d="M349.5,231.4h-2.1c-0.1-0.7,0-0.9,0.1-1.1c0.1-0.2,0.2-0.4,0.1-1c0.1-1.1-0.2-1.4-0.5-1.8c-0.2-0.3-0.5-0.6-0.5-1.2    c0-0.6,0.4-1.3,0.9-1.9c0.6-0.8,1.1-1.6,1-2.4c1.1,0.4,1.6,1,1.7,1.6c0.1,0.6,0,1.1-0.4,1.7c-0.2,0.4,0,0.6,0.3,0.8    c0.3,0.3,0.8,0.8,0.7,1.7c-0.3,0.9-0.6,1.4-0.8,1.9c-0.2,0.5-0.5,0.9-0.6,1.6L349.5,231.4L349.5,231.4z M348.7,221.9    c0.4,0.8-0.2,1.7-0.8,2.5c-0.4,0.6-0.9,1.2-0.9,1.8c0,0.5,0.2,0.8,0.4,1c0.3,0.4,0.6,0.8,0.6,2c0.1,0.7-0.1,0.9-0.2,1.1    c-0.1,0.2-0.2,0.4-0.2,0.9l1.6-0.2c0.2-0.7,0.4-1.1,0.6-1.6c0.2-0.4,0.5-0.9,0.8-1.8c0-0.8-0.3-1.1-0.6-1.4    c-0.3-0.3-0.6-0.6-0.4-1.2c0.3-0.5,0.4-1,0.3-1.5C349.9,223,349.4,222.4,348.7,221.9L348.7,221.9z"/></g>
    <path class="st3"
          d="M358.9,222.5c0,0.6-0.5,1.1-1.1,1.1c-0.6,0-1.1-0.5-1.1-1.1c0-0.6,0.5-1.1,1.1-1.1   C358.4,221.4,358.9,221.9,358.9,222.5L358.9,222.5z"/>
    <g><path d="M357.8,223.7c-0.7,0-1.3-0.6-1.3-1.3c0-1.4,2.6-1.4,2.6,0C359,223.2,358.5,223.7,357.8,223.7L357.8,223.7z M357.8,221.5    c-0.5,0-1,0.4-1,0.9c0,1.1,1.9,1.1,1.9,0C358.7,221.9,358.3,221.5,357.8,221.5L357.8,221.5z"/></g>
    <g><polygon class="st3" points="352,213.7 351.6,213.5 357.7,204.5 364.2,213.5 357.7,204.8 352,213.7   "/></g>
    <path class="st3"
          d="M359.1,210.3c0,0.7-0.5,1.2-1.2,1.2c-0.7,0-1.2-0.5-1.2-1.2c0-0.7,0.5-1.2,1.2-1.2   C358.6,209,359.1,209.6,359.1,210.3L359.1,210.3z"/>
    <g><path d="M357.9,211.6c-0.7,0-1.4-0.6-1.4-1.4c0-1.5,2.7-1.5,2.7,0C359.3,211,358.7,211.6,357.9,211.6L357.9,211.6z M357.9,209.2    c-0.6,0-1.1,0.5-1.1,1.1c0,1.2,2.1,1.2,2.1,0C359,209.7,358.5,209.2,357.9,209.2L357.9,209.2z"/></g>
    <path class="st3"
          d="M352.9,220.2l9.4,0c0,0,0.2-1.2-1-2c4.9-0.7,3.7-5,7.8-5.3c0.8,0.1-2.2,1.9-2.2,1.9s-2.5,1.8-1.4,2.7   c0.9,0.7,1.3-0.4,1.4-1.3c0.1-0.9,4-1.4,3.5-3.9c-0.9-2-6.4,1.4-6.4,1.4l-3.9,0c-0.2-0.4-1.3-2.2-2.4-2.2c-1.3,0-2.2,2.2-2.2,2.2   H350h-3.2c0,0-0.3,2.2,4.2,2.7c1,1.3,1.8,1.7,2.7,2C353.1,218.8,352.9,219.4,352.9,220.2L352.9,220.2z"/>
    <g><path d="M362.5,220.4l-9.6,0c-0.2-0.8-0.1-1.6,0.6-2.1c-0.9-0.1-1.7-0.5-2.7-1.8c-1.8-0.1-3.1-0.6-3.7-1.5    c-0.5-0.7-0.5-1.3-0.4-1.3l8.9-0.1c-0.1,0,0.8-2.2,2.2-2.2c1.2,0,2.4,1.9,2.6,2.3l3.7-0.1c0.1-0.1,5.7-3.1,6.5-1.3    c0.4,1.8-1.2,2.6-2.4,3.2c-0.5,0.3-1,0.6-1.1,0.8c-0.1,0.5-0.3,1.7-1.1,1.7l-0.6-0.3c-0.2-0.2-0.4-0.4-0.4-0.7    c0-1,1.7-2.2,1.7-2.2c1-0.6,2.2-1.4,2.2-1.6c-1.9,0.2-2.6,1.2-3.4,2.4c-0.8,1.2-1.8,2.6-4.4,3c1.3,0.5,1.1,1.8,1.1,1.8    L362.5,220.4L362.5,220.4z M347,213.8c0.1,0.1,0.1,0.5,0.5,0.9c0.4,0.5,1.4,1.2,3.6,1.4c1.1,1.3,1.8,1.7,2.7,2    c-0.4,0.7-0.6,1.2-0.6,2l9.1-0.1c0-0.3-0.1-1.1-0.9-1.7c2.5-0.6,3.4-1.9,4.2-3.1c0.8-1.2,1.6-2.3,3.6-2.4c0.4,0.6-0.9,1.5-2.1,2.2    c-0.4,0.3-1.6,1.3-1.6,1.9l0.1,0.6l0.5,0.1c0.4,0,0.6-0.7,0.7-1.4c0.1-0.4,0.6-0.7,1.2-1c1.1-0.6,2.6-1.3,2.2-2.8    c-0.7-1.5-6.1,1.4-6.1,1.5h-4c-0.6-0.9-1.5-2.2-2.4-2.2c-1.2,0-2.1,2.1-2.1,2.1L347,213.8L347,213.8z"/></g>
    <g><polygon points="353.6,218.4 353.6,218.1 361.5,218.1 353.6,218.4   "/></g>
    <g><path d="M353.6,218c-3.1-0.6-3.7-4.2-3.7-4.4l0.3-0.1C350.2,213.7,350.8,217.2,353.6,218L353.6,218z"/></g>
    <g><defs><path d="M347,208.6c0,1.3,1.1,1,1,3c0.1,1.2-0.3,0.9-0.4,2h1.9c0.3-1.4,0.8-1.6,1.4-3.4c0.1-1.7-1.4-1.6-1-2.7     c0.8-1.2,0.4-2.4-1.1-3.3C349.2,205.8,347,207.3,347,208.6" id="SVGID_13_"/></defs>
      <clipPath id="SVGID_14_"><use style="overflow:visible;" xlink:href="#SVGID_13_"/></clipPath>
      <linearGradient gradientTransform="matrix(-9.036 -6.8135 3.0131 -20.433 -4924.3516 11676.4199)"
                      gradientUnits="userSpaceOnUse" id="SVGID_15_" x1="-356.7336" x2="-356.2318" y1="680.1961"
                      y2="680.1961"><stop offset="0" style="stop-color:#EA0020"/>
        <stop offset="1" style="stop-color:#FCFF2C"/></linearGradient>
      <polygon class="st8" points="352.3,205.2 347.4,201.5 345.8,212.7 350.6,216.3   "/></g>
    <g><path d="M349.7,213.8h-2.1c-0.1-0.7,0-0.9,0.1-1.1c0.1-0.2,0.2-0.4,0.1-1c0.1-1.1-0.2-1.4-0.5-1.8c-0.2-0.3-0.5-0.6-0.5-1.2    c0-0.6,0.4-1.3,0.9-2c0.6-0.8,1.1-1.6,1-2.4c1.1,0.4,1.6,1,1.7,1.7c0.1,0.6,0,1.1-0.4,1.7c-0.2,0.4,0,0.6,0.3,0.9    c0.3,0.3,0.8,0.7,0.7,1.7c-0.3,0.9-0.6,1.4-0.8,1.9c-0.3,0.5-0.5,0.9-0.6,1.6L349.7,213.8L349.7,213.8z M348.8,204.3    c0.4,0.8-0.2,1.7-0.8,2.5c-0.4,0.6-0.9,1.2-0.9,1.8c0,0.5,0.2,0.8,0.4,1c0.3,0.4,0.6,0.8,0.6,2c0.1,0.6-0.1,0.9-0.2,1.1    c-0.1,0.2-0.2,0.4-0.2,0.9l1.6-0.2c0.2-0.7,0.4-1.1,0.6-1.6c0.2-0.4,0.5-0.9,0.8-1.8c0-0.8-0.3-1.1-0.6-1.4    c-0.3-0.3-0.6-0.6-0.4-1.2c0.3-0.5,0.4-1,0.3-1.5C350,205.4,349.6,204.8,348.8,204.3L348.8,204.3z"/></g>
    <path class="st3"
          d="M359,204.9c0,0.6-0.5,1.1-1.1,1.1c-0.6,0-1.1-0.5-1.1-1.1s0.5-1.1,1.1-1.1C358.5,203.8,359,204.3,359,204.9   L359,204.9z"/>
    <g><path d="M357.9,206.2c-0.7,0-1.3-0.6-1.3-1.3c0-1.4,2.6-1.4,2.6,0C359.2,205.6,358.6,206.2,357.9,206.2L357.9,206.2z M357.9,203.9    c-0.5,0-0.9,0.4-0.9,1c0,1.1,1.9,1.1,1.9,0C358.9,204.3,358.4,203.9,357.9,203.9L357.9,203.9z"/></g>
    <g><polygon class="st3" points="352.3,195.9 351.9,195.6 358,186.7 364.6,195.6 358,186.9 352.3,195.9   "/></g>
    <path class="st3"
          d="M359.4,192.4c0,0.7-0.5,1.2-1.2,1.2c-0.7,0-1.2-0.5-1.2-1.2c0-0.7,0.5-1.2,1.2-1.2   C358.9,191.2,359.4,191.7,359.4,192.4L359.4,192.4z"/>
    <g><path d="M358.2,193.8c-0.7,0-1.4-0.6-1.4-1.4c0-1.5,2.7-1.5,2.7,0C359.6,193.1,359,193.8,358.2,193.8L358.2,193.8z M358.2,191.3    c-0.6,0-1.1,0.5-1.1,1.1c0,1.2,2.1,1.2,2.1,0C359.3,191.8,358.8,191.3,358.2,191.3L358.2,191.3z"/></g>
    <path class="st3"
          d="M353.3,202.4l9.4,0c0,0,0.1-1.2-1-2c4.9-0.7,3.7-5,7.8-5.3c0.8,0.1-2.2,1.9-2.2,1.9s-2.5,1.8-1.4,2.7   c0.9,0.7,1.3-0.4,1.4-1.3c0.1-0.9,4-1.4,3.5-3.9c-0.9-2-6.4,1.4-6.4,1.4l-3.9,0c-0.2-0.4-1.3-2.2-2.4-2.2c-1.3,0-2.2,2.2-2.2,2.2   h-5.6h-3.2c0,0-0.3,2.2,4.1,2.7c1,1.3,1.8,1.7,2.7,2C353.4,201,353.3,201.6,353.3,202.4L353.3,202.4z"/>
    <g><path d="M362.9,202.5l-9.6,0c-0.2-1.1,0.1-1.7,0.6-2.1c-0.8-0.1-1.6-0.5-2.7-1.8c-1.8-0.1-3.1-0.6-3.7-1.5    c-0.5-0.7-0.5-1.3-0.4-1.3l8.9-0.1c-0.1,0,0.8-2.2,2.2-2.2c1.2,0,2.4,1.9,2.6,2.3l3.7-0.1c0.1-0.1,5.7-3.1,6.5-1.3    c0.4,1.8-1.2,2.6-2.4,3.2c-0.5,0.3-1,0.6-1.1,0.8c-0.1,0.5-0.3,1.7-1.1,1.7l-0.6-0.3c-0.2-0.2-0.4-0.4-0.4-0.7    c0-1,1.7-2.1,1.7-2.2c1-0.6,2.2-1.4,2.2-1.6c-1.9,0.2-2.6,1.2-3.4,2.4c-0.8,1.2-1.8,2.6-4.4,3c1.3,0.5,1.1,1.8,1.1,1.8    L362.9,202.5L362.9,202.5z M347.3,196c0.1,0.1,0.1,0.5,0.5,0.9c0.4,0.5,1.4,1.2,3.6,1.4c1.1,1.3,1.8,1.7,2.7,2    c-0.4,0.7-0.6,1.2-0.6,2l9.1-0.1c0-0.3-0.1-1.1-0.9-1.7c2.5-0.6,3.4-1.9,4.2-3.1c0.8-1.2,1.6-2.3,3.6-2.4c0.4,0.6-0.9,1.5-2.1,2.2    c-0.4,0.3-1.6,1.2-1.6,1.9l0.1,0.6l0.5,0.1c0.4,0,0.6-0.7,0.7-1.4c0.1-0.4,0.6-0.7,1.2-1c1.1-0.6,2.6-1.3,2.2-2.8    c-0.7-1.4-6.1,1.4-6.1,1.5h-4c-0.6-0.9-1.5-2.2-2.4-2.2c-1.2,0-2.1,2.1-2.1,2.1L347.3,196L347.3,196z"/></g>
    <g><polygon points="354,200.6 354,200.3 361.8,200.2 354,200.6   "/></g>
    <g><path d="M353.9,200.2c-3.1-0.6-3.7-4.2-3.7-4.4l0.3-0.1C350.5,195.8,351.2,199.4,353.9,200.2L353.9,200.2z"/></g>
    <g><defs><path d="M347.4,190.8c0,1.3,1.1,1,1,3c0.1,1.2-0.3,0.9-0.4,2h1.9c0.3-1.4,0.8-1.6,1.4-3.4c0.1-1.7-1.4-1.6-1-2.7     c0.8-1.2,0.4-2.4-1.1-3.3C349.5,187.9,347.4,189.5,347.4,190.8" id="SVGID_16_"/></defs>
      <clipPath id="SVGID_17_"><use style="overflow:visible;" xlink:href="#SVGID_16_"/></clipPath>
      <linearGradient gradientTransform="matrix(-9.0375 -6.8146 3.0136 -20.4362 -4924.7759 11642.2949)"
                      gradientUnits="userSpaceOnUse" id="SVGID_18_" x1="-356.9836" x2="-356.4791" y1="679.397"
                      y2="679.397"><stop offset="0" style="stop-color:#EA0020"/>
        <stop offset="1" style="stop-color:#FCFF2C"/></linearGradient>
      <polygon class="st9" points="352.6,187.3 347.8,183.6 346.1,194.8 351,198.5   "/></g>
    <g><path d="M350,195.9h-2.1c-0.1-0.7,0-0.9,0.1-1.1c0.1-0.2,0.2-0.4,0.1-1c0.1-1.1-0.2-1.4-0.5-1.8c-0.2-0.3-0.5-0.6-0.5-1.2    c0-0.6,0.4-1.3,0.9-2c0.6-0.8,1.1-1.6,1-2.4c1.1,0.4,1.6,1,1.7,1.6c0.1,0.6,0,1.1-0.4,1.7c-0.2,0.4,0,0.6,0.3,0.9    c0.3,0.3,0.8,0.8,0.7,1.7c-0.3,0.9-0.6,1.4-0.8,1.9c-0.3,0.5-0.5,0.9-0.6,1.6L350,195.9L350,195.9z M349.2,186.5    c0.4,0.8-0.2,1.6-0.8,2.5c-0.4,0.6-0.9,1.2-0.9,1.8c0,0.5,0.2,0.8,0.4,1c0.3,0.4,0.6,0.8,0.6,2c0.1,0.6-0.1,0.9-0.2,1.1    c-0.1,0.2-0.2,0.4-0.2,0.9l1.6-0.2c0.2-0.7,0.4-1.1,0.6-1.6c0.2-0.4,0.5-0.9,0.8-1.8c0-0.8-0.3-1.1-0.6-1.4    c-0.3-0.3-0.6-0.6-0.4-1.2c0.3-0.5,0.4-1,0.3-1.5C350.4,187.5,349.9,187,349.2,186.5L349.2,186.5z"/></g>
    <path class="st3"
          d="M359.3,187c0,0.6-0.5,1.1-1.1,1.1c-0.6,0-1.1-0.5-1.1-1.1s0.5-1.1,1.1-1.1C358.8,185.9,359.3,186.4,359.3,187   L359.3,187z"/>
    <g><path d="M358.2,188.3c-0.7,0-1.3-0.6-1.3-1.3c0-1.4,2.5-1.4,2.5,0C359.5,187.7,358.9,188.3,358.2,188.3L358.2,188.3z M358.2,186.1    c-0.5,0-0.9,0.4-0.9,0.9c0,1.1,1.9,1.1,1.9,0C359.2,186.5,358.8,186.1,358.2,186.1L358.2,186.1z"/></g>
    <g><polygon class="st3" points="415.6,196.2 415.1,195.9 421.2,186.9 427.8,195.9 421.2,187.2 415.6,196.2   "/></g>
    <path class="st3"
          d="M422.7,192.7c0,0.7-0.5,1.2-1.2,1.2c-0.7,0-1.2-0.5-1.2-1.2c0-0.7,0.5-1.2,1.2-1.2   C422.1,191.5,422.7,192,422.7,192.7L422.7,192.7z"/>
    <g><path d="M421.5,194.1c-0.7,0-1.4-0.6-1.4-1.4c0-1.5,2.7-1.5,2.7,0C422.8,193.4,422.2,194.1,421.5,194.1L421.5,194.1z M421.5,191.6    c-0.6,0-1.1,0.5-1.1,1.1c0,1.2,2.1,1.2,2.1,0C422.5,192.1,422,191.6,421.5,191.6L421.5,191.6z"/></g>
    <path class="st3"
          d="M416.5,202.6l9.4,0c0,0,0.2-1.2-1-2c4.9-0.7,3.7-5,7.8-5.3c0.8,0.1-2.2,1.9-2.2,1.9s-2.5,1.8-1.4,2.7   c0.9,0.7,1.3-0.4,1.4-1.3c0.1-0.9,4-1.4,3.5-3.9c-0.9-2-6.4,1.4-6.4,1.4l-3.9,0c-0.2-0.4-1.3-2.2-2.4-2.2c-1.3,0-2.2,2.2-2.2,2.2   h-5.6h-3.2c0,0-0.3,2.2,4.2,2.7c1,1.3,1.8,1.7,2.7,2C416.7,201.3,416.5,201.9,416.5,202.6L416.5,202.6z"/>
    <g><path d="M426.1,202.8l-9.6,0c-0.2-0.8-0.1-1.6,0.6-2.1c-0.8-0.1-1.7-0.5-2.7-1.8c-1.8-0.1-3.1-0.6-3.7-1.5    c-0.5-0.7-0.5-1.3-0.4-1.3l8.9-0.1c-0.1,0,0.8-2.2,2.2-2.2c1.2,0,2.4,1.9,2.6,2.3l3.7-0.1c0.1-0.1,5.7-3.1,6.5-1.3    c0.4,1.8-1.2,2.6-2.4,3.2c-0.5,0.3-1,0.5-1.1,0.8c-0.1,0.5-0.3,1.7-1.1,1.7l-0.6-0.3c-0.2-0.2-0.4-0.4-0.4-0.7    c0-1,1.7-2.1,1.7-2.2c1-0.6,2.2-1.4,2.2-1.6c-1.9,0.2-2.6,1.2-3.4,2.4c-0.8,1.2-1.8,2.6-4.4,3c1.3,0.5,1.1,1.8,1.1,1.8    L426.1,202.8L426.1,202.8z M410.5,196.3c0.1,0.1,0.1,0.5,0.5,0.9c0.4,0.5,1.4,1.2,3.6,1.4c1.1,1.3,1.8,1.7,2.7,2    c-0.4,0.7-0.6,1.2-0.6,2l9.1-0.1c0-0.3-0.1-1.1-0.9-1.7c2.5-0.6,3.4-1.9,4.2-3.1c0.8-1.2,1.6-2.3,3.7-2.5c0.4,0.6-0.9,1.5-2.1,2.2    c-0.4,0.3-1.6,1.2-1.6,1.9l0.1,0.6l0.5,0.1c0.4,0,0.6-0.7,0.7-1.4c0.1-0.4,0.6-0.7,1.2-1c1.1-0.6,2.6-1.3,2.2-2.8    c-0.7-1.5-6.1,1.4-6.1,1.5h-4c-0.6-0.9-1.5-2.2-2.4-2.2c-1.2,0-2.1,2.1-2.1,2.1L410.5,196.3L410.5,196.3z"/></g>
    <g><polygon points="417.2,200.9 417.2,200.6 425,200.5 417.2,200.9   "/></g>
    <g><path d="M417.2,200.5c-3.1-0.6-3.7-4.2-3.7-4.4l0.3-0.1C413.7,196.1,414.4,199.7,417.2,200.5L417.2,200.5z"/></g>
    <g><defs><path d="M410.6,191.1c0,1.3,1.1,1,1,3c0.1,1.2-0.3,0.9-0.4,2h1.9c0.3-1.4,0.8-1.6,1.4-3.4c0.1-1.7-1.4-1.6-1-2.7     c0.8-1.2,0.4-2.4-1.1-3.3C412.7,188.2,410.6,189.7,410.6,191.1" id="SVGID_19_"/></defs>
      <clipPath id="SVGID_20_"><use style="overflow:visible;" xlink:href="#SVGID_19_"/></clipPath>
      <linearGradient gradientTransform="matrix(-9.0375 -6.8146 3.0136 -20.4362 -4799.6704 11642.2012)"
                      gradientUnits="userSpaceOnUse" id="SVGID_21_" x1="-350.7775" x2="-350.2757" y1="677.3251"
                      y2="677.3251"><stop offset="0" style="stop-color:#EA0020"/>
        <stop offset="1" style="stop-color:#FCFF2C"/></linearGradient>
      <polygon class="st10" points="415.8,187.6 411,183.9 409.3,195.1 414.2,198.8   "/></g>
    <g><path d="M413.2,196.2h-2.1c-0.1-0.7,0-0.9,0.1-1.1c0.1-0.2,0.2-0.4,0.1-1c0.1-1.1-0.2-1.4-0.5-1.8c-0.2-0.3-0.5-0.6-0.5-1.2    c0-0.6,0.4-1.3,0.9-1.9c0.6-0.8,1.1-1.6,1-2.4c1.1,0.4,1.6,1,1.7,1.6c0.1,0.6,0,1.1-0.4,1.7c-0.2,0.4,0,0.6,0.3,0.8    c0.3,0.3,0.8,0.8,0.7,1.7c-0.3,0.9-0.6,1.4-0.8,1.9c-0.3,0.5-0.5,0.9-0.6,1.6L413.2,196.2L413.2,196.2z M412.4,186.8    c0.4,0.8-0.2,1.7-0.8,2.5c-0.4,0.6-0.9,1.2-0.9,1.8c0,0.5,0.2,0.8,0.4,1c0.3,0.4,0.6,0.8,0.6,2c0.1,0.7-0.1,0.9-0.2,1.1    c-0.1,0.2-0.2,0.4-0.2,0.9l1.6-0.2c0.2-0.7,0.4-1.1,0.6-1.6c0.2-0.4,0.5-0.9,0.8-1.8c0-0.8-0.3-1.1-0.6-1.4    c-0.3-0.3-0.6-0.6-0.4-1.2c0.3-0.5,0.4-1,0.3-1.5C413.6,187.8,413.1,187.3,412.4,186.8L412.4,186.8z"/></g>
    <path class="st3"
          d="M422.6,187.3c0,0.6-0.5,1.1-1.1,1.1c-0.6,0-1.1-0.5-1.1-1.1c0-0.6,0.5-1.1,1.1-1.1   C422.1,186.2,422.6,186.7,422.6,187.3L422.6,187.3z"/>
    <g><path d="M421.5,188.6c-0.7,0-1.3-0.6-1.3-1.3c0-1.4,2.5-1.4,2.5,0C422.7,188,422.2,188.6,421.5,188.6L421.5,188.6z M421.5,186.4    c-0.5,0-0.9,0.4-0.9,0.9c0,1,1.9,1.1,1.9,0C422.4,186.8,422,186.4,421.5,186.4L421.5,186.4z"/></g>
    <g><polygon class="st3" points="415,213.7 414.6,213.4 420.6,204.5 427.2,213.4 420.6,204.8 415,213.7   "/></g>
    <path class="st3"
          d="M422.1,210.2c0,0.7-0.5,1.2-1.2,1.2c-0.7,0-1.2-0.6-1.2-1.2c0-0.7,0.5-1.2,1.2-1.2   C421.5,209,422.1,209.5,422.1,210.2L422.1,210.2z"/>
    <g><path d="M420.9,211.6c-0.8,0-1.4-0.6-1.4-1.4c0-1.5,2.7-1.5,2.7,0C422.2,211,421.6,211.6,420.9,211.6L420.9,211.6z M420.9,209.2    c-0.6,0-1.1,0.5-1.1,1.1c0,1.2,2.1,1.2,2.1,0C421.9,209.6,421.5,209.2,420.9,209.2L420.9,209.2z"/></g>
    <path class="st3"
          d="M415.9,220.2l9.4,0c0,0,0.2-1.2-1-2c4.9-0.7,3.7-5,7.8-5.3c0.8,0.1-2.2,1.9-2.2,1.9s-2.5,1.8-1.4,2.7   c0.9,0.7,1.3-0.4,1.4-1.3c0.1-0.9,4-1.4,3.5-3.9c-0.9-2-6.4,1.4-6.4,1.4l-3.9,0c-0.2-0.4-1.3-2.2-2.4-2.2c-1.3,0-2.2,2.2-2.2,2.2   H413h-3.1c0,0-0.3,2.2,4.1,2.7c1,1.3,1.8,1.7,2.7,2C416.1,218.8,415.9,219.4,415.9,220.2L415.9,220.2z"/>
    <g><path d="M425.5,220.4l-9.6,0c-0.2-1.1,0.1-1.7,0.6-2.2c-0.9-0.1-1.7-0.5-2.7-1.8c-1.8-0.1-3.1-0.6-3.7-1.5    c-0.5-0.7-0.5-1.3-0.4-1.3l8.9-0.1c-0.1,0,0.8-2.2,2.2-2.2c1.2,0,2.3,1.7,2.6,2.3l3.7-0.1c0-0.1,3.2-2,5.1-2    c0.7,0,1.2,0.3,1.4,0.7c0.4,1.8-1.2,2.6-2.4,3.2c-0.5,0.3-1,0.5-1.1,0.8c-0.1,0.6-0.3,1.7-1.1,1.7l-0.6-0.3    c-0.2-0.2-0.4-0.4-0.4-0.7c0-1,1.7-2.2,1.7-2.2c1-0.6,2.2-1.4,2.2-1.6c-1.9,0.2-2.6,1.2-3.4,2.4c-0.8,1.2-1.8,2.6-4.4,3    c1.3,0.5,1.1,1.8,1.1,1.8L425.5,220.4L425.5,220.4z M409.9,213.8c0.1,0.1,0.1,0.5,0.5,0.9c0.4,0.5,1.4,1.2,3.6,1.4    c1.1,1.3,1.8,1.7,2.7,2c-0.5,0.7-0.6,1.2-0.6,2l9.1-0.1c0-0.3-0.1-1.1-0.9-1.7c2.5-0.6,3.4-1.9,4.2-3.1c0.8-1.2,1.6-2.3,3.7-2.4    c0.4,0.6-0.9,1.5-2.1,2.2c-0.4,0.3-1.6,1.3-1.6,1.9l0.1,0.6l0.5,0.1c0.4,0,0.6-0.7,0.7-1.4c0.1-0.4,0.6-0.7,1.2-1    c1.1-0.6,2.5-1.3,2.2-2.8c-0.7-1.5-6.1,1.4-6.1,1.5h-4c-0.3-0.4-1.4-2.2-2.4-2.2c-1.2,0-2.1,2.1-2.1,2.1L409.9,213.8L409.9,213.8z    "/></g>
    <g><polygon points="416.6,218.4 416.6,218.1 424.5,218.1 416.6,218.4   "/></g>
    <g><path d="M416.6,218c-3.1-0.6-3.7-4.2-3.7-4.4l0.3-0.1C413.2,213.6,413.8,217.2,416.6,218L416.6,218z"/></g>
    <g><defs><path d="M410,208.6c0,1.3,1.1,1,1,3c0.1,1.2-0.3,0.9-0.4,2h1.9c0.3-1.4,0.8-1.6,1.4-3.4c0.1-1.7-1.4-1.6-1-2.7     c0.8-1.2,0.4-2.4-1.1-3.3C412.2,205.8,410,207.3,410,208.6" id="SVGID_22_"/></defs>
      <clipPath id="SVGID_23_"><use style="overflow:visible;" xlink:href="#SVGID_22_"/></clipPath>
      <linearGradient gradientTransform="matrix(-9.037 -6.8142 3.0134 -20.4351 -4800.8599 11676.917)"
                      gradientUnits="userSpaceOnUse" id="SVGID_24_" x1="-350.6082" x2="-350.1065" y1="678.1393"
                      y2="678.1393"><stop offset="0" style="stop-color:#EA0020"/>
        <stop offset="1" style="stop-color:#FCFF2C"/></linearGradient>
      <polygon class="st11" points="415.3,205.1 410.4,201.5 408.7,212.6 413.6,216.3   "/></g>
    <g><path d="M412.6,213.7h-2.1c-0.1-0.7,0-0.9,0.1-1.1c0.1-0.2,0.2-0.4,0.1-1c0.1-1.1-0.2-1.4-0.5-1.8c-0.2-0.3-0.5-0.6-0.5-1.2    c0-0.6,0.4-1.3,0.9-2c0.6-0.8,1.1-1.6,1-2.4c1.1,0.4,1.6,1,1.7,1.7c0.1,0.6,0,1.1-0.4,1.7c-0.2,0.4,0,0.6,0.3,0.9    c0.3,0.3,0.8,0.8,0.7,1.7c-0.3,0.9-0.6,1.4-0.8,1.9c-0.2,0.5-0.5,0.9-0.6,1.6L412.6,213.7L412.6,213.7z M411.8,204.3    c0.4,0.8-0.2,1.7-0.8,2.5c-0.4,0.6-0.9,1.2-0.9,1.8c0,0.5,0.2,0.8,0.4,1c0.3,0.4,0.6,0.8,0.6,2c0.1,0.7-0.1,0.9-0.2,1.1    c-0.1,0.2-0.2,0.4-0.2,0.9l1.6-0.2c0.2-0.7,0.4-1.1,0.6-1.6c0.2-0.4,0.5-0.9,0.8-1.8c0-0.8-0.3-1.1-0.6-1.4    c-0.3-0.3-0.6-0.6-0.4-1.2c0.3-0.5,0.4-1,0.3-1.5C413,205.3,412.6,204.8,411.8,204.3L411.8,204.3z"/></g>
    <path class="st3"
          d="M422,204.8c0,0.6-0.5,1.1-1.1,1.1c-0.6,0-1.1-0.5-1.1-1.1c0-0.6,0.5-1.1,1.1-1.1   C421.5,203.7,422,204.2,422,204.8L422,204.8z"/>
    <g><path d="M420.9,206.1c-0.7,0-1.3-0.6-1.3-1.3c0-1.4,2.5-1.4,2.5,0C422.1,205.5,421.6,206.1,420.9,206.1L420.9,206.1z M420.9,203.9    c-0.5,0-0.9,0.4-0.9,1c0,1.1,1.9,1.1,1.9,0C421.8,204.3,421.4,203.9,420.9,203.9L420.9,203.9z"/></g>
    <g><polygon class="st3" points="414.2,231.6 413.8,231.3 419.9,222.4 426.4,231.4 419.9,222.7 414.2,231.6   "/></g>
    <path class="st3"
          d="M421.3,228.1c0,0.7-0.5,1.2-1.2,1.2c-0.7,0-1.2-0.5-1.2-1.2c0-0.7,0.5-1.2,1.2-1.2   C420.8,226.9,421.3,227.5,421.3,228.1L421.3,228.1z"/>
    <g><path d="M420.1,229.5c-0.7,0-1.4-0.6-1.4-1.4c0-1.5,2.7-1.5,2.7,0C421.5,228.9,420.8,229.5,420.1,229.5L420.1,229.5z M420.1,227.1    c-0.6,0-1.1,0.5-1.1,1.1c0,1.2,2.1,1.2,2.1,0C421.2,227.5,420.7,227.1,420.1,227.1L420.1,227.1z"/></g>
    <path class="st3"
          d="M415.1,238.1l9.4,0c0,0,0.1-1.2-1-2c4.9-0.7,3.7-5,7.8-5.3c0.8,0.1-2.2,1.9-2.2,1.9s-2.5,1.8-1.4,2.7   c0.9,0.7,1.3-0.4,1.4-1.3c0.1-0.9,4-1.4,3.5-3.9c-0.9-2-6.4,1.4-6.4,1.4l-3.9,0c-0.2-0.4-1.3-2.2-2.4-2.2c-1.3,0-2.2,2.2-2.2,2.2   h-5.6h-3.1c0,0-0.3,2.3,4.1,2.7c1,1.3,1.8,1.7,2.7,2C415.3,236.7,415.1,237.3,415.1,238.1L415.1,238.1z"/>
    <g><path d="M424.7,238.3l-9.6,0c-0.2-1.1,0.1-1.7,0.6-2.1c-0.9-0.1-1.7-0.5-2.7-1.8c-1.8-0.1-3.1-0.6-3.7-1.5    c-0.5-0.7-0.5-1.3-0.5-1.3l8.9-0.1c-0.1,0,0.8-2.2,2.2-2.2c1.3,0,2.4,2.1,2.6,2.3l3.7-0.1c0-0.1,3.2-2,5.1-2    c0.7,0,1.2,0.3,1.4,0.7c0.4,1.8-1.2,2.6-2.4,3.2c-0.5,0.3-1,0.5-1.1,0.8c-0.1,0.5-0.3,1.7-1.1,1.7l-0.6-0.3    c-0.2-0.2-0.4-0.4-0.4-0.7c0-1,1.7-2.2,1.7-2.2c1-0.6,2.2-1.4,2.2-1.6c-1.9,0.2-2.6,1.2-3.4,2.4c-0.8,1.2-1.8,2.6-4.4,3    c1.3,0.5,1.1,1.8,1.1,1.8L424.7,238.3L424.7,238.3z M409.2,231.7c0.1,0.1,0.1,0.5,0.5,0.9c0.4,0.5,1.4,1.2,3.6,1.4    c1.1,1.3,1.8,1.7,2.7,2c-0.4,0.7-0.6,1.2-0.6,2l9.1-0.1c0-0.3-0.1-1.1-0.9-1.7c2.5-0.6,3.4-1.9,4.2-3.1c0.8-1.2,1.6-2.3,3.7-2.4    c0.4,0.6-0.9,1.5-2.1,2.2c-0.4,0.3-1.6,1.3-1.6,1.9l0.1,0.6l0.5,0.1c0.4,0,0.6-0.7,0.7-1.4c0.1-0.4,0.6-0.7,1.2-1    c1.1-0.6,2.6-1.3,2.2-2.8c-0.7-1.5-6.1,1.4-6.1,1.5l-4,0c-0.5-0.8-1.5-2.2-2.4-2.2c-1.2,0-2.1,2.1-2.1,2.1L409.2,231.7    L409.2,231.7z"/></g>
    <g><polygon points="415.8,236.3 415.8,236 423.7,236 415.8,236.3   "/></g>
    <g><path d="M415.8,235.9c-3.1-0.6-3.7-4.2-3.7-4.4l0.3-0.1C412.4,231.5,413,235.1,415.8,235.9L415.8,235.9z"/></g>
    <g><defs><path d="M409.2,226.5c0,1.3,1.1,1,1,3c0.1,1.2-0.3,0.9-0.4,2h1.9c0.3-1.4,0.8-1.6,1.4-3.4c0.1-1.7-1.4-1.5-1-2.7     c0.8-1.2,0.4-2.4-1.1-3.3C411.4,223.7,409.2,225.2,409.2,226.5" id="SVGID_25_"/></defs>
      <clipPath id="SVGID_26_"><use style="overflow:visible;" xlink:href="#SVGID_25_"/></clipPath>
      <linearGradient gradientTransform="matrix(-9.0375 -6.8146 3.0136 -20.4362 -4802.4243 11712.7949)"
                      gradientUnits="userSpaceOnUse" id="SVGID_27_" x1="-350.3979" x2="-349.8961" y1="678.9199"
                      y2="678.9199"><stop offset="0" style="stop-color:#EA0020"/>
        <stop offset="1" style="stop-color:#FCFF2C"/></linearGradient>
      <polygon class="st12" points="414.5,223 409.6,219.4 408,230.5 412.8,234.2   "/></g>
    <g><path d="M411.9,231.6h-2.1c-0.1-0.7,0-0.9,0.1-1.1c0.1-0.2,0.2-0.4,0.1-1c0.1-1.1-0.2-1.4-0.5-1.8c-0.2-0.3-0.5-0.6-0.5-1.2    c0-0.6,0.4-1.3,0.9-2c0.6-0.8,1.1-1.6,1-2.4c1.1,0.4,1.6,1,1.7,1.6c0.1,0.6,0,1.1-0.4,1.7c-0.2,0.4,0,0.6,0.3,0.9    c0.3,0.3,0.8,0.8,0.7,1.7c-0.3,0.9-0.6,1.4-0.8,1.9c-0.3,0.5-0.5,0.9-0.6,1.6L411.9,231.6L411.9,231.6z M411,222.2    c0.4,0.8-0.2,1.7-0.8,2.5c-0.4,0.6-0.9,1.2-0.9,1.8c0,0.5,0.2,0.7,0.4,1c0.3,0.4,0.6,0.8,0.6,2c0.1,0.7-0.1,0.9-0.2,1.1    c-0.1,0.2-0.2,0.4-0.2,0.8l1.6-0.2c0.2-0.7,0.4-1.1,0.6-1.6c0.2-0.4,0.5-0.9,0.8-1.7c0-0.8-0.3-1.1-0.6-1.4    c-0.3-0.3-0.6-0.6-0.4-1.2c0.3-0.5,0.4-1,0.3-1.5C412.2,223.2,411.8,222.7,411,222.2L411,222.2z"/></g>
    <path class="st3"
          d="M421.2,222.8c0,0.6-0.5,1.1-1.1,1.1c-0.6,0-1.1-0.5-1.1-1.1s0.5-1.1,1.1-1.1   C420.7,221.6,421.2,222.1,421.2,222.8L421.2,222.8z"/>
    <g><path d="M420.1,224c-0.7,0-1.3-0.6-1.3-1.3c0-1.4,2.5-1.4,2.5,0C421.4,223.5,420.8,224,420.1,224L420.1,224z M420.1,221.8    c-0.5,0-0.9,0.4-0.9,1c0,1,1.9,1,1.9,0C421,222.2,420.6,221.8,420.1,221.8L420.1,221.8z"/></g>
    <g><polygon class="st3" points="426.7,284.6 420.6,275.7 415,284.6 414.5,284.2 420.6,275.3 427.3,284.3 426.7,284.6   "/></g>
    <path class="st3"
          d="M422.1,281.1c0,0.7-0.5,1.2-1.2,1.2c-0.7,0-1.2-0.5-1.2-1.2c0-0.7,0.5-1.2,1.2-1.2   C421.5,279.9,422.1,280.4,422.1,281.1L422.1,281.1z"/>
    <g><path d="M420.9,282.5c-0.8,0-1.4-0.6-1.4-1.4c0-1.6,2.8-1.6,2.8,0C422.3,281.9,421.7,282.5,420.9,282.5L420.9,282.5z M420.9,280.1    c-0.6,0-1,0.5-1,1c0,1.1,2,1.1,2,0C421.9,280.5,421.4,280.1,420.9,280.1L420.9,280.1z"/></g>
    <path class="st3"
          d="M415.9,291l9.4,0c0,0,0.2-1.2-1-2c4.9-0.7,3.7-5,7.8-5.3c0.8,0.1-2.2,1.9-2.2,1.9s-2.5,1.8-1.4,2.7   c0.9,0.7,1.3-0.4,1.4-1.3c0.1-0.9,4-1.4,3.5-3.9c-0.9-2-6.4,1.4-6.4,1.4l-3.9,0c-0.2-0.4-1.3-2.2-2.4-2.2c-1.3,0-2.2,2.2-2.2,2.2   H413h-3.1c0,0-0.3,2.3,4.1,2.7c1,1.3,1.8,1.7,2.7,2C416.1,289.7,415.9,290.3,415.9,291L415.9,291z"/>
    <g><path d="M425.5,291.3l-9.6,0c-0.2-1.1,0-1.7,0.6-2.2c-0.9,0-1.7-0.4-2.7-1.7c-1.7-0.1-3-0.6-3.7-1.5c-0.5-0.7-0.5-1.3-0.5-1.4    l9-0.2c-0.1,0,0.8-2.2,2.2-2.2c1.3,0,2.4,1.9,2.6,2.3l3.7-0.1c0-0.1,3.2-2,5.1-2c0.7,0,1.2,0.3,1.4,0.8c0.4,1.8-1.2,2.7-2.4,3.3    c-0.5,0.3-1,0.5-1.1,0.7c-0.1,0.6-0.4,1.7-1.1,1.7l-0.7-0.3c-0.3-0.2-0.4-0.5-0.4-0.8c0-1,1.6-2.1,1.7-2.2c1-0.6,2.1-1.4,2.2-1.6    c-1.8,0.2-2.5,1.2-3.3,2.4c-0.8,1.2-1.8,2.6-4.4,3c1.3,0.4,1.2,1.7,1.2,1.8L425.5,291.3L425.5,291.3z M410,284.7    c0.1,0.1,0.1,0.5,0.5,0.9c0.4,0.5,1.4,1.2,3.6,1.4c1.1,1.3,1.8,1.7,2.7,2c-0.4,0.8-0.6,1.2-0.6,2.1l9-0.2c0-0.3-0.1-1.1-0.9-1.6    c2.5-0.7,3.4-2,4.2-3.2c0.8-1.2,1.6-2.3,3.7-2.5c0.4,0.4,0.5,0.8-2,2.2c-0.4,0.3-1.5,1.2-1.6,1.9l0.1,0.6l0.5,0    c0.4,0,0.6-0.7,0.7-1.4c0.1-0.4,0.6-0.7,1.3-1c1.1-0.6,2.5-1.3,2.2-2.8c-0.6-1.4-6,1.5-6.1,1.5l-4,0c-0.6-0.9-1.6-2.2-2.4-2.2    c-1.2,0-2,2.1-2,2.1L410,284.7L410,284.7z"/></g>
    <g><polygon points="416.6,289.3 416.6,288.9 424.5,288.9 416.6,289.3   "/></g>
    <g><path d="M416.6,288.8c-3.1-0.5-3.8-4.2-3.8-4.3l0.4-0.1C413.2,284.5,413.8,288,416.6,288.8L416.6,288.8z"/></g>
    <g><defs><path d="M410,279.5c0,1.3,1.1,1,1,3c0.1,1.2-0.3,0.9-0.4,2h1.9c0.3-1.4,0.8-1.6,1.4-3.4c0.1-1.7-1.4-1.6-1-2.7     c0.8-1.2,0.4-2.4-1.1-3.3C412.2,276.6,410,278.1,410,279.5" id="SVGID_28_"/></defs>
      <clipPath id="SVGID_29_"><use style="overflow:visible;" xlink:href="#SVGID_28_"/></clipPath>
      <linearGradient gradientTransform="matrix(-9.0374 -6.8146 3.0136 -20.4362 -4800.3262 11817.7324)"
                      gradientUnits="userSpaceOnUse" id="SVGID_30_" x1="-349.5035" x2="-349.0016" y1="681.1659"
                      y2="681.1659"><stop offset="0" style="stop-color:#EA0020"/>
        <stop offset="1" style="stop-color:#FCFF2C"/></linearGradient>
      <polygon class="st13" points="415.3,276 410.4,272.3 408.7,283.5 413.6,287.2   "/></g>
    <g><path d="M412.7,284.6h-2.1c-0.2-0.8,0-1,0-1.2c0.1-0.2,0.2-0.4,0.1-1c0.1-1.1-0.2-1.4-0.5-1.8c-0.2-0.3-0.5-0.6-0.5-1.2    c0-0.6,0.5-1.3,0.9-2c0.5-0.8,1.1-1.6,1-2.4c1.2,0.3,1.7,0.9,1.8,1.6c0.1,0.6,0,1.1-0.4,1.7c-0.1,0.4,0,0.5,0.3,0.8    c0.3,0.3,0.8,0.8,0.7,1.8c-0.3,0.9-0.6,1.4-0.8,1.9c-0.3,0.5-0.5,0.9-0.6,1.6L412.7,284.6L412.7,284.6z M411.8,275.2    c0.5,0.8-0.2,1.7-0.7,2.5c-0.4,0.6-0.9,1.2-0.9,1.7c0,0.5,0.2,0.7,0.4,1c0.3,0.4,0.7,0.8,0.6,2c0.1,0.7-0.1,0.9-0.2,1.2    c-0.1,0.2-0.2,0.4-0.2,0.8l1.6-0.2c0.2-0.7,0.4-1.1,0.6-1.5c0.2-0.4,0.5-0.9,0.8-1.8c0-0.8-0.3-1.1-0.6-1.4    c-0.3-0.3-0.6-0.6-0.4-1.3c0.3-0.5,0.4-1,0.3-1.5C413,276.2,412.5,275.7,411.8,275.2L411.8,275.2z"/></g>
    <path class="st3"
          d="M422,275.7c0,0.6-0.5,1.1-1.1,1.1c-0.6,0-1.1-0.5-1.1-1.1s0.5-1.1,1.1-1.1C421.5,274.6,422,275.1,422,275.7   L422,275.7z"/>
    <g><path d="M420.9,277c-0.7,0-1.3-0.6-1.3-1.3c0-1.5,2.6-1.5,2.6,0C422.2,276.4,421.6,277,420.9,277L420.9,277z M420.9,274.8    c-0.5,0-0.9,0.4-0.9,0.9c0,1,1.8,1,1.8,0C421.8,275.2,421.4,274.8,420.9,274.8L420.9,274.8z"/></g>
    <g><polygon class="st3" points="414.9,266.9 414.5,266.6 420.5,257.6 427.1,266.6 420.5,257.9 414.9,266.9   "/></g>
    <path class="st3"
          d="M422,263.4c0,0.7-0.5,1.2-1.2,1.2c-0.7,0-1.2-0.5-1.2-1.2c0-0.7,0.5-1.2,1.2-1.2   C421.4,262.2,422,262.7,422,263.4L422,263.4z"/>
    <g><path d="M420.8,264.7c-0.7,0-1.4-0.6-1.4-1.4c0-1.5,2.7-1.5,2.7,0C422.1,264.1,421.5,264.7,420.8,264.7L420.8,264.7z M420.8,262.3    c-0.6,0-1.1,0.5-1.1,1.1c0,1.2,2.1,1.2,2.1,0C421.8,262.8,421.4,262.3,420.8,262.3L420.8,262.3z"/></g>
    <path class="st3"
          d="M415.8,273.3l9.4,0c0,0,0.2-1.2-1-2c4.9-0.7,3.7-5,7.8-5.3c0.8,0.1-2.2,1.9-2.2,1.9s-2.5,1.8-1.4,2.7   c0.9,0.7,1.3-0.4,1.4-1.3c0.1-0.9,4-1.4,3.5-3.9c-0.9-2-6.4,1.4-6.4,1.4l-3.9,0c-0.2-0.4-1.3-2.2-2.4-2.2c-1.3,0-2.2,2.2-2.2,2.2   h-5.6h-3.2c0,0-0.3,2.2,4.2,2.7c1,1.3,1.8,1.7,2.7,2C416,272,415.8,272.5,415.8,273.3L415.8,273.3z"/>
    <g><path d="M425.4,273.5l-9.6,0c-0.2-1.1,0.1-1.7,0.6-2.1c-0.9-0.1-1.7-0.5-2.7-1.8c-1.8-0.1-3.1-0.6-3.7-1.5    c-0.5-0.7-0.5-1.3-0.4-1.3l8.9-0.1c-0.1,0,0.8-2.2,2.2-2.2c1.2,0,2.4,1.9,2.6,2.3l3.7-0.1c0-0.1,3.2-2,5.1-2    c0.7,0,1.2,0.3,1.4,0.8c0.4,1.8-1.2,2.6-2.4,3.2c-0.5,0.3-1,0.6-1.1,0.8c-0.1,0.6-0.3,1.7-1.1,1.7l-0.6-0.3    c-0.2-0.2-0.4-0.4-0.4-0.7c0-1,1.7-2.2,1.7-2.2c1-0.6,2.2-1.4,2.2-1.6c-1.9,0.2-2.6,1.2-3.4,2.4c-0.8,1.2-1.8,2.6-4.4,3    c1.3,0.5,1.1,1.8,1.1,1.8L425.4,273.5L425.4,273.5z M409.8,266.9c0.1,0.1,0.1,0.5,0.5,0.9c0.4,0.5,1.4,1.2,3.6,1.4    c1.1,1.3,1.8,1.7,2.7,2c-0.4,0.7-0.6,1.2-0.6,2l9.1-0.1c0-0.3-0.1-1.1-0.9-1.7c2.5-0.6,3.4-1.9,4.2-3.1c0.8-1.2,1.6-2.3,3.7-2.4    c0.4,0.6-0.9,1.5-2.1,2.2c-0.4,0.3-1.6,1.3-1.6,1.9l0.1,0.6l0.5,0.1c0.4,0,0.6-0.7,0.7-1.4c0.1-0.4,0.6-0.7,1.2-1    c1.1-0.6,2.6-1.3,2.2-2.8c-0.7-1.5-6.1,1.4-6.1,1.5h-4c-0.6-0.9-1.5-2.2-2.4-2.2c-1.2,0-2.1,2.1-2.1,2.1L409.8,266.9L409.8,266.9z    "/></g>
    <g><polygon points="416.5,271.6 416.5,271.2 424.4,271.2 416.5,271.6   "/></g>
    <g><path d="M416.5,271.2c-3.1-0.6-3.7-4.2-3.7-4.4l0.3-0.1C413.1,266.8,413.7,270.3,416.5,271.2L416.5,271.2z"/></g>
    <g><defs><path d="M409.9,261.7c0,1.3,1.1,1,1,3c0.1,1.2-0.3,0.9-0.4,2h1.9c0.3-1.4,0.8-1.6,1.4-3.4c0.1-1.7-1.4-1.6-1-2.7     c0.8-1.2,0.4-2.4-1.1-3.3C412.1,258.9,409.9,260.4,409.9,261.7" id="SVGID_31_"/></defs>
      <clipPath id="SVGID_32_"><use style="overflow:visible;" xlink:href="#SVGID_31_"/></clipPath>
      <linearGradient gradientTransform="matrix(-9.0365 -6.8139 3.0133 -20.4341 -4800.0293 11781.7344)"
                      gradientUnits="userSpaceOnUse" id="SVGID_33_" x1="-349.7689" x2="-349.2671" y1="680.417"
                      y2="680.417"><stop offset="0" style="stop-color:#EA0020"/>
        <stop offset="1" style="stop-color:#FCFF2C"/></linearGradient>
      <polygon class="st14" points="415.2,258.3 410.3,254.6 408.6,265.8 413.5,269.5   "/></g>
    <g><path d="M412.5,266.9h-2.1c-0.1-0.7,0-0.9,0.1-1.1c0.1-0.2,0.2-0.4,0.1-1c0.1-1.1-0.2-1.4-0.5-1.8c-0.2-0.3-0.5-0.6-0.5-1.2    c0-0.6,0.4-1.3,0.9-2c0.6-0.8,1.1-1.6,1-2.4c1.1,0.4,1.6,1,1.7,1.6c0.1,0.6,0,1.1-0.4,1.7c-0.2,0.4,0,0.6,0.3,0.9    c0.3,0.3,0.8,0.8,0.7,1.7c-0.3,0.9-0.6,1.4-0.8,1.9c-0.2,0.5-0.5,0.9-0.6,1.6L412.5,266.9L412.5,266.9z M411.7,257.5    c0.4,0.8-0.2,1.6-0.8,2.5c-0.4,0.6-0.9,1.2-0.9,1.8c0,0.5,0.2,0.8,0.4,1c0.3,0.4,0.6,0.8,0.6,2c0.1,0.6-0.1,0.9-0.2,1.1    c-0.1,0.2-0.2,0.4-0.2,0.9l1.6-0.2c0.2-0.7,0.4-1.1,0.6-1.6c0.2-0.4,0.5-0.9,0.8-1.8c0-0.8-0.3-1.1-0.6-1.4    c-0.3-0.3-0.6-0.6-0.4-1.2c0.3-0.5,0.4-1,0.3-1.5C412.9,258.5,412.5,257.9,411.7,257.5L411.7,257.5z"/></g>
    <path class="st3"
          d="M421.9,258c0,0.6-0.5,1.1-1.1,1.1c-0.6,0-1.1-0.5-1.1-1.1c0-0.6,0.5-1.1,1.1-1.1   C421.4,256.9,421.9,257.4,421.9,258L421.9,258z"/>
    <g><path d="M420.8,259.3c-0.7,0-1.3-0.6-1.3-1.3c0-1.4,2.6-1.4,2.6,0C422.1,258.7,421.5,259.3,420.8,259.3L420.8,259.3z M420.8,257.1    c-0.5,0-0.9,0.4-0.9,0.9c0,1.1,1.9,1.1,1.9,0C421.7,257.5,421.3,257.1,420.8,257.1L420.8,257.1z"/></g>
    <g><polygon class="st3" points="363.4,250.4 363,250.1 369.1,241.2 375.6,250.1 369.1,241.4 363.4,250.4   "/></g>
    <path class="st3"
          d="M370.5,246.9c0,0.7-0.5,1.2-1.2,1.2c-0.7,0-1.2-0.5-1.2-1.2c0-0.7,0.5-1.2,1.2-1.2   C370,245.7,370.5,246.2,370.5,246.9L370.5,246.9z"/>
    <g><path d="M369.3,248.3c-0.7,0-1.4-0.6-1.4-1.4c0-1.5,2.7-1.5,2.7,0C370.7,247.6,370.1,248.3,369.3,248.3L369.3,248.3z M369.3,245.8    c-0.6,0-1.1,0.5-1.1,1.1c0,1.2,2.1,1.2,2.1,0C370.4,246.3,369.9,245.8,369.3,245.8L369.3,245.8z"/></g>
    <path class="st3"
          d="M364.3,256.9l9.4,0c0,0,0.2-1.2-1-2c5-0.7,3.7-5,7.8-5.3c0.8,0.1-2.2,1.9-2.2,1.9s-2.5,1.8-1.4,2.7   c0.9,0.7,1.3-0.4,1.4-1.3s4-1.4,3.5-3.9c-0.9-2-6.4,1.4-6.4,1.4l-3.9,0c-0.2-0.4-1.3-2.2-2.4-2.2c-1.3,0-2.2,2.2-2.2,2.2h-5.6h-3.2   c0,0-0.3,2.2,4.2,2.7c1,1.3,1.8,1.7,2.7,2C364.5,255.5,364.3,256.1,364.3,256.9L364.3,256.9z"/>
    <g><path d="M373.9,257l-9.6,0c-0.2-0.8-0.1-1.6,0.6-2.1c-0.8-0.1-1.7-0.5-2.7-1.8c-1.8-0.1-3.1-0.6-3.7-1.5c-0.5-0.7-0.5-1.3-0.4-1.3    l8.9-0.1c-0.1,0,0.8-2.2,2.2-2.2c1.2,0,2.3,1.7,2.6,2.3l3.7-0.1c0.1-0.1,5.7-3.1,6.5-1.3c0.4,1.8-1.2,2.6-2.4,3.2    c-0.5,0.3-1,0.5-1.1,0.8c-0.1,0.6-0.3,1.7-1.1,1.7l-0.6-0.3c-0.2-0.2-0.4-0.4-0.4-0.7c0-1,1.7-2.1,1.7-2.2c1-0.6,2.2-1.4,2.2-1.6    c-1.9,0.2-2.6,1.2-3.4,2.4c-0.8,1.2-1.8,2.6-4.4,3c1.3,0.5,1.1,1.8,1.1,1.8L373.9,257L373.9,257z M358.4,250.5    c0.1,0.1,0.1,0.5,0.5,0.9c0.4,0.5,1.4,1.2,3.6,1.4c1.1,1.3,1.8,1.7,2.7,2c-0.4,0.7-0.6,1.2-0.6,2l9.1-0.1c0-0.3-0.1-1.1-0.9-1.7    c2.5-0.6,3.4-1.9,4.2-3.2c0.8-1.2,1.6-2.3,3.7-2.4c0.4,0.6-0.9,1.5-2.1,2.2c-0.4,0.3-1.6,1.2-1.6,1.9l0.1,0.6l0.5,0.1    c0.4,0,0.6-0.7,0.7-1.4c0.1-0.4,0.6-0.7,1.2-1c1.1-0.6,2.6-1.3,2.2-2.8c-0.7-1.4-6.1,1.4-6.1,1.5h-4c-0.7-1-1.6-2.2-2.4-2.2    c-1.2,0-2.1,2.1-2.1,2.1L358.4,250.5L358.4,250.5z"/></g>
    <g><polygon points="365,255.1 365,254.8 372.9,254.8 365,255.1   "/></g>
    <g><path d="M365,254.7c-3.1-0.6-3.7-4.2-3.7-4.4l0.3-0.1C361.6,250.3,362.2,253.9,365,254.7L365,254.7z"/></g>
    <g><defs><path d="M358.4,245.3c0,1.3,1.1,1,1,3c0.1,1.2-0.3,0.9-0.4,2h1.9c0.3-1.4,0.8-1.6,1.4-3.4c0.1-1.7-1.4-1.6-1-2.7     c0.8-1.2,0.4-2.4-1.1-3.3C360.6,242.5,358.4,244,358.4,245.3" id="SVGID_34_"/></defs>
      <clipPath id="SVGID_35_"><use style="overflow:visible;" xlink:href="#SVGID_34_"/></clipPath>
      <linearGradient gradientTransform="matrix(-9.0365 -6.8139 3.0133 -20.4341 -4901.8418 11749.4844)"
                      gradientUnits="userSpaceOnUse" id="SVGID_36_" x1="-355.0516" x2="-354.5499" y1="681.3939"
                      y2="681.3939"><stop offset="0" style="stop-color:#EA0020"/>
        <stop offset="1" style="stop-color:#FCFF2C"/></linearGradient>
      <polygon class="st15" points="363.7,241.8 358.8,238.1 357.2,249.3 362,253   "/></g>
    <g><path d="M361.1,250.4H359c-0.1-0.7,0-0.9,0.1-1.1c0.1-0.2,0.2-0.4,0.1-1c0.1-1.1-0.2-1.4-0.5-1.8c-0.2-0.3-0.5-0.6-0.5-1.2    c0-0.6,0.4-1.3,0.9-1.9c0.6-0.8,1.1-1.6,1-2.4c1.1,0.4,1.6,1,1.7,1.6c0.1,0.6,0,1.1-0.4,1.7c-0.2,0.4,0,0.6,0.3,0.8    c0.3,0.3,0.8,0.8,0.7,1.7c-0.3,0.9-0.6,1.4-0.8,1.9c-0.2,0.5-0.5,0.9-0.6,1.6L361.1,250.4L361.1,250.4z M360.2,241    c0.4,0.8-0.2,1.7-0.8,2.5c-0.4,0.6-0.9,1.2-0.9,1.8c0,0.5,0.2,0.8,0.4,1c0.3,0.4,0.7,0.8,0.6,2c0.1,0.7-0.1,0.9-0.2,1.1    c-0.1,0.2-0.2,0.4-0.2,0.9l1.6-0.2c0.2-0.7,0.4-1.1,0.6-1.6c0.2-0.4,0.5-0.9,0.8-1.8c0-0.8-0.3-1.1-0.6-1.4    c-0.3-0.3-0.6-0.6-0.4-1.2c0.3-0.5,0.4-1,0.3-1.5C361.4,242,361,241.5,360.2,241L360.2,241z"/></g>
    <path class="st3"
          d="M370.4,241.5c0,0.6-0.5,1.1-1.1,1.1c-0.6,0-1.1-0.5-1.1-1.1c0-0.6,0.5-1.1,1.1-1.1   C369.9,240.4,370.4,240.9,370.4,241.5L370.4,241.5z"/>
    <g><path d="M369.3,242.8c-0.7,0-1.3-0.6-1.3-1.3c0-1.4,2.6-1.4,2.6,0C370.6,242.2,370,242.8,369.3,242.8L369.3,242.8z M369.3,240.6    c-0.5,0-0.9,0.4-0.9,0.9c0,1.1,1.9,1.1,1.9,0C370.3,241,369.8,240.6,369.3,240.6L369.3,240.6z"/></g>
    <path class="st3" d="M395.8,292.8c0,0,2.5,5.7,5.3,2.2c2.8-3.5,1.8-5,1.8-5l-6.3-3.4l-1.9,3.9L395.8,292.8z"/>
    <g><path d="M399.2,296.3L399.2,296.3c-2,0-3.5-3.3-3.5-3.4l-1.1-2.3l1.9-4.1l6.5,3.4c0.1,0.1,1.1,1.7-1.7,5.2    C400.6,295.9,399.9,296.3,399.2,296.3L399.2,296.3z M396.5,286.7l-1.6,3.8l1.1,2.2c0,0,1.4,3.2,3.2,3.2l0,0c0.6,0,1.2-0.4,1.8-1.1    c2.7-3.3,1.8-4.8,1.8-4.8L396.5,286.7L396.5,286.7z"/></g>
    <path class="st16" d="M401.2,292c0,0,0.4,0.1,0.8-0.6c0.3-0.6-0.8-0.9-1.2-1.6l-0.6,1.1L401.2,292z"/>
    <g><path d="M401.2,292.2L401.2,292.2l-1.2-1.1l0.5-1.3c0.4,0.2,0.7,0.4,0.9,0.6c0.4,0.3,0.9,0.6,0.6,1.1    C401.8,292.1,401.4,292.2,401.2,292.2L401.2,292.2z"/></g>
    <path class="st16"
          d="M387,290.5l-5.5,3c0,0-2.7,0.6-2.9,0c-0.2-0.5,0.1-1,1.5-1.1c1.4-0.1,5.3-3.6,5.3-3.6L387,290.5z"/>
    <g><path d="M379.3,293.9c-0.6,0-0.9-0.1-1-0.4l0-0.1l0.1-0.7c0.2-0.3,0.8-0.5,1.6-0.6c1.4-0.1,5.2-3.6,5.2-3.6l1.9,1.7l-5.6,3.3    C381.5,293.7,380.2,293.9,379.3,293.9L379.3,293.9z M385.2,288.9c0.1,0.2-3.7,3.6-5.2,3.7c-0.9,0-1.2,0.3-1.4,0.4    c0,0.5,0,0.6,0.7,0.6c0.9,0,2.1-0.2,2.1-0.2l5.5-3L385.2,288.9L385.2,288.9z"/></g>
    <path class="st16"
          d="M387,192c0,0,0.1,1.3,0.2,2c0.1,0.7-1.1,2.1-1.2,2.1c-0.1-0.1-0.6,0.1-0.5,0.5c0.1,0.4,0.9,0.6,0.9,0.6   s-0.3,1.4,0,1.5c0.3,0.1-0.9,1.9,0,2.3c0.9,0.5,2.4,1.1,3.1,0.9c0.7-0.1,0,2.7,0,2.7l-1.9,4.1l10.5-1.1l-2.2-3.5c0,0-1-0.7-0.8-2.7   c0.3-2-0.1-11-0.1-11l-7.5-1L387,192z"/>
    <g><path d="M387.3,208.8l2-4.4c0.2-0.8,0.4-2.2,0.2-2.4c-1.1,0.2-2.5-0.6-3.2-1c-0.7-0.4-0.4-1.3-0.2-1.9c-0.2-0.8,0-1.8,0.1-2.1    c-0.1,0.1-0.8-0.1-0.9-0.5l0.6-0.7c0.2-0.1,1.1-1.3,1.1-1.9l-0.2-2l0.5-2.6l7.7,0.9c0.2,0.5,0.6,9.2,0.3,11.1    c-0.2,1.9,0.6,2.5,0.7,2.5l2.2,3.5L387.3,208.8L387.3,208.8z M387.5,189.6l-0.3,2.5l0.2,1.9c0.1,0.6-0.7,1.7-1,2l-0.6,0.3    c0,0.4,0.5,0.6,0.7,0.6c0,0.8-0.1,1.4,0,1.5c0.2,0.3,0.1,0.5,0,0.8c-0.2,0.7-0.4,1.3,0,1.5c0.9,0.5,2.1,1,2.8,1    c0.9,0.6,0.5,2.5,0.4,2.8l-1.8,3.9l10.3-1.1l-2.3-3.2l0,0c0,0-1.1-0.7-0.8-2.8c0.3-1.9-0.1-10.8-0.1-10.9L387.5,189.6L387.5,189.6    z"/></g>
    <path class="st16"
          d="M385.1,207.6c0,0-3.4,1.6-3.3,5.8c-0.9,4.1-1.4,8.2-1.4,8.2s-4,4.6-5.3,6.2c-1.2,1.6-3.1,5-3.8,5.9   c-0.7,0.9-3.4,3.8-3.3,4.9c0.1,1.1-0.6,6,2,6.5c0.7,0.3,2.9-5.6,2.9-5.6s0.1-2.5-0.6-3c-0.8-0.5,1.6-2.1,1.6-2.1s4.6-3.4,5.6-4.2   c1-0.8,3.8-4,3.8-4L385.1,207.6z"/>
    <g><path d="M370.2,245.4L370.2,245.4l-0.1,0c-2.3-0.5-2.2-4.1-2.2-5.9c0-0.3,0-0.6,0-0.8c-0.1-0.9,1.3-2.6,2.8-4.4l0.6-0.7    c0.3-0.4,0.8-1.3,1.4-2.2c0.8-1.3,1.6-2.7,2.3-3.6c1.2-1.6,5.2-6.2,5.3-6.2l0,0c0,0,0.5-4.1,1.3-8.1c-0.1-4.3,3.3-5.9,3.4-5.9    l-1.3,18.8c-0.2,0.2-2.9,3.3-3.9,4.1c-1,0.8-5.6,4.2-5.6,4.2c-0.7,0.5-1.7,1.4-1.7,1.7c0.9,0.6,0.8,3,0.8,3.3    C372.6,241.4,371,245.4,370.2,245.4L370.2,245.4z M385,207.6c-0.2,0.3-3.1,2-3,5.8c-0.9,4.1-1.4,8.2-1.4,8.2    c0,0.1-4.1,4.7-5.3,6.3c-0.7,0.9-1.6,2.4-2.3,3.6c-0.6,1-1.1,1.9-1.4,2.3l-0.6,0.7c-1,1.1-2.7,3.3-2.7,4.1c0,0.2,0,0.5,0,0.8    c-0.1,1.7-0.2,5.1,1.9,5.5l0,0.2V245c0.4,0,1.7-2.9,2.7-5.5c0-0.6,0-2.5-0.6-2.8c-0.2-1.1,1.3-2.2,1.6-2.4c0,0,4.6-3.3,5.6-4.2    c1-0.8,3.8-3.9,3.8-3.9L385,207.6L385,207.6z"/></g>
    <path class="st1"
          d="M389,204.4c0,0,0.9,2.4,2.9,2c2-0.4,4.3-2.3,4.3-2.3s1.9-0.1,2.1,0.2c0.3,0.3,5,4.9,4.9,6.3   c-0.1,1.4-2.2,1-2.9,2c-0.8,1-2,3.4-1.6,5.1c0.3,1.8,1.4,4.1,1.2,5c-0.1,0.9-0.9,1.2-0.9,1.6c0,0.5,0.6,1.3,0.6,2.2   c0,0.9-0.8,2.2-0.7,3.1c0.1,0.9,0.2,3.5,0.2,3.5l-0.2,12c0,0,0.7,0.4,0.8,1.1c0.1,0.7,4.7,20.6,4.7,20.6s-0.2,0.6-0.7,0.6   c-0.5-0.1,1.9,3.1,1.9,4c0.1,0.9,2.4,7.9,2.3,8.8c-0.1,1-0.4,3.1-0.6,3.1c-0.2,0.1,1.5,4.4,1.2,5.1c-0.3,0.7-3.1,0.6-3.1,0.6   l-0.8-0.1c0,0,0.1,0.9-0.5,0.9c-0.5,0.1-4.6-0.2-4.6-0.2s-1.2,1.8-1.9,1.7c-0.7-0.1-1.6-1.3-1.8-1.1c-0.2,0.2,0.6,1.4,0.4,1.7   c-0.2,0.3-3.7,1.1-4.4-0.6c-0.7-1.6,0.4-1.2,0.2-1.6c-0.2-0.3-1.8-1.2-2.3-0.9c-0.5,0.3,1.2,0.7,1.2,1.4c-0.1,0.7-1.5,1.7-2.1,1.7   c-0.5,0-1.8-2.5-3.8-2.3c-1.9,0.3-3.1,0.8-3.1,0.8s-2.3,0.9-3.2,0.7c-1-0.2-1.4-1-1.4-1.4c0-0.4,0.7-2.2,0.6-2.7   c-0.1-0.6-0.6-1.1-0.6-1.9c0-0.8,1.6-3.6,1.6-3.6L379,269c0,0-1.4,0-1.5-0.9c-0.1-0.9,2.2-19.9,2.5-21.1c0.3-1.2,1.2-5.6,1.2-5.6   s-1,0.5-1.1,0c-0.1-0.5,3.1-11.4,3.1-11.4s0.5-5.4,0.5-6.9c0-1.4-0.3-3.4-0.3-3.4s-2.8-1.2-2.9-3c-0.3-2.9,2.7-4.5,3-5.5   c0.3-0.9,1.4-3.8,1.4-3.8S386.6,204.8,389,204.4L389,204.4z"/>
    <g><path d="M394.2,292.7c-1.2,0-2.1-0.4-2.4-1.1c-0.5-1.1-0.2-1.4,0.2-1.6c-0.1-0.2-1.3-0.9-1.8-0.9c0.6,0.5,1.1,0.8,1.1,1.3    c-0.1,0.8-1.6,1.9-2.2,1.9c-0.3,0-0.5-0.3-0.9-0.7c-0.6-0.7-1.5-1.6-2.6-1.6c-2.1,0.3-3.4,0.8-3.4,0.8c-0.1,0-1.9,0.8-3,0.8    c-1.4-0.3-1.8-1.1-1.8-1.6c0-0.2,0.1-0.5,0.3-1.1c0.2-0.6,0.4-1.3,0.4-1.6c0-0.2-0.1-0.4-0.2-0.7c-0.2-0.4-0.4-0.8-0.4-1.3    c0-0.8,1.4-3.4,1.6-3.7l-0.1-12.5c-0.1,0.1-1.4,0.1-1.5-0.9c-0.1-1,2.2-20,2.5-21.2c0.3-1.1,1-4.4,1.2-5.4    c-0.1,0.1-0.4,0.2-0.6,0.2c0-0.1-0.1-0.2-0.1-0.4c0.4,0,0.7-0.1,0.8-0.1c0.2,0.2-0.7,4.6-1,5.8c-0.3,1.1-2.6,20.2-2.5,21.1    c0.1,0.7,1.3,0.8,1.3,0.8l0.2,12.7c-0.5,0.9-1.6,3-1.6,3.6c0,0.4,0.2,0.8,0.3,1.1c0.1,0.3,0.2,0.5,0.3,0.8c0,0.3-0.2,1.1-0.4,1.7    c-0.1,0.4-0.2,0.8-0.2,1c0,0.3,0.3,1,1.2,1.2c1.1,0,3.1-0.7,3.1-0.7c0.1,0,1.3-0.5,3.2-0.8c1.7-0.1,2.5,1,3.1,1.7    c0.3,0.3,0.6,0.6,0.7,0.6c0.5,0,1.8-1,1.9-1.6c0-0.3-0.4-0.5-0.7-0.7l-0.5-0.5c1.2-0.3,2.4,0.4,2.6,0.8c-0.3,0.5-0.6,0.6-0.2,1.6    c0.3,0.8,1.4,0.9,2.1,0.9c1,0,1.9-0.3,2-0.4c0.1-0.1-0.1-0.5-0.2-0.8c-0.2-0.4-0.3-0.8-0.2-0.9c0.3-0.1,0.5,0.1,0.9,0.4    c0.3,0.3,0.7,0.6,1,0.7l0,0c0.5,0,1.3-1,1.7-1.6c0.1-0.1,3.3,0.1,4.4,0.1c0.7-0.1,0.6-0.8,0.6-0.8l0.9,0c1.7,0,2.8-0.2,2.9-0.5    c0.1-0.4-0.4-2.2-0.8-3.3c-0.5-1.6-0.6-1.8-0.3-1.9c0.1-0.2,0.4-1.9,0.5-3c0-0.5-0.7-3.1-1.4-5.2c-0.5-1.7-0.9-3.2-1-3.6    c0-0.4-0.7-1.5-1.2-2.3c-0.7-1.2-0.9-1.5-0.8-1.7c0.6-0.1,0.7-0.5,0.7-0.5c-0.2-0.7-4.6-19.8-4.7-20.5c-0.1-0.6-0.7-1-0.7-1    l0.1-12.2c0,0-0.1-2.6-0.2-3.5c-0.1-0.5,0.1-1.2,0.3-1.8c0.2-0.5,0.3-1,0.3-1.3c0-0.5-0.2-0.9-0.4-1.4c-0.1-0.3-0.2-0.6-0.2-0.8    c0-0.3,0.2-0.5,0.4-0.7c0.2-0.2,0.5-0.5,0.5-1c0.1-0.5-0.2-1.5-0.6-2.5c-0.2-0.8-0.5-1.6-0.7-2.4c-0.4-1.9,1-4.4,1.7-5.3    c0.3-0.4,0.9-0.6,1.5-0.8c0.7-0.2,1.4-0.4,1.4-1.1c0.1-0.8-1.7-3.1-4.8-6.1c-0.1-0.1-0.5-0.2-1.6-0.2c-0.4,0-2.7,1.9-4.7,2.3    c0,0-0.1,0-0.1,0c-2.2,0-2.9-2-3-2.1c-2.2,0.5-3.7,3-3.7,3l-1.4,3.8c-0.1,0.3-0.5,0.7-0.9,1.1c-1,1-2.3,2.3-2.1,4.3    c0.1,1.7,2.7,2.9,2.8,2.9c0.1,0.1,0.4,2.1,0.4,3.6c0,1.4-0.5,6.9-0.5,6.9c-1.1,3.7-2.5,8.9-3,10.7c0.3-2.6,2.2-9.3,2.7-10.8l0,0    c0,0,0.5-5.4,0.5-6.8c0-1.4-0.3-3.4-0.3-3.4c-0.1,0.1-2.8-1.1-2.9-3c-0.2-2.1,1.2-3.5,2.2-4.5c0.4-0.4,0.7-0.8,0.8-1l1.4-3.8    c0.1-0.1,1.6-2.7,4.1-3.1c0.2,0.1,0.9,2,2.5,2c2.3-0.4,4.6-2.3,4.7-2.3c2.1-0.1,2.3,0.1,2.3,0.2c1.9,1.9,5,5.2,4.9,6.4    c-0.1,0.9-0.9,1.2-1.7,1.4c-0.5,0.2-1,0.3-1.3,0.7c-0.7,0.9-2,3.2-1.6,5c0.1,0.7,0.4,1.6,0.6,2.4c0.4,1.1,0.7,2.1,0.6,2.7    c-0.1,0.5-0.4,0.9-0.6,1.1c-0.3,0.7-0.2,0.9-0.1,1.2c0.2,0.4,0.4,0.9,0.4,1.5c0,0.4-0.2,0.9-0.4,1.4c-0.2,0.6-0.4,1.2-0.3,1.6    c0.1,0.9,0.2,3.5,0.2,3.5l-0.2,12c0-0.1,0.7,0.4,0.8,1.1c0.1,0.5,3.1,13.7,4.7,20.6c0,0.1-0.2,0.8-0.8,0.8c0,0,0.5,0.8,0.8,1.3    c0.6,1,1.2,2,1.2,2.5c0,0.4,0.5,1.9,1,3.5c0.8,2.8,1.4,4.8,1.4,5.3c0,0-0.3,3.2-0.7,3.3c0.1,0,0.3,0.8,0.5,1.5    c0.6,1.8,1,3.1,0.8,3.5c-0.2,0.6-1.8,0.7-3,0.7l-1-0.1c0.2,0.2,0.1,0.9-0.4,0.9c-1.5,0.1-4.6-0.2-4.6-0.2c0,0.1-1,1.7-1.8,1.7    c-0.5,0-0.9-0.4-1.3-0.8c-0.4-0.3-0.3,0-0.2,0.2c0.2,0.4,0.4,0.9,0.2,1.1C396.3,292.4,395.2,292.7,394.2,292.7L394.2,292.7z"/></g>
    <path class="st3"
          d="M388,291.3c0,0-6.6,3.5-7.6,3.8c-1,0.3-1.6-1.2-0.6-1.4c1-0.3,2.5-0.4,2.5-0.4s-2.3-1.8-2.2-1.8   c0.1-0.1,3.1-1.2,3.1-1.2c0.1,0,1,1.8,1.6,1.6c0.6-0.1,2.4-1.5,2.4-1.5S388.1,291.5,388,291.3L388,291.3z"/>
    <g><path d="M380.2,295.3c-0.6,0-0.9-0.5-1-0.9c-0.1-0.4,0.2-0.8,0.6-0.9c1-0.3,2.5-0.4,2.5-0.4c-2.3-1.5-2.3-1.6-2.3-1.7    c0.2-0.3,3.3-1.3,3.3-1.3c0.5,0.7,1.1,1.6,1.5,1.6c0.5-0.1,1.9-1.1,2.4-1.5c1.1,1.1,1.1,1.1,1.1,1.2c-0.4,0.2-6.7,3.6-7.7,3.8    L380.2,295.3L380.2,295.3z M380.2,291.5c0.2,0,1.2,0.8,2.2,1.6c-0.1,0.3-1.6,0.4-2.5,0.7c-0.4,0.1-0.4,0.4-0.4,0.5    c0,0.3,0.3,0.6,0.7,0.6v0.2l0.2-0.2c0.9-0.3,7-3.5,7.5-3.7c0-0.2-0.8-0.7-0.8-0.7c0,0.2-1.6,1.4-2.2,1.6c0,0,0,0,0,0    c-0.6,0-1.1-0.7-1.6-1.4C383,290.4,380.3,291.4,380.2,291.5C380.2,291.5,380.2,291.5,380.2,291.5L380.2,291.5z"/></g>
    <path class="st16" d="M397.4,293.2c0.6,0.8,0.9,2.2,2.3,1.4c1.4-0.8-0.7-2.3-0.7-2.3L397.4,293.2z"/>
    <g><path d="M398.9,295.1L398.9,295.1c-0.7,0-1-0.6-1.3-1.1c-0.1-0.2-0.2-0.4-0.4-0.6l1.6-1.2c0.2,0,1.5,1,1.5,1.8    c0,0.3-0.2,0.6-0.6,0.8C399.4,295,399.1,295.1,398.9,295.1L398.9,295.1z M397.5,293.4c0.2,0,0.3,0.2,0.4,0.4    c0.4,0.7,0.8,1.2,1.7,0.7c0.3-0.2,0.4-0.3,0.4-0.5c0-0.6-0.8-1.3-1.2-1.5L397.5,293.4C397.5,293.4,397.5,293.4,397.5,293.4    L397.5,293.4z"/></g>
    <path class="st16" d="M400,293.1c0,0,0.7,0.6,1.3-0.1c0.6-0.6-1.2-1.9-1.2-1.9l-0.9,1L400,293.1z"/>
    <g><path d="M400.6,293.5c-0.4,0-0.7-0.3-0.7-0.3l-0.8-1l0.9-1.2c0.4,0.1,1.6,1,1.6,1.7C401.2,293.4,400.9,293.5,400.6,293.5    L400.6,293.5z M400,291.3l-0.7,1l1.3,0.9c0.2,0,0.4-0.1,0.5-0.3C401.2,292.2,400.3,291.5,400,291.3L400,291.3z"/></g>
    <g><path d="M392.1,212.3c-0.5-1.4,5.1-5,5.7-5.4l0.2,0.3C395.7,208.7,392,211.4,392.1,212.3L392.1,212.3z"/></g>
    <g><path class="st17" d="M399.3,207.7c0,0-1.4,1.5-1.4,1.5L399.3,207.7z"/></g>
    <g><path d="M398.8,213.4c-0.8-1.6,2.1-4,2.3-4.1l0.2,0.3C401.2,209.5,398.3,211.9,398.8,213.4L398.8,213.4z"/></g>
    <g><path d="M388.3,216.1c-0.3-0.1-0.1-1.1-0.3-2.5c-0.1-1-0.9-2.4-1.4-3.3c-0.2-0.5-0.4-0.8-0.5-1c-0.2-0.7,0.6-2.4,0.7-2.6l0.3,0.1    c-0.3,0.7-0.8,1.9-0.7,2.3c0.1,0.2,0.3,0.5,0.5,1c0.5,1,1.3,2.4,1.4,3.4C388.5,215,388.3,216,388.3,216.1L388.3,216.1z"/></g>
    <g><path d="M387.8,215.7c-0.4-0.6-1.5-2.5-1.9-2.9c-0.4-0.4-0.7-2.5-0.7-2.7l0.3,0c0.1,0.8,0.4,2.2,0.6,2.5    C386.6,213.1,387.7,215,387.8,215.7L387.8,215.7z"/></g>
    <g><path d="M385.3,219.5c-0.4,0-0.6-0.1-0.6-0.1l0.1-0.3c0,0,0.4,0.2,1,0c0.5-0.2,1.4-0.8,2.2-2.5c-0.4,1.6-1.2,2.5-2.1,2.8    C385.7,219.5,385.5,219.5,385.3,219.5L385.3,219.5z"/></g>
    <g><path d="M395.1,220.1c-0.9,0-2.1-0.3-3.4-1c-1.8-1-1.4-3.4-1.2-4.1c0.2-0.7,0.3-0.7,0.4-0.7l0.1,0.3c-0.1,0.1-0.6,1.6-0.3,2.9    c0.2,0.7,0.5,1.2,1.1,1.5c2.1,1.2,3.7,1.1,4.7,0.8c0.9-0.3,2-0.9,2-0.9c0.2,0.3-0.9,0.9-1.8,1.3    C396.2,219.9,395.7,220.1,395.1,220.1L395.1,220.1z"/></g>
    <g><path d="M396.8,227.3c-6.8-4.2-7-8.6-7-8.8l0.3,0C390.1,218.5,390.3,222.9,396.8,227.3L396.8,227.3z"/></g>
    <g><path d="M392.8,228.3c-2.8-1.5-2.8-5.5-2.8-5.6h0.3C390.4,222.7,390.3,226.6,392.8,228.3L392.8,228.3z"/></g>
    <g><path d="M385.3,224.7c1.1-0.8,2.8-5.1,3.3-6.7l0.3,0.1C388.9,218.3,386.9,224,385.3,224.7L385.3,224.7z"/></g>
    <g><path d="M387.7,228.1c0.2-1.6,0.3-5.8,0.3-5.8h0.3C388.4,222.5,388.3,226.6,387.7,228.1L387.7,228.1z"/></g>
    <g><path d="M389.7,230.8c-1.5,0-2.8-1.6-2.8-1.6l0.3-0.2c0,0,1.3,1.6,2.7,1.5c0.7-0.1,1.2-0.5,1.7-0.9c0.5-0.4,0.9-0.9,1.5-0.7    c0.3,0.1,0.5,0.2,0.8,0.3c0.8,0.3,1.8,0.8,3.5,0.6c-1.8,0.5-2.8,0.1-3.6-0.3c-0.3-0.1-0.5-0.2-0.8-0.3c-0.5-0.1-0.8,0.2-1.2,0.6    c-0.5,0.4-1,0.9-1.9,1C389.9,230.8,389.8,230.8,389.7,230.8L389.7,230.8z"/></g>
    <g><path d="M395.1,239.1c-0.2-1.5-0.3-3.3-0.6-3.4c-0.7-0.4-0.7-3.4-0.7-4h0.3c0,1.7,0.2,3.5,0.5,3.7    C395.4,235.8,395.2,238.3,395.1,239.1L395.1,239.1z"/></g>
    <g><path d="M384.3,239.4c-0.4-1.5,0.2-3.3,0.6-4.5c0.5-1.5,0.6-4.8,0.6-4.8l0.3,0c0,0.1-0.1,3.3-0.5,4.5    C384.8,236.1,384.1,237.9,384.3,239.4L384.3,239.4z"/></g>
    <g><path class="st17" d="M381.5,241.3c0.3-0.1,1.5-1.2,1.5-1.2L381.5,241.3z"/></g>
    <g><path d="M381.7,261c-1.1-7.4,1.8-20,1.8-20.1l0.3,0.1C383.7,241,380.8,253.6,381.7,261L381.7,261z"/></g>
    <g><path d="M383.6,252.7c-1-1.7,0.4-10.8,0.5-11.2l0.3,0C384.4,241.6,383,250.9,383.6,252.7L383.6,252.7z"/></g>
    <g><path d="M388.2,241.6c-1.7,0-4.5-0.2-4.6-0.2l0-0.3c0.1,0,5.8,0.4,5.8,0.4C389.3,241.6,388.8,241.6,388.2,241.6L388.2,241.6z"/></g>
    <g><path d="M392.5,241.5c-1.5,0-2.4-0.5-2.5-0.5l0.2-0.3c0,0,1.6,0.8,3.7,0.7C393.4,241.5,392.9,241.5,392.5,241.5L392.5,241.5z"/></g>
    <g><path d="M388.9,265.2c0.1-3.6,0.4-19.6,0.4-19.7h0.3C389.6,245.6,389.3,261.7,388.9,265.2L388.9,265.2z"/></g>
    <g><path d="M400.8,264.5c-1.3-1.1-3-14.8-3.1-15.4l0.3,0C398.6,254,400,263.5,400.8,264.5L400.8,264.5z"/></g>
    <g><path d="M396.3,264.5c-0.9-1-2-13-2-13.5l0.3,0C394.9,254.4,395.8,263.6,396.3,264.5L396.3,264.5z"/></g>
    <g><path d="M378.9,269.1l-0.1-0.3c0,0,2.1-0.7,4-2.7c0.8,0.8,1.5,1.2,2.3,1.3c1.6,0.3,3.3-1.1,3.3-1.2c0.2,0,3,1.8,5.3,1.3    c0.9-0.2,1.7-0.8,2.2-1.7c3.6,2.2,5.3-0.2,5.3-0.3c0.6,0.5,1.7,1.9,2.4,1.7c-0.9,0.5-2.1-1.2-2.3-1.5c0,0.3-1.9,2.6-5.3,0.4    c-0.4,0.9-1.2,1.6-2.2,1.8c-2.4,0.6-5.2-1.3-5.3-1.4c0.1,0.1-1.6,1.4-3.3,1.2c-0.9-0.1-1.6-0.6-2.2-1.4    C381.1,268.4,379,269.1,378.9,269.1L378.9,269.1z"/></g>
    <g><path d="M404.7,284.7c-4.2-3.3-6.8-15.4-6.9-15.9l0.3-0.1C398.1,268.8,400.8,281.2,404.7,284.7L404.7,284.7z"/></g>
    <g><path d="M385.3,285.3c-0.9-7.3-1.3-17.7-1.3-17.8l0.3,0C384.3,267.5,384.7,278,385.3,285.3L385.3,285.3z"/></g>
    <g><path d="M383.1,286.7c0-0.5,0.3-4.2,0.5-7.4l0.3,0C383.8,280.4,383.5,286.2,383.1,286.7L383.1,286.7z"/></g>
    <g><path d="M389.3,291C389.3,291,389.2,291,389.3,291c-0.8-0.1-1.1-1.3-1.2-1.8c-0.2-1-0.4-2.1-1.1-2.4c-0.6-0.2-1.5,0-2.6,0.9    c-1.4,1.1-2.6,1.4-3.5,1.1c-1-0.3-1.2-1.3-1.2-1.4l0.3-0.1c0,0,0.2,0.9,1,1.2c0.8,0.3,1.9-0.1,3.2-1c1.2-0.9,2.2-1.2,3-0.9    c0.9,0.4,1.1,1.6,1.2,2.2c0.2,0.8,0.5,1.9,1,2c0.3,0,0.6-0.3,0.9-0.9C390,290.6,389.7,291,389.3,291L389.3,291z"/></g>
    <g><path d="M394.9,289.2c-0.3,0-0.5-0.1-0.7-0.2c-1.3-0.7-1.1-3.2-1-3.3l0.3,0c0,0-0.2,2.4,0.9,2.9c0.8,0.4,2-0.1,3.7-1.5    c2.1-1.7,3.7-2.3,4.9-1.8c1.4,0.6,1.7,2.4,1.8,3.2c-0.4-0.7-0.7-2.4-1.9-2.9c-1.1-0.4-2.6,0.2-4.6,1.8    C396.9,288.7,395.8,289.2,394.9,289.2L394.9,289.2z"/></g>
    <path class="st18"
          d="M386.8,191.6c0,0,1.5,0.2,2.3-0.3c0.8-0.5,1.8-0.7,2.5,0.3c0.7,1,1.2,0.9,1.2,0.9s-1,2.5,0,2.8   c1,0.3,1.5,0.3,1.6,0.6c0.1,0.3-0.9,1.1-0.6,1.4c0.3,0.3,0.8,0.8,0.8,1c0.1,0.3-0.6,1.4-0.4,1.7c0.2,0.3,0.8,1.4,1.2,1.4   c0.4,0,0.1,1.7,1.4,1.3c1.2-0.4,1.2-1.5,1.2-1.5s1.3-0.2,1.6-1.4c0.3-1.2,1.2-1.4,1.2-1.4s1.6-0.9-0.6-2.3c0-9.6-6.3-8.6-6.3-8.6   s-0.8-1.7-2-1.5c-1.2,0.2-1.3,1.6-2.2,1.5c-0.9-0.1-1.1-0.8-1.2-0.7c-0.1,0.1-0.8,1.4-0.8,1.8c0,0.3-2.4-0.5-2.2,1.3   C385.7,191.8,386.9,191.7,386.8,191.6L386.8,191.6z"/>
    <g><path d="M396.4,203c-0.6,0-0.8-0.6-0.9-1c-0.5-0.4-0.9-0.9-1.3-1.6c-0.3-0.4-0.2-0.8,0-1.4c0.1-0.2,0.2-0.5,0.2-0.6    c0-0.1-0.3-0.4-0.4-0.6c-0.6-0.7-0.3-1.1,0-1.4c0.3-0.6,0-0.7-0.5-0.8l-0.7-0.2c-0.8-1.1-0.2-2.7-0.1-3c-0.1,0.1-0.6,0-1.1-0.8    c-0.5-0.7-1.3-0.8-2.3-0.2c-0.9,0.5-2.4,0.3-2.4,0.3c-0.6,0.1-1.3-0.3-1.4-1.7c0-0.4,0-0.7,0.2-1c0.3-0.4,0.9-0.4,1.4-0.4l0.6,0    c0-0.3,0.7-1.7,0.8-1.8c0.5,0.2,0.7,0.5,1.3,0.6c0.3,0.2,0.5-0.2,0.8-0.5c0.3-0.4,0.6-0.8,1.3-1c1.5,0.2,2.1,1.5,2.2,1.6    c1.8-0.1,6.3,0.5,6.3,8.6c0.7,0.4,1.2,0.9,1.1,1.4c0,0.6-0.6,1-0.7,1c-0.1,0-0.8,0.3-1.1,1.3c-0.3,1.1-1.5,1.4-1.7,1.5    c0.1,0.1,0,1.1-1.2,1.5L396.4,203L396.4,203z M390.4,190.7c0.5,0,1,0.2,1.3,0.7c0.6,0.8,1,0.8,1,0.8c0,0.7-0.5,2.1-0.2,2.6    l0.9,0.4c0.6,0.1,1,0.2,1,0.6c0,0.2-0.1,0.5-0.3,0.7c-0.1,0.2-0.4,0.5-0.3,0.6c0.6,0.6,0.8,0.9,0.9,1.1c0,0.2,0,0.4-0.2,0.8    c-0.1,0.2-0.3,0.8-0.2,0.9c0.4,0.5,0.9,1.3,1.1,1.3h0.1l0.3,0.6c0.1,0.4,0.2,0.8,0.6,0.8v0.2l0.3-0.2c1.1-0.4,1.1-1.3,1.1-1.3    c0.2-0.2,1.3-0.4,1.6-1.4c0.4-1.2,1.2-1.5,1.3-1.5l0,0c0,0,0.5-0.3,0.5-0.7c0-0.4-0.4-0.8-1.1-1.3c-0.1-7.7-4-8.6-5.7-8.6l-0.1,0    l-0.5-0.1c0,0-0.6-1.4-1.6-1.4c-0.7,0.1-1,0.5-1.3,0.9c-0.3,0.3-0.5,0.7-1,0.7c-0.8-0.1-1.1-0.5-1.3-0.7c0,0.1-0.6,1.3-0.6,1.6    l-0.7,0.3c-0.6,0-1.1,0-1.3,0.3c-0.1,0.2-0.2,0.4-0.2,0.7c0.1,1.2,0.7,1.5,1,1.5c0.2-0.1,0.5,0,0.9,0c0.5,0,1.1,0,1.5-0.3    C389.6,190.9,390,190.7,390.4,190.7L390.4,190.7z"/></g>
    <g><path d="M396.9,194.1c-0.4,0-1.3-0.7-0.9-2.2c-0.9,0.3-1.7,0.1-2.2-0.5c-0.8-0.9-0.6-2.2-0.6-2.2l0.3,0c0,0-0.2,1.2,0.5,2    c0.4,0.5,1.1,0.7,2.1,0.6c-0.2,1.7,0.9,2.2,0.9,2.2C397,194.1,397,194.1,396.9,194.1L396.9,194.1z"/></g>
    <g><path d="M399.4,198.1c0.3-0.6,0.5-0.9,0.4-1.3c0-0.4-0.5-0.7-0.5-0.7l0.1-0.3c0.1,0,0.6,0.3,0.7,0.8    C400.2,197,400.2,197.6,399.4,198.1L399.4,198.1z"/></g>
    <g><path d="M398.9,200.1c-0.2,0-0.5-0.1-0.8-0.2c-0.4-0.3-1.3-0.9-1.9-0.7c-0.9,0.2-1.6-0.6-1.6-0.7l0.2-0.2c0,0,0.6,0.7,1.3,0.6    c0.8-0.2,2.1,0.7,2.1,0.8c0.4,0.1,0.9,0.2,0.9,0.2C399.2,200,399.1,200.1,398.9,200.1L398.9,200.1z"/></g>
    <g><path d="M391.1,201.3c-0.4,0-0.6-0.1-0.6-0.1l0.1-0.3c0.1,0,2.2,0.8,3.6-2.7C393.4,200.9,391.9,201.3,391.1,201.3L391.1,201.3z"/></g>
    <g><path class="st17" d="M386.2,197.1l1.4,0.1L386.2,197.1z"/></g>
    <g><polygon class="st17" points="386.4,198.5 387.7,198.5 386.6,199   "/></g>
    <g><path class="st17" d="M388.1,194.7c0.2,0,1-0.3,1.1-0.1C389.4,194.8,388.4,194.9,388.1,194.7z"/></g>
    <path class="st16"
          d="M402.9,210.9c0.1,0,2.3,6.8,2.5,8.5c0.3,1.7,1.2,8.6,0.8,9.5c-0.3,1-3.8,5.5-4.2,6.7   c-0.4,1.2-2.9,5.6-2.9,5.6s-0.6,4.4-0.9,4.6c-0.3,0.2,0.7,1.3,0.6,1.6c-0.1,0.4-2,2.3-2.8,2.1c-0.8-0.2-2.1-1.2-2.2-2.1   c-0.1-0.9,0.1-3.8,0.7-4.6c0.6-0.7,3.8-8.3,4-8.8c0.2-0.5,2.9-6.4,3-7.5c0.1-1-0.9-3.4-1.8-4.3   C397.6,216.1,398.5,212.2,402.9,210.9L402.9,210.9z"/>
    <g><path d="M396.2,249.8l-0.2,0c-0.9-0.2-2.2-1.2-2.3-2.2c-0.1-0.9,0.1-3.9,0.7-4.7c0.2-0.3,1.1-2,3.9-8.4l0.4-0.9    c0.7-1.5,2.7-6,2.8-6.9c0.1-1-0.8-3.3-1.8-4.1c-1.4-4.1-1.6-7-0.5-9c0.7-1.3,1.9-2.3,3.7-2.8l0,0c0.5,0,2.7,8.5,2.7,8.6    c0.3,1.7,1.2,8.6,0.8,9.6c-0.2,0.5-1,1.7-2,3.1c-1,1.4-2.1,3-2.3,3.6c-0.4,1.2-2.8,5.5-2.9,5.6c-0.2,1.6-0.7,4.4-0.9,4.6    c0,0.1,0.2,0.4,0.3,0.6c0.2,0.4,0.4,0.7,0.3,0.9C398.9,248,397.2,249.8,396.2,249.8L396.2,249.8z M402.8,211    c-1.5,0.6-2.7,1.4-3.3,2.7c-1,1.9-0.8,4.7,0.5,8.6c1,0.8,1.9,3.3,1.8,4.3c-0.1,0.8-1.6,4.4-2.8,7l-0.5,0.8l0.1,0.1    c-2.2,5.2-3.5,8-3.9,8.5c-0.5,0.7-0.7,3.5-0.6,4.5c0.1,0.8,1.3,1.7,2.1,1.9l0.1,0c0.8,0,2.4-1.7,2.5-2c0-0.1-0.2-0.5-0.3-0.7    c-0.3-0.5-0.5-0.8-0.2-1.1c0.1-0.2,0.5-2.4,0.8-4.5c0-0.1,2.5-4.5,2.9-5.6c0.2-0.6,1.3-2.2,2.3-3.7c0.9-1.3,1.8-2.6,1.9-3    c0.3-0.9-0.5-7.5-0.8-9.4C405,217.8,403,211.3,402.8,211L402.8,211z"/></g>
    <g><path class="st17" d="M371,240.3l0.1,3L371,240.3z"/></g>
    <g><path d="M370.1,245c-0.2-1.7-2-4.8-2.1-4.9l0.3-0.2C368.4,240.1,370.3,243.3,370.1,245L370.1,245z"/></g>
    <g><path d="M395.5,249.1c-0.3-0.9-0.5-1.5-0.8-1.9c-0.3-0.3-0.7-0.3-0.7-0.3l0-0.3c0,0,0.5,0,0.9,0.4    C395.4,247.4,395.6,248.1,395.5,249.1c0.6-3.1,2.5-3.3,2.6-3.3C398.1,246.2,396.4,246.3,395.5,249.1L395.5,249.1z"/></g>
    <path class="st3"
          d="M389.1,315.4c28.9-0.8,47.6-21.7,47.4-21.9c-0.2-0.2,3.8-5.8,7-5c3.2,0.8,7.8,10.2,13.5,12.3   c2.8,4.4-0.8,8.4-2,9.2c-1.2,0.8-6.6,3-7.4-0.2c-0.8-3.2-2.4-2.6-2.4-2.6s-25.7,25.1-55.4,24.1c-30.7,0.2-56-24.1-56-24.1l-2.2,2.4   c0,0-2.4,2.6-3.6,2.4c-1.2-0.2-6.4-3.6-6.8-7c-0.4-3.4,3.2-5.6,3.2-5.6s8.8-6.8,9.8-10.4c2-2,5.8,1.4,5.8,1.4   S363.2,317,389.1,315.4L389.1,315.4z"/>
    <g><path d="M391.4,331.6l-1.7,0h0c-30.7,0-56-23.9-56.2-24.2l-1.7,2.4c-0.2,0.3-2.4,2.5-3.7,2.5c-1.5-0.2-6.9-3.7-7.3-7.3    c-0.4-3.6,3.2-5.8,3.4-5.9c0.1,0,8.7-6.8,9.7-10.3c2.2-2.4,6.2,1.1,6.4,1.3c0.3,0.3,23.5,26.6,48.9,25c29-0.8,47-21.5,47.1-21.7    c0.4-1.1,4.4-5.9,7.4-5.2c1.5,0.4,3.3,2.5,5.3,4.9c2.4,2.9,5.2,6.3,8.2,7.4c3,4.6-0.4,8.8-1.9,9.8c-0.8,0.5-3.1,1.6-5.1,1.6    c-1.6,0-2.6-0.7-2.9-1.9c-0.5-2.2-1.4-2.4-1.8-2.4C445.1,307.6,420.2,331.6,391.4,331.6L391.4,331.6z M333.4,306.9    c0.7,0.2,25.8,24,55.9,24l2.1,0c28.5,0,53.2-23.8,53.5-24c1.2-0.1,2.3,0.2,3,2.8c0.2,1,1,1.4,2.2,1.4c1.8,0,4.1-1,4.7-1.4    c0.9-0.6,4.7-4.4,1.9-8.8c-3-1-5.9-4.4-8.3-7.4c-1.8-2.2-3.6-4.3-4.9-4.7c0,0-0.1,0-0.1,0c-3.2,0-6.4,4.2-6.6,4.7    c-0.1,0.3-18.3,21.4-47.7,22.2c-0.8,0-1.5,0.1-2.3,0.1c-24.8,0-46.9-25-47.2-25.3l0,0c0,0-3.8-2.9-5.3-1.4    c-0.9,3.5-9.5,10.2-9.9,10.5c-0.1,0-3.5,2.2-3.1,5.3c0.4,3.2,5.4,6.6,6.5,6.7c0,0,0,0,0,0c0.9,0,2.5-1.4,3.3-2.3L333.4,306.9    L333.4,306.9z"/></g>
    <g><path d="M333.6,307.3c0,0-6-5.9-6.9-6.9c-0.6-0.7-2.3-0.4-2.9-0.3l-0.2-0.6c0.3-0.1,2.6-0.7,3.6,0.4c0.9,1,6.9,6.9,6.9,6.9    L333.6,307.3L333.6,307.3z"/></g>
    <g><path d="M331.7,309.7l-0.6-0.2c0.3-0.8,0.2-1.6-0.1-2.2c-1-1.8-4.2-2.5-4.3-2.5l2.3-2.4l0.4,0.5l-2.2,1.6c0.7-0.2,3.3,0.6,4.4,2.4    C331.9,307.7,332,308.7,331.7,309.7L331.7,309.7z"/></g>
    <g><path d="M445.4,307.3l-0.5-0.4c0.2-0.2,4.8-5.3,6.7-6.7c2-1.5,3.4-0.8,3.4-0.8l-0.3,0.6c0,0-1.1-0.5-2.7,0.7    C450.1,302,445.4,307.2,445.4,307.3L445.4,307.3z"/></g>
    <g><path d="M447.5,310c-0.4-1.6-0.2-2.9,0.6-3.9c1.3-1.8,3.8-2,3.9-2l-2.8-1.4l0.4-0.5l2.6,2c-0.2,0.6-2.5,0.8-3.6,2.3    c-0.6,0.9-0.8,2-0.5,3.4L447.5,310L447.5,310z"/></g>
    <rect class="st0" height="129.7" width="259.3" y="106.7"/>
    <path class="st1"
          d="M0,106.7v14.5l230.3,115.2h29v-14.5L29,106.7H0z M259.3,106.7v14.5L29,236.3H0v-14.5l230.3-115.2H259.3z"/>
    <path class="st1" d="M108,236.3h43.2V106.7H108V236.3z M0,193.1h259.3v-43.2H0V193.1z"/>
    <path class="st19" d="M0,184.5h259.3v-25.9H0V184.5z M116.7,236.3h25.9V106.7h-25.9V236.3z"/>
    <path class="st19"
          d="M0,236.3l86.4-43.2h19.3l-86.4,43.2H0z M0,106.7l86.4,43.2H67.1L0,116.3V106.7z M153.5,149.9l86.4-43.2h19.3   l-86.4,43.2H153.5z M259.3,236.3l-86.4-43.2h19.3l67.1,33.6V236.3z"/>
    <path
      d="M354.2,306.2l-0.2,0.2c-0.4-0.2-0.8-0.2-1.2-0.1c-0.3,0.1-1,0.4-1.9,1l-8,4.6l-0.2-0.2l2-9.3c0.2-1.1,0.4-1.8,0.3-2   c0-0.2-0.2-0.5-0.5-0.8l0.2-0.3l4.3,3.1l-0.2,0.2l-0.1-0.1c-0.4-0.3-0.7-0.4-0.9-0.4c-0.1,0-0.3,0-0.4,0.2   c-0.1,0.1-0.1,0.2-0.2,0.3c0,0.1-0.1,0.5-0.3,1.1l-1.3,5.8l4.6-2.7c0.6-0.3,0.9-0.6,1.1-0.7s0.3-0.3,0.4-0.4   c0.1-0.1,0.1-0.3,0.1-0.4c0-0.2,0-0.3-0.1-0.5c-0.1-0.2-0.4-0.4-0.7-0.6l0.2-0.2L354.2,306.2L354.2,306.2z M357.1,320l-0.1,0.3   l-5-2.8l0.1-0.3l0.3,0.2c0.3,0.2,0.5,0.2,0.8,0.2c0.2,0,0.3-0.1,0.5-0.2c0.1-0.1,0.3-0.4,0.6-0.9l3.5-6.3c0.3-0.5,0.4-0.8,0.4-1   c0-0.2,0-0.3-0.1-0.5c-0.1-0.2-0.3-0.3-0.6-0.5l-0.3-0.2l0.1-0.3l5,2.8l-0.1,0.3l-0.3-0.2c-0.3-0.2-0.5-0.2-0.8-0.2   c-0.2,0-0.3,0.1-0.5,0.2c-0.1,0.1-0.3,0.4-0.6,0.9l-3.5,6.3c-0.3,0.5-0.4,0.8-0.4,1c0,0.2,0,0.3,0.1,0.5c0.1,0.2,0.3,0.3,0.6,0.5   L357.1,320L357.1,320z M375.5,315.7l-1.3,3.7l-0.3-0.1c0-1.1-0.2-2.1-0.7-2.8c-0.5-0.8-1.2-1.3-2-1.6c-0.8-0.3-1.5-0.3-2.2,0   c-0.7,0.3-1.3,0.7-1.7,1.4c-0.5,0.7-0.9,1.5-1.2,2.3c-0.4,1-0.5,1.9-0.6,2.7c0,0.8,0.1,1.5,0.5,2.1c0.4,0.5,1,0.9,1.7,1.2   c0.2,0.1,0.5,0.2,0.8,0.2c0.3,0,0.6,0.1,0.9,0.1l0.8-2.2c0.2-0.4,0.2-0.7,0.2-0.8c0-0.1-0.1-0.3-0.2-0.5c-0.1-0.2-0.3-0.3-0.6-0.4   l-0.3-0.1l0.1-0.3l5,1.8l-0.1,0.3c-0.4-0.1-0.7-0.1-0.9-0.1c-0.2,0-0.3,0.1-0.5,0.3c-0.1,0.1-0.2,0.3-0.3,0.7l-0.8,2.2   c-0.8,0.1-1.5,0-2.3-0.1c-0.8-0.1-1.5-0.3-2.3-0.6c-1-0.3-1.8-0.8-2.3-1.3c-0.6-0.5-1-1.1-1.3-1.7c-0.3-0.6-0.5-1.2-0.6-1.9   c-0.1-0.8,0-1.7,0.3-2.5c0.6-1.6,1.6-2.7,3-3.4c1.5-0.7,3-0.7,4.7-0.1c0.5,0.2,1,0.4,1.3,0.6c0.2,0.1,0.5,0.4,1,0.7   c0.4,0.4,0.7,0.6,0.8,0.6c0.1,0,0.3,0,0.5,0c0.2-0.1,0.3-0.2,0.5-0.5L375.5,315.7L375.5,315.7z M383.3,328.2l0,0.3l-5.7-0.9l0-0.3   l0.4,0c0.3,0,0.6,0,0.8,0c0.2-0.1,0.3-0.2,0.4-0.3c0.1-0.1,0.2-0.5,0.2-1l1.1-7.1c0.1-0.6,0.1-0.9,0.1-1.1c0-0.2-0.1-0.3-0.3-0.4   c-0.2-0.1-0.4-0.2-0.7-0.3l-0.4-0.1l0-0.3l5.7,0.9l0,0.3l-0.4-0.1c-0.3,0-0.6,0-0.8,0.1c-0.2,0-0.3,0.2-0.4,0.3   c-0.1,0.1-0.2,0.4-0.2,1l-1.1,7.2c-0.1,0.6-0.1,0.9-0.1,1.1c0,0.1,0.1,0.3,0.3,0.4c0.2,0.1,0.4,0.2,0.7,0.3L383.3,328.2   L383.3,328.2z M398,324.6l-0.2,3.9L388,329l0-0.3l0.4,0c0.3,0,0.6-0.1,0.8-0.2c0.1-0.1,0.2-0.2,0.3-0.4c0.1-0.1,0.1-0.5,0-1   l-0.4-7.2c0-0.6-0.1-0.9-0.1-1.1c-0.1-0.1-0.2-0.3-0.4-0.3c-0.2-0.1-0.4-0.1-0.7-0.1l-0.4,0l0-0.3l5.8-0.3l0,0.3l-0.5,0   c-0.3,0-0.6,0.1-0.8,0.2c-0.1,0.1-0.2,0.2-0.3,0.4c-0.1,0.1-0.1,0.5,0,1l0.4,7c0,0.6,0.1,0.9,0.2,1.1c0.1,0.1,0.2,0.3,0.4,0.3   c0.1,0,0.5,0,1,0l0.9,0c0.6,0,1.1-0.2,1.4-0.4c0.4-0.2,0.7-0.6,1-1c0.3-0.5,0.5-1.1,0.7-2L398,324.6L398,324.6z M408.7,322.7   l-3.7,1.1l-0.1,1.2c0,0.4,0,0.7,0,0.9c0.1,0.3,0.3,0.5,0.5,0.5c0.2,0,0.5,0,1.1-0.1l0.1,0.3l-3.5,1l-0.1-0.3   c0.4-0.2,0.6-0.4,0.8-0.7c0.2-0.3,0.3-0.9,0.4-1.9l1.3-9.5l0.1,0l6.4,7.5c0.6,0.7,1.1,1.1,1.4,1.3c0.2,0.1,0.5,0.1,0.8,0l0.1,0.3   l-5.1,1.5l-0.1-0.3l0.2-0.1c0.4-0.1,0.7-0.3,0.8-0.4c0.1-0.1,0.1-0.3,0.1-0.4c0-0.1-0.1-0.2-0.1-0.3c0,0-0.2-0.2-0.4-0.5   L408.7,322.7L408.7,322.7z M408.2,322.2l-2.7-3.2l-0.5,4.1L408.2,322.2L408.2,322.2z M422.3,307.9l1.4,2.6l-0.3,0.1   c-0.5-0.5-0.9-0.9-1.2-1c-0.3-0.2-0.7-0.2-1.1-0.2c-0.2,0-0.6,0.1-1,0.4l-0.7,0.4l4,7.5c0.3,0.5,0.5,0.8,0.6,0.9   c0.1,0.1,0.3,0.1,0.5,0.2c0.2,0,0.5-0.1,0.7-0.2l0.3-0.2l0.1,0.3l-5.1,2.7l-0.1-0.3l0.3-0.2c0.3-0.2,0.5-0.3,0.6-0.5   c0.1-0.1,0.1-0.3,0.1-0.5c0-0.1-0.1-0.5-0.4-0.9l-4-7.5l-0.7,0.4c-0.6,0.3-1.1,0.7-1.2,1.2c-0.2,0.6-0.2,1.3,0.1,2.1l-0.3,0.1   l-1.4-2.6L422.3,307.9L422.3,307.9z M428.9,304l2.7,3.6l0.2-0.1c0.6-0.4,0.8-0.9,0.8-1.4c0-0.5-0.2-1.2-0.7-1.9l0.2-0.2l3.5,4.6   l-0.2,0.2c-0.4-0.5-0.8-0.8-1.3-1c-0.4-0.2-0.8-0.3-1.1-0.2c-0.3,0.1-0.7,0.2-1.1,0.6l1.9,2.5c0.4,0.5,0.6,0.8,0.7,0.8   c0.1,0.1,0.3,0.1,0.4,0.1c0.2,0,0.4-0.1,0.6-0.3l0.5-0.4c0.8-0.6,1.3-1.3,1.5-2.1c0.2-0.7,0.1-1.6-0.2-2.5l0.2-0.2l1.7,3.1   l-7.6,5.7l-0.2-0.2l0.3-0.2c0.3-0.2,0.4-0.4,0.5-0.6c0.1-0.1,0.1-0.3,0-0.5c0-0.1-0.2-0.4-0.5-0.9l-4.4-5.8   c-0.3-0.4-0.5-0.6-0.6-0.7c-0.2-0.1-0.3-0.2-0.5-0.2c-0.3,0-0.5,0.1-0.8,0.3l-0.3,0.2l-0.2-0.2l7.3-5.5l2,2.6l-0.2,0.2   c-0.6-0.5-1.1-0.9-1.6-1c-0.4-0.1-0.9-0.1-1.4,0.1c-0.3,0.1-0.8,0.4-1.4,0.9L428.9,304L428.9,304z"/></g></svg>
