<?xml version="1.0" ?>
<svg id="Layer_1" style="enable-background:new 0 0 512 512;" version="1.1" viewBox="0 0 512 512" xml:space="preserve"
     xmlns="http://www.w3.org/2000/svg"><style type="text/css">
	.st0 {
    fill: #FFFFFF;
  }

  .st1 {
    fill: #46AC3E;
  }

  .st2 {
    fill: #C0003B;
  }
</style>
  <g><rect class="st0" height="149.4" width="512" x="0" y="106.7"/>
    <rect class="st1" height="149.4" width="512" x="0" y="256"/>
    <path class="st2"
          d="M446.6,148.5c-3,21,0,51.3,5.2,61.3c-6.3-2.3-13.3-7.6-16.8-14.6c-2.5,7.6-4.9,15.3-7.4,22.9   c15.6,31.7-25,56.6-58.8,58.4c20.6,11.2,47.6,25.1,47.6,32.4c-8.2,3.1-13.1-5.7-19.6-8.5c7,18.3,2.7,31.8-0.9,49.8   c-3.5,4.2,0,7,1.4,10.5c3.2,1.3,6.5,2.5,9.7,3.8c0.5,0.5,1,0.9,1.6,1.4c0,0,6.9,0.3,8.7,9.9c-4.6-5.5-10.8-3.8-10.8-3.8   c-0.8,0.5-1.6,1-2.4,1.6l-5.5-3.3c-6.1-4-12.2-3.8-18.9-0.9c-3.3,2-6.8,1.9-10.1,0.3c-3.7-4-11.8-0.5-11.9-0.5   c-0.2,0-8.6,5.7-8.6,5.7s-2-0.5-2.2-0.5c-0.2,0-5.5-0.1-12.6,4.4c1.9-9.6,8.8-9.4,8.8-9.4c-0.6-2,0.8-1.7,1.3-2.5   c2.3-2.5,7.1-2.1,10.7-3.1c-6.8-0.3-13.6-0.6-20.4-0.9c0.1-0.3,0.2-0.6,0.3-0.9c-4.5-0.4-8-0.6-10.5,3.6c-0.3-7,5.7-8.3,9.4-9.9   c1.7-2.6,5.4-2.2,9-1.9c0,0,19.5,7.2,18.1,6.8c-1.4-0.5-22.9-9.7-22.9-9.7c-1.1-1.6,0.3-2.5,0.3-2.7c0-0.2-5.8-3.7-9.9,0.3   c0.8-8.3,10.7-6.1,10.7-6.1c0.6-2.7,3.2-2.3,4.6-1.1c2.6,2.5,5.1,5,7.7,7.5c2.4,1.5,4.8,3,7.2,4.6c6.7,3,13.8,1.9,19.8-7.7   c-2-4.9-1.1-7.1,3.5-10.1c-1.2-3.3-0.8-6.7,0.6-9.9c-2-3-3.2-11.3-1.3-13.2c-4.5-1.6-6.3-6.1-6.6-6.1c-4.1,0.9-7.7-0.5-9.4-2.2   c-6.4,2.8-11.9,1.3-16-2.4c-7.4,2.5-14.1,0.8-17.6-2.4c-5.6,1.4-14.5-2.7-16-7.2c-3.2,0-6.6-3.6-10.1-3.3c-2.9,4.7-3.6,4.3-8,8.2   c-4.5,4.7-2.9,12.5,0.6,16.2c5.5,2.1,11,4.2,16.5,6.3c12.6,0.7,15.6,7.9,15.4,14.9c-4.7-1.4-4.9-2.2-7.2-2.4   c-3.2-1.2-6.5-2.3-9.7-3.5c-10.1,16.4-24.5,27.8-45.1,33.1c3.9,1.9,7.9,1.2,11.8,1.7c1.4,0.8,2.8,1.7,4.2,2.5   c6.1,1.3,10.4,3.2,10.4,8.9c-4.1-4.6-8.1-4.4-11.3-2.2c-6.5,2.7-10.3-3.2-15.4-4.9c-4.3-3.1-8.6-1.8-12.4,0.2   c-4.3-2.8-9.2-1.4-14.1-0.8c-6.1,0.6-13.1,2.2-16.2,5.7c-2,1.6-2.8-0.8-3-0.6c-7.1-2.3-10.2,3.9-10.2,3.9c-1.7-7.2,2-8.7,5.8-9.7   c-2.6-1.5-5.2-3-7.9-4.6c-0.2-0.9-0.8-1.1,0.8-1.4c-3.1-2-6.2-0.4-9.6,2.7c0.3-6.5,8.4-10.6,11.8-8.5c2.4-1.8,6.9-2.1,10.2,0.6   c3.7,2.8,9.3,3.2,13,2c-1.6-4.4-6.7-7-9.6-7.2c-4.1-1-8.7-2.4-7.4-4.9c-2.5-3.6-6.1-2.5-10.1,0.5c1.4-8.1,10-7.3,12.3-5.5   c0.8-2.5,3.4-3.1,5.7-0.5c3.5,0.9,4,3.4,6,5c3.9,3.9,9.8,6,14.8,6.7c4.6-2.6,10.1-3,15.4-3.1c1-4.5,4-5.5,7.9-5.5   c-0.1-4,1.9-5.8,5.7-7.5c0,0-6-0.5-6.4-4.4c-10.1-0.1-16.7-1.4-17.6-8c-9.2-2.9-15-9.8-11.3-17.3c-4.6,1.4-7.5,1.5-11.5,0   c-6.4,5.6-16.3,12.3-22.3,8.6c-2.9,3-9.6,6.5-9.7,6.5c-0.8,7.1-6.3,15.9-6.3,15.9c-2.7-6.9-7.9-14.4-7.5-21.1   c-9.2,11.9-14.6,15.5-21.8,23.3c-5.9,6.1-8.9,13.2-11,21.1c4.4,2.5,10.1,2.1,15.1,3.1c1.4,1.8,1,1,1.6,1.6c5.4,0.1,9.3,3.1,9.3,8.6   c-4.8-4.9-9.6-1.9-9.6-1.9c-3.9,3.3-8.9,1.8-13.7,0c-4.1-4.4-10.2-6.9-15.2-3.1c-6.1,5-8.9-2.6-18.4,2.7c-6.8,6.1-16.1,6.7-18.7,3   c0,0-4.7-1.9-11.3,5.2c1.9-11.5,9-10.4,9-10.4c-0.1-1.2-0.2-2.4-0.3-3.6c-0.9-0.3-1.8-0.6-2.7-0.9c-4.8-2.1-10.7-1.6-13.4,0.6   c1.8-7.5,8.8-7.6,14-6.8c0.9-1,1.9-2.1,2.8-3.1c-2.2-0.8-1.7-2.3-1.1-3.8c-2.9-2.9-5-3.5-8.6-0.5c1.1-7.3,8.1-6.8,12.9-3.6   c2.6-1.6,8.3,1.5,11.9,3.6c11.2,3.8,18.1,4.2,29.4-10.2c0.1-6.9,0.5-9.5,6.6-13.7c-2.3-4.2-1.1-8.4,4.7-10.4c-2-1.9-0.5-4.8,1-7.8   c-8.3-0.4-17.6,0.5-24,2.7c-2.1,6.6-4.9,13.4-9.6,17.8c0.1-17.1-9.7-29.1-21.7-41.9c-13.7-9-19.8-27.1-20.9-33   c-2.5,6.6-4.2,7.7-4.2,7.9c-3,3.3-1,10.8-7.3,11c-5.9,7.2-13,3-13,3c6.7-0.9,7.9-3.7,9.1-8.2c-4.2-1-0.5-4.5,1.6-5.8   c1.3-0.3,4.6-8.6,6.8-8.3c0.9-8.2,1.8-16.4,2.7-24.7c-5.4-2.2-9-5.7-8.6-11.8c-2-2.6-3.4-6.3-0.6-7.7c-1.2-3.1-2.6-6.5-7.1-7.7   c10.3-1.8,11.6,4.5,14.3,5c3,1.8,5.1,12.3,8.8,17.8c-2.8-9-1.4-15.1,1.4-22.9c0-4.2-1.8-8.4-6-10.8c8.8-0.2,12.4,9,12.7,9.3   c5.6,7.3-1.9,12.3,0.5,15.6c1.7-1.3,2.6-4.3,5.2-3.9c2.1-2.3,3.8-4.9,3.6-10.2c5.4,3.1,4.1,7.6,2.4,12.1c0.3,6.7-0.6,8.5-5,10.8   c-4.4,2.6-5.2,4.8-4.7,8c5.4,5.7,6.4,23.4,6.4,23.4c5.4,1.6,7.4,6.3,7.1,10.1c5.1-0.5,9.7,3.5,10.5,7.1c3-2.8,7.3-0.2,10.2,2.8   c1-1.6,3.2-2.3,5.7-1.4c0-2.8,1.6-4.5,4.1-6.8c-6.1-4.7-7.8-16.4-0.9-22.8c-1.4-8.6,1.2-16.7,5.7-17.6c-1.4-9.4,4.2-12.4,6.4-14.6   c-1.5-4.3,3.3-12.2,6-12.3c-2.7-4.5,2.3-12.6,6.3-13.2c0-0.2-2.7-6.3-2.7-6.3s-12.8,1.9-15.1,13.7c-1.6-2.4-3.2-6.1-3.2-6.1   s-5.1,13.7-5.3,13.4c-4.4-2.7-2.4-9.3-2.4-9.3c-3.2-3.5-2.6-8-3.9-11.9c-12-0.5-24-1-36-1.6c0,0,4.1,7.5,4.1,7.4   c-4.3,0.1-25-17.7-29.1-32.8c10.7,8.4,22,10.6,34.1,13c-3.2,1.6-6.4,3.1-9.6,4.7c33.1,2.8,67.4-3.3,67.2-3.5   c-3.7-7.7-15.9-7.7-15.9-7.7v5.2c-1.1-0.8-2.2-1.6-3.3-2.4c-0.1,1.3-0.1,2.6-0.2,3.9c-0.8-0.6-1.7-1.2-2.5-1.7   c-0.3,1.1-0.5,2.2-0.8,3.3c-0.8-0.6-1.7-1.2-2.5-1.7c-0.4,1-0.7,2-1.1,3c-0.9-0.7-1.9-1.5-2.8-2.2c0,0-2.4,0-2.5-0.3   c-1.5-7.9-9-8-9-8c-8.7-1.1-15.5,0.7-23.2,1.1c11.4-14.3,27-12.9,41.9-14.5c1.1-6.3,6.7-8.2,13.2-9.1c0,0,30.6,1.6,30.8,1.6   c3.9-5.2,16.2-7.4,16.2-7.4c4.3-2.2,9.1-1.2,12.9-6.4c-1,7.1-1.1,8.6-1.6,12.9c1.3,0.2,2.6,0.3,3.9,0.5c-3.6,2.3-8.3,5.6-11.9,7.9   c-4,6-3.2,6.1-1.5,9.3c1.2,2.1,2.4,4.2,3.6,6.3c6.1,1.9,10.6,4.5,11.9,8.5c-6.6-0.8-11.4,0.4-11.3,3.3c0.1,2.1,5.1,3,7.2,4.3   c3.8,3.5,5,6.7,5.2,11.1c-4.9-0.3-11.2-7.5-14.6-0.8c-1.6,3.3,0.2,7.8,4.4,9.3c7.8,2.1,8.5,12.7,8.3,12.7c-0.2,0-17-11.3-16.2-0.7   c-0.3,4.6,1.9,5.7,3.6,7c5.1,1.9,9.4,4.1,8.8,9.4c-7.3-2.6-10.7-0.6-11.6,3.6c0.9,2.7,1.9,5.4,2.8,8.2c9.8-2,19.7-4,29.5-6   c4.3-3.9,6.2-10.4,5.8-17.4c0.5-10.4-3.2-19.7,10.1-31.3c27.7-23.1,55.9-41.2,87.3-58.6c-6.4,10.6-11,30.5,5.7,31.7   c5.4,0.1,64.2-24.7,64.2-24.7c-20.4,14.9-44,35.8-16.7,44.8c-25.1,7.8-45.9,33.1-27.6,53.6c-13-3.7-30.1,4.7-33.1,14.1   c14.8-0.1,28.2-0.9,42.3,3.9c0,0,39.3,7.8,41.9-9.4c-21,4.5-36.5,2.4-37.2-16.5c0.2-16.2,24.6-25.3,45.3-13.2   c2.1-4.4,4.2-8.8,6.4-13.2c-7.6,0.9-14.4,2.2-22.3,0.4C418,180.3,433,165.3,446.6,148.5L446.6,148.5z"/>
    <g><path d="M90.1,379.5c-0.1,0-0.2,0-0.2-0.1c-0.2-0.1-0.3-0.3-0.3-0.5c1.7-10,7.3-10.8,9-10.8l-0.3-3l-2.3-0.5    c-4.3-1.9-10.3-1.6-12.9,0.5c-0.2,0.2-0.4,0.2-0.6,0c-0.2-0.1-0.3-0.3-0.2-0.6c1.2-5,4.7-7.5,10.5-7.5c1.4,0,2.8,0.1,4.1,0.3    l1.9-2.4c-0.5-0.3-0.9-0.7-1.1-1.2c-0.4-0.9-0.1-1.9,0.3-3c-2.9-2-4.6-2.5-7.8,0.1c-0.2,0.2-0.4,0.2-0.6,0.1    c-0.2-0.1-0.3-0.3-0.3-0.5c0.6-4,3.1-6.3,6.8-6.3c2.2,0,4.7,0.8,6.9,2.3c0-0.4,0.7-0.5,1.6-0.5c2.9,0,6.9,2.1,10.4,4.2    c3.3,1.1,6.9,2.2,10.3,2.2c6.3,0,11.6-3.5,18.4-12.2c0-6.8,0.5-9.5,6.3-13.5c-1-2.1-1.2-4.1-0.5-5.9c0.7-1.9,2.5-3.5,5-4.5    c-1.4-2-0.2-4.5,1-7.1c-8.5-0.3-17.3,0.7-23.1,2.7c-1.7,6-4.5,13.1-9.4,17.6c-0.2,0.1-0.4,0.2-0.6,0.1c-0.2-0.1-0.3-0.3-0.3-0.5    c0.1-17-9.7-28.9-21.5-41.6c-12.6-8.3-18.9-24.5-20.7-31.6c-1.2,2.9-2.4,5-3.6,6.3c-1.2,1.3-1.6,3.1-2,4.9c-0.7,3-1.5,6.4-5.8,6.5    c-2,2.7-4.9,4.2-8.1,4.2c-2.9,0-5.1-1.3-5.2-1.3c-0.2-0.1-0.3-0.3-0.2-0.5c0-0.2,0.2-0.4,0.4-0.4c6.2-0.9,7.4-3.2,8.5-7.3    c-1.1-0.4-1.7-0.9-1.8-1.7c-0.3-1.9,2.3-4,3.7-4.9c0.5-0.2,1.5-1.9,2.3-3.1c1.7-2.8,3-4.9,4.3-5.2l2.6-23.9    c-6.1-2.6-8.9-6.6-8.6-12.1c-1.2-1.4-2.5-3.9-2.1-5.9c0.2-0.8,0.6-1.5,1.3-2c-1.1-2.8-2.4-5.9-6.6-7c-0.2-0.1-0.4-0.3-0.4-0.5    c0-0.2,0.2-0.4,0.4-0.5c7.6-1.3,10.5,1.6,12.5,3.6c0.8,0.8,1.4,1.4,2,1.5c2,1.2,3.4,4.7,5,8.9c0.7,1.9,1.4,3.7,2.2,5.5    c-1.4-7.4,0.2-13,2.4-19.2c0-4.4-2-8.1-5.7-10.2c-0.2-0.1-0.3-0.3-0.2-0.6c0.1-0.2,0.2-0.6,0.5-0.4c3.9,0,9,1.6,12.9,9.1    c3.7,4.9,2.2,8.8,1.1,11.6c-0.6,1.5-1.1,2.8-0.7,3.8c0.3-0.3,0.7-0.8,1-1.2c0.9-1.2,1.9-2.5,3.6-2.5c2.3-2.3,3.7-4.8,3.5-9.6    c0-0.2,0.1-0.4,0.2-0.5c0.2-0.1,0.4-0.1,0.5,0c5.7,3.2,4.4,8.1,2.6,12.7c0.4,6.5-0.6,8.6-5.3,11.1c-4.3,2.6-4.9,4.6-4.4,7.5    c5.3,5.5,6.4,22.7,6.4,23.5c5,1.2,7.2,5.6,7.1,9.5c4.7,0,9,3.3,10.3,6.7c3.1-2.1,7.7,0.8,9.9,2.9c1.2-1.3,3.2-1.9,5.2-1.3    c0.2-2.5,1.8-4.2,3.8-6c-2.9-2.6-4.9-6.8-5.1-11.3c-0.2-4.7,1.4-8.9,4.6-11.9c-1.5-8.1,1-16.2,5.4-17.6c-1-8,2.9-11.3,5.5-13.6    c0.4-0.4,0.8-0.7,1.1-1c-1.1-2.4,0.5-6.6,2.4-9.3c1.1-1.5,2.2-2.5,3.2-2.9c-0.9-2-0.6-4.6,0.7-7.4c1.4-3,3.6-5.2,5.7-5.8    c-0.5-1.1-1.8-4.2-2.3-5.3c-2.1,0.4-12.3,3.1-14.3,13.2c0,0.2-0.2,0.4-0.4,0.4c-0.2,0-0.4,0-0.5-0.2c-1.1-1.6-2.1-3.7-2.7-5    c-4.7,12.5-4.8,12.5-5.3,12.5c-5-2.9-3-9.7-2.9-9.9c-2.1-2-2.6-4.8-3.1-7.6c-0.2-1.4-0.4-2.7-0.9-4l-17.5-0.4l-17.1-0.7    c1.4,2.6,3.4,6.2,3.6,6.5c0.2,0.1,0.2,0.3,0.1,0.5c-0.1,0.2-0.3,0.3-0.5,0.3c-4.9,0-25.5-18-29.6-33.2c-0.1-0.2,0-0.4,0.2-0.6    c0.2-0.1,0.4-0.1,0.6,0c10.4,8.2,21.6,10.4,33.4,12.8c0.2,0,0.6,0.3,0.6,0.5c0,0.2,0.2,0.5,0,0.6l-7.9,3.9    c5.2,0.4,10.8,0.6,16.6,0.6c23.7,0,44.2-3.3,48-4c-3.4-5.9-12.3-6.7-14.6-6.8v4.6c0,0.2-0.1,0.4-0.3,0.5c-0.2,0.1-0.4,0.1-0.5,0    l-2.5-1.8l-0.1,3c0,0.2-0.1,0.4-0.3,0.4c-0.2,0.1-0.4,0.1-0.5,0l-1.9-1.3l-0.6,2.6c0,0.2-0.2,0.3-0.3,0.4c-0.2,0.1-0.3,0-0.5-0.1    l-2-1.4l-0.9,2.4c-0.1,0.2-0.2,0.3-0.3,0.3c-0.2,0-0.3,0-0.5-0.1l-2.8-2.2c-2.4,0.1-2.5-0.3-2.7-0.5c-1.5-7.5-8.2-7.7-8.5-7.7    c-5.9-0.7-10.8-0.2-15.6,0.4c-2.5,0.3-5,0.6-7.6,0.7c-0.3,0-0.4-0.1-0.5-0.3c-0.1-0.2-0.1-0.4,0.1-0.6    c9.8-12.2,22.8-13.2,35.4-14.1c2.2-0.2,4.4-0.3,6.5-0.5c1.4-6.6,7.6-8.3,13.6-9.1l0,0c0.2,0,30.4,1.6,30.9,1.6    c3.6-5.1,15.6-7.3,16.1-7.4c1.3-0.7,2.9-1.1,4.4-1.5c3-0.7,5.7-1.5,8.2-4.8c0.1-0.2,0.4-0.3,0.6-0.2c0.2,0.1,0.4,0.3,0.3,0.6    c-0.7,4.8-0.9,7-1.2,9.3l-0.4,3.1l3.4,0.4c0.2,0,0.4,0.2,0.4,0.4c0,0.2,0,0.4-0.2,0.6c-1.8,1.2-3.9,2.6-6,4    c-2.1,1.4-4.1,2.7-5.9,3.9c-3.3,5.1-3.1,5.5-1.8,7.8l4,7.1c6.7,1.9,10.7,4.8,12,8.6c0.1,0.2,0,0.4-0.1,0.5    c-0.1,0.1-0.3,0.2-0.5,0.2c-4.9-0.6-8.8,0-10.2,1.4c-0.4,0.4-0.6,0.8-0.5,1.3c0.1,1.1,2.4,2,4.2,2.7c1.1,0.4,2.1,0.8,2.8,1.2    c3.8,3.5,5.3,6.7,5.5,11.5c0,0.2,0,0.3-0.2,0.4c-0.1,0.1-0.2,0.2-0.4,0.2c-1.7-0.1-3.6-1-5.4-1.9c-3.5-1.7-6.9-2.8-8.7,0.8    c-0.7,1.4-0.7,3.1-0.1,4.6c0.7,1.8,2.3,3.2,4.2,3.9c7.8,2.1,8.8,12.2,8.7,13.2c0,0.3-0.3,0.5-0.5,0.5c-0.1,0-0.6-0.3-0.7-0.3    c-6.7-4.1-10.2-4.9-12-4.9c-1,0-1.8,0.3-2.2,0.8c-0.6,0.6-0.8,1.7-0.7,3.1c-0.2,3.9,1.3,5.1,2.8,6.2l0.6,0.4c4.8,1.7,9.6,4,9,9.9    c0,0.2-0.1,0.3-0.2,0.4c-0.1,0.1-0.3,0.1-0.5,0c-6.2-2.2-10-1.1-10.9,3.2l2.7,7.5l29.1-5.9c3.8-3.5,5.8-9.7,5.4-16.9    c0.1-2.1,0-4.2,0-6.2c-0.3-8.3-0.5-16.1,10.3-25.5c25.5-21.2,52.4-39.3,87.4-58.7c0.2-0.1,0.5-0.1,0.6,0.1    c0.2,0.2,0.2,0.4,0.1,0.6c-4.7,7.8-7.6,19-4.3,25.4c1.7,3.3,5,5.2,9.6,5.5c4.3,0,43.7-16.1,63.9-24.6c0.2-0.1,0.5,0,0.7,0.2    c0.1,0.2,0.1,0.5-0.1,0.7c-20.5,15-29.9,26-28.7,33.8c0.7,4.3,4.7,7.7,11.9,10c0.2,0.1,0.4,0.3,0.4,0.5c0,0.2-0.2,0.4-0.4,0.5    c-16.4,5.1-29.8,17.1-33.3,29.8c-2.3,8.2-0.2,16.1,5.9,23c0.2,0.2,0.2,0.4,0.1,0.6c-0.1,0.2-0.4,0.3-0.6,0.2    c-2-0.6-4.3-0.9-6.6-0.9c-10.9,0-22.7,6.5-25.7,14l4.2,0c2.5,0,5-0.1,7.4-0.1c11,0,20.3,0.7,30.1,4.1c0,0,8.9,1.7,18.3,1.7    c9.4,0,20.9-1.8,22.8-10c-6,1.3-11.1,1.9-15.5,1.9c-14,0-21.1-6.2-21.6-19c0.1-11,11.2-19.3,25.7-19.3c6.8,0,13.7,1.9,19.9,5.4    l5.7-11.8l-1.8,0.2c-6.9,0.9-13.6,1.5-19.8,0c-0.2,0-0.3-0.2-0.4-0.4c0-0.2,0-0.4,0.1-0.5c14.9-14.1,30.6-29.5,44.6-46.8    c0.1-0.2,0.4-0.2,0.6-0.2c0.2,0.1,0.3,0.3,0.3,0.5c-3.1,21.7,0.2,51.6,5.1,61c0.1,0.2,0.1,0.4-0.1,0.6c-0.1,0.2-0.4,0.2-0.6,0.1    c-6.8-2.4-13.1-7.7-16.5-13.8l-7,21.8c4.9,9.6,4.6,19.7-0.9,29c-10.3,17.6-35.9,28.1-56.6,29.6l3.6,1.9    c20,10.8,42.7,23.1,42.7,30.1c-1.5,0.9-2.8,1.2-3.9,1.2c-4,0-7.2-2.6-10.4-5.1c-1.6-1.3-3.2-2.6-4.9-3.5c5.6,15.7,3,28.2-0.1,42.6    c-0.4,2-0.9,4.1-1.3,6.2c-2.6,3.1-1.3,5.3,0.1,7.7c0.5,0.8,1,1.6,1.3,2.5l9.4,3.5l1.7,1.5c0-0.1,7,0.5,8.9,10.2    c0,0.2-0.1,0.5-0.3,0.6c-0.2,0.1-0.5,0-0.6-0.1c-4.2-5.1-10.2-3.6-10.2-3.6l-2.2,1.5l-6.1-3.3c-5.6-3.7-11.3-4-18.4-0.9    c-3.2,1.9-6.9,2.1-10.5,0.3c-2.3-2.4-6.2-2.4-11.3-0.5c-0.6,0.3-5.6,3.5-8.8,5.7c-0.4,0.1-2.3-0.4-2.5-0.4    c-0.6,0-5.7,0.1-12.2,4.3c-0.2,0.1-0.4,0.1-0.6,0c-0.2-0.1-0.3-0.3-0.2-0.5c1.6-8.2,6.8-9.6,8.7-9.8c-0.2-1.1,0.4-1.6,1-1.9    c0,0,0.5-0.4,0.5-0.5c1.5-1.7,4-2.1,6.4-2.5l-15.8-0.7c-0.2,0-0.3-0.1-0.4-0.2c-0.1-0.1-0.1-0.3-0.1-0.5l0.1-0.3    c-3.5-0.3-6.8-0.8-9.4,3.4c-0.1,0.2-0.3,0.3-0.6,0.2c-0.2-0.1-0.4-0.3-0.4-0.5c-0.2-6.5,4.7-8.4,8.3-9.8l1.5-0.6    c1.1-1.9,3.7-2.2,5.4-2.2c1,0,2.1,0.1,3.1,0.2c-2.6-1.1-4.5-1.9-4.5-1.9c-1.3-1.7-0.4-2.8,0-3.3c-0.3,0.1-2.3-0.9-4.6-0.9    c-1.7,0-3.2,0.6-4.4,1.7c-0.2,0.2-0.4,0.2-0.6,0.1c-0.2-0.1-0.3-0.3-0.3-0.5c0.6-6,5.5-6.9,8.4-6.9c1,0,1.9,0.1,2.4,0.2    c0.7-2.2,3.6-2.4,5.3-0.9l7.7,7.5l7.1,4.5c7.2,3.2,13.9,0.7,19.1-7.5c-2.1-4.5-1.3-7,3.3-10c-1-3.1-0.7-6.4,0.8-9.9    c-1.8-2.3-3.2-9.9-1.6-12.8c-3.2-1.4-5-4.2-5.8-5.5c-0.8-0.2-1.7-0.1-2.6-0.1c-2.9,0-5.6-1-7.2-2.6c-1.7,1.1-3.9,1.6-6.1,1.6    c-3.6,0-6.9-1.3-9.9-3.9c-1.9,0.9-4.3,1.3-6.7,1.3c-4.3,0-8.3-1.3-10.9-3.7c-0.3,0.3-1.2,0.4-2.1,0.4c-5.9,0-12.7-3.8-14.1-7.9    c-1.1,0.4-2.8-0.5-4.4-1.3c-1.6-0.8-3.2-1.6-4.7-1.6c-2.1,3.2-3.1,4-5,5.5c-0.8,0.6-1.8,1.4-3.1,2.6c-4.3,4.5-2.6,12.1,0.7,15.4    l16.3,6.2c13.3,0.7,15.9,8.8,15.7,15.4c0,0.2-0.1,0.3-0.2,0.4c-0.1,0.1-0.3,0.1-0.5,0.1c-2.2-0.7-3.4-1.2-4.4-1.6    c-1-0.4-1.6-0.7-2.8-0.8l-9.5-3.3c-10.5,16.7-24.8,27.4-43.7,32.6c2,0.7,4.1,0.7,6.2,0.8c1.3,0,2.7,0.1,4,0.3l4.4,2.6    c6.4,1.3,10.7,3.4,10.6,9.4c0,0.2-0.1,0.4-0.3,0.5c-0.2,0.1-0.4,0-0.6-0.1c-3.4-3.8-7.1-4.5-10.6-2.1c-4.5,1.9-7.9-0.2-11.1-2.3    c-1.5-1-3.1-2-4.7-2.5c-4.2-2.9-8.9-1.5-12,0.1c-3.8-1.9-7.5-1.7-11.8-1.1c-0.8,0.1-1.7,0.2-2.5,0.3c-7.8,0.8-13.4,2.7-15.9,5.5    c-1.8,1.5-3.1,0.1-3.6-0.5c-0.9-0.3-1.9-0.5-2.8-0.5c-4.6,0-6.6,4-6.7,4.2c-0.1,0.2-0.3,0.3-0.5,0.3c-0.2,0-0.4-0.2-0.4-0.4    c-1.6-6.8,1.5-8.9,5-10l-6.8-3.9c-0.1-0.1-0.3-0.7-0.4-0.8c-0.1-0.3-0.2-0.6,0-0.9c0.1-0.1,0.1-0.2,0.2-0.2    c-2.2-0.9-4.7,0.1-8,3.1c-0.2,0.2-0.4,0.2-0.6,0.1c-0.2-0.1-0.3-0.3-0.3-0.5c0.3-7.3,9.2-11.1,12.6-8.9c0.7-0.9,2.5-1.5,4.3-1.5    c2.2,0,4.3,0.8,5.9,2.2c2.9,2.2,8.1,3.1,12,2.1c-1.7-3.8-6.3-6.2-8.9-6.4c-3.7-0.9-7.2-2-7.9-3.8c-0.3-0.6-0.2-1.3,0.1-1.9    c-2-1.7-4.8-2.2-9.3,1.1c-0.2,0.1-0.4,0.1-0.6,0c-0.2-0.1-0.3-0.3-0.2-0.5c0.8-4.4,3.9-7.1,8.4-7.1c1.6,0,3.1,0.4,4.2,0.9    c1.2-2.4,4.2-2.5,6.3,0c2.2,0.5,3.3,1.9,4.3,3.2c0.5,0.6,1,1.2,1.6,1.8c4.6,4.7,11.7,6.2,14.5,6.6c4.4-2.7,10-3,14.9-3.1    c1.2-4.6,4.5-5.4,7.7-5.5c0-3.4,1.7-5.2,4.5-6.8c-1.8-0.4-4.7-1.5-5.2-4.1c-10-0.1-16.8-1.6-17.7-8.5c-5.5-1.4-9.9-4.8-11.6-8.9    c-1.1-2.5-1.1-5.1-0.1-7.7c-4.4,1.2-7,1.1-10.7-0.3c-3.6,3.6-11.6,9.7-18.1,9.7c-1.5,0-2.8-0.3-4-0.9c-2.5,2.4-7.7,5.4-9.3,6.2    c-0.9,7.1-6.1,15.4-6.3,15.8c-0.1,0.2-0.2,0.2-0.5,0.2c-0.2,0-0.4-0.1-0.4-0.3c-0.8-2-1.8-4-2.8-6.1c-2.2-4.5-4.5-9.2-4.8-13.7    c-5.6,7.2-9.9,11.3-14,15.2c-2.2,2.2-4.5,4.3-6.9,6.9c-5,5.2-8.4,11.5-10.8,20.4c2.8,1.5,6.1,1.8,9.4,2.2c1.8,0.2,3.5,0.4,5.2,0.7    c1.1,1.3,1.3,1.3,1.3,1.4c0.1,0,0.5,0.3,0.5,0.4c0,0,0.1,0,0.1,0c5.7,0,9.4,3.5,9.3,9c0,0.2-0.1,0.4-0.3,0.5    c-0.2,0.1-0.4,0-0.6-0.1c-1.7-1.8-3.6-2.7-5.6-2.7c-1.9,0-3.3,0.8-3.3,0.9c-3.6,3-9.5,1.8-14.1,0c-4.9-5.1-10.5-6.3-14.8-3.2    c-2.6,2.1-5.2,2-8,1.4c-2.9-0.7-6.5-0.9-10.4,1.3c-3.7,3.3-8.6,5.4-13,5.4c-2.9,0-5.2-0.9-6.3-2.5c0,0-0.5-0.1-1.2-0.1    c-1.7,0-5.1,0.7-9.4,5.2C90.3,379.4,90.2,379.5,90.1,379.5L90.1,379.5z M343.3,369.9c-0.6,0-6,0.2-8,7.8    c6.1-3.6,10.8-3.8,11.7-3.8c0.1,0,0.3,0,2.4,0.5c8.2-5.7,8.3-5.7,8.5-5.7c5.7-2.2,10-1.9,12.3,0.6c2.9,1.4,6.4,1.4,9.4-0.4    c7.6-3.3,13.6-2.9,19.4,0.9l5.5,3.3l0.6-0.8l1.2-0.8c0.5-0.2,5.7-1.5,10.1,2.5c-2.2-7.2-7.5-7.6-7.8-7.6l-1.9-1.6l-9.6-3.7    c-0.6-1.1-1.1-1.9-1.5-2.7c-1.5-2.5-3-5.2-0.1-8.7c0.3-1.9,0.8-4,1.2-6c3.2-15.3,5.8-27.3-0.3-43.3c-0.1-0.2,0-0.4,0.1-0.6    c0.1-0.2,0.4-0.2,0.6-0.1c2.2,1,4.3,2.6,6.3,4.2c4.1,3.2,8.1,6.1,13,4.3c-0.3-5.9-23.7-18.6-42.5-28.7l-5.1-2.8    c-0.2-0.1-0.3-0.3-0.3-0.6c0.1-0.2,0.2-0.4,0.5-0.4c20.7-1.1,47.1-11.4,57.5-29.2c5.3-9.1,5.6-18.6,0.8-28.4l7.4-23.3    c0.1-0.2,0.2-0.3,0.5-0.4c0.2,0,0.4,0.1,0.5,0.3c2.9,5.9,8.8,11.2,15.3,13.9c-4.9-11.1-7.3-39.2-4.9-58.6    c-13.5,16.5-28.5,31.3-42.8,44.8c5.7,1.2,12,0.6,18.5-0.3l2.7-0.3c0.2,0,0.4,0.1,0.5,0.2c0.1,0.2,0.1,0.4,0,0.5l-6.4,13.2    c-0.1,0.1-0.2,0.2-0.3,0.3c-0.1,0-0.3,0-0.4-0.1c-6.2-3.6-13-5.5-19.8-5.5c-14,0-24.6,7.9-24.7,18.3c0.6,16.2,12,21.3,36.6,16    c0.2,0,0.3,0,0.5,0.1c0.1,0.1,0.2,0.3,0.2,0.5c-1.2,7.6-9.5,11.6-24,11.6c-9.5,0-18.5-1.8-18.6-1.8c-9.7-3.4-18.9-4-29.8-4    c-2.4,0-4.9,0-7.4,0.1l-4.9,0.1h0c-0.2,0-0.3-0.1-0.4-0.2c-0.1-0.1-0.1-0.3-0.1-0.5c3.1-9.5,19.8-17.5,32.2-14.9    c-5.5-6.8-7.3-14.7-5-22.7c3.5-12.6,16.5-24.5,32.5-30c-6.7-2.5-10.5-6-11.2-10.4c-1.6-10,13-22.7,25.7-32.3    c-13.4,5.6-55.6,23-60.4,23c-5.1-0.4-8.6-2.4-10.5-6.1c-3.4-6.6-0.8-17.1,3.4-24.8c-34.2,19-60.6,36.8-85.6,57.7    c-10.4,9.1-10.2,16.7-9.9,24.7c0.1,2,0.1,4.1,0,6.2c0.5,7.4-1.7,13.9-6,17.8l-29.8,6.1c-0.3,0-0.5-0.1-0.6-0.3l-2.8-8.2    c1-5.2,5.1-6.7,11.6-4.5c0.1-4.2-3.1-6.2-8.5-8.2l-0.7-0.5c-1.7-1.2-3.5-2.6-3.3-7.1c-0.1-1.7,0.2-3,1-3.9c2.1-2.3,7.3-1,15.2,3.7    c-0.3-2.6-2-9.7-7.9-11.3c-2.2-0.8-4-2.4-4.8-4.5c-0.7-1.8-0.7-3.8,0.1-5.5c2.1-4.1,6.2-3.2,10.1-1.3c1.5,0.7,3,1.5,4.4,1.7    c-0.3-4.2-1.7-7-5-10.1c-0.6-0.3-1.5-0.7-2.5-1.1c-2.3-0.9-4.7-1.8-4.9-3.6c0-0.8,0.2-1.5,0.8-2.1c1.5-1.6,5.3-2.3,10.2-1.8    c-1.5-3.1-5.2-5.5-11.3-7.4l-4.3-7.3c-1.5-2.7-1.7-3.5,1.9-9c1.9-1.3,4-2.7,6-4c1.7-1.1,3.3-2.2,4.8-3.2l-2.5-0.3    c-0.1,0-0.3-0.1-0.3-0.2c-0.1-0.1-0.1-0.2-0.1-0.4l0.4-3.6c0.2-2,0.4-3.9,0.9-7.5c-2.4,2.5-5,3.1-7.6,3.8    c-1.5,0.4-2.9,0.7-4.3,1.4c-0.3,0.1-12.2,2.2-16,7.2c-0.6,0.2-24-1-31.2-1.4c-5.9,0.8-11.6,2.5-12.7,8.7c0,0.2-0.2,0.4-0.5,0.4    c-2.3,0.2-4.6,0.4-7,0.6c-12.6,0.9-24.5,1.8-33.9,12.8c2.2-0.1,4.3-0.4,6.3-0.6c4.9-0.6,10-1.1,15.8-0.4l0,0    c0.1,0,7.8,0.3,9.4,8.4c0-0.2,1.1-0.1,2-0.1l2.6,1.9l0.9-2.3c0.1-0.2,0.2-0.3,0.3-0.3c0.2-0.1,0.3,0,0.5,0.1l1.9,1.3l0.6-2.6    c0-0.2,0.2-0.3,0.3-0.4c0.2,0,0.3,0,0.5,0.1l1.7,1.2l0.1-3c0-0.2,0.1-0.4,0.3-0.4c0.2-0.1,0.4-0.1,0.5,0l2.5,1.8v-4.2    c0-0.3,0.2-0.5,0.5-0.5c0.5,0,12.5,0.1,16.3,8c-0.3,1.2-24.9,4.9-49.2,4.9c-6.5,0-12.7-0.3-18.6-0.8c-0.2,0-0.4-0.2-0.5-0.4    c0-0.2,0.1-0.5,0.3-0.6l8.2-4c-11.3-2.3-21.7-4.6-31.5-11.9c4.6,13.7,21.6,28.7,27.1,30.7c-0.6-1-1.6-2.8-3.5-6.4    c-0.1-0.2-0.1-0.4,0-0.5c0.1-0.2,0.2-0.2,0.5-0.2l36,1.6c0.9,1.7,1.1,3.1,1.4,4.5c0.5,2.8,0.9,5.4,2.9,7.6    c0.1,0.5-1.6,6.3,1.9,8.9c0.8-1.8,3.4-8.5,5-12.8c0.1-0.2,0.4-0.3,0.5-0.3c0.2,0,0.4,0.1,0.5,0.3c0,0,1.2,2.7,2.5,5    c3-10.9,15.1-12.8,15.2-12.8c0.3-0.1,0.5,0.1,0.6,0.3c2.7,6.2,2.7,6.4,2.7,6.5c0,0.3-0.2,0.5-0.4,0.5c-1.8,0.3-4.2,2.5-5.5,5.4    c-1.3,2.7-1.4,5.3-0.4,7c0.1,0.2,0.1,0.4,0,0.5c-0.1,0.2-0.3,0.3-0.4,0.3c-0.8,0-2,1.1-3.1,2.6c-1.8,2.6-3.2,6.5-2.4,8.9    c-0.5,0.9-0.9,1.2-1.3,1.6c-2.5,2.1-6.3,5.4-5.1,13.1c0,0.3-0.1,0.5-0.4,0.6c-4.1,0.9-6.6,8.8-5.3,17c-3.1,3.2-4.6,7.1-4.4,11.5    c0.2,4.4,2.2,8.6,5.2,10.9c0.1,0.1,0.2,0.2,0.2,0.4c0,0.2-0.1,0.3-0.2,0.4c-2.7,2.4-3.9,3.9-3.9,6.4c0,0.2-0.1,0.3-0.2,0.4    c-0.1,0.1-0.3,0.1-0.5,0.1c-2-0.8-4.1-0.2-5,1.2c-0.1,0.1-0.2,0.2-0.4,0.2c-0.2,0-0.3,0-0.4-0.2c-3.6-3.7-7.3-4.9-9.5-2.8    c-0.1,0.1-0.3,0.2-0.5,0.1c-0.2-0.1-0.3-0.2-0.4-0.4c-0.7-3.3-5-7.2-10-6.7c-0.1,0-0.3,0-0.4-0.2c-0.1-0.1-0.2-0.3-0.2-0.4    c0.3-3.6-1.7-8-6.7-9.5c-0.4-0.6-1.5-18-6.7-23.6c-0.8-4,0.5-6.3,4.8-8.8c4.3-2.3,5.1-4,4.8-10.4c1.7-4.5,2.8-8.4-1.3-11.2    c0,4.6-1.5,7.2-3.8,9.6c-0.1,0.1-0.7,0.1-0.8,0.1c-1.2,0-2,1-2.8,2.1c-0.5,0.6-1,1.3-1.6,1.8c-0.1,0.1-0.2,0.1-0.4,0.1    c-0.1,0-0.3-0.1-0.3-0.2c-1.1-1.5-0.4-3.3,0.3-5.3c1.1-2.9,2.4-6.2-0.8-10.3c-2.9-5.5-6.3-8.4-10.5-9c3,2.4,4.7,6,4.7,10.2    c-2.6,7.3-4.3,13.6-1.4,22.8c0.1,0.2,0,0.5-0.3,0.6c-0.2,0.1-0.5,0-0.7-0.2c-1.7-2.5-3-6-4.3-9.3c-1.5-3.8-2.8-7.4-4.4-8.3    c-0.8-0.1-1.5-0.8-2.4-1.7c-1.8-1.7-4-3.9-9.5-3.5c3.3,1.7,4.5,4.7,5.4,7.3c0.1,0.2,0,0.5-0.2,0.6c-0.7,0.3-1,0.8-1.2,1.5    c-0.3,1.4,0.5,3.5,2,5.4c-0.2,5.6,2.4,9.1,8.4,11.6c0.2,0.1,0.3,0.3,0.3,0.5l-2.7,24.7c0,0.1-0.1,0.3-0.2,0.4    c-0.1,0.1-0.2,0.1-0.4,0.1l0,0c-1,0-2.7,2.9-3.8,4.8c-1.3,2.2-2,3.4-2.8,3.5c-1.5,1-3.2,2.8-3.1,3.8c0.1,0.6,0.9,0.9,1.5,1    c0.1,0,0.3,0.1,0.3,0.2c0.1,0.1,0.1,0.3,0.1,0.4c-1.2,4.3-2.4,7-7.8,8.2c0.8,0.3,1.9,0.5,3.1,0.5c2.9,0,5.5-1.4,7.7-4    c3.9-0.3,4.5-2.9,5.2-5.9c0.4-1.9,0.9-3.8,2.1-5.2c1.4-1.6,2.8-4.1,4.1-7.7c0.1-0.2,0.3-0.3,0.5-0.3c0.2,0,0.4,0.2,0.5,0.4    c1,5.7,7.1,23.8,20.7,32.7c11.8,12.6,21.5,24.4,21.9,41.1c4.2-4.4,6.7-10.9,8.6-16.7c6.5-2.5,15.7-3.5,24.6-3.1    c0.2,0,0.3,0.1,0.4,0.3c0.1,0.1,0.1,0.3,0,0.5l-0.3,0.6c-1.3,2.7-2.4,5-0.8,6.6c0.1,0.1,0.2,0.3,0.2,0.5c0,0.2-0.2,0.3-0.3,0.4    c-2.7,0.9-4.4,2.4-5.1,4.2c-0.6,1.6-0.4,3.5,0.7,5.5c0.1,0.2,0.1,0.5-0.2,0.7c-5.9,4-6.3,6.6-6.4,13.2c-7.1,9.3-12.7,13-19.3,13    c-3.5,0-7.3-1.1-10.8-2.3c-4.1-2.4-9.4-5-11.5-3.7c-2.6-1.4-4.9-2.1-6.9-2.1c-2,0-4.4,0.7-5.4,4.1c3-2,5.1-1.7,8.2,1.4    c-0.2,1.4-0.5,2.2-0.2,2.8c0.2,0.4,0.5,0.7,1.2,0.9c0.2,0.1,0.3,0.2,0.3,0.4c0,0.2,0,0.3-0.1,0.5l-2.8,3.1c-1.7,0-3-0.2-4.4-0.2    c-4.7,0-7.7,1.8-9.1,5.4c3.2-1.6,8.6-1.7,12.7,0.1l2.6,0.9l0.7,4.1c0,0.2,0,0.3-0.2,0.4c-0.1,0.1-0.3,0.2-0.4,0.1    c-1.7,0.1-6.2,0.6-8,8.3c5.8-5.4,10.5-4.2,10.7-4.1c1.2,1.5,3.1,2.3,5.7,2.3c4.2,0,8.9-1.9,12.4-5.2c4.3-2.5,8.3-2.2,11.2-1.5    c2.6,0.6,4.8,0.7,7.2-1.2c4.7-3.5,11-2.1,15.9,3.2c4,1.4,9.6,2.7,13,0c0.1-0.1,1.7-1.1,3.9-1.1c1.9,0,3.8,0.7,5.4,2.1    c-0.5-4.2-3.7-6.8-8.7-6.9c-0.8-0.4-1-0.5-2-1.8c-1.4-0.2-3.1-0.3-4.8-0.5c-3.5-0.4-7.1-0.8-10.1-2.5c-0.2-0.1-0.3-0.4-0.2-0.6    c2.5-9.3,5.9-15.9,11.1-21.3c2.5-2.6,4.7-4.8,7-7c4.3-4.1,8.8-8.4,14.8-16.3c0.1-0.2,0.4-0.3,0.6-0.2c0.2,0.1,0.3,0.3,0.3,0.5    c-0.2,4.6,2.3,9.8,4.7,14.7c0.9,1.8,1.7,3.5,2.4,5.2c1.4-2.4,5.1-9.1,5.7-14.8c0-0.3,0.2-0.5,0.5-0.5c0.4-0.2,6.7-3.6,9.4-6.3    c0.2-0.2,0.4-0.2,0.6-0.1c1.1,0.7,2.3,1,3.8,1c6.1,0,13.8-6,17.9-9.6c4.8,1.2,6.8,1.4,11.7-0.1c0.2,0,0.4,0,0.5,0.2    c0.1,0.2,0.2,0.4,0.1,0.6c-1.3,2.7-1.4,5.3-0.3,7.8c1.6,3.8,5.7,7,11.3,8.7c1.2,6.6,7.5,7.9,17.4,8c0.3,0,0.5,0.2,0.5,0.5    c0.4,3.4,5.9,3.9,6,3.9c0.2,0,0.4,0.2,0.5,0.4c0,0.2-0.1,0.5-0.3,0.6c-3.6,1.7-5.5,3.3-5.4,7.1c0,0.1,0,0.3-0.1,0.4    c-0.1,0.1-0.2,0.2-0.4,0.2c-3.7,0-6.4,0.9-7.4,5.1c-0.1,0.2-0.3,0.4-0.5,0.4c-4.9,0.1-10.5,0.4-15.1,3.1c-3.3-0.4-10.6-2-15.4-6.8    c-0.7-0.6-1.2-1.2-1.7-1.9c-1-1.3-1.9-2.4-4-3c-2.3-2.4-4.3-2-5,0.1c-0.1,0.2-0.2,0.3-0.3,0.3c-0.2,0-0.3,0-0.5-0.1    c-0.7-0.5-2.2-1.1-4.1-1.1c-1.7,0-5.6,0.5-7,5c4.4-2.9,7.5-2.7,9.7,0.4c-0.2,0.9-0.2,1.2-0.1,1.5c0.7,1.6,5.4,2.7,7.1,3.1    c3,0.2,8.3,2.9,9.9,7.6c0,0.1,0,0.3,0,0.4c-0.1,0.1-0.2,0.2-0.3,0.3c-4.2,1.3-10.1,0.4-13.5-2.1c-2.7-2.3-7.1-2.4-9.6-0.6    c-1.1-0.3-1.8-0.5-2.6-0.5c-3.1,0-7.8,2.8-8.8,7.2c3.6-3,6.5-3.5,9.2-1.8c0.2,0.1,0.3,0.3,0.2,0.5c0,0.2-0.2,0.4-0.4,0.4    c-0.6,0.1-0.7,0.2-0.7,0.2c0.2,0.1,0.3,0.3,0.3,0.6l1.5,0.7l6.1,3.5c0.2,0.1,0.3,0.3,0.3,0.5c0,0.2-0.2,0.4-0.4,0.4    c-3.7,1-6.6,2.2-5.7,7.9c1.1-1.4,3.3-3.6,6.9-3.6c1,0,2.1,0.2,3.2,0.5c0.2,0,0.4,0.3,0.5,0.4c0.5,0.6,1.1,1.1,2,0.3    c3.3-3.7,10.7-5.2,16.5-5.8c0.8-0.1,1.6-0.2,2.5-0.3c4.5-0.7,8.9-0.8,12,1.2c2.4-1.8,8.2-3.2,12.4-0.1c1.6,0.5,3.3,1.6,4.8,2.6    c3.2,2.1,6.3,3.8,10.1,2.2c3.4-2.4,7.4-2,10.9,1.3c-0.6-4.3-4.3-5.9-9.9-7.1l-4.4-2.6c-1.1-0.1-2.4-0.2-3.7-0.2    c-2.6-0.1-5.3-0.2-8.1-1.5c-0.2-0.1-0.3-0.3-0.3-0.5c0-0.2,0.2-0.4,0.4-0.5c19.5-5,34.2-15.8,44.8-32.9c0.1-0.2,0.4-0.3,0.6-0.2    l9.7,3.4c1.2,0.1,1.9,0.4,3,0.8c0.8,0.3,1.8,0.8,3.6,1.3c0-8.5-5.1-13.1-14.9-13.7l-16.6-6.3c-3.7-3.8-5.6-12-0.8-17    c1.3-1.2,2.3-2,3.2-2.6c1.9-1.5,2.8-2.2,4.8-5.4c0.1-0.2,0.7-0.3,0.9-0.3c1.8,0,3.5,0.9,5.2,1.8c1.5,0.8,3,1.6,4.4,1.6    c2,4.6,10.7,8.5,15.9,7.2c4.6,3.6,11.2,4.5,17.5,2.4c5.3,4.1,10.4,4.9,16,2.4c2.1,1.6,5.6,2.9,9.5,2.2c0,0,0,0,0,0    c0.4,0,0.6,0.2,1,0.9c0.8,1.2,2.6,4.1,5.9,5.3c0.2,0.1,0.3,0.2,0.3,0.4c0,0.2,0,0.4-0.1,0.5c-1.7,1.7-0.6,9.7,1.3,12.5    c-1.4,3.9-1.6,7.1-0.6,10c0.1,0.2,0,0.5-0.2,0.6c-4.5,2.9-5.1,4.8-3.3,9.4c-5.5,9.4-12.5,11.9-20.5,8.4l-7.3-4.6l-7.8-7.6    c-1-0.9-3.1-1.9-3.7,0.8c0,0.1-0.1,0.3-0.2,0.3c-0.1,0.1-0.3,0.1-0.4,0.1c0,0-1.2-0.2-2.6-0.2c-2.8,0-6.2,0.8-7.2,4.6    c1.2-0.8,2.5-1.2,4-1.2c2.5,0,5.7,1.3,5.7,2.1c-0.6,1-1,1.5-0.4,2.4l0,0c0.2,0,17,7.2,21.6,9.1c1.6,0.6,1.6,0.6,1.5,1    c0,0.2-0.3,0.4-0.5,0.4c-0.1,0-0.1,0-0.2-0.1l0,0c0,0-0.1,0-0.1,0c-0.3-0.1-0.6-0.2-1-0.4c-4-1.5-16.9-6.3-16.9-6.3    c-4.3-0.3-7.1-0.2-8.3,1.7l-1.7,0.8c-3.3,1.3-7,2.7-7.5,7.1c3-3.4,6.3-2.8,10-2.4c0.2,0,0.3,0.1,0.4,0.2c0.1,0.1,0.1,0.3,0.1,0.4    l-0.1,0.3l19.7,0.9c0.3,0,0.5,0.2,0.5,0.5c0,0.3-0.1,0.5-0.4,0.6c-1.2,0.4-2.6,0.5-3.9,0.7c-2.6,0.4-5.1,0.7-6.5,2.3    c-0.1,0.3-0.5,0.5-0.8,0.7c-0.5,0.3-0.7,0.4-0.4,1.3c0.1,0.2,0,0.3-0.1,0.5C343.6,369.8,343.5,370,343.3,369.9L343.3,369.9    L343.3,369.9z"/></g>
    <path class="st0" d="M408,223.1c0.2,6.7-20,8.5-21.3,0.9C386.1,220.2,396.8,213.6,408,223.1L408,223.1z"/>
    <g><path d="M396.5,229.4c-4.5,0-9.5-1.4-10.1-5.3c-0.2-0.9,0.2-1.9,1-2.9c1.4-1.6,4.5-3.5,8.7-3.5c2.9,0,7.3,0.9,12.2,5    c0.2,1.4-0.2,2.4-1.1,3.3C405.2,228.1,401,229.4,396.5,229.4L396.5,229.4z M396.1,218.6c-4,0-6.9,1.7-8.1,3.2    c-0.7,0.8-1,1.6-0.8,2.2c0.6,3.4,5.4,4.6,9.3,4.6c4.2,0,8.3-1.2,10.1-3.1c0.7-0.7,1-1.5,1-2.4    C403.1,219.5,398.9,218.6,396.1,218.6L396.1,218.6z"/></g>
    <g><path d="M435,195.8c-0.1,0-0.1,0-0.2-0.1c-0.2-0.1-0.3-0.4-0.1-0.6c1.8-3.1,3.1-18.4,3.1-18.6c0-0.2,0.2-0.4,0.4-0.4    c0.2,0,0.4,0.2,0.4,0.5c-0.1,0.6-1.3,15.7-3.2,19C435.3,195.8,435.1,195.8,435,195.8L435,195.8z"/></g>
    <g><path d="M424.4,195.6c-0.1,0-0.1,0-0.2,0c-0.3-0.1-0.4-0.4-0.3-0.7c1.8-4.7,6.4-17.1,6.5-17.5c0-0.6,1-0.4,1,0.1    c0,0.1,0,0.2-6.5,17.8C424.8,195.5,424.6,195.6,424.4,195.6L424.4,195.6z"/></g>
    <g><path d="M427.3,218.4c-2.8-5.2-6.8-7.9-8.7-9.2c-0.4-0.2-0.7-0.4-0.9-0.6l0.5-0.7c0.2,0.2,0.5,0.3,0.8,0.6c2,1.3,6.1,4.1,9,9.5    L427.3,218.4L427.3,218.4z"/></g>
    <g><path d="M410.1,238.4l-0.5-0.7c4-3-1.8-14.2-1.9-14.4l0.7-0.4C408.7,223.4,414.7,234.9,410.1,238.4L410.1,238.4z"/></g>
    <g><path d="M368.6,277.1c-2.4-1.5-5.6-4.9-9.2-8.8c-6.3-6.8-14.1-15.4-19.8-14.6l-0.1-0.8c6.3-0.7,13.8,7.5,20.5,14.8    c3.5,3.8,6.7,7.3,9.1,8.7L368.6,277.1L368.6,277.1z"/></g>
    <g><path d="M406,372.5c-2.2-4,1.9-7,1.9-7.1l0.5,0.7c-0.1,0.1-3.5,2.7-1.7,6L406,372.5L406,372.5z"/></g>
    <g><path d="M347.9,374.4l-0.8-0.1c0.5-3.5-3.6-4.6-3.8-4.7l0.2-0.8C343.5,368.8,348.4,370.3,347.9,374.4L347.9,374.4z"/></g>
    <g><path d="M335.5,362.5l-0.7-0.5c2-2.6-1.1-5.9-1.1-5.9l0.6-0.6C334.3,355.5,337.9,359.3,335.5,362.5L335.5,362.5z"/></g>
    <g><path d="M338.7,348.4l-0.5-0.7c1.7-1.2,2.5-2.3,2.4-3.2c-0.1-1.2-1.5-1.9-1.5-1.9l0.4-0.7c0.1,0,1.8,0.9,2,2.6    C341.6,345.7,340.6,347,338.7,348.4L338.7,348.4z"/></g>
    <g><path d="M282,372.8c-3-4,1-7.5,1.1-7.5l0.5,0.6c-0.1,0.1-3.5,3-1,6.4L282,372.8L282,372.8z"/></g>
    <g><path d="M222.5,372.4l-0.8-0.3c0.6-1.3,0.6-2.3,0.2-3.1c-1.1-1.8-4.3-1.9-4.4-1.9l0-0.8c0.2,0,3.7,0.2,5,2.3    C223.3,369.6,223.2,370.9,222.5,372.4L222.5,372.4z"/></g>
    <g><path d="M210.3,360.7l-0.2-0.8c1.2-0.3,1.9-0.9,2.3-1.7c0.6-1.4-0.3-3.3-0.3-3.3l0.7-0.4c0,0.1,1.2,2.2,0.4,4    C212.6,359.6,211.7,360.3,210.3,360.7L210.3,360.7z"/></g>
    <g><path d="M219.1,345.9l-0.1-0.8c1.1-0.1,1.8-0.5,2.1-1.2c0.7-1.4-0.3-3.4-0.3-3.4l0.7-0.4c0.1,0.1,1.2,2.5,0.3,4.2    C221.4,345.2,220.4,345.7,219.1,345.9L219.1,345.9z"/></g>
    <g><path d="M216.4,365.9l-0.5-0.6c0.3-0.2,7.1-6.1,10.5-2.7c2.4,2.3,12.5-1.2,16.2-2.7l0.3,0.8c-0.6,0.2-13.8,5.8-17.1,2.6    C222.9,360.3,216.5,365.8,216.4,365.9L216.4,365.9z"/></g>
    <g><polygon points="236.4,357.7 236,356.9 247.1,351.1 247.5,351.8 236.4,357.7   "/></g>
    <g><path d="M270.1,352.1c-4,0-7.2-3.4-7.3-3.6l0.6-0.6c0,0,3.6,3.8,7.5,3.2c2.3-0.3,4.4-2,6.1-5.1l0.7,0.4c-1.9,3.3-4.1,5.2-6.7,5.5    C270.6,352.1,270.3,352.1,270.1,352.1L270.1,352.1z"/></g>
    <g><path d="M276.5,346.9c-1.5,0-2.4-0.8-3.8-2.1c-0.6-0.5-1.2-1.1-2-1.8l0.5-0.6c0.8,0.7,1.5,1.3,2,1.8c3.1,2.9,3.6,3.4,18.2-6.5    l0.5,0.7C282.8,344.7,279,346.9,276.5,346.9L276.5,346.9z"/></g>
    <g><path d="M291.8,338.6l-0.3-0.4c-0.6-0.6-6.9-1.6-15-2.5l-0.5-0.1l-1.3-0.9l1.7,0.4l0.1-0.2l0,0.2l0-0.2l0,0    c0.2,0,10.9-0.3,13.6-11.2c5.3,0.1,8,1.4,8.7,3.5c1.2,3.6-3.8,8.3-5.9,10.3L291.8,338.6L291.8,338.6z M279.8,335.2    c5.2,0.6,10.5,1.4,12,2.2l0.5-0.5c2-1.9,6.8-6.4,5.7-9.4c-0.6-1.8-3.1-2.9-7.5-3.3C289.1,331.3,283.7,334.2,279.8,335.2    L279.8,335.2z"/></g>
    <g><path d="M101.5,374.1l-0.7-0.5c0.8-1.2,1.1-2.1,0.8-2.9c-0.5-1.1-2.2-1.6-2.8-1.7l0.1-0.8c0.1,0,2.7,0.4,3.4,2.2    C102.8,371.5,102.5,372.7,101.5,374.1L101.5,374.1z"/></g>
    <g><path d="M96.2,364.4l-0.5-0.7c1.4-1,2-2,2-3c0-1.3-1.4-2.2-1.4-2.2l0.4-0.7c0.1,0,1.8,1.1,1.8,2.9C98.6,362,97.8,363.3,96.2,364.4    L96.2,364.4z"/></g>
    <g><path d="M99.5,351.7c-0.4,0-0.8,0-1.2-0.1l0.1-0.8c1.9,0.2,3.2-0.1,3.8-0.9c0.8-1,0.2-2.7,0.2-2.7l0.8-0.3c0,0.1,0.8,2.1-0.3,3.5    C102.2,351.3,101.1,351.7,99.5,351.7L99.5,351.7z"/></g>
    <g><path d="M99,365.4l-0.5-0.6c0.3-0.3,8-6.5,12.2-2.4c3.6,1.2,5.7,1,5.7,1l0.1,0.8c-0.1,0-2.3,0.3-6.2-1.1    C106.4,359.3,99.1,365.3,99,365.4L99,365.4z"/></g>
    <g><path d="M166.8,371.7c-2-2.4,0-6.7,0.1-6.9l0.6-0.6l0.3,0.7c-0.2,0.3-2,4.3-0.4,6.3L166.8,371.7L166.8,371.7z"/></g>
    <g><path d="M110.2,357.1c-2.3,0-3.9-0.5-5.4-1c-1.5-0.5-2.9-1.1-5.4-0.9l0-0.8c2.6-0.2,4.2,0.4,5.7,1c1.4,0.5,2.9,0.9,5.1,0.9    c3.5,0,7.1-1.1,11.2-2.3c1.5-0.4,3-0.9,4.7-1.4l0.2,0.8c-1.6,0.4-3.2,0.9-4.6,1.3C117.4,356,113.8,357.1,110.2,357.1L110.2,357.1z    "/></g>
    <g><path d="M68,210.4c-0.8,0-1.4-0.3-1.4-0.3l0.4-0.7c0.1,0.1,2.8,1.2,5.5-2.9l0.7,0.5C71.2,209.8,69.2,210.4,68,210.4L68,210.4z"/></g>
    <g><path d="M69.4,272.9l-0.8-0.2c0.7-3.3-3.8-4.7-3.9-4.7l0.2-0.8C66.8,267.8,70.1,269.7,69.4,272.9L69.4,272.9z"/></g>
    <g><path d="M85.1,202.8c-0.3,0-0.6-0.1-0.8-0.2c-0.6-0.3-0.7-0.9-0.7-1.2l0.8,0c0,0,0,0.3,0.3,0.5c0.4,0.2,1.6,0.3,5.2-2.4l0.5,0.7    C88,201.9,86.3,202.8,85.1,202.8L85.1,202.8z"/></g>
    <g><path d="M91.5,231.3c-5.9-3.1-1.3-15.5-1.1-16l0.8,0.3c0,0.1-4.5,12.3,0.7,15L91.5,231.3L91.5,231.3z"/></g>
    <g><path d="M100,215.5c-0.2,0-0.4,0-0.6-0.1c-2.1-0.5-3.4-3.2-3.5-3.4l0.8-0.3c0,0,1.2,2.5,2.9,2.9c0.7,0.1,1.4-0.1,2.2-0.8l0.5,0.6    C101.6,215.1,100.8,215.5,100,215.5L100,215.5z"/></g>
    <g><polygon points="90.9,179 86.7,172.3 90.7,170.9 91,171.7 88,172.7 91.6,178.6 90.9,179   "/></g>
    <g><path d="M131.3,159.2l-0.5-0.7c0,0,2.8-1.9,2.6-4.3c-0.1-2.5-3.8-7.1-3.8-7.1l0.6-0.5c0.2,0.2,3.8,4.8,4,7.6    C134.4,157,131.4,159.1,131.3,159.2L131.3,159.2z"/></g>
    <g><path d="M122.1,160.7l-0.3-0.8c1.9-0.8,4-2.1,4-2.7c0.3-2,1.1-4.8,1.1-4.8l0.8,0.2c0,0-0.8,2.8-1.1,4.6    C126.6,158.7,123.2,160.2,122.1,160.7L122.1,160.7z"/></g>
    <g><path d="M176.4,144.8l-0.6-0.6c1.8-2,2.5-5.1,2.4-5.5l0.7-0.4C179.4,138.8,178.2,142.8,176.4,144.8L176.4,144.8z"/></g>
    <g><path d="M162.4,150.8c-0.2,0-7.4-1.7-11.2-2c-1.3-1.3-6.3-0.5-9.2,0.3l-0.2-0.8c0.8-0.2,8.1-2,9.8-0.2c3.6,0.1,10.6,1.8,10.9,1.9    c-0.1,0,6.7-1,8.9-2.5l0.5,0.7C169.5,149.8,162.7,150.8,162.4,150.8L162.4,150.8z"/></g>
    <g><path d="M152.2,154.9c-0.9,0-1.8-0.2-2.4-0.5c-2.9-1.3-4.7-4.7-4.2-6.5l0.8,0.2c-0.4,1.3,1.1,4.3,3.7,5.5c3,1.3,6-0.3,8.7-4.6    l0.7,0.4C156.9,153.7,154.2,154.9,152.2,154.9L152.2,154.9z"/></g>
    <path d="M148.5,147.7l7.2,1.3C155.7,149,150.6,155.9,148.5,147.7L148.5,147.7z"/>
    <g><path d="M151.7,152.1c-1.7,0-2.9-1.5-3.6-4.3c0-0.1,0-0.3,0.1-0.4c0.1-0.1,0.2-0.2,0.4-0.1l7.2,1.3c0.1,0,0.3,0.1,0.3,0.3    c0.1,0.1,0,0.3-0.1,0.4C155.9,149.4,153.9,152.1,151.7,152.1L151.7,152.1z M149,148.2c0.6,2,1.5,3.1,2.6,3.1c1.2,0,2.5-1.2,3.2-2    L149,148.2L149,148.2z"/></g>
    <g><path d="M167.8,186.7c-0.2,0-0.4-0.1-0.5-0.3l-9.5-18.2c-0.1-0.3,0-0.6,0.2-0.7c0.3-0.1,0.6,0,0.7,0.2l9.1,17.5l4.1-6.1    c0.1-0.2,0.2-0.2,0.5-0.2c0.2,0,0.3,0.1,0.4,0.3l2,3.8l3.4-6c0.1-0.1,0.2-0.2,0.3-0.2c0.1,0,0.3,0,0.4,0.1l5.5,3.5l-2.1-7    c0-0.2,0-0.3,0.1-0.4c0.1-0.1,0.2-0.2,0.4-0.2l4.9-0.3c-0.6-1.1-2.3-3.3-5.8-3.9c-0.2,0-0.4-0.2-0.4-0.4c-0.1-0.2,0-0.4,0.2-0.5    c1.1-0.9,4.3-3,5.5-3.8c-0.9-0.8-3.1-2.5-6-2.6c-0.2,0-0.4-0.1-0.5-0.3s0-0.4,0.1-0.5c1-1.1,2.2-3.3,2.7-4.4    c-0.1,0-0.3-0.1-0.5-0.1c-1.8-0.3-3-0.7-3.1-0.7c-0.3-0.1-0.4-0.4-0.3-0.6c0.1-0.3,0.3-0.4,0.6-0.4c0,0,1.5,0.4,2.7,0.6    c3.3,0.6,9,1,13.8-1.8c0.2-0.1,0.6-0.1,0.7,0.2c0.1,0.2,0.1,0.6-0.2,0.7c-4.4,2.5-9.4,2.6-12.9,2.2c-0.3,1.2-1.4,3.1-2.2,4.2    c3.8,0.5,6.1,3.2,6.2,3.3c0.1,0.1,0.1,0.3,0.1,0.4c0,0.1-0.1,0.3-0.2,0.4c0,0-3.2,2.1-5.1,3.5c4.4,1.2,5.8,4.8,5.8,4.9    c0.1,0.2,0,0.3-0.1,0.5c-0.1,0.1-0.2,0.2-0.4,0.2l-5,0.3l2.4,7.7c0.1,0.2,0,0.4-0.2,0.6c-0.2,0.1-0.4,0.1-0.6,0l-6.2-4l-3.6,6.4    c-0.1,0.2-0.3,0.4-0.5,0.3c-0.2,0-0.4-0.1-0.5-0.3l-2-3.9l-4.1,6.1C168.1,186.6,167.9,186.7,167.8,186.7L167.8,186.7z"/></g>
    <g><path d="M127.1,181l0-0.8l14.6-0.2c1.6,0,3.7-0.9,6.1-1.9c4.2-1.7,9.4-3.9,14.9-2.6l-0.2,0.8c-5.3-1.2-10.4,0.9-14.4,2.6    c-2.5,1-4.6,1.9-6.4,1.9L127.1,181L127.1,181z"/></g>
    <g><path d="M136.5,180.7l-1.2-2.2l-2.3,1.9l-1.7,0l-1-1.9c-0.3,0.7-0.7,1.7-0.7,1.9l-0.8-0.1c0-0.1,0-0.2,1.1-3    c0.1-0.2,0.2-0.3,0.4-0.3h0c0.2,0,0.3,0.1,0.4,0.3l1.1,2.5l1-0.1l2.4-2.2c0.1-0.1,0.2-0.1,0.4-0.1c0.1,0,0.2,0.1,0.3,0.2l1.1,2.4    l0.8-0.2l1.2-3c0.1-0.1,0.2-0.3,0.4-0.2c0.2,0,0.3,0.1,0.4,0.2l1.2,2.5l2.5-4.3c0.1-0.1,0.2-0.2,0.3-0.2c0.1,0,0.3,0,0.4,0.2    l2.4,3l0.9-3.6c0-0.1,0.1-0.3,0.3-0.3c0.1,0,0.3,0,0.4,0.1l2.4,2.3l1.1-3.1c0-0.1,0.2-0.2,0.3-0.3c0.1,0,0.3,0,0.4,0.1l2.4,2    l1.1-2.7c0.1-0.2,0.2-0.2,0.4-0.3c0.2,0,0.3,0.1,0.4,0.2l1.5,2.9l-0.7,0.4l-1.1-2.1l-1,2.4c-0.1,0.1-0.2,0.2-0.3,0.2    c-0.1,0-0.3,0-0.4-0.1l-2.4-2l-1.1,3.2c0,0.1-0.2,0.2-0.3,0.3c-0.1,0-0.3,0-0.4-0.1l-2.3-2.3l-0.9,3.7c0,0.2-0.2,0.3-0.3,0.3    c-0.2,0-0.3,0-0.4-0.1l-2.6-3.2l-2.6,4.5c-0.1,0.1-0.2,0.2-0.4,0.2c-0.2,0-0.3-0.1-0.4-0.2l-1.1-2.4l-1.2,2.4L136.5,180.7    L136.5,180.7z"/></g>
    <g><path d="M190.2,151.5c-0.2,0-5.4-0.2-6.9-2.1c-0.4-0.5-0.5-1-0.4-1.6c0.6-3.6,7.9-6,8.2-6.1c0,0,9.6-6.2,11-8.3l0.7,0.5    c-1.5,2.2-11,8.3-11.4,8.6c-2.1,0.7-7.3,2.9-7.7,5.5c-0.1,0.3,0,0.6,0.2,0.9c1.1,1.3,4.9,1.7,6.3,1.8L190.2,151.5L190.2,151.5z"/></g>
    <g><path d="M192.3,138.6l-0.6-0.6c0.1-0.1,2.6-2.6,6.8-1.3l-0.2,0.8C194.6,136.4,192.4,138.5,192.3,138.6L192.3,138.6z"/></g>
    <g><path d="M149.4,308.9c-4.1-1.4-14-9.8-12.1-20.5c-6.5-9.1-5.7-13.9-5.6-14.1l0.8,0.2c0,0-0.8,4.7,5.6,13.7    c-1.8,10.5,7.7,18.5,11.6,19.9L149.4,308.9L149.4,308.9z"/></g>
    <g><path d="M137.7,289.1c-26.3-1.9-39.3-17.2-41.4-26.3c-0.8-3.5-0.1-6.2,2-7.4l0.4,0.7c-1.7,1-2.3,3.3-1.6,6.5    c2,8.9,14.8,23.8,40.6,25.7L137.7,289.1L137.7,289.1z"/></g>
    <g><path d="M127.4,287.3l-0.7-0.4c1.9-3.4-0.4-10.9-0.5-11l0.8-0.3C127.1,275.9,129.5,283.5,127.4,287.3L127.4,287.3z"/></g>
    <g><path d="M113.4,281.4l-0.8-0.2c0.7-2.7,3.5-8.2,3.6-8.4l0.7,0.4C116.9,273.2,114,278.8,113.4,281.4L113.4,281.4z"/></g>
    <g><path d="M101.3,272.3l-0.4-0.7c2.5-1.3,4.6-5.7,4.7-5.8l0.8,0.3C106.3,266.3,104.1,270.9,101.3,272.3L101.3,272.3z"/></g>
    <g><path d="M230.1,231.3l0-0.8c0.1,0,9.2-0.5,18.4-25.3c6.3-23.8,41.8-49.1,65.3-65.7c10.2-7.3,18.3-13,18.7-15.1l0.8,0.2    c-0.5,2.5-7.9,7.7-19.1,15.7c-23.4,16.6-58.7,41.7-65,65.3C239.8,230.9,230.4,231.3,230.1,231.3L230.1,231.3z"/></g>
    <g><path d="M256.7,190.2c-0.1,0-0.3-0.1-0.4-0.2c-0.1-0.2,0-0.5,0.2-0.6c9.8-5.4,33.9-14.8,57.2-23.9c9.6-3.8,19.1-7.4,27.4-10.8    c0.2-0.1,0.5,0,0.5,0.2c0.1,0.2,0,0.5-0.2,0.5c-8.3,3.3-17.8,7-27.5,10.8c-23.3,9.1-47.4,18.4-57.1,23.8    C256.9,190.2,256.8,190.2,256.7,190.2L256.7,190.2z"/></g>
    <g><path d="M219.5,294.9c-0.1,0-0.2-0.1-0.3-0.2c-0.5-0.6-0.6-1.9-0.5-3.7c-1.2-13.9,0.3-36.7,3.4-43.1c-6.9,4.1-20.2,20.6-25.5,30.9    c-0.6,1.2-1.1,2.2-1.4,3.1c-0.2,1.2-0.3,2.4-0.4,3.7c0,0.2-0.2,0.3-0.3,0.4c-0.2,0-0.4-0.1-0.4-0.2c-0.4-0.8-0.3-2.2,0.4-4.1    c1-6.5,3.6-14,15.1-36.3c-15.3,1.5-46.6,20.9-52.2,28.2c-0.1,0.2-0.3,0.2-0.5,0.1c-0.2-0.1-0.3-0.3-0.2-0.5    c4.5-13.3,32.3-35,43.9-36.5l0.1,0.8c-10.8,1.4-35.9,20.6-42.3,33.7c8.7-8.6,37.5-25.9,51.9-26.8c0.1,0,0.3,0.1,0.4,0.2    c0.1,0.1,0.1,0.3,0,0.4c-9.8,18.8-13.2,27.2-14.7,33.2c5.3-10.3,20.2-29,27.2-31.8c0.5-0.4,1-0.4,1.3-0.3c0.2,0.1,0.3,0.2,0.3,0.4    c0,0.2-0.2,0.4-0.4,0.4c-0.1,0-0.2,0-0.3,0c-3.5,3-5.6,24.6-4.8,40.1c1-5.4,3.2-12.5,4.9-17.4c3.9-11.7,10.3-28.1,12.3-28.6    c1.8,1.5,14,37.1,15.4,45.5c0-0.1,0-0.2,0.1-0.3c1.8-8.1-4.9-46.5-8.1-51.1c-0.1-0.1,0.1-0.4,0.1-0.5c0.1-0.1,0.5-0.3,0.6-0.3    c4.4,0.3,34.4,32.8,41.1,41.5c-2.2-9.4-20.4-37.9-33.9-46c-0.1-0.1-0.2-0.2-0.2-0.3c0-0.1,0-0.3,0.1-0.3    c2.7-2.6,58.9,20.8,71.2,29.2c-6.8-8-50.5-36.7-63.8-39.9c-0.2,0-0.3-0.2-0.3-0.4c0-0.2,0.1-0.4,0.3-0.4    c17.6-3.8,74.6,4.3,97.1,9.1c-12.1-9.1-67.4-18.5-95.1-17.6c-0.2,0.1-0.3-0.1-0.4-0.2c-0.1-0.1-0.1-0.3,0.1-0.5    c4.1-4.8,67.2-20.4,119.8-32.7c-18.7,2.1-93.3,14.7-112.9,20.6c-0.2,0.1-0.3,0-0.4-0.1c-0.1-0.1-0.1-0.3,0-0.5    c1.9-3.2,118.9-58,132.2-64.2l0.3,0.8c-33.3,15.6-116.1,54.6-129.9,62.6c25.2-6.8,112.8-21.7,115.4-20.1c0.1,0.1,0.2,0.3,0.2,0.4    c0,0.2-0.2,0.3-0.3,0.3l-3.4,0.8c-70.1,16.4-112.1,27.6-119.3,31.9c29.3-0.7,86.7,9.6,95.7,18.9c0.1,0.1,0.2,0.3,0.1,0.5    c-0.1,0.2-0.3,0.2-0.5,0.2c-20.6-4.7-76.9-12.8-96.6-9.8c15.6,5.2,63.6,36.5,63.6,41.8c0,0.2-0.1,0.3-0.3,0.4    c-0.2,0.1-0.3,0-0.4-0.1c-7.6-7.3-62.6-29.5-70.7-30.5c14,9.3,33.5,39.6,33.5,47.7c0,0.2-0.1,0.3-0.3,0.4c-0.2,0-0.4,0-0.5-0.2    c-4.8-7.7-38.8-43.1-41.4-42.6c3.5,4.2,10.3,42.7,8.3,51.2c-0.2,0.9-0.5,1.5-0.9,1.7c-0.1,0.1-0.3,0.1-0.4,0    c-0.1-0.1-0.2-0.2-0.2-0.4c0-5.5-13.9-44.8-14.9-46.1c-1.3,0.8-10.5,23.5-14.9,40.1c-1.2,4.4-1.7,7.3-1.8,9.1    c0.1,1.2,0.2,2.3,0.4,3.4c0,0.2-0.1,0.4-0.2,0.4C219.6,294.9,219.6,294.9,219.5,294.9L219.5,294.9z"/></g>
    <g><polygon points="165,181.4 157.2,181.3 157.2,180.4 165,180.5 165,181.4   "/></g>
    <g><path d="M128,167.2c-1.1,0-1.7-0.2-1.8-0.2l0.3-0.8c0.1,0,5.2,1.8,15.7-6.5l0.5,0.6C135.2,166.2,130.4,167.2,128,167.2L128,167.2z    "/></g>
    <g><path d="M161.1,265.9c-3.6-4.7,2.6-66.7,13.9-82.3l0.7,0.3c-3.5,25.3,6.4,52.1,11.3,57.4c0.6,0.7,0.9,0.7,1,0.7c0,0,0,0,0,0l0,0.8    c-0.3,0-1-0.3-1.6-1c-4.8-5.3-14.6-31.3-11.7-56.3c-11.1,18.4-15.2,76.9-12.9,79.9L161.1,265.9L161.1,265.9z"/></g>
    <g><path d="M169.8,192.3c-5.7,0-10.3-5-10.5-5.2l0.6-0.6c0.1,0.1,5.4,5.8,11.3,4.8l0.1,0.8C170.8,192.2,170.3,192.3,169.8,192.3    L169.8,192.3z"/></g>
    <g><path d="M166.6,206.3c-10.5-0.8-13.3-5.5-13.4-5.7l0.7-0.4c0,0,2.8,4.5,12.8,5.2L166.6,206.3L166.6,206.3z"/></g>
    <g><path d="M162.1,220.6c-8.6,0-14.8-7.5-14.9-7.6l0.6-0.5c0.1,0.1,7,8.4,16.1,7.2l0.1,0.8C163.4,220.5,162.7,220.6,162.1,220.6    L162.1,220.6z"/></g>
    <g><path d="M161.8,234.6c-18.8-0.4-20.9-6.8-21-7l0.8-0.2c0,0.1,2.2,6.1,20.2,6.5L161.8,234.6L161.8,234.6z"/></g>
    <g><path d="M154.6,251.5c-12.4,0-19-5.8-19.1-5.9l0.6-0.6c0.1,0.1,8.8,7.6,24.7,5.2l0.1,0.8C158.6,251.4,156.5,251.5,154.6,251.5    L154.6,251.5z"/></g>
    <g><path d="M146.8,270.3c-6.2,0-10.2-2.2-10.3-2.2l0.4-0.7c0.1,0.1,11.1,6,24.5-2.2l0.4,0.7C156.2,269.3,151,270.3,146.8,270.3    L146.8,270.3z"/></g>
    <g><path d="M219.5,295.2c-4.7-6.6-10.4-7.6-14.4-7.4c-4.6,0.3-8.5,2.5-9.3,4l-0.2,0.3l-0.7,0.3c-1-0.3-1.3-5.5-1-15.5    c-2.1,1-9.3,4.9-14.4,11l-0.8,0.9l0-1.2c0.1-3.6,0.1-8.9,0-12.5l0-2.5c-7,1.4-13.6,1.5-22,1.3l0-0.8c8.5,0.2,15.3,0,22.3-1.4    l0.5-0.1l0,3.5c0,3.2,0.1,7.9,0,11.4c6.2-6.8,14.5-10.6,14.6-10.7l0.6-0.3l0,0.7c-0.2,7-0.1,14.7,0.4,15.4    c0.7-1.9,4.7-4.3,9.8-4.6c4-0.2,9.6,0.8,14.3,6.7c0.1-3.6,2.3-6.8,6.2-8.9c6.4-3.5,17.3-3.8,26.2,3.6c2.6-1,4.2-2.5,5.8-4    c3.6-3.5,7.8-7.4,29.1-5.9c0.6-7.3,13.2-18.3,36.9-18.3c0.2,0,0.3,0,0.5,0c-6.6-10.4,0.9-17.1,1-17.2l0.5,0.6    c-0.3,0.3-7.4,6.5-0.4,16.7l0.5,0.7l-0.8,0c-23.1-0.4-36.6,10.2-37.7,17.9c-21.4-1.1-25.4,2.7-28.9,6c-1.7,1.6-3.3,3.2-6.6,4.2    c-8.6-6.9-19.3-7-25.6-3.6c-4.1,2.2-6.1,5.6-5.7,9.4L219.5,295.2L219.5,295.2z"/></g>
    <g><path d="M170.6,299.3c-10.7-2.8-12.1-9.9-11.4-15.3c0.7-5,3.7-10.9,4.4-10.9l0.3,0.7c-0.1,0.1-5.9,9-3.4,16.5    c1.3,4,4.8,6.7,10.3,8.2L170.6,299.3L170.6,299.3z"/></g>
    <g><path d="M191.2,296.4c-2.6,0-3.9-2.2-4.2-4.3c-0.4-2.5,0.4-5.4,2.7-5.9c0.9,0.2,3.1-0.7,4.3-1.3l0.4,0.7c-0.3,0.2-3.4,1.6-4.7,1.3    c-1.6,0.4-2.2,2.9-1.9,5c0.3,1.8,1.5,3.9,3.7,3.7c1.4-1.8,3.2-4.5,3.2-4.5l0.7,0.5c0,0-1.8,2.8-3.5,4.7    C191.7,296.4,191.5,296.4,191.2,296.4L191.2,296.4z"/></g>
    <g><path d="M185.6,300.6c-2.7,0-4.2-1.5-4.6-3.9c-0.4-2.7,0.8-6.2,2-6.6l0.3-0.1l0.6,0.5c0.6,0.5,1.2,0.8,1.8,0.7    c0.7-0.1,1.2-0.6,1.2-0.7l0.7,0.5c0,0-0.7,0.9-1.8,1c-0.8,0.1-1.7-0.3-2.5-1.1h0c-0.5,0-1.8,2.7-1.5,5.3c0.2,1.6,0.9,3.5,3.8,3.7    c1-3.3,5-4.2,5.2-4.3l0.2,0.8c0,0-3.8,0.9-5,4C185.8,300.6,185.7,300.6,185.6,300.6L185.6,300.6z"/></g>
    <g><path d="M177.8,302.4c-0.6,0-1.1-0.2-1.4-0.4c-0.8-0.6-1-1.9-0.4-3.4c0.8-2.1,2.9-4.1,5.3-3.9l-0.1,0.8c-2.1-0.1-3.8,1.6-4.5,3.4    c-0.4,1.1-0.4,2,0.2,2.4c0.3,0.3,1.8,0.9,6.3-2.3l0.5,0.7C180.8,301.8,179,302.4,177.8,302.4L177.8,302.4z"/></g>
    <g><path d="M176.3,309.7c-0.1,0-0.3,0-0.4,0c-1.7-0.4-3.1-3.1-3.3-5.4c0,0.1-2.1-1.1-2-5.4c-0.1-2,0.4-3.3,1.4-3.8    c2-1,5.2,1.4,5.3,1.5l-0.5,0.7c-0.8-0.6-3.2-2.1-4.5-1.5c-0.7,0.4-1,1.4-1,3.1c-0.1,3.9,1.6,4.9,1.7,5c0.4,2.2,1.6,4.8,2.8,5    c0.8,0.1,1.4-0.7,1.8-1.4c0.8-3.5-0.6-5.1-0.6-5.1l0.6-0.6c0.1,0.1,1.7,1.9,0.7,6C177.8,309.3,177,309.7,176.3,309.7L176.3,309.7z    "/></g>
    <g><path d="M147,345.4c-0.4,0-0.8-0.1-1.2-0.3c-1.9-1-2.4-4.3-2.3-4.7l0.4,0.1l0,0.4v-0.4l0.4,0c0,0.4,0.5,3.3,2.1,3.9    c1.3,0.6,3-0.9,4.2-2.2c1.2-2.7,3.5-7,6-11.9c5.4-10.6,12.2-23.9,14.2-29.6l0.8,0.3c-2,5.8-8.8,19-14.2,29.7    c-2.5,4.9-4.7,9.2-6,12C149.7,344.5,148.2,345.4,147,345.4L147,345.4z"/></g>
    <g><path d="M166,311.7c-1.7,0-5.8-0.4-10-3.8c-1.3-3.9-1.2-7,0.2-9.6c1.9-3.5,5.5-4.6,5.7-4.6l0.2,0.8c0,0-3.5,1-5.2,4.2    c-1.3,2.3-1.3,5.3-0.2,8.7c5,3.9,10,3.4,10.1,3.3l0.1,0.8C166.9,311.7,166.6,311.7,166,311.7L166,311.7z"/></g>
    <g><path d="M162.3,318.6c-2.6,0-6.6-1.7-7.2-2l0.3-0.8c1.7,0.7,6.4,2.5,7.9,1.7l0.4,0.7C163.4,318.5,162.9,318.6,162.3,318.6    L162.3,318.6z"/></g>
    <g><path d="M155.6,330.9c-3.2,0-5.4-3.7-5.4-3.8l0.7-0.4c0.1,0.2,2.6,4.5,6.1,3l0.3,0.8C156.8,330.7,156.2,330.9,155.6,330.9    L155.6,330.9z"/></g>
    <g><path d="M197.5,320.8c-0.2-0.4-4.9-10-0.9-14.8c3.7-4.5,3-17.3,3-17.5l0.8,0c0,0.5,0.7,13.3-3.2,18.1c-3.7,4.4,0.9,13.8,1,13.9    L197.5,320.8L197.5,320.8z"/></g>
    <g><path d="M207.5,314.8l-0.6-0.6c4.9-5.5,2.9-25.1,2.6-26.3l0.8-0.3C210.4,287.8,212.9,308.7,207.5,314.8L207.5,314.8z"/></g>
    <g><path d="M230,306l-0.6-0.6c7.3-7,0-21.3,0-21.5l0.7-0.4C230.4,284.1,237.8,298.6,230,306L230,306z"/></g>
    <g><path d="M241.1,306.1l-0.5-0.7c6-4.3,10.4-17.2,10.5-17.3l0.8,0.3C251.7,288.9,247.4,301.6,241.1,306.1L241.1,306.1z"/></g>
    <g><path d="M290.6,324.2c-10.9,0-18.1-2.9-21.3-8.6c-6-10.4,3.2-26.4,3.6-27.1l0.7,0.4c-0.1,0.2-9.3,16.2-3.6,26.2    c3.1,5.4,10,8.2,20.6,8.2V324.2L290.6,324.2z"/></g>
    <g><path d="M267.3,305.3c-1.2-3.3-20.5-3.9-21.9-3.7l-0.5-0.4l0.4-0.4c0.2-0.1,21.3,0,22.9,4.2L267.3,305.3L267.3,305.3z"/></g>
    <g><path d="M252.4,323.3l-0.5-0.7c0.1-0.1,0.2-0.2,1.6-0.4c3.5-0.6,14-2.3,16.1-6.5l0.7,0.4c-2.3,4.6-12.8,6.3-16.7,7    C252.9,323.2,252.5,323.3,252.4,323.3L252.4,323.3z"/></g>
    <g><path d="M270,331.3l-0.2-0.8c0.5-0.2,5.9-3.6,7-6.7c0.3-0.7,0.2-1.3,0-1.9l0.7-0.4c0.5,1.1,0.3,2.3-0.5,3.7    C275.2,328.3,270.3,331.3,270,331.3L270,331.3z"/></g>
    <g><path d="M248.4,299.4c-0.6,0-1.2,0-1.7-0.1l0.2-0.8c3.5,0.7,10.6-1.4,15.7-6c3-2.7,6.6-7.3,6.1-13.7l0.8-0.1    c0.5,6.7-3.2,11.5-6.4,14.3C258.5,297.3,252.4,299.4,248.4,299.4L248.4,299.4z"/></g>
    <g><path d="M276.3,289.1c-4.9,0-8.6-1.7-8.7-1.8l0.4-0.7c0.1,0.1,11.5,5.5,21.2-3.4l0.6,0.6C285.3,287.9,280.4,289.1,276.3,289.1    L276.3,289.1z"/></g>
    <g><path d="M305.8,288.8c-0.1-0.2-2.5-4-9.1-2c-5.6,0.5-10-7.2-10.2-7.6l0.7-0.4c0,0.1,4.2,7.8,9.3,7.2c7.1-2.1,10,2.4,10,2.4    L305.8,288.8L305.8,288.8z"/></g>
    <g><path d="M382.3,347.5c-1.2,0-2.6-0.4-4-1.3l0.4-0.7c2.1,1.3,3.9,1.5,5.4,0.8c4.6-2.4,5.6-14.2,6.4-22.9    c-1.5-28-10.9-30.1-31.7-34.6c-4.6-1-9.8-2.2-15.5-3.7c-27.7-4-27.5-23.9-27.5-24.1l0.8,0c0,0.2-0.2,19.4,26.9,23.3    c5.7,1.6,10.9,2.7,15.5,3.7c20.5,4.5,30.8,6.8,32.3,35.4c-1,11.1-2.2,21.3-6.9,23.6C383.8,347.3,383.1,347.5,382.3,347.5    L382.3,347.5z"/></g>
    <g><path d="M385.6,337.6c-2.1,0-3.9-1.4-3.9-1.5l0.5-0.6c0,0,2,1.6,4,1.3c1.2-0.2,2.2-1,3.1-2.4l0.7,0.4c-1,1.6-2.2,2.5-3.6,2.8    C386.1,337.6,385.9,337.6,385.6,337.6L385.6,337.6z"/></g>
    <g><path d="M383.6,326.1c-0.7,0-1.1-0.1-1.1-0.1l0.1-0.8c0.2,0,5.4,0.9,7.8-4.2l0.8,0.4C389.2,325.5,385.5,326.1,383.6,326.1    L383.6,326.1z"/></g>
    <g><path d="M383.6,313.1c-1.5,0-2.6-0.3-2.7-0.3l0.2-0.8c0.1,0,5.8,1.4,7.6-2.3l0.7,0.4C388.2,312.6,385.6,313.1,383.6,313.1    L383.6,313.1z"/></g>
    <g><path d="M375.1,306.6l-0.4-0.7c1.2-0.6,4.3-6.2,6.2-9.8l0.7,0.4C381.1,297.4,376.8,305.7,375.1,306.6L375.1,306.6z"/></g>
    <g><path d="M365.5,304.3l-0.6-0.6c4-3.7,3.8-13.2,3.8-13.3l0.8,0C369.6,290.8,369.8,300.4,365.5,304.3L365.5,304.3z"/></g>
    <g><path d="M349.6,302l-0.5-0.6c6.4-5.4,6.6-13.2,6.6-13.3l0.8,0C356.5,288.4,356.2,296.4,349.6,302L349.6,302z"/></g>
    <g><path d="M332,299.5l-0.6-0.6c1.7-1.7,10.1-11.8,7.9-14.6l0.7-0.5C342.9,287.6,332.1,299.4,332,299.5L332,299.5z"/></g>
    <g><path d="M315.7,292.6l-0.1-0.8c10.7-1.6,12.2-12.3,12.2-12.4l0.8,0.1C328.6,279.6,327,290.9,315.7,292.6L315.7,292.6z"/></g>
    <g><path d="M160.8,258.1l-0.4-0.7c0.2-0.1,21.3-12.9,22.4-22l0.8,0.1C182.4,245,161.7,257.6,160.8,258.1L160.8,258.1z"/></g>
    <g><path d="M161.7,246.9l-0.9-0.3l0.6-0.5c5-1.7,14.1-6.3,18.4-17.8l0.8,0.3C176.2,240.4,166.9,245.1,161.7,246.9L161.7,246.9z"/></g>
    <g><path d="M161.8,238.9c-0.1,0-0.2,0-0.3-0.1l0.3-0.8h0c1.3,0,15.4-9.9,15.7-17.5l0.8,0c-0.3,6.5-10,14.6-14.4,17.3    C162.7,238.7,162.1,238.9,161.8,238.9L161.8,238.9z"/></g>
    <g><path d="M162.7,229.4l-0.2-0.8c4.2-1.1,11.9-10.6,13.4-15.5l0.8,0.2C175.1,218.5,167.2,228.1,162.7,229.4L162.7,229.4z"/></g>
    <g><path d="M164.8,219l-0.5-0.7c0.1,0,6.1-4.3,10.7-10.7l0.7,0.5C171,214.6,164.8,219,164.8,219L164.8,219z"/></g>
    <g><path d="M167.8,208.2c-0.2,0-0.3,0-0.4-0.1c-0.4-0.1-0.9-0.5-0.9-1.6l0.8,0c0,0.7,0.3,0.8,0.4,0.8c1.2,0.5,4.9-2.7,6.8-5.3    l0.7,0.5C173.6,204.7,169.9,208.2,167.8,208.2L167.8,208.2z"/></g>
    <g><polygon points="181.2,247.2 178.6,244 179.2,243.5 181.8,246.7 181.2,247.2   "/></g>
    <g><polygon points="174.8,251.7 173.1,249 173.8,248.6 175.5,251.3 174.8,251.7   "/></g>
    <g><path d="M169.2,256.9c-2.2-3-2.2-3.1-2.2-3.2h0.8h-0.4l0.4-0.2c0.2,0.3,2,2.9,2,2.9L169.2,256.9L169.2,256.9z"/></g>
    <g><path d="M166,260.6c-2.4-0.3-2.6-4.6-2.6-4.8l0.8,0c0,1.1,0.4,3.8,1.8,4L166,260.6L166,260.6z"/></g>
    <g><path d="M168.7,252.5c-0.2,0-0.3,0-0.5-0.1c-2-0.8-3.7-6.3-3.8-7l0.8-0.2c0.7,2.2,2.2,6,3.3,6.4l0.9,0.7    C169.2,252.4,169,252.5,168.7,252.5L168.7,252.5z"/></g>
    <g><path d="M173,249.1c0,0-2.4-7-2.6-7.4l0.7-0.4c0.1,0.3,2,5.8,2.6,7.4L173,249.1L173,249.1z"/></g>
    <g><polygon points="178.7,243.1 175.6,236.9 176.3,236.5 179.4,242.8 178.7,243.1   "/></g>
    <g><path d="M176.5,235.4c-0.8,0-2.1-1.2-4.2-4.1l0.4-0.8l0.2,0.3c2.6,3.6,3.4,3.8,3.5,3.8c0,0,0,0,0,0l0.4,0.7    C176.8,235.3,176.7,235.4,176.5,235.4L176.5,235.4z"/></g>
    <g><path d="M171.2,241.9l-0.8,0c-1.4-0.7-2.8-5.7-3-6.7l0.8-0.2c0.6,2.3,1.8,5.8,2.6,6.2L171.2,241.9L171.2,241.9z"/></g>
    <g><polygon points="164.6,245.6 161.2,240.6 161.9,240.2 165.3,245.2 164.6,245.6   "/></g>
    <g><path d="M168.8,234.3c-1.6-0.8-2.5-6-2.7-7.6l0.8-0.1c0.5,3.1,1.3,6.6,1.8,6.9L168.8,234.3L168.8,234.3z"/></g>
    <g><path d="M174.4,229.1c-0.7,0-4-6.7-4-6.8h0.8h-0.4l0.4-0.1c0.2,0.5,3,5.8,3.4,6.2L174.4,229.1L174.4,229.1z"/></g>
    <g><path d="M167.5,225.7c-1.5-1.8-3.3-3.8-3.5-3.9l0.2-0.8c0.2,0,0.3,0,3.9,4.2L167.5,225.7L167.5,225.7z"/></g>
    <g><path d="M171.9,220.3c0,0-2.7-4.6-2.9-4.9l0.6-0.6c0,0,0.2,0.2,3.1,5L171.9,220.3L171.9,220.3z"/></g>
    <g><path d="M171.9,212.6c-1.3-0.2-1.5-3.9-1.5-6.1h0.8c0,2.6,0.4,5.1,0.8,5.3L171.9,212.6L171.9,212.6z"/></g>
    <g><polygon points="170.5,206.6 167.7,202.5 168.4,202 171.2,206.1 170.5,206.6   "/></g></g></svg>
