<?xml version="1.0" ?>
<svg id="Layer_1" style="enable-background:new 0 0 512 512;" version="1.1" viewBox="0 0 512 512" xml:space="preserve"
     xmlns="http://www.w3.org/2000/svg"><style type="text/css">
	.st0 {
    fill: #BD1F34;
  }

  .st1 {
    fill: #010101;
  }

  .st2 {
    fill: #F1D631;
  }
</style>
  <g id="XMLID_1_"><rect class="st0" height="298.7" id="XMLID_12_" width="512" y="106.7"/>
    <rect class="st1" height="149.3" id="XMLID_11_" width="512" y="256"/>
    <polygon class="st2" id="XMLID_10_"
             points="233.2,250.9 249,239.4 264.8,250.9 258.7,232.3 274.5,220.8 255,220.8 249,202.2    242.9,220.8 223.4,220.8 239.2,232.3  "/>
    <path class="st2"
          d="M333.2,342.5c-2.3-3.8-5.2-6.5-8.9-9.8c-3.7-3.3-8.9-7-12.7-10.6l-7.3,8.5c-0.3,0.4-0.2,1.2,0.2,1.3   c8.1,1.4,10.7,4.3,14,7.1c4.4,4.4,6.2,9.8,9,11.8C332.8,354.3,336.6,348,333.2,342.5 M314.1,329c-0.5,0-1-0.4-1-1c0-0.5,0.5-1,1-1   c0.6,0,1,0.4,1,1C315.1,328.5,314.6,329,314.1,329 M321.5,335.4c-0.6,0-1-0.4-1-1c0-0.5,0.4-1,1-1c0.6,0,1,0.5,1,1   C322.5,335,322,335.4,321.5,335.4 M328,342c-0.6,0-1-0.5-1-1c0-0.6,0.4-1,1-1c0.5,0,1,0.4,1,1C328.9,341.5,328.5,342,328,342"/>
    <path class="st2"
          d="M267.9,311.1c-5.9,2-12.3,3.2-19,3.2c-14,0-26.7-5.2-36.8-13.4l-8.5,10.4   c3.6,2.9,7.5,5.6,11.6,7.8l-2.9,5.5c4.5,2.4,9.2,4.4,14.1,5.8l1.7-5.8c4.4,1.4,9,2.3,13.8,2.8l-0.6,5.9c5.1,0.5,10.1,0.5,15.2,0   l-0.6-5.9c4.8-0.5,9.4-1.4,13.8-2.7l1.7,5.7c2.4-0.7,4.8-1.6,7.1-2.5l-3.2-12.2L267.9,311.1z"
          id="XMLID_5_"/>
    <path class="st2"
          d="M307.2,256c0,17.8-8,33.8-20.6,44.4l16.4,11.3c2.1-2.1,4.2-4.3,6-6.6l-4.6-3.8   c3-3.6,5.6-7.5,7.8-11.7l5.2,2.8c2.4-4.5,4.4-9.2,5.8-14.1l-5.7-1.7c1.3-4.4,2.3-9,2.7-13.8l5.9,0.6c0.5-5.1,0.5-10.2,0-15.2   l-5.9,0.6c-0.5-4.7-1.4-9.4-2.8-13.8l5.7-1.7c-1.5-4.9-3.4-9.6-5.8-14.1l-5.3,2.9c-2.2-4.1-4.9-8-7.9-11.6l4.8-3.9   c-3.2-3.9-6.8-7.5-10.8-10.8l-3.9,4.8c-3.6-2.9-7.5-5.5-11.7-7.7l3-5.6c-4.5-2.4-9.2-4.3-14.1-5.8l-1.8,6.1   c-4.3-1.3-8.7-2.2-13.3-2.7l-1.4,13.3C284.3,201.5,307.2,226,307.2,256"
          id="XMLID_4_"/>
    <path class="st2"
          d="M284.5,308.3c-15.4-10.8-31.3-22-44.6-34.6c-0.1-0.1-0.1-0.3,0-0.4c0.1-0.1,0.3-0.1,0.5,0   c13.3,12.6,29.2,23.7,44.6,34.6c7.6,5.4,15.4,10.9,22.8,16.5l2.3-2.7c-25.6-18.3-86.1-60.3-86.9-75.6c-12,23.3,3.2,37.3,13,42.8   c24.8,14.1,41.3,23.4,67.2,40.7l3.9-4.6C299.9,319.1,292.1,313.6,284.5,308.3"
          id="XMLID_3_"/></g></svg>
