<?xml version="1.0" ?>
<svg id="Layer_1" style="enable-background:new 0 0 512 512;" version="1.1" viewBox="0 0 512 512" xml:space="preserve"
     xmlns="http://www.w3.org/2000/svg"><style type="text/css">
	.st0 {
    fill: #010101;
  }

  .st1 {
    fill: #FFFFFF;
  }

  .st2 {
    fill: #317368;
  }

  .st3 {
    fill: #F5E128;
  }

  .st4 {
    fill: #C01F3F;
  }
</style>
  <g><rect class="st0" height="298.7" width="512" y="106.7"/>
    <rect class="st1" height="102.7" width="512" y="106.7"/>
    <rect class="st2" height="93.3" width="512" y="106.7"/>
    <rect class="st1" height="102.8" width="512" y="302.6"/>
    <rect class="st3" height="93.3" width="512" y="312"/>
    <polygon class="st4" points="0,106.7 0,405.4 196,256  "/>
    <polygon class="st3"
             points="101.7,312 65.3,285.3 28.9,312 43,269.1 6.4,242.8 51.6,243 65.3,200 79.1,243 124.2,242.8    87.6,269.2  "/>
    <path class="st1"
          d="M33.7,282.1h26.2c2.1,2.4,6.8,3.3,11.3,0c8.2-4.5,24.1,0,24.1,0l3.1-3.3l-7.6-25.1l-2.7-2.9   c0,0-5.9-3.5-17-2.4C59.9,249.6,56,248,56,248s-9.8,1.2-12.5,2.5c-0.3,0.3-3.1,3.1-3.1,3.1L33.7,282.1z"/>
    <g><path class="st0" d="M65.2,284.6L65.2,284.6c-2.2,0-4.2-0.8-5.5-2.3l-26,0.1l6.4-28.8c0.1-0.1,2.9-3,3.2-3.3    c2.8-1.4,12.3-2.6,12.7-2.6c0.2,0,4.2,1.5,15.1,0.4c11.2-1.2,17,2.3,17.2,2.4l2.8,3l7.7,25.2l-3.2,3.6c-0.3,0.2-7.4-1.9-14.5-1.9    c-4.1,0-7.4,0.7-9.7,2C69.5,283.8,67.3,284.6,65.2,284.6L65.2,284.6z M59.9,281.8c1.4,1.4,3.2,2.2,5.3,2.2l0,0c2,0,4-0.7,5.9-2.1    c2.5-1.4,5.9-2.1,10.1-2.1c7.1,0,14.3,2,14.3,2l2.8-3.2l-7.7-24.8l-2.7-2.8l0,0c0,0-5.9-3.4-16.8-2.3c-11.2,1.2-15.1-0.3-15.2-0.4    c0.1,0-9.6,1.2-12.3,2.5c-0.2,0.2-3,3.1-3,3.1L34,282.2L59.9,281.8L59.9,281.8z"/></g>
    <g><path class="st0" d="M65,284.6c-1.9,0-3.7-0.7-5.5-2c0.5-1,2.3-2.9,5.8-4.6c-10-3.9-26.1-2-26.3-2c-0.2,0.1-0.3-0.1-0.3-0.3    c0-0.2,0.1-0.3,0.3-0.3c0.8-0.1,16.9-2,26.9,2.3c4.9-2.3,12.9-4.1,24.3-2.5c0.2,0,0.3,0.2,0.3,0.3c0,0.2-0.2,0.3-0.4,0.3    c-11.3-1.5-18.8,0.2-23.5,2.3c2,1,3.8,2.3,5,3.9C69.2,283.7,67.1,284.6,65,284.6L65,284.6z M66.1,278.2c-4.2,2-6,4.2-6,4.2    c3.5,2.2,7,2.2,11.1-0.6C69.9,280.3,68.1,279.1,66.1,278.2L66.1,278.2z"/></g>
    <g><polygon class="st0" points="65.9,278.2 65.6,250.6 66.1,250.6 65.9,278.2   "/></g>
    <g><polygon class="st0" points="93.1,272.9 87.9,251 88.4,250.9 93.1,272.9   "/></g>
    <g><path class="st0" d="M41.2,262.3C41.1,262.3,41.1,262.2,41.2,262.3c-0.2,0-0.3-0.2-0.3-0.4l2.6-11.3c0-0.2,0.2-0.3,0.4-0.2    c0.2,0,0.3,0.2,0.2,0.4L41.5,262C41.4,262.2,41.3,262.3,41.2,262.3L41.2,262.3z"/></g>
    <path class="st0"
          d="M16.7,285.1l6.2,7.2c0.7,0.4,1.4,0.4,2,0l9.1-11l3.8-4.7c0.6-0.7,0.8-1.5,0.7-2.2l7.3-6.5c0.6,0,1,0.1,1.6,0.1   c-0.7-0.2-1.2-0.5-0.7-1.3l1.6-1.3l1.3,1.6c0,0-1.8,2.4-2,2.4h-2l-3.8,3.5l1.7,1.5l2.5,6.9l3.1-2.2l-2-7.1l4.4-4.7l-1.6-2.6   l1.1-1.5c0,0,15.2,9.6,21,7c0.2,0.1,0.4-6.8,0.4-6.8s-15.7-1.6-16.1-4.8c-0.4-3.1,3.5-3.5,3.5-3.5l-1.6-2.4l0.4-1.3l2.7,3.5   l6.2-5.3l36.6,41.7c2-0.8,2.4-1.3,2.6-3.3c-0.1,0-35.8-41.1-35.8-41.1l2.7-2.9c0.5-0.6,0.7-0.9,0.7-1.8l4.2-3.7   c1.3,0.4,2.1,1.2,2.7,2.2l11.6-9.8c0.3,0.3,1.2,0.6,1.9,0.3l19.1-18.3l-20.8,14.7l-0.7-0.5c0-0.6,0.8-0.8,0-1.8   c-0.8-1-2,0.9-2.2,0.9c-0.2,0-3-1-3.6-2.3l-0.2,3.4l-5.3,4.9l-4-0.2l-5.8,5.7l-0.7,2.2l0.9,1.8c0,0-3.1,2.7-3.1,2.5   c0-0.2-0.6-0.8-0.7-0.9L70,241l0.4-1.6l-0.9-1.4c-0.3,0.2-3.7,3.8-3.9,3.4c-0.3-0.3-9.9-11.2-9.9-11.2l0.5-2l-6.2-6.8   c-2.3-0.8-5.9-0.9-6.6,4c-0.6,1.2-5.3,0.2-5.3,0.2l-2.6,0.6l-14.4,20.5l8,9.7l16.5-20.8l0.5-5.9l3.5,3.9c1.2,0.2,2.2,0.2,3.3-0.4   l9.7,10.9l-1.6,1.6c0.5,0.6,0.9,1,1.5,1.6c0.6-0.4,1.1-0.8,1.6-1.2c0.2,0.3,0.5,0.7,0.7,0.9c-0.8,0.4-1.4,1-2.2,1.5   c-1.3-0.9-2.6-1.9-2.5-3.6l-5.5,4.6l-0.2,0.9l-16.3,13.5l-1.5,0.2l-0.4,4.2l10.6-8.8v-1.3l1.1,0.9l8.2-6.6c0,0,0.5,0.7,0.4,0.7   c-0.2,0-7.3,6.6-7.3,6.6l-0.2,0.7l-1.3,1.1l-0.7-0.5l-9.9,8.8h-1.5l-5.5,5.5c-1.4,0.1-2.6,0.3-3.8,1.1L16.7,285.1z"/>
    <g><path class="st0" d="M23.9,293c-0.4,0-0.8-0.1-1.2-0.4l-6.2-7.3l9.9-9.1c1.3-0.9,2.5-1,4-1.2l5.3-5.4l1.7-0.1l9.7-8.7l1.1,0.5    l1-1.7c5.5-5.2,7-6.4,7.4-6.7h0c-0.2,0-0.3-0.2-0.4-0.3l-7.8,6.6l-1.5-0.9l0.5,1l-10.7,9l-0.1-4.5l1.7-0.5L54.3,250l0.1-0.7    l5.6-4.7c0.4,1.8,1.6,2.8,2.8,3.6c0.1-0.2,0.4-0.5,0.7-0.7c0.4-0.3,0.7-0.5,1.1-0.8l-0.5-0.1l-1.5,0.8l-1.9-1.7l1.6-2l-9.8-10.4    c-0.4,0.6-1.8,0.6-3.1,0.5l-3.6-4l0.1,5.7l-16.5,21l-8.5-9.7L35.4,226l2.8-0.7c0.1,0,2,0.4,3.5,0.4c1.3,0,1.6-0.3,1.6-0.4    c0.8-5.8,5.3-4.7,7-4.2l6.3,6.9l-0.5,2.3h0c0.2,0,9.5,10.5,9.8,10.9c0.1-0.2,1.9-1.9,2.6-2.7c0.4-0.4,0.7-0.7,0.8-0.8l0.9,1    l0.4-1.1l5.9-5.8l4.3,0.1l5.1-4.9l0.1-3.2c1.1,1,3.7,1.9,4,2c0.4-0.6,1-1.2,1.6-1.2c0.1,0,0.7,0.3,0.8,0.4    c0.6,0.8,0.4,1.3,0.2,1.7l0.5,0.6l20.5-14.7c0.1-0.1,0.3-0.1,0.4,0.1c0.1,0.1,0.1,0.3,0,0.4l-19.1,18.3c-0.8,0.5-1.9,0.2-2.3-0.3    L81.4,241c-1.2-1.1-2-1.8-3-2.1l-3.9,3.6c0.1,0.8-0.1,1.1-0.7,1.8l-2.7,2.9l0,0c0.4,0,35.5,40.4,35.8,40.7c-0.1,2.4-0.6,3-2.7,3.8    l-36.9-41.8l-5.8,5.3l-3.2-3.5l0.2,1.2L60,255c-0.2,0.5-2.1,0.7-2.9,1.8c-0.4,0.5-0.6,1.1-0.5,1.8c0.2,2.1,9.8,3.9,15.8,4.5    c0.1,7.4,0,7.4-0.4,7.4c-0.6,0.3-1.4,0.4-2.4,0.4c-6.8,0-18.3-7.2-18.8-7.5l-0.7,1.4l1.7,2.2l-4.4,5.1l2.1,6.8l-3.2,2.5l-3-7.1    l-1.6-1.4l3.8-3.9l2.2-0.1c0.1-0.1,1-1.2,1.8-2.2l-1.3-1.3L47,267c-0.1,0.5,0,0.6,0.6,0.8c0.2,0,0.3,0.2,0.2,0.3    c0,0.2-0.2,0.2-0.3,0.3l-1.6-0.1l-7.1,6.4c0.2,0.4,0,1.3-0.7,2.2l-13,15.7C24.6,292.9,24.2,293,23.9,293L23.9,293z M47,261.3    l-9.5,8.8l-1.7,0.1l-5.3,5.4c-1.7,0.2-2.8,0.4-3.9,1.1l-9.8,8.7l6.2,6.8c0.4,0.2,1,0.3,1.6-0.1l12.9-15.7c0.6-0.7,0.7-1.5,0.7-2    l7.4-6.8h0.6c0,0,0,0,0-0.1c-0.1-0.3,0-0.7,0.2-1l1.7-1.3l1.7,1.7c-1.9,2.9-2.1,2.9-2.3,2.9h-2l-3.6,3.4l1.7,1l2.6,7.1l2.6-2.3    l-2.1-6.8l4.5-5l-1.7-2.2l1.1-1.8l0,0c0.5,0,12.2,7.3,18.9,7.3c0.9,0,1.7-0.1,2.3-0.4c0-0.2,0.1-4.1,0.2-6.5    c-1.3,0.2-15.7-1.4-16.1-4.7c-0.1-0.9,0.1-1.7,0.6-2.3c1.1-1.3,3.1-1.5,3.1-1.5l-1.9-1.9l0.3-1.5l3.3,3.4l5.8-5.3l37,41.7    c1.6-0.9,1.9-1.3,2-3.1c-0.2-0.1-2.9-3.2-35.8-40.9l2.8-3.3c0.5-0.6,0.6-0.8,0.6-1.6l4.3-3.9c1.5,0.4,2.4,1.1,3.2,2.2l11.1-9.9    c0.6,0.2,1,0.3,1.4,0.3l16.3-15.4l-17.2,12.2l-1.1-0.5c-0.1-0.1,0-0.8,0.1-0.9c0.1-0.3,0.2-0.4-0.1-1c-0.7-0.2-1.2,0.4-1.4,0.7    c-0.1,0.1-0.4,0.4-0.5,0.4c-0.3,0-3.2-1.1-3.9-2.4l0.4,3.2l-5.4,5.2l-4.2-0.1l-5.6,5.6l-0.6,2.1l0.8,1.5c-3.1,3-3.2,3-3.4,3    c-0.4-0.4-0.6-0.6-0.7-0.8c0-0.1-0.3-0.6-0.2-0.7l2.7-2.4l0.1-0.9l-0.6-1.5c-0.1,0.1-0.2,0.3-0.4,0.5c-2.2,2.2-2.9,2.8-3.3,2.8    c-0.6-0.5-10.2-11.3-10.2-11.3l0.5-2.3l-6.1-6.5c-0.4-0.1-1.2-0.3-2-0.3c-2.2,0-3.6,1.4-4,4.2c-0.3,0.6-1,0.8-2.2,0.8    c-1.5,0-3.4-0.4-3.5-0.4l-2.4,0.6l-14.3,20.3l8,9.3l16-20.8l0.4-5.7l4,3.7c0.2,0,0.6,0,1,0c0.7,0,1.4-0.1,1.9-0.4l10.1,10.9    l-1.6,2l0.7,0.4l0.7,0.8l0.4-0.6l0.8-0.6c0.1-0.1,0.6,0.4,0.7,0.5l0.4,0.5c-0.5,0.7-0.8,0.9-1.2,1.2c-0.4,0.3-0.7,0.5-1.1,0.8    c-1.7-0.9-3-2-2.9-3.9l-5,4.8l-0.1,0.7l-16.4,13.7l-1.6,0.2l-0.1,3.9l10.1-9l-0.1-1l1.6,0.7l7.8-6.6c1,0.8,0.9,1,0.9,1.1    c-0.5,0.4-4.7,4.2-7.4,6.7l-0.1,0.6l-1.4,1.3L47,261.3L47,261.3z M70.4,240.7l-0.1,0.3l-2.8,2.6c0.5,0.2,0.7,0.4,0.7,0.6    c0-0.5,1.4-1.6,2.6-2.7L70.4,240.7L70.4,240.7z"/></g></g></svg>
