<?xml version="1.0" ?>
<svg id="Layer_1" style="enable-background:new 0 0 512 512;" version="1.1" viewBox="0 0 512 512" xml:space="preserve"
     xmlns="http://www.w3.org/2000/svg"><style type="text/css">
	.st0 {
    fill: #FFFFFF;
  }

  .st1 {
    fill: #3D9546;
  }

  .st2 {
    fill: #2D328E;
  }

  .st3 {
    fill: #010101;
  }
</style>
  <g><rect class="st0" height="298.7" width="512" y="106.7"/>
    <rect class="st1" height="89.6" width="512" y="315.7"/>
    <rect class="st2" height="89.6" width="512" y="106.7"/>
    <path class="st3"
          d="M255.8,201.8c-1.7,0-3.4,1.9-3.4,1.9l0.1,20.1l-6.4,6.7h5.2l0,11.6l-30.5,41l-4.5-1.6l-7.9,16.8   c0,0,19.5,12.2,47.7,11.9c31-0.4,47.9-12.4,47.9-12.4l-8.1-16.6l-4,1.7l-30.8-40.8l0-11.9h5.1l-7-6.6l0-20.1   C259.2,203.6,257.5,201.8,255.8,201.8L255.8,201.8z"/>
    <g><path class="st3" d="M255,310.4c-27.4,0-46.5-11.8-46.7-11.9l7.8-17.1l4.8,1.4l30.2-40.9l0-11.4l-4.9,0.2l6.2-7l-0.2-20    c0.1-0.2,1.8-2.1,3.6-2.1c1.8,0,3.5,1.8,3.6,1.8l0,20.2l6.9,6.4l-5.3,0.4l0.3,11.7l30.8,40.7l3.7-1.8l8.4,16.7    c-0.2,0.4-17.3,12.4-48.1,12.7L255,310.4L255,310.4z M208.7,298.4c0.4,0,19.3,11.6,46.4,11.6l1.1,0c30.6-0.4,47.6-12.3,47.7-12.4    l-8.2-16.3l-3.7,1.8l-31.1-40.9l-0.1-12l5.4-0.2l-7.2-6.2l0-20.2c0,0,0,0,0,0c-0.1,0-1.7-1.6-3.2-1.6c-1.6,0-3.2,1.8-3.3,1.8    l0.2,20l-6.4,6.8l5-0.4l0.2,11.8L221,283.2l-4.8-1.5L208.7,298.4C208.7,298.4,208.7,298.4,208.7,298.4L208.7,298.4z"/></g>
    <g><path class="st3" d="M267.1,251.1h-22.4l-0.3-0.6c-0.3-0.7-7.7-16.5-6.5-28c1.2-11.3,7.7-17.9,17.6-18h0c11,0,16.7,5.5,18.4,17.5    c1.6,11.6-6.2,27.8-6.5,28.5L267.1,251.1L267.1,251.1z M246,248.9h19.7c1.4-3.1,7.4-16.9,6-26.6c-1.5-10.8-6.4-15.6-15.9-15.6    c-9.1,0.1-14.6,5.8-15.8,16C239,232.4,244.7,245.9,246,248.9L246,248.9z"/></g>
    <path class="st0" d="M219,288.4c-0.3,0.5-2.9,5.5-2.9,5.5l4.4-0.9L219,288.4z"/>
    <polygon class="st0" points="221.5,295 216.9,296.5 222.4,298.6  "/>
    <polygon class="st0" points="223.5,288.5 225.8,295.3 231.5,293.7 230,290.5  "/>
    <polygon class="st0" points="227.1,297.7 227.9,300.5 235.4,302.3 232.4,296  "/>
    <polygon class="st0" points="235.4,292 238,298.3 243.6,296.1 241.8,293.4  "/>
    <polygon class="st0" points="239,300.6 240,303 248.7,304.3 245,298.5  "/>
    <polygon class="st0" points="247.4,293.8 250.6,299.4 258.8,296.5 257.9,294.3  "/>
    <polygon class="st0" points="252.1,301.5 253.8,304.5 263.9,304.2 260.2,298.5  "/>
    <polygon class="st0" points="262.8,294.1 265.5,298.8 272,295.7 270.3,293.1  "/>
    <polygon class="st0" points="273.3,297.6 266.9,300.8 268.6,303.6 277.2,302.2  "/>
    <polygon class="st0" points="275.4,292.7 278.7,296.8 284.1,292.6 282.3,290.6  "/>
    <polygon class="st0" points="285.3,294.9 280.1,298.8 281.5,301.2 288.6,299.3  "/>
    <polygon class="st0" points="292.4,286.7 293.7,288.5 290.1,293.8 286.4,289.1  "/>
    <polygon class="st0" points="294.8,291.3 297,295.7 292.6,297.2 292.3,295.1  "/></g></svg>
