<?xml version="1.0" ?>
<svg id="Layer_1" style="enable-background:new 0 0 512 512;" version="1.1" viewBox="0 0 512 512" xml:space="preserve"
     xmlns="http://www.w3.org/2000/svg"><style type="text/css">
	.st0 {
    fill: #231E5F;
  }

  .st1 {
    fill: #FFFFFF;
  }

  .st2 {
    fill: #47A0B9;
  }

  .st3 {
    fill: #010101;
  }

  .st4 {
    fill: #983E21;
  }

  .st5 {
    fill: #F09828;
  }

  .st6 {
    fill: #F7DF29;
  }

  .st7 {
    fill: #BA2025;
  }

  .st8 {
    fill: #37823E;
  }

  .st9 {
    fill: #F8DFCE;
  }

  .st10 {
    fill: #7B1316;
  }

  .st11 {
    fill: none;
  }
</style>
  <g><rect class="st0" height="298.6" width="512" y="106.7"/>
    <path class="st1"
          d="M333.6,191.7H445l-0.1,79.2c0.9,31.9-18.9,51.6-55.5,60.5c-25.9-6.4-55.9-19.8-55.9-59.6L333.6,191.7z"/>
    <path class="st2" d="M336,194.1h106.4l-0.1,75.9c0.9,30.5-18.1,49.5-53,58c-24.8-6.2-53.4-18.9-53.4-57.1L336,194.1z"/>
    <g><path class="st3" d="M389.3,328.2L389.3,328.2c-23-5.7-53.5-17.9-53.5-57.3l0.1-76.8l106.5-0.1v76.1    C443.3,299.8,425.4,319.3,389.3,328.2L389.3,328.2L389.3,328.2z M442.3,194.1L336,194.2v76.7c0,39.2,30.4,51.3,53.3,57    c36-8.8,53.7-28.3,52.9-57.9L442.3,194.1L442.3,194.1z"/></g>
    <path class="st4" d="M441.6,279c-3.9,29.1-26.3,41.9-52.3,48.6c-23-6.2-47.8-16-52.6-48.5L441.6,279z"/>
    <polygon class="st3"
             points="364.3,208.2 385.1,208.2 385,198.7 392.5,198.7 392.6,208.2 413.3,208.2 413.4,215.7 392.6,215.7    392.4,303.2 385,303.3 385,215.7 364.3,215.7  "/>
    <path class="st5"
          d="M368.4,282.6l18.9,19.7c6.6-7.2,2-34.1-6.6-39.1c-1,3.2-2.8,7-4.7,8.2c-4.1,2.8-14.2,6.1-10.8,8.2   c0.8-1.1,2.8-2.1,3.7,0.3c1.1,3.7-4.2,4-4.2,4s-3.4-0.4-4-3.8c-0.6-3.4,5-6.6,5.5-6.8c0.5-0.2,7.8-2.1,9-8.6   c1.5-6.4,3.1-5.4,3.4-5.5c9.6,0.9,15.8,18.1,16.2,30.1c0.4,12-4.9,20-5.8,20.5c-0.9,0.5-22.8-25.9-22.8-25.9L368.4,282.6z"/>
    <g><path class="st3" d="M389,309.9c-1.4,0-20.6-23.3-22.8-26l0.2-0.2c-0.9,0.2-1.6,0.3-1.7,0.3s-3.5-0.5-4.1-3.9    c-0.6-3.7,5.5-6.9,5.6-6.9c3-1,8-3.3,9-8.5c1.4-5.6,2.8-5.6,3.3-5.6c9.8,0.9,16.2,18.2,16.6,30.2C395.4,301.3,390,309.3,389,309.9    L389,309.9L389,309.9z M368,283c-0.3,0.2-0.6,0.4-1,0.5l-0.7,0.4c8.6,10.1,21.6,25.5,22.7,25.7c0.9-0.6,6.1-8.5,5.8-20.4    c-0.3-11.9-6.6-29.1-16.1-30c-1.4,0-2.4,1.8-3.3,5.5c-1,5.3-6,7.7-8.9,8.7c-0.2,0.1-6.2,3.2-5.6,6.7c0.6,3.3,3.8,3.7,3.8,3.7    s1.1-0.1,2.2-0.5l1.2-0.7c0.8-0.6,1-1.5,0.7-2.6c-0.7-1.9-2.8-1.3-3.5-0.3c-0.7-0.3-0.9-0.6-0.9-1.1c0.1-1.4,3.2-2.9,6.6-4.6    c1.8-0.9,3.7-1.8,5-2.7c1.8-1.2,3.6-5,4.6-8.2c4.3,2.3,7.9,9.9,9.3,19.4c1.1,7,1,15.9-2.5,19.8L368.5,283l18.9,19.2    c2.7-3.2,3.7-10.7,2.3-19.6c-1.5-9.4-5-16.9-9-19.3c-0.9,3.1-2.6,7-4.5,8.2c-1.3,0.9-3.1,1.8-5,2.7c-3.1,1.5-6.4,3.1-6.4,4.4    c0,0.3,0.2,0.6,0.6,0.9c0.4-0.9,2.5-2.8,3.8,0.4c0.4,1.2,0.1,2.2-0.7,2.9l-0.1-0.1l0,0l0.1,0.1l0,0L368,283L368,283z"/></g>
    <g><polygon class="st3" points="382.4,299.8 382,264.3 382.3,264.3   "/></g>
    <g><path class="st3" d="M380.3,297.2c-0.3,0-0.4-32.2-0.4-32.2h0.3C380.2,265.1,380.3,297.2,380.3,297.2L380.3,297.2z"/></g>
    <g><polygon class="st3" points="378,295.3 377.6,269.7 377.9,269.7   "/></g>
    <g><polygon class="st3" points="376.1,292.7 375.7,271.5 376,271.5   "/></g>
    <g><polygon class="st3" points="374,290.3 373.7,272.4 374,272.4   "/></g>
    <g><polygon class="st3" points="371.8,288 371.5,273.8 371.8,273.8   "/></g>
    <g><polygon class="st3" points="369.9,285.8 369.6,275 369.9,275   "/></g>
    <g><path class="st6" d="M387.7,307.1L367.9,285c-0.1-0.1-0.1-0.2,0-0.3c0.1-0.1,0.2-0.1,0.3,0L387.7,307.1L387.7,307.1z"/></g>
    <g><path class="st6" d="M389.2,306.5c-0.1,0-0.1,0-0.2,0c-0.2-0.1-0.3-0.3-0.2-0.5c8-15.6-0.6-34.8-0.7-35s0-0.4,0.2-0.5    c0.2-0.1,0.4,0,0.5,0.2c0.1,0.2,8.8,19.7,0.6,35.6C389.5,306.4,389.3,306.5,389.2,306.5L389.2,306.5z"/></g>
    <g><path class="st6" d="M365.8,281.2h-0.1c-0.2-0.1-0.3-0.3-0.2-0.5c0.1-0.2,0.5-1.2,1.2-1.4c0.1-0.1,0.8,0.2,0.9,0.2    c0.2,0.1,0.2,0.4,0,0.5c-0.1,0.2-0.4,0.2-0.5,0c-0.5-0.1-0.7,0.5-0.8,0.9C366.1,281.1,365.9,281.2,365.8,281.2L365.8,281.2z"/></g>
    <g><path class="st6" d="M362.6,281.4c-0.1,0-0.2,0-0.3-0.1c-0.5-0.5-0.7-1.1-0.7-1.8c0.1-1.9,2.2-3.8,2.3-3.9c0.2-0.1,0.4-0.1,0.6,0    c0.1,0.2,0.1,0.4,0,0.6c0,0-2,1.8-2,3.4c0,0.5,0.1,0.9,0.5,1.2c0.1,0.2,0.1,0.4,0,0.6C362.8,281.3,362.7,281.4,362.6,281.4    L362.6,281.4z"/></g>
    <path class="st1"
          d="M0,106.7v14.5l231,115.5h29.1v-14.5l-231-115.5H0z M260.1,106.7v14.5l-231,115.5H0v-14.5l231-115.5H260.1z"/>
    <path class="st1" d="M108.4,236.7h43.4v-130h-43.4V236.7z M0,193.4h260.1V150H0V193.4z"/>
    <path class="st7" d="M0,184.7h260.1v-26H0V184.7z M117,236.7h26v-130h-26V236.7z"/>
    <path class="st7"
          d="M0,236.7l86.7-43.4h19.4l-86.7,43.4L0,236.7L0,236.7z M0,106.7L86.7,150H67.3L0,116.3V106.7z M154,150   l86.7-43.4h19.4L173.4,150H154z M260.1,236.7l-86.7-43.4h19.4l67.3,33.7V236.7z"/>
    <path class="st8"
          d="M392.6,226.6c1.3-1.1,2-1.8,2.8-1.7c0.8,0.1,1.9,0.1,2.7-0.2c0.8-0.2,4.8-0.7,6.5-0.2c0.6,0.1,1.3,0.4,2.5,1.3   c1.2,1,2.8,2.7,2.3,7.3c-0.6,4.7-0.4,6.7-0.6,9.3c-0.4,4.6-1.5,8.4-3.3,8.1c2.5,4.4,2.8,8.1,4.4,11.1s2.6,9.1,2,15.8   c-0.6,6.6-2.4,21.5,2.9,31.5c-0.9,0.6-3,0-4.9-2s-2.7-1.9-4.3-0.8c-4.7,3.6-9.2,8-15.7,3.6c-1.5-1-2-2.2-0.9-5.3   c2.7-7.6,4.1-18.1,3.6-23V226.6z"/>
    <g><path class="st3" d="M395.2,311.9c-1.8,0-3.6-0.6-5.4-1.9c-1.5-1-2.1-2.2-0.9-5.4c2.7-7.6,4.1-18,3.6-22.9v-55.1    c1.4-1.3,2-1.8,2.7-1.8c1.5,0.2,2.1,0.1,2.9-0.2c0.9-0.3,5.2-0.6,6.6-0.2c0.7,0.1,1.5,0.5,2.5,1.4c1,0.8,2.9,2.5,2.3,7.5    c-0.4,2.9-0.4,4.8-0.5,6.4c0,1-0.1,1.9-0.2,2.9c-0.4,3.8-1.2,8.3-3.2,8.3c1.3,2.3,2,4.6,2.6,6.6c0.5,1.6,0.9,3,1.6,4.3    c1.8,3.3,2.6,9.7,2,15.8l-0.1,1.1c-0.7,7.3-2,20.9,3,30.3c-1,1.2-2.9,0.5-5.1-1.9c-1.9-2-2.7-1.8-4.1-0.7l-1.2,0.9    C401.6,309.6,398.7,311.9,395.2,311.9L395.2,311.9z M395.4,225.1c-0.8,0-1.4,0.5-2.3,1.3l-0.3,55.3c0.4,5-0.9,15.4-3.6,23    c-1.1,3.1-0.6,4.2,0.8,5.1c5.3,3.6,9.9,0.8,14.4-2.7l1.2-0.9c1.5-1.1,2.4-1.4,4.4,0.8c1.6,1.7,3.8,2.6,4.7,2c-5-9.4-3.7-23-3-30.3    l0.1-1.1c0.7-7.1-0.5-13-2-15.7c-0.7-1.3-1.2-2.8-1.7-4.4c-0.6-2-1.3-4.3-2.7-6.7c1.7-0.2,2.8-3,3.3-8.2c0.1-1,0.1-1.9,0.2-2.9    c0.1-1.6,0.1-3.5,0.5-6.4c0.6-4.9-1.3-6.5-2.2-7.2c-1-0.8-1.7-1.2-2.4-1.3c-1.5-0.5-5.7,0-6.5,0.2    C397.4,225.1,396.3,225.2,395.4,225.1L395.4,225.1L395.4,225.1z"/></g>
    <path class="st9"
          d="M397.2,221.9c0.3,1.1,0.5,2.4,0,3.7c-0.6,1.3-0.7,2.8,0.3,4.6c1.5-2.1,3.6-1.7,4.9-2.9   c1.3-1.3,1.5-2.4,2.4-2.7c-0.9-0.8-2.4-1.7-2.1-4.1c0.3-2.4,3.6-4.3,0.6-7.9c-1.9-2.3-4.7-1.7-6-0.8c-0.6,0.4-1.1,1-1.2,1.4   c-0.2,0.4,0,1.3-0.4,1.9c-0.3,0.4-0.7,0.7-1.1,1.1c-0.3,0.2-0.5,0.5-0.2,0.8c0.1,0.1,0.3,0.2,0.6,0.3c-0.1,0.3-0.3,0.6-0.4,0.8   c-0.2,0.2-0.1,0.4,0.1,0.5c-0.2,0.8,0.2,0.8-0.1,1.4c-0.3,0.5-0.6,1.1,0.4,1.6C395.1,221.7,396.5,222,397.2,221.9L397.2,221.9z"/>
    <g><path class="st3" d="M397.4,230.4l-0.1-0.2c-0.8-1.6-0.9-3.2-0.3-4.7c0.5-1.2,0.4-2.4,0.1-3.4c0.5,1,0.7,2.3,0.1,3.5    c-0.6,1.4-0.6,2.8,0.2,4.3c0.9-1.1,2-1.5,2.9-1.8c0.7-0.2,1.4-0.5,1.9-1s0.9-1,1.2-1.5c0.3-0.5,0.6-0.9,1-1.1    c-0.2,0.4-0.4,0.8-0.8,1.2c-0.3,0.4-0.7,1-1.2,1.5s-1.2,0.8-2,1c-1,0.3-2,0.7-2.9,1.9L397.4,230.4L397.4,230.4z M404.4,224.3    c-1.2-0.8-2.2-1.7-1.9-3.8c0.1-0.8,0.5-1.5,0.9-2.2c0.9-1.6,1.8-3.2-0.2-5.7c-2.4-2.9-4.9-1.5-5.8-0.8c-0.6,0.4-1,1-1.2,1.4    c-0.1,0.1-0.1,0.4-0.1,0.6c0,0.4,0,0.9-0.3,1.3c-0.3,0.4-0.7,0.8-1.2,1.1l-0.1,0.6l-0.4-0.3c0-0.2,0.1-0.4,0.4-0.5    c0.4-0.3,0.8-0.7,1.1-1c0.2-0.3,0.3-0.7,0.3-1.1c0-0.3,0-0.5,0.1-0.7c0.2-0.5,0.7-1.1,1.3-1.5c1-0.7,3.6-2.3,6.1,0.8    c2.1,2.6,1.1,4.4,0.3,5.9c-0.4,0.7-0.8,1.4-0.9,2.1C402.5,222.6,403.5,223.4,404.4,224.3C404.4,224.2,404.4,224.2,404.4,224.3    L404.4,224.3z M396.6,222c-0.8,0-1.6-0.2-1.8-0.3c-0.4-0.2-0.6-0.5-0.7-0.7c-0.1-0.4,0.1-0.7,0.3-1c0-0.8,0-1,0.1-1.4    c0.1-0.8,0.2-1,0.4-1.3l-0.3-0.3l0.5,0.4c-0.1,0.2-0.3,0.5-0.5,0.8c0,0.8,0,1,0.1,1.2c0,0.2,0.1,0.4-0.1,0.7    c-0.2,0.3-0.3,0.6-0.3,0.9c0.1,0.2,0.3,0.4,0.6,0.6c0.2,0.1,1.3,0.4,2,0.4c0,0,0.1,0.1,0.1,0.2C396.9,222,396.7,222,396.6,222    L396.6,222z"/></g>
    <path class="st9"
          d="M385,234.4c-1.8,0.4-4.6-0.3-6.7-0.1c-0.9,0.1-1.7-0.4-1.6-1.3c0.1-0.9,0.2-2.4,0.1-3.7c-0.3-2,0.7-4.9,2.1-8   s2.1-4.9,2.1-6.3c0-1,0.1-2.1,1-2.6c0.6-0.4,0.8-0.8,1-1.2c0.5-0.8,1-1,1.1-0.5c0,0.3-0.1,0.5-0.3,0.9c0.6-0.5,1.5-1,1.7-1.2   c0.2-0.2,1.3-0.9,1.4-0.2c0.4-0.2,0.7-0.2,0.8,0c0.1,0.3,0,0.4-0.2,0.5c0.3-0.1,0.7,0.5,0,1c0.3-0.1,0.7,0.4,0.1,0.9   s-1.3,0.9-1.5,1.3c-0.2,0.4-1.7,1.5-2.3,1.8c-0.6,0.3-0.6,0.6-0.6,1.5c0,9.6-1.2,8.8-1.2,11.2c0,0.6-0.1,1.2,0.5,1   c0.6-0.2,1.5-0.5,2.5-0.5V234.4z"/>
    <g><path class="st3" d="M383.6,234.6c-0.7,0-1.4-0.1-2.1-0.1c-1.1-0.1-2.2-0.2-3.2-0.1c-0.7,0-1.2-0.2-1.4-0.4    c-0.2-0.3-0.3-0.6-0.3-1c0.1-1,0.2-2.4,0.1-3.6c-0.3-2.2,0.9-5.3,2.1-8.1c1.4-3.2,2.1-4.9,2.1-6.3c0-1,0.1-2.1,1-2.7    c0.5-0.3,0.7-0.6,0.8-0.9c0.5-0.7,0.8-1,1.1-1c0.3,0.5,0.3,0.8,0.2,1.1c0.3-0.4,0.7-0.7,1.1-0.9c0.6-0.4,1.1-0.8,1.5-0.8l0.8,0.2    c0.5,0.5,0.5,0.7,0.3,0.9l-0.1-0.5l-0.2,0.1l-0.7-0.2c-0.4-0.2-0.8,0-1.2,0.3c-0.7,0.5-1.3,0.8-1.7,1.2c0.1-0.6,0.1-0.8,0.1-1    c-0.2-0.1-0.5,0.1-0.9,0.6c-0.3,0.5-0.5,0.8-1,1.2c-0.8,0.5-0.9,1.5-0.9,2.5c0,1.5-0.6,3.2-2.1,6.4c-1.2,2.7-2.4,5.8-2,7.9    c0.2,1.3,0.1,2.7-0.1,3.7c0,0.3,0,0.6,0.2,0.8s0.6,0.4,1,0.4c1.7-0.2,2.4,0,3.5,0.1c1.3,0.1,2.6,0.2,3.4,0l-0.1-5.3    c-0.7,0.1-1.6,0.4-2.2,0.6h-0.6c-0.2-0.2-0.1-0.4-0.1-0.8c0-1.1,0.1-1.5,0.3-2.1c0.3-1.2,0.9-2.9,0.9-9.4c0-0.9,0-1.3,0.7-1.6    c0.6-0.2,2-1.4,2.2-1.7c0.2-0.3,0.5-0.5,0.9-0.8c0.2-0.2,0.4-0.3,0.6-0.5c0.3-0.2,0.3-0.5,0.3-0.6l0,0c0.3,0.3,0.2,0.6-0.1,0.8    c-0.2,0.2-0.5,0.4-0.7,0.5c-0.4,0.3-0.7,0.5-0.8,0.7c-0.2,0.4-1.8,1.6-2.4,1.8c-0.5,0.2-0.5,0.5-0.5,1.4c0,6.5-0.5,8.3-0.9,9.4    c-0.2,0.6-0.3,1-0.3,1.7l0.1,0.9c1-0.2,1.9-0.5,2.8-0.5l0.1,5.6C384.6,234.6,384.2,234.6,383.6,234.6L383.6,234.6z"/></g>
    <path class="st9"
          d="M385.4,255.1c2.8-1.4,6.1-1.9,7.8-2.4c1.7-0.4,4.4-1.7,5.7-2.4c1.3-0.7,2.4-1.6,3.1-1.9   c0.7-0.3,1.6-0.8,2.1-1.7c2.4-4.8,3.8-8.6,3.8-11.9c0-2.2-0.6-4.6-2.7-2.9c-2,1.6-4.2,4.8-4.7,7.1c-0.9,3.5-1.6,4.3-1.8,4.9   c-0.2,0.7-0.9,0.7-1.8,0.9c-3.7,0.8-4.6,1.4-7.3,3.4c-2.8,2.1-5.7,3.9-7.8,5c-2,1.1-2.4,1.3-2.8,2.2s-0.8,1.6-1.2,2   c-0.4,0.4-0.5,0.9-0.4,1.4c0.1,0.4-0.1,2.3-0.2,2.9c0,0.6,0.1,0.8,0.4,0.8s0.6-0.1,0.7-0.8c-0.1,0.7,0.9,0.5,1-0.1   c0,0.8,1.1,0.3,1.1-0.4c0,0.5,0.8,0.2,0.9-0.1c0.2-0.6,0.3-1.3,0.6-1.8c0.4-0.7,0.8-1.7,1.5-2.2C384.1,256.6,383.7,256,385.4,255.1   L385.4,255.1z"/>
    <g><path class="st3" d="M377.5,262.8L377.5,262.8c-0.6-0.1-0.6-0.5-0.6-0.9l0.1-0.7c0.1-0.7,0.1-1.9,0.1-2.2    c-0.1-0.6,0.1-1.1,0.4-1.5c0.3-0.4,0.7-1,1.2-2c0.4-0.8,0.8-1,2.3-1.9l0.6-0.3c1.3-0.7,4.6-2.6,7.7-5c2.8-2.1,3.6-2.6,7.4-3.5    c1.1-0.2,1.5-0.3,1.7-0.8c0.1-0.2,0.2-0.4,0.3-0.7c0.3-0.7,0.9-1.8,1.5-4.2c0.6-2.3,2.7-5.5,4.8-7.2c2.3-1.9,2.9,1.6,2.9,3    c0,3.2-1.2,6.9-3.8,11.9c-0.6,1.1-1.6,1.6-2.1,1.7c-0.4,0.1-0.9,0.5-1.5,0.8c-0.5,0.3-1,0.7-1.7,1c-1.7,0.9-4.2,2-5.7,2.4    l-1.3,0.3c-1.8,0.4-4.2,1-6.5,2.1c-1,0.5-1.2,0.9-1.5,1.3c-0.2,0.3-0.3,0.5-0.6,0.8c-0.6,0.4-1,1.2-1.3,1.9s-0.5,1.2-0.6,1.6    c-0.2,0.6-0.6,0.9-0.9,0.9l0,0c-0.2,0.1-0.7,0.6-1.1,0.6l-0.4-0.6c0.2,0.4-0.2,0.7-0.5,0.7l-0.5-0.6c0.7,0.4,1,0.2,1-0.1    c0.7,0.3,1.1,0,1.1-0.4l1-0.1h-0.1c0.3-0.9,0.4-1.4,0.6-1.8c0.5-1,0.9-1.7,1.5-2.2c0.3-0.2,0.4-0.4,0.6-0.7    c0.2-0.4,0.5-0.9,1.6-1.4c2.2-1.1,4.7-1.7,6.5-2.1l1.3-0.3c1.5-0.4,4-1.6,5.7-2.4c0.6-0.3,1.1-0.7,1.6-1c0.6-0.4,1.1-0.7,1.5-0.9    c0.5-0.2,1.5-0.6,2-1.6c2.6-5,3.7-8.7,3.7-11.8c0-1-0.4-4.5-2.5-2.8c-2,1.7-4.2,4.8-4.7,7.1c-0.6,2.5-1.2,3.6-1.5,4.3    c-0.1,0.3-0.2,0.5-0.3,0.7c-0.2,0.6-0.8,0.8-1.4,0.9c-4.1,0.9-5,1.5-7.7,3.5c-3.2,2.4-6.5,4.3-7.8,5l-0.6,0.3    c-1.5,0.8-1.8,1-2.2,1.8c-0.5,1-0.9,1.6-1.2,2c-0.3,0.4-0.4,0.8-0.4,1.3c0,0.3,0,1.4-0.1,2.2l-0.1,0.7c0,0.6,0.1,0.7,0.3,0.7h0.1    c0.3,0,0.5-0.4,0.5-0.7C378.2,262.6,377.8,262.8,377.5,262.8L377.5,262.8z"/></g>
    <path class="st9"
          d="M405.6,306.3c0.2,0.7,0.5,1.5,0.7,1.9c0.1,0.5-0.1,0.6-0.2,0.9c-0.7,1.4-1.4,3.6-1.5,4.8   c-0.1,0.7-0.5,1.3-0.8,1.7c-0.2,0.4-0.1,0.8,0.4,1.2c0.3,0.2,1.1-0.1,1.2-0.5c0.3,0.3,0.9,0.2,1.1-0.3c0.3,0.3,0.8,0.1,1.1-0.4   c0.3,0.2,0.7-0.2,0.8-0.4c0.4,0.2,0.9,0,0.9-0.9c0-0.2,0.1-0.5,0.2-0.7s0.2-0.6,0.2-0.9c0-0.3,0.2-1,0.5-1.5   c0.3-0.5,0.8-1.3,0.6-2.2c-0.2-0.8-0.5-0.7-0.8-1.8c-0.7-0.7-1.6-1.7-2.6-1.8C406.5,305.4,406,306.1,405.6,306.3L405.6,306.3z"/>
    <g><path class="st3" d="M404.5,317l-0.3-0.1c-0.6-0.5-0.7-0.9-0.4-1.4c0.4-0.6,0.7-1.2,0.7-1.7c0.1-1.1,0.8-3.3,1.5-4.8l0.2-0.8    c-0.1-0.2-0.2-0.5-0.3-0.8c-0.1-0.4-0.3-0.7-0.4-1.1c0.6-0.6,1.1-1,1.9-1c1.1,0.1,2.1,1.1,2.8,1.8c0.2,0.7,0.4,0.9,0.5,1.1    s0.3,0.4,0.4,0.7c0.2,0.9-0.3,1.7-0.6,2.2c-0.3,0.5-0.5,1.2-0.5,1.5c0,0.3,0,0.8-0.2,1c-0.1,0.2-0.2,0.5-0.2,0.6    c0,0.8-0.4,1.1-0.8,1.1c-0.3,0.1-0.6,0.4-1,0.4c-0.3,0.2-0.6,0.5-0.9,0.5c-0.4,0.1-0.7,0.3-1,0.3C405.5,316.8,404.9,317,404.5,317    L404.5,317z M407.5,305.6c-0.8,0-1.2,0.3-1.5,0.6c-0.1,0.4,0,0.8,0.2,1.1c0.1,0.3,0.2,0.6,0.3,0.9c0.1,0.4,0,0.6-0.1,0.8    c-0.8,1.6-1.4,3.7-1.5,4.9c-0.1,0.6-0.4,1.1-0.6,1.6c-0.3,0.6-0.3,0.9,0.2,1.3h0.2c0.3,0,0.8-0.2,0.8-0.5c0.8,0.1,1-0.1,1.1-0.3    c0.6,0.1,0.9-0.1,1.1-0.4c0.5,0,0.7-0.2,0.8-0.4c0.9,0,0.9-0.3,0.9-0.8c0-0.2,0.1-0.5,0.3-0.7c0.1-0.2,0.2-0.5,0.1-0.9    c0-0.4,0.2-1.1,0.5-1.6c0.3-0.5,0.8-1.3,0.6-2.1c-0.1-0.3-0.2-0.5-0.3-0.7c-0.2-0.2-0.3-0.5-0.5-1.1    C409.3,306.7,408.4,305.7,407.5,305.6L407.5,305.6L407.5,305.6z"/></g>
    <path class="st9"
          d="M387.8,311.7c0.9,0.9,2.8,0.9,4.2-0.6c-0.5-0.2-1.6-0.7-2.1-1.1C389.3,310.7,388.5,311.5,387.8,311.7   L387.8,311.7z"/>
    <g><path class="st3" d="M389.5,312.4c-0.7,0-1.3-0.2-1.7-0.6c0.7-0.4,1.5-1.2,2.1-1.9c0.6,0.4,1.7,0.8,2.2,1.1    C391.4,312,390.5,312.4,389.5,312.4L389.5,312.4z M389.9,310.1c-0.5,0.7-1.3,1.5-2,1.7c0.4,0.2,1,0.4,1.6,0.4l0,0    c0.9,0,1.8-0.4,2.5-1.1C391.4,311,390.4,310.5,389.9,310.1L389.9,310.1z"/></g>
    <path class="st10"
          d="M396.7,212.3c0.3-2.2,1.9-2.2,2.9-1.9c0.4,0.1,1.4,0.2,2.3-0.1c1.9-0.5,3.2,0.2,3.1,1.9c0.5,0.4,1,1.3,0.9,2   c-0.1,0.7,0.1,1.1,0.7,1.2c0.7,0.1,2.2,0.9,1.2,2.1c0.9,0.6,1.7,2,1.2,3s-2,1.1-2.6,0.2c-0.7,0.3-1.8,0.4-2.5-0.3   c-0.5,0.6-1.7,0.5-1.9,0c-0.2-0.5-0.6-0.8-1-0.9c-0.5-0.2-0.5-1.5,0.2-1.7c-0.1-0.4-0.1-0.9,0.1-1.1c0.2-0.2,0-0.6-0.4-1   c-0.4-0.3-0.8-1.7-0.4-2.4c-0.7,0.3-2.4-0.5-2.7-1C397.5,211.9,397,211.9,396.7,212.3L396.7,212.3z"/>
    <g><path class="st3" d="M407.6,221.4c-0.5,0-1-0.2-1.3-0.6c-0.4,0.4-1.6,0.6-2.5-0.3c-0.1,0.6-1.7,0.5-1.9,0c-0.2-0.4-0.5-0.7-1-0.8    c-0.3-0.1-0.5-0.6-0.5-0.9c0-0.5,0.3-0.9,0.7-1c-0.2-0.2-0.2-0.8,0-1.1c0-0.4-0.1-0.6-0.4-0.8c-0.4-0.3-0.7-1.3-0.6-2    c0.1,0.7,0.4,1.6,0.8,1.8c0.3,0.2,0.5,0.5,0.5,0.8c-0.3,0.5-0.3,1-0.2,1.3c-0.4,0.2-0.6,0.6-0.6,0.9s0.1,0.6,0.3,0.7    c0.5,0.2,0.9,0.5,1.1,1c0.2,0.4,1.3,0.4,1.7,0c1.1,0.8,1.9,0.6,2.5,0.3c0.9,0.8,2.1,0.6,2.6-0.2c0.5-0.9-0.2-2.3-1.1-2.8    c0.2-0.5,0.3-0.9,0.2-1.2c-0.2-0.5-0.9-0.9-1.3-0.9c-0.8-0.1-0.9-0.6-0.9-1.3c0.1-0.7-0.4-1.5-0.9-1.9c0-0.7-0.1-1.2-0.4-1.5    c-0.5-0.5-1.4-0.7-2.5-0.4c-0.9,0.2-2.2,0.1-2.4,0.1c-1.6-0.3-2.5,0.2-2.7,1.7l-0.3,0.1c0.3-1.7,1.3-2.5,3.1-2    c0.2,0,1.4,0.2,2.3-0.1c1.2-0.3,2.2-0.2,2.8,0.5c0.3,0.4,0.5,0.9,0.4,1.6c0.5,0.3,1,1.2,0.9,2c-0.1,0.7,0,0.9,0.6,1    c0.5,0.1,1.3,0.5,1.5,1.1c0.1,0.3,0.2,0.7-0.3,1.2c1,0.4,1.7,1.9,1.2,3C408.9,221.1,408.3,221.4,407.6,221.4L407.6,221.4z     M399.9,213.4c-1,0-1.9-0.5-2.2-0.9c-0.2-0.2-0.3-0.3-0.5-0.3h-0.1c0.4-0.2,0.6-0.1,0.8,0.2c0.3,0.4,1.5,1,2.3,1l0,0    C400.1,213.4,400,213.4,399.9,213.4L399.9,213.4z"/></g>
    <g><path class="st3" d="M397.2,222.1v-0.3c0.6-0.1,1-0.3,1.3-0.5c0.4-0.2,0.7-0.4,1.2-0.4c-0.4,0.2-0.8,0.4-1.1,0.6    C398.2,221.8,397.8,222,397.2,222.1L397.2,222.1z"/></g>
    <g><path class="st11" d="M394.6,218.5c0.1,0.1,0.2,0.1,0.3,0.2c0.2,0.1,0.5,0.1,0.8,0.2L394.6,218.5z"/></g>
    <g><path class="st11" d="M394.9,217.2c0.2,0.1,0.4,0.1,0.5,0.3L394.9,217.2z"/></g>
    <g><path class="st3" d="M401.9,212.6c-0.3,0-0.7-0.1-0.9-0.3c-0.8-0.8-1.7-1.2-2.5-0.9c-0.3,0.1-0.6,0.3-0.6,0.5l-0.1,0.5l-0.2-0.6    c0.1-0.3,0.4-0.6,0.8-0.7c0.9-0.2,1.9,0.1,2.8,1c0.3,0.3,1.2,0.3,1.5,0.2C402.5,212.5,402.2,212.6,401.9,212.6L401.9,212.6z"/></g>
    <g><path class="st3" d="M407.2,218h-0.1c-0.6-0.1-1.3-0.8-1.9-2.1c-0.3-0.6-0.7-0.7-1-0.8c-0.3-0.1-0.7-0.2-0.9-0.8    c-0.5-1.2-2.3-0.8-2.6-0.8l-0.1-0.2c1.1-0.3,2.5-0.2,2.9,0.9c0.2,0.5,0.4,0.6,0.7,0.7c0.4,0.1,0.8,0.3,1.1,0.9    c0.6,1.2,1.2,1.9,1.8,1.9c0.2,0,0.5,0,0.7-0.3C407.7,217.8,407.4,218,407.2,218L407.2,218z"/></g>
    <g><path class="st3" d="M403.8,220.5c-0.3-0.4-0.4-1.3-0.2-1.9c-0.4-0.4-0.2-1.4,0-1.8c0,0.5-0.1,1.4,0.2,1.8c-0.1,0.6,0,1.4,0.2,1.8    L403.8,220.5L403.8,220.5z"/></g>
    <g><path class="st11" d="M401.2,217.8c0,0.4,0.5,1.1,1.3,1.2L401.2,217.8z"/></g>
    <g><path class="st11" d="M406.4,220.7c-0.4-0.6-0.4-1.1-0.3-1.7L406.4,220.7z"/></g>
    <g><path class="st3" d="M404.1,217.1c-0.9,0-1.4-0.7-1.5-1c-0.6-0.2-0.9-1-0.9-1.6h0.3c0,0.5,0.3,1.2,0.8,1.4    c0.2,0.4,0.9,1.2,1.9,1.1C404.5,217.1,404.3,217.1,404.1,217.1L404.1,217.1z"/></g>
    <g><path class="st3" d="M404.9,212.3c-0.7-0.6-1.6-1.2-2.8-1.3c1.3-0.1,2.2,0.5,2.9,1.1L404.9,212.3L404.9,212.3z"/></g>
    <g><path class="st3" d="M395.5,245.3c1.8-2,1.1-5.8,0.6-8.7c-0.5-2.7,0-4.8,1.2-6.6l0.2,0.1c-1.2,1.7-1.7,3.8-1.2,6.2    C396.8,239.5,397.5,243.5,395.5,245.3L395.5,245.3z"/></g>
    <g><path class="st3" d="M398.5,252c-0.7,0-1.4-0.1-2-0.4c1.4,0.4,3.2,0.3,4.2-0.5c1.1-0.8,3.2-0.9,4.7-0.5v0.2    c-1.4-0.3-3.4-0.3-4.5,0.5C400.3,251.7,399.4,252,398.5,252L398.5,252z"/></g>
    <g><path class="st3" d="M400.7,263c-0.5-2.2-0.4-4.5-0.3-6.5c0.1-0.9,0.1-1.8,0.1-2.5c0-2.3,0.6-3.3,1.9-3.5v0.3    c-1,0.2-1.7,0.8-1.7,3.3c0,0.7-0.1,1.6-0.1,2.5C400.5,258.5,400.4,260.7,400.7,263L400.7,263z"/></g>
    <g><path class="st3" d="M398.8,254c-0.4-2.1,0.4-2.3,1.2-2.5l0.2,0.2H400C399.3,251.9,398.7,252.1,398.8,254L398.8,254z"/></g>
    <g><path class="st3" d="M396.1,254.1h-0.3c0-1.1,0.3-2,0.8-2.3c0.2-0.2,0.5-0.2,0.7-0.2l-0.6,0.3C396.4,252.2,396.1,253,396.1,254.1    L396.1,254.1z"/></g>
    <g><path class="st3" d="M410.4,286c-0.7-1.6-0.8-4.5-0.9-7.9c-0.1-4.7-0.3-10.5-1.6-14.8c-0.2-0.7-0.4-1.4-0.7-2    c-0.6-1.7-1.1-3.1-1.3-5.8c-0.3-3.3-0.8-4.4-1.4-4.7c0.5,0.6,0.7,1.7,0.6,3.5h-0.3c0-1.8-0.2-2.9-0.7-3.4    c-0.2-0.1-0.3-0.2-0.5-0.2c0,0-0.1,0-0.2,0c0.3-0.2,0.5-0.2,0.7,0c0.9,0.1,1.5,1,1.9,4.9c0.3,2.7,0.8,4.1,1.3,5.7    c0.2,0.6,0.4,1.2,0.7,2c1.3,4.4,1.5,10.2,1.6,14.9C409.8,281.5,409.9,284.4,410.4,286L410.4,286z"/></g>
    <g><path class="st3" d="M408.9,297.4c-0.5-1.7-1.6-4.3-2.9-7.6c-0.9-2.3-2-4.9-3-7.8c4-12.6,2.5-20.3,0.3-26.8l0.2-0.1    c2.2,6.5,3.7,14.2-0.3,26.8c1.1,2.8,2.1,5.5,3,7.7C407.5,293,408.6,295.6,408.9,297.4L408.9,297.4z"/></g>
    <g><path class="st3" d="M395.9,271.5l-0.2-0.1c0.1-0.5,0.1-0.9-0.1-1.4c-0.2-0.9-0.6-2.3,0.3-5.9c0.6-2.3,0.7-3.8,0.3-4.5    c0.6,0.7,0.5,2.1-0.1,4.5c-0.9,3.5-0.5,4.9-0.3,5.8C395.9,270.5,396,270.9,395.9,271.5L395.9,271.5z"/></g>
    <g><path class="st3" d="M397.1,273.2c0.4-1.9-0.1-4.2-0.5-6.3c-0.3-1.6-0.6-3-0.4-4.1l0.2,0.1c-0.2,1,0.1,2.5,0.4,4    C397.3,269,397.7,271.3,397.1,273.2L397.1,273.2z"/></g>
    <g><path class="st3" d="M401,309.9c0.8-0.8,0.8-2.4,0.8-3.7c0-0.4,0-0.7,0-1c0.3-6.7-2-11.6-5.7-19.2l-0.6-1.1    c-0.7-1.4-1.3-2.3-1.2-4.1c0.1-1.2-0.1-2.6-0.2-3.9c-0.1-1.1-0.2-2.1-0.2-3.1h0.3c0,0.9,0.1,2,0.2,3.1c0.1,1.4,0.3,2.8,0.2,3.9    c-0.1,1.7,0.4,2.6,1.1,3.9l0.6,1.1c3.8,7.6,6.1,12.6,5.8,19.3c0,0.3,0,0.6,0,1C402,307.6,402.1,309.3,401,309.9L401,309.9z"/></g>
    <g><path class="st3" d="M394.2,311.8C394.1,311.8,394.1,311.8,394.2,311.8l-0.1-0.3c0.2,0,0.7-0.1,1.1-1.2c0.4-1,2-7.8,1.3-12.4    c0.9,4.7-0.7,11.5-1.1,12.5C395.1,311.4,394.7,311.8,394.2,311.8L394.2,311.8z"/></g>
    <g><path class="st3" d="M396.8,309.9c0.7-2.5,0.7-5.5,0.5-6.7h0.3C397.7,304.4,397.8,307.4,396.8,309.9L396.8,309.9z"/></g>
    <g><path class="st3" d="M400,306.6c0.2-2.1,0.2-4.9-0.3-7.8h0.3C400.5,301.6,400.5,304.5,400,306.6L400,306.6z"/></g>
    <g><path class="st3" d="M398.3,311.3c0.6-0.4,0.4-2.5,0.2-3.8l-0.1-1h0.3l0.1,1C398.9,309.1,399.1,311.1,398.3,311.3L398.3,311.3z"/></g>
    <g><path class="st3" d="M409.4,306.4c-1.2-0.8-2.2-3.7-3.2-6.8c-0.9-2.8-1.9-5.7-3-7.5l0.2-0.1c1.1,1.7,2.1,4.7,3,7.5    C407.4,302.6,408.4,305.5,409.4,306.4L409.4,306.4z"/></g>
    <g><path class="st3" d="M405.1,305.1L405.1,305.1c-0.1-1-0.1-2.3-0.6-2.9c0.8,0.5,0.8,1.7,0.9,2.8L405.1,305.1L405.1,305.1z"/></g>
    <g><path class="st11" d="M380.3,261.3c0-0.7-0.1-1.3,0.7-2.4L380.3,261.3z"/></g>
    <g><path class="st3" d="M379.2,261.7l-0.1-0.4c0.1-2,0.1-2.3,0.8-2.9c-0.4,0.8-0.4,1-0.5,2.9L379.2,261.7L379.2,261.7z"/></g>
    <g><path class="st3" d="M378.3,261.8H378v-1c0-1,0-1.6,0.5-2.4c-0.3,0.9-0.3,1.5-0.3,2.4L378.3,261.8L378.3,261.8z"/></g>
    <g><path class="st11" d="M386.8,210.2c-0.3,0.2-1.8,1.4-2.5,1.9L386.8,210.2z"/></g>
    <g><path class="st3" d="M384.9,212.8l0.4-0.6c1.3-1.1,1.9-1.5,2.2-1.5v0.3c-0.2,0-1,0.6-2.1,1.5L384.9,212.8L384.9,212.8z"/></g>
    <g><path class="st3" d="M385.3,213.6c0.2-0.5,0.6-0.8,0.9-1c0.5-0.4,0.9-0.7,1.2-0.9l0.1,0.2c-0.3,0.1-0.7,0.5-1.1,0.8    C386.1,213,385.7,213.3,385.3,213.6L385.3,213.6z"/></g>
    <g><path class="st11" d="M383.7,211.6c-0.2,0.2-0.7,0.7-0.9,0.8L383.7,211.6z"/></g>
    <g><path class="st11" d="M405.5,316.4c-0.1-0.2-0.1-0.7,0.1-1.3L405.5,316.4z"/></g>
    <g><path class="st11" d="M406.6,316.1c-0.2-0.2,0-0.9,0.2-1.4L406.6,316.1z"/></g>
    <g><path class="st11" d="M407.7,315.7c-0.2-0.1-0.3-0.5,0-1.1V315.7z"/></g>
    <g><path class="st11" d="M408.5,315.3c-0.1,0-0.2-0.3,0-1V315.3z"/></g>
    <path class="st3"
          d="M396.2,214.3c0.4,0.6,0.9,0.5,1,0.9c0.1,0.4,0.1,0.4,0.2,0.5c0.1,0.1-0.2,0.1-0.4,0c-0.1-0.1-0.5-0.1-0.7-0.1   s-0.5-0.3-0.3-0.3s0.1-0.1,0.1-0.2c0-0.1,0.1-0.3,0.2-0.3s0,0,0-0.2C396.2,214.5,396.1,214.1,396.2,214.3L396.2,214.3z"/>
    <path class="st3"
          d="M396.5,213.7c0.5,0.1,1.4,0.3,1.9,0.9c0.4,0.4,0.1,0.3-0.1,0.3s-0.6-0.1-0.7-0.3c-0.2-0.2-0.7-0.5-1-0.6   S396.1,213.7,396.5,213.7L396.5,213.7z"/></g></svg>
