<?xml version="1.0" ?>
<svg id="Layer_1" style="enable-background:new 0 0 512 512;" version="1.1" viewBox="0 0 512 512" xml:space="preserve"
     xmlns="http://www.w3.org/2000/svg"><style type="text/css">
	.st0 {
    fill: #4452A3;
  }

  .st1 {
    fill: #FFFFFF;
  }

  .st2 {
    fill: #E91D26;
  }

  .st3 {
    fill: #36823E;
  }

  .st4 {
    fill: #F5D728;
  }
</style>
  <g><rect class="st0" height="99.6" width="512" y="106.7"/>
    <rect class="st1" height="99.6" width="512" y="206.2"/>
    <rect class="st2" height="99.6" width="512" y="305.8"/>
    <rect class="st3" height="298.7" width="99.6" y="106.7"/>
    <path class="st4"
          d="M49.8,217.3c21.4,0,38.7,17.3,38.7,38.7c0,21.4-17.3,38.7-38.7,38.7S11.1,277.4,11.1,256   C11.1,234.6,28.4,217.3,49.8,217.3L49.8,217.3z"/>
    <polygon class="st4"
             points="11.1,217.3 22.1,256 11.1,294.7 49.8,283.7 88.5,294.7 77.4,256 88.5,217.3 49.8,228.3  "/>
    <g><path class="st3" d="M49.8,290.6c-19.1,0-34.6-15.5-34.6-34.6s15.5-34.6,34.6-34.6s34.6,15.5,34.6,34.6S68.8,290.6,49.8,290.6    L49.8,290.6z M49.8,229.7c-14.5,0-26.3,11.8-26.3,26.3c0,14.5,11.8,26.3,26.3,26.3S76,270.5,76,256    C76,241.5,64.3,229.7,49.8,229.7L49.8,229.7z"/></g>
    <g><path class="st3" d="M49.8,276.7c-11.4,0-20.7-9.3-20.7-20.7c0-11.4,9.3-20.7,20.7-20.7c11.4,0,20.7,9.3,20.7,20.7    C70.5,267.4,61.2,276.7,49.8,276.7L49.8,276.7z M49.8,243.6c-6.9,0-12.4,5.6-12.4,12.4c0,6.9,5.6,12.5,12.4,12.5    c6.9,0,12.4-5.6,12.4-12.5C62.2,249.1,56.6,243.6,49.8,243.6L49.8,243.6z"/></g></g></svg>
