<?xml version="1.0" ?>
<svg id="Layer_1" style="enable-background:new 0 0 512 512;" version="1.1" viewBox="0 0 512 512" xml:space="preserve"
     xmlns="http://www.w3.org/2000/svg"><style type="text/css">
	.st0 {
    fill: #27397C;
  }

  .st1 {
    fill: #3D9546;
  }

  .st2 {
    fill: #FFFFFF;
  }

  .st3 {
    fill: #C01F3F;
  }

  .st4 {
    fill: #F6CD2A;
  }
</style>
  <g><polygon class="st0" points="0,106.7 0,405.4 512,106.7  "/>
    <polygon class="st1" points="512,106.7 0,405.4 512,405.4  "/>
    <polygon class="st2" points="432.8,106.7 406.4,106.7 0,343.7 0,359.1  "/>
    <polygon class="st2" points="512,152.9 79.2,405.3 105.6,405.3 512,168.3  "/>
    <polygon class="st3" points="0,405.3 0,405.3 0,405.3  "/>
    <polygon class="st3" points="432.8,106.7 0,359.1 0,405.3 0,405.3 79.2,405.3 512,152.9 512,106.7  "/>
    <polygon class="st4"
             points="151.2,213.7 129.2,209.9 132.9,231.9 115.8,217.6 108,238.6 100.3,217.6 83.2,231.9 86.9,209.9    64.9,213.7 79.2,196.5 58.3,188.8 79.2,181.1 64.9,163.9 86.9,167.7 83.2,145.7 100.3,159.9 108,139 115.8,159.9 132.9,145.7    129.2,167.7 151.2,163.9 136.9,181.1 157.8,188.8 136.9,196.5  "/>
    <path class="st0"
          d="M137.9,188.8c0,16.5-13.4,29.9-29.9,29.9c-16.5,0-29.9-13.4-29.9-29.9c0-16.5,13.4-29.9,29.9-29.9   C124.5,158.9,137.9,172.3,137.9,188.8"/>
    <path class="st4"
          d="M132.9,188.8c0,13.8-11.1,24.9-24.9,24.9c-13.7,0-24.9-11.1-24.9-24.9c0-13.7,11.1-24.9,24.9-24.9   C121.8,163.9,132.9,175,132.9,188.8"/></g></svg>
