<?xml version="1.0" ?>
<svg id="Layer_1" style="enable-background:new 0 0 512 512;" version="1.1" viewBox="0 0 512 512" xml:space="preserve"
     xmlns="http://www.w3.org/2000/svg"><style type="text/css">
	.st0 {
    fill: #FFFFFF;
  }

  .st1 {
    fill: #D03034;
  }

  .st2 {
    fill: #2D328E;
  }

  .st3 {
    fill: #010101;
  }

  .st4 {
    fill: #F1B124;
  }

  .st5 {
    fill: #33784D;
  }
</style>
  <g><rect class="st0" height="298.7" width="512" y="106.7"/>
    <g><polygon class="st1" points="89.7,106.7 239.1,206.2 512,206.2 512,106.7   "/>
      <polygon class="st2" points="239.1,305.8 89.7,405.4 512,405.4 512,305.8   "/>
      <polygon class="st3" points="59.6,206.2 0,166.5 0,206.2 0,305.8 0,345.5 59.6,305.8 134.3,256   "/>
      <polygon class="st4" points="0,166.5 134.3,256 0,345.5 0,369.4 170.2,256 0,142.6   "/>
      <polygon class="st5"
               points="0,106.7 0,142.6 170.2,256 0,369.4 0,405.4 53.8,405.4 233,285.9 512,285.9 512,226.1 233,226.1     53.8,106.7   "/></g></g></svg>
