<?xml version="1.0" ?>
<svg id="Layer_1" style="enable-background:new 0 0 512 512;" version="1.1" viewBox="0 0 512 512" xml:space="preserve"
     xmlns="http://www.w3.org/2000/svg"><style type="text/css">
	.st0 {
    fill: #559C44;
  }

  .st1 {
    fill: #FFFFFF;
  }

  .st2 {
    fill: #D1202B;
  }

  .st3 {
    fill: #CACACA;
  }

  .st4 {
    fill: #010101;
  }

  .st5 {
    fill: #612E12;
  }

  .st6 {
    fill: #3D9444;
  }

  .st7 {
    fill: #2E6B35;
  }

  .st8 {
    fill: none;
  }

  .st9 {
    fill: #F5D02C;
  }

  .st10 {
    fill: #4470B6;
  }
</style>
  <g id="XMLID_1_"><rect class="st0" height="100.3" id="XMLID_95_" width="512" y="106.7"/>
    <rect class="st1" height="98.1" id="XMLID_94_" width="512" y="206.9"/>
    <rect class="st2" height="100.3" id="XMLID_93_" width="512" y="305.1"/>
    <path class="st3"
          d="M202,227v47.9c0,3.8,2.5,7.7,7.4,7.7h9.9c2.5,0,4.9,3.8,4.9,3.8s2.4-3.8,4.9-3.8h9.9   c4.9,0,7.4-3.8,7.4-7.7V227H202z"
          id="XMLID_92_"/>
    <g><path class="st4" d="M224.1,286.9l-0.2-0.3c0,0-2.4-3.7-4.7-3.7h-9.9c-5.3,0-7.6-4.1-7.6-7.9V227l44.6-0.3l0.2,48.2    c0,3.8-2.4,7.9-7.6,7.9h-9.9c-2.4,0-4.7,3.7-4.7,3.7L224.1,286.9L224.1,286.9z M246.1,227l-44.1,0.3l0.2,47.7    c0,3.6,2.2,7.4,7.1,7.4h9.9c2.2,0,4.3,2.7,4.9,3.6c0.6-0.9,2.7-3.6,4.9-3.6h9.9c4.9,0,7.1-3.8,7.1-7.4V227L246.1,227z"/></g>
    <path class="st3"
          d="M191.7,278.8c-2.5,0-5-1.9-5-3.8v-9.6c2.2,1.7,12.4,7.7,9.9,9.6c-2.5,1.9-5,0-5,0   C191.7,274.9,191.7,278.8,191.7,278.8L191.7,278.8z"
          id="XMLID_89_"/>
    <g><path class="st4" d="M191.9,279h-0.2c-2.6,0-5.2-2-5.2-4.1v-9.6c0.8,0.1,1.6,0.6,2.5,1.3c4.2,2.8,8.2,5.7,8.3,7.5    c0,0.4-0.2,0.7-0.5,1c-1.7,1.3-4.2,0.7-5,0.2c0.2,0.5,0.2,1.6,0.2,3.5V279L191.9,279z M186.5,265.5l0.4,9.4c0,1.7,2.2,3.5,4.5,3.6    c0-0.8,0-3.3,0-3.5c0.5-0.1,1.6,0.6,2.8,0.6c0.8,0,1.6-0.3,2.2-0.8c0.2-0.2,0.3-0.3,0.3-0.6c-0.1-1.7-5.1-5.1-8.1-7.1    C187.7,266.4,187,265.9,186.5,265.5L186.5,265.5z"/></g>
    <path class="st3"
          d="M191.6,274.9c2.5-1.9,2.5,1.9,5,0l-2.5,11.5c-2.4-0.4-2.5,0-3.9-1.9   C190.2,282.6,190.2,276.5,191.6,274.9L191.6,274.9z"
          id="XMLID_86_"/>
    <path class="st3"
          d="M256.3,278.8c2.5,0,5-1.9,5-3.8v-9.6c-2.2,1.7-12.4,7.7-9.9,9.6c2.5,1.9,5,0,5,0   C256.3,274.9,256.3,278.8,256.3,278.8L256.3,278.8z"
          id="XMLID_85_"/>
    <g><path class="st4" d="M256.3,279l-0.2-0.3c0-1.8,0-3,0-3.6c-0.5,0.7-3.1,1.3-4.8-0.1c-0.3-0.3-0.5-0.6-0.5-1    c0.1-1.8,4.1-4.7,8.3-7.5c0.9-0.6,1.7-1.1,2.1-1.5l0.4,9.8C261.6,277,259,279,256.3,279L256.3,279z M256.2,274.8    c0.3,0.4,0.4,2.9,0.4,3.8c2.3-0.1,4.5-1.9,4.5-3.6v-9.6c0,0.5-0.8,1.1-1.7,1.7c-3,2-8,5.4-8.1,7.1c0,0.2,0.1,0.4,0.3,0.6    C253.3,276.1,256,275,256.2,274.8L256.2,274.8z"/></g>
    <path class="st3"
          d="M256,274.9c-2.5-1.9-2.5,1.9-5,0l2.5,11.5c2.4-0.4,2.5,0,3.9-1.9   C257.4,282.6,257.4,276.5,256,274.9L256,274.9z"
          id="XMLID_82_"/>
    <path class="st3"
          d="M233.7,292.2c0-1.9-5-5.7-5-7.7c0-1.9,5,1.9,14.9,1.9c9.9,0,14.9-9.6,12.4-11.5   c2.5,3.8,2.5,7.7,2.5,9.6c0,3.8-5,7.7-14.9,7.7H233.7z"
          id="XMLID_81_"/>
    <g><path class="st4" d="M243.6,292.4h-9.9c-0.3-1.1-1.5-2.5-2.7-3.9c-1.3-1.5-2.5-3-2.5-4c0-0.5,0.6-1,3.3-0.2    c2.4,0.7,6.4,1.9,11.8,1.9c6,0,9.5-3.5,10.7-5.1c1.4-1.8,2.2-3.9,2-5.1c-0.2-0.3-0.3-0.6-0.5-0.9c0.7-0.1,0.9,0.3,1,0.8l-0.4,0.2    c2.4,3.4,2.4,6.7,2.4,8.5C258.7,288.3,254,292.4,243.6,292.4L243.6,292.4z M229.4,284.2c-0.3,1.2,0.9,2.6,2.1,4    c1.3,1.5,2.5,2.9,2.5,4l9.7-0.3c10,0,14.6-3.8,14.6-7.4c0-1.7,0-4.9-1.8-8.3c0.6,1.3-0.2,3.3-1.7,5.2c-1.3,1.6-4.9,5.3-11.1,5.3    c-5.5,0-9.5-1.2-12-1.9C230.6,284.5,229.8,284.2,229.4,284.2L229.4,284.2z"/></g>
    <path class="st3"
          d="M213.9,292.2c0-1.9,5-5.7,5-7.7c0-1.9-5,1.9-14.9,1.9c-9.9,0-14.9-9.6-12.4-11.5   c-2.5,3.8-2.5,7.7-2.5,9.6c0,3.8,5,7.7,14.9,7.7H213.9z"
          id="XMLID_78_"/>
    <g><path class="st4" d="M214.2,292.4H204c-10.4,0-15.1-4.1-15.1-7.9c0-1.8,0-5.2,1.9-8.7c0.1-0.5,0.3-0.8,0.6-1.1    c0.2,0.6,0,1-0.2,1.3l-0.4-0.2c0.2,1.4,1,3.5,2.4,5.3c1.2,1.5,4.7,5.1,10.7,5.1c5.4,0,9.4-1.2,11.8-1.9c2.7-0.8,3.3-0.3,3.3,0.2    c0,1.1-1.2,2.5-2.5,4c-1.2,1.4-2.4,2.8-2.4,3.7V292.4L214.2,292.4z M190.8,275.8c-1.4,3.6-1.4,6.9-1.4,8.7c0,3.6,4.6,7.4,14.6,7.4    h9.7c0.2-1,1.3-2.3,2.5-3.7c1.2-1.4,2.4-2.8,2.4-3.7c-0.8-0.3-1.6-0.1-2.6,0.3c-2.4,0.7-6.4,1.9-12,1.9c-6.2,0-9.9-3.7-11.1-5.3    C191.3,279.5,190.5,277.3,190.8,275.8L190.8,275.8z"/></g>
    <path class="st3" d="M213.9,290.3c0-1.9,5-3.8,5-5.8v9.6h-5V290.3z" id="XMLID_75_"/>
    <path class="st3" d="M233.7,290.3c0-1.9-4.9-3.8-4.9-5.8v9.6h4.9V290.3z" id="XMLID_74_"/>
    <path class="st3" d="M213.9,290.3c0,1.9,19.8,1.9,19.8,0v7.7c0,1.9-19.8,1.9-19.8,0V290.3z" id="XMLID_73_"/>
    <g><path class="st4" d="M223.8,299.6c-2.4,0-10.2-0.1-10.2-1.7v-7.7c0.5,0.5,3.9,1.2,10.2,1.2c6.2,0,9.7-0.7,9.7-1.2    c0,0.1,0,0.2,0,0.2l0.5,7.4C234,299.5,226.2,299.6,223.8,299.6L223.8,299.6z M213.7,290.3l0.5,7.6c0,0.5,3.4,1.2,9.7,1.2    c6.2,0,9.7-0.7,9.7-1.2v-7.4c-0.5,1.3-7.4,1.4-9.7,1.4C221.5,292,213.9,291.8,213.7,290.3L213.7,290.3z"/></g>
    <g><path class="st4" d="M223.8,292c-2.6,0-5-0.1-6.8-0.4c-2.9-0.4-3.3-0.9-3.3-1.3c0-1.1,1.3-2,2.6-3.1    c1.2-0.9,2.4-1.8,2.4-2.7c-0.3-0.4-1.4-0.1-2.7,0.3c-2.4,0.7-6.4,1.9-12,1.9c-7.3,0-11.8-5.2-12.9-8.4c-0.6-1.6-0.4-2.9,0.4-3.5    c1.4-1.1,2.2-0.5,2.8,0c0.6,0.5,1.1,0.8,2.2,0l0.3,0.4c-1.4,1.1-2.2,0.5-2.8,0c-0.6-0.5-1.1-0.8-2.2,0c-0.6,0.5-0.7,1.6-0.2,3    c1.1,3.1,5.4,8.1,12.5,8.1c5.4,0,9.4-1.2,11.8-1.9c1.7-0.5,2.6-0.8,3-0.4l0.1,0.1l0.2,0.6c0,1.1-1.2,2-2.6,3.1    c-1.2,0.9-2.4,1.8-2.4,2.7c0,0.5,3.4,1.2,9.7,1.2c6.2,0,9.7-0.7,9.7-1.2c0-0.8-1.2-1.8-2.4-2.7c-1.3-1-2.6-2-2.6-3.1l0.3-0.6    c0.5-0.3,1.4-0.1,3,0.4c2.4,0.7,6.4,1.9,11.8,1.9c7.1,0,11.4-5,12.5-8.1c0.5-1.4,0.4-2.5-0.2-3c-1.1-0.8-1.6-0.5-2.2,0    c-0.6,0.5-1.4,1.1-2.8,0c1.4,0.4,1.9,0.1,2.5-0.4c0.6-0.5,1.4-1.1,2.8,0c0.8,0.6,1,1.9,0.4,3.5c-1.1,3.3-5.6,8.4-12.9,8.4    c-5.5,0-9.5-1.2-12-1.9c-1.2-0.4-2.3-0.7-2.6-0.5c-0.1,1.1,1.1,2,2.3,2.9c1.3,1,2.6,2,2.6,3.1C234,291.8,226.2,292,223.8,292    L223.8,292z" id="XMLID_70_"/></g>
    <polygon class="st4" id="XMLID_69_" points="254.3,289 251.8,284.7 252.2,284.5 254.8,288.8  "/>
    <path class="st4"
          d="M252.7,288l0.5,0c0.1,0.5,0.1,0.9,0,1.3c-0.1,0.3-0.4,0.6-0.7,0.7c-0.4,0.1-0.7,0.1-1.1,0   c-0.3-0.1-0.6-0.3-0.9-0.7c-0.3-0.3-0.6-0.7-0.8-1.1c-0.2-0.5-0.4-0.9-0.4-1.3c0-0.4,0-0.7,0.2-1c0.2-0.3,0.4-0.4,0.7-0.5   c0.3-0.1,0.7-0.1,1,0c0.3,0.2,0.7,0.4,1,0.8l-0.4,0.3c-0.2-0.3-0.5-0.5-0.7-0.6c-0.2-0.1-0.5-0.1-0.7,0c-0.3,0.1-0.5,0.2-0.5,0.5   c-0.1,0.2-0.1,0.5-0.1,0.8c0.1,0.3,0.2,0.6,0.3,0.9c0.2,0.4,0.4,0.7,0.6,0.9c0.2,0.3,0.5,0.4,0.7,0.5c0.2,0.1,0.5,0.1,0.7,0   c0.3-0.1,0.4-0.3,0.5-0.5C252.9,288.7,252.8,288.4,252.7,288L252.7,288z"
          id="XMLID_68_"/>
    <polygon class="st4" id="XMLID_67_" points="249.6,291 248,286.4 248.4,286.3 250.1,290.8  "/>
    <polygon class="st4" id="XMLID_66_"
             points="246.5,291.5 246,287.3 244.8,287.4 244.8,286.8 247.7,286.6 247.8,287.2 246.5,287.3    247,291.4  "/>
    <path class="st4"
          d="M241.7,290.2l0.5,0c0,0.2,0.1,0.4,0.2,0.6c0.1,0.2,0.2,0.3,0.4,0.4c0.2,0.1,0.4,0.1,0.6,0.1   c0.2,0,0.4,0,0.5-0.1c0.1-0.1,0.3-0.2,0.3-0.3c0.1-0.1,0.1-0.3,0.1-0.4c0-0.1,0-0.3-0.1-0.4c-0.1-0.1-0.2-0.2-0.3-0.3   c-0.1,0-0.3-0.1-0.7-0.2c-0.3-0.1-0.6-0.2-0.7-0.3c-0.2-0.1-0.3-0.3-0.4-0.4c-0.1-0.2-0.1-0.4-0.1-0.6c0-0.2,0.1-0.5,0.2-0.7   c0.1-0.2,0.3-0.4,0.5-0.5c0.2-0.1,0.4-0.2,0.7-0.2c0.3,0,0.5,0.1,0.7,0.2c0.2,0.1,0.4,0.3,0.5,0.5c0.1,0.2,0.2,0.5,0.2,0.7l-0.5,0   c0-0.3-0.1-0.5-0.3-0.7c-0.1-0.2-0.4-0.2-0.6-0.2c-0.3,0-0.5,0.1-0.7,0.2c-0.1,0.1-0.2,0.3-0.2,0.5c0,0.2,0.1,0.3,0.2,0.4   c0.1,0.1,0.3,0.2,0.7,0.3c0.4,0.1,0.7,0.2,0.8,0.3c0.2,0.1,0.4,0.3,0.5,0.5c0.1,0.2,0.2,0.4,0.2,0.7c0,0.3-0.1,0.5-0.2,0.7   c-0.1,0.2-0.3,0.4-0.5,0.5c-0.2,0.1-0.5,0.2-0.7,0.2c-0.3,0-0.6-0.1-0.9-0.2c-0.2-0.1-0.4-0.3-0.5-0.6   C241.8,290.8,241.7,290.5,241.7,290.2L241.7,290.2z"
          id="XMLID_65_"/>
    <path class="st4"
          d="M240.4,286.9l0.5,0l-0.2,2.7c0,0.5-0.1,0.8-0.2,1.1c-0.1,0.3-0.3,0.5-0.5,0.7   c-0.2,0.2-0.5,0.2-0.9,0.2c-0.3,0-0.6-0.1-0.8-0.3c-0.2-0.2-0.4-0.4-0.4-0.7c-0.1-0.3-0.1-0.7-0.1-1.2l0.2-2.7l0.5,0l-0.2,2.7   c0,0.4,0,0.7,0,0.9c0,0.2,0.1,0.3,0.3,0.5c0.1,0.1,0.3,0.2,0.5,0.2c0.4,0,0.6-0.1,0.8-0.3c0.2-0.2,0.3-0.6,0.3-1.2L240.4,286.9z"
          id="XMLID_64_"/>
    <path class="st4"
          d="M234.3,290.1l0.5-0.1c0,0.4,0.1,0.6,0.2,0.7c0.1,0.1,0.2,0.2,0.4,0.2c0.1,0,0.2,0,0.3-0.1   c0.1-0.1,0.2-0.2,0.2-0.3c0-0.1,0-0.3,0-0.6v-3.3h0.5v3.2c0,0.4,0,0.7-0.1,0.9c-0.1,0.2-0.2,0.4-0.4,0.5c-0.2,0.1-0.4,0.2-0.6,0.2   c-0.3,0-0.6-0.1-0.8-0.4C234.3,290.9,234.3,290.6,234.3,290.1L234.3,290.1z"
          id="XMLID_63_"/>
    <path class="st4"
          d="M225.8,298v-0.7l1.9-3.4c0.1-0.2,0.3-0.5,0.4-0.6h-2.1v-0.6h2.7v0.6l-2.1,3.7l-0.2,0.4h2.4v0.6   H225.8z"
          id="XMLID_62_"/>
    <polygon class="st4" id="XMLID_61_" points="198.6,291.5 199.7,286.2 200.2,286.3 199,291.5  "/>
    <polygon class="st4" id="XMLID_60_"
             points="193.3,289.4 196.3,284.7 196.8,284.9 196.1,289.3 198.5,285.6 198.9,285.8    195.9,290.5 195.4,290.3 196.1,285.9 193.7,289.6  "/>
    <path class="st4"
          d="M195.9,284.1l0.4,0.3l-2.7,2.2c-0.5,0.4-0.9,0.7-1.2,0.8c-0.3,0.2-0.7,0.3-1,0.3   c-0.3,0-0.6-0.1-0.9-0.3c-0.2-0.2-0.4-0.4-0.4-0.7c0-0.3,0.1-0.5,0.3-0.8c0.2-0.3,0.6-0.6,1.1-1l2.7-2.2l0.3,0.3l-2.7,2.2   c-0.4,0.3-0.7,0.6-0.8,0.8c-0.1,0.2-0.2,0.4-0.2,0.5c0,0.2,0.1,0.3,0.2,0.4c0.3,0.2,0.5,0.3,0.9,0.2c0.3-0.1,0.8-0.4,1.3-0.8   L195.9,284.1z"
          id="XMLID_59_"/>
    <path class="st4"
          d="M201.2,291.9l0.2-5.3l1.3,0c0.3,0,0.5,0,0.7,0.1c0.2,0.1,0.4,0.2,0.5,0.4c0.2,0.2,0.3,0.6,0.4,0.9   c0.1,0.4,0.1,0.8,0.1,1.3c0,0.4-0.1,0.8-0.1,1.1c-0.1,0.3-0.2,0.6-0.3,0.8c-0.1,0.2-0.2,0.4-0.4,0.5c-0.1,0.1-0.3,0.2-0.5,0.3   c-0.2,0.1-0.4,0.1-0.6,0.1L201.2,291.9z M201.7,291.2l0.8,0c0.2,0,0.4,0,0.6-0.1c0.1-0.1,0.3-0.2,0.3-0.3c0.1-0.2,0.2-0.4,0.3-0.7   c0.1-0.3,0.1-0.6,0.1-1c0-0.6,0-1-0.2-1.3c-0.1-0.3-0.3-0.5-0.4-0.6c-0.1-0.1-0.3-0.1-0.6-0.1l-0.8,0L201.7,291.2z"/>
    <path class="st4"
          d="M204.6,291.9l1.4-5.3h0.5l1.5,5.3h-0.6l-0.4-1.6h-1.6l-0.4,1.6H204.6z M205.7,289.7h1.3l-0.4-1.5   c-0.1-0.5-0.2-0.8-0.3-1.1c0,0.3-0.1,0.7-0.2,1L205.7,289.7z"/>
    <path class="st4"
          d="M208.5,291.9v-5.3h1.3c0.3,0,0.5,0,0.7,0.1c0.2,0.1,0.4,0.2,0.5,0.4c0.2,0.2,0.3,0.5,0.4,0.9   c0.1,0.4,0.2,0.8,0.2,1.3c0,0.4,0,0.8-0.1,1.1c-0.1,0.3-0.2,0.6-0.3,0.8c-0.1,0.2-0.2,0.4-0.3,0.5c-0.1,0.1-0.3,0.2-0.4,0.3   c-0.2,0.1-0.4,0.1-0.6,0.1H208.5z M209,291.3h0.8c0.2,0,0.4,0,0.6-0.1c0.1-0.1,0.3-0.2,0.3-0.3c0.1-0.2,0.2-0.4,0.3-0.7   c0.1-0.3,0.1-0.6,0.1-1c0-0.6-0.1-1-0.2-1.3c-0.1-0.3-0.3-0.5-0.5-0.6c-0.1-0.1-0.3-0.1-0.6-0.1H209V291.3z"/>
    <path class="st4"
          d="M219.2,298v-5.3h1.4c0.2,0,0.4,0,0.6,0c0.2,0,0.3,0.1,0.5,0.3c0.1,0.1,0.2,0.3,0.3,0.5   c0.1,0.2,0.1,0.5,0.1,0.7c0,0.5-0.1,0.8-0.3,1.2c-0.2,0.3-0.6,0.5-1.1,0.5h-1v2.2H219.2z M219.6,295.2h1c0.3,0,0.5-0.1,0.7-0.3   c0.1-0.2,0.2-0.4,0.2-0.7c0-0.2,0-0.4-0.1-0.6c-0.1-0.2-0.2-0.3-0.3-0.3c-0.1,0-0.2,0-0.5,0h-1V295.2z"/>
    <path class="st4"
          d="M222.2,298l1.4-5.3h0.5l1.5,5.3h-0.6l-0.4-1.6h-1.6l-0.4,1.6H222.2z M223.3,295.8h1.3l-0.4-1.5   c-0.1-0.5-0.2-0.8-0.3-1.1c0,0.3-0.1,0.7-0.2,1L223.3,295.8z"/>
    <path class="st4"
          d="M255.4,288.5l-2.5-4.6l0.4-0.2l4.7,3.2l-0.4,0.3l-1.4-1l-1.2,0.7l0.8,1.4L255.4,288.5z M254.8,286.4l0.9-0.6   l-1.3-0.9c-0.4-0.3-0.7-0.5-0.9-0.7c0.2,0.3,0.4,0.6,0.5,0.8L254.8,286.4z"/>
    <path class="st5"
          d="M223.4,252.6c0,2.9,1.7,11.4-3.2,24.7c-0.4,1,0.6,1.4,1.4,1.6c0.8,0.2,1.2-0.8,1.2-1   s0.2,1.6,1,1.4c0.8-0.2,1.6-1.4,1.6-1.4s0.4,1.8,1.4,1.8c1,0,1-2.2,1-2.2c0,0.2,0.7,1.9,1.5,1.9c0.8,0,2.1-0.8,1.3-2   c-5.1-8.7-4.9-23.2-4.9-24.8c0-1.6,2.4-4.6,4.8-4.7l-0.9-1.4c-0.6,0.2-1.3,0.3-2.5,1.3c-1.2,1-1.9,2.1-1.9,2.1V243h-2l0.2,6.3   c0,0-0.7-0.8-1.7-1.7c-1-0.9-2.7-0.8-3.8-0.6l-0.1,1.4c1.3,0.3,2.9-0.3,3.7,1C222.5,250.4,223.4,251.2,223.4,252.6L223.4,252.6z"
          id="XMLID_46_"/>
    <g><path class="st4" d="M226.9,280c-0.9,0-1.4-1.1-1.6-1.7c-0.1,0.4-0.7,1.1-1.4,1.3c-0.8,0.1-1-0.5-1.2-1c-0.1,0.3-0.5,0.7-0.9,0.7    l0,0c-0.8-0.2-1.5-0.5-1.8-1c-0.2-0.3-0.2-0.6,0-1c4.2-11.2,3.6-19,3.3-22.8c-0.1-0.7-0.1-1.3-0.1-1.8c0-1.2-0.7-2-1.7-2.9    c-0.7-0.9-1.5-0.9-2.5-1c-0.5,0-0.9,0-1.3-0.1l-0.1-1.6c2-1,3.4-0.3,4.2,0.4c1,0.9,1.8,1.8,1.8,1.8L223,243l2.3-0.3l0.2,6.6    c0.2-0.5,0.8-1.1,1.5-1.7c1.1-1,1.9-1.2,2.4-1.3l1.4,1.5c-2.4,0.5-4.7,3.3-4.7,4.8c0,10.5,1.7,19.4,4.8,24.7    c0.4,0.7,0.3,1.2,0.1,1.5c-0.3,0.6-1.1,0.9-1.6,0.9c-0.6,0-1.2-0.7-1.5-1.3C228,279,227.7,280,226.9,280L226.9,280z M225.3,277.7    c0.6,0.5,1,1.7,1.6,1.7c0.6,0,0.8-1.3,0.8-2c0.5,0.2,1.2,1.7,1.8,1.7c0.4,0,1-0.2,1.2-0.6c0.2-0.3,0.1-0.6-0.1-1    c-4.3-7.4-4.9-18.6-4.9-24.7c0-2,2.5-5.1,5-5.2l-1.1-1.1c-0.5,0.3-1.1,0.5-2.2,1.4c-1.2,1-1.9,2.1-1.9,2.1l0-0.2    c-0.1-0.1-0.1-0.2,0-0.4L225,243l-1.8,0.3l0.4,6.1c-0.4,0.2-1.1-0.6-2.1-1.5c-1-0.9-2.7-0.7-3.6-0.6l0.1,1.2    c0.2-0.2,0.6-0.2,1-0.2c1,0,2,0,2.7,1c1.1,1.1,2,2,2,3.4c0,0.4,0,1,0.1,1.7c0.3,3.8,0.9,11.8-3.4,23c0.2,0.9,0.6,1.1,1.2,1.3    c0.7,0,0.9-0.7,0.9-0.8c0.7,1.1,1,1.2,1.1,1.2C224.4,278.9,225,278.1,225.3,277.7L225.3,277.7z"/></g>
    <path class="st6"
          d="M208.9,244.7L208.9,244.7c0,0.1,0,0,0.1-0.3c0.1-0.3,0.3-0.5,0.5-0.7c0.4-0.1,0.9,0,1.3-0.1   c0.3-0.3,0.7,0.4,0.7-0.1c0.5,0,0.5-0.4,0.7-0.6c0.5,0,0.6-0.5,1-0.2c0.3,0.1,0-0.1,0.6-0.1c0.3,0.1,0.5,0.2,0.8,0.1   c0.1-0.3,0.2-0.6,0.2-0.9c-0.1-0.2-0.1-0.6-0.1-1c0.3-0.3,0.7,0.2,1.2,0.2c0.1-0.3,0.5-0.3,0.3-0.6c0-0.4-0.1-0.6,0-1   c0.2-0.3,0.4-0.3,0.8-0.5c0.1-0.3,0-0.5,0.1-0.9c0.5,0,0.5-0.1,0.5-0.4c0.2-0.2,0.3-0.5,0.6-0.7c0.2-0.2,0.5-0.2,0.7-0.5   c0.2-0.3,0.2-0.4,0.6-0.5c0.3-0.1,0.6-0.1,0.8-0.3c0.2-0.3,0.4-0.5,0.7-0.8c0.3-0.2,1.8,0.2,2.3,0.2c0.3-0.2,0.6-0.6,0.9-0.7   c0.4-0.2,0.6-0.2,1.2-0.2c0.5,0.1,0.7,0.2,1.3,0.1c0.2-0.2,0.5-0.3,1-0.2c0.4,0.2,0.6,0.2,0.8,0.5c0.2,0.4,0.2,0.6,0.8,0.6   c0.6,0,0.7,0.1,1.1,0.4c0.6,0.2,0.6,0.1,0.6,0.5c0.4,0,0.5,0,0.5,0.3c0.3,0.1,0.6,0.2,0.8,0.4c0.2,0.2,0.3,0.3,0.9,0.4   c0.4-0.1,0.6-0.1,0.6-0.5c0.3-0.1,0.4-0.3,0.5-0.6c0.3-0.3,0.4-0.3,1-0.3c0.5,0.2,0.5,0.3,0.4,0.7c0.3,0,0.4,0,0.5,0.3   c0.2,0.2,0.1,0.5-0.1,0.6c0.3,0.1,0.4,0.4,0.5,0.7c-0.2,0.2-0.1,0.5,0,0.7c0.3,0.1,0.5,0.2,1,0.4c0.2,0.2,0.7,0.3,1.2,0.4   c0.5-0.1,0.7,0,1.2,0.2c0.2,0.3,0.3,0.6,0.5,0.7c0.3,0.2,0.7,0.2,0.9,0.4c0.3,0.2,0.4,0.4,0.9,0.4c0.2,0.2,0.6,0.5,0.7,0.7   c0.1,0.2,0.2,0.7,0.3,1v1c0,0.4-0.1,0.6-0.1,1c-0.1,0.2-0.2,0.3-0.2,0.6c-0.2,0.3-0.3,0.6-0.6,0.8c-0.1,0.4-0.3,0.6-0.5,0.9   c0,0.4,0.1,0.6,0.1,1c-0.2,0.2-0.5,0.4-0.9,0.6c-0.3,0.3-0.5,0.4-0.6,0.8c-0.2,0.2-0.2,0.2-0.6,0.2c-0.5,0-0.9,0-1.4,0.1   c-0.4,0-0.6,0-0.8-0.2c-0.5-0.2-0.9-0.2-1.4-0.1c-0.3-0.1-0.4-0.2-0.9-0.2c-0.4,0-0.7,0.1-1.2,0.1c-0.3-0.3-0.5-0.3-1-0.3   c-0.3,0.1-0.9,0.1-1.3,0.1c-0.5-0.1-0.5-0.2-0.7-0.5c-0.3-0.1-0.4-0.3-0.9-0.3c-0.4,0-1,0-1.3-0.1c-0.3,0-0.7-0.1-0.9-0.2   c-0.2-0.2-0.4-0.4-0.7-0.5c-0.4,0-0.7,0-0.9-0.2c-0.3-0.2-0.6-0.5-1-0.7c-0.4-0.2-0.6-0.3-0.8-0.7c0-0.3,0.1-0.4-0.4-0.4   c-0.3,0.3-0.5,0.3-1.1,0.3c-0.4,0-0.8,0-1.1-0.1c-0.4-0.2-0.6-0.3-1.1-0.3c-0.3,0.1-0.7,0.3-1.2,0.4c-0.4,0.2-0.6,0.2-0.8,0.5   c-0.4,0.2-0.6,0.4-1.1,0.5c-0.3,0.2-0.5,0.2-0.7,0.6c-0.1,0.3-0.2,0.5-0.2,0.9c0.1,0.4,0,0.6-0.2,0.9c-0.2,0.2-0.6,0.3-0.9,0.5   c-0.5,0-0.5,0-0.9-0.2c-0.3-0.1-0.7-0.2-1.2-0.2c-0.5-0.1-0.7-0.2-1-0.4l1,0.4c-0.5-0.1-0.7-0.2-1-0.4c-0.6-0.3-0.7-0.5-1.4-0.5   c-0.6,0-0.9,0-1,0.4c0.4,0.1,0.1,0.2-0.1,0.3c-0.2,0.2-0.6,0.3-1,0.4c-0.2,0.1-0.1-0.1-0.4-0.2c-0.4-0.2-0.6-0.3-1-0.4   c-0.2-0.3-0.4-0.5-0.7-0.7c-0.2-0.3-0.4-0.3-0.7-0.6c-0.1-0.2-0.5-0.2-0.7-0.3c-0.1-0.3-0.4-0.8-0.3-1c0.2-0.1,0.3-0.6,0.6-0.7   c0.4-0.2,0.6,0,1.1,0c0.5,0-0.7-0.6-0.2-0.6c0.5-0.1,0.5-0.2,0.7-0.4H208.9z"
          id="XMLID_43_"/>
    <g><path class="st4" d="M215.5,250.1l-0.7-0.2c-0.3-0.1-0.7-0.2-1.1-0.2l-0.6-0.2c-0.2,0-0.3-0.1-0.5-0.2c-0.6-0.4-0.8-0.4-1.3-0.5    c-0.6,0-0.7,0-0.7,0.3c-0.4,0.6-0.8,0.8-1.3,0.9l-0.9-0.3c-0.2-0.1-0.3-0.2-0.6-0.2c-0.3-0.3-0.5-0.4-0.6-0.6l-1.7-1.3    c-0.2-0.3-0.4-0.8-0.3-1.1c0.4-0.6,0.5-0.8,0.7-0.9l0.8-0.1l0.6-0.8l1.5-0.2c0-0.5,0.3-0.8,0.4-0.9l0.1-0.1l2.4-0.4l0.7-0.5    l1.5-0.1c0.3-0.1,0.4-0.4,0.4-0.7c-0.1-0.1-0.1-0.4-0.1-0.8l0-0.2l0.5-0.3l0.9,0.2c0.1-0.8,0-1,0.2-1.4c0.2-0.4,0.4-0.5,0.6-0.5    l0,0l0.2-0.8l0.5-0.4c0.2-0.4,0.4-0.7,0.7-0.8l0.8-0.3l-0.2-0.1c0.2-0.4,0.3-0.5,0.8-0.6l0.8-0.1l-0.2-0.2    c0.2-0.3,0.4-0.5,0.7-0.8c0.8-0.1,1.3-0.1,1.7,0c0.3,0,0.6,0.1,0.8,0.1c0.2-0.3,0.5-0.6,0.8-0.7c0.5-0.2,0.7-0.3,1.3-0.3l0.9,0.2    c0.4-0.1,0.6-0.3,1-0.3l0.8,0.2c0.2,0.1,0.5,0.2,0.6,0.5l0.6,0.7l0-0.3c0.6,0,0.7,0.1,1,0.3c0.8,0.3,0.9,0.4,0.9,0.8    c0.5,0.2,0.8,0.3,1.2,0.5c0.3,0.3,0.4,0.3,0.8,0.3l0-0.2l0.9-0.9c0.3-0.3,0.6-0.4,1.2-0.4c0.7,0.2,0.8,0.5,0.6,1l0.6,0.6    c0,0.2,0.2,0.4,0.3,0.8l0,0.7c0.4,0.1,0.5,0.2,0.8,0.2c0.3,0.2,0.7,0.3,1.2,0.4c0.7,0,0.9,0,1.3,0.2l0.1,0l0.3,0.9l0.5-0.1    c0.2,0.1,0.5,0.2,0.6,0.3l0.1,0l0.8,0.4c0.4,0.4,0.6,0.6,0.7,0.8l0.3,1.1l-0.3,2.8c-0.2,0.3-0.4,0.6-0.6,0.9    c0,0.2-0.2,0.4-0.3,0.6l0,0l0,1.1c-0.3,0.4-0.6,0.6-1,0.8c-0.3,0.3-0.4,0.4-0.4,0.6l0,0.2l-0.7,0.2c0,0,0,0,0,0    c-0.6,0-1.1,0-1.5,0.1c-0.5,0-0.7,0-1-0.2c-0.2,0-0.4-0.1-0.6-0.1l-0.7,0c-0.3-0.1-0.4-0.2-0.8-0.2c-0.4,0-0.7,0.1-1.2,0.1    c-0.4-0.3-0.5-0.3-1-0.3c-0.1,0.1-0.5,0.1-0.8,0.1c-1.1-0.1-1.2-0.3-1.4-0.6l-0.7-0.5v0.3c-0.8,0-1.2,0-1.4-0.1    c-0.4,0-0.7-0.1-0.9-0.2c-0.2-0.2-0.4-0.4-0.7-0.5c-0.5,0-0.7,0-0.9-0.2c-0.5-0.4-0.7-0.5-0.9-0.6c-0.4-0.2-0.7-0.4-0.9-0.9    c-0.4,0-0.6,0-1.3,0c-0.4,0-0.9,0-1.2-0.1c-0.5-0.2-0.6-0.3-1-0.3c-0.2,0.1-0.7,0.3-1.2,0.4l0,0.1l-0.7,0.4    c-0.4,0.2-0.6,0.4-1.1,0.5l-0.8,0.4l0.2,0.1c-0.1,0.4-0.2,0.5-0.2,0.8c0.1,0.4,0,0.6-0.2,1c-0.2,0.2-0.4,0.3-0.6,0.4L215.5,250.1    L215.5,250.1z M213.8,249.2c0.4,0,0.8,0.1,1.2,0.2l0.5,0.4l0.3-0.3l0.9-0.3l-0.2-0.1c0.2-0.3,0.2-0.4,0.2-0.7    c0-0.4,0.1-0.6,0.1-0.8c0.2-0.5,0.4-0.7,0.6-0.8c0.7-0.3,0.9-0.4,1.3-0.7c0.1-0.2,0.3-0.3,0.6-0.4c0.7-0.2,1.1-0.3,1.4-0.5    c0.6,0,0.8,0.1,1.2,0.3c0.3,0.1,0.7,0.1,1.1,0.1c0.6,0,0.7,0,0.9-0.2l0.2-0.1l0.5,0.2c0.2,0.7,0.4,0.8,0.7,1    c0.3,0.1,0.5,0.3,0.7,0.5l0.8,0.4c0.7,0.2,1,0.4,1.2,0.6c0.1,0,0.4,0.1,0.7,0.1c0.2,0.1,0.6,0.1,0.7,0.1c0.9,0,1.1,0.1,1.3,0.2    l0.8,0.9V249c0.6,0,1,0,1.2-0.1c0.6,0,0.9,0,1.2,0.3c0.3-0.1,0.6-0.1,1-0.1c0.2,0.1,0.7,0.1,0.9,0.2c0.4-0.1,0.9-0.1,1.4,0.1    l0.7,0.1c0.4,0,0.9-0.1,1.4-0.1c0.4-0.5,0.6-0.6,0.9-0.9c0.6-0.3,0.8-0.5,1-0.7l-0.1-0.9c0.3-0.5,0.4-0.6,0.5-0.8    c0.3-0.3,0.4-0.5,0.6-0.8l0.4-0.5l-0.2-0.6l0-1.4l0-1l-0.2,0.1c-0.1-0.1-0.3-0.3-0.4-0.5c-0.5-0.2-0.7-0.4-0.8-0.5l-1.5-1.1    c-0.4-0.4-0.6-0.4-0.8-0.4c-1,0-1.5-0.2-1.8-0.4c-0.2,0-0.4-0.1-0.6-0.2c-0.5-0.6-0.7-1-0.4-1.3c-0.1,0-0.3-0.2-0.4-0.3l0.3-0.5    l-0.8-0.7c-0.7-0.3-0.8-0.3-1-0.1c-0.1,0.3-0.2,0.6-0.6,0.7c0.1,0.3-0.1,0.4-0.5,0.5c-0.8,0-0.9-0.1-1.2-0.3    c-0.3-0.2-0.6-0.3-0.8-0.4h-0.3l-1.1-1c-0.3-0.2-0.3-0.2-0.8-0.2c-0.6,0-0.7-0.2-0.9-0.5l-0.5-0.5l-0.1,0.1l-1.1,0.1    c-0.7,0-0.9,0-1.1-0.1c-0.8-0.1-1,0-1.3,0.1c-0.2,0.1-0.5,0.4-0.7,0.6c-0.4,0.1-0.7,0.1-1.1,0c-0.4-0.1-0.8-0.1-1.1-0.1    c-0.4,0.3-0.6,0.5-0.8,0.8l-0.1,0.1l-1.2,0.6c-0.2,0.4-0.4,0.5-0.6,0.6c-0.4,0.3-0.6,0.5-0.8,0.8c0,0.4-0.1,0.5-0.7,0.6l0,0.1    l0,0.8l-0.9,0.3l0.2,0.1l0,0.9l-0.6,0.9l-0.7-0.1c-0.3,0.1-0.3,0.5-0.2,0.6c0,0.5-0.1,0.8-0.2,1.1l-2.6,0.2l0.2,0.2    c-0.2,0.3-0.4,0.6-0.9,0.7l-0.1,0.1l-1.3,0c-0.7,0.2-0.9,0.4-0.9,0.5l-0.5,0.2l0.2,0l-1.2,0.3c0,0.2-0.2,0.4-0.7,0.4l0.5,0.4    l-0.9,0.1l-0.7,0.4c-0.2,0.4-0.1,0.8,0,1l0.5,0.5l0.2-0.2l0.5,0.8l0.2-0.2c0.4,0.4,0.5,0.5,0.7,0.8c0.2,0,0.3,0.1,0.5,0.2l0.6,0.3    c0.3-0.1,0.6-0.3,0.8-0.4c0.2-0.8,0.6-0.8,1.2-0.8c0.6,0,0.8,0.2,1.2,0.4C213.1,249,213.2,249.1,213.8,249.2L213.8,249.2    C213.7,249.2,213.7,249.2,213.8,249.2L213.8,249.2C213.8,249.2,213.7,249.2,213.8,249.2L213.8,249.2L213.8,249.2z"/></g>
    <g><path class="st7" d="M220.1,239.3c-0.5,0-0.7,0-1-0.2c-0.2-0.5-0.3-0.5-0.6-0.6h0c-0.4,0-0.9-0.2-1.1-0.3l0.3-0.4    c0.1,0,0.5,0.2,0.8,0.2c0.6,0.1,0.8,0.3,0.9,0.8c0.1,0,0.2,0,0.6,0c0.5,0.1,0.6,0.2,0.8,0.4l-0.8-0.1V239.3L220.1,239.3z" id="XMLID_40_"/></g>
    <g><path class="st7" d="M215.9,243.3c-0.5,0-1.1,0-1.3-0.1l0.1-0.5c0.2,0,1,0.1,1.5,0.1c0.1-0.1,0.3-0.2,0.5-0.3    c0.9-0.2,1.1-0.2,1.4,0l1.2,0.4l-0.8,0.2c-0.2,0-0.5-0.1-0.6-0.1c-0.3-0.1-0.4-0.2-0.8-0.2c-0.3,0.2-0.5,0.4-0.8,0.5    C216.1,243.3,216,243.3,215.9,243.3L215.9,243.3z" id="XMLID_39_"/></g>
    <g><path class="st7" d="M218.6,241.7l-0.2-0.4c0.1-0.1,0.5-0.2,0.8-0.3c0.2-0.2,0.6-0.3,0.9-0.4l0.8-0.1l0.5,0.5    l-0.5-0.2l-0.5,0.3c-0.5,0.2-0.8,0.3-1,0.4C219,241.5,218.8,241.7,218.6,241.7L218.6,241.7z" id="XMLID_38_"/></g>
    <g><path class="st7" d="M227.5,244.1c-0.2,0-0.5,0-0.7,0c-0.6-0.2-0.9-0.4-1.1-0.6c-0.2,0-0.5-0.2-0.7-0.4    c-0.7-0.4-0.9-0.6-1.2-1.1c-0.2-0.4-0.3-0.8-0.4-1.3l0.3-0.5v0.1c0.3,0.7,0.4,1.1,0.6,1.4c0.2,0.3,0.4,0.5,0.8,0.7    c0.5,0.4,0.7,0.5,0.9,0.6c0.3,0.2,0.6,0.4,1,0.5c0.2,0,0.4,0,0.7,0l0.5,0.2L227.5,244.1L227.5,244.1z" id="XMLID_37_"/></g>
    <g><path class="st7" d="M225.8,238.9c0.4-0.6,0.5-0.7,0.7-1l0.8-0.6l-0.2-0.1c0.2-0.4,0.4-0.8,0.9-0.9    c0-0.2,0.2-0.4,0.4-0.7l0.3-0.6l0.2,0.4c-0.3,0.8-0.5,1-0.6,1.3c-0.5,0.2-0.6,0.4-0.8,0.8l-0.6,0.9    C226.5,238.6,226.4,238.7,225.8,238.9L225.8,238.9z" id="XMLID_36_"/></g>
    <g><path class="st7" d="M232.6,240.4c-0.1,0-0.2,0-0.3-0.1c-0.1-0.1-0.2-0.1-0.2-0.2c0,0,0-0.1-0.1-0.1l0,0    c0,0,0,0,0,0c-0.2-0.5-0.2-0.9-0.2-1.3c0.1-0.5,0.1-0.9,0.3-1.2l0.8-0.4l-0.1,0.2c-0.4,0.7-0.5,1.1-0.5,1.4c0,0.4,0,0.8,0.1,1    c0.3,0.3,0.4,0.4,0.7,0.6c0,0,0,0,0,0l0.1,0C232.9,240.3,232.8,240.4,232.6,240.4L232.6,240.4z" id="XMLID_35_"/></g>
    <g><path class="st7" d="M237.6,241.7c-0.1,0-0.3,0-0.4,0h-0.9l0.9-0.5c0.5,0,0.6,0,1.1-0.1c0.1-0.1,0.3-0.3,0.6-0.5    l0.9-0.4l-0.2-0.2l0.5,0.3l-0.6,0.5c-0.5,0.5-0.7,0.6-1,0.8C238.1,241.7,237.9,241.7,237.6,241.7L237.6,241.7z" id="XMLID_34_"/></g>
    <g><path class="st7" d="M239.9,247.5c-0.2,0-0.4,0-0.5-0.1c-0.5-0.2-0.8-0.4-1.1-0.7c0.6-0.1,0.9,0,1.1,0.2    c0.4,0.2,0.9,0.2,1.3,0.1l0.6,0.1l0,0.2l0-0.3l-0.1,0.3C240.6,247.4,240.2,247.5,239.9,247.5L239.9,247.5z" id="XMLID_33_"/></g>
    <g><path class="st7" d="M237.5,249.8L237.5,249.8c-0.6-0.4-0.7-0.5-1-0.7c-0.7-0.7-0.8-0.9-1-1.4    c-0.1-0.6-0.2-0.9,0-1.2l0.4,0.8c0.2,0.7,0.2,0.8,0.6,1.2c0.5,0.3,0.7,0.5,0.9,0.7l0.5,0.4L237.5,249.8L237.5,249.8z" id="XMLID_32_"/></g>
    <g><path class="st7" d="M230.5,248.5V248c0.2,0,1,0,1.3-0.1c0.2-0.1,0.4-0.2,0.8-0.4c0.3-0.5,0.4-0.7,0.4-1    c0.5,0.5,0.4,0.7,0.2,1l-0.5,0.5c-0.3,0.1-0.5,0.2-0.8,0.4C231.5,248.5,230.7,248.5,230.5,248.5L230.5,248.5z" id="XMLID_31_"/></g>
    <g><path class="st8" d="M224.4,245.6c-0.1-0.2-0.4-0.8-0.6-1.2c0-0.4-0.1-0.7-0.1-1.1L224.4,245.6z" id="XMLID_30_"/></g>
    <g><path class="st7" d="M211.4,248.7c-0.2,0-0.4,0-0.4,0l0.1-0.5c0.1,0,0.5,0,0.7,0c0.4-0.2,0.8-0.2,1.3-0.3l0.7-0.2    c0.3-0.2,0.3-0.3,0.5-0.6l0.7-0.5l-0.2,0.8c-0.1,0.3-0.3,0.5-0.7,0.8l-0.9,0.3c-0.5,0-0.8,0.1-1.2,0.2    C211.8,248.7,211.6,248.7,211.4,248.7L211.4,248.7z" id="XMLID_29_"/></g>
    <g><path class="st8" d="M217.6,247.1c-0.2,0-1,0-1.5-0.1c-0.2-0.1-0.4-0.4-0.6-0.5c0.1,0,0.1,0,0.1-0.1L217.6,247.1z" id="XMLID_28_"/></g>
    <g><path class="st7" d="M218.9,244.7l-0.2-0.5l0.1,0.2l-0.1-0.2c0.4-0.1,0.7-0.2,0.9-0.2c0.1-0.1,0.3-0.2,0.6-0.3    l0.8,0.1l-0.7,0.3c-0.3,0.1-0.5,0.2-0.7,0.3C219.5,244.6,219.3,244.6,218.9,244.7L218.9,244.7z" id="XMLID_27_"/></g>
    <g><path class="st7" d="M207.3,248.3l-0.5-0.2l0-0.3l0,0.3l0.1-0.3c0.8-0.1,1.1-0.2,1.5-0.3c0.6-0.3,1-0.6,1.3-0.7    c0,0.6-0.4,0.8-0.7,1.1C208.2,248.1,207.8,248.2,207.3,248.3L207.3,248.3z" id="XMLID_26_"/></g>
    <g><path class="st7" d="M236.4,244.7c-0.5,0-0.7-0.1-0.9-0.2c-0.4-0.3-0.5-0.3-1-0.5c-0.3,0-0.5,0-0.7-0.1    c-0.8-0.2-1.1-0.2-1.5-0.3l-0.7-0.4l0.4-0.2c0.8,0.3,1.1,0.4,1.4,0.4c0.7,0.2,0.8,0.2,1.2,0.2c0.6,0.2,0.7,0.3,1.1,0.6    c0.2,0.1,0.4,0.1,0.8,0.1c0.2-0.1,0.7-0.3,0.9-0.3c-0.1,0.6-0.6,0.7-0.8,0.8C236.6,244.7,236.5,244.7,236.4,244.7L236.4,244.7z" id="XMLID_25_"/></g>
    <g><path class="st4" d="M223.2,277.8c-0.5-0.5-0.5-0.9-0.6-1.3c0-0.9,0-1.4-0.1-1.8c-0.1-0.4-0.1-0.7-0.1-1    c0.3-0.8,0.6-1.4,0.8-1.8c0.1-0.4,0.2-0.9,0.3-1.3l0.1-1.2c0-0.4,0.1-0.9,0.2-1.3c0-0.4,0-0.8,0.1-1.1l0.1-0.7    c0.2-0.3,0.2-0.9,0.2-1.5c0.2-0.6,0.3-1.1,0.3-1.8v-2h0.5v2c0,0.7-0.1,1.3-0.3,1.9c0,0.6,0,1.3-0.3,1.7c-0.1,0.8-0.1,1.2-0.1,1.6    c-0.1,0.4-0.2,0.8-0.2,1.3l-0.1,0.7c-0.1,1-0.2,1.5-0.3,1.8c-0.3,0.6-0.6,1.2-0.9,1.5c0,0.6,0,0.8,0.1,1c0.2,0.5,0.2,1,0.2,1.5    C223.2,276.8,223.2,277.3,223.2,277.8L223.2,277.8z" id="XMLID_24_"/></g>
    <g><path class="st4" d="M225.8,277.3c-0.6,0-0.6-0.3-0.6-0.7c0-0.2-0.1-0.4-0.2-0.6c-0.1-0.2-0.2-0.4-0.3-0.8    c0-0.9,0-1.5,0.1-1.9l0.3-1.7c0.4-0.7,0.5-0.9,0.6-1.6c-0.1-0.6-0.1-1.2-0.1-1.9v-2.8c0-0.4-0.1-1.1-0.2-1.4l0.4-0.4l-0.2,0    l0.3,0.2c0.1,0.4,0.2,1.1,0.2,1.5v2.8c0,0.7,0.1,1.3,0.1,1.9c0,0.9-0.2,1.2-0.6,1.8l-0.2,1.7c-0.2,0.4-0.1,0.9-0.1,1.4    c0.1,0.6,0.2,0.8,0.3,0.9c0.1,0.2,0.2,0.4,0.3,0.7C225.7,277,225.8,277.2,225.8,277.3L225.8,277.3z" id="XMLID_23_"/></g>
    <g><path class="st4" d="M227.9,277.3l-0.3-0.3c-0.1-0.3-0.2-0.5-0.3-0.7l-0.4-0.5c-0.1-0.1-0.3-0.3-0.5-0.5    c-0.2-0.2-0.4-0.4-0.5-0.5c-0.1-0.9,0.1-1.4,0.3-1.9c0.4-0.3,0.4-0.6,0.5-1.2c0-0.3,0-0.5-0.1-0.8c0-0.3-0.1-0.6-0.1-0.9    c-0.1-0.3-0.1-1.1-0.1-1.7l0.5,0v0c0,1.1,0.1,1.5,0.1,1.7c0,0.4,0.1,0.7,0.1,1c0,0.3,0.1,0.6,0.1,0.9c-0.1,0.6-0.2,1.1-0.7,1.5    c-0.2,0.3-0.3,0.7-0.3,1.3c0.1-0.1,0.3,0.2,0.5,0.4c0.2,0.2,0.3,0.4,0.5,0.5l0.4,0.5c0.2,0.2,0.3,0.4,0.4,0.9L227.9,277.3    L227.9,277.3z" id="XMLID_22_"/></g>
    <polygon class="st9" id="XMLID_21_"
             points="229.7,221.8 228.2,219.6 225.4,219.5 226.7,217.3 225.4,215 228.2,214.9 229.7,212.7    231.2,214.9 234,215 232.7,217.3 234,219.5 231.2,219.6  "/>
    <g><path class="st4" d="M229.7,222.3l-1.7-2.5l-2.6,0l1.1-2.7l-1.3-2l3-0.5l1.3-2.1l1.9,2.2l2.6,0l-1.1,2.7l1.3,2l-3,0.5L229.7,222.3    L229.7,222.3z M228.2,219.4l1.5,2l1.3-1.9l3-0.2l-1.5-1.9l1.3-2.5l-2.6,0.3l-1.7-2.3l-1.1,2.2l-3,0.2l1.5,1.9l-1.3,2.5    L228.2,219.4L228.2,219.4z"/></g>
    <polygon class="st9" id="XMLID_18_"
             points="218.1,221.8 216.6,219.6 213.8,219.5 215.1,217.3 213.8,215 216.6,214.9 218.1,212.7    219.6,214.9 222.4,215 221.1,217.3 222.4,219.5 219.6,219.6  "/>
    <g><path class="st4" d="M218.1,222.3l-1.7-2.5l-2.6,0l1.1-2.7l-1.3-2l3-0.5l1.3-2.1l1.9,2.2l2.6,0l-1.1,2.7l1.3,2l-3,0.5L218.1,222.3    L218.1,222.3z M216.6,219.4l1.5,2l1.3-1.9l3-0.2l-1.5-1.9l1.3-2.5l-2.6,0.3l-1.7-2.3l-1.1,2.2l-3,0.2l1.5,1.9l-1.3,2.5    L216.6,219.4L216.6,219.4z"/></g>
    <polygon class="st9" id="XMLID_15_"
             points="208.1,223.8 206.3,221.8 203.5,222 204.5,219.6 202.8,217.5 205.6,217.1 206.8,214.7    208.6,216.7 211.4,216.5 210.4,218.9 212.1,221 209.3,221.4  "/>
    <g><path class="st4" d="M208.2,224.2l-2-2.3l-2.6,0.3l0.7-2.8l-1.6-1.9l3-0.8l1-2.2l2.2,1.9l2.6-0.3l-0.7,2.8l1.6,1.9l-3,0.8    L208.2,224.2L208.2,224.2z M206.3,221.5l1.8,1.8l1-2l3-0.6l-1.8-1.7l1-2.7l-2.6,0.6l-2-2.1l-0.8,2.3l-3,0.6l1.8,1.7l-1,2.7    L206.3,221.5L206.3,221.5z"/></g>
    <polygon class="st9" id="XMLID_12_"
             points="240.6,223.5 242.4,221.5 245.3,221.8 244.3,219.3 245.9,217.2 243.1,216.8    241.9,214.4 240.1,216.4 237.3,216.2 238.3,218.6 236.7,220.7 239.5,221.2  "/>
    <g><path class="st4" d="M240.6,224l-1.3-2.7l-2.6-0.3l1.5-2.5l-1-2.2l3.1-0.1l1.6-1.9l1.6,2.4l2.6,0.3l-1.5,2.5l1,2.2l-3.1,0.1    L240.6,224L240.6,224z M237.3,216.4l1.3,2.1l-1.7,2.4l2.6,0l1.2,2.2l1.6-1.7l3,0.2l-1.3-2.1l1.7-2.4l-2.6,0l-1.4-2.5l-1.4,2.1    L237.3,216.4L237.3,216.4z"/></g>
    <polygon class="st9" id="XMLID_9_"
             points="250,227.9 252.2,226.2 254.9,227 254.5,224.5 256.6,222.7 253.9,221.8 253.3,219.2    251.1,220.9 248.4,220.1 248.8,222.6 246.7,224.4 249.4,225.3  "/>
    <g><path class="st4" d="M249.8,228.3l-0.7-2.9l-2.5-0.8l2-2.2l-0.5-2.3l3,0.5l2-1.6l1,2.7l2.5,0.8l-2,2.2l0.5,2.3l-3-0.5L249.8,228.3    L249.8,228.3z M248.3,220.3l0.7,2.3l-2.2,2l2.6,0.5l0.7,2.3l1.9-1.4l2.9,0.7l-0.7-2.3l2.2-2l-2.6-0.5l-0.8-2.7l-1.8,1.8    L248.3,220.3L248.3,220.3z"/></g>
    <polygon class="st9" id="XMLID_6_"
             points="198.4,227.3 196.2,225.7 193.5,226.4 194,223.9 191.9,222.1 194.5,221.2 195.1,218.7    197.3,220.3 200.1,219.5 199.6,222.1 201.7,223.8 199.1,224.8  "/>
    <g><path class="st4" d="M198.6,227.7l-2.5-1.8l-2.5,0.8l0.1-2.8l-2-1.5l2.7-1.4l0.5-2.4l2.6,1.5l2.5-0.8l-0.1,2.8l2,1.5l-2.7,1.4    L198.6,227.7L198.6,227.7z M196.2,225.4l2.1,1.5l0.5-2.2l2.8-1.1l-2.2-1.3l0.3-2.8l-2.4,1.1l-2.4-1.7l-0.2,2.4l-2.8,1.1l2.2,1.3    l-0.3,2.8L196.2,225.4L196.2,225.4z"/></g>
    <polygon class="st10" id="XMLID_3_" points="0,106.7 0,405.3 149.3,256  "/></g></svg>
