<?xml version="1.0" ?>
<svg id="Layer_1" style="enable-background:new 0 0 512 512;" version="1.1" viewBox="0 0 512 512" xml:space="preserve"
     xmlns="http://www.w3.org/2000/svg"><style type="text/css">
	.st0 {
    fill: #80A7D8;
  }

  .st1 {
    fill-rule: evenodd;
    clip-rule: evenodd;
    fill: #F3D02F;
  }

  .st2 {
    fill: #1B257D;
  }

  .st3 {
    fill: #FFFFFF;
  }

  .st4 {
    fill: #C0003B;
  }

  .st5 {
    fill-rule: evenodd;
    clip-rule: evenodd;
    fill: #C0003B;
  }
</style>
  <g><rect class="st0" height="298.7" width="512" y="106.7"/>
    <polygon class="st1"
             points="491.5,180.4 476.8,170.3 462,180.4 467.7,164.1 452.9,154.1 471.2,154.1 476.8,137.7 482.4,154.1    500.6,154.1 485.9,164.1  "/>
    <polygon class="st1"
             points="445.8,310.6 431,300.5 416.3,310.6 421.9,294.3 407.2,284.2 425.4,284.2 431,267.9 436.6,284.2    454.9,284.2 440.1,294.3  "/>
    <polygon class="st1"
             points="491.5,281.1 476.8,271 462,281.1 467.7,264.8 452.9,254.7 471.2,254.7 476.8,238.4 482.4,254.7    500.6,254.7 485.9,264.8  "/>
    <polygon class="st1"
             points="294.8,375.5 280,365.4 265.3,375.5 270.9,359.2 256.2,349.1 274.4,349.1 280,332.8 285.6,349.1    303.9,349.1 289.1,359.2  "/>
    <polygon class="st1"
             points="317.9,272.2 332.6,282.3 347.4,272.2 341.7,288.5 356.5,298.6 338.3,298.5 332.6,314.9 327,298.5    308.8,298.5 323.6,288.5  "/>
    <polygon class="st1"
             points="371.7,197.8 386.4,207.9 401.1,197.8 395.5,214.1 410.3,224.2 392,224.2 386.4,240.5 380.8,224.2    362.6,224.2 377.3,214.1  "/>
    <polygon class="st1"
             points="416.8,182.4 431.6,192.5 446.3,182.4 440.7,198.7 455.4,208.7 437.2,208.7 431.6,225.1 426,208.7    407.7,208.7 422.5,198.7  "/>
    <polygon class="st1"
             points="371.7,311.1 386.4,321.2 401.1,311.1 395.5,327.4 410.3,337.5 392,337.4 386.4,353.8 380.8,337.4    362.6,337.5 377.3,327.4  "/>
    <polygon class="st1"
             points="317.9,324.2 332.6,334.3 347.4,324.2 341.7,340.5 356.5,350.6 338.3,350.6 332.6,366.9 327,350.6    308.8,350.6 323.6,340.5  "/>
    <rect class="st2" height="128" width="256" y="106.7"/>
    <polygon class="st3" points="227.4,106.7 0,220.4 0,234.7 28.6,234.7 256,121 256,106.7  "/>
    <polygon class="st3" points="0,106.7 0,121 227.4,234.7 256,234.7 256,220.4 28.6,106.7  "/>
    <polygon class="st3"
             points="106.7,106.7 106.7,149.3 0,149.3 0,192 106.7,192 106.7,234.7 149.3,234.7 149.3,192 256,192    256,149.3 149.3,149.3 149.3,106.7  "/>
    <polygon class="st4"
             points="115.2,106.7 115.2,157.9 0,157.9 0,183.5 115.2,183.5 115.2,234.7 140.8,234.7 140.8,183.5 256,183.5    256,157.9 140.8,157.9 140.8,106.7  "/>
    <polygon class="st5" points="151.6,149.3 170.7,149.3 256,106.7 236.9,106.7  "/>
    <polygon class="st4" points="0,116.2 66.3,149.3 85.3,149.3 0,106.7  "/>
    <polygon class="st5" points="256,234.7 256,225.1 189.7,192 170.7,192  "/>
    <polygon class="st4" points="85.3,192 0,234.7 19.1,234.7 104.4,192  "/></g></svg>
