<?xml version="1.0" ?>
<svg id="Layer_1" style="enable-background:new 0 0 512 512;" version="1.1" viewBox="0 0 512 512" xml:space="preserve"
     xmlns="http://www.w3.org/2000/svg"><style type="text/css">
	.st0 {
    fill: #CC2027;
  }

  .st1 {
    fill: #FFFFFF;
  }
</style>
  <g><rect class="st0" height="298.7" width="512" y="106.7"/>
    <path class="st1"
          d="M256,256c-23.2-9.4-34.4-35.8-25-59c7.5-18.5,26.1-29.9,45.9-28.2c-7.3,3.6-12.1,12.4-6.1,21.6   c6.6,10,2.9,26.9-9.9,32.9C250.8,228.1,242.6,243.8,256,256"/>
    <polygon class="st0" points="251.9,208.8 257.6,195.7 245.4,203 259.5,204.3 248.8,194.9  "/>
    <path class="st0" d="M256.2,255.3c-17-10.2-17.8-33.3-9.2-46.1l-1.1-0.7c-8.3,11.8-9.1,36.7,9.7,47.9L256.2,255.3z"/>
    <path class="st1"
          d="M256,256c1.7-25,23.4-43.8,48.3-42c19.9,1.4,36.5,15.6,41,35c-5.7-5.9-15.6-7.7-22.4,0.9   c-7.5,9.4-24.7,11.1-34.4,0.7C281,242.4,263.5,239.5,256,256"/>
    <polygon class="st0" points="299.6,237.5 313.8,238.9 303.1,229.5 306.2,243.3 311.9,230.3  "/>
    <path class="st0" d="M256.7,256c4.5-19.3,26.2-27.2,41-23l0.3-1.3c-13.8-4.2-37.7,2.7-42.6,24L256.7,256z"/>
    <path class="st1"
          d="M256,256c-16.1,19.2-44.6,21.7-63.8,5.6c-15.3-12.8-20.4-34.1-12.6-52.4c1.2,8.1,8.1,15.4,18.6,12.5   c11.6-3.2,26.5,5.5,28.3,19.6C227.8,252.3,240.2,264.9,256,256"/>
    <polygon class="st0" points="209.8,245.3 199.2,235.9 202.3,249.7 207.9,236.7 195.7,243.9  "/>
    <path class="st0" d="M255.4,255.6c-15,13-37.1,6.6-46.6-5.5l-1,0.8c8.7,11.5,32.1,20,48.6,5.6L255.4,255.6z"/>
    <path class="st1"
          d="M256,256c24.3-6.1,48.9,8.7,54.9,33c4.8,19.3-3.5,39.5-20.6,49.8c3.8-7.2,2.5-17.2-7.7-21   c-11.2-4.2-18.2-20-11.3-32.5C276.6,275.5,274,258,256,256"/>
    <polygon class="st0" points="287.1,291.8 290.1,305.7 295.8,292.6 283.6,299.9 297.7,301.2  "/>
    <path class="st0" d="M256.2,256.7c19.7-1.7,33.9,16.5,34.5,31.9l1.3-0.1c-0.2-14.4-14.2-35.1-36-33.1L256.2,256.7z"/>
    <path class="st1"
          d="M256,256c13.3,21.2,6.8,49.2-14.4,62.4c-16.9,10.6-38.7,8.9-53.7-4.2c8.1,1.4,17.1-2.9,17.6-13.9   c0.5-12,13.4-23.5,27.4-20.8C243.8,281.6,259.6,273.8,256,256"/>
    <polygon class="st0" points="231.5,296.6 219.3,303.8 233.4,305.2 222.8,295.8 225.9,309.6  "/>
    <path class="st0" d="M255.4,256.4c7.7,18.3-5.2,37.4-19.7,42.7l0.5,1.2c13.6-4.7,28.9-24.4,20.3-44.4L255.4,256.4z"/>
    <path class="st0" d="M256,254c1.1,0,2,0.9,2,2c0,1.1-0.9,2-2,2s-2-0.9-2-2C254,254.9,254.9,254,256,254"/></g></svg>
