<?xml version="1.0" ?>
<svg id="Layer_1" style="enable-background:new 0 0 512 512;" version="1.1" viewBox="0 0 512 512" xml:space="preserve"
     xmlns="http://www.w3.org/2000/svg"><style type="text/css">
	.st0 {
    fill: #FFFFFF;
  }

  .st1 {
    fill: #CD1F39;
  }

  .st2 {
    fill: #D51F3A;
  }

  .st3 {
    fill: #010101;
  }

  .st4 {
    fill: #F2DD31;
  }

  .st5 {
    fill: none;
  }

  .st6 {
    fill: #E91D2C;
  }

  .st7 {
    fill: #3A53A4;
  }
</style>
  <g><rect class="st0" height="298.7" width="512" y="106.7"/>
    <polygon class="st1"
             points="478.4,106.7 256,236.8 33.6,106.7 0,106.7 0,125.8 222.9,256 0,386.2 0,405.4 33.6,405.4 256,275.2    478.4,405.4 512,405.4 512,386.2 289.1,256 512,125.8 512,106.7  "/>
    <path class="st2"
          d="M282,151.3c6.4,25.9,2.9,57.9-26,75.6c-28.9-17.8-32.4-49.7-26-75.6C236.8,145.1,267.8,141.3,282,151.3   L282,151.3z"/>
    <g><path class="st3" d="M256,227L256,227c-36.1-22.1-29-63.5-26-75.7c3.9-3.5,15.4-6.2,26.8-6.2c10.6,0,19.6,2.2,25.3,6.2    C285.1,163.5,292.1,204.9,256,227L256,227L256,227z M256.8,145.2c-11.4,0-22.9,2.6-26.7,6.1c-3,12.1-10,53.5,26,75.6    c36-22.1,29-63.5,26-75.6C276.4,147.4,267.4,145.2,256.8,145.2L256.8,145.2z"/></g>
    <path class="st4"
          d="M256,146.1c10.6,0,20.5,2.8,26.3,6.4c1.1-8.9,5.2-17.9,10-24.6c-5-0.1-7.2,2.5-7.3,5.3   c-1.3-3.5-6.1-3.3-7.6-1.4c5.4,3.7,1.2,10.2-3.7,8.9c-2.3-0.6-3.5-2.2-4-4.6c0.5,0,1.1-0.2,1.5-0.6c1.1-0.9,1.3-2.6,0.4-3.8   c-0.9-1.1-2.6-1.3-3.8-0.4c-1.2,0.9-1.3,2.6-0.4,3.8c0.3,0.4,0.7,0.6,1.1,0.8c-1.6,2.5-4.4,3.3-6.3,2.8c-2.6-0.7-3.7-3.1-3.7-5.1   c0-5.4,5.2-6.2,6.7-5.3c-0.1-3.6-5.8-6.5-7.6-3.5c2-3.5,1.9-8.5-1.7-11.8c-3.5,3.3-3.6,8.3-1.7,11.8c-1.8-3-7.5-0.1-7.6,3.5   c1.6-0.9,6.7-0.1,6.7,5.3c0,2.1-1.1,4.4-3.7,5.1c-2,0.6-4.8-0.2-6.4-2.8c0.4-0.2,0.8-0.4,1.1-0.8c0.9-1.1,0.8-2.8-0.4-3.8   c-1.2-0.9-2.8-0.8-3.8,0.4c-0.9,1.2-0.8,2.8,0.4,3.8c0.4,0.4,1,0.6,1.5,0.6c-0.4,2.3-1.7,4-4,4.6c-4.9,1.4-9.1-5.2-3.7-8.9   c-1.5-1.9-6.4-2.1-7.6,1.4c0-2.7-2.3-5.4-7.3-5.3c4.8,6.7,8.8,15.7,10,24.6C235.5,148.9,245.4,146.1,256,146.1L256,146.1z"/>
    <g><path class="st3" d="M282.4,152.8l-0.2-0.1c-6.3-4-16.4-6.4-26.2-6.4c-9.8,0-19.9,2.5-26.2,6.4c-1.2-8.2-4.9-17.2-10.1-24.6    c5.5-0.2,7.4,2.7,7.5,5.2c0.4-1.8,2-2.9,4.1-2.9c1.4,0,2.8,0.6,3.5,1.4c-2.1,1.6-3,3.6-2.3,5.6c0.7,2.4,3.4,3.9,5.9,3.2    c2.2-0.6,3.4-2.1,3.9-4.5c-0.4,0.1-1-0.1-1.5-0.5c-1.2-1-1.4-2.7-0.4-3.9c0.9-1.2,2.8-1.4,3.9-0.4c1.2,1,1.4,2.7,0.4,3.9    c-0.3,0.4-0.7,0.7-1.2,0.8c1.4,2,4.1,3.1,6.3,2.5c2.7-0.7,3.6-3.2,3.6-5c0-4.4-3.4-5.5-5.1-5.5c-0.6,0-1.1,0.1-1.4,0.3    c-0.2-3.9,5.8-6.4,7.5-3.9c-2-3.2-2.1-8.2,1.6-11.7c3.7,3.3,3.7,8,2.2,11.3c1.7-2.1,7.2,0.6,7.2,4.1c-1.6-0.3-3.6-0.1-5,1    c-1.2,1-1.8,2.5-1.8,4.3c0,1.9,0.9,4.3,3.6,5c2.2,0.6,4.9-0.5,6.2-2.7c-0.3,0-0.8-0.3-1.1-0.7c-1-1.2-0.8-3,0.4-3.9    c1.2-0.9,3-0.8,3.9,0.4c1,1.2,0.8,3-0.4,3.9c-0.4,0.4-1,0.6-1.6,0.6c0.6,2.3,1.8,3.8,4,4.3c2.5,0.7,5.2-0.8,5.9-3.2    c0.6-2-0.3-4-2.3-5.4c0.6-1,2-1.6,3.5-1.6c2.1,0,3.7,1.1,4.4,2.8c-0.2-2.5,1.7-5.4,6.8-5.4c0,0,0,0,0,0.1c-5,0.3-6.8,3-6.8,5.4    c-0.8-1.6-2.4-2.6-4.4-2.6c-1.4,0-2.7,0.5-3.3,1.3c2.1,1.3,3,3.4,2.4,5.5c-0.8,2.5-3.5,4.2-6.2,3.4c-2.3-0.6-3.6-2.2-4.1-4.7    c0.7-0.2,1.2-0.4,1.6-0.7c1.1-0.9,1.3-2.5,0.4-3.6c-0.9-1.1-2.5-1.2-3.6-0.4c-1.1,0.9-1.3,2.5-0.4,3.6c0.3,0.3,0.7,0.6,1.1,0.8    c-1.3,2.5-4.1,3.7-6.4,3c-2.8-0.8-3.8-3.3-3.8-5.3c0-4.6,3.5-5.8,5.4-5.8c0.6,0,1.2,0.1,1.6,0.3c-0.3-2.4-3.1-4.6-5.3-4.6    c-0.7,0-1.6,0.2-2.2,1.2c0,0,0,0,0,0c0.1-0.2,0.1-0.4,0.2-0.5c1.4-3.3,1.4-8-2.1-11.3c-3.5,3.5-3.3,8.5-1.5,11.7    c-0.8-0.9-1.7-1.1-2.4-1.1c-2.3,0-5.1,2.2-5.1,4.7c0.7-1.3,6.7-0.8,6.7,5.3c0,1.9-1,4.5-3.8,5.3c-2.3,0.7-5.1-0.5-6.5-2.8    c0.5-0.3,0.8-0.6,1.1-0.9c0.9-1.1,0.7-2.7-0.4-3.6c-1.1-0.9-2.7-0.7-3.6,0.4c-0.9,1.1-0.7,2.7,0.4,3.6c0.4,0.3,0.9,0.5,1.4,0.6    c-0.3,2.7-1.7,4.2-4,4.8c-2.6,0.8-5.4-0.9-6.2-3.4c-0.6-2.1,0.3-4.2,2.4-5.7c-0.7-0.6-1.9-1.1-3.3-1.1c-2,0-3.5,1-4.1,2.7    c-0.3-2.4-2.1-5.2-7.1-5.2c5.1,7.3,8.8,16.3,9.8,24.5c6.2-4.1,16.3-6.5,26.1-6.5c9.8,0,19.8,2.4,26.2,6.4c0.9-6.7,3.5-14,7.4-20.5    c-3.6,6.7-6.3,14-7.1,20.7L282.4,152.8L282.4,152.8z"/></g>
    <path class="st4"
          d="M278,171.5c-0.6,0.2-0.6,1-1,1c1.7,0,2.5-0.5,3-1.3c-0.4,0.3,0,1-0.2,1.1c1.2-0.4,1.8-1.5,1.4-2.2   c0.3,0.4,1.1,0.6,1.3,0.6c-0.9-0.7-0.3-2.2-1.6-3c0.5,0,1.3,0.5,1.6,1.1c-0.2-1.4-0.4-2.3-1.6-3c0.1,0.1,0.8,0.3,1,0   c-0.7-0.5-0.9-1.2-0.9-1.7c0.1-0.7-0.4-0.8-1.2-0.6c-0.8,0.2-2.5,0.3-3.6,0.3c-2.1,0-4,0-5.8-1.2c2.6,1.1,6-1.2,6-3.1   c0-2.1-2.6-3.9-7.9-2.7c-5.3,1.2-11.8,0.7-11.8-1.1c0-1.8,4.6-2,7-1.6s4.1,0.6,8.5-1c-1.1,0.4-4.6,0.5-7.4-0.2   c-2.8-0.8-9.7-0.8-9.7,2.9c-0.1,3.7,7.3,3.4,13.7,2.4c3.7-0.5,5.7-0.2,5.7,1c0,1.2-3.4,1.6-6,1.3c-2.6-0.3-5.3-0.2-8.4,0.7   c-2.6,0.8-4.4,0-7.2,0.5c-1.4,0.2-4.8,0-6.4-2.7c-1,0.7-4.1,2.3-4.6,3.8c-0.7,1.4-0.2,2.7,0.7,4.1c1.2,1.7-0.6,1.4-1.9,1.5   c-1.8,0.1-4.2-0.2-5.5-1.6c-1.1-1.3-2.6-2.3-3.8-1.3c-0.6,0.5,0,1.1,0.5,0.9c0.5-0.2,1,0.2,1.6,0.4c-0.8-0.3-1.7-0.1-2.1,0.2   c-0.5,0.4,0.1,1.3,0.7,1c0.5-0.2,1.4-0.4,2,0.2c-0.7-0.1-1.3-0.1-1.7,0.3c-0.3,0.4-0.1,0.9,0.6,0.8c1.1-0.1,1.4,0.8,2.6,0.6   c-0.7,0.1-1.1,0.5-1.3,0.7c1.1-0.5,2.2,0.8,3.6,0.5c-0.5,0.2-1.4,0.8-1.4,1.2c0.8-0.9,6.3,0.7,6.5-1.3c0.1,0.4,0.1,1.1-0.3,1.6   c0.7-0.4,3-0.6,3.7-2.2c0.1,0.5,0,1.1-0.5,1.3c0.7,0.2,1.7-0.3,2.7-1.8c0.4-0.6,0.5-1,0.4-1.4c1,0,1.7-0.2,2.4-0.9   c0.8-0.7,1.6,0.5,3-0.3c1.3-0.9,2.5-0.1,3.2-0.5c0.7-0.4,1.7,0.2,2.5-0.3c0.8-0.5,2,0.2,3.3-0.8c2.1,0.8,4.5,2.2,10.4,1.1   c3.4-0.6,4.4,0.5,4.4,2.1c0,1.1-0.6,1.2-1.1,1.2c-1.9,0.1-2.7-0.7-3.4-0.4c-0.5,0.2-0.8,1-0.1,1.3c-0.6,0.3-0.5,0.9-0.2,1.1   c0.3,0.2,1.1,0,1.6-0.2c-0.7,0.3-1.4,0.9-1,1.4c0.2,0.4,0.9,0.7,1.4-0.1C276.2,172.1,277.3,171.4,278,171.5L278,171.5z"/>
    <g><path class="st3" d="M274.9,173.3c-0.3,0-0.6-0.2-0.7-0.4c0-0.1,0-0.2,0-0.3C274.4,173.1,274.6,173.3,274.9,173.3L274.9,173.3    c0.3-0.1,0.5-0.2,0.8-0.5c0.6-0.7,1.5-1.3,2.2-1.3c0,0,0,0,0,0c-0.7,0.1-1.6,0.7-2.1,1.3C275.4,173.3,275.1,173.3,274.9,173.3    L274.9,173.3z M277,172.5c0.3-0.5,0.5-0.7,0.7-0.9c-0.1,0.2-0.2,0.4-0.3,0.5c1.1,0.2,1.9-0.1,2.5-0.8    C279.3,172.2,278.5,172.5,277,172.5L277,172.5z M242.7,172.5c0.4-0.6,0.4-1.2,0.3-1.6c0,1-1.3,1.1-2.4,1.1l-2.5-0.1    c-0.8,0-1.3,0.1-1.4,0.3c0-0.3,0.2-0.5,0.6-0.8c-0.3,0.2-0.6,0.5-0.6,0.7c0.1-0.2,0.6-0.3,1.4-0.3l2.5,0.1c1.1,0,2.4-0.1,2.4-1.1    C243.2,171.2,243.2,171.9,242.7,172.5c0.2-0.2,0.5-0.3,0.9-0.4c1-0.3,2.3-0.7,2.8-1.9c0.1,0.3,0.1,0.6,0,0.8c0-0.3,0-0.6,0-0.8    c-0.5,1.2-1.8,1.6-2.8,1.9C243.2,172.2,242.9,172.3,242.7,172.5L242.7,172.5z M279.8,172.3L279.8,172.3c0.7-0.3,1.2-0.8,1.4-1.3    c0.1-0.3,0.1-0.6-0.1-0.9c0.3,0.3,1.1,0.6,1.3,0.6c-0.4-0.2-0.5-0.7-0.6-1.2c-0.1-0.6-0.3-1.3-1-1.7c0.6,0,1.4,0.5,1.6,1.1    c-0.3-1.3-0.5-2.2-1.5-2.9c1.1,0.7,1.3,1.6,1.5,2.9c-0.3-0.6-1.1-1.1-1.6-1.1c0.8,0.4,0.9,1.1,1,1.7c0.1,0.5,0.2,0.9,0.6,1.2    c-0.2,0-1-0.2-1.3-0.5c0.2,0.2,0.2,0.5,0,0.8C281.1,171.6,280.5,172.1,279.8,172.3L279.8,172.3z M274.6,171.9    c0.1-0.1,0.2-0.2,0.3-0.3c-0.3,0.2-0.7,0.2-0.9,0.2l-0.6-0.6c0-0.1,0.1-0.4,0.5-0.6c-0.4-0.1-0.5-0.4-0.4-0.5    c0-0.3,0.2-0.6,0.5-0.7c0.6-0.1,0.9,0,1.2,0.1c0.5,0.1,1.1,0.3,1.9,0.3c0.7,0,1.4-0.1,1.4-1.2c0-1.8-1.4-2.6-4.4-2    c-5.2,1-7.8,0-9.7-0.8l-0.7-0.3c-0.7,0.6-1.3,0.6-2.1,0.6c-0.6,0-1,0-1.2,0.2c-0.2,0.2-0.5,0.2-0.9,0.2l-0.9,0    c-0.3,0-0.5,0-0.7,0.2c-0.2,0.1-0.4,0.2-0.7,0.2l-0.9,0c-0.4,0-1,0-1.6,0.4c-0.6,0.4-1.3,0.3-1.8,0.2l-1.2,0.1l0,0    c-0.7,0.6-1.4,0.9-2.3,0.9c-0.1,0.4-0.2,0.8-0.6,1.4c-0.8,1.2-1.6,1.8-2.4,1.8c0,0,0,0,0-0.1c0.9-0.1,1.6-0.8,2.3-1.8    c0.4-0.5,0.5-0.9,0.4-1.4c1.1,0,1.7-0.3,2.5-0.9c0.2-0.2,0.4-0.2,0.6-0.2l0.6,0.1c0.6,0.1,1.2,0.2,1.8-0.2    c0.6-0.4,1.2-0.4,1.6-0.4l0.9,0c0.3,0,0.5,0,0.7-0.1c0.2-0.1,0.4-0.2,0.8-0.2l0.9,0c0.4,0,0.6-0.1,0.9-0.2    c0.3-0.2,0.8-0.2,1.1-0.2c0.9,0,1.6-0.1,2.3-0.6l0.8,0.3c1.9,0.7,4.4,1.7,9.6,0.8c3.7-0.7,4.5,0.8,4.5,2.1c0,1.2-0.8,1.2-1.1,1.2    c-1,0-1.8-0.2-2.3-0.3c-0.3-0.1-0.6-0.2-0.8-0.2c-0.6,0.2-0.8,0.4-0.8,0.7c0,0.2,0.1,0.4,0.4,0.5c-0.3,0.2-0.4,0.4-0.4,0.6    l0.6,0.5c0.3,0,0.8-0.1,1.2-0.3C275,171.6,274.8,171.7,274.6,171.9L274.6,171.9z M235.2,169.7c-0.5,0-0.7-0.1-0.9-0.2    c-0.3-0.2-0.8-0.4-1.1-0.3c-0.5,0-0.8-0.1-0.9-0.4c0-0.1,0.1-0.2,0.2-0.3c0,0.5,0.2,0.6,0.6,0.6c0.6,0,1,0.2,1.3,0.3    c0.3,0.2,0.6,0.3,1,0.3C235.3,169.7,235.3,169.7,235.2,169.7C235.3,169.7,235.3,169.7,235.2,169.7L235.2,169.7z M240.1,168.4    c-1.3,0-3.6-0.2-4.9-1.6c-0.9-1-2.6-2.2-3.7-1.3l0.3,0.9c0.8-0.1,1.1,0.1,1.4,0.2c0,0,0,0-0.1,0c-0.4-0.2-0.7-0.3-0.9-0.3    c-0.7,0.1-0.9-0.1-1-0.3c-0.1-0.2,0-0.5,0.2-0.6c1.2-0.9,2.9,0.3,3.8,1.3C236.5,168.1,238.8,168.3,240.1,168.4l1.1-0.1v0    c0.7,0,1.5,0,1.7-0.4c0.1-0.2,0-0.6-0.4-1.1c-1.1-1.6-1.4-2.9-0.7-4.1c0.4-1.2,2.4-2.4,3.7-3.2c0.4-0.2,0.7-0.4,1-0.6    c1.6,2.6,4.6,2.8,5.5,2.8c0.4,0,0.7,0,0.9-0.1c0.8-0.1,1.5-0.2,2.2-0.2l2.3,0c0.7,0,1.7,0,2.7-0.4c2.8-0.8,5.7-1,8.4-0.7    c2.5,0.3,6-0.2,6-1.3c0-1.2-1.9-1.5-5.6-1c-7.1,1.1-11.5,0.8-13.1-0.8c-0.4-0.4-0.7-1-0.6-1.6c0-3.1,4.8-3.4,6.2-3.4    c1.3,0,2.6,0.2,3.5,0.4c2.3,0.6,6,0.7,7.3,0.3l0,0c0,0,0,0,0,0c-0.1,0-0.1,0.1-0.2,0.1c-3.7,1.4-5.7,1.3-8.2,0.9    c-2.3-0.3-7-0.1-7,1.6c0,0.5,0.6,0.9,1.7,1.3c2.3,0.6,6.7,0.6,10-0.2c1.1-0.2,2.2-0.4,3.1-0.4c3.6,0,4.8,1.7,4.8,3.1    c0,2-3.7,4.1-6.1,3.2c1.8,1.2,3.6,1.2,5.8,1.2c1,0,2.8-0.1,3.6-0.3c0.2-0.1,0.5-0.1,0.6-0.1l0.6,0.7c-0.1,0.5,0.2,1.2,0.9,1.7    l-0.1,0c-0.7-0.5-0.9-1.2-0.8-1.7l-0.6-0.7c-0.2,0-0.4,0-0.6,0.1c-0.8,0.2-2.6,0.3-3.6,0.3c-2.1,0-4,0-5.8-1.2    c2.6,0.7,6-1.4,6-3.2c0-2.5-3.3-3.7-7.9-2.7c-3.4,0.7-7.8,0.8-10.1,0.2c-1.1-0.3-1.7-0.8-1.7-1.3c0-1.8,4.6-2.1,7-1.7    c2.5,0.4,4.5,0.4,8.1-0.8c-1.6,0.4-4.9,0.3-7-0.3c-0.9-0.3-2.2-0.4-3.5-0.4c-1.4,0-6.1,0.2-6.2,3.3c0,0.6,0.2,1.2,0.6,1.6    c1.6,1.6,6,1.8,13.1,0.8c3.8-0.6,5.7-0.2,5.7,1.1c0,1.2-3.5,1.7-6.1,1.4c-2.7-0.3-5.6-0.2-8.4,0.7c-1.1,0.3-2,0.4-2.7,0.4l-2.3,0    c-0.7,0-1.4,0-2.2,0.2c-0.3,0-0.6,0.1-0.9,0.1c-0.9,0-3.9-0.2-5.5-2.8c-0.2,0.2-0.5,0.4-0.9,0.6c-1.3,0.8-3.2,2-3.6,3.1    c-0.6,1.2-0.4,2.5,0.7,4c0.4,0.5,0.5,0.9,0.4,1.1c-0.2,0.4-1,0.4-1.7,0.4L240.1,168.4L240.1,168.4z M232.8,168.1    c0.4-0.3,0.8-0.2,1.3-0.1c-0.7-0.5-1.5-0.4-2-0.1c-0.5,0-0.8-0.1-0.9-0.4c-0.1-0.2,0-0.5,0.2-0.6c0.3-0.3,1-0.5,1.7-0.4    c-1,0-1.4,0.2-1.6,0.4c0,0.8,0.2,1,0.4,1c1-0.4,1.5-0.5,2.3,0.1c-0.2,0-0.5,0-0.7,0C233.2,168,232.9,168.1,232.8,168.1    L232.8,168.1z"/></g>
    <path class="st4"
          d="M240.4,155.5c-1.7-0.7-2.3-0.7-1.9,0.7c0.2,0.6,0.6,1.4,1,1.8C239.6,157.4,239.8,155.8,240.4,155.5   L240.4,155.5z"/>
    <g><path class="st3" d="M239.6,158L239.6,158c-0.5-0.4-0.9-1.3-1.1-1.9c-0.1-0.5-0.2-0.8,0-1c0.1,0,0.2,0,0.3-0.1    c-0.4,0.3-0.4,0.6-0.2,1.1c0.2,0.6,0.5,1.4,0.9,1.7c0-0.5,0.2-2.1,0.9-2.4c-0.6-0.2-1-0.3-1.3-0.4c0.4,0,0.8,0.2,1.3,0.4    C239.8,155.8,239.6,157.3,239.6,158L239.6,158L239.6,158z"/></g>
    <path class="st4"
          d="M245.8,155.5c1.7-0.7,2.3-0.7,1.9,0.7c-0.2,0.6-0.6,1.4-1,1.8C246.7,157.4,246.5,155.8,245.8,155.5   L245.8,155.5z"/>
    <g><path class="st3" d="M246.7,158L246.7,158c0-0.7-0.3-2.2-0.9-2.5c0.8-0.4,1.3-0.5,1.6-0.5c0.1,0.1,0.2,0.1,0.2,0.2    c-0.6-0.1-1,0-1.8,0.4c0.7,0.3,0.9,1.8,0.9,2.4c0.4-0.4,0.8-1.2,0.9-1.7c0.1-0.3,0.1-0.5,0.1-0.7c0.1,0.2,0,0.4-0.1,0.7    C247.5,156.7,247.1,157.6,246.7,158L246.7,158L246.7,158z"/></g>
    <path class="st4"
          d="M243.1,154.5c3.2,0,3.6,1.5,3.6,3.4c0,2-1.1,1.3-1.7,4c-0.2,1-1.1,1.1-1.9,1.1c-0.8,0-1.6-0.1-1.9-1.1   c-0.6-2.6-1.7-1.9-1.7-4C239.5,156,239.9,154.5,243.1,154.5L243.1,154.5z"/>
    <g><path class="st3" d="M243.1,163c-0.9,0-1.7-0.1-1.9-1.1c-0.3-1.3-0.7-1.8-1.1-2.2c-0.4-0.4-0.7-0.8-0.7-1.8c0-0.9,0.1-1.9,0.7-2.6    c1.1-1.2,4.7-1.2,5.8,0c0.7,0.7,0.7,1.6,0.7,2.6c0,1-0.3,1.4-0.7,1.8c-0.3,0.4-0.8,0.9-1.1,2.2C244.8,162.9,244,163,243.1,163    L243.1,163z M243.1,154.6c-1.4,0-2.3,0.3-2.9,0.8c-0.6,0.6-0.7,1.6-0.7,2.5c0,1,0.3,1.3,0.6,1.8c0.3,0.4,0.8,0.9,1.1,2.2    c0.2,1,1,1.1,1.9,1.1s1.6-0.1,1.8-1.1c0.3-1.3,0.7-1.8,1.1-2.2c0.4-0.4,0.6-0.7,0.6-1.8c0-0.9-0.1-1.9-0.7-2.5    C245.4,154.8,244.5,154.6,243.1,154.6L243.1,154.6z"/></g>
    <path class="st4"
          d="M234.8,162c-0.8-0.5-1.3-0.2-1.7-0.1c1.1,0.3,1.1,1.6,3.5,2.3c-0.6-0.2-0.9,0.2-1.4-0.1c1,0.8,2.1,1.7,4.5,1.7   c1.3,0,0.4,0.7-0.5,0.3c0.9,0.9,2.7,0.2,3.8,1.9c0.2-1.3-2.1-3.4-1-4.9c-3.3-0.1-3.6-2-5.5-3.4c-1.5-1.2-1.7-2.4-2.4-4.6   c-0.3-1-1.5-1.7-2.2-1.4c-0.6,0.2-0.8,0.7-0.3,1.1c0.5,0.4,1.1,0.4,1.3,1.4c-0.6-0.8-1.6-1.1-2.1-0.6c-0.3,0.3-0.2,1,0.4,1   c1,0.1,0.3,1.1,1.4,2c-1-1.1-1.9-1.2-2.4-0.6c-0.3,0.4,0,1,0.7,0.9C232.2,158.9,233.3,161.4,234.8,162L234.8,162z"/>
    <g><path class="st3" d="M243.2,168.1L243.2,168.1c-0.7-1-1.6-1.2-2.4-1.3c-0.6-0.1-1.1-0.2-1.5-0.6l1.1-0.1c0-0.1-0.1-0.2-0.6-0.2    c-2.3,0-3.5-0.9-4.5-1.7l0.7,0l0.4,0l-0.6,0c0.6,0.7,1.7,1.5,4,1.6c0.4,0,0.7,0.1,0.7,0.2v0l-0.6,0.2c-0.2,0.2,0.4,0.3,0.9,0.4    c0.8,0.1,1.6,0.3,2.3,1.2c0-0.5-0.3-1.1-0.6-1.8c-0.5-1-1.1-2.1-0.4-3c-2.3,0-3.1-1-4.1-2c-0.4-0.5-0.8-0.9-1.4-1.4    c-1.3-1-1.6-2-2.1-3.7l-0.3-0.9c-0.2-0.7-0.8-1.2-1.3-1.3c0.7,0.2,1.2,0.7,1.4,1.3l0.3,0.9c0.5,1.7,0.8,2.7,2.1,3.7    c0.6,0.4,1,0.9,1.4,1.4c0.9,1,1.7,1.9,4,2c-0.6,0.9-0.1,2,0.5,3C242.9,166.8,243.3,167.5,243.2,168.1L243.2,168.1L243.2,168.1z     M236.5,164.2c-1.3-0.4-1.9-1-2.4-1.5c-0.3-0.3-0.6-0.6-1-0.7c0.3-0.2,0.6-0.3,0.8-0.3l0.6,0.1c-0.9-0.1-1.1,0-1.3,0.1    c0.3,0.1,0.5,0.4,0.8,0.7c0.5,0.5,1.1,1.1,2.5,1.5L236.5,164.2L236.5,164.2z M234.6,161.9c-0.6-0.3-1.2-1-1.7-1.6    c-0.6-0.7-1.3-1.3-1.6-1.3c-0.5,0-0.7-0.2-0.8-0.4c0-0.1,0.1-0.2,0.1-0.3c0,0.5,0.2,0.7,0.6,0.7c0,0,0,0,0,0    c0.7,0,1.2,0.6,1.8,1.3C233.4,160.8,234,161.5,234.6,161.9L234.6,161.9z M232.6,158.3c-0.7-0.5-1.3-0.7-1.7-0.5    C231.3,157.3,231.9,157.7,232.6,158.3c-0.3-0.3-0.4-0.7-0.5-0.9c-0.1-0.4-0.2-0.6-0.6-0.7c-0.3,0-0.5-0.2-0.6-0.4    c-0.1-0.2,0-0.5,0.1-0.7c0.5-0.5,1.5-0.2,2.1,0.6c-0.2-0.7-0.5-0.9-0.9-1.1c-0.6-0.4-0.7-0.6-0.7-0.8c0-0.2,0.3-0.5,0.6-0.6    c0.1,0,0.3,0,0.4,0c0,0,0,0-0.1,0c-0.6,0.2-0.8,0.4-0.8,0.6l0.6,0.7c0.4,0.2,0.8,0.4,0.9,1.1c-0.7-0.7-1.7-1-2.1-0.5    c0,0.8,0.2,1,0.4,1c0.5,0.1,0.6,0.3,0.7,0.7C232.2,157.6,232.3,157.9,232.6,158.3L232.6,158.3z"/></g>
    <path class="st4"
          d="M261.3,171.4c-0.5,0.1-0.4,0.9-1.1,1c1.7,0,2.5-0.4,3.3-1c-0.4,0.2-0.5,0.8-0.6,1.1c0.9-0.8,3-0.8,4.1-0.6   c1.1,0.2,1.3-0.3,1.7-1c0.4-0.7-0.2-1.1-0.7-1.6c-0.6-0.5-0.7-1.3-0.6-2.6c-2.9-3.9-8.2-2-8.2-0.3c1.9,2.2,2.1,2,3.7,2.3   c1.6,0.3,2.6,0.3,1.5,1.2c-0.4,0.3-1.9,0.2-3.1,0.2c-2.7,0.1-3.9-1.8-4.7-0.8c-0.6,0.8,0,1.2,1.3,1.2c-0.9,0-2.1,0-1.9,0.8   c0.3,1.4,1.7-0.3,2.2,0.3c-0.5-0.1-1.2,0.2-1.2,0.6c0,0.4,1,1,2.2,0.1C260,171.6,260.8,171.4,261.3,171.4L261.3,171.4z"/>
    <g><path class="st3" d="M258.2,172.6c-0.3,0-0.6-0.1-0.8-0.3c0-0.1,0-0.2,0-0.2C257.6,172.5,257.9,172.6,258.2,172.6L258.2,172.6    c0.3-0.1,0.7-0.1,1.2-0.5c0.6-0.5,1.4-0.7,1.9-0.7l-0.4,0.5c-0.1,0.2-0.3,0.5-0.7,0.6c1.7-0.1,2.5-0.5,3.1-1    c-0.2,0.3-0.3,0.7-0.3,1c0.7-0.7,2.8-0.9,4.1-0.6c1.1,0,1.3-0.3,1.5-0.8c0.4-0.8,0.1-1.1-0.4-1.6c-0.7-0.7-0.9-1.4-0.8-2.8    c-1.5-2-3.4-2.3-4.5-2.3c-2,0-3.7,1.1-3.7,2c1.6,1.9,2,1.9,3.1,2.1l1.2,0.2c0.8,0.1,1.3,0.2,1.3,0.5c0,0.2-0.1,0.4-0.5,0.7    c-0.2,0.2-0.8,0.2-1.6,0.2l-1.5,0c0,0,0,0,0,0c-1.4,0-2.3-0.4-3-0.8c-0.4-0.2-0.8-0.4-1.1-0.4c-0.8,0.6-0.8,0.8-0.7,1    c0.1,0.2,0.5,0.4,1.1,0.4c-0.3,0-0.6,0.1-0.9,0.1c0.2-0.1,0.4-0.1,0.6-0.1c-0.5,0-0.8-0.2-0.9-0.4c-0.1-0.2,0-0.5,0.2-0.8    c0.4-0.5,0.9-0.3,1.7,0.1c0.7,0.3,1.6,0.8,2.8,0.8l1,0l0.8,0v0c0.6,0,1.3,0,1.5-0.2c0.3-0.3,0.5-0.5,0.4-0.6    c-0.1-0.2-0.6-0.3-1.3-0.4l-0.6-0.1c-1.7-0.3-2.1-0.3-3.7-2.3c0-0.9,1.7-2,3.7-2c1.8,0,3.4,0.8,4.5,2.3c-0.1,1.4,0,2.1,0.6,2.6    c0.7,0.6,1.1,1,0.7,1.7c-0.4,0.7-0.6,1.1-1.3,1.1c-0.8-0.1-1.2-0.2-1.7-0.2c-1.2,0-2.3,0.3-2.8,0.7c0-0.2,0-0.7,0.3-1    c-0.8,0.7-1.7,1-3.1,1c0.4-0.1,0.5-0.3,0.6-0.6c0.1-0.2,0.2-0.4,0.5-0.5c-0.5,0.1-1.3,0.2-1.9,0.7    C258.9,172.5,258.5,172.6,258.2,172.6L258.2,172.6z"/></g>
    <path class="st4"
          d="M275.1,192.9c-0.6,0.1-0.6,0.9-0.9,0.9c1.5,0,2.2-0.5,2.7-1.2c-0.3,0.3,0,0.9-0.2,1c1.1-0.4,1.6-1.3,1.2-1.9   c0.2,0.4,1,0.5,1.2,0.6c-0.8-0.6-0.2-2-1.5-2.7c0.4,0,1.2,0.4,1.4,1c-0.2-1.2-0.4-2-1.4-2.7c0.1,0.1,0.7,0.2,0.9,0   c-0.7-0.4-0.9-1.1-0.8-1.5c0.1-0.6-0.3-0.7-1.1-0.6c-0.7,0.2-2.3,0.3-3.2,0.3c-1.9,0-3.6,0-5.2-1.1c2.4,1,5.4-1.1,5.4-2.8   c0-1.9-2.4-3.5-7.1-2.4c-4.8,1-10.6,0.6-10.6-1c0-1.6,4.2-1.8,6.3-1.5c2.1,0.3,3.7,0.5,7.7-0.9c-1,0.4-4.2,0.5-6.7-0.2   c-2.5-0.7-8.7-0.7-8.8,2.6c0,3.3,6.6,3,12.3,2.2c3.3-0.5,5.1-0.2,5.1,0.9c0,1-3.1,1.5-5.4,1.2c-2.4-0.3-4.8-0.2-7.6,0.6   c-2.3,0.7-4,0-6.5,0.4c-1.3,0.2-4.3,0-5.8-2.5c-0.9,0.7-3.7,2-4.2,3.4c-0.6,1.2-0.2,2.5,0.7,3.7c1.1,1.5-0.5,1.3-1.7,1.3   c-1.6,0.1-3.8-0.2-4.9-1.5c-1-1.1-2.3-2-3.4-1.2c-0.6,0.4,0,1,0.4,0.8c0.4-0.2,0.9,0.2,1.4,0.4c-0.7-0.3-1.5-0.1-1.9,0.2   c-0.4,0.4,0.1,1.1,0.6,0.9c0.4-0.2,1.3-0.3,1.8,0.2c-0.6-0.1-1.2-0.1-1.5,0.2c-0.3,0.3-0.1,0.8,0.6,0.8c1,0,1.3,0.7,2.3,0.5   c-0.6,0.1-1,0.4-1.2,0.7c1-0.4,2,0.7,3.3,0.5c-0.5,0.2-1.3,0.7-1.3,1c0.7-0.9,5.7,0.7,5.8-1.2c0.1,0.4,0.1,1-0.3,1.5   c0.6-0.4,2.7-0.5,3.3-2c0.1,0.4,0,1-0.4,1.1c0.7,0.2,1.5-0.3,2.4-1.6c0.3-0.5,0.4-0.9,0.4-1.3c0.9,0,1.5-0.2,2.2-0.8   c0.7-0.6,1.5,0.5,2.7-0.3c1.2-0.8,2.2-0.1,2.9-0.5c0.7-0.4,1.6,0.1,2.3-0.3c0.7-0.4,1.8,0.2,3-0.7c1.9,0.7,4,1.9,9.3,1   c3.1-0.6,4,0.5,4,1.9c0,1-0.6,1-1,1.1c-1.7,0.1-2.4-0.6-3.1-0.4c-0.5,0.2-0.7,0.9-0.1,1.1c-0.5,0.3-0.5,0.8-0.2,1   c0.3,0.2,1,0,1.5-0.2c-0.6,0.3-1.3,0.8-0.9,1.3c0.2,0.3,0.8,0.6,1.3-0.1C273.5,193.4,274.5,192.8,275.1,192.9L275.1,192.9z"/>
    <g><path class="st3" d="M272.3,194.5c-0.3,0-0.5-0.2-0.6-0.3c0-0.1,0-0.2,0-0.3c0.3,0.9,0.9,0.7,1.3,0.2c0.5-0.7,1.4-1.2,2-1.2    c0,0,0,0,0,0c-0.7,0.1-1.4,0.6-1.9,1.2C272.8,194.4,272.5,194.5,272.3,194.5L272.3,194.5z M274.2,193.8c0.3-0.4,0.4-0.7,0.6-0.8    c-0.1,0.1-0.2,0.3-0.3,0.5c1,0.2,1.7-0.1,2.2-0.7C276.3,193.4,275.5,193.7,274.2,193.8L274.2,193.8z M243.4,193.7    c0.3-0.5,0.4-1.1,0.2-1.5c0,0.9-1.2,1-2.2,1l-2.3-0.1c-0.5,0-1.1,0-1.3,0.3c0-0.2,0.2-0.5,0.5-0.7c-0.2,0.2-0.5,0.5-0.5,0.7    c0.1-0.2,0.5-0.3,1.3-0.3l2.3,0.1c1,0,2.1-0.1,2.2-1C243.8,192.6,243.8,193.2,243.4,193.7c0.1-0.2,0.4-0.2,0.8-0.3    c0.9-0.3,2.1-0.6,2.5-1.7c0.1,0.3,0.1,0.5,0,0.8c0-0.2,0-0.5,0-0.8c-0.4,1.1-1.6,1.5-2.5,1.7C243.9,193.5,243.6,193.6,243.4,193.7    L243.4,193.7z M276.8,193.6L276.8,193.6c0.6-0.3,1.1-0.7,1.3-1.2c0.1-0.3,0.1-0.6-0.1-0.8c0.3,0.3,1,0.5,1.2,0.5    c-0.4-0.2-0.5-0.6-0.5-1.1c-0.1-0.6-0.2-1.2-0.9-1.6c0.5,0,1.3,0.4,1.5,0.9c-0.2-1.2-0.4-1.9-1.4-2.6c1,0.6,1.2,1.4,1.4,2.6    c-0.3-0.5-1-0.9-1.4-0.9c0.7,0.4,0.8,1,0.9,1.6c0.1,0.4,0.2,0.8,0.5,1.1c-0.2,0-0.9-0.1-1.2-0.5c0.1,0.2,0.1,0.5,0,0.7    C277.9,192.9,277.4,193.4,276.8,193.6L276.8,193.6z M272.1,193.2c0.1-0.1,0.2-0.2,0.3-0.2c-0.3,0.1-0.6,0.2-0.8,0.2l-0.6-0.6    c0-0.1,0.1-0.4,0.4-0.5l0,0.1c-0.2,0.1-0.4,0.3-0.4,0.5l0.5,0.5c0.3,0,0.7-0.1,1.1-0.3C272.5,192.9,272.3,193,272.1,193.2    L272.1,193.2z M246.6,192.9C246.6,192.9,246.6,192.8,246.6,192.9c0.8-0.2,1.4-0.8,2.1-1.7c0.3-0.5,0.4-0.8,0.4-1.2    c1,0,1.6-0.3,2.2-0.8l1.1-0.1c0.5,0.1,1.1,0.2,1.6-0.2c0.6-0.4,1.1-0.4,1.5-0.4l0.8,0c0.8-0.2,1-0.3,1.3-0.3l0.8,0    c0.3,0,0.6-0.1,0.8-0.2c0.3-0.2,0.7-0.2,0.9-0.2c0.8,0,1.4,0,2-0.5l0.7,0.3c1.7,0.7,4,1.6,8.6,0.7c3.3-0.6,4,0.8,4,1.9    c0,1-0.7,1.1-1,1.1c-1,0-1.6-0.2-2.1-0.3c-0.3-0.1-0.5-0.2-0.7-0.2c-0.5,0.1-0.7,0.4-0.7,0.6l0.1,0l0.3,0.5    c-0.4-0.1-0.4-0.3-0.4-0.5c0-0.3,0.2-0.6,0.5-0.7c0.5-0.1,0.8,0,1.1,0.1c0.4,0.1,1,0.3,1.7,0.3c0.8,0,1.3-0.2,1.3-1    c0-1.7-1.2-2.3-4-1.8c-4.7,0.8-7,0-8.7-0.7l-0.7-0.3c-0.6,0.5-1.4,0.5-1.9,0.5c-0.6,0-0.9,0-1.1,0.2c-0.2,0.1-0.5,0.2-0.8,0.2    l-0.8,0c-0.3,0-0.5,0-0.7,0.1c-0.2,0.1-0.4,0.1-0.6,0.1l-0.8,0c-0.4,0-0.9,0-1.4,0.4c-0.6,0.4-1.2,0.3-1.7,0.2l-1,0.1l0,0    c-0.6,0.5-1.3,0.8-2,0.8c-0.1,0.4-0.2,0.7-0.5,1.2C248,192.3,247.3,192.9,246.6,192.9L246.6,192.9z M236.6,191.3    c-0.4,0-0.6-0.1-0.8-0.2c-0.3-0.1-0.8-0.3-1-0.3c-0.4,0-0.7-0.1-0.8-0.3c0.1-0.1,0.1-0.2,0.2-0.3c0,0.5,0.1,0.5,0.5,0.6    c0.6,0,0.9,0.1,1.2,0.3c0.3,0.1,0.5,0.3,0.9,0.3C236.7,191.3,236.7,191.3,236.6,191.3L236.6,191.3z M241,190    c-1.2,0-3.3-0.2-4.4-1.5c-0.7-0.8-2.3-2.1-3.3-1.2l0.2,0.7l-0.5-0.2l0.2-0.6c1.1-0.9,2.8,0.4,3.4,1.2    C237.8,189.8,239.9,190,241,190l1-0.1v0c0.7,0,1.4,0,1.5-0.3c0.1-0.2,0-0.5-0.3-0.9c-1-1.4-1.2-2.6-0.7-3.7c0.4-1,2-2.1,3.3-2.8    c0.4-0.2,0.7-0.4,0.9-0.6c1.5,2.3,4.2,2.5,5,2.5c0.3,0,0.6,0,0.8-0.1c0.7-0.1,1.4-0.2,2-0.2l2.1,0c0.7,0,1.5,0,2.5-0.3    c2.5-0.7,5.1-0.9,7.6-0.6c2.3,0.3,5.4-0.2,5.4-1.2c0-1.1-1.7-1.4-5.1-0.9c-6.4,0.9-10.4,0.7-11.8-0.7c-0.4-0.4-0.6-0.9-0.6-1.5    c0-2.8,4.3-3,5.6-3c1.1,0,2.3,0.1,3.2,0.4c1.6,0.5,3.3,0.5,4.1,0.5c1,0,2-0.1,2.5-0.3l0,0c0,0,0,0,0,0c-0.1,0-0.1,0.1-0.2,0.1    c-3.2,1.2-5.1,1.2-7.4,0.8c-2.1-0.3-6.3-0.1-6.3,1.4c0,0.5,0.5,0.9,1.5,1.1c2,0.6,6,0.5,9-0.2c1-0.2,2-0.3,2.8-0.3    c3.2,0,4.3,1.5,4.3,2.8c0,1.9-3.3,3.7-5.5,2.9c1.6,1,3.3,1,5.2,1c0.9,0,2.5-0.1,3.2-0.3l0.3,0c-1.2,0.2-2.7,0.3-3.5,0.3    c-1.9,0-3.6,0-5.2-1.1c2.4,0.6,5.4-1.2,5.4-2.8c0-2.2-3-3.3-7.1-2.4c-3.1,0.7-7,0.7-9.1,0.2c-1-0.3-1.6-0.7-1.6-1.2    c0-1.6,4.1-1.9,6.3-1.5c2.2,0.3,4,0.4,7.2-0.7c-0.5,0.1-1.3,0.2-2.1,0.2c-0.8,0-2.5-0.1-4.1-0.5c-0.8-0.2-2-0.4-3.2-0.4    c-1.3,0-5.5,0.2-5.6,3c0,0.6,0.2,1.1,0.6,1.4c1.4,1.4,5.4,1.7,11.7,0.7c3.4-0.5,5.1-0.2,5.1,1c0,1.1-3.1,1.5-5.5,1.2    c-2.5-0.3-5-0.1-7.5,0.6c-1,0.3-1.8,0.3-2.5,0.3l-2.1,0c-0.6,0-1.3,0-2,0.2c-0.2,0-0.5,0.1-0.8,0.1c-0.8,0-3.5-0.2-5-2.5    c-0.2,0.2-0.5,0.4-0.9,0.6c-1.2,0.7-2.9,1.8-3.2,2.8c-0.6,1.1-0.4,2.2,0.7,3.6c0.3,0.5,0.4,0.8,0.3,1c-0.2,0.4-0.9,0.4-1.6,0.4    L241,190L241,190z M234.4,189.8c0.2-0.1,0.4-0.2,0.6-0.2c-0.6-0.2-0.9-0.2-1.2,0c-0.4,0-0.7-0.1-0.8-0.3c0.1-0.2,0.1-0.3,0.2-0.4    l0.3,0.7c0.9-0.3,1.4-0.5,2,0.1l0.1,0.1l-0.7-0.1C234.8,189.7,234.6,189.8,234.4,189.8L234.4,189.8z"/></g>
    <path class="st4"
          d="M241.3,178.4c-1.5-0.6-2.1-0.6-1.7,0.6c0.2,0.5,0.5,1.3,0.9,1.6C240.5,180.1,240.7,178.7,241.3,178.4   L241.3,178.4z"/>
    <g><path class="st3" d="M240.6,180.7L240.6,180.7c-0.4-0.4-0.8-1.1-0.9-1.7c-0.1-0.5-0.1-0.8,0-0.9c0.1,0,0.2,0,0.3,0    c-0.4,0.2-0.3,0.5-0.2,1c0.2,0.5,0.5,1.2,0.8,1.6c0-0.5,0.2-1.9,0.8-2.2c-0.5-0.2-0.9-0.3-1.2-0.3c0.4,0,0.7,0.1,1.2,0.3    C240.8,178.7,240.6,180,240.6,180.7L240.6,180.7L240.6,180.7z"/></g>
    <path class="st4"
          d="M246.1,178.4c1.5-0.6,2.1-0.6,1.7,0.6c-0.2,0.5-0.5,1.3-0.9,1.6C246.9,180.1,246.7,178.7,246.1,178.4   L246.1,178.4z"/>
    <g><path class="st3" d="M246.9,180.7L246.9,180.7c0-0.7-0.2-2-0.8-2.3c0.7-0.4,1.1-0.5,1.4-0.5c0.1,0,0.2,0.1,0.2,0.2    c-0.5-0.1-0.9,0-1.6,0.3c0.6,0.2,0.8,1.5,0.8,2.1c0.3-0.4,0.7-1.1,0.8-1.6c0.1-0.3,0.1-0.5,0.1-0.6c0.1,0.2,0,0.4,0,0.7    C247.7,179.6,247.4,180.3,246.9,180.7L246.9,180.7L246.9,180.7z"/></g>
    <path class="st4"
          d="M243.7,177.5c2.9,0,3.3,1.4,3.3,3.1c0,1.8-1,1.2-1.6,3.6c-0.2,0.9-0.9,1-1.7,1c-0.7,0-1.5,0-1.7-1   c-0.6-2.4-1.5-1.7-1.6-3.6C240.5,178.9,240.8,177.5,243.7,177.5L243.7,177.5z"/>
    <g><path class="st3" d="M243.7,185.2c-0.8,0-1.5-0.1-1.7-1c-0.3-1.2-0.6-1.6-1-1.9c-0.3-0.4-0.6-0.7-0.6-1.6c0-0.8,0.1-1.7,0.6-2.3    c1-1,4.2-1,5.3,0c0.6,0.6,0.7,1.5,0.7,2.3c0,0.9-0.3,1.2-0.6,1.6c-0.3,0.4-0.7,0.8-1,1.9C245.3,185.1,244.5,185.2,243.7,185.2    L243.7,185.2z M243.7,177.6c-1.2,0-2.1,0.2-2.6,0.8c-0.6,0.6-0.6,1.5-0.6,2.3c0,0.9,0.3,1.2,0.6,1.6c0.3,0.4,0.7,0.8,1,2    c0.2,0.9,0.9,0.9,1.7,0.9c0.8,0,1.5-0.1,1.7-0.9c0.3-1.2,0.7-1.6,1-2c0.3-0.4,0.6-0.7,0.6-1.6c0-0.8-0.1-1.7-0.6-2.3    C245.8,177.8,245,177.6,243.7,177.6L243.7,177.6z"/></g>
    <path class="st4"
          d="M236.3,184.3c-0.7-0.4-1.2-0.1-1.5-0.1c1,0.2,1,1.5,3.2,2.1c-0.5-0.1-0.8,0.1-1.2-0.1c0.9,0.7,1.9,1.5,4.1,1.6   c1.2,0,0.4,0.6-0.4,0.3c0.8,0.8,2.4,0.2,3.4,1.7c0.2-1.2-1.9-3-0.9-4.4c-3-0.1-3.2-1.8-4.9-3.1c-1.4-1.1-1.5-2.1-2.1-4.2   c-0.3-0.9-1.4-1.5-1.9-1.3c-0.5,0.2-0.7,0.6-0.3,1c0.4,0.3,1,0.4,1.1,1.2c-0.6-0.7-1.5-0.9-1.9-0.5c-0.3,0.3-0.2,0.9,0.4,0.9   c0.9,0.1,0.3,1,1.3,1.8c-0.9-1-1.7-1.1-2.2-0.5c-0.3,0.3,0,0.9,0.6,0.8C233.9,181.5,234.9,183.7,236.3,184.3L236.3,184.3z"/>
    <g><path class="st3" d="M243.8,189.8L243.8,189.8c-0.6-0.9-1.4-1.1-2.1-1.2c-0.5-0.1-1-0.2-1.3-0.5l0.1,0c0.3,0.3,0.8,0.4,1.3,0.5    c0.7,0.1,1.5,0.3,2.1,1.1c0-0.5-0.2-1-0.5-1.6c-0.5-0.9-1-1.9-0.4-2.7c-2.1,0-2.8-0.9-3.7-1.8c-0.4-0.4-0.7-0.8-1.3-1.2    c-1.2-0.9-1.4-1.8-1.9-3.3l-0.2-0.8c-0.2-0.8-1-1.3-1.6-1.3c-0.5,0.1-0.7,0.3-0.7,0.5l0.6,0.7c0.3,0.2,0.7,0.4,0.8,1    c-0.4-0.4-0.9-0.7-1.3-0.7l-0.6,0.7c0.9,0.4,1,0.7,1.1,1c0.1,0.2,0.1,0.5,0.4,0.9c-0.7-0.5-1.2-0.7-1.6-0.4c0.5-0.5,1-0.1,1.6,0.4    c-0.3-0.3-0.4-0.6-0.4-0.8c-0.1-0.3-0.1-0.6-0.6-0.6h0l-0.5-0.4l0.7-0.8c0.5,0,1,0.3,1.3,0.7c-0.1-0.6-0.5-0.8-0.8-1l-0.6-0.7    c0-0.2,0.2-0.4,0.5-0.5c0.9,0,1.7,0.5,2,1.3l0.2,0.8c0.4,1.5,0.7,2.4,1.9,3.3c0.5,0.4,0.9,0.8,1.3,1.2c0.8,0.9,1.6,1.7,3.6,1.8    c-0.5,0.8-0.1,1.8,0.4,2.7C243.6,188.6,243.9,189.2,243.8,189.8L243.8,189.8L243.8,189.8z M241.1,188l0.2,0    c-2.7-0.2-3.7-1-4.6-1.7l0.6,0c-0.8-0.3-1.3-0.9-1.7-1.3c-0.3-0.3-0.5-0.6-0.9-0.7c0.3-0.2,0.5-0.2,0.8-0.2l0.4,0.1l-1,0.1    c0.2,0.1,0.5,0.4,0.8,0.7c0.4,0.5,0.9,1,2.2,1.4l-0.8,0.1c0.5,0.6,1.5,1.4,3.6,1.4c0.4,0,0.6,0.1,0.6,0.2L241.1,188L241.1,188z     M236,184.2c-0.6-0.4-1.1-0.9-1.5-1.4c-0.5-0.6-1.1-1.1-1.5-1.2c-0.4,0-0.6-0.1-0.7-0.4c0-0.1,0.1-0.2,0.1-0.3    c0,0.5,0.2,0.6,0.5,0.6c0.6,0,1.1,0.6,1.6,1.2C235,183.2,235.5,183.8,236,184.2L236,184.2L236,184.2z"/></g>
    <path class="st4"
          d="M260.1,192.8c-0.5,0.1-0.3,0.9-1,0.9c1.5,0,2.3-0.4,3-0.9c-0.3,0.2-0.5,0.7-0.5,1c0.8-0.7,2.7-0.7,3.7-0.5   c1,0.2,1.2-0.3,1.5-0.9c0.4-0.6-0.1-1-0.6-1.5c-0.5-0.5-0.6-1.2-0.5-2.3c-2.6-3.5-7.3-1.8-7.4-0.3c1.7,2,1.9,1.8,3.3,2   c1.4,0.3,2.3,0.3,1.3,1.1c-0.3,0.3-1.7,0.1-2.8,0.2c-2.4,0.1-3.5-1.7-4.2-0.7c-0.6,0.8,0,1.1,1.2,1c-0.8,0-1.9,0-1.7,0.7   c0.3,1.3,1.5-0.2,2,0.3c-0.4-0.1-1,0.2-1.1,0.5c0,0.4,0.9,0.9,1.9,0.1C259,192.9,259.7,192.8,260.1,192.8L260.1,192.8z"/>
    <g><path class="st3" d="M257.3,193.9c-0.3,0-0.6-0.1-0.7-0.3c0-0.1,0-0.1,0-0.2c0.5,0.6,0.9,0.7,1.8,0c0.6-0.5,1.3-0.6,1.7-0.6    c-0.5,0.7-0.6,0.9-1,1c1.5-0.1,2.3-0.5,2.8-0.9c-0.2,0.3-0.3,0.6-0.3,0.9c0.6-0.6,2.5-0.8,3.7-0.6c0.9,0,1.1-0.3,1.4-0.8    c0.4-0.7,0-1-0.4-1.4c-0.6-0.6-0.8-1.3-0.7-2.5c-1-1.3-2.4-2-4-2c-1.8,0-3.3,0.9-3.3,1.8c1.5,1.7,1.8,1.7,2.8,1.9l1.1,0.2    c0.7,0.1,1.1,0.2,1.2,0.4c0,0.2-0.1,0.3-0.4,0.6c-0.2,0.2-0.7,0.2-1.4,0.2l-0.7,0l-0.7,0c0,0,0,0,0,0c-1.3,0-2.1-0.4-2.7-0.7    c-0.2-0.1-0.4-0.2-0.6-0.3c0.2,0,0.4,0.1,0.6,0.2c0.6,0.3,1.4,0.7,2.5,0.7l0.9,0l0.7,0v0c0.6,0,1.2,0,1.4-0.2    c0.3-0.2,0.4-0.4,0.4-0.5c0-0.2-0.5-0.3-1.2-0.4l-1.1-0.2l0,0c-1-0.2-1.4-0.2-2.9-2c0-0.9,1.5-1.8,3.4-1.8c1.6,0,3.1,0.7,4.1,2.1    c-0.1,1.2,0,1.9,0.5,2.3c0.6,0.6,1,0.9,0.6,1.5c-0.3,0.6-0.5,1-1.1,1c-0.7-0.1-1.1-0.1-1.5-0.1c-1.1,0-2.1,0.2-2.5,0.6    c0-0.2,0-0.6,0.3-0.9c-0.5,0.5-1.3,0.9-2.8,0.9c0.3-0.1,0.4-0.3,0.5-0.5c0-0.4-0.7-0.2-1.3,0.2C258,193.8,257.5,193.9,257.3,193.9    L257.3,193.9z M256.1,191.8c0.2-0.1,0.3-0.1,0.5-0.1c-0.4,0-0.7-0.1-0.8-0.3c-0.1-0.2,0-0.4,0.2-0.7c0.1-0.1,0.3-0.1,0.4-0.1    c-0.6,0.4-0.6,0.6-0.5,0.8c0.1,0.2,0.5,0.3,1.1,0.4C256.6,191.8,256.3,191.8,256.1,191.8L256.1,191.8z"/></g>
    <path class="st4"
          d="M270.1,210.8c-0.4,0.1-0.4,0.7-0.6,0.7c1.1,0,1.6-0.4,2-1c-0.2,0.2,0,0.7-0.1,0.8c0.8-0.3,1.2-1.1,0.9-1.6   c0.2,0.3,0.7,0.4,0.9,0.5c-0.6-0.5-0.2-1.6-1.1-2.2c0.3,0,0.9,0.4,1.1,0.8c-0.1-1-0.3-1.6-1-2.2c0.1,0.1,0.5,0.2,0.7,0   c-0.5-0.3-0.6-0.9-0.6-1.3c0.1-0.5-0.2-0.6-0.8-0.4c-0.5,0.1-1.7,0.2-2.4,0.2c-1.4,0-2.7,0-3.8-0.9c1.8,0.8,4-0.9,4-2.3   c0-1.6-1.7-2.8-5.3-2c-3.5,0.8-7.8,0.5-7.8-0.8c0-1.3,3.1-1.5,4.7-1.2c1.6,0.3,2.7,0.4,5.7-0.7c-0.7,0.3-3.1,0.4-5-0.2   c-1.9-0.6-6.4-0.6-6.5,2.1c0,2.7,4.9,2.5,9.1,1.8c2.5-0.4,3.8-0.1,3.8,0.8c0,0.8-2.3,1.2-4,1c-1.7-0.2-3.5-0.2-5.6,0.5   c-1.7,0.6-2.9,0-4.8,0.4c-0.9,0.2-3.2,0-4.3-2c-0.7,0.5-2.7,1.7-3.1,2.7c-0.5,1-0.2,2,0.5,3c0.8,1.2-0.4,1.1-1.3,1.1   c-1.2,0.1-2.8-0.1-3.6-1.2c-0.7-0.9-1.7-1.7-2.5-1c-0.4,0.4,0,0.8,0.3,0.7c0.3-0.1,0.7,0.1,1,0.3c-0.6-0.3-1.1-0.1-1.4,0.2   c-0.3,0.3,0.1,0.9,0.4,0.7c0.3-0.2,0.9-0.3,1.3,0.1c-0.4-0.1-0.9-0.1-1.1,0.2c-0.2,0.3,0,0.6,0.4,0.6c0.8,0,0.9,0.5,1.7,0.4   c-0.5,0.1-0.7,0.3-0.9,0.5c0.7-0.4,1.5,0.6,2.4,0.4c-0.4,0.2-0.9,0.6-0.9,0.8c0.5-0.7,4.2,0.5,4.3-1c0.1,0.3,0.1,0.8-0.2,1.2   c0.5-0.3,2-0.4,2.5-1.6c0,0.4,0,0.8-0.3,0.9c0.5,0.2,1.1-0.2,1.8-1.3c0.3-0.4,0.3-0.7,0.3-1c0.6,0,1.1-0.2,1.6-0.6   c0.5-0.5,1.1,0.4,2-0.2c0.9-0.6,1.7-0.1,2.2-0.4c0.5-0.3,1.2,0.1,1.7-0.2c0.5-0.4,1.3,0.2,2.2-0.6c1.4,0.6,3,1.6,6.9,0.8   c2.3-0.5,3,0.4,3,1.5c0,0.8-0.4,0.8-0.7,0.9c-1.3,0.1-1.8-0.5-2.3-0.3c-0.3,0.1-0.5,0.7-0.1,0.9c-0.4,0.2-0.3,0.6-0.1,0.8   c0.2,0.2,0.7,0,1.1-0.2c-0.5,0.2-0.9,0.6-0.7,1.1c0.2,0.3,0.6,0.5,1-0.1C269,211.2,269.7,210.7,270.1,210.8L270.1,210.8z"/>
    <g><path class="st3" d="M268.1,212.1l-0.5-0.3c0-0.1,0-0.2,0-0.3L268.1,212.1c0.2-0.1,0.3-0.2,0.5-0.4c0.4-0.5,1-1,1.5-1l0,0    c-0.5,0.1-1.1,0.5-1.4,1C268.4,212.1,268.2,212.1,268.1,212.1L268.1,212.1z M246.7,211.5c0.2-0.5,0.2-0.9,0.1-1.2    c0,0.7-0.8,0.8-1.6,0.8l-1.7-0.1c-0.5,0-0.8,0.1-0.9,0.2c0-0.2,0.2-0.4,0.4-0.6c-0.2,0.2-0.4,0.4-0.4,0.6c0.1-0.2,0.4-0.3,0.9-0.3    l1.7,0.1c1.1,0,1.6-0.2,1.6-0.8C247,210.6,247,211,246.7,211.5c0.1-0.1,0.3-0.2,0.6-0.3c0.6-0.2,1.5-0.5,1.8-1.4    c0.1,0.2,0.1,0.5,0,0.7c0-0.2,0-0.5,0-0.7c-0.3,0.9-1.2,1.2-1.8,1.4C247,211.3,246.8,211.4,246.7,211.5L246.7,211.5z M271.4,211.4    L271.4,211.4c0.4-0.2,0.8-0.6,0.9-0.9c0.1-0.2,0.1-0.5,0-0.7c0.2,0.2,0.7,0.4,0.9,0.4c-0.3-0.2-0.4-0.5-0.4-0.9    c-0.1-0.5-0.2-0.9-0.7-1.3c0.4,0,0.9,0.3,1.1,0.8c-0.2-1-0.3-1.6-1-2.1c0.8,0.5,0.9,1.2,1,2.1c-0.2-0.4-0.8-0.8-1.1-0.8    c0.5,0.3,0.6,0.8,0.7,1.2c0.1,0.3,0.1,0.7,0.4,0.9c-0.2,0-0.6-0.1-0.9-0.3c0.1,0.2,0.1,0.4,0,0.6    C272.2,210.9,271.8,211.2,271.4,211.4L271.4,211.4z M249.1,210.8C249.1,210.8,249.1,210.8,249.1,210.8c0.6-0.2,1.1-0.6,1.5-1.4    c0.2-0.4,0.3-0.7,0.3-1c0.7,0,1.2-0.2,1.6-0.7l0.3,0c-0.8,0.5-1.2,0.7-1.8,0.7c0,0.3-0.1,0.6-0.4,1    C250.1,210.4,249.5,210.8,249.1,210.8L249.1,210.8z M267.3,210.2l-0.3-0.4c0-0.2,0.2-0.5,0.4-0.5l0.8,0.1c0.3,0.1,0.7,0.2,1.3,0.2    c0.5,0,0.9-0.1,0.9-0.8c0-1.4-0.9-1.9-2.9-1.5c-3.5,0.7-5.2,0-6.4-0.6c-1,0.2-1.5,0.2-1.9,0.2c-0.4,0-0.6,0-0.8,0.1l0,0l-2.4,0.3    c-0.6,0-1,0-1.4,0.3c-0.2,0.2-0.5,0.2-0.7,0.2l-0.7-0.1l0.2,0c0.8,0.1,1,0,1.2-0.1c0.4-0.3,0.8-0.3,1.1-0.3l0.6,0l2.2-0.3l0,0    c0.2-0.1,0.5-0.1,0.7-0.2c0.6,0,1,0,1.5-0.4c2,0.8,3.5,1.5,6.9,0.8c2.5-0.5,3,0.6,3,1.5c0,0.8-0.5,0.9-0.8,0.9    c-0.8-0.1-1.2-0.1-1.5-0.2l-0.7-0.1l-0.4,0.5L267.3,210.2L267.3,210.2L267.3,210.2z M244.9,208.5c-0.9,0-2.4-0.2-3.3-1.2    c-0.4-0.6-1.5-1.5-2.2-1.1c1-0.8,1.8,0.5,2.3,1.1C242.5,208.3,244.1,208.4,244.9,208.5l0.8,0v0c0.5,0,1,0,1.1-0.3    c0.1-0.2,0-0.4-0.2-0.8c-0.8-1.2-0.9-2.1-0.5-3c0.3-0.8,1.5-1.7,2.4-2.3l0.7-0.5c1.1,1.9,3.1,2.1,3.7,2.1c1.1-0.2,1.6-0.2,2.1-0.2    l1.5,0c0.5,0,1.1,0,1.8-0.3c1.9-0.6,3.8-0.7,5.6-0.5c1.7,0.2,4-0.1,4-0.9c0-0.9-1.3-1.1-3.7-0.7c-3.7,0.6-7.5,0.6-8.7-0.5    c-0.3-0.3-0.5-0.8-0.5-1.3c0-2.3,3.2-2.5,4.2-2.5c0.8,0,1.7,0.1,2.4,0.3c1.5,0.5,3.9,0.5,4.9,0.2l0,0l0,0c-0.1,0-0.1,0.1-0.2,0.1    c-2.4,1-3.8,0.9-5.4,0.6c-1.5-0.3-4.6-0.1-4.6,1.2c0,0.5,0.6,0.8,1.1,0.9c1.5,0.5,4.4,0.4,6.7-0.1c3.6-0.9,5.3,0.7,5.3,2    c0,1.5-2.5,3-4.1,2.3c1.2,0.8,2.4,0.8,3.8,0.8c0.6,0,1.8-0.1,2.4-0.2l0.2,0l-0.2,0c-0.5,0.2-1.7,0.2-2.4,0.2c-1.4,0-2.7,0-3.9-0.9    c1.8,0.5,4-1,4-2.3c0-1.8-2.2-2.7-5.2-2c-2.3,0.5-5.2,0.6-6.7,0.1c-0.8-0.2-1.2-0.6-1.2-1c0-1.3,3.1-1.5,4.7-1.2    c1.6,0.3,2.9,0.3,5.2-0.6c-1.1,0.3-3.2,0.2-4.5-0.3c-0.6-0.2-1.5-0.3-2.3-0.3c-1,0-4.1,0.2-4.1,2.4c0,0.5,0.2,0.9,0.5,1.2    c1.1,1.2,5,1.1,8.6,0.5c2.5-0.4,3.8-0.1,3.8,0.8c0,0.9-2.3,1.2-4.1,1c-1.8-0.2-3.7-0.1-5.6,0.5c-0.7,0.2-1.3,0.3-1.8,0.3l-1.5,0    c-0.5,0-0.9,0-1.5,0.1l-0.6,0c-0.6,0-2.6-0.1-3.7-2.1l-0.6,0.5c-0.9,0.6-2.1,1.4-2.4,2.3c-0.4,0.9-0.3,1.8,0.5,2.9    c0.3,0.4,0.3,0.7,0.2,0.8c-0.1,0.3-0.7,0.3-1.2,0.3L244.9,208.5L244.9,208.5z"/></g>
    <path class="st4"
          d="M245.2,199.1c-1.1-0.5-1.5-0.5-1.3,0.5c0.1,0.4,0.4,1,0.7,1.3C244.6,200.5,244.7,199.3,245.2,199.1   L245.2,199.1z"/>
    <g><path class="st3" d="M244.6,201L244.6,201c-0.3-0.3-0.6-1-0.7-1.4c-0.1-0.4-0.1-0.6,0-0.8c0.1,0,0.2,0,0.3,0    c-0.3,0.2-0.3,0.4-0.2,0.8c0.1,0.4,0.3,1,0.6,1.3c0-0.5,0.2-1.5,0.6-1.8c-0.5-0.2-0.8-0.3-1-0.3c0.4,0,0.6,0.1,1,0.3    C244.8,199.3,244.6,200.4,244.6,201L244.6,201L244.6,201z"/></g>
    <path class="st4"
          d="M248.7,199.1c1.1-0.5,1.5-0.5,1.3,0.5c-0.1,0.4-0.4,1-0.7,1.3C249.3,200.5,249.2,199.3,248.7,199.1   L248.7,199.1z"/>
    <g><path class="st3" d="M249.3,201L249.3,201c0-0.6-0.2-1.7-0.6-1.9c0.5-0.3,0.9-0.4,1.1-0.4c0.1,0,0.1,0.1,0.2,0.1    c-0.4-0.1-0.7,0-1.2,0.3c0.4,0.2,0.6,1.3,0.6,1.7c0.2-0.3,0.5-0.8,0.6-1.3c0.1-0.3,0.1-0.5,0.1-0.6c0.1,0.2,0.1,0.3,0,0.6    C249.9,200,249.6,200.6,249.3,201L249.3,201L249.3,201z"/></g>
    <path class="st4"
          d="M246.9,198.4c2.2,0,2.4,1.1,2.4,2.5c0,1.5-0.7,1-1.2,2.9c-0.2,0.8-0.7,0.8-1.3,0.8c-0.6,0-1.1,0-1.3-0.8   c-0.4-1.9-1.2-1.4-1.2-2.9C244.5,199.5,244.8,198.4,246.9,198.4L246.9,198.4z"/>
    <g><path class="st3" d="M246.9,204.6c-0.6,0-1.1-0.1-1.3-0.8c-0.2-0.9-0.5-1.3-0.7-1.6c-0.2-0.3-0.4-0.6-0.4-1.3    c0-1.3,0.2-2.5,2.4-2.5c0.9,0,1.5,0.2,1.9,0.6c0.5,0.5,0.5,1.2,0.5,1.9c0,0.8-0.2,1-0.4,1.3c-0.2,0.3-0.5,0.6-0.7,1.6    C248.1,204.5,247.5,204.6,246.9,204.6L246.9,204.6z M246.9,198.4c-2.2,0-2.4,1.2-2.4,2.5c0,0.7,0.2,1,0.4,1.3    c0.2,0.3,0.5,0.7,0.7,1.6c0.3,1.4,2.1,1.4,2.4,0c0.2-0.9,0.5-1.3,0.7-1.6c0.2-0.3,0.4-0.5,0.4-1.3c0-0.7-0.1-1.4-0.5-1.9    C248.4,198.6,247.8,198.4,246.9,198.4L246.9,198.4z"/></g>
    <path class="st4"
          d="M241.4,203.8c-0.6-0.4-0.9-0.1-1.1,0c0.7,0.2,0.7,1.2,2.4,1.7c-0.4-0.1-0.6,0.1-0.9-0.1c0.7,0.6,1.4,1.3,3,1.3   c0.9,0,0.3,0.5-0.3,0.2c0.6,0.7,1.8,0.1,2.5,1.4c0.1-1-1.4-2.5-0.7-3.6c-2.2-0.1-2.4-1.4-3.6-2.5c-1-0.9-1.1-1.7-1.6-3.4   c-0.2-0.7-1-1.2-1.4-1c-0.4,0.2-0.5,0.5-0.2,0.8c0.3,0.3,0.8,0.3,0.8,1c-0.4-0.6-1.1-0.8-1.4-0.4c-0.2,0.2-0.1,0.7,0.3,0.8   c0.7,0.1,0.2,0.8,0.9,1.5c-0.7-0.8-1.2-0.9-1.6-0.4c-0.2,0.3,0,0.7,0.5,0.7C239.6,201.5,240.4,203.4,241.4,203.8L241.4,203.8z"/>
    <g><path class="st3" d="M247,208.3L247,208.3c-0.5-0.8-1-0.9-1.6-1c-0.4-0.1-0.7-0.1-1-0.4l0.3,0c0.1,0.3,0.4,0.4,0.7,0.4    c0.5,0.1,1.1,0.2,1.5,0.9c0-0.4-0.2-0.8-0.4-1.3c-0.3-0.7-0.7-1.5-0.3-2.2c-1.5,0-2.1-0.7-2.7-1.5c-0.3-0.3-0.5-0.7-0.9-1    c-0.9-0.7-1.1-1.5-1.4-2.7l-0.2-0.7c-0.2-0.6-0.8-1-1.2-1l-0.6,0.4l0.4,0.6c0.3,0.2,0.5,0.3,0.6,0.8c-0.2-0.2-0.4-0.4-0.6-0.5    c0.3,0.1,0.5,0.2,0.6,0.4c-0.1-0.5-0.4-0.6-0.6-0.8l-0.5-0.6l0.6-0.5c0.5,0,1.1,0.4,1.3,1.1l0.2,0.7c0.3,1.2,0.5,1.9,1.4,2.7    c0.4,0.3,0.7,0.7,0.9,1c0.6,0.8,1.2,1.4,2.7,1.5c-0.4,0.7,0,1.4,0.3,2.2C246.8,207.4,247,207.8,247,208.3L247,208.3L247,208.3z     M244.7,206.8c-1.7-0.2-2.4-0.8-3-1.3h0.1c0.7,0.6,1.4,1.2,2.9,1.2C244.7,206.7,244.7,206.7,244.7,206.8L244.7,206.8z     M242.6,205.4l-0.4,0l0.2,0c-0.8-0.2-1.2-0.7-1.5-1c-0.2-0.3-0.4-0.5-0.6-0.5l0.2,0c0.2,0.1,0.3,0.3,0.5,0.5    C241.3,204.7,241.7,205.2,242.6,205.4L242.6,205.4z M241.2,203.7c-0.4-0.2-0.8-0.7-1.2-1.1c-0.4-0.5-0.8-1-1.1-1l-0.6-0.3l0.6-0.7    c0.3,0,0.5,0.1,0.8,0.4c-0.2-0.2-0.3-0.4-0.3-0.6c-0.1-0.3-0.1-0.5-0.4-0.5l-0.1-0.2c0.4,0.2,0.5,0.4,0.5,0.7    c0,0.2,0.1,0.4,0.3,0.7c-0.3-0.3-0.6-0.4-0.9-0.4l-0.5,0.7c0.9,0.2,1.2,0.7,1.6,1.2C240.5,203,240.8,203.5,241.2,203.7    L241.2,203.7z"/></g>
    <path class="st4"
          d="M259,210.7c-0.3,0.1-0.2,0.7-0.7,0.7c1.1,0,1.7-0.3,2.2-0.8c-0.3,0.2-0.3,0.6-0.4,0.8c0.6-0.6,2-0.6,2.7-0.4   c0.7,0.2,0.9-0.2,1.1-0.7c0.3-0.5-0.1-0.8-0.5-1.2c-0.4-0.4-0.4-1-0.4-1.9c-1.9-2.8-5.4-1.5-5.5-0.2c1.3,1.6,1.4,1.4,2.5,1.6   c1.1,0.2,1.7,0.2,1,0.9c-0.2,0.2-1.3,0.1-2,0.2c-1.8,0.1-2.6-1.3-3.1-0.6c-0.4,0.6,0,0.9,0.9,0.8c-0.6,0-1.4,0-1.3,0.6   c0.2,1,1.1-0.2,1.5,0.2c-0.3-0.1-0.8,0.1-0.8,0.4c0,0.3,0.7,0.7,1.4,0.1C258.2,210.9,258.7,210.7,259,210.7L259,210.7z"/>
    <g><path class="st3" d="M256.9,211.6l-0.5-0.2c0-0.1,0-0.2,0-0.2L256.9,211.6c0.2-0.1,0.5-0.1,0.8-0.4c0.4-0.4,1-0.5,1.3-0.5    l-0.1,0.1c-0.3,0-0.8,0.2-1.2,0.5C257.4,211.6,257.1,211.6,256.9,211.6L256.9,211.6z M260.2,211.5c0-0.1,0-0.5,0.2-0.7    c-0.5,0.5-1.1,0.7-2.1,0.7l0.1-0.1c1.1,0,1.6-0.3,2-0.7C260.3,211,260.2,211.3,260.2,211.5c0.4-0.5,1.8-0.7,2.7-0.5    c0.7,0,0.8-0.2,1-0.6c0.3-0.6,0-0.8-0.3-1.2c-0.5-0.5-0.6-1.1-0.5-2c-1.6-2.3-5.4-1.5-5.4-0.2c1.1,1.4,1.4,1.4,2.1,1.5l0.8,0.2    c0.5,0.1,0.8,0.2,0.9,0.3c-0.1,0.1-0.2,0.3-0.3,0.3c0.2-0.5-0.2-0.5-0.6-0.6l-0.8-0.2l0,0c-0.7-0.1-1-0.2-2.1-1.6    c0-1.3,3.9-2.2,5.5,0.2c-0.1,1,0,1.5,0.4,1.9c0.4,0.5,0.7,0.8,0.5,1.2c-0.3,0.5-0.4,0.8-0.9,0.8c-0.5-0.1-0.8-0.1-1.1-0.1    C261.2,211,260.5,211.2,260.2,211.5L260.2,211.5z M256,211l-0.3-0.8c0.1-0.2,0.4-0.2,0.7-0.2c-0.3,0-0.4-0.1-0.5-0.3l0.5-0.8    c0.2,0,0.4,0.1,0.7,0.3c0.5,0.2,1.1,0.5,1.9,0.5l0.6,0c0.7,0,1,0,1.3,0c-0.2,0.1-0.5,0.1-0.8,0.1l-1,0v0c0,0,0,0,0,0    c-1,0-1.6-0.3-2-0.5c-0.3-0.2-0.5-0.3-0.7-0.3l-0.5,0.7c0.1,0.2,0.4,0.3,0.8,0.3c-0.4,0.1-0.8,0.1-1,0.3L256,211l0.9-0.4    c-0.1,0-0.1,0.1-0.2,0.1c0.1,0,0.2-0.1,0.3-0.1l-0.3,0.1c-0.1,0-0.1,0.1-0.2,0.2c0-0.1,0.1-0.1,0.1-0.1L256,211L256,211z"/></g>
    <g><path class="st5" d="M263.6,165.5c-0.9-0.3-1.8-0.6-2.9-0.3L263.6,165.5z"/></g>
    <g><path class="st5" d="M249.2,165c-0.8,1.7-0.3,2.5-0.2,3.3L249.2,165z"/></g>
    <g><path class="st5" d="M240.9,157.1c0.5,0.3,0.8-0.5,1.6,0.3c-0.2-0.2-0.5,0.6-1.1,0.1L240.9,157.1z"/></g>
    <g><path class="st5" d="M245.3,157.1c-0.5,0.3-0.8-0.5-1.6,0.3c0.2-0.2,0.5,0.6,1.1,0.1L245.3,157.1z"/></g>
    <g><path class="st3" d="M243.1,159.9c-0.4,0-0.6-0.1-0.7-0.2c-0.2-0.2-0.1-0.6,0-1.2l0.1-0.5l-0.1,0.5c-0.1,0.6-0.2,1,0,1.2    c0.2,0.2,1.1,0.3,1.3,0c0.2-0.2,0.1-0.6,0-1.2l-0.2-0.8l0-0.1l0.2,0.9c0.1,0.6,0.2,1,0,1.2C243.7,159.9,243.5,159.9,243.1,159.9    L243.1,159.9z"/></g>
    <path class="st6"
          d="M243.1,162.4c0.9,0,1.4,0,1.2-1.2c-0.1-0.5,0.6-0.7,0.4-1.5c0.3,1-1.6,0.9-1.6,0.4c0,0.4-1.8,0.5-1.6-0.4   c-0.2,0.8,0.4,1,0.4,1.5C241.7,162.4,242.3,162.4,243.1,162.4L243.1,162.4z"/>
    <g><path class="st3" d="M243.1,162.5c-0.5,0-0.9,0-1.1-0.2c-0.2-0.2-0.2-0.5-0.2-1c-0.3-0.7-0.5-1-0.4-1.5c0.5,1.4,1.6,0.8,1.6,0.5    c0,0,0,0,0,0c0.1,0.4,0.8,0.3,1.2,0.2c-0.3,0.2-1.1,0.2-1.2-0.2c0,0.4-1.2,0.4-1.5,0l0.3,1c-0.1,0.5,0,0.8,0.1,1    c0.4,0.5,1.7,0.5,2.1,0c0.2-0.2,0.2-0.5,0.2-1c0-0.1,0.1-0.1,0.1-0.2l0,0.2c0.1,0.5,0,0.8-0.2,1    C244,162.5,243.6,162.5,243.1,162.5L243.1,162.5z"/></g>
    <g><path class="st5" d="M242.3,160l-2.1-0.6L242.3,160z"/></g>
    <g><path class="st5" d="M242.3,160.1l-2.3,0L242.3,160.1z"/></g>
    <g><path class="st5" d="M242.4,160.2l-2,0.5L242.4,160.2z"/></g>
    <g><path class="st5" d="M243.9,160l2.1-0.6L243.9,160z"/></g>
    <g><path class="st5" d="M243.9,160.1l2.3,0L243.9,160.1z"/></g>
    <g><path class="st5" d="M243.9,160.2l2,0.5L243.9,160.2z"/></g>
    <g><path class="st5" d="M262.1,187.4c-0.9-0.3-1.6-0.5-2.6-0.3L262.1,187.4z"/></g>
    <g><path class="st5" d="M249.2,187c-0.7,1.5-0.3,2.3-0.2,3L249.2,187z"/></g>
    <g><path class="st5" d="M241.8,179.8c0.5,0.2,0.7-0.4,1.5,0.3c-0.2-0.2-0.4,0.6-1,0L241.8,179.8z"/></g>
    <g><path class="st5" d="M245.7,179.8c-0.5,0.2-0.8-0.4-1.5,0.3c0.2-0.2,0.4,0.6,1,0L245.7,179.8z"/></g>
    <g><path class="st3" d="M243.7,182.4c-0.3,0-0.5-0.1-0.6-0.2c-0.2-0.2-0.1-0.6,0-1.1l0.1-0.5l-0.1,0.5c-0.1,0.5-0.2,0.9,0,1    L243.7,182.4l0.6-0.2c0.2-0.2,0.1-0.5-0.1-1.1l-0.1-0.7l0.1-0.1l0.2,0.8c0.1,0.6,0.2,0.9,0,1.1L243.7,182.4L243.7,182.4z"/></g>
    <path class="st6"
          d="M243.7,184.7c0.8,0,1.2,0,1.1-1.1c0-0.4,0.5-0.6,0.3-1.3c0.2,0.9-1.4,0.8-1.4,0.4c0,0.4-1.7,0.5-1.4-0.4   c-0.2,0.7,0.4,0.9,0.3,1.3C242.5,184.7,243,184.7,243.7,184.7L243.7,184.7z"/>
    <g><path class="st3" d="M243.7,184.7c-0.4,0-0.8,0-1-0.2c-0.2-0.2-0.2-0.5-0.2-0.9c-0.3-0.7-0.4-0.9-0.3-1.3c0.5,1.2,1.4,0.7,1.4,0.4    c0,0,0,0,0,0c0,0.4,0.8,0.3,1.1,0.2c-0.3,0.2-1,0.2-1.1-0.2c0,0.4-1.1,0.3-1.4,0l0.3,0.9c-0.1,0.4,0,0.7,0.1,0.9    c0.4,0.4,1.6,0.4,1.9,0c0.1-0.2,0.2-0.4,0.1-0.9c0,0,0-0.1,0-0.1l0,0.1h0c0.1,0.5,0,0.7-0.1,0.9    C244.5,184.7,244.2,184.7,243.7,184.7L243.7,184.7z"/></g>
    <g><path class="st5" d="M243,182.5l-1.9-0.5L243,182.5z"/></g>
    <g><path class="st5" d="M243,182.6l-2.1,0L243,182.6z"/></g>
    <g><path class="st5" d="M243.1,182.7l-1.8,0.5L243.1,182.7z"/></g>
    <g><path class="st5" d="M244.4,182.5l1.9-0.5L244.4,182.5z"/></g>
    <g><path class="st5" d="M244.4,182.6l2.1,0L244.4,182.6z"/></g>
    <g><path class="st5" d="M244.4,182.7l1.8,0.5L244.4,182.7z"/></g>
    <g><path class="st5" d="M260.6,206.4c-0.6-0.3-1.2-0.4-1.9-0.2L260.6,206.4z"/></g>
    <g><path class="st5" d="M251,206.1c-0.5,1.2-0.2,1.8-0.1,2.4L251,206.1z"/></g>
    <g><path class="st5" d="M245.5,200.2c0.4,0.2,0.6-0.4,1.1,0.2c-0.1-0.2-0.3,0.5-0.7,0L245.5,200.2z"/></g>
    <g><path class="st5" d="M248.4,200.2c-0.4,0.2-0.6-0.4-1.1,0.2c0.1-0.2,0.3,0.5,0.7,0L248.4,200.2z"/></g>
    <g><path class="st3" d="M247.4,202.2h-0.9c-0.1-0.2-0.1-0.5,0-0.9l0.1-0.7l-0.1,0.8c-0.1,0.4-0.2,0.7,0,0.9L247.4,202.2    c0.1-0.2,0-0.5-0.1-0.9l0-0.3l0.1,0.3C247.5,201.7,247.5,202,247.4,202.2L247.4,202.2z"/></g>
    <path class="st6"
          d="M246.9,204.2c0.6,0,0.9,0,0.8-0.9c0-0.4,0.4-0.5,0.2-1.1c0.2,0.7-1.1,0.6-1.1,0.3c0,0.3-1.2,0.4-1.1-0.3   c-0.2,0.6,0.3,0.7,0.2,1.1C246,204.2,246.4,204.2,246.9,204.2L246.9,204.2z"/>
    <g><path class="st3" d="M246.9,204.2c-0.3,0-0.6,0-0.7-0.2c-0.1-0.1-0.1-0.3-0.1-0.5c0,0.3,0.1,0.4,0.2,0.5c0.3,0.3,1.1,0.3,1.4,0    c0.1-0.1,0.2-0.4,0.1-0.7c0.1-0.1,0.1-0.3,0.2-0.4c-0.1,0.7-0.1,1-0.2,1.1C247.5,204.2,247.2,204.2,246.9,204.2L246.9,204.2z"/></g>
    <g><path class="st5" d="M246.4,202.4l-1.4-0.4L246.4,202.4z"/></g>
    <g><path class="st5" d="M246.4,202.4l-1.6,0L246.4,202.4z"/></g>
    <g><path class="st5" d="M246.4,202.5l-1.3,0.4L246.4,202.5z"/></g>
    <g><path class="st5" d="M247.5,202.4l1.4-0.4L247.5,202.4z"/></g>
    <g><path class="st5" d="M247.5,202.4l1.6,0L247.5,202.4z"/></g>
    <g><path class="st5" d="M247.4,202.5l1.3,0.4L247.4,202.5z"/></g>
    <path class="st7"
          d="M232.3,153.7c-0.6-0.8-2.1-0.1-2.2,0.8c0.5-0.6,1.3,0.3,1.8,0.1C232.3,154.5,232.6,154,232.3,153.7   L232.3,153.7z"/>
    <g><path class="st5" d="M232.3,153.7c-0.6-0.8-2.1-0.1-2.2,0.8c0.5-0.6,1.3,0.3,1.8,0.1C232.3,154.5,232.6,154,232.3,153.7z"/></g>
    <path class="st7"
          d="M231.5,155.5c-0.6-0.8-2.1-0.1-2.2,0.8c0.5-0.6,1.3,0.3,1.8,0.1C231.5,156.3,231.8,155.8,231.5,155.5   L231.5,155.5z"/>
    <g><path class="st5" d="M231.5,155.5c-0.6-0.8-2.1-0.1-2.2,0.8c0.5-0.6,1.3,0.3,1.8,0.1C231.5,156.3,231.8,155.8,231.5,155.5z"/></g>
    <path class="st7"
          d="M231.1,157.9c-0.7-0.7-2.1,0.1-2,1.1c0.4-0.7,1.4,0.1,1.8-0.1C231.2,158.7,231.4,158.2,231.1,157.9   L231.1,157.9z"/>
    <g><path class="st3" d="M229.1,159c0-0.3,0.1-0.6,0.3-0.8c0.5-0.5,1.3-0.7,1.7-0.2c0,0.1,0,0.2,0,0.2c-0.6-1.1-1.3-0.5-1.7,0    C229.2,158.4,229.1,158.7,229.1,159l0.5-0.3l0.6,0.1L229.1,159L229.1,159L229.1,159L229.1,159z"/></g>
    <path class="st7"
          d="M231.9,165.4c-0.8-0.6-2.1,0.4-1.9,1.3c0.4-0.7,1.4,0,1.8-0.3C232,166.1,232.2,165.6,231.9,165.4L231.9,165.4z   "/>
    <g><path class="st3" d="M230,166.7L230,166.7c-0.1-0.3,0-0.6,0.3-0.9c0.3-0.3,0.7-0.6,1.1-0.6l0.7,0.6c0,0.2-0.1,0.5-0.3,0.6l-0.2,0    c0.4-0.2,0.5-0.4,0.5-0.6l-0.7-0.6c-0.4,0-0.8,0.2-1.1,0.6C230,166,229.9,166.3,230,166.7c0.1-0.3,0.3-0.4,0.6-0.4l0.5,0h0    C230.2,166.3,230.1,166.4,230,166.7L230,166.7L230,166.7z"/></g>
    <path class="st7"
          d="M231.8,167c-0.9-0.3-1.9,1-1.4,1.8c0.1-0.8,1.3-0.5,1.6-0.9C232.2,167.7,232.2,167.1,231.8,167L231.8,167z"/>
    <g><path class="st5" d="M231.8,167c-0.9-0.3-1.9,1-1.4,1.8c0.1-0.8,1.3-0.5,1.6-0.9C232.2,167.7,232.2,167.1,231.8,167z"/></g>
    <path class="st7"
          d="M233,168.2c-0.9-0.3-1.9,1-1.4,1.8c0.1-0.8,1.3-0.5,1.6-0.9C233.4,168.9,233.4,168.3,233,168.2L233,168.2z"/>
    <g><path class="st5" d="M233,168.2c-0.9-0.3-1.9,1-1.4,1.8c0.1-0.8,1.3-0.5,1.6-0.9C233.4,168.9,233.4,168.3,233,168.2z"/></g>
    <path class="st7"
          d="M256.8,170.6c-0.9-0.3-1.9,1-1.4,1.8c0.1-0.8,1.3-0.5,1.6-0.9C257.2,171.2,257.2,170.7,256.8,170.6   L256.8,170.6z"/>
    <g><path class="st5" d="M256.8,170.6c-0.9-0.3-1.9,1-1.4,1.8c0.1-0.8,1.3-0.5,1.6-0.9C257.2,171.2,257.2,170.7,256.8,170.6z"/></g>
    <path class="st7"
          d="M258,171.7c-0.9-0.2-1.8,1.2-1.2,2c0-0.8,1.2-0.6,1.5-1C258.5,172.3,258.4,171.8,258,171.7L258,171.7z"/>
    <g><path class="st3" d="M256.8,173.6L256.8,173.6c-0.2-0.3-0.2-0.8,0-1.3c0.2-0.5,0.6-0.7,1-0.7c0.1,0.1,0.2,0.2,0.3,0.2    c-0.7-0.2-1.1,0.1-1.3,0.5C256.6,172.8,256.6,173.3,256.8,173.6c0-0.5,0.5-0.6,0.9-0.7c0.3-0.1,0.5-0.2,0.6-0.3c0,0,0-0.1,0.1-0.1    c0,0.1,0,0.1-0.1,0.1c-0.1,0.2-0.4,0.2-0.6,0.3C257.3,173,256.8,173.2,256.8,173.6L256.8,173.6L256.8,173.6z"/></g>
    <path class="st7"
          d="M257.1,169c-0.8-0.5-2,0.7-1.7,1.5c0.3-0.8,1.4-0.2,1.7-0.6C257.4,169.7,257.5,169.2,257.1,169L257.1,169z"/>
    <g><path class="st5" d="M257.1,169c-0.8-0.5-2,0.7-1.7,1.5c0.3-0.8,1.4-0.2,1.7-0.6C257.4,169.7,257.5,169.2,257.1,169z"/></g>
    <path class="st7"
          d="M274.1,170.9c-0.9-0.2-1.8,1.2-1.2,2c0-0.8,1.2-0.6,1.5-1C274.5,171.5,274.5,171,274.1,170.9L274.1,170.9z"/>
    <g><path class="st3" d="M272.9,172.9L272.9,172.9c-0.2-0.3-0.2-0.8,0-1.3c0.2-0.5,0.6-0.7,1-0.7c0.1,0.1,0.2,0.2,0.3,0.2    c-0.7-0.2-1.1,0.1-1.3,0.5C272.6,172.1,272.6,172.5,272.9,172.9c0-0.5,0.5-0.6,0.9-0.7c0.3-0.1,0.5-0.1,0.6-0.3c0,0,0-0.1,0.1-0.1    c0,0,0,0.1-0.1,0.1c-0.1,0.2-0.3,0.2-0.6,0.3C273.3,172.3,272.9,172.4,272.9,172.9L272.9,172.9L272.9,172.9z"/></g>
    <path class="st7"
          d="M274.1,169.4c-0.9-0.5-2,0.7-1.7,1.6c0.2-0.8,1.3-0.3,1.7-0.6C274.4,170.1,274.5,169.6,274.1,169.4   L274.1,169.4z"/>
    <g><path class="st5" d="M274.1,169.4c-0.9-0.5-2,0.7-1.7,1.6c0.2-0.8,1.3-0.3,1.7-0.6C274.4,170.1,274.5,169.6,274.1,169.4z"/></g>
    <path class="st7"
          d="M274.8,172.2c-0.9-0.2-1.7,1.3-1.1,2c0-0.8,1.2-0.7,1.4-1.1C275.2,172.8,275.2,172.3,274.8,172.2L274.8,172.2z   "/>
    <g><path class="st3" d="M273.6,174.3L273.6,174.3c-0.3-0.3-0.3-0.8,0-1.3c0.2-0.5,0.6-0.7,1-0.7c0.1,0.1,0.2,0.2,0.2,0.2    c-0.8-0.2-1.1,0.1-1.2,0.5C273.4,173.4,273.4,173.9,273.6,174.3c0-0.5,0.4-0.6,0.8-0.8c0.3-0.1,0.5-0.2,0.6-0.3c0,0,0-0.1,0-0.1    c0,0.1,0,0.1,0,0.1c-0.1,0.2-0.3,0.3-0.6,0.3C274.1,173.6,273.7,173.8,273.6,174.3L273.6,174.3L273.6,174.3z"/></g>
    <path class="st7"
          d="M243.2,161.7c0.6,0,0.8,0.2,0.8,1.3c0,2.3,0,3.3-0.8,3.3c-0.7,0-0.7-0.9-0.7-2.6c0-0.9,0-1.3-0.2-1.2   C242.4,161.8,242.7,161.7,243.2,161.7L243.2,161.7z"/>
    <g><path class="st3" d="M243.3,166.2l-0.4-0.2c-0.3-0.3-0.3-1-0.3-2.2c0-0.7,0-1.2,0-1.4c0,0.2,0,0.6,0,1.1c0,1.4,0,2.2,0.3,2.5    L243.3,166.2c0.7,0,0.8-1,0.8-3.3c0-1.1-0.2-1.2-0.8-1.2c-0.3,0-0.6,0-0.7,0.2c0.3-0.5,1.5-0.7,1.5,1    C244,165.2,244,166.2,243.3,166.2L243.3,166.2z"/></g>
    <path class="st7"
          d="M234,176.8c-0.6-0.7-1.9-0.1-1.9,0.7c0.5-0.5,1.2,0.2,1.6,0.1C234,177.5,234.2,177.1,234,176.8L234,176.8z"/>
    <g><path class="st5" d="M234,176.8c-0.6-0.7-1.9-0.1-1.9,0.7c0.5-0.5,1.2,0.2,1.6,0.1C234,177.5,234.2,177.1,234,176.8z"/></g>
    <path class="st7"
          d="M233.3,178.5c-0.5-0.7-1.9-0.1-1.9,0.7c0.5-0.5,1.2,0.2,1.6,0.1C233.3,179.1,233.5,178.7,233.3,178.5   L233.3,178.5z"/>
    <g><path class="st5" d="M233.3,178.5c-0.5-0.7-1.9-0.1-1.9,0.7c0.5-0.5,1.2,0.2,1.6,0.1C233.3,179.1,233.5,178.7,233.3,178.5z"/></g>
    <path class="st7"
          d="M233,180.6c-0.6-0.6-1.9,0.1-1.8,0.9c0.4-0.6,1.2,0.1,1.6-0.1C233,181.3,233.2,180.9,233,180.6L233,180.6z"/>
    <g><path class="st3" d="M231.1,181.6c0-0.2,0.1-0.5,0.3-0.7c0.4-0.5,1.2-0.6,1.6-0.2l0,0.1c-0.6-0.8-1.1-0.3-1.5,0.1    C231.2,181.1,231.1,181.3,231.1,181.6l0.5-0.3l0.5,0.1l0,0l0,0L231.1,181.6L231.1,181.6L231.1,181.6L231.1,181.6z"/></g>
    <path class="st7"
          d="M233.6,187.3c-0.7-0.5-1.9,0.3-1.7,1.2c0.3-0.6,1.2,0,1.6-0.3C233.7,188,233.9,187.5,233.6,187.3L233.6,187.3z   "/>
    <g><path class="st5" d="M233.6,187.3c-0.7-0.5-1.9,0.3-1.7,1.2c0.3-0.6,1.2,0,1.6-0.3C233.7,188,233.9,187.5,233.6,187.3z"/></g>
    <path class="st7"
          d="M233.6,188.8c-0.8-0.3-1.7,0.9-1.3,1.6c0.1-0.7,1.2-0.4,1.4-0.8C233.9,189.4,233.9,188.9,233.6,188.8   L233.6,188.8z"/>
    <g><path class="st3" d="M232.3,190.4L232.3,190.4c-0.2-0.3-0.1-0.7,0.1-1.1c0.2-0.4,0.6-0.6,0.9-0.6l0.1,0c-0.5,0-0.8,0.2-1,0.6    C232.2,189.7,232.1,190.1,232.3,190.4c0.1-0.4,0.5-0.5,0.8-0.6c0.1,0,0.1,0,0.2,0c-0.1,0-0.1,0-0.2,0    C232.8,189.9,232.4,190,232.3,190.4L232.3,190.4L232.3,190.4z"/></g>
    <path class="st7"
          d="M234.6,189.9c-0.8-0.3-1.7,0.9-1.3,1.6c0.1-0.7,1.2-0.4,1.4-0.8C235,190.5,235,190,234.6,189.9L234.6,189.9z"/>
    <g><path class="st3" d="M233.3,191.5L233.3,191.5c-0.2-0.3-0.1-0.7,0.1-1.1c0.2-0.4,0.6-0.6,0.9-0.6l0.1,0c-0.5,0-0.8,0.2-1,0.6    C233.2,190.8,233.2,191.2,233.3,191.5c0.1-0.4,0.5-0.5,0.8-0.6c0.1,0,0.1,0,0.2,0c-0.1,0-0.1,0-0.2,0    C233.8,191,233.4,191.1,233.3,191.5L233.3,191.5L233.3,191.5z"/></g>
    <path class="st7"
          d="M256,192c-0.8-0.3-1.7,0.9-1.3,1.6c0.1-0.7,1.2-0.4,1.4-0.8C256.4,192.6,256.4,192.1,256,192L256,192z"/>
    <g><path class="st3" d="M254.8,193.6L254.8,193.6c-0.2-0.3-0.1-0.7,0.1-1.1c0.2-0.4,0.6-0.6,0.9-0.6l0,0c-0.5,0-0.8,0.3-1,0.6    C254.6,192.9,254.6,193.3,254.8,193.6c0.1-0.4,0.5-0.5,0.8-0.6c0.2,0,0.5-0.1,0.6-0.2l0,0l0,0c-0.1,0.1-0.3,0.2-0.6,0.2    C255.2,193.1,254.8,193.2,254.8,193.6L254.8,193.6L254.8,193.6z"/></g>
    <path class="st7"
          d="M257.1,193c-0.8-0.2-1.6,1.1-1.1,1.8c0-0.7,1.1-0.5,1.3-0.9C257.5,193.6,257.5,193.1,257.1,193L257.1,193z"/>
    <g><path class="st3" d="M256.1,194.8L256.1,194.8c-0.2-0.3-0.2-0.7,0-1.2c0.2-0.4,0.6-0.6,0.9-0.6l0,0c-0.4,0-0.7,0.3-0.9,0.6    C255.9,194,255.8,194.4,256.1,194.8c0-0.4,0.4-0.6,0.8-0.7c0.2-0.1,0.5-0.1,0.6-0.3l0,0l0,0c-0.1,0.2-0.3,0.2-0.6,0.3    C256.5,194.2,256.1,194.3,256.1,194.8L256.1,194.8L256.1,194.8z"/></g>
    <path class="st7"
          d="M256.4,190.6c-0.7-0.4-1.8,0.6-1.5,1.4c0.2-0.7,1.2-0.2,1.5-0.5C256.6,191.2,256.7,190.8,256.4,190.6   L256.4,190.6z"/>
    <g><path class="st3" d="M254.8,192L254.8,192c-0.1-0.3,0-0.6,0.2-0.9c0.2-0.3,0.6-0.6,1-0.6l0.1,0.1c-0.6,0-0.9,0.2-1.1,0.5    C254.8,191.3,254.7,191.7,254.8,192c0.1-0.4,0.5-0.4,0.8-0.4l0.3,0l-0.1,0C255.2,191.5,255,191.6,254.8,192L254.8,192L254.8,192z"/></g>
    <path class="st7"
          d="M271.6,192.3c-0.9-0.2-1.6,1.1-1.1,1.8c0-0.7,1.1-0.5,1.3-0.9C272,192.9,271.9,192.4,271.6,192.3L271.6,192.3z   "/>
    <g><path class="st3" d="M270.5,194.1L270.5,194.1c-0.2-0.3-0.2-0.7,0-1.1c0.2-0.4,0.6-0.7,0.9-0.7l0,0c-0.4,0-0.7,0.3-0.9,0.6    C270.3,193.3,270.3,193.8,270.5,194.1c0-0.4,0.4-0.6,0.8-0.7c0.2-0.1,0.5-0.1,0.6-0.3l0,0l0,0c-0.1,0.2-0.3,0.2-0.6,0.3    C270.9,193.5,270.5,193.6,270.5,194.1L270.5,194.1L270.5,194.1z"/></g>
    <path class="st7"
          d="M271.6,191c-0.8-0.4-1.8,0.6-1.5,1.4c0.2-0.7,1.2-0.3,1.5-0.6C271.9,191.6,271.9,191.1,271.6,191L271.6,191z"/>
    <g><path class="st3" d="M270.1,192.4L270.1,192.4c-0.1-0.3-0.1-0.6,0.2-1c0.2-0.4,0.6-0.6,1-0.6l0.1,0.1c-0.7,0-0.9,0.2-1.1,0.5    C270.1,191.8,270,192.1,270.1,192.4c0.1-0.4,0.5-0.4,0.9-0.4c0.1,0,0.1,0,0.2,0c-0.1,0-0.1,0-0.2,0    C270.7,192,270.3,192,270.1,192.4L270.1,192.4L270.1,192.4z"/></g>
    <path class="st7"
          d="M272.2,193.5c-0.9-0.2-1.5,1.1-1,1.8c0-0.7,1.1-0.6,1.3-1C272.7,194.1,272.6,193.6,272.2,193.5L272.2,193.5z"/>
    <g><path class="st3" d="M271.2,195.3L271.2,195.3c-0.2-0.3-0.3-0.8,0-1.2c0.2-0.4,0.5-0.7,0.9-0.7l0,0c-0.4,0-0.7,0.3-0.9,0.6    C271,194.6,271,195,271.2,195.3c0-0.4,0.4-0.6,0.7-0.7c0.2-0.1,0.5-0.2,0.6-0.3l0,0l0,0c-0.1,0.2-0.3,0.2-0.6,0.3    C271.6,194.8,271.2,194.9,271.2,195.3L271.2,195.3L271.2,195.3z"/></g>
    <path class="st7"
          d="M243.8,184c0.5,0,0.8,0.2,0.8,1.1c0,2,0,2.9-0.7,2.9c-0.7,0-0.6-0.8-0.6-2.3c0-0.8,0-1.2-0.2-1.1   C243.1,184.1,243.3,184,243.8,184L243.8,184z"/>
    <g><path class="st3" d="M243.9,188.1l-0.4-0.1c-0.3-0.3-0.3-0.9-0.3-1.9c0-0.7,0-1.1,0-1.3c0,0.2,0,0.5,0,1c0,1.3,0,1.9,0.3,2.2    L243.9,188.1c0.7,0,0.7-0.9,0.7-2.9c0-1.5-1.1-1.4-1.4-0.9c0.3-0.4,1.4-0.6,1.4,0.9C244.6,187.2,244.5,188.1,243.9,188.1    L243.9,188.1z"/></g>
    <path class="st7"
          d="M239.8,197.8c-0.4-0.5-1.4-0.1-1.4,0.6c0.3-0.4,0.9,0.2,1.2,0.1C239.7,198.4,239.9,198,239.8,197.8   L239.8,197.8z"/>
    <g><path class="st5" d="M239.8,197.8c-0.4-0.5-1.4-0.1-1.4,0.6c0.3-0.4,0.9,0.2,1.2,0.1C239.7,198.4,239.9,198,239.8,197.8z"/></g>
    <path class="st7"
          d="M239.2,199.1c-0.4-0.5-1.4-0.1-1.4,0.6c0.3-0.4,0.9,0.2,1.2,0.1C239.2,199.7,239.4,199.3,239.2,199.1   L239.2,199.1z"/>
    <g><path class="st5" d="M239.2,199.1c-0.4-0.5-1.4-0.1-1.4,0.6c0.3-0.4,0.9,0.2,1.2,0.1C239.2,199.7,239.4,199.3,239.2,199.1z"/></g>
    <path class="st7"
          d="M239,200.9c-0.5-0.5-1.4,0.1-1.4,0.8c0.3-0.5,0.9,0.1,1.2-0.1C239,201.4,239.2,201.1,239,200.9L239,200.9z"/>
    <g><path class="st5" d="M239,200.9c-0.5-0.5-1.4,0.1-1.4,0.8c0.3-0.5,0.9,0.1,1.2-0.1C239,201.4,239.2,201.1,239,200.9z"/></g>
    <path class="st7"
          d="M239.4,206.3c-0.5-0.4-1.4,0.3-1.3,0.9c0.2-0.5,0.9,0,1.2-0.2C239.5,206.9,239.6,206.5,239.4,206.3   L239.4,206.3z"/>
    <g><path class="st5" d="M239.4,206.3c-0.5-0.4-1.4,0.3-1.3,0.9c0.2-0.5,0.9,0,1.2-0.2C239.5,206.9,239.6,206.5,239.4,206.3z"/></g>
    <path class="st7"
          d="M239.4,207.5c-0.6-0.2-1.3,0.7-0.9,1.3c0.1-0.6,0.9-0.3,1.1-0.6C239.7,208,239.7,207.6,239.4,207.5   L239.4,207.5z"/>
    <g><path class="st5" d="M239.4,207.5c-0.6-0.2-1.3,0.7-0.9,1.3c0.1-0.6,0.9-0.3,1.1-0.6C239.7,208,239.7,207.6,239.4,207.5z"/></g>
    <path class="st7"
          d="M240.2,208.4c-0.6-0.2-1.3,0.7-0.9,1.3c0.1-0.6,0.9-0.3,1.1-0.6C240.4,208.9,240.4,208.5,240.2,208.4   L240.2,208.4z"/>
    <g><path class="st5" d="M240.2,208.4c-0.6-0.2-1.3,0.7-0.9,1.3c0.1-0.6,0.9-0.3,1.1-0.6C240.4,208.9,240.4,208.5,240.2,208.4z"/></g>
    <path class="st7"
          d="M256,210.1c-0.6-0.2-1.3,0.7-0.9,1.3c0.1-0.6,0.9-0.3,1.1-0.6C256.3,210.6,256.3,210.2,256,210.1L256,210.1z"/>
    <g><path class="st5" d="M256,210.1c-0.6-0.2-1.3,0.7-0.9,1.3c0.1-0.6,0.9-0.3,1.1-0.6C256.3,210.6,256.3,210.2,256,210.1z"/></g>
    <path class="st7"
          d="M256.8,210.9c-0.6-0.2-1.2,0.9-0.8,1.4c0-0.6,0.8-0.4,1-0.8C257.1,211.4,257.1,211,256.8,210.9L256.8,210.9z"/>
    <g><path class="st5" d="M256.8,210.9c-0.6-0.2-1.2,0.9-0.8,1.4c0-0.6,0.8-0.4,1-0.8C257.1,211.4,257.1,211,256.8,210.9z"/></g>
    <path class="st7"
          d="M256.3,209c-0.6-0.4-1.3,0.5-1.1,1.1c0.2-0.5,0.9-0.2,1.1-0.4C256.5,209.5,256.5,209.1,256.3,209L256.3,209z"/>
    <g><path class="st5" d="M256.3,209c-0.6-0.4-1.3,0.5-1.1,1.1c0.2-0.5,0.9-0.2,1.1-0.4C256.5,209.5,256.5,209.1,256.3,209z"/></g>
    <path class="st7"
          d="M267.5,210.3c-0.6-0.2-1.2,0.9-0.8,1.4c0-0.6,0.8-0.4,1-0.8C267.8,210.8,267.8,210.4,267.5,210.3L267.5,210.3z   "/>
    <g><path class="st5" d="M267.5,210.3c-0.6-0.2-1.2,0.9-0.8,1.4c0-0.6,0.8-0.4,1-0.8C267.8,210.8,267.8,210.4,267.5,210.3z"/></g>
    <path class="st7"
          d="M267.6,209.3c-0.6-0.3-1.3,0.5-1.1,1.2c0.2-0.6,0.9-0.2,1.1-0.5C267.8,209.8,267.8,209.4,267.6,209.3   L267.6,209.3z"/>
    <g><path class="st5" d="M267.6,209.3c-0.6-0.3-1.3,0.5-1.1,1.2c0.2-0.6,0.9-0.2,1.1-0.5C267.8,209.8,267.8,209.4,267.6,209.3z"/></g>
    <path class="st7"
          d="M268,211.3c-0.6-0.1-1.1,0.9-0.7,1.5c0-0.6,0.8-0.5,1-0.8C268.3,211.8,268.3,211.4,268,211.3L268,211.3z"/>
    <g><path class="st5" d="M268,211.3c-0.6-0.1-1.1,0.9-0.7,1.5c0-0.6,0.8-0.5,1-0.8C268.3,211.8,268.3,211.4,268,211.3z"/></g>
    <path class="st7"
          d="M247,203.6c0.4,0,0.6,0.1,0.6,0.9c0,1.7,0,2.4-0.5,2.4c-0.5,0-0.5-0.7-0.5-1.9c0-0.6,0-1-0.1-0.9   C246.5,203.7,246.6,203.6,247,203.6L247,203.6z"/>
    <g><path class="st3" d="M247,206.9l-0.3-0.1c-0.2-0.2-0.2-0.8-0.2-1.6c0-0.6,0-0.9,0-1c0,0.1,0,0.4,0,0.8c0,1.1,0,1.6,0.2,1.8    L247,206.9c0.5,0,0.5-0.7,0.5-2.4c0-1.2-0.8-1.1-1-0.7c0.2-0.4,1-0.5,1,0.7C247.5,206.2,247.5,206.9,247,206.9L247,206.9z"/></g></g></svg>
