<?xml version="1.0" ?>
<svg id="Layer_1" style="enable-background:new 0 0 512 512;" version="1.1" viewBox="0 0 512 512" xml:space="preserve"
     xmlns="http://www.w3.org/2000/svg"><style type="text/css">
	.st0 {
    fill: #010101;
  }

  .st1 {
    fill: #BD1F34;
  }

  .st2 {
    fill: #F4D130;
  }

  .st3 {
    fill: #FFFFFF;
  }
</style>
  <g><rect class="st0" height="298.7" width="512" y="106.7"/>
    <polygon class="st1" points="0,106.7 512,405.4 512,106.7  "/>
    <path class="st2"
          d="M332,193.4c-2.9,3.8-9.9-3.8-18.2-4c-8.3-0.2-14.2,8-16.7,10.8c-2.4,2.8-10.3,17.4-10.1,18.9   c0.2,1.6,4.9-4.3,6.6-5.4c0.2,2.1-1.9,4.5-1.4,5.2c0.5,0.7,6.1-4.2,8-4.3c0.5,1.4-1,2.8-0.5,4.9c0.7,0.7,3.8-3.5,5.9-4.3   c0.3,1.6-1.9,4.5-0.7,6.4c0.9,0.2,6.1-5.9,7.8-6.6c1.7-0.7-0.9,5.7,0,6.3c1.6-1,6.4-6.6,8-7.3c1.6-0.7-0.2,7.1,0.5,7.1   c1.9-1.4,6.8-8,7.3-9c0.5-1-0.5,10.1,4.9,16c5.4,5.9,13.5,12.7,14.4,12.7c1-1.9-0.3-5.9,0.5-5.7c2.4,2.6,6.9,6.4,8,6.4   c1,0-0.7-4.2,0.7-4.2c2.8,2.6,10.8,12.9,26.4,17.5c-1-3-3.3-5.6-3.5-6.9c1,0.2,4.7,1.9,5.4,1.7c0.7-0.2-7.6-10.4-7.1-11.8   c1.9-0.2,2.8,1,3.5,0.2c-0.9-1.4-8.2-9.6-8.2-11.5c0-1.9,2.3,0.3,3,0c0.7-0.3-2.8-7.6-2.1-8.5c0.7-0.9,8.3,4.7,10.2,4.7   c1.9,0,0.5-6.8,1.4-7.1c0.9-0.3,7.3,3.6,8.7,3.6c1.4,0,1.2-3,1.7-2.6c0.5,0.3,15.6,15.5,10.4,33.2c-5.2,12.7-15.6,19.5-30.9,13.9   c0.9,1.4,9,8.2,17.9,5.7c8.9-2.4,19.6-9.4,18.4-26.8c-1.2-17.4-6.9-19.8-7.8-22.4c-0.9-2.6,1.4,0.7,3.3,1.4   c1.9,0.7-0.3-3.6-0.9-5.6c-0.5-1.9,5.7,4,7.3,4.5c1.6,0.5-3.7-14.2-5.2-15.3c-1.6-1,1.6,0.3,2.6,0.7c1,0.3-9.6-16.2-11.8-16.2   c-2.2,0,1.9-0.9,3.1-0.9c1.2,0-12.2-10.8-14.4-10.8c-2.3,0,4.9-2.8,5.6-3c1.2,0.2-15.5-8.9-30.4,0.2c-0.9-0.7,7-6.2,7.3-8.5   c0.1-0.6-2.6-1.9-2.8-2.6c-0.2-0.7,4.2-2.8,4.3-4.3c-1-1.4-3-0.9-4-1.2c-0.3-1.3,3.7-4.5,3.3-5.9c-0.3-0.8-3.1-1-3.8-0.5   c-0.7,0.5,1.8-3.6,1.4-4.9c-0.3-0.5-1.7-0.2-3.1,0.2c-0.9-0.2,4.5-7.6,3.5-8.7c-1-1-15.6,7.6-21,17.4c-5.4,9.7-1.2,17.5-1.9,20.8   c-0.7,3.3-1.6,6.6-3.8,6.6c-2.2,0-7.5-3.5-9.2-5.2c-1.7-1.7-2.1-3-4.5-3.6c-2.4-0.7-8,1.4-10.1,1.6s-10.3-1.6-10.8-1   c-0.5,0.5,8,3.6,9.9,4.7c1.9,1,2.1,2.4,3.5,3.3C323.2,184.2,336.2,188.1,332,193.4"/>
    <path class="st2"
          d="M382.9,217.9c4.2,4.2,32.3,22.9,32.3,45.9c0,22.9-20.5,22.2-26.4,21.5c6.6,5.6,31.6,4.5,31.6-21.5   c0-22.9-32.3-45.9-36.5-47.9C379.8,213.8,378.8,213.8,382.9,217.9"/>
    <polygon class="st3"
             points="131.8,199.2 136.2,214.2 151.2,214.2 139.3,223.3 143.7,237.9 131.8,228.7 119.9,237.4 124.3,223.3    112.4,214.2 127.1,214.2  "/>
    <polygon class="st3"
             points="86.2,257.6 90.5,272.5 105.6,272.5 93.7,281.7 98.1,296.2 86.2,287.1 74.3,295.8 78.7,281.7    66.8,272.5 81.4,272.5  "/>
    <polygon class="st3"
             points="177.2,253.4 181.6,268.4 196.6,268.4 184.8,277.5 189.1,292 177.2,282.9 165.4,291.6 169.7,277.5    157.8,268.4 172.5,268.4  "/>
    <polygon class="st3"
             points="131.8,336.4 136.2,351.3 151.2,351.3 139.3,360.5 143.7,375 131.8,365.9 119.9,374.6 124.3,360.5    112.4,351.3 127.1,351.3  "/>
    <polygon class="st3"
             points="152.2,304.6 154.4,312.1 161.9,312.1 156,316.7 158.1,323.9 152.2,319.4 146.3,323.7 148.4,316.7    142.5,312.1 149.8,312.1  "/></g></svg>
