<?xml version="1.0" ?>
<svg id="Layer_1" style="enable-background:new 0 0 512 512;" version="1.1" viewBox="0 0 512 512" xml:space="preserve"
     xmlns="http://www.w3.org/2000/svg"><style type="text/css">
	.st0 {
    fill: #FFFFFF;
  }

  .st1 {
    fill: #347C41;
  }

  .st2 {
    fill: #3D843E;
  }
</style>
  <g><rect class="st0" height="298.7" width="200.4" x="155.8" y="106.7"/>
    <path class="st1"
          d="M255.9,139.6c-0.4,4.9-0.9,9.7-1.3,14.6c-1.6,0.2-3.3,0.5-4.9,0.7c0,0,3.4,1.9,4,3.9c0.1,0.3,0.1,0.6-0.1,0.8   c0,0.1-0.1,0.1-0.2,0.2c-1,0.8-3.9,0.4-3.9,0.4s3.9,3.3,4.2,4.5c0,0,0,0,0,0.1c0,0,0,0.1,0,0.1c0,0,0,0,0,0.1   c0,0.1-0.1,0.1-0.1,0.2c-0.9,0.8-5.2,1.1-5.2,1.1s4.7,3.4,5,5.3c0.3,1.8,0,2.8,0,3c-0.3-0.3-8-6.8-12.9-4.9   c-0.3,0.1-0.4,0.3-0.5,0.4c0,0.1,0,0.1,0,0.2c0.3,1.1,7.3,2.2,12.2,6.4c-0.1,1.1-13.9-3.4-14.4-0.6c0.4,0.8,14.8,2.9,15.9,4.8   c-5.3,0.2-16.3-1.2-15.9,0.6c-1.1,2,10.3,0.9,15.1,2.5c1.4,1.6,1.3,2.9-1.2,3.1c-4.6-2.2-15-3.9-15-1v0l0,0c0,0,0,0,0,0   c0,0,0,0,0.1,0c1.2,0.6,10.8,0.3,14.5,2.7c-5.2,1.2-22.6-2.4-22.7-0.6c0.5,0.8,3.3,4.4,8,4.2c4.8-0.1,15.8,1.9,16.5,3.4   c0,0,0,0.1,0,0.1c-0.3,1-14.5-3.2-19.9-0.6c-5.7,2.7,16.2,1,19.8,4.3c3.6,3.3-7.1-0.3-7.1-0.3s-14.8-2.1-17.1-1   c-2.2,1-4.8,3.4-4.8,3.4s1.5,3,3,2.4c0.2-0.1,0.4-0.1,0.5-0.1h0l0,0c0,0,0,0,0,0l0,0l0,0c0,0,0,0,0,0.1c0,0.4-1,1.7-1,1.7   s20.8,5,25.4,9.5c4.6,4.4-26.4-7-26.4-7s-12.5,4.6,0.7,4.9c-1.5,2.2,0.6,3.5,0.7,3.6c0,0,22,4.6,24.2,8.2c2.2,3.6-15-3.4-18.9-5.4   c-3.7-1.9-14.1,1-14.7,1.9c0,0,0,0,0,0v0v0v0v0c0,0,0,0,0,0v0c0,0,0,0,0,0c0,0,0,0,0,0c0.7,0.7,5.3,1.7,5.4,3v0c0,0.1,0,0.2,0,0.2   c-0.6,1.1-6.1,1.6-6.3,2.7c0,0,0,0,0,0.1c0,1.2,27.8,7,35.2,13.2c7.4,6.2-21.8-7.4-21.8-7.4s1.6,2.2,0,2.8c-1.6,0.6-7.4-8.3-17-2.8   c-1.7,2.3,8.3,4.1,10.9,4.3c-0.9,2.2-1.6,3,1.9,5.2c0.4,0.2,0.6,0.4,0.7,0.5l0,0c0,0,0,0,0,0v0v0h0h0c-0.5-0.1-6.9-3.4-7.6-3.5h0h0   c0,0.3,0.7,3.9,0.7,3.9c-3.3-2.7-7.3-3.5-11-0.7c0,0.2,0,2.7,3.7,4.3c-2.1,4.3,2.4,3,9.5,7c-10.6-2.8-11.4,2.4-3.9,3.6   c7.6,1.2,28.4,1.9,33.3,8.3c1,1.3,1.3,2,1.1,2.2c-0.8,0.7-8.3-4.7-9.4-4.9c0,0,0,0,0,0c0,0,0,0,0,0c0,0,0,0,0,0.1   c-0.3,0.6-0.5,3.2-0.5,3.2c-3.2-1.8-6.1-3.5-9.9-4.3c-0.3,0.6-0.2,1.4-0.5,2c-3.4-2.5-6.4-4.2-11.4-4.5c-0.2,0.8-0.4,1.6-0.6,2.4   c0,0-4.2-5.2-12.3,0c-4.6,3.3,17.2,1.2,20.8,5c3.6,3.9,0.7,4.4,0.7,4.4c-3-1.1-5.9-2.2-8.9-3.3c0,0-10.6-1.9-13.5,0.4   c-3,2.4,43.4,8.2,44.7,14.6c0.9,3.5-10.9-3.6-21.1-6.7c-0.4,1.1-0.8,2.3-1.2,3.4c-0.2-0.2-4.2-4.1-8.6-4.7c0,0,0,0,0,0v0   c0,0.5,0.9,4,0.9,4s-11.4-5.4-17.2-2.5c-5.8,2.8,20.2,4.3,22.6,7c0.3,0.3,0.4,0.5,0.3,0.6c0,0,0,0.1,0,0.1   c-0.6,0.8-8.3-2.3-9.1-0.7c-0.9,1.8-13.5-3.3-13.4-0.9c0.1,2.4,1.8,3.7,1.8,3.7s26.3,2.5,27.2,5.7c0.9,3.1-14.6-1.8-14.6-1.8   s-1.5,2.2-0.3,3.3c0,0,0.1,0.1,0.1,0.1v0c0,0,0,0,0,0c-0.5-0.2-8.9-5.7-8.1-1.5c-3.3-1.3-11.7-5.4-10.5-2.2   c1.2,3.1,23.2,7.5,23.9,7.6c-0.6,0-9.9,0.8-9.5,3.3c-12.5-7.6-12.5-3.1-12.2-2.7v0c-0.7-0.1-16.1-3.9-3.8,2.7   c6.6,3.5,8.2,4.9,8.2,5.5c0,0,0,0,0,0c0,0,0,0,0,0c0,0,0,0,0,0l0,0c0,0,0,0,0,0s0,0,0,0l0,0c0,0,0,0,0,0c-0.3,0.2-0.9,0.1-1,0.1h0   l0,0c0,0,0,0,0,0c0.2,0.3,1.1,2.9,1.1,3.3c0,0,0,0,0,0v0h0c0,0,0,0,0,0h0h0c-0.5-0.1-8.6-4.5-11.4-4.8c-2.8-0.3-16.2,3.7-1.9,9.9   c14.3,6.3,23-1.5,30.9-0.6c7.9,0.9,11.6,2.2,10.9,4.8c-0.7,2.5-8.1-8.3-15.7,1.1c-8.7-1.7-14.7-2.7-10.2,3.7   c-14.3-5.3-23,1.6-5,4.5c17.7,0.5,28.5-4.3,28.5-4.3s3,5.5,7.3,1.6c4.1-3.7,4.4,1,4.6,1.5c0,0,0,0,0,0v0h0c0.3-0.1,4.1-1.8,4.1-1.8   h1v35.7c4.8,0,9.6,0.1,14.4,0.1c0,0-4.6-31.1-2.1-35.2c2.5-4,4.8-3.6,4.9-3.6c0,0,9.4,2.8,10.4,2.4l0,0c0,0,0,0,0,0c0,0,0,0,0.1,0   c0,0,0,0,0,0c0.8-0.7,0-3.4,4.7-3c1.5-0.5,0.9-2.9,1.9-3.5c0,0,0,0,0.1,0c0,0,0.1,0,0.1,0c0.1,0,0.1,0,0.2,0   c1.5-0.2,30.2,8,36.4,0.3c-1.6-4.3-7.3-0.3-8.8-0.1c-1.3,0-7-2.7-10.3,0c-3-2.2-16.5-3.7-16.5-3.7c-1.8-1.8,32.2,0.9,34.2-0.4   c4-4-7.4-3.6-9.2-2.2c-3.2-1.9-7.2-1.8-9.6-0.5c-1.2-2.8-12.2-1.6-18.4-2.4c-2-1.2-1.6-1.8-0.3-2.5c12.8,0.6,25.6,2.2,38.5,1.6   c3.5-4.5-4.4-6.3-9.2-2.4c-2.8-4.7-8.6-0.1-12.5-0.6c-3.9-0.4-2.1-5.2,2.8-4.4c4.9,0.7,13.7-0.3,15.3-2.5c1.6-2.2-1-4.5-9.1-2.4   c-2.7-2.7-8.8,0-11.6,0.9c-3.8-2.1-12.5-0.3-15.5,0.4c-2.9-1.8,15.3-4.8,15.3-4.8c7-0.1,11-1.3,13.2-1.9c10.6-5.7-0.2-6.3-5.7-2.2   c-3.5-2.7-6.8,0.2-9.9,1.3c-2.9,1-8.3,1.7-9,1.4c0,0,0,0,0,0l0,0l0,0v0v0c0,0,0,0,0,0c0.4-0.7,8.5-5.6,8.5-5.6s10.4-0.7,12.5-1   c1.3-0.2,5.7-2.3,5.7-3.1c0-0.5-1.9-0.4-7.5,1c-5,0.4-8,0.2-9.9,0.3c-3.1-0.3-4.4-0.6-4.7-0.9c0,0,0,0,0,0c0,0,0-0.1,0-0.2   c0,0,0,0,0,0c0.8-0.6,5.7-1,5.7-1s15-1.4,16-2.2l0,0c0,0,0,0,0,0l0,0c0.3-6.1-12.7-3.3-13.1-3.3c0-4.3-11.8-0.1-12.3,0h0   c-0.5-0.3-0.7-0.6-0.8-0.9c0-0.1,0-0.2,0-0.3c0.3-0.9,2.1-1.6,2.1-1.6c3.3-0.8,8.2-1,9.4-2.1c0,0,9.2-0.1,10.3-2.5   c-2.3-6.3-19.5,1.1-21.8,2.2c-0.5,0-0.7-0.1-0.9-0.3c-0.8-1.1,3-4.8,3.1-4.9l0,0c0.6-0.2,14.4-0.9,20.9-9.8   c0.5-5.5-7.9,3.1-7.9,3.1c-0.6-7.2-9.1,0.5-14,1c-4.9,0.6-5-2.2-1.6-2.7c3.4-0.4,7.3-0.2,9.2-5.4c1.9-5.2,7.7,0.3,8.8-1.6   c1-1.9-1.9-3.5-2.1-3.6c0,0,4.3-4.5-2.7-4.3c-6.9,0.1-15.9-0.9-16-0.9c0.4-0.2,7.5-2.8,14.1-2.7c6.8,0.2,3.1-4.9-3.4-4.9   c-6.5,0-9.9-2.2-9.9-2.2c3.7-1.4,7.4-2.8,11.1-4.2c-0.2-1-0.5-2.1-0.7-3.1c0,0,6.5-5.2-2.7-4c-9.2,1.2-10.3,1.3-10.3,1.3   s-18.1,2.8-18.6,2.8h0c-0.2,0-2-0.6-2.3-1.3c0,0,0,0,0-0.1c0,0,0-0.1,0-0.1c0,0,0-0.1,0-0.1c0.1-0.4,0.6-0.7,2.1-1.1   c4.8-1.2,21.6-4.6,24.1-3.7c0.3,0.1,0.6,0.1,0.7,0c0.9-0.9-2.2-6.3-9.9-7.1c-8.9-0.9-14.4,2.2-14.4,2.2s-5.8-2.1-0.5-3.9   c5.3-1.8,13.8,0.6,13.8,0.6s9.5-2.8,1.6-4c-7.9-1.2-10.4,1.1-14,1.2c-1.4-1.8,12.4-2.2,13.2-3.7c-1.5-2.7-10,0-15,0   c-2.1-0.9-2.3-2.4,0.1-3.3c5.1-0.2,9.9,0.1,15-0.1c-0.2-2.7,0-6-0.1-8.7c-6.5-1.2-14.1,0.9-17.7,0.7c1-3,14.9-3.7,16.5-4.5   c3.2-4-13.4-0.1-13.8,0c-2.9-0.4-2.8-2.3-0.9-3.4c4.3-0.5,14,0.6,13.2-2.3c-0.6-2.7-6.7-1.3-9.2-0.7c-2.5,0.6-6.2,0.1-6.2,0.1   c-1.6-2.2,14.6-1.3,14.4-3c-0.2-1.9-10.3-0.6-13.7-0.4c-2.6-1.8,12.4-3,13.1-3.3c0,0,0,0,0,0c0.6-4.9-10.4,0-12.5,0   c-0.3,0-0.6-0.1-0.8-0.2c0,0-0.1-0.1-0.1-0.1c-0.7-0.8-0.1-2.7-0.1-2.7s3.9-1.8,4.1-2.2l0,0v0c0,0,0,0,0,0l0,0c0,0,0,0,0,0   c-0.5-0.4-3.2-1.3-3.5-1.3h0l0,0c0,0,0,0,0,0l0,0c-0.2-0.4,0-3.4,0-3.4s3.1-2.3,3.3-3.2c0,0,0,0,0,0c0,0,0,0,0,0v0c0,0,0,0,0,0v0   c0,0,0,0,0,0v0c0,0,0,0,0,0c0,0,0,0,0,0c0,0,0,0,0,0l0,0c0,0,0,0,0,0l0,0c-0.8-0.4-4,0.7-4,0.7v-3c0,0,2.8-0.3,3.1-1.6   c0-0.1,0-0.2,0-0.2c0,0,0-0.1,0-0.1c0-0.1,0-0.1-0.1-0.2l0,0c-0.6-0.8-3.3-0.9-3.3-0.9C256.8,150,256.4,144.8,255.9,139.6   L255.9,139.6z M253.2,190.5v2c0,0-3.3-0.2-3.9-0.7c0,0,0,0,0,0l0,0c0,0,0,0,0,0l0,0c0,0,0,0,0,0v0l0,0c0,0,0,0,0,0v0c0,0,0,0,0,0v0   c0,0,0,0,0,0l0,0c0,0,0,0,0,0c0,0,0,0,0,0l0,0c0,0,0,0,0.1-0.1C250.5,190.7,252.7,190.7,253.2,190.5   C253.1,190.5,253.2,190.6,253.2,190.5L253.2,190.5L253.2,190.5L253.2,190.5L253.2,190.5z M257.9,193.2c0.1,0,6.6,0.1,7.2,0.9l0,0   c0,0,0,0,0,0c0,0,0,0,0,0c0,0,0,0,0,0c0,0,0,0,0,0c-0.5,1.1-7.1,1.7-7.1,1.7L257.9,193.2z M257.6,197.3L257.6,197.3L257.6,197.3   c0.4,0.1,3.1,0.2,3.5,0.6l0,0c0,0,0,0,0,0l0,0v0v0v0v0c0,0,0,0,0,0l0,0v0c0,0,0,0,0,0c0,0,0,0,0,0c0,0,0,0,0,0   c-0.6,0.7-3.1,0.9-3.2,0.9h0v0c0,0,0,0,0,0C257.7,198.8,257.6,197.3,257.6,197.3L257.6,197.3z M237.7,202.7   c2.1-0.1,6.4,0.4,14.3,2.6c0,0.2,0.2,2.2,0.1,2.6c0,0,0,0,0,0v0c0,0,0,0,0,0c-0.1-0.1-14.4-4.2-15.7-4.1c0,0-0.1,0-0.1,0   c0,0-0.1,0-0.1,0c0,0-0.1,0-0.1,0c0,0,0,0,0,0l0,0c0,0-0.1-0.1-0.1-0.1c0,0,0,0,0,0l0,0c0,0,0,0,0,0l0,0c0,0,0,0,0,0v0c0,0,0,0,0,0   c0,0,0,0,0-0.1c0,0,0-0.1,0.1-0.1C236.1,203,236.6,202.7,237.7,202.7L237.7,202.7z M245.1,208.8c2.3-0.1,7.7,1.2,8,1.2   c0,0.4,0.2,2.5,0,2.9c0,0,0,0,0,0l0,0c0,0,0,0,0,0c0,0,0,0,0,0s0,0,0,0h0h0c-0.5-0.1-8.5-2.7-8.8-3.7c0,0,0,0,0-0.1   c0,0,0-0.1,0-0.1l0,0c0,0,0,0,0,0C244.4,208.8,244.7,208.8,245.1,208.8L245.1,208.8z M267.5,214.4c2.2,0,3.7,0.1,3.1,0.8   c-1.6,1.8-12.3,3.3-12.3,3.3l-0.2-3.3C258.4,215.2,263.9,214.5,267.5,214.4L267.5,214.4z M236.8,224.7c1.8-0.1,6.1,0.9,15.6,4.9   l0.1,2.4c0,0-16-4.9-16.6-5.7C235.5,225.9,235,224.8,236.8,224.7L236.8,224.7z M268.2,228.2c0.5,0,0.8,0,0.9,0.1l0,0c0,0,0,0,0,0   c0,0,0,0,0,0c0,0.1-0.1,0.2-0.2,0.3c-1.5,1.7-9.5,3.4-9.5,3.4v-2.2h0C259.9,229.9,265.8,228.3,268.2,228.2L268.2,228.2z M233,228.5   c2.4-0.1,7.8,1.1,19.9,6.9c0,0.1,0.1,2,0.1,2.2h0c-0.7-0.2-21.8-7.6-21.8-7.6C231.2,229.9,230.9,228.6,233,228.5L233,228.5z    M273.2,237.8c0.6,0,1,0,1.1,0.2c0,0,0,0,0,0.1c0,0.1-0.1,0.1-0.2,0.2c-1.9,1.7-14.1,3.8-14.5,3.9h0c0,0,0,0,0,0c0,0,0,0,0,0l0,0   c0,0,0,0,0,0s0,0,0,0c-0.1-0.4,0.2-1.8,0.2-2v0h0l0,0c0,0,0,0,0,0C260.6,240,269.9,237.9,273.2,237.8L273.2,237.8z M237.3,243.2   c3.6-0.2,14.6,4.9,15.2,5h0c-0.1,0.2-0.1,2-0.1,2.3c0,0,0,0,0,0h0c-0.3-0.2-15.4-6.4-16-5.9C235.9,243.6,236.4,243.2,237.3,243.2   L237.3,243.2z M269.8,244.5c0.8,0,1.3,0,1.5,0.1c0,0,0,0,0,0.1v0v0c0,0,0,0,0,0l0,0c0,0,0,0,0,0c-1.1,1-11.5,3.1-11.5,3.1   s0-1.9,0-2.1C260,245.6,266.7,244.6,269.8,244.5L269.8,244.5z M269,251.1c0.7,0,1.3,0,1.4,0.2l0,0c0,0,0,0,0,0l0,0l0,0c0,0,0,0,0,0   l0,0c0,0,0,0,0,0c0,0,0,0,0,0c-1.1,1-9.9,2.8-9.9,2.8s-0.3-2.1-0.3-2.2C260.3,252.2,266.2,251.2,269,251.1L269,251.1z M231.8,251.7   c2.1-0.1,7.4,0.7,20.4,5.5l0.4,2.5c0,0-21.7-7-22.3-7.2c0,0,0,0,0,0c0,0,0,0,0-0.1c0-0.1,0-0.2,0.1-0.3   C230.6,251.9,230.9,251.7,231.8,251.7L231.8,251.7z M260.3,257.2c0.3,0,3.9,0.2,4.6,0.7l0,0l0,0c0,0,0,0,0,0l0,0c0,0,0,0,0,0   c0,0,0,0,0,0v0v0c0,0,0,0,0,0v0c0,0,0,0,0,0v0c0,0,0,0,0,0c-0.6,0.9-4.4,1.2-4.4,1.2S260.4,257.7,260.3,257.2L260.3,257.2z    M269.1,262.2c0.9,0,1.5,0.1,1.6,0.3c0.1,0.2-0.1,0.4-0.5,0.7c-3.1,2.5-9.9,3-9.9,3v-2.8h0C260.7,263.4,266.3,262.3,269.1,262.2   L269.1,262.2z M277.7,264.8c1.1,0,1.5,0.1,1.7,0.4c0,0,0,0,0,0.1c0,0,0,0.1,0,0.1c0,0.3-0.4,0.7-0.6,1c-1.1,1-17.9,6.3-17.9,6.3   s-0.1-3.5-0.1-3.9C270.7,265.9,275.5,264.9,277.7,264.8L277.7,264.8z M266.8,274.8c1.1,0,1.9,0,2.2,0.3c0,0,0,0,0,0.1c0,0,0,0,0,0   c0,0,0,0,0,0c0,0,0,0.1,0,0.1c0,0,0,0.1-0.1,0.2c-1.4,1.4-8.5,1.6-8.5,1.6v-1.8C261.8,275.3,264.7,274.9,266.8,274.8L266.8,274.8z    M273.8,277.7c0.3,0,0.5,0,0.6,0.1c0,0,0,0,0,0c0,0.1-0.1,0.2-0.3,0.3c-2.8,2-13.3,4-13.3,4s0.1-1.4,0.2-1.7   C261.2,280.6,271.3,277.8,273.8,277.7L273.8,277.7z M279.7,279.9c1.2,0,2.2,0.2,2.7,0.6h0v0v0c0,0,0,0,0,0c-0.1,0.4-0.8,2.2-3.6,3   c-3.5-0.3-18.1,4-18.4,4.1h0c0,0,0,0,0,0c0-0.3,0.2-1.8,0.2-1.8C265.7,282.8,274.9,280,279.7,279.9L279.7,279.9z M242.2,288.4   C242.2,288.4,242.2,288.4,242.2,288.4c6.4,0.7,8.8,3.1,9.5,4c-1.3,2.2-11.3-2.8-10.2-3.8C241.5,288.5,241.8,288.5,242.2,288.4   L242.2,288.4z M278.5,288.9c0.3,0,0.5,0,0.6,0.1c0.1,0,0.1,0.1,0.2,0.2c0.1,0.1,0.1,0.2,0.1,0.4c-0.7,1-4.1,0.6-4.3,0.6   C275.3,290,277.3,288.9,278.5,288.9L278.5,288.9z M264.9,295.8c0.5,0,0.9,0,1.1,0.2c0,0,0.1,0,0.1,0.1c0,0,0,0,0,0c0,0,0,0,0,0.1   c0,0,0,0,0,0c0,0.1,0,0.3-0.1,0.5c-1,1.9-5.3,1.2-5.3,1.2v-1.3h0C261,296.5,263.4,295.8,264.9,295.8L264.9,295.8z M239.3,300.7   c1.3-0.1,2.5,0.8,3.7,1.5c2.7-0.6,8.4,0.4,8.4,0.4v2.5l0,0c0,0,0,0,0,0c-0.5,0.1-7.1-0.2-8.6-1.1c-1.2,0-4.6-1.8-4.9-2.7   c0,0,0,0,0,0c0,0,0,0,0,0v0c0,0,0,0,0,0v0c0,0,0,0,0,0v0C238.4,300.8,238.8,300.7,239.3,300.7L239.3,300.7z M268.1,301.9   c1,0,1.5,0.3,0.6,1.4c-2.2,3.2-8,1.9-8,1.9l-0.2-2C262.5,303.3,266.2,302,268.1,301.9L268.1,301.9z M246.4,308.3   c2.3-0.1,4.9,0.8,4.9,0.8c0.1,0.1,1.3,2.5,0.2,3.3c0,0-0.1,0.1-0.1,0.1c-1.3,0.7-7.5-0.5-7.9-3.1   C244.2,308.7,245.3,308.4,246.4,308.3L246.4,308.3z M222.3,309.6c2.1-0.1,4.5,1.2,4.8,1.3h0c0,0.1-0.1,2.4-0.1,2.4   s-4.2-1.2-5.6-3.6C221.7,309.6,222,309.6,222.3,309.6L222.3,309.6z M263.1,309.9c2.4,0,5.3,0.6,5.7,1.4c0.1,0.2,0.1,0.3-0.1,0.5   c-1.2,1.4-7.9,0.1-7.9,0.1v-1.7C261.3,310,262.2,309.9,263.1,309.9L263.1,309.9z"/>
    <g><path class="st2" d="M264,362.3C264,362.3,264,362.3,264,362.3l-14.4-0.1l-0.3-36l-0.7,0.3l0,0c0.1,0-3.7,1.7-4.1,1.8l-0.5-0.6    c-0.3-1.7-1.4-3.3-4-1c-1.1,1-2.2,1.5-3.3,1.5c-2.7,0-4.4-2.9-4.5-3.2c0,0.3-11,5-28.3,4.5c-6.7-1-10.6-2.8-10.4-4.7    c0.1-1.4,2.4-2.3,5.7-2.3c2.1,0,5.5,0.3,9.8,2c-1.8-1.6-2.3-3-1.8-3.9c0.9-1.7,5.2-1.1,11.9,0.2c1.9-2.5,4.3-3.9,6.9-3.9    c2.6,0,4.9,1.3,6.5,2.3c0.8,0.5,1.5,0.9,1.8,0.9c0.3-0.7,0.3-1.1,0-1.5c-0.9-1.4-4.2-2.3-10.4-3c-2.7-0.3-5.6,0.5-8.7,1.3    c-6.2,1.6-14.3,2.8-22.3-0.7c-4.8-2.1-7-4.2-6.6-6.2c0.6-2.8,6.2-4.3,8.3-4.3c2.5,0.2,7.6,2.7,10.3,4.1c0.8,0.4,1.4,0.7,1.5,0.7    c-0.3-0.2-1.2-2.6-1.4-2.9l0.4-0.5l0,0l0.9,0.2l-0.2-0.2c0-0.2-0.7-1.2-8-5.2c-4.5-2.4-5-3.3-4.9-3.9c0.1-0.6,0.9-0.6,1.6-0.6    c1.9,0,5.3,0.8,6.8,1.1l0.1,0.1c0-0.2,0.1-0.5,0.2-0.7c0.2-0.4,0.8-1,2.1-1c2.1,0,5.5,1.4,10.1,4.2c0-0.1,0.1-0.3,0.2-0.5    c1-1.3,4.9-2.1,7.4-2.4c-5.6-1.2-21-4.6-22.1-7.4c-0.2-0.5-0.2-0.9,0-1.2c0.8-1.2,5.7,0.8,9.2,2.2l1.8,0.7    c-0.6-0.3-0.5-0.8-0.2-1.2c1.1-1.3,5.6,1.1,7.6,2.2c0.2,0.1,0.4,0.2,0.5,0.3c-1.4-0.9,0-3.1,0.1-3.1c0.3,0.1,9.3,2.7,13.1,2.7    c1.1,0,1.4-0.2,1.4-0.3c-0.6-2.4-16.8-4.8-26.9-5.7c-0.2-0.1-1.9-1.5-2.1-4c0-0.1,0.1-0.5,0.2-0.6c0.7-0.8,3.6-0.2,6.9,0.6    c3,0.7,6.2,1.1,6.3,0.7c0.5-1,3.3-0.5,5.9,0.1c1.2,0.3,2.4,0.6,3,0.6c-1-1.4-6.8-2.4-11.8-3.3c-7.1-1.2-11.5-2-11.7-3.4    c-0.1-0.7,0.7-1.1,1-1.2c1.2-0.6,2.6-0.9,4.4-0.9c5.7,0,12.4,3.1,13.1,3.4c-0.6-0.3-1.3-3.2-1.3-3.7c5,0.3,9,4.3,9.2,4.5l0.7-3.3    c4.5,1,8.7,2.8,12.5,4.4c3.7,1.6,6.9,2.9,8.2,2.9c0,0,0.4-0.5,0.4-0.5c-0.7-3.6-17.4-7.2-29.6-9.8c-10.9-2.4-15-3.4-15.3-4.4    c0-0.1,0.2-0.5,0.2-0.6c1-0.8,3-1.3,5.9-1.3c3.8,0,7.9,0.7,7.9,0.8l8.9,3.3c0,0,0.5-0.2,0.6-0.7c0.1-0.4,0.1-1.4-1.7-3.3    c-1.7-1.8-8.1-2.3-13.3-2.6c-5.2-0.4-7.9-0.6-8.2-1.6c-0.2-0.6,0.5-1.1,0.7-1.2c2.5-1.6,4.8-2.4,7-2.4c3.8,0,5.7,2.3,5.8,2.4    l-0.3-1.1l0.3-1.2c5.5,0,8.6,1.9,11.7,4.1c-0.1-0.2-0.1-0.4,0-0.6c0.1-0.4,0.1-0.8,0.3-1.1c4.2,0.6,7.3,2.4,10.2,4.1    c-0.3-0.4-0.1-2.4,0.2-3c0.9-0.2,2,0.5,3.9,1.6c2.1,1.3,4.9,3,5.7,3c0,0-0.1-0.5-1.1-1.8c-3.8-5-17.9-6.5-27.1-7.5    c-2.4-0.2-4.4-0.5-5.9-0.7c-3.2-0.5-5.4-1.8-5.3-3.2c0.1-1.5,2.9-2.2,6.8-1.5c-1.6-0.8-3.1-1.2-4.3-1.6c-1.9-0.6-3.2-1.1-3.6-2.1    c-0.3-0.6-0.1-1.4,0.4-2.6c-3.9-1.3-3.7-4.2-3.7-4.2c3.8-3.1,7.8-2.5,11.5,0.5c-0.7-0.6-1.2-3.3-1.2-3.6c0.8-0.3,2.2,0.4,4.5,1.5    c0.3,0.1,0.6,0.3,0.9,0.4c-1.4-1.3-1.1-2.2-0.5-3.7l0.2-0.6c-1.3,0.3-10-1.1-11-3.2c-0.1-0.3-0.2-0.7,0.2-1.2    c2.2-1.3,4.3-1.9,6.4-1.9c3.9,0,6.8,2.1,8.7,3.5c0.8,0.6,1.6,1.1,1.9,1.1c0.3-0.1,0.5-0.3,0.5-0.5c0.2-0.6-0.4-1.6-0.6-1.9    c-0.1-0.1-0.1-0.3,0-0.4c0.1-0.1,0.2-0.2,0.4-0.1c0.2,0.1,19.4,9,22.5,9c0.2,0.1,0-0.2-1-1.1c-4.8-4-18.1-7.9-27-10.4    c-7.4-2.1-8.4-2.5-8.4-3.1c0.2-0.8,1.4-1.2,3.3-1.7c1.2-0.3,2.8-0.8,3.1-1.2c-0.1-0.6-2-1.4-3.2-1.8c-1.1-0.4-1.9-0.7-2.2-1    c0-0.1-0.1-0.6-0.1-0.6c0.6-0.9,7.1-2.6,11.4-2.6c1.6,0,2.8,0.2,3.7,0.6c3.3,1.6,14.8,6.3,18,6.3l0.7-0.7l-0.3,0.2    c-1.7-2.7-16.5-6.4-24-8c-0.4-0.2-1.3-0.8-1.5-1.9c-0.1-0.7,0-1.4,0.5-2.1c-5.2,0.4-6-0.5-6.1-1.2c-0.3-1.6,4.2-3.4,5.5-3.9    c0.4,0.1,22,8,26.3,8c-4.4-4.8-25-9.9-25.2-9.9c0.3-1.1,0.8-1.8,0.8-2l-0.6,0.3c-1.5,0-2.7-2.4-2.9-2.6c0.2-0.5,2.7-2.8,4.9-3.8    c0.5-0.2,1.4-0.3,2.8-0.3c4.9,0,14.4,1.3,14.5,1.3c0.1,0,5.1,1.7,7,1.7c0.5,0,0.5-0.3-0.1-0.8c-1.7-1.6-8-2-13.1-2.3    c-5.5-0.4-7.5-0.6-7.6-1.4c-0.1-0.5,0.5-0.9,1.1-1.1c3.1-1.4,10.6-0.6,15.5,0.2c1.8,0.3,3.2,0.5,4,0.5c-0.3-1-10.3-3.1-15.4-3.1    l-0.8,0c-5.3,0-8-4.3-8-4.4c0-0.9,1.1-1,2.2-1c1.8,0,4.6,0.3,7.6,0.6c5,0.5,10.9,1,13.1,0.5c-2.5-1-7.6-1.4-11.1-1.7    c-2-0.2-3-0.2-3.5-0.5c-0.3-1.2,0.4-2.2,3.6-2.2c3.4,0,8.6,1.2,11.5,2.6c0.8-0.1,1.4-0.4,1.6-0.8c0.2-0.4-0.1-1.1-0.8-1.9    c-2-0.6-5.5-0.8-8.6-1c-3.9-0.2-6.1-0.3-6.6-1.2c-0.1-0.1,0-0.7,0-0.8c0.5-0.9,1.7-1.1,4.2-1.1c1.6,0,3.5,0.1,5.4,0.2    c1.9,0.1,3.8,0.2,5.4,0.2l1.2,0c-0.8-0.5-6.7-1.8-10.6-2.7c-4.2-0.9-5.3-1.2-5.5-1.6c0.2-1.4,2-1.4,2.7-1.4c2,0,5.1,0.6,7.5,1.1    c1.8,0.3,3.3,0.6,4,0.6c-2.7-2.2-6.5-3.6-9-4.5c-2-0.7-2.9-1.1-3-1.6c0.1-0.6,0.3-0.8,0.6-0.9c4.9-1.9,13,4.7,13.3,4.9    c-0.4-0.6-0.4-1.6-0.5-2.7c-0.2-1.5-3.6-4.2-4.9-5.1c1.8-0.7,4.6-1,5.2-1.6c-0.2-0.9-2.5-3.2-4-4.4c0.2-0.6,0.9-0.5,1.7-0.5    c1.1,0,1.8-0.2,2.2-0.4c-0.4-2.4-3.7-4.2-3.7-4.3l2.6-1l2.5-0.4l1.1-14.3c0-0.2,0.2-0.3,0.3-0.3l0,0c0.2,0,0.3,0.1,0.3,0.3    l1.5,15.6c0-0.3,2.5-0.1,3.2,0.8c0,0,0.2,0.8,0.2,0.8c-0.3,1.5-3.1,1.8-3.4,1.9l0.3,2.5c0.2-0.4,2.2-1,3.2-1c0,0,0.6,0.1,0.6,0.1    l0.3,0.5c-0.2,1.1-2.9,3.2-3.4,3.6c0,1.1,0,2.7,0,3c0.2-0.1,2.9,0.8,3.5,1.2c-0.1,1-2.7,2.2-4.2,2.8c0,0.3-0.3,1.7,0.2,2.2    c0.7,0.6,1.7,0.1,3.7-0.5c3.4-1,8-2.1,9.3-0.7c0.4,0.4,0.5,1,0.5,1.8c-0.4,0.3-1.2,0.4-2.3,0.6c-7.2,0.9-10.9,1.6-11.1,2.3    c0.7,0.1,1.6,0,2.7-0.1c2.1-0.2,4.7-0.4,6.8-0.4c3,0,4.3,0.4,4.4,1.3c-0.7,1.1-3.2,1.3-7.2,1.6c-2.8,0.2-7,0.5-7.3,1.1    c0.3,0,4.2,0.3,6-0.2c1.4-0.3,4-0.9,6-0.9c2.1,0,3.3,0.6,3.6,1.9c0.1,0.4,0,0.8-0.2,1.2c-1,1.3-4.9,1.3-8.6,1.4    c-1.7,0-3.4,0-4.6,0.2c-0.7,0.5-1.2,1.1-1.1,1.6c0.1,0.6,0.8,1,2,1.1c9.3-2.1,13.7-2.4,14.4-1c0.2,0.4,0.1,0.9-0.4,1.5    c-0.6,0.3-2,0.6-4.5,0.9c-4.2,0.6-11.3,1.7-11.9,3.5c1.4-0.4,3-0.6,4.9-0.8c3.9-0.5,8.9-0.9,12.6-0.3c0.3,1.6,0.3,3.1,0.3,4.6    c0,1.5,0,3,0.1,4.4c-1.7,0.4-3.1,0.4-4.5,0.4l-6.7,0c-1.3,0-2.7,0-4,0.1c-0.9,0.4-1.5,0.8-1.5,1.3c0,0.5,0.5,1,1.4,1.4    c1.5,0,3.6-0.3,5.6-0.6c4.5-0.6,8.6-0.9,9.5,0.8c-0.5,1.1-2.8,1.5-6.7,2c-2.4,0.4-6.4,1-6.6,1.6c0.9-0.1,2-0.4,3.2-0.7    c2.4-0.6,5.3-1.4,10.6-0.6c2.3,0.3,3.3,0.8,3.4,1.6c0.1,1.4-3.8,2.7-5,3c-0.3,0-9.5-2.1-13.8-0.6c-1.8,0.6-2,1.1-2,1.4    c0,0.7,1.7,1.6,2.5,1.9c-0.1-0.1,5.4-3.1,14.3-2.2c6.2,0.6,9.6,4.2,10.3,6.3c0.2,0.6,0.2,1.1-0.1,1.4l-0.9-0.2L285,218    c-0.2-0.1-0.5-0.1-1.3-0.1c-4.7,0-18.2,2.7-22.6,3.9c-1.7,0.4-1.8,0.8-1.8,0.9c0.3,0.6,1.8,1.1,2.1,1.2c0.3,0,12.2-1.9,18.5-2.8    c0,0,1-0.2,10.3-1.3c3.4-0.4,4.9-0.1,5.2,0.9c0.5,1.4-2,3.5-2.3,3.7l0.8,2.8l-11.1,4.4c0.9,0.1,4.1,1.7,9.6,1.7    c4.2,0,7.4,2,7.4,3.7c0,0.6-0.3,1-1,1.3c-0.6,0.3-1.5,0.5-2.7,0.5l-0.8,0c-4.8,0-9.8,1.4-12.1,2.2c2.6,0.3,8.2,0.8,13.2,0.8l1.4,0    c0,0,0,0,0,0c2.5,0,3.7,0.5,4.1,1.4c0.6,1.3-0.9,3-1.2,3.4c0.3-0.1,1.8,0.8,2.2,2c0.2,0.5,0.1,1.1-0.2,1.5    c-0.4,0.8-1.6,0.6-3.2,0.1c-2.2-0.7-4.7-1-5.6,1.5c-1.8,4.8-5.2,5.1-8.2,5.4l-1.2,0.1c-1.4,0.2-2.1,0.8-2.1,1.2    c0,0.5,1.2,1.1,3.6,0.8c1.5-0.2,3.5-1.1,5.4-2c2.2-1.1,4.3-2.1,6-2.1c1.7,0,2.7,1.1,2.9,3.3c-0.1-0.8,5.9-6.5,7.5-4.9    c0.3,0.4,0.5,1,0.4,1.8c-2.8,3.9-8.6,8.6-20.7,10c-1.5,1-3.9,3.8-3.5,4.5c0.1,0.1,0.4,0.2,0.6,0.2c1.9-1,10.9-4.7,16.8-4.7    c2.9,0,4.7,0.9,5.4,2.7c-1.2,2.8-9.6,2.9-10.6,3c-0.7,0.6-2.8,1-5.4,1.4c-1.4,0.2-2.8,0.4-4,0.7c-0.6,0.2-1.7,0.8-1.9,1.4    c0,0.4,0.2,0.6,0.6,0.9c-0.1-0.1,0.2-0.1,0.6-0.3c2.5-0.8,9.7-2.6,11.4-0.9c0.4,0.4,0.5,0.8,0.5,1.4c2.7-0.9,4.8-1,6.1-1    c3,0,5,0.6,6.1,1.7c0.6,0.7,0.9,1.5,0.9,2.6c-1.2,1.1-13.8,2.3-16.3,2.5c-1.8,0.2-4.9,0.6-5.5,1c0.2-0.2,1,0.3,4.4,0.7    c0.5,0,1.1-0.1,1.8-0.1l1.7,0c1.6,0,3.7,0,6.3-0.3c3.3-0.8,5.6-1.3,6.7-1.3c0.3,0,1.1,0,1.1,0.6c0,1.2-4.9,3.3-6,3.4    c-2.1,0.3-12.1,1-12.5,1c-2.9,1.8-7.9,5-8.2,5.5c1.9-0.3,6.2-0.9,8.7-1.8c0.7-0.2,1.5-0.6,2.2-1c2.6-1.2,5.5-2.1,7.9-0.3    c2.1-1.9,5.6-2.8,7.8-2.8c1.5,0,2.4,0.4,2.6,1.1c0.3,1.1-1.3,2.5-4.6,4.3c-2.9,0.8-6.8,1.9-13.4,2c-8.2,1.3-15.3,3.2-15.3,4    c2-0.4,12.2-2.2,15.6-0.3l1.1-0.5c3.3-1.1,8.5-2.4,10.6-0.4c4.4-1.5,8.6-1.1,9.4,0.6c0.3,0.7,0.2,1.4-0.3,2.2    c-1.8,2.4-10.7,3.4-15.6,2.7c-2.7-0.4-4.5,1-4.5,2.3c0,0.8,0.6,1.4,1.8,1.6c1.7,0,3-0.3,4.4-0.7c3.3-0.9,6.7-1.2,8.3,1.5    c2.4-2.8,8.7-2.9,9.9-0.5c0.3,0.6,0.5,1.7-0.7,3.2c-2.1,0.2-4,0.2-5.8,0.2c-6.7,0-13.6-0.5-20.2-1c-4.2-0.3-8.5-0.6-12.8-0.8    c-0.4,0.3-0.8,0.6-0.8,0.8c0,0.2,0.2,0.5,1.2,1.2c1.9,0.2,4.5,0.3,7.1,0.3c5.4,0.1,10.5,0.2,11.4,2.2c1.7-1.8,6.5-1.5,9.5,0.3    c0.5-0.7,3.1-1,5.2-1c1.6,0,4.4,0.2,4.9,1.5c0.3,0.6,0,1.4-0.8,2.2c-0.4,0.3-1.2,0.5-5.3,0.5c-3.3,0-7.7-0.1-12.1-0.3    c-4.4-0.1-8.8-0.3-12-0.3c-3.9,0-4.7,0.2-4.8,0.3c0.4-0.3,13.5,1.2,16.5,3.4c1.3-1.7,6-1.1,8.5-0.4c0.7,0.2,1.3,0.3,1.5,0.3    c0.3,0,0.9-0.3,1.5-0.6c1.2-0.5,2.9-1.3,4.4-1.3c1.5,0,2.6,0.7,3.1,2.2c-1.9,2.6-5.8,3.8-11.6,3.8c-7.7,0-16.9-2-21.8-3    c-1.6-0.3-2.9-0.6-3.2-0.6c-0.6,0.2-0.7,0.8-0.8,1.3c-0.2,0.8-0.4,1.9-1.4,2.2c-0.5,0-0.8,0-1,0c-2.5,0-2.8,1.1-3.1,2    c-0.1,0.4-0.2,0.7-0.5,1c0,0-0.7,0.2-0.7,0.2c-2,0-9.8-2.3-10.1-2.4c-0.9,0-2.6,0.3-4.5,3.4c-2.4,4,2.1,34.7,2.1,35    c0,0.1,0,0.2-0.1,0.3C264.2,362.3,264.1,362.3,264,362.3L264,362.3z M249.6,325.9l0.3,36l13.7-0.2c-0.5-3.7-4.4-31.1-2-35.1    c2.1-3.4,4.1-3.7,4.9-3.7c0.5,0.1,8.4,2.4,10.4,2.4c0.4-0.2,0.5-0.5,0.6-0.8c0.3-1.1,0.8-2.7,4.7-2.4c0.5-0.2,0.7-0.9,0.8-1.7    c0.1-0.7,0.3-1.4,0.8-1.7l0.6-0.2c0.4,0,1.4,0.2,3.4,0.6c4.9,1,14,3,21.7,3c5.6,0,9.4-1.1,11.1-3.2c-0.5-0.9-1.3-1.5-2.6-1.5    c-1.4,0-2.9,0.7-4.2,1.2c-0.8,0.3-1.3,0.6-1.7,0.6c-0.4,0.1-1-0.2-1.7-0.4c-2.4-0.7-6.4-1.3-8.3,0.3c-3.3-2.2-16.6-3.6-16.7-3.6    c-0.1,0-0.2-0.2-0.3-0.2c0-0.1-0.1-0.3,0-0.4c0.2-0.4,0.7-0.7,5.4-0.7c3.2,0,7.6,0.1,12,0.3c4.4,0.1,8.8,0.3,12.1,0.3    c3.8,0,4.7-0.2,4.9-0.3c0.4-0.4,0.9-1,0.7-1.5c-0.3-0.7-2-1.1-4.3-1.1c-2.2,0-4.5,0.4-5.2,0.9c-3.4-1.6-7.1-1.8-9.6-0.4    c-1.1-1.8-6.5-1.9-11.3-2c-2.6,0-5.2-0.1-7.3-0.3c-1.2-0.7-1.7-1.2-1.7-1.8c0-0.6,0.6-1,1.3-1.4c4.4,0.1,8.7,0.5,12.9,0.8    c8.4,0.6,17.1,1.2,25.7,0.8c0.5-0.9,0.7-1.8,0.4-2.5c-1-1.9-6.4-1.8-9.4,0.6c-2.3-2.6-5-2.1-8.1-1.3c-1.4,0.4-2.8,0.8-4,0.8    c-2.4-0.2-3-1.4-3-2.3c0.1-1.6,2.1-3.3,5.3-2.9c4.7,0.7,13.5-0.3,15-2.4c0.3-0.4,0.6-1,0.3-1.5c-0.7-1.4-4.3-1.6-9-0.4    c-2.7-2.1-7.1-0.7-10.2,0.4l-1.4,0.5c-1.4-0.7-3.1-1-5.3-1c-4.2,0-8.8,1.1-10.2,1.4c-0.1,0-0.4-0.2-0.5-0.3    c-0.1-0.1-0.3-0.4-0.3-0.5c0.4-1.9,12.3-3.9,15.9-4.5c6.6-0.1,10.4-1.2,12.7-1.8c4.8-2.5,4.8-3.5,4.7-3.7c-0.3-1.1-6-0.8-9.7,2    c-3.1-1.7-5.2-0.8-7.7,0.3c-0.8,0.4-1.5,0.7-2.3,1c-2.6,0.9-6.9,1.5-8.5,1.5c-0.5,0-0.6,0-0.7-0.1c0.3-1.3,7-5.5,8.4-6.3    c0.2-0.1,10.6-0.8,12.6-1.1c1.4-0.2,5.3-2.2,5.4-2.8c-1.6,0.1-3.8,0.5-7.1,1.3c-2.7,0.2-4.8,0.3-6.4,0.3h-1.7c-0.7,0-1.3,0-1.8,0    c-4.4-0.5-4.8-0.9-4.9-1c0-0.1-0.1-0.6,0-0.6c0.9-0.7,5.1-1.1,5.9-1.2c5.7-0.5,15.1-1.6,15.8-2.1c0-0.7-0.3-1.4-0.8-1.9    c-1-1-2.8-1.5-5.6-1.5c-1.3,0-3.4,0.1-6.2,0.7c-0.5-0.7-0.6-1-0.9-1.3c-1.4-1.4-8.4,0.3-10.8,1c-0.5,0.1-0.8,0.2-0.9,0.2    c-0.8-0.4-1.1-0.7-1.1-1.2c0.4-1.5,2.1-2.2,2.3-2.3c1.3-0.3,2.7-0.5,4.1-0.7c2.2-0.3,4.5-0.7,5.2-1.3c2.7-0.1,9.4-0.6,10.2-2.4    c-0.6-1.3-2.2-2-4.8-2c-5.8,0-14.6,3.7-16.6,4.7c-0.7,0-1.1-0.1-1.3-0.4c-1-1.4,3.1-5.3,3.2-5.3c0,0,0.7-0.2,0.7-0.2    c11.8-1.4,17.5-6,20.2-9.6c0-0.7-0.1-1-0.3-1.2c0,0-0.1,0-0.1,0c-2.1,0-5.7,3.4-7,4.7c-0.8-2.6-1.9-2.9-2.8-2.9    c-1.5,0-3.7,1-5.7,2c-2,0.9-4,1.9-5.6,2.1c-3.1,0.4-4.3-0.6-4.3-1.4c0-0.8,0.7-1.6,2.6-1.9l1.3-0.1c3.1-0.3,6.1-0.6,7.7-5    c0.6-1.7,1.7-2.5,3.3-2.5c1,0,2.1,0.3,3.1,0.7c0.7,0.2,1.4,0.5,1.9,0.5c0.7-0.6,0.8-0.9,0.7-1.3c-0.3-0.9-1.5-1.8-2.1-2.1    c0.4-1,1.4-2.4,1.1-3.3c-0.3-0.7-1.4-1-3.2-1l-1.8,0c-6.8,0-14.6-0.9-14.7-0.9c-0.1,0-0.3-0.1-0.3-0.3c0-0.1,0.1-0.3,0.2-0.3    c0.3-0.1,7-2.7,13.7-2.7l0.8,0c1,0,1.9-0.1,2.4-0.4c0.4-0.2,0.6-0.5,0.6-0.8c0-1.2-2.8-3.1-6.7-3.1c-6.6,0-10-2.2-10.1-2.3    l3.4-1.8l7.8-2.9l-0.5-1l-0.4-1.7c1.1-1.1,2.5-2.6,2.2-3.3c-0.2-0.6-1.7-0.8-4.5-0.5c-9.2,1.2-10.2,1.3-10.2,1.3    c-0.7,0.1-18.2,2.8-18.6,2.8c-0.1,0-2.2-0.5-2.6-1.5c0-1,0.8-1.5,2.2-1.8c5.1-1.3,21.7-4.6,24.3-3.7c0.4,0,0.5-0.2,0.3-0.7    c-0.5-1.6-3.6-5.2-9.7-5.8c-8.7-0.9-14.2,2.2-14.2,2.2c-0.6-0.1-3.2-1.1-3.2-2.5c0-0.8,0.8-1.4,2.5-2c4.5-1.5,14,0.6,14,0.6    c2-0.7,4.4-1.8,4.3-2.4c0-0.1-0.2-0.6-2.8-1c-5.2-0.8-8-0.1-10.4,0.6c-1.2,0.3-2.3,0.6-3.5,0.6c0,0-0.2-0.2-0.3-0.3    c-0.1-0.1-0.1-0.4-0.1-0.5c0.3-0.9,2.9-1.3,7.1-2c2.5-0.4,5.9-0.9,6.2-1.4c-0.7-0.7-4.7-0.7-8.9-0.1c-2,0.3-4.1,0.6-5.8,0.6    c-1.3-0.5-2-1.2-2-2c0-0.5,0.4-1.3,2-1.9c1.5-0.1,2.8-0.1,4.2-0.1l6.7,0c1.4,0,2.8,0,4.2-0.1c-0.4-1.1-0.4-2.6-0.4-4.1    c0-1.4,0-2.9-0.1-4.2c-1.2,0-2.7-0.1-4.2-0.1c-2.8,0-5.5,0.3-7.9,0.6c-1.9,0.2-3.5,0.4-4.8,0.4c-0.1,0-0.4-0.1-0.5-0.1    c-0.1-0.1-0.3-0.2-0.3-0.3c0.7-2.1,6.3-3,12.5-3.9c2-0.3,3.8-0.6,4.2-0.8c0.2-0.3,0.3-0.6,0.2-0.7c-0.1-0.1-0.4-0.5-2.2-0.5    c-2.3,0-6.1,0.6-11.2,1.7c-2.5-0.2-3-1.1-3.1-1.5c-0.2-0.8,0.4-1.7,1.5-2.4c1.4-0.2,3.1-0.2,4.8-0.2c3.3,0,7.3,0,8.1-1.1    c0.1-0.2,0.2-0.4,0.1-0.6c-0.2-0.9-1.2-1.4-2.9-1.4c-2,0-4.5,0.6-5.9,0.9c-2,0.5-6.4,0.2-6.4,0.2c-0.1,0-0.2-0.3-0.3-0.4    c-0.1-0.1-0.1-0.4-0.1-0.5c0.4-0.9,3.3-1.2,7.9-1.5c2.5-0.2,6.3-0.4,6.6-0.9c0-0.1-0.4-0.7-3.8-0.7c-2.1,0-4.7,0.2-6.8,0.4    c-1.1,0.1-2.1,0.2-2.8,0.2l0,0c-0.1,0-0.3-0.3-0.4-0.4c-0.1-0.1-0.2-0.4-0.2-0.5c0.3-1.2,4.5-1.9,11.6-2.7    c1.1-0.1,1.8-0.2,1.9-0.3c-0.1-0.3-0.2-0.7-0.5-1c-1-1.2-5.5-0.1-8.7,0.9c-2.5,0.7-3.6,1-4.2,0.5c-1-1.1-0.4-3-0.3-3.2    c2-1,4-2,4.2-2.2c0,0,0,0,0,0c-0.4,0-3-0.9-3.3-0.9c-0.5-0.7-0.4-2.9-0.3-3.8c1.4-1.2,3.2-2.7,3.3-3.3c0,0,0,0,0,0    c-1.4,0-3.7,0.8-3.7,0.8l-0.4-3.3c1-0.4,2.9-0.8,3.1-1.7c-0.5-0.8-2.2-1.1-3.1-1.1l-1.5-12.5l-1,11.2l-4.8,1    c1,0.2,3.4,1.8,3.9,3.5c0.2,0.5,0,0.8-0.1,1c-0.7,0.6-1.6,0.8-2.8,0.8c-0.5,0-1,0-1.3-0.1c1.1,0.3,3.9,2.9,4.2,4    c0,0.1-0.2,0.6-0.2,0.7c-0.9,0.9-4.5,1.1-5.3,1.2c1,0.1,4.9,3.1,5.2,5c0.2,1.1,0.2,2.2,0,3c-0.8,0-6.6-4.9-11.3-4.9    c-0.7,0-1.3,0.1-1.9,0.3c-0.2,0.4,1.2,0.9,2.4,1.4c2.6,1,6.4,2.4,9.5,5.1c0.1,0.1-0.1,0.3-0.2,0.4c0,0.1-0.4,0.3-0.6,0.3    c-0.8,0-2.3-0.3-4.1-0.6c-2.4-0.5-5.4-1-7.4-1c-0.9,0-2,0.1-2.1,0.7c0.2,0,2.8,0.6,5.1,1.1c5.7,1.3,10.1,2.3,10.8,3.5l-1.4,0.5    c-1.6,0-3.5-0.1-5.4-0.2c-1.9-0.1-3.8-0.2-5.4-0.2c-2.8,0-3.5,0.3-3.6,0.5c0.2,1,3.4,1.1,6,1.2c3.1,0.2,6.7,0.3,8.9,1.1    c1,1.1,1.3,1.9,1,2.6c-0.3,0.7-1,1-2.3,1.1c-4.9-2.3-14.7-3.3-14.7-1.4c0.3,0,1.7,0.1,3.2,0.2c3.5,0.3,8.7,0.7,11.2,2.3    c-0.8,0.7-1.9,0.8-3.2,0.8c-2.9,0-6.8-0.4-10.2-0.8c-3-0.3-5.8-0.6-7.5-0.6c-1.3,0-1.6,0.2-1.7,0.2c0.1,0,2.6,3.8,7.4,3.8l0.8,0    c4.9,0,15.5,1.9,16.3,3.6c-0.1,0.8-0.6,0.8-0.9,0.8c-0.8,0-2.3-0.2-4.1-0.5c-4.7-0.8-12.2-1.6-15.1-0.3c-0.7,0.3-0.7,0.5-0.8,0.5    c0.3,0.4,4.1,0.6,7.1,0.8c5.5,0.4,11.7,0.8,13.5,2.5c0.7,0.6,0.9,1.1,0.8,1.5c-0.2,0.5-0.9,0.5-1.1,0.5c-2,0-6.9-1.6-7.1-1.7    c0,0-9.5-1.3-14.3-1.3c-1.6,0-2.3,0.1-2.5,0.3c-2.2,1-4.7,3.3-4.7,3.4c0.4,0.3,1.4,1.9,2.4,1.9l0.8-0.2c0,0,0.5,0.4,0.5,0.4    c0,0.5-0.8,1.5-1.1,2c0.8-0.4,20.8,4.6,25.4,9.1c0.3,0.3,0.7,0.7,0.5,1.1c-0.2,0.4-0.7,0.4-1,0.4c-4.4,0-25.4-7.7-26.3-8    c-2.3,0.9-5,2.4-4.9,3.2c0,0.2,0.6,1,5.8,1.1c-0.1,1.1-0.3,1.6-0.2,2.2c0.2,0.8,0.9,1.4,1.1,1.5c0.8,0.1,22,4.6,24.3,8.3    c0.3,0.4,0.3,0.8,0.2,1c-0.2,0.3-0.5,0.5-1.1,0.5c-3.5,0-15.2-4.8-18.3-6.4c-0.8-0.4-1.9-0.6-3.4-0.6c-4.6,0-10.4,1.8-10.9,2.3    c0.2,0,1.1,0.4,1.9,0.7c1.7,0.7,3.5,1.3,3.6,2.3c-0.4,1.1-1.6,1.4-3.5,1.9c-1,0.3-2.8,0.7-2.8,1.1c0.3,0.3,4,1.3,7.9,2.5    c8.9,2.6,22.3,6.4,27.2,10.5c1.2,1,1.4,1.5,1.3,1.8c0,0.1-0.6,0.4-0.7,0.4c-2.9,0-17.9-6.9-21.8-8.7c0.2,0.5,0.4,1.1,0.2,1.6    c-0.1,0.3-0.3,0.7-0.9,0.9c-0.9,0-1.5-0.5-2.6-1.2c-1.9-1.4-4.7-3.4-8.3-3.4c-2,0-4,0.6-6,1.8c0.7,2,7.8,3.4,10.7,3.7l0,1    c-0.7,1.8-1,2.4,2,4.2c0.5,0.3,0.6,0.4,0.7,0.5c0,0.2,0,0.6-0.2,0.6c-0.4,0-1.4-0.6-3.8-1.7c-1.6-0.8-3.6-1.7-3.9-1.8    c0.4,0.1,1.1,3.5,1.1,3.5c-4.4-2.3-7.8-2.8-11.1-0.4c0.1,0,0.2,2.3,3.6,3.8c-0.3,1.4-0.4,2-0.2,2.5c0.3,0.7,1.5,1.1,3.2,1.7    c1.7,0.6,4,1.3,6.6,2.8c0.1,0.1,0.2,0.2,0.1,0.4c-0.1,0.1-0.2,0.2-0.4,0.2c-5-1.3-8.4-0.6-8.5,0.4c-0.1,0.7,1.4,2,4.7,2.5    c1.5,0.2,3.6,0.5,5.9,0.7c9.4,1,23.6,2.5,27.6,7.7c1.2,1.5,1.5,2.2,1.1,2.7c-1.4,0.1-3.6-1.1-6.5-3c-1.4-0.9-2.9-1.8-3.2-1.8    c0.1,0.3-0.1,2-0.2,3c-3.5-1.5-6.4-3.2-10.3-4c0.2,0.1,0.2,0.4,0.1,0.8c-0.1,0.4-0.1,0.8-0.3,1.1c-3.6-2.1-6.7-4-11.8-4.3l0,0.9    l-0.3,1.2c-0.6,0-2.4-2.1-5.8-2.1c-2.1,0-4.3,0.8-6.7,2.3c-0.4,0.3-0.5,0.5-0.5,0.5c0.2,0.7,4.3,0.9,7.7,1.2    c5.5,0.4,11.8,0.8,13.7,2.8c1.5,1.6,2.1,2.9,1.8,3.9c-0.3,0.9-1.2,1.1-1.2,1.1l-9.1-3.3l0,0c0,0-4-0.7-7.7-0.7    c-2.7,0-4.6,0.4-5.5,1.1c0.4,0.8,8,2.4,14.8,3.9c16.6,3.6,29.3,6.7,30.1,10.3c0.1,0.4,0.1,0.7-0.1,1c-0.8,1-4.3-0.5-9.4-2.6    c-3.7-1.6-8-3.4-12-4.6l-0.8,3.2c0,0,0,0,0,0c-0.6,0-4.6-3.9-9-4.5c0.4,0.1,0.9,2.3,1.3,3.6c-0.6,0.3-7.6-3-13.3-3    c-1.6,0-3,0.3-4.1,0.8c-0.5,0.3-0.7,0.5-0.7,0.5c0.1,0.9,6.5,2,11.2,2.8c5.7,1,11,1.9,12.2,3.1c0.3,0.4,0.5,0.7,0.4,0.9    c-0.1,0.1-0.7,0.5-0.9,0.5c-0.7,0-1.8-0.3-3.1-0.6c-2.2-0.5-4.9-1-5.1-0.5c-0.3,0.5-1,0.6-1.5,0.6c-1.3,0-3.5-0.5-5.6-1    c-3.1-0.7-6.1-0.9-6.3-0.8c0.1,2.3,1.6,3.6,1.6,3.6c2.5,0.2,26.4,2.6,27.3,5.8c0,0.1-0.1,0.8-0.1,0.9c-0.3,0.4-0.9,0.6-1.9,0.6    c-3.8,0-12-2.6-12.8-2.8c0.1,0.2-0.9,1.9,0,2.7c0,0.2,0.1,0.7-0.1,0.7c-0.2,0-0.5-0.2-0.9-0.4c-1.6-0.9-6.1-3.2-6.8-2.4    c-0.2,0.2-0.2,0.5-0.1,1l-2.2-0.4c-2.6-1.1-6.2-2.6-7.8-2.6l-0.5,0.7c1,2.6,20.1,6.7,23.6,7.4c0.2,0,0.3,0.2,0.3,0.3    c0,0.2-0.1,0.3-0.3,0.3c-2.9,0.2-8,1-9,2.4c0,0.1-0.1,0.5-0.2,0.6c-0.1,0.1-0.3,0.4-0.4,0.3c-8.8-5.4-10.9-4.9-11.6-3.8    c-0.2,0.3-0.2,0.6-0.1,0.7c-0.4,0.5-0.7,0.4-1.1,0.3c-1.4-0.3-4.7-1-6.5-1c-0.8,0-0.9,0.2-0.9,0.2c0,0,0.1,0.7,4.6,3.1    c8.3,4.5,8.3,5.4,8.4,5.7c-0.1,0.1-0.3,0.5-0.4,0.5c0,0.1-0.3,0.1-0.6,0.1c0.1,0.2,1,2.5,0.9,3.1c-0.6,0.3-1.2,0-2.1-0.4    c-2.5-1.2-7.7-3.8-9.7-4c0,0,0,0,0,0c-2.4,0-7.5,1.5-8,3.8c-0.3,1.7,1.8,3.6,6.2,5.5c7.8,3.4,15.8,2.3,21.8,0.7    c3.2-0.8,6.1-1.6,9-1.3c6.6,0.7,9.8,1.7,10.9,3.3c0.4,0.6,0.5,1.2,0.3,1.9c-0.3,0.9-1.3,0.6-2.9-0.4c-1.6-0.9-3.7-2.2-6.2-2.2    c-2.4,0-4.6,1.2-6.7,3.8c-6.4-1-10.8-1.7-11.5-0.4c-0.3,0.7,0.1,1.9,1.4,3.7c-4.7-1.1-8-1.4-10-1.4c-3.2,0-5,0.9-5.1,1.7    c-0.1,0.9,1.9,2.8,9.8,4.1c0.9,0,1.7,0,2.6,0c15.8,0,25.7-4.3,25.8-4.3c0.4,0.2,2,3,4.4,3c0.9,0,1.9-0.4,2.8-1.3    c1.1-1,2-1.5,2.8-1.5c1.7,0,2.1,2.1,2.2,2.8c0,0,3.8-1.7,3.8-1.7L249.6,325.9L249.6,325.9z M227.1,313.3c-1.1,0-4.7-1.2-5.9-3.5    c0.5-0.5,0.8-0.6,1.1-0.6c0,0,0.3,0,0.3,0c0.9,0,2.4,0.2,4.6,1.3c0.3,0.4,0.2,2.7,0.2,2.7C227.3,313.3,227.2,313.3,227.1,313.3    L227.1,313.3z M222.5,309.6l-0.3,0.3c-0.3,0-0.5,0.1-0.8,0.1c1.3,1.6,4.6,2.7,5.4,2.9c-0.2-0.4-0.2-1.9-0.2-2c-1.6-0.6-3-1-4.2-1    V309.6L222.5,309.6z M250.2,313c-2.3,0-6.7-1.2-7.1-3.5c0.8-1,1.9-1.4,3.3-1.5c0,0,0.4,0,0.4,0c2.3,0,4.5,0.8,4.6,0.9    c0.4,0.6,1.5,2.9,0.3,3.8C251.2,313,250.8,313,250.2,313L250.2,313z M246.8,308.3l-0.4,0.3c-1.2,0.1-2.2,0.4-2.8,1    c0.4,1.9,6.5,3.1,7.5,2.5c0.7-0.6,0.2-2.1-0.2-2.9c-0.1,0-2.2-0.7-4.2-0.7V308.3L246.8,308.3z M265.8,312.8c-2.3,0-5-0.5-5.2-0.5    l-0.3-2.1c0.8-0.5,1.6-0.6,2.6-0.6c0,0,0.1,0,0.1,0c2.1,0,5.3,0.5,5.9,1.5c0.1,0.1,0,0.8-0.1,0.9    C268.4,312.5,267.5,312.8,265.8,312.8L265.8,312.8z M261.3,311.8c0.7,0,2.8,0.3,4.5,0.3c1.8,0,2.4-0.3,2.6-0.6    c-0.2-0.7-2.7-1.4-5.3-1.4v-0.3l-0.1,0.3c-0.9,0-1.7,0.1-2.2,0.3l0.2,1.4C261.1,311.8,261.2,311.8,261.3,311.8L261.3,311.8z     M263.4,305.8c-1.5,0-2.7-0.3-2.8-0.3l-0.5-2.2c0-0.1,0-0.2,0.1-0.3c0.1-0.1,0.2-0.1,0.2-0.1l0,0.3l0.2-0.3c1.1,0,2.7-0.4,4.2-0.7    c1.3-0.3,2.4-0.6,3.3-0.6c0.4,0,1.1,0,1.3,0.5c0.2,0.5-0.1,1-0.4,1.5C267.6,305.4,265.2,305.8,263.4,305.8L263.4,305.8z     M261.2,305c0.4,0,1.2,0.1,2.2,0.1l0,0c1.7,0,3.9-0.3,5.1-2c0.4-0.6,0.4-0.8,0.4-0.8l-0.6-0.4l-0.2,0.3c-0.8,0-1.9,0.3-3.1,0.6    c-1.5,0.3-3,0.7-4.1,0.7l0.2,1.5C261,305,261.1,305,261.2,305L261.2,305z M250.9,305.5c-1.4,0-6.9-0.3-8.3-1.2    c-1.1-0.1-4.7-1.8-5-2.9c0.6-0.8,1.1-1,1.6-1c0,0,0.1,0,0.2,0c1.1,0,2.2,0.6,3.1,1.2l0.6,0.4c0.4-0.2,1.1-0.2,1.9-0.2    c2.8,0,6.3,0.6,6.3,0.6l0.3,2.8C251.6,305.2,251,305.5,250.9,305.5L250.9,305.5z M239.4,300.7l-0.1,0.3c-0.4,0-0.8,0.2-1.2,0.4    c0.4,0.6,3.6,2.3,4.7,2.3c1.3,0.8,6.3,1.1,8.1,1.1l0.1-2.1c-0.2,0.2-3.4-0.3-5.9-0.3c-0.8,0-1.5,0-2,0.2l-0.9-0.4    c-0.9-0.6-1.8-1.1-2.8-1.1V300.7L239.4,300.7z M262.5,298.2c-1,0-1.8-0.1-1.8-0.1l-0.3-1.6c0-0.3,0.1-0.3,1.2-0.5    c0.9-0.2,2.3-0.5,3.3-0.5c0.7,0,1,0.1,1.3,0.2c0.4,0.6,0.3,0.8,0.2,1.1C265.7,298,263.9,298.2,262.5,298.2L262.5,298.2z     M261.1,296.8v0.9c0.2-0.1,0.8,0,1.4,0c1,0,2.8-0.1,3.3-1.1c0-0.3-0.2-0.4-0.6-0.4c-1.2,0-2.5,0.3-3.4,0.5    C261.4,296.7,261.2,296.7,261.1,296.8L261.1,296.8z M250.2,293.3c-2.8,0-8.6-2.8-9.2-4.2c0-0.1,0-0.6,0.1-0.7    c0.2-0.2,0.5-0.3,1-0.3c0,0,0,0,0,0h0.1c6.7,0.7,9.1,3.4,9.6,4.1C251.6,293.1,251.1,293.3,250.2,293.3L250.2,293.3z M242.2,288.4    l0,0.3c-0.4,0-0.6,0.1-0.6,0.1c0.1,0.7,5.7,3.8,8.6,3.8c0.4,0,0.9-0.1,1.1-0.4c-0.5-0.4-2.7-2.8-9.1-3.5L242.2,288.4L242.2,288.4z     M277,290.6c-0.9,0-1.6-0.1-1.8-0.1c-0.1,0-0.3-0.1-0.3-0.3c0-0.1,0-0.3,0.2-0.3c1.1-0.6,2.5-1.3,3.5-1.3c0,0,0.8,0.2,0.8,0.2    c0,0,0.4,0.8,0.4,0.8C279.4,290.3,278.5,290.6,277,290.6L277,290.6z M276.4,289.9c0.2,0,0.4,0,0.6,0c1.7,0,2.1-0.4,2.2-0.5l0-0.4    l-0.6,0.2v-0.3l-0.1,0.3C277.9,289.2,277,289.6,276.4,289.9C276.3,289.9,276.3,289.9,276.4,289.9L276.4,289.9z M260.6,287.9    c-0.1,0-0.2,0-0.2,0c-0.1-0.1-0.3-0.1-0.3-0.2c0-0.3,0.2-1.8,0.2-1.8c5.3-3.3,14.5-6.1,19.4-6.2h0.1c1.3,0,2.2,0.2,2.8,0.6    c0.1,0.8-0.8,2.8-3.7,3.6h0c-2.8,0-9.1,1.4-18.1,4C260.8,287.9,260.7,287.9,260.6,287.9L260.6,287.9z M260.8,286.1    c0.1,0.1-0.1,1.3-0.1,1.5c9.1-3,15.4-4.4,17.7-4.4c2.8-0.7,3.6-2.3,3.7-2.7c-0.3-0.1-1.2-0.3-2.3-0.3v-0.3l-0.1,0.3    C275,280.3,265.8,283.1,260.8,286.1L260.8,286.1z M260.8,282.6c-0.4-0.3-0.2-1.8-0.2-2.1c0.4-0.3,1.1-0.5,2.2-0.7    c3.2-0.8,9.1-2.3,11-2.4c0,0,0.8,0.2,0.9,0.3c0,0.1-0.4,0.7-0.4,0.8C271.4,280.5,261.2,282.5,260.8,282.6L260.8,282.6z M273.8,278    c-1.9,0.1-7.9,1.6-10.9,2.4c-1.7,0.4-1.9,0.5-2,0.5c0.2,0.1,0.2,1.2,0.1,1.4C261.4,281.8,271.1,279.9,273.8,278L273.8,278z     M260.5,277.5l-0.3-2.1c0.9-0.3,1.8-0.4,2.9-0.5c1.2-0.1,2.6-0.3,3.8-0.3c0,0,0.6,0,0.6,0c1.3,0,1.6,0.2,1.8,0.4    c0,0.1,0.1,0.6,0.1,0.6C267.7,277.2,261.2,277.4,260.5,277.5L260.5,277.5z M267.4,274.8l-0.6,0.3c-1.1,0-2.5,0.2-3.7,0.3    c-1,0.1-2,0.2-2.6,0.2l0.3,1.4c1.6-0.4,6.8-0.8,7.9-1.9l0,0c0,0-0.3-0.1-1.3-0.1V274.8L267.4,274.8z M261,273    c-0.4-1.1-0.5-3.9-0.5-4.2c8.8-2.8,14.5-4.2,17.2-4.3c0,0,0.3,0,0.3,0c0.9,0,1.5,0.2,1.7,0.6c0.1,0.7-0.2,1.1-0.7,1.6    C277.9,267.6,262.7,272.5,261,273L261,273z M278,264.8l-0.3,0.3c-2.6,0.1-8.3,1.5-16.8,4c0.2,0.1,0.3,3.5,0.3,3.5    c6.3-2.4,16.6-5.9,17.4-6.6c0.5-0.5,0.5-0.7,0.5-0.8c0,0-0.2-0.3-1.1-0.3V264.8L278,264.8z M260.3,266.6l-0.3-3.1    c0-0.2,0.1-0.3,0.3-0.3l0.8-0.1c1.7-0.3,5.8-1.1,8-1.2c1.3-0.1,1.7,0.1,1.9,0.5c0.2,0.4-0.2,0.8-0.5,1.1    C267.2,266.1,260.6,266.6,260.3,266.6L260.3,266.6z M260.6,263.8v2.5c0.3-0.3,6.5-0.9,9.4-3.2c0.4-0.3,0.2-0.5-0.7-0.5    c-2.5,0.1-6.5,0.8-8.2,1.2L260.6,263.8L260.6,263.8z M252.6,260C252.6,260,252.5,260,252.6,260c-0.1,0-21.8-7-22.4-7.2    c0-0.1-0.1-0.8,0-0.9c0.3-0.3,0.8-0.5,1.6-0.6c0,0,0,0,0,0c3.7,0,10.6,1.9,20.5,5.5l0.6,2.8c0,0.1,0,0.2-0.1,0.3    C252.7,260,252.7,260,252.6,260L252.6,260z M232.2,252c-1.1,0.1-1.4,0.2-1.5,0.3c0.3,0.1,18.3,5.8,21.5,6.9l-0.3-2    C239.7,252.9,234.4,252,232.2,252L232.2,252z M260.6,259.8c-0.3-0.3-0.5-2-0.6-2.5c0-0.1,0-0.2,0.1-0.3c0.1-0.1,0.2-0.1,0.3-0.1    l0,0.3l0.5-0.3c1.9,0.1,3.7,0.3,4.3,0.8c0,0.1,0.2,0.6,0.2,0.6C264.6,259.4,261.2,259.7,260.6,259.8L260.6,259.8z M260.7,257.5    c0.1,0.7,0.2,1.9,0.2,1.9c1.2-0.4,3.4-0.8,3.8-1.3C264.3,257.9,263,257.7,260.7,257.5L260.7,257.5L260.7,257.5z M260.4,254.7    c-0.4-0.3-0.6-2.4-0.6-2.5c0.4-0.3,0.8-0.4,1.5-0.5c1.9-0.3,5.7-0.8,7.7-0.9c0,0,0.3,0,0.3,0c0.9,0,1.1,0.1,1.3,0.3l-0.3,0.4    l0.2,0.3C269.3,252.8,261.3,254.5,260.4,254.7L260.4,254.7z M260.1,252.5c0.3,0.1,0.5,1.8,0.5,1.8c2.8-0.9,7.7-2.1,9.1-2.8    c-0.1,0-0.3,0-0.4,0v-0.3l-0.3,0.3c-2,0.1-5.8,0.6-7.7,0.9C260.7,252.4,260.3,252.5,260.1,252.5L260.1,252.5z M252.7,250.6    c-1.2-0.1-14.7-5.6-16.2-5.6v-0.3l0,0.3c-0.6-0.7-0.7-1.2-0.4-1.5c0.2-0.4,0.6-0.5,1.3-0.6h0c3.4,0,11.3,3.3,14.2,4.6    c0.6,0.3,1,0.4,1.1,0.5c0.2,0.5,0.2,1,0.2,1.5C252.8,249.9,252.8,250.4,252.7,250.6L252.7,250.6z M236.6,244.3    c1.9,0.1,13.5,4.9,15.6,5.8c-0.1-0.2-0.1-0.4-0.1-0.7c0-0.6,0-0.9,0-1.1c-0.1,0.1-0.5-0.1-1-0.3c-2.9-1.2-10.6-4.5-13.7-4.5    c-0.6,0-0.9,0.1-1,0.3C236.5,243.9,236.5,244.1,236.6,244.3L236.6,244.3z M259.8,248.1l-0.4-2.4c0.6-0.4,7.3-1.4,10.4-1.5    c0,0,0.5,0,0.5,0c0.8,0,1,0.1,1.1,0.1c0,0.1,0.2,0.6,0.1,0.6C270.3,246,260.9,247.9,259.8,248.1L259.8,248.1z M270.3,244.5    l-0.5,0.3c-3.1,0.1-9.7,1.1-10,1.2l0.3,1.8c3.3-1,8.7-2.3,10.5-3c-0.1,0-0.2,0-0.3,0V244.5L270.3,244.5z M259.6,242.4l0-0.3    l-0.1,0.3c0,0-0.1-0.1-0.2-0.1c-0.2-0.6-0.1-1.4,0-2.2c0.1-0.1,0.5-0.5,0.6-0.4c0.1-0.1,1.3-0.3,3-0.7c3.2-0.6,8-1.6,10.2-1.6    c0.9,0.1,1.2,0.1,1.4,0.3c0,0.1-0.1,0.7-0.2,0.7C272.3,240.3,259.8,242.4,259.6,242.4L259.6,242.4z M273.5,237.8l-0.3,0.3    c-2.1,0.1-6.9,1-10.1,1.6c-1.7,0.3-3,0.6-3.3,0.6c0.1,0.7,0,1.2,0.1,1.5c1.3-0.2,12.4-2.2,14.1-3.8L273.5,237.8L273.5,237.8z     M253.3,237.7c-1.2,0-22.3-7.4-22.3-7.4c-0.2-0.3-0.4-0.8,0-1.3c0.3-0.5,1-0.7,1.9-0.8c0,0,0.4,0,0.4,0c3.4,0,10,2.3,19.7,6.9    C253.4,237.2,253.4,237.5,253.3,237.7L253.3,237.7L253.3,237.7z M233.4,228.5l-0.3,0.3c-0.7,0-1.2,0.2-1.4,0.5    c-0.3,0.3,19.4,7.2,21.4,7.9c-0.3-0.2-0.3-1.2-0.3-1.6c-11.8-5.6-17-6.8-19.3-6.8V228.5L233.4,228.5z M259.6,232.4l-0.4-2.5    c0-0.2,0.1-0.3,0.3-0.3c0.1,0,0.7-0.1,1.5-0.3c2-0.5,5.4-1.3,7.2-1.4c0.7,0,1,0.1,1.2,0.2c0,0.1,0,0.7-0.1,0.8    C267.8,230.7,260,232.3,259.6,232.4L259.6,232.4z M259.9,230.2v1.9c1.8-0.8,7.8-2.3,9-3.6c-2.3,0.1-5.6,0.9-7.7,1.4    C260.6,230,260.2,230.1,259.9,230.2L259.9,230.2z M252.4,232.3C252.4,232.3,252.3,232.3,252.4,232.3c-3.9-1.2-16.3-5-16.9-5.8    c-0.2-0.3-0.5-0.9-0.2-1.4c0.2-0.4,0.7-0.6,1.5-0.7c0,0,0,0,0,0c2.8,0,8,1.7,15.7,4.9l0.3,2.7c0,0.1,0,0.2-0.1,0.3    C252.5,232.3,252.5,232.3,252.4,232.3L252.4,232.3z M237,225c-0.7,0-1.1,0.2-1.2,0.3c-0.1,0.2,0,0.5,0.2,0.8    c0.6,0.6,10,3.6,16,5.4l0-1.9C242.7,225.8,238.7,225,237,225L237,225z M258.4,218.8l-0.6-3.6c0.3-0.3,5.9-1.1,9.7-1.1l0.6,0    c2.3,0,2.7,0.3,2.9,0.6c0.1,0.1-0.1,0.6-0.2,0.7C269.3,217.3,259.5,218.7,258.4,218.8L258.4,218.8z M268.2,214.7l-0.6,0    c-3.8,0.1-9.3,0.8-9.3,0.8l0.5,2.9c2.6-0.7,10.5-2.1,11.7-3.5C270.5,215,270.2,214.7,268.2,214.7L268.2,214.7z M253.3,213    c-1.1,0-9.1-2.5-9.5-3.8c0.4-0.7,0.8-0.8,1.3-0.8c0,0,0.2,0,0.2,0c1.6,0,4.4,0.5,6.2,0.9c0.9,0.2,1.5,0.3,1.6,0.3    c0.1,0,0.2,0.3,0.2,0.3c0.1,0.1,0.1,0.4,0.1,0.5C253.6,211.8,253.6,212.7,253.3,213C253.4,213,253.3,213,253.3,213L253.3,213z     M245.3,208.8l-0.2,0.3c-0.4,0-0.6,0.1-0.7,0.1c0.4,0.7,7.4,3.1,8.6,3.4c-0.1-0.2-0.2-1.6-0.2-2.1c0.1-0.2-0.6-0.4-1.5-0.5    c-1.8-0.3-4.5-0.9-6.1-0.9V208.8L245.3,208.8z M252.4,207.9c-1.3,0-14.7-3.8-16-3.8v-0.3l0,0.3c0,0-0.6-0.1-0.6-0.2    c0-0.1-0.3-0.5-0.2-0.6c0.5-0.7,1.2-0.9,2.2-0.9c0,0,0.1,0,0.1,0c3.4,0,8.2,0.9,14.3,2.6c0.1,0,0.3,0.6,0.3,0.8    C252.4,206.9,252.4,207.6,252.4,207.9C252.4,207.9,252.4,207.9,252.4,207.9L252.4,207.9z M238.2,203c-1.8,0.1-2.1,0.4-2.2,0.4    l0.2,0c1.6,0,14.6,3.8,15.8,4.1c-0.3-0.2-0.4-1.4-0.4-1.8C244.1,203.4,240.2,203,238.2,203L238.2,203z M257.8,199.4    c-0.4-0.5-0.5-1.5-0.6-2c0-0.1,0-0.2,0.1-0.2c0.1-0.1,0.1-0.1,0.2-0.1h0c0.2,0,0.5,0.1,0.8,0.1c1.7,0.2,2.6,0.3,2.8,0.7    c0,0.2-0.1,0.7-0.3,0.7C260.6,199.2,257.8,199.4,257.8,199.4L257.8,199.4z M257.9,197.7c0,0.5,0.1,1.1,0.2,1.2    c0.1-0.2,2.3-0.4,2.7-0.9c-0.2-0.1-1.8-0.2-2.4-0.3C258.2,197.7,258,197.7,257.9,197.7L257.9,197.7z M258.1,196.4l-0.5-3.1    c0-0.1,0-0.2,0.1-0.2c0.1-0.1,0.1-0.1,0.2-0.1c0.3,0,6.8,0,7.5,1.1C264.9,195.6,259.7,196.2,258.1,196.4L258.1,196.4z     M258.3,193.6l0.1,2.5c2.7-0.6,6.2-1.3,6.5-1.8C264.5,193.8,260.6,193.6,258.3,193.6L258.3,193.6z M252.2,192.7    c-1.2,0-2.7-0.2-3.1-0.6c0-0.1-0.2-0.7-0.1-0.7c1.1-0.8,2.6-1,3.5-1.1c0.3,0,0.5,0,0.6-0.1l0.1,0.3l-0.1-0.2l0.1,0.4    c0.1,0,0.1,0.1,0.1,0.1c0,0,0,0-0.1,0l0.4,1.7C253.2,192.7,252.7,192.7,252.2,192.7L252.2,192.7z M253,190.9c-0.1,0-0.3,0-0.5,0    c-0.8,0.1-2.2,0.2-3,0.7c0.3,0.2,2.3,0.5,3.7,0.5L253,190.9L253,190.9z"/></g>
    <rect class="st1" height="298.7" width="155.8" y="106.7"/>
    <rect class="st1" height="298.7" width="155.8" x="356.2" y="106.7"/></g></svg>
