<?xml version="1.0" ?>
<svg id="Layer_1" style="enable-background:new 0 0 512 512;" version="1.1" viewBox="0 0 512 512" xml:space="preserve"
     xmlns="http://www.w3.org/2000/svg"><style type="text/css">
	.st0 {
    fill: #557ABC;
  }

  .st1 {
    fill: #FFFFFF;
  }
</style>
  <g id="XMLID_1_"><rect class="st0" height="298.7" id="XMLID_8_" width="512" y="106.7"/>
    <path class="st1"
          d="M142.4,250.3c-2.4-4.9-2.4-4.9-2.4-9.8c-1.2,0-1.5,0.2-2.2,0c-0.7-0.2-1,4.5-3.3,3.6   c-0.4-0.5,1.6-3.8-0.5-5.3c-0.7-0.5,0.2-3.2-0.1-4.5c0,0-2.8,1.5-4.9-3.7c-1-1.3-2.5,1.2-2.5,1.2s0.6,1.6-0.5,1.9   c-1.6-1.1-2.7-0.5-4.7-2.1c-2-1.6,0.4-3.4-3.4-4.7c2.5-6.1,2.5-4.9,8.5-7.3c-3.7-2.4-3.7-2.4-6.1-6.1c-3.7-1.2-4.9-2.4-8.5-4.9   c-4.9-6.1-7.3-18.3-7.3-26.8c3.1-2.9,7.3,9.8,13.4,13.4l8.5,3.7c4.9,2.4,6.1,4.9,9.8,7.3l11,3.7c4.9,3.7,7.3,8.5,11,9.8   c4,0,4.7-2.3,6-2.4c7.2-0.4,10.8-1.3,12.3-3.4c1.4-1.7,4.9,1,14.7-2.7l-1.2-4.9c0,0,2.6-2.1,6.1-1.2c-0.1-2.2-0.3-8.2,3.2-10.9   c-2.1-2.2-0.7-3.8-0.7-3.8s1.9-1.9,2.2-2.9c-1-5.4,0.9-5.5,1.3-7c0.4-1.6-1.7-1-1.1-3.2c0.6-2.2,4.1-2.7,4.6-4.5   c0.5-1.8-1-2.7-0.9-3.1c0.8-1.7,0.1-5.8,0-7.3c6.6-1.8,8.7-7.1,11-4.9c1.2-7.3,2.4-9.8,9.8-9.8c1-2.2-2.7-4.2-1.2-4.9   c2.4-0.3,4.3-0.2,7.2,3.6c0.9,1.2,1.1-1.7,2-2c0.9-0.3,3.1-0.3,3.4-1.8c0.3-1.5,0.8-3.4,2.1-5.9c1-2,1.8,0.8,2.7,4.7   c5.2,0.2,16.8,1.3,21.7,2.7c3.7,1,6.1-1,9.6-1.3c2.6,2.6,5,0.7,6.4,6.2c1.9,3,5.1,0.3,5.8,1.1c4.1,11.3,18.1,3.7,19.2,3.9   c1.8,0,4,5,5.4,4.9c2.3-0.4,1.6-1.9,3.6-1.3c-0.5,4.2,3.9,9.1,3.9,12.3c0,0,1.1,0.5,2.1-0.4c1-0.9,1.9-3.4,2.8-3.3   c2.1,0.3,3,0.6,5.5,1c6.6,2.3,10,2.8,12.6,3.9c1.2,2.2,2.3,3.3,4.8,2.9c2,1.3,0.5,3.1,1.7,3.2c2.4-1.2,3.2-2.6,5.7-1.3   c2.4,1.2,4.9,3.7,6.1,6.1c0,1.2-1.2,6.1,0,13.4c0.6,2.4,0.9,4.4,3.5,8.6c-0.7,4.3,3.3,11.5,3.3,13.4c0,2.4-1.9,3.7-3.2,6.1   c4.9,3.7,0,9.7-2.4,13.4c18.3,3.7,9.8,11,24.4,7.3c-3.7,8.5-2.4,7.9,1.3,16.4c-7.3,4.9-0.2,6.4-5,12.5c-0.3,0.4,2.9,5.3,7.4,5.3   c-1.2,9.7-4.9,6.1-3.7,20.7c-9.6-0.2-5.7,11-12.2,9.8c0.4,7,3.7,7.6,2.4,14.6c-4.9,1.2-4.9,1.2-7.3,4.9l-3.6-1.2   c-1.2,6.1-3.7,7.3,0,13.4c0,0-4.7,0.2-6.1,0c-0.1,2.1,2.1,2.7,2.5,4.9c-0.2,0.9-7,4.7-12.2,4.9c-1.4,3,3.7,6.2,3.3,7.7   c-5.7,1.1-8.3,8.1-8.3,8.1s2.9,1.2,2.5,2.4c-1.6-1.2-2.5-1.2-4.9-1.2c-1.2,0.3-4.2-0.1-7.1,4.7c-3.1,1-4.6,0.7-7,3.8   c-1.1-3-2.6,0-4.4,1.2c-1.9,1.2-4.4,4-4.7,3.9c0.1-0.8,1.1-3.9,1.1-3.9l-6.1,1.2c0,0-0.3,0-0.8,0.1c-0.5,0.1-0.3-3.6-1.5-3.4   c-1.1,0.1-4.5,4.5-5.6,4.7c-1.1,0.1-1.5-1.4-2.4-1.3c-1,0.1-2.9,4.6-3.5,4.8c-0.7,0.1-3.4-2.7-5.8-2.3c-12,4.2-13.9-8.4-15.8-1.3   c-2.5-1.3-2.1-0.6-4.6,0.1c-1.6,0.4-1.8-2.1-3.2-2.1c-2.9,0.1-2.8,2.8-4.3,2c-1.3-5.7-9.1-4.7-9.9-7.1c-0.6-2.5,3.4-2.5,4.7-4.2   c1-2.5-1-3.4,3-5.8c5.2-3.6,2.2-4.9,3.1-7.6c1.6-3.8,1.6-4.8,0.3-8.2c0,0-4.1-11-4.9-11c-2.4-0.7-2.4,4-6,5.4   c-7.3,2.4-20.2-6.2-22.5-6.2c-2.1,0-11.6,2.3-11.2-2.5c-1.4,4.6-6.7,1.1-7,1.1c-4.9,0-3,3.8-6.3,3.6c-1.5-0.5-16.5-1.4-16.5-1.4   v2.4l-9.8-4.9l-8.5-2.4c-7.3-2.4-3.7-8.5-15.9-4.9v-7.3h-6.1c2.4-14.6,0-7.3-1.2-20.7l-4.9,1.2c-4.9-6.6,6.8-5.3-3.7-9.8   c0,0,0.2-7.3-2.5-4.9c-0.5,0.3,1.2,3.7,1.2,3.7c-9.8-1.2-12.2-3.7-12.2-13.4c0,0,8,1.1,7.3,0c-1.1-1.8-2.6-13.7-2.4-14.5   c-0.1-1.6,7.5-5.6,6-9.5C139.6,250.3,142.4,250.3,142.4,250.3L142.4,250.3z"
          id="XMLID_7_"/>
    <g><path class="st1" d="M390.6,288.6c-0.2,0-0.4-0.1-0.5-0.3c-0.5-0.8-0.6-1.8-0.1-2.7c0.1-0.2,0.3-0.4,0.6-0.4    c0.3,0,0.5,0.2,0.5,0.5c0.4,0.9,0.7,1.6,0,2.7C391,288.5,390.8,288.6,390.6,288.6L390.6,288.6z" id="XMLID_6_"/></g>
    <g><path class="st1" d="M102.5,198C102.5,198,102.5,198,102.5,198c-0.4,0-0.7-0.3-0.7-0.6c-0.2-0.8,0-1.4,0.2-1.7    c0.4-0.5,1-0.7,1.7-0.7c0.3,0,0.6,0.2,0.8,0.4c0.1,0.2,0.3,0.5,0.1,0.7c-0.6,0.4-1,0.6-1.4,1.3C103.1,197.9,102.8,198,102.5,198    L102.5,198z" id="XMLID_5_"/></g>
    <g><path class="st1" d="M102.5,194.3C102.5,194.3,102.5,194.3,102.5,194.3c-0.4,0-0.7-0.3-0.7-0.6    c-0.2-0.8-0.1-1.3,0.2-1.8c0.5-0.6,1.3-0.7,2-0.7h0c0.2,0,0.6,0.1,0.8,0.3c0.1,0.2,0.4,0.4,0.3,0.7c-0.1,0.2-0.4,0.5-0.6,0.6    c-0.3,0.1-0.9,0.3-1.3,1C103.1,194.1,102.8,194.3,102.5,194.3L102.5,194.3z" id="XMLID_4_"/></g>
    <g><path class="st1" d="M112.6,216.2c-0.3,0-0.6-0.2-0.7-0.4c-0.4-0.8-0.8-1.1-0.9-1.2c-0.1-0.2-0.3-0.7-0.2-0.9    c0.1-0.2,0.2-0.5,0.5-0.6c0.5,0,1.2,0.1,1.7,0.7c0.2,0.3,0.5,0.9,0.3,1.8C113.3,215.9,113,216.1,112.6,216.2    C112.7,216.2,112.6,216.2,112.6,216.2L112.6,216.2z" id="XMLID_3_"/></g></g></svg>
