<?xml version="1.0" ?>
<svg id="Layer_1" style="enable-background:new 0 0 512 512;" version="1.1" viewBox="0 0 512 512" xml:space="preserve"
     xmlns="http://www.w3.org/2000/svg"><style type="text/css">
	.st0 {
    fill: #2B3379;
  }

  .st1 {
    fill: #F7D849;
  }

  .st2 {
    fill: #010101;
  }

  .st3 {
    fill: #BD1F34;
  }

  .st4 {
    fill: #AE519F;
  }
</style>
  <g><rect class="st0" height="298.7" width="512" y="106.7"/>
    <path class="st1"
          d="M107.7,167.5l-0.9,31.1H75.2c-3.9-7.6-7.1-14-7.1-22.6c0-7.3,5.7-13,14-13C90.8,163,100.4,165.9,107.7,167.5   L107.7,167.5z"/>
    <path class="st1" d="M71.9,169v18V169z"/>
    <g><path class="st2" d="M71.9,187.3c-0.2,0-0.4-0.2-0.4-0.4v-18c0-0.4,0.8-0.4,0.8,0v18C72.3,187.1,72.1,187.3,71.9,187.3L71.9,187.3    z"/></g>
    <path class="st1" d="M74.4,167.1V191V167.1z"/>
    <g><path class="st2" d="M74.4,191.4c-0.2,0-0.4-0.2-0.4-0.4v-23.9c0-0.4,0.8-0.4,0.8,0V191C74.8,191.2,74.7,191.4,74.4,191.4    L74.4,191.4z"/></g>
    <path class="st1" d="M77,165.9v28.5V165.9z"/>
    <g><path class="st2" d="M77,194.7c-0.2,0-0.4-0.2-0.4-0.4v-28.5c0-0.4,0.8-0.4,0.8,0v28.5C77.4,194.6,77.2,194.7,77,194.7L77,194.7z"/></g>
    <path class="st1" d="M79.5,165.3v22.3V165.3z"/>
    <g><path class="st2" d="M79.5,188c-0.2,0-0.4-0.2-0.4-0.4v-22.3c0-0.4,0.8-0.4,0.8,0v22.3C79.9,187.8,79.7,188,79.5,188L79.5,188z"/></g>
    <path class="st1" d="M82,165.2v22.6V165.2z"/>
    <g><path class="st2" d="M82,188.1c-0.2,0-0.4-0.2-0.4-0.4v-22.6c0-0.4,0.8-0.4,0.8,0v22.6C82.4,187.9,82.3,188.1,82,188.1L82,188.1z"/></g>
    <path class="st1" d="M84.6,164.4v23.3V164.4z"/>
    <g><path class="st2" d="M84.6,188.1c-0.2,0-0.4-0.2-0.4-0.4v-23.3c0-0.4,0.8-0.4,0.8,0v23.3C85,187.9,84.8,188.1,84.6,188.1    L84.6,188.1z"/></g>
    <path class="st1" d="M87.1,164.4v23.3V164.4z"/>
    <g><path class="st2" d="M87.1,188.1c-0.2,0-0.4-0.2-0.4-0.4v-23.3c0-0.4,0.8-0.4,0.8,0v23.3C87.5,187.9,87.3,188.1,87.1,188.1    L87.1,188.1z"/></g>
    <path class="st1" d="M89.6,164.6v23.3V164.6z"/>
    <g><path class="st2" d="M89.6,188.3c-0.2,0-0.4-0.2-0.4-0.4v-23.3c0-0.4,0.8-0.4,0.8,0v23.3C90,188.2,89.9,188.3,89.6,188.3    L89.6,188.3z"/></g>
    <path class="st1" d="M92.2,164.8v23.3V164.8z"/>
    <g><path class="st2" d="M92.2,188.6c-0.2,0-0.4-0.2-0.4-0.4v-23.3c0-0.4,0.8-0.4,0.8,0v23.3C92.6,188.4,92.4,188.6,92.2,188.6    L92.2,188.6z"/></g>
    <path class="st1" d="M94.7,166.3v23.3V166.3z"/>
    <g><path class="st2" d="M94.7,190c-0.2,0-0.4-0.2-0.4-0.4v-23.3c0-0.4,0.8-0.4,0.8,0v23.3C95.1,189.9,94.9,190,94.7,190L94.7,190z"/></g>
    <path class="st1" d="M97.3,166.6v26.3V166.6z"/>
    <g><path class="st2" d="M97.3,193.2c-0.2,0-0.4-0.2-0.4-0.4v-26.3c0-0.4,0.8-0.4,0.8,0v26.3C97.6,193.1,97.5,193.2,97.3,193.2    L97.3,193.2z"/></g>
    <path class="st1" d="M99.8,166.6v23.3V166.6z"/>
    <g><path class="st2" d="M99.8,190.3c-0.2,0-0.4-0.2-0.4-0.4v-23.3c0-0.4,0.8-0.4,0.8,0v23.3C100.2,190.1,100,190.3,99.8,190.3    L99.8,190.3z"/></g>
    <path class="st1" d="M102.3,166.6v23.3V166.6z"/>
    <g><path class="st2" d="M102.3,190.3c-0.2,0-0.4-0.2-0.4-0.4v-23.3c0-0.4,0.8-0.4,0.8,0v23.3C102.7,190.1,102.5,190.3,102.3,190.3    L102.3,190.3z"/></g>
    <path class="st2"
          d="M87.8,165.4c5.3,0.9,17.1,6.4,15.8,13.8c-1.9,10.6-8.1,6.3-16.2,4.8l-6.2,2.1c-2.2,2.3-5.5,4.3-7.7,1.6h-3.7   V202h40.5v-34.5L87.8,165.4z"/>
    <g><path class="st2" d="M110.3,202.3H69.8l-0.4-14.7l4-0.4c2.9,2.9,5.9,0,7.4-1.5l6.3-2.1c1.8,0.3,3.3,0.7,4.7,1    c2.2,0.6,4.1,1.1,5.7,1.1c2.2,0,4.6-0.8,5.6-6.6c0.3-1.8-0.1-3.6-1.4-5.3c-3.1-4.4-10.3-7.4-14.1-8.1c-0.2,0-0.3-0.2-0.3-0.4    c0-0.2,0.2-0.3,0.4-0.3l22.5,2.1l0.3,34.9C110.7,202.2,110.5,202.3,110.3,202.3L110.3,202.3z M73.2,187.9l-3.4,0.1l0.4,13.9    l39.7-0.4v-34.2L91.6,166c3.8,1.4,8.4,4,10.8,7.3c1.4,1.9,1.9,3.9,1.5,5.9c-0.9,5-2.9,7.2-6.4,7.2c-1.7,0-3.8-0.5-5.9-1.1    c-1.4-0.4-2.9-0.8-4.4-1l-6,2c-1,1-3.1,2.9-5.3,2.9C74.9,189.3,74,188.9,73.2,187.9L73.2,187.9z"/></g>
    <path class="st1"
          d="M108.4,162.9c0,1.4-1.1,2.5-2.5,2.5s-2.5-1.1-2.5-2.5l0,0c0-1.4,1.1-2.5,2.5-2.5   C107.3,160.4,108.4,161.5,108.4,162.9L108.4,162.9z"/>
    <g><path class="st2" d="M105.9,165.7c-1.6,0-2.8-1.3-2.8-2.8c0-1.6,1.3-2.8,2.8-2.8c1.6,0,2.8,1.3,2.8,2.8    C108.8,164.5,107.5,165.7,105.9,165.7L105.9,165.7z M105.9,160.8c-1.1,0-2.1,0.9-2.1,2.1c0,1.1,0.9,2.1,2.1,2.1    c1.1,0,2.1-0.9,2.1-2.1C108,161.7,107.1,160.8,105.9,160.8L105.9,160.8z"/></g>
    <path class="st1"
          d="M102.9,161.6c0,1.4-1.1,2.5-2.5,2.5s-2.5-1.1-2.5-2.5l0,0c0-1.4,1.1-2.5,2.5-2.5S102.9,160.2,102.9,161.6   L102.9,161.6z"/>
    <g><path class="st2" d="M100.4,164.4c-1.6,0-2.8-1.3-2.8-2.8c0-1.6,1.3-2.8,2.8-2.8c1.6,0,2.8,1.3,2.8,2.8c0,0.8-0.3,1.5-0.8,2    C101.9,164.1,101.2,164.4,100.4,164.4L100.4,164.4z M100.4,159.5c-1.2,0-2.1,0.9-2.1,2.1c0,1.7,2.4,2.7,3.6,1.5    c0.4-0.4,0.6-0.9,0.6-1.5C102.5,160.4,101.5,159.5,100.4,159.5L100.4,159.5z"/></g>
    <path class="st1"
          d="M97.3,160.2c0,1.4-1.1,2.5-2.5,2.5c-1.4,0-2.5-1.1-2.5-2.5v0c0-1.4,1.1-2.5,2.5-2.5   C96.2,157.7,97.3,158.8,97.3,160.2L97.3,160.2z"/>
    <g><path class="st2" d="M94.8,163L94.8,163c-1.6,0-2.8-1.3-2.8-2.8c0-1.6,1.3-2.8,2.8-2.8c1.6,0,2.8,1.3,2.8,2.8S96.4,163,94.8,163    L94.8,163z M94.8,158.1c-1.1,0-2.1,0.9-2.1,2.1s0.9,2.1,2.1,2.1c1.2,0,2.1-0.9,2.1-2.1S95.9,158.1,94.8,158.1L94.8,158.1z"/></g>
    <path class="st1"
          d="M91.6,159.2c0,1.4-1.1,2.5-2.5,2.5s-2.5-1.1-2.5-2.5v0c0-1.4,1.1-2.5,2.5-2.5   C90.5,156.8,91.6,157.9,91.6,159.2L91.6,159.2z"/>
    <g><path class="st2" d="M89.2,162.1c-1.6,0-2.8-1.3-2.8-2.8c0-1.6,1.3-2.8,2.8-2.8c1.6,0,2.8,1.3,2.8,2.8    C92,160.8,90.7,162.1,89.2,162.1L89.2,162.1z M89.2,157.1c-1.1,0-2.1,0.9-2.1,2.1c0,1.1,0.9,2.1,2.1,2.1c1.1,0,2.1-0.9,2.1-2.1    C91.3,158.1,90.3,157.1,89.2,157.1L89.2,157.1z"/></g>
    <path class="st1"
          d="M86,158.7c0,1.4-1.1,2.5-2.5,2.5s-2.5-1.1-2.5-2.5v0c0-1.4,1.1-2.5,2.5-2.5C84.9,156.2,86,157.3,86,158.7   L86,158.7z"/>
    <g><path class="st2" d="M83.5,161.5c-1.6,0-2.8-1.3-2.8-2.8c0-1.6,1.3-2.8,2.8-2.8c1.6,0,2.8,1.3,2.8,2.8    C86.4,160.2,85.1,161.5,83.5,161.5L83.5,161.5z M83.5,156.6c-1.1,0-2.1,0.9-2.1,2.1c0,1.2,0.9,2.1,2.1,2.1c1.2,0,2.1-0.9,2.1-2.1    C85.6,157.5,84.7,156.6,83.5,156.6L83.5,156.6z"/></g>
    <path class="st1"
          d="M80.5,159c0,1.4-1.1,2.5-2.5,2.5c-1.4,0-2.5-1.1-2.5-2.5v0c0-1.4,1.1-2.5,2.5-2.5   C79.4,156.5,80.5,157.6,80.5,159L80.5,159z"/>
    <g><path class="st2" d="M78,161.8c-1.6,0-2.8-1.3-2.8-2.8c0-0.8,0.3-1.5,0.8-2c1.6-1.7,4.9-0.3,4.9,2C80.9,160.5,79.6,161.8,78,161.8    L78,161.8z M78,156.9c-0.6,0-1.1,0.2-1.5,0.6c-0.4,0.4-0.6,0.9-0.6,1.5c0,1.2,0.9,2.1,2.1,2.1c1.2,0,2.1-0.9,2.1-2.1    S79.2,156.9,78,156.9L78,156.9z"/></g>
    <path class="st1"
          d="M75.2,160.8c0,1.4-1.1,2.5-2.5,2.5s-2.5-1.1-2.5-2.5l0,0c0-1.4,1.1-2.5,2.5-2.5   C74.1,158.3,75.2,159.4,75.2,160.8L75.2,160.8z"/>
    <g><path class="st2" d="M72.8,163.6c-1.6,0-2.8-1.3-2.8-2.8c0-2.3,3.2-3.6,4.8-2c0.5,0.5,0.8,1.2,0.8,2    C75.6,162.3,74.3,163.6,72.8,163.6L72.8,163.6z M72.8,158.7c-1.2,0-2.1,0.9-2.1,2.1c0,1.1,0.9,2.1,2.1,2.1c1.1,0,2.1-0.9,2.1-2.1    C74.8,159.6,73.9,158.7,72.8,158.7L72.8,158.7z"/></g>
    <path class="st1"
          d="M70.8,164c0,1.4-1.1,2.5-2.5,2.5c-1.4,0-2.5-1.1-2.5-2.5v0c0-1.4,1.1-2.5,2.5-2.5   C69.7,161.6,70.8,162.7,70.8,164L70.8,164z"/>
    <g><path class="st2" d="M68.3,166.9c-1.6,0-2.8-1.3-2.8-2.8c0-1.6,1.3-2.8,2.8-2.8c1.6,0,2.8,1.3,2.8,2.8    C71.2,165.6,69.9,166.9,68.3,166.9L68.3,166.9z M68.3,162c-1.2,0-2.1,0.9-2.1,2.1c0,1.1,0.9,2.1,2.1,2.1c1.1,0,2.1-0.9,2.1-2.1    C70.4,162.9,69.5,162,68.3,162L68.3,162z"/></g>
    <path class="st1"
          d="M67.6,168.6c0,1.4-1.1,2.5-2.5,2.5s-2.5-1.1-2.5-2.5l0,0c0-1.4,1.1-2.5,2.5-2.5S67.6,167.2,67.6,168.6   L67.6,168.6z"/>
    <g><path class="st2" d="M65.2,171.4c-1.6,0-2.8-1.3-2.8-2.8c0-0.8,0.3-1.5,0.8-2c1.6-1.7,4.9-0.3,4.9,2    C68,170.2,66.8,171.4,65.2,171.4L65.2,171.4z M65.2,166.5c-0.6,0-1.1,0.2-1.5,0.6c-0.4,0.4-0.6,0.9-0.6,1.5c0,1.2,0.9,2.1,2.1,2.1    c1.2,0,2.1-0.9,2.1-2.1C67.3,167.4,66.3,166.5,65.2,166.5L65.2,166.5z"/></g>
    <path class="st1"
          d="M66.1,173.9c0,1.4-1.1,2.5-2.5,2.5c-1.4,0-2.5-1.1-2.5-2.5v0c0-1.4,1.1-2.5,2.5-2.5   C65,171.5,66.1,172.6,66.1,173.9L66.1,173.9z"/>
    <g><path class="st2" d="M63.7,176.8c-1.6,0-2.8-1.3-2.8-2.8c0-1.6,1.3-2.8,2.8-2.8s2.8,1.3,2.8,2.8C66.5,175.5,65.2,176.8,63.7,176.8    L63.7,176.8z M63.7,171.9c-1.2,0-2.1,0.9-2.1,2.1c0,1.1,0.9,2.1,2.1,2.1c1.2,0,2.1-0.9,2.1-2.1C65.8,172.8,64.8,171.9,63.7,171.9    L63.7,171.9z"/></g>
    <path class="st1"
          d="M66.2,179.5c0,1.4-1.1,2.5-2.5,2.5c-1.4,0-2.5-1.1-2.5-2.5l0,0c0-1.4,1.1-2.5,2.5-2.5   C65.1,177,66.2,178.1,66.2,179.5L66.2,179.5z"/>
    <g><path class="st2" d="M63.7,182.3c-1.6,0-2.8-1.3-2.8-2.8c0-1.6,1.3-2.8,2.8-2.8c1.6,0,2.8,1.3,2.8,2.8    C66.6,181,65.3,182.3,63.7,182.3L63.7,182.3z M63.7,177.4c-1.2,0-2.1,0.9-2.1,2.1c0,1.1,0.9,2.1,2.1,2.1c1.1,0,2.1-0.9,2.1-2.1    C65.8,178.3,64.9,177.4,63.7,177.4L63.7,177.4z"/></g>
    <path class="st1"
          d="M67.2,184.9c0,1.4-1.1,2.5-2.5,2.5c-1.4,0-2.5-1.1-2.5-2.5l0,0c0-1.4,1.1-2.5,2.5-2.5   C66.1,182.5,67.2,183.6,67.2,184.9L67.2,184.9z"/>
    <g><path class="st2" d="M64.8,187.8c-1.6,0-2.8-1.3-2.8-2.8c0-1.6,1.3-2.8,2.8-2.8c1.6,0,2.8,1.3,2.8,2.8    C67.6,186.5,66.3,187.8,64.8,187.8L64.8,187.8z M64.8,182.8c-1.2,0-2.1,0.9-2.1,2.1c0,1.1,0.9,2.1,2.1,2.1c1.1,0,2.1-0.9,2.1-2.1    C66.9,183.8,65.9,182.8,64.8,182.8L64.8,182.8z"/></g>
    <path class="st1"
          d="M107,166.2l-0.2,3.2c-6.1-0.9-14.8-4.3-22.9-4.3c-7.5,0-13.3,3-13.3,10.5c0,7.4,3.1,14.2,7.3,21.1l-4.3,2.1   c-3.9-7.6-7.1-14-7.1-22.6c0-7.3,5.7-14.4,15.6-14.4C90.8,161.6,99.7,164.5,107,166.2L107,166.2z"/>
    <g><path class="st2" d="M73.6,199c-0.1,0-0.3-0.1-0.3-0.2c-3.7-7.1-7.1-13.9-7.1-22.8c0-7.2,5.6-14.8,15.9-14.8    c6.7,0,13.5,1.7,19.5,3.3c1.9,0.5,3.7,0.9,5.5,1.3l0.1,3.6c0,0,0,0,0,0c-2.6,0-5.1-0.6-7.8-1.3c-4.8-1.2-10.2-2.7-15.4-2.7    c-4.8,0-12.9,1.3-12.9,10.1c0,7.8,3.7,14.9,7.3,20.9l-4.5,2.6C73.7,199,73.7,199,73.6,199L73.6,199z M82.1,162    c-9.9,0-15.2,7.2-15.2,14c0,8.6,3.3,15.2,6.9,22.1l4-1.9c-3.8-5.5-7.5-12.7-7.5-20.7c0-6.9,5-10.9,13.7-10.9    c5.2,0,10.7,1.4,15.6,2.7c2.7,0.7,5.2,1.3,7.4,1.7l-0.2-2.9c0,0,0,0,0,0c-1.5,0-3.3-0.5-5.2-0.9C95.5,163.7,88.7,162,82.1,162    L82.1,162z"/></g>
    <path class="st1"
          d="M113.3,167.5l0.9,31.1h31.6c3.9-7.6,7.1-14,7.1-22.6c0-7.3-5.7-13-14-13C130.2,163,120.6,165.9,113.3,167.5   L113.3,167.5z"/>
    <path class="st1" d="M149.1,169v18V169z"/>
    <g><path class="st2" d="M149.1,187.3c-0.2,0-0.4-0.2-0.4-0.4v-18c0-0.4,0.8-0.4,0.8,0v18C149.5,187.1,149.3,187.3,149.1,187.3    L149.1,187.3z"/></g>
    <path class="st1" d="M146.5,167.1V191V167.1z"/>
    <g><path class="st2" d="M146.5,191.4c-0.2,0-0.4-0.2-0.4-0.4v-23.9c0-0.4,0.8-0.4,0.8,0V191C146.9,191.2,146.7,191.4,146.5,191.4    L146.5,191.4z"/></g>
    <path class="st1" d="M144,165.9v28.5V165.9z"/>
    <g><path class="st2" d="M144,194.7c-0.2,0-0.4-0.2-0.4-0.4v-28.5c0-0.4,0.8-0.4,0.8,0v28.5C144.4,194.6,144.2,194.7,144,194.7    L144,194.7z"/></g>
    <path class="st1" d="M141.5,165.3v22.3V165.3z"/>
    <g><path class="st2" d="M141.5,188c-0.2,0-0.4-0.2-0.4-0.4v-22.3c0-0.4,0.8-0.4,0.8,0v22.3C141.8,187.8,141.7,188,141.5,188    L141.5,188z"/></g>
    <path class="st1" d="M138.9,165.2v22.6V165.2z"/>
    <g><path class="st2" d="M138.9,188.1c-0.2,0-0.4-0.2-0.4-0.4v-22.6c0-0.4,0.8-0.4,0.8,0v22.6C139.3,187.9,139.1,188.1,138.9,188.1    L138.9,188.1z"/></g>
    <path class="st1" d="M136.4,164.4v23.3V164.4z"/>
    <g><path class="st2" d="M136.4,188.1c-0.2,0-0.4-0.2-0.4-0.4v-23.3c0-0.4,0.8-0.4,0.8,0v23.3C136.8,187.9,136.6,188.1,136.4,188.1    L136.4,188.1z"/></g>
    <path class="st1" d="M133.9,164.4v23.3V164.4z"/>
    <g><path class="st2" d="M133.9,188.1c-0.2,0-0.4-0.2-0.4-0.4v-23.3c0-0.4,0.8-0.4,0.8,0v23.3C134.2,187.9,134.1,188.1,133.9,188.1    L133.9,188.1z"/></g>
    <path class="st1" d="M131.3,164.6v23.3V164.6z"/>
    <g><path class="st2" d="M131.3,188.3c-0.2,0-0.4-0.2-0.4-0.4v-23.3c0-0.4,0.8-0.4,0.8,0v23.3C131.7,188.2,131.5,188.3,131.3,188.3    L131.3,188.3z"/></g>
    <path class="st1" d="M128.8,164.8v23.3V164.8z"/>
    <g><path class="st2" d="M128.8,188.6c-0.2,0-0.4-0.2-0.4-0.4v-23.3c0-0.4,0.8-0.4,0.8,0v23.3C129.2,188.4,129,188.6,128.8,188.6    L128.8,188.6z"/></g>
    <path class="st1" d="M126.3,166.3v23.3V166.3z"/>
    <g><path class="st2" d="M126.3,190c-0.2,0-0.4-0.2-0.4-0.4v-23.3c0-0.4,0.8-0.4,0.8,0v23.3C126.6,189.9,126.5,190,126.3,190    L126.3,190z"/></g>
    <path class="st1" d="M123.7,166.6v26.3V166.6z"/>
    <g><path class="st2" d="M123.7,193.2c-0.2,0-0.4-0.2-0.4-0.4v-26.3c0-0.4,0.8-0.4,0.8,0v26.3C124.1,193.1,123.9,193.2,123.7,193.2    L123.7,193.2z"/></g>
    <path class="st1" d="M121.2,166.6v23.3V166.6z"/>
    <g><path class="st2" d="M121.2,190.3c-0.2,0-0.4-0.2-0.4-0.4v-23.3c0-0.4,0.8-0.4,0.8,0v23.3C121.6,190.1,121.4,190.3,121.2,190.3    L121.2,190.3z"/></g>
    <path class="st1" d="M118.6,166.6v23.3V166.6z"/>
    <g><path class="st2" d="M118.6,190.3c-0.2,0-0.4-0.2-0.4-0.4v-23.3c0-0.4,0.8-0.4,0.8,0v23.3C119,190.1,118.9,190.3,118.6,190.3    L118.6,190.3z"/></g>
    <path class="st2"
          d="M133.2,165.4c-5.4,0.9-17.1,6.4-15.8,13.8c1.9,10.6,8.1,6.3,16.2,4.8l6.2,2.1c2.2,2.3,5.5,4.3,7.7,1.6h3.7V202   h-40.5v-34.5L133.2,165.4z"/>
    <g><path class="st2" d="M151.1,202.3h-40.5l-0.4-34.9l22.9-2.4c0.2,0,0.4,0.1,0.4,0.3c0,0.2-0.1,0.4-0.3,0.4    c-3.8,0.6-11,3.6-14.1,8.1c-1.2,1.7-1.7,3.5-1.4,5.3c1,5.8,3.4,6.6,5.6,6.6c1.6,0,3.5-0.5,5.7-1.1c1.4-0.4,2.9-0.8,4.5-1.1    l6.4,2.1c1.7,1.7,5.3,4.2,7.3,1.7l3.9-0.1l0.4,14.7C151.5,202.2,151.3,202.3,151.1,202.3L151.1,202.3z M129.1,166.1l-18.4,1.7    L111,202l39.7-0.4v-13.9l-3.3,0.4c-0.5,0.8-1.4,1.3-2.5,1.3c-2.1,0-4.3-1.9-5.4-3l-6-2c-1.4,0.3-2.9,0.7-4.2,1.1    c-2.1,0.6-4.2,1.1-5.9,1.1c-3.5,0-5.4-2.2-6.3-7.2c-0.4-2,0.1-4,1.5-5.9C120.9,170.1,125.3,167.5,129.1,166.1L129.1,166.1z"/></g>
    <path class="st1"
          d="M112.6,162.9c0,1.4,1.1,2.5,2.5,2.5c1.3,0,2.5-1.1,2.5-2.5l0,0c0-1.4-1.1-2.5-2.5-2.5   C113.7,160.4,112.6,161.5,112.6,162.9L112.6,162.9z"/>
    <g><path class="st2" d="M115,165.7c-1.6,0-2.8-1.3-2.8-2.8c0-1.6,1.3-2.8,2.8-2.8c1.6,0,2.8,1.3,2.8,2.8    C117.9,164.5,116.6,165.7,115,165.7L115,165.7z M115,160.8c-1.2,0-2.1,0.9-2.1,2.1c0,1.2,0.9,2.1,2.1,2.1c1.1,0,2.1-0.9,2.1-2.1    C117.1,161.8,116.2,160.8,115,160.8L115,160.8z"/></g>
    <path class="st1"
          d="M118.1,161.6c0,1.4,1.1,2.5,2.5,2.5s2.5-1.1,2.5-2.5l0,0c0-1.4-1.1-2.5-2.5-2.5   C119.2,159.1,118.1,160.2,118.1,161.6L118.1,161.6z"/>
    <g><path class="st2" d="M120.6,164.4c-1.6,0-2.8-1.3-2.8-2.8c0-1.6,1.3-2.8,2.8-2.8c1.6,0,2.8,1.3,2.8,2.8    C123.4,163.1,122.1,164.4,120.6,164.4L120.6,164.4z M120.6,159.5c-1.1,0-2.1,0.9-2.1,2.1c0,1.2,0.9,2.1,2.1,2.1    c1.2,0,2.1-0.9,2.1-2.1C122.7,160.4,121.7,159.5,120.6,159.5L120.6,159.5z"/></g>
    <path class="st1"
          d="M123.7,160.2c0,1.4,1.1,2.5,2.5,2.5c1.4,0,2.5-1.1,2.5-2.5v0c0-1.4-1.1-2.5-2.5-2.5S123.7,158.8,123.7,160.2   L123.7,160.2z"/>
    <g><path class="st2" d="M126.2,163c-1.6,0-2.9-1.3-2.9-2.8s1.3-2.8,2.8-2.8c1.6,0,2.8,1.3,2.8,2.8c0,0.8-0.3,1.5-0.8,2    C127.7,162.7,127,163,126.2,163L126.2,163z M126.2,158.1c-1.2,0-2.1,0.9-2.1,2.1s0.9,2.1,2.1,2.1h0c0.6,0,1.1-0.2,1.5-0.6    c0.4-0.4,0.6-0.9,0.6-1.5C128.3,159,127.3,158.1,126.2,158.1L126.2,158.1z"/></g>
    <path class="st1"
          d="M129.3,159.2c0,1.4,1.1,2.5,2.5,2.5c1.4,0,2.5-1.1,2.5-2.5v0c0-1.4-1.1-2.5-2.5-2.5   C130.4,156.8,129.3,157.9,129.3,159.2L129.3,159.2z"/>
    <g><path class="st2" d="M131.8,162.1c-1.6,0-2.8-1.3-2.8-2.8c0-2.3,3.2-3.7,4.9-2c0.5,0.5,0.8,1.2,0.8,2    C134.6,160.8,133.4,162.1,131.8,162.1L131.8,162.1z M131.8,157.1c-1.2,0-2.1,0.9-2.1,2.1c0,1.2,0.9,2.1,2.1,2.1    c1.1,0,2.1-0.9,2.1-2.1c0-0.6-0.2-1.1-0.6-1.5C132.9,157.4,132.4,157.1,131.8,157.1L131.8,157.1z"/></g>
    <path class="st1"
          d="M135,158.7c0,1.4,1.1,2.5,2.5,2.5c1.4,0,2.5-1.1,2.5-2.5v0c0-1.4-1.1-2.5-2.5-2.5   C136.1,156.2,135,157.3,135,158.7L135,158.7z"/>
    <g><path class="st2" d="M137.4,161.5c-0.8,0-1.5-0.3-2-0.8c-0.5-0.5-0.8-1.3-0.8-2c0-1.6,1.3-2.8,2.8-2.8c1.6,0,2.8,1.3,2.8,2.8    C140.3,160.2,139,161.5,137.4,161.5L137.4,161.5z M137.4,156.6c-1.1,0-2.1,0.9-2.1,2.1c0,0.6,0.2,1.1,0.6,1.5    c1.2,1.2,3.6,0.2,3.6-1.5C139.5,157.5,138.6,156.6,137.4,156.6L137.4,156.6z"/></g>
    <path class="st1"
          d="M140.5,159c0,1.4,1.1,2.5,2.5,2.5c1.4,0,2.5-1.1,2.5-2.5v0c0-1.4-1.1-2.5-2.5-2.5   C141.6,156.5,140.5,157.6,140.5,159L140.5,159z"/>
    <g><path class="st2" d="M143,161.8c-1.6,0-2.8-1.3-2.8-2.8s1.3-2.8,2.8-2.8c1.6,0,2.8,1.3,2.8,2.8S144.5,161.8,143,161.8L143,161.8z     M143,156.9c-1.1,0-2.1,0.9-2.1,2.1c0,1.2,0.9,2.1,2.1,2.1c1.2,0,2.1-0.9,2.1-2.1C145,157.8,144.1,156.9,143,156.9L143,156.9z"/></g>
    <path class="st1"
          d="M145.8,160.8c0,1.4,1.1,2.5,2.5,2.5c1.4,0,2.5-1.1,2.5-2.5l0,0c0-1.4-1.1-2.5-2.5-2.5   C146.9,158.3,145.8,159.4,145.8,160.8L145.8,160.8z"/>
    <g><path class="st2" d="M148.2,163.6c-1.6,0-2.8-1.3-2.8-2.8c0-1.6,1.3-2.8,2.8-2.8c1.6,0,2.8,1.3,2.8,2.8    C151,162.3,149.8,163.6,148.2,163.6L148.2,163.6z M148.2,158.7c-0.6,0-1.1,0.2-1.5,0.6c-0.4,0.4-0.6,0.9-0.6,1.5    c0,1.2,0.9,2.1,2.1,2.1c1.1,0,2.1-0.9,2.1-2.1C150.3,159.6,149.4,158.7,148.2,158.7L148.2,158.7L148.2,158.7z"/></g>
    <path class="st1"
          d="M150.2,164c0,1.4,1.1,2.5,2.5,2.5c1.4,0,2.5-1.1,2.5-2.5v0c0-1.4-1.1-2.5-2.5-2.5   C151.3,161.6,150.2,162.7,150.2,164L150.2,164z"/>
    <g><path class="st2" d="M152.6,166.9c-1.6,0-2.8-1.3-2.8-2.8c0-1.6,1.3-2.8,2.8-2.8c1.6,0,2.8,1.3,2.8,2.8    C155.5,165.6,154.2,166.9,152.6,166.9L152.6,166.9z M152.7,162c-1.2,0-2.1,0.9-2.1,2.1c0,1.2,0.9,2.1,2.1,2.1    c1.2,0,2.1-0.9,2.1-2.1C154.7,162.9,153.8,162,152.7,162L152.7,162z"/></g>
    <path class="st1"
          d="M153.3,168.6c0,1.4,1.1,2.5,2.5,2.5c1.4,0,2.5-1.1,2.5-2.5l0,0c0-1.4-1.1-2.5-2.5-2.5   C154.4,166.1,153.3,167.2,153.3,168.6L153.3,168.6z"/>
    <g><path class="st2" d="M155.8,171.4c-1.6,0-2.8-1.3-2.8-2.8c0-1.6,1.3-2.8,2.8-2.8c1.6,0,2.8,1.3,2.8,2.8    C158.6,170.2,157.4,171.4,155.8,171.4L155.8,171.4z M155.8,166.5c-1.1,0-2.1,0.9-2.1,2.1c0,1.2,0.9,2.1,2.1,2.1    c1.2,0,2.1-0.9,2.1-2.1C157.9,167.4,156.9,166.5,155.8,166.5L155.8,166.5z"/></g>
    <path class="st1"
          d="M154.9,173.9c0,1.4,1.1,2.5,2.5,2.5c1.4,0,2.5-1.1,2.5-2.5v0c0-1.4-1.1-2.5-2.5-2.5   C155.9,171.5,154.9,172.6,154.9,173.9L154.9,173.9z"/>
    <g><path class="st2" d="M157.3,176.8c-1.6,0-2.8-1.3-2.8-2.8c0-1.6,1.3-2.8,2.8-2.8c1.6,0,2.8,1.3,2.8,2.8    C160.1,175.5,158.9,176.8,157.3,176.8L157.3,176.8z M157.3,171.9c-1.1,0-2.1,0.9-2.1,2.1c0,1.2,0.9,2.1,2.1,2.1    c1.2,0,2.1-0.9,2.1-2.1C159.4,172.8,158.5,171.9,157.3,171.9L157.3,171.9z"/></g>
    <path class="st1"
          d="M154.8,179.5c0,1.4,1.1,2.5,2.5,2.5c1.4,0,2.5-1.1,2.5-2.5l0,0c0-1.4-1.1-2.5-2.5-2.5   C155.9,177,154.8,178.1,154.8,179.5L154.8,179.5z"/>
    <g><path class="st2" d="M157.2,182.3c-1.6,0-2.8-1.3-2.8-2.8c0-1.6,1.3-2.8,2.8-2.8c1.6,0,2.8,1.3,2.8,2.8    C160.1,181,158.8,182.3,157.2,182.3L157.2,182.3z M157.3,177.4c-1.2,0-2.1,0.9-2.1,2.1c0,1.1,0.9,2.1,2.1,2.1    c1.2,0,2.1-0.9,2.1-2.1C159.3,178.3,158.4,177.4,157.3,177.4L157.3,177.4z"/></g>
    <path class="st1"
          d="M153.7,184.9c0,1.4,1.1,2.5,2.5,2.5c1.4,0,2.5-1.1,2.5-2.5l0,0c0-1.4-1.1-2.5-2.5-2.5   C154.8,182.5,153.7,183.6,153.7,184.9L153.7,184.9z"/>
    <g><path class="st2" d="M156.2,187.8c-1.6,0-2.8-1.3-2.8-2.8c0-1.6,1.3-2.8,2.8-2.8c1.6,0,2.8,1.3,2.8,2.8    C159,186.5,157.8,187.8,156.2,187.8L156.2,187.8z M156.2,182.8c-1.2,0-2.1,0.9-2.1,2.1c0,1.2,0.9,2.1,2.1,2.1    c1.2,0,2.1-0.9,2.1-2.1C158.3,183.8,157.3,182.8,156.2,182.8L156.2,182.8z"/></g>
    <path class="st1"
          d="M114,166.2l0.2,3.2c6.1-0.9,14.8-4.3,22.9-4.3c7.5,0,13.3,3,13.3,10.5c0,7.4-3.2,14.2-7.3,21.1l4.3,2.1   c3.9-7.6,7.1-14,7.1-22.6c0-7.3-5.7-14.4-15.6-14.4C130.2,161.6,121.3,164.5,114,166.2L114,166.2z"/>
    <g><path class="st2" d="M147.4,199c-0.1,0-0.1,0-0.2,0l-4.3-2.1c3.4-6.5,7.1-13.6,7.1-21.4c0-8.8-8.1-10.1-12.9-10.1    c-5.1,0-10.6,1.4-15.4,2.7c-2.7,0.7-5.2,1.4-7.4,1.7l-0.7-3.6c2-0.8,3.9-1.2,5.8-1.7c6-1.5,12.9-3.3,19.5-3.3    c10.4,0,15.9,7.6,15.9,14.8c0,9-3.5,15.7-7.1,22.8C147.6,198.9,147.5,199,147.4,199L147.4,199z M137.1,164.6    c8.7,0,13.7,4,13.7,10.9c0,8-3.7,15.2-7.4,21.2l3.8,1.4c3.6-6.9,6.9-13.5,6.9-22.2c0-6.8-5.3-14-15.2-14c-6.6,0-13.4,1.7-19.4,3.2    c-1.9,0.5-3.7,0.9-5.5,1.3l0.5,2.8c1.7-0.7,4.2-1.3,6.9-2C126.3,166.1,131.8,164.6,137.1,164.6L137.1,164.6z"/></g>
    <rect class="st3" height="149.4" width="512" y="256"/>
    <path class="st1"
          d="M110.5,133.1l-2.6,4.8l2.6,4.8l2.6-4.8L110.5,133.1z M110.5,145.2l-2.6,4.8l2.6,4.8l2.6-4.8L110.5,145.2z"/>
    <g><path class="st2" d="M110.5,155.2c-0.1,0-0.3-0.1-0.3-0.2l-2.6-4.8l2.6-5.1c0.1-0.1,0.2-0.2,0.3-0.2l0,0c0.1,0,0.3,0.1,0.3,0.2    l2.6,4.8l-2.6,5.2C110.8,155.1,110.6,155.2,110.5,155.2L110.5,155.2z M110.5,146l-2.3,4.2l2.2,3.9l2.2-4.2L110.5,146L110.5,146z     M110.5,143.1c-0.1,0-0.3-0.1-0.3-0.2l-2.6-4.8l2.6-5.2c0.1-0.1,0.2-0.2,0.3-0.2l0,0c0.1,0,0.3,0.1,0.3,0.2l2.6,4.8l-2.6,5.1    C110.8,143,110.6,143.1,110.5,143.1L110.5,143.1z M110.5,133.9l-2.3,4.2l2.2,3.8l2.2-4.2L110.5,133.9L110.5,133.9z"/></g>
    <path class="st1" d="M101.3,144l4,2.6l4-2.6l-4-2.6L101.3,144z M111.6,144l4,2.6l4.1-2.6l-4.1-2.6L111.6,144z"/>
    <g><path class="st2" d="M115.6,146.9c-0.1,0-0.1,0-0.2-0.1l-4-2.6c-0.1-0.1-0.2-0.2-0.2-0.3s0.1-0.2,0.2-0.3l4-2.6l4.5,2.6    c0.1,0.1,0.2,0.2,0.2,0.3s-0.1,0.2-0.2,0.3l-4.1,2.6C115.7,146.9,115.7,146.9,115.6,146.9L115.6,146.9z M112.2,143.9l3.4,2.1    l3.3-2.1l-3.6-2.2L112.2,143.9L112.2,143.9z M105.4,146.9c-0.1,0-0.1,0-0.2-0.1l-4-2.6c-0.1-0.1-0.2-0.2-0.2-0.3s0.1-0.2,0.2-0.3    l4-2.6l4.4,2.6c0.1,0.1,0.2,0.2,0.2,0.3s-0.1,0.2-0.2,0.3l-4,2.6C105.5,146.9,105.5,146.9,105.4,146.9L105.4,146.9z M102,143.9    l3.4,2.1l3.3-2.1l-3.5-2.2L102,143.9L102,143.9z"/></g>
    <path class="st1"
          d="M112.4,144c0,1.1-0.9,1.9-1.9,1.9c-1.1,0-1.9-0.9-1.9-1.9s0.9-1.9,1.9-1.9C111.6,142.1,112.4,142.9,112.4,144   L112.4,144z"/>
    <g><path class="st2" d="M110.5,146.3c-1.3,0-2.3-1-2.3-2.3s1-2.3,2.3-2.3c1.3,0,2.3,1,2.3,2.3S111.8,146.3,110.5,146.3L110.5,146.3z     M110.5,142.5c-0.9,0-1.6,0.7-1.6,1.6c0,1.7,3.1,1.7,3.1,0C112,143.2,111.4,142.5,110.5,142.5L110.5,142.5z"/></g>
    <path class="st1"
          d="M115.7,156.4c0,2.9-2.3,5.2-5.2,5.2s-5.2-2.3-5.2-5.2s2.3-5.2,5.2-5.2S115.7,153.6,115.7,156.4L115.7,156.4z"/>
    <g><path class="st2" d="M110.5,162c-3.1,0-5.6-2.5-5.6-5.6s2.5-5.6,5.6-5.6s5.6,2.5,5.6,5.6S113.6,162,110.5,162L110.5,162z     M110.5,151.6c-2.7,0-4.8,2.2-4.8,4.8s2.2,4.8,4.8,4.8c2.7,0,4.8-2.2,4.8-4.8S113.2,151.6,110.5,151.6L110.5,151.6z"/></g>
    <g><path class="st2" d="M115.5,158.1C115.5,158.1,115.5,158.1,115.5,158.1c-3.4-0.6-6.7-0.6-10,0c-0.2,0.1-0.4-0.1-0.4-0.3    c0-0.2,0.1-0.4,0.3-0.4c3.4-0.6,6.8-0.6,10.2,0c0.2,0,0.3,0.2,0.3,0.4C115.9,158,115.7,158.1,115.5,158.1L115.5,158.1z     M115.5,155.5C115.5,155.5,115.5,155.5,115.5,155.5c-1.3-0.2-2.5-0.3-3.7-0.4l-0.4-3.7c0-0.4,0.8-0.4,0.8,0v3.3    c0.9-0.3,2.2-0.2,3.4,0c0.2,0,0.3,0.2,0.3,0.4C115.9,155.3,115.7,155.5,115.5,155.5L115.5,155.5z M105.5,155.5    c-0.2,0-0.3-0.1-0.4-0.3c0-0.2,0.1-0.4,0.3-0.4c1.2-0.2,2.5-0.3,3.7-0.4l-0.4-0.8l0-2.1c0-0.4,0.8-0.4,0.8,0l0,3.3    C107.9,155.1,106.7,155.3,105.5,155.5C105.5,155.5,105.5,155.5,105.5,155.5L105.5,155.5z"/></g>
    <path class="st1"
          d="M105.4,165.2c-0.5,8.5-1.5,17.2-4.8,23.5l5.4-2.2c1.9-7.1,2.3-16.4,2.8-20.7L105.4,165.2z M115.6,165.2   l-3.4,0.6c0.6,4.4,1,13.6,2.8,20.7l5.4,2.2C117.1,182.4,116.1,173.7,115.6,165.2L115.6,165.2z"/>
    <g><path class="st2" d="M100.6,189.1c-0.1,0-0.2,0-0.3-0.1c-0.1-0.1-0.1-0.3-0.1-0.4c3.4-6.4,4.3-15.4,4.8-23.3l3.9,0.2    c0.2,1.6,0,3.1-0.1,4.8c-0.4,4.7-1,11.1-2.4,16.4l-5.6,2.4C100.7,189.1,100.6,189.1,100.6,189.1L100.6,189.1z M105.3,165.6    c0,7.3-0.9,15.9-4,22.4l4.5-1.8c1.1-4.9,1.7-11.3,2.2-16c0.2-1.7,0.3-3.3,0.5-4.4L105.3,165.6L105.3,165.6z M120.4,189.1    c0,0-0.1,0-0.1,0l-5.4-2.2c-1.6-5.5-2.2-11.8-2.6-16.5c-0.2-1.8-0.3-3.3-0.5-4.5l3.7-1c0.9,8.3,1.8,17.2,5.2,23.7    c0.1,0.1,0.1,0.3-0.1,0.4C120.6,189,120.5,189.1,120.4,189.1L120.4,189.1z M115.2,165.3l-3,0.9c0.5,0.8,0.6,2.3,0.8,4.1    c0.4,4.6,1,11,2.4,16.1l4.3,1.6C116.5,181.6,115.6,172.9,115.2,165.3L115.2,165.3z"/></g>
    <path class="st1"
          d="M110.5,183.7c-6.4,0-11.2,3-11.4,10.8c-1.6-2.8-8.2-11.5-14.4-10.3c-3.7,0.7-6.9,5.8-6.4,11.7   c-3.1-8.8-12-10.2-18.5-5c5.8,4.8,8.4,18.8,13.2,24.9h37.5H148c4.9-6.1,7.5-20.2,13.3-24.9c-6.5-5.2-15.5-3.8-18.5,5   c0.6-5.9-2.7-11-6.4-11.7c-6.2-1.2-12.8,7.5-14.4,10.3C121.6,186.7,116.9,183.7,110.5,183.7L110.5,183.7z"/>
    <g><path class="st2" d="M148,216.1H73c-2.5-2.9-4.2-7.1-5.9-11.5c-2.2-5.4-4.4-10.9-7.5-13.5c2.5-2.6,5.5-3.7,8.3-3.7    c4.3,0,7.9,2.4,10,6.4c0.2-5.3,3.5-9.4,6.7-10.1c6-1.1,12,6.2,14.2,9.5c0.7-6.4,4.8-9.9,11.7-9.9c7,0,11.1,3.5,11.7,9.9    c2.2-3.3,8.3-10.6,14.2-9.5c3.3,0.6,6.5,4.7,6.8,10.1c2-4.1,5.7-6.4,10-6.4c2.9,0,5.8,1.1,8.3,3.1c-3.2,3.2-5.4,8.7-7.6,14.1    c-1.8,4.4-3.5,8.6-5.7,11.4C148.2,216,148.1,216.1,148,216.1L148,216.1z M67.8,188.1c-2.7,0-5.5,1-7.9,2.9    c3.3,2.1,5.6,7.8,7.8,13.2c1.8,4.4,3.4,8.5,5.5,11.2l74.6-0.1c2.1-2.7,3.7-6.7,5.4-11c2.2-5.5,4.5-11.1,7.8-13.8    c-2.4-1.3-5.2-2.3-7.9-2.3c-4.6,0-8.4,2.9-10.1,7.8c-0.1,0.2-0.3,0.3-0.4,0.2c-0.2,0-0.3-0.2-0.3-0.4c0.6-5.9-2.8-10.6-6.1-11.3    c-5.6-1.1-12.1,6.7-14,10.1c-0.1,0.1-0.2,0.2-0.4,0.2c-0.2,0-0.3-0.2-0.3-0.4c-0.3-8.6-6.2-10.4-11.1-10.4    c-4.9,0-10.7,1.8-11.1,10.4c0,0.2-0.1,0.3-0.3,0.4c-0.2,0-0.3,0-0.4-0.2c-1.2-2.1-7.8-11.3-14-10.1c-3.3,0.6-6.6,5.4-6.1,11.3    c0,0.2-0.1,0.4-0.3,0.4c-0.2,0-0.4-0.1-0.4-0.2C76.2,191,72.4,188.1,67.8,188.1L67.8,188.1z"/></g>
    <path class="st2"
          d="M147.9,215.7c0,2.8-16.8,5.8-37.4,5.8c-20.7,0-37.4-3.1-37.4-5.8c0-2.8,16.8-4.2,37.4-4.2   C131.1,211.5,147.9,212.9,147.9,215.7L147.9,215.7z"/>
    <g><path class="st2" d="M110.5,221.9c-20.1,0-37.8-2.9-37.8-6.2c0-4.3,28.9-4.6,37.8-4.6c8.9,0,37.8,0.3,37.8,4.6    C148.3,219,130.6,221.9,110.5,221.9L110.5,221.9z M110.5,211.8c-24.3,0-37,1.9-37,3.9c0,2.2,15.6,5.5,37,5.5c21.5,0,37-3.3,37-5.5    C147.5,213.8,134.8,211.8,110.5,211.8L110.5,211.8z"/></g>
    <path class="st1"
          d="M112.2,163.6c0,1-0.8,1.7-1.7,1.7c-1,0-1.7-0.8-1.7-1.7l0,0c0-1,0.8-1.7,1.7-1.7   C111.5,161.9,112.2,162.7,112.2,163.6L112.2,163.6z"/>
    <g><path class="st2" d="M110.5,165.7c-1.2,0-2.1-0.9-2.1-2.1c0-0.6,0.2-1.1,0.6-1.5c1.2-1.2,3.6-0.3,3.6,1.5    C112.6,164.8,111.7,165.7,110.5,165.7L110.5,165.7z M110.5,162.3c-0.4,0-0.7,0.2-1,0.4c-0.3,0.3-0.4,0.6-0.4,1    c0,1.5,2.7,1.5,2.7,0C111.9,162.9,111.2,162.3,110.5,162.3L110.5,162.3z"/></g>
    <path class="st1"
          d="M112.3,167.4c0,1-0.8,1.9-1.9,1.9c-1,0-1.9-0.8-1.9-1.9l0,0c0-1,0.8-1.9,1.9-1.9   C111.5,165.5,112.3,166.4,112.3,167.4L112.3,167.4z"/>
    <g><path class="st2" d="M110.5,169.6c-1.2,0-2.2-1-2.2-2.2c0-1.2,1-2.2,2.2-2.2c1.2,0,2.2,1,2.2,2.2    C112.7,168.6,111.7,169.6,110.5,169.6L110.5,169.6z M110.5,165.9c-0.8,0-1.5,0.7-1.5,1.5c0,1.6,3,1.6,3,0    C112,166.6,111.3,165.9,110.5,165.9L110.5,165.9z"/></g>
    <path class="st1"
          d="M112.5,171.5c0,1.1-0.9,2-2,2c-1.1,0-2-0.9-2-2v0c0-1.1,0.9-2,2-2C111.6,169.4,112.5,170.3,112.5,171.5   L112.5,171.5z"/>
    <g><path class="st2" d="M110.5,173.9L110.5,173.9c-1.3,0-2.4-1.1-2.4-2.4c0-1.3,1.1-2.4,2.4-2.4c1.3,0,2.4,1.1,2.4,2.4    C112.9,172.8,111.8,173.9,110.5,173.9L110.5,173.9z M110.5,169.8c-0.9,0-1.7,0.7-1.7,1.7c0,1.8,3.3,1.8,3.3,0    C112.1,170.5,111.4,169.8,110.5,169.8L110.5,169.8z"/></g>
    <path class="st1"
          d="M112.8,176c0,1.3-1,2.3-2.3,2.3c-1.3,0-2.3-1-2.3-2.3v0c0-1.3,1-2.3,2.3-2.3   C111.8,173.7,112.8,174.7,112.8,176L112.8,176z"/>
    <g><path class="st2" d="M110.5,178.7L110.5,178.7c-1.5,0-2.7-1.2-2.7-2.7c0-1.5,1.2-2.7,2.7-2.7c1.5,0,2.7,1.2,2.7,2.7    C113.2,177.5,112,178.7,110.5,178.7L110.5,178.7z M110.5,174c-1.1,0-1.9,0.9-1.9,1.9c0,1.1,0.9,1.9,1.9,1.9c1.1,0,1.9-0.9,1.9-1.9    C112.4,174.9,111.6,174,110.5,174L110.5,174z"/></g>
    <path class="st1"
          d="M113,181c0,1.4-1.1,2.5-2.5,2.5s-2.5-1.1-2.5-2.5v0c0-1.4,1.1-2.5,2.5-2.5C111.9,178.5,113,179.6,113,181   L113,181z"/>
    <g><path class="st2" d="M110.5,183.9c-1.6,0-2.9-1.3-2.9-2.9c0-1.6,1.3-2.9,2.9-2.9c1.6,0,2.9,1.3,2.9,2.9    C113.4,182.6,112.1,183.9,110.5,183.9L110.5,183.9z M110.5,178.8c-1.2,0-2.2,1-2.2,2.2c0,1.2,1,2.2,2.2,2.2c1.2,0,2.2-1,2.2-2.2    C112.7,179.8,111.7,178.8,110.5,178.8L110.5,178.8z"/></g>
    <path class="st2"
          d="M109.5,185.9c-0.3,0-0.5,0.2-0.5,0.7c0.1,0.5,0.2,1.5,0.3,2.1c0.1,0.7,0.5,0.6,0.6,0c0.1-0.6,0.1-0.9,0.1-2   C110,186.2,109.7,185.9,109.5,185.9L109.5,185.9z M111.5,185.9c-0.3,0-0.6,0.2-0.6,0.8c0,1.1,0,1.4,0.1,2c0.1,0.6,0.5,0.8,0.6,0   c0.1-0.7,0.2-1.6,0.3-2.1C112,186.1,111.8,185.9,111.5,185.9L111.5,185.9z M107.7,186.2c-0.3,0-0.5,0.3-0.5,0.6   c0,0.5,0.2,1.1,0.2,1.8c0.1,0.8,0.6,0.5,0.6,0c0.1-0.4,0.1-1.1,0.1-1.9c0-0.3-0.2-0.5-0.3-0.5C107.8,186.2,107.7,186.2,107.7,186.2   L107.7,186.2z M113.2,186.2c-0.2,0-0.3,0.2-0.3,0.5c-0.1,0.9,0,1.5,0.1,1.9c0,0.4,0.6,0.7,0.6,0c0.1-0.7,0.2-1.3,0.2-1.8   c0-0.3-0.2-0.5-0.5-0.6C113.3,186.2,113.2,186.2,113.2,186.2L113.2,186.2z M105.5,187.1c-0.2,0.1-0.4,0.3-0.4,0.7   c0.1,0.6,0.3,1.3,0.3,2c0,0.5,0.5,0.3,0.5,0c0-0.4,0.1-1.2,0.1-1.9C106,187.2,105.7,187,105.5,187.1L105.5,187.1z M115.3,187.1   c-0.2,0-0.3,0.2-0.3,0.7c0,0.7,0,1.6,0.1,1.9c0,0.4,0.5,0.6,0.5,0c0-0.6,0.1-1.3,0.3-2c0.1-0.3-0.1-0.6-0.4-0.7   C115.4,187,115.4,187,115.3,187.1L115.3,187.1z M85.9,187.1c-0.3,0-0.5,0.4-0.3,0.8c0.3,0.7,0.6,1.1,0.9,1.8   c0.3,0.6,0.7,0.2,0.6-0.2c-0.1-0.4-0.3-0.9-0.7-1.9C86.3,187.3,86.1,187.2,85.9,187.1L85.9,187.1z M135.1,187.1   c-0.2,0-0.3,0.2-0.5,0.5c-0.4,0.9-0.6,1.4-0.7,1.9c-0.1,0.4,0.3,0.8,0.6,0.2c0.3-0.7,0.6-1.1,0.9-1.8   C135.5,187.5,135.4,187.1,135.1,187.1L135.1,187.1z M87.9,187.2c-0.2,0.1-0.3,0.3-0.2,0.6c0.2,0.6,0.6,1.2,0.9,1.9   c0.2,0.6,0.7,0.4,0.5-0.1c-0.2-0.5-0.2-0.8-0.5-1.8C88.4,187.3,88.1,187.1,87.9,187.2L87.9,187.2z M132.9,187.2   c-0.2,0-0.4,0.2-0.5,0.6c-0.3,1-0.4,1.3-0.5,1.8c-0.2,0.5,0.3,0.7,0.5,0.1c0.3-0.7,0.6-1.3,0.9-1.9c0.1-0.3,0-0.6-0.2-0.6   C133,187.2,133,187.2,132.9,187.2L132.9,187.2z M90.4,187.7c-0.3,0-0.5,0.4-0.3,0.9c0.2,0.6,0.5,1.2,0.8,1.9   c0.3,0.7,0.7,0.5,0.6,0.1c-0.1-0.4-0.2-1.2-0.6-2.3C90.8,187.8,90.6,187.6,90.4,187.7L90.4,187.7z M130.6,187.7   c-0.2,0-0.4,0.1-0.6,0.6c-0.3,1.1-0.5,1.8-0.6,2.3c-0.1,0.4,0.3,0.6,0.6-0.1c0.3-0.7,0.6-1.3,0.8-1.9   C131.1,188.1,130.9,187.7,130.6,187.7L130.6,187.7z M84.2,188c-0.3,0-0.5,0.5-0.4,0.8c0.3,0.6,0.5,0.7,0.7,1.3   c0.3,0.6,0.6,0.1,0.5-0.3c-0.1-0.4-0.3-0.8-0.4-1.4C84.6,188.1,84.4,188,84.2,188L84.2,188z M136.8,188c-0.2,0-0.3,0.1-0.4,0.5   c-0.1,0.6-0.3,1-0.4,1.4c-0.1,0.4,0.2,0.9,0.5,0.3c0.3-0.6,0.4-0.8,0.7-1.3C137.3,188.5,137,188,136.8,188L136.8,188z M103.4,189.4   c-0.3,0-0.6,0.4-0.5,0.7c0.2,0.6,0.4,1.1,0.6,1.8c0.2,0.7,0.6,0.3,0.6-0.1c0-0.4-0.1-1-0.3-2C103.7,189.5,103.6,189.4,103.4,189.4   L103.4,189.4z M117.6,189.4c-0.2,0-0.3,0.2-0.4,0.5c-0.2,0.9-0.3,1.5-0.3,2c0,0.4,0.4,0.8,0.6,0.1c0.2-0.7,0.4-1.3,0.6-1.8   C118.2,189.8,117.9,189.4,117.6,189.4L117.6,189.4z M110.5,190c-0.4,0-0.4,0.5-0.4,0.9c0,1.3-0.6,2.5-1,3.1   c-0.4,0.6-1.1,0.5-1.7,0.1c-0.6-0.3-1-0.6-1.6-1.1c-0.7-0.5-1.2-0.2-0.4,0.9c2.3,3.3,4.8,6.1,4.8,11.4c0,0.7,0.1,0.9,0.4,0.9   c0.3,0,0.4-0.2,0.4-0.9c0-5.3,2.5-8.1,4.8-11.4c0.8-1.1,0.3-1.4-0.4-0.9c-0.7,0.5-1,0.7-1.6,1.1c-0.6,0.3-1.3,0.5-1.7-0.1   c-0.5-0.6-1-1.9-1-3.1C110.9,190.5,110.8,190,110.5,190L110.5,190z M92.9,189.2C92.9,189.2,92.9,189.2,92.9,189.2   c-0.2,0.1-0.3,0.2-0.3,0.5c0.1,0.5,0.4,1.5,0.6,1.9c0.1,0.5,0.7,0.4,0.6-0.3c-0.1-0.6-0.1-0.8-0.3-1.5   C93.4,189.4,93.1,189.2,92.9,189.2L92.9,189.2z M128.1,189.2c-0.2,0-0.5,0.2-0.6,0.6c-0.2,0.7-0.2,0.9-0.3,1.5   c-0.1,0.6,0.4,0.7,0.6,0.3c0.1-0.5,0.5-1.4,0.6-1.9C128.4,189.4,128.3,189.2,128.1,189.2C128.1,189.2,128.1,189.2,128.1,189.2   L128.1,189.2z M82.5,189.4c-0.3,0-0.5,0.4-0.2,0.9c0.3,0.6,0.9,1.3,1.1,1.7c0.2,0.4,0.7,0.1,0.4-0.4c-0.3-0.5-0.4-1.1-0.8-1.9   C82.9,189.5,82.7,189.4,82.5,189.4L82.5,189.4z M138.5,189.4c-0.2,0-0.4,0.1-0.5,0.4c-0.4,0.7-0.5,1.3-0.8,1.9   c-0.3,0.5,0.1,0.8,0.4,0.4c0.2-0.4,0.8-1.1,1.1-1.7C139,189.8,138.8,189.4,138.5,189.4L138.5,189.4z M66.7,191   c-0.3,0-0.4,0.6-0.1,1c0.5,0.6,0.8,0.9,1.3,1.4c0.4,0.4,0.5-0.1,0.3-0.5c-0.2-0.4-0.5-0.7-0.9-1.4C67.1,191.2,66.9,191.1,66.7,191   L66.7,191z M154.3,191c-0.2,0-0.3,0.1-0.6,0.5c-0.4,0.6-0.7,1-0.9,1.4c-0.2,0.4-0.1,0.9,0.3,0.5c0.5-0.5,0.8-0.8,1.3-1.4   C154.7,191.6,154.6,191,154.3,191L154.3,191z M69.2,191.5c-0.3,0-0.4,0.2-0.2,0.6c0.3,0.6,0.7,1.4,0.9,1.9c0.3,0.5,1,0.7,0.7-0.1   c-0.3-0.8-0.4-1.2-0.6-1.9C69.8,191.7,69.5,191.5,69.2,191.5L69.2,191.5z M151.8,191.5c-0.3,0-0.6,0.2-0.8,0.5   c-0.3,0.7-0.3,1.1-0.6,1.9c-0.3,0.8,0.5,0.6,0.7,0.1c0.3-0.5,0.6-1.2,0.9-1.9C152.2,191.7,152,191.5,151.8,191.5L151.8,191.5z    M64.4,191.7c-0.4,0-0.4,0.4-0.1,0.6c0.4,0.3,1,0.7,1.5,1.1c0.6,0.5,0.9,0,0.5-0.4c-0.3-0.4-0.6-0.8-1.5-1.2   C64.7,191.7,64.5,191.7,64.4,191.7L64.4,191.7z M156.6,191.7c-0.1,0-0.3,0-0.5,0.1c-0.8,0.4-1.2,0.8-1.5,1.2   c-0.3,0.4-0.1,0.9,0.5,0.4c0.5-0.4,1.1-0.8,1.5-1.1C157,192.1,157,191.7,156.6,191.7L156.6,191.7z M102,192.1   c-0.2,0-0.4,0.3-0.3,0.6c0.2,0.6,0.3,1.2,0.5,1.8c0.1,0.6,0.8,0.6,0.7,0.1c-0.1-0.5-0.2-1.2-0.3-2   C102.4,192.2,102.3,192.1,102,192.1C102.1,192.1,102.1,192.1,102,192.1L102,192.1z M118.9,192.1c-0.2,0-0.3,0.2-0.4,0.5   c-0.2,0.8-0.3,1.5-0.4,2c-0.1,0.5,0.6,0.5,0.7-0.1c0.1-0.6,0.3-1.2,0.5-1.8C119.4,192.3,119.2,192.1,118.9,192.1   C118.9,192.1,118.9,192.1,118.9,192.1L118.9,192.1z M87.1,191.1c-0.2,0-0.3,0.4-0.1,0.8c0.7,2.5,0.9,3.8,0.8,4.5   c-0.1,0.6-0.5,0.7-0.9,0.5c-0.5-0.2-1-0.5-1.4-0.8c-0.4-0.3-0.8,0.1-0.3,0.5c3,2.5,5.1,5.3,5.9,8.7c0.2,0.7,0.6,0.8,0.5,0   c-0.7-4.3-0.8-7.9,0.2-10.1c0.4-0.8,0-1.6-0.6-0.3c-0.4,0.9-1.1,1.3-1.6,0.5c-0.5-0.8-1.6-2.9-2-3.8   C87.4,191.3,87.3,191.1,87.1,191.1C87.1,191.1,87.1,191.1,87.1,191.1L87.1,191.1z M133.9,191.1c-0.1,0-0.3,0.2-0.4,0.5   c-0.3,0.9-1.4,3-2,3.8c-0.5,0.8-1.2,0.4-1.6-0.5c-0.6-1.4-1-0.6-0.6,0.3c1,2.2,0.9,5.8,0.2,10.1c-0.1,0.8,0.3,0.7,0.5,0   c0.8-3.4,2.9-6.3,5.9-8.7c0.6-0.5,0.2-0.8-0.3-0.5c-0.4,0.3-0.9,0.6-1.4,0.8c-0.5,0.2-0.8,0.1-0.9-0.5c-0.1-0.6,0.1-1.9,0.8-4.5   C134.2,191.5,134.1,191.1,133.9,191.1C133.9,191.1,133.9,191.1,133.9,191.1L133.9,191.1z M71.9,192.3c-0.3,0-0.5,0.2-0.4,0.6   c0.2,0.7,0.6,1.4,0.7,1.8c0.1,0.4,0.6,0.2,0.5-0.4c-0.1-0.6-0.1-0.9-0.2-1.6C72.5,192.5,72.2,192.3,71.9,192.3L71.9,192.3z    M149.1,192.3c-0.3,0-0.6,0.2-0.6,0.5c-0.1,0.6-0.2,1-0.2,1.6c-0.1,0.6,0.4,0.8,0.5,0.4c0.1-0.4,0.5-1.1,0.7-1.8   C149.6,192.5,149.4,192.3,149.1,192.3L149.1,192.3z M81.2,191.4c-0.3-0.1-0.4,0.8-0.1,1.1c0.4,0.4,0.9,1,1.4,1.6   c0.4,0.5,0.7,0.1,0.4-0.4c-0.3-0.4-0.6-0.9-1.3-1.9C81.5,191.6,81.4,191.4,81.2,191.4L81.2,191.4z M139.7,191.4   c-0.1,0-0.2,0.1-0.4,0.4c-0.7,1-1,1.5-1.3,1.9c-0.3,0.4,0,0.9,0.4,0.4c0.5-0.6,1-1.1,1.3-1.6C140.1,192.2,140.1,191.4,139.7,191.4   L139.7,191.4z M74,193.4c-0.2,0-0.4,0.1-0.3,0.5c0.1,0.6,0.3,1,0.4,1.5c0.1,0.5,0.5,0.4,0.5-0.1c0-0.5-0.1-1-0.2-1.6   C74.5,193.6,74.2,193.4,74,193.4L74,193.4z M147,193.4c-0.2,0-0.4,0.2-0.5,0.4c-0.1,0.5-0.2,1.1-0.2,1.6c0,0.5,0.4,0.6,0.5,0.1   c0.1-0.5,0.3-1,0.4-1.5C147.3,193.5,147.1,193.4,147,193.4L147,193.4z M80.5,194.1c-0.3,0-0.6,0.3-0.2,0.8c0.6,0.7,1.2,1.3,1.4,1.5   c0.2,0.3,0.8,0.2,0.4-0.4c-0.4-0.6-0.9-1.3-1.2-1.7C80.9,194.1,80.7,194.1,80.5,194.1L80.5,194.1z M140.3,194.1   c-0.1,0-0.3,0.1-0.3,0.2c-0.3,0.4-0.8,1.1-1.2,1.7c-0.4,0.6,0.2,0.7,0.4,0.4c0.2-0.3,0.9-0.8,1.4-1.5c0.4-0.5,0.1-0.8-0.2-0.8   C140.4,194.1,140.4,194.1,140.3,194.1L140.3,194.1z M70.3,196.2c-0.2,0-0.3,0.2,0,0.6c0.7,1,1.6,2.6,1.6,3.2   c0.1,0.7-0.3,0.6-0.6,0.6c-0.9,0-1.3-0.7-2.2-0.9c-0.8-0.2-0.9,0.2-0.4,0.7c3,2.2,6.1,4.7,7.3,6.9c0.5,0.9,1.2,1.2,0.8,0.4   c-1.1-2.7-1.4-4.9-1.2-6.3c0.2-1.4,0.6-2.3,0.5-3.1c0-0.8-0.5-0.7-0.7,0c-0.1,0.5-0.4,1.2-0.5,1.4c-0.2,0.3-0.8,0.4-1.5-0.5   c-0.6-0.9-2.2-2.5-2.8-2.9C70.6,196.3,70.4,196.2,70.3,196.2L70.3,196.2z M150.7,196.2c-0.1,0-0.3,0.1-0.5,0.3   c-0.5,0.4-2.1,2.1-2.8,2.9c-0.6,0.8-1.3,0.7-1.5,0.5c-0.2-0.2-0.4-0.9-0.5-1.4c-0.2-0.7-0.6-0.8-0.7,0c0,0.8,0.3,1.7,0.6,3.1   c0.2,1.4,0,3.6-1.2,6.3c-0.4,0.9,0.3,0.5,0.8-0.4c1.2-2.2,4.3-4.7,7.3-6.9c0.6-0.4,0.5-0.9-0.4-0.7c-0.8,0.2-1.3,0.9-2.2,0.9   c-0.3,0-0.6,0-0.6-0.6c0.1-0.7,0.9-2.2,1.6-3.2C151,196.4,151,196.2,150.7,196.2L150.7,196.2z"/>
    <path class="st4"
          d="M74.7,212.5l1,3.1L74.7,212.5z M76.7,211.9l0.9,3.1L76.7,211.9z M78.9,211.6l0.6,3.2L78.9,211.6z M80.9,211.2   l0.6,3.2L80.9,211.2z M83.4,210.9l0.5,3.2L83.4,210.9z M86.2,210.9l0.6,3.2L86.2,210.9z M88.8,210l0.4,3.2L88.8,210z M91.4,210.2   l0.4,3.2L91.4,210.2z M93.8,209.9l0.4,3.2L93.8,209.9z M96.2,209.6l0.2,3.2L96.2,209.6z M98.8,209.6l0.2,3.2L98.8,209.6z    M101.2,209.5l0.2,3.2L101.2,209.5z M103.8,209.3l0.1,3.2L103.8,209.3z M106.8,209.2l0.1,3.2L106.8,209.2z M146.2,212.5l-1,3.1   L146.2,212.5z M144.3,211.9l-0.9,3.1L144.3,211.9z M142.1,211.6l-0.6,3.2L142.1,211.6z M140.1,211.2l-0.6,3.2L140.1,211.2z    M137.5,210.9l-0.5,3.2L137.5,210.9z M134.8,210.9l-0.6,3.2L134.8,210.9z M132.1,210l-0.4,3.2L132.1,210z M129.6,210.2l-0.4,3.2   L129.6,210.2z M127.2,209.9l-0.4,3.2L127.2,209.9z M124.8,209.6l-0.2,3.2L124.8,209.6z M122.2,209.6l-0.2,3.2L122.2,209.6z    M119.8,209.5l-0.2,3.2L119.8,209.5z M117.2,209.3l-0.1,3.2L117.2,209.3z M114.2,209.2l-0.1,3.2L114.2,209.2z M110.5,209v3.5V209z"/>
    <g><path class="st2" d="M145.3,216c0,0-0.1,0-0.1,0c-0.2-0.1-0.3-0.3-0.2-0.5l1-3.1c0.1-0.2,0.2-0.3,0.5-0.2c0.2,0.1,0.3,0.3,0.2,0.5    l-1,3.1C145.6,215.9,145.4,216,145.3,216L145.3,216z M75.7,216c-0.2,0-0.3-0.1-0.4-0.3l-1-3.1c-0.1-0.2,0-0.4,0.2-0.5    c0.2-0.1,0.4,0,0.5,0.2l1,3.1c0.1,0.2,0,0.4-0.2,0.5C75.8,216,75.7,216,75.7,216L75.7,216z M143.4,215.4c0,0-0.1,0-0.1,0    c-0.2-0.1-0.3-0.3-0.3-0.5l0.9-3.1c0-0.2,0.2-0.3,0.5-0.3c0.2,0.1,0.3,0.3,0.3,0.5l-0.9,3.1C143.7,215.3,143.6,215.4,143.4,215.4    L143.4,215.4z M77.6,215.4c-0.2,0-0.3-0.1-0.4-0.3l-0.9-3.1c-0.1-0.2,0.1-0.4,0.3-0.5c0.2-0.1,0.4,0.1,0.5,0.3l0.9,3.1    c0.1,0.2-0.1,0.4-0.3,0.5C77.6,215.4,77.6,215.4,77.6,215.4L77.6,215.4z M79.5,215.1c-0.2,0-0.3-0.1-0.4-0.3l-0.6-3.2    c0-0.2,0.1-0.4,0.3-0.4c0.2,0,0.4,0.1,0.4,0.3l0.6,3.2C79.9,214.9,79.8,215.1,79.5,215.1C79.5,215.1,79.5,215.1,79.5,215.1    L79.5,215.1z M141.5,215.1C141.5,215.1,141.5,215.1,141.5,215.1c-0.3,0-0.4-0.2-0.4-0.4l0.6-3.2c0-0.2,0.3-0.3,0.4-0.3    c0.2,0,0.3,0.2,0.3,0.4l-0.6,3.2C141.8,215,141.7,215.1,141.5,215.1L141.5,215.1z M139.5,214.7    C139.4,214.7,139.4,214.7,139.5,214.7c-0.3,0-0.4-0.2-0.4-0.4l0.6-3.2c0-0.2,0.2-0.3,0.4-0.3c0.2,0,0.3,0.2,0.3,0.4l-0.6,3.2    C139.8,214.6,139.6,214.7,139.5,214.7L139.5,214.7z M81.5,214.7c-0.2,0-0.3-0.1-0.4-0.3l-0.6-3.2c0-0.2,0.1-0.4,0.3-0.4    c0.2,0,0.4,0.1,0.4,0.3l0.6,3.2C81.9,214.5,81.8,214.7,81.5,214.7C81.6,214.7,81.5,214.7,81.5,214.7L81.5,214.7z M134.2,214.5    C134.2,214.5,134.2,214.5,134.2,214.5c-0.3,0-0.4-0.2-0.4-0.4l0.6-3.2c0-0.2,0.2-0.4,0.4-0.3c0.2,0,0.3,0.2,0.3,0.4l-0.6,3.2    C134.6,214.4,134.4,214.5,134.2,214.5L134.2,214.5z M86.7,214.5c-0.2,0-0.3-0.1-0.4-0.3l-0.6-3.2c0-0.2,0.1-0.4,0.3-0.4    c0.2-0.1,0.4,0.1,0.4,0.3l0.6,3.2C87.1,214.2,87,214.4,86.7,214.5C86.8,214.5,86.7,214.5,86.7,214.5L86.7,214.5z M137,214.5    C137,214.5,137,214.5,137,214.5c-0.3,0-0.4-0.2-0.4-0.4l0.5-3.2c0-0.2,0.2-0.4,0.4-0.3c0.2,0,0.3,0.2,0.3,0.4l-0.5,3.2    C137.4,214.4,137.2,214.5,137,214.5L137,214.5z M84,214.5c-0.2,0-0.3-0.1-0.4-0.3l-0.5-3.2c0-0.2,0.1-0.4,0.3-0.4    c0.2,0,0.4,0.1,0.4,0.3l0.5,3.2C84.4,214.3,84.2,214.4,84,214.5C84,214.5,84,214.5,84,214.5L84,214.5z M129.2,213.8    C129.2,213.8,129.2,213.8,129.2,213.8c-0.3,0-0.4-0.2-0.4-0.4l0.4-3.2c0-0.2,0.2-0.4,0.4-0.3c0.2,0,0.3,0.2,0.3,0.4l-0.4,3.2    C129.6,213.6,129.4,213.8,129.2,213.8L129.2,213.8z M91.8,213.8c-0.2,0-0.3-0.1-0.4-0.3l-0.4-3.2c0-0.2,0.1-0.4,0.3-0.4    c0.3-0.1,0.4,0.1,0.4,0.3l0.4,3.2C92.1,213.5,92,213.7,91.8,213.8C91.8,213.8,91.8,213.8,91.8,213.8L91.8,213.8z M131.7,213.6    C131.7,213.6,131.7,213.6,131.7,213.6c-0.3,0-0.4-0.2-0.4-0.4l0.4-3.2c0-0.2,0.1-0.4,0.4-0.3c0.2,0,0.3,0.2,0.3,0.4l-0.4,3.2    C132.1,213.5,131.9,213.6,131.7,213.6L131.7,213.6z M89.2,213.6c-0.2,0-0.3-0.1-0.4-0.3l-0.4-3.2c0-0.2,0.1-0.4,0.3-0.4    c0.3,0,0.4,0.1,0.4,0.3l0.4,3.2C89.6,213.4,89.5,213.6,89.2,213.6C89.3,213.6,89.3,213.6,89.2,213.6L89.2,213.6z M126.8,213.4    C126.8,213.4,126.8,213.4,126.8,213.4c-0.3,0-0.4-0.2-0.4-0.4l0.4-3.2c0-0.2,0.1-0.4,0.4-0.3c0.2,0,0.3,0.2,0.3,0.4l-0.4,3.2    C127.2,213.3,127,213.4,126.8,213.4L126.8,213.4z M94.2,213.4c-0.2,0-0.3-0.1-0.4-0.3l-0.4-3.2c0-0.2,0.1-0.4,0.3-0.4    c0.2,0,0.4,0.1,0.4,0.3l0.4,3.2C94.6,213.2,94.4,213.4,94.2,213.4C94.2,213.4,94.2,213.4,94.2,213.4L94.2,213.4z M122,213.2    C122,213.2,122,213.2,122,213.2c-0.2,0-0.4-0.2-0.4-0.4l0.2-3.2c0-0.2,0.1-0.3,0.4-0.4c0.2,0,0.4,0.2,0.3,0.4l-0.2,3.2    C122.3,213.1,122.2,213.2,122,213.2L122,213.2z M124.5,213.2C124.5,213.2,124.5,213.2,124.5,213.2c-0.2,0-0.4-0.2-0.4-0.4l0.2-3.2    c0-0.2,0.3-0.3,0.4-0.4c0.2,0,0.4,0.2,0.3,0.4l-0.2,3.2C124.9,213.1,124.7,213.2,124.5,213.2L124.5,213.2z M96.4,213.2    c-0.2,0-0.4-0.2-0.4-0.4l-0.2-3.2c0-0.2,0.1-0.4,0.3-0.4c0.3,0,0.4,0.1,0.4,0.4l0.2,3.2C96.8,213,96.7,213.2,96.4,213.2    C96.4,213.2,96.4,213.2,96.4,213.2L96.4,213.2z M99,213.2c-0.2,0-0.4-0.2-0.4-0.4l-0.2-3.2c0-0.2,0.2-0.4,0.4-0.4    c0.4,0,0.4,0.2,0.4,0.4l0.2,3.2C99.4,213,99.2,213.2,99,213.2C99,213.2,99,213.2,99,213.2L99,213.2z M119.6,213    C119.6,213,119.6,213,119.6,213c-0.2,0-0.4-0.2-0.4-0.4l0.2-3.2c0-0.2,0.2-0.3,0.4-0.4c0.2,0,0.4,0.2,0.4,0.4l-0.2,3.2    C120,212.9,119.8,213,119.6,213L119.6,213z M101.3,213c-0.2,0-0.4-0.2-0.4-0.4l-0.2-3.2c0-0.2,0.2-0.4,0.4-0.4    c0.3,0.1,0.4,0.2,0.4,0.4l0.2,3.2C101.7,212.9,101.6,213,101.3,213C101.3,213,101.3,213,101.3,213L101.3,213z M110.5,212.9    c-0.2,0-0.4-0.2-0.4-0.4V209c0-0.4,0.8-0.4,0.8,0v3.5C110.9,212.8,110.7,212.9,110.5,212.9L110.5,212.9z M117.1,212.9    C117.1,212.9,117.1,212.9,117.1,212.9c-0.2,0-0.4-0.2-0.4-0.4l0.1-3.2c0-0.2,0.1-0.3,0.4-0.4c0.2,0,0.4,0.2,0.4,0.4l-0.1,3.2    C117.4,212.7,117.3,212.9,117.1,212.9L117.1,212.9z M103.9,212.9c-0.2,0-0.4-0.2-0.4-0.4l-0.1-3.2c0-0.2,0.2-0.4,0.4-0.4    c0.3,0.1,0.4,0.2,0.4,0.4l0.1,3.2C104.3,212.7,104.1,212.9,103.9,212.9C103.9,212.9,103.9,212.9,103.9,212.9L103.9,212.9z     M114.1,212.8C114.1,212.8,114.1,212.8,114.1,212.8c-0.2,0-0.4-0.2-0.4-0.4l0.1-3.2c0-0.2,0.3-0.3,0.4-0.4c0.2,0,0.4,0.2,0.4,0.4    l-0.1,3.2C114.4,212.6,114.3,212.8,114.1,212.8L114.1,212.8z M106.9,212.8c-0.2,0-0.4-0.2-0.4-0.4l-0.1-3.2c0-0.2,0.2-0.4,0.4-0.4    c0.2,0,0.4,0.2,0.4,0.4l0.1,3.2C107.3,212.6,107.1,212.8,106.9,212.8C106.9,212.8,106.9,212.8,106.9,212.8L106.9,212.8z"/></g></g></svg>
