<?xml version="1.0" ?>
<svg id="Layer_1" style="enable-background:new 0 0 512 512;" version="1.1" viewBox="0 0 512 512" xml:space="preserve"
     xmlns="http://www.w3.org/2000/svg" xmlns:xlink="http://www.w3.org/1999/xlink"><style type="text/css">
	.st0 {
    fill: #FFFFFF;
  }

  .st1 {
    fill: #2D2F76;
  }

  .st2 {
    fill: #BD1F38;
  }

  .st3 {
    fill: #F0E030;
  }

  .st4 {
    fill: #010101;
  }

  .st5 {
    fill: #457537;
  }

  .st6 {
    fill: #416F3E;
  }

  .st7 {
    fill: #406CB4;
  }

  .st8 {
    fill: #E3E3E3;
  }

  .st9 {
    fill: #91857C;
  }
</style>
  <g><path class="st0" d="M298.7,271.9L298.7,271.9L298.7,271.9z"/>
    <g><defs><rect height="298.7" id="SVGID_1_" width="512" y="106.7"/></defs>
      <clipPath id="SVGID_2_"><use style="overflow:visible;" xlink:href="#SVGID_1_"/></clipPath></g>
    <polygon class="st1"
             points="256,106.7 256,116.2 256,119.5 256,121 199.3,149.3 256,149.3 256,157.9 256,170.7 256,183.5 256,192    199.3,192 256,220.4 256,225.1 256,234.7 256,237.9 243.3,237.9 236.8,237.9 233.8,237.9 149.3,195.6 149.3,237.9 140.8,237.9    128,237.9 115.2,237.9 106.7,237.9 106.7,195.6 22.2,237.9 12.7,237.9 0,237.9 0,405.4 512,405.4 512,106.7  "/>
    <polygon class="st1" points="0,192 0,220.4 56.7,192  "/>
    <polygon class="st1" points="0,149.3 56.7,149.3 0,121  "/>
    <polygon class="st1" points="106.7,106.7 28.6,106.7 106.7,145.7  "/>
    <polygon class="st1" points="149.3,106.7 149.3,145.7 227.4,106.7  "/>
    <polygon class="st2" points="85.3,192 0,234.7 0,237.9 12.7,237.9 104.4,192  "/>
    <polygon class="st2" points="170.7,192 256,234.7 256,225.1 189.7,192  "/>
    <polygon class="st2" points="0,116.2 66.3,149.3 85.3,149.3 0,106.7  "/>
    <polygon class="st2" points="170.7,149.3 256,106.7 236.9,106.7 151.6,149.3  "/>
    <g><polygon class="st0" points="170.7,149.3 151.6,149.3 236.9,106.6 227.4,106.6 149.3,145.7 149.3,106.6 140.8,106.6 140.8,149.9     140.8,154.7 140.8,157.9 153.6,157.9 172.7,157.9 179.2,157.9 182.2,157.9 256,157.9 256,149.3 199.3,149.3 256,121 256,119.5     256,116.2 256,106.6   "/>
      <polygon class="st0"
               points="106.7,145.7 28.6,106.6 25.6,106.6 19.1,106.6 0,106.6 85.3,149.3 66.3,149.3 0,116.2 0,121     56.7,149.3 0,149.3 0,157.9 73.8,157.9 83.3,157.9 102.4,157.9 115.2,157.9 115.2,154.7 115.2,151.5 115.2,149.9 115.2,106.6     106.7,106.6   "/>
      <polygon class="st0"
               points="172.7,183.5 153.6,183.5 140.8,183.5 140.8,186.6 140.8,189.9 140.8,191.4 140.8,237.9 149.3,237.9     149.3,195.6 233.8,237.9 236.8,237.9 243.3,237.9 256,237.9 256,234.7 170.7,192 189.7,192 256,225.1 256,220.4 199.3,192     256,192 256,183.5 182.2,183.5   "/>
      <polygon class="st0"
               points="83.3,183.5 76.8,183.5 73.8,183.5 0,183.5 0,192 56.7,192 56.7,192 0,220.4 0,221.9 0,225.1 0,234.7     85.3,192 104.4,192 12.7,237.9 22.2,237.9 106.7,195.6 106.7,237.9 115.2,237.9 115.2,191.4 115.2,186.6 115.2,183.5 102.4,183.5       "/></g>
    <polygon class="st2"
             points="182.2,157.9 179.2,157.9 172.7,157.9 153.6,157.9 140.8,157.9 140.8,154.7 140.8,149.9 140.8,106.6    128,106.6 115.2,106.6 115.2,149.9 115.2,151.5 115.2,154.7 115.2,157.9 102.4,157.9 83.3,157.9 73.8,157.9 0,157.9 0,170.7    0,183.5 73.8,183.5 76.8,183.5 83.3,183.5 102.4,183.5 115.2,183.5 115.2,186.6 115.2,191.4 115.2,237.9 128,237.9 140.8,237.9    140.8,191.4 140.8,189.9 140.8,186.6 140.8,183.5 153.6,183.5 172.7,183.5 182.2,183.5 256,183.5 256,170.7 256,157.9  "/>
    <path class="st3"
          d="M341.6,258.3c-5.5,4.6-10.7,11.4-11.9,17.5c-3.6,17.2-8.4,21-15.8,17.3c0,9.2,8.1,9.9,11.6,4.5   c0,8.7,3.1,16.2,10.2,22.6c3,2.7,3.5,0.9,2.1-2.1c-1.4-3-1.4-12.6-4.3-18.2c4.5,3.3,11.2,1.4,10.7-7.5c-5.8,3.4-11.6,3.3-12.2-4.8   C331.4,278.1,335.1,264.3,341.6,258.3"/>
    <path class="st4"
          d="M338,321.7c-0.5,0-1.3-0.5-2.3-1.3c-6.8-6.2-10.2-13.4-10.3-22.3c-1.4,1.9-3.5,3.1-5.6,3.1c-2.8,0-6-2.1-6-8.1   v-0.2l0.2,0.1c1.7,0.9,3.2,1.3,4.6,1.3l0,0c4.9,0,8.3-5.7,11-18.5c1.4-6.6,7.1-13.4,12-17.6l0.2,0.2c-6.5,6-10.2,19.9-9.5,29.2   c0.3,4.5,2.3,6.8,5.6,6.8c1.8,0,4.1-0.7,6.4-2.1l0.2-0.1l0,0.2c0.2,3.2-0.5,5.7-2,7.3c-1.1,1.2-2.6,1.8-4.3,1.8   c-1.4,0-2.8-0.4-4.1-1.3c1.5,3.3,2.2,7.8,2.7,11.5c0.4,2.7,0.7,5,1.3,6.3c0.7,1.5,0.9,2.7,0.6,3.3   C338.5,321.6,338.3,321.7,338,321.7 M325.7,297.3v0.4c0,8.9,3.3,16.3,10.2,22.5c1.2,1.1,1.8,1.3,2.1,1.3c0.2,0,0.3-0.1,0.4-0.2   c0.3-0.5,0.1-1.6-0.6-3.1c-0.6-1.3-0.9-3.6-1.3-6.3c-0.6-3.8-1.3-8.6-2.9-11.8l-0.2-0.5l0.4,0.3c1.3,0.9,2.9,1.5,4.4,1.5   c1.6,0,3.1-0.6,4.1-1.8c1.4-1.5,2.1-3.9,2-6.9c-2.3,1.3-4.5,2-6.3,2c-2.4,0-5.4-1.2-5.9-7c-0.6-8.4,2.3-20.5,7.6-27.3   c-4.3,4.1-8.6,9.9-9.8,15.5c-2.7,12.9-6.2,18.7-11.3,18.7l0,0c-1.3,0-2.8-0.4-4.5-1.2c0.1,5.6,3.1,7.6,5.7,7.6   c2.2,0,4.3-1.3,5.7-3.3L325.7,297.3z"/>
    <path class="st3"
          d="M334.7,190c0.4-3.4-0.3-6.9-2.8-9.1c-4.8-4.2-9.5-2.8-13,0.6c-5.2-2.8-8,7.2-14,5.5c1,3.3,2.5,4.7,5.5,3.5   c-3.1,2.8,0,6.2-3.7,9.7c6.7,2.1,10.2-1.6,9.9-7.9c2.5,2.3,6.5,2.1,8.7-0.4c-3.6-1.1-3.6-4.2-2.1-7.1   C325.3,180.4,335.3,180.6,334.7,190"/>
    <path class="st4"
          d="M310.2,200.9c-1.1,0-2.3-0.2-3.5-0.6l-0.2-0.1l0.2-0.1c1.9-1.7,2-3.5,2-5.2c0.1-1.4,0.1-2.8,1.3-4.1   c-2.6,0.8-4.2-0.4-5.2-3.8l-0.1-0.2l0.2,0.1c0.4,0.1,0.9,0.2,1.3,0.2l0,0c2.2,0,4-1.7,5.7-3.3c1.6-1.5,3.2-3,5-3   c0.6,0,1.2,0.2,1.9,0.5c2.2-2.1,4.5-3.2,6.9-3.2c2.1,0,4.2,0.9,6.3,2.7c2.3,2,3.3,5.4,2.9,9.2l-0.3,0c0.2-2.5-0.5-4.5-1.8-5.9   c-1.1-1.2-2.8-1.9-4.6-1.9c-2.2,0-4.2,1-5,2.6c-0.9,1.8-1.1,3.5-0.6,4.7c0.4,1,1.3,1.7,2.7,2.2l0.2,0.1l-0.1,0.1   c-1.1,1.3-2.8,2.1-4.5,2.1l0,0c-1.5,0-2.9-0.5-4.1-1.4c0.1,2.9-0.6,5.1-2,6.6C313.6,200.3,312.1,200.9,310.2,200.9 M306.9,200.1   c3.3,1,5.9,0.6,7.6-1.2c1.4-1.5,2.1-3.8,1.9-6.7l0-0.3l0.2,0.2c1.1,1,2.6,1.6,4.1,1.6c1.6,0,3.2-0.7,4.2-1.8   c-1.3-0.5-2.2-1.2-2.6-2.2c-0.6-1.3-0.3-3.1,0.6-5c0.8-1.7,2.9-2.8,5.2-2.8c1.9,0,3.6,0.7,4.8,2c0.8,0.8,1.3,1.9,1.6,3.1   c-0.3-2.5-1.2-4.6-2.8-6c-2-1.7-4-2.6-6.1-2.6c-2.3,0-4.7,1.1-6.8,3.2l-0.1,0.1l-0.1,0c-0.6-0.3-1.2-0.5-1.8-0.5   c-1.8,0-3.3,1.4-4.9,2.9c-1.8,1.6-3.6,3.3-5.9,3.3l0,0c-0.4,0-0.8,0-1.2-0.1c0.8,2.5,1.9,3.6,3.5,3.6c0.5,0,1.1-0.1,1.8-0.4   l0.6-0.2l-0.5,0.5c-1.5,1.3-1.5,2.8-1.6,4.3C308.8,196.6,308.8,198.4,306.9,200.1"/>
    <path class="st5"
          d="M350.1,239.3c-7.5,4-21.3,2.3-22.6-7.5c-1.3-9.8,8.2-14.2,10.8-15.5c4-2,7.1,1.6,5.8,5.7   c4.4-1.6,5.4-6.7,3.3-9.7c5.8,0.4,11.2-4,13.5-10.2c-2,1.9-7.6,0.6-12.2,0.3c1.4-1.6,1.4-4.6,1-6.2c-4.8,5-11.8,2.7-21,17   c1.4-5,4.1-14.9,5.7-21.4c0.2-0.6,0.3-1.3,0.3-2c0.6-9.4-9.4-9.5-11.5-5.3c2.3,2.6,1.1,5.7,0.3,10.4c-1,5.5-3.1,18.3-5,22.6   c-0.6-6.7-5-7.1-5.8-10.4c-1.3,0.9-2,3.1-1.7,4.7c-1.6-1.7-6.9,0.4-8.9-2.1c-2.1,4.3,1.3,8.5,4.8,10.4c-2.1,0.1-2.5,2.6-4.8,2.6   c3,3.5,6.2,5,9.8,5.2c3.6,0.3,6.3,1.6,8.5,6C323.9,241.2,337.4,245.8,350.1,239.3"/>
    <path class="st4"
          d="M337.5,242.6L337.5,242.6c-7.7,0-14.8-3.5-17.3-8.4c-2-3.9-4.4-5.7-8.4-6c-3.9-0.3-7-1.9-9.9-5.3l-0.2-0.2h0.3   c1.1,0,1.8-0.6,2.5-1.3c0.6-0.5,1.1-1.1,1.9-1.3c-3.7-2.1-6.5-6.3-4.5-10.3l0.1-0.2l0.1,0.2c0.9,1.2,2.8,1.3,4.5,1.3h1.1   c1.2,0,2.4,0,3.1,0.6c-0.1-1.5,0.5-3.6,1.8-4.5l0.1-0.1l0,0.2c0.3,1.2,1.2,2,2.1,3c1.5,1.5,3.2,3.1,3.7,6.9   c1.6-4.1,3.4-14.1,4.4-20.1l0.3-1.9c0.1-0.8,0.3-1.6,0.4-2.3c0.7-3.4,1.2-5.9-0.7-8l-0.1-0.1l0-0.1c0.8-1.7,2.9-2.8,5.2-2.8   c1.9,0,3.6,0.7,4.7,2c1.4,1.4,2,3.6,1.8,6.1c-0.1,0.6-0.2,1.3-0.4,2c-1.5,6.3-4,15.5-5.4,20.6c5.9-8.8,10.8-11.1,14.9-12.9   c2.2-1,4.1-1.8,5.7-3.5l0.2-0.2l0,0.2c0.4,1.6,0.4,4.4-0.8,6.1c1,0.1,2.1,0.2,3.2,0.3c1.6,0.2,3.4,0.4,4.8,0.4c1.9,0,3.1-0.3,3.9-1   l0.4-0.4l-0.2,0.5c-2.3,6.4-7.7,10.6-13.4,10.3c1,1.5,1.2,3.6,0.6,5.4c-0.6,2-2.1,3.5-4.1,4.2l-0.2,0.1l0.1-0.2   c0.5-1.7,0.3-3.4-0.6-4.6c-1.1-1.5-3.1-1.9-5.1-0.9l-0.3,0.1c-2.9,1.4-11.7,5.8-10.5,15.2c0.9,6.9,7.9,9.4,13.7,9.4   c2.8,0,5.6-0.6,7.9-1.6c0.3-0.1,0.5-0.3,0.8-0.4l0.1,0.2c-0.3,0.1-0.5,0.3-0.8,0.4C345.5,241.7,341.5,242.6,337.5,242.6    M302.3,222.9c2.8,3.2,5.7,4.7,9.5,5c4.1,0.3,6.6,2.1,8.6,6.1c2.4,4.9,9.4,8.3,17,8.3c2.8,0,5.5-0.4,8.2-1.3   c-1.4,0.3-2.8,0.4-4.3,0.4c-5.9,0-13-2.5-14-9.6c-1.3-9.6,7.7-14,10.6-15.5l0.2-0.1c2.1-1,4.2-0.6,5.4,1c0.9,1.2,1.1,2.9,0.7,4.6   c1.8-0.7,3.1-2.1,3.7-4c0.6-1.9,0.3-3.9-0.8-5.4l-0.2-0.2l0.3,0c5.5,0.4,10.8-3.6,13.2-9.7c-0.8,0.5-2,0.8-3.7,0.8   c-1.5,0-3.2-0.2-4.8-0.4c-1.1-0.1-2.3-0.3-3.4-0.3l-0.3,0l0.2-0.2c1.3-1.4,1.4-4.2,1-5.8c-1.6,1.6-3.5,2.4-5.6,3.4   c-4.1,1.8-9.2,4.1-15.2,13.5l-0.5,0.7l0.2-0.8c1.4-4.9,4.1-14.8,5.7-21.4c0.2-0.7,0.3-1.3,0.3-1.9c0.1-2.5-0.5-4.5-1.8-5.9   c-1.1-1.2-2.8-1.9-4.6-1.9c-2.2,0-4.1,1-4.9,2.5c1.9,2.2,1.4,4.7,0.7,8.2c-0.1,0.7-0.3,1.5-0.4,2.3l-0.3,1.9   c-1.1,6.3-3,16.8-4.6,20.6l-0.2,0.5l0-0.5c-0.3-4.1-2.1-5.7-3.6-7.2c-0.9-0.9-1.8-1.7-2.1-2.9c-1.2,0.9-1.8,3.1-1.5,4.5l0.1,0.4   l-0.3-0.3c-0.6-0.7-1.8-0.7-3.2-0.7h-1.1c-1.8,0-3.6-0.1-4.6-1.3c-1.8,3.9,1.1,8.1,4.9,10l0.4,0.2l-0.4,0c-0.9,0.1-1.5,0.6-2.2,1.3   C304,222.2,303.4,222.8,302.3,222.9"/>
    <path class="st3"
          d="M368.9,230.7c-4.3,11.8-15.9,20.2-21.1,21.4c-8.9,2.2-27.2,11-32.1,15.6c-0.8-0.2-1.5-0.4-2-0.8   c-2.4-1.7-4.4-7.2-0.1-11.9c13.3-12.5,27.7-7.1,36.6-15.6c-7.5,4-21.3,2.3-22.6-7.5c8.1,2.1,22.7,2.3,34.3-10.2   C363.5,223.3,368,228.7,368.9,230.7"/>
    <path class="st4"
          d="M315.7,267.8L315.7,267.8c-0.9-0.2-1.6-0.5-2.1-0.9c-1.4-1-2.4-2.9-2.6-5c-0.2-1.8,0.1-4.4,2.5-7.1   c7.3-6.9,15-8.4,21.8-9.7c5.2-1,10.2-2,14.1-5.3c-2.3,1-5.1,1.6-8,1.6c-5.9,0-13-2.5-14-9.6l0-0.2l0.2,0c1.9,0.5,4.9,1.1,8.7,1.1   c6.9,0,16.9-2,25.5-11.3l0.1-0.1l0.1,0.1c1.6,1.8,6.1,7.1,7,9.1l0,0l0,0c-4.3,11.9-15.9,20.2-21.2,21.5   C338.8,254.4,320.6,263.3,315.7,267.8L315.7,267.8z M350.9,238.8l-0.7,0.6c-4.1,3.9-9.4,4.9-14.9,6c-6.8,1.3-14.4,2.8-21.7,9.6   c-2.3,2.6-2.6,5.2-2.4,6.9c0.2,2,1.2,3.9,2.5,4.9c0.5,0.3,1.1,0.6,1.9,0.8c5-4.6,23.2-13.4,32.1-15.6c5.3-1.3,16.7-9.5,21-21.3   c-0.9-1.9-5.1-7-6.8-8.9c-8.7,9.3-18.8,11.3-25.6,11.3c-3.7,0-6.7-0.6-8.6-1.1c1,6.8,8,9.2,13.7,9.2c3.2,0,6.3-0.7,8.7-2   L350.9,238.8z"/>
    <path class="st5"
          d="M341.6,258.3c-6.7,5.7-10.2,19.8-9.5,29.3c0.2,2.6,0.9,4.4,2.1,5.5c0.5-5.4,4.2-19.3,13.8-25.6   c8.1-5.2,20.7-17,25.4-30.5c-0.9-2.4-2.3-4.1-5-5.8C363.8,244,351.4,250.1,341.6,258.3"/>
    <path class="st4"
          d="M334.3,293.4l-0.2-0.2c-1.2-1.2-1.9-3.1-2.1-5.6c-0.7-9.6,2.7-23.6,9.6-29.4c2.5-2.1,5.1-4.1,7.7-6   c7.7-5.7,15.6-11.6,19.1-21.1l0-0.2l0.1,0.1c2.7,1.7,4.1,3.4,5,5.9l0,0l0,0c-5,14.3-18.3,26-25.5,30.6   c-9.9,6.4-13.4,20.9-13.8,25.5L334.3,293.4z M368.5,231.4c-3.5,9.5-11.4,15.4-19.1,21c-2.6,1.9-5.2,3.9-7.7,5.9   c-6.6,5.6-10.2,19.6-9.5,29.2c0.2,2.4,0.8,4.1,1.8,5.3c0.5-4.9,4-19,13.9-25.4c7.1-4.6,20.4-16.2,25.3-30.4   C372.4,234.7,371,233.1,368.5,231.4"/>
    <path class="st6"
          d="M364.5,225.2c-2.4,3.6-7.9,8.6-13.1,10.6c1.1-1.3,1.5-2.9,1.6-4.3c-6.7,2.5-20,2.3-25.4,0.3   c8.1,2.1,22.7,2.3,34.3-10.2C363,222.9,364,224,364.5,225.2"/>
    <path class="st4"
          d="M351,236.1l0.3-0.4c0.9-1,1.4-2.3,1.5-4c-3.1,1.1-7.8,1.8-13,1.8c-5,0-9.6-0.6-12.3-1.6l0.1-0.2   c1.9,0.5,4.9,1.1,8.7,1.1c6.9,0,16.9-2,25.5-11.3l0.1-0.1l0.1,0.1c1,1.2,2.1,2.4,2.7,3.7l0,0.1l0,0c-2.4,3.7-7.9,8.6-13.2,10.6   L351,236.1z M353.1,231.4l0,0.2c-0.1,1.6-0.5,2.9-1.3,4c5.1-2.1,10.2-6.8,12.6-10.3c-0.5-1.2-1.5-2.3-2.5-3.4   c-8.7,9.3-18.7,11.3-25.6,11.3c-0.8,0-1.7,0-2.4-0.1c1.8,0.2,3.9,0.3,5.9,0.3c5.3,0,10.1-0.7,13.1-1.8L353.1,231.4z"/>
    <path class="st5"
          d="M313.5,255c-10.8,10.1-3.7,19,0.6,21c-1.1,7.1,5.5,6.2,5.4,12.2c2.7-1.6,3.4-5.7,3-8.9   c3.4,3.7,12.1-0.4,13.9,6.4c1.1-7.5-4.7-15.1-11.9-14.3c3-2.7,1.3-7.1-1.6-8.2c-0.6,5.5-6.8,5.5-9.2,3.8   C311.2,265.2,309.3,259.6,313.5,255"/>
    <path class="st4"
          d="M319.3,288.4v-0.2c0.1-2.7-1.3-4-2.7-5.3c-1.6-1.5-3.3-3.1-2.7-6.9c-2.1-1-5.4-4.1-6.1-8.5   c-0.5-3,0.1-7.6,5.6-12.7l0.2,0.2c-2.3,2.6-2.6,5.2-2.4,6.9c0.2,2,1.2,3.9,2.5,4.9c0.9,0.6,2.2,1,3.5,1c1.2,0,5-0.3,5.5-4.7l0-0.2   l0.2,0.1c1.6,0.6,2.8,2.2,3.1,4c0.3,1.6-0.2,3.1-1.3,4.2c3.2-0.2,6.3,1.2,8.6,3.9c2.5,2.9,3.6,6.9,3.1,10.6l-0.1,0.6l-0.2-0.6   c-1-3.9-4.4-4.1-7.7-4.4c-2.2-0.2-4.5-0.3-6-1.7c0.3,3.3-0.5,7.2-3.1,8.7L319.3,288.4z M312.2,256.4c-3.3,3.6-4.8,7.4-4.2,11.1   c0.7,4.4,4,7.4,6.1,8.3l0.1,0l0,0.1c-0.6,3.7,1,5.2,2.6,6.7c1.4,1.3,2.8,2.6,2.8,5.2c2.5-1.6,3.1-5.5,2.7-8.7l0-0.4l0.3,0.3   c1.4,1.5,3.7,1.7,6.1,1.9c3.2,0.3,6.5,0.5,7.7,4c0.4-3.5-0.8-7.2-3.1-9.9c-2.3-2.7-5.5-4.1-8.8-3.8l-0.4,0l0.3-0.3   c1.2-1.1,1.7-2.6,1.4-4.2c-0.3-1.6-1.4-3.1-2.8-3.8c-0.4,3.5-3.2,4.8-5.7,4.8c-1.4,0-2.8-0.4-3.7-1c-1.4-1-2.4-2.9-2.6-5   C310.8,260.5,310.9,258.5,312.2,256.4"/>
    <path class="st3"
          d="M337,319.5c-1.2,0.7-1.1,2.2-0.4,3.2c1.5,2-1,6.5,3.8,7.5c1.4,0.3,2.5-0.6,3.1-2.2c1.5-4.5-3.3-5-3.7-7.1   C339.3,318.8,338,319,337,319.5"/>
    <path class="st4"
          d="M340.9,330.4L340.9,330.4c-0.2,0-0.4,0-0.5-0.1c-3.2-0.6-3.2-2.8-3.3-4.8c0-1,0-2-0.5-2.7   c-0.5-0.6-0.7-1.4-0.5-2.1c0.1-0.5,0.4-1,0.9-1.3c0.5-0.3,0.9-0.4,1.3-0.4c0.6,0,1.4,0.3,1.7,1.8c0.1,0.7,0.9,1.3,1.6,1.9   c1.4,1,3.1,2.4,2.1,5.3C343.1,329.5,342.1,330.4,340.9,330.4 M338.2,319.3c-0.3,0-0.7,0.1-1.2,0.4c-0.4,0.3-0.7,0.6-0.8,1.1   c-0.1,0.6,0.1,1.3,0.5,1.9c0.5,0.7,0.6,1.8,0.6,2.9c0,1.9,0.1,3.9,3.1,4.5c1.3,0.3,2.4-0.5,2.9-2.1c0.9-2.8-0.6-4-2-5   c-0.8-0.6-1.5-1.2-1.7-2C339.4,319.8,338.9,319.3,338.2,319.3"/>
    <path class="st3"
          d="M341,327.9c-1.6,0.7-3,1.8-2.3,6.9c0.3,2.1,0.1,7.2-1.7,7.3c1.1,0.6,3.5,1.2,4.5-0.1c1,1.6,3.1,1.1,4-0.8   c1.1,0.9,2.7-0.6,2.7-2c1,0.6,3-0.3,2.5-3.3c1.2,0.4,2.8-0.4,3.3-1.2c-1.8-0.4-6.2-2.8-7.3-4.7C345.7,328,342.9,327.1,341,327.9"/>
    <path class="st4"
          d="M343.1,343.1c-0.6,0-1.2-0.3-1.6-0.9c-1.1,1.2-3.4,0.7-4.6,0l-0.4-0.2l0.5,0c0.3,0,0.5-0.1,0.7-0.4   c1.1-1.2,1.1-5.1,0.9-6.8c-0.6-5.2,0.8-6.3,2.4-7c1.9-0.9,4.8,0.1,5.8,2c1,1.9,5.5,4.3,7.2,4.6l0.2,0l-0.1,0.2   c-0.6,0.8-2.1,1.6-3.3,1.3c0.3,2.1-0.6,2.9-1,3.2c-0.5,0.3-1,0.4-1.5,0.2c-0.1,0.8-0.7,1.7-1.4,2c-0.5,0.2-0.9,0.2-1.4,0   c-0.5,1-1.3,1.7-2.3,1.7C343.3,343.1,343.2,343.1,343.1,343.1 M341.6,341.8l0.1,0.1c0.4,0.6,0.9,0.9,1.6,0.9   c0.8-0.1,1.6-0.7,2.1-1.6c-0.8-0.7-2.2-2.7-2.5-4.5l0.3,0c0.2,1.8,1.6,3.7,2.4,4.3l0.1,0.1c0.4,0.4,0.9,0.3,1.2,0.1   c0.7-0.3,1.2-1.2,1.3-1.9c-1-0.6-3.4-3.6-3.9-5.7l0.3-0.1c0.5,1.9,2.6,4.7,3.7,5.4v0l0.2,0.1c0.4,0.3,0.9,0.2,1.4-0.1   c0.4-0.2,1.2-1,0.9-3c-1.3-0.4-4.8-2.7-6.3-5.1l0.2-0.1c1.4,2.3,4.6,4.5,6,5v0l0.2,0.1c1.1,0.4,2.5-0.3,3.1-1   c-1.9-0.5-6.1-2.8-7.2-4.7c-1-1.8-3.7-2.8-5.5-1.9h0c-1.6,0.7-2.9,1.8-2.3,6.8c0.2,1.8,0.2,5.7-0.9,7c-0.1,0.2-0.3,0.3-0.5,0.4   c1.1,0.5,3.1,0.9,4-0.2c-0.5-0.9-0.6-3.7-0.3-5.5l0.2,0C341,338.2,341.1,341,341.6,341.8 M343.5,203.3l-0.1-0.2   c1.1-0.6,2.8-0.9,5.3-0.7l0,0.3C346.2,202.5,344.6,202.7,343.5,203.3 M316.6,184.4l-0.2-0.1c0.8-1.1,1.6-2.1,2.4-2.9l0.2,0.2   C318.1,182.3,317.3,183.3,316.6,184.4"/>
    <path class="st3" d="M416.1,255.1c17.5,14.6,18.6,26.3,15.9,33.1c-1.4-6.4-8.7-16.3-16.2-18.9L416.1,255.1z"/>
    <path class="st4"
          d="M432,288.6l-0.1-0.4c-1.5-6.7-8.8-16.3-16.1-18.8l-0.1,0v-0.1l0.3-14.5l0.2,0.2c19,15.9,18.1,27.6,15.9,33.2   L432,288.6z M416,269.2c7.2,2.5,14.4,11.9,16.1,18.5c2.1-5.6,2.4-17-15.8-32.4L416,269.2z"/>
    <path class="st5"
          d="M384.9,246.9h32.4v38.3c0,32.7-18.2,52-36.6,62.2c-18.5-10.2-36.6-29.5-36.6-62.2v-38.3h22.7   c0,2,0.2,5,2.5,7.9C374.6,254.3,380.7,250.3,384.9,246.9"/>
    <path class="st4"
          d="M380.6,347.5L380.6,347.5c-10.6-5.9-19.1-13.5-25.3-22.7c-7.6-11.3-11.4-24.6-11.4-39.6v-38.4h23v0.1   c0,2.5,0.4,5.1,2.5,7.8c5.7-0.6,12.2-5.2,15.5-7.9l0,0h32.5v38.4c0,15-3.8,28.3-11.4,39.6C399.8,334,391.3,341.6,380.6,347.5   L380.6,347.5z M344.1,247v38.2c0,36.3,22.8,54.5,36.5,62c13.7-7.6,36.5-25.7,36.5-62V247h-32.2c-3.4,2.7-9.8,7.4-15.7,7.9l-0.1,0   l0-0.1c-2.4-3.1-2.5-6.3-2.6-7.9H344.1z"/>
    <path class="st7"
          d="M417.3,246.9v38.3c0,9.9-1.7,18.5-4.5,26l-32.1-59l-32.1,59c-2.8-7.5-4.5-16.2-4.5-26v-38.3H417.3z"/>
    <path class="st4"
          d="M412.8,311.5l-32.2-59l-32.2,59l-0.1-0.3c-3-7.9-4.5-16.7-4.5-26.1v-38.4h73.5v38.4c0,9.4-1.5,18.1-4.5,26.1   L412.8,311.5z M344.1,247v38.2c0,9.2,1.5,17.9,4.4,25.7l32.1-58.9l0.1,0.2l32,58.7c2.9-7.9,4.4-16.5,4.4-25.7V247H344.1z"/>
    <path class="st3"
          d="M413.8,308.4c-0.6,1.7-1.6,4.6-2.4,6.3l-30.7-57.1l-30.7,57.1c-0.8-1.7-1.8-4.6-2.4-6.3l33.1-61.4L413.8,308.4   z"/>
    <path class="st4"
          d="M411.4,315l-0.1-0.2l-30.6-56.9L349.9,315l-0.1-0.2c-0.8-1.7-1.8-4.4-2.4-6.3l0-0.1l0,0l33.2-61.6l33.3,61.7   l0,0.1c-0.6,1.9-1.6,4.6-2.4,6.3L411.4,315z M347.7,308.4c0.6,1.8,1.5,4.3,2.3,6l30.7-57.1l30.7,57.1c0.7-1.7,1.7-4.2,2.3-6   l-33-61.2L347.7,308.4z"/>
    <path class="st3"
          d="M395.2,329.4c0.9,0.4,2.4,1.2,3.1,1.5c1.7-3.4,2-8.2,1.4-12.5c-1.9,4.7-8.1,4.5-9.8,7.4c1,0.5,2,1.2,2.9,1.8   c-2.1,2.1-7.1,5.7-10,6.6v-30.4c0-2.1-0.7-3.9-0.7-5.7v-6.3c0-1.4-0.3-3.5-1.6-3.5c-1.3,0-1.6,2.1-1.6,3.5v6.3   c0,1.8-0.7,3.8-0.7,5.7v30.4c-1.6-4.5-7.7-3-10.5-7.5c1.1-0.3,2.3-0.3,3.4-0.1c-2.1-7.2-7.9-7.8-9.1-9.9c0,3-1.3,9.9,0.7,12.9   c0.4-0.5,1.1-1.1,1.9-1.6c2.4,5.2,13.3,5.3,15.8,13.9C382.7,338.6,390.1,335,395.2,329.4"/>
    <path class="st4"
          d="M380.6,342.1l-0.1-0.3c-1.5-4.9-5.7-7-9.4-8.9c-2.7-1.4-5.3-2.7-6.4-4.9c-0.7,0.5-1.4,1-1.8,1.5l-0.1,0.1   l-0.1-0.1c-1.5-2.3-1.2-6.9-0.9-10.2c0.1-1.1,0.2-2.1,0.2-2.8v-0.5l0.2,0.4c0.4,0.7,1.2,1.2,2.3,1.9c2.3,1.4,5.3,3.2,6.8,8.1   l0.1,0.2l-0.2,0c-1-0.2-2.1-0.2-3.2,0.1c1.4,2,3.4,2.8,5.4,3.5c2,0.7,3.9,1.4,4.8,3.3v-29.8c0-0.9,0.2-1.9,0.4-2.9   c0.2-1,0.3-1.9,0.3-2.8v-6.3c0-1.1,0.2-3.6,1.7-3.6c1.5,0,1.7,2.5,1.7,3.6v6.3c0,0.8,0.2,1.7,0.3,2.5c0.2,1,0.4,2,0.4,3.1V334   c2.9-0.9,7.6-4.4,9.6-6.4c-0.8-0.6-1.7-1.2-2.7-1.7l-0.1-0.1l0.1-0.1c0.7-1.2,2.3-1.9,4-2.6c2.2-1,4.7-2.1,5.8-4.7l0.2-0.5l0.1,0.5   c0.6,4.9,0.1,9.5-1.4,12.6l0,0.1l-0.1,0c-0.7-0.3-2.1-1-3-1.4l-0.1,0c-2.6,2.8-5.8,5.1-8.5,7.1c-2.7,2-5,3.7-6,5.2L380.6,342.1z    M364.9,327.7l0.1,0.1c1,2.2,3.6,3.5,6.3,4.9c3.7,1.9,7.9,4,9.4,8.8c1.1-1.5,3.3-3.2,5.9-5.1c2.8-2,6-4.4,8.6-7.2l0.1-0.1l0.2,0.1   c0.8,0.4,2.2,1.1,2.9,1.4c1.5-3,2-7.3,1.4-11.9c-1.2,2.4-3.6,3.5-5.7,4.4c-1.6,0.7-3.1,1.3-3.8,2.4c1,0.5,1.9,1.2,2.8,1.8l0.1,0.1   l-0.1,0.1c-2,2-7.1,5.7-10,6.6l-0.2,0v-30.6c0-1.1-0.2-2.1-0.4-3.1c-0.2-0.9-0.3-1.7-0.3-2.6v-6.3c0-0.8-0.1-3.4-1.4-3.4   c-1.3,0-1.4,2.6-1.4,3.4v6.3c0,0.9-0.2,1.9-0.4,2.8c-0.2,1-0.3,1.9-0.3,2.9v31.2l-0.3-0.7c-0.8-2.3-2.8-3-4.9-3.8   c-2.1-0.7-4.2-1.5-5.6-3.8l-0.1-0.1l0.2,0c1.1-0.3,2.2-0.3,3.3-0.2c-1.4-4.7-4.4-6.5-6.6-7.8c-0.9-0.6-1.7-1-2.2-1.6   c0,0.7-0.1,1.5-0.2,2.4c-0.3,3.2-0.6,7.6,0.8,9.9c0.4-0.5,1.1-1,1.8-1.5L364.9,327.7z"/>
    <path class="st3"
          d="M380.6,304.1c2.4,0,10.1-0.8,12.8-0.8c0.7,0,1.3-1.1,1.3-2.4c0-1.3-0.6-2.4-1.3-2.4c-2.8,0-10.4-0.8-12.8-0.8   c-2.4,0-10.1,0.8-12.8,0.8c-0.7,0-1.3,1.1-1.3,2.4c0,1.3,0.6,2.4,1.3,2.4C370.6,303.3,378.2,304.1,380.6,304.1"/>
    <path class="st4"
          d="M380.6,304.2c-1.2,0-3.5-0.2-6-0.4c-2.6-0.2-5.4-0.4-6.8-0.4c-0.8,0-1.4-1.1-1.4-2.5c0-1.4,0.6-2.5,1.4-2.5   c1.4,0,4.2-0.2,6.8-0.4c2.5-0.2,4.9-0.4,6-0.4c1.2,0,3.5,0.2,6,0.4c2.6,0.2,5.4,0.4,6.8,0.4c0.8,0,1.4,1.1,1.4,2.5   c0,1.4-0.6,2.5-1.4,2.5c-1.4,0-4.2,0.2-6.8,0.4C384.2,304,381.8,304.2,380.6,304.2 M380.6,297.8c-1.2,0-3.5,0.2-6,0.4   c-2.6,0.2-5.4,0.4-6.8,0.4c-0.6,0-1.2,1-1.2,2.3c0,1.2,0.5,2.3,1.2,2.3c1.4,0,4.2,0.2,6.8,0.4c2.5,0.2,4.9,0.4,6,0.4   c1.2,0,3.5-0.2,6-0.4c2.7-0.2,5.4-0.4,6.8-0.4c0.6,0,1.2-1,1.2-2.3c0-1.2-0.5-2.3-1.2-2.3c-1.4,0-4.2-0.2-6.8-0.4   C384.2,298,381.8,297.8,380.6,297.8"/>
    <path class="st3"
          d="M379.1,291.6c-0.5-0.4-1.2-0.7-1.9-0.7c-1.6,0-2.9,1.2-2.9,2.7s1.3,2.7,2.9,2.7c1.6,0,2.9-1.2,2.9-2.7   c0-1.1,1.6-1.1,1.6,0c0,2.3-2,4.2-4.6,4.2c-2.5,0-4.6-1.9-4.6-4.2c0-2.3,2-4.2,4.6-4.2c0.8,0,1.5,0.2,2.1,0.5   C379.2,290.3,379.1,291,379.1,291.6"/>
    <path class="st4"
          d="M377.2,297.9c-2.6,0-4.7-1.9-4.7-4.3c0-2.4,2.1-4.3,4.7-4.3c0.7,0,1.5,0.2,2.2,0.5l0.1,0l0,0.2   c-0.1,0.4-0.2,1-0.2,1.6v0.3l-0.2-0.2c-0.5-0.4-1.2-0.6-1.8-0.6c-1.5,0-2.8,1.1-2.8,2.5c0,1.4,1.3,2.5,2.8,2.5   c1.5,0,2.8-1.1,2.8-2.5c0-1.3,1.9-1.3,1.9,0C381.9,296,379.8,297.9,377.2,297.9 M377.2,289.6c-2.5,0-4.4,1.8-4.4,4c0,2.2,2,4,4.4,4   c2.4,0,4.4-1.8,4.4-4c0-1-1.4-1-1.4,0c0,1.5-1.4,2.8-3,2.8c-1.7,0-3-1.3-3-2.8c0-1.5,1.4-2.8,3-2.8c0.6,0,1.3,0.2,1.8,0.5   c0-0.5,0.1-1,0.1-1.4v0C378.5,289.7,377.8,289.6,377.2,289.6"/>
    <path class="st3" d="M367.8,303.3c0.7,0,1.3-1.1,1.3-2.4c0-1.3-0.6-2.4-1.3-2.4"/>
    <path class="st4"
          d="M367.8,303.4v-0.3c0.6,0,1.2-1,1.2-2.3c0-1.2-0.5-2.3-1.2-2.3v-0.3c0.8,0,1.4,1.1,1.4,2.5   C369.2,302.3,368.6,303.4,367.8,303.4"/>
    <path class="st3" d="M368.9,303.3c0.7,0,1.3-1.1,1.3-2.4c0-1.3-0.6-2.4-1.3-2.4"/>
    <path class="st4"
          d="M368.9,303.4v-0.3c0.6,0,1.2-1,1.2-2.3c0-1.2-0.5-2.3-1.2-2.3v-0.3c0.8,0,1.4,1.1,1.4,2.5   C370.3,302.3,369.7,303.4,368.9,303.4"/>
    <path class="st3" d="M375.9,303.8c0.9,0,1.6-1.3,1.6-2.9c0-1.6-0.7-2.9-1.6-2.9"/>
    <path class="st4"
          d="M375.9,303.9v-0.3c0.8,0,1.4-1.3,1.4-2.8c0-1.5-0.7-2.8-1.4-2.8v-0.3c0.9,0,1.7,1.3,1.7,3   C377.6,302.6,376.8,303.9,375.9,303.9"/>
    <path class="st3" d="M377.5,303.9c0.9,0,1.6-1.4,1.6-3c0-1.7-0.7-3-1.6-3"/>
    <path class="st4"
          d="M377.5,304v-0.3c0.8,0,1.5-1.3,1.5-2.9c0-1.6-0.7-2.9-1.5-2.9v-0.3c1,0,1.8,1.4,1.8,3.2   C379.3,302.6,378.5,304,377.5,304"/>
    <path class="st3" d="M382.9,303.9c0.9,0,1.7-1.4,1.7-3.1c0-1.7-0.7-3.1-1.7-3.1"/>
    <path class="st4"
          d="M382.9,304.1v-0.3c0.9,0,1.5-1.3,1.5-2.9c0-1.6-0.7-2.9-1.5-2.9v-0.3c1,0,1.8,1.4,1.8,3.2   C384.7,302.7,384,304.1,382.9,304.1"/>
    <path class="st3" d="M384.7,303.9c0.9,0,1.6-1.3,1.6-3c0-1.6-0.7-3-1.6-3"/>
    <path class="st4"
          d="M384.7,304v-0.2c0.8,0,1.5-1.3,1.5-2.8c0-1.6-0.7-2.8-1.5-2.8v-0.3c1,0,1.8,1.4,1.8,3.1   C386.4,302.6,385.7,304,384.7,304"/>
    <path class="st3" d="M392.3,303.3c0.7,0,1.3-1.1,1.3-2.5s-0.6-2.5-1.3-2.5"/>
    <path class="st4"
          d="M392.3,303.5v-0.3c0.7,0,1.2-1.1,1.2-2.3c0-1.3-0.6-2.3-1.2-2.3v-0.3c0.8,0,1.5,1.1,1.5,2.6   C393.8,302.3,393.1,303.5,392.3,303.5"/>
    <path class="st3" d="M364.8,327.9c0.9-0.5,1.9-1,3-1.3"/>
    <path class="st4" d="M364.9,328l-0.1-0.2c0.9-0.6,2-1,3.1-1.3l0.1,0.2C366.9,327,365.8,327.4,364.9,328"/>
    <path class="st3" d="M393.7,328.2c-0.3-0.2-0.5-0.4-0.8-0.6"/>
    <path class="st4"
          d="M393.6,328.3l-0.2-0.1c-0.2-0.2-0.4-0.3-0.7-0.5l0.1-0.2c0.2,0.2,0.4,0.3,0.7,0.5l0.2,0.1L393.6,328.3z"/>
    <path class="st3" d="M395.2,329.4c2-2.1,3.6-4.5,4.6-7.3"/>
    <path class="st4" d="M395.3,329.5l-0.2-0.2c2.2-2.4,3.7-4.8,4.5-7.3l0.2,0.1C399.1,324.7,397.6,327.1,395.3,329.5"/>
    <path class="st0"
          d="M374.1,274c0-0.7,0.6-1,1.2-1.5c0.8-0.6,1.1-0.9,1.8-0.9h9.3c0.7,0,0.9,0.2,0.9,0.8v12.7   c0,0.6-0.2,0.8-0.9,0.8h-12.4v-12"/>
    <path class="st4"
          d="M386.5,286H374v-12.2c0.1-0.6,0.5-0.9,1-1.3c0.1-0.1,0.2-0.1,0.3-0.2l0.2-0.1c0.7-0.5,1-0.8,1.8-0.8h9.3   c0.7,0,1,0.2,1,0.9v12.7C387.5,285.8,387.3,286,386.5,286 M374.3,285.8h12.3c0.6,0,0.7-0.1,0.7-0.7v-12.7c0-0.6-0.1-0.7-0.7-0.7   h-9.3c-0.6,0-0.9,0.2-1.6,0.7l-0.2,0.1c-0.1,0.1-0.2,0.1-0.3,0.2c-0.5,0.4-0.9,0.6-0.9,1.2V285.8z"/>
    <path class="st8"
          d="M384.2,287c1.2,0,1,0,1.9-0.9c0.9-0.9,0.8-0.8,0.8-1.6v-11.6c0-0.6-0.2-0.8-0.8-0.8h-8.6c-0.7,0-1,0.3-1.7,0.8   c-0.6,0.5-1.1,0.7-1.1,1.4V287H384.2z"/>
    <path class="st4"
          d="M384.2,287.1h-9.7v-12.8c0-0.6,0.4-0.9,0.9-1.3c0.1-0.1,0.2-0.1,0.2-0.2l0.2-0.1c0.6-0.5,1-0.7,1.6-0.7h8.6   c0.7,0,0.9,0.2,0.9,0.9v11.8c0,0.7,0,0.7-0.9,1.5c-0.1,0.1-0.3,0.3-0.3,0.4C385.3,287.1,385.3,287.1,384.2,287.1 M374.8,286.9h9.4   c1,0,1,0,1.4-0.5c0.1-0.1,0.2-0.2,0.4-0.4c0.8-0.8,0.8-0.8,0.8-1.4v-0.2v-11.6c0-0.5-0.1-0.6-0.7-0.6h-8.6c-0.6,0-0.9,0.2-1.5,0.7   l-0.2,0.1c-0.1,0.1-0.2,0.1-0.3,0.2c-0.5,0.4-0.8,0.6-0.8,1.1V286.9z"/>
    <path class="st0"
          d="M385.1,286.7c0,0.6-0.2,0.8-0.9,0.8H375c-0.7,0-0.8-0.2-0.8-0.8v-12.7c0-0.6,0.2-0.8,0.8-0.8h9.3   c0.7,0,0.9,0.2,0.9,0.8V286.7z"/>
    <path class="st4"
          d="M384.3,287.7H375c-0.7,0-1-0.2-1-0.9v-12.7c0-0.7,0.2-0.9,1-0.9h9.3c0.7,0,1,0.2,1,0.9v12.7   C385.3,287.4,385,287.7,384.3,287.7 M375,273.4c-0.6,0-0.7,0.1-0.7,0.7v12.7c0,0.6,0.1,0.7,0.7,0.7h9.3c0.6,0,0.7-0.1,0.7-0.7   v-12.7c0-0.6-0.1-0.7-0.7-0.7H375z"/>
    <path class="st9"
          d="M403.2,239.4c1.8,2,2.4,4.7,1.4,7.4h-2.7c1.1-3.4,0.4-6.7-4.4-7.1c-7.2-0.6-15.6,13.3-28.3,15.1   c-3.7-4.4-3.5-12.8,1.2-16.8c-2.4-7-7.5-14.7-11.1-18c-2.3-0.4-5-0.6-6.7-0.5c1.9-4,7.1-8.2,11.4-9.9c0.7-1,1.4-2,2.1-2.8   c0.4-5.5,26.4-2.9,31.9,0.5C398.1,213.5,400.5,233.9,403.2,239.4"/>
    <path class="st4"
          d="M369.2,255L369.2,255c-4-4.7-3.4-13,1.1-16.9c-2.4-7-7.5-14.5-11-17.8c-2.3-0.4-4.9-0.6-6.7-0.5l-0.2,0   l0.1-0.2c1.9-4.1,7.3-8.3,11.4-9.9c0.6-0.8,1.3-1.7,2.1-2.8c0.3-2.8,6.9-3.2,10.7-3.2c8.2,0,18.2,1.7,21.4,3.7l0.1,0v0.1   c0,6,2.4,26.5,5.1,32c1.9,2.1,2.4,4.9,1.4,7.5l0,0.1h-3l0.1-0.2c0.5-1.4,0.8-3.4-0.2-4.9c-0.7-1.1-2.1-1.8-4.1-2   c-3.3-0.3-6.9,2.6-11.1,5.9C381.6,249.7,376.1,254,369.2,255L369.2,255z M353.7,219.5c1.7,0,3.8,0.2,5.7,0.5l0.1,0   c3.5,3.3,8.7,11,11.1,18l0,0.1l-0.1,0c-4.4,3.8-5,11.9-1.2,16.5c6.7-0.9,12.1-5.3,16.9-9.1c4.2-3.4,7.9-6.3,11.3-6   c2.1,0.2,3.5,0.9,4.3,2.1c0.8,1.2,0.9,3,0.3,5h2.4c0.9-2.5,0.4-5.2-1.4-7.2c-2.7-5.5-5.1-25.9-5.1-32c-3.2-1.9-13.1-3.6-21.2-3.6   c-6.5,0-10.3,1.1-10.5,3.1l0,0.1c-0.9,1.1-1.5,2-2.1,2.8l-0.1,0c-4,1.6-9.2,5.6-11.2,9.6C353.1,219.5,353.4,219.5,353.7,219.5"/>
    <path class="st4"
          d="M371.7,243.2c-0.6-9.5-4.4-17.3-9.8-22.6c2.5,0.7,7.8,0.7,11.3-1.9c4.7-3.1,16.9-8.6,21.4-6.2   c0.3,0.8,0.6,2.5,0.3,3.7c-1.1-2.8-12.8,1.6-16.2,2.9c-3.2,1.5-4.6,3.5-3.5,7.9c-1.8-1.6-1.2-3.1-3.1-4.2c0.8,1.8,1.4,5.2,1.6,7.9   c-0.7-1.9-2-6-4.7-8.5c2.4,4.7,4.5,15.9,3.5,21.9c1.9,0,6.1-1.9,7.8-3.2c-1.5,2.1-5.8,3.6-8.5,4.2c-1.2,1.5-2.1,5.3-2,7.5   C369.6,250,370.4,243.6,371.7,243.2"/>
    <path class="st4"
          d="M403.2,239.4c-2.4-2.6-6.7-4-12.3-2.5c0.9-0.4,2.7-1.1,4.3-1.4c-0.2-1.5-1.6-7.9-1.8-9.4l1.6-0.6   c0.8,3.8,1.8,8.2,2.4,10c0.5,0.1,1.6,0.4,2.6,0.9c-0.4-1.5-2.8-12.2-2.8-13.3l2.1-1.1C400.2,227.6,401.6,236.1,403.2,239.4"/>
    <path class="st9" d="M401.9,246.9c1.1-3.4,0.4-6.7-4.4-7.1c-3.7-0.3-7.8,3.3-12.6,7.1H401.9z"/>
    <path class="st4"
          d="M402,247h-17.5l0.3-0.2c0.5-0.4,1-0.8,1.5-1.2c4.2-3.3,7.8-6.2,11.2-5.9c2.1,0.2,3.5,0.9,4.3,2.1   C402.7,243,402.7,244.8,402,247L402,247z M385.3,246.7h16.5c0.5-1.4,0.8-3.4-0.2-4.8c-0.7-1.1-2.1-1.8-4.1-2   c-3.3-0.3-6.8,2.5-11,5.8C386.1,246.1,385.7,246.4,385.3,246.7"/>
    <path class="st9"
          d="M370.6,216.3c-2.1,0.3-6.9-0.1-9.3-0.9c0.1-0.6,0.4-1.3,0.7-2c-1.5,1-4.3,2.9-5.4,4.3   C360,218.3,367,218.7,370.6,216.3"/>
    <path class="st4"
          d="M371.7,244.5c-0.1-1.8-0.5-3.9-1.3-6.3l0.2-0.1c0.9,2.4,1.3,4.6,1.4,6.4H371.7z M365.4,221.1   c-1.4,0-2.6-0.2-3.5-0.4c-0.7-0.2-1.5-0.4-2.5-0.5l0-0.3c1,0.2,1.8,0.3,2.5,0.5c2.6,0.7,7.8,0.6,11.3-1.8c0.3-0.3,0.7-0.5,1.2-0.9   c4.3-3.2,13.1-9.7,23-10.5l0,0.3c-9.8,0.8-18.6,7.3-22.9,10.4c-0.5,0.3-0.9,0.6-1.2,0.9C371,220.6,367.9,221.1,365.4,221.1    M362.2,218.3c-0.9,0-1.7,0-2.5-0.1c-1-0.1-2-0.2-2.8-0.4c0,0,0,0,0,0c-0.1,0-0.1,0-0.1,0c-0.1,0-0.1,0-0.1,0l-0.2,0l0.1-0.2   c0.8-1,2.5-2.4,5.4-4.3c0.5-1.1,1.2-2.3,2.1-3.6l0.2,0.1c-0.8,1.2-1.4,2.2-1.9,3.2l0,0l-0.2,0.4c-0.3,0.7-0.5,1.3-0.7,1.9   c2.3,0.7,6.9,1.2,9.1,0.9c8.6-5.9,16.5-8.9,24.2-9.3l0,0.3c-7.6,0.4-15.5,3.4-24,9.3l0,0l0,0c0,0,0,0-0.1,0   C368.5,217.8,365.2,218.3,362.2,218.3 M356.8,217.6c3.4,0.7,9.7,0.9,13.2-1.1c-2.4,0.2-6.7-0.3-8.8-1l-0.1,0l0-0.1c0,0,0,0,0,0   c0.1-0.5,0.3-1,0.5-1.6C360.4,214.5,357.9,216.3,356.8,217.6"/>
    <path class="st5"
          d="M416.1,255.1c11.9,8.2,20.7,16.2,23.3,29c2.6,12.8,7.4,16.2,13.3,12.8c-1.4,7.4-8.8,8.2-15,2.6   c0.6,8.5-2.8,18.7-11.6,22.4c-0.6-5.1,2.8-9.1,1.8-13.3c-0.4-1.8-0.6-6.1,1.9-8.1c-4.7,1.6-12.1-1.4-12.8-8.4   c5.4,2.5,12.3,3,15-3.8C434.7,281.4,433.6,269.7,416.1,255.1"/>
    <path class="st4"
          d="M425.9,322l0-0.2c-0.3-2.5,0.4-4.8,1-7c0.7-2.2,1.3-4.3,0.8-6.3c-0.3-1.5-0.7-5.6,1.5-7.9   c-0.7,0.2-1.4,0.3-2.2,0.3c-4.5,0-9.7-3.1-10.3-8.9l0-0.2l0.2,0.1c2.4,1.1,4.7,1.7,6.9,1.7c2.7,0,6.2-0.9,8-5.5   c2.2-5.5,3-17.1-15.9-32.9l0.1-0.2c12.6,8.7,20.8,16.5,23.3,29c1.8,9.2,4.9,13.9,9.1,13.9c1.2,0,2.6-0.4,4-1.2l0.2-0.1l-0.1,0.3   c-0.8,4-3.4,6.4-7,6.4l0,0c-2.6,0-5.5-1.3-8.1-3.5c0.5,8.5-3,18.6-11.7,22.2L425.9,322z M430.3,300.1l-0.5,0.4   c-2.2,1.8-2.3,5.9-1.8,8c0.5,2.2-0.1,4.3-0.8,6.5c-0.6,2.1-1.3,4.3-1.1,6.7c8.6-3.7,12-13.8,11.4-22.2l0-0.3l0.2,0.2   c2.6,2.4,5.5,3.7,8.1,3.7l0,0c3.4,0,5.9-2.2,6.7-5.9c-1.4,0.7-2.7,1.1-3.9,1.1c-4.4,0-7.5-4.7-9.4-14.1   c-2.3-11.7-9.8-19.3-21.1-27.4c17,15.1,16.1,26.2,14,31.6c-1.8,4.7-5.5,5.6-8.2,5.6c-2.1,0-4.4-0.6-6.8-1.6c0.7,5.5,5.6,8.5,10,8.5   c0.9,0,1.8-0.1,2.6-0.4L430.3,300.1z"/>
    <path class="st5"
          d="M431.2,188.7c3.7-9.6,13.3-8.7,16.6-4.5c9.5-5.4,10.8,6.8,18.9,4.4c-0.1,2.3-2.8,4.4-5.8,4.3   c3.1,2.8-1.3,7.1,5.4,9.7c-5.7,2.8-13.6-0.1-15.8-8c-1.8,3.7-8.5,3.7-11.2,0.7c5.8-1.6,5.4-7,2.1-9.1   C438.1,184,432.3,184.8,431.2,188.7"/>
    <path class="st4"
          d="M461.7,203.6c-4.3,0-9.5-2.7-11.3-8.8c-1,1.6-3.1,2.7-5.6,2.7c-2.3,0-4.4-0.8-5.7-2.2l-0.1-0.2l0.2-0.1   c3.4-0.9,4.2-2.9,4.4-4.1c0.3-1.8-0.6-3.7-2.3-4.8c-1.1-0.7-2.6-1.1-4.1-1.1c-2.5,0-4.7,1.1-5.6,2.8c-0.1,0.3-0.2,0.6-0.4,0.8   l-0.2-0.1c0.1-0.3,0.2-0.6,0.4-0.9c1.9-4.3,5.4-6.7,9.5-6.7c2.8,0,5.4,1.1,6.9,2.9c1.6-0.9,3.1-1.3,4.5-1.3c2.6,0,4.4,1.6,6.2,3.1   c1.8,1.5,3.6,3,6.1,3c0.6,0,1.3-0.1,2-0.3l0.2-0.1v0.2c-0.2,2.3-2.8,4.4-5.6,4.4c1.1,1.1,1.1,2.5,1.1,3.8c0,2,0.1,4.1,4,5.6   l0.3,0.1l-0.3,0.1C464.9,203.3,463.3,203.6,461.7,203.6 M450.5,194.1l0.1,0.3c1.7,6.2,6.8,8.9,11.1,8.9c1.5,0,2.9-0.3,4.2-0.9   c-3.8-1.6-3.8-3.7-3.9-5.7c0-1.4-0.1-2.7-1.3-3.8l-0.3-0.2l0.4,0c2.8,0.1,5.4-1.8,5.7-4c-0.7,0.2-1.3,0.3-1.9,0.3   c-2.6,0-4.4-1.6-6.2-3.1c-1.8-1.5-3.6-3-6.1-3c-1.4,0-2.8,0.4-4.4,1.4l-0.1,0l-0.1-0.1c-1.4-1.8-4-2.9-6.7-2.9   c-3.6,0-6.7,1.9-8.7,5.4c1.2-1.1,3-1.8,5-1.8c1.6,0,3.1,0.4,4.2,1.2c1.7,1.1,2.7,3.2,2.4,5.1c-0.3,2-1.9,3.5-4.3,4.2   c1.2,1.2,3.2,2,5.3,2c2.5,0,4.7-1.1,5.5-2.8L450.5,194.1z"/>
    <path class="st5"
          d="M402.4,209.9c2.6,8.5,8.1,16.5,14,21.9c6.8,6.3,17.1,4.7,22.9-1.3c0.1,11.9-12.2,12.8-19,9.1   c-3-1.6-5.5-0.8-2.6,1.8c4.4,4,14,6.9,25.4,9.4c19.9,4.3,12.8,20,7,19.9c1.7,0,3-1.8,0.6-3.9c-17.2-15.5-52.3-9.4-51.7-44   c-3.7,9.1-18.9,5.5-11.8-5.3c2.3,1.8,6.2,2,7.4-0.9c0.9-2.2,0.3-6-3.7-9.4c0.6,0,2.1,0,1.9-1.6c0.2,0.9,1,2.4,3.3,1.9   c0.6,1,1.3,1.7,2.2,1.3c0.2-0.1,0.7-0.3,0.5-1.3C399,209.4,401.2,210.1,402.4,209.9"/>
    <path class="st4"
          d="M450.1,270.8L450.1,270.8l-0.1-0.3c0.8,0,1.5-0.5,1.7-1.1c0.3-0.8-0.1-1.7-1.2-2.7c-5.9-5.3-14-8.1-21.9-10.8   c-14.8-5.1-30-10.4-29.9-32.7c-1.7,3.5-4.9,4.7-7.5,4.7c-2.5,0-4.6-1.1-5.6-2.9c-1.1-2-0.6-4.8,1.3-7.7l0.1-0.1l0.1,0.1   c1,0.8,2.4,1.3,3.7,1.3c1.7,0,2.9-0.8,3.5-2.1c0.9-2.3,0.2-6.1-3.6-9.2l-0.2-0.2l0.5,0c0.4,0,1-0.1,1.4-0.5c0.2-0.2,0.3-0.6,0.2-1   l0.3,0c0.1,0.3,0.4,1.9,2.3,1.9c0.3,0,0.5,0,0.8-0.1l0.1,0l0,0.1c0.8,1.2,1.4,1.6,2.1,1.3c0.3-0.1,0.5-0.5,0.5-0.9   c0-0.1,0-0.2,0-0.3l0.3,0c0,0.1,0,0.2,0,0.3c0.3,1.5,2.1,2,3.1,2l0,0c0.1,0,0.2,0,0.3,0l0.1,0l0,0.1c2.5,8,7.6,16,14,21.8   c2.8,2.6,6.4,4,10.3,4c4.6,0,9.2-2,12.4-5.2l0.2-0.2v0.3c0,3.4-0.9,6.1-2.8,8c-2,2-5,3.1-8.4,3.1c-2.8,0-5.6-0.7-7.9-2   c-1-0.5-1.9-0.8-2.7-0.8c-0.5,0-0.9,0.1-1,0.4c-0.2,0.4,0.3,1.2,1.2,2c3.9,3.5,11.9,6.5,25.3,9.3c13.2,2.8,13.4,10.4,13.2,12.7   C455.8,267.4,453,270.8,450.1,270.8 M399.1,222.1l0,0.7c-0.4,22.6,14.3,27.7,29.7,33.1c7.9,2.7,16,5.5,22,10.9   c1.5,1.4,1.4,2.4,1.2,2.9c-0.1,0.3-0.3,0.5-0.5,0.7c2.2-0.9,4.2-3.8,4.5-6.9c0.3-2.8-0.4-9.7-13-12.4c-13.5-2.9-21.6-5.9-25.5-9.4   c-1.3-1.2-1.4-1.9-1.3-2.3c0.1-0.4,0.6-0.6,1.2-0.6c0.8,0,1.8,0.3,2.8,0.8c2.2,1.2,5.1,1.9,7.8,1.9c3.4,0,6.3-1.1,8.3-3   c1.8-1.8,2.8-4.4,2.8-7.6c-3.2,3.2-7.8,5.1-12.3,5.1c-4,0-7.6-1.4-10.5-4c-6.4-5.9-11.5-13.8-14-21.8c-0.1,0-0.1,0-0.2,0   c-1,0-2.5-0.5-3.2-1.7c-0.1,0.4-0.4,0.5-0.6,0.6c-0.2,0.1-0.4,0.1-0.5,0.1c-0.8,0-1.3-0.7-1.8-1.4c-0.3,0.1-0.5,0.1-0.8,0.1   c-1.3,0-2-0.7-2.3-1.4c0,0.2-0.1,0.4-0.3,0.5c-0.4,0.4-1,0.5-1.4,0.5c3.7,3.2,4.4,6.9,3.5,9.3c-0.6,1.4-1.9,2.3-3.7,2.3   c-1.3,0-2.7-0.5-3.8-1.3c-1.8,2.8-2.2,5.4-1.2,7.4c0.9,1.7,3,2.8,5.3,2.8c2.6,0,6-1.3,7.5-5.1L399.1,222.1z"/>
    <path class="st3"
          d="M420.2,239.6c8.2,5.4,17.5,5.4,26.1-4.5c2.7-3.1,6.9-5.8,9.9-6.1c3-0.3,2.8-3.1,5.1-3.7   c-1.4-0.4-2-2.1-4.1-1.9c5.3-1.9,3.8-6.1,6.4-8.2c-2.1,0.8-5.5-2.4-8.5,1.6c0.8-1.9-0.3-4.1-1.1-4.9c0.3,2.1-4.2,2.5-5,7.9   c-0.5,3-2.1,2.8-2.4-1.9c-0.2-3.4-1.8-12.9-3.8-17.7c-2-4.8-2.4-11.5,0.3-12.5c-0.4-0.7-1-1.3-1.7-1.7c-3.3-2.1-9.1-1.3-10.2,2.5   c-3.7,9.7,6.7,15.2,5.8,25.7c-1.6-7.8-14.2-9.8-14.1-17.5c-4.1,1.9-3.5,5.3-2,7.9c-2.6-4-8.4,2.6-13.3-2.8   c-0.6,7.1,5.7,9.8,10.8,10.1c-2.5,4.5,0.9,8.4,4.3,9.7c0.1-7.9,16.4-4.7,16.6,8.9C439.4,242.3,426.9,243.3,420.2,239.6"/>
    <path class="st4"
          d="M431.2,243.4c-3.6,0-7.3-1.2-11-3.6l0.1-0.2c2.2,1.2,5,1.9,7.7,1.9c3.5,0,6.5-1.1,8.4-3.1   c1.8-1.9,2.8-4.4,2.7-7.6c-0.1-8.9-7-13.1-11.6-13.1c-2.9,0-4.7,1.6-4.8,4.1l0,0.2l-0.2-0.1c-1.8-0.7-4-2.2-4.9-4.6   c-0.6-1.6-0.4-3.4,0.5-5c-1.9-0.1-6.1-0.8-8.8-3.8c-1.5-1.7-2.2-3.9-1.9-6.4l0-0.3l0.2,0.2c1.4,1.5,2.9,2.2,4.9,2.2   c1.1,0,2.2-0.2,3.2-0.4c0.9-0.2,1.8-0.4,2.5-0.4c0.8,0,1.5,0.2,2,0.6c-0.6-1.2-1-2.8-0.5-4.2c0.4-1.3,1.4-2.3,3-3l0.2-0.1l0,0.2   c-0.1,3.9,3.2,6.3,6.7,8.8c3,2.2,6.1,4.4,7.1,7.8c0.1-4.4-1.7-7.9-3.5-11.3c-2.2-4.3-4.4-8.3-2.3-13.6c0.7-2.3,3.1-3.8,6.2-3.8   c1.6,0,3.1,0.4,4.2,1.2c0.7,0.5,1.3,1.1,1.7,1.8l0.1,0.1l-0.1,0c-0.6,0.2-1,0.7-1.3,1.4c-1,2.3-0.5,7,1.1,10.9   c2,4.8,3.6,14.4,3.8,17.8c0.2,2.6,0.7,3.7,1.2,3.7c0.3,0,0.7-0.6,0.9-1.9c0.5-3.2,2.3-4.7,3.6-5.8c0.9-0.8,1.6-1.3,1.5-2.1l0-0.4   l0.3,0.3c0.6,0.7,1.7,2.6,1.3,4.4c1-1.1,2.1-1.6,3.5-1.6c0.8,0,1.5,0.2,2.2,0.3c0.9,0.2,1.8,0.4,2.5,0.1l0.7-0.3l-0.6,0.5   c-1,0.8-1.4,1.9-1.8,3.1c-0.6,1.7-1.3,3.7-4,4.8c0.9,0.1,1.5,0.6,2.1,1.1c0.4,0.4,0.8,0.7,1.3,0.8l0.4,0.1l-0.4,0.1   c-1,0.2-1.5,0.9-2,1.6c-0.7,0.9-1.4,1.9-3.1,2c-2.9,0.3-7.1,2.9-9.8,6.1C441.8,240.6,436.6,243.4,431.2,243.4 M422.2,240.6   c3,1.6,6,2.5,9,2.5c5.4,0,10.5-2.7,15.1-8.1c2.8-3.2,7.1-5.9,10-6.1c1.6-0.2,2.3-1.1,2.9-1.9c0.5-0.6,1-1.3,1.8-1.6   c-0.4-0.2-0.8-0.5-1.1-0.8c-0.7-0.6-1.4-1.1-2.6-1l-1.1,0.1l1-0.3c3.2-1.1,3.8-3.1,4.5-4.9c0.4-1.1,0.7-2.1,1.5-2.9   c-0.6,0.1-1.3-0.1-2.1-0.3c-0.7-0.2-1.4-0.3-2.2-0.3c-1.5,0-2.6,0.6-3.7,2l-0.6,0.8l0.4-0.9c0.6-1.5,0-3.5-0.8-4.5   c-0.1,0.8-0.7,1.3-1.6,2c-1.3,1.1-3,2.5-3.5,5.6c-0.2,1.3-0.7,2.1-1.2,2.1c-0.8,0-1.3-1.5-1.5-4c-0.2-3.4-1.9-12.9-3.8-17.7   c-1.6-4-2.1-8.8-1.1-11.1c0.3-0.7,0.7-1.2,1.3-1.4c-0.4-0.6-0.9-1.2-1.6-1.6c-1.1-0.7-2.6-1.1-4.1-1.1c-2.2,0-5.2,0.9-5.9,3.6   c-2,5.2,0.1,9.1,2.3,13.4c1.9,3.7,3.9,7.4,3.5,12.3l-0.1,0.9l-0.2-0.9c-0.7-3.7-4-6.1-7.2-8.4c-3.5-2.5-6.8-4.9-6.8-8.8   c-1.4,0.7-2.3,1.6-2.7,2.8c-0.6,1.7,0.2,3.6,1,4.9l-0.2,0.1c-0.6-0.9-1.4-1.3-2.5-1.3c-0.8,0-1.6,0.2-2.5,0.3   c-1,0.2-2.1,0.4-3.2,0.4c-1.9,0-3.5-0.7-4.9-2.1c-0.1,2.4,0.5,4.4,1.9,6c2.6,3,7,3.6,8.8,3.7l0.2,0l-0.1,0.2   c-0.9,1.7-1.1,3.4-0.5,5c0.8,2.2,2.9,3.7,4.6,4.4c0.1-2.6,2-4.2,5-4.2c4.7,0,11.7,4.2,11.8,13.3c0,3.3-0.9,5.9-2.8,7.8   c-2,2-5.1,3.2-8.6,3.2C426,241.7,424,241.3,422.2,240.6"/>
    <path class="st3"
          d="M443.1,250.8c19.9,4.3,12.8,20,7,19.9c-3.7-0.1-7.2-3.2-7.5-5.9c-4.3,2.3-3.1,6.7,0.1,8.5   c-8.9-1.1-12.7,4.8-12.9,11.3c1.6-3,6.6-3.2,8.5-2.5c1.8,0.6,6.6,1,8.5-1.1c-1.6,1.3,1,4.5-1.2,6.9c7.5-0.3,10.7-7.2,9.4-10.3   C464.7,268.7,462.8,254.4,443.1,250.8"/>
    <path class="st4"
          d="M445.3,288l0.2-0.2c1.2-1.3,0.9-2.8,0.8-4.1c-0.1-0.7-0.2-1.5,0-2.1c-1.4,0.9-3.3,1.1-4.5,1.1   c-1.3,0-2.6-0.2-3.5-0.5c-0.5-0.2-1.3-0.3-2.1-0.3c-2.2,0-5,0.7-6.2,2.8l-0.3,0.5l0-0.5c0.2-5.6,3.2-11.5,11-11.5   c0.5,0,1,0,1.5,0.1c-1.5-1-2.5-2.7-2.5-4.3c0-1.7,1-3.1,2.8-4.1l0.2-0.1l0,0.2c0.2,2.5,3.6,5.7,7.3,5.8h0.1c2.7,0,5.5-3.5,5.9-7.2   c0.3-2.8-0.4-9.7-13-12.4l0-0.3c9.4,1.7,15.5,5.9,17.2,12c1.5,5-0.5,10.6-5.2,14.9c0.6,1.5,0.1,3.7-1.1,5.7   c-1.8,2.8-4.9,4.6-8.5,4.7L445.3,288z M446.7,280.8l0.2,0.2c-0.1,0.1-0.1,0.1-0.2,0.2c-0.4,0.6-0.3,1.4-0.2,2.4   c0.2,1.3,0.4,2.8-0.6,4.1c3.3-0.2,6.2-1.9,8-4.6c1.2-1.9,1.6-4.1,1.1-5.5l0-0.1l0.1-0.1c4.7-4.3,6.6-9.8,5.2-14.7   c-1.4-4.8-5.6-8.5-12.2-10.6c8.4,3.4,8.5,9.3,8.3,11.2c-0.4,4-3.3,7.5-6.2,7.5H450c-3.8-0.1-7.2-3.2-7.6-5.8   c-1.6,0.9-2.5,2.3-2.5,3.8c0,1.7,1.1,3.4,2.8,4.4l0.6,0.3l-0.6-0.1c-0.7-0.1-1.4-0.1-2-0.1c-7.4,0-10.4,5.5-10.7,10.8   c1.3-1.8,4-2.5,6.1-2.5c0.9,0,1.7,0.1,2.2,0.3c0.7,0.2,1.9,0.5,3.5,0.5c1.2,0,3.5-0.2,4.8-1.4C446.6,281,446.6,280.9,446.7,280.8"/>
    <path class="st3"
          d="M428,318.3c1.3,0.8,1.1,2.5,0.3,3.6c-1.7,2.2,0.9,7.3-4.5,8.2c-1.6,0.3-2.8-0.8-3.3-2.6   c-1.5-5,3.9-5.4,4.4-7.8C425.4,317.3,426.9,317.6,428,318.3"/>
    <path class="st4"
          d="M423.2,330.2c-1.4,0-2.5-1-2.9-2.7c-1-3.3,1-4.7,2.5-5.8c0.9-0.6,1.7-1.2,1.9-2c0.4-1.6,1.2-2,1.8-2   c0.5,0,1,0.2,1.5,0.5c0.5,0.3,0.9,0.8,1,1.4c0.1,0.8-0.1,1.6-0.7,2.3c-0.6,0.7-0.7,1.8-0.7,3c-0.1,2.2-0.3,4.6-3.9,5.2   C423.5,330.2,423.4,330.2,423.2,330.2 M426.5,317.9c-0.8,0-1.3,0.6-1.6,1.8c-0.2,0.9-1.1,1.5-2,2.2c-1.6,1.1-3.4,2.4-2.4,5.5   c0.5,1.8,1.7,2.7,3.2,2.5c3.4-0.5,3.5-2.8,3.7-4.9c0.1-1.2,0.1-2.4,0.8-3.2c0.5-0.6,0.7-1.4,0.6-2.1c-0.1-0.5-0.4-1-0.8-1.3   C427.5,318.2,427,317.9,426.5,317.9"/>
    <path class="st3"
          d="M423.1,327.5c1.7,0.9,3.2,2.1,2.3,7.8c-0.4,2.3-0.5,8.1,1.6,8.2c-1.3,0.6-4,1.1-5.1-0.4   c-1.1,1.7-3.5,1.1-4.4-1.1c-1.3,1-3-0.8-2.9-2.3c-1.1,0.7-3.3-0.4-2.6-3.8c-1.4,0.4-3.1-0.6-3.7-1.5c2-0.3,7.1-2.8,8.4-4.9   S421.1,326.4,423.1,327.5"/>
    <path class="st4"
          d="M420.2,344.2c-0.1,0-0.2,0-0.2,0c-1-0.1-2-0.9-2.5-2.1c-0.5,0.3-1,0.3-1.5,0c-0.8-0.4-1.4-1.4-1.5-2.3   c-0.5,0.2-1.2,0.1-1.7-0.3c-0.4-0.3-1.4-1.3-1-3.6c-1.4,0.3-3-0.7-3.6-1.6l-0.1-0.2l0.2,0c1.9-0.3,7-2.8,8.3-4.8   c1.3-2.1,4.5-3.1,6.6-2c1.8,0.9,3.3,2.2,2.4,7.9c-0.3,1.9-0.4,6.2,0.7,7.6c0.2,0.3,0.5,0.4,0.8,0.5l0.5,0l-0.4,0.2   c-1.4,0.6-4,1.1-5.1-0.3C421.5,343.9,420.8,344.2,420.2,344.2 M417.7,342c0.4,1.1,1.3,1.9,2.3,1.9c0.7,0.1,1.4-0.3,1.9-0.9l0.1-0.1   c0.5-0.9,0.8-4,0.5-5.9l0.3,0c0.3,2,0,5.2-0.6,6.1c0.9,1.2,3.1,0.9,4.5,0.4c-0.2-0.1-0.4-0.2-0.6-0.5c-1.2-1.5-1.1-5.8-0.7-7.8   c0.9-5.6-0.5-6.7-2.2-7.6c-2-1-5-0.1-6.3,1.9c-1.3,2.1-6.1,4.5-8.2,4.9c0.6,0.8,2.2,1.7,3.4,1.3l0.2-0.1v0c1.5-0.4,5.3-2.8,6.9-5.3   l0.2,0.1c-1.7,2.6-5.7,5.1-7.2,5.4c-0.4,2.3,0.5,3.2,0.9,3.5c0.5,0.4,1.1,0.4,1.6,0.1l0.2-0.1v0c1.2-0.7,3.8-3.8,4.4-5.9l0.2,0.1   c-0.7,2.3-3.4,5.6-4.6,6.1c0,0.9,0.6,1.8,1.3,2.2c0.3,0.2,0.9,0.3,1.4-0.1l0.1-0.1c0.9-0.7,2.5-2.8,2.9-4.7l0.3,0   C420.3,339.2,418.6,341.4,417.7,342"/>
    <path class="st3"
          d="M398.9,222.7c-0.2,14.5,5.8,21.9,14.2,26.7c-3.1-1.9-1.8-8.2-6-10.3c1-0.1,2.6,1.4,5,0.8   c-1.2-2.7-3.2-6.8-7.8-7.4c1.2-0.1,3.8,0.3,5.5-0.3C407.5,228.5,401.1,230.3,398.9,222.7"/>
    <path class="st4"
          d="M413.1,249.6c-10.1-5.8-14.4-14-14.2-26.8l0-0.8l0.2,0.8c1.3,4.5,4.2,5.7,6.8,6.6c1.7,0.7,3.3,1.3,4.2,2.8   l0.1,0.1l-0.2,0.1c-0.9,0.3-2,0.4-2.8,0.4c-0.4,0-0.8,0-1.2,0c-0.2,0-0.3,0-0.4,0c4,1.1,5.8,5,6.7,7.2l0.1,0.1l-0.1,0   c-0.4,0.1-0.8,0.1-1.2,0.1c-1.1,0-1.9-0.3-2.6-0.6c-0.2-0.1-0.4-0.1-0.6-0.2c1.8,1.2,2.4,3.4,3,5.5c0.5,1.9,1,3.7,2.4,4.5   L413.1,249.6z M399.1,223.5c0,11.8,4,19.6,13,25.2c-0.8-1-1.1-2.3-1.5-3.8c-0.6-2.2-1.2-4.6-3.4-5.7l-0.4-0.2l0.5,0   c0.4,0,0.8,0.1,1.3,0.3c0.7,0.3,1.5,0.6,2.5,0.6c0.3,0,0.7,0,1-0.1c-1.1-2.4-3-6.6-7.6-7.2l-1-0.1l1-0.1c0.4,0,0.9,0,1.6,0   c0.4,0,0.8,0,1.2,0c0.7,0,1.7,0,2.6-0.3c-0.9-1.3-2.4-1.9-4-2.5C403.3,228.6,400.5,227.5,399.1,223.5"/>
    <path class="st3"
          d="M397.4,208.9c-0.5-0.2-0.9-0.7-1.4-1.3c-2.2,0.5-3.1-0.9-3.3-1.9c0.1,1.6-1.3,1.6-1.9,1.6   c4,3.3,4.6,7.1,3.7,9.4c-1.1,2.8-5.1,2.7-7.4,0.9c-0.3,6,7.5,8,10.4,0.4c0,1.3,1.6,1.1,2.1,2.8   C401.6,217.5,400.1,212.8,397.4,208.9"/>
    <path class="st4"
          d="M391.8,223c-1.3,0-2.5-0.5-3.3-1.4c-1-1-1.5-2.5-1.4-4.1l0-0.3l0.2,0.2c1,0.8,2.4,1.3,3.7,1.3   c1.7,0,2.9-0.8,3.5-2.1c0.9-2.3,0.2-6.1-3.6-9.2l-0.2-0.2l0.5,0c0.4,0,1.1-0.1,1.4-0.4c0.2-0.2,0.3-0.6,0.2-1l0.3,0   c0.1,0.3,0.4,1.9,2.3,1.9c0.3,0,0.5,0,0.8-0.1l0.1,0l0,0.1c0.5,0.8,0.9,1.2,1.3,1.3l0.1,0c3.1,4.6,3.9,9.1,2.2,12l-0.2,0.3   l-0.1-0.3c-0.2-0.8-0.7-1.2-1.2-1.5c-0.3-0.3-0.7-0.5-0.8-0.9C396.3,221.3,394.2,223,391.8,223 M387.3,217.7c0,1.4,0.5,2.7,1.3,3.6   c0.8,0.9,2,1.3,3.2,1.3c2.4,0,4.5-1.8,5.6-4.8l0.2-0.7v0.7c0,0.6,0.3,0.8,0.8,1.1c0.4,0.3,0.9,0.7,1.2,1.4c1.5-2.8,0.7-7-2.3-11.4   c-0.4-0.2-0.9-0.6-1.3-1.3c-0.3,0.1-0.5,0.1-0.8,0.1c-1.3,0-2-0.7-2.3-1.4c0,0.2-0.1,0.4-0.3,0.5c-0.4,0.4-1,0.5-1.4,0.5   c3.7,3.2,4.4,6.9,3.5,9.3c-0.6,1.4-1.9,2.3-3.7,2.3C389.7,219,388.3,218.5,387.3,217.7"/>
    <path class="st5"
          d="M385,180.1c-3.5-3.3-5.2-8.7-5-11.9c0.1-3.1,1.4-6.5,6-5.1c-1.4,0-0.4,2.8-1.9,3.1c1.2,0.4,2.8-0.6,3.1-1.2   c0.3,1,2.1,0.7,2.3,1.8c0.7-0.6-0.1-3.3-1.1-3.9c0.8-0.4,1.2-2.6,0.8-3.7c-0.7,0.1-1.8,1.1-2,2.5c0.4-1.1-0.1-4-2.1-4.4   c-0.6,0.8-0.7,2.7,0.1,3.8c-1.8-0.4-4.5,0.8-5.2,2.3c0.1-1.9,0.4-4.6,1.6-6.3c0.4-0.6-0.6-1.6-1.3-0.2c-1.4-2.7-5.1-4.1-6.7-2.8   c-1.6,1.3-3.8-0.6-5.2,1.5c-1.3,2.1-5.9,2.4-5.7,4.6c0.1,1.3-0.2,3.4-0.9,4.2c-1.6,1.9,0.8,3.2,1.2,4.8   c-0.3-5.4,8.3-15.9,16.9-11.8c-0.8,1.3-1.5,4-1.7,7.3c-0.3,4.8,0.4,11.6,5,15.6L385,180.1z"/>
    <path class="st4"
          d="M383.1,180.7L383.1,180.7c-5.2-4.4-5.4-11.7-5.1-15.8c0.2-3,0.9-5.8,1.6-7.2c-1.2-0.6-2.5-0.9-3.8-0.9   c-4.1,0-7.3,2.7-8.8,4.3c-2.5,2.6-4.1,5.9-3.9,8.3l0.1,1.2l-0.3-1.2c-0.1-0.5-0.5-1-0.8-1.5c-0.7-1-1.5-2.1-0.3-3.4   c0.6-0.7,1-2.8,0.8-4.1c-0.1-1.3,1.3-2,2.8-2.7c1.2-0.5,2.4-1.1,2.9-2c0.6-1,1.4-1.1,2.1-1.1c0.3,0,0.5,0,0.8,0c0.3,0,0.5,0,0.8,0   c0.4,0,1-0.1,1.6-0.5c0.4-0.3,1-0.5,1.7-0.5c1.9,0,4.1,1.3,5.1,3.2c0.3-0.5,0.6-0.6,0.8-0.6c0.3,0,0.5,0.1,0.6,0.4   c0.1,0.2,0.1,0.5,0,0.7c-1.1,1.6-1.4,4-1.5,5.6c0.8-1.1,2.6-2,4.2-2c0.2,0,0.4,0,0.5,0c-0.6-1.1-0.5-2.9,0.1-3.7l0-0.1l0.1,0   c1.6,0.3,2.2,2.1,2.3,3.4c0.4-0.9,1.2-1.4,1.7-1.6l0.1,0l0,0.1c0.3,1,0,3.1-0.7,3.7c0.7,0.5,1.2,1.8,1.3,2.8c0,0.4,0,1-0.3,1.2   l-0.2,0.1l0-0.2c-0.1-0.5-0.6-0.7-1.1-0.9c-0.4-0.2-0.9-0.3-1.1-0.7c-0.4,0.6-1.5,1.1-2.4,1.1c-0.2,0-0.5,0-0.7-0.1l-0.4-0.2   l0.5-0.1c0.7-0.1,0.8-0.8,0.9-1.6c0.1-0.6,0.2-1.2,0.6-1.4c-0.5-0.1-1-0.2-1.5-0.2c-3.2,0-3.8,3.3-3.9,5.3c-0.1,2.8,1.3,8.4,5,11.7   l0.2,0.2L383.1,180.7z M375.8,156.6c1.4,0,2.8,0.3,4.1,0.9l0.1,0.1l-0.1,0.1c-0.8,1.4-1.5,4.2-1.7,7.3c-0.3,3.9,0,11.2,4.9,15.5   l1.6-0.4c-3.6-3.4-5-8.9-4.9-11.8c0.1-2.1,0.8-5.6,4.1-5.6c0.6,0,1.3,0.1,2,0.3l0.8,0.3h-0.8c-0.6,0-0.7,0.5-0.8,1.3   c-0.1,0.6-0.2,1.3-0.7,1.6c1,0.1,2.3-0.7,2.5-1.2l0.1-0.4l0.1,0.4c0.1,0.4,0.6,0.6,1,0.8c0.5,0.2,1,0.4,1.2,0.8   c0.1-0.2,0.1-0.5,0.1-0.8c-0.1-1-0.7-2.3-1.3-2.7l-0.2-0.1l0.2-0.1c0.7-0.4,1.1-2.3,0.8-3.4c-0.6,0.2-1.4,1-1.7,2   c0,0.1,0,0.3-0.1,0.4l-0.2,0c0-0.1,0-0.3,0.1-0.4c0.1-1.1-0.3-3.4-2-3.8c-0.5,0.7-0.6,2.5,0.1,3.5l0.2,0.3l-0.3-0.1   c-0.2,0-0.5-0.1-0.8-0.1c-1.8,0-3.8,1.1-4.3,2.4l-0.3,0.7l0.1-0.8c0.1-1.6,0.3-4.5,1.6-6.3c0.1-0.1,0.1-0.3,0-0.4   c-0.1-0.2-0.2-0.3-0.4-0.3c-0.3,0-0.5,0.2-0.7,0.6l-0.1,0.2l-0.1-0.2c-1-2-3.3-3.2-5-3.2c-0.6,0-1.2,0.2-1.6,0.5   c-0.6,0.5-1.2,0.5-1.7,0.5c-0.3,0-0.5,0-0.8,0c-0.3,0-0.5,0-0.8,0c-0.7,0-1.3,0.1-1.9,1c-0.6,1-1.9,1.6-3.1,2.1   c-1.4,0.6-2.7,1.3-2.6,2.4c0.1,1.4-0.2,3.5-0.9,4.3c-1,1.2-0.4,2.1,0.3,3.1c0.2,0.3,0.5,0.6,0.6,1c0.2-2.3,1.7-5.4,4-7.8   C368.3,159.4,371.6,156.6,375.8,156.6"/>
    <path class="st2"
          d="M387.5,163.2c0-1.3,2.2-2.9,5.1-2.9c3.6,0,6.4,3.3,9.2,3c2.9-0.3,1.5,1.3,0.9,1.7c-0.6,0.4-1,1.1-0.7,1.8   c0.2,0.8-0.2,1.3-1.3,0.6c-2.5-1.6-5.1,0.6-8.5-0.6C389.3,165.7,387.6,165.1,387.5,163.2"/>
    <path class="st4"
          d="M401.6,167.9c-0.3,0-0.6-0.1-1-0.4c-0.6-0.4-1.3-0.6-2.2-0.6c-0.6,0-1.2,0.1-1.8,0.2c-0.7,0.1-1.4,0.2-2.2,0.2   c-0.8,0-1.6-0.1-2.3-0.4l-0.1,0c-2.8-1-4.6-1.7-4.6-3.6c0-0.5,0.2-0.9,0.6-1.4c0.8-0.8,2.4-1.6,4.5-1.6h0.1c1.8,0,3.4,0.8,5,1.6   c1.5,0.8,2.9,1.5,4.3,1.3c1.1-0.1,1.7,0,1.9,0.4c0.2,0.5-0.6,1.2-0.9,1.5c-0.4,0.3-0.9,0.8-0.7,1.7c0.1,0.4,0.1,0.7-0.1,0.9   C402,167.8,401.8,167.9,401.6,167.9 M398.5,166.7c0.9,0,1.6,0.2,2.3,0.6c0.4,0.3,0.7,0.3,0.8,0.3c0.1,0,0.2,0,0.3-0.1   c0.1-0.1,0.1-0.4,0-0.6c-0.2-0.8,0.1-1.5,0.8-2c0.3-0.2,0.9-0.9,0.8-1.2c-0.1-0.3-0.7-0.4-1.6-0.3c-1.5,0.2-2.9-0.6-4.4-1.4   c-1.5-0.8-3.1-1.6-4.8-1.6h-0.1c-2.1,0-3.6,0.8-4.4,1.6c-0.4,0.4-0.6,0.8-0.6,1.2c0.1,1.8,1.6,2.4,4.5,3.4l0.1,0.1   c0.7,0.3,1.4,0.4,2.2,0.4c0.7,0,1.4-0.1,2.1-0.2C397.3,166.8,397.9,166.7,398.5,166.7"/>
    <path class="st9"
          d="M372.9,196.7c-1.4-4.5-6.8-9.4-9.4-10.5l-0.1-2.4c1.4-0.6,4.8-3.3,6.4-4.7c10.6,5.1,25.1-2.1,31.8-9.7l2.6,1.6   l-1.3,1.7l-1.4-0.7c-1.6,2-7.7,7.7-9.6,8.9c2.5,0.6,5.9,1.1,6.8,1c6-4.3,10.7-8.1,12.9-8.4l1.9,2.6l-1.7,1.2l-1.3-0.8   c-6.4,5.3-13.6,16.7-16.5,24.4C390,200,375.8,200.6,372.9,196.7"/>
    <path class="st4"
          d="M394.1,201l-0.1,0c-1.1-0.2-3.1-0.4-5.4-0.5c-5.8-0.4-13.6-0.9-15.8-3.7l0,0c-1.5-4.6-6.9-9.4-9.4-10.4l-0.1,0   l-0.1-2.6l0.1,0c1.4-0.6,4.7-3.2,6.3-4.7l0.1-0.1l0.1,0c11.1,5.3,25.4-2.6,31.6-9.6l0.1-0.1l2.8,1.7l-1.4,1.9l-1.4-0.7   c-1.6,1.9-7.2,7.2-9.3,8.7c2.4,0.6,5.5,1,6.5,0.9c1.3-0.9,2.6-1.9,3.8-2.7c4.1-3,7.4-5.4,9.2-5.6l0.1,0l2,2.7l-1.9,1.3l-1.3-0.8   c-5,4.2-10.6,12.3-14.1,19.2c0,0,0,0.1,0,0.1h0c-0.9,1.8-1.6,3.4-2.2,5L394.1,201z M373,196.6c2.1,2.7,9.9,3.2,15.6,3.6   c2.2,0.1,4.2,0.3,5.3,0.5c0.6-1.5,1.3-3.2,2.2-5c0-0.1,0-0.2,0-0.3c-0.4-0.8-3.2-1.6-5.8-2c-2.3-0.3-12.3-1.1-16.8-1l0-0.3   c4.6-0.1,14.4,0.6,16.8,1c1.9,0.3,5.4,1,6,2.1c0,0,0,0,0,0c3.5-6.9,9.1-14.9,14.1-19l0.1-0.1l1.4,0.8l1.5-1.1l-1.8-2.4   c-1.8,0.3-5,2.6-9,5.6c-1.2,0.9-2.5,1.8-3.8,2.8l0,0c-5.9,4.2-15.9,4.4-22,0.4c-2.6,1.8-4.1,7.6-3.1,12.7l-0.3,0   c-0.9-5.3,0.6-11.2,3.3-13l0.1,0l0.1,0c5.9,3.9,15.6,3.8,21.5-0.1c-1.3,0-4.2-0.4-6.4-1l-0.3-0.1h0c-0.8-0.2-1.4-0.4-1.9-0.7   c-1.3,1.2-4.3,2-7.6,2.1v-0.3c3.3-0.1,6.3-1,7.5-2.1l0.1-0.1l0.1,0c0.4,0.2,1.2,0.5,2.1,0.7c1.9-1.3,7.9-7,9.5-8.9l0.1-0.1l1.3,0.7   l1.1-1.5l-2.4-1.4c-6.3,7-20.7,14.9-31.8,9.6c-1.6,1.5-4.8,4.1-6.3,4.7l0.1,2.2C366.1,187.3,371.6,192,373,196.6 M375.6,191.8   l-1.5-1.5l1.5-1.5l1.5,1.5L375.6,191.8z M374.4,190.3l1.1,1.1l1.1-1.1l-1.1-1.1L374.4,190.3z"/>
    <path class="st5"
          d="M378.7,165.2c-1.6-2.3-6.1-3-7.1,0.1c-0.4,1.3-1.1,2.8-2.1,3.4c-1.1,0.6-0.8,2.6-0.3,3.4   c1.1,2.1,0.1,4.1,2.3,5.4c0-1.6,2.4-3.3,4.5-3.8c2.1-0.4,5.2-2.3,5.6-4.3C381.9,167.3,382.6,165.6,378.7,165.2"/>
    <path class="st4"
          d="M371.5,177.7l-0.2-0.1c-1.4-0.9-1.6-2-1.7-3.1c-0.1-0.7-0.2-1.5-0.6-2.3c-0.5-0.9-0.8-2.9,0.4-3.6   c0.8-0.5,1.5-1.6,2.1-3.3c0.4-1.3,1.6-2.1,3.2-2.1c1.6,0,3.2,0.8,4.1,2c1.5,0.2,2.5,0.5,2.9,1.2c0.5,0.7,0.3,1.7,0.1,2.7   c0,0.1-0.1,0.3-0.1,0.5c-0.4,2.1-3.6,4-5.7,4.4c-2,0.4-4.4,2.1-4.4,3.6V177.7z M374.6,163.3c-1.5,0-2.5,0.7-2.9,2   c-0.6,1.8-1.3,2.9-2.2,3.5c-1,0.6-0.8,2.4-0.3,3.2c0.5,0.8,0.6,1.6,0.7,2.4c0.2,1.1,0.3,2.1,1.4,2.8c0.2-1.6,2.5-3.2,4.6-3.7   c2-0.4,5.1-2.2,5.5-4.2c0-0.2,0.1-0.3,0.1-0.5c0.2-1,0.4-1.9,0-2.5c-0.4-0.6-1.3-0.9-2.8-1.1h-0.1l0,0   C377.7,164.1,376.1,163.3,374.6,163.3"/>
    <path class="st9"
          d="M368.4,185.6h0.6l0,3.9c0.1,0,0.2,0.1,0.3,0.2l3.3-1.9l0.3,0.5l-3.4,1.9c0,0.1,0,0.3,0,0.4l3.3,1.9l-0.3,0.5   l-3.4-1.9c-0.1,0.1-0.2,0.2-0.3,0.2v3.9h-0.6l0-3.9c-0.1,0-0.3-0.1-0.3-0.2l-3.3,1.9l-0.3-0.5l3.4-1.9c0-0.1,0-0.3,0-0.4l-3.3-1.9   l0.3-0.5l3.4,1.9c0.1-0.1,0.2-0.2,0.3-0.2L368.4,185.6z"/>
    <path class="st4"
          d="M369.1,195.3h-0.8l0-3.9c-0.1,0-0.1-0.1-0.2-0.1l-3.4,1.9l-0.4-0.7l3.4-2c0-0.1,0-0.2,0-0.3l-3.4-1.9l0.4-0.7   l3.4,1.9c0.1,0,0.1-0.1,0.2-0.1v-3.9h0.8l0,3.9c0.1,0,0.2,0.1,0.2,0.1l3.4-1.9l0.4,0.7l-3.4,2c0,0.1,0,0.2,0,0.3l3.4,2l-0.4,0.7   l-3.4-2c-0.1,0-0.1,0.1-0.2,0.1V195.3z M368.6,195h0.3l0-3.8l0.1,0c0.1,0,0.2-0.1,0.3-0.2l0.1-0.1l3.3,1.9l0.2-0.3l-3.3-1.9l0-0.1   c0-0.1,0-0.2,0-0.3l0-0.1l3.3-1.9l-0.2-0.3l-3.3,1.9l-0.1-0.1c-0.1-0.1-0.2-0.1-0.3-0.2l-0.1,0l0-3.8h-0.3v3.8l-0.1,0   c-0.1,0-0.2,0.1-0.3,0.2l-0.1,0.1l-3.3-1.9l-0.2,0.3l3.3,1.9l0,0.1c0,0.1,0,0.2,0,0.3l0,0.1l-3.3,1.9l0.2,0.3l3.3-1.9l0.1,0.1   c0.1,0.1,0.2,0.1,0.3,0.2l0.1,0L368.6,195z"/>
    <path class="st9"
          d="M373.5,195.1c-1.2,1.2-2.9,2-4.8,2c-3.7,0-6.7-3-6.7-6.7c0-3.7,3-6.7,6.7-6.7c2.2,0,4.1,1,5.3,2.6   c-0.3,0.9-0.7,2.8-0.8,3.6c-0.2-2.3-2.2-4.1-4.6-4.1c-2.5,0-4.6,2.1-4.6,4.6c0,2.5,2.1,4.6,4.6,4.6c2.1,0,4-1.5,4.5-3.4   C373.2,192.4,373.2,194.4,373.5,195.1"/>
    <path class="st4"
          d="M368.7,197.2c-3.8,0-6.9-3.1-6.9-6.9c0-3.8,3.1-6.9,6.9-6.9c2.2,0,4.1,1,5.4,2.7l0,0.1l0,0.1   c-0.3,0.8-0.7,2.7-0.8,3.6l-0.3,0c-0.2-2.3-2.1-4-4.4-4c-2.5,0-4.5,2-4.5,4.5c0,2.5,2,4.5,4.5,4.5c2,0,3.8-1.4,4.4-3.4l0.3-0.9v1   c0,1.8,0.1,3.1,0.3,3.5l0,0.1l0,0.1C372.3,196.5,370.6,197.2,368.7,197.2 M368.7,183.8c-3.6,0-6.6,3-6.6,6.6c0,3.6,3,6.6,6.6,6.6   c1.7,0,3.4-0.7,4.6-1.9c-0.2-0.6-0.2-1.8-0.3-2.8c-0.8,1.7-2.5,2.8-4.4,2.8c-2.6,0-4.7-2.1-4.7-4.7c0-2.6,2.1-4.7,4.7-4.7   c2.1,0,4,1.4,4.5,3.4c0.1-0.9,0.4-2.1,0.7-2.7C372.7,184.7,370.8,183.8,368.7,183.8"/>
    <path class="st5"
          d="M365.9,201.5c-0.4-0.5-1.2-1.9-1.1-2.8c0.6-0.1,1.8,0.3,2.4,0.9c-0.1-0.7-0.3-2.3-0.2-3c0.8,0.3,2.4,1.2,3,2.3   c-0.1-0.7-0.4-2.5-0.1-3.7c0.9,0.5,2.3,1.8,2.5,2.8c0.1-1.4,0.6-3.8,1-4.3c0.6,0.6,1.6,1.2,2.3,2.1c0.1-1.1,0.7-2.5,1.6-2.8   c0.6,0.7,1.6,2.3,1.8,4.2c0.6-0.2,1.5-1.3,1.9-1.8c0.3,0.6,0.7,1.6,0.5,2.8c0.8-0.7,1.7-1.7,1.9-2.6c0.6,0.4,1.6,1.5,1.9,2.6   c-0.1-0.9-0.1-2.6-0.4-3.5c1.1,0.6,1.9,1.6,2.1,2.6c0.3-1,0.9-2.8,1.5-3.2c0.6,1.1,1.1,2.5,1.1,3.6c0.3-0.7,0.9-2,1.5-2.3   c0.5,0.8,0.4,2.5,0.3,3.4c0.5-0.7,1.4-1.6,2-1.9c0.1,0.4,0.1,1.3,0,1.9c0.6-0.3,1.7-2.3,2.1-3.3c1,0.5,2,2.2,2.1,3.1   c0.7-0.3,2.1-1.6,2.5-2.3c0,0.5,0.2,1.8-0.1,2.9c0.4-0.4,0.9-1.3,1.1-1.6c0.3,0.7,0.1,2.4-0.2,3.3c0.6-0.6,1.6-0.9,2.1-0.9   c0.1,1.2-0.8,3.3-1.6,4.9C394.5,203,380.2,202.3,365.9,201.5"/>
    <path class="st4"
          d="M401.4,205.1L401.4,205.1c-6.6-1.9-19.8-2.6-33.7-3.3l-1.8-0.1l0,0c-0.4-0.5-1.2-1.9-1.2-2.9l0-0.1l0.1,0   c0.6-0.1,1.6,0.3,2.3,0.7c0-0.1,0-0.2,0-0.3c-0.1-0.8-0.2-1.8-0.1-2.4l0-0.1l0.1,0c0.6,0.2,2,0.9,2.7,1.8c-0.1-0.8-0.3-2.2,0-3.2   l0-0.2l0.1,0.1c0.7,0.4,1.9,1.5,2.4,2.4c0.1-1.4,0.6-3.4,1-3.9l0.1-0.1l0.1,0.1c0.2,0.2,0.5,0.5,0.8,0.7c0.4,0.3,0.9,0.7,1.3,1.1   c0.2-1.1,0.7-2.3,1.6-2.7l0.1,0l0.1,0.1c0.6,0.6,1.6,2.2,1.9,4.1c0.6-0.3,1.3-1.2,1.6-1.7l0.1-0.2l0.1,0.2c0.2,0.3,0.7,1.3,0.6,2.5   c0.9-0.9,1.5-1.6,1.6-2.2l0-0.2l0.2,0.1c0.4,0.3,1.2,1,1.6,1.9c0-0.2,0-0.3,0-0.5c0-0.7-0.1-1.6-0.3-2.2l-0.1-0.3l0.3,0.1   c1,0.5,1.8,1.4,2.1,2.3c0.3-1,0.9-2.4,1.4-2.8l0.1-0.1l0.1,0.1c0.5,0.9,1,2.1,1.1,3.2c0.3-0.7,0.8-1.6,1.3-1.9l0.1,0l0.1,0.1   c0.4,0.7,0.4,2.1,0.3,3c0.5-0.6,1.3-1.3,1.8-1.5l0.2-0.1l0,0.2c0.1,0.4,0.1,1,0,1.6c0.6-0.6,1.5-2.1,1.8-3l0-0.1l0.1,0.1   c1,0.5,1.9,2.1,2.1,3c0.7-0.4,2-1.5,2.3-2.1l0.2-0.4v0.5c0,0.1,0,0.3,0,0.5c0,0.5,0.1,1.3,0,2c0.2-0.3,0.4-0.7,0.6-0.9   c0.1-0.1,0.1-0.2,0.2-0.3l0.1-0.2l0.1,0.2c0.3,0.7,0.1,2.1-0.1,3.1c0.6-0.5,1.4-0.7,1.9-0.7h0.1l0,0.1   C403.1,201.5,401.8,204.2,401.4,205.1L401.4,205.1z M365.9,201.4l1.7,0.1c13.9,0.8,27,1.5,33.6,3.3c0.4-0.8,1.5-3.2,1.5-4.6   c-0.5,0-1.3,0.4-1.9,0.9l-0.3,0.3l0.1-0.4c0.2-0.8,0.4-2.2,0.3-3c0,0,0,0,0,0c-0.2,0.4-0.6,1-0.9,1.4l-0.3,0.3l0.1-0.5   c0.2-0.8,0.1-1.7,0.1-2.4c0,0,0-0.1,0-0.1c-0.6,0.8-1.8,1.8-2.4,2l-0.2,0.1l0-0.2c-0.1-0.8-0.9-2.3-1.9-2.9c-0.4,1-1.4,2.8-2.1,3.2   l-0.3,0.1l0.1-0.3c0.1-0.5,0.1-1.3,0-1.7c-0.6,0.3-1.3,1.1-1.8,1.7l-0.3,0.4l0.1-0.5c0.1-0.8,0.2-2.4-0.2-3.2   c-0.4,0.3-0.9,1.3-1.2,1.9l-0.4,0.8l0-0.6c0.1-1.1-0.5-2.4-1-3.4c-0.5,0.5-1.1,2.1-1.3,3l-0.1,0.5l-0.1-0.5   c-0.2-0.9-0.9-1.8-1.8-2.4c0.1,0.5,0.2,1.2,0.2,1.9c0,0.5,0,0.9,0.1,1.3l-0.3,0c-0.3-1-1.2-2-1.7-2.4c-0.3,0.9-1.2,1.8-1.9,2.4   l-0.3,0.3l0.1-0.4c0.2-1.2-0.1-2.1-0.4-2.5c-0.4,0.6-1.2,1.5-1.8,1.7l-0.1,0l0-0.2c-0.2-1.8-1.2-3.4-1.8-4   c-0.7,0.4-1.3,1.6-1.4,2.7l0,0.3l-0.2-0.3c-0.4-0.5-0.9-0.9-1.4-1.3c-0.3-0.2-0.5-0.4-0.7-0.6c-0.4,0.7-0.8,2.9-0.9,4.1l0,0.7   l-0.2-0.7c-0.3-0.9-1.5-2.1-2.3-2.6c-0.2,1.3,0.1,3.2,0.2,3.5l0.2,0.8l-0.4-0.8c-0.5-1-2-1.8-2.8-2.2c-0.1,0.6,0.1,1.5,0.2,2.2   c0,0.3,0.1,0.5,0.1,0.6l0,0.4l-0.3-0.3c-0.5-0.5-1.6-0.9-2.2-0.9h0C364.9,199.7,365.5,200.9,365.9,201.4"/>
    <path class="st3"
          d="M389.6,163.9c0-0.5,1.1-1.7,3.2-1.7c2.5,0,4.8,1.9,6.8,1.7c2-0.1,1,0.5,0.6,0.7c-0.4,0.2-0.7,0.4-0.5,0.8   c0.2,0.3-0.1,0.5-0.9,0.2c-1.8-0.6-3.6,0.3-5.9-0.2C390.9,165,389.7,164.7,389.6,163.9"/>
    <path class="st3"
          d="M368.1,205.8c-2.1,2.6-4.3,2.1-4.7,0.5c-0.4-1.6,1.1-2.4,0.6-3.8c-0.6-1.4,0.9-2.1,1.6-1.4   c0.7,0.6,3-1.4,4,0.7c1,2.1,1.8,3.6,1.2,4.5C370.2,207.1,368.5,206.6,368.1,205.8"/>
    <path class="st4"
          d="M365.1,207.7c-0.9,0-1.6-0.5-1.8-1.4c-0.2-0.9,0.1-1.5,0.3-2.1c0.3-0.6,0.5-1.1,0.2-1.8   c-0.2-0.5-0.2-1,0.1-1.3c0.2-0.3,0.6-0.5,1-0.5c0.3,0,0.6,0.1,0.8,0.3c0.2,0.2,0.6,0.1,1.2-0.1c0.4-0.1,0.8-0.2,1.3-0.2   c0.7,0,1.2,0.3,1.6,1.1l0.2,0.5c0.9,1.9,1.5,3.3,1,4.1c-0.2,0.3-0.6,0.5-1.1,0.5c-0.7,0-1.4-0.3-1.7-0.8   C367.1,207.1,366,207.7,365.1,207.7 M364.9,200.9c-0.3,0-0.6,0.2-0.8,0.4c-0.1,0.2-0.3,0.5,0,1.1c0.3,0.8,0,1.4-0.2,1.9   c-0.3,0.6-0.5,1.1-0.3,1.9c0.2,0.8,0.8,1.2,1.6,1.2c0.9,0,2-0.6,2.9-1.8l0.1-0.1l0.1,0.2c0.2,0.5,0.9,0.8,1.6,0.8   c0.4,0,0.7-0.2,0.9-0.4c0.5-0.7-0.1-2-1-3.9l-0.2-0.5c-0.3-0.6-0.7-0.9-1.3-0.9c-0.4,0-0.8,0.1-1.2,0.2c-0.6,0.2-1.1,0.3-1.4,0   C365.4,201,365.1,200.9,364.9,200.9"/>
    <path class="st3"
          d="M377.2,201.9c-0.4-0.9,1.8-2.7,2.9-1.5c1.1,1.3,2.9-1.4,3.9,0.6c1,2,1.3,3.1,1.8,4.2c0.5,1.1-2.7,1.7-3.7,0.7   c0.1,0.7-2.8,1.2-3.5-0.7C378.2,204.4,377.8,203.2,377.2,201.9"/>
    <path class="st4"
          d="M380.9,206.8c-1.1,0-2-0.5-2.3-1.4c-0.1-0.4-0.3-0.7-0.4-1.1c-0.3-0.7-0.6-1.5-1-2.3c-0.1-0.3-0.1-0.6,0.2-1   c0.4-0.5,1.1-1.1,1.9-1.1c0.4,0,0.8,0.2,1.1,0.5c0.2,0.2,0.4,0.3,0.7,0.3c0.3,0,0.7-0.1,1-0.3c0.4-0.1,0.7-0.3,1.1-0.3   c0.5,0,0.9,0.3,1.2,0.9c0.7,1.3,1,2.3,1.3,3.1c0.2,0.4,0.3,0.8,0.5,1.2c0.1,0.2,0.1,0.5,0,0.7c-0.3,0.5-1.3,0.8-2.1,0.8   c-0.6,0-1.2-0.1-1.5-0.4c0,0,0,0,0,0.1C382,206.7,381.5,206.8,380.9,206.8 M379.2,200.2c-0.7,0-1.4,0.5-1.7,1   c-0.2,0.3-0.2,0.6-0.2,0.7c0.3,0.8,0.7,1.6,1,2.3c0.2,0.4,0.3,0.7,0.4,1.1c0.5,1.2,1.7,1.2,2.1,1.2c0.6,0,1-0.2,1.2-0.3   c0-0.1,0-0.1,0-0.1l-0.1-0.4l0.3,0.3c0.3,0.3,0.9,0.5,1.5,0.5c0.9,0,1.7-0.3,1.9-0.7c0.1-0.1,0.1-0.3,0-0.4   c-0.2-0.4-0.3-0.8-0.5-1.2c-0.3-0.8-0.7-1.7-1.3-3c-0.3-0.6-0.7-0.7-0.9-0.7c-0.3,0-0.6,0.1-1,0.3c-0.4,0.1-0.7,0.3-1.1,0.3   c-0.3,0-0.6-0.1-0.9-0.4C379.8,200.3,379.5,200.2,379.2,200.2"/>
    <path class="st3"
          d="M392,203.1c-0.5-1,2.1-2.4,3.4-0.6c0.3-0.7,2.9-0.9,3.1,1.3c0.2,2.2,0.3,3.4,0.3,4.3c0.1,0.9-1.6,1.6-2.7-0.5   c-2.1,0.4-3.1-0.7-3.3-2C392.5,204.3,392.3,203.7,392,203.1"/>
    <path class="st4"
          d="M397.8,209.1c-0.4,0-1.2-0.2-1.8-1.4c-1.8,0.3-3-0.5-3.4-2.1c-0.3-1.3-0.5-1.8-0.8-2.4c-0.1-0.2-0.1-0.5,0-0.8   c0.3-0.5,1.1-0.9,1.8-0.9c0.6,0,1.2,0.3,1.7,0.8c0.2-0.3,0.7-0.4,1.2-0.4c0.9,0,1.9,0.5,2,1.9c0.1,1.3,0.2,2.3,0.2,3   c0,0.5,0.1,0.9,0.1,1.3c0,0.2-0.1,0.5-0.2,0.6C398.5,209,398.2,209.1,397.8,209.1 M396.1,207.4L396.1,207.4   c0.5,0.9,1.1,1.4,1.7,1.4c0.3,0,0.5-0.1,0.7-0.3c0.1-0.1,0.2-0.3,0.2-0.5c0-0.3,0-0.7-0.1-1.3c0-0.8-0.1-1.7-0.2-3   c-0.1-1.2-1-1.7-1.8-1.7c-0.5,0-0.9,0.2-1.1,0.4l-0.1,0.2l-0.1-0.2c-0.5-0.7-1.1-0.8-1.6-0.8c-0.7,0-1.3,0.4-1.6,0.7   c-0.1,0.1-0.2,0.3,0,0.5c0.3,0.6,0.5,1.2,0.8,2.5c0.1,0.6,0.6,2,2.3,2C395.5,207.5,395.8,207.5,396.1,207.4L396.1,207.4z"/>
    <path class="st5"
          d="M369.5,201.7c-0.3-0.7,1.8-2.1,3.3-1.1c1.5,1.1,3.5-0.9,4.3,1c1.7,3.9,1.8,4.1,1.3,4.9   c-0.5,0.7-2.8,0.5-3.4-0.6c-0.1,0.7-2.1,0.6-3.1,0C370.7,205.4,369.9,203,369.5,201.7"/>
    <path class="st4"
          d="M377.2,207.1c-0.8,0-1.7-0.3-2.2-0.9c-0.2,0.2-0.6,0.4-1.2,0.4c-0.7,0-1.5-0.2-2-0.5c-1.2-0.6-2-2.9-2.5-4.2   l-0.1-0.1c-0.1-0.2,0-0.4,0.1-0.6c0.3-0.5,1.2-1,2.1-1c0.5,0,0.9,0.1,1.3,0.4c0.3,0.2,0.6,0.3,1,0.3c0.3,0,0.6-0.1,1-0.1   c0.3,0,0.6-0.1,0.9-0.1c0.7,0,1.1,0.3,1.4,0.9c1.8,3.9,1.9,4.2,1.3,5C378.3,206.9,377.8,207.1,377.2,207.1 M374.9,205.6l0.2,0.3   c0.3,0.6,1.3,0.9,2.1,0.9c0.5,0,0.9-0.1,1.1-0.4c0.5-0.7,0.4-0.9-1.3-4.8c-0.3-0.6-0.6-0.8-1.2-0.8c-0.3,0-0.6,0.1-0.9,0.1   c-0.3,0.1-0.7,0.1-1,0.1c-0.5,0-0.9-0.1-1.2-0.4c-0.3-0.2-0.7-0.4-1.1-0.4c-0.8,0-1.6,0.4-1.9,0.9c-0.1,0.1-0.1,0.3-0.1,0.4l0,0.2   c0.5,1.3,1.3,3.5,2.3,4.1c0.5,0.3,1.2,0.4,1.9,0.4c0.6,0,1-0.1,1-0.4L374.9,205.6z"/>
    <path class="st5"
          d="M384.4,201.9c-0.5-1.1,2.8-2.1,4.3-0.1c0.7-0.7,2.4-0.7,3.3,1.4c0.9,2.1,1.1,3.3,0.4,3.8   c-0.5,0.4-2.2,0.7-2.8-0.3c-0.8,0.5-3.2,0.1-3.7-1.3C385.4,204,384.9,202.8,384.4,201.9"/>
    <path class="st4"
          d="M391,207.4c-0.7,0-1.2-0.2-1.5-0.6c-0.2,0.1-0.5,0.2-0.9,0.2c-1.1,0-2.5-0.5-2.9-1.6c-0.5-1.4-1-2.5-1.5-3.5   c-0.1-0.2-0.1-0.4,0.1-0.6c0.3-0.5,1.1-0.8,2-0.8c1,0,1.8,0.4,2.4,1c0.3-0.2,0.7-0.4,1.1-0.4c0.9,0,1.8,0.7,2.3,1.9   c1,2.2,1.1,3.4,0.3,4C392.2,207.2,391.6,207.4,391,207.4 M389.7,206.5l0.1,0.1c0.3,0.5,0.9,0.6,1.3,0.6c0.6,0,1.1-0.2,1.3-0.3   c0.6-0.5,0.5-1.6-0.4-3.6c-0.5-1.1-1.2-1.7-2.1-1.7c-0.4,0-0.8,0.1-1,0.4l-0.1,0.1l-0.1-0.1c-0.5-0.7-1.3-1-2.3-1   c-0.8,0-1.5,0.3-1.8,0.6c-0.1,0.1-0.1,0.3,0,0.4c0.5,0.9,1,2.1,1.5,3.5c0.4,0.9,1.7,1.4,2.7,1.4c0.4,0,0.7-0.1,0.9-0.2L389.7,206.5   z"/>
    <path class="st5"
          d="M398.5,204c-0.1-1,1.7-1.4,2.4,0c0.7,1.5,2.8,0.2,3,2.6c0,0.5-0.3,2.2-0.9,3.1c-0.7,0.9-4,0-4.2-1.8   C398.6,206,398.6,205,398.5,204"/>
    <path class="st4"
          d="M402,210.1c-0.3,0-0.7,0-1-0.2c-1-0.3-2.2-1-2.3-2.1c0-0.1,0-0.3-0.1-0.4l0,0c0-0.6-0.6-1-1.2-1.4   c-0.8-0.5-1.7-1.1-1.7-2.3h0.3c0,1.1,0.8,1.6,1.6,2.1c0.4,0.3,0.8,0.5,1,0.8c-0.1-1.1-0.2-1.9-0.2-2.6c0-0.5,0.3-0.9,0.8-1   c0.6-0.2,1.4,0.1,1.8,0.9c0,0,0,0.1,0.1,0.1c0.3,0.5,0.8,0.6,1.3,0.7c0.7,0.2,1.6,0.3,1.7,1.8c0,0.5-0.2,2.3-0.9,3.2   C402.9,209.9,402.5,210.1,402,210.1 M399.6,203.2c-0.1,0-0.2,0-0.3,0c-0.3,0.1-0.7,0.4-0.6,0.8l0,0c0,1,0.1,2,0.3,3.8   c0.1,1,1.2,1.6,2.1,1.9c0.9,0.2,1.6,0.2,1.9-0.1c0.7-0.8,0.9-2.6,0.9-3c-0.1-1.3-0.7-1.4-1.5-1.6c-0.3-0.1-0.7-0.1-1-0.3   c0.1,0.3,0.1,0.8,0.2,1.3l-0.3,0c0-0.8-0.1-1.3-0.4-1.8c0,0,0-0.1,0-0.1C400.5,203.4,400,203.2,399.6,203.2 M396,207.6   c-0.6-1.1-1.5-2.1-2.1-2.4l0.1-0.2c0.7,0.4,1.6,1.4,2.3,2.5L396,207.6z M389.5,206.7l-0.2-0.3c-0.4-0.6-0.7-1.1-0.8-1.5l0.2,0   c0.1,0.4,0.4,0.9,0.7,1.4l0.2,0.3L389.5,206.7z M382.1,206.2c-0.6-0.4-1.3-1.1-1.7-1.9l0.2-0.1c0.4,0.7,1.1,1.4,1.6,1.8   L382.1,206.2z M374.9,206c-0.5-0.6-1.1-1.6-1.3-2.4l0.2-0.1c0.2,0.7,0.8,1.7,1.3,2.3L374.9,206z M385.9,205.9   c-0.8-0.1-1.7-1.3-1.9-1.6c-0.4-0.5-1.2-1.7-2.4-1.8l0-0.3c1.3,0.2,2.2,1.3,2.6,1.9c0.5,0.7,1.3,1.5,1.8,1.6L385.9,205.9z    M368,205.9l-0.1-0.2c-0.5-0.7-1.1-1.5-1.7-1.5l0,0c-0.4,0-0.7,0.3-1.1,0.8l-0.2-0.1c0.4-0.6,0.9-0.9,1.3-0.9l0,0   c0.8,0,1.4,0.9,1.9,1.6l0.1,0.2L368,205.9z M389.6,203.4c-0.3-0.6-0.6-1-1-1.6l0.2-0.1c0.4,0.6,0.8,1.1,1,1.7L389.6,203.4z"/></g></svg>
