<?xml version="1.0" ?>
<svg id="Layer_1" style="enable-background:new 0 0 512 512;" version="1.1" viewBox="0 0 512 512" xml:space="preserve"
     xmlns="http://www.w3.org/2000/svg"><style type="text/css">
	.st0 {
    fill: #FFFFFF;
  }

  .st1 {
    fill: #C82027;
  }

  .st2 {
    fill: #F0D82E;
  }

  .st3 {
    fill: #010101;
  }

  .st4 {
    fill: none;
  }
</style>
  <g><rect class="st0" height="298.7" width="512" y="106.7"/>
    <rect class="st1" height="98.6" width="512" y="306.8"/>
    <path class="st2"
          d="M232.4,372.2v9.4h5.9v-4.7h8v4.7h6.3v-9.4H232.4z M232.4,385.1v9.4h20.2v-9.4h-6.3v4.7h-8v-4.7H232.4z"/>
    <g><path class="st3" d="M252.9,394.8h-20.5l-0.3-9.7l6.2-0.3l0.3,5l7.7-0.3l-0.3-4.4l6.6-0.3L252.9,394.8L252.9,394.8z M238,385.1    l-5.6,0.3l0.3,9.1l19.6-0.3v-9.1l-6,0.3l0.3,4.4l-8.3,0.3L238,385.1L238,385.1z M252.9,381.8h-6.6l-0.3-5l-7.7,0.3l0.3,4.4    l-6.2,0.3l-0.3-9.7l20.5-0.3L252.9,381.8L252.9,381.8z M246.3,376.5l0.3,5l5.7-0.3v-9.1l-19.9,0.3l0.3,9.1l5.6-0.3l-0.3-4.4    L246.3,376.5L246.3,376.5z"/></g>
    <rect class="st3" height="51.3" width="138.7" x="186.7" y="242.4"/>
    <polygon class="st1" points="225.5,286.2 179.9,286.2 169.8,292.8 169.8,299.9 225.5,299.9  "/>
    <g><polygon class="st3" points="169.8,300.2 169.5,292.8 179.7,285.9 225.8,285.9 225.5,286.5 179.9,286.5 169.9,293.1 170.1,299.9     225.5,299.6 169.8,300.2   "/></g>
    <polygon class="st1" points="286.5,286.2 332.1,286.2 342.2,292.8 342.2,299.9 286.5,299.9  "/>
    <g><polygon class="st3" points="286.5,300.2 342.2,299.6 341.9,292.8 332,286.4 286.2,286.5 286.5,285.9 332.1,285.9 342.4,292.6     342.5,299.9 286.5,300.2   "/></g>
    <path class="st1" d="M169.8,292.8h172.5H169.8z"/>
    <g><polygon class="st3" points="169.8,293.1 169.5,293.1 169.8,292.5 342.2,292.5 169.8,293.1   "/></g>
    <polygon class="st1"
             points="224,289.6 212.6,295.1 212.6,303.3 256,303.3 299.4,303.3 299.4,295.1 288,289.6 256,289.6  "/>
    <g><path class="st3" d="M299.7,303.6h-87.1l-0.3-8.5l11.6-5.8l64.2,0l11.5,5.5L299.7,303.6L299.7,303.6z M224,289.9l-11.3,5.5    l0.2,7.9l86.2-0.3v-7.9l-11.2-5.2L224,289.9L224,289.9z"/></g>
    <path class="st2"
          d="M276.2,281.7c-1.6,0.5-3.5,1.5-6,2.8c-2.4,1.3-5.2,3-7.8,4.8c-1.9,1.3-3.6,2.6-5.2,3.8   c-0.6,0.4-1.3,0.9-1.8,1.3c-0.6,0.5-1,1-1.4,1.4c-0.3,0.3-0.7,0.6-0.9,0.9c-0.6,0.8-1.2,1.4-1.2,2.8c0,0.3,0,0.5,0,0.8   c0.9-1.1,2.2-1.8,3.6-2c0,0,0,0,0,0c0,0,0.1,0,0.1,0h0c0.1,0,0.3,0,0.4,0c0.1,0,0.3,0,0.4,0c0.2,0,0.4,0.1,0.6,0.1   c0.1-0.1,0.1-0.1,0.2-0.2c0.3-0.2,0.4-0.4,0.7-0.7c0.6-0.5,1.7-1.2,2.5-1.9c1.3-1,2.5-2,4.1-3c2.5-1.7,5.2-3.3,7.5-4.6   c2.3-1.3,4.4-2.2,5.2-2.4L276.2,281.7z"/>
    <g><path class="st3" d="M251.6,300.9l-0.1-0.5c0-0.3,0-0.5,0-0.8c0-1.4,0.6-2.1,1.2-2.9c0.2-0.3,0.5-0.5,0.7-0.7l0.9-0.6l-0.2-0.2    c0.3-0.3,0.6-0.7,1.1-1c0.3-0.2,0.6-0.5,1-0.7c0.3-0.2,0.6-0.4,0.8-0.6c1.7-1.4,3.3-2.6,5.2-3.8c2.6-1.7,5.4-3.4,7.9-4.8    c2.5-1.4,4.5-2.4,6-2.8l1.5,4.1c-0.9,0.5-3,1.4-5.3,2.7c-2.3,1.3-5,2.9-7.5,4.6c-1.2,0.8-2.2,1.5-3.2,2.3l-2,1.5    c-0.5,0.4-1,0.7-1.4,1l-0.9,0.5l0.2,0.2l-0.6,0.2l-0.5-0.3l-0.1,0.2l-0.7,0c-1.3,0.2-2.6,0.9-3.5,1.9L251.6,300.9L251.6,300.9z     M276,281.8c-1.3,0.6-3.2,1.6-5.7,2.9c-2.4,1.3-5.2,3-7.8,4.8c-1.9,1.2-3.4,2.5-5,3.7c-0.5,0.4-0.8,0.6-1.1,0.8    c-0.3,0.2-0.7,0.5-1,0.7c-0.4,0.3-0.7,0.7-1,1l-0.8,0.8c-0.2,0.2-0.4,0.4-0.5,0.5c-0.7,0.8-1.2,1.4-1.2,2.7c0,0.1,0,0.1,0,0.2    c0.9-0.9,2.2-1.5,3.4-1.7l1.5,0.1l1-0.8c0.4-0.3,0.9-0.7,1.4-1.1l2-1.5c1-0.8,2-1.5,3.2-2.3c2.5-1.7,5.2-3.3,7.6-4.6    c2.4-1.3,4.4-2.2,5.2-2.5L276,281.8L276,281.8z"/></g>
    <g><path class="st4" d="M261.1,290.3v4.6V290.3z"/></g>
    <g><path class="st4" d="M264,288.3v4.5V288.3z"/></g>
    <g><path class="st4" d="M266.8,286.6v4.5V286.6z"/></g>
    <g><path class="st4" d="M269.6,284.8v4.6V284.8z"/></g>
    <path class="st1" d="M212.6,295.1h86.9H212.6z"/>
    <g><polygon class="st3" points="212.6,295.4 212.6,294.8 299.4,294.8 212.6,295.4   "/></g>
    <path class="st1"
          d="M206.4,256.7c6.6,0,11.9,5.5,11.9,12.2v17.2h8.6v-65.3h-47v65.3h14.6v-17.2   C194.5,262.4,199.7,256.7,206.4,256.7L206.4,256.7z"/>
    <g><path class="st3" d="M227.2,286.5h-8.9l-0.3-17.5c0-6.6-5.2-11.9-11.6-11.9c-6.3,0-11.6,5.5-11.6,11.9v17.2l-14.9,0.3l-0.3-65.6    l47.3-0.3L227.2,286.5L227.2,286.5z M206.4,256.4c6.7,0,12.2,5.6,12.2,12.5v17.2l8-0.3v-65.1l-46.7,0.3l0.3,65l14.3-0.3l-0.3-16.9    C194.2,262.1,199.8,256.4,206.4,256.4L206.4,256.4z"/></g>
    <rect class="st3" height="39.6" width="21.6" x="196" y="176.6"/>
    <path class="st1"
          d="M217.5,210.1h-18.9v-6.7h-13.9v6.7h-9.4v-6.7h-5.6v12.2h47.8V210.1z M175.3,215.5h40.8v5.3h-40.8V215.5z"/>
    <g><path class="st3" d="M175.3,221.1l-0.3-5.3l-5.3,0.1l-0.3-12.5l5.9-0.3l0.3,7l9.1-0.3l-0.3-6.4l14.2-0.3l0.3,7l18.6-0.3v0.6h-18.9    l-0.3-7l-13.6,0.3l0.3,6.4l-9.7,0.3l-0.3-7l-5.3,0.3l0.3,11.9l46.1-0.3l0,0.1l1.4,0l-1.4,0l0.3,5.5L175.3,221.1L175.3,221.1z     M175.6,215.8v5l40.5-0.3l-0.3-5L175.6,215.8L175.6,215.8z"/></g>
    <path class="st1"
          d="M191.5,162.2v41.2h7.1v-11.3c0-4.2,3-7.7,7.2-7.9c0.1,0,0.3,0,0.4,0c4.4,0,7.9,3.5,7.9,7.9v11.3h6.7v-41.2   H191.5z"/>
    <g><path class="st3" d="M221.1,203.7h-7l-0.3-11.6c0-4.2-3.4-7.6-7.6-7.6c-4.3,0.2-7.3,3.5-7.3,7.6v11.3l-7.4,0.3l-0.3-41.5l29.6-0.3    L221.1,203.7L221.1,203.7z M205.7,183.9c4.9,0,8.6,3.7,8.6,8.2v11.3l6.1-0.3v-40.9l-29,0.3l0.3,40.9l6.8-0.3l-0.3-11    C198.3,187.6,201.5,184.1,205.7,183.9L205.7,183.9z"/></g>
    <rect class="st3" height="62.1" width="34.2" x="238.3" y="151.4"/>
    <path class="st1"
          d="M235.9,151.4v52h10.9V188c0-3.6,2.3-8.5,9.3-8.5c7,0,9.3,4.9,9.3,8.5v15.4h10.9v-52H256H235.9z M254.3,157.3   h1.7h1.7v17.8H256h-1.7V157.3z M244.7,160.8h3.4v13h-3.4V160.8z M263.9,160.8h3.4v13h-3.4V160.8z"/>
    <g><path class="st3" d="M276.4,203.7h-11.2L265,188c0-3-1.9-8.2-9-8.2c-7.1,0-9,5.2-9,8.2v15.4l-11.2,0.3l-0.3-52.3l40.5-0.3    L276.4,203.7L276.4,203.7z M256,179.2c7.5,0,9.6,5.5,9.6,8.8v15.4l10.3-0.3v-51.7l-40,0.3l0.3,51.7l10.6-0.3l-0.3-15.1    C246.4,184.7,248.5,179.2,256,179.2L256,179.2z M256,175.4h-1.7L254,157h3.7l0.3,18.1L256,175.4L256,175.4z M254.6,157.6v17.5    l1.4-0.3h1.7l-0.3-17.5L254.6,157.6L254.6,157.6z M263.9,174.1l-0.3-13.6h3.7l0.3,13.3L263.9,174.1L263.9,174.1z M264.2,161v12.8    l3.1-0.3l-0.3-12.7L264.2,161L264.2,161z M244.7,174.1l-0.3-13.6h3.7l0.3,13.3L244.7,174.1L244.7,174.1z M245,161v12.8l3.1-0.3    l-0.3-12.7L245,161L245,161z"/></g>
    <polygon class="st1" points="232.2,144 232.2,151.4 256,151.4 279.8,151.4 279.8,144 256,144  "/>
    <g><path class="st3" d="M280.1,151.6h-47.9l-0.3-7.7l47.9-0.3L280.1,151.6L280.1,151.6z M232.2,144.2l0.3,7.1l47-0.3V144L232.2,144.2    L232.2,144.2z"/></g>
    <polygon class="st1"
             points="227.7,135.3 227.7,144 256,144 284.3,144 284.3,135.3 277.2,135.3 277.2,140.1 269.2,140.1    269.2,135.3 260,135.3 260,140.1 256,140.1 252,140.1 252,135.3 242.8,135.3 242.8,140.1 234.8,140.1 234.8,135.3  "/>
    <g><path class="st3" d="M284.6,144.2h-56.9l-0.3-8.9l7.4-0.3l0.3,5l7.7-0.3l-0.3-4.4l9.4-0.3l0.3,5l3.7-0.3h4l-0.3-4.4l9.4-0.3l0.3,5    l7.7-0.3l-0.3-4.4l7.4-0.3L284.6,144.2L284.6,144.2z M234.5,135.3l-6.8,0.3l0.3,8.3l56-0.3v-8.3l-6.8,0.3l0.3,4.4l-8.3,0.3l-0.3-5    l-8.9,0.3l0.3,4.4l-8.3,0.3l-0.3-5l-8.9,0.3l0.3,4.4l-8.3,0.3L234.5,135.3L234.5,135.3z"/></g>
    <rect class="st1" height="5.6" width="34.1" x="189" y="156.6"/>
    <g><path class="st3" d="M223.4,162.5H189l-0.3-5.9l34.4-0.3L223.4,162.5L223.4,162.5z M222.8,156.6l-33.8,0.3l0.3,5.3l33.5-0.3V156.6    L222.8,156.6z"/></g>
    <polygon class="st1"
             points="184.6,146 184.6,156.6 225.5,156.6 225.5,146 219.2,146 219.2,151.4 211.6,151.4 211.6,146 200,146    200,151.4 192.3,151.4 192.3,146  "/>
    <g><path class="st3" d="M225.8,156.9h-41.2l-0.3-11l8.1-0.3l0.3,5.7l7.3-0.3l-0.3-5.1l11.9-0.3l0.3,5.7l7.3-0.3l-0.3-5.1l6.6-0.3    L225.8,156.9L225.8,156.9z M192,146l-7.5,0.3l0.3,10.4l40.4-0.3V146l-6,0.3l0.3,5.1l-7.9,0.3l-0.3-5.7l-11.3,0.3l0.3,5.1l-7.9,0.3    L192,146L192,146z"/></g>
    <rect class="st2" height="67.8" width="5.8" x="252.6" y="332.6"/>
    <g><path class="st3" d="M258.7,400.7h-6.1l-0.3-68.1l6.1-0.3L258.7,400.7L258.7,400.7z M258.1,332.6l-5.5,0.3l0.3,67.5l5.2-0.3V332.6    L258.1,332.6z"/></g>
    <path class="st2"
          d="M255.5,316l12.4,7.2l-12.4,7.2l-12.4-7.2L255.5,316z M238.9,320.6h-3.2v5.2h3.2l16.6,9.6l16.6-9.6h3.2v-5.2   h-3.2l-16.6-9.6L238.9,320.6z"/>
    <g><path class="st3" d="M255.5,335.8l-16.7-9.7l-3.1,0l-0.3-5.5l3.6-0.3l16.4-9.6l16.9,9.6l3.1,0l0.3,5.5l-3.6,0.3L255.5,335.8    L255.5,335.8z M238.9,325.5l16.6,9.6l16.4-9.5l3.4,0l-0.3-4.9l-2.9,0.3l-16.7-9.7l-16.3,9.6l-3.4,0l0.3,4.9L238.9,325.5    L238.9,325.5z M255.6,330.7l-12.7-7.2l12.5-7.8l12.5,7.3L255.6,330.7L255.6,330.7z M255.5,316.3l-12.2,7.1l12.4,6.7l12.1-7.2    L255.5,316.3L255.5,316.3z"/></g>
    <path class="st2"
          d="M236,281.9l-1.4,3.9c4.5,1.6,10.8,4.8,15.9,7.8c2.5,1.5,4.8,3,6.3,4.3c0.8,0.6,1.4,1.2,1.7,1.6   c0,0,0.1,0.1,0.1,0.1c0,0,0,0,0,0c0,0.1,0.1,0.1,0.1,0.1c0,0.3-0.1,0.5-0.1,0.7c0,0,0,0.1,0,0.1c0,0,0,0,0,0c0,0,0,0,0,0   c0,0,0,0.1-0.1,0.1c0,0,0,0,0,0c0,0,0,0,0,0c0,0-0.1,0-0.1,0c0,0-0.1,0.1-0.1,0.1c-0.2,0.1-0.4,0.1-0.9,0.1c-0.3,0-0.5,0-0.6-0.1   c-0.1,0-0.1,0-0.2,0c0,0-0.1,0-0.1,0c0,0-0.1,0-0.1-0.1c0,0,0,0,0,0c0,0,0,0,0,0c0,0,0-0.1,0-0.1h0c0,0,0,0,0,0h0h-0.1   c-0.1,0-0.2,0-0.3,0c-1.3,0.1-2.5,1.1-2.8,2.4v0c0,0,0,0,0,0c0,0,0,0.1,0.1,0.1c0.9,1.1,2.5,1.9,4.3,1.9c1.9,0,3.5-0.8,4.4-2   c0.9-1.2,1.1-2.5,1.1-3.6c0-1.3-0.6-2-1.2-2.7c-0.6-0.7-1.4-1.4-2.3-2.2c-1.8-1.5-4.1-3-6.8-4.6C247.4,286.9,240.9,283.6,236,281.9   L236,281.9z"/>
    <g><path class="st3" d="M257.3,305.4c-1.8,0-3.5-0.7-4.5-2c0.2-1.7,1.5-2.8,2.9-2.9l1.6,0.4c0.5,0,0.7-0.1,0.8-0.1    c0.3-0.5,0.4-0.7,0.4-0.9c-0.4-0.6-1-1.2-1.8-1.8c-1.5-1.2-3.6-2.7-6.3-4.3c-5.2-3.1-11.5-6.2-15.9-7.8l1.3-4.2    c5,1.6,11.4,4.7,17,8.1c2.9,1.8,5.1,3.3,6.8,4.7c0.9,0.7,1.7,1.4,2.3,2.2c0.6,0.7,1.2,1.5,1.2,2.9c0,1.5-0.4,2.7-1.2,3.8    C261,304.6,259.2,305.4,257.3,305.4L257.3,305.4z M256.1,300.9c-1.6,0.1-2.6,1-3,2.3c2.1,2.2,6.7,2.2,8.5-0.1    c0.7-0.9,1.1-2.1,1.1-3.5c0-1.2-0.6-1.9-1.1-2.6c-0.6-0.7-1.4-1.4-2.2-2.1c-1.6-1.3-3.8-2.9-6.8-4.6c-5.6-3.4-11.9-6.5-16.6-8.2    l-1.1,3.7c4.2,1.3,10.7,4.4,15.8,7.6c2.7,1.6,4.8,3.1,6.3,4.3c0.8,0.6,1.4,1.2,1.7,1.6c0.2,0.8,0.2,1.1,0.1,1.3l-0.4,0.5    c-0.5,0.3-1.4,0.2-1.7,0.1L256.1,300.9L256.1,300.9z"/></g>
    <g><path class="st4" d="M253.7,291l-0.4,3.9L253.7,291z"/></g>
    <g><path class="st4" d="M257,293l-1,3.8L257,293z"/></g>
    <g><path class="st4" d="M260.4,295.7l-2.1,3L260.4,295.7z"/></g>
    <g><path class="st3" d="M261.5,303.2c0,0-0.1,0-0.1,0l-3.1-1.6l3.3,1.1c0.1,0.1,0.2,0.3,0.1,0.4C261.7,303.1,261.6,303.2,261.5,303.2    L261.5,303.2z"/></g>
    <g><path class="st4" d="M262.4,299.7L259,300L262.4,299.7z"/></g>
    <g><path class="st3" d="M257.9,305c-0.2,0-0.3-0.1-0.3-0.3l-0.2-3.1l0.8,3C258.3,304.9,258.1,305,257.9,305    C258,305,258,305,257.9,305L257.9,305z"/></g>
    <g><path class="st4" d="M256.7,301.2l-2.9,2.1L256.7,301.2z"/></g>
    <g><path class="st4" d="M242.8,285.1v3.6V285.1z"/></g>
    <g><path class="st4" d="M250.1,289v4.1V289z"/></g>
    <g><path class="st4" d="M246.5,287v3.9V287z"/></g>
    <path class="st2"
          d="M255.2,298.3c-2.7,0.4-4.8,2.9-4.8,5.8V317c0,3.2,2.5,5.8,5.6,5.8c0.1,0,0.1,0,0.2,0c0.1,0,0.1,0,0.2,0   c2.2,0,4.1-1.3,5-3.2l-2-1.2c-0.5,1.2-1.7,2.1-3,2.1c0,0-0.1,0-0.1,0h-0.1c0,0,0,0-0.1,0c0,0-0.1,0-0.1,0c-1.8,0-3.3-1.5-3.3-3.4   v-12.9c0-1.9,1.5-3.4,3.3-3.4c0,0,0.1,0,0.1,0c0,0,0.1,0,0.1,0h0.1c0,0,0.1,0,0.1,0c0.5,0,1,0.1,1.4,0.3c0,0,0,0,0,0   c0.1,0,0.2,0,0.3-0.1c0,0,0.1-0.1,0.1-0.1c0,0,0,0,0,0h0c0,0,0,0,0,0c0,0,0,0,0,0c0,0,0.1-0.1,0.1-0.1c0,0,0,0,0,0l0,0   c0,0,0-0.1,0-0.1c0.1-0.2,0.1-0.5,0.1-0.7c0,0,0-0.1-0.1-0.1v0c0,0-0.1-0.1-0.1-0.1c-0.2-0.3-0.6-0.7-1.1-1.1h0c0,0-0.1,0-0.1,0h0   c0,0-0.1,0-0.1,0c0,0,0,0,0,0c0,0-0.1,0-0.1,0c0,0-0.1,0-0.1,0c-0.1,0-0.3,0-0.4,0c-0.1,0-0.1,0-0.2,0c-0.1,0-0.1,0-0.2,0   c-0.1,0-0.3,0-0.4,0c0,0-0.1,0-0.1,0c0,0-0.1,0-0.1,0c0,0,0,0,0,0s-0.1,0-0.1,0H255.2C255.3,298.3,255.3,298.3,255.2,298.3   L255.2,298.3z M262,302.9c-0.1,0.1-0.1,0.2-0.2,0.3c-0.5,0.6-1.2,1.1-2,1.5v8.8l2.3,1.4v-10.8C262.1,303.7,262.1,303.3,262,302.9   C262,302.9,262,302.9,262,302.9L262,302.9z"/>
    <g><path class="st3" d="M256.4,323.1L256.4,323.1c-3.6,0-6.2-2.7-6.2-6.1v-12.9c0-3,2.2-5.6,5-6.1l0.6,0l1.3,0c1,0.6,1.5,0.9,1.7,1.2    c0.2,0.7,0.2,1.1,0.1,1.4l-1.1,0.7c-0.4-0.2-0.8-0.3-1.3-0.3c-2.1,0-3.4,1.4-3.4,3.1V317c0,1.7,1.3,3.1,3,3.1    c1.6,0,2.7-0.7,3.2-1.9l2.4,1.1c-0.9,2.5-2.9,3.8-5.2,3.8L256.4,323.1L256.4,323.1z M255.8,298.6c-3.1,0.4-5,2.7-5,5.5V317    c0,3,2.4,5.5,5.3,5.5l0.3,0.3l0.1-0.3c2.1,0,3.9-1.2,4.8-3.1l-1.9-0.8c-0.1,1.2-1.4,2.1-2.9,2.1c-2.4,0-4-1.6-4-3.7v-12.9    c0-2.1,1.6-3.7,3.6-3.7c1,0,1.5,0.1,2,0.4c0.3-0.5,0.4-0.7,0.4-1c-0.3-0.4-0.7-0.7-1.2-1.2l-0.7,0L255.8,298.6L255.8,298.6z     M262.4,315.4l-2.8-1.6l-0.2-9.1c1-0.6,1.6-1.1,2.1-1.7l0.5-0.4c0.4,0.6,0.4,1.1,0.4,1.5V315.4L262.4,315.4z M261.7,303    c-0.2,1.1-0.9,1.6-1.8,2l0.2,8.5l1.7,0.9v-10.3C261.8,303.7,261.8,303.3,261.7,303L261.7,303z"/></g>
    <path class="st1"
          d="M305.6,256.7c-6.6,0-11.9,5.5-11.9,12.2v17.2h-8.6v-65.3h47v65.3h-14.6v-17.2   C317.5,262.4,312.3,256.7,305.6,256.7L305.6,256.7z"/>
    <g><path class="st3" d="M332.4,286.5h-14.9l-0.3-17.5c0-6.5-5.3-11.9-11.6-11.9c-6.4,0-11.6,5.3-11.6,11.9v17.2l-8.9,0.3l-0.3-65.6    l47.3-0.3L332.4,286.5L332.4,286.5z M305.6,256.4c6.6,0,12.2,5.7,12.2,12.5v17.2l14-0.3v-65l-46.7,0.3l0.3,65l8.3-0.3l-0.3-16.9    C293.4,262,298.9,256.4,305.6,256.4L305.6,256.4z"/></g>
    <polygon class="st1" points="217.2,220.8 217.2,226.2 256,226.2 294.8,226.2 294.8,220.8 256,220.8  "/>
    <g><path class="st3" d="M295.1,226.5h-77.9l-0.3-5.7l77.9-0.3L295.1,226.5L295.1,226.5z M217.2,221.1l0.3,5.1l77-0.3v-5.1    L217.2,221.1L217.2,221.1z"/></g>
    <rect class="st3" height="39.6" width="21.6" x="294.4" y="176.6"/>
    <path class="st1"
          d="M294.5,210.1h18.9v-6.7h13.9v6.7h9.4v-6.7h5.6v12.2h-47.8V210.1z M336.7,215.5h-40.8v5.3h40.8V215.5z"/>
    <g><path class="st3" d="M295.9,221.1l-0.3-5.3l-1.1,0l1.1,0l0-0.3l41.4-0.3v0.1l5.3-0.1l-0.3-11.9l-5.3,0.3l0.3,6.4l-9.7,0.3l-0.3-7    l-13.6,0.3l0.3,6.4l-19.2,0.3v-0.6h18.9l-0.3-6.4l14.2-0.3l0.3,7l9.1-0.3l-0.3-6.4l5.9-0.3l0.3,12.5l-5.6,0v5.2L295.9,221.1    L295.9,221.1z M295.9,215.9l0.3,5l40.5-0.3l-0.3-4.7L295.9,215.9L295.9,215.9z"/></g>
    <path class="st1"
          d="M320.5,162.2v41.2h-7.1v-11.3c0-4.2-3-7.7-7.2-7.9c-0.1,0-0.3,0-0.4,0c-4.4,0-7.9,3.5-7.9,7.9v11.3h-6.7v-41.2   H320.5z"/>
    <g><path class="st3" d="M320.8,203.7h-7.4l-0.3-11.6c0-4.1-3-7.4-6.9-7.6c-4.6,0-8,3.4-8,7.6v11.3l-7,0.3l-0.3-41.5l29.6-0.3    L320.8,203.7L320.8,203.7z M305.8,183.9c4.7,0.2,7.9,3.8,7.9,8.2v11.3l6.5-0.3v-40.9l-29,0.3l0.3,40.9l6.4-0.3l-0.3-11    C297.6,187.6,301.3,183.9,305.8,183.9L305.8,183.9z"/></g>
    <polygon class="st1"
             points="214,203.4 214,220.8 256,220.8 298,220.8 298,203.4 290,203.4 290,210.1 279.4,210.1 279.4,203.4    265.3,203.4 265.3,210.1 256,210.1 246.7,210.1 246.7,203.4 232.6,203.4 232.6,210.1 222,210.1 222,203.4  "/>
    <g><path class="st3" d="M298.3,221.1H214l-0.3-17.7l8.2-0.3l0.3,7l10.3-0.3l-0.3-6.4l14.5-0.3l0.3,7l18.2-0.3l-0.3-6.4l14.5-0.3    l0.3,7l10.3-0.3l-0.3-6.4l8.3-0.3L298.3,221.1L298.3,221.1z M221.7,203.4l-7.6,0.3l0.3,17.1l83.3-0.3v-17.1l-7.7,0.3l0.3,6.4    l-10.9,0.3l-0.3-7l-13.9,0.3l0.3,6.4l-18.8,0.3l-0.3-7l-13.9,0.3l0.3,6.4l-10.9,0.3L221.7,203.4L221.7,203.4z"/></g>
    <rect class="st1" height="5.6" width="34.1" x="288.9" y="156.6"/>
    <g><path class="st3" d="M323.3,162.5h-34.4l-0.3-5.9l34.4-0.3L323.3,162.5L323.3,162.5z M322.7,156.6l-33.8,0.3l0.3,5.3l33.5-0.3    V156.6L322.7,156.6z"/></g>
    <polygon class="st1"
             points="327.4,146 327.4,156.6 286.5,156.6 286.5,146 292.8,146 292.8,151.4 300.4,151.4 300.4,146 312,146    312,151.4 319.7,151.4 319.7,146  "/>
    <g><path class="st3" d="M327.7,156.9h-41.2l-0.3-11l6.6-0.3l0.3,5.7l7.3-0.3l-0.3-5.1l11.9-0.3l0.3,5.7l7.3-0.3l-0.3-5.1l8.1-0.3    L327.7,156.9L327.7,156.9z M292.5,146l-6,0.3l0.3,10.4l40.4-0.3V146l-7.5,0.3l0.3,5.1l-7.9,0.3l-0.3-5.7l-11.3,0.3l0.3,5.1    l-7.9,0.3L292.5,146L292.5,146z"/></g>
    <rect class="st2" height="58.4" width="5.8" x="252.6" y="338.5"/>
    <g><path class="st3" d="M258.7,397.2h-6.1l-0.3-58.7l6.1-0.3L258.7,397.2L258.7,397.2z M258.1,338.5l-5.5,0.3l0.3,58.1l5.2-0.3V338.5    L258.1,338.5z"/></g>
    <path class="st1"
          d="M224.1,226.2v63.4h15v-23.7c0-11.2,7.5-16.4,16.9-16.4c9.1,0,16.9,5.3,16.9,16.4v23.7h15v-63.4H256H224.1z"/>
    <g><path class="st3" d="M287.9,289.9h-15l-0.3-24c0-11.9-8.9-16.1-16.6-16.1c-10.2,0-16.6,6.2-16.6,16.1v23.7l-15.3,0.3l-0.3-63.7    l64-0.3l0.3,63.7C288.2,289.7,288,289.9,287.9,289.9L287.9,289.9z M256,249.1c7.9,0,17.2,4.4,17.2,16.7v23.7l14.4-0.3v-63.1    l-63.4,0.3l0.3,63.1l14.7-0.3l-0.3-23.4C238.8,255.5,245.4,249.1,256,249.1L256,249.1z"/></g></g></svg>
