<?xml version="1.0" ?>
<svg id="Layer_1" style="enable-background:new 0 0 512 512;" version="1.1" viewBox="0 0 512 512" xml:space="preserve"
     xmlns="http://www.w3.org/2000/svg"><style type="text/css">
	.st0 {
    fill: #3F9645;
  }

  .st1 {
    fill: #F4C327;
  }
</style>
  <g><rect class="st0" height="298.7" width="512" y="106.7"/>
    <path class="st1"
          d="M256,122.2c53.3,0,96.4,43.2,96.4,96.5c0,53.3-43.2,96.5-96.4,96.5c-53.3,0-96.5-43.2-96.5-96.5   C159.6,165.4,202.7,122.2,256,122.2"/>
    <path class="st0" d="M162.7,193.8c0,51.6,41.8,93.3,93.3,93.3c51.5,0,93.3-41.8,93.3-93.3v-74.7H162.7"/>
    <polygon class="st1" points="256,156.4 244.5,191.9 262.2,197.7  "/>
    <polygon class="st1" points="256,156.4 267.5,191.9 249.8,197.7  "/>
    <polygon class="st1" points="291.5,182.2 254.2,182.2 254.2,200.9  "/>
    <polygon class="st1" points="291.5,182.2 261.3,204.2 250.3,189.1  "/>
    <polygon class="st1" points="220.5,182.2 250.7,204.2 261.7,189.1  "/>
    <polygon class="st1" points="220.5,182.2 257.8,182.2 257.8,200.9  "/>
    <polygon class="st1" points="277.9,224 266.4,188.5 248.6,194.2  "/>
    <polygon class="st1" points="277.9,224 247.7,202 258.7,186.9  "/>
    <polygon class="st1" points="234.1,224 264.3,202 253.3,186.9  "/>
    <polygon class="st1" points="234.1,224 245.6,188.5 263.4,194.2  "/></g></svg>
