<?xml version="1.0" ?>
<svg id="Layer_1" style="enable-background:new 0 0 512 512;" version="1.1" viewBox="0 0 512 512" xml:space="preserve"
     xmlns="http://www.w3.org/2000/svg"><style type="text/css">
	.st0 {
    fill: #C8252B;
  }

  .st1 {
    fill: #34439B;
  }

  .st2 {
    fill-rule: evenodd;
    clip-rule: evenodd;
    fill: #FFFFFF;
  }
</style>
  <g><rect class="st0" height="298.7" width="512" y="106.7"/>
    <rect class="st1" height="148.2" width="232.8" y="106.7"/>
    <path class="st2"
          d="M135.6,181.5c0,10.6-8.7,19.3-19.5,19.3c-10.8,0-19.5-8.6-19.5-19.3s8.7-19.3,19.5-19.3   C126.9,162.2,135.6,170.9,135.6,181.5L135.6,181.5z M74.8,177.2l2.3-8.9l6.3,2.6l3.4-7.2l-5.5-3.5l5.5-7.5l5.2,5.2l5.7-5.2   l-3.4-5.8l8.3-4.3l2,7.2l7.7-2.3l-0.9-6.6l8.9-0.3l-0.6,6.9l8,2.6l2-7.2l8,4l-3.7,6l6.3,4.9l4.9-5.2l5.5,6.9l-5.7,4l3.7,7.2   l6.3-2.3l2,8.9l-6.6,0.6l-0.3,8.1l6.6,0.6l-2,9.2l-6.6-2.9l-2.9,7.5l5.5,3.5l-5.5,7.2l-4.6-5.2l-6.3,5.2l3.7,6l-8.3,4l-2.3-6.9   l-7.8,2l0.9,6.9l-9.2,0.3l0.9-6.9l-7.5-2l-2.6,6.6l-7.8-4l3.7-5.8l-6.6-4.9l-4.9,4.9l-5.7-6.9l6-4.3l-3.7-6.9l-6,2.3l-2.6-8.9   l7.2-0.6v-8.1L74.8,177.2z"/>
    <polygon class="st2"
             points="122.6,136.1 116.4,131.8 110.1,136 112.3,128.9 106.3,124.4 113.9,124.3 116.4,117.2 118.9,124.3    126.5,124.4 120.4,128.9  "/>
    <polygon class="st2"
             points="121.8,244.2 115.5,240 109.3,244.2 111.5,237.1 105.4,232.6 113,232.4 115.6,225.4 118,232.5    125.7,232.6 119.6,237.1  "/>
    <polygon class="st2"
             points="147.9,141.2 141.6,137 135.4,141.2 137.6,134.1 131.6,129.6 139.2,129.4 141.7,122.4 144.2,129.5    151.8,129.6 145.7,134.1  "/>
    <polygon class="st2"
             points="147,239.6 140.8,235.4 134.5,239.6 136.7,232.5 130.7,228 138.3,227.8 140.8,220.8 143.3,227.9    150.9,228 144.8,232.5  "/>
    <polygon class="st2"
             points="98.5,141.2 92.3,137 86,141.2 88.2,134.1 82.2,129.6 89.8,129.4 92.3,122.4 94.8,129.5 102.4,129.6    96.3,134.1  "/>
    <polygon class="st2"
             points="97.7,238.5 91.4,234.2 85.2,238.5 87.4,231.3 81.3,226.8 88.9,226.7 91.5,219.7 93.9,226.7    101.5,226.9 95.5,231.4  "/>
    <polygon class="st2"
             points="79,155 72.8,150.8 66.5,155 68.7,147.9 62.7,143.4 70.3,143.2 72.8,136.2 75.3,143.3 82.9,143.4    76.8,147.9  "/>
    <polygon class="st2"
             points="79,221.8 72.8,217.5 66.5,221.8 68.7,214.7 62.7,210.1 70.3,210 72.8,203 75.3,210 82.9,210.2    76.8,214.7  "/>
    <polygon class="st2"
             points="69.2,175.8 63,171.5 56.7,175.7 59,168.6 52.9,164.1 60.5,164 63,156.9 65.5,164 73.1,164.2    67.1,168.6  "/>
    <polygon class="st2"
             points="69.2,198.8 63,194.5 56.7,198.7 59,191.6 52.9,187.1 60.5,187 63,180 65.5,187 73.1,187.2 67.1,191.7     "/>
    <polygon class="st2"
             points="151.5,156.2 157.8,151.9 164,156.2 161.8,149 167.8,144.5 160.2,144.4 157.7,137.4 155.2,144.4    147.6,144.6 153.7,149.1  "/>
    <polygon class="st2"
             points="153.2,222.9 159.5,218.7 165.7,222.9 163.5,215.8 169.6,211.3 162,211.2 159.4,204.1 157,211.2    149.3,211.3 155.4,215.8  "/>
    <polygon class="st2"
             points="161.9,177.5 168.1,173.2 174.4,177.5 172.1,170.3 178.2,165.8 170.6,165.7 168,158.7 165.6,165.7    158,165.9 164,170.4  "/>
    <polygon class="st2"
             points="163.6,199.9 169.8,195.7 176.1,199.9 173.8,192.8 179.9,188.3 172.3,188.1 169.8,181.1 167.3,188.2    159.7,188.3 165.8,192.8  "/>
    <path class="st2"
          d="M143.6,162.3c3.9,13.8,1.2,21.3,0.2,21.4c-1.3-0.6-1.4-14.7-7.1-18.3c-5.3-3.3-2.2-6.5-0.7-7.7   C137.5,157.1,142,156.5,143.6,162.3L143.6,162.3z"/>
    <g><path class="st1" d="M143.7,184L143.7,184c-0.6-0.3-0.9-1.5-1.4-4.4c-0.8-4.6-2.1-11.6-5.8-14c-1.9-1.2-3-2.5-3.1-3.9    c-0.1-1.4,0.7-2.8,2.4-4.2c0.3-0.2,1.1-0.5,2.2-0.5c1.6,0,4.5,0.7,5.8,5.2c3.2,11.3,2.1,19,0.6,21.2    C144.2,183.8,144,184,143.7,184L143.7,184L143.7,184z M138,157.6c-1,0-1.8,0.3-2,0.4c-1.5,1.3-2.2,2.6-2.1,3.8    c0.1,1.2,1.1,2.4,2.9,3.5c3.9,2.5,5.2,9.6,6.1,14.3c0.3,1.7,0.6,3.5,1,3.9c0.1,0,0.2-0.1,0.3-0.3c0.9-1.5,2.8-8.5-0.7-20.7    C142.2,158.2,139.5,157.6,138,157.6L138,157.6z"/></g>
    <path class="st2"
          d="M128.7,180.3c-10,22.8-6.2,38.3-10,38.2c-3.9,0-5-14.2,2.3-38c9.2-29.9,20.8-27.4,22.3-19.1   C135.5,165.1,134.5,166,128.7,180.3L128.7,180.3z"/>
    <g><path class="st1" d="M118.8,218.7L118.8,218.7L118.8,218.7c-0.7,0-1.3-0.3-1.8-1c-2.6-3.5-2.5-16.7,3.8-37.4    c4.8-15.5,11.1-24.8,17.1-24.8c2.8,0,5.1,2.3,5.7,5.8c-7.8,3.9-8.8,4.8-14.6,19.1c-5.9,13.4-7,24.3-7.7,30.8    C120.8,216.1,120.5,218.7,118.8,218.7L118.8,218.7z M137.9,156.1c-2.1,0-9.7,1.8-16.6,24.4c-6,19.6-6.5,33.4-3.9,36.9    c0.4,0.5,0.8,0.8,1.3,0.8h0.1c1.3,0,1.6-2.6,2-7c0.7-6.6,1.8-17.6,7.7-31c5.8-14.5,6.9-15.3,14.7-19    C142.5,158.2,140.4,156.1,137.9,156.1L137.9,156.1z"/></g>
    <path class="st2"
          d="M141.6,187.9c1.6,14.8-3.3,21.2-4.5,21c-1.5-1,4.1-10.1-4.4-20.1c-4.9-5.7,0.4-3.6,2.4-4.3   C137,184.3,140.9,181.7,141.6,187.9L141.6,187.9z"/>
    <g><path class="st1" d="M137.1,209.2L137.1,209.2c-0.7-0.4-0.6-1.4-0.3-3c0.6-3.6,1.7-10.2-4.4-17.3c-1.7-2-2.3-3.2-2-3.9    c0.3-0.7,1.3-0.7,2.4-0.7c1.1,0,1.7,0,2.1-0.2c0.4,0,0.8-0.2,1.3-0.3c0.7-0.2,1.5-0.4,2.2-0.4c1.9,0,3,1.4,3.4,4.4    c1.6,14.4-2.9,19.9-3.4,20.5C138.1,208.7,137.6,209.2,137.1,209.2L137.1,209.2z M133.2,184.9c-1.3,0-2.1,0-2.3,0.4    c-0.2,0.3,0.1,1.2,1.9,3.3c6.2,7.3,5.1,14,4.5,17.7c-0.2,1.1-0.3,2.1-0.1,2.4c0.2,0,0.5-0.2,0.9-0.6c1.8-2,4.6-8.6,3.3-20.1    c-0.4-3.5-1.8-3.9-2.9-3.9c-0.7,0-1.4,0.2-2.1,0.4c-0.5,0.1-0.9,0.3-1.3,0.3C134.6,184.9,133.9,184.9,133.2,184.9L133.2,184.9    C133.2,184.9,133.2,184.9,133.2,184.9L133.2,184.9z"/></g>
    <path class="st2"
          d="M125.2,202.5c-3.9,8.9-5.6,19.8-10.1,18.4c-4.7-1.2-0.2-16.5,5.8-27.1c7.4-13,20.7-16.3,20.5-6.9   C132.2,188.4,128.2,195.3,125.2,202.5L125.2,202.5z"/>
    <g><path class="st1" d="M115.9,221.3c-0.3,0-0.5,0-0.8-0.1c-0.7-0.2-1.3-0.7-1.7-1.6c-1.9-4.4,2.3-17,7.3-25.9    c6.2-10.9,16.2-14.6,19.6-11.1c1,1,1.4,2.4,1.4,4.3c-9.2,1.7-13.2,8.5-16.2,15.7c-1.1,2.6-2.1,5.3-2.9,7.9    C120.4,216.5,118.8,221.3,115.9,221.3L115.9,221.3z M136.7,181.8c-4.3,0-11,4.2-15.6,12.2c-4.9,8.6-9.1,21.2-7.3,25.4    c0.3,0.7,0.7,1.1,1.3,1.3c3.1,0.9,4.8-4.3,6.9-10.4c0.9-2.6,1.8-5.3,2.9-7.9c3-7.3,7.1-14.3,16.3-15.8c-0.2-1.5-0.6-2.8-1.4-3.7    C139.1,182.2,138,181.8,136.7,181.8L136.7,181.8z"/></g>
    <path class="st2"
          d="M91.6,178.8c-3.9,16.8-3.1,27.1-2,26.9c1.4,0.2,1-16,7.8-22.6c6.3-6.4,2.7-5.1,1.3-7.5   C95.8,174.3,93.6,170.9,91.6,178.8L91.6,178.8z"/>
    <g><path class="st1" d="M89.6,205.9l-0.4-0.2c-1.1-1.4-1.3-11.8,2.2-27c1.4-5.6,3.4-5.7,5.8-4.2c0.5,0.3,1,0.6,1.6,0.8    c0.5,0.7,1,1,1.4,1.3c0.5,0.4,1,0.7,1,1.3c0.1,0.8-0.5,2-3.7,5.2c-4.4,4.3-5.7,13-6.5,18.1C90.5,204.7,90.3,205.9,89.6,205.9    L89.6,205.9L89.6,205.9L89.6,205.9z M94.8,174c-0.7,0-1.8,0.5-2.9,4.8c-3.8,16.6-3,25.9-2.3,26.5c0.4-0.3,0.7-2.2,0.9-4.2    c0.8-5.2,2.1-13.9,6.7-18.4c2.5-2.5,3.6-4,3.5-4.8c0-0.4-0.3-0.6-0.8-1c-0.4-0.3-1-0.7-1.4-1.4c-0.5-0.1-1-0.4-1.5-0.7    C96.2,174.4,95.4,174,94.8,174L94.8,174z"/></g>
    <path class="st2"
          d="M107.1,196.9c4.6,11.3,7.6,25.2,11.4,23.4c4-1.7-2.4-21-8.8-34.7c-5.5-10.8-9.5-12.1-15.6-11.8   C101.2,176.6,103.4,187.7,107.1,196.9L107.1,196.9z"/>
    <g><path class="st1" d="M117.8,220.7L117.8,220.7c-2.6,0-4.7-6-7.3-13.7c-1.1-3.3-2.3-6.8-3.7-10c-0.8-1.9-1.4-3.9-2.1-5.8    c-2.7-7.7-5.2-14.9-10.7-17.1c0.6-0.5,1.1-0.5,1.6-0.5c5.3,0,9.2,1.9,14.3,12c5.2,11,11.6,28.8,9.7,33.8c-0.2,0.6-0.6,1-1.1,1.2    C118.3,220.6,118.1,220.7,117.8,220.7L117.8,220.7z M95.6,174c-0.5,0-1,0-1.5,0c5.8,1.8,8.4,9.1,11.1,16.9c0.7,2,1.4,3.9,2.1,5.8    c1.3,3.3,2.5,6.8,3.7,10.1c2.4,6.9,4.6,13.3,6.8,13.3l0,0c0.2,0,0.4,0,0.6-0.1c0.3-0.2,0.6-0.5,0.8-0.9c1.6-4.4-3.8-20.7-9.7-33.4    C104.5,175.9,100.7,174,95.6,174L95.6,174z"/></g>
    <path class="st2"
          d="M107.9,190.6c3.5,14.4,4.9,31.7,9,29.9c4.2-1.6-0.1-25.9-5.1-43.3c-4.3-13.8-11-13.6-17.2-14   C104.4,168.1,105.2,178.9,107.9,190.6L107.9,190.6z"/>
    <g><path class="st1" d="M116.3,220.9c-2.7,0-4.2-7.8-6.1-17.6c-0.8-4.1-1.6-8.5-2.6-12.7c-0.4-1.6-0.7-3.2-1-4.8    c-2-9.8-3.8-18.2-12.2-22.4l0.9-0.4c5.8,0.3,12.4,0.7,16.6,14.1c4.7,16.6,9.6,41.9,5,43.6L116.3,220.9L116.3,220.9z M94.5,163.5    c8.7,3.8,10.5,12.4,12.6,22.3c0.3,1.6,0.7,3.2,1,4.8c1,4.2,1.8,8.6,2.6,12.7c1.7,8.8,3.2,17.2,5.6,17.2v0.3l0.5-0.3    c3.8-1.4,0.2-23.8-5.3-43c-4.1-13.1-10.2-13.4-16.2-13.8L94.5,163.5L94.5,163.5z"/></g>
    <path class="st2"
          d="M93.5,163.9c-9,7.4-9,22.4-7.3,22.7c1.8,0.3,2.8-11.9,8.3-16.4c5.8-4.6,6.7-2.1,13.3-1.6   C106,164.6,100.9,157.5,93.5,163.9L93.5,163.9z"/>
    <g><path class="st1" d="M86.3,186.8l-0.1,0c-0.3,0-0.6-0.4-0.8-1.1c-1.1-3.8,0.4-15.8,7.9-22c2-1.7,4-2.6,6-2.6c4,0,7.1,3.8,8.7,7.3    c-2.1,0.2-3.6-0.1-4.8-0.4c-2.7-0.6-4.1-1.3-8.6,2.3c-3.2,2.7-4.9,8-6.1,11.9C87.7,185,87.2,186.8,86.3,186.8L86.3,186.8z     M99.3,161.6c-1.8,0-3.7,0.8-5.6,2.5c-7.9,6.4-8.6,18.5-7.8,21.5c0.2,0.6,0.3,0.7,0.4,0.7h0c0.5,0,1.2-2.2,1.8-4.2    c1.2-4,2.9-9.4,6.2-12.1c3.8-3.1,5.8-3.1,9-2.4c1.2,0.3,2.6,0.6,4.4,0.7C107,167.4,104.1,161.6,99.3,161.6L99.3,161.6z"/></g>
    <path class="st2"
          d="M112.7,149c1.2,2.4,1.1,4.9-0.4,5.6c-1.4,0.6-3.6-0.8-4.8-3.2c-1.2-2.4-1.1-4.9,0.4-5.6   C109.3,145.1,111.5,146.6,112.7,149L112.7,149z"/>
    <g><path class="st1" d="M111.5,154.9c-1.5,0-3.3-1.4-4.3-3.5c-0.8-1.6-1.1-3.3-0.6-4.6c0.2-0.6,0.6-1.1,1.1-1.3    c1.6-0.7,3.9,0.8,5.2,3.3c0.8,1.6,1.1,3.3,0.6,4.6c-0.2,0.6-0.6,1.1-1.1,1.3C112.1,154.9,111.8,154.9,111.5,154.9L111.5,154.9z     M108.6,145.9c-0.2,0-0.5,0-0.7,0.1c-0.4,0.2-0.7,0.5-0.9,1.1c-0.4,1.1-0.1,2.7,0.6,4.2c1.1,2.2,3.2,3.7,4.5,3.1    c0.4-0.2,0.7-0.5,0.9-1.1c0.4-1.1,0.1-2.7-0.6-4.2C111.5,147.2,109.9,145.9,108.6,145.9L108.6,145.9z"/></g>
    <path class="st2"
          d="M112.7,155.6c1,2.5,0.6,5-0.9,5.5c-1.5,0.5-3.5-1.1-4.5-3.6c-1-2.5-0.6-5,0.9-5.5   C109.7,151.5,111.7,153.1,112.7,155.6L112.7,155.6z"/>
    <g><path class="st1" d="M111.2,161.5c-1.5,0-3.3-1.6-4.2-3.9c-0.7-1.7-0.8-3.4-0.2-4.6c0.3-0.6,0.7-1,1.3-1.2l0.7-0.1    c1.5,0,3.3,1.6,4.2,3.9c0.7,1.7,0.8,3.4,0.2,4.6c-0.3,0.6-0.7,1-1.3,1.2L111.2,161.5L111.2,161.5z M108.8,152.2    c-0.9,0.2-1.3,0.6-1.5,1c-0.5,1-0.4,2.7,0.2,4.2c0.8,2,2.4,3.5,3.7,3.5v0.3l0.5-0.3c0.4-0.1,0.7-0.5,1-1c0.5-1,0.4-2.7-0.2-4.2    C111.7,153.6,110.1,152.2,108.8,152.2L108.8,152.2z"/></g>
    <path class="st2"
          d="M117.4,154.5c0.3,2.7-0.7,5-2.2,5.1c-1.6,0.1-3.1-1.9-3.5-4.6c-0.3-2.7,0.7-5,2.2-5.1   C115.5,149.7,117,151.8,117.4,154.5L117.4,154.5z"/>
    <g><path class="st1" d="M115,159.8c-1.7,0-3.2-2.1-3.6-4.8c-0.2-1.8,0.1-3.5,0.9-4.5c0.4-0.5,0.9-0.8,1.5-0.9c0,0,0,0,0,0    c1.8,0,3.4,2.1,3.7,4.8c0.2,1.8-0.1,3.5-0.9,4.5c-0.4,0.5-0.9,0.8-1.5,0.9L115,159.8L115,159.8z M114.1,150.1    c-0.6,0-1,0.3-1.3,0.7c-0.7,0.9-1,2.5-0.8,4.1c0.3,2.4,1.7,4.4,3.1,4.4v0.3l0.1-0.3c0.4,0,0.8-0.3,1.2-0.7c0.7-0.9,1-2.5,0.8-4.1    C116.8,152.1,115.4,150.1,114.1,150.1L114.1,150.1z"/></g>
    <path class="st2"
          d="M114.1,162c0.5,2.7-0.3,5-1.9,5.3c-1.6,0.2-3.3-1.7-3.8-4.4c-0.5-2.6,0.3-5,1.9-5.2   C111.9,157.4,113.6,159.4,114.1,162L114.1,162z"/>
    <g><path class="st1" d="M112,167.6c-1.6,0-3.3-2-3.8-4.6c-0.4-1.8-0.1-3.5,0.6-4.6c0.4-0.5,0.9-0.9,1.5-1c2-0.1,3.6,1.9,4.1,4.6    c0.4,1.8,0.1,3.5-0.6,4.6c-0.4,0.6-0.9,0.9-1.5,1L112,167.6L112,167.6z M110.6,157.9c-0.7,0.1-1.1,0.4-1.4,0.8    c-0.7,0.9-0.9,2.5-0.5,4.2c0.5,2.3,1.9,4.2,3.3,4.2v0.2l0.2-0.3c0.4-0.1,0.8-0.3,1.1-0.8c0.7-0.9,0.9-2.5,0.5-4.2    C113.4,159.7,112,157.9,110.6,157.9L110.6,157.9z"/></g>
    <path class="st2"
          d="M114.1,168.1c0.5,2.6-0.3,5-1.9,5.2c-1.6,0.3-3.3-1.7-3.8-4.4c-0.5-2.7,0.3-5,1.9-5.3   C111.9,163.5,113.6,165.4,114.1,168.1L114.1,168.1z"/>
    <g><path class="st1" d="M112,173.6c-1.6,0-3.2-2-3.8-4.6c-0.4-1.8-0.1-3.5,0.6-4.6c0.4-0.6,0.9-0.9,1.5-1c0,0,0,0,0,0    c1.9,0,3.5,2,4.1,4.6c0.4,1.8,0.1,3.5-0.6,4.6c-0.4,0.6-0.9,0.9-1.5,1L112,173.6L112,173.6z M110.6,163.9    c-0.7,0.1-1.1,0.4-1.4,0.8c-0.7,0.9-0.9,2.5-0.5,4.2c0.5,2.3,1.9,4.2,3.3,4.2v0.3l0.2-0.3c0.4-0.1,0.8-0.3,1.1-0.8    c0.7-0.9,0.9-2.5,0.5-4.2C113.4,165.8,112,163.9,110.6,163.9L110.6,163.9z"/></g>
    <path class="st2"
          d="M118.9,161.8c-0.1,2.7-1.5,4.8-3.1,4.6c-1.6-0.2-2.7-2.5-2.6-5.2c0.1-2.7,1.5-4.8,3.1-4.6   C117.9,156.8,119.1,159.1,118.9,161.8L118.9,161.8z"/>
    <g><path class="st1" d="M116,166.7l-0.2,0c-1.7-0.2-3-2.6-2.8-5.4c0.1-2.7,1.5-4.9,3.2-4.9c1.9,0.2,3.2,2.6,3,5.4    C119,164.5,117.6,166.7,116,166.7L116,166.7z M116.3,156.9c-1.5,0-2.7,2-2.8,4.4c-0.1,2.6,0.9,4.8,2.4,4.9l0.1,0.3v-0.2    c1.4,0,2.6-2,2.7-4.4C118.8,159.2,117.8,157,116.3,156.9C116.3,156.9,116.3,156.9,116.3,156.9L116.3,156.9z"/></g>
    <path class="st2"
          d="M118.9,167.8c-0.1,2.7-1.5,4.8-3.1,4.6c-1.6-0.2-2.7-2.5-2.6-5.2c0.1-2.7,1.5-4.8,3.1-4.6   C117.9,162.8,119.1,165.1,118.9,167.8L118.9,167.8z"/>
    <g><path class="st1" d="M116,172.7l-0.2,0c-1.7-0.2-3-2.6-2.8-5.4c0.1-2.7,1.5-4.9,3.2-4.9c1.9,0.2,3.2,2.6,3,5.5    C119,170.6,117.6,172.7,116,172.7L116,172.7z M116.3,162.9c-1.5,0-2.7,2-2.8,4.4c-0.1,2.6,0.9,4.8,2.4,4.9l0.1,0.3v-0.2    c1.4,0,2.6-2,2.7-4.4C118.8,165.2,117.8,163,116.3,162.9C116.3,162.9,116.3,162.9,116.3,162.9L116.3,162.9z"/></g>
    <path class="st2"
          d="M111,175c0,2.7-1.3,4.8-2.9,4.8c-1.6-0.1-2.9-2.3-2.8-5c0-2.7,1.3-4.8,2.9-4.8C109.7,170.1,111,172.3,111,175   L111,175z"/>
    <g><path class="st1" d="M108.2,180.1L108.2,180.1c-1.8-0.1-3.2-2.5-3.2-5.3c0-2.8,1.3-5,3-5c1.8,0.1,3.2,2.5,3.2,5.3    C111.2,177.9,109.9,180.1,108.2,180.1L108.2,180.1z M108.1,170.3c-1.5,0-2.6,2-2.6,4.5c0,2.5,1.2,4.7,2.6,4.8l0.1,0.3v-0.2    c1.4,0,2.5-2,2.6-4.5C110.7,172.5,109.5,170.3,108.1,170.3C108.1,170.3,108.1,170.3,108.1,170.3L108.1,170.3z"/></g>
    <path class="st2"
          d="M115.3,175c0,2.7-1.3,4.8-2.9,4.8c-1.6-0.1-2.8-2.3-2.8-5c0-2.7,1.3-4.8,2.9-4.8   C114,170.1,115.3,172.3,115.3,175L115.3,175z"/>
    <g><path class="st1" d="M112.5,180.1h-0.1c-1.7-0.1-3.1-2.4-3.1-5.3c0-2.8,1.4-5,3.1-5c1.8,0.1,3.2,2.5,3.2,5.3    C115.5,177.9,114.2,180.1,112.5,180.1L112.5,180.1z M112.4,170.3c-1.5,0-2.6,2-2.6,4.5c0,2.6,1.2,4.7,2.6,4.8l0.1,0.3v-0.2    c1.4,0,2.5-2,2.5-4.5C115,172.5,113.8,170.3,112.4,170.3L112.4,170.3L112.4,170.3z"/></g>
    <path class="st2"
          d="M120,175.8c-0.7,2.6-2.5,4.4-4,3.9c-1.5-0.5-2.2-3-1.5-5.6c0.7-2.6,2.5-4.4,4-3.9   C120,170.7,120.7,173.2,120,175.8L120,175.8z"/>
    <g><path class="st1" d="M116.5,180l-0.6-0.1c-1.6-0.5-2.4-3.2-1.7-5.9c0.6-2.4,2.2-4.1,3.7-4.1c2.2,0.6,3,3.2,2.2,6    C119.6,178.2,118.1,180,116.5,180L116.5,180z M118.3,170.4c-1.7,0-3,1.6-3.6,3.7c-0.6,2.4,0,4.9,1.3,5.3l0.4,0.1    c1.3,0,2.7-1.6,3.2-3.8c0.7-2.5,0.1-4.9-1.3-5.3C118.4,170.4,118.4,170.4,118.3,170.4L118.3,170.4z"/></g>
    <path class="st2"
          d="M110.7,181.7c0,2.7-1.3,4.8-2.9,4.7c-1.6-0.1-2.8-2.3-2.8-5c0-2.7,1.3-4.8,2.9-4.8   C109.4,176.7,110.7,179,110.7,181.7L110.7,181.7z"/>
    <g><path class="st1" d="M107.9,186.7h-0.1c-1.7-0.1-3.1-2.4-3.1-5.3c0-2.8,1.4-5,3.1-5c1.8,0.1,3.2,2.4,3.2,5.3    C110.9,184.5,109.6,186.7,107.9,186.7L107.9,186.7z M107.8,176.9c-1.5,0-2.6,2-2.6,4.5c0,2.6,1.2,4.7,2.6,4.8l0.1,0.3v-0.2    c1.4,0,2.5-2,2.5-4.5C110.4,179.1,109.3,176.9,107.8,176.9C107.8,176.9,107.8,176.9,107.8,176.9L107.8,176.9z"/></g>
    <path class="st2"
          d="M115,179.9c0,2.7-1.3,4.8-2.9,4.8c-1.6-0.1-2.8-2.3-2.8-5c0-2.7,1.3-4.8,2.9-4.8   C113.7,175,115,177.2,115,179.9L115,179.9z"/>
    <g><path class="st1" d="M112.2,185L112.2,185c-1.8-0.1-3.2-2.4-3.2-5.3c0-2.8,1.3-5,3-5c1.8,0.1,3.2,2.5,3.2,5.3    C115.2,182.8,113.9,185,112.2,185L112.2,185z M112.1,175.2c-1.5,0-2.6,2-2.6,4.5c0,2.6,1.2,4.7,2.6,4.8l0.1,0.3v-0.2    c1.4,0,2.5-2,2.6-4.5C114.7,177.4,113.5,175.2,112.1,175.2C112.1,175.2,112.1,175.2,112.1,175.2L112.1,175.2z"/></g>
    <path class="st2"
          d="M119.7,181.8c-0.7,2.6-2.5,4.4-4,3.9c-1.5-0.5-2.2-3-1.5-5.6c0.7-2.6,2.5-4.4,4-3.9   C119.7,176.7,120.4,179.2,119.7,181.8L119.7,181.8z"/>
    <g><path class="st1" d="M116.3,186l-0.6-0.1c-1.6-0.5-2.4-3.2-1.7-5.9c0.6-2.4,2.2-4.1,3.7-4.1c2.2,0.6,3,3.2,2.2,6    C119.3,184.3,117.8,186,116.3,186L116.3,186z M118.1,176.5c-1.7,0-3,1.6-3.6,3.7c-0.6,2.4,0,4.9,1.3,5.3l0.4,0.1    c1.3,0,2.7-1.6,3.2-3.8C120.1,179.3,119.5,176.9,118.1,176.5C118.1,176.5,118.1,176.5,118.1,176.5L118.1,176.5z"/></g>
    <path class="st2"
          d="M120.4,215.6c0.4,3.4-0.9,6.3-3,6.4c-2,0.1-4-2.5-4.5-5.9c-0.4-3.4,0.9-6.3,3-6.4   C118,209.6,120,212.2,120.4,215.6L120.4,215.6z"/>
    <g><path class="st1" d="M117.3,222.3c-2.1,0-4.1-2.7-4.5-6.1c-0.3-2.2,0.2-4.3,1.2-5.6c0.5-0.7,1.2-1,2-1.1c0,0,0,0,0,0    c2.3,0,4.3,2.7,4.7,6.1c0.3,2.3-0.2,4.4-1.2,5.6c-0.5,0.7-1.2,1-2,1.1L117.3,222.3L117.3,222.3z M116.1,210    c-0.8,0-1.3,0.4-1.8,0.9c-0.9,1.1-1.4,3.1-1.1,5.2c0.4,3.1,2.2,5.7,4,5.7v0.3l0.1-0.3c0.6,0,1.2-0.4,1.6-0.9    c0.9-1.1,1.4-3.1,1.1-5.2C119.8,212.5,117.9,210,116.1,210L116.1,210z"/></g>
    <path class="st2"
          d="M108.7,188.3c0,2.7-1.3,4.8-2.9,4.8c-1.6-0.1-2.9-2.3-2.8-5c0-2.7,1.3-4.8,2.9-4.8   C107.4,183.3,108.7,185.6,108.7,188.3L108.7,188.3z"/>
    <g><path class="st1" d="M105.9,193.3L105.9,193.3c-1.8-0.1-3.2-2.4-3.2-5.3c0-2.8,1.3-5,3-5c1.8,0.1,3.2,2.5,3.2,5.3    C108.9,191.1,107.6,193.3,105.9,193.3L105.9,193.3z M105.8,183.5c-1.5,0-2.6,2-2.6,4.5c0,2.6,1.2,4.7,2.6,4.8l0.1,0.3v-0.2    c1.4,0,2.5-2,2.6-4.5C108.4,185.7,107.2,183.5,105.8,183.5C105.8,183.5,105.8,183.5,105.8,183.5L105.8,183.5z"/></g>
    <path class="st2"
          d="M113.8,186.8c0,2.7-1.3,4.8-2.9,4.8c-1.6-0.1-2.8-2.3-2.8-5c0-2.7,1.3-4.8,2.9-4.8   C112.6,181.9,113.8,184.1,113.8,186.8L113.8,186.8z"/>
    <g><path class="st1" d="M111,191.9h-0.1c-1.7-0.1-3.1-2.5-3.1-5.3c0-2.8,1.4-5,3.1-5c1.8,0.1,3.2,2.4,3.2,5.3    C114.1,189.7,112.7,191.9,111,191.9L111,191.9z M111,182.1c-1.5,0-2.6,2-2.6,4.5c0,2.5,1.2,4.7,2.6,4.8l0.1,0.3v-0.2    c1.4,0,2.5-2,2.5-4.5C113.6,184.3,112.4,182.1,111,182.1L111,182.1L111,182.1z"/></g>
    <path class="st2"
          d="M117.7,188.4c-0.7,2.6-2.5,4.4-4,3.9c-1.5-0.5-2.2-3-1.5-5.6c0.7-2.6,2.5-4.4,4-3.9   C117.7,183.3,118.4,185.8,117.7,188.4L117.7,188.4z"/>
    <g><path class="st1" d="M114.2,192.7l-0.6-0.1c-1.6-0.5-2.4-3.2-1.7-5.9c0.6-2.4,2.2-4.1,3.7-4.1c2.2,0.6,3,3.2,2.2,6    C117.3,190.9,115.8,192.7,114.2,192.7L114.2,192.7z M116.1,183.1c-1.7,0-3,1.6-3.6,3.7c-0.6,2.4,0,4.9,1.3,5.3l0.4,0.1    c1.3,0,2.7-1.6,3.2-3.8c0.7-2.5,0.1-4.9-1.3-5.3C116.1,183.1,116.1,183.1,116.1,183.1L116.1,183.1z"/></g>
    <path class="st2"
          d="M110.9,194.6c-0.4,2.7-2,4.6-3.6,4.3c-1.6-0.3-2.5-2.7-2-5.4c0.4-2.7,2-4.6,3.6-4.3   C110.4,189.5,111.3,191.9,110.9,194.6L110.9,194.6z"/>
    <g><path class="st1" d="M107.7,199.1l-0.4,0c-1.7-0.4-2.7-2.9-2.2-5.7c0.4-2.6,1.9-4.5,3.5-4.5c2.1,0.4,3.1,2.9,2.6,5.7    C110.7,197.2,109.2,199.1,107.7,199.1L107.7,199.1z M108.8,189.4c-1.6,0-2.9,1.8-3.2,4.1c-0.4,2.5,0.4,4.8,1.8,5.1l0.3,0    c1.3,0,2.6-1.8,3-4.1C111,192.1,110.2,189.7,108.8,189.4C108.8,189.4,108.8,189.4,108.8,189.4L108.8,189.4z"/></g>
    <path class="st2"
          d="M115.2,195.3c-0.4,2.7-2,4.6-3.6,4.3c-1.6-0.3-2.5-2.8-2-5.4c0.4-2.7,2-4.6,3.6-4.3   C114.7,190.2,115.6,192.6,115.2,195.3L115.2,195.3z"/>
    <g><path class="st1" d="M111.9,199.8l-0.4,0c-1.7-0.4-2.7-2.9-2.2-5.7c0.4-2.6,1.9-4.5,3.5-4.5c2.1,0.4,3.1,3,2.6,5.7    C115,197.9,113.5,199.8,111.9,199.8L111.9,199.8z M113,190.1c-1.6,0-2.9,1.8-3.2,4.1c-0.4,2.5,0.4,4.8,1.8,5.1l0.3,0    c1.3,0,2.6-1.8,3-4.1C115.3,192.7,114.5,190.4,113,190.1C113,190.1,113,190.1,113,190.1L113,190.1z"/></g>
    <path class="st2"
          d="M119.8,196.1c-1.1,2.5-3.1,3.9-4.5,3.2c-1.4-0.7-1.7-3.3-0.6-5.8c1.1-2.5,3.1-3.9,4.5-3.2   C120.6,191.1,120.9,193.7,119.8,196.1L119.8,196.1z"/>
    <g><path class="st1" d="M116.1,199.8c-0.3,0-0.6-0.1-0.9-0.2c-1.5-0.8-1.9-3.5-0.7-6.1c1.1-2.6,3.3-4.1,4.9-3.4    c1.5,0.8,1.9,3.5,0.7,6.1C119.1,198.4,117.5,199.8,116.1,199.8L116.1,199.8z M118.4,190.5c-1.2,0-2.7,1.3-3.5,3.3    c-1,2.3-0.8,4.8,0.5,5.4c1.2,0.6,3.2-0.8,4.2-3.1c1-2.3,0.8-4.8-0.5-5.4C118.9,190.5,118.7,190.5,118.4,190.5L118.4,190.5z"/></g>
    <path class="st2"
          d="M115.8,208.9c0.3,2.7-0.7,5-2.3,5.1c-1.6,0.1-3.1-2-3.4-4.7c-0.3-2.7,0.7-5,2.3-5.1   C113.9,204.2,115.5,206.2,115.8,208.9L115.8,208.9z"/>
    <g><path class="st1" d="M113.4,214.3c-1.7,0-3.2-2.1-3.6-4.9c-0.2-1.8,0.1-3.5,1-4.5c0.4-0.5,1-0.8,1.5-0.9c0,0,0,0,0,0    c1.8,0,3.4,2.1,3.7,4.9c0.2,1.8-0.2,3.5-1,4.5c-0.4,0.5-1,0.8-1.5,0.9L113.4,214.3L113.4,214.3z M112.5,204.5    c-0.6,0-1,0.3-1.3,0.7c-0.7,0.9-1.1,2.5-0.9,4.1c0.3,2.4,1.7,4.4,3.1,4.4v0.3l0.1-0.3c0.4,0,0.8-0.3,1.2-0.7    c0.7-0.9,1.1-2.5,0.9-4.1C115.3,206.5,113.9,204.5,112.5,204.5L112.5,204.5z"/></g>
    <path class="st2"
          d="M123.7,210.2c-0.8,2.6-2.7,4.2-4.2,3.6c-1.5-0.6-2-3.1-1.2-5.7c0.8-2.6,2.7-4.2,4.2-3.6   C124,205,124.5,207.6,123.7,210.2L123.7,210.2z"/>
    <g><path class="st1" d="M120.1,214.2l-0.7-0.1c-1.6-0.6-2.2-3.3-1.3-6c0.8-2.3,2.3-3.9,3.8-3.9l0.7,0.1c1.6,0.6,2.2,3.3,1.3,6    C123.2,212.5,121.6,214.2,120.1,214.2L120.1,214.2z M122.3,204.7c-1.7,0-3.1,1.5-3.7,3.5c-0.8,2.4-0.3,4.8,1,5.4l0.5,0.1    c1.3,0,2.7-1.5,3.4-3.6c0.8-2.4,0.3-4.8-1-5.4C122.4,204.7,122.3,204.7,122.3,204.7L122.3,204.7z"/></g>
    <path class="st2"
          d="M119.8,208.4c0,2.7-1.3,4.8-2.9,4.8c-1.6-0.1-2.9-2.3-2.9-5c0-2.7,1.3-4.8,2.9-4.8   C118.6,203.4,119.8,205.7,119.8,208.4L119.8,208.4z"/>
    <g><path class="st1" d="M117,213.4L117,213.4c-1.8-0.1-3.2-2.4-3.2-5.3c0-2.8,1.3-5,3-5c1.8,0.1,3.2,2.4,3.2,5.3    C120.1,211.2,118.7,213.4,117,213.4L117,213.4z M117,203.6c-1.5,0-2.6,2-2.6,4.5c0,2.6,1.2,4.7,2.6,4.8l0.1,0.3v-0.2    c1.4,0,2.5-2,2.5-4.5C119.6,205.8,118.4,203.7,117,203.6L117,203.6L117,203.6z"/></g>
    <path class="st2"
          d="M114.1,201.5c0,2.7-1.3,4.8-2.9,4.8c-1.6-0.1-2.9-2.3-2.9-5c0-2.7,1.3-4.8,2.9-4.8   C112.8,196.5,114.1,198.8,114.1,201.5L114.1,201.5z"/>
    <g><path class="st1" d="M111.3,206.5L111.3,206.5c-1.8-0.1-3.2-2.5-3.2-5.3c0-2.8,1.3-5,3-5c1.8,0.1,3.2,2.4,3.2,5.3    C114.3,204.3,113,206.5,111.3,206.5L111.3,206.5z M111.2,196.7c-1.5,0-2.6,2-2.6,4.5c0,2.5,1.2,4.7,2.6,4.8l0.1,0.3V206    c1.4,0,2.5-2,2.5-4.5C113.8,198.9,112.7,196.8,111.2,196.7L111.2,196.7L111.2,196.7z"/></g>
    <path class="st2"
          d="M118.4,201.5c0,2.7-1.3,4.8-2.9,4.8c-1.6-0.1-2.9-2.3-2.9-5c0-2.7,1.3-4.8,2.9-4.8   C117.1,196.5,118.4,198.8,118.4,201.5L118.4,201.5z"/>
    <g><path class="st1" d="M115.6,206.5L115.6,206.5c-1.8-0.1-3.2-2.5-3.2-5.3c0-2.8,1.3-5,3-5c1.8,0.1,3.2,2.4,3.2,5.3    C118.6,204.3,117.3,206.5,115.6,206.5L115.6,206.5z M115.5,196.7c-1.5,0-2.6,2-2.6,4.5c0,2.5,1.2,4.7,2.6,4.8l0.1,0.3V206    c1.4,0,2.5-2,2.5-4.5C118.1,198.9,117,196.8,115.5,196.7L115.5,196.7L115.5,196.7z"/></g>
    <path class="st2"
          d="M122,195.6c-0.7,2.6-2.5,4.4-4,3.9c-1.5-0.5-2.2-3-1.5-5.6c0.7-2.6,2.5-4.4,4-3.9   C122,190.5,122.7,193,122,195.6L122,195.6z"/>
    <g><path class="st1" d="M118.5,199.8l-0.6-0.1c-1.7-0.5-2.4-3.1-1.7-5.9c0.6-2.4,2.2-4.2,3.7-4.2c2.2,0.6,3,3.2,2.2,6    C121.6,198.1,120.1,199.8,118.5,199.8L118.5,199.8z M120.3,190.2c-1.7,0-3,1.6-3.6,3.7c-0.6,2.5,0,4.9,1.3,5.3l0.4,0.1    c1.3,0,2.7-1.6,3.2-3.8C122.4,193.1,121.8,190.7,120.3,190.2C120.4,190.2,120.4,190.2,120.3,190.2L120.3,190.2z"/></g>
    <path class="st2"
          d="M123.2,201.6c-0.7,2.6-2.5,4.4-4,3.9c-1.5-0.5-2.2-3-1.5-5.6c0.7-2.6,2.5-4.4,4-3.9   C123.2,196.5,123.8,199,123.2,201.6L123.2,201.6z"/>
    <g><path class="st1" d="M119.7,205.9l-0.6-0.1c-1.7-0.5-2.4-3.1-1.7-5.9c0.6-2.4,2.2-4.2,3.7-4.2c2.2,0.6,3,3.2,2.3,6    C122.8,204.1,121.2,205.9,119.7,205.9L119.7,205.9z M121.5,196.3c-1.7,0-3,1.6-3.6,3.7c-0.6,2.5,0,4.9,1.3,5.3l0.4,0.1    c1.3,0,2.7-1.6,3.2-3.8C123.6,199.1,123,196.7,121.5,196.3C121.5,196.3,121.5,196.3,121.5,196.3L121.5,196.3z"/></g>
    <path class="st2"
          d="M126.6,202.8c-0.7,2.6-2.5,4.4-4,3.9c-1.5-0.5-2.2-3-1.5-5.6c0.7-2.6,2.5-4.4,4-3.9   C126.6,197.7,127.3,200.2,126.6,202.8L126.6,202.8z"/>
    <g><path class="st1" d="M123.1,207l-0.6-0.1c-1.6-0.5-2.4-3.2-1.7-5.9c0.6-2.4,2.2-4.2,3.7-4.2c2.2,0.6,3,3.2,2.3,6    C126.2,205.3,124.6,207,123.1,207L123.1,207z M124.9,197.4c-1.7,0-3,1.6-3.6,3.7c-0.6,2.4,0,4.9,1.3,5.3l0.4,0.1    c1.3,0,2.7-1.6,3.2-3.8C127,200.2,126.4,197.9,124.9,197.4C125,197.4,124.9,197.4,124.9,197.4L124.9,197.4z"/></g>
    <path class="st2"
          d="M124.6,188.7c-0.7,2.6-2.5,4.4-4,3.9c-1.5-0.5-2.2-3-1.5-5.6c0.7-2.6,2.5-4.4,4-3.9   C124.6,183.6,125.3,186.1,124.6,188.7L124.6,188.7z"/>
    <g><path class="st1" d="M121.1,192.9l-0.6-0.1c-1.7-0.5-2.4-3.1-1.7-5.9c0.6-2.4,2.2-4.2,3.7-4.2c2.2,0.6,3,3.2,2.3,6    C124.2,191.2,122.6,192.9,121.1,192.9L121.1,192.9z M122.9,183.3c-1.7,0-3,1.6-3.6,3.7c-0.6,2.5,0,4.9,1.3,5.3l0.4,0.1    c1.3,0,2.7-1.6,3.2-3.8C125,186.1,124.4,183.8,122.9,183.3C123,183.3,122.9,183.3,122.9,183.3L122.9,183.3z"/></g>
    <path class="st2"
          d="M129.3,161.3c-0.1,2.7-1.4,4.8-3,4.7c-1.6-0.1-2.8-2.4-2.7-5.1c0.1-2.7,1.4-4.8,3-4.7   C128.2,156.3,129.4,158.6,129.3,161.3L129.3,161.3z"/>
    <g><path class="st1" d="M126.4,166.2l-0.1,0c-1.7-0.1-3-2.5-3-5.4c0.1-2.8,1.4-4.9,3.1-4.9c1.9,0.1,3.2,2.5,3.1,5.4    C129.5,164.1,128.1,166.2,126.4,166.2L126.4,166.2z M126.5,156.4c-1.5,0-2.6,2-2.7,4.5c-0.1,2.6,1.1,4.7,2.5,4.8l0.1,0.3v-0.3    c1.4,0,2.5-2,2.6-4.4C129.1,158.7,128,156.5,126.5,156.4C126.5,156.4,126.5,156.4,126.5,156.4L126.5,156.4z"/></g>
    <path class="st2"
          d="M126,195c-0.7,2.6-2.5,4.4-4,3.9c-1.5-0.5-2.2-3-1.5-5.6c0.7-2.6,2.5-4.4,4-3.9C126,189.9,126.7,192.4,126,195   L126,195z"/>
    <g><path class="st1" d="M122.6,199.2l-0.6-0.1c-1.6-0.5-2.4-3.1-1.7-5.9c0.6-2.4,2.2-4.2,3.7-4.2c2.2,0.6,3,3.2,2.3,6    C125.6,197.5,124.1,199.2,122.6,199.2L122.6,199.2z M124.3,189.7c-1.7,0-3,1.6-3.6,3.7c-0.6,2.5,0,4.9,1.3,5.3l0.4,0.1    c1.3,0,2.7-1.6,3.2-3.8C126.4,192.5,125.8,190.1,124.3,189.7C124.4,189.7,124.4,189.7,124.3,189.7L124.3,189.7z"/></g>
    <path class="st2"
          d="M129.5,195.9c-0.7,2.6-2.5,4.4-4,3.9c-1.5-0.5-2.2-3-1.5-5.6c0.7-2.6,2.5-4.4,4-3.9   C129.5,190.8,130.1,193.3,129.5,195.9L129.5,195.9z"/>
    <g><path class="st1" d="M126,200.1l-0.6-0.1c-1.7-0.5-2.4-3.1-1.7-5.9c0.6-2.4,2.2-4.2,3.7-4.2c2.2,0.6,3,3.2,2.2,6    C129.1,198.4,127.5,200.1,126,200.1L126,200.1z M127.8,190.5c-1.7,0-3,1.6-3.6,3.7c-0.6,2.5,0,4.9,1.3,5.3l0.4,0.1    c1.3,0,2.7-1.6,3.2-3.8C129.9,193.3,129.3,191,127.8,190.5C127.9,190.5,127.8,190.5,127.8,190.5L127.8,190.5z"/></g>
    <path class="st2"
          d="M126.4,167.3c-0.1,2.7-1.4,4.8-3,4.7c-1.6-0.1-2.8-2.4-2.7-5.1c0.1-2.7,1.4-4.8,3-4.7   C125.3,162.3,126.5,164.6,126.4,167.3L126.4,167.3z"/>
    <g><path class="st1" d="M123.6,172.3h-0.1c-1.7-0.1-3-2.5-3-5.4c0.1-2.8,1.4-4.9,3.1-4.9c1.8,0.1,3.2,2.5,3.1,5.4    C126.6,170.1,125.2,172.3,123.6,172.3L123.6,172.3z M123.7,162.5c-1.5,0-2.7,2-2.7,4.4c-0.1,2.6,1.1,4.7,2.5,4.9l0.1,0.3v-0.3    c1.4,0,2.6-2,2.6-4.5C126.2,164.8,125.1,162.6,123.7,162.5L123.7,162.5L123.7,162.5z"/></g>
    <path class="st2"
          d="M131.3,167.5c-0.2,2.7-1.6,4.7-3.2,4.5c-1.6-0.2-2.7-2.5-2.5-5.2c0.2-2.7,1.6-4.7,3.2-4.5   C130.4,162.4,131.5,164.8,131.3,167.5L131.3,167.5z"/>
    <g><path class="st1" d="M128.3,172.3l-0.2,0c-1.7-0.2-2.9-2.7-2.7-5.5c0.2-2.7,1.6-4.8,3.3-4.8c1.9,0.2,3.1,2.7,2.9,5.5    C131.3,170.2,129.9,172.3,128.3,172.3L128.3,172.3z M128.8,162.5c-1.5,0-2.7,1.9-2.9,4.3c-0.2,2.5,0.9,4.8,2.3,5l0.2,0    c1.4,0,2.6-1.9,2.8-4.3C131.2,164.9,130.2,162.7,128.8,162.5C128.8,162.5,128.8,162.5,128.8,162.5L128.8,162.5z"/></g>
    <path class="st2"
          d="M125.9,172.8c-0.1,2.7-1.4,4.8-3,4.7c-1.6-0.1-2.8-2.4-2.7-5.1c0.1-2.7,1.4-4.8,3-4.7   C124.7,167.8,125.9,170.1,125.9,172.8L125.9,172.8z"/>
    <g><path class="st1" d="M123,177.7l-0.1,0c-1.7-0.1-3-2.5-3-5.4c0.1-2.8,1.4-4.9,3.1-4.9c1.9,0.1,3.2,2.5,3.1,5.4    C126,175.6,124.7,177.7,123,177.7L123,177.7z M123.1,168c-1.5,0-2.7,2-2.7,4.4c-0.1,2.6,1.1,4.7,2.5,4.8l0.1,0.3v-0.3    c1.4,0,2.5-2,2.6-4.4C125.7,170.2,124.6,168.1,123.1,168L123.1,168L123.1,168z"/></g>
    <path class="st2"
          d="M130.7,173.5c-0.2,2.7-1.6,4.7-3.2,4.5c-1.6-0.2-2.7-2.5-2.5-5.2c0.2-2.7,1.6-4.7,3.2-4.5   C129.8,168.5,130.9,170.8,130.7,173.5L130.7,173.5z"/>
    <g><path class="st1" d="M127.7,178.3l-0.2,0c-1.7-0.2-2.9-2.7-2.7-5.5c0.2-2.7,1.6-4.8,3.3-4.8c1.9,0.2,3.1,2.7,2.9,5.5    C130.8,176.3,129.4,178.3,127.7,178.3L127.7,178.3z M128.2,168.5c-1.5,0-2.7,1.9-2.9,4.3c-0.2,2.5,0.8,4.8,2.3,5l0.2,0    c1.4,0,2.6-1.9,2.8-4.3C130.7,171,129.6,168.7,128.2,168.5C128.2,168.5,128.2,168.5,128.2,168.5L128.2,168.5z"/></g>
    <path class="st2"
          d="M126.4,180c-0.1,2.7-1.4,4.8-3,4.7c-1.6-0.1-2.8-2.4-2.7-5.1c0.1-2.7,1.4-4.8,3-4.7   C125.3,175,126.5,177.3,126.4,180L126.4,180z"/>
    <g><path class="st1" d="M123.6,184.9h-0.1c-1.7-0.1-3-2.5-3-5.4c0.1-2.8,1.4-4.9,3.1-4.9c1.8,0.1,3.2,2.5,3.1,5.4    C126.6,182.8,125.2,184.9,123.6,184.9L123.6,184.9z M123.7,175.1c-1.5,0-2.7,2-2.7,4.4c-0.1,2.6,1.1,4.7,2.5,4.9l0.1,0.3v-0.3    c1.4,0,2.6-2,2.6-4.5C126.2,177.5,125.1,175.2,123.7,175.1L123.7,175.1L123.7,175.1z"/></g>
    <path class="st2"
          d="M128.6,187.5c-0.7,2.6-2.5,4.4-4,3.9c-1.5-0.5-2.2-3-1.5-5.6c0.7-2.6,2.5-4.4,4-3.9   C128.6,182.4,129.3,184.9,128.6,187.5L128.6,187.5z"/>
    <g><path class="st1" d="M125.1,191.8l-0.6-0.1c-1.7-0.5-2.4-3.1-1.7-5.9c0.6-2.4,2.2-4.2,3.7-4.2c2.2,0.6,3,3.2,2.2,6    C128.2,190,126.7,191.8,125.1,191.8L125.1,191.8z M126.9,182.2c-1.7,0-3,1.6-3.6,3.7c-0.6,2.5,0,4.9,1.3,5.3l0.4,0.1    c1.3,0,2.7-1.6,3.2-3.8C129,185,128.4,182.6,126.9,182.2C127,182.2,127,182.2,126.9,182.2L126.9,182.2z"/></g>
    <path class="st2"
          d="M132.3,188.7c-0.7,2.6-2.5,4.4-4,3.9c-1.5-0.5-2.2-3-1.5-5.6c0.7-2.6,2.5-4.4,4-3.9   C132.3,183.6,133,186.1,132.3,188.7L132.3,188.7z"/>
    <g><path class="st1" d="M128.9,192.9l-0.6-0.1c-1.7-0.5-2.4-3.1-1.7-5.9c0.6-2.4,2.2-4.2,3.7-4.2c2.2,0.6,3,3.2,2.3,6    C132,191.2,130.4,192.9,128.9,192.9L128.9,192.9z M130.7,183.3c-1.7,0-3,1.6-3.6,3.7c-0.6,2.5,0,4.9,1.3,5.3l0.4,0.1    c1.3,0,2.7-1.6,3.2-3.8C132.7,186.1,132.1,183.8,130.7,183.3C130.7,183.3,130.7,183.3,130.7,183.3L130.7,183.3z"/></g>
    <path class="st2"
          d="M131.9,180.1c-0.2,2.7-1.6,4.7-3.2,4.5c-1.6-0.2-2.7-2.5-2.5-5.2c0.2-2.7,1.6-4.7,3.2-4.5   C131,175.1,132.1,177.4,131.9,180.1L131.9,180.1z"/>
    <g><path class="st1" d="M128.9,184.9l-0.2,0c-1.7-0.2-2.9-2.7-2.7-5.5c0.2-2.7,1.6-4.8,3.3-4.8c1.9,0.2,3.1,2.7,2.9,5.5    C131.9,182.9,130.5,184.9,128.9,184.9L128.9,184.9z M129.3,175.2c-1.5,0-2.7,1.9-2.9,4.3c-0.2,2.5,0.8,4.8,2.3,5l0.2,0    c1.4,0,2.6-1.9,2.8-4.3C131.8,177.6,130.8,175.3,129.3,175.2C129.4,175.2,129.4,175.2,129.3,175.2L129.3,175.2z"/></g></g></svg>
