<?xml version="1.0" ?>
<svg id="Layer_1" style="enable-background:new 0 0 512 512;" version="1.1" viewBox="0 0 512 512" xml:space="preserve"
     xmlns="http://www.w3.org/2000/svg"><style type="text/css">
	.st0 {
    fill: #BD1F34;
  }

  .st1 {
    fill: #F4D130;
  }

  .st2 {
    fill: #B39C31;
  }

  .st3 {
    fill: #224084;
  }

  .st4 {
    fill: #FFFFFF;
  }
</style>
  <g><rect class="st0" height="298.7" width="512" y="106.7"/>
    <path class="st1"
          d="M298.1,269.9c7.5,2,18.8,1.5,23.9,7.4c-7.5-2-16.7,10.1-23.9,7.4c6.3,4.4-92.2,0-84.3,0   c-7.5-2-18.8-1.5-23.9-7.4c7.5,2,16.7-10.1,23.9-7.4c-6.3-4.4-17.3-7.9-19.9-15.1c6.3,4.4,19.2-3.8,25,1.2   c-4.4-6.3-13.7-13.3-13.5-21c4.4,6.3,19.4,2.9,23.1,9.6c-2-7.5-8-17.1-5.5-24.4c2,7.5,17.1,9.3,18.4,17c0.7-7.7-2-18.9,3.2-24.8   c-0.7,7.7,12.9,14.6,11.5,22.2c3.3-7,5.1-18.3,11.5-22.2c-3.3,7,7.4,18.1,3.2,24.8c5.5-5.5,10.8-15.6,18.4-17   c-5.5,5.5,0.4,19.4-5.5,24.4c7-3.3,15.3-11,23.1-9.6c-7,3.3-6.3,18.4-13.5,21c7.7-0.7,18.1-5,25-1.2   C310.3,255.4,306,269.9,298.1,269.9L298.1,269.9z"/>
    <g><path class="st2" d="M277.4,287.2c-15.3,0-56.9-1.2-63.5-2l0,0l0,0c0,0-0.1,0-0.1,0l0,0c-0.1,0-0.2-0.1-0.3-0.1    c-0.2,0-0.3-0.1-0.4-0.1c-2-0.5-4.2-0.8-6.6-1.2c-6.4-0.9-13.1-1.9-16.8-6.3l-1.1-1.2l1.6,0.4c3.3,0.9,7.5-1.5,11.4-3.8    c3.3-2,6.8-4,10-4.1c-1.4-0.8-2.9-1.6-4.4-2.5c-5.8-3.1-11.8-6.3-13.6-11.6l-0.5-1.5l1.3,0.9c2.5,1.8,7.4,1.2,12.1,0.3    c3.9-0.7,8-1.3,10.7-0.4c-1-1.2-2.2-2.5-3.3-3.8c-4.4-4.9-8.9-9.9-8.8-15.6l0-1.5l0.9,1.2c2,2.9,6.7,3.7,11.2,4.4    c3.8,0.6,7.8,1.3,10.3,3.3c-0.5-1.5-1.1-3-1.8-4.7c-2.4-6.1-4.9-12.4-3-17.7l0.5-1.5l0.4,1.6c0.9,3.5,5,5.8,9,8    c3.4,1.9,6.9,3.9,8.5,6.7c0-1.6,0-3.3-0.1-5.1c-0.2-6.5-0.5-13.3,3.3-17.6l1-1.1l-0.1,1.5c-0.3,3.6,2.7,7.1,5.7,10.5    c2.6,3,5.2,6,5.8,9.2c0.6-1.5,1.1-3.1,1.7-4.7c2.1-6.2,4.4-12.7,9-15.5l1.4-0.9l-0.7,1.5c-1.5,3.2,0.2,7.5,1.8,11.7    c1.4,3.7,2.9,7.4,2.3,10.7c1-1.2,2-2.5,3.1-3.8c4.1-5.1,8.3-10.4,13.8-11.4l1.6-0.3l-1.1,1.1c-2.5,2.5-2.5,7.2-2.5,11.8    c0,3.9,0.1,7.9-1.5,10.7c1.4-0.8,2.8-1.7,4.4-2.6c5.5-3.4,11.3-7,16.9-6l1.6,0.3l-1.5,0.7c-3.3,1.5-4.8,6-6.4,10.2    c-1.3,3.7-2.6,7.4-5.1,9.5c1.6-0.3,3.2-0.6,4.9-1c6.6-1.4,13.6-2.3,18,0.1l1.4,0.8l-1.6,0.1c-3.6,0.3-6.5,3.9-9.3,7.4    c-2.5,3-5,6.2-8.1,7.3c1.5,0.3,3.2,0.5,4.9,0.8c6.5,0.9,13.1,1.9,16.8,6.3l1.1,1.2l-1.6-0.4c-3.3-0.9-7.5,1.5-11.4,3.8    c-3.9,2.3-8.1,4.7-11.6,3.9C298.6,286.2,297.1,287.2,277.4,287.2L277.4,287.2z M214,284.4c4.4,0.3,39.1,1.9,63.4,1.9    c17.6,0,20.3-0.9,20.6-1.2l0.3-0.7c3.2,1.2,7.6-1.2,11.6-3.6c3.6-2.1,7.3-4.2,10.7-4.1c-3.6-3.2-9.5-4-15.2-4.9    c-2.7-0.4-5.2-0.8-7.4-1.4l0.1-1c3.8,0,6.9-3.8,9.8-7.4c2.6-3.1,5.2-6.4,8.5-7.4c-4-1.6-10.2-0.6-15.9,0.6    c-2.6,0.5-5.1,1.1-7.4,1.3l-0.2-1c3.4-1.3,5-5.6,6.6-10.2c1.4-3.9,2.8-7.9,5.5-10c-4.9,0.1-9.9,3-14.8,6c-2.3,1.4-4.5,2.8-6.6,3.7    l-0.5-0.8c2.8-2.4,2.8-7,2.7-11.9c0-4.1-0.1-8.4,1.8-11.3c-4.5,1.5-8.2,6.2-11.8,10.7c-1.7,2.1-3.3,4.1-4.9,5.8l-0.8-0.6    c2-3.2,0.4-7.6-1.4-12.3c-1.5-3.8-3-7.7-2.3-11c-3.6,3-5.5,8.6-7.4,14.1c-0.9,2.5-1.7,4.9-2.7,7l-0.9-0.3    c0.7-3.7-2.3-7.2-5.5-10.9c-2.7-3.1-5.5-6.4-5.9-9.8c-2.6,4.1-2.4,10-2.2,15.8c0.1,2.7,0.2,5.3,0,7.6l-1,0    c-0.6-3.7-4.7-5.9-8.9-8.3c-3.6-2-7.3-4.1-8.9-7.1c-0.9,4.7,1.3,10.2,3.4,15.6c1,2.5,1.9,4.9,2.5,7.1l-0.9,0.4    c-1.8-3.2-6.3-4-11.2-4.8c-4.1-0.7-8.3-1.4-10.9-3.7c0.6,4.7,4.6,9.2,8.5,13.5c1.8,2,3.5,3.9,4.9,5.8l-0.7,0.7    c-2.4-2-7.2-1.5-12.1-0.6c-4.2,0.8-8.7,1.4-11.5,0.2c2.2,4.2,7.5,7,12.6,9.8c2.4,1.3,4.6,2.5,6.5,3.8l-0.5,0.9    c-3.2-1.2-7.5,1.2-11.6,3.6c-3.6,2.1-7.2,4.3-10.7,4.1c3.6,3.2,9.5,4,15.2,4.9C209.2,283.3,211.8,283.7,214,284.4L214,284.4    L214,284.4z"/></g>
    <polygon class="st1"
             points="220.5,277.3 193.5,266.3 222.6,265.2 201,245.6 228.8,254.5 215.2,228.7 238.2,246.6 234.3,217.7    249.8,242.3 256,213.9 262.2,242.3 277.7,217.7 273.8,246.6 296.8,228.7 283.2,254.5 310.9,245.6 289.4,265.2 318.5,266.3    291.5,277.3 318.5,288.4 193.5,288.4  "/>
    <g><path class="st2" d="M318.5,288.9h-125l-0.2-1l25.8-10.6l-25.8-10.6l0.2-1l27.9-1.1L200.7,246l0.5-0.8l26.6,8.5l-13-24.7l0.8-0.6    l22.1,17.1l-3.8-27.6l0.9-0.3l14.9,23.6l5.9-27.3h1l5.9,27.3l14.9-23.6l0.9,0.3l-3.8,27.6l22-17.1l0.8,0.6l-13,24.7l26.6-8.5    l0.5,0.8l-20.7,18.7l27.9,1.1l0.2,1l-25.8,10.6l25.8,10.6L318.5,288.9L318.5,288.9z M196.1,287.9h119.9l-25.7-10.5l26-10.6    l-28-1.1l20.8-18.8l-26.7,8.6l13.1-24.8l-22.2,17.2l3.8-27.8l-15,23.7l-5.9-27.4l-5.9,27.4l-15-23.7l3.8,27.8l-22.2-17.2    l13.1,24.8l-26.7-8.6l20.8,18.8l-28,1.1l25.9,10.6L196.1,287.9L196.1,287.9z"/></g>
    <path class="st1"
          d="M291.3,277.3c0,19.5-15.8,35.3-35.3,35.3c-19.5,0-35.3-15.8-35.3-35.3c0-19.5,15.8-35.3,35.3-35.3   C275.5,242,291.3,257.8,291.3,277.3L291.3,277.3z"/>
    <g><path class="st2" d="M256,313.1c-19.7,0-35.8-16.1-35.8-35.8c0-19.7,16.1-35.8,35.8-35.8c19.7,0,35.8,16.1,35.8,35.8    C291.8,297.1,275.7,313.1,256,313.1L256,313.1z M256,242.5c-19.2,0-34.8,15.6-34.8,34.8c0,19.2,15.6,34.8,34.8,34.8    c19.2,0,34.8-15.6,34.8-34.8C290.8,258.2,275.2,242.5,256,242.5L256,242.5z"/></g>
    <rect class="st3" height="116.3" width="512" y="289"/>
    <path class="st4"
          d="M0,295.6c17.1,0,34.1,11,51.2,11c17.1,0,34.1-11,51.2-11c17.1,0,34.1,11,51.2,11c17.1,0,34.1-11,51.2-11   c17.1,0,34.1,11,51.2,11c17.1,0,34.1-11,51.2-11c17.1,0,34.1,11,51.2,11c17.1,0,34.1-11,51.2-11c17.1,0,34.1,11,51.2,11   c17.1,0,34.1-11,51.2-11v-18.3c-17.1,0-34.1,11-51.2,11c-17.1,0-34.1-11-51.2-11c-17.1,0-34.1,11-51.2,11c-17.1,0-34.1-11-51.2-11   c-17.1,0-34.1,11-51.2,11c-17.1,0-34.1-11-51.2-11c-17.1,0-34.1,11-51.2,11c-17.1,0-34.1-11-51.2-11c-17.1,0-34.1,11-51.2,11   c-17.1,0-34.1-11-51.2-11V295.6z"/>
    <path class="st4"
          d="M0,332.2c17.1,0,34.1,11,51.2,11c17.1,0,34.1-11,51.2-11c17.1,0,34.1,11,51.2,11c17.1,0,34.1-11,51.2-11   c17.1,0,34.1,11,51.2,11c17.1,0,34.1-11,51.2-11c17.1,0,34.1,11,51.2,11c17.1,0,34.1-11,51.2-11c17.1,0,34.1,11,51.2,11   c17.1,0,34.1-11,51.2-11v-18.3c-17.1,0-34.1,11-51.2,11c-17.1,0-34.1-11-51.2-11c-17.1,0-34.1,11-51.2,11c-17.1,0-34.1-11-51.2-11   c-17.1,0-34.1,11-51.2,11c-17.1,0-34.1-11-51.2-11c-17.1,0-34.1,11-51.2,11c-17.1,0-34.1-11-51.2-11c-17.1,0-34.1,11-51.2,11   c-17.1,0-34.1-11-51.2-11V332.2z"/>
    <path class="st4"
          d="M0,368.8c17.1,0,34.1,11,51.2,11c17.1,0,34.1-11,51.2-11c17.1,0,34.1,11,51.2,11c17.1,0,34.1-11,51.2-11   c17.1,0,34.1,11,51.2,11c17.1,0,34.1-11,51.2-11c17.1,0,34.1,11,51.2,11c17.1,0,34.1-11,51.2-11c17.1,0,34.1,11,51.2,11   c17.1,0,34.1-11,51.2-11v-18.3c-17.1,0-34.1,11-51.2,11c-17.1,0-34.1-11-51.2-11c-17.1,0-34.1,11-51.2,11c-17.1,0-34.1-11-51.2-11   c-17.1,0-34.1,11-51.2,11c-17.1,0-34.1-11-51.2-11c-17.1,0-34.1,11-51.2,11c-17.1,0-34.1-11-51.2-11c-17.1,0-34.1,11-51.2,11   c-17.1,0-34.1-11-51.2-11V368.8z"/>
    <path class="st1" d="M267.6,191.9l18.9,0.1c0.1-0.8-1.6-2.4-3.1-2.6c-4.8-0.8-8.4,0.8-14.2,0.9L267.6,191.9z"/>
    <g><path class="st2" d="M287,192.5l-20.6-0.1l2.4-2.5c2.8-0.2,4.8-0.5,6.7-0.7c2.7-0.4,5.1-0.7,7.9-0.3c1.6,0.2,3.7,2,3.5,3.2    L287,192.5L287,192.5z M268.7,191.4l17.2,0.1c-0.4-0.6-1.5-1.5-2.5-1.6c-2.7-0.4-5-0.1-7.6,0.3c-2,0.3-4,0.6-6.5,0.6L268.7,191.4    L268.7,191.4z"/></g>
    <path class="st1"
          d="M229.9,187.4c4.4,5.6,13.1,9.5,21.3,9.6c11.1,0.1,23.4-8.9,38.3-11.7l-48.6-1c-6.3-4.3-11.1-3.8-14.3-1.1   l-9.3,0.3c-1.3,0.7,1.1,3.7,3,3.8L229.9,187.4z"/>
    <g><path class="st2" d="M251.3,197.5L251.3,197.5l-0.1,0c-8.4,0-17.1-4-21.7-9.8l-9.2,0.1c-1.7-0.1-3.5-1.9-3.9-3.3    c-0.2-0.7,0.1-1.2,0.6-1.5l9.5-0.3c3.2-3,8.9-2.8,14.6,1.2l48.3,0.9l0.1,1c-6.8,1.3-13,3.8-18.9,6.2    C263.8,194.9,257.4,197.5,251.3,197.5L251.3,197.5z M232.3,181.7c-2,0-3.8,0.7-5.4,2l-9.6,0.4c0.4,1.3,1.9,2.7,3,2.8l9.5,0.1    c4.8,5.8,13.2,9.5,21.3,9.6l0.1,0.5v-0.5c5.9,0,12.2-2.6,18.9-5.4c4.8-2,9.7-4,15.1-5.4l-44.4-0.9    C237.6,182.7,234.9,181.7,232.3,181.7L232.3,181.7z"/></g>
    <path class="st1"
          d="M251.9,184.2c-1.8-8.1-8.3-11.6-16.1-12.7c-9-1.2-29.9-2.4-43.7-6.4c6,5.9,18.5,8.8,27.2,10.2   c9.2,1.4,18.2,3.5,25.3,8.8L251.9,184.2z"/>
    <g><path class="st2" d="M252.5,184.7l-7.9-0.1c-7.4-5.5-16.6-7.5-25.4-8.8c-7.5-1.1-21.1-4-27.5-10.3l0.5-0.8    c10.3,3,24.5,4.4,34.9,5.4c3.5,0.3,6.5,0.7,8.8,1c9.4,1.2,14.9,5.6,16.5,13.1L252.5,184.7L252.5,184.7z M194,166.2    c6.7,5.1,18.5,7.6,25.3,8.6c8.9,1.4,18.2,3.4,25.6,8.9l6.3,0c-1.7-6.6-6.9-10.5-15.6-11.7c-2.3-0.3-5.3-0.6-8.8-1    C217.2,170.1,204.2,168.8,194,166.2L194,166.2z"/></g>
    <path class="st1"
          d="M246,189.6c2.9,3.7,7.4,3.5,12.2,0.3c4.8-3.2,10-12.3,12.6-12.5c17.7-1,39-8.5,49.2-14.2   c-12.9,1.8-25.7,3.9-38.8,4c-22.2,0.1-24.9,10.2-33.9,17.3L246,189.6z"/>
    <g><path class="st2" d="M251.4,192.9c-2.3,0-4.3-1-5.8-2.9c-0.2-0.2-0.1-0.5,0.1-0.7c0.2-0.2,0.5-0.1,0.7,0.1c3.5,4.5,8.7,2,11.5,0.2    c2.3-1.5,4.7-4.5,6.8-7.1c2.5-3,4.5-5.4,6-5.5c16.9-1,36.2-7.7,46.5-12.8l-1.5,0.2c-11.2,1.6-22.9,3.3-34.4,3.3    c-16.6,0.1-22,5.7-27.7,11.7c-1.8,1.9-3.6,3.8-5.9,5.5c-0.2,0.2-0.5,0.1-0.7-0.1c-0.2-0.2-0.1-0.5,0.1-0.7c2.2-1.7,4-3.6,5.8-5.5    c5.6-5.8,11.4-11.9,28.5-12c11.5,0,23.1-1.7,34.3-3.3l4.4-0.6l0.3,0.9c-11.1,6.3-32.6,13.3-49.4,14.3c-1.1,0.1-3.2,2.6-5.3,5.1    c-2.2,2.7-4.7,5.7-7.1,7.3C255.9,192,253.5,192.9,251.4,192.9L251.4,192.9z"/></g>
    <g><path class="st2" d="M249.4,185.8c-0.2,0-0.3-0.1-0.4-0.2c-0.1-0.2-0.1-0.5,0.2-0.7c2.8-1.8,5.3-3.9,7.7-6    c1.7-1.5,3.4-2.9,5.3-4.3c7.5-5.6,16.1-5.7,25.2-5.8c7.7-0.1,21-3.2,29-5.1l0.8-0.2c0.3-0.1,0.5,0.1,0.6,0.4    c0.1,0.3-0.1,0.5-0.4,0.6l-0.8,0.2c-8,1.9-21.4,5-29.2,5.1c-8.9,0.1-17.4,0.2-24.6,5.6c-1.8,1.3-3.5,2.8-5.2,4.2    c-2.5,2.1-5,4.2-7.8,6C249.6,185.7,249.5,185.8,249.4,185.8L249.4,185.8z"/></g>
    <g><path class="st2" d="M244,183.9c-1.3-6.7-7.5-9-16.4-10.3c-2.5-0.4-5-0.7-7.4-1c-6.8-0.9-13.9-1.9-20.8-3.8    c-1.6-0.4-3.1-1.1-4.6-1.7c-0.7-0.3-1.5-0.6-2.2-0.9l0.4-0.9c0.7,0.3,1.5,0.6,2.2,0.9c1.5,0.6,2.9,1.3,4.4,1.7    c6.8,1.9,13.9,2.8,20.7,3.7c2.5,0.3,5,0.7,7.5,1c9.3,1.4,15.8,3.9,17.2,11.2L244,183.9L244,183.9z"/></g>
    <g><path class="st2" d="M250,195.1c-0.8,0-1.7,0-2.6-0.1c-0.3,0-0.5-0.3-0.5-0.5c0-0.3,0.2-0.5,0.5-0.5c9,0.7,15.5-2.2,22.5-5.7    c0.3-0.1,0.6,0,0.7,0.2c0.1,0.2,0,0.5-0.2,0.7C264.3,192.4,258,195.1,250,195.1L250,195.1z"/></g>
    <g><path class="st2" d="M228.3,185.5h-11.1c-0.3,0-0.5-0.2-0.5-0.5s0.2-0.5,0.5-0.5h11.1c0.3,0,0.5,0.2,0.5,0.5    S228.6,185.5,228.3,185.5L228.3,185.5z"/></g>
    <path class="st2"
          d="M233.3,183.8c0,0.8-0.6,1.4-1.4,1.4c-0.8,0-1.4-0.6-1.4-1.4c0-0.8,0.6-1.4,1.4-1.4   C232.7,182.4,233.3,183.1,233.3,183.8L233.3,183.8z"/>
    <g><path class="st2" d="M231.9,185.7c-1,0-1.9-0.8-1.9-1.9c0-1,0.8-1.9,1.9-1.9c1,0,1.9,0.8,1.9,1.9    C233.8,184.9,232.9,185.7,231.9,185.7L231.9,185.7z M231.9,182.9c-0.5,0-0.9,0.4-0.9,0.9c0,1,1.8,1,1.8,0    C232.8,183.3,232.4,182.9,231.9,182.9L231.9,182.9z"/></g></g></svg>
