<?xml version="1.0" ?>
<svg id="Layer_1" style="enable-background:new 0 0 512 512;" version="1.1" viewBox="0 0 512 512" xml:space="preserve"
     xmlns="http://www.w3.org/2000/svg"><style type="text/css">
	.st0 {
    fill: #2C4E9E;
  }

  .st1 {
    fill: #EDAD49;
  }

  .st2 {
    fill: #FFFFFF;
  }
</style>
  <g><rect class="st0" height="298.7" width="512" x="0" y="106.7"/>
    <path class="st1"
          d="M258.3,201.3c1.7,2,2.9,4.1,2.9,6.6c-1.5,0.7-3.5,1-4.7,2.3c7.3-1,8.8,7.4,16.9,4.2c0.3,1.2,1.5,2.2,2.9,1.7   l0.9-2.3c3.2-0.9,2.3,4.4,5.8,3.3c1.8,1.5,0.6,3.9,1.8,5.7c0,2,0.9,3.8,1.7,5.5c0.9-1,1.5-2.5,3.5-2c1.5,1.6,2.6,3.1,2.9,4.8   c-0.6,3.4-1.5,6.3,2,8v1c2.3,1,7.6-1,7.6,3.1c-0.3,1.5,1.5,0.2,2,1c1.5-0.6,3.5-0.3,5.2-0.3c1.5,3.1-1.7,5.2-2.6,8   c1.5,1.4,0.9,4.1,0.6,5.8l-0.9,0.4c2.3,0.4,5.3-0.3,7.3,1l3.8,1.4c1.7-1,3.8-1.2,6.1-1c1.7,1.3-0.6,3.5,0.9,4.5c2,0,3.8,0.3,4.1,2   l0.3,0.6c1.4-2.6,5.5-0.9,7.3-2.8c2.9,0,3.5,3.2,5,5c0.6,4.5-5,6.6-3.2,11.1c-1.2,2.2-3.5,3.9-5.3,6c0.6,0.3,0.3,1,0.3,1.4   c-1.8,1-0.3,4.1-2.6,4.4c-0.3,1.9-3.8,1.2-2.6,3.2c2.3,3.1-1.2,5-1.2,7.7c-1.5,1.6-4.4-1.5-4.4,1.6c-1.8,0.4-3.5-1.6-4.7,0.1   c-0.6,2,1.2,2.8,0.9,4.8c2.9-0.3,3.8,2.6,4.9,4.4l2.9,2.9c-2.9,2.3-6.7-0.3-10.2,1c-0.9-0.4,0-1.6-0.9-2c-0.9-1-2.6-1-4.1-1.3   c0.3,1.3-2.3,1.8-1.2,3.3c0,0.4,0.6,1.8-0.6,1.8c-2.3,0.7-2-2-4.1-1c-2.6,1-0.6,4.9-4.4,4.5c0.6,3.5-5.8,5.8-1.5,8.9   c0.6,0.6,0.3,1.8,0.3,2.6c-2.6,2.3-7.3,1.5-10.2,0.6c-2.3-0.6-0.9-3.5-1.7-5.1c-0.9-1.5-3.5-2.5-3.5-4.5c-1.8-0.7-3.2-1.2-4.4-2.6   c-4.1,3.9-9,7.7-14.9,7.9c-2.6,1.3-4.1,6.6-8.2,4.4c-1.6,2.6-6.4,0-6.7,3.8c-1.9,0.7-1,3.2-2.2,4.4c-0.4,2.9,0,5.4,2.5,7.2   c1,2.2-2.2,2.2-0.9,4.2c0.3,0.7,0,1.7-0.4,2c-0.9,0.4-1.2,0.9-0.9,1.8c-0.7,0-1,0.4-1.6,1c-0.7,1.5-3.1,2.2-4.7,3.2   c-1.6,0.4-2.8-0.7-3.8-1.7c-0.3,1.6-1.6,2.5-3.2,2.5c-2.3,0-1.9-2-3.6-2.9c0.7-2.6-1.6-3.8-0.9-6.1c1.9-1.5,5.1-2.5,4.2-5.5   c-2-2.5-1.3-6.1-3.4-9c-1.3-1.2-3.5-2.9-2.8-5.7c1.9-2.2,0-4.8-1-7.1c-0.4-1.9-1.6-3.7-1.6-5.8c-3.2-1.9-3.4-6.9-7.9-7.3   c-3.2,0-3.8-4.1-7-3.8c-0.3-0.6-1-1-1.6-1.6c-2.3,1.6-5.3-0.4-8.2,0.3c-1.9-3.2,1.6-7.6-3.5-9.5v-2c0.6,0.3,0.9-0.3,1-0.6   c0.3-2.2-3.7-2.5-2-5c-0.9-0.7-1.9-1-1.3-2.5c-2.2-4.5-8.8-4.1-10.2-8.6c1.2-1,1.2-2,1.6-2.9c-1-1.7-1.3-3.6-1-5.5   c1-0.3,1.6-1.6,2.2-2.6c-1.3-0.9-2.9-2.2-4.4-1.8c-2.6-0.4-4.5-2.5-6.9-3.6c-0.6-0.6-0.3-1.6-0.3-2.3c3.2-1-0.4-5.6,3.5-5   c1-1.3,3.2-1.7,4.8-2.8c1.6-0.3,2.9,0.3,4.5,0.7c1.3,1.7,3.6,1,5,2.5c1.3-0.3,2.9-1,4.5-0.3c0-2.5,1.2-3.9,2.9-5.7   c0.3-1,1.9-1.8,3.2-2.3c2.5,0.6,5.4,0.6,7.2-1.2c1.2,0.7,2.2-0.7,3.5-0.7c1.6-0.3,2.9,0.1,4.1,0.9c0.1-2.9,5.2-0.4,6.3-3.9   c1.2-2.3-3.2-3.2-2.9-5.3c-0.7-2.3,1-3.5,1.9-5.1c1-0.4,2.2-1,3.5-0.7c3.4-1.2,0.7-8,6.1-5.5c0,0.7-0.3,1.6,0.1,1.7   c1.9,0,2.2-2.2,3.5-2.9c0.6-2-0.7-4.5,1-6.1c0.9-0.1,1.6-0.4,2.2-1.2c0-1.6-0.9-2.5-2.2-3.5c-0.4,0.7-1.6,0.2-2.3,0.4   c0-1.7-1-2.9-1.3-4.5c-0.9-0.4-1.3-1.2-1-2.2c1.3-1.3,0-4.5,3.1-3.8c1.2-1,3.2-0.3,4.4-2c3.1-1.7,7.2-1.7,9.5-5   c1,0.2,2.2-0.9,3.2,0C255.5,200.3,258.3,199.6,258.3,201.3"/>
    <polygon class="st2"
             points="168,200.3 157.2,192.7 146.4,200.3 150.6,188 139.7,180.5 153.1,180.5 157.2,168.2 161.3,180.5    174.7,180.5 163.8,188  "/>
    <polygon class="st2"
             points="204.5,188.6 193.7,181 182.8,188.6 187,176.4 176.2,168.8 189.5,168.8 193.7,156.5 197.8,168.8    211.2,168.8 200.3,176.3  "/>
    <polygon class="st2"
             points="286,180.6 275.2,173 264.4,180.6 268.5,168.3 257.7,160.8 271.1,160.8 275.2,148.5 279.3,160.8    292.7,160.8 281.8,168.3  "/>
    <polygon class="st2"
             points="325.4,188.6 314.6,181 303.7,188.6 307.9,176.4 297,168.8 310.4,168.8 314.6,156.5 318.7,168.8    332.1,168.8 321.2,176.3  "/>
    <polygon class="st2"
             points="243.3,180.6 232.4,173 221.6,180.6 225.8,168.3 215,160.8 228.3,160.8 232.4,148.5 236.6,160.8    249.9,160.8 239.1,168.3  "/>
    <polygon class="st2"
             points="365.6,200.3 354.8,192.7 344,200.3 348.2,188 337.3,180.5 350.7,180.5 354.8,168.2 358.9,180.5    372.3,180.5 361.4,188  "/></g></svg>
