<?xml version="1.0" ?>
<svg id="Layer_1" style="enable-background:new 0 0 512 512;" version="1.1" viewBox="0 0 512 512" xml:space="preserve"
     xmlns="http://www.w3.org/2000/svg"><style type="text/css">
	.st0 {
    fill: #AE1D3B;
  }

  .st1 {
    fill: #FFFFFF;
  }

  .st2 {
    fill: #262D65;
  }
</style>
  <g><polygon class="st0" points="135.8,106.7 0,269.6 0,296.7 13.6,310.3 0,323.9 0,351 13.6,364.6 0,378.2 0,405.4 512,405.4    512,378.2 498.4,364.6 512,351 512,323.9 498.4,310.3 512,296.7 512,269.6 498.4,256 512,242.4 512,215.3 498.4,201.7 512,188.1    512,161 498.4,147.4 512,133.8 512,106.7  "/>
    <path class="st1"
          d="M0,378.2h512V351H0V378.2z M0,323.9h512v-27.2H0V323.9z M135.8,133.8L0,242.4v27.2h512v-27.2H135.8l-27.1-27.2   H512v-27.1H108.6V161H512v-27.2H135.8z"/>
    <rect class="st2" height="135.8" width="135.8" y="106.7"/>
    <polygon class="st1" points="67.9,133.8 55.3,172.5 78.5,180.1  "/>
    <polygon class="st1" points="67.9,133.8 80.5,172.5 57.2,180.1  "/>
    <polygon class="st1" points="106.6,161.9 65.9,161.9 65.9,186.4  "/>
    <polygon class="st1" points="106.6,161.9 73.7,185.9 59.3,166.1  "/>
    <polygon class="st1" points="91.8,207.5 79.2,168.7 56,176.3  "/>
    <polygon class="st1" points="91.8,207.5 58.9,183.5 73.2,163.8  "/>
    <polygon class="st1" points="43.9,207.5 76.9,183.5 62.5,163.8  "/>
    <polygon class="st1" points="43.9,207.5 56.5,168.7 79.8,176.3  "/>
    <polygon class="st1" points="29.1,161.9 62.1,185.9 76.5,166.1  "/>
    <polygon class="st1" points="29.1,161.9 69.9,161.9 69.9,186.4  "/></g></svg>
