<?xml version="1.0" ?>
<svg id="Layer_1" style="enable-background:new 0 0 512 512;" version="1.1" viewBox="0 0 512 512" xml:space="preserve"
     xmlns="http://www.w3.org/2000/svg"><style type="text/css">
	.st0 {
    fill: #FFFFFF;
  }

  .st1 {
    fill: #327539;
  }

  .st2 {
    fill: #C01F3F;
  }
</style>
  <g id="XMLID_1_"><rect class="st0" height="298.7" id="XMLID_8_" width="512" y="106.7"/>
    <rect class="st1" height="298.7" id="XMLID_5_" width="256" y="106.7"/>
    <path class="st2"
          d="M311.4,302.6c-25.7,20.6-63.3,16.5-84-9.3c-20.6-25.8-16.4-63.3,9.3-84   c25.7-20.6,63.3-16.5,84,9.3c-6.6-11.3-16-20.8-27.3-27.3c-35.7-20.6-81.4-8.4-102,27.3c-20.6,35.7-8.4,81.4,27.3,102   c35.7,20.6,81.4,8.4,102-27.3C317.9,296.8,314.8,299.9,311.4,302.6L311.4,302.6z"
          id="XMLID_4_"/>
    <polygon class="st2" id="XMLID_3_"
             points="281.8,269.6 297.7,291.5 297.7,264.4 323.5,256 297.7,247.6 297.7,220.5 281.8,242.4    256,234.1 272,256 256,277.9  "/></g></svg>
