<?xml version="1.0" ?>
<svg id="Layer_1" style="enable-background:new 0 0 512 512;" version="1.1" viewBox="0 0 512 512" xml:space="preserve"
     xmlns="http://www.w3.org/2000/svg"><style type="text/css">
	.st0 {
    fill: #307359;
  }

  .st1 {
    fill: #BF0236;
  }

  .st2 {
    fill-rule: evenodd;
    clip-rule: evenodd;
    fill: #E0852A;
  }

  .st3 {
    fill-rule: evenodd;
    clip-rule: evenodd;
    fill: #C03F2A;
  }

  .st4 {
    fill: none;
    stroke: #292C2F;
    stroke-width: 0;
    stroke-linecap: square;
    stroke-miterlimit: 10;
  }

  .st5 {
    fill-rule: evenodd;
    clip-rule: evenodd;
    fill: #307359;
  }

  .st6 {
    fill: #E0852A;
  }

  .st7 {
    fill-rule: evenodd;
    clip-rule: evenodd;
    fill: #CF3B1D;
  }

  .st8 {
    fill-rule: evenodd;
    clip-rule: evenodd;
    fill: #AD3B2B;
  }

  .st9 {
    fill-rule: evenodd;
    clip-rule: evenodd;
    fill: #FFFFFF;
  }

  .st10 {
    fill-rule: evenodd;
    clip-rule: evenodd;
    fill: #AB3B2C;
  }

  .st11 {
    fill-rule: evenodd;
    clip-rule: evenodd;
    fill: #FBFCFC;
  }
</style>
  <g><rect class="st0" height="298.7" width="512" y="106.7"/>
    <rect class="st1" height="298.7" width="80.6" x="53.8" y="106.7"/>
    <polygon class="st2"
             points="53.8,190.1 53.8,187.7 57.2,182 56.4,180.8 58.4,177.6 57.8,176.5 56.4,178.8 55.8,177.6 60.4,169.6    61.3,170.7 60.4,171.9 61.9,174.2 65.3,168.4 61.9,162.9 60.4,164.9 61.3,166.1 60.4,167.3 55.8,159.2 56.4,158 57.8,160.3    58.4,159.2 56.4,156 57.2,154.8 53.8,149.1 53.8,146.8 58.4,154.8 57.8,156 59.8,159.2 58.4,161.5 59.8,163.8 61.9,160.3    66.5,168.4 61.9,176.5 59.8,173 58.4,175.3 59.8,177.6 57.8,180.8 58.4,182  "/>
    <polygon class="st2"
             points="53.8,161.5 54.6,163.8 54.6,167.3 56.6,167.3 57.8,168.4 56.6,169.6 54.6,169.6 54.6,173 53.8,175.3     "/>
    <polygon class="st2"
             points="53.8,244.9 53.8,242.6 57.2,236.8 56.4,235.7 58.4,232.2 57.8,231 56.4,233.3 55.8,232.2 60.4,224.4    61.3,225.6 60.4,226.7 61.9,229 65.3,223.2 61.9,217.8 60.4,219.8 61.3,220.9 60.4,222.1 55.8,214 56.4,212.8 57.8,215.2 58.4,214    56.4,210.5 57.2,209.4 53.8,203.9 53.8,201.6 58.4,209.4 57.8,210.5 59.8,214 58.4,216.3 59.8,218.6 61.9,215.2 66.5,223.2    61.9,231 59.8,227.9 58.4,230.2 59.8,232.2 57.8,235.7 58.4,236.8  "/>
    <polygon class="st2"
             points="53.8,216.3 54.6,218.6 54.6,222.1 56.6,222.1 57.8,223.2 56.6,224.4 54.6,224.4 54.6,227.9    53.8,230.2  "/>
    <polygon class="st2"
             points="53.8,299.7 53.8,297.4 57.2,291.6 56.4,290.5 58.4,287 57.8,285.9 56.4,288.2 55.8,287 60.4,279.2    61.3,280.1 60.4,281.2 61.9,283.6 65.3,278.1 61.9,272.3 60.4,274.6 61.3,275.8 60.4,276.9 55.8,268.8 56.4,267.7 57.8,270    58.4,268.8 56.4,265.4 57.2,264.2 53.8,258.5 53.8,256.1 58.4,264.2 57.8,265.4 59.8,268.8 58.4,271.1 59.8,273.5 61.9,270    66.5,278.1 61.9,285.9 59.8,282.4 58.4,284.7 59.8,287 57.8,290.5 58.4,291.6  "/>
    <polygon class="st2"
             points="53.8,271.1 54.6,273.5 54.6,276.9 56.6,276.9 57.8,278.1 56.6,279.2 54.6,279.2 54.6,282.4    53.8,284.7  "/>
    <polygon class="st2"
             points="53.8,351.1 53.8,348.8 57.2,343 56.4,341.9 58.4,338.4 57.8,337.2 56.4,339.5 55.8,338.4 60.4,330.3    61.3,331.5 60.4,332.6 61.9,334.9 65.3,329.2 61.9,323.7 60.4,326 61.3,327.1 60.4,328.3 55.8,320.2 56.4,319.1 57.8,321.4    58.4,320.2 56.4,316.8 57.2,315.6 53.8,309.8 53.8,307.5 58.4,315.6 57.8,316.8 59.8,320.2 58.4,322.5 59.8,324.8 61.9,321.4    66.5,329.4 61.9,337.2 59.8,333.8 58.4,336.1 59.8,338.4 57.8,341.9 58.4,343  "/>
    <polygon class="st2"
             points="53.8,322.5 54.6,324.8 54.6,328.3 56.6,328.3 57.8,329.2 56.6,330.3 54.6,330.3 54.6,333.8    53.8,336.1  "/>
    <polygon class="st2"
             points="134.4,190.1 134.4,187.7 130.9,182 131.8,180.8 129.8,177.6 130.4,176.5 131.8,178.8 132.4,177.6    127.8,169.6 126.9,170.7 127.8,171.9 126.3,174.2 123.1,168.4 126.3,162.9 127.8,164.9 126.9,166.1 127.8,167.3 132.4,159.2    131.8,158 130.4,160.3 129.8,159.2 131.8,156 130.9,154.8 134.4,149.1 134.4,146.8 129.8,154.8 130.4,156 128.3,159.2 129.8,161.5    128.3,163.8 126.3,160.3 121.7,168.4 126.3,176.5 128.3,173 129.8,175.3 128.3,177.6 130.4,180.8 129.8,182  "/>
    <polygon class="st2"
             points="134.4,161.5 133.8,163.8 133.8,167.3 131.8,167.3 130.4,168.4 131.8,169.6 133.8,169.6 133.8,173    134.4,175.3  "/>
    <polygon class="st2"
             points="134.4,244.9 134.4,242.6 130.9,236.8 131.8,235.7 129.8,232.2 130.4,231 131.8,233.3 132.4,232.2    127.8,224.4 126.9,225.6 127.8,226.7 126.3,229 123.1,223.2 126.3,217.8 127.8,219.8 126.9,220.9 127.8,222.1 132.4,214    131.8,212.8 130.4,215.2 129.8,214 131.8,210.5 130.9,209.4 134.4,203.9 134.4,201.6 129.8,209.4 130.4,210.5 128.3,214    129.8,216.3 128.3,218.6 126.3,215.2 121.7,223.2 126.3,231 128.3,227.9 129.8,230.2 128.3,232.2 130.4,235.7 129.8,236.8  "/>
    <polygon class="st2"
             points="134.4,216.3 133.8,218.6 133.8,222.1 131.8,222.1 130.4,223.2 131.8,224.4 133.8,224.4 133.8,227.9    134.4,230.2  "/>
    <polygon class="st2"
             points="134.4,299.7 134.4,297.4 130.9,291.6 131.8,290.5 129.8,287 130.4,285.9 131.8,288.2 132.4,287    127.8,279.2 126.9,280.1 127.8,281.2 126.3,283.6 123.1,278.1 126.3,272.3 127.8,274.6 126.9,275.8 127.8,276.9 132.4,268.8    131.8,267.7 130.4,270 129.8,268.8 131.8,265.4 130.9,264.2 134.4,258.5 134.4,256.1 129.8,264.2 130.4,265.4 128.3,268.8    129.8,271.1 128.3,273.5 126.3,270 121.7,278.1 126.3,285.9 128.3,282.4 129.8,284.7 128.3,287 130.4,290.5 129.8,291.6  "/>
    <polygon class="st2"
             points="134.4,271.1 133.8,273.5 133.8,276.9 131.8,276.9 130.4,278.1 131.8,279.2 133.8,279.2 133.8,282.4    134.4,284.7  "/>
    <polygon class="st2"
             points="134.4,351.1 134.4,348.8 130.9,343 131.8,341.9 129.8,338.4 130.4,337.2 131.8,339.5 132.4,338.4    127.8,330.3 126.9,331.5 127.8,332.6 126.3,334.9 123.1,329.2 126.3,323.7 127.8,326 126.9,327.1 127.8,328.3 132.4,320.2    131.8,319.1 130.4,321.4 129.8,320.2 131.8,316.8 130.9,315.6 134.4,309.8 134.4,307.5 129.8,315.6 130.4,316.8 128.3,320.2    129.8,322.5 128.3,324.8 126.3,321.4 121.7,329.4 126.3,337.2 128.3,333.8 129.8,336.1 128.3,338.4 130.4,341.9 129.8,343  "/>
    <polygon class="st2"
             points="134.4,322.5 133.8,324.8 133.8,328.3 131.8,328.3 130.4,329.2 131.8,330.3 133.8,330.3 133.8,333.8    134.4,336.1  "/>
    <polygon class="st2"
             points="53.8,128.6 53.8,126.3 57.2,120.5 56.4,119.3 58.4,115.9 57.8,114.7 56.4,117 55.8,115.9 60.4,107.8    61.3,109 60.4,110.1 61.9,112.4 65.3,106.7 66.5,106.7 61.9,114.7 59.8,111.3 58.4,113.6 59.8,115.9 57.8,119.3 58.4,120.5  "/>
    <polygon class="st2" points="53.8,106.7 57.8,106.7 56.6,107.8 54.6,107.8 54.6,111.3 53.8,113.6  "/>
    <polygon class="st2"
             points="134.4,128.6 134.4,126.3 130.9,120.5 131.8,119.3 129.8,115.9 130.4,114.7 131.8,117 132.4,115.9    127.8,107.8 126.9,109 127.8,110.1 126.3,112.4 123.1,106.7 121.7,106.7 126.3,114.7 128.3,111.3 129.8,113.6 128.3,115.9    130.4,119.3 129.8,120.5  "/>
    <polygon class="st2" points="134.4,106.7 130.4,106.7 131.8,107.8 133.8,107.8 133.8,111.3 134.4,113.6  "/>
    <path class="st2"
          d="M87.3,402.8c0,0,2.9-4.3,10.4-5.8c7.2-1.2,8.4,3.2,12.7,3.2c4.1,0,10.7-3.2,10.7-3.2s-6.6,5.8-11.9,5.5   c-4.9,0-6.6-2.9-11.8-2.3C92.2,400.4,87.3,403,87.3,402.8L87.3,402.8z"/>
    <path class="st2"
          d="M101.5,402.8c0,0-2.9-4.3-10.1-5.8c-7.2-1.2-8.7,3.2-12.7,3.2c-4.3,0-10.7-3.2-10.7-3.2s6.4,5.8,11.6,5.5   c5.2,0,6.9-2.9,12.1-2.3C96.8,400.4,101.5,403,101.5,402.8L101.5,402.8z"/>
    <path class="st2"
          d="M77.8,395.5c-0.9-1.2-2.3-6.3-1.4-6.9c1.2-0.3,4.6,4.9,4.3,9.5c-2.3,0.9-9.8-0.6-9.8-1.7   C71.4,394.4,75.7,395,77.8,395.5L77.8,395.5z"/>
    <path class="st2"
          d="M73.1,391.2c-0.6-1.4-1.2-6.9-0.3-7.2c1.4,0,3.8,5.8,2.6,10.4c-2.3,0.3-9.5-2.9-9-4.3   C67.3,388.3,71.4,390.1,73.1,391.2L73.1,391.2z"/>
    <path class="st2"
          d="M69.4,386c-0.3-1.2-0.3-6.6,0.6-6.9c1.4,0,3.2,6.4,1.4,10.4c-2.3,0.3-9.3-4-8.7-5.2   C63.9,382.6,67.6,384.9,69.4,386L69.4,386z"/>
    <path class="st2"
          d="M66.5,380.8c-0.3-1.4,0.6-6.9,1.4-6.9c1.4,0.3,2.3,6.9,0,10.7c-2.3-0.3-8.4-5.5-7.8-6.6   C61.3,376.5,65,379.4,66.5,380.8L66.5,380.8z"/>
    <path class="st2"
          d="M64.5,375.3c0-1.4,1.2-6.6,2.3-6.6c1.2,0.6,1.4,6.9-1.2,10.7c-2.6-0.9-7.8-7.2-7.2-8.1   C59.8,370.1,63,373.6,64.5,375.3L64.5,375.3z"/>
    <path class="st2" d="M65,369c-0.3,5.5-1.4,5.5-3.5,1.4c-1.2-1.4-1.2-8.1-0.3-8.1C62.4,362.1,65,366.7,65,369L65,369z"/>
    <path class="st2"
          d="M111,396.1c0.6-1.2,2-6.3,1.2-6.9c-1.2-0.3-4.6,4.9-4.3,9.5c2.3,0.9,9.8-0.6,9.8-1.7   C117.1,395,112.7,395.5,111,396.1L111,396.1z"/>
    <path class="st2"
          d="M115.3,391.8c0.6-1.4,1.2-6.9,0.3-7.2c-1.4,0-3.8,5.8-2.6,10.4c2.3,0.3,9.5-2.9,9.3-4.3   C121.4,388.9,117.3,390.6,115.3,391.8L115.3,391.8z"/>
    <path class="st2"
          d="M119.1,386.6c0.3-1.2,0.6-6.6-0.6-6.9c-1.2,0-3.2,6.4-1.4,10.4c2.3,0.3,9.3-4,8.7-5.2   C124.6,383.1,120.8,385.4,119.1,386.6L119.1,386.6z"/>
    <path class="st2"
          d="M122,381.4c0.3-1.4-0.3-6.9-1.4-6.9c-1.2,0.3-2.3,6.9,0,10.7c2.3-0.3,8.4-5.5,7.8-6.6   C127.2,377.1,123.7,380,122,381.4L122,381.4z"/>
    <path class="st2"
          d="M124,375.9c0-1.4-1.2-6.6-2.3-6.6c-1.2,0.6-1.4,6.9,1.4,10.7c2.3-0.6,7.5-7.2,6.9-8.1   C128.6,370.7,125.4,374.2,124,375.9L124,375.9z"/>
    <path class="st2"
          d="M123.7,369.6c0,5.5,1.2,5.5,3.2,1.4c1.2-1.4,1.2-8.1,0.3-8.1C126,362.6,123.7,367.3,123.7,369.6L123.7,369.6z"/>
    <polygon class="st3"
             points="122,312.1 117.9,312.1 117.9,315.6 114.2,315.6 114.2,319.1 98.6,319.1 96,322.5 97.4,324.3    103.8,324.3 105.2,322.5 98.6,322.5 100,320.8 109,320.8 105.2,326 96,326 93.4,324.3 90.8,326 81.8,326 78,320.8 87,320.8    88.2,322.5 81.8,322.5 83.2,324.3 89.6,324.3 90.8,322.5 88.2,319.1 74,319.1 74,315.6 70.2,315.6 70.2,312.1 66.5,312.1    66.5,296.3 70.2,296.3 70.2,292.8 74,292.8 74,289.3 88.2,289.3 90.8,285.9 89.6,284.1 83.2,284.1 81.8,285.9 88.2,285.9 87,287.6    78,287.6 81.8,282.4 90.8,282.4 93.4,284.1 96,282.4 105.2,282.4 109,287.6 100,287.6 98.6,285.9 105.2,285.9 103.8,284.1    97.4,284.1 96,285.9 98.6,289.3 114.2,289.3 114.2,292.8 117.9,292.8 117.9,296.3 122,296.3  "/>
    <g><polygon class="st4" points="122,312.1 117.9,312.1 117.9,315.6 114.2,315.6 114.2,319.1 98.6,319.1 96,322.5 97.4,324.3     103.8,324.3 105.2,322.5 98.6,322.5 100,320.8 109,320.8 105.2,326 96,326 93.4,324.3 90.8,326 81.8,326 78,320.8 87,320.8     88.2,322.5 81.8,322.5 83.2,324.3 89.6,324.3 90.8,322.5 88.2,319.1 74,319.1 74,315.6 70.2,315.6 70.2,312.1 66.5,312.1     66.5,296.3 70.2,296.3 70.2,292.8 74,292.8 74,289.3 88.2,289.3 90.8,285.9 89.6,284.1 83.2,284.1 81.8,285.9 88.2,285.9     87,287.6 78,287.6 81.8,282.4 90.8,282.4 93.4,284.1 96,282.4 105.2,282.4 109,287.6 100,287.6 98.6,285.9 105.2,285.9     103.8,284.1 97.4,284.1 96,285.9 98.6,289.3 114.2,289.3 114.2,292.8 117.9,292.8 117.9,296.3 122,296.3   "/></g>
    <polygon class="st5"
             points="67.6,298.3 67.6,310.4 71.4,310.4 71.4,313.9 75.4,313.9 75.4,317.3 88.2,317.3 93.4,322.5    98.6,317.3 112.7,317.3 112.7,313.9 116.8,313.9 116.8,310.4 120.5,310.4 120.5,298 116.8,298 116.8,294.5 112.7,294.8    112.7,291.1 98.6,291.1 93.4,285.9 88.2,291.1 75.4,291.1 75.4,294.8 71.4,294.8 71.4,298.3  "/>
    <path class="st6"
          d="M68.5,310.4h-1.7v-12.1h1.7V310.4z M67.6,311.3h-0.9v-0.9h0.9V311.3z M67.6,309.5h3.8v1.7h-3.8V309.5z    M71.4,309.5h0.9v0.9h-0.9V309.5z M72.3,313.9h-1.7v-3.5h1.7V313.9z M71.4,314.7h-0.9v-0.9h0.9V314.7z M71.4,313h4v1.7h-4V313z    M75.4,313h0.9v0.9h-0.9V313z M76.3,317.3h-1.7v-3.5h1.7V317.3z M75.4,318.2h-0.9v-0.9h0.9V318.2z M75.4,316.5h12.7v1.7H75.4V316.5   z M88.2,316.5h0.6H89l-0.9,0.9V316.5z M89,316.5l4.9,5.2l-1.2,1.4l-5.2-5.2L89,316.5z M93.9,323.1l-0.6,0.6l-0.6-0.6l0.6-0.6   L93.9,323.1z M92.8,321.7l5.2-5.2l1.2,1.4l-5.2,5.2L92.8,321.7z M98,316.5h0.3h0.3v0.9L98,316.5z M98.6,316.5h14.2v1.7H98.6V316.5z    M113.6,318.2h-0.9v-0.9h0.9V318.2z M111.9,313.9h1.7v3.5h-1.7V313.9z M111.9,313h0.9v0.9h-0.9V313z M112.7,313h4v1.7h-4V313z    M117.6,314.7h-0.9v-0.9h0.9V314.7z M115.9,310.4h1.7v3.5h-1.7V310.4z M115.9,309.5h0.9v0.9h-0.9V309.5z M116.8,309.5h3.8v1.7h-3.8   V309.5z M121.4,311.3h-0.9v-0.9h0.9V311.3z M119.7,298h1.7v12.4h-1.7V298z M120.5,297.1h0.9v0.9h-0.9V297.1z M120.5,298.9h-3.8   v-1.7h3.8V298.9z M116.8,298.9h-0.9V298h0.9V298.9z M115.9,294.5h1.7v3.5h-1.7V294.5z M116.8,293.7h0.9v0.9h-0.9V293.7z    M116.8,295.4l-4,0.3V294l4-0.3V295.4z M112.7,295.7h-0.9v-0.9h0.9V295.7z M111.9,291.1h1.7v3.8h-1.7V291.1z M112.7,290.2h0.9v0.9   h-0.9V290.2z M112.7,291.9H98.6v-1.7h14.2V291.9z M98.6,291.9h-0.3H98l0.6-0.9V291.9z M98,291.9l-5.2-5.2l1.2-1.4l5.2,5.2L98,291.9   z M92.8,285.3l0.6-0.6l0.6,0.6l-0.6,0.6L92.8,285.3z M93.9,286.7l-4.9,5.2l-1.4-1.4l5.2-5.2L93.9,286.7z M89,291.9h-0.3h-0.6v-0.9   L89,291.9z M88.2,291.9H75.4v-1.7h12.7V291.9z M74.6,290.2h0.9v0.9h-0.9V290.2z M76.3,294.8h-1.7v-3.8h1.7V294.8z M76.3,295.7h-0.9   v-0.9h0.9V295.7z M75.4,295.7h-4V294h4V295.7z M70.5,294h0.9v0.9h-0.9V294z M72.3,298.3h-1.7v-3.5h1.7V298.3z M72.3,299.1h-0.9   v-0.9h0.9V299.1z M71.4,299.1h-3.8v-1.7h3.8V299.1z M66.8,297.4h0.9v0.9h-0.9V297.4z"/>
    <polygon class="st3" points="85.8,292.8 78,301.5 78,292.8  "/>
    <polygon class="st3" points="101.2,292.8 109,301.5 109,292.8  "/>
    <polygon class="st3" points="85.8,315.6 78,306.9 78,315.6  "/>
    <polygon class="st3" points="101.2,315.6 109,306.9 109,315.6  "/>
    <polygon class="st3" points="103.8,298 101.2,301.5 106.4,301.5  "/>
    <polygon class="st3" points="83.2,298 80.6,301.5 85.8,301.5  "/>
    <polygon class="st3" points="83.2,310.4 80.6,306.9 85.8,306.9  "/>
    <polygon class="st3" points="103.8,310.4 101.2,306.9 106.4,306.9  "/>
    <polygon class="st2" points="93.4,319.1 90.8,315.6 96,315.6  "/>
    <polygon class="st2" points="93.4,301.5 90.8,298 96,298  "/>
    <polygon class="st2" points="93.4,289.3 90.8,292.8 96,292.8  "/>
    <polygon class="st2" points="93.4,306.9 90.8,310.4 96,310.4  "/>
    <rect class="st2" height="1.7" width="5.2" x="101.2" y="301.5"/>
    <g><rect class="st4" height="1.7" width="5.2" x="101.2" y="301.5"/></g>
    <rect class="st7" height="2" width="2.6" x="81.8" y="303.2"/>
    <g><rect class="st4" height="2" width="2.6" x="81.8" y="303.2"/></g>
    <rect class="st7" height="2" width="2.6" x="102.6" y="303.2"/>
    <g><rect class="st4" height="2" width="2.6" x="102.6" y="303.2"/></g>
    <rect class="st8" height="1.7" width="5.2" x="90.8" y="292.8"/>
    <g><rect class="st4" height="1.7" width="5.2" x="90.8" y="292.8"/></g>
    <rect class="st8" height="1.7" width="5.2" x="90.8" y="296.3"/>
    <g><rect class="st4" height="1.7" width="5.2" x="90.8" y="296.3"/></g>
    <rect class="st8" height="1.7" width="7.8" x="89.6" y="294.5"/>
    <g><rect class="st4" height="1.7" width="7.8" x="89.6" y="294.5"/></g>
    <rect class="st8" height="1.7" width="5.2" x="90.8" y="310.4"/>
    <g><rect class="st4" height="1.7" width="5.2" x="90.8" y="310.4"/></g>
    <rect class="st8" height="1.7" width="5.2" x="90.8" y="313.9"/>
    <g><rect class="st4" height="1.7" width="5.2" x="90.8" y="313.9"/></g>
    <rect class="st8" height="1.7" width="7.8" x="89.6" y="312.1"/>
    <g><rect class="st4" height="1.7" width="7.8" x="89.6" y="312.1"/></g>
    <rect class="st2" height="1.7" width="5.2" x="101.2" y="305.2"/>
    <g><rect class="st4" height="1.7" width="5.2" x="101.2" y="305.2"/></g>
    <rect class="st2" height="1.7" width="5.2" x="80.6" y="301.5"/>
    <g><rect class="st4" height="1.7" width="5.2" x="80.6" y="301.5"/></g>
    <rect class="st2" height="1.7" width="5.2" x="80.6" y="305.2"/>
    <g><rect class="st4" height="1.7" width="5.2" x="80.6" y="305.2"/></g>
    <rect class="st2" height="2" width="2.6" x="79.2" y="303.2"/>
    <g><rect class="st4" height="2" width="2.6" x="79.2" y="303.2"/></g>
    <rect class="st2" height="2" width="2.6" x="84.4" y="303.2"/>
    <g><rect class="st4" height="2" width="2.6" x="84.4" y="303.2"/></g>
    <rect class="st2" height="2" width="2.6" x="100" y="303.2"/>
    <g><rect class="st4" height="2" width="2.6" x="100" y="303.2"/></g>
    <rect class="st2" height="2" width="2.3" x="105.2" y="303.2"/>
    <g><rect class="st4" height="2" width="2.3" x="105.2" y="303.2"/></g>
    <path class="st9"
          d="M90.5,313c0,0,0,0.3-0.3,0.3l-0.3-0.3c0-0.3,0.3-0.6,0.3-0.6C90.5,312.4,90.5,312.7,90.5,313L90.5,313z"/>
    <path class="st9"
          d="M93.9,313c0,0-0.3,0.3-0.6,0.3l-0.3-0.3c0-0.3,0.3-0.6,0.3-0.6C93.6,312.4,93.9,312.7,93.9,313L93.9,313z"/>
    <path class="st9" d="M97.1,312.7c0,0.3-0.3,0.6-0.3,0.6c-0.3,0-0.6-0.3-0.6-0.6c0,0,0.3-0.3,0.6-0.3L97.1,312.7z"/>
    <path class="st9"
          d="M91.9,311.3l-0.3,0.3c-0.3,0-0.3-0.3-0.3-0.3c0-0.3,0-0.6,0.3-0.6C91.6,310.7,91.9,311,91.9,311.3L91.9,311.3z   "/>
    <path class="st9"
          d="M95.7,311c0,0.3,0,0.6-0.3,0.6c-0.3,0-0.3-0.3-0.3-0.6c0,0,0-0.3,0.3-0.3C95.7,310.7,95.7,311,95.7,311   L95.7,311z"/>
    <path class="st9" d="M91.9,314.4c0,0.3-0.3,0.6-0.3,0.6c-0.3,0-0.3-0.3-0.3-0.6c0,0,0-0.3,0.3-0.3L91.9,314.4z"/>
    <path class="st9"
          d="M95.7,314.7c0,0.3,0,0.3-0.3,0.3c-0.3,0-0.3,0-0.3-0.3c0-0.3,0-0.6,0.3-0.6C95.7,314.2,95.7,314.4,95.7,314.7   L95.7,314.7z"/>
    <path class="st9"
          d="M100.9,304.1c0,0.3-0.3,0.6-0.3,0.6c-0.3,0-0.3-0.3-0.3-0.6s0-0.3,0.3-0.3   C100.6,303.8,100.9,303.8,100.9,304.1L100.9,304.1z"/>
    <path class="st9"
          d="M104.1,304.1c0,0.3,0,0.6-0.3,0.6c-0.3,0-0.3-0.3-0.3-0.6s0-0.3,0.3-0.3C104.1,303.8,104.1,303.8,104.1,304.1   L104.1,304.1z"/>
    <path class="st9"
          d="M107.2,304.1c0,0.3,0,0.6-0.3,0.6c-0.3,0-0.3-0.3-0.3-0.6s0-0.3,0.3-0.3C107.2,303.8,107.2,303.8,107.2,304.1   L107.2,304.1z"/>
    <path class="st9"
          d="M102,302.3c0,0.3,0,0.6-0.3,0.6c0,0-0.3-0.3-0.3-0.6c0-0.3,0.3-0.3,0.3-0.3C102,302,102,302,102,302.3   L102,302.3z"/>
    <path class="st9"
          d="M106.1,302.3c0,0.3-0.3,0.6-0.3,0.6c-0.3,0-0.6-0.3-0.6-0.6c0-0.3,0.3-0.3,0.6-0.3   C105.8,302,106.1,302,106.1,302.3L106.1,302.3z"/>
    <path class="st9"
          d="M102,305.8c0,0.3,0,0.6-0.3,0.6c0,0-0.3-0.3-0.3-0.6c0-0.3,0.3-0.3,0.3-0.3C102,305.5,102,305.5,102,305.8   L102,305.8z"/>
    <path class="st9" d="M106.1,305.8c0,0.3-0.3,0.6-0.3,0.6c-0.3,0-0.6-0.3-0.6-0.6c0,0,0.3-0.3,0.6-0.3L106.1,305.8z"/>
    <path class="st9"
          d="M90.5,295.4c0,0.3,0,0.6-0.3,0.6c0,0-0.3-0.3-0.3-0.6l0.3-0.3C90.5,295.1,90.5,295.4,90.5,295.4L90.5,295.4z"/>
    <path class="st9"
          d="M93.6,295.4c0,0.3,0,0.6-0.3,0.6c0,0-0.3-0.3-0.3-0.6l0.3-0.3C93.6,295.1,93.6,295.4,93.6,295.4L93.6,295.4z"/>
    <path class="st9"
          d="M97.1,295.4c0,0.3-0.3,0.6-0.6,0.6c0,0-0.3-0.3-0.3-0.6c0-0.3,0.3-0.3,0.3-0.3   C96.8,295.1,97.1,295.1,97.1,295.4L97.1,295.4z"/>
    <path class="st9" d="M91.9,293.7c0,0.3-0.3,0.6-0.3,0.6c-0.3,0-0.3-0.3-0.3-0.6c0,0,0-0.3,0.3-0.3L91.9,293.7z"/>
    <path class="st9"
          d="M95.7,293.7c0,0.3,0,0.6-0.3,0.6c-0.3,0-0.3-0.3-0.3-0.6c0-0.3,0-0.3,0.3-0.3   C95.7,293.4,95.7,293.4,95.7,293.7L95.7,293.7z"/>
    <path class="st9"
          d="M91.9,297.1c0,0.3-0.3,0.6-0.3,0.6c-0.3,0-0.6-0.3-0.6-0.6c0-0.3,0.3-0.3,0.6-0.3   C91.6,296.8,91.9,296.8,91.9,297.1L91.9,297.1z"/>
    <path class="st9"
          d="M95.7,297.4c0,0,0,0.3-0.3,0.3c-0.3,0-0.3-0.3-0.3-0.3c0-0.3,0-0.6,0.3-0.6C95.7,296.8,95.7,297.1,95.7,297.4   L95.7,297.4z"/>
    <path class="st9"
          d="M80.4,304.3c0,0.3-0.3,0.3-0.3,0.3c-0.3,0-0.6,0-0.6-0.3c0-0.3,0.3-0.6,0.6-0.6   C80.1,303.8,80.4,304.1,80.4,304.3L80.4,304.3z"/>
    <path class="st9"
          d="M83.5,304.3c0,0.3-0.3,0.3-0.3,0.3c-0.3,0-0.3,0-0.3-0.3c0-0.3,0-0.6,0.3-0.6   C83.2,303.8,83.5,304.1,83.5,304.3L83.5,304.3z"/>
    <path class="st9"
          d="M86.7,304.3l-0.3,0.3c-0.3,0-0.3-0.3-0.3-0.3c0-0.3,0-0.6,0.3-0.6C86.4,303.8,86.7,304.1,86.7,304.3   L86.7,304.3z"/>
    <path class="st9"
          d="M81.5,302.6c0,0.3,0,0.3-0.3,0.3s-0.3,0-0.3-0.3c0-0.3,0-0.6,0.3-0.6S81.5,302.3,81.5,302.6L81.5,302.6z"/>
    <path class="st9"
          d="M85.3,302.6c0,0,0,0.3-0.3,0.3l-0.3-0.3c0-0.3,0.3-0.6,0.3-0.6C85.3,302,85.3,302.3,85.3,302.6L85.3,302.6z"/>
    <path class="st9"
          d="M81.5,306.1c0,0,0,0.3-0.3,0.3s-0.3-0.3-0.3-0.3c0-0.3,0-0.6,0.3-0.6S81.5,305.8,81.5,306.1L81.5,306.1z"/>
    <path class="st9"
          d="M85.3,306.1c0,0.3,0,0.3-0.3,0.3c0,0-0.3,0-0.3-0.3c0-0.3,0.3-0.6,0.3-0.6C85.3,305.5,85.3,305.8,85.3,306.1   L85.3,306.1z"/>
    <polygon class="st9" points="98.6,266.2 100.9,265.1 102.9,266.2  "/>
    <polygon class="st9" points="91.9,266.2 94.2,265.1 96.2,266.2  "/>
    <polygon class="st9" points="85.3,266.2 87.6,265.1 89.6,266.2  "/>
    <polygon class="st9" points="98.6,235.9 100.9,237.1 102.9,235.9  "/>
    <polygon class="st9" points="91.9,235.9 94.2,237.1 96.2,235.9  "/>
    <polygon class="st9" points="85.3,235.9 87.6,237.1 89.6,235.9  "/>
    <polygon class="st5"
             points="96.8,265.7 94.2,268 91.6,265.7 89,268 86.4,265.7 86.4,266.8 88.2,268 87.3,268.8 87.3,270 88.2,270    89,268.8 89.9,270 90.8,270 90.8,268.8 89.9,268 91.6,266.8 93.4,268 92.5,268.8 92.5,270 93.4,270 94.2,268.8 95.1,270 96,270    96,268.8 95.1,268 96.8,266.8 98.6,268 97.7,268.8 97.7,270 98.6,270 99.1,268.8 100,270 100.9,270 100.9,268.8 100,268    101.7,266.8 101.7,265.7 99.1,268  "/>
    <polygon class="st5"
             points="96.8,235.7 94.2,233.6 91.6,235.7 89,233.6 86.4,235.7 86.4,234.8 88.2,233.6 87.3,232.8 87.3,231.6    88.2,231.6 89,232.8 89.9,231.6 90.8,231.6 90.8,232.8 89.9,233.6 91.6,234.8 93.4,233.6 92.5,232.8 92.5,231.6 93.4,231.6    94.2,232.8 95.1,231.6 96,231.6 96,232.8 95.1,233.6 96.8,234.8 98.6,233.6 97.7,232.8 97.7,231.6 98.6,231.6 99.1,232.8    100,231.6 100.9,231.6 100.9,232.8 100,233.6 101.7,234.8 101.7,235.7 99.1,233.6  "/>
    <polygon class="st5"
             points="116.2,253 119.1,250.7 116.2,248.6 119.1,246.3 116.2,244 117.6,244 119.1,245.5 120.5,244.9    122,244.9 122,245.5 120.5,246.3 122,246.9 122,247.8 120.5,247.8 119.1,246.9 117.6,248.6 119.1,250.1 120.5,249.2 122,249.2    122,250.1 120.5,250.7 122,251.5 122,252.4 120.5,252.4 119.1,251.5 117.6,253 119.1,254.4 120.5,253.8 122,253.8 122,254.4    120.5,255.3 122,256.1 122,256.7 120.5,256.7 119.1,256.1 117.6,257.6 116.2,257.6 119.1,255.3  "/>
    <polygon class="st5"
             points="72,253 69.1,250.7 72,248.6 69.1,246.3 72,244 70.5,244 69.1,245.5 67.6,244.9 66.5,244.9 66.5,245.5    67.6,246.3 66.5,246.9 66.5,247.8 67.6,247.8 69.1,246.9 70.5,248.6 69.1,250.1 67.6,249.2 66.5,249.2 66.5,250.1 67.6,250.7    66.5,251.5 66.5,252.4 67.6,252.4 69.1,251.5 70.5,253 69.1,254.4 67.6,253.8 66.5,253.8 66.5,254.4 67.6,255.3 66.5,256.1    66.5,256.7 67.6,256.7 69.1,256.1 70.5,257.6 72,257.6 69.1,255.3  "/>
    <rect class="st5" height="1.2" width="1.2" x="117.3" y="260.5"/>
    <g><rect class="st4" height="1.2" width="1.2" x="117.3" y="260.5"/></g>
    <rect class="st5" height="1.2" width="1.2" x="116.2" y="261.6"/>
    <g><rect class="st4" height="1.2" width="1.2" x="116.2" y="261.6"/></g>
    <rect class="st5" height="1.2" width="1.2" x="110.7" y="266.8"/>
    <g><rect class="st4" height="1.2" width="1.2" x="110.7" y="266.8"/></g>
    <rect class="st5" height="1.2" width="1.2" x="111.9" y="265.7"/>
    <g><rect class="st4" height="1.2" width="1.2" x="111.9" y="265.7"/></g>
    <rect class="st5" height="1.2" width="1.2" x="75.1" y="265.7"/>
    <g><rect class="st4" height="1.2" width="1.2" x="75.1" y="265.7"/></g>
    <rect class="st5" height="1.2" width="1.2" x="69.7" y="260.5"/>
    <g><rect class="st4" height="1.2" width="1.2" x="69.7" y="260.5"/></g>
    <rect class="st5" height="1.2" width="1.2" x="70.8" y="261.6"/>
    <g><rect class="st4" height="1.2" width="1.2" x="70.8" y="261.6"/></g>
    <rect class="st5" height="1.2" width="1.2" x="70.8" y="238.8"/>
    <g><rect class="st4" height="1.2" width="1.2" x="70.8" y="238.8"/></g>
    <rect class="st5" height="0.9" width="1.2" x="69.7" y="240"/>
    <g><rect class="st4" height="0.9" width="1.2" x="69.7" y="240"/></g>
    <rect class="st5" height="1.2" width="1.2" x="76.3" y="233.6"/>
    <g><rect class="st4" height="1.2" width="1.2" x="76.3" y="233.6"/></g>
    <rect class="st5" height="0.9" width="1.2" x="75.1" y="234.8"/>
    <g><rect class="st4" height="0.9" width="1.2" x="75.1" y="234.8"/></g>
    <rect class="st5" height="1.2" width="1.2" x="110.7" y="233.6"/>
    <g><rect class="st4" height="1.2" width="1.2" x="110.7" y="233.6"/></g>
    <rect class="st5" height="0.9" width="1.2" x="111.9" y="234.8"/>
    <g><rect class="st4" height="0.9" width="1.2" x="111.9" y="234.8"/></g>
    <rect class="st5" height="1.2" width="1.2" x="116.2" y="238.8"/>
    <g><rect class="st4" height="1.2" width="1.2" x="116.2" y="238.8"/></g>
    <rect class="st5" height="0.9" width="1.2" x="117.3" y="240"/>
    <g><rect class="st4" height="0.9" width="1.2" x="117.3" y="240"/></g>
    <rect class="st5" height="1.2" width="1.2" x="76.3" y="266.8"/>
    <g><rect class="st4" height="1.2" width="1.2" x="76.3" y="266.8"/></g>
    <path class="st9" d="M90.8,250.7h-3.2v-2h2v-1.7h2.3v-1.7h2v2C92.2,247.2,90.8,248.6,90.8,250.7L90.8,250.7z"/>
    <path class="st2" d="M97.1,250.7h3.5v-2h-2.3v-1.7h-2v-1.7h-2.3v2C95.7,247.2,97.1,248.6,97.1,250.7L97.1,250.7z"/>
    <path class="st9" d="M97.1,250.7h3.5v2h-2.3v2h-2v1.7h-2.3v-2C95.7,254.4,97.1,252.7,97.1,250.7L97.1,250.7z"/>
    <path class="st2" d="M90.8,250.7h-3.2v2h2v2h2.3v1.7h2v-2C92.2,254.4,90.8,252.7,90.8,250.7L90.8,250.7z"/>
    <path class="st5" d="M97.1,250.7h-3.2v-3.5C95.7,247.2,97.1,248.9,97.1,250.7L97.1,250.7z"/>
    <path class="st3" d="M97.1,250.7h-3.2v3.8C95.7,254.4,97.1,252.7,97.1,250.7L97.1,250.7z"/>
    <path class="st5" d="M90.8,250.7h3.2v3.8C92.2,254.4,90.8,252.7,90.8,250.7L90.8,250.7z"/>
    <path class="st3" d="M90.8,250.7h3.2v-3.5C92.2,247.2,90.8,248.9,90.8,250.7L90.8,250.7z"/>
    <polygon class="st5"
             points="97.4,263.6 94.2,261.6 90.8,263.6 87.6,261.6 84.1,263.6 84.1,262.8 86.4,261.6 85.3,260.5    85.3,259.6 86.4,259.6 87.6,260.5 88.4,259.6 89.6,259.6 89.6,260.5 88.4,261.6 90.8,262.8 93.1,261.6 91.9,260.5 91.9,259.6    93.1,259.6 94.2,260.5 95.1,259.6 96.2,259.6 96.2,260.5 95.1,261.6 97.4,262.8 99.7,261.6 98.6,260.5 98.6,259.6 99.7,259.6    100.9,260.5 101.7,259.6 102.9,259.6 102.9,260.5 101.7,261.6 104,262.8 104,263.6 100.9,261.6  "/>
    <polygon class="st5"
             points="97.4,238 94.2,240 90.8,238 87.6,240 84.1,238 84.1,238.8 86.4,240 85.3,240.9 85.3,242 86.4,242    87.6,240.9 88.4,242 89.6,242 89.6,240.9 88.4,240 90.8,238.8 93.1,240 91.9,240.9 91.9,242 93.1,242 94.2,240.9 95.1,242    96.2,242 96.2,240.9 95.1,240 97.4,238.8 99.7,240 98.6,240.9 98.6,242 99.7,242 100.9,240.9 101.7,242 102.9,242 102.9,240.9    101.7,240 104,238.8 104,238 100.9,240  "/>
    <polygon class="st5"
             points="109.5,253.3 108.1,250.7 109.5,248.1 108.1,245.5 109.5,243.2 108.7,243.2 108.1,244.9 107.2,244    106.4,244 106.4,244.9 107.2,245.5 106.4,246.3 106.4,247.2 107.2,247.2 108.1,246.3 108.7,248.1 108.1,249.8 107.2,248.9    106.4,248.9 106.4,249.8 107.2,250.7 106.4,251.5 106.4,252.4 107.2,252.4 108.1,251.5 108.7,253.3 108.1,255 107.2,254.1    106.4,254.1 106.4,255 107.2,255.9 106.4,256.7 106.4,257.6 107.2,257.6 108.1,256.7 108.7,258.5 109.5,258.5 108.1,255.9  "/>
    <path class="st5"
          d="M84.1,238.8l-4.3,4.3v15.3l4.3,4.3h19.9l4.3-4.3v-15.3l-4.3-4.3H84.1z M83,235.7L72,246v9.5l11,10.1h22.3   l11-10.1V246l-11-10.4H83z"/>
    <g><path class="st4" d="M84.1,238.8l-4.3,4.3v15.3l4.3,4.3h19.9l4.3-4.3v-15.3l-4.3-4.3H84.1z M83,235.7L72,246v9.5l11,10.1h22.3    l11-10.1V246l-11-10.4H83z"/></g>
    <polygon class="st2" points="88.7,263.6 90.5,265.7 92.2,263.6  "/>
    <g><polygon class="st4" points="88.7,263.6 90.5,265.7 92.2,263.6   "/></g>
    <polygon class="st2" points="88.7,238 90.5,235.7 92.2,238  "/>
    <g><polygon class="st4" points="88.7,238 90.5,235.7 92.2,238   "/></g>
    <polygon class="st2" points="96,238 97.7,235.7 99.4,238  "/>
    <g><polygon class="st4" points="96,238 97.7,235.7 99.4,238   "/></g>
    <polygon class="st2" points="96,263.6 97.7,265.7 99.4,263.6  "/>
    <g><polygon class="st4" points="96,263.6 97.7,265.7 99.4,263.6   "/></g>
    <polygon class="st3" points="85.3,238 87,235.7 88.7,238  "/>
    <g><polygon class="st4" points="85.3,238 87,235.7 88.7,238   "/></g>
    <polygon class="st3" points="92.2,238 94.2,235.7 96,238  "/>
    <g><polygon class="st4" points="92.2,238 94.2,235.7 96,238   "/></g>
    <polygon class="st3" points="99.4,238 101.2,235.7 102.9,238  "/>
    <g><polygon class="st4" points="99.4,238 101.2,235.7 102.9,238   "/></g>
    <polygon class="st3" points="80.9,260.5 84.1,263.6 80.9,263.6  "/>
    <g><polygon class="st4" points="80.9,260.5 84.1,263.6 80.9,263.6   "/></g>
    <polygon class="st5"
             points="78.6,253.3 80.4,250.7 78.6,248.1 80.4,245.5 78.6,243.2 79.5,243.2 80.4,244.9 80.9,244 81.8,244    81.8,244.9 80.9,245.5 81.8,246.3 81.8,247.2 80.9,247.2 80.4,246.3 79.5,248.1 80.4,249.8 80.9,248.9 81.8,248.9 81.8,249.8    80.9,250.7 81.8,251.5 81.8,252.4 80.9,252.4 80.4,251.5 79.5,253.3 80.4,255 80.9,254.1 81.8,254.1 81.8,255 80.9,255.9    81.8,256.7 81.8,257.6 80.9,257.6 80.4,256.7 79.5,258.5 78.6,258.5 80.4,255.9  "/>
    <polygon class="st3" points="110.7,248.1 115.3,248.1 116.2,248.9 115.3,249.8 110.7,249.8  "/>
    <g><polygon class="st4" points="110.7,248.1 115.3,248.1 116.2,248.9 115.3,249.8 110.7,249.8   "/></g>
    <polygon class="st3" points="80.9,240.9 78.6,243.2 78.6,258.5 80.9,260.5 77.5,260.5 77.5,240.9  "/>
    <g><polygon class="st4" points="80.9,240.9 78.6,243.2 78.6,258.5 80.9,260.5 77.5,260.5 77.5,240.9   "/></g>
    <polygon class="st3" points="85.3,263.6 87,265.7 88.7,263.6  "/>
    <g><polygon class="st4" points="85.3,263.6 87,265.7 88.7,263.6   "/></g>
    <polygon class="st3" points="92.2,263.6 94.2,265.7 96,263.6  "/>
    <g><polygon class="st4" points="92.2,263.6 94.2,265.7 96,263.6   "/></g>
    <polygon class="st3" points="99.4,263.6 101.2,265.7 102.9,263.6  "/>
    <g><polygon class="st4" points="99.4,263.6 101.2,265.7 102.9,263.6   "/></g>
    <polygon class="st3" points="107.5,240.9 109.5,243.2 109.5,258.5 107.5,260.5 110.7,260.5 110.7,240.9  "/>
    <g><polygon class="st4" points="107.5,240.9 109.5,243.2 109.5,258.5 107.5,260.5 110.7,260.5 110.7,240.9   "/></g>
    <polygon class="st3" points="107.5,260.5 104,263.6 107.5,263.6  "/>
    <g><polygon class="st4" points="107.5,260.5 104,263.6 107.5,263.6   "/></g>
    <polygon class="st3" points="107.5,240.9 104,238 107.5,238  "/>
    <g><polygon class="st4" points="107.5,240.9 104,238 107.5,238   "/></g>
    <polygon class="st3" points="80.9,240.9 84.1,238 80.9,238  "/>
    <g><polygon class="st4" points="80.9,240.9 84.1,238 80.9,238   "/></g>
    <path class="st5"
          d="M84.1,238.8l-4.3,4.3v15.3l4.3,4.3h19.9l4.3-4.3v-15.3l-4.3-4.3H84.1z M84.1,238l-5.5,5.2v15.3l5.5,5.2h19.9   l5.5-5.2v-15.3l-5.5-5.2H84.1z"/>
    <g><path class="st4" d="M84.1,238.8l-4.3,4.3v15.3l4.3,4.3h19.9l4.3-4.3v-15.3l-4.3-4.3H84.1z M84.1,238l-5.5,5.2v15.3l5.5,5.2h19.9    l5.5-5.2v-15.3l-5.5-5.2H84.1z"/></g>
    <polygon class="st2" points="110.7,249.8 115.3,249.8 116.2,250.7 115.3,251.8 110.7,251.8  "/>
    <g><polygon class="st4" points="110.7,249.8 115.3,249.8 116.2,250.7 115.3,251.8 110.7,251.8   "/></g>
    <polygon class="st3" points="110.7,251.8 115.3,251.8 116.2,252.7 115.3,253.5 110.7,253.5  "/>
    <g><polygon class="st4" points="110.7,251.8 115.3,251.8 116.2,252.7 115.3,253.5 110.7,253.5   "/></g>
    <polygon class="st2" points="110.7,253.5 115.3,253.5 116.2,254.4 115.3,255.6 110.7,255.6  "/>
    <g><polygon class="st4" points="110.7,253.5 115.3,253.5 116.2,254.4 115.3,255.6 110.7,255.6   "/></g>
    <polygon class="st2" points="110.7,246 115.3,246 116.2,247.2 115.3,248.1 110.7,248.1  "/>
    <g><polygon class="st4" points="110.7,246 115.3,246 116.2,247.2 115.3,248.1 110.7,248.1   "/></g>
    <polygon class="st3" points="77.5,248.1 73.1,248.1 72,248.9 73.1,249.8 77.5,249.8  "/>
    <g><polygon class="st4" points="77.5,248.1 73.1,248.1 72,248.9 73.1,249.8 77.5,249.8   "/></g>
    <polygon class="st2" points="77.5,249.8 73.1,249.8 72,250.7 73.1,251.8 77.5,251.8  "/>
    <g><polygon class="st4" points="77.5,249.8 73.1,249.8 72,250.7 73.1,251.8 77.5,251.8   "/></g>
    <polygon class="st3" points="77.5,251.8 73.1,251.8 72,252.7 73.1,253.5 77.5,253.5  "/>
    <g><polygon class="st4" points="77.5,251.8 73.1,251.8 72,252.7 73.1,253.5 77.5,253.5   "/></g>
    <polygon class="st2" points="77.5,253.5 73.1,253.5 72,254.4 73.1,255.6 77.5,255.6  "/>
    <g><polygon class="st4" points="77.5,253.5 73.1,253.5 72,254.4 73.1,255.6 77.5,255.6   "/></g>
    <polygon class="st2" points="77.5,246 73.1,246 72,247.2 73.1,248.1 77.5,248.1  "/>
    <g><polygon class="st4" points="77.5,246 73.1,246 72,247.2 73.1,248.1 77.5,248.1   "/></g>
    <path class="st10"
          d="M70.8,240v21.6h5.5v5.2h35.6v-5.2h5.5V240h-5.5v-5.2H76.3v5.2H70.8z M72,240.9v19.6h5.5v5.2h33.2v-5.2h5.5   v-19.6h-5.5v-5.2H77.5v5.2H72z"/>
    <g><path class="st4" d="M70.8,240v21.6h5.5v5.2h35.6v-5.2h5.5V240h-5.5v-5.2H76.3v5.2H70.8z M72,240.9v19.6h5.5v5.2h33.2v-5.2h5.5    v-19.6h-5.5v-5.2H77.5v5.2H72z"/></g>
    <polygon class="st3"
             points="122,133.8 118.5,128.6 118.5,124.8 115.3,120.8 108.4,120.8 102.9,117 85.3,117 79.8,120.8    73.1,120.8 69.7,124.8 69.7,128.6 66.5,133.8 66.5,143.9 69.7,149.1 69.7,152.8 73.1,156.6 79.8,156.6 85.3,160.3 102.9,160.3    108.4,156.6 115.3,156.6 118.5,152.8 118.5,149.1 122,143.9  "/>
    <g><polygon class="st4" points="122,133.8 118.5,128.6 118.5,124.8 115.3,120.8 108.4,120.8 102.9,117 85.3,117 79.8,120.8     73.1,120.8 69.7,124.8 69.7,128.6 66.5,133.8 66.5,143.9 69.7,149.1 69.7,152.8 73.1,156.6 79.8,156.6 85.3,160.3 102.9,160.3     108.4,156.6 115.3,156.6 118.5,152.8 118.5,149.1 122,143.9   "/></g>
    <polygon class="st2"
             points="67.3,138.7 67.3,142.4 70.8,147.6 70.8,151.4 74,155.4 80.9,155.4 86.4,159.2 94.2,159.2 94.2,138.7     "/>
    <polygon class="st3"
             points="84.7,147.6 80.6,150.8 78.3,150.8 79.2,152 77.5,154.3 78.3,155.4 80.6,154.3 81.5,155.4 81.8,152.5    86.4,149.1  "/>
    <polygon class="st3"
             points="80.4,145 76.3,148.5 73.7,148.5 74.6,149.4 73.1,151.7 73.7,152.8 76.3,151.7 77.2,152.8 77.5,149.9    81.8,146.5  "/>
    <polygon class="st3"
             points="78,140.1 74,143.3 71.7,143.3 72.5,144.5 70.8,146.5 71.7,147.6 74,146.5 74.9,147.6 75.1,144.7    79.8,141.3  "/>
    <polygon class="st2"
             points="120.8,138.7 120.8,134.9 117.3,129.7 117.3,126 114.2,122.2 107.5,122.2 101.7,118.2 94.2,118.2    94.2,138.7  "/>
    <polygon class="st3"
             points="94.2,159.2 91.9,159.2 89.6,156.6 85.8,156.6 83.8,155.4 85,154 87,155.4 89,155.4 91,151.4    94.2,152.8 94.2,155.4 91,155.4  "/>
    <polygon class="st9"
             points="67.3,138.7 67.3,134.9 70.8,129.7 70.8,126 74,122.2 80.9,122.2 86.4,118.2 94.2,118.2 94.2,138.7     "/>
    <polygon class="st3"
             points="94.2,118.2 91.9,118.2 89.6,120.8 85.8,120.8 83.8,122.2 85,123.4 87,122.2 89,122.2 91,126    94.2,124.8 94.2,122.2 91,122.2  "/>
    <polygon class="st3"
             points="94.2,118.2 96.2,118.2 98.6,120.8 102.3,120.8 104.3,122.2 103.5,123.4 101.2,122.2 99.1,122.2    97.1,126 94.2,124.8 94.2,122.2 97.1,122.2  "/>
    <polygon class="st9"
             points="120.8,138.7 120.8,142.4 117.3,147.6 117.3,151.4 114.2,155.4 107.5,155.4 101.7,159.2 94.2,159.2    94.2,138.7  "/>
    <polygon class="st3"
             points="94.2,159.2 96.2,159.2 98.6,156.6 102.3,156.6 104.3,155.4 103.5,154 101.2,155.4 99.1,155.4    97.1,151.4 94.2,152.8 94.2,155.4 97.1,155.4  "/>
    <polygon class="st3"
             points="80.4,132.3 76.3,129.2 73.7,129.2 74.6,128 73.1,125.7 73.7,124.8 76.3,125.7 77.2,124.8 77.5,127.7    81.8,131.2  "/>
    <polygon class="st3"
             points="103.5,129.7 107.5,126.6 109.8,126.6 109.3,125.4 110.7,123.4 109.8,122.2 107.5,123.4 106.7,122.2    106.4,125.1 101.7,128.6  "/>
    <polygon class="st3"
             points="84.7,129.7 80.6,126.6 78.3,126.6 79.2,125.4 77.5,123.4 78.3,122.2 80.6,123.4 81.5,122.2    81.8,125.1 86.4,128.6  "/>
    <polygon class="st3"
             points="78,137.5 74,134.1 71.7,134.1 72.5,133.2 70.8,130.9 71.7,129.7 74,130.9 74.9,129.7 75.1,132.6    79.8,136.1  "/>
    <polygon class="st9"
             points="69.4,138.7 70.5,138.7 71.4,140.1 72.5,138.7 94.2,138.7 94.2,156.6 93.1,156.6 94.2,157.7    94.2,159.2 91,155.4 91,154 91.9,154 91.9,155.4 93.1,155.4 93.1,154 84.7,148.5 77.8,148.5 77.8,143 74.6,140.1 72.5,140.1    71.4,141.3 72.5,142.4 71.4,142.4  "/>
    <polygon class="st2"
             points="69.4,138.7 70.5,138.7 71.4,137.5 72.5,138.7 94.2,138.7 94.2,120.8 93.1,120.8 94.2,119.6    94.2,118.2 91,122.2 91,123.4 91.9,123.4 91.9,122.2 93.1,122.2 93.1,123.4 84.7,129.2 77.8,129.2 77.8,134.6 74.6,137.5    72.5,137.5 71.4,136.1 72.5,134.9 71.4,134.9  "/>
    <polygon class="st5" points="74,138.7 94.2,138.7 94.2,154 85.3,147.6 78.6,147.6 78.6,142.4  "/>
    <polygon class="st3"
             points="107.8,132.3 111.9,129.2 114.5,129.2 113.6,128 115.3,125.7 114.5,124.8 111.9,125.7 111.3,124.8    110.7,127.7 106.4,131.2  "/>
    <polygon class="st3"
             points="110.1,137.5 114.2,134.1 116.5,134.1 115.9,133.2 117.3,130.9 116.5,129.7 114.2,130.9 113.3,129.7    113,132.6 108.4,136.1  "/>
    <polygon class="st9"
             points="118.8,138.7 117.6,138.7 116.8,137.5 115.6,138.7 94.2,138.7 94.2,120.8 95.1,120.8 94.2,119.6    94.2,118.2 97.1,122.2 97.1,123.4 96.2,123.4 96.2,122.2 95.1,122.2 95.1,123.4 103.5,129.2 110.4,129.2 110.4,134.6 113.6,137.5    115.6,137.5 116.8,136.1 115.6,134.9 116.8,134.9  "/>
    <polygon class="st5" points="114.2,138.7 94.2,138.7 94.2,123.4 102.9,129.7 109.5,129.7 109.5,134.9  "/>
    <polygon class="st3"
             points="103.5,147.6 107.5,150.8 109.8,150.8 109.3,152 110.7,154.3 109.8,155.4 107.5,154.3 106.7,155.4    106.4,152.5 101.7,149.1  "/>
    <polygon class="st3"
             points="107.8,145 111.9,148.5 114.5,148.5 113.6,149.4 115.3,151.7 114.5,152.8 111.9,151.7 111.3,152.8    110.7,149.9 106.4,146.5  "/>
    <polygon class="st3"
             points="110.1,140.1 114.2,143.3 116.5,143.3 115.9,144.5 117.3,146.5 116.5,147.6 114.2,146.5 113.3,147.6    113,144.7 108.4,141.3  "/>
    <polygon class="st2"
             points="118.8,138.7 117.6,138.7 116.8,140.1 115.6,138.7 94.2,138.7 94.2,156.6 95.1,156.6 94.2,157.7    94.2,159.2 97.1,155.4 97.1,154 96.2,154 96.2,155.4 95.1,155.4 95.1,154 103.5,148.5 110.4,148.5 110.4,143 113.6,140.1    115.6,140.1 116.8,141.3 115.6,142.4 116.8,142.4  "/>
    <polygon class="st3" points="114.2,138.7 94.2,138.7 94.2,154 102.9,147.6 109.5,147.6 109.5,142.4  "/>
    <polygon class="st3" points="74,138.7 94.2,138.7 94.2,123.4 85.3,129.7 78.6,129.7 78.6,134.9  "/>
    <polygon class="st3"
             points="96.2,138.7 101.7,134.9 105.2,134.9 104,133.8 106.4,131.2 105.2,129.7 101.7,131.2 100.9,129.7    100.3,133.2 94.2,137.2  "/>
    <polygon class="st3"
             points="91.9,138.7 86.4,142.4 83,142.4 84.1,143.9 81.8,146.5 83,147.6 86.4,146.5 87.6,147.6 87.9,144.2    94.2,140.1  "/>
    <polygon class="st5"
             points="91.9,138.7 86.4,134.9 83,134.9 84.1,133.8 81.8,131.2 83,129.7 86.4,131.2 87.6,129.7 87.9,133.2    94.2,137.2  "/>
    <polygon class="st5"
             points="96.2,138.7 101.7,142.4 105.2,142.4 104,143.9 106.4,146.5 105.2,147.6 101.7,146.5 100.9,147.6    100.3,144.2 94.2,140.1  "/>
    <polygon class="st9" points="87.6,138.7 94.2,132.3 100.9,138.7 94.2,145  "/>
    <polygon class="st3"
             points="72.5,141.3 73.4,142.4 72.5,143.9 71.4,143.9 68.5,138.7 69.4,138.7 71.4,142.4 72.5,142.4    71.4,141.3 72.5,140.1 74.6,140.1 74.6,141.3  "/>
    <polygon class="st3"
             points="72.5,136.1 73.4,134.9 72.5,133.8 71.4,133.8 68.5,138.7 69.4,138.7 71.4,134.9 72.5,134.9    71.4,136.1 72.5,137.5 74.6,137.5 74.6,136.1  "/>
    <polygon class="st3"
             points="115.6,141.3 114.7,142.4 115.6,143.9 116.8,143.9 119.7,138.7 118.8,138.7 116.8,142.4 115.6,142.4    116.8,141.3 115.6,140.1 113.6,140.1 113.6,141.3  "/>
    <polygon class="st3"
             points="115.6,136.1 114.7,134.9 115.6,133.8 116.8,133.8 119.7,138.7 118.8,138.7 116.8,134.9 115.6,134.9    116.8,136.1 115.6,137.5 113.6,137.5 113.6,136.1  "/>
    <rect class="st3" height="10.1" width="2" x="93.1" y="133.8"/>
    <rect class="st3" height="5.2" width="8.4" x="89.9" y="136.1"/>
    <polygon class="st5"
             points="85,338.4 66.5,349.1 66.5,367.3 85,377.9 103.5,377.9 122,367.3 122,349.1 103.5,338.4  "/>
    <g><polygon class="st4" points="85,338.4 66.5,349.1 66.5,367.3 85,377.9 103.5,377.9 122,367.3 122,349.1 103.5,338.4   "/></g>
    <polygon class="st7"
             points="73.1,354 74.3,354 74.3,351.4 76.6,351.4 76.6,354 77.8,354 77.8,347.9 76.6,347.9 76.6,350.5    74.3,350.5 74.3,347.9 73.1,347.9  "/>
    <polygon class="st7"
             points="101.5,374.5 102.6,374.5 102.6,371.9 104.9,371.9 104.9,374.5 106.1,374.5 106.1,368.4 104.9,368.4    104.9,371 102.6,371 102.6,368.4 101.5,368.4  "/>
    <polygon class="st7"
             points="110.4,354 111.6,354 111.6,351.4 113.9,351.4 113.9,354 115,354 115,347.9 113.9,347.9 113.9,350.5    111.6,350.5 111.6,347.9 110.4,347.9  "/>
    <polygon class="st7"
             points="110.4,364.4 111.6,364.4 111.6,361.8 113.9,361.8 113.9,364.4 115,364.4 115,358 113.9,358    113.9,360.9 111.6,360.9 111.6,358 110.4,358  "/>
    <polygon class="st2" points="94.2,377.1 94.2,358 120.8,358 120.8,366.7 103.2,377.1  "/>
    <polygon class="st2" points="94.2,339.3 94.2,358 67.3,358 67.3,349.6 85.3,339.3  "/>
    <polygon class="st9" points="94.2,339.3 94.2,358 120.8,358 120.8,349.6 103.2,339.3  "/>
    <polygon class="st9" points="94.2,377.1 94.2,358 67.3,358 67.3,366.7 85.3,377.1  "/>
    <path class="st2"
          d="M108.4,350.5h10.7l-10.7-5.2V350.5z M120.8,349.6v8.4H104v-6.6h-3.8l-4.3-2.6v-6.1l2.6-2.6h-3.5v8.7h-0.9v-9.5   h9L120.8,349.6z"/>
    <g><path class="st4" d="M108.4,350.5h10.7l-10.7-5.2V350.5z M120.8,349.6v8.4H104v-6.6h-3.8l-4.3-2.6v-6.1l2.6-2.6h-3.5v8.7h-0.9    v-9.5h9L120.8,349.6z"/></g>
    <polygon class="st3"
             points="85.3,352.2 85.3,364.1 87.9,364.1 94.2,367.5 100.3,364.1 103.2,364.1 103.2,352.2 100.3,352.2    94.2,348.8 87.9,352.2  "/>
    <path class="st2"
          d="M79.8,365.8H69.1l10.7,5.2V365.8z M67.3,366.7V358h17.1v6.9h3.5l4.3,2.6v6.1l-2.6,2.6h3.5v-8.7h1.2v9.5h-9   L67.3,366.7z"/>
    <g><path class="st4" d="M79.8,365.8H69.1l10.7,5.2V365.8z M67.3,366.7V358h17.1v6.9h3.5l4.3,2.6v6.1l-2.6,2.6h3.5v-8.7h1.2v9.5h-9    L67.3,366.7z"/></g>
    <path class="st9"
          d="M79.8,350.5H69.1l10.7-5.2V350.5z M67.3,349.6v8.4h17.1v-6.6h3.5l4.3-2.6v-6.1l-2.6-2.6h3.5v8.7h1.2v-9.5h-9   L67.3,349.6z"/>
    <g><path class="st4" d="M79.8,350.5H69.1l10.7-5.2V350.5z M67.3,349.6v8.4h17.1v-6.6h3.5l4.3-2.6v-6.1l-2.6-2.6h3.5v8.7h1.2v-9.5h-9    L67.3,349.6z"/></g>
    <path class="st9"
          d="M108.4,365.8h10.7l-10.7,5.2V365.8z M120.8,366.7V358H104v6.9h-3.8l-4.3,2.6v6.1l2.6,2.6h-3.5v-8.7h-0.9v9.5h9   L120.8,366.7z"/>
    <g><path class="st4" d="M108.4,365.8h10.7l-10.7,5.2V365.8z M120.8,366.7V358H104v6.9h-3.8l-4.3,2.6v6.1l2.6,2.6h-3.5v-8.7h-0.9v9.5    h9L120.8,366.7z"/></g>
    <polygon class="st3"
             points="72.5,364.9 73.7,364.9 73.7,362.3 76,362.3 76,364.9 77.2,364.9 77.2,358.9 76,358.9 76,361.5    73.7,361.5 73.7,358.9 72.5,358.9  "/>
    <polygon class="st3"
             points="83.2,373.6 84.4,373.6 84.4,371 86.7,371 86.7,373.6 87.9,373.6 87.9,367.5 86.7,367.5 86.7,370.1    84.4,370.1 84.4,367.5 83.2,367.5  "/>
    <polygon class="st3"
             points="72.5,351.4 73.7,351.4 73.7,354 76,354 76,351.4 77.2,351.4 77.2,357.4 76,357.4 76,354.8 73.7,354.8    73.7,357.4 72.5,357.4  "/>
    <polygon class="st3"
             points="83.2,342.7 84.4,342.7 84.4,345.3 86.7,345.3 86.7,342.7 87.9,342.7 87.9,348.8 86.7,348.8    86.7,346.2 84.4,346.2 84.4,348.8 83.2,348.8  "/>
    <polygon class="st3"
             points="111,357.4 112.1,357.4 112.1,354.8 114.5,354.8 114.5,357.4 115.6,357.4 115.6,351.4 114.5,351.4    114.5,354 112.1,354 112.1,351.4 111,351.4  "/>
    <polygon class="st3"
             points="100.3,373.6 101.5,373.6 101.5,371 103.8,371 103.8,373.6 104.9,373.6 104.9,367.5 103.8,367.5    103.8,370.1 101.5,370.1 101.5,367.5 100.3,367.5  "/>
    <polygon class="st3"
             points="111,364.9 112.1,364.9 112.1,362.3 114.5,362.3 114.5,364.9 115.6,364.9 115.6,358.9 114.5,358.9    114.5,361.5 112.1,361.5 112.1,358.9 111,358.9  "/>
    <polygon class="st3"
             points="100.3,348.8 101.5,348.8 101.5,346.2 103.8,346.2 103.8,348.8 104.9,348.8 104.9,342.7 103.8,342.7    103.8,345.3 101.5,345.3 101.5,342.7 100.3,342.7  "/>
    <polygon class="st5"
             points="95.1,358 98.6,355.1 100.3,355.1 100.3,356.6 98.6,356.6 98.6,357.4 101.2,357.4 101.2,354.3    98.6,354.3 98.6,352 95.1,352 95.1,354.3 96,354.3 96,352.5 97.7,352.5 97.7,354.3 94.2,357.4 90.5,354.3 90.5,352.5 92.2,352.5    92.2,354.3 93.1,354.3 93.1,352 89.6,352 89.6,354.3 87,354.3 87,357.4 89.6,357.4 89.6,356.6 87.9,356.6 87.9,355.1 89.6,355.1    93.1,358 89.6,361.2 87.9,361.2 87.9,359.7 89.6,359.7 89.6,358.9 87,358.9 87,362.1 89.6,362.1 89.6,364.4 93.1,364.4 93.1,362.1    92.2,362.1 92.2,363.8 90.5,363.8 90.5,362.1 94.2,358.9 97.7,362.1 97.7,363.8 96,363.8 96,362.1 95.1,362.1 95.1,364.4    98.6,364.4 98.6,362.1 101.2,362.1 101.2,358.9 98.6,358.9 98.6,359.7 100.3,359.7 100.3,361.2 98.6,361.2  "/>
    <polygon class="st3"
             points="69.1,198.4 70.8,196.1 81.2,196.1 89,186.3 99.4,186.3 107.2,196.1 117.3,196.1 119.1,198.4    117.3,200.7 107.2,200.7 99.4,210.8 89,210.8 81.2,200.7 70.8,200.7  "/>
    <polygon class="st3"
             points="69.9,195.8 70.8,195 81.5,195 89.6,185.4 98.6,185.4 106.7,195 117.4,195 118.2,195.8 117.4,196.7    106.7,196.7 99.4,205.1 88.7,205.1 81.5,196.7 70.8,196.7  "/>
    <g><polygon class="st4" points="69.9,195.8 70.8,195 81.5,195 89.6,185.4 98.6,185.4 106.7,195 117.4,195 118.2,195.8 117.4,196.7     106.7,196.7 99.4,205.1 88.7,205.1 81.5,196.7 70.8,196.7   "/></g>
    <path class="st2"
          d="M98.6,196.7l3.5,3.8l-1.7,2l-0.9-0.9h-0.9v0.9l0.9,1.2h1.7l1.7-2v-2l-3.5-4l3.5-4v-1.7l-1.7-2h-1.7l-0.9,0.9   v1.2h0.9l0.9-1.2l1.7,2l-3.5,4l-3.5-4l3.5-4v-0.9h-0.9l-3.5,4l-3.5-4h-0.9v0.9l3.5,4l-3.5,4l-3.5-4l1.7-2l0.9,1.2h0.9v-1.2   l-0.9-0.9h-1.7l-1.7,2v1.7l3.5,4l-3.5,4v2l1.7,2H89l0.9-1.2v-0.9H89l-0.9,0.9l-1.7-2l3.5-3.8l3.5,3.8l-3.5,4v1.2h0.9l3.5-4l3.5,4   h0.9v-1.2l-3.5-4L98.6,196.7z M94.2,191.5l-3.5,4l3.5,4l3.5-4L94.2,191.5z"/>
    <g><path class="st4" d="M98.6,196.7l3.5,3.8l-1.7,2l-0.9-0.9h-0.9v0.9l0.9,1.2h1.7l1.7-2v-2l-3.5-4l3.5-4v-1.7l-1.7-2h-1.7l-0.9,0.9    v1.2h0.9l0.9-1.2l1.7,2l-3.5,4l-3.5-4l3.5-4v-0.9h-0.9l-3.5,4l-3.5-4h-0.9v0.9l3.5,4l-3.5,4l-3.5-4l1.7-2l0.9,1.2h0.9v-1.2    l-0.9-0.9h-1.7l-1.7,2v1.7l3.5,4l-3.5,4v2l1.7,2H89l0.9-1.2v-0.9H89l-0.9,0.9l-1.7-2l3.5-3.8l3.5,3.8l-3.5,4v1.2h0.9l3.5-4l3.5,4    h0.9v-1.2l-3.5-4L98.6,196.7z M94.2,191.5l-3.5,4l3.5,4l3.5-4L94.2,191.5z"/></g>
    <polygon class="st2"
             points="89,206.5 89,214.3 89.9,213.4 90.8,214.3 91.6,213.4 92.5,214.3 93.4,213.4 94.2,214.3 95.1,213.4    96,214.3 96.8,213.4 97.7,214.3 98.6,213.4 99.4,214.3 99.4,206.5  "/>
    <polygon class="st2"
             points="99.4,184.6 99.4,176.8 98.6,177.6 97.7,176.8 96.8,177.6 96,176.8 95.1,177.6 94.2,176.8 93.4,177.6    92.5,176.8 91.6,177.6 90.8,176.8 89.9,177.6 89,176.8 89,184.6  "/>
    <polygon class="st2"
             points="113.9,193.5 113.9,185.7 113,186.6 112.1,185.7 111.3,186.6 110.4,185.7 109.8,186.6 109,185.7    108.1,186.6 107.2,185.7 107.2,193.5  "/>
    <polygon class="st2"
             points="81.2,193.5 81.2,185.7 80.4,186.6 79.5,185.7 78.6,186.6 77.8,185.7 76.9,186.6 76,185.7 75.1,186.6    74.3,185.7 74.3,193.5  "/>
    <polygon class="st2"
             points="113.9,197.6 113.9,205.6 113,204.5 112.1,205.6 111.3,204.5 110.4,205.6 109.8,204.5 109,205.6    108.1,204.5 107.2,205.6 107.2,197.6  "/>
    <polygon class="st2"
             points="81.2,197.6 81.2,205.6 80.4,204.5 79.5,205.6 78.6,204.5 77.8,205.6 76.9,204.5 76,205.6 75.1,204.5    74.3,205.6 74.3,197.6  "/>
    <polygon class="st5"
             points="99.4,206.5 99.4,211.4 100.3,210.5 101.2,211.4 102,210.5 102.9,211.4 103.8,210.5 104.6,211.4    105.5,210.5 106.4,211.4 107.2,210.5 107.2,197.6  "/>
    <polygon class="st5"
             points="89,206.5 89,211.4 88.2,210.5 87.3,211.4 86.4,210.5 85.6,211.4 84.7,210.5 83.8,211.4 83,210.5    82.1,211.4 81.2,210.5 81.2,197.6  "/>
    <polygon class="st5"
             points="89,184.6 89,179.7 88.2,180.8 87.3,179.7 86.4,180.8 85.6,179.7 84.7,180.8 83.8,179.7 83,180.8    82.1,179.7 81.2,180.8 81.2,193.5  "/>
    <polygon class="st5"
             points="99.4,184.6 99.4,179.7 100.3,180.8 101.2,179.7 102,180.8 102.9,179.7 103.8,180.8 104.6,179.7    105.5,180.8 106.4,179.7 107.2,180.8 107.2,193.5  "/>
    <polygon class="st5"
             points="74.3,203.6 73.4,202.5 72.5,203.6 71.7,202.5 70.8,203.6 69.9,202.5 69.1,203.6 68.2,202.5    67.3,203.6 67.3,187.7 68.2,188.6 69.1,187.7 69.9,188.6 70.8,187.7 71.7,188.6 72.5,187.7 73.4,188.6 74.3,187.7 74.3,193.5    70.8,193.5 69.1,195.5 70.8,197.6 74.3,197.6  "/>
    <polygon class="st5"
             points="113.9,203.6 114.7,202.5 115.6,203.6 116.5,202.5 117.3,203.6 118.2,202.5 119.1,203.6 119.9,202.5    120.8,203.6 120.8,187.7 119.9,188.6 119.1,187.7 118.2,188.6 117.3,187.7 116.5,188.6 115.6,187.7 114.7,188.6 113.9,187.7    113.9,193.5 117.3,193.5 119.1,195.5 117.3,197.6 113.9,197.6  "/>
    <path class="st9"
          d="M84.7,207.1c0,0-0.9,0.9-0.9,1.2c0,0.3,0.9,1.2,1.2,1.2c0.6,0,1.2-0.6,1.2-1.2c0-0.3-0.9-1.2-0.9-1.2v-1.4   c0,0,1.7,2.6,1.7,1.4c0-0.9-1.7-2.3-1.7-2.3h-0.6c0,0-1.7,1.7-1.7,2.3c0,1.2,1.7-1.4,1.7-1.4V207.1z"/>
    <path class="st3"
          d="M93.6,210.3c0,0-0.9,0.9-0.9,1.4c0,0.6,0.9,1.7,1.4,1.7c0.3,0,1.2-1.2,1.2-1.7c0-0.6-0.9-1.4-0.9-1.4v-2.3   c0,0,1.4,3.5,1.4,2c0-1.2-1.4-3.2-1.4-3.2h-0.9c0,0-1.7,2.6-1.4,3.2c0,1.4,1.4-2,1.4-2V210.3z"/>
    <path class="st5"
          d="M86.4,195.5c0,0.6-0.9,1.2-1.7,1.2c-1.2,0-1.7-0.6-1.7-1.2c0-0.6,0.6-0.9,1.7-0.9   C85.6,194.7,86.4,195,86.4,195.5L86.4,195.5z"/>
    <path class="st5"
          d="M96,195.5c0,0.6-0.9,1.2-1.7,1.2c-1.2,0-1.7-0.6-1.7-1.2c0-0.6,0.6-0.9,1.7-0.9C95.1,194.7,96,195,96,195.5   L96,195.5z"/>
    <path class="st5"
          d="M105.5,195.5c0,0.6-0.9,1.2-1.7,1.2c-1.2,0-1.7-0.6-1.7-1.2c0-0.6,0.6-0.9,1.7-0.9   C104.6,194.7,105.5,195,105.5,195.5L105.5,195.5z"/>
    <path class="st9"
          d="M84.4,184.3c0,0-0.6-0.9-0.6-1.4c0-0.3,0.6-1.2,0.9-1.2c0.6,0,1.2,0.9,1.2,1.2c0,0.6-0.6,1.4-0.6,1.4v1.4   c0,0,1.4-2.6,1.4-1.4c0,0.9-1.4,2.3-1.4,2.3h-0.9c0,0-1.4-1.7-1.4-2.3c0-1.2,1.4,1.4,1.4,1.4V184.3z"/>
    <path class="st3"
          d="M93.4,181.1c0,0-0.9-1.2-0.9-1.7c0-0.3,1.2-1.4,1.4-1.4c0.6,0,1.2,0.9,1.2,1.4c0,0.6-0.9,1.7-0.9,1.7v2.3   c0,0,1.7-3.8,1.7-2c0,1.2-1.7,2.9-1.7,2.9h-0.9c0,0-1.7-2.3-1.4-2.9c0-1.7,1.4,2,1.4,2V181.1z"/>
    <path class="st9"
          d="M103.2,207.1c0,0-0.9,0.9-0.9,1.2c0,0.3,0.9,1.2,1.2,1.2c0.3,0,1.2-0.6,1.2-1.2c0-0.3-0.9-1.2-0.9-1.2v-1.4   c0,0,1.7,2.6,1.7,1.4c0-0.9-1.7-2.3-1.7-2.3h-0.6c0,0-1.7,1.7-1.7,2.3c0,1.2,1.7-1.4,1.7-1.4V207.1z"/>
    <path class="st9"
          d="M102.9,184.3c0,0-0.6-0.9-0.6-1.4c-0.3-0.3,0.6-1.2,0.9-1.2c0.6,0,1.2,0.9,1.2,1.2c0,0.6-0.6,1.4-0.6,1.4v1.4   c0,0,1.4-2.6,1.4-1.4c0,0.9-1.4,2.3-1.4,2.3h-0.9c0,0-1.4-1.7-1.4-2.3c0-1.2,1.4,1.4,1.4,1.4V184.3z"/>
    <path class="st3"
          d="M77.2,201.6c0,0-1.2,0.9-1.2,1.2c0,0.3,1.2,1.2,1.4,1.2c0.6,0,1.4-0.9,1.4-1.2c0-0.3-0.9-1.2-0.9-1.2v-1.4   c0,0,1.7,2.3,1.7,1.2c0-0.6-1.7-2-1.7-2h-0.9c0,0-2,1.7-1.7,2c0,1.2,1.7-1.2,1.7-1.2V201.6z"/>
    <path class="st3"
          d="M76.9,190.3c0,0-0.9-0.6-0.9-1.2c0-0.3,0.9-1.2,1.4-1.2c0.6,0,1.4,0.9,1.4,1.2c0,0.6-1.2,1.2-1.2,1.2v1.4   c0,0,1.7-2.3,1.7-1.2c0,0.6-1.7,2-1.7,2h-0.9c0,0-2-1.7-1.7-2c0-1.2,1.7,1.2,1.7,1.2V190.3z"/>
    <path class="st3"
          d="M110.4,201.3c0,0-0.9,0.9-0.9,1.2c-0.3,0.3,0.9,1.2,1.4,1.2c0.3,0,1.4-0.9,1.4-1.2c0-0.3-1.2-1.2-1.2-1.2v-1.4   c0,0,1.7,2.3,1.7,1.4c0-0.9-1.7-2-1.7-2h-0.9c0,0-2,1.4-1.7,2c0,0.9,1.7-1.4,1.7-1.4V201.3z"/>
    <path class="st3"
          d="M110.1,190.1c0,0-0.9-0.6-0.9-1.2c0-0.3,0.9-0.9,1.4-0.9c0.6,0,1.4,0.6,1.4,0.9c0,0.6-1.2,1.2-1.2,1.2v1.4   c0,0,1.7-2.3,1.7-1.2c0,0.6-1.7,2-1.7,2h-0.9c0,0-2-1.7-1.7-2c0-1.2,1.7,1.2,1.7,1.2V190.1z"/>
    <path class="st9"
          d="M69.9,201.6c-0.3-0.9,0-1.2,0-1.4c-0.3-0.3,0.9-1.2,1.2-1.2c0.3,0,0.9,0.9,0.9,1.2v1.4l-0.6-1.2   c-0.6,1.7-0.6,1.7-0.9,0L69.9,201.6z"/>
    <path class="st9"
          d="M69.9,190.1c-0.3,0.6,0,1.2,0,1.4c0,0.3,0.9,1.2,1.2,1.2c0.3,0,0.9-0.9,0.9-1.4v-1.2l-0.6,1.2   c-0.6-1.7-0.6-1.7-0.9,0L69.9,190.1z"/>
    <path class="st9"
          d="M116.8,201.3c-0.3-0.6-0.3-0.9-0.3-1.4c0-0.3,0.9-0.9,1.2-0.9c0.6,0,1.2,0.6,1.2,1.2c0,0.3,0,0.6-0.3,1.4   l-0.3-1.2c-0.6,1.4-0.6,1.4-0.9-0.3L116.8,201.3z"/>
    <path class="st9"
          d="M116.8,190.1c-0.3,0.6-0.3,0.9-0.3,1.2c0,0.6,0.9,1.2,1.2,1.2c0.6,0,1.2-0.9,1.2-1.2v-1.4l-0.6,1.2   c-0.6-1.7-0.6-1.7-0.9,0L116.8,190.1z"/>
    <path class="st3"
          d="M88.7,214.6v-2.9h-8.1v-5.5h-7.2v-2h-6.1v-17h6.1v-1.7h7.2v-5.8h8.1v-2.6h10.7v2.6h8.1v5.8h7.2v1.7h6.1v17   h-6.1v2h-7.2v5.5h-8.1v2.9H88.7z M87.9,215.5v-2.6h-8.1v-5.8h-7.2v-2h-6.1v-18.8h6.1v-1.7h7.2v-5.8h8.1v-2.9h12.4v2.9h8.1v5.8h7.2   v1.7h6.4v18.8h-6.4v2h-7.2v5.8h-8.1v2.6H87.9z"/>
    <g><path class="st4" d="M88.7,214.6v-2.9h-8.1v-5.5h-7.2v-2h-6.1v-17h6.1v-1.7h7.2v-5.8h8.1v-2.6h10.7v2.6h8.1v5.8h7.2v1.7h6.1v17    h-6.1v2h-7.2v5.5h-8.1v2.9H88.7z M87.9,215.5v-2.6h-8.1v-5.8h-7.2v-2h-6.1v-18.8h6.1v-1.7h7.2v-5.8h8.1v-2.9h12.4v2.9h8.1v5.8h7.2    v1.7h6.4v18.8h-6.4v2h-7.2v5.8h-8.1v2.6H87.9z"/></g>
    <path class="st9"
          d="M245.1,173.6c0-20.5-16.8-37.2-37.3-37.2s-37,16.7-37,37.2c0,20.8,16.5,37.2,37,37.2S245.1,194.4,245.1,173.6   L245.1,173.6z"/>
    <path class="st5"
          d="M235,167.8c0-20.2-16.5-36.7-36.7-36.7s-36.7,16.5-36.7,36.7c0,20.5,16.5,36.9,36.7,36.9S235,188.3,235,167.8   L235,167.8z"/>
    <polygon class="st11"
             points="212.7,152.8 207.5,152.8 206.1,158 204.3,152.8 199.1,152.8 203.2,149.7 201.5,144.7 205.8,147.6    210.1,144.7 208.7,149.7  "/>
    <polygon class="st11"
             points="193.9,143.3 188.7,143.6 187.3,148.5 185.6,143.6 180.4,143.3 184.4,140.1 182.7,135.2 187,138.1    191,135.2 189.9,140.1  "/>
    <polygon class="st11"
             points="193.9,162.4 188.7,162.4 187.3,167.3 185.6,162.4 180.4,162.4 184.4,159.2 182.7,154 187,157.2    191,154 189.9,159.2  "/>
    <polygon class="st11"
             points="193.9,181.4 188.7,181.4 187.3,186.3 185.6,181.4 180.4,181.4 184.4,178.2 182.7,173 187,176.2    191,173 189.9,178.2  "/>
    <polygon class="st11"
             points="175.2,171.6 170,171.6 168.5,176.8 166.8,171.6 161.6,171.6 165.6,168.4 163.9,163.5 168.2,166.4    172.6,163.5 171.1,168.4  "/>
    <polygon class="st3"
             points="100.3,373.6 101.5,373.6 101.5,371 103.8,371 103.8,373.6 104.9,373.6 104.9,367.5 103.8,367.5    103.8,370.1 101.5,370.1 101.5,367.5 100.3,367.5  "/></g></svg>
