<?xml version="1.0" ?>
<svg id="Layer_1" style="enable-background:new 0 0 512 512;" version="1.1" viewBox="0 0 512 512" xml:space="preserve"
     xmlns="http://www.w3.org/2000/svg"><style type="text/css">
	.st0 {
    fill: #C0003B;
  }

  .st1 {
    fill: #3D9546;
  }

  .st2 {
    fill: #F5CD28;
  }

  .st3 {
    fill: #F3CD2D;
  }
</style>
  <g><rect class="st0" height="149.4" width="512" y="106.7"/>
    <rect class="st1" height="149.4" width="512" y="256"/>
    <polygon points="0,106.7 0,405.4 289.7,256  "/>
    <rect height="53.5" width="512" y="229.3"/>
    <polygon class="st2" points="0,384.1 248.5,256 0,127.9  "/>
    <rect class="st2" height="15.7" width="512" y="248.1"/>
    <polygon points="0,366.4 214.2,256 0,145.6  "/>
    <path class="st3"
          d="M60.5,284.6v17c14.8,0,43.9-11.4,43.9-47.9s-31-43.3-40.3-43.3c-9.3,0-37.9,6.6-37.9,36.5   c0,29.9,28.1,32.7,33.6,32.7c5.5,0,26.3-5,23.9-27.4c0,6.4-7.2,19.8-22.3,19.8C46.4,272,37,260.8,37,249.7c0-11.1,9.1-25.9,25-25.9   c15.9,0,27.5,14.1,27.5,28.4C89.6,266.4,78.4,284.6,60.5,284.6L60.5,284.6z"/>
    <path class="st3" d="M47.5,262.4l0.9,0.6c0,0,7-16,25.8-27.3C71.9,236.9,59.3,243.2,47.5,262.4L47.5,262.4z"/>
    <g><path class="st3" d="M48.5,263.4l-1.1-0.7c5.1-8.8,13.9-20.3,26.4-27.1l0,0c-3.7,2.2-7.1,4.8-10.2,7.5c2.9-2.6,6.3-5.2,10.2-7.5    l0.5,0.3c-18.5,11.2-25.7,27.1-25.7,27.2L48.5,263.4L48.5,263.4z M54.2,253.2c-2.6,3.3-4.7,6.5-6.5,9.3l0.5,0.1    C48.7,261.8,50.5,258.1,54.2,253.2L54.2,253.2z"/></g>
    <path class="st3"
          d="M49.3,259.7c0,0-2.2-4.5-0.3-6.4c1.9-2,1,5.2,1,5.2l0.8-1.2c0,0-1.3-5.5,0.2-6.6c1.5-1.1,0.7,5.2,0.7,5.2   l0.9-1.1c0,0-0.9-5.3,0.5-6.3c1.4-1,0.5,5,0.5,5l1-1.2c0,0-0.8-5,0.9-6.2c1.7-1.2,0.2,4.8,0.2,4.8l1.1-1.2c0,0-0.5-4.6,0.9-5.7   c1.4-1,0.2,4.4,0.2,4.4l1-1.1c0,0-0.3-4.3,1.1-5.3c1.4-1,0.1,4.1,0.1,4.1l1.1-1c0,0-0.3-4.3,1.5-5.1c1.8-0.8-0.3,4.1-0.3,4.1l1.2-1   c0,0,0.4-5,1.9-5.5c1.5-0.5-0.7,4.5-0.7,4.5l1.1-0.9c0,0,0.6-4.3,2.2-4.8c1.7-0.5-1,3.9-1,3.9l1.1-0.8c0,0,1.2-4.3,2.8-4.8   c1.6-0.5-1.6,4-1.6,4l1-0.7c0,0,1.7-3.9,3.1-4.1c1.4-0.3-1.6,3.2-1.6,3.2l1.3-0.8c0,0,2.2-4,3-2.8c0.8,1.3-3.1,3.1-3.1,3.1   l-1.3,0.7c0,0,4.7-2.2,5.3-1.1c0.6,1.1-6.5,1.9-6.5,1.9l-1.1,0.8c0,0,4.7-1.3,4.1-0.1c-0.6,1.2-5.2,0.9-5.2,0.9l-1.1,0.8   c0,0,4.7-1.1,4.1-0.1c-0.6,1.1-5.2,1-5.2,1l-1.1,0.9c0,0,4.6-1.2,3.9,0.2c-0.7,1.4-5.9,1.3-5.9,1.3l-1.3,1.2c0,0,4.9-1.7,4.5-0.4   c-0.4,1.3-6,2-6,2l-1.3,1.2c0,0,5.2-1.8,3.7-0.2c-1.6,1.6-5.3,2-5.3,2l-1.5,1.8c0,0,5.2-3.1,4.5-1.4c-0.7,1.8-5.8,3-5.8,3l-1,1.3   c0,0,4.7-2.7,4.2-1.2c-0.5,1.5-5.4,3.1-5.4,3.1l-0.8,1.1c0,0,5.5-3.3,5-1.6c-0.5,1.7-5.7,2.8-5.7,2.8l-0.7,1c0,0,5.1-2.9,5.1-1.5   c0,1.4-6,2.8-6,2.8L49.3,259.7z"/>
    <path class="st3" d="M77.4,262.4l-0.9,0.6c0,0-7-16-25.8-27.3C53.1,236.9,65.7,243.2,77.4,262.4L77.4,262.4z"/>
    <g><path class="st3" d="M76.4,263.4l-0.1-0.3c-0.1-0.2-7.2-16-25.7-27.2l0.2-0.1l-0.1-0.1l0.1-0.2c0.1,0.1,0.2,0.1,0.3,0.2l0,0    c12.6,6.7,21.3,18.2,26.5,26.7L76.4,263.4L76.4,263.4z M69,251.1c4.7,5.7,7.1,10.3,7.6,11.5l0.6-0.4C75.1,258.9,72.4,255,69,251.1    L69,251.1z"/></g>
    <path class="st3"
          d="M75.6,259.7c0,0,2.2-4.5,0.3-6.4c-1.9-2-1,5.2-1,5.2l-0.8-1.2c0,0,1.3-5.5-0.2-6.6c-1.4-1.1-0.7,5.2-0.7,5.2   l-0.9-1.1c0,0,0.9-5.3-0.5-6.3c-1.4-1-0.5,5-0.5,5l-1-1.2c0,0,0.8-5-0.9-6.2c-1.7-1.2-0.2,4.8-0.2,4.8l-1.1-1.2   c0,0,0.5-4.6-0.9-5.7c-1.5-1-0.2,4.4-0.2,4.4l-1-1.1c0,0,0.3-4.3-1.1-5.3c-1.4-1-0.1,4.1-0.1,4.1l-1.1-1c0,0,0.3-4.3-1.5-5.1   c-1.8-0.8,0.3,4.1,0.3,4.1l-1.2-1c0,0-0.4-5-1.9-5.5c-1.5-0.5,0.7,4.5,0.7,4.5l-1.1-0.9c0,0-0.6-4.3-2.2-4.8c-1.7-0.5,1,3.9,1,3.9   l-1.1-0.8c0,0-1.2-4.3-2.8-4.8c-1.6-0.5,1.6,4,1.6,4l-1-0.7c0,0-1.7-3.9-3.1-4.1c-1.4-0.3,1.6,3.2,1.6,3.2l-1.3-0.8   c0,0-2.2-4-3-2.8c-0.8,1.3,3.1,3.1,3.1,3.1l1.3,0.7c0,0-4.7-2.2-5.3-1.1c-0.6,1.1,6.5,1.9,6.5,1.9l1.1,0.8c0,0-4.7-1.3-4.1-0.1   c0.6,1.2,5.2,0.9,5.2,0.9l1.1,0.8c0,0-4.7-1.1-4.1-0.1c0.6,1.1,5.2,1,5.2,1l1.1,0.9c0,0-4.6-1.2-3.9,0.2c0.7,1.4,5.9,1.3,5.9,1.3   l1.3,1.2c0,0-4.9-1.7-4.5-0.4c0.4,1.3,6,2,6,2l1.3,1.2c0,0-5.2-1.8-3.7-0.2c1.6,1.6,5.3,2,5.3,2l1.5,1.8c0,0-5.2-3.1-4.5-1.4   c0.7,1.8,5.8,3,5.8,3l1,1.3c0,0-4.7-2.7-4.2-1.2c0.5,1.5,5.4,3.1,5.4,3.1l0.8,1.1c0,0-5.5-3.3-5-1.6c0.5,1.7,5.7,2.8,5.7,2.8l0.7,1   c0,0-5.1-2.9-5.1-1.5c0,1.4,6,2.8,6,2.8L75.6,259.7z"/></g></svg>
