<?xml version="1.0" ?>
<svg id="Layer_1" style="enable-background:new 0 0 512 512;" version="1.1" viewBox="0 0 512 512" xml:space="preserve"
     xmlns="http://www.w3.org/2000/svg" xmlns:xlink="http://www.w3.org/1999/xlink"><style type="text/css">
	.st0 {
    fill: #D51F3A;
  }

  .st1 {
    clip-path: url(#SVGID_2_);
    fill: #F2DD31;
  }

  .st2 {
    fill: #010101;
  }

  .st3 {
    fill: #FFFFFF;
  }

  .st4 {
    fill: #F2DD31;
  }

  .st5 {
    fill: #F8E625;
  }

  .st6 {
    clip-path: url(#SVGID_4_);
    fill: #F2DD31;
  }

  .st7 {
    clip-path: url(#SVGID_6_);
    fill: #F2DD31;
  }

  .st8 {
    clip-path: url(#SVGID_8_);
    fill: #F2DD31;
  }
</style>
  <g><rect class="st0" height="298.7" width="512" y="106.7"/>
    <g><g><defs><rect height="16.6" id="SVGID_1_" width="14.6" x="260.6" y="307.3"/></defs><clipPath id="SVGID_2_"><use style="overflow:visible;" xlink:href="#SVGID_1_"/></clipPath><path
      class="st1"
      d="M264.4,319.1c0.1-0.3,0.3-3,0.2-3c-0.1,0-4.1-4.7-4-4.7c0.1,0,5.2,1.1,5.2,1s2-5,2-5.1     c0-0.1,2.4,5.9,2.4,5.9l5,2.2l-3.5,2.9c0,0,0.8,5.6,0.8,5.7c0,0.1-3.5-3.3-3.5-3.3l-3.8,0.4C265.1,321,264.6,319.3,264.4,319.1     L264.4,319.1z"/></g></g>
    <g><path class="st2" d="M272.4,324.3c-0.2,0-0.3-0.1-3.7-3.4l-3.5,0.5c-0.6-1-0.9-1.9-1-2.1c0-0.6,0.1-2.9,0.1-3.1    c-0.1,0.2-4-4.8-4-4.8c0.4-0.4,0.5-0.4,1.3-0.2c1,0.2,3.3,0.7,4,0.8c0-0.2,0.3-1,1.1-2.9c0.4-0.9,0.7-1.7,0.7-1.9    c0.2-0.1,0.4-0.2,0.6,0.1h0.1c0,0,0,0.1,0,0.1c0.4,0.6,1,2.1,2.4,5.6l5.3,2.2l-4,3.3c0.2,0.1,0.9,5.3,0.9,5.4v0.4L272.4,324.3    C272.4,324.3,272.4,324.3,272.4,324.3L272.4,324.3z M268.9,320.2c0.2,0.1,2,1.8,3,2.7c-0.2-1.6-0.7-4.7-0.7-4.7l3.2-2.8l-4.4-1.9    c-0.2-0.2-1.6-3.6-2.3-5.2c-0.1,0.3-0.2,0.6-0.4,1.1c-0.5,1.3-1.2,2.9-1.2,3.1c-0.9,0.3-2.7,0-4.6-0.5c1.1,1.3,3.1,3.6,3.3,3.8    c0.3,0.4,0,2.7,0,3.3l0,0c0.1,0,0.3,0.4,0.7,1.8L268.9,320.2L268.9,320.2z"/></g>
    <path class="st3"
          d="M237.3,245.7c-3.3,1.7-16.1,16.3-17.8,18.5c-1.5,3.3-4.3,7.5-7.3,10.2c-3.1,2.4-4.9,5.6-4.5,8.7   c0,3.8,2.1,6.4,3.8,9.1c1,1.2,2.4,2,3.8,2.1c3,0.4,3.2,1.3,4.7,1.9c5.9,8,14.6,13.9,20.9,18.5c4,2.1,6.8,4.2,7.8,5.4   c1.8,3.5,1.5,7,1.3,8.6c-1.6,5.9-3.1,11.8-4.7,17.6c-0.8,4.8,3.4,3.7,3.6,2.8c1.9-2.4,4.7-0.7,8.7-14.9c1.8-2.5,3.7-5,5.5-7.4   c0,0,2.1-0.9,2.1-1.1c3.2-3.9,0.8-6.1-1.1-6.8c-1.3-0.5-2.7-1-4-1.5c0,0-4.7-4.7-4.9-4.7c-2.2-6.5-13.1-20.3-15.7-22.2   c-1.8-1.8-2.6-2.6-4.3-3.6c-2.6-1.2-3.4-1.6-5-2.2c-1.3-0.5-0.4-2,0.5-2.6c8.6-4.7,15.5-9.9,23.8-15.2c0.4-0.3,0.8-0.6,1.3-0.9   c-1-5.7-2-11.3-3-17c-4.6-1.6-9.2-3.3-13.8-4.9C238.5,244.7,238,245.2,237.3,245.7L237.3,245.7z"/>
    <g><path class="st2" d="M247.3,350.4L247.3,350.4c-0.7,0-1.3-0.3-1.7-0.8c-0.6-0.7-0.8-1.8-0.5-3.3l4.7-17.7c0.5-3.1,0.1-5.9-1.2-8.4    c-0.9-1-3.6-3.1-7.6-5.2l-2.4-1.7c-6-4.4-13.5-9.8-18.7-16.9c-0.4-0.1-0.7-0.3-1.1-0.6c-0.7-0.4-1.4-0.9-3.3-1.2    c-1.5-0.1-3-0.9-4.1-2.3l-0.8-1.2c-1.6-2.4-3.2-4.8-3.1-8.2c-0.4-3.1,1.3-6.5,4.6-9c2.7-2.5,5.6-6.5,7.2-10    c1.5-2,14.4-16.9,18-18.7l0.5-0.4c0.4-0.3,0.8-0.7,1.3-1l14.2,4.8l3.2,17.3l-1.4,1.2c-2.8,1.8-5.4,3.6-8,5.3    c-5.2,3.5-10,6.8-15.8,9.9c-0.5,0.4-1,1.1-0.9,1.5c1.9,1,2.7,1.4,5,2.5c2.2,1.3,3.1,2.1,4.8,3.9c2.6,2,13.4,15.6,15.7,22.2l0,0    c0.1,0,0.9,0.7,4.8,4.6l3.9,1.4c0.5,0.2,2.3,1,2.8,2.8c0.4,1.4-0.2,2.9-1.6,4.6c0.1,0,0.1,0.2-2.3,1.2l-5.4,7.3    c-3,10.7-5.5,12.4-7.3,13.6c-0.6,0.4-1,0.7-1.4,1.2C249.2,350,248.2,350.4,247.3,350.4L247.3,350.4z M239.1,244.5    c-0.1,0.3-0.5,0.6-0.9,0.9l-0.6,0.5c-3.3,1.7-15.9,16.1-17.7,18.5c-1.6,3.5-4.5,7.7-7.3,10.2c-3.1,2.4-4.7,5.5-4.3,8.4    c0,3.2,1.5,5.6,3,7.8l0.8,1.2c1,1.1,2.2,1.9,3.5,2c2.1,0.3,2.9,0.8,3.7,1.3c0.4,0.2,0.7,0.4,1.2,0.6c5.3,7.1,12.7,12.5,18.7,16.9    l2.3,1.7c4,2.1,6.9,4.3,7.8,5.4c1.4,2.7,1.8,5.6,1.3,8.9l-4.7,17.7c-0.2,1.2-0.1,2.1,0.4,2.6c0.3,0.4,0.8,0.5,1.2,0.5l0,0    c0.7,0,1.3-0.4,1.3-0.5c0.6-0.8,1.1-1.2,1.7-1.6c1.7-1.2,4-2.7,7-13.3l5.6-7.6c1-0.5,2-0.9,2.1-1.1c1.2-1.5,1.7-2.8,1.4-4    c-0.4-1.4-1.9-2.1-2.3-2.3l-4-1.5c-1.8-1.8-4.6-4.5-4.9-4.7c-2.4-6.5-13.2-20.3-15.7-22.2c-1.8-1.9-2.6-2.6-4.2-3.6    c-2.6-1.2-3.4-1.6-4.9-2.2c-0.6-0.3-0.8-0.7-0.9-1c-0.1-0.8,0.6-1.7,1.2-2.2c5.8-3.1,10.6-6.4,15.8-9.9c2.6-1.8,5.2-3.6,8.1-5.4    l1.3-0.8l-3.1-16.6L239.1,244.5L239.1,244.5z"/></g>
    <path class="st4" d="M248.9,335.2c0-0.2,8.6-1.7,8.6-1.7s-1,3.2-1,3.2l-8.6,2.6L248.9,335.2z"/>
    <g><path class="st2" d="M226.8,302.9l-0.7-0.3c1.6-4.3,6.2-8,9.6-9.1l0.2,0.7C233.2,295.2,228.5,298.4,226.8,302.9L226.8,302.9z"/></g>
    <g><path class="st2" d="M247.3,340.8l-0.6-0.5c0.1-0.1,0.7-0.7,1.2-1l0.9-0.3c0.7-0.3,1.6-0.6,2.1-0.7c0.6-0.2,1.3-0.4,2-0.6l0.9-0.2    c0.4-0.1,0.7-0.2,1.2-0.3c0.6-0.3,1.2-0.4,1.9-0.6l0.2,0.7c-0.6,0.2-1.2,0.3-1.8,0.6c-0.5,0.1-0.8,0.2-1.2,0.3l-0.9,0.2    c-0.6,0.2-1.3,0.4-2,0.6c-0.4,0.1-1.3,0.4-1.9,0.7l-0.9,0.3C247.9,340.3,247.4,340.8,247.3,340.8L247.3,340.8z M249.3,335.5    l-0.7-0.2l0.5-0.5c1-0.3,2.6-0.8,3.2-0.8c0.7-0.2,1.5-0.4,2.2-0.6l1-0.2c0.4-0.1,0.8-0.2,1.3-0.3c0.6-0.2,1.3-0.4,2.1-0.6l0.2,0.7    c-0.7,0.2-1.4,0.3-2.1,0.6c-0.6,0.1-0.9,0.2-1.3,0.3l-1,0.2c-0.7,0.2-1.5,0.4-2.3,0.6C251.8,334.8,250.2,335.2,249.3,335.5    L249.3,335.5z"/></g>
    <g><path class="st2" d="M245,306.8l-0.6-0.9c1.1,0.1,2,0.1,2.6,0c1.1,0,2.5-1.1,2.7-1.4c0.3-0.4,0.5-0.6,0.6-0.7l0.1,0.3v-0.5    l0.4,0.8c-0.1,0.1-0.2,0.2-0.4,0.5c-0.2,0.6-1.9,1.7-3.3,1.7C246.5,306.7,245.6,306.8,245,306.8L245,306.8z"/></g>
    <g><path class="st2" d="M260.4,330.6c-0.4,0-0.7,0-1-0.1l-0.7-0.1l0,0c-0.4,0-0.8,0-1.2-0.1c-0.3,0-0.6-0.1-0.9-0.1    c-0.4,0-0.7-0.1-1-0.1c-0.4,0-0.7,0-1-0.1c-0.3,0-0.6,0-0.9-0.1c-0.6-0.1-1.1-0.1-1.7-0.1c-0.3,0-0.6-0.1-1-0.1l-0.6-0.8h0.1    c0.8,0,1.2,0,1.5,0.1c0.6,0.1,1.2,0.1,1.8,0.1c0.3,0,0.6,0.1,0.9,0.1c0.4,0,0.7,0.1,1,0.1c0.4,0,0.7,0,1,0.1c0.3,0,0.6,0,0.9,0.1    c0.3,0,0.7,0.1,1.1,0.1l0,0v0l0,0l1.6,0.1L260.4,330.6L260.4,330.6z"/></g>
    <g><path class="st2" d="M246.5,344.8l-0.6-0.4c0.1-0.2,0.7-0.7,1.1-1l0.8-0.3c0.7-0.3,1.5-0.6,1.9-0.7c0.6-0.2,1.2-0.4,1.8-0.6    l0.8-0.2c0.3-0.1,0.7-0.2,1.1-0.3c0.5-0.2,1.1-0.4,1.7-0.6l0.2,0.7c-0.6,0.2-1.1,0.3-1.7,0.6c-0.5,0.1-0.8,0.2-1.1,0.3l-0.8,0.2    c-0.6,0.2-1.2,0.4-1.8,0.6c-0.4,0.1-1.2,0.4-1.8,0.7l-0.8,0.3C247.1,344.2,246.6,344.7,246.5,344.8L246.5,344.8z"/></g>
    <g><path class="st2" d="M262.7,327.4c-0.3-0.1-0.5-0.2-0.8-0.2c-0.7-0.2-1.1-0.4-1.5-0.5c-1.4-0.4-2.3-1.1-2.7-1.6    c-0.4-0.6-0.7-1.1-0.4-2.1l0.7,0.2c-0.2,0.6-0.1,0.8,0.1,1.1c0.4,0.6,1.2,1.2,2.4,1.6c0.5,0.1,0.9,0.3,1.5,0.5    c0.3,0,0.5,0.1,0.8,0.2L262.7,327.4L262.7,327.4z"/></g>
    <g><path class="st2" d="M209,286.3l0-0.3L209,286.3l-0.6-0.3c0.4-0.6,0.6-0.7,0.8-0.9c0.1-0.2,0.3-0.3,0.5-0.5    c0.2-0.2,0.4-0.3,0.6-0.6l0.6,0.5c-0.2,0.3-0.4,0.5-0.6,0.7c-0.2,0.1-0.3,0.3-0.5,0.5c-0.3,0.3-0.5,0.4-0.7,0.5L209,286V286.3    L209,286.3z"/></g>
    <g><path class="st2" d="M216.9,295.1l-0.1-0.7c0.3-0.1,7.1-3.6,7.8-4.3l0.7-0.5c0.3-0.2,0.6-0.5,1-0.8c0.3-0.1,0.5-0.3,0.6-0.4    c0.5-0.5,0.7-0.6,0.9-0.8c0.2-0.2,0.3-0.4,0.4-0.5l0.3-0.6c0.1-0.2,0.1-0.5,0.3-0.7c0.2-0.7,0.4-1.2,0.5-1.5l0.7,0.2    c-0.1,0.3-0.3,0.9-0.5,1.4l-0.4,0.9c-0.1,0.3-0.1,0.6-0.5,0.8c-0.1,0.2-0.3,0.4-0.5,0.6c-0.2,0.2-0.3,0.3-0.4,0.5l-0.5,0.4    c-0.2,0.2-0.4,0.3-0.7,0.5c-0.3,0.2-0.6,0.5-0.9,0.7l-0.7,0.5C224.4,291.3,217.3,295.1,216.9,295.1L216.9,295.1z"/></g>
    <g><path class="st2" d="M236.9,295l-0.4-0.6c1-0.6,1.8-2.6,1.8-3.2c0-0.3,0-0.7,0.1-1l0.8-0.7c0,0.2,0,0.4,0,0.8    c0,0.3-0.1,0.6-0.1,0.9C239,292.1,238,294.3,236.9,295L236.9,295z"/></g>
    <g><path class="st2" d="M251.9,325.2c-0.3,0-0.6,0-0.8,0l-0.9,0v-0.8h0.6c1.1,0.1,2.5,0.2,4.9-0.5c0.7-0.3,1.2-0.5,1.5-0.8    c0.3-0.2,0.6-0.5,0.9-0.8c0.2-0.2,0.4-0.4,0.6-0.6c0.2-0.2,0.3-0.5,0.3-0.9c-0.1-0.9-1.1-1.9-1.4-2.2c-0.3-0.2-6.8-4.3-7.3-4.5    c-0.2-0.2-0.4-0.3-0.6-0.4c-0.3-0.2-0.6-0.4-1-0.7c-0.3-0.1-0.6-0.4-1-0.7l-0.5-0.4c-0.6-0.7-0.8-1-1-1.5c-0.4-0.7-0.5-1-0.7-1.1    c-0.2-0.5-0.5-1-0.7-1.4c-0.2-0.6-3.8-8.1-5.1-9.1c-0.4-0.6-0.7-1-1.2-1.5c-0.6-0.7-0.8-1-1.2-1.3c-0.2-0.3-0.6-0.5-0.9-0.7    c-0.2-0.1-0.5-0.3-0.7-0.4c-0.4-0.3-4.8-3.2-7-4l-1.9-0.6c-0.6-0.2-0.9-0.3-1-0.3l0.1-0.7c0.1,0,0.1,0,1.1,0.3l1.9,0.6    c2.3,0.8,6.8,3.7,7.3,4.1c0.1,0.1,0.4,0.2,0.6,0.4c0.4,0.2,0.8,0.5,1.1,0.8c0.3,0.3,0.6,0.6,0.9,1c0.8,0.9,1.2,1.4,1.4,1.9    c1.4,1.1,5.1,9,5.2,9.4c0.2,0.3,0.4,0.9,0.6,1.3c0.1,0.1,0.3,0.4,0.5,0.7c0.4,0.9,0.6,1.1,0.8,1.4l0.7,0.7    c0.3,0.2,0.6,0.5,0.9,0.7c0.4,0.3,0.7,0.5,0.9,0.6c0.2,0.1,0.4,0.3,0.6,0.4c0.6,0.2,7.3,4.5,7.4,4.6c0.1,0.1,1.6,1.3,1.7,2.8    c0,0.6-0.1,1.1-0.5,1.5c-0.2,0.2-0.4,0.4-0.6,0.6c-0.3,0.3-0.6,0.6-1,0.8c-0.4,0.4-0.9,0.6-1.4,0.8    C254.1,325.1,252.8,325.2,251.9,325.2L251.9,325.2z"/></g>
    <g><path class="st2" d="M223.2,280.1c-0.2,0-0.4,0-0.7,0c-0.8,0-1.6-0.3-2.3-0.6c-0.9-0.4-1.4-0.6-2.1-1.1c-0.5-0.3-0.9-0.6-1.3-1    c-0.7-0.7-1.8-1-2.4-1.2l-0.9-0.6l-0.1,0.4c-0.3-0.1-0.5-0.1-0.8-0.3c-0.7-0.2-0.8-0.2-1.2-0.4l0.3-0.7c0.4,0.1,0.5,0.2,0.6,0.2    c0.2,0,0.3,0.1,0.7,0.2c0.3,0.1,0.5,0.2,0.7,0.2l0.6,0.2c1,0.3,2.2,0.6,2.8,1.2c0.6,0.6,0.9,0.9,1.4,1.1c0.7,0.5,1.1,0.6,1.9,1    c0.7,0.2,1.4,0.5,2.1,0.6c0.5,0,0.7,0,1,0l2.3,0v0.8h-1.7C223.8,280.1,223.5,280.1,223.2,280.1L223.2,280.1z"/></g>
    <path class="st5"
          d="M211.4,283.2c1.9-0.1,4.9,0.4,5,0.4l4.1-0.1c2.1-0.2,2.6-1,3-1.6c0.8-1.2,1.4-1.7,2-2.6c1-0.7,2.3,1,2.4,1   c3.5,3.3,0.7,7.3,0.5,7.4c-1.7,1.6-2.1,1.7-3.1,0.7c-1.1-1.2-1.4-1.8-2.2-2.2c-1.7-0.8-5.1-0.2-5.2-0.2c-0.1,0-1.8,0.7-1.8,0.7   c-0.8,0.3-1.4,1.1-2.8,1.3c-1.5,0.1-2,0-2.7-1.2C209.4,285.2,209.9,283.4,211.4,283.2L211.4,283.2z"/>
    <g><path class="st2" d="M226.3,289.5c-0.5,0-0.9-0.3-1.4-0.8l-0.6-0.8c-0.6-0.7-0.9-1.1-1.5-1.4c-1.1-0.5-4.3-0.3-4.9-0.2    c-0.3,0.1-1.8,0.7-1.8,0.7c-0.3,0.1-0.5,0.3-0.8,0.4c-0.5,0.3-1.1,0.7-2.1,0.9l-0.7,0c-1.1,0-1.7-0.3-2.4-1.4    c-0.6-1-0.7-2.1-0.3-3c0.3-0.7,0.9-1.1,1.6-1.2l0.6,0c1.6,0,3.7,0.3,4.3,0.4l4.2,0c1.9-0.2,2.3-0.9,2.6-1.4    c0.5-0.7,0.8-1.2,1.2-1.6c0.3-0.3,0.5-0.6,0.8-1l0.1-0.2l0.7-0.2c0.9,0,1.7,0.8,2,1.2c1.5,1.4,2.1,2.9,1.9,4.6    c-0.2,1.8-1.1,3.3-1.4,3.5C227.5,289,226.9,289.5,226.3,289.5L226.3,289.5z M220.5,285.4c1.1,0,2,0.2,2.7,0.5    c0.8,0.4,1.1,0.8,1.8,1.6l0.6,0.7c1,1,1.2,0.6,2.6-0.7c0.1-0.2,1.2-1.7,1.1-3.5c0-1.3-0.6-2.4-1.6-3.4c-0.4-0.4-1.1-1.1-1.6-1.1    c-0.5,0.4-0.8,0.8-1.1,1.1c-0.3,0.4-0.7,0.8-1.1,1.5c-0.4,0.6-0.9,1.6-3.2,1.8l-4.1,0.1c-0.8-0.1-2.9-0.5-4.4-0.5    c-1.1,0.1-1.4,0.5-1.5,0.8c-0.3,0.6-0.2,1.5,0.3,2.3c0.6,0.9,0.9,1.1,1.7,1.1l0.6,0c0.8-0.1,1.3-0.5,1.8-0.8    c0.3-0.2,0.6-0.4,0.9-0.5c1.8-0.7,1.8-0.7,1.9-0.7C218.2,285.6,219.3,285.4,220.5,285.4L220.5,285.4z"/></g>
    <g><g><defs><rect height="16.5" id="SVGID_3_" width="13.2" x="296.2" y="198.9"/></defs><clipPath id="SVGID_4_"><use style="overflow:visible;" xlink:href="#SVGID_3_"/></clipPath><path
      class="st6"
      d="M308.2,208.2c-0.3,0.1-2.7,1.2-2.7,1.3c0,0.1-2.1,5.9-2.1,5.8c0-0.1-1.5-5-1.7-5c-0.2,0.1-5.3,0.7-5.4,0.7     c-0.1,0,3.9-5,3.9-5l-0.5-5.4l4.2,1.6c0,0,4.5-3.4,4.6-3.5c0.1,0-1.2,4.7-1.2,4.7l2.3,3.1C309.5,206.7,308.2,208,308.2,208.2     L308.2,208.2z"/></g></g>
    <g><path class="st2" d="M303,215.5c0,0-0.1-0.4-0.3-0.9c-0.3-0.9-1-3.2-1.3-3.9c-0.2,0.1-1.1,0.2-3.2,0.5c-0.9,0.1-1.7,0.2-1.9,0.2    c-0.2-0.2-0.3-0.3-0.2-0.6l-0.1-0.1c0,0,0.1,0,0.1,0c0.3-0.6,1.3-1.9,3.7-4.9l-0.7-5.7l4.8,1.9c4.1-3.4,4.2-3.4,4.3-3.5    c0.6,0.3,0.6,0.3-0.6,5.1l2.2,2.8c-0.6,1-1.2,1.7-1.3,1.9c-0.6,0.3-2.6,1.3-2.8,1.4c0.1-0.1-2,5.7-2,5.7L303,215.5L303,215.5z     M301.6,210c0.4,0,0.5,0.3,1.8,4.2c0.6-1.5,1.7-4.5,1.7-4.8c0.2-0.4,2.3-1.3,2.9-1.6c0-0.1,0.2-0.5,1.3-1.5l-2.3-2.7    c0-0.2,0.6-2.6,0.9-4c-1.3,1-3.8,2.9-3.8,2.9l-4-1.4l0.5,4.8c-0.1,0.2-2.4,3.2-3.4,4.5c0.3,0,0.6-0.1,1-0.1    C299.5,210.3,301.3,210.1,301.6,210C301.6,210,301.6,210,301.6,210L301.6,210z"/></g>
    <path class="st3"
          d="M257.4,267.8c3.1,2.1,22.1,6,24.9,6.4c3.6-0.3,8.6,0.1,12.4,1.4c3.6,1.6,7.3,1.5,9.8-0.4   c3.4-1.9,4.6-5,6.1-7.8c0.6-1.5,0.6-3.1,0-4.4c-1.1-2.8-0.4-3.5-0.7-5c4.1-9,4.9-19.5,5.9-27.3c-0.1-4.5,0.3-8,0.9-9.4   c2.2-3.3,5.3-4.7,6.9-5.3c5.9-1.5,11.8-3,17.7-4.6c4.6-1.7,1.6-4.8,0.6-4.5c-3.1-0.4-2.9-3.7-17.2-0.3c-3.1-0.4-6.1-0.8-9.2-1.2   c0,0-1.8-1.4-2-1.3c-5-0.9-5.7,2.3-5.4,4.3c0.2,1.4,0.5,2.8,0.7,4.2c0,0-1.8,6.4-1.7,6.6c-4.5,5.1-11.3,21.5-11.7,24.6   c-0.2,3-1.3,2.4-1,5.3c0,2.2-0.3,0.8,0.5,5.5c0.2,1.4-1.5,1.3-2.5,0.9c-8.3-5.2-16.2-8.6-24.9-13.3c-0.5-0.2-0.9-0.5-1.4-0.7   c-4.5,3.6-8.9,7.3-13.4,10.9c0.8,4.8,1.7,9.6,2.5,14.4C256,267.3,256.7,267.5,257.4,267.8L257.4,267.8z"/>
    <g><path class="st2" d="M299.7,277.1c-1.6,0-3.4-0.4-5.1-1.1c-3.4-1.1-8.5-1.7-12.2-1.3c-2.4-0.3-21.9-4.4-25.1-6.5l-0.7-0.3    c-0.5-0.2-1-0.4-1.5-0.7l-2.7-14.7l13.5-11.3l1.8,0.7c2.9,1.6,5.8,3,8.6,4.4c5.6,2.8,10.8,5.4,16.3,8.9c0.6,0.2,1.6,0.3,1.8,0    c-0.5-4-0.5-4.1-0.4-4.9l0-1.1c-0.2-1.6,0.1-2.3,0.4-2.9c0.2-0.5,0.5-1.1,0.6-2.4c0.4-3.3,7.2-19.6,11.8-24.8    c0-0.1,0.2-1.1,1.7-6.5l-0.7-4.1c-0.2-1.4,0.1-2.7,0.9-3.6c1-1.1,2.6-1.6,5-1.1c0.1,0,0.4,0,2.1,1.4l9,1.1c4.2-1,7.6-1.6,10.1-1.6    c2.9,0,4.2,0.7,5.3,1.2c0.6,0.3,1.1,0.6,1.8,0.6c0.7,0,1.9,0.9,2.1,2.1c0.1,0.8,0,2.2-2.7,3.2l-17.7,4.6c-3,1.1-5.2,2.8-6.7,5.2    c-0.5,1.3-1,4.7-0.8,9.2l-0.3,2.9c-0.9,7.4-2,16.5-5.6,24.5c0.1,0.3,0.1,0.8,0.1,1.3c0,0.8-0.1,1.7,0.6,3.5c0.6,1.3,0.7,3,0,4.7    l-0.6,1.2c-1.3,2.5-2.6,5.1-5.6,6.8C303.4,276.6,301.7,277.1,299.7,277.1L299.7,277.1z M284.8,273.8c3.5,0,7.2,0.6,10,1.5    c3.6,1.5,7.2,1.4,9.4-0.3c2.8-1.6,4.1-4.1,5.4-6.5l0.6-1.2c0.5-1.4,0.5-2.8,0-4c-0.8-2-0.7-3-0.7-3.8c0-0.4,0-0.8,0-1.3    c3.6-8.1,4.7-17.2,5.6-24.5l0.3-2.9c-0.1-4.6,0.4-8.1,0.9-9.5c1.6-2.5,4-4.4,7.1-5.5l17.7-4.6c1.5-0.6,2.3-1.4,2.2-2.3    c-0.1-0.8-1-1.5-1.3-1.5c-1-0.1-1.6-0.4-2.2-0.7c-1.1-0.5-2.3-1.1-5-1.1c-2.5,0-5.8,0.5-10.1,1.5l-9.3-1.2c-0.9-0.6-1.7-1.3-2-1.3    c-2.2-0.4-3.5-0.1-4.3,0.9c-0.9,1-0.8,2.5-0.7,3l0.7,4.2c-0.6,2.4-1.7,6.2-1.7,6.6c-4.6,5.3-11.3,21.5-11.7,24.7    c-0.1,1.4-0.4,2.1-0.7,2.6c-0.3,0.6-0.5,1.1-0.4,2.6l0,1.2c0,0.7,0,0.8,0.5,4.2c0.1,0.5,0,0.8-0.3,1.1c-0.5,0.6-1.7,0.6-2.7,0.2    c-5.5-3.5-10.8-6.1-16.3-8.9c-2.8-1.4-5.7-2.8-8.6-4.4l-1.4-0.7l-13,10.9l2.6,14.1c0.4-0.1,0.8,0.2,1.3,0.4l0.7,0.3    c3,2,21.9,6,24.8,6.4C283.1,273.8,283.9,273.8,284.8,273.8L284.8,273.8z"/></g>
    <path class="st4" d="M329.8,213.9c-0.2,0-5.8-6.7-5.8-6.7s3.3-0.7,3.3-0.6l6.4,6.2L329.8,213.9z"/>
    <g><path class="st2" d="M310.8,249.8c-4.1,0-8.5-1.9-10.8-4l0.5-0.6c2.1,2,7.2,4.4,12,3.7l0.1,0.7C312,249.7,311.4,249.8,310.8,249.8    L310.8,249.8z"/></g>
    <g><path class="st2" d="M330,214.1l-0.6,0c-0.7-0.7-2.1-2-2.4-2.5c-0.5-0.5-1-1.1-1.6-1.6l-0.7-0.8c-0.3-0.3-0.6-0.6-0.9-1    c-0.5-0.4-1-1-1.6-1.5l0.6-0.5c0.5,0.6,1,1.1,1.5,1.5c0.4,0.4,0.6,0.7,0.9,1l0.7,0.7c0.6,0.5,1.1,1.1,1.6,1.7    c0.4,0.5,1.7,1.8,2.4,2.5L330,214.1L330,214.1z M335.4,213.2c-0.2,0-1-0.3-1.4-0.6l-0.7-0.6c-0.6-0.5-1.4-1.1-1.6-1.5    c-0.5-0.5-1-1-1.5-1.4l-0.7-0.7c-0.3-0.3-0.5-0.5-0.8-0.9c-0.5-0.4-1-0.8-1.5-1.3l0.5-0.5c0.5,0.5,0.9,0.9,1.4,1.3l1.5,1.6    c0.5,0.4,1,0.9,1.5,1.5c0.3,0.3,1,0.9,1.6,1.4l0.7,0.6c0.3,0.2,1,0.4,1.1,0.4L335.4,213.2L335.4,213.2z"/></g>
    <g><path class="st2" d="M306.4,232.1c-0.4-1.1-0.9-1.8-1.3-2.2c-0.6-1-2.1-1.6-2.5-1.7c-0.5-0.1-0.7-0.1-0.8-0.2l0.2-0.3l-0.4,0.3    l0.5-0.7c0.1,0,0.3,0.1,0.6,0.2c0.5-0.1,2.5,0.8,3.1,2c0.3,0.4,0.8,1.2,1.1,1.7L306.4,232.1L306.4,232.1z"/></g>
    <g><path class="st2" d="M324.2,215.6l-0.5-0.1l0.3-0.2l-0.4,0.1l0.1,0l-0.1,0c-0.4-0.8-0.6-1.1-0.7-1.4c-0.1-0.3-0.2-0.5-0.4-0.7    c-0.2-0.3-0.3-0.6-0.4-0.9c-0.1-0.3-0.2-0.6-0.4-0.8c-0.1-0.3-0.3-0.6-0.4-0.9c-0.2-0.3-0.3-0.6-0.4-1c-0.1-0.3-0.2-0.5-0.4-0.8    c-0.1-0.3-0.3-0.7-0.5-1l-0.7-1.5l0.7-0.3c0.2,0.3,0.3,0.6,0.4,0.9l0.3,0.6c0.2,0.4,0.4,0.7,0.5,1.1c0.1,0.3,0.2,0.5,0.4,0.8    c0.1,0.3,0.3,0.6,0.4,0.9c0.2,0.3,0.3,0.6,0.4,0.9c0.1,0.2,0.3,0.5,0.4,0.9c0.1,0.3,0.2,0.5,0.4,0.8c0.1,0.2,0.3,0.5,0.4,0.8    c0.1,0.3,0.3,0.6,0.4,0.9l0.2,0.3l0,0.1l0.1,0l-0.1,0L324.2,215.6L324.2,215.6z"/></g>
    <g><path class="st2" d="M339.3,212c-0.2,0-1-0.3-1.4-0.5l-0.7-0.6c-0.6-0.4-1.3-1-1.5-1.3c-0.4-0.4-0.9-0.9-1.4-1.3l-0.6-0.6    c-0.2-0.2-0.5-0.5-0.8-0.8c-0.5-0.3-0.9-0.7-1.4-1.2l0.5-0.5c0.4,0.4,0.9,0.8,1.3,1.2c0.3,0.4,0.6,0.6,0.8,0.8l0.6,0.6    c0.5,0.4,1,0.8,1.4,1.3c0.3,0.3,0.9,0.8,1.4,1.2l0.7,0.5c0.3,0.1,0.9,0.3,1,0.3L339.3,212L339.3,212z"/></g>
    <g><path class="st2" d="M315,212.4l-0.1-0.7c0.6-0.1,0.8-0.3,0.9-0.6c0.4-0.7,0.5-1.7,0.2-2.9c-0.1-0.5-0.2-0.9-0.3-1.6    c-0.1-0.3-0.2-0.5-0.2-0.8l0.7-0.2c0,0.4,0.1,0.5,0.2,0.8c0.1,0.7,0.2,1.1,0.3,1.6c0.3,1.4,0.1,2.5-0.1,3.1    C316.2,211.8,316,212.2,315,212.4L315,212.4z"/></g>
    <g><path class="st2" d="M306.7,273.2c-0.7,0-0.9-0.2-1.2-0.3c-0.2,0-0.4-0.1-0.7-0.2c-0.2-0.1-0.5-0.2-0.8-0.2l0.1-0.7    c0.4,0.1,0.6,0.1,0.9,0.2c0.2,0.1,0.4,0.1,0.6,0.2c0.4,0.2,0.6,0.3,0.7,0.3l0,0.1l0.1,0l-0.1,0.1l0.2-0.2l0.1,0.3L306.7,273.2    L306.7,273.2z"/></g>
    <g><path class="st2" d="M309.9,261.9c-0.5-0.4-6.7-4.5-7.5-4.7l-0.8-0.3c-0.4-0.1-0.7-0.3-1.1-0.5c-0.3-0.2-0.5-0.3-0.7-0.4    c-0.7-0.2-0.9-0.3-1.2-0.4c-0.3-0.1-0.5-0.1-0.7-0.1h-0.6c-0.2,0.1-0.5,0.1-0.8,0.1c-0.8,0.1-1.3,0.2-1.6,0.3l-0.2-0.7    c0.3-0.1,0.9-0.2,1.3-0.3l1.1-0.1c0.2-0.1,0.6-0.2,1,0c0.2,0,0.5,0,0.8,0.1c0.2,0.1,0.4,0.1,0.7,0.1l0.6,0.3    c0.3,0.1,0.5,0.2,0.8,0.4c0.3,0.2,0.7,0.3,1,0.4l0.8,0.3c0.7,0.2,7.7,4.6,7.9,5l-0.7,0.3l0.3-0.2L309.9,261.9L309.9,261.9z"/></g>
    <g><path class="st2" d="M295.7,245.1l-1-0.3c0.1-0.1,0.3-0.2,0.7-0.4c0.3-0.1,0.6-0.2,0.8-0.4c0.8-0.4,3.2-0.7,4.4,0l-0.4,0.6    c-1-0.5-3.1-0.3-3.7,0C296.4,244.8,296,245,295.7,245.1L295.7,245.1z"/></g>
    <g><path class="st2" d="M300.9,256.4c-0.1-0.1-0.1-0.1-0.3-1.3l-0.4-1.9c-0.4-2.3-0.1-7.7,0-8.4c0-0.2,0-0.4,0-0.7c0-0.5,0-1,0.2-1.4    c0.1-0.4,0.2-0.9,0.4-1.3c0.4-1.2,0.7-1.7,0.9-2.2c0.3-1.7,5.3-8.9,5.6-9.1c0.2-0.3,0.6-0.8,0.9-1.2c0-0.2,0.2-0.5,0.4-0.8    c0.6-0.8,0.7-1.1,0.8-1.4l0.3-1c0.1-0.4,0.1-0.8,0.1-1.1c0.1-0.5,0.1-0.8,0.1-1.1c0-0.3,0-0.5,0-0.7c-0.1-0.6,0.4-8.6,0.4-8.7    c0.1-0.7,0.6-2.2,1.6-2.9c0.5-0.3,1-0.4,1.6-0.3l0.8,0.2c0.5,0.1,0.9,0.2,1.2,0.5c0.5,0.1,1,0.5,1.4,0.8c2.2,2.1,2.8,3.4,3.2,4.1    l0,0.8l0.3-0.2l-0.5,0.6l-0.3-0.5c-0.5-1-1.1-2.3-2.9-4c-0.6-0.5-1-0.8-1.5-0.9c-0.3-0.2-0.7-0.3-1.1-0.4l-0.8-0.2    c-0.3-0.1-0.7,0-0.9,0.2c-0.8,0.5-1.2,1.9-1.2,2.3c0,0.4-0.4,8-0.4,8.6c0,0.3,0,0.5,0,0.7c0,0.3,0,0.7-0.1,1.2    c0,0.3-0.1,0.8-0.1,1.2l-0.1,0.6c-0.4,0.9-0.5,1.2-0.8,1.6c-0.4,0.7-0.6,0.9-0.7,1.1c-0.3,0.4-0.7,0.9-0.9,1.3    c-0.4,0.5-5.2,7.3-5.5,8.9c-0.3,0.6-0.5,1.1-0.7,1.7c-0.3,0.9-0.5,1.3-0.6,1.8c-0.1,0.3-0.1,0.8-0.1,1.1c0,0.3,0,0.6,0,0.8    c-0.1,0.5-0.4,5.8,0,8.1l0.4,1.9c0.1,0.6,0.2,1,0.2,1.1L300.9,256.4L300.9,256.4z"/></g>
    <g><path class="st2" d="M295.7,276l-0.2-0.3l-0.2,0l0.2-0.1l-0.3,0.1l0,0l0,0l0.2-0.1l-0.2,0.1l0.3-0.2l-0.5-0.4    c-0.1-0.4-0.1-0.8-0.2-1.2l-0.1-0.7c-0.2-0.9-0.4-1.3-0.3-1.7c-0.2-0.3-0.1-0.8-0.1-1.2c0.2-1,0.3-1.5,0.3-2.1c0-0.5,0-0.8,0-1.2    c0-0.3,0-0.6,0-1l-0.2-0.5c-0.1-0.4-0.2-0.7-0.4-1.1l-0.3-0.7c-0.2-0.4-0.3-0.7-0.5-1.1l-0.9-1.5l0.7-0.4l0.9,1.5    c0.2,0.4,0.4,0.8,0.6,1.2l0.3,0.6c0.2,0.4,0.3,0.8,0.4,1.2l0.2,1.7c0,0.4,0,0.8,0,1.2c0,0.7-0.1,1.2-0.2,1.9c-0.1,0.7-0.1,1,0,1.3    c0,0.4,0.1,0.7,0.2,1l0.3,1.2c0.1,0.4,0.2,0.8,0.2,1.2v0.4l0.1,0l0,0l0,0l-0.1,0.1V276L295.7,276z"/></g>
    <path class="st4"
          d="M302.8,272c-1-1.6-2-4.5-2.1-4.6l-2-3.5c-1.2-1.8-2.2-1.8-2.9-1.8c-1.5-0.1-2.1-0.4-3.2-0.5   c-1.1-0.5-0.3-2.5-0.3-2.6c1.2-4.6,6-4.2,6.2-4.1c2.2,0.7,2.5,1,2.1,2.4c-0.6,1.5-0.9,2.1-0.8,3c0.1,1.8,2.4,4.6,2.4,4.6   c0,0.1,1.5,1.2,1.5,1.2c0.7,0.6,1.6,0.7,2.5,1.8c0.8,1.2,0.9,1.7,0.3,3C305.6,272.7,303.7,273.2,302.8,272L302.8,272z"/>
    <g><path class="st2" d="M304.1,273.1c-0.7,0-1.2-0.3-1.6-0.8c-0.9-1.4-1.8-3.7-2-4.4l-2.1-3.7c-1.1-1.6-1.9-1.6-2.5-1.6    c-0.9-0.1-1.4-0.2-2-0.3c-0.4-0.1-0.8-0.2-1.3-0.2c-1.4-0.6-0.9-2.3-0.7-2.9c1.1-4.2,4.8-4.6,5.9-4.6c0.2,0,0.7,0,0.9,0.1    c2.1,0.7,2.8,1.1,2.3,2.8l-0.3,0.9c-0.3,0.9-0.5,1.3-0.5,2c0.1,1,0.9,2.6,2.2,4.3c0.2,0.2,1.5,1.2,1.5,1.2    c0.2,0.2,0.5,0.3,0.8,0.5c0.5,0.3,1.2,0.6,1.8,1.4c0.9,1.3,1.1,2,0.3,3.4C306.2,272.4,305.2,273.1,304.1,273.1L304.1,273.1z     M298.1,255.4c-1.9,0-4.7,0.5-5.5,3.8c-0.4,1.3-0.3,2,0.1,2.2c0.4,0,0.8,0.1,1.3,0.2c0.5,0.1,1.1,0.2,1.8,0.3c0.7,0,1.8,0,3.1,2    l2.1,3.6c0.4,1,1.2,3.3,2.1,4.6c0.7,0.9,2.3,0.4,3-0.9c0.6-1.1,0.5-1.4-0.2-2.6c-0.5-0.6-1-0.9-1.6-1.2c-0.3-0.2-0.6-0.3-0.9-0.6    c-1.5-1.2-1.5-1.3-1.6-1.3c-0.9-1.1-2.3-3.2-2.4-4.8c0-0.8,0.2-1.4,0.5-2.3l0.3-0.9c0.3-1,0.3-1.2-1.9-1.9    C298.3,255.4,298.2,255.4,298.1,255.4L298.1,255.4z"/></g>
    <g><g><defs><rect height="11.5" id="SVGID_5_" width="16.9" x="180.1" y="228.8"/></defs><clipPath id="SVGID_6_"><use style="overflow:visible;" xlink:href="#SVGID_5_"/></clipPath><path
      class="st7"
      d="M188.1,229.1c0.2,0.2,2.5,1.6,2.6,1.5c0-0.1,6.1-1.5,6-1.4c0,0.1-3.4,4.1-3.2,4.1c0.2,0.1,3.5,4.1,3.6,4.1     c0.1,0-6.3-0.5-6.3-0.5l-4.2,3.4l-0.9-4.4c0,0-5.3-1.9-5.4-1.9c-0.1,0,4.6-1.6,4.6-1.6l1.4-3.6     C186.1,228.8,187.9,229.2,188.1,229.1L188.1,229.1z"/></g></g>
    <g><path class="st2" d="M186.2,241l-1.1-5c-0.1,0-5.1-1.6-5.2-1.7c-0.2-0.7-0.2-0.7,4.6-2.3l1.2-3.4c0.4-0.2,1.8,0,2.3,0    c0.6,0.3,2.5,1.4,2.8,1.5c-0.2-0.2,5.9-1.4,6-1.4h0.6l-0.3,0.6c0,0-0.2,0.3-0.5,0.7c-0.6,0.8-2.2,2.6-2.6,3.2    c0.2,0.1,0.7,0.8,2.1,2.4c0.6,0.8,1.2,1.4,1.3,1.5l-0.3,0.7c-0.3,0-6.3-0.5-6.3-0.5L186.2,241L186.2,241z M181.2,234    c1.5,0.6,4.4,1.6,4.4,1.6l1,4.1l3.8-3c0.2-0.1,3.9,0.2,5.7,0.4c-0.2-0.2-0.4-0.5-0.7-0.9c-0.9-1.1-2-2.4-2.2-2.5    c-0.2-0.5-0.2-0.6,2.5-3.9c-1.6,0.3-4.7,1.1-4.9,1.2c-0.3,0-2.9-1.5-3-1.6c-0.3,0.1-1.8-0.2-1.8-0.2l-1,3.4    C184.9,232.7,182.5,233.5,181.2,234L181.2,234z"/></g>
    <path class="st3"
          d="M265.7,238.9c0-3.7-7-21.8-8.3-24.4c-2.3-2.8-4.6-7.3-5.7-11.1c-0.7-3.9-2.7-6.9-5.7-8   c-3.4-1.8-6.7-1.1-9.9-0.8c-1.6,0.3-2.9,1.2-3.6,2.4c-1.7,2.5-2.7,2.3-3.8,3.3c-9.8,1.5-19,6.6-26.1,10c-3.7,2.6-6.9,4.1-8.4,4.4   c-4,0-6.9-1.9-8.2-2.9c-4.5-4.1-9-8.2-13.5-12.3c-3.9-2.9-4.9,1.3-4.1,1.9c1.3,2.8-1.5,4.5,9.2,14.6c1.4,2.8,2.7,5.6,4.1,8.3   c0,0-0.2,2.3,0,2.4c2,4.7,5.1,3.5,6.5,2.2c1.1-1,2.1-1.9,3.2-2.9c0,0,6.3-2,6.4-2.2c6.8,1,24.2-2.3,27.1-3.7c2.6-1.4,2.8-0.2,5-2   c1.9-1.2,0.8-0.3,4.3-3.4c1.1-0.9,1.9,0.6,2.1,1.6c0.2,9.8,1.7,18.3,2.6,28.1c0.1,0.5,0.1,1,0.2,1.5c5.5,1.7,11,3.5,16.5,5.2   c3.6-3.3,7.1-6.7,10.7-10C266.1,240.4,265.9,239.7,265.7,238.9L265.7,238.9z"/>
    <g><path class="st2" d="M255.6,251.7l-16.7-5.3l-0.4-1.8c-0.3-3.3-0.7-6.5-1-9.6c-0.7-6.2-1.4-12-1.5-18.5c-0.1-0.7-0.6-1.5-1.1-1.5    c-3,2.6-3.1,2.6-3.8,3l-1,0.6c-1.3,1-2,1.1-2.7,1.3c-0.6,0.1-1.2,0.2-2.3,0.8c-3,1.4-20.3,4.7-27.2,3.7c0,0.1-1.1,0.5-6.3,2.2    l-3,2.8c-0.4,0.4-1.6,1.3-3,1.3c-1.2,0-2.9-0.6-4.1-3.6c-0.1,0.1-0.2,0,0-2.6l-4-8.1c-8.1-7.6-8.5-10.6-8.8-12.7    c-0.1-0.7-0.2-1.2-0.4-1.9c-0.4-0.3-0.3-1.2-0.1-1.9c0.7-1.8,2.6-2.1,4.8-0.5l13.5,12.3c2.6,1.9,5.2,2.8,7.9,2.8    c1.4-0.3,4.5-1.8,8.2-4.3l2.6-1.3c6.7-3.3,14.9-7.4,23.6-8.8c0.2-0.3,0.6-0.5,1-0.7c0.7-0.4,1.5-0.9,2.6-2.4    c0.8-1.3,2.2-2.2,3.9-2.6l1.4-0.1c3.1-0.3,6.3-0.3,8.7,1c3,1,5.2,4.1,5.9,8.2c0.9,3.6,3.2,8,5.6,11c1.1,2.3,8.3,20.6,8.3,24.6    l0.2,0.7c0.1,0.5,0.2,1,0.3,1.6L255.6,251.7L255.6,251.7z M234.8,214.2c1,0,1.6,1.3,1.8,2.2c0.1,6.5,0.8,12.4,1.5,18.5    c0.4,3.1,0.7,6.3,1,9.6l0.2,1.5l16,4.8l10.5-9.9c-0.2-0.2-0.3-0.7-0.4-1.2l-0.2-0.8c0-3.7-6.9-21.5-8.2-24.3    c-2.4-3-4.7-7.5-5.7-11.2c-0.7-3.9-2.7-6.7-5.4-7.7c-2.4-1.3-5.4-1.3-8.3-0.9l-1.4,0.1c-1.5,0.3-2.7,1.1-3.4,2.2    c-1.2,1.7-2.1,2.2-2.8,2.7c-0.4,0.2-0.7,0.4-1.1,0.8c-8.8,1.4-17,5.5-23.6,8.8l-2.6,1.3c-3.8,2.6-7,4.1-8.4,4.4c0,0,0,0,0,0    c-3.1,0-5.8-1-8.5-2.9l-13.5-12.3c-2-1.5-3.3-0.5-3.6,0.2c-0.2,0.6-0.1,1.1,0,1.2c0.4,0.9,0.5,1.5,0.6,2.2c0.2,2,0.6,4.8,8.6,12.4    l4.1,8.4c-0.1,1.1-0.1,2.2-0.1,2.4c0.9,2.1,2.1,3.1,3.4,3.1c1.2,0,2.1-0.7,2.5-1.1l3.2-2.9c2.4-0.8,6.1-2,6.4-2.2    c1.1,0,2.2,0.1,3.3,0.1c7.8,0,21.3-2.6,23.8-3.8c1.2-0.7,1.9-0.8,2.6-0.9c0.7-0.1,1.2-0.2,2.4-1.1l1-0.6c0.6-0.4,0.7-0.4,3.3-2.8    C234.2,214.3,234.5,214.2,234.8,214.2L234.8,214.2z"/></g>
    <path class="st4" d="M180.9,207.9c0.1,0.1-2.4,8.5-2.4,8.5s-2.4-2.4-2.3-2.4l1.7-8.8L180.9,207.9z"/>
    <g><path class="st2" d="M224,215.4l-0.7-0.1c0.5-2.8-0.2-8.5-3.5-12.1l0.6-0.5C223.4,206.1,224.6,211.8,224,215.4L224,215.4z"/></g>
    <g><path class="st2" d="M179,218.1l-0.7-0.2c0.2-0.7,0.3-1.4,0.4-2.1c0.2-0.5,0.3-0.9,0.4-1.3l0.3-1c0.1-0.7,0.3-1.5,0.5-2.3    c0.2-0.7,0.7-2.8,0.8-3.6l0.4-0.1l0.3,0.2c-0.2,0.8-0.6,3-0.8,3.7c-0.2,0.7-0.4,1.5-0.5,2.2l-0.3,1c-0.1,0.4-0.2,0.8-0.3,1.3    C179.4,216.7,179.2,217.4,179,218.1L179,218.1z M176,214.2l-0.7-0.2c0.1-0.6,0.3-1.3,0.3-1.9l0.5-2.1c0.1-0.7,0.2-1.4,0.4-2.1    c0.1-0.4,0.2-1.3,0.3-2l0.1-0.9c0-0.3-0.2-1-0.2-1.1l0.7-0.3c0.1,0.2,0.3,1,0.3,1.5l-0.1,0.9c-0.1,0.8-0.2,1.7-0.3,2.2    c-0.1,0.6-0.3,1.3-0.4,2l-0.5,2.1C176.3,212.9,176.2,213.5,176,214.2L176,214.2z"/></g>
    <g><path class="st2" d="M208.2,223.7l-0.8,0c0-0.1-0.1-0.3-0.2-0.6c-0.4-0.4-0.7-2.5,0-3.7c0.2-0.5,0.6-1.3,0.8-1.9l1-0.1    c-0.6,0.9-1,1.7-1.2,2.3c-0.5,1-0.2,2.7,0,3c0.2,0.4,0.3,0.7,0.3,0.8l-0.4,0L208.2,223.7L208.2,223.7z"/></g>
    <g><path class="st2" d="M180.4,220.6l-0.7-0.4c0.2-0.3,0.3-0.6,0.5-0.8l0.4-0.6c0.2-0.4,0.4-0.7,0.6-1c0.2-0.2,0.3-0.5,0.5-0.8    c0.2-0.3,0.4-0.6,0.5-0.9c0.2-0.3,0.4-0.6,0.5-0.9c0.1-0.2,0.3-0.5,0.5-0.8c0.2-0.2,0.3-0.5,0.5-0.7c0.1-0.3,0.3-0.5,0.5-0.8    c0.2-0.3,0.3-0.5,0.5-0.8l0.3-0.4l-0.1,0l0.1,0l0.4-0.2l0.2,0.4l-0.1,0.1c-0.4,0.8-0.6,1-0.8,1.3c-0.2,0.2-0.3,0.5-0.4,0.7    c-0.2,0.3-0.3,0.6-0.5,0.8c-0.2,0.2-0.3,0.5-0.5,0.7c-0.2,0.3-0.4,0.6-0.5,0.9c-0.2,0.3-0.4,0.6-0.6,0.9c-0.1,0.3-0.3,0.5-0.5,0.8    c-0.2,0.3-0.4,0.6-0.6,0.9L180.4,220.6L180.4,220.6z"/></g>
    <g><path class="st2" d="M173.3,210.9l-0.7-0.2c0.1-0.6,0.2-1.2,0.2-1.8l0.4-1.9c0.1-0.6,0.2-1.3,0.3-1.9c0.1-0.4,0.2-1.2,0.2-1.9    l0.1-0.9c0-0.3-0.2-0.9-0.3-1.1l0.7-0.3c0.1,0.2,0.3,0.9,0.4,1.4l-0.1,0.9c-0.1,0.7-0.1,1.6-0.3,2c-0.1,0.6-0.2,1.2-0.3,1.9    l-0.4,1.9C173.5,209.7,173.4,210.3,173.3,210.9L173.3,210.9z"/></g>
    <g><path class="st2" d="M182.1,224.3l-0.6-0.5c0.3-0.2,0.4-0.3,0.5-0.6c0.5-0.5,0.8-0.8,1.2-1.1c1-1,2-1.5,2.7-1.6    c0.8,0,1.3-0.1,2,0.6l-0.5,0.5c-0.4-0.5-0.7-0.4-1-0.4c-0.8,0.1-1.6,0.5-2.5,1.4c-0.4,0.4-0.7,0.7-1.1,1.1    C182.5,223.9,182.3,224.1,182.1,224.3L182.1,224.3z"/></g>
    <g><path class="st2" d="M243.4,197.5c-0.1-0.3-0.2-0.6-0.3-0.8c-0.1-0.2-0.1-0.4-0.2-0.7c-0.1-0.4-0.1-0.7-0.1-0.8l0.1-0.1l-0.2-0.1    l0.5-0.4c0.3,0.6,0.3,0.8,0.4,1.1c0.1,0.2,0.1,0.4,0.2,0.7c0.1,0.2,0.1,0.5,0.2,0.7L243.4,197.5L243.4,197.5z"/></g>
    <g><path class="st2" d="M234.8,214.6c-0.2-0.2-0.6-0.6-0.9-1l-0.7-0.8c-0.2-0.2-0.4-0.4-0.5-0.8c-0.1-0.1-0.2-0.4-0.3-0.7    c-0.1-0.2-0.1-0.4-0.3-0.6l-0.1-0.7c0-0.3-0.1-0.5-0.1-0.8c0-0.4-0.1-0.7-0.2-1.1l-0.2-0.8c-0.2-0.7-0.4-8.9-0.1-9.3l0.6,0.4    l-0.3-0.2l0.4,0.1c-0.1,0.6-0.1,8,0.2,8.9l0.2,0.9c0.1,0.4,0.2,0.8,0.2,1.2c0,0.3,0,0.5,0.1,0.8c0.2,0.7,0.2,0.9,0.3,1.2    c0.1,0.3,0.2,0.5,0.3,0.6l0.4,0.5c0.2,0.1,0.4,0.3,0.5,0.6c0.6,0.6,0.9,1,1.1,1.2L234.8,214.6L234.8,214.6z"/></g>
    <g><path class="st2" d="M226,220.3c-0.2-0.1-0.3-0.2-0.7-0.4c-0.2-0.2-0.5-0.3-0.8-0.5c-0.7-0.4-2.3-2.2-2.4-3.7l0.8,0    c0.1,1.1,1.5,2.8,2,3.1c0.3,0.1,0.6,0.3,0.9,0.5L226,220.3L226,220.3z"/></g>
    <g><path class="st2" d="M189.9,224.4c-0.4,0-0.8-0.1-1.1-0.2c-0.5-0.2-0.9-0.6-1.1-1.2c-0.1-0.3-0.2-0.6-0.2-0.8    c-0.1-0.4-0.3-0.8-0.3-1.2c-0.2-0.5-0.1-1.1-0.1-1.6c0.5-3,1.3-4.3,1.7-4.9l1.1-0.5l-0.5,0.9c-0.4,0.6-1.1,1.8-1.6,4.3    c-0.1,0.8-0.1,1.3,0,1.7c0,0.4,0.1,0.7,0.3,1.1c0.1,0.3,0.2,0.6,0.2,0.8c0.1,0.3,0.3,0.5,0.7,0.7c0.9,0.4,2.2,0,2.7-0.2    c0.4-0.2,6.9-4,7.4-4.4c0.3-0.1,0.4-0.3,0.6-0.4c0.3-0.2,0.6-0.4,1-0.6c0.3-0.2,0.7-0.4,1.1-0.5l0.7-0.3c0.8-0.1,1.2-0.2,1.7-0.1    c0.8,0,1.1,0,1.3-0.1c0.5,0,1.1,0.1,1.6,0.1c0.6,0.1,9,0.4,10.5-0.3c0.6-0.1,1.1-0.2,1.7-0.3l0.7,0.2l-0.1-0.4    c0.4-0.1,0.8-0.2,1.3-0.3c0.3-0.1,0.7-0.3,1-0.5c0.2-0.2,0.5-0.3,0.7-0.4c0.5-0.2,5.1-2.9,6.8-4.4l2.1-2.1l0.6,0.4    c0,0.1,0,0.1-0.6,0.6l-1.6,1.6c-1.7,1.6-6.4,4.3-7,4.6c-0.2,0.1-0.4,0.2-0.6,0.4c-0.4,0.2-0.8,0.5-1.2,0.6    c-0.4,0.2-0.8,0.3-1.3,0.4l-0.6,0.1c-0.6,0.1-1.2,0.3-1.7,0.3c-1.6,0.7-10.3,0.4-10.7,0.3c-0.4,0-1,0-1.5-0.1    c-0.3,0.1-0.9,0.1-1.3,0.1c-0.7,0-0.9,0-1.2,0.1l-0.9,0.3c-0.3,0.1-0.7,0.3-1,0.5c-0.4,0.2-0.7,0.4-1,0.5    c-0.2,0.1-0.4,0.3-0.6,0.4c-0.5,0.4-7.4,4.4-7.4,4.4C192,224,191,224.4,189.9,224.4L189.9,224.4z"/></g>
    <g><path class="st2" d="M241.1,213.3l-0.7-0.3l0.8-1.5c0.2-0.4,0.5-0.8,0.7-1.2l0.3-0.5c0.2-0.4,0.5-0.7,0.8-1l1.3-1.1    c0.3-0.2,0.6-0.4,1.1-0.6c0.6-0.4,1-0.6,1.7-0.8c0.6-0.3,0.9-0.4,1.1-0.7c0.3-0.2,0.6-0.5,0.8-0.7l0.9-0.9    c0.3-0.3,0.6-0.6,0.9-0.8l0.3-0.2l-0.1,0l0.1,0l-0.1,0l0.1,0l0.5-0.3l-0.2,0.3l0.3,0.2l-0.1,0.2l-0.3-0.2l0,0.6    c-0.3,0.3-0.6,0.6-0.9,0.8l-0.5,0.5c-0.6,0.7-0.9,1-1.2,1.2c-0.2,0.3-0.6,0.5-1,0.7c-0.9,0.4-1.4,0.6-1.9,0.9    c-0.4,0.2-0.7,0.4-1,0.6l-1.2,1c-0.2,0.3-0.5,0.5-0.7,0.9l-0.3,0.6c-0.2,0.4-0.5,0.7-0.7,1.1L241.1,213.3L241.1,213.3z"/></g>
    <g><path class="st2" d="M245.7,245.2l-0.3-0.1l0.1-0.5c0.1-0.8,0.2-1.3,0.2-1.8c0-0.4,0.1-0.8,0.1-1.2c0.1-0.8,0.3-1.6,0.3-2.4l0-0.7    c0-0.6,0-1.2-0.1-1.9c0-0.5,0-0.9-0.1-1.4l-0.1-1.1c0-0.8-0.1-1.4-0.2-2.1c0-0.6-0.1-1.4-0.2-2.1c0.1-0.5-0.1-1-0.2-1.3l-1-4.1    c-0.1-0.5-0.2-1-0.4-1.4l-0.2-0.7c-0.2-0.5-0.4-1.1-0.5-1.5c-0.3-0.6-0.5-1.1-0.6-1.6c-0.1-0.2-0.3-0.7-0.5-1.1    c-0.3-0.6-0.3-0.9-0.4-1.1c-0.1-0.3-0.2-0.6-0.3-0.8c-0.4-1-0.6-1.4-0.7-1.8l0.3-0.9l0.4,0.7c0.1,0.4,0.2,0.7,0.4,1.1    c0.3,0.8,0.4,1.1,0.6,1.4l0.3,0.7c0.3,0.8,0.5,1.3,0.7,1.6c0.1,0.5,0.3,0.9,0.5,1.3c0.2,0.8,0.4,1.3,0.6,1.8l0.2,0.7    c0.2,0.5,0.3,1,0.4,1.5l1,3.9c0.1,0.5,0.3,1.1,0.2,1.6c0.1,0.6,0.2,1.4,0.2,2c0.2,0.7,0.2,1.4,0.2,2.2l0.1,1.1    c0,0.5,0.1,0.9,0.1,1.4c0.1,0.6,0.1,1.2,0.2,1.9l0,0.7c0,0.8-0.1,1.7-0.3,2.4c0,0.3,0,0.7-0.1,1.2c0,0.4-0.1,0.9-0.1,1.3l-0.1,0.6    l0,0l0,0l-0.2,0.3L245.7,245.2L245.7,245.2z"/></g>
    <path class="st4"
          d="M244.4,198.6c-0.7,1.7-2.7,4.2-2.7,4.2l-1.8,3.6c-0.8,2-0.3,2.8,0.1,3.4c0.7,1.3,0.9,2,1.4,2.9   c0.2,1.2-2,1.6-2,1.7c-4.5,1.6-6.8-2.8-6.8-3c-0.6-2.3-0.5-2.6,0.8-3.1c1.6-0.4,2.2-0.4,3-0.9c1.5-1.1,2.5-4.5,2.6-4.5   c0-0.1,0.2-1.9,0.2-1.9c0.1-0.9-0.3-1.7,0.2-3.1c0.6-1.4,0.9-1.7,2.3-1.8C243.5,195.9,244.9,197.2,244.4,198.6L244.4,198.6z"/>
    <g><path class="st2" d="M237.4,215.2c-3.4,0-5.2-3.2-5.3-3.6c-0.6-2.2-0.6-2.9,1.1-3.5l1-0.2c0.9-0.2,1.4-0.3,1.9-0.7    c0.8-0.6,1.7-2.1,2.4-4.2c0.1-0.3,0.2-1.9,0.2-1.9c0-0.3,0-0.6,0-0.9c-0.1-0.6-0.1-1.3,0.2-2.3c0.7-1.5,1.1-2,2.7-2.1    c1.4,0,2.4,0.4,2.9,1.2c0.4,0.6,0.5,1.2,0.2,1.9c-0.4,1-1.3,2.4-2.6,4.2l-1.9,3.8c-0.7,1.8-0.3,2.4,0,3c0.4,0.7,0.6,1.3,0.9,1.8    c0.2,0.4,0.3,0.8,0.6,1.2c0.3,1.5-1.5,2-2.1,2.2C238.8,215.1,238.1,215.2,237.4,215.2L237.4,215.2z M242,196.4    c-1.5,0.1-1.7,0.3-2.3,1.6c-0.2,0.8-0.2,1.4-0.1,1.9c0,0.4,0.1,0.7,0,1.1c-0.2,1.9-0.2,2-0.3,2c-0.5,1.4-1.4,3.7-2.7,4.6    c-0.7,0.5-1.3,0.6-2.2,0.8l-0.9,0.2c-1,0.3-1.2,0.4-0.6,2.6c0,0,1.5,3,4.5,3c0.6,0,1.2-0.1,1.8-0.3c1.3-0.4,1.8-0.8,1.7-1.3    c-0.2-0.3-0.4-0.7-0.6-1.2c-0.2-0.5-0.4-1-0.8-1.7c-0.4-0.6-0.9-1.6-0.1-3.7l1.8-3.7c1.4-1.9,2.3-3.3,2.7-4.2    c0.2-0.5,0-0.9-0.2-1.2C243.5,196.8,242.8,196.4,242,196.4L242,196.4z"/></g>
    <g><g><defs><rect height="29.8" id="SVGID_7_" width="30" x="237.6" y="237.7"/></defs><clipPath id="SVGID_8_"><use style="overflow:visible;" xlink:href="#SVGID_7_"/></clipPath><path
      class="st8"
      d="M238.5,242.5c-0.7-0.6,12.8,4.9,14.6,4.9c2.5-0.9,13-9.8,13-9.8c0.1,0.9,0.5,3.1,1.5,3.6     c-4,3.3-7.7,6.4-11.7,9.7c0.3,5.2-0.7,10.7,2,16.5c0,0-3.1,0.1-3.1,0c-2.8-2.8-3.8-16.2-3.8-16.2c-4.4-2-8.8-3.9-13.3-5.9     C238.3,245,238.8,243.7,238.5,242.5L238.5,242.5z"/></g></g>
    <g><path class="st2" d="M255.5,267.9c-0.9,0-1.2,0-1.2-0.4c-2.7-2.6-3.7-15.6-3.8-16.2l-13.7-5.8l0.6-0.4c0.5-0.3,1-1.4,0.7-2.5    l0.4-0.5c0.3,0,1.6,0.5,5.1,1.8c3.6,1.3,8.6,3.2,9.6,3.2c2.3-0.9,12.6-9.6,12.7-9.7l0.5-0.4l0.1,0.7c0.2,1.8,0.7,3,1.3,3.3    l0.5,0.3l-0.5,0.4c-2,1.6-3.9,3.2-5.8,4.8c-2,1.6-3.9,3.3-6,4.9c0.2,1,0.2,2.4,0.2,3.8c0,4,0,8,1.9,12.3l0.2,0.5L255.5,267.9    L255.5,267.9z M238.3,245.3L251,251c0.2,0.4,1.2,13.6,3.9,16.2c-0.1-0.1,0.2-0.1,0.6-0.1l1.8,0c-1.8-4.2-1.7-8.2-1.7-12.1    c0-1.4,0-2.7-0.1-4c2.2-2,4.1-3.6,6.1-5.2c1.8-1.5,3.5-3,5.4-4.5c-0.6-0.6-1-1.8-1.1-2.9c-2.2,1.8-10.3,8.6-12.6,9.4    c-1.2,0-5-1.4-9.9-3.3c-1.8-0.7-3.6-1.4-4.4-1.6C239,243.9,238.7,244.8,238.3,245.3L238.3,245.3z"/></g>
    <g><path class="st2" d="M226.1,279.4l-0.7-0.4c0.5-0.6,1.3-1.6,1.7-2.2c0.1-0.2,0.3-0.5,0.5-0.7l0.4-0.6c0.5-0.7,0.8-1.1,0.9-1.4    l0.3,0.2l0.1-0.7c6.4-8.4,13.7-13.4,18.7-16l0.8-0.4c1.3-0.7,1.9-1,2.3-1.2l0.2,0.3l-0.3,0.2c0.3,0.2-1,0.9-1.9,1.4l-0.8,0.4    c-4.9,2.6-12.1,7.5-18.4,15.8l-0.4,0.5c-0.1,0.2-0.4,0.7-0.7,1.1l-0.6,0.9c-0.2,0.2-0.4,0.5-0.5,0.7c-0.4,0.5-1.1,1.5-1.6,2    l0.1,0.1l-0.1-0.1C226.1,279.3,226,279.3,226.1,279.4L226.1,279.4L226.1,279.4z"/></g>
    <g><path class="st2" d="M291.7,261.2c-0.8-0.2-2.1-0.4-2.7-0.5c-0.3,0-0.6-0.1-0.9-0.1c-0.3,0-0.5-0.1-0.8-0.1    c-0.9-0.1-1.4-0.2-1.7-0.2l0-0.4l-0.6,0.3c-10.4-1.9-18.2-6.1-22.8-9.3l-0.7-0.5c-1.2-0.8-1.8-1.3-2.1-1.5l0.2-0.3l0.3,0.2    c0.1-0.3,1.2,0.5,2,1l0.7,0.5c4.6,3.2,12.2,7.3,22.5,9.2l0.6,0.1c0.2,0,0.8,0,1.3,0.1c0.6,0.1,0.9,0.1,1.2,0.2    c0.3,0,0.5,0.1,0.8,0.1c0.6,0.1,1.8,0.3,2.5,0.5l0-0.1l0,0.1c0,0,0,0,0.1,0l0.1-0.1L291.7,261.2L291.7,261.2z"/></g></g></svg>
