<?xml version="1.0" ?>
<svg id="Layer_1" style="enable-background:new 0 0 512 512;" version="1.1" viewBox="0 0 512 512" xml:space="preserve"
     xmlns="http://www.w3.org/2000/svg"><style type="text/css">
	.st0 {
    fill: #3E8B11;
  }

  .st1 {
    fill: #DF7A21;
  }

  .st2 {
    fill: #CB0423;
  }

  .st3 {
    fill: #FFFFFF;
  }
</style>
  <g><rect class="st0" height="298.7" width="512" y="106.7"/>
    <rect class="st1" height="176" width="60.1" x="451.9" y="229.3"/>
    <rect height="176.1" width="60" x="391.9" y="229.2"/>
    <rect class="st2" height="176" width="61.3" x="330.6" y="229.3"/>
    <path class="st1"
          d="M471.7,150.4c0,0,22.6-9.7,24.8-11.7c1,1.2-9.1,13.3-28.6,17.8c17.7-4.2,32.9-17.3,36-16.9   c0.9,0.2,0.7,12.8-39.9,23.8c28.1-7.4,44.4-20.9,44.2-19.4c0.2,0.3-2.8,10.7-27.4,18.7c6.9-1.6,25.5-12.9,25.3-10.8   c0.6,0.9-18,24.8-51.7,17c26.9,7,44.3-9.9,46.8-9.6c0.5,0.1-5,14.8-38.8,15.6c16.2-1.7,11.6-0.1,11.6-0.1s-9.6,7.5-21.1,2.4   c9.1,2.5,10.1,2.6,10.3,3.4c-0.6,1-8.1,2.5-15.2-1.4c5.8,2.4,11,2.8,11.1,3.7c-0.1,0.3-3.8,2.4-7.1,0.9   c-3.3-1.5-33.6-20.1-33.6-20.1l51.6-14.2L471.7,150.4z"/>
    <g><path d="M454.4,184.9c-1,0-1.9-0.2-2.7-0.6c-3.3-1.5-32.4-19.4-33.6-20.2c-0.2-0.1-0.2-0.3-0.2-0.4c0-0.2,0.2-0.3,0.3-0.4    l51.6-14.2l2.2,0.7c7.5-3.3,22.7-10,24.4-11.6c0.1-0.1,0.2-0.1,0.3-0.1c0.1,0,0.2,0.1,0.3,0.2c0.1,0.1,0.2,0.6,0.1,0.8    c-0.2,1.2-2.3,3.9-6,6.9c1.7-1,3.3-2,4.8-2.9c4-2.4,6.6-4.1,8-4.1c0.2,0,0.7,0.6,0.8,0.8c0.2,1.5-1,4.9-6,8.9    c2.5-1.4,4.5-2.6,6-3.5c2.4-1.4,3.1-1.9,3.6-1.9c0.1,0.1,0.5,0.5,0.5,0.6c-0.3,1.6-2.1,4.8-6.5,8.5c1.8-0.8,3-1.3,3.7-1.3    c0.1,0,0.5,0.1,0.6,0.2c0,0,0.2,0.7,0.2,0.7c-0.2,0.8-2.4,3.8-6.3,7c0.4-0.2,0.7-0.2,0.9-0.2c0.2,0,0.5,0.3,0.5,0.5    c-0.1,1.7-5.4,11.5-26.7,14.9c0,0,0,0.1,0,0.1c0.1,0.4-0.2,0.7-0.9,0.9c-0.1,0.1-4.9,3.8-11.9,4.2c0.9,0.3,1.2,0.6,1.3,1.1    c-0.5,1-2.4,1.5-4.8,1.6c0.4,0.2,0.6,0.4,0.6,0.7C459.1,183.8,456.7,184.9,454.4,184.9L454.4,184.9z M419.3,164    c4.9,3,29.8,18.3,32.7,19.6c2.5,1.2,6.3-0.5,6.5-0.8c-0.3,0.1-1.7-0.3-3.1-0.6c-2.9-0.3-5.5-1.2-7.9-2.5c-0.2-0.1-0.3-0.4-0.2-0.6    c0.1-0.2,0.3-0.3,0.6-0.2c2.9,1.2,5.7,1.9,7.5,2.4c3.9,0.4,6.9-0.5,7.2-0.8l0,0c-0.1,0-0.8-0.3-4-1.1c-2-0.2-4.1-0.8-6.1-1.7    c-0.2-0.1-0.3-0.3-0.2-0.5c0.1-0.2,0.3-0.3,0.5-0.3l6,1.6c0.7,0.1,1.4,0.1,2.1,0.1c6.6,0,11.6-3.3,12.4-4c-0.2,0-0.4,0-0.7,0    c-3.2,0.4-6.7,0.7-10.4,0.8c-0.2-0.1-0.4-0.2-0.4-0.4c0-0.2,0.2-0.4,0.4-0.5c4.9-0.5,8.4-0.8,10.4-0.8c22.4-2.9,28-12.9,28.1-14.4    c-0.1,0.3-1.5,1.2-3.1,2.1c-1.7,1-3.8,2.3-6.4,3.6c-3.3,1.7-6.8,3.1-10.4,4.1c-8.7,2.4-17.7,2.5-26.6,0.2    c-0.2-0.1-0.4-0.3-0.3-0.5c0.1-0.2,0.3-0.4,0.5-0.3c9.1,2.1,17.9,2,26.2-0.1c3.4-1,6.8-2.3,10.2-4c9.8-5.1,14.6-11.7,14.8-12.4    c-1,0.1-5.3,2.3-7.8,3.5c-3.5,2.2-7.8,4.3-12.6,6.1c-1.7,0.7-3.1,1.2-4.3,1.5c-0.2,0-0.4-0.1-0.5-0.3c-0.1-0.2,0.1-0.5,0.3-0.5    c1.5-0.5,2.9-1,4.2-1.5c3.2-1.3,7-3.3,10.5-5l2-1c8.2-5.1,10.2-9.8,10.3-10.7c-0.1,0.3-1.4,1.1-2.8,2c-2.9,1.8-7.7,4.7-14.1,7.8    c-5.5,2.9-12.4,5.7-20.7,8.2c-2,0.6-4,1.2-6.1,1.7l0,0l0,0c0,0,0,0,0,0c-0.2,0.1-0.5-0.1-0.5-0.3c-0.1-0.2,0.1-0.5,0.3-0.5    c2.1-0.6,4.2-1.2,6.1-1.7c7-2.2,13.9-4.9,20.6-8.2c12.7-6.8,13.5-12.6,13.2-13.2c-1,0.1-3.8,1.8-7.4,4c-3.8,2.3-8.5,5.2-14,7.8    c-4.4,2.3-9.2,4-14.2,5.2c-0.2,0-0.5-0.1-0.5-0.3c-0.1-0.2,0.1-0.5,0.3-0.5l0,0l0,0c0,0,0,0,0,0c4.4-1,9-2.7,14-5.1    c8.4-4.4,12.9-9.4,14-11.3c-4.8,2.9-23.1,10.7-24,11.1l-2.2-0.7L419.3,164L419.3,164z"/></g>
    <path class="st1"
          d="M411.1,200.8c-4.5,0-4.7,4-4.7,4s-0.4,0.3-0.1,2.2c0.7-1.3,1.1-1.7,1.1-1.7c0.5,0.1,2.6,0.7,5.9-1.9   c-3,3.1-1.2,4.3-1.2,4.3s-0.7,2.5,1.6,3c-0.7-1-0.3-1.9-0.3-1.9s3.2-0.3,3-4.2c0.1,3.5,2,4.4,2,4.4s0,1.9,2.1,2.1   c-1.1-1-0.9-2.5-0.9-2.5s2.7-2,0.4-5.3c1.4-0.8,2.5-3,2.5-3s-1.9-0.8-2.7-1.5c-0.4-0.9,0-5.7,0-5.7l-1.1-6.2l-3.2,9.7   C415.5,195.2,415.6,200.8,411.1,200.8L411.1,200.8z"/>
    <g><path d="M420.5,211.5C420.5,211.5,420.5,211.5,420.5,211.5c-1.9-0.2-2.5-1.7-2.5-2.5c-0.2,0-1-0.4-1.6-2c-0.8,1.7-2.3,2.1-2.8,2.2    c0.1,0.1,0,0.6,0.4,1.2c0.1,0.1,0.1,0.3,0,0.5c-0.1,0.1-0.3,0.2-0.5,0.2c-0.8-0.2-1.3-0.5-1.7-1.1c-0.5-0.8-0.4-1.8-0.3-2.2    c-0.1,0-0.4-0.4-0.5-1c-0.1-0.5,0.1-1.1,0.4-1.7c-1.5,0.8-3.3,0.8-4,0.7c0,0.1-0.4,0.6-0.9,1.5c-0.1,0.2-0.3,0.2-0.5,0.2    c-0.2,0-0.3-0.2-0.3-0.4c-0.2-1.9,0.1-2.4,0.3-2.6c-0.1,0,0.2-4.1,4.9-4.1c3.1,0,3.8-2.9,3.9-3.7c0,0,0-0.1,0-0.1    c0-0.1,0-0.2,0.1-0.3l3.1-9.5c0.1-0.2,0.2-0.3,0.4-0.3c0.2,0,0.4,0.2,0.4,0.3l1.1,6.2c-0.1,2-0.2,5,0,5.6c0.7,0.5,2.5,1.2,2.5,1.2    c0.1,0,0.2,0.1,0.2,0.3c0,0.1,0,0.2,0,0.3c0,0.1-1,2-2.3,2.9c1.9,3.2-0.4,5.2-0.7,5.5c0.1,0,0,1.2,0.9,1.9    c0.1,0.1,0.2,0.3,0.1,0.5C420.8,211.4,420.7,211.5,420.5,211.5L420.5,211.5z M416.4,204.2c0.2,0,0.4,0.1,0.4,0.3    c0.2,3.2,1.7,4,1.8,4c0.2,0.4,0.3,1.1,0.8,1.6c-0.3-0.9-0.2-1.7-0.2-1.7c0.3-0.3,2.5-2,0.5-5c-0.1-0.1-0.1-0.2-0.1-0.3    c0-0.1,0.1-0.2,0.2-0.3c0.9-0.5,1.7-1.8,2.1-2.4c-0.6-0.3-1.7-0.8-2.4-1.3c-0.6-1.1-0.3-5.2-0.2-6l-0.8-4.4l-2.6,8l0,0    c0,0-0.4,4.6-4.8,4.6c-4.1,0-4.2,3.5-4.2,3.6c-0.1,0.2-0.2,0.4-0.2,0.8c0.3-0.4,0.4-0.6,0.4-0.6c0.7-0.1,1,0,1.4,0    c1.4,0,2.9-0.6,4.5-1.9c0.2-0.2,0.4-0.1,0.6,0c0.2,0.2,0.2,0.4,0,0.6c-1.4,1.5-1.7,2.4-1.6,3c0,0.5,0.3,0.7,0.3,0.7    c0.2,0.5-0.1,1.5,0.3,2.2c0.1,0.1,0.1,0.2,0.2,0.3c-0.1-0.7,0.1-1.2,0.1-1.2c0.5-0.3,3.1-0.6,3-3.9    C415.9,204.5,416.1,204.2,416.4,204.2C416.4,204.2,416.4,204.2,416.4,204.2L416.4,204.2z"/></g>
    <path class="st1"
          d="M433.5,186.8c0.1,0.1,3.4,3.8,6.6,3.6c1.2-1-2.5-3.2-2.5-3.7c1.3,1.2,6.8,5.9,10.3,4.2c1.4-2-2.5-1.7-6.8-7.1   c3,2,10.5,6.4,13.9,4.7c1.5-1.6-7.8-6.6-10.8-10.5l-8-4.1l-10.9,8.9L433.5,186.8z"/>
    <g><path d="M446.2,191.7c-1.8,0-3.8-0.9-5.4-2c0,0.1,0,0.2,0,0.2c0,0.1-0.3,0.7-0.4,0.8c-0.1,0-0.1,0-0.2,0c-3.4,0-6.2-2.7-6.9-3.6    l-8.1-3.9c-0.1-0.1-0.2-0.2-0.2-0.3c0-0.1,0-0.3,0.2-0.4l10.9-8.9l8.4,4c1.4,1.7,3.9,3.6,6.1,5.3c3.1,2.4,5,3.9,5.1,5    c0,0.1-0.2,0.7-0.3,0.8c-3.3,1.7-8.3-0.9-11.7-2.9c1.2,1.1,2.3,1.8,3.2,2.3c1,0.6,1.7,1.1,1.8,1.7c0.1,0.4,0,0.8-0.3,1.2    C447.5,191.6,446.8,191.7,446.2,191.7L446.2,191.7z M437.6,186.3c0.1,0,0.2,0,0.3,0.1c0.9,0.9,6.7,5.6,9.8,4.1    c0-0.7-0.6-1.1-1.4-1.6c-1.4-0.9-3.4-2.2-5.5-4.9c-0.1-0.2-0.1-0.4,0-0.6c0.2-0.2,0.4-0.2,0.6-0.1c1.5,1,10.2,6.2,13.5,4.7    c-0.2-0.9-2.7-2.8-4.9-4.5c-2.2-1.7-4.8-3.6-6.1-5.3l-7.8-4l-9.9,8.4l7.6,3.7c1.7,1.8,4.1,3.5,6.1,3.5c0.1-0.5-1-1.5-1.6-2    c-0.7-0.6-1-0.9-1-1.3c0-0.2,0.1-0.3,0.3-0.4C437.5,186.3,437.5,186.3,437.6,186.3L437.6,186.3z"/></g>
    <path class="st1"
          d="M421.2,156.6c0,0,3.7-2.2,18.4-1.1c1.6,0.2,10.1-2.9,12.7-3.8c4.3-0.8,17.9-3.8,21.6-6.6c2.6-0.3-0.7,4.8-4,6   c-3.5,1.6-16.1,6-20.6,5.4c5.4,0.1,2.4,4.5-6.6,2.4c4.3,2.4,2.7,2.8,2.7,2.8s-7.6,0.4-9.6-1.3c5.1,1.9,3,2.6,3,2.6   s-5.2,0.5-7.6-0.6c3.7,1.1,1.8,1.8,1.8,1.8s-3,0.5-5.5-0.4C425.2,162.8,421.4,156.6,421.2,156.6L421.2,156.6z"/>
    <g><path d="M431.2,164.7c-1.4,0-2.6-0.2-3.6-0.6c-2-0.7-4.6-4.4-6-6.4c-0.3-0.5-0.5-0.8-0.6-0.9c-0.2,0-0.2-0.1-0.3-0.3    c-0.1-0.2,0.2-0.3,0.3-0.4c0.1-0.1,3.9-2.3,18.7-1.1c0,0,0,0,0,0c1.7,0,7.6-2.1,10.8-3.2l1.8-0.6c5.6-1,18.2-4,21.5-6.5    c1.1-0.1,1.5,0.2,1.6,0.8c0.3,1.5-2.5,5-5.2,6c-3.1,1.4-12.4,4.7-18,5.3c0.3,0.3,0.4,0.7,0.3,0.8c-0.1,1.3-3.1,2.6-7.5,2    c1.2,0.9,1.3,1.4,1.3,1.7c0,0.2-0.4,0.6-0.6,0.7c-0.2,0-3.3,0.2-6-0.2c0.1,0.2,0.2,0.4,0.2,0.6c0,0.2-0.6,0.8-0.7,0.8    c-0.1,0-3.1,0.2-5,0c0,0.1,0,0.2,0,0.3c0,0.5-0.4,0.8-0.8,0.9C433.3,164.6,432.4,164.7,431.2,164.7L431.2,164.7z M421.9,156.7    c0.1,0.1,0.2,0.3,0.4,0.5c1.1,1.6,3.8,5.4,5.5,6.1c0.9,0.3,2.1,0.5,3.4,0.5c1.1,0,1.9-0.1,1.9-0.1c0.1,0,0-0.3-0.9-0.6    c-0.3-0.1-0.7-0.2-1-0.3c-0.2-0.1-0.3-0.3-0.2-0.5c0.1-0.2,0.3-0.3,0.5-0.3c0.4,0.1,0.7,0.2,1,0.3c0.9,0.2,2.2,0.3,3.7,0.3    c1.5,0,2.7-0.1,2.7-0.1c0,0,0-0.3-1.2-0.9c-0.9-0.2-1.6-0.5-2-0.9c-0.2-0.1-0.2-0.4-0.1-0.5c0.1-0.2,0.3-0.3,0.5-0.2    c0.9,0.3,1.5,0.6,2,0.9c2.6,0.6,6.9,0.4,7.3,0.4c-0.1-0.1-0.4-0.6-2.8-2c-0.2-0.1-0.3-0.3-0.2-0.5c0.1-0.2,0.3-0.3,0.5-0.3    c1.6,0.4,3.1,0.6,4.4,0.6c3,0,4.3-0.9,4.3-1.4c0-0.2-0.4-0.5-1.5-0.7c-0.3,0-0.6,0-0.8-0.1c-0.2,0-0.4-0.2-0.4-0.5    c0-0.2,0.2-0.4,0.4-0.4h0c0.3,0,0.6,0,0.9,0.1c5.1,0,16.5-4,19.6-5.4c2.5-0.9,4.8-4.1,4.7-5c-4,2.6-17.6,5.6-22,6.4l-1.7,0.6    c-4.7,1.6-9.4,3.2-10.9,3.2c-3.1-0.2-5.6-0.3-7.7-0.3C425.9,155.6,423,156.4,421.9,156.7L421.9,156.7z"/></g>
    <path class="st1"
          d="M427.2,188.9l0.5,9.7c0,0-0.3,0.5-0.5,0.8c-0.2,0.3-6.9-1-6,4c0,2.1,0,2.6,1.5,3.8c-0.4-1.4-0.2-2.3-0.2-2.3   s1.9,1.1,3.7-2c-1.3,3-0.4,4.1-0.1,4.2c0.3,0.5-0.5,3,2,3c-1-0.9-0.5-2.2-0.5-2.2s2.6-0.4,1.7-5.2c1-0.9,1.3,0,1.3,0   s0.3,2.8,2.6,2.2c1,0.6-0.2,2.1-0.2,2.1s1.7,0,2.2-1.4c0.5-1.4,1.1-4-1.7-5c-0.3-1,1.1-1.1,1.1-1.1s1.7,0.6,2.2,1.5   c0.5,0.9,0.3-2.3-1.8-2.6c-2.7-0.1-2.8-0.6-2.8-0.8c0-0.1-0.5-7.1-0.7-9.1L427.2,188.9z"/>
    <g><path d="M427.9,210.6c-2.2,0-2.3-1.8-2.3-2.7c0,0-0.4-0.9-0.4-0.9c-0.2-0.3-0.3-1-0.2-2.1c-0.9,0.7-1.8,0.8-2.3,0.7    c0,0.4,0.1,0.9,0.2,1.6c0,0.2,0,0.4-0.2,0.5c-0.2,0.1-0.4,0.1-0.5,0c-1.5-1.3-1.6-2-1.6-4.1c-0.2-1.2,0-2.2,0.6-3    c1.1-1.3,3.1-1.4,4.5-1.4l0.9,0c0.3-0.2,0.6-0.6,0.6-0.6l-0.6-9.5l4.7-0.8c0.7,2.3,1.1,9.2,1.1,9.5c0,0,0.4,0.3,2.4,0.3    c1.9,0.3,2.5,2.3,2.5,3.1c0,0.4-0.8,0.5-1,0.2c-0.3-0.6-1.6-1.1-2-1.3c-0.1,0-0.4,0.1-0.5,0.3c1.3,0.6,2.9,2,1.7,5.5    c-0.6,1.6-2.3,1.7-2.5,1.7c-0.2,0-0.3-0.1-0.4-0.2c-0.1-0.1-0.1-0.3,0-0.5c0.2-0.2,0.6-0.9,0.5-1.2c-2.3-0.1-2.9-1.9-3-2.8    c-0.1,1.9-0.3,3.5-1,4.5c-0.5,0.7-1.2,1-1.4,1.1c0.1,0.1,0,0.9,0.6,1.5c0.1,0.1,0.2,0.3,0.1,0.5    C428.3,210.5,428.2,210.6,427.9,210.6L427.9,210.6L427.9,210.6z M426.1,202.5c0.1,0,0.1,0,0.2,0c0.2,0.1,0.3,0.3,0.2,0.5    c-1,2.5-0.5,3.5-0.3,3.6c0.3,0.4,0.3,0.7,0.4,1.1c0,0.8,0.1,1.4,0.6,1.7c-0.3-0.9,0-1.7,0-1.8c0.4-0.3,0.9-0.4,1.3-1    c0.6-0.8,0.7-2.2,0.3-3.9c1.3-1.9,2-0.7,2.2-0.3c0,0.2,0.3,2.1,1.6,2.1c0.1,0,0.7-0.1,0.8,0c0.3,0.2,0.5,0.5,0.6,0.8    c0.1,0.4,0,0.8-0.2,1.1c0.4-0.1,0.7-0.4,0.9-0.9c0.8-2.4,0.4-3.8-1.4-4.4c-0.4-0.7-0.3-1.1-0.2-1.3c0.4-0.6,1.3-0.6,1.4-0.6    c0.2,0.1,1.1,0.3,1.8,0.8c-0.1-0.1-0.1-0.2-0.2-0.4c-0.3-0.4-0.7-0.7-1.2-0.8c-0.8,0-3.2-0.1-3.2-1.2c0-0.2-0.5-7.1-0.7-9    l-3.8,0.7l0.9,9.3c-0.1,0.2-0.4,0.8-0.6,1.1c-0.1,0.1-0.6,0.2-0.7,0.2l-0.9,0c-0.7,0-2.9,0-3.8,1.1c-0.5,0.5-0.6,1.4-0.4,2.4    c0,1.4,0,2,0.4,2.6c-0.1-0.6,0-1.1,0-1.1c0-0.1,0.1-0.3,0.2-0.3c0.1-0.1,0.3-0.1,0.4,0c0,0,1.5,0.8,3.1-1.8    C425.8,202.6,425.9,202.5,426.1,202.5L426.1,202.5z"/></g>
    <path class="st1"
          d="M436.4,197.2c0-0.4-4.5-6.6-3.4-7.4c1.2,0.2,3.1,3,4.6,2.1c-0.5-1.1-1.8-0.5-3.4-3.3   c-1.6-3.2-1.8-7.9-7.3-13.1c3.5,5.5,11.6,8.7,11.9,7.1c0.3-1.6-7.1-7.6-6.7-9.1c1.5,3,8.9,9.7,14.4,9.1c0.4-1.3-4.5-3.9-5.8-6.3   c-3.5-2.4-12.9-10.5-13.1-12.3c-3.4-5-5.5-6.5-6.5-7.1c-0.4-0.4-0.5-0.9-0.6-1.2c-2.1-5,0.7-6.6,2.3-6.9c1.4-0.2,1.7,0,2.7-0.4   c-1.2-0.4-2.3-0.9-3.5-1.3c1.5,1.1,5.3,0.1,4.5,3.3c1.7-0.6,5.3-4.9-4.1-5.9c-3-3.5-15.5-5.5-18.6,9.7c0.2,0.2,0.4,0.4,1.2,1   c-3.9-1.9-14.6-3.4-18.4-4c-10.4-3-21.1-10.2-22.1-9.3c-1.4,0.6,6.3,7.7,5.9,7.9c-6.6-3.9-12.7-6.6-18.3-9.1   c-4-1.5-7.9-4.9-8.4-4.3c-1.5,3,6.3,10.6,7.8,11.5c1.5,0.9,12.9,6.2,12.7,6.2c-17.2-7.8-20.1-9.2-20.9-10.1c-1.5-0.3-5.2-5.3-6.2-5   c-0.6,0.6,0.6,8.4,8.8,12c1.3,1,17.6,6.8,17.4,7.3c0,0.1-18.6-7.7-19.3-7.9c-3.6-1.4-8-6.3-8.8-5.8c-0.8,0.5,2,5.8,5.6,7.5   c1.9,0.8,9.2,4.4,15.7,6.7c0.4,0.1-11.8-4.6-17.6-7.1c-2.7-1.5-3.9-3.3-4.3-2.9c-0.6,0.4,1,8.3,19.8,12.7c0.5,0.2,6.6-1.5,6.3-1.2   c-0.1,0.1-6.1,1.4-6.7,1.3c-0.5-0.1-3.8,0.4-3.9,0.6c-0.2,0.5,1.2,3.4,10.9,2.8c1.2-0.1,8-2.5,7.4-1.9c-0.3,0.3-9.2,3.2-9.9,3.2   c-0.6,0.1-3.7,0.4-3.8,0.7c-0.1,0.4,2.3,2.5,7.5,2.8c4.6,0.2,13.4-2.8,13.2-2.6c-0.2,0.2-8.5,3.1-8.7,3.2c-0.3,0.2-3.3,0.3-3.4,0.6   c-0.2,0.6,4.4,4.9,18.1,0.3c-1.4,1.9-8,3.1-8,3.5c0,0.2,1.5,1.7,3.8,2.2c1.2,0.3,2.7,0.2,4.2,0c2.6-0.5,5.4-1.6,8.8-4.8   c0.4,1-8.7,5.6-8.3,6.1c2,1.8,8.6-0.2,9-0.5c0.4-0.2,12.7-7.1,12.6-7.9c0.2,1-15.8,9.7-15.6,10.1c1,1.6,6.5-0.1,6.7-0.2   c0.3-0.1,7-3.8,7.2-3.9c0.2-0.1-7.9,4.7-7.2,5.4c-0.3,3.1,12.6-2.2,13.6-2.8c0.5-0.3-6.2,3-6.2,4.5c2.2,3.7,9.1,2.5,10.2,1.7   c0.5-0.4-0.6,2.7-0.3,2.4c0.1-0.1,1.5-1.7,2-2.9c-0.2,1-0.9,2.6-1.4,4.5c-0.4,1.9-0.6,3.9-1.2,6.2c-0.1,1,4.3-1.9,3.6-8.8   c0.4,3.6-1.4,10.3-0.9,10.6c0.9,0.7,3.5-3.3,3.8-6.1c0.8,1.4,2.4,4.2,3.7,4.9c-0.2-2.1,0-2-0.6-4c0.4-2.7,0.4-6.5,0.5-10.7   c3.7,7.2,5.2,10.2,4.2,15.6c1.1,0.5,2.9-3.8,2.7-6C430.2,196.5,436.3,197.4,436.4,197.2L436.4,197.2z"/>
    <g><path d="M436.3,197.6c-0.9,0-5.5-1.1-7.4-5.5c-0.3,1.6-1.1,3.4-1.8,4.2c-0.3,0.3-0.6,0.5-0.9,0.5c-0.2-0.1-0.5-0.3-0.5-0.4    c0.9-4.9-0.2-7.7-3.5-14.2c-0.1,3.7-0.1,7-0.5,9.4c0.5,1.4,0.5,1.8,0.5,2.8l0.1,1.2c-1.6-0.3-3-2.3-3.9-3.9    c-0.6,2.4-2.4,5.5-3.7,5.5c-0.8-0.4-0.7-0.9-0.3-3.6c0-0.2,0.1-0.4,0.1-0.6c-0.9,1.7-2.1,2.5-2.6,2.5c-0.1-0.1-0.5-0.5-0.5-0.6    c0.3-1.3,0.5-2.5,0.7-3.6c0.1-0.9,0.3-1.8,0.5-2.6c0.2-0.7,0.4-1.4,0.6-2.1c-0.4,0.5-0.7,0.8-0.8,0.9c-0.6-0.3-0.6-0.5-0.3-1.5    c0.1-0.4,0.3-1,0.2-1.2c-0.2,0.6-2,1.1-4.1,1.1c-1.7,0-4.8-0.3-6.2-2.7c0-0.7,0.8-1.6,1.9-2.4c-3.6,1.3-8,2.5-9,1.3    c-0.1-0.2-0.3-0.4-0.3-0.9c0-0.4,0.6-1.1,1.5-1.8l-1,0.5c-0.3,0.2-6.2,1.7-7.2,0.1c-0.1-0.3-0.2-0.4,1.3-1.3    c-2.5,0.6-6,0.9-7.3-0.2c0-0.5,0.2-0.9,1.4-1.6c-0.6,0.2-1.1,0.3-1.6,0.4c-1.5,0.2-3.2,0.3-4.3,0c-2.2-0.5-4.1-2-4.1-2.6    c0-0.3,0.3-0.4,1.9-0.9c1.2-0.4,3-0.9,4.4-1.5c-3.3,1-6.3,1.4-9,1.4c-4.6,0-6.8-1.5-7.3-2.3c-0.1-0.1-0.2-0.5-0.1-0.6    c0.1-0.3,0.4-0.3,2.2-0.5c0.5-0.1,1.3-0.1,1.4-0.2c0,0,0.4-0.2,1.9-0.7c-2,0.4-4.1,0.8-5.7,0.8c-5.1-0.3-7.7-1.8-8.3-2.7    c0-0.9,0.4-1.1,3.5-1.5c0.3,0,1.2-0.3,2.3-0.6c-7.8,0.3-9.8-1.5-10.4-2.3c-0.3-0.4-0.3-0.7-0.2-1c0.1-0.3,1.7-0.6,2.9-0.7    c-13.6-3.5-18.1-9-18.6-11.8c-0.1-0.5,0-0.9,0.2-1c0.7-0.1,1.1,0.2,1.7,0.8c0.7,0.6,1.7,1.4,3,2.2c0,0,0.1,0,0.1,0.1    c-2.5-1.9-4.4-5.1-4.5-6.5c0-0.1,0.2-0.7,0.3-0.7c1-0.1,1.8,0.6,3.5,2c0.7,0.6,1.4,1.2,2.2,1.8c-3-3-3.8-6.3-4-7.2    c-0.1-0.6-0.2-1.7,0.1-2c1-0.1,2,0.8,3.5,2.4c1.1,1.1,2.4,2.4,3,2.5c0.6,0.6,2.1,1.4,6.9,3.7c-2.6-2.3-8.2-8.3-6.9-11.1    c1-0.3,1.8,0.2,3.3,1.1c1.6,1,3.5,2.2,5.5,3c5.3,2.3,10.8,4.9,16.8,8.2c-0.2-0.2-0.5-0.5-0.7-0.7c-3.1-3.3-4.5-5-4.3-5.9    c0,0,0.7-0.5,0.8-0.5c0.9,0,3,1,6.1,2.6c4.3,2.2,10.1,5.1,15.9,6.8l1.5,0.2c4.2,0.6,11.6,1.8,15.6,3.2c2.1-11.5,9.1-12.6,12-12.6    c2.8,0,5.6,1,6.9,2.6c3.8,0.3,6,1.4,6.2,3.1c0.2,1.6-1.4,3-2.3,3.3c-0.3-1-0.3-1.5-0.5-1.8c-0.1-0.1-0.2-0.2-0.4-0.3    c0,0.1-0.1,0.1-0.1,0.1c-0.7,0.3-1.2,0.4-1.8,0.4c-0.3,0-0.6,0-1.1,0.1c-0.4,0.1-1.7,0.3-2.4,1.6c-0.7,1.2-0.6,2.8,0.3,4.8    c0.1,0.4,0.2,0.7,0.5,1.1c1.8,1,4.1,3.5,6.6,7.1c0.2,1.7,9.1,9.6,13,12.2c0.7,1.2,2.1,2.4,3.4,3.5c1.6,1.3,2.8,2.3,2.5,3.2    c-0.5,0.3-0.8,0.3-1,0.3c-2.9,0-6.1-1.7-8.8-3.7c1.4,1.6,2.2,2.7,2,3.4c-0.1,0.3-0.3,0.7-1.1,0.7c-1.4,0-4.2-1.1-6.9-3    c1.1,1.9,1.7,3.7,2.2,5.3c0.3,1,0.7,2,1.1,2.8c0.9,1.6,1.7,2,2.3,2.3c0.4,0.2,0.9,0.4,1.1,1c-0.4,0.6-0.7,0.7-1,0.7    c-0.9,0-1.8-0.8-2.7-1.4c-0.5-0.4-1-0.8-1.4-0.9c0,0.1,0.3,1.2,2.8,5.2c0.9,1.4,1,1.7,1,1.9L436.3,197.6L436.3,197.6z M428.7,190    c0.2,0,0.3,0.1,0.3,0.3c1.2,5,5.6,6.4,7,6.6c-0.3-0.2-0.6-0.7-0.9-1.1c-1.9-3.1-3.3-5.5-2.3-6.2c0.8,0,1.3,0.5,1.9,1    c0.7,0.6,1.5,1.3,2.2,1.3l0,0c0.2,0,0-0.1-0.4-0.3c-0.7-0.3-1.6-0.8-2.6-2.6c-0.4-0.9-0.8-1.9-1.1-2.9c-0.7-2-1.5-4.4-3.3-6.9    c-1.1-1-2.1-2.1-2.9-3.3c-0.1-0.1-0.1-0.3,0.1-0.5c0.1-0.1,0.3-0.1,0.5,0c1.1,1.1,2.1,2.2,2.9,3.3c3,2.7,6.6,4.1,8,4.1    c0.6-0.8-1.4-2.9-2.9-4.5c-2.2-2.4-3.6-3.9-3.3-4.7c0-0.1,0.2-0.2,0.3-0.3c0.1,0,0.3,0.1,0.3,0.2c1.5,3.1,8.9,9.5,14.1,8.9    c-0.2-0.2-1.5-1.3-2.6-2.2c-1.3-1.1-2.8-2.3-3.4-3.5c-2.9-1.9-12.9-10.3-13.1-12.5c-2.4-3.4-4.6-5.7-6.4-6.8    c-0.5-0.5-0.6-1-0.7-1.3c-1-2.3-1-4.1-0.3-5.5c0.8-1.5,2.4-1.8,2.9-1.9c0.5-0.1,0.8-0.1,1.1-0.1c0.2,0,0.4,0,0.6,0l-0.6-0.2    c-0.9-0.3-1.5-0.4-2-0.8c-0.1-0.1-0.2-0.3-0.1-0.4c0.1-0.1,0.3-0.2,0.4-0.2l2,0.6c1,0.2,2.1,0.4,2.6,1.2c0.3,0.5,0.4,1.1,0.1,1.9    c0.3-0.7,1.6-1.8,1.4-3c-0.2-1.3-2.2-2.2-5.8-2.6c-1.2-1.2-3.6-2.5-6.6-2.5c-2.8,0-9.4,1.2-11.6,11.9c0.2,0,0.5,0.2,1,0.6    c0.1,0.1,0.2,0.3,0.1,0.5c-0.1,0.1-0.3,0.2-0.4,0.1c-3.4-1.7-12.1-3-16.8-3.7l-1.5-0.2c-5.8-1.7-11.7-4.7-16-6.8    c-2.7-1.4-5-2.5-5.8-2.5c-0.2,0.6,2.8,3.9,4.1,5.2c1.8,1.9,1.9,2.1,1.9,2.4c-7.1-3.6-13.1-6.3-18.8-8.8c-2-0.8-4-2-5.6-3    c-1-0.6-2.1-1.3-2.4-1.3c-1.2,2.6,6.3,10,7.8,10.9c0.7,0.4,4.1,2,7.2,3.5c3.5,1.7,4.8,2.3,5.3,2.6c0,0,0.1,0,0.1,0l0,0    c0.2,0.2,0.2,0.2,0.2,0.3c-0.1,0-0.2-0.1-0.3-0.1l-0.3,0.4c-0.2-0.2-3-1.5-5.4-2.6c-1.1-0.5-2.3-1.1-3.3-1.6    c-10-4.3-11.5-5.2-12.2-5.9c-0.7-0.1-1.9-1.3-3.2-2.6c-1-1-2.3-2.3-2.7-2.3c0.1,0.1,0.1,1.3,0.7,3c0.8,2.1,2.9,6.1,8.1,8.3    c0.2,0.1,0.6,0.4,1.9,0.9l0.9,0.4c1.7,0.7,3.9,1.6,6.1,2.4c8.9,3.5,8.9,3.5,8.7,4c-0.1,0-0.3,0.1-0.5,0l-0.1,0.1    c0,0-0.1-0.1-0.2-0.1c-1.2-0.3-4.4-1.6-14.3-5.8l-0.9-0.4l0,0l0,0l0,0l0,0c0,0,0,0,0,0c-2.1-0.9-3.6-1.5-3.8-1.6    c-1.9-0.8-4.1-2.5-5.8-3.9c-1.1-0.9-2.4-1.9-2.7-1.9c-0.2,0.6,2.2,5.3,5.6,6.9l1.7,0.8c1.6,0.8,4,1.9,6.7,3l5.2,2    c0.9,0.4,1.5,0.6,1.9,0.8c0.1,0,0.2,0.1,0.3,0.1l0,0c0.3,0.2,0.3,0.2,0.2,0.4c-0.1,0-0.2,0-0.4-0.1l-0.1,0.3    c-0.1,0-0.9-0.4-2.2-0.9l-0.9-0.4c-1.5-0.5-2.8-1.1-4.1-1.6c-3.5-1.4-7.6-3-10.3-4.2c-1.4-0.8-2.4-1.6-3.1-2.2    c-0.4-0.3-0.8-0.7-0.9-0.7c0.1,0,0.1,0.6,0.6,1.6c1.1,2,5.1,7.1,19.1,10.4c0.7-0.1,1.3-0.2,2-0.3l2.2-0.5c1.4-0.3,1.9-0.4,2-0.4    c0,0.1,0.3,0.6,0.2,0.6c-0.2,0.2-4.3,1-4.3,1c-0.7,0.2-1.4,0.3-1.8,0.3c-0.4,0.1-0.6,0.1-0.8,0.1c-1,0-3.4,0.4-3.7,0.5    c1,1,3.2,2.6,10.7,2.1c0.6,0,2.5-0.6,4.1-1.1c1.9-0.6,3-0.9,3.3-0.9c0,0.1,0.4,0.6,0.3,0.7c-0.4,0.4-9.6,3.3-10.1,3.3    c-2.3,0.3-3.4,0.5-3.6,0.6c0.2,0.2,2.5,1.9,7.3,2.2c0,0,0,0,0,0c4.1,0,9.6-1.6,11.9-2.3c2-0.6,1.4-0.4,1.5-0.1    c0.1,0.1,0,0.3,0,0.4c-0.1,0.1-0.4,0.3-5.2,2c-1.8,0.6-3.4,1.2-3.6,1.3c-0.2,0.1-0.6,0.2-1.7,0.3c-0.6,0.1-1.6,0.2-1.8,0.3    c0.2,0.2,2.2,1.8,6.9,1.8c3.1,0,6.8-0.7,10.9-2.1c0.1,0,0.3,0,0.4,0.1c0.1,0.1,0.1,0.3,0,0.4c-1,1.4-4.3,2.3-6.5,3    c-0.7,0.2-1.4,0.4-1.6,0.5c0.2-0.1,1.5,1.2,3.6,1.6c1,0.2,2.6,0.2,4.1,0c2.4-0.5,5.1-1.4,8.7-4.7c0.9,0.9-0.4,1.8-4.7,4.4    c-1.3,0.8-2.9,1.8-3.1,2c0.4,0.1,1.3,0.3,2.5,0.3c2.6,0,5.8-1.1,6.1-1.2c3.4-1.9,12-6.9,12.5-7.7c0-0.2,0.1-0.3,0.3-0.3    c0.1-0.1,0.3,0.2,0.4,0.3c0.1,0.7-1.3,1.7-10.5,7.1c-2.4,1.4-4.9,2.9-5.2,3.2c-0.1,0,0.8,0.2,1.7,0.2c1.9,0,4.4-0.8,4.6-0.9    l1.6-0.9c2.1-1.1,5.4-2.9,5.5-3c0.2-0.1,0.4,0,0.5,0.1c0.1,0.2,0,0.4-0.1,0.5l0,0l0,0l0,0c-3.8,2.3-6.9,4.5-7,5.1    c0.2,0.6,0.5,0.7,1.2,0.7c2.5,0,7.8-1.9,10.8-3.2c1.2-0.6,1.3-0.6,1.3-0.6c0.2,0,0.3,0.1,0.3,0.3c0,0.2,0,0.3-0.2,0.4    c-0.2,0.1-0.6,0.3-1.2,0.6c-2.8,1.5-4.8,3-4.8,3.6c1.2,1.9,4,2.2,5.5,2.2c2,0,3.7-0.5,4.1-0.8c0.8,0.3,0.7,0.6,0.4,1.7    c0,0.1,0,0.2-0.1,0.3c0.3-0.6,1-1.6,1.3-2.3c0.1-0.2,0.2-0.2,0.4-0.2c0.2,0.1,0.3,0.2,0.2,0.4c-0.1,0.5-0.3,1.2-0.6,1.9    c-0.3,0.8-0.6,1.6-0.8,2.6c-0.2,0.8-0.3,1.6-0.5,2.5c-0.2,1.2-0.4,2.4-0.7,3.6c0.3-0.3,2.4-2.2,2.9-5.9c0.1-0.8,0.1-1.7,0.1-2.4v0    c0-0.2,0.1-0.5,0.2-0.6c0.1-0.1,0.3-0.1,0.3-0.1c0,0,0.1,0,0.1,0.1c0,0,0,0,0,0c0.1,1.4,0.1,2.2,0,3c-0.1,1.5-0.4,3.2-0.6,4.5    c-0.2,1.2-0.4,2.6-0.3,2.9c0.7-0.1,2.9-3.3,3.1-5.9c0-0.2,0.1-0.3,0.3-0.3c0.2,0,0.3,0,0.4,0.2c0.7,1.3,2.3,4.2,3.6,4.8l-0.6-0.9    c0-0.9-0.1-1.2-0.5-2.7c0.3-2.6,0.4-6,0.5-9.9l0-0.9c0-0.2,0.1-0.3,0.3-0.3c0.2,0,0.3,0,0.4,0.2c3.6,7,5.3,10.2,4.2,15.9l0.3-0.6    c0.9-0.9,1.9-3.7,1.8-5.4C428.4,190.2,428.5,190,428.7,190C428.7,190,428.7,190,428.7,190L428.7,190z"/></g>
    <path class="st1"
          d="M374.2,151.8c0,0-2.5,1.9-5.7,1.8c0.8,3.2,7.3,0.7,7.3,0.7s-3.2,3.5-5.4,4.1c1.4,1.1,7.1,0.7,8,0.2   c1-0.6,2.7-2.8,2.7-2.8s-5.9,6.8-6.7,6.7c-0.1,0.8,6.2,0.5,7.5-0.7c1.3-1.2,4.6-2.9,4.6-2.9s-8.6,6-9,6c3.2,0.9,9.7-1,13.8-3.6   c-6.1,4.1-6.7,4.8-9.8,6.2c2.8,0.6,4.2,2.5,13.5-1.6c5.4-2.5,8.4-7.2,8.4-7.2c-3.3,4.5-8.6,8.2-14.4,12c-0.3,0.7,6.2,3.4,14.6-5.3   L374.2,151.8z"/>
    <g><path d="M392,172c-1.5,0-2.5-0.4-2.9-0.6c-0.1-0.1-0.4-0.6-0.3-0.8c2.1-1.4,4.1-2.7,6.1-4.2c-7.7,3.3-10,2.5-12.2,1.8    c-0.4-0.1-0.8-0.3-1.3-0.4c-0.1,0-0.3-0.2-0.3-0.3c0-0.1,0.1-0.3,0.2-0.3c2.1-0.9,3-1.5,5.4-3.2c0.1-0.1,0.2-0.2,0.3-0.2    c-3.5,1.4-7.3,2.1-9.7,1.5c-0.2,0-0.3-0.2-0.3-0.4c0-0.2,0.2-0.3,0.3-0.3c0.2-0.1,1.2-0.7,2.5-1.6c-2.1,0.4-4.8,0.5-5.5,0.1    c-0.1-0.1-0.4-0.4-0.3-0.6c0.6-0.3,1.9-1.6,3.6-3.3c-2,0.4-6.1,0.5-7.4-0.5c1.5-0.8,3.4-2.5,4.5-3.6c-1.5,0.4-3.9,0.9-5.3,0.1    c-0.6-0.3-1-0.8-1.2-1.5c3.3-0.3,5.8-2.1,5.8-2.2c0.1-0.1,0.4-0.1,0.5,0.1c0.1,0.2,0.1,0.4-0.1,0.5c-0.1,0.1-2.8,2.1-5.9,1.9    c0.5,0,0.7,0.4,1.2,0.6c1.9,1,6-0.5,6.1-0.5c0.2,0,0.3,0,0.4,0.1c0.1,0.1,0.1,0.3,0,0.4c-0.1,0.2-3.3,3.6-5.6,4.2    c1.3,0.4,6.8,0.1,7.8-0.5c0.2-0.1,0.4-0.3,0.6-0.5c0.7-0.7,1.3-1.5,2-2.2c0.1-0.2,0.3-0.2,0.5,0c0.1,0.1,0.2,0.3,0.1,0.5    c-0.1,0.1-1,1.4-2,2.2c-2,2.2-4.2,4.5-5,4.6c1,0,6.1-0.3,7.2-1.3c1.3-1.2,4.5-2.9,4.6-3c0.2-0.1,0.4,0,0.5,0.1    c0.1,0.2,0.1,0.4-0.1,0.5c-4.8,3.4-7.1,4.9-8.2,5.5c3.1,0.3,8.7-1.3,12.6-3.7c0.2-0.1,0.4,0,0.5,0.1c0.1,0.2,0.1,0.4-0.1,0.5    c-1.9,1.2-3.2,2.2-4.3,2.9c-2,1.4-3,2.1-4.7,2.9c0.1,0,0.3,0.1,0.4,0.1c2.1,0.7,4.3,1.4,12-1.9c1.8-0.9,3.4-2,4.7-3.1    c1.4-1.3,2.6-2.6,3.6-4c0.1-0.2,0.3-0.2,0.5-0.1c0.2,0.1,0.2,0.3,0.1,0.5c-0.1,0.1-1.4,2.2-3.9,4.3c-3.1,2.9-6.8,5.4-10.5,7.8    c0.2-0.1,0.8,0.2,1.9,0.3c1.7,0.2,6.4-0.1,12.2-6.1c0.1-0.1,0.4-0.1,0.5,0c0.1,0.1,0.1,0.3,0,0.5C399,170.8,394.7,172,392,172    L392,172z"/></g>
    <path class="st1" d="M419.6,170.7c0,0,0.6,2.7,2.8,4.7c2.3,2,2.4,4,2.4,4L419.6,170.7z"/>
    <g><path d="M424.9,179.7c-0.2,0-0.3-0.1-0.3-0.3c0,0-0.2-1.9-2.3-3.8c-2.3-2.1-2.9-4.8-2.9-4.9c0-0.2,0.1-0.4,0.3-0.4    c0.2-0.1,0.4,0.1,0.4,0.3c0,0,0.6,2.6,2.7,4.5c2.3,2.1,2.5,4.2,2.5,4.2C425.2,179.5,425.1,179.7,424.9,179.7    C424.9,179.7,424.9,179.7,424.9,179.7L424.9,179.7z"/></g>
    <path class="st1" d="M418.5,153.4c0,0,0.8,2.4,3.1,3.9c2.4,1.5,5.9,6.3,6.2,7.2c0.3,1,1.6,8.4,1.5,9.2L418.5,153.4z"/>
    <g><path d="M429.3,174C429.3,174,429.3,174,429.3,174c-0.2,0-0.4-0.2-0.3-0.4c0.1-0.7-1.2-8-1.5-9.1c-0.3-0.8-3.8-5.5-6.1-7    c-2.4-1.6-3.2-4-3.2-4.1c-0.1-0.2,0-0.4,0.2-0.4c0.2-0.1,0.4,0,0.4,0.2c0,0,0.8,2.3,3,3.7c2.4,1.6,6.1,6.5,6.3,7.4    c0.2,0.9,1.7,8.5,1.5,9.4C429.7,173.9,429.5,174,429.3,174L429.3,174z"/></g>
    <path class="st1"
          d="M404.1,157.1c0.2,0.9-3.3,5.5,1.5,10.8c-4.4,5.3-4.4,6-4.4,6s2.4,1.4,6.8-2.4c7.2,8.8,4.8,12.8,4.8,12.8   L404.1,157.1z"/>
    <g><path d="M412.8,184.7c-0.1,0-0.1,0-0.2,0c-0.2-0.1-0.2-0.3-0.1-0.5c0,0,2.1-4-4.7-12.5c-4,3.9-6.6,2.5-6.7,2.5    c-0.2-0.8,1.4-3.1,4.3-6.5c-3.9-3.9-2.5-7.8-1.8-9.7c0.1-0.3,0.3-0.8,0.3-0.9c0-0.2,0.1-0.4,0.3-0.4c0.2,0,0.4,0.1,0.4,0.3    c0.1,0.3-0.1,0.6-0.3,1.2c-0.7,1.9-2,5.4,1.7,9.4c-3.5,4.6-4.1,5.9-4.3,6.2c0.1,0,0.2,0,0.5,0c0.9,0,2.9-0.2,5.7-2.6    c7.7,8.9,5.4,13.1,5.3,13.3C413,184.6,412.9,184.7,412.8,184.7L412.8,184.7z"/></g>
    <path class="st1"
          d="M412.2,178.1c0,0-0.7-0.9,0.5-4.5c1.1,1.3,2.2,1.6,2.8,2.1c0.5,0.5,5.9,1.3,6.3,4.9L412.2,178.1z"/>
    <g><path d="M421.8,181c-0.2,0-0.3-0.1-0.3-0.3c-0.2-2.5-3.3-3.6-5-4.2c-0.7-0.2-1-0.4-1.2-0.5c-0.2-0.2-0.4-0.3-0.7-0.5    c-0.6-0.3-1.3-0.8-2.1-1.6c-0.5,3.1,0,4.1,0,4.1c0.1,0.2,0,0.4-0.1,0.5c-0.2,0.1-0.4,0.1-0.5-0.1c-0.1-0.1-0.7-1.2,0.5-4.8    c1.2,0.6,1.9,1,2.5,1.3c0.3,0.2,0.6,0.4,0.9,0.6c0.1,0.1,0.5,0.2,0.9,0.4c1.8,0.6,5.2,1.8,5.4,4.8C422.1,180.8,422,181,421.8,181    C421.8,181,421.8,181,421.8,181L421.8,181z"/></g>
    <path class="st1" d="M418.6,145c0-0.3-1.1-2.6-5.2,0.3C415.6,145.4,417.8,146.7,418.6,145L418.6,145z"/>
    <g><path d="M417.1,146.2L417.1,146.2c-0.6,0-1.2-0.1-1.8-0.3c-0.6-0.1-1.2-0.3-1.9-0.3l-1-0.1l0.8-0.6c1.4-1,2.6-1.5,3.6-1.5    c1.4,0,2.1,1.1,2.1,1.5C418.5,145.8,417.9,146.2,417.1,146.2L417.1,146.2z M414.4,145.1c0.3,0.1,0.7,0.1,1,0.2    c0.6,0.1,1.2,0.3,1.7,0.3l0,0c0.6,0,1-0.2,1.2-0.7c0,0,0,0,0,0C418.1,144.8,416.8,143.6,414.4,145.1L414.4,145.1z"/></g>
    <path class="st1"
          d="M457.4,155.7c0.2,0.1,12.2,2.7,16.1,1.4c-5.1,6.8-15.2,2.2-15.2,2.2c5,1.5,5.2,1.4,6.8,2.8   c0.5,1.3-9.2,0.7-12.4-1.1c8.9,2.8,9.1,2.6,9.4,3.7c0.4,1.5-14.5-0.4-15.8-2.4c4,3.1,6.2,3.7,8.4,5.1c-2.7,1.2-7.7,2.4-16.8-4.1   c12.1,11,22.9,10.3,24.6,12.3c-4.2,6.2-20.4-3.7-27.9-8.7c-7.5-5,16.3,12,18.5,11.7c-1.1,1.7-9,0.2-9.5-0.6L457.4,155.7z"/>
    <g><path d="M450.2,179.7c0,0-0.1,0-0.1,0c-2.5,0-6.3-0.8-6.8-1.5l0.6-0.4c0.3,0.4,4.3,1.4,7.1,1.2c0.6,0,1-0.1,1.3-0.2    c-3.9-1.4-17.2-10.9-19.2-12.5c0,0,0,0-0.1,0v0c-0.1-0.1-0.2-0.2-0.2-0.2c0.3-0.6,0.3-0.6,2,0.5c6.9,4.6,23.4,14.7,27.4,8.8    c-0.4-0.1-1.8-0.5-3.7-1c-4.6-1.2-12.4-3.2-20.8-10.8c-0.1-0.1-0.2-0.3,0-0.5c0.1-0.1,0.3-0.2,0.5-0.1c8.8,6.3,13.6,5.3,16.5,4.1    c-0.8,0.1-1.5-0.2-2.3-0.6c-1.5-0.7-3.1-1.6-5.3-3.2c-0.4-0.2-0.8-0.5-0.9-0.7c-0.1-0.1-0.1-0.3,0.1-0.4c0.1-0.1,0.3-0.1,0.4,0    c0.3,0.2,0.6,0.4,0.8,0.6c1.5,0.7,5,1.5,8.8,2c3.7,0.4,5.5,0.3,5.7,0c-0.2-0.5-0.2-0.6-4.7-1.9l-0.5-0.2c-1.6-0.3-3.1-0.7-4.1-1.3    c-0.2-0.1-0.2-0.3-0.2-0.4c0.1-0.2,0.3-0.2,0.4-0.2l4,1.2c3.5,0.6,7.5,0.7,7.9,0.2c-0.9-0.7-1.3-0.9-2.7-1.3    c-2.3-0.4-3.9-1.2-4-1.2c-0.2-0.1-0.2-0.3-0.2-0.4c0.1-0.2,0.2-0.3,0.4-0.2l1.9,0.6c0.8,0.2,1.5,0.4,2,0.6    c3.1,0.6,7.4,0.7,10.3-2.5c-4.7,0.7-15-1.5-15.4-1.6l0.3-0.6c0.5,0.2,12.1,2.6,15.9,1.4c0.1-0.1,0.3,0,0.4,0.1    c0.1,0.1,0.1,0.3,0,0.4c-2.5,3.3-6.2,4-9.4,3.8c0.3,0.2,0.6,0.4,0.9,0.7c0.1,0.1,0.1,0.3,0.1,0.4c0,0.1-0.1,0.3-0.2,0.4    c-0.5,0.5-2.5,0.6-4.8,0.4c1.6,0.6,1.8,0.8,2,1.5c0,0.2-0.3,0.7-0.4,0.7c-1.3,0.6-8.2,0-12.5-1.2c1.1,0.7,2.1,1.2,3,1.7    c0.8,0.4,1.6,0.8,2.3,1.3c-2.5,1.6-6.4,2.6-12.8-0.8c6.7,4.9,12.7,6.4,16.5,7.4c2.1,0.5,3.5,0.9,4.1,1.6c-3,4.8-11.8,1.5-19.8-2.9    c4.6,3.1,9.4,6.1,10.1,5.9c0.1,0,0.3,0,0.3,0.2c0.1,0.1,0.1,0.3,0,0.4C452.9,179.4,451.9,179.7,450.2,179.7L450.2,179.7z"/></g>
    <path class="st1" d="M460.5,167.1c-1.4,0.2-5.6,0.2-6.2,0.1L460.5,167.1z"/>
    <g><path d="M456.4,167.6c-1,0-1.9,0-2.2-0.1c-0.2,0-0.3-0.2-0.3-0.4c0-0.2,0.2-0.3,0.4-0.3c0.6,0.1,4.7,0.1,6.1-0.1    c0.2,0,0.4,0.1,0.4,0.3c0,0.2-0.1,0.4-0.3,0.4C459.7,167.6,457.9,167.6,456.4,167.6L456.4,167.6z"/></g>
    <path class="st1"
          d="M370.7,150c0,0,9.1,4.8,12.9,4.5c-1,1-2.5,1.4-2.5,1.4c1,0.4,3.6,1.8,7.6,0.9c-1,1-2.2,2-2.2,2   s3.4,1.3,7.3-0.7c-1.2,1.5-1.9,2.5-1.9,2.5l2.7,0.2L370.7,150z"/>
    <g><path d="M394.7,161.1C394.7,161.1,394.7,161.1,394.7,161.1l-2.7-0.2c-0.2-0.4,0.1-1.1,0.8-2c-3.4,1.3-6.2,0.3-6.4,0.2    c-0.1-0.4,0.6-1.1,1.3-1.8c-3.2,0.4-5.4-0.6-6.4-1c-0.1-0.1-0.4-0.3-0.3-0.4c0-0.2,0-0.3,0.1-0.4c0,0,0.8-0.2,1.6-0.7    c-4.2-0.4-11.7-4.3-12.1-4.5c-0.2-0.1-0.2-0.3-0.1-0.5c0.1-0.2,0.3-0.2,0.5-0.1c0.1,0,9.1,4.9,12.7,4.4c0.1,0,0.3,0.1,0.3,0.2    c0.1,0.1,0,0.3-0.1,0.4c-0.6,0.5-1.3,0.9-1.8,1.1c1.5,0.6,3.7,1.2,6.6,0.5c0.2,0,0.3,0,0.4,0.2c0.1,0.1,0,0.3-0.1,0.4    c-0.8,0.8-1.7,1.6-2,1.9c0.3,0,0.9,0,1.7,0c1.3,0,3.1-0.2,5-1.2c0.1-0.1,0.3,0,0.4,0.1c0.1,0.1,0.1,0.3,0,0.4    c-1.2,1.4-1.8,2.5-1.8,2.5l2.4-0.3c0.2,0,0.3,0.2,0.3,0.4C395.1,160.9,394.9,161.1,394.7,161.1L394.7,161.1z"/></g>
    <path class="st3" d="M251,300.9c0.3,0,1-0.5,0.4-0.5C251.1,300.4,250.4,300.9,251,300.9L251,300.9z"/></g></svg>
