<?xml version="1.0" ?>
<svg id="Layer_1" style="enable-background:new 0 0 512 512;" version="1.1" viewBox="0 0 512 512" xml:space="preserve"
     xmlns="http://www.w3.org/2000/svg"><style type="text/css">
	.st0 {
    fill: #FFFFFF;
  }

  .st1 {
    fill-rule: evenodd;
    clip-rule: evenodd;
    fill: #F6D628;
  }

  .st2 {
    fill-rule: evenodd;
    clip-rule: evenodd;
    fill: #F3F52C;
  }

  .st3 {
    fill-rule: evenodd;
    clip-rule: evenodd;
    fill: #5BCDDB;
  }

  .st4 {
    fill-rule: evenodd;
    clip-rule: evenodd;
    fill: #3B8511;
  }

  .st5 {
    fill-rule: evenodd;
    clip-rule: evenodd;
    fill: #B30C40;
  }

  .st6 {
    fill-rule: evenodd;
    clip-rule: evenodd;
    fill: #1C2A7D;
  }

  .st7 {
    fill-rule: evenodd;
    clip-rule: evenodd;
    fill: #FFFFFF;
  }
</style>
  <g><rect class="st0" height="298.7" width="512" y="106.7"/>
    <path class="st1"
          d="M295.7,214.2c0-2.1-0.7-6.1-2.8-7.4c-2.8-1.5-2.8-2.4-3-4.3c-0.2-1.9,4.7-5.5,4.7-5.5s-4.5-2-6.1-1.8   c-1.7,0.2-4.9,0.6-5.4,1c-0.4,0.5-2.9-8-1.3-9.4c1.6-1.3,4.8,3.1,4.8,3.1s2.1-4.9-5.4-14.3c2.6-18.3-14.5-22.6-18.4-22.5   c-3.2-0.4-11.6,2.6-13,6.6c-4.3,1.5-4.5,5.1-4.5,5.1s-8.7,1.6-9.8,9.2c5.1-4.2,8.5,0.4,8.5,0.4s4.5,3.1,6.8,3.2   c2.3,0.1-2.2,7.8-3.6,9.2c-1.3,1.3-6.9,6.5-6.7,6.8c0.2,0.3,4.4,1.6,4.1,3.5c-0.2,1.9-12.7,7.7-12.1,9.2c3.2-1,5.8-0.2,5.8-0.2   c0.5,3.2-0.8,6.8-3,8H295.7z"/>
    <g><path d="M296.2,214.7h-62.6l1.5-0.8c1.9-1,3.1-4.4,2.8-7.4c-0.2,0.1-0.9-0.1-1.9-0.1c-1.1,0-2.2,0.2-3.3,0.5    c-0.2-0.3-0.3-0.5-0.3-0.8l0,0h0c0.2-1,2.1-2.2,5.7-4.5c2.4-1.4,5.9-3.6,6-4.3c0.1-1.1-2-2.1-3.1-2.6c-0.7-0.3-0.9-0.4-1-0.6    c-0.3-0.4-0.4-0.6,5.2-5.9l1.5-1.5c1.2-1.2,4.6-7,4.1-8.3c-2.6-0.2-7.1-3.3-7.2-3.4c-0.1-0.1-1.6-2.1-4-2.1c-1.3,0-2.6,0.6-4,1.7    l-0.9,0.7l0.2-1.1c1.1-7.5,9.5-9.4,10.2-9.5c-0.3-0.1,0.2-3.7,4.5-5.1c1.2-4.1,9.9-7,13.2-6.6c0,0,0,0,0,0    c2.9,0,10.1,1.7,14.8,7.1c3.6,4.1,4.9,9.5,4,15.9c7.5,9.2,5.4,14.2,5.3,14.4l-0.3,0.7l-0.5-0.6c-0.9-1.2-2.7-3.2-3.8-3.2    c-0.5,0.2-0.7,0.5-0.7,1.3c-0.2,2.6,1.2,7.1,1.6,7.6c-0.1-0.4,1.3-0.6,4.4-1l0.8-0.1c2.5,0,6.2,1.8,6.4,1.8l0.7,0.3l-0.6,0.5    c-1.8,1.3-4.6,3.9-4.5,5.1c0.2,1.9,0.3,2.6,2.8,3.9c2.4,1.6,3.1,5.8,3.1,7.8V214.7L296.2,214.7z M236.6,213.8h58.7    c-0.1-2.2-0.8-5.5-2.6-6.6c-2.7-1.4-3-2.4-3.2-4.4c-0.2-1.9,2.8-4.5,4.2-5.6c-1.2-0.5-3.7-1.5-5-1.5l-1,0.1    c-1.3,0.2-4,0.5-4.4,0.8c-0.7,0.2-0.9-0.2-1.3-1.1c-0.4-1.1-2.3-7.5-0.7-9c1.3-1.1,3.8,1.1,4.9,2.5c0.2-1.7,0-6.2-5.5-13    c0.8-6.5-0.5-11.6-3.9-15.5c-4.5-5.1-11.4-6.8-14-6.8c-0.4,0-0.6,0-0.9,0c-3.7,0-10.7,3-11.8,6.3c-4.2,1.6-4.4,4.9-4.5,5    c-0.4,0.4-7.9,1.8-9.6,8.1c1.2-0.8,2.4-1.2,3.6-1.2c2.9,0,4.5,2.3,4.6,2.4l0,0c0,0,4.3,3,6.5,3.1c0.5,0,0.8,0.3,1,0.7    c0.7,1.9-3.2,8.2-4.3,9.3l-1.6,1.5c-1.4,1.3-4.2,4-4.9,4.9c0,0,0.3,0.1,0.4,0.1c1.4,0.7,3.8,1.8,3.6,3.5c-0.1,1.1-2.5,2.6-6.5,5    c-1.7,1-4.1,2.5-5.2,3.4c2.3-0.5,4.9,0,5,0C239.1,208.9,238.2,212.1,236.6,213.8L236.6,213.8z"/></g>
    <path class="st1"
          d="M292.4,298c0,0,0.6,6.7-2.3,9.6c12.6,0.8,19.5,13.7,19.6,16.7c0.1,3.1-3.9,5.5-3.9,5.5s1.4,5.5-3.9,6.4   c0.1,5.2-3.5,5.2-3.5,5.2s-1.4,4.3-5.6,4.1c-1.3,6.3-7.8,6.2-7.8,6.2s-3.8,9.1-9.3,5.6c-3.5,7.7-12.9,7.4-16.4,0   c-1.9-0.1-6.3,2.5-8.9-5.2c-5.8,1-8.1-6.4-8.1-6.4s-3.9-0.3-5.4-4.2c-4.6-0.9-3.8-5.5-3.8-5.5s-4.6-1.3-4.4-6.3   c-3.6-2.2-3.3-6-3.3-6s2.8-13.4,19.4-16.3c-2.6-3.8-2.3-9.2-2.3-9.2L292.4,298z"/>
    <g><path d="M267.7,363.3c-3.6,0-7-2.3-8.7-5.9c0,0.3-0.4,0.3-0.8,0.4c-0.6,0.1-1.2,0.2-1.9,0.2c-2.8,0-4.8-1.9-6.1-5.9    c0.1,0.4-0.3,0.4-0.7,0.4c-5.2,0-7.2-6.2-7.4-6.8c-0.1,0.2-3.9-0.3-5.4-4.2c-4.3-0.7-3.9-5-3.8-5.6c-0.3,0.2-4.5-1.3-4.4-6.3    c-3.6-1.9-3.3-5.9-3.3-6.1c0-0.2,3-13.5,19.1-16.6c-2.3-3.8-2-8.7-2-8.9l50.2-0.5c0.4,0.6,0.9,6.5-1.4,9.6    c12.4,1.3,19,14.1,19.1,17.1c0.1,3.1-3.5,5.5-4,5.8c0.3,0,0.7,2.4-0.5,4.3c-0.7,1.1-1.9,1.9-3.6,2.1c0.4,1.6-0.1,3.1-1,4.1    c-1,1-2.2,1.2-2.5,1.2c0.2,0.2-1.3,4.1-5.3,4.1c-1.2,6.1-7.8,6.1-8.1,6.1c0.3,0-2.4,6.4-6.8,6.4c-0.8,0-1.6-0.2-2.4-0.6    C274.2,361.3,271.2,363.3,267.7,363.3L267.7,363.3z M259.2,356.8c2.1,3.6,5.2,5.7,8.4,5.7c3.3,0,6.1-2,7.7-5.4    c0.1-0.1,0.2-0.2,0.3-0.2c0.1,0,0.3,0,0.4,0c0.8,0.5,1.6,0.7,2.3,0.7c3.8,0,6.3-6.1,6.4-6.1c1.1-0.3,6.6-0.4,7.7-6.1    c0-0.2,0.5-0.3,0.8-0.3c3.6,0,4.8-3.6,4.8-3.8c0.5-0.3,1.5-0.3,2.4-1.2c0.8-0.8,1.2-2.1,1.2-3.9c1.7-0.7,2.7-1.3,3.3-2.2    c1.1-1.7,0.6-4.1,0.6-4.1c0.2-0.5,4-2.8,3.9-5.6c-0.1-2.9-6.8-15.5-19.2-16.3c-0.2,0-0.3-0.1-0.4-0.3c-0.1-0.2,0-0.3,0.1-0.5    c2.7-2.7,2.2-9.1,2.2-9.2l-49.2,0.5c0.3,0.3,0.2,5.2,2.6,8.5c0.1,0.1,0.1,0.3,0,0.4c-0.1,0.1-0.2,0.2-0.3,0.3    c-16,2.8-19,15.8-19,15.9c0,0.1-0.2,3.6,3.1,5.6c0.1,5,4.3,6.2,4.3,6.2c0.3,0.7-0.3,4.6,3.7,5.5c1.7,3.8,5.2,4.2,5.3,4.2    c0.4,0.4,2.6,7.3,8,6.4c3,7.2,5.8,5.7,7.6,5.4C258.5,356.8,258.9,356.8,259.2,356.8L259.2,356.8z"/></g>
    <path class="st1"
          d="M213.3,220.9c0,0-9,9.7-13.5,2.5c-4.5-7.2,6.3-9.3,6.4-9.4c0.1-0.1,6.3-2.1,6.8-13.4   c0.5-11.3-13.5-18.7-17.5-19.6c-4-1-15.6-1-15.6-1s-42.4-10.2-46.8-13.4c-4.4-3.1-44.5-10.5-44.5-10.5s-6.4-0.8-5.9,4.9   c0.5,5.7,5.9,6.4,5.9,6.4s-4.5,3.5-4,6.7c0.5,3.1,4,8.2,11,7.4c-0.8,11.2,14.7,13,14.7,13s1.6,16.1,16,15.3   c3.4,11,16.2,11.5,16.2,11.5s6,7.5,14.7,8c5,12.6,16,9,16,9s-0.8,7.9,4.2,7.9c-2.6,9,7.1,10.2,10.8,8.5c0.9,1.9,4.2,7.8,11.7,4.1   c4.5,6.7,11.9,3.5,11.9,3.5s1.6,5.3,8.1,3.3C226.5,263.4,213.1,221.1,213.3,220.9L213.3,220.9z"/>
    <g><path d="M217.4,266.5L217.4,266.5c-3.5,0-5.1-2.5-5.6-3.6c-1.7,0.6-7.5,2.3-11.7-3.5c-1.5,0.7-3,1.1-4.4,1.1    c-2.2,0-5.2-0.9-7.4-5.1c-0.9,0.3-2.1,0.5-3.3,0.5c-3,0-5.6-1.1-7-3c-1.2-1.6-1.5-3.7-1-6.2c-1-0.1-1.8-0.6-2.4-1.3    c-1.6-1.8-1.7-4.9-1.7-6.4c-0.6,0.1-1.7,0.3-2.9,0.3c-3.4,0-9.6-1.3-13-9.8c-8.3-0.2-14.3-7.5-14.6-7.9c0,0.1-12.6-0.4-16.2-11.2    l-0.6,0c-12.4,0-15-12.8-15.4-15.4c-2.5-0.4-15-2.9-14.8-12.8c-7.1,0.5-10.4-4.6-11-7.9c-0.4-2.6,2-5.2,3.3-6.5    c-1.7-0.6-4.8-2.2-5.3-6.6c-0.2-1.6,0.2-3,1.1-3.9c1.9-2.1,5.4-1.6,5.4-1.6c1.7,0.3,40.3,7.4,44.7,10.6c4.2,3,46.2,13.2,46.6,13.3    c0.3-0.1,11.6,0,15.6,1c3.9,0.9,18.4,8.4,17.9,20.2c-0.5,9.4-4.6,12.6-7,13.8c-5.1,1.4-6.6,3.2-7.1,4.4c-0.5,1.2-0.2,2.7,0.8,4.3    c1,1.6,2.3,2.4,3.9,2.4c4,0,8.7-4.9,8.7-5c0.2-0.2,0.5-0.2,0.7-0.1c0.2,0.2,0.3,0.5,0.2,0.7c0.1-0.1,0.4,0.8,0.8,2.3    c7.9,27.7,9.8,41.3,5.7,42.6C219.2,266.3,218.3,266.5,217.4,266.5L217.4,266.5z M212.1,261.6c0.1,0,0.2,0,0.2,0.1    c0.1,0.1,0.3,0.2,0.3,0.3c0,0.1,1.1,3.4,4.8,3.4l0,0c0.8,0,1.7-0.2,2.6-0.4c1.8-0.6,3.4-6.7-6.4-41.2c-0.2-0.8-0.4-1.4-0.5-1.8    c-1.5,1.5-5.3,4.6-8.8,4.6c-2,0-3.7-1-4.9-2.9c-1.2-1.9-1.5-3.7-0.9-5.3c0.8-2.1,3.3-3.8,7.3-4.9c2.1-1,6.3-3.9,6.7-13    c0.5-10.9-13.4-18.2-17-19.1c-3.8-0.9-15.3-0.9-15.4-0.9c-1.9-0.4-42.7-10.3-47.1-13.5c-3.4-2.4-30.4-7.9-44.2-10.4c0,0,0,0,0,0    c0,0-3-0.3-4.4,1.3c-0.6,0.7-0.9,1.7-0.8,3.1c0.5,5.2,5.3,5.9,5.4,5.9c0.2,0,0.4,0.2,0.5,0.4c0.1,0.2,0,0.5-0.2,0.6    c0,0-4.2,3.4-3.8,6.1c0.5,3,3.8,7.7,10.4,6.9c0.2,0,0.3,0,0.5,0.2c0.1,0.1,0.2,0.3,0.2,0.4c-0.8,10.5,14.1,12.3,14.2,12.4    c0.3,0,0.5,0.2,0.5,0.5c0.1,0.6,1.7,14.8,14.4,14.8l1,0c0.3,0,0.5,0.2,0.6,0.4c3.2,10.5,15.6,11.1,15.7,11.1    c0.5,0.3,6.4,7.5,14.7,8c3.5,7.9,8.7,9.5,12.5,9.5c1.9,0,3.3-0.4,3.3-0.4c0.2-0.1,0.4,0,0.5,0.1c0.1,0.1,0.2,0.3,0.2,0.5    c0,0-0.4,4.4,1.4,6.3c0.6,0.6,1.3,1,2.3,1c0.2,0,0.3,0.1,0.4,0.2c0.1,0.1,0.1,0.3,0.1,0.5c-0.7,2.5-0.5,4.5,0.6,5.9    c1.2,1.6,3.5,2.5,6.1,2.5c1.3,0,2.5-0.2,3.3-0.6c0.3-0.1,0.6,0,0.7,0.3c2.4,4.8,6.2,6.2,11,3.8c0.2-0.1,0.6,0,0.7,0.2    c1.8,2.7,4.3,4,7.4,4c2.1,0,3.8-0.7,3.8-0.7C211.9,261.7,212,261.6,212.1,261.6L212.1,261.6z"/></g>
    <path class="st1" d="M185.5,187.9c0,0,10,1.1,8.7,16.5L185.5,187.9z"/>
    <g><path d="M194.2,204.9C194.2,204.9,194.2,204.9,194.2,204.9c-0.4,0-0.6-0.3-0.6-0.6c1.2-14.7-8.1-15.9-8.2-15.9    c-0.3,0-0.5-0.3-0.5-0.6c0-0.3,0.3-0.6,0.6-0.5c0.1,0,10.5,1.3,9.2,17.1C194.7,204.7,194.5,204.9,194.2,204.9L194.2,204.9z"/></g>
    <path class="st1" d="M147.5,171.9c0,0-19.1,13.1,16.6,17.2L147.5,171.9z"/>
    <g><path d="M164.2,189.7C164.2,189.7,164.1,189.7,164.2,189.7c-13.6-1.6-21-4.6-22.2-9.1c-1.2-4.7,4.9-8.9,5.2-9.1    c0.3-0.2,0.6-0.1,0.8,0.1c0.2,0.3,0.1,0.6-0.1,0.8c-0.1,0-5.7,4-4.7,7.9c0.7,2.7,4.9,6.4,21.1,8.3c0.3,0,0.5,0.3,0.5,0.6    C164.7,189.4,164.5,189.7,164.2,189.7L164.2,189.7z"/></g>
    <path class="st1"
          d="M153,187.3c-0.1,0.3-9,10.8,7.4,13.9c-7.8,7.4,6.8,9.8,6.8,9.8s-3,7.8,5.7,9.8c-2.9,8.1,6.6,7.6,6.6,7.6   s0.3,9.8,11.5,9.7c-0.1,6.7,7.6,7.1,7.6,7.1s2.3,7.2,9.8,5c0.8,5,6,4,6,4L153,187.3z"/>
    <g><path d="M213.2,255c-0.9,0-2.2-0.2-3.3-0.9c-1-0.7-1.6-1.7-2-3c-6.5,1.6-9.2-3.8-9.8-5.2c-1.6-0.2-7.5-1.3-7.8-7.1    c-9.5-0.2-11.1-7.6-11.4-9.7c-1.3,0-4.6-0.3-6.2-2.5c-1-1.3-1.2-3.1-0.5-5.3c-2.5-0.7-4.3-2-5.3-3.8c-1.2-2.3-0.8-4.8-0.5-6    c-2-0.4-7.8-1.9-8.8-5.2c-0.4-1.5,0.1-3,1.6-4.7c-4.9-1.1-7.9-3-8.9-5.7c-1-2.5-0.2-5.6,2.1-8.7c0.1-0.3,0.5-0.4,0.8-0.3    c0.3,0.1,0.4,0.5,0.3,0.7c0,0-0.1,0.2-0.1,0.2c-2.1,2.8-2.8,5.6-2,7.7c1,2.5,4,4.2,9.1,5.2c0.2,0,0.4,0.2,0.4,0.4    c0.1,0.2,0,0.4-0.2,0.6c-1.7,1.6-2.4,3.1-2,4.3c0.8,2.7,6.4,4.2,8.5,4.6c0.2,0,0.3,0.1,0.4,0.3c0.1,0.1,0.1,0.3,0,0.5    c0,0-1.2,3.1,0.2,5.7c0.9,1.6,2.6,2.8,5.1,3.4c0.2,0,0.3,0.1,0.4,0.3c0.1,0.1,0.1,0.3,0,0.5c-0.7,2.1-0.7,3.7,0.2,4.8    c1.6,2.2,5.8,2.1,5.8,2.1c0.2,0,0.3,0,0.4,0.2c0.1,0.1,0.2,0.2,0.2,0.4c0,0.4,0.3,9,10.9,9.1c0.1,0,0.3,0.1,0.4,0.2    c0.1,0.1,0.2,0.3,0.2,0.4c-0.1,6.1,6.8,6.5,7.1,6.5c0.2,0,0.4,0.2,0.5,0.4c0.1,0.3,2.2,6.7,9.1,4.7c0.2-0.1,0.3,0,0.5,0.1    c0.1,0.1,0.2,0.2,0.3,0.4c0.2,1.3,0.8,2.3,1.6,2.9c1.6,1.1,3.7,0.6,3.7,0.6c0.3,0,0.6,0.1,0.7,0.4c0.1,0.3-0.1,0.6-0.4,0.7    C214.4,254.9,213.9,255,213.2,255L213.2,255z"/></g>
    <path class="st2" d="M212.2,262.3c0,0,0.4-7-1.2-8.3L212.2,262.3z"/>
    <g><path d="M212.2,262.9C212.2,262.9,212.2,262.9,212.2,262.9c-0.3,0-0.6-0.3-0.6-0.6c0.2-2.6,0-7-1-7.9c-0.2-0.2-0.3-0.5-0.1-0.8    c0.2-0.2,0.6-0.3,0.8-0.1c1.8,1.5,1.5,7.6,1.4,8.8C212.7,262.7,212.5,262.9,212.2,262.9L212.2,262.9z"/></g>
    <path class="st2" d="M199.8,258.5c0.1-0.1,3.3-6.4,2.2-7.5L199.8,258.5z"/>
    <g><path d="M199.8,259.1c-0.2,0-0.3-0.1-0.4-0.2c-0.2-0.2-0.2-0.5,0-0.7c0.7-1.1,2.8-6.1,2.2-6.8c-0.2-0.2-0.2-0.6,0-0.8    c0.2-0.2,0.6-0.2,0.8,0c0.3,0.3,0.4,0.7,0.4,1.3c0,2.1-2.3,6.7-2.6,7.1C200,259,199.9,259.1,199.8,259.1L199.8,259.1z"/></g>
    <path class="st2" d="M188.3,254.6l8.5-8.3L188.3,254.6z"/>
    <g><path d="M188.3,255.1c-0.1,0-0.3-0.1-0.4-0.2c-0.2-0.2-0.2-0.6,0-0.8l8.5-8.3c0.2-0.2,0.6-0.2,0.8,0c0.2,0.2,0.2,0.6,0,0.8    l-8.5,8.3C188.6,255.1,188.5,255.1,188.3,255.1L188.3,255.1z"/></g>
    <path class="st2" d="M177.7,246.4c0.1-0.1,12.8-8,12.8-8L177.7,246.4z"/>
    <g><path d="M177.7,247c-0.2,0-0.3-0.1-0.4-0.2c-0.2-0.2-0.2-0.6,0.1-0.8c0.1,0,0.2-0.2,12.9-8.1c0.3-0.2,0.6-0.1,0.8,0.2    c0.2,0.3,0.1,0.6-0.2,0.8c-5,3.1-12.5,7.8-12.8,8C177.9,246.9,177.8,247,177.7,247L177.7,247z"/></g>
    <path class="st2" d="M173.2,238.3c0.1-0.1,7.2-3.1,7.5-5.7L173.2,238.3z"/>
    <g><path d="M173.3,238.8c-0.1,0-0.3,0-0.4-0.1c-0.2-0.2-0.4-0.5-0.2-0.7c0,0,0.6-0.3,0.7-0.4c5.4-2.6,6.6-4.2,6.7-5    c0-0.3,0.3-0.6,0.6-0.5c0.3,0,0.5,0.3,0.5,0.6c-0.2,2.2-4.3,4.5-7.3,5.9C173.8,238.7,173.6,238.8,173.3,238.8L173.3,238.8z"/></g>
    <path class="st1" d="M157.5,229.2c0,0,17.2,3.7,20.2-0.3L157.5,229.2z"/>
    <g><path d="M170.6,231.3c-5.5,0-12.1-1.3-13.2-1.6c-0.3-0.1-0.5-0.4-0.4-0.7c0.1-0.3,0.4-0.5,0.7-0.4c4.7,1,17.3,3,19.6-0.1    c0.2-0.2,0.5-0.3,0.8-0.1c0.2,0.2,0.3,0.5,0.1,0.8C176.9,230.8,173.9,231.3,170.6,231.3L170.6,231.3z"/></g>
    <path class="st1" d="M143.2,221c0.7,0,25.8,2.7,28.1-0.4L143.2,221z"/>
    <g><path d="M161.8,222.7c-4.4,0-10.2-0.3-17.5-1c-0.7-0.1-1.1-0.1-1.2-0.1c-0.3,0-0.6-0.3-0.6-0.6c0-0.3,0.2-0.6,0.6-0.6    c0.1,0,0.5,0,1.3,0.1c22.1,2,25.8,0.5,26.4-0.3c0.2-0.3,0.5-0.3,0.8-0.1c0.2,0.2,0.3,0.5,0.1,0.8    C170.9,222.1,167.6,222.7,161.8,222.7L161.8,222.7z"/></g>
    <path class="st1" d="M126.5,209.7c0.4-0.1,29.7,5.5,38,1.2L126.5,209.7z"/>
    <g><path d="M153.9,213.1c-9.1,0-20.5-1.8-25.3-2.5c-1.1-0.2-1.9-0.3-2.1-0.3c-0.3,0.1-0.5-0.1-0.6-0.4c-0.1-0.3,0.1-0.6,0.4-0.7    c0.2-0.1,0.2-0.1,2.4,0.3c19,3,31,3.3,35.5,1c0.3-0.1,0.6,0,0.8,0.2c0.1,0.3,0,0.6-0.2,0.8C162.5,212.6,158.5,213.1,153.9,213.1    L153.9,213.1z"/></g>
    <path class="st1" d="M112.5,194.5c0.7,0,39,9.3,44.7,6.4L112.5,194.5z"/>
    <g><path d="M153.3,202.1c-8.2,0-25-3.5-38-6.3c-1.6-0.4-2.7-0.6-2.9-0.6c-0.3,0-0.5-0.3-0.5-0.6s0.3-0.6,0.6-0.6    c0.2,0,0.5,0.1,3.1,0.6c24.4,5.4,38.4,7.4,41.4,5.8c0.3-0.1,0.6,0,0.7,0.2c0.1,0.3,0,0.6-0.2,0.8    C156.6,201.9,155.2,202.1,153.3,202.1L153.3,202.1z"/></g>
    <path class="st1" d="M97.9,181.2c0.3,0,45.7,10.6,51.4,6.3L97.9,181.2z"/>
    <g><path d="M143.2,189c-9.9,0-28.5-3.6-44.3-7.1l-1.2-0.3c-0.3,0-0.5-0.2-0.5-0.6c0-0.3,0.3-0.6,0.6-0.6c0.1,0,0.1,0,1.3,0.3    c28.5,6.3,46.6,8.5,49.7,6.1c0.3-0.2,0.6-0.1,0.8,0.1c0.2,0.2,0.1,0.6-0.1,0.8C148.6,188.7,146.3,189,143.2,189L143.2,189z"/></g>
    <path class="st1" d="M92,168.2c0.1,0,43.5,14.2,47.2,10.6L92,168.2z"/>
    <g><path d="M136.6,179.9c-7.6,0-27.2-5.6-43.8-10.9l-1-0.3c-0.3,0-0.5-0.2-0.5-0.5c0-0.3,0.3-0.6,0.6-0.6c0.1,0,0.1,0,1.2,0.3    c31.3,9.9,44.1,11.9,45.6,10.5c0.2-0.2,0.6-0.2,0.8,0c0.2,0.2,0.2,0.6,0,0.8C139.1,179.7,138.1,179.9,136.6,179.9L136.6,179.9z"/></g>
    <path class="st1"
          d="M322.2,221.2c0,0,9,9.7,13.5,2.5c4.5-7.2-6.3-9.3-6.4-9.4c-0.1-0.1-6.3-2.1-6.8-13.4   c-0.6-11.3,13.5-18.7,17.5-19.6c4-1,15.5-1,15.5-1s42.4-10.2,46.8-13.4c4.4-3.1,44.5-10.5,44.5-10.5s6.4-0.8,5.9,4.9   c-0.6,5.7-5.9,6.4-5.9,6.4s4.5,3.5,4,6.7c-0.6,3.1-4,8.2-11,7.4c0.8,11.2-14.7,13-14.7,13s-1.6,16.1-16,15.3   c-3.4,11-16.2,11.5-16.2,11.5s-6,7.5-14.7,8c-5,12.6-16,9-16,9s0.8,7.9-4.2,7.9c2.6,9-7.1,10.2-10.8,8.5c-0.9,1.9-4.2,7.8-11.7,4.1   c-4.5,6.7-11.9,3.5-11.9,3.5s-1.6,5.3-8,3.3C308.9,263.7,322.3,221.5,322.2,221.2L322.2,221.2z"/>
    <g><path d="M318.1,266.8c-0.9,0-1.9-0.2-2.9-0.5c-4.1-1.3-2.3-14.9,5.7-42.7c0.4-1.4,0.7-2.3,0.7-2.5c-0.1-0.3,0-0.4,0.2-0.6    c0.2-0.2,0.6,0,0.7,0.2c0,0,4.7,5,8.7,5c1.6,0,2.9-0.8,3.9-2.4c1-1.6,1.3-3,0.8-4.3c-0.5-1.2-2-3-6.5-4.2c0,0-0.6-0.2-0.6-0.3    c-2.4-1.1-6.5-4.4-7-13.7c-0.6-11.8,13.9-19.3,17.9-20.2c4-1,15.2-1,15.7-1c0.3-0.1,42.2-10.2,46.5-13.3    c4.4-3.2,43.1-10.3,44.7-10.6c0.1,0,3.5-0.5,5.4,1.6c0.9,1,1.2,2.3,1.1,3.9c-0.4,4.4-3.6,6.1-5.3,6.6c1.3,1.3,3.8,3.9,3.3,6.5    c-0.6,3.3-4,8.4-11,7.9c0.2,10-12.3,12.4-14.8,12.8c-0.4,2.5-3,15.4-15.4,15.4l-0.6,0c-3.7,10.9-16.5,11.4-16.6,11.4    c0.2,0.1-5.8,7.5-14.7,8c-2.9,8.2-9.1,9.5-12.5,9.5c-1.2,0-2.2-0.2-2.9-0.3c0,1.5-0.1,4.6-1.7,6.4c-0.6,0.7-1.5,1.1-2.4,1.3    c0.6,2.5,0.3,4.6-0.9,6.2c-1.4,1.9-4,3-7,3c-1.2,0-2.4-0.2-3.3-0.5c-2.3,4.2-5.3,5.1-7.5,5.1c-1.4,0-2.8-0.4-4.4-1.1    c-4.2,5.8-10,4.1-11.7,3.6C323.2,264.3,321.6,266.8,318.1,266.8L318.1,266.8z M322.5,222.3c-0.1,0.4-0.3,0.9-0.5,1.7    c-9.9,34.6-8.3,40.7-6.5,41.3c0.9,0.3,1.8,0.4,2.6,0.4c3.7,0,4.7-3.2,4.8-3.4c0-0.2,0.2-0.3,0.3-0.3c0.1-0.1,0.3-0.1,0.5,0    c0,0,1.7,0.7,3.8,0.7c3.1,0,5.6-1.4,7.4-4c0.2-0.2,0.5-0.3,0.7-0.2c4.8,2.3,8.6,1,11-3.8c0.1-0.3,0.5-0.4,0.7-0.3    c0.8,0.4,2,0.6,3.3,0.6c2.6,0,4.9-0.9,6.1-2.5c1.1-1.5,1.3-3.5,0.6-5.9c0-0.2,0-0.4,0.1-0.5c0.1-0.1,0.3-0.2,0.4-0.2    c1,0,1.7-0.3,2.3-1c1.8-2,1.4-6.3,1.4-6.3c0-0.2,0.1-0.4,0.2-0.5c0.1-0.1,0.3-0.2,0.5-0.1c0,0,1.4,0.4,3.3,0.4    c3.8,0,8.9-1.6,12-9.1c8.9-0.9,14.8-8.1,14.8-8.2c0.5-0.2,12.9-0.7,16.1-11.3c0.1-0.3,0.2-0.4,0.6-0.4l1,0    c12.7,0,14.3-14.2,14.4-14.8c0-0.3,0.2-0.5,0.5-0.5c0.2,0,15-1.8,14.2-12.4c0-0.2,0-0.3,0.2-0.4c0.1-0.1,0.3-0.2,0.5-0.2    c6.7,0.7,9.9-3.9,10.4-6.9c0.4-2.3-2.6-5.2-3.8-6.1c-0.2-0.1-0.3-0.4-0.2-0.6c0.1-0.2,0.2-0.4,0.5-0.4c0.2,0,4.9-0.7,5.4-5.9    c0.1-1.3-0.1-2.3-0.8-3.1c-1.5-1.6-4.4-1.2-4.5-1.2c-13.8,2.5-40.8,8-44.2,10.4c-4.4,3.2-45.2,13-47,13.5c-0.2,0-11.7,0-15.5,1    c-3.6,0.9-17.6,8.1-17,19.1c0.4,9.1,4.6,12,6.4,12.8c4.4,1.2,6.8,2.9,7.7,5c0.6,1.6,0.3,3.4-0.9,5.3c-1.2,2-2.9,2.9-4.9,2.9    C327.7,226.9,324,223.7,322.5,222.3L322.5,222.3z"/></g>
    <path class="st1" d="M350,188.2c0,0-10,1.1-8.7,16.5L350,188.2z"/>
    <g><path d="M341.3,205.2c-0.3,0-0.5-0.2-0.6-0.5c-1.3-15.8,9.1-17.1,9.2-17.1c0.3-0.1,0.6,0.2,0.6,0.5c0,0.3-0.2,0.6-0.5,0.6    c-0.4,0-9.4,1.3-8.2,15.9C341.8,204.9,341.6,205.2,341.3,205.2C341.3,205.2,341.3,205.2,341.3,205.2L341.3,205.2z"/></g>
    <path class="st1" d="M387.9,172.2c0,0,19.1,13.1-16.6,17.2L387.9,172.2z"/>
    <g><path d="M371.3,190c-0.3,0-0.5-0.2-0.6-0.5c0-0.3,0.2-0.6,0.5-0.6c16.2-1.9,20.4-5.5,21.1-8.3c1-3.9-4.7-7.9-4.7-7.9    c-0.3-0.2-0.3-0.5-0.1-0.8c0.2-0.2,0.5-0.3,0.8-0.1c0.3,0.2,6.4,4.4,5.2,9.1C392.3,185.3,384.9,188.4,371.3,190    C371.3,190,371.3,190,371.3,190L371.3,190z"/></g>
    <path class="st1"
          d="M382.5,187.6c0.1,0.3,9,10.8-7.4,13.9c7.8,7.4-6.8,9.8-6.8,9.8s3,7.8-5.7,9.8c2.9,8.1-6.5,7.6-6.5,7.6   s-0.3,9.8-11.5,9.7c0.1,6.7-7.6,7.1-7.6,7.1s-2.3,7.2-9.8,5c-0.8,5.1-6,4-6,4L382.5,187.6z"/>
    <g><path d="M322.2,255.3c-0.7,0-1.2-0.1-1.3-0.1c-0.3-0.1-0.5-0.4-0.4-0.7c0.1-0.3,0.4-0.5,0.7-0.4c0,0,2.2,0.4,3.7-0.6    c0.9-0.6,1.4-1.6,1.6-2.9c0-0.2,0.1-0.3,0.3-0.4c0.1-0.1,0.3-0.1,0.5-0.1c6.8,2,9-4.4,9.1-4.7c0.1-0.2,0.3-0.4,0.5-0.4    c0.3,0,7.2-0.5,7.1-6.5c0-0.2,0.1-0.3,0.2-0.4c0.1-0.1,0.3-0.1,0.4-0.2c0.1,0,0.2,0,0.2,0c10.3,0,10.6-8.8,10.7-9.1    c0-0.2,0.1-0.3,0.2-0.4c0.1-0.1,0.3-0.2,0.4-0.2c0.1,0,4.2,0.1,5.8-2.1c0.8-1.1,0.9-2.8,0.2-4.8c-0.1-0.2,0-0.3,0-0.5    c0.1-0.1,0.2-0.2,0.4-0.3c2.5-0.6,4.2-1.7,5.1-3.4c1.4-2.6,0.2-5.7,0.2-5.7c-0.1-0.2,0-0.3,0-0.5c0.1-0.1,0.2-0.2,0.4-0.3    c2.1-0.3,7.7-1.9,8.5-4.6c0.4-1.2-0.3-2.7-2-4.3c-0.2-0.1-0.2-0.4-0.2-0.6c0.1-0.2,0.2-0.4,0.4-0.4c5.1-1,8.1-2.7,9.1-5.2    c0.8-2.1,0.1-4.8-2-7.7c-0.1-0.3-0.1-0.7,0.2-0.9c0.3-0.1,0.5-0.1,0.6,0.1c2.4,3.3,3.1,6.4,2.2,8.8c-1.1,2.7-4.1,4.6-8.9,5.7    c1.5,1.7,2,3.2,1.6,4.7c-1,3.3-6.8,4.8-8.8,5.2c0.3,1.2,0.8,3.7-0.5,6c-1,1.8-2.7,3.1-5.3,3.8c0.6,2.2,0.5,3.9-0.5,5.3    c-1.6,2.2-4.9,2.5-6.2,2.5c-0.3,2.1-1.9,9.5-11.4,9.7c-0.3,5.8-6.2,6.9-7.8,7.1c-0.6,1.4-3.3,6.7-9.8,5.2c-0.3,1.3-1,2.3-2,3    C324.4,255.1,323.1,255.3,322.2,255.3L322.2,255.3z"/></g>
    <path class="st2" d="M323.3,262.7c0,0-0.4-7,1.2-8.3L323.3,262.7z"/>
    <g><path d="M323.3,263.2c-0.3,0-0.5-0.2-0.6-0.5c-0.1-1.2-0.3-7.3,1.4-8.8c0.2-0.2,0.6-0.2,0.8,0.1c0.2,0.2,0.2,0.6-0.1,0.8    c-1,0.9-1.2,5.3-1,7.9C323.8,262.9,323.6,263.2,323.3,263.2C323.3,263.2,323.3,263.2,323.3,263.2L323.3,263.2z"/></g>
    <path class="st2" d="M335.7,258.8c-0.1-0.1-3.3-6.4-2.2-7.5L335.7,258.8z"/>
    <g><path d="M335.7,259.4c-0.2,0-0.3-0.1-0.5-0.2c-0.1-0.1-3.7-6.7-2.2-8.3c0.2-0.2,0.6-0.2,0.8,0c0.2,0.2,0.2,0.6,0,0.8    c-0.6,0.6,1.5,5.7,2.2,6.8c0.2,0.2,0.2,0.6-0.1,0.8C336,259.4,335.8,259.4,335.7,259.4L335.7,259.4z"/></g>
    <path class="st2" d="M347.1,254.9l-8.5-8.3L347.1,254.9z"/>
    <g><path d="M347.1,255.4c-0.1,0-0.3-0.1-0.4-0.2l-8.5-8.3c-0.2-0.2-0.2-0.6,0-0.8c0.2-0.2,0.6-0.2,0.8,0l8.5,8.3    c0.2,0.2,0.2,0.6,0,0.8C347.4,255.4,347.3,255.4,347.1,255.4L347.1,255.4z"/></g>
    <path class="st1" d="M357.8,246.7c-0.1-0.1-12.8-8-12.8-8L357.8,246.7z"/>
    <g><path d="M357.8,247.3c-0.1,0-0.2,0-0.3-0.1c-0.4-0.3-7.9-4.9-12.8-8c-0.3-0.2-0.3-0.5-0.2-0.8c0.2-0.3,0.5-0.3,0.8-0.2    c12.7,7.9,12.9,8.1,12.9,8.1c0.2,0.2,0.2,0.6,0,0.8C358,247.2,357.9,247.3,357.8,247.3L357.8,247.3z"/></g>
    <path class="st2" d="M362.3,238.7c-0.1-0.1-7.2-3.1-7.5-5.7L362.3,238.7z"/>
    <g><path d="M362.3,239.2c-0.1,0-0.2,0-0.3-0.1c-3.5-1.7-7.5-3.9-7.7-6.1c0-0.3,0.2-0.6,0.5-0.6c0.4-0.1,0.6,0.2,0.6,0.5    c0.1,0.9,1.3,2.4,6.7,5c0.1,0,0.6,0.3,0.6,0.3c0.2,0.2,0.2,0.6,0,0.8C362.6,239.2,362.4,239.2,362.3,239.2L362.3,239.2z"/></g>
    <path class="st1" d="M377.9,229.5c0,0-17.2,3.7-20.2-0.3L377.9,229.5z"/>
    <g><path d="M364.9,231.6c-3.4,0-6.4-0.5-7.6-2.1c-0.2-0.2-0.1-0.6,0.1-0.8c0.2-0.2,0.6-0.1,0.8,0.1c2.3,3,14.9,1.1,19.6,0.1    c0.3,0,0.6,0.1,0.7,0.4c0.1,0.3-0.1,0.6-0.4,0.7C376.9,230.3,370.4,231.6,364.9,231.6L364.9,231.6z"/></g>
    <path class="st1" d="M392.3,221.3c-0.7,0-25.8,2.7-28.1-0.4L392.3,221.3z"/>
    <g><path d="M373.6,223c-5.8,0-9-0.6-9.9-1.7c-0.2-0.2-0.1-0.6,0.1-0.8c0.2-0.2,0.6-0.1,0.8,0.1c0.6,0.8,4.2,2.3,26.4,0.3    c0.7-0.1,1.2-0.1,1.3-0.1c0.3,0,0.6,0.2,0.6,0.6c0,0.3-0.2,0.6-0.6,0.6c-0.1,0-0.5,0-1.2,0.1C383.8,222.6,378,223,373.6,223    L373.6,223z"/></g>
    <path class="st1" d="M408.9,210c-0.4-0.1-29.7,5.5-38.1,1.2L408.9,210z"/>
    <g><path d="M381.5,213.4c-4.5,0-8.5-0.4-10.9-1.6c-0.3-0.1-0.4-0.5-0.2-0.8c0.1-0.3,0.5-0.4,0.8-0.2c4.5,2.3,16.5,2,35.6-1    c2.2-0.3,2.2-0.3,2.4-0.3c0.3,0.1,0.5,0.4,0.4,0.7c-0.1,0.2-0.3,0.4-0.6,0.4c-0.2,0-0.9,0.1-2,0.3    C402,211.6,390.7,213.4,381.5,213.4L381.5,213.4z"/></g>
    <path class="st1" d="M423,194.9c-0.7,0-39,9.3-44.7,6.4L423,194.9z"/>
    <g><path d="M382.1,202.4c-1.9,0-3.3-0.2-4.2-0.6c-0.3-0.1-0.4-0.5-0.2-0.7c0.1-0.3,0.5-0.4,0.7-0.3c3.1,1.5,17-0.4,41.4-5.8    c2.6-0.6,2.9-0.6,3.1-0.6c0.3,0,0.6,0.3,0.6,0.6c0,0.3-0.2,0.5-0.5,0.6c-0.2,0-1.3,0.3-2.9,0.6    C407.2,198.9,390.4,202.4,382.1,202.4L382.1,202.4z"/></g>
    <path class="st1" d="M437.5,181.5c-0.3,0-45.7,10.6-51.4,6.3L437.5,181.5z"/>
    <g><path d="M392.2,189.4c-3.1,0-5.4-0.3-6.4-1.2c-0.2-0.2-0.3-0.5-0.1-0.8c0.2-0.2,0.5-0.3,0.8-0.1c3.2,2.4,21.3,0.2,49.8-6.1    c1.2-0.3,1.2-0.3,1.3-0.3c0.3,0,0.6,0.3,0.6,0.6c0,0.3-0.2,0.5-0.5,0.6l-1.1,0.2C420.8,185.8,402.1,189.4,392.2,189.4L392.2,189.4    z"/></g>
    <path class="st1" d="M443.4,168.5c-0.1,0-43.5,14.2-47.2,10.6L443.4,168.5z"/>
    <g><path d="M398.8,180.2c-1.5,0-2.5-0.2-3-0.7c-0.2-0.2-0.2-0.6,0-0.8c0.2-0.2,0.6-0.2,0.8,0c1.5,1.5,14.3-0.5,45.7-10.5    c1-0.3,1-0.3,1.1-0.3c0.3,0,0.6,0.3,0.6,0.6c0,0.3-0.2,0.5-0.4,0.5l-0.9,0.3C426.1,174.6,406.5,180.2,398.8,180.2L398.8,180.2z"/></g>
    <path class="st3"
          d="M374.3,237.7c0,0-2.7,38.1-2.8,38c-0.1-0.1-5.6-6.7-5.6-6.7l-16.8,52.6l3.9,11.5l-9.8,32l-8-10.2l-13,5.2   l10.4-33.7l9.6-6.9l17.4-51.8l-9.6,1.2L374.3,237.7z"/>
    <g><path d="M343.5,366.1l-8.6-10.9l-13.4,5.7l10.7-34.6l9.8-7.2l17-50.9l-10,1.3l25.8-33.2l-0.1,1.5c-2.7,38.4-2.7,38.4-3.2,38.5    c-0.3-0.1-0.4-0.2-5.4-6.2l-16.5,51.8l3.9,11.2L343.5,366.1L343.5,366.1z M335.1,354.5l8,9.7l9.5-31.2l-3.9-11.2l17-53.6l0.5,0.6    c0,0,3.4,4.1,4.9,5.9c0.4-4.8,1.9-25.5,2.6-35.5l-22.7,29.2l9.3-1.2l-17.6,52.5l-9.8,7.1l-10,32.6L335.1,354.5L335.1,354.5z"/></g>
    <path class="st3"
          d="M411.3,253.4c0,0-20.3,32.4-20.4,32.2c-0.1-0.1-1.8-8.5-1.8-8.5l-33.3,30.9l-35.6,34.3l-0.1-7.1l-12.2-1.5   l16.1-12.3l8.2-1.4l52-47.1l-9.1-3.5L411.3,253.4z"/>
    <g><path d="M319.9,343.5l-0.1-8.1l-12.9-1.2l17-13l8.4-1.4l51.2-46.5l-9.4-3.6l38.4-17.2l-0.8,1.2c-20.3,32.4-20.4,32.5-20.7,32.5    c-0.4-0.3-0.5-0.4-2.1-8.1l-32.7,30.4L319.9,343.5L319.9,343.5z M309.2,333.6l11.1,1.4l0.4,6.5l34.9-33.7l33.9-31.5l0.2,0.8    c0,0,1.1,5.3,1.5,7.5c2.6-4,13.7-21.6,19-30.1l-33.7,15.1l8.7,3.3l-52.5,47.6l-8.5,1.5L309.2,333.6L309.2,333.6z"/></g>
    <g><path d="M320.7,335.6l-0.8-0.5c0.2-0.5,10.2-9.1,18.6-16.2l0.6,0.7C332,325.7,321.2,335,320.7,335.6L320.7,335.6z"/></g>
    <path class="st3"
          d="M400.5,226.1c0,0-9.9,36.9-10,36.8s-4.2-7.6-4.2-7.6l-40.2,69.1l1.6,12l-14.4,26.4l-6-11.6l-13.8,2.6l15.4-28   l10.8-5l40.6-68.2l-9.7-0.7L400.5,226.1z"/>
    <g><path d="M333.3,363.7l-6.3-12.3l-14.2,3.1l15.9-28.8l11-5.2l40.1-67.4l-10-0.7l31.7-27.7l-0.4,1.4c-9.9,37-10,37-10.3,37.1    c-0.5-0.2-0.6-0.3-4.3-7.1l-39.8,68.4l1.7,11.7L333.3,363.7L333.3,363.7z M327.3,350.8l6,11.1l14-25.7l-1.7-11.7l40.7-70l0.4,0.7    c0,0,2.6,4.7,3.7,6.7c1.3-4.4,6.3-23.1,9.3-34.4l-27.8,24.3l9.3,0.6l-41,68.8l-11,5.1l-14.8,27L327.3,350.8l-0.1,0    c0-0.2,0-0.3,13.9-24.7l0.8,0.4c-3.7,6.5-13.5,23.7-13.8,24.4L327.3,350.8L327.3,350.8z"/></g>
    <polygon class="st3"
             points="54.7,219.1 78.9,219.2 76.5,225.1 87,266.9 99.8,225.2 95.3,219.1 120.5,219.1 115.1,224.9    94.3,284.8 99.7,292.6 75.5,292.6 80.9,284.8 60.5,225.2  "/>
    <g><path d="M100.6,293H74.6l5.9-8.5l-20.4-59.2l-6.5-6.7l26,0.1l-2.7,6.5l10.2,40L99.4,225l-5-6.4h27.1l-6.1,6.6l-20.7,59.7    L100.6,293L100.6,293z M76.3,292.1h22.6l-4.9-7.1l20.8-60.2l4.8-5.3H96.2l4,5.4L87,268.6l-11-43.4l2.2-5.5l-22.5-0.1l5.1,5.3    l20.5,59.8L76.3,292.1L76.3,292.1z"/></g>
    <polygon class="st3"
             points="426.4,220.5 449.4,220.5 445.7,225.7 445.6,286.6 450.7,292.4 426.4,292.4 431.2,286.2 431.1,225.8     "/>
    <g><path d="M451.7,292.8h-26.3l5.4-6.9l-0.2-60.1l-5.3-5.7h24.9L446,226l0,60.7L451.7,292.8L451.7,292.8z M427.3,291.9h22.4l-4.5-5    l0-61.2l3.3-4.7h-21.2l4.1,4.5l0.2,60.7L427.3,291.9L427.3,291.9z M251.6,178.5l-0.2-0.9c1-0.3,3.8-1.3,4.1-2.7    c0.3-1.5-5.2-4.5-6.6-4.9c-1.2-0.4-3.8-3.6-4.3-4.2l0.7-0.6c1.2,1.5,3.2,3.7,3.8,3.9c0.6,0.2,7.7,3.3,7.2,5.9    C256,177.3,252.1,178.3,251.6,178.5L251.6,178.5z M260.9,171c-4.3,0-5.4-5-5.4-5l-6-5.7l0.6-0.6l5.6,5.4c4.4-0.9,9.6,2.7,9.8,2.9    c0.2,0.3,0.4,0.9-0.1,1.5c-0.6,0.9-1.9,1.4-3.9,1.6C261.3,171,261.1,171,260.9,171L260.9,171z M256.4,165.8    c0.3,1.1,1.5,4.7,5.1,4.3c2.3-0.2,3-0.8,3.3-1.2C264.9,168.6,260.2,165.3,256.4,165.8L256.4,165.8z"/></g>
    <path class="st4"
          d="M212.1,346.1l8.2-6.9c0,0-1.8-3.8-8.4-3.6c-6.2-4.3-16.8-14.6-16.8-14.6l-5.3-14.4c0,0,4.3-1.3,5.3-4.8   c1-3.5-0.3-7.8-0.7-8.2c-0.4-0.4-4.8,0.7-6,2.5c-1.3,1.8-3.2,8.8-6.2,6.4c-2.9-2.4,0.4-5,0.4-5s2.9-3.6,2.8-5.6   c-0.1-1.9-3.9-7.8-4.3-8c-0.4-0.1-1.3,7.7-2.4,8.5s-2.7,4.3-4.9,2.4c-2.2-2,1.1-4.9,1.1-4.9s6.3-3.4,0.1-14.4   c-1.8,4.8-5.3,7.8-5.3,7.8s-1.7,2.9-3.2,0.4c-1.5-2.5,1.8-4.9,1.8-4.9s5.4-3.2,5.6-8c0.1-4.7-6.6-10.2-6.6-10.2s-0.4,8.8-2.5,9.9   c-2.1,1.1-2.9,2.9-5.3,1c-2.4-2,1.8-6.3,1.8-6.3s7.3-7.3,6.9-11.5c-0.4-4.2-0.8-4.9-0.8-4.9s-5.4,3.4-6.2,5   c-0.7,1.7-2.9,7.7-5.7,5.9c-2-2.2,1.7-6.6,1.7-6.6s2.7-2.9,2.5-4.2c-0.1-1.3-2.2-5-6.3-8.7c-0.6-1.1-0.8-5.6-0.8-5.6   s-3.1,3.6-2.9,5.6c0.1,2-0.3,5.9,0.1,10.2c0.4,4.3-3.4-1.4-3.4-1.4l0.7-14c0,0-5.3-6.4-11.7-8.8c2.4,3.5,2.2,6.9,2.2,6.9   s-2.7,5.7-2.7,7.3c0,1.5,3.1,8.3,8.8,12.7c-8.7-9.4-19.4-6.3-22.7-8.1c1.5,1.8,6.2,8.7,5.6,10.5c-0.6,1.8,8.2,5.6,8.2,5.6l9.4,0.1   c0,0,4.6,3.2,5,5.3c0.4,2.1-6.7-3.9-9.5-3.8c-2.8,0.1-10.2-1-10.2-1s4.5,4.2,4.6,6c0.1,1.8,2.1,6,4.7,7.1c2.7,1.1,9.8,1.5,9.8,1.5   s3.1-1.8,3.6,0.1c0.6,2-4.1,3.5-4.1,3.5s-4.8,0-6.3-1.3c-1.5-1.3-1.8-3.4-8.7-4.2c-0.7,5.7,3.8,11.6,3.8,11.6s18.9-1.5,18.7,2.5   c-0.1,4.1-15.7,0.4-16.2-0.8c-0.6-1.3,0.7,8,4.3,9.9c3.6,2,11.8,1,12.7,0.6c1-0.4,4.6-0.8,4.6,1.3c0,2.1-18.5,3.8-18.7,3.2   c-0.3-0.6,2.8,7.1,10.2,6.7c7.4-0.4,10.6-2.7,10.6-2.7s4.5-0.8,4.9,1c0.4,1.8-4.5,2.7-4.5,2.7s-11.7,0.3-12.2-0.3   c-0.4-0.6,2.7,7.4,10.9,7.3c6.2-0.6,6.6-3.2,7.8-3.6c1.8-0.4,5.7-0.4,6.3-0.3c0.6,0.1,10.4,7,10.4,7L212.1,346.1z"/>
    <g><path d="M212.1,346.5c-0.1,0-0.2,0-0.3-0.1l-24.9-25.2c-3.6-2.5-9.6-6.7-10.2-6.9c-0.2,0-4.1-0.2-6.1,0.3    c-0.2,0.1-0.5,0.3-0.8,0.7c-0.9,1-2.5,2.6-7.1,3c0,0,0,0,0,0c-4.4,0-7.2-2-8.8-3.6c-1.7-1.8-2.6-3.7-2.6-4.1c0-0.1,0-0.2,0.1-0.3    c-3.3-0.4-5.5-2-6.8-3.4c-1.5-1.6-2.4-3.4-2.4-3.7c0-0.2,0.2-0.4,0.4-0.4c0.2,0.1,0.4,0.1,1,0.1c5.1,0,16.8-1.7,17.3-2.9    c0-1.7-3.2-1.1-4-0.8c-0.6,0.3-3.3,0.7-6.2,0.7c-2.1,0-5-0.2-6.9-1.2c-3.5-1.9-4.9-9.7-4.7-10.5c0.2,0,0.9-0.2,1,0    c0.5,0.6,6.8,2.5,11.6,2.5c1.4,0,3.8-0.2,3.8-1.4c0-0.2-0.1-0.4-0.3-0.6c-0.6-0.6-2.8-1.7-10.5-1.7c-4,0-7.5,0.3-7.5,0.3    c-0.6-0.4-5-6.3-4.3-12.1c0-0.1,0.1-0.2,0.2-0.3c0.1-0.1,0.2-0.1,0.3-0.1c5.6,0.7,7,2.2,8.1,3.5c0.3,0.3,0.5,0.6,0.8,0.8    c1.2,0.9,4.7,1.2,6,1.2c0.9-0.3,4-1.7,3.6-2.9c-0.3-1.2-3,0.1-3,0.1c-0.5,0-7.5-0.4-10.2-1.5c-2.8-1.2-4.9-5.5-5-7.5    c-0.1-1.2-2.8-4.1-4.5-5.7c-0.1-0.1-0.2-0.3-0.1-0.5c0.1-0.2,0.3-0.3,0.5-0.2c0.1,0,6.5,1,9.6,1l0.7,0c1.5,0,3.9,1.4,6,2.7    c1.2,0.7,2.7,1.6,3.1,1.6c-0.5-1.5-3.8-4.1-5-4.9l-9.1-0.1c-2.9-1.2-9.3-4.2-8.7-6.2c0.4-1.5-3.7-7.9-5.5-10.1    c-0.1-0.2-0.1-0.4,0-0.6c0.1-0.2,0.4-0.2,0.6-0.1c0.9,0.5,2.5,0.6,4.5,0.7c3.5,0.2,8.2,0.5,12.8,3.1c-2.7-3.5-4.1-6.9-4.1-8.1    c0-1.6,2.4-6.8,2.7-7.5h0c0,0,0-3.2-2.2-6.4c-0.1-0.2-0.1-0.4,0-0.5c0.1-0.2,0.3-0.2,0.5-0.1c6.5,2.4,11.7,8.7,11.9,9l-0.6,14.3    c0.9,1.2,2.1,2.5,2.5,2.5c0,0,0.1-0.3,0-1.1c-0.3-2.8-0.2-5.3-0.1-7.4c0-1.2,0.1-2.1,0-2.9c-0.2-2.1,2.7-5.5,3-5.9    c0.1-0.1,0.3-0.2,0.5-0.1c0.2,0.1,0.3,0.2,0.3,0.4c0.1,1.2,0.4,4.6,0.8,5.4c4,3.6,6.2,7.4,6.3,8.8c0.2,1.4-2.2,4-2.6,4.5    c-0.9,1.1-3.1,4.4-1.7,6c0.2,0.1,0.4,0.2,0.7,0.2c1.9,0,3.5-4.1,4.1-5.6c0.9-2.1,5.9-5.2,6.5-5.6c0.1-0.1,0.2-0.1,0.3-0.1    c0.1,0,0.2,0.1,0.3,0.2c0.1,0.1,0.5,1,0.9,5.1c0.4,4.4-6.7,11.5-7,11.8c0,0-2.5,2.6-2.4,4.5c0,0.5,0.2,0.8,0.6,1.1    c1.4,1.1,2.2,0.8,3.4-0.1c0.4-0.3,0.9-0.6,1.4-0.9c1.4-0.7,2.1-6.2,2.3-9.6c0-0.2,0.1-0.3,0.3-0.4c0.2-0.1,0.3,0,0.5,0.1    c0.3,0.2,6.9,5.7,6.7,10.6c-0.2,5-5.6,8.2-5.8,8.3c-0.1,0.1-3,2.2-1.7,4.3c0.9,1.5,2.2,0.1,2.4-0.4c0.1-0.1,3.5-3.2,5.3-7.8    c0.1-0.2,0.2-0.3,0.4-0.3c0.2,0,0.3,0.1,0.4,0.2c2.5,4.5,3.3,8.3,2.4,11.3c-0.8,2.7-2.6,3.7-2.7,3.7l0,0c0,0-1.7,1.5-1.7,2.9    c0,0.5,0.2,0.9,0.6,1.3c1.3,1.1,2.4-0.2,3.3-1.3c0.4-0.5,0.7-0.8,1-1.1c0.5-0.4,1.2-3.7,1.5-5.5c0.5-2.6,0.6-3.1,1.1-3.1    c0.9,0.3,4.7,6.5,4.8,8.4c0.2,2.1-2.6,5.5-2.9,5.9c-0.1,0.1-1.5,1.2-1.5,2.6c0,0.6,0.3,1.3,1,1.8c1.8,1.5,3.3-1.9,4.4-4.3    c0.4-0.9,0.8-1.6,1.1-2.1c1.2-1.7,4.7-2.8,6-2.8c0.1,0,0.6,0.1,0.7,0.2c0.6,0.6,1.8,5.2,0.8,8.7c-0.8,3-4,4.5-5.2,4.9l5.2,14l0,0    c0.1,0,10.6,10.1,16.6,14.3c0.1,0,0.1,0,0.2,0c6.4,0,8.2,3.6,8.3,3.8l-8.4,7.4C212.3,346.5,212.2,346.5,212.1,346.5L212.1,346.5z     M175.1,313.3c0.4,0,1.5,0,1.8,0.1c0.6,0.2,7.5,5,10.5,7.1l24.7,24.9l7.9-6.6l0,0c-0.3,0-2.1-2.9-7.7-2.9c-0.1,0-0.5,0-0.6-0.1    c-6.1-4.3-16.7-14.5-16.8-14.6l-5.4-14.6c0-0.1,0-0.2,0-0.4c0.1-0.1,0.2-0.2,0.3-0.2c0,0,4.1-1.2,5-4.5c0.9-3.3-0.3-7.4-0.6-7.8    c-1.1,0.1-4.3,1-5.3,2.5c-0.3,0.4-0.6,1.2-1,2c-1.3,2.9-3.5,6.4-5.8,4.6c-0.9-0.7-1.4-1.6-1.4-2.5c0-1.8,1.7-3.1,1.8-3.2    c0.7-0.9,2.7-3.8,2.6-5.2c-0.1-1.6-3.1-6.4-4-7.4c0.2,0.4,0,1.4-0.2,2.3c-0.6,3.2-1.1,5.5-1.8,6c-0.2,0.2-0.5,0.6-0.9,0.9    c-1.1,1.4-2.9,2.9-4.6,1.4c-0.6-0.5-0.9-1.2-0.9-1.9c0-1.8,2-3.6,2-3.6c0.1-0.1,1.7-1,2.4-3.3c0.8-2.6,0.1-5.9-1.9-9.7    c-1.9,4.3-4.9,7-5.1,7.1c0,0.1-0.9,1.6-2.1,1.6c-0.7,0-1.3-0.4-1.7-1.2c-1.4-2.3,0.7-4.6,1.9-5.5c0.1,0,5.3-3.2,5.4-7.6    c0.1-3.6-4.1-7.8-5.7-9.3c-0.2,2.4-0.8,8.4-2.7,9.4c-0.5,0.3-0.9,0.6-1.3,0.9c-1.3,0.9-2.7,1.6-4.5,0.1c-0.5-0.5-0.9-1-0.9-1.8    c-0.1-2.3,2.6-5.1,2.7-5.2c0.1-0.1,7.1-7.2,6.7-11.1c-0.2-2.5-0.5-3.7-0.6-4.3c-1.7,1.1-5,3.4-5.5,4.5c-1.1,2.7-3.6,7.9-6.4,6.1    c-2.3-2.6,1.4-7,1.6-7.2c1.1-1.2,2.5-3.1,2.4-3.9c-0.1-1.1-2.1-4.7-6.1-8.4c-0.5-0.9-0.8-3.3-0.9-4.8c-1,1.3-2.2,3.3-2.1,4.4    c0.1,0.7,0,1.7,0,2.9c-0.1,2-0.1,4.5,0.1,7.3c0.1,1,0,1.5-0.3,1.9c-0.1,0.1-0.5,0.3-0.6,0.3c-1.1,0-2.7-2.2-3.3-3.2l0.6-14.3    c0,0,0,0,0,0c-0.1,0-4.6-5.3-10.2-7.9c1.7,3.1,1.6,5.8,1.6,5.9c-0.8,1.7-2.7,6.1-2.7,7.3c0,1.1,2,5.7,5.8,9.8    c0.9,0.7,1.9,1.6,2.9,2.6c0.2,0.2,0.2,0.4,0,0.6c-0.2,0.2-0.4,0.2-0.6,0.1c-1.1-0.8-2-1.7-2.9-2.7c-5.2-4-10.8-4.3-14.8-4.6    c-1.3-0.1-2.5-0.2-3.4-0.3c1.9,2.5,5.3,7.9,4.8,9.7c-0.2,0.8,3.5,3.1,8,5l9.2,0.1c0.7,0.4,5,3.5,5.5,5.7c0,0.1,0,0.6-0.1,0.7    c-0.5,0.6-1.9-0.1-4.1-1.4c-1.9-1.1-4.3-2.5-5.6-2.5l-0.7-0.4v0.4c-2.3,0-6.3-0.5-8.4-0.8c1.4,1.4,3.7,3.9,3.8,5.3    c0.1,1.8,2.1,5.7,4.5,6.8c2.5,1,9.2,1.5,9.6,1.5c-0.1,0,1.2-0.8,2.4-0.8c0.9,0,1.5,0.4,1.7,1.2c0.7,2.3-3.8,3.9-4.3,4    c-0.3,0.1-5.1,0-6.7-1.3c-0.3-0.3-0.6-0.6-0.9-0.9c-1-1.2-2.2-2.5-7.1-3.1c-0.4,5.1,3.3,10.3,3.7,10.8c0.1-0.2,3.4-0.4,7.2-0.4    c6.1,0,9.9,0.7,11.2,2c0.4,0.4,0.5,0.8,0.5,1.3c0,1.5-1.6,2.3-4.7,2.3c-3.7,0-9.5-1.2-11.6-2.3c0.3,2.1,1.7,7.4,4.2,8.7    c1.7,0.9,4.5,1.1,6.5,1.1c3,0,5.4-0.4,5.8-0.6c0.4-0.2,1.3-0.4,2.3-0.4c1.9,0,3,0.7,3,2c0,2.7-17,3.8-18.2,3.8c-0.1,0-0.3,0-0.4,0    c0.8,1.3,3.7,5.7,9,5.7c7.7-0.4,10.9-2.6,11-2.6c0.2-0.1,1.2-0.3,2.4-0.3c1.9,0,2.9,0.5,3.2,1.5c0.1,0.4,0,0.8-0.2,1.1    c-0.9,1.4-4.2,2-4.6,2.1c-0.1,0-3,0.1-6,0.1c-3.2,0-4.8-0.1-5.7-0.2c0.8,1.4,3.8,6.2,10.1,6.2c4.5-0.4,5.8-1.8,6.7-2.7    c0.4-0.4,0.7-0.7,1.2-0.9C171.7,313.4,173.7,313.3,175.1,313.3L175.1,313.3z M152.9,310.3c0.8,0.1,2.3,0.2,5.2,0.2    c3,0,5.9-0.1,5.9-0.1c0.9-0.2,3.4-0.8,4-1.7c-0.1-1.2-1.4-1.3-2.2-1.3c-1.1,0-2.1,0.2-2.1,0.2    C163.7,307.6,160.4,309.9,152.9,310.3C152.9,310.3,152.9,310.3,152.9,310.3L152.9,310.3z"/></g>
    <g><path d="M211.9,346.4c-0.1,0-0.3-0.1-0.4-0.2c-2-3.1-2.7-5.8-2.1-7.9c0.6-2.1,2.3-2.9,2.4-2.9c0.2-0.1,0.5,0,0.6,0.2    c0.1,0.2,0,0.5-0.2,0.6c-0.1,0-1.4,0.7-1.9,2.4c-0.5,1.9,0.1,4.3,2,7.2c0.1,0.2,0.1,0.5-0.1,0.6    C212.1,346.4,212,346.4,211.9,346.4L211.9,346.4z M161.8,315c-2.6,0-3.7-1-3.8-1.1c-0.2-0.2-0.2-0.4,0-0.6c0.2-0.2,0.4-0.2,0.6,0    c0,0,2.7,2.3,9.2-0.6c0.2-0.1,0.5,0,0.6,0.2c0.1,0.2,0,0.5-0.2,0.6C165.4,314.6,163.3,315,161.8,315L161.8,315z M154.7,306.6    c-2,0-3.3-0.5-3.9-0.8c-0.2,0-0.6-0.3-0.6-0.5c0-0.2,0.1-0.5,0.3-0.5c0.1,0,0.6,0.2,0.6,0.2c1.1,0.5,4.6,2,11.6-1.7    c0.2-0.1,0.5,0,0.6,0.2c0.1,0.2,0,0.5-0.2,0.6C159.5,306,156.7,306.6,154.7,306.6L154.7,306.6z M182.6,306.5c-0.5,0-1,0-1.5-0.1    c-0.2,0-0.4-0.3-0.4-0.5c0-0.2,0.3-0.4,0.5-0.4c6.6,1.2,9.3-6.4,9.4-6.7c0.1-0.2,0.3-0.4,0.6-0.3c0.2,0.1,0.4,0.3,0.3,0.6    C191.5,299.1,189,306.5,182.6,306.5L182.6,306.5z M177.6,298.9c-0.2,0-0.4-0.2-0.4-0.4c0-0.2,0.2-0.5,0.4-0.5    c3.2-0.1,4.6-6.6,4.6-6.6c0.1-0.2,0.3-0.4,0.5-0.3c0.2,0,0.4,0.3,0.3,0.5C183,291.9,181.5,298.8,177.6,298.9    C177.6,298.9,177.6,298.9,177.6,298.9L177.6,298.9z M151.5,296.4c-5.3,0-7.4-2.7-7.5-2.8c-0.2-0.2-0.1-0.5,0.1-0.6    c0.2-0.2,0.5-0.1,0.6,0.1c0.1,0.2,3.3,4.1,11.7,1.8c0.2,0,0.5,0.1,0.5,0.3c0.1,0.2-0.1,0.5-0.3,0.5    C154.6,296.2,152.9,296.4,151.5,296.4L151.5,296.4z M169.7,289.3c-0.2,0-0.4-0.2-0.4-0.4c0-0.2,0.1-0.5,0.4-0.5    c2.7-0.5,4.1-4.5,4.1-5c0-0.2,0.1-0.7,0.5-0.4c0.2,0,0.4,0.2,0.4,0.4C174.7,284.1,173.2,288.7,169.7,289.3    C169.8,289.3,169.8,289.3,169.7,289.3L169.7,289.3z M146.7,284.3c-6.2,0-9.6-3.5-9.8-3.7c-0.2-0.2-0.2-0.5,0-0.6    c0.2-0.2,0.5-0.2,0.6,0c0,0,4.1,4.3,11.5,3.2c0.2,0,0.5,0.1,0.5,0.4c0,0.2-0.1,0.5-0.4,0.5C148.3,284.2,147.5,284.3,146.7,284.3    L146.7,284.3z M163.5,278.2c-0.3,0-0.7-0.1-0.7-0.5c0-0.2,0.3-0.7,0.5-0.4c1.9,0,3.2-0.5,4.2-1.4c1.7-1.8,1.6-4.8,1.5-5.8l0.4-0.3    l0.5,0.2c0.1,1.1,0.3,4.4-1.8,6.5C167,277.7,165.5,278.2,163.5,278.2L163.5,278.2z M147.9,272.4c-4.3,0-12.4-5-12.8-5.3    c-0.2-0.1-0.3-0.4-0.1-0.6c0.1-0.2,0.4-0.3,0.6-0.1c0.1,0.1,8.8,5.4,12.7,5.1c0.2,0,0.5,0.2,0.5,0.4c0,0.2-0.2,0.5-0.4,0.5    C148.2,272.4,148,272.4,147.9,272.4L147.9,272.4z M157.1,263.1c-0.1,0-0.3,0-0.4,0c-0.2,0-0.4-0.2-0.4-0.5c0-0.2,0-0.4,0.5-0.4    c5.1,0.2,7.2-4.9,7.3-4.9c0.1-0.2,0.4-0.3,0.6-0.2c0.2,0.1,0.3,0.4,0.2,0.6C164.8,257.7,162.5,263.1,157.1,263.1L157.1,263.1z     M142.4,258.4c-4.7,0-8.2-1.1-10.2-3.2c-2-2.1-1.9-4.4-1.9-4.5c0-0.2,0.3-0.4,0.5-0.4c0.2,0,0.4,0.2,0.4,0.5c0,0.1-0.1,2,1.6,3.8    c2,2.1,5.8,3,10.9,2.8c0.2-0.1,0.5,0.2,0.5,0.4c0,0.2-0.2,0.5-0.4,0.5C143.4,258.4,142.9,258.4,142.4,258.4L142.4,258.4z M151,256    c-0.2,0-0.4-0.1-0.4-0.3c-0.1-0.2,0-0.5,0.3-0.6c2.1-0.7,3.4-1.8,3.9-3.2c0.9-2.6-1-5.5-1-5.5c-0.1-0.2-0.1-0.5,0.1-0.6    c0.2-0.1,0.5-0.1,0.6,0.1c0.1,0.1,2.1,3.3,1.1,6.3c-0.6,1.7-2.1,3-4.4,3.8C151.1,256,151,256,151,256L151,256z M146.4,253.5    c-0.1,0-0.2,0-0.2-0.1c-6.8-4.2-6.7-17.3-6.6-17.9c0-0.2,0.2-0.3,0.5-0.4c0.2,0,0.4,0.2,0.4,0.5c0,0.1-0.2,13.2,6.2,17.1    c0.2,0.1,0.3,0.4,0.2,0.6C146.7,253.4,146.5,253.5,146.4,253.5L146.4,253.5z"/></g>
    <path class="st1"
          d="M314.8,267c0,0,5.5,5.3,5.6,6.4c0.1,1.1,1.4,6.3,2.8,7c1.4,0.8,7,5.3,7.8,7c0.8,1.8,5.7,9.2,5.7,9.2   s4.6,9.5,7.7,10.2s11.8-0.6,13.5,3.6c1.8,4.2,1.3,10.2,1.3,10.2s-2.1,1.9-3.1,0.8c-1-1.1-2.8,5.5-5.8,3.6   c-4.2-8.9-15.1-7.5-15.1-7.5s2.4-3.7-7.4-7c-15.3,2.6-19.8-13.3-19.8-13.3l-8.7-7.5L314.8,267z"/>
    <g><path d="M351.4,325.9c-0.4,0-0.9-0.1-1.3-0.4c-3.1-6.5-9.6-7.5-13.2-7.5c-1,0-1.7,0.1-1.7,0.1l-0.9,0.1l0.5-0.8c0,0,0.4-0.7,0-1.6    c-0.4-1.2-2-3-7.2-4.7c-1,0.2-2.1,0.3-3.2,0.3c-12.8,0-16.9-13.8-16.9-13.9l-8.6-7.3l15.6-23.8l0.4,0.4c1.3,1.3,5.6,5.5,5.7,6.7    c0.1,1.3,1.5,6.1,2.6,6.7c1.4,0.7,7.2,5.3,8,7.2c0.7,1.7,5.6,9.1,5.7,9.2c1.3,2.6,5.1,9.4,7.4,10c0.8,0.2,2.1,0.3,3.6,0.3    c3.9,0.1,8.8,0.3,10.2,3.6c1.8,4.2,1.4,10.2,1.4,10.4c-0.4,0.6-2.8,2.2-3.9,1c-0.1,0.1-0.5,0.7-0.8,1.2    C354.2,324.3,353,325.9,351.4,325.9L351.4,325.9z M350.8,325c0.1,0,0.4,0.1,0.7,0.1c1.1,0,2.1-1.4,2.8-2.5    c0.6-0.9,1.1-1.6,1.7-1.6l0.6,0.3c1.2,0.2,2.1-0.5,2.4-0.8c-0.1,0,0.2-5.8-1.4-9.7c-1.1-2.7-5.7-2.9-9.4-3    c-1.5-0.1-2.9-0.1-3.8-0.3c-3.2-0.8-7.5-9.5-8-10.5c-0.2-0.3-4.9-7.5-5.7-9.2c-0.7-1.6-6.2-6-7.6-6.8c-1.7-0.9-3-6.6-3.1-7.4    c-0.1-0.6-2.6-3.3-5.1-5.7l-15.1,22.3l8.6,6.9c0.2,0.4,4.7,15.7,19.4,13.2c4.6,1.5,7.3,3.3,8,5.3c0.2,0.7,0.2,1.2,0.1,1.6    C338.2,317,347,316.9,350.8,325C350.8,325,350.8,325,350.8,325L350.8,325z"/></g>
    <polygon class="st1" points="306,289.7 312.8,292.9 312.2,287  "/>
    <g><polygon points="313.3,293.6 305.8,290.1 306.2,289.3 312.3,292.1 311.8,287.1 312.7,287 313.3,293.6   "/></g>
    <polygon class="st1" points="315.6,288.8 321.9,291.9 319.4,286.8  "/>
    <g><polygon points="322.9,292.9 315.4,289.2 315.8,288.4 320.9,290.9 319,287 319.8,286.6 322.9,292.9   "/></g>
    <polygon class="st1" points="315.3,280.6 321.5,283.8 318.6,277.5  "/>
    <g><polygon points="322.4,284.9 315.1,280.9 315.5,280.2 320.5,282.8 318.2,277.7 319,277.3 322.4,284.9   "/></g>
    <path class="st1" d="M325.1,310.8c0,0-7-9.2-6.9-9.2s12,2.3,12,2.3l-4.4-9.5l10.9,2.9L325.1,310.8z"/>
    <g><path d="M324.7,311c-7.1-9.4-7.1-9.4-7-9.7c0.4-0.2,0.6-0.3,11.6,1.9l-4.4-9.5l11.8,3.1l-0.2,0.9l-9.9-2.6l4.4,9.4l-0.9-0.2    c0,0-8-1.6-10.9-2.1c1.3,1.7,4.2,5.6,6.3,8.3L324.7,311L324.7,311z"/></g>
    <path class="st1" d="M345.3,312.2c0,0,6.9,1.5,6.7,13.1L345.3,312.2z"/>
    <g><path d="M352.4,325.3l-0.9,0c0.2-11-6.1-12.6-6.3-12.6l0.2-0.9C345.7,311.8,352.7,313.5,352.4,325.3L352.4,325.3z"/></g>
    <path class="st1" d="M348.9,310.4c0,0,7.5-0.4,7,11.2L348.9,310.4z"/>
    <g><path d="M356.4,321.7l-0.9,0c0.2-4.2-0.7-7.2-2.5-9.1c-1.8-1.8-4-1.7-4-1.7l-0.1-0.9c0.1,0,2.6-0.1,4.7,1.9    C355.6,313.9,356.6,317.2,356.4,321.7L356.4,321.7z"/></g>
    <path class="st1"
          d="M220.1,268.5c0,0-5.5,5.3-5.6,6.4c-0.1,1.1-2.3,5.6-3.8,6.3c-1.4,0.8-6.3,5.7-7.1,7.5   c-0.8,1.8-5.5,9.4-5.5,9.4s-5.4,7.9-8.5,8.6c-3.8,0.3-11,1-12.7,5.2c-1.8,4.2,1,10.6,3,10.6c3.1,1.4,4.5,2.8,5.5,1.7   c1.7,0.5,0.7,1.9,3.8,0c-2.3-3-2.1-5.9,0.3-6.6c2.3-0.8,6.1,2.8,6.1,2.8s1.4-6.5,11.2-9.8c15.3,2.6,19.4-9.7,20.4-12.6   c2.4-3.3,6.2-4.1,9.2-6.2L220.1,268.5z"/>
    <g><path d="M187.1,325.6c-0.5,0-0.8-0.3-1-0.5c-0.2-0.2-0.4-0.4-0.8-0.5c0.1,0.2-0.3,0.4-0.7,0.4c-0.7,0-1.5-0.4-2.5-1    c-0.6-0.3-1.4-0.7-2.3-1.1c-0.5,0-1.3-0.5-2-1.6c-1.6-2.4-2.5-6.6-1.2-9.6c1.9-4.6,9.7-5.2,13.1-5.5c2.3-0.6,6.7-6.3,8.2-8.4    c0-0.1,4.7-7.7,5.4-9.4c0.8-1.9,5.9-6.9,7.3-7.7c1.3-0.7,3.4-5,3.5-6c0.1-1.2,4.4-5.4,5.7-6.7l0.4-0.4l16.9,24.1l-0.4,0.3    c-1,0.7-2.2,1.3-3.3,1.8c-2.2,1.1-4.3,2.2-5.8,4.3c-3.1,8.8-8.8,13.2-16.7,13.2h0c-1.3,0-2.7-0.1-4.2-0.4    c-9.2,3.2-10.6,9.4-10.7,9.4l-0.2,0.8l-0.6-0.5c0,0-3-2.8-5.1-2.8c-1.3,0.3-1.9,0.8-2.1,1.5c-0.4,1.2,0.2,2.9,1.4,4.5l0.3,0.4    l-0.4,0.3C188.2,325.4,187.6,325.6,187.1,325.6L187.1,325.6z M185.5,323.8c0.7,0.2,1,0.5,1.2,0.7l0.4,0.2c0.2,0,0.7-0.2,1.5-0.6    c-1.2-1.7-1.7-3.5-1.3-4.9c0.3-1,1-1.7,2-2c1.8-0.6,4.9,1.4,6.1,2.4c0.7-1.8,3.1-6.7,11.2-9.4c1.7,0.2,3,0.3,4.2,0.3h0    c11.3,0,14.7-9.4,15.9-12.5c1.8-2.6,4.1-3.7,6.3-4.9c0.9-0.5,1.9-1,2.8-1.5L220,269.2c-2.4,2.4-5,5.1-5.1,5.7    c-0.1,1.1-2.4,5.8-4,6.7c-1.3,0.7-6.2,5.6-6.9,7.3c-0.8,1.8-5.3,9.2-5.5,9.5c-0.2,0.3-5.6,8-8.8,8.8c-3.3,0.3-10.7,0.9-12.4,5    c-1.1,2.7-0.3,6.6,1.1,8.7c0.5,0.8,1.1,1.2,1.5,1.2c1.1,0.4,1.9,0.8,2.5,1.2c0.9,0.5,1.6,0.9,2.1,0.9l0.2-0.2L185.5,323.8    L185.5,323.8z"/></g>
    <g><path d="M184.9,324.5c-0.2,0-0.4-0.1-0.4-0.3c-1.2-3.6-1-6.6,0.3-8.9c1.8-3,5-3.6,5.1-3.6c0.2-0.1,0.5,0.1,0.5,0.4    c0,0.2-0.1,0.5-0.4,0.5c0,0-3,0.6-4.5,3.2c-1.2,2-1.3,4.8-0.2,8.2c0.1,0.2-0.1,0.5-0.3,0.6C185,324.5,185,324.5,184.9,324.5    L184.9,324.5z M210,311.2c-0.1,0-0.1,0-0.2,0c-0.2-0.1-0.3-0.4-0.2-0.6c0.8-1.5,3.6-5.2,5.3-7.4c0.2-0.2,0.3-0.4,0.4-0.6    c-2.8,0.6-10,2.1-10,2.1c-0.2,0-0.3,0-0.4-0.2c-0.1-0.1-0.1-0.3-0.1-0.5l3.3-8.6l-8.9,1.8c-0.3,0-0.5-0.1-0.5-0.4    c0-0.2,0.1-0.5,0.4-0.5l9.7-1.9c0.2,0,0.3,0,0.4,0.2c0.1,0.1,0.1,0.3,0.1,0.5l-3.3,8.5c10.3-2.1,10.4-2.1,10.5-2.1    c0.5,0.5,0.5,0.5-0.8,2.2c-1.6,2-4.5,5.8-5.2,7.3C210.4,311.1,210.2,311.2,210,311.2L210,311.2z M222.1,293.9    c-0.1,0-0.2,0-0.2-0.1c-0.1-0.1-0.2-0.3-0.2-0.4l0.5-5c0-0.2,0.2-0.4,0.5-0.4c0.2,0,0.4,0.2,0.4,0.5l-0.5,4.2l6.3-3.3    c0.2-0.1,0.5,0,0.6,0.2c0.1,0.2,0,0.5-0.2,0.6l-7.1,3.7C222.2,293.9,222.2,293.9,222.1,293.9L222.1,293.9z M213.1,292.3    c-0.1,0-0.2,0-0.3-0.1c-0.1-0.1-0.2-0.4-0.1-0.5l3.1-5.2c0.1-0.2,0.4-0.3,0.6-0.2c0.2,0.1,0.3,0.4,0.2,0.6l-2.3,4l5.4-2.5    c0.2-0.1,0.5,0,0.6,0.2c0.1,0.2,0,0.5-0.2,0.6l-6.7,3.1C213.2,292.3,213.2,292.3,213.1,292.3L213.1,292.3z M214.2,283.6    c-0.1,0-0.2,0-0.3-0.1c-0.1-0.1-0.2-0.3-0.1-0.5l2.1-4.2c0.1-0.2,0.4-0.3,0.6-0.2c0.2,0.1,0.3,0.4,0.2,0.6l-1.5,3.2l4.7-2    c0.2-0.1,0.5,0,0.6,0.2c0.1,0.2,0,0.5-0.2,0.6l-5.8,2.5C214.3,283.6,214.3,283.6,214.2,283.6L214.2,283.6z"/></g>
    <g><path d="M180,322.5c-1.1-4-0.9-7.2,0.7-9.3c2-2.8,5.5-2.9,5.7-2.9l0,0.9c0,0-3.2,0.1-5,2.5c-1.4,1.9-1.6,4.8-0.6,8.5L180,322.5    L180,322.5z"/></g>
    <g><path d="M305.7,330.1c-0.3,0-0.5-0.2-0.5-0.4c0-0.2-4.9-19.1-21.2-17.7c-0.4,0-0.6-0.2-0.6-0.5c0-0.3,0.2-0.6,0.4-0.6    c1.6-0.3,2.7-1.1,3.3-2.2c1.3-2.5-0.1-6-0.1-6.1l0.5-0.2l0-0.6c0.2,0,0.8-0.1,1.2,2.9c0.4,2.8-0.3,4.9-2,6.2    c15,0.9,19.5,18.4,19.6,18.6c0.1,0.3-0.1,0.6-0.4,0.7C305.8,330.1,305.8,330.1,305.7,330.1L305.7,330.1z"/></g>
    <g><path d="M259.3,357.9c-0.2,0-0.4-0.2-0.4-0.4c-0.1-1.3-1.4-31.2,5-36.4c0.4-0.3,0.8-0.5,1.2-0.6c-0.2-0.2-0.4-0.4-0.6-0.6    c-0.1,0.1-0.3,0.1-0.5,0c-0.2-0.1-0.4-0.2-0.6-0.3c-0.9-0.4-1.7-0.4-2.5,0c-6.9,3.3-9.9,32.4-10,32.7c0,0.2-0.2,0.4-0.5,0.4    c-0.2,0-0.4-0.2-0.4-0.5c0.1-1.2,3.1-29.8,10.5-33.4c0.4-0.2,0.8-0.3,1.3-0.4c-0.6-0.5-1-1.1-1.4-1.7c-0.1,0-0.2,0.1-0.3,0.1    c-0.1,0-0.1,0-0.2,0c0,0,0,0-0.1,0.1c-0.4,0.4-14.5,13.6-16.8,29c0,0.2-0.3,0.4-0.5,0.4c-0.2,0-0.4-0.3-0.4-0.5    c2-13.9,13.6-26.4,16.7-29.1c-0.8-0.2-1.5-0.5-2-0.9c-2.1,1.3-18.2,12.2-19.3,25.7c0,0.2-0.2,0.4-0.5,0.4c-0.2,0-0.4-0.2-0.4-0.5    c1.1-13.3,16.1-23.9,19.6-26.2c-0.3-0.3-0.6-0.6-0.8-1c0,0,0,0,0,0c-0.1,0.1-0.3,0.1-0.3,0.1c-0.8-0.1-1.4-0.3-2-0.6c0,0,0,0,0,0    c-0.2,0.1-20.3,11.9-19.4,22.4c0,0.2-0.2,0.5-0.4,0.5c-0.3,0-0.5-0.2-0.5-0.4c-0.9-10.4,17.1-21.6,19.6-23.1    c-0.1-0.1-0.1-0.1-0.2-0.2c-0.1-0.2-0.3-0.4-0.4-0.6c-0.1,0.1-0.3,0.1-0.3,0.1c-1.4,0-2.5-0.5-3.3-1.3c0,0-0.1,0-0.2,0.1    c-0.1,0-15,3-18.7,18.9c-0.1,0.2-0.3,0.4-0.5,0.3c-0.2-0.1-0.4-0.3-0.3-0.5c3.5-15.3,17-19,19.1-19.5c-1.5-2.4-1-6.1-0.7-7.7    c0-0.5,0.9-0.5,0.9,0c0,0,0,0.2,0,0.2c-0.3,1.5-0.8,5.3,0.8,7.4c0.7,0.8,1.6,1.3,2.9,1.3c-0.4-1.2-0.6-2.9-0.1-5.5    c0-0.5,0.9-0.6,0.9-0.1c0,0,0,0.2,0,0.3c-0.6,3.6,0,5.3,0.7,6.2c0.5,0.6,1.2,1,2.2,1.1c-0.9-2.5,0.3-5.4,0.3-5.5    c0.1-0.2,0.4-0.3,0.6-0.2c0.2,0.1,0.3,0.4,0.2,0.6c0,0-1.3,3.2,0,5.5c0.2,0.4,0.5,0.8,0.9,1.1c0.1,0,0.1,0.1,0.2,0.1    c0.7,0.5,1.6,0.9,2.7,1c-1.2-2.6-0.5-5.2-0.5-5.2c0.1-0.2,0.3-0.4,0.5-0.3c0.2,0.1,0.4,0.3,0.3,0.5c-0.1,0.2-1.2,5.1,3.5,7.9    c-1-2.4,0-5.6,0.1-5.7c0.1-0.2,0.3-0.4,0.6-0.3c0.2,0.1,0.4,0.3,0.3,0.6c0,0-1.1,3.3,0.1,5.4c0.4,0.8,1.2,1.4,2.2,1.7    c0,0,0,0,0.1,0c0.1,0,0.1,0,0.2,0.1c0-0.1,0.1-0.1,0.2-0.2c0.3-0.1,0.5-0.3,0.8-0.3c3.8-1.9,2.6-6.8,2.5-7    c-0.1-0.2,0.1-0.5,0.3-0.5c0.2,0,0.5,0.1,0.5,0.3c0,0.1,1.1,4.5-1.6,7.1c0.4,0.1,0.8,0.2,1.2,0.5c6.8,4.3,5.4,35.8,5.4,37.1    c0,0.2-0.3,0.5-0.5,0.4c-0.2,0-0.4-0.2-0.4-0.5c0-0.3,1.4-32.3-5-36.3c-0.6-0.4-1.3-0.5-2.1-0.3c-0.2,0.1-0.5,0.2-0.8,0.3    c-0.2,0.1-0.3,0-0.4-0.1c-0.1,0.2-0.3,0.3-0.5,0.2c0,0,0,0-0.1,0c-0.8-0.2-1.6-0.1-2.3,0.5c-6.1,4.8-4.7,35.3-4.7,35.6    C259.7,357.7,259.5,357.9,259.3,357.9C259.3,357.9,259.3,357.9,259.3,357.9L259.3,357.9z M285.2,352.2c-0.2,0-0.4-0.2-0.4-0.4    c0-0.3-3.3-32.2-12.7-33.2c-0.2,0-0.4-0.2-0.4-0.4c0-0.2,0.1-0.4,0.3-0.5c1.3-0.4,2.2-1.1,2.6-2.1c0.8-1.9-0.4-4.4-0.5-4.4    c-0.1-0.2,0-0.5,0.2-0.6c0.2-0.1,0.5,0,0.6,0.2c0.1,0.1,1.4,2.7,0.6,5c0,0,0,0,0,0c0,0,0.1,0.1,0.2,0.2c0,0,0.1-0.1,0.2-0.1    c0.1,0,0.3-0.1,0.4-0.1c3.8-1,3.6-5.3,3.2-7.8c0-0.5,0.8-0.7,0.9-0.3c0.4,2.2,0.3,4-0.2,5.5c4.4-2.7,3.1-7.9,3.1-8    c-0.1-0.2,0.1-0.5,0.3-0.5c0.2-0.1,0.5,0.1,0.5,0.3c0,0.1,1.3,5.3-2.7,8.5c17,4.4,21.2,22.2,21.2,22.4c0.1,0.2-0.1,0.5-0.3,0.5    c-0.2,0-0.5-0.1-0.5-0.3c0-0.2-4.3-18.2-21.5-22c-0.1,0-0.2-0.1-0.3-0.2c-0.3,0.7-0.8,1.3-1.4,1.8c10.4,1.1,20.1,24.4,20.5,25.5    c0.1,0.2,0,0.5-0.2,0.6c-0.2,0.1-0.5,0-0.6-0.2c-0.1-0.3-11.3-27-21.7-24.9c0,0,0,0,0,0c3.7,3.7,16.9,17.9,16.8,28.9    c0,0.2-0.2,0.4-0.4,0.4h0c-0.2,0-0.4-0.2-0.4-0.5c0.1-11.5-15.4-27.2-17.2-29c-0.4,0.6-0.9,1.1-1.6,1.4c9.1,3.5,12,32.4,12.2,33.7    C285.7,351.9,285.5,352.2,285.2,352.2C285.3,352.2,285.2,352.2,285.2,352.2L285.2,352.2z"/></g>
    <g><path d="M267.5,314.9l-0.2-0.1c-42.5-19.4-64.9-66.5-52-109.4l0.2-0.5l0.5,0.3c0.1,0.1,14,7.7,24.3,7.7l0.8,0    c10.4-0.4,26.1-7.2,26.3-7.2c0.6,0.1,14.5,7.9,25.7,6.8c11.2-1.1,27-7.2,27.2-7.2l0.5-0.2l0.1,0.5c9.4,46.9-11.5,89.8-53.1,109.3    L267.5,314.9L267.5,314.9z M216,206.2c-12.4,42.3,9.7,88.5,51.5,107.7c41-19.3,61.6-61.5,52.5-107.7c-2.8,1-16.7,6.1-26.9,7.1    c-11.4,1.1-25.6-6.8-25.8-6.9c0.1,0.1-15.7,6.9-26.2,7.3l-0.8,0C230.7,213.7,218.6,207.6,216,206.2L216,206.2z"/></g>
    <path class="st5"
          d="M215.7,205.6c0,0,14.8,8.2,25.3,7.7c10.6-0.4,26.4-7.3,26.4-7.3s14.1,7.9,25.6,6.8c11.4-1.1,27.3-7.3,27.3-7.3   c9.5,47.3-12.1,89.8-52.9,108.8C224.2,294.6,203.2,247.1,215.7,205.6L215.7,205.6z"/>
    <g><path d="M267.5,315l-0.2-0.1c-42.6-19.5-65-66.5-52.1-109.5l0.2-0.7l0.6,0.3c0.1,0.1,14,7.7,24.2,7.7l0.8,0    c10.4-0.4,26.1-7.2,26.2-7.2c0.7,0.1,14.6,7.8,25.7,6.8c11.2-1.1,27-7.2,27.2-7.2l0.6-0.2l0.1,0.7c9.4,47-11.5,89.9-53.2,109.5    L267.5,315L267.5,315z M216,206.4c-12.3,42.2,9.7,88.2,51.4,107.4c40.9-19.3,61.4-61.4,52.5-107.5c-3.1,1.1-16.7,6.1-26.8,7.1    c-11.5,1.2-25.3-6.6-25.9-6.9c-0.2,0.3-15.6,6.9-26.1,7.3l-0.9,0C230.8,213.8,218.9,207.9,216,206.4L216,206.4z"/></g>
    <path class="st6"
          d="M215.7,205.6c0,0,3.7,2,8.7,4c5,2,11.3,3.9,16.6,3.7c10.6-0.4,26.4-7.3,26.4-7.3s14.1,7.9,25.6,6.8   c11.4-1.1,27.3-7.3,27.3-7.3c2.3,13.7,3.5,20.8,1.4,34.4l-109-0.6C211.4,225.7,211.4,220.2,215.7,205.6L215.7,205.6z"/>
    <g><path d="M322.2,240.5h-0.5l-109.5-0.6l-0.1-0.5c-1.4-14.1-1.2-19.5,3-33.9l0.2-0.7l0.6,0.3c0,0,3.7,2,8.6,4    c6.1,2.4,11.5,3.7,15.6,3.7l0.8,0c10.4-0.4,26.1-7.2,26.2-7.2c0.7,0.1,14.6,7.8,25.7,6.8c11.2-1.1,27-7.2,27.2-7.2l0.6-0.2    l0.1,0.7c2.3,13.8,3.5,20.8,1.4,34.5L322.2,240.5L322.2,240.5z M213.2,238.7l108,0.6c1.9-13.1,0.8-19.9-1.4-33.1    c-3.1,1.2-16.7,6.1-26.8,7.1c-11.5,1.2-25.3-6.6-25.9-6.9c-0.2,0.3-15.6,6.9-26.1,7.3l-0.9,0c-4.3,0-9.7-1.3-16-3.8    c-3.8-1.5-6.9-3.1-8.2-3.7C212.1,219.9,211.9,225.4,213.2,238.7L213.2,238.7z"/></g>
    <polygon class="st7" points="219.6,239.8 219.5,265.6 226.7,278.5 226.6,239.8  "/>
    <polygon class="st7" points="237.6,239.9 237.7,293 244.8,299.4 244.7,239.9  "/>
    <polygon class="st7" points="255.3,240.1 255.3,307.8 262.4,311.7 262.4,240.1  "/>
    <polygon class="st7" points="316.3,240.4 316.5,262.4 309.8,276 309.3,240.4  "/>
    <polygon class="st7" points="298.9,240.2 298.6,291.4 291.7,298 291.8,240.2  "/>
    <polygon class="st7" points="280.5,240.2 280.6,307 273.4,311.4 273.4,240.2  "/>
    <g><path d="M267.5,314.9l-0.2-0.1c-42.5-19.4-64.9-66.5-52-109.4l0.2-0.5l0.5,0.3c0.1,0.1,14,7.7,24.3,7.7l0.8,0    c10.4-0.4,26.1-7.2,26.3-7.2c0.6,0.1,14.5,7.9,25.7,6.8c11.2-1.1,27-7.2,27.2-7.2l0.5-0.2l0.1,0.5c9.4,46.9-11.5,89.8-53.1,109.3    L267.5,314.9L267.5,314.9z M216,206.2c-12.4,42.3,9.7,88.5,51.5,107.7c41-19.3,61.6-61.5,52.5-107.7c-2.8,1-16.7,6.1-26.9,7.1    c-11.4,1.1-25.6-6.8-25.8-6.9c0.1,0.1-15.7,6.9-26.2,7.3l-0.8,0C230.7,213.7,218.6,207.6,216,206.2L216,206.2z"/></g></g></svg>
