<?xml version="1.0" ?>
<svg id="Layer_1" style="enable-background:new 0 0 512 512;" version="1.1" viewBox="0 0 512 512" xml:space="preserve"
     xmlns="http://www.w3.org/2000/svg"><style type="text/css">
	.st0 {
    fill: #FFFFFF;
  }

  .st1 {
    fill: #D51F3A;
  }
</style>
  <g><rect class="st0" height="298.7" width="512" y="106.7"/>
    <path class="st1"
          d="M121.4,174.1c-0.3,5.5-0.8,10.9-1.6,16.2c-0.3,1.7-0.6,3.4-0.9,5.1c3.3-0.4,6.7-0.6,10.2-0.6   c3.4,0,6.8,0.2,10.2,0.6c-0.3-1.7-0.6-3.4-0.9-5.1c-0.8-5.3-1.4-10.7-1.6-16.2c7.3,0.3,14.4,1.2,21.3,2.5   c-0.4-3.3-0.6-6.7-0.6-10.2c0-3.5,0.2-6.8,0.6-10.2c-7,1.3-14.1,2.2-21.3,2.5c0.3-7.3,1.2-14.4,2.5-21.3c-3.3,0.4-6.7,0.6-10.2,0.6   c-3.5,0-6.8-0.2-10.2-0.6c1.3,7,2.2,14.1,2.5,21.3c-7.3-0.3-14.4-1.2-21.3-2.5c0.4,3.3,0.6,6.7,0.6,10.2c0,3.4-0.2,6.8-0.6,10.2   C107,175.3,114.2,174.4,121.4,174.1"/>
    <path class="st1"
          d="M375.3,174.1c-0.3,5.5-0.8,10.9-1.6,16.2c-0.3,1.7-0.6,3.4-0.9,5.1c3.3-0.4,6.7-0.6,10.2-0.6   c3.4,0,6.8,0.2,10.2,0.6c-0.3-1.7-0.6-3.4-0.9-5.1c-0.8-5.3-1.4-10.7-1.6-16.2c7.3,0.3,14.4,1.2,21.4,2.5   c-0.4-3.3-0.6-6.7-0.6-10.2c0-3.5,0.2-6.8,0.6-10.2c-7,1.3-14.1,2.2-21.4,2.5c0.4-7.3,1.2-14.4,2.5-21.3c-3.3,0.4-6.7,0.6-10.2,0.6   c-3.5,0-6.8-0.2-10.2-0.6c1.3,7,2.2,14.1,2.5,21.3c-7.3-0.3-14.4-1.2-21.3-2.5c0.4,3.3,0.6,6.7,0.6,10.2c0,3.4-0.2,6.8-0.6,10.2   C360.9,175.3,368,174.4,375.3,174.1"/>
    <path class="st1"
          d="M136.7,338c0.3-5.5,0.8-10.9,1.6-16.2c0.3-1.7,0.6-3.4,0.9-5.1c-3.3,0.4-6.7,0.6-10.2,0.6   c-3.5,0-6.8-0.2-10.2-0.6c0.3,1.7,0.6,3.4,0.9,5.1c0.8,5.3,1.4,10.7,1.6,16.2c-7.3-0.4-14.4-1.2-21.3-2.5c0.4,3.3,0.6,6.7,0.6,10.2   c0,3.4-0.2,6.8-0.6,10.2c7-1.3,14.1-2.2,21.3-2.5c-0.3,7.3-1.2,14.4-2.5,21.4c3.3-0.4,6.7-0.6,10.2-0.6c3.4,0,6.8,0.2,10.2,0.6   c-1.3-7-2.2-14.1-2.5-21.4c7.3,0.4,14.4,1.2,21.3,2.5c-0.4-3.3-0.6-6.7-0.6-10.2c0-3.5,0.2-6.8,0.6-10.2   C151.1,336.7,144,337.6,136.7,338"/>
    <path class="st1"
          d="M390.6,338c0.3-5.5,0.8-10.9,1.6-16.2c0.3-1.7,0.6-3.4,0.9-5.1c-3.3,0.4-6.7,0.6-10.2,0.6   c-3.5,0-6.8-0.2-10.2-0.6c0.3,1.7,0.6,3.4,0.9,5.1c0.8,5.3,1.4,10.7,1.6,16.2c-7.3-0.4-14.4-1.2-21.3-2.5c0.4,3.3,0.6,6.7,0.6,10.2   c0,3.4-0.2,6.8-0.6,10.2c7-1.3,14.1-2.2,21.3-2.5c-0.3,7.3-1.2,14.4-2.5,21.4c3.3-0.4,6.7-0.6,10.2-0.6c3.4,0,6.8,0.2,10.2,0.6   c-1.3-7-2.2-14.1-2.5-21.4c7.3,0.4,14.4,1.2,21.4,2.5c-0.4-3.3-0.6-6.7-0.6-10.2c0-3.5,0.2-6.8,0.6-10.2   C405,336.7,397.8,337.6,390.6,338"/>
    <rect class="st1" height="298.7" width="60.2" x="225.9" y="106.7"/>
    <rect class="st1" height="60.2" width="512" y="225.9"/></g></svg>
