<?xml version="1.0" ?>
<svg id="Layer_1" style="enable-background:new 0 0 512 512;" version="1.1" viewBox="0 0 512 512" xml:space="preserve"
     xmlns="http://www.w3.org/2000/svg"><style type="text/css">
	.st0 {
    fill: #BD1F34;
  }

  .st1 {
    fill: #FFFFFF;
  }

  .st2 {
    fill: #273F96;
  }

  .st3 {
    fill: #590A1E;
  }

  .st4 {
    fill: #F09A2B;
  }
</style>
  <g id="XMLID_1_"><rect class="st0" height="298.7" id="XMLID_94_" width="512" x="0" y="106.7"/>
    <rect class="st1" height="149.3" id="XMLID_93_" width="512" x="0" y="181.3"/>
    <path class="st2"
          d="M241,312.3c-4.6,0.3-9.2,3.4-11.4,5c3.9,1.7,8,3,12.4,3.9c7,1.2,14,1.2,21,1.2   c1.1-0.1,2.3-0.3,3.4-0.5l14.8-5c0,0-7.1-4.7-12.7-4.5c-5.6,0.2-9.4,5.7-14,5.3c-4.5-0.4-6.3-5.5-12.9-5.5   C241.4,312.3,241.2,312.3,241,312.3L241,312.3z"
          id="XMLID_92_"/>
    <g><path class="st2" d="M262.8,323c-6.8,0-13.9,0-20.9-1.2c-4.4-0.9-8.6-2.2-12.5-4l-0.9-0.4l0.8-0.6c2.4-1.8,7-4.9,11.7-5.2h0.6    c3.9,0,6.2,1.7,8.2,3.2c1.6,1.1,2.9,2.1,4.7,2.3c0,0,0,0,0.1,0c2.3,0,4.2-1.1,6.1-2.3c2.2-1.3,4.7-2.9,7.7-3c0,0,0,0,0,0    c6.1,0,12.8,4.4,13.1,4.6l1.1,0.7l-15.9,5.4c-1.2,0.2-2.4,0.4-3.5,0.5L262.8,323L262.8,323z M230.8,317.2    c3.6,1.5,7.4,2.7,11.3,3.5c6.9,1.2,13.9,1.2,20.7,1.2v0.6l0.1-0.6c1.2-0.1,2.3-0.3,3.4-0.5l13.4-4.5c-2.1-1.2-6.9-3.7-10.9-3.7    c-3,0.1-5.3,1.5-7.4,2.8c-2.1,1.3-4.1,2.5-6.4,2.5c-2.7-0.2-4.2-1.3-5.9-2.5c-2-1.5-4-3-7.5-3    C237.2,313.1,233.2,315.5,230.8,317.2L230.8,317.2z"/></g>
    <path class="st2"
          d="M214.2,308.5l83.8,0.4c0,0-7.2-7.7-15.8-7.9c-8.5-0.2-6.2,3.6-12.7,4.1   c-6.5,0.5-8.2-3.9-14.2-3.8c-6,0.2-9.4,3.8-14,3.9c-4.5,0.2-10.3-4.5-13.8-4.3c-3.4,0.2-15.8,5.4-15.8,5.4L214.2,308.5z"
          id="XMLID_89_"/>
    <g><path class="st2" d="M299.3,309.4l-85.1-0.4l-3.4-2.9l0.8-0.3c0.5-0.2,12.5-5.2,16-5.4c0,0,0,0,0,0c1.9,0,4,1,6.3,2    c2.5,1.1,5,2.3,7.3,2.3c2.2-0.1,4-0.9,6-1.7c2.3-1,4.9-2.1,8.2-2.2c0,0,0,0,0,0c3.1,0,5,1,6.9,1.9c2,1.1,4,2.1,7.2,1.8    c2.8-0.2,3.8-1,4.9-1.9c1.4-1.1,2.8-2.2,7.3-2.2c9.2,0.2,16.5,7.8,16.8,8.1L299.3,309.4L299.3,309.4z M212.9,306.5l1.7,1.5l82,0.2    c-2.3-2-8-6.6-14.3-6.7c0,0,0,0,0,0c-4.6,0-5.8,1-7.1,2c-1.2,0.9-2.4,1.9-5.5,2.2c-3.6,0.3-5.8-0.8-7.9-2c-1.8-0.9-3.5-1.8-6-1.8    c-3.4,0.1-5.8,1.1-8.1,2.1c-2,0.9-4,1.7-6.2,1.8c0,0,0,0,0,0c-2.8,0-5.4-1.2-8-2.4c-2.1-1-4.1-1.9-5.6-1.9    C224.9,301.7,215.7,305.4,212.9,306.5L212.9,306.5z"/></g>
    <path class="st2"
          d="M203.5,298.6l103.4,0.4c1.6-2.3-5.1-7.9-11.3-8.4c-5.1,0.2-8.7,5.2-12.9,5.4   c-4.2,0.2-8.9-5.2-13.6-5c-4.7,0.2-9.6,5-14.3,5c-4.7,0-8.2-5.2-14.1-5.2c-6,0-8.7,5.7-13.2,5.4c-4.5-0.4-8.5-5.7-12.9-5.7   c-4.4,0-11.6,6.4-13.1,6.1C200,296.1,203.3,299.2,203.5,298.6L203.5,298.6z"
          id="XMLID_86_"/>
    <g><path class="st2" d="M307.2,299.6h-0.3l-103-0.4l-0.5,0.1c-0.7,0-2.8-1.9-2.8-2.7V296l0.7-0.1c1,0,2.5-1,3.9-1.9    c2.9-1.9,6.6-4.2,9.3-4.2c2.4,0,4.6,1.5,6.8,2.9c2,1.3,4,2.7,6.1,2.8c0,0,0,0,0,0c2.1,0,3.7-1.1,5.4-2.3c2.1-1.5,4.5-3.1,7.8-3.1    c3.3,0,5.9,1.6,8.2,2.9c2,1.2,3.8,2.3,5.9,2.3c2.3,0,4.7-1.2,7.1-2.5c2.4-1.2,4.8-2.5,7.3-2.6c0,0,0,0,0,0c2.8,0,5.2,1.4,7.5,2.7    c2.1,1.2,4.1,2.3,5.9,2.3c2-0.1,3.8-1.2,5.7-2.4c2.2-1.4,4.6-2.9,7.4-3c5,0.4,10.4,4.1,11.8,6.9c0.6,1.2,0.3,2,0,2.5L307.2,299.6    L307.2,299.6z M201.8,297.1c0.4,0.1,1.3,1,1.7,1.1l103.1,0.3c0.1-0.3,0-0.6-0.2-1.1c-1.2-2.5-6.2-5.8-10.8-6.2    c-2.4,0.1-4.6,1.5-6.7,2.8c-2,1.3-3.9,2.5-6.1,2.6c0,0,0,0,0,0c-2.3,0-4.5-1.2-6.7-2.5c-2.2-1.3-4.5-2.6-6.7-2.6    c-2.4,0.1-4.7,1.3-7,2.4c-2.5,1.3-5,2.6-7.6,2.6c-2.4,0-4.4-1.2-6.5-2.4c-2.3-1.4-4.6-2.8-7.6-2.8c-2.9,0-5,1.5-7.1,2.9    c-1.8,1.3-3.6,2.5-5.7,2.5c-2.8-0.2-5-1.6-7.1-3c-2.1-1.4-4.1-2.7-6.2-2.7c-2.4,0-6.1,2.3-8.7,4    C203.8,296.2,202.6,297,201.8,297.1L201.8,297.1z"/></g>
    <path class="st0"
          d="M243.2,241.8l23.8,6.3v-33.5c-10.9,0.5-19.9-20.4-0.7-21.9c-18.9-2.7-21,2.2-23.2,7.4   L243.2,241.8z"
          id="XMLID_83_"/>
    <g><path class="st3" d="M267,248.8c-0.1,0-0.1,0-0.2,0l-23.8-6.3c-0.3-0.1-0.5-0.4-0.5-0.7l-0.2-41.8c1.8-4.5,3.6-8.8,14.6-8.8    c2.7,0,5.8,0.3,9.4,0.8c0.4,0.1,0.6,0.4,0.6,0.7c0,0.4-0.3,0.7-0.7,0.7c-6.9,0.5-10.7,3.7-10.5,8.9c0.2,5.2,5,11.6,10.8,11.6    c0.2,0,0.6,0.1,0.7,0.2c0.1,0.1,0.4,0.3,0.4,0.5v33.5c0,0.2-0.1,0.4-0.3,0.6C267.3,248.8,267.1,248.8,267,248.8L267,248.8z     M243.9,241.3l22.3,5.9v-31.9c-6.7-0.5-11.7-7.2-11.9-12.9c-0.2-4.6,2.4-7.9,7.2-9.5c-1.7-0.1-3.2-0.2-4.6-0.2    c-10,0-11.6,3.7-13.2,7.7L243.9,241.3L243.9,241.3z"/></g>
    <path class="st3" d="M228.2,266.2l53.7,0.2L228.2,266.2z" id="XMLID_80_"/>
    <g><path class="st3" d="M281.9,267.4C281.9,267.4,281.9,267.4,281.9,267.4l-53.7-0.2c-0.6,0-1-0.5-1-1    c0-0.6,0.5-1,1-1c0,0,0,0,0,0l53.7,0.2c0.6,0,1,0.5,1,1C282.9,267,282.4,267.4,281.9,267.4L281.9,267.4z" id="XMLID_79_"/></g>
    <path class="st3" d="M230.7,253.5l6.3,8.4L230.7,253.5z" id="XMLID_78_"/>
    <g><path class="st3" d="M237,262.6c-0.2,0-0.4-0.1-0.5-0.3l-6.3-8.4c-0.2-0.3-0.2-0.7,0.1-0.9    c0.3-0.2,0.7-0.2,0.9,0.1l6.3,8.4c0.2,0.3,0.2,0.7-0.1,0.9C237.3,262.5,237.2,262.6,237,262.6L237,262.6z" id="XMLID_77_"/></g>
    <path class="st3" d="M230.7,261.9l6.9-8.2L230.7,261.9z" id="XMLID_76_"/>
    <g><path class="st3" d="M230.7,262.6c-0.2,0-0.3,0-0.4-0.2c-0.3-0.2-0.3-0.7-0.1-0.9l6.9-8.2c0.2-0.3,0.7-0.3,0.9-0.1    c0.3,0.2,0.3,0.7,0.1,0.9l-6.9,8.2C231.1,262.5,230.9,262.6,230.7,262.6L230.7,262.6z" id="XMLID_75_"/></g>
    <path class="st3" d="M234.3,252.9l-0.2,5.2L234.3,252.9z" id="XMLID_74_"/>
    <g><path class="st3" d="M234.1,258.8C234.1,258.8,234.1,258.8,234.1,258.8c-0.4,0-0.7-0.3-0.7-0.7l0.2-5.2    c0-0.4,0.3-0.8,0.7-0.6c0.4,0,0.7,0.3,0.6,0.7l-0.2,5.2C234.8,258.5,234.5,258.8,234.1,258.8L234.1,258.8z" id="XMLID_73_"/></g>
    <path class="st3" d="M240.9,253.5l6.3,8.4L240.9,253.5z" id="XMLID_72_"/>
    <g><path class="st3" d="M247.2,262.6c-0.2,0-0.4-0.1-0.5-0.3l-6.3-8.4c-0.2-0.3-0.2-0.7,0.1-0.9    c0.3-0.2,0.7-0.2,0.9,0.1l6.3,8.4c0.2,0.3,0.2,0.7-0.1,0.9C247.5,262.5,247.4,262.6,247.2,262.6L247.2,262.6z" id="XMLID_71_"/></g>
    <path class="st3" d="M240.9,261.9l6.9-8.2L240.9,261.9z" id="XMLID_70_"/>
    <g><path class="st3" d="M240.9,262.6c-0.2,0-0.3,0-0.4-0.2c-0.3-0.2-0.3-0.7-0.1-0.9l6.9-8.2c0.2-0.3,0.7-0.3,0.9-0.1    c0.3,0.2,0.3,0.7,0.1,0.9l-6.9,8.2C241.2,262.5,241.1,262.6,240.9,262.6L240.9,262.6z" id="XMLID_69_"/></g>
    <path class="st3" d="M244.5,252.9l-0.2,5.2L244.5,252.9z" id="XMLID_68_"/>
    <g><path class="st3" d="M244.3,258.8C244.3,258.8,244.3,258.8,244.3,258.8c-0.4,0-0.7-0.3-0.7-0.7l0.2-5.2    c0-0.4,0.3-0.8,0.7-0.6c0.4,0,0.7,0.3,0.6,0.7l-0.2,5.2C245,258.5,244.7,258.8,244.3,258.8L244.3,258.8z" id="XMLID_67_"/></g>
    <path class="st3" d="M251.2,253.5l6.3,8.4L251.2,253.5z" id="XMLID_66_"/>
    <g><path class="st3" d="M257.5,262.6c-0.2,0-0.4-0.1-0.5-0.3l-6.3-8.4c-0.2-0.3-0.2-0.7,0.1-0.9    c0.3-0.2,0.7-0.2,0.9,0.1l6.3,8.4c0.2,0.3,0.2,0.7-0.1,0.9C257.8,262.5,257.7,262.6,257.5,262.6L257.5,262.6z" id="XMLID_65_"/></g>
    <path class="st3" d="M251.2,261.9l6.9-8.2L251.2,261.9z" id="XMLID_64_"/>
    <g><path class="st3" d="M251.2,262.6c-0.2,0-0.3,0-0.4-0.2c-0.3-0.2-0.3-0.7-0.1-0.9l6.9-8.2c0.2-0.3,0.7-0.3,0.9-0.1    c0.3,0.2,0.3,0.7,0.1,0.9l-6.9,8.2C251.6,262.5,251.4,262.6,251.2,262.6L251.2,262.6z" id="XMLID_63_"/></g>
    <path class="st3" d="M254.8,252.9l-0.2,5.2L254.8,252.9z" id="XMLID_62_"/>
    <g><path class="st3" d="M254.6,258.8C254.6,258.8,254.6,258.8,254.6,258.8c-0.4,0-0.7-0.3-0.7-0.7l0.2-5.2    c0-0.4,0.4-0.8,0.7-0.6c0.4,0,0.7,0.3,0.6,0.7l-0.2,5.2C255.3,258.5,255,258.8,254.6,258.8L254.6,258.8z" id="XMLID_61_"/></g>
    <path class="st3" d="M261.9,253.5l6.3,8.4L261.9,253.5z" id="XMLID_60_"/>
    <g><path class="st3" d="M268.2,262.6c-0.2,0-0.4-0.1-0.5-0.3l-6.3-8.4c-0.2-0.3-0.2-0.7,0.1-0.9    c0.3-0.2,0.7-0.2,0.9,0.1l6.3,8.4c0.2,0.3,0.2,0.7-0.1,0.9C268.5,262.5,268.4,262.6,268.2,262.6L268.2,262.6z" id="XMLID_59_"/></g>
    <path class="st3" d="M261.9,261.9l6.9-8.2L261.9,261.9z" id="XMLID_58_"/>
    <g><path class="st3" d="M261.9,262.6c-0.2,0-0.3,0-0.4-0.2c-0.3-0.2-0.3-0.7-0.1-0.9l6.9-8.2c0.2-0.3,0.7-0.3,0.9-0.1    c0.3,0.2,0.3,0.7,0.1,0.9l-6.9,8.2C262.3,262.5,262.1,262.6,261.9,262.6L261.9,262.6z" id="XMLID_57_"/></g>
    <path class="st3" d="M265.5,252.9l-0.2,5.2L265.5,252.9z" id="XMLID_56_"/>
    <g><path class="st3" d="M265.3,258.8C265.3,258.8,265.3,258.8,265.3,258.8c-0.4,0-0.7-0.3-0.7-0.7l0.2-5.2    c0-0.4,0.3-0.8,0.7-0.6c0.4,0,0.7,0.3,0.6,0.7l-0.2,5.2C266,258.5,265.7,258.8,265.3,258.8L265.3,258.8z" id="XMLID_55_"/></g>
    <path class="st3" d="M272.2,253.5l6.3,8.4L272.2,253.5z" id="XMLID_54_"/>
    <g><path class="st3" d="M278.6,262.6c-0.2,0-0.4-0.1-0.5-0.3l-6.3-8.4c-0.2-0.3-0.2-0.7,0.1-0.9    c0.3-0.2,0.7-0.2,0.9,0.1l6.3,8.4c0.2,0.3,0.2,0.7-0.1,0.9C278.9,262.5,278.7,262.6,278.6,262.6L278.6,262.6z" id="XMLID_53_"/></g>
    <path class="st3" d="M272.2,261.9l6.9-8.2L272.2,261.9z" id="XMLID_52_"/>
    <g><path class="st3" d="M272.2,262.6c-0.2,0-0.3,0-0.4-0.2c-0.3-0.2-0.3-0.7-0.1-0.9l6.9-8.2c0.2-0.3,0.7-0.3,0.9-0.1    c0.3,0.2,0.3,0.7,0.1,0.9l-6.9,8.2C272.6,262.5,272.4,262.6,272.2,262.6L272.2,262.6z" id="XMLID_51_"/></g>
    <path class="st3" d="M275.9,252.9l-0.2,5.2L275.9,252.9z" id="XMLID_50_"/>
    <g><path class="st3" d="M275.7,258.8C275.7,258.8,275.7,258.8,275.7,258.8c-0.4,0-0.7-0.3-0.7-0.7l0.2-5.2    c0-0.4,0.2-0.8,0.7-0.6c0.4,0,0.7,0.3,0.6,0.7l-0.2,5.2C276.3,258.5,276,258.8,275.7,258.8L275.7,258.8z" id="XMLID_49_"/></g>
    <polygon class="st4" id="XMLID_48_" points="192.1,266.7 214.9,266.9 214.9,252.7 188.8,251.5  "/>
    <polygon class="st4" id="XMLID_47_" points="191,247.2 215.3,249.5 215.1,239.5 191.3,230.2  "/>
    <path class="st4"
          d="M195.9,227.1l18.7,9l2.7-2.8c0,0-1.7-1.2-1.6-2.2c0-1.1,1.7-1.3,1.8-2.4c0-1.1-1.9-1.2-1.9-2.3   c-0.1-1.2,1.5-2.4,1.5-2.4L200,209.4L195.9,227.1z"
          id="XMLID_46_"/>
    <polygon class="st4" id="XMLID_45_" points="318.5,266.9 294.4,266.9 294.2,253.1 320.7,251.1  "/>
    <path class="st4"
          d="M319.1,247c-0.3-2.2-0.6-4.5-1.1-6.7c-0.7-2.9-1.6-5.8-2.7-8.7c-0.1-0.2-0.2-0.4-0.3-0.6   l-20.6,8.6l0.2,10.2L319.1,247z"
          id="XMLID_44_"/>
    <path class="st4"
          d="M305,213.8l-12.3,9.3c0,0,0,0,0,0c0,0,0,0,0,0c0,0,0,0,0,0v0v0c0,0,0,0,0,0   c0.1,0.5,1.2,1.9,1.3,2.8c-0.1,1.5-1.3,2.1-1.6,2.8c0,0,0,0.1,0,0.1c0,0,0,0,0,0c0,0,0,0.1,0,0.1c0,0,0,0,0,0c0,0,0,0,0,0   c0,0,0,0,0,0c0,0,0,0.1,0,0.1c0.3,0.5,1.5,0.8,1.5,1.9c0,1.2-1.1,1.9-1.2,2c1.4,0.9,1.7,2.1,2,3.2l18.5-9.6   C311,222.2,308.3,217.8,305,213.8L305,213.8z"
          id="XMLID_43_"/>
    <polygon class="st4" id="XMLID_42_" points="270.6,249.6 280.9,249.2 281.1,245  "/>
    <polygon class="st4" id="XMLID_41_" points="239,249.3 228.2,249 228.2,244.7  "/>
    <path class="st4" d="M239,248l-10.8-5.5v-7.2c0,0-1.3,0.2-1.1-1.3c0.1-3,8,5.5,12,8.2L239,248z" id="XMLID_40_"/>
    <path class="st4" d="M270.6,247.4l0-4.7c0,0,9.8-8.7,11.9-10.4c0,1.8-1.1,3.2-1.1,3.2v6.8L270.6,247.4z"
          id="XMLID_39_"/>
    <path class="st4"
          d="M207.1,208.1c0.2,0.2,11,12.1,11,12.1c0.3-1.1,2.8-1.3,5.3-1.1c2.5,0.2,4.6-0.2,4.6,1.6   s-1.3,1.5-1.3,2.8c0,1.3,1.9,1.1,1.9,2.8c0,1.6-1.4,1.3-1.4,2.5c0,1,1.5,1.1,1.5,1.1l10.3,9.9l0-10.5l-21.2-32.9L207.1,208.1z"
          id="XMLID_38_"/>
    <path class="st4" d="M224.1,195.7c0.2,0.5,14.4,29,14.4,29s0.2-26.8,2.6-28.3l-4-7.3L224.1,195.7z" id="XMLID_37_"/>
    <path class="st4"
          d="M270.5,192.6l-5.4,18.5c0,0,2.6,0.3,4.7,0.2c0.5,0,0.8,0.1,1,0.2c0,0,0.1,0.1,0.1,0.1   c0,0,0,0.1,0,0.1c0,0.1,0,0.2,0,0.3c0,0.5-0.4,1.1-0.4,1.1l0,11.9l15.2-26.8c-3.1-1.6-6.4-2.9-9.9-4   C274,193.6,272.2,193,270.5,192.6L270.5,192.6z"
          id="XMLID_36_"/>
    <path class="st4"
          d="M289.4,200.3l-18.8,28.8l0,11.1l12.3-11.7c0.2-0.1,0.3-0.3,0.3-0.4c0,0,0-0.1,0-0.1   c0,0,0-0.1,0-0.1c0,0,0,0,0,0c0,0,0,0,0,0c0,0,0,0,0,0c0,0,0,0,0,0c0,0,0,0,0-0.1c-0.3-0.3-1.3-0.6-1.4-1.6c0-0.2,0.1-0.4,0.1-0.5   c0.3-0.5,0.8-0.6,1.2-1c0.2-0.2,0.3-0.6,0.3-1.1c0-0.4,0-0.7-0.1-0.8c0,0,0-0.1,0-0.1c0,0,0-0.1-0.1-0.1c0,0,0,0,0,0c0,0,0,0,0,0   c-0.2-0.1-0.4-0.2-0.6-0.3c0,0,0,0,0,0c0,0,0-0.1-0.1-0.1c0,0-0.1-0.1-0.1-0.1c-0.1-0.2-0.2-0.5-0.3-0.9c0-0.2,0-0.4,0-0.6   c0,0,0-0.1,0-0.1c0,0,0-0.1,0-0.1c0-0.1,0.1-0.2,0.2-0.2c0,0,0,0,0.1-0.1c0.4-0.4,1.3-0.7,3-0.7c3,0,6.2-0.6,6.8,0.7   c0-0.1,6.7-6.7,9.6-9.7C298.2,206.5,294,203.1,289.4,200.3L289.4,200.3z"
          id="XMLID_35_"/>
    <path class="st0"
          d="M248.5,272.1c-5.2,8.5-19,6-22.2,0c-1-0.3-0.4-36.4-0.4-36.4s-1.6-0.7-1.6-1.8   c-0.1-1.1,2.1-1.2,2.1-2.7s-2.2-0.9-2.3-2.3c0-1.4,2.4-1.2,2.3-2.5c-0.1-1.4-2.6-1.2-2.7-2.5c-0.1-1.1,1.8-2,2.3-2.5   c-0.3,0-1.8,0-1.8,0c-1.3,0-2.6,0.1-4,0.1c-2.8,0,0,0.6,0,2.2c0,1-1.4,1.7-1.6,2.7c0,0.9,2,1.6,2,2.7c0,1-2,1.1-1.9,2   c0.1,1.6,1.8,1.9,1.8,2.9c0,0.9-2.2,1.3-2.3,2.1c0.1,1.5,0.3,37.2,0.3,37.2C222.2,291.4,242.7,296.1,248.5,272.1L248.5,272.1z"
          id="XMLID_34_"/>
    <g><path class="st3" d="M233.5,289.2L233.5,289.2c-7.4,0-13.8-6.5-15.6-15.9c0-0.5-0.3-35.9-0.3-37.3c0-0.8,0.8-1.2,1.4-1.6    c0.3-0.2,0.8-0.4,0.9-0.6c0-0.1-0.3-0.3-0.5-0.5c-0.5-0.5-1.2-1.1-1.3-2.3c-0.1-0.9,0.8-1.4,1.3-1.7c0.2-0.1,0.6-0.3,0.6-0.4    c0-0.2-0.5-0.6-0.8-0.9c-0.6-0.5-1.2-1-1.2-1.8c0.1-0.7,0.5-1.2,0.9-1.6c0.3-0.3,0.6-0.7,0.6-1c0-0.4-0.4-0.7-0.7-1    c-0.2-0.2-0.6-1-0.5-1.3c0.3-0.6,1.1-0.6,1.9-0.6l4-0.1c0,0,0.1,0,0.1,0c0.2,0,1.9-0.2,2.2,0.5c0.1,0.3,0.2,0.6,0,0.8    c0,0-0.6,0.5-0.6,0.5c-0.4,0.3-1.5,1-1.4,1.4c0,0.2,0.4,0.4,0.9,0.6c0.7,0.3,1.7,0.8,1.8,1.9c0.1,1.1-0.8,1.6-1.5,1.9    c-0.6,0.3-0.8,0.4-0.8,0.6c0,0.2,0.1,0.2,0.7,0.5c0.6,0.2,1.6,0.6,1.6,1.8c0,1.1-0.9,1.7-1.5,2.1c-0.2,0.2-0.6,0.4-0.6,0.5    c0,0.5,0.8,1,1.2,1.2c0.3,0.1,0.4,0.4,0.4,0.7c-0.2,13.1-0.3,34.5,0.3,36.1c1.6,2.9,6.2,5.1,10.9,5.1c4.4,0,8.1-1.9,10.1-5.1    c0.2-0.3,0.6-0.4,0.9-0.3c0.3,0.1,0.5,0.5,0.4,0.8C246.6,282.9,240.7,289.2,233.5,289.2L233.5,289.2z M220.4,222.2    c0.3,0.4,0.6,0.9,0.6,1.5c0,0.8-0.6,1.4-1,1.9c-0.3,0.3-0.5,0.6-0.6,0.8c0,0.1,0.4,0.4,0.7,0.6c0.6,0.5,1.3,1.1,1.4,2    c0,1-0.8,1.4-1.4,1.7c-0.2,0.1-0.5,0.3-0.6,0.4c0.1,0.5,0.4,0.8,0.9,1.2c0.4,0.4,1,0.9,0.9,1.6c0,0.9-0.9,1.4-1.6,1.8    c-0.2,0.1-0.6,0.3-0.7,0.4c0.1,1.3,0.4,35.6,0.4,37c1.7,8.5,7.5,14.6,14.2,14.6l0,0c5.8,0,10.7-4.7,13.4-12.6    c-2.3,2-5.5,3.1-9.1,3.1c-5.3,0-10.3-2.4-12.1-5.8c-0.3,0.2-1.1,0.1-0.5-36.4c-0.6-0.3-1.5-1.1-1.6-2.2c-0.1-1,0.7-1.5,1.3-1.8    c0.6-0.4,0.8-0.6,0.8-0.9c0-0.2,0-0.2-0.7-0.5c-0.6-0.2-1.6-0.6-1.6-1.8c0-1.2,1-1.6,1.6-2c0.5-0.2,0.7-0.4,0.7-0.5    c0-0.3-0.3-0.4-1-0.7c-0.7-0.3-1.7-0.7-1.7-1.8c-0.1-0.7,0.4-1.3,0.9-1.8L220.4,222.2L220.4,222.2z"/></g>
    <path class="st0"
          d="M262,272.1c5.2,8.5,19,6,22.2,0c1-0.3,0.4-36.4,0.4-36.4s1.6-0.7,1.6-1.8c0.1-1.1-2-1.2-2-2.7   s2.1-0.9,2.1-2.3c0-1.4-2.2-1.3-2.1-2.6c0.1-1.4,1.8-1.3,1.9-2.6c0.1-1.1-1.1-1.8-1.6-2.3c0.3,0,1.6,0,1.7,0c1.3,0,2.6,0.1,4,0.1   c2.8,0,0,0.6,0,2.2c0,1,1.4,1.7,1.6,2.7c0,0.9-2,1.6-2,2.7c0,1,2,1.1,1.9,2c-0.1,1.6-1.8,1.9-1.8,2.9c0,0.9,2.3,1.3,2.3,2.1   c-0.1,1.5-0.3,37.2-0.3,37.2C288.3,291.4,267.8,296.1,262,272.1L262,272.1z"
          id="XMLID_31_"/>
    <g><path class="st3" d="M277,289.2c-7.3,0-13.1-6.3-15.7-16.9c-0.1-0.3,0.1-0.7,0.4-0.8c0.3-0.1,0.7,0,0.9,0.3    c2,3.2,5.7,5.1,10.1,5.1c4.7,0,9.3-2.1,10.9-5c0.6-1.6,0.5-23,0.3-36.1c0-0.3,0.2-0.5,0.4-0.7c0.4-0.2,1.2-0.7,1.2-1.2    c0-0.1-0.3-0.3-0.6-0.5c-0.6-0.4-1.4-1-1.4-2.1c0-1.2,0.9-1.6,1.5-1.8c0.6-0.2,0.6-0.3,0.6-0.5c0-0.2-0.2-0.4-0.7-0.7    c-0.6-0.3-1.4-0.8-1.3-1.9c0.1-1.1,0.8-1.6,1.3-1.9c0.4-0.3,0.6-0.4,0.6-0.7c0-0.5-0.4-0.9-1-1.4c-0.2-0.2-0.5-0.7-0.4-1    c0.1-0.3,0.3-0.7,0.6-0.6c0.8,0,1.5,0,1.6,0l4,0.1c0.8,0,1.6,0,1.9,0.6c0.1,0.3-0.3,1-0.5,1.3c-0.3,0.3-0.7,0.6-0.7,1    c0,0.3,0.3,0.7,0.6,1c0.4,0.4,0.8,0.9,0.9,1.6c0,0.9-0.6,1.4-1.2,1.9c-0.3,0.3-0.8,0.7-0.8,0.9c0,0.1,0.4,0.3,0.6,0.4    c0.6,0.3,1.4,0.7,1.3,1.7c-0.1,1.1-0.8,1.8-1.3,2.3c-0.2,0.2-0.5,0.4-0.5,0.5c0.1,0.1,0.6,0.4,0.8,0.5c0.7,0.4,1.4,0.8,1.4,1.6    c-0.1,1.5-0.3,36.8-0.3,37.2C290.8,282.7,284.4,289.2,277,289.2L277,289.2z M263.6,275.1c2.7,8,7.6,12.6,13.4,12.6    c6.6,0,12.5-6,14.2-14.7c0-1.3,0.2-35.6,0.3-37.1c0,0.1-0.4-0.1-0.7-0.3c-0.7-0.4-1.6-0.8-1.6-1.8c0-0.8,0.5-1.3,0.9-1.7    c0.4-0.4,0.8-0.7,0.8-1.3c0,0-0.4-0.2-0.5-0.3c-0.6-0.3-1.4-0.7-1.4-1.7c0-0.9,0.8-1.5,1.4-2c0.2-0.2,0.6-0.5,0.7-0.7    c0-0.1-0.3-0.4-0.6-0.7c-0.4-0.5-1-1.1-1-1.9c0-0.6,0.2-1.1,0.5-1.5l-3.7-0.1c0.4,0.5,0.6,1,0.5,1.7c-0.1,1-0.8,1.5-1.3,1.8    c-0.5,0.3-0.6,0.5-0.7,0.8c0,0.1,0.1,0.3,0.6,0.6c0.6,0.3,1.4,0.8,1.5,1.9c0,1.2-1,1.6-1.5,1.8c-0.6,0.2-0.6,0.3-0.6,0.5    c0,0.3,0.2,0.5,0.8,0.9c0.5,0.4,1.3,0.9,1.2,1.8c-0.1,1.1-1,1.8-1.6,2.2c0.6,36.3-0.3,36.5-0.9,36.7c-1.4,3-6.4,5.4-11.7,5.4    C269.1,278.3,266,277.2,263.6,275.1L263.6,275.1z"/></g>
    <path class="st2"
          d="M243.5,288.8l23.1,0c0.2-0.2-5.2-7.9-11.5-7.3C247.9,281.6,243.1,288.8,243.5,288.8   L243.5,288.8z"
          id="XMLID_28_"/>
    <g><path class="st2" d="M243.5,289.3h-0.6l0-0.6c0-0.9,5-7.7,12.1-7.9l0.7,0c6.3,0,11.2,7,11.4,7.6l0.1,0.4l-0.3,0.3L243.5,289.3    L243.5,289.3z M255.7,281.9l-0.6,0c-5.4,0.1-9.3,4.5-10.6,6.2l21.1,0C264.2,286.4,260.2,281.9,255.7,281.9L255.7,281.9z"/></g>
    <path class="st2"
          d="M317.1,288.2h-31.6c0,0,4.1-2.4,5.2-4.6c2,1.1,1.5,2.2,5.6,2.4c4.1,0.2,8-4.6,11.9-4.4   C312,281.8,317.1,288.4,317.1,288.2L317.1,288.2z"
          id="XMLID_25_"/>
    <g><path class="st2" d="M317,288.8h-33.7l1.8-1.1c0,0,3.9-2.3,5-4.3l0.3-0.5l0.5,0.3c0.7,0.4,1.1,0.8,1.5,1.1    c0.7,0.6,1.2,1.1,3.8,1.2c0,0,0,0,0,0c2,0,3.9-1.1,5.7-2.2c1.9-1.1,3.9-2.2,5.9-2.2c3.7,0.2,7.8,4.8,9.2,6.4l1.6,1.1L317,288.8    L317,288.8z M287.4,287.6h28.3c-3.2-3.5-5.8-5.4-7.6-5.5c0,0,0,0,0,0c-1.9,0-3.6,1-5.5,2.1c-2,1.1-4,2.3-6.1,2.3    c-3.3-0.1-4-0.8-4.8-1.5c-0.2-0.2-0.5-0.4-0.8-0.6C290,285.6,288.6,286.8,287.4,287.6L287.4,287.6z"/></g>
    <path class="st2"
          d="M192.6,288.2h31.6c0,0-4.1-2.4-5.2-4.6c-2,1.1-1.5,2.2-5.6,2.4c-4.1,0.2-8-4.6-11.9-4.4   C197.6,281.8,192.6,288.4,192.6,288.2L192.6,288.2z"
          id="XMLID_22_"/>
    <g><path class="st2" d="M224.2,288.8h-33.5l1.6-1.1c1.6-1.9,5.7-6.5,9.2-6.7c0,0,0,0,0,0c2.3,0,4.2,1.1,6.1,2.2    c1.8,1.1,3.7,2.2,5.6,2.2c2.8-0.1,3.3-0.6,4-1.2c0.4-0.3,0.8-0.7,1.5-1.1l0.5-0.3l0.3,0.5c1,2,4.9,4.3,5,4.3l1.8,1.1H224.2    L224.2,288.8z M193.9,287.6h28.3c-1.2-0.8-2.6-2-3.4-3.2c-0.3,0.2-0.6,0.4-0.8,0.6c-0.8,0.7-1.5,1.4-4.6,1.5c0,0,0,0,0,0    c-2.4,0-4.4-1.2-6.4-2.3c-1.9-1.1-3.6-2.1-5.3-2.1C199.7,282.2,197.1,284.1,193.9,287.6L193.9,287.6z"/></g>
    <path class="st2"
          d="M195,278.4l22.5,0.2c0,0-1.4-3-1.6-6.8c-5.8-2-10.5,4.3-14.7,4.5c-4.2,0.2-8.5-4.5-8.5-4.5   L195,278.4z"
          id="XMLID_19_"/>
    <g><path class="st2" d="M218.4,279.1l-23.8-0.2l-2.5-7l1-0.6c0,0,4.1,4.3,7.9,4.3c1.7-0.1,3.4-1.1,5.2-2.1c2.9-1.7,6.5-3.5,10-2.4    l0.4,0.1l0,0.4c0.2,3.6,1.6,6.6,1.6,6.6L218.4,279.1L218.4,279.1z M195.4,277.8l21.2,0.2c-0.4-1.1-1.1-3.3-1.3-5.8    c-2.9-0.8-5.9,0.8-8.6,2.4c-1.9,1.1-3.7,2.2-5.5,2.3h0c-2.8,0-5.5-1.7-7.2-3.1L195.4,277.8L195.4,277.8z"/></g>
    <path class="st2"
          d="M315,278.4l-22.5,0.2c0,0,1.4-3,1.6-6.8c5.8-2,10.5,4.3,14.7,4.5c4.2,0.2,8.5-4.5,8.5-4.5   L315,278.4z"
          id="XMLID_16_"/>
    <g><path class="st2" d="M291.6,279.1l0.4-0.8c0,0,1.4-3,1.6-6.6l0-0.4l0.4-0.1c3.5-1.2,7.1,0.7,10,2.4c1.8,1,3.4,2,4.9,2.1h0    c4,0,8-4.3,8.1-4.3l1,0.6l-2.5,7L291.6,279.1L291.6,279.1z M294.7,272.2c-0.2,2.5-0.9,4.7-1.3,5.8l21.2-0.2l1.5-4.1    c-1.7,1.4-4.3,3.1-7,3.1c-2-0.1-3.8-1.1-5.7-2.3C300.6,273,297.6,271.4,294.7,272.2L294.7,272.2z"/></g>
    <path class="st2" d="M249.2,278.6l11.4-0.4c0,0,0.2-3.4-5.8-3.4C248.8,274.8,249.4,278.7,249.2,278.6L249.2,278.6z"
          id="XMLID_13_"/>
    <g><path class="st2" d="M248.1,279.2l0.6-0.9c0.5-3.4,3.6-4.1,6.1-4.1c2.5,0,4.3,0.6,5.4,1.7c1,1.1,1,2.2,1,2.3l0,0.5L248.1,279.2    L248.1,279.2z M254.8,275.4c-3.8,0-4.6,1.6-4.9,2.6l1.6,0c0-0.1-0.1-0.2-0.1-0.2c0-0.6,1.2-0.6,1.2,0c0,0.1,0,0.1,0,0.2l7.4-0.2    c-0.1-0.3-0.3-0.6-0.6-0.9C258.5,275.8,256.9,275.4,254.8,275.4L254.8,275.4z"/></g>
    <path class="st3" d="M242.3,273.7c2-1.1,3.8-2.1,5.1-4.7l-7.8,0.2c0,0-3.6,2.2-5.4,4.5H242.3z" id="XMLID_10_"/>
    <g><path class="st3" d="M242.6,274.8H232l1.3-1.7c1.9-2.5,5.6-4.6,5.7-4.7l10.1-0.4l-0.8,1.6c-1.4,2.7-3.3,3.9-5.5,5.1L242.6,274.8    L242.6,274.8z M236.6,272.7h5.4c1.4-0.7,2.5-1.4,3.4-2.5l-5.8,0.1C239.7,270.4,238.1,271.4,236.6,272.7L236.6,272.7z"/></g>
    <path class="st3" d="M267.5,273.7c-2-1.1-3.8-2.1-5.1-4.7l7.8,0.2c0,0,3.6,2.2,5.4,4.5H267.5z" id="XMLID_7_"/>
    <g><path class="st3" d="M277.8,274.8h-10.3c-2.7-1.3-4.6-2.5-6-5.2l-0.8-1.6l9.5,0.2c0.7,0.2,4.3,2.4,6.2,4.9L277.8,274.8    L277.8,274.8z M264.4,270.1c1,1.2,2.2,1.9,3.7,2.7l5.2-0.1c-1.6-1.4-3.5-2.6-3.5-2.6L264.4,270.1L264.4,270.1z"/></g>
    <path class="st1"
          d="M0,330.7h512V181.3H0V330.7z M249,190.7c9.3,0,17.5,0,26.8,3.5c52.5,16.5,59.5,90.5,12.8,118.8   c-8.2,5.9-16.3,8.2-25.7,9.4c-7,0-14,0-21-1.2c-51.3-10.6-67.7-78.8-29.2-114.1C223.3,197.8,235,193.1,249,190.7L249,190.7z"/></g></svg>
