<?xml version="1.0" ?>
<svg id="Layer_1" style="enable-background:new 0 0 512 512;" version="1.1" viewBox="0 0 512 512" xml:space="preserve"
     xmlns="http://www.w3.org/2000/svg"><style type="text/css">
	.st0 {
    fill: #BD2034;
  }

  .st1 {
    fill: #FFFFFF;
  }

  .st2 {
    fill: #070707;
  }

  .st3 {
    fill: #439B4B;
  }
</style>
  <g><rect class="st0" height="99.6" width="512" y="106.7"/>
    <rect class="st1" height="99.6" width="512" y="206.2"/>
    <rect class="st2" height="99.6" width="512" y="305.8"/>
    <path class="st3"
          d="M300.2,237.7c-0.6-0.3-1.3-0.8-1.5-1.1c-0.3-0.5-0.1-0.5,1.3-0.1c2.5,0.7,4.2,0.4,5.8-1l1.4-1.2l1.7,0.9   c0.9,0.5,1.9,0.8,2.2,0.7c0.7-0.2,2.2-2.1,2.2-2.8c0-0.8,0.6-0.6,1,0.3c0.7,1.8-0.3,3.8-2,4.3c-0.9,0.2-1.6,0.1-2.9-0.3   c-1.6-0.5-1.8-0.5-2.6,0.1C304.8,238.7,302.4,238.8,300.2,237.7"/>
    <path class="st3"
          d="M306.4,231.9c-0.6-0.8-1.3-3.7-1.1-4.5c0.2-0.6,0.4-0.8,1-0.6c1,0.3,1.2,1,1.1,3.3   C307.3,232.2,307,232.7,306.4,231.9"/>
    <path class="st3"
          d="M232.8,229.8c-0.2,1.4,2.5,5,3.8,5.6c-0.8,0.4-1.9,0.2-2.7,0.6c-4.3,4.3-20,19.6-22.9,23.3   c8.5,0.2,17.9-0.1,25.9-0.5c0-5.8,5.5-6.1,9.1-8.2c1.9,3,6.6,2.7,7.2,7.2c0,5.3,0,13.4,0,19.2h-72.6c-1.3,5.6-6.4,9.9-13.5,8.2   c2.2-2.3,5.9-3.1,7.2-6.3c1.1-6.9-2.2-11.2-4.4-15.2c3.6-1.3,4.1-1.6,7.8-4.1c-2.5,7.8,6.6,6.9,13.5,6.7c0.2-2.6,0.1-5.7-1.9-6.1   c2.6-0.9,3.1-1.3,7.2-4.8v10.5c16.2,0,33.7-0.1,50.3-0.1c0-3.3,0.9-8.5-1.7-8.5c-2.5,0-0.1,6.7-2,6.7h-38.8c0-1.4,0-4.5,0-6.6   c1.6-1.6,1.5-1.5,12.7-12.8C218,243.7,225.9,236.5,232.8,229.8"/>
    <path class="st3"
          d="M329.9,229.6c2.7,1.5,4.9,3.5,8.2,4.3c-0.4,1.4-1.6,1.9-1.9,3.4v29.3c3.7,0.8,4.5-1.3,6.3-2.4   c0.5,4.7,3.5,9.3,3.4,13h-15.9V229.6z"/>
    <path class="st3"
          d="M308.7,245.3c0,0,5.8-4.9,5.8-5.1v25.6h4.2c0-9.8-0.1-19.7-0.1-28.7c1.7-1.7,5-4.1,5.8-5.8v45.8   c-11.7,0-33.6,0-36.5,0c-0.5-9.5-0.6-19.4,10.5-17.3V256c-0.3-0.7-0.9,0.2-1.1-0.7c1.8-1.8,2.4-2.2,7.1-6.4c0,5,0.1,16.9,0.1,16.9   c1.2,0,3.4,0,4.2,0C308.7,265.8,308.7,245.9,308.7,245.3 M295.1,265.5c0.8,1.2,3.4,1.2,3.3-0.8   C297.9,263.1,294.4,263.7,295.1,265.5"/>
    <path class="st3"
          d="M189.5,280.3c1.2,0,2.2,1,2.2,2.2c0,1.2-1,2.2-2.2,2.2c-1.2,0-2.2-1-2.2-2.2   C187.3,281.3,188.3,280.3,189.5,280.3"/>
    <path class="st3"
          d="M258.2,229.6c2.7,1.5,4.9,3.5,8.2,4.3c-0.4,1.4-1.6,1.9-1.9,3.4v29.3c3.7,0.8,4.5-1.3,6.3-2.4   c0.5,4.7,3.5,9.3,3.4,13h-15.9V229.6z"/></g></svg>
