<?xml version="1.0" ?>
<svg id="Layer_1" style="enable-background:new 0 0 512 512;" version="1.1" viewBox="0 0 512 512" xml:space="preserve"
     xmlns="http://www.w3.org/2000/svg"><style type="text/css">
	.st0 {
    fill: #4081C3;
  }

  .st1 {
    fill: #F1D631;
  }

  .st2 {
    fill: #347E5A;
  }

  .st3 {
    fill: #E0AE28;
  }
</style>
  <g><rect class="st0" height="149.4" width="512" y="106.7"/>
    <rect class="st1" height="74.7" width="512" y="256"/>
    <rect class="st2" height="74.7" width="512" y="330.7"/>
    <polygon class="st3"
             points="481.7,215.4 458.5,197.6 469.7,224.6 451.9,201.5 455.7,230.4 444.5,203.4 440.7,232.4 436.9,203.4    425.7,230.4 429.5,201.5 411.7,224.6 422.9,197.6 399.7,215.4 417.5,192.2 390.5,203.4 413.7,185.6 384.7,189.4 411.7,178.2    382.7,174.4 411.7,170.6 384.7,159.4 413.7,163.2 390.5,145.4 417.5,156.6 399.7,133.4 422.9,151.2 411.7,124.2 429.5,147.4    425.7,118.4 436.9,145.4 440.7,116.5 444.5,145.4 455.7,118.4 451.9,147.4 469.7,124.2 458.5,151.2 481.7,133.4 463.9,156.6    490.9,145.4 467.7,163.2 496.7,159.4 469.7,170.6 498.6,174.4 469.7,178.2 496.7,189.4 467.7,185.6 490.9,203.4 463.9,192.2  "/>
    <path class="st3"
          d="M461.8,174.4c0,11.7-9.4,21.1-21.1,21.1c-11.6,0-21.1-9.4-21.1-21.1s9.4-21.1,21.1-21.1   C452.3,153.3,461.8,162.8,461.8,174.4L461.8,174.4z"/>
    <g><path class="st0" d="M440.7,196.6c-12.2,0-22.1-9.9-22.1-22.1s9.9-22.1,22.1-22.1c12.2,0,22.1,9.9,22.1,22.1    S452.9,196.6,440.7,196.6L440.7,196.6z M440.7,154.4c-11.1,0-20,9-20,20c0,11.1,9,20,20,20c11.1,0,20.1-9,20.1-20    C460.7,163.4,451.7,154.4,440.7,154.4L440.7,154.4z"/></g></g></svg>
