<?xml version="1.0" ?>
<svg id="Layer_1" style="enable-background:new 0 0 512 512;" version="1.1" viewBox="0 0 512 512" xml:space="preserve"
     xmlns="http://www.w3.org/2000/svg"><style type="text/css">
	.st0 {
    fill: #4F69B2;
  }

  .st1 {
    fill: #FFFFFF;
  }

  .st2 {
    fill: #317338;
  }

  .st3 {
    fill: #F5D729;
  }
</style>
  <g id="XMLID_1_"><rect class="st0" height="99.5" id="XMLID_23_" width="512" y="106.7"/>
    <rect class="st1" height="99.6" id="XMLID_22_" width="512" y="206.2"/>
    <rect class="st2" height="99.6" id="XMLID_21_" width="512" y="305.8"/>
    <g><path class="st3" d="M256,295.8c-22,0-39.8-17.9-39.8-39.8c0-22,17.9-39.8,39.8-39.8s39.8,17.9,39.8,39.8    C295.8,278,278,295.8,256,295.8L256,295.8z M256,221.2c-19.2,0-34.8,15.6-34.8,34.8c0,19.2,15.6,34.9,34.8,34.9    c19.2,0,34.8-15.6,34.8-34.9C290.8,236.8,275.2,221.2,256,221.2L256,221.2z"/></g>
    <path class="st3"
          d="M256,248c4.4,0,8,3.6,8,8c0,4.4-3.6,8-8,8c-4.4,0-8-3.6-8-8C248,251.6,251.6,248,256,248   L256,248z"
          id="XMLID_18_"/>
    <g><polygon class="st3" id="XMLID_17_" points="280.9,257 256,257 256,255 280.9,255 280.9,257   "/></g>
    <path class="st3"
          d="M280.9,251c2.8,0,5,2.2,5,5c0,2.8-2.2,5-5,5c-2.7,0-5-2.2-5-5C275.9,253.3,278.1,251,280.9,251   L280.9,251z"
          id="XMLID_16_"/>
    <g><polygon class="st3" id="XMLID_15_" points="256.5,256.9 255.5,255.1 277,242.7 278,244.4 256.5,256.9   "/></g>
    <path class="st3"
          d="M275.1,239.2c2.4-1.4,5.4-0.6,6.8,1.8c1.4,2.4,0.6,5.4-1.8,6.8c-2.4,1.4-5.4,0.6-6.8-1.8   C271.9,243.7,272.7,240.6,275.1,239.2L275.1,239.2z"
          id="XMLID_14_"/>
    <g><polygon class="st3" id="XMLID_13_" points="256.9,256.5 255.1,255.5 267.6,234 269.3,234.9 256.9,256.5   "/></g>
    <path class="st3"
          d="M264.1,232c1.4-2.4,4.4-3.2,6.8-1.8c2.4,1.4,3.2,4.4,1.8,6.8c-1.4,2.4-4.4,3.2-6.8,1.8   C263.6,237.4,262.7,234.3,264.1,232L264.1,232z"
          id="XMLID_12_"/>
    <g><polygon class="st3" id="XMLID_11_" points="257,256 255,256 255,231.1 257,231.1 257,256   "/></g>
    <path class="st3"
          d="M251,231.1c0-2.8,2.2-5,5-5c2.8,0,5,2.2,5,5c0,2.7-2.2,5-5,5C253.2,236.1,251,233.8,251,231.1   L251,231.1z"
          id="XMLID_10_"/>
    <g><polygon class="st3" id="XMLID_9_" points="255.1,256.5 242.7,234.9 244.4,234 256.9,255.5 255.1,256.5   "/></g>
    <path class="st3"
          d="M239.2,236.9c-1.4-2.4-0.6-5.4,1.8-6.8c2.4-1.4,5.4-0.6,6.8,1.8c1.4,2.4,0.6,5.4-1.8,6.8   C243.7,240.1,240.6,239.3,239.2,236.9L239.2,236.9z"
          id="XMLID_8_"/>
    <g><polygon class="st3" id="XMLID_7_" points="255.5,256.9 234,244.4 235,242.7 256.5,255.1 255.5,256.9   "/></g>
    <path class="st3"
          d="M232,247.9c-2.4-1.4-3.2-4.4-1.8-6.8c1.4-2.4,4.4-3.2,6.8-1.8c2.4,1.4,3.2,4.4,1.8,6.8   C237.4,248.4,234.3,249.2,232,247.9L232,247.9z"
          id="XMLID_6_"/>
    <g><polygon class="st3" id="XMLID_5_" points="256,257 231.1,257 231.1,255 256,255 256,257   "/></g>
    <path class="st3"
          d="M231.1,251c2.7,0,5,2.2,5,5c0,2.8-2.2,5-5,5c-2.8,0-5-2.2-5-5C226.1,253.3,228.4,251,231.1,251   L231.1,251z"
          id="XMLID_4_"/>
    <g><polygon class="st3" id="XMLID_3_" points="257,280.9 255,280.9 255,256 257,256 257,280.9   "/></g></g></svg>
