<?xml version="1.0" ?>
<svg id="Layer_1" style="enable-background:new 0 0 512 512;" version="1.1" viewBox="0 0 512 512" xml:space="preserve"
     xmlns="http://www.w3.org/2000/svg"><style type="text/css">
	.st0 {
    fill: #FFFFFF;
  }

  .st1 {
    fill: #394EA1;
  }
</style>
  <g><rect class="st0" height="298.7" width="512" y="106.7"/>
    <polygon class="st1" points="256,239.4 250.9,255.2 258.8,257.8  "/>
    <polygon class="st1" points="256,239.4 261.1,255.2 253.2,257.8  "/>
    <polygon class="st1" points="271.8,250.9 255.2,250.9 255.2,259.2  "/>
    <polygon class="st1" points="271.8,250.9 258.4,260.6 253.5,253.9  "/>
    <polygon class="st1" points="240.2,250.9 253.6,260.6 258.5,253.9  "/>
    <polygon class="st1" points="240.2,250.9 256.8,250.9 256.8,259.2  "/>
    <polygon class="st1" points="265.8,269.4 260.6,253.6 252.7,256.2  "/>
    <polygon class="st1" points="265.8,269.4 252.3,259.7 257.2,253  "/>
    <polygon class="st1" points="246.2,269.4 259.7,259.7 254.8,253  "/>
    <polygon class="st1" points="246.2,269.4 251.4,253.6 259.3,256.2  "/>
    <polygon class="st1" points="339,264.3 333.8,280.1 341.7,282.6  "/>
    <polygon class="st1" points="339,264.3 344.1,280.1 336.2,282.6  "/>
    <polygon class="st1" points="354.7,275.8 338.2,275.8 338.2,284.1  "/>
    <polygon class="st1" points="354.7,275.8 341.3,285.5 336.4,278.8  "/>
    <polygon class="st1" points="323.2,275.8 336.6,285.5 341.5,278.8  "/>
    <polygon class="st1" points="323.2,275.8 339.8,275.8 339.8,284.1  "/>
    <polygon class="st1" points="348.7,294.3 343.6,278.5 335.7,281.1  "/>
    <polygon class="st1" points="348.7,294.3 335.3,284.6 340.2,277.9  "/>
    <polygon class="st1" points="329.2,294.3 342.6,284.6 337.8,277.9  "/>
    <polygon class="st1" points="329.2,294.3 334.3,278.5 342.2,281.1  "/>
    <polygon class="st1" points="339,214.5 333.8,230.3 341.7,232.9  "/>
    <polygon class="st1" points="339,214.5 344.1,230.3 336.2,232.9  "/>
    <polygon class="st1" points="354.7,226 338.2,226 338.2,234.3  "/>
    <polygon class="st1" points="354.7,226 341.3,235.7 336.4,229  "/>
    <polygon class="st1" points="323.2,226 336.6,235.7 341.5,229  "/>
    <polygon class="st1" points="323.2,226 339.8,226 339.8,234.3  "/>
    <polygon class="st1" points="348.7,244.5 343.6,228.8 335.7,231.3  "/>
    <polygon class="st1" points="348.7,244.5 335.3,234.8 340.2,228.1  "/>
    <polygon class="st1" points="329.2,244.5 342.6,234.8 337.8,228.1  "/>
    <polygon class="st1" points="329.2,244.5 334.3,228.8 342.2,231.3  "/>
    <polygon class="st1" points="173,264.3 167.9,280.1 175.8,282.6  "/>
    <polygon class="st1" points="173,264.3 178.2,280.1 170.3,282.6  "/>
    <polygon class="st1" points="188.8,275.8 172.2,275.8 172.2,284.1  "/>
    <polygon class="st1" points="188.8,275.8 175.4,285.5 170.5,278.8  "/>
    <polygon class="st1" points="157.3,275.8 170.7,285.5 175.6,278.8  "/>
    <polygon class="st1" points="157.3,275.8 173.8,275.8 173.8,284.1  "/>
    <polygon class="st1" points="182.8,294.3 177.7,278.5 169.8,281.1  "/>
    <polygon class="st1" points="182.8,294.3 169.4,284.6 174.2,277.9  "/>
    <polygon class="st1" points="163.3,294.3 176.7,284.6 171.8,277.9  "/>
    <polygon class="st1" points="163.3,294.3 168.4,278.5 176.3,281.1  "/>
    <polygon class="st1" points="173,214.5 167.9,230.3 175.8,232.9  "/>
    <polygon class="st1" points="173,214.5 178.2,230.3 170.3,232.9  "/>
    <polygon class="st1" points="188.8,226 172.2,226 172.2,234.3  "/>
    <polygon class="st1" points="188.8,226 175.4,235.7 170.5,229  "/>
    <polygon class="st1" points="157.3,226 170.7,235.7 175.6,229  "/>
    <polygon class="st1" points="157.3,226 173.8,226 173.8,234.3  "/>
    <polygon class="st1" points="182.8,244.5 177.7,228.8 169.8,231.3  "/>
    <polygon class="st1" points="182.8,244.5 169.4,234.8 174.2,228.1  "/>
    <polygon class="st1" points="163.3,244.5 176.7,234.8 171.8,228.1  "/>
    <polygon class="st1" points="163.3,244.5 168.4,228.8 176.3,231.3  "/>
    <rect class="st1" height="99.6" width="512" y="106.7"/>
    <rect class="st1" height="99.6" width="512" y="305.8"/></g></svg>
