<?xml version="1.0" ?>
<svg id="Layer_1" style="enable-background:new 0 0 512 512;" version="1.1" viewBox="0 0 512 512" xml:space="preserve"
     xmlns="http://www.w3.org/2000/svg"><style type="text/css">
	.st0 {
    fill: #010101;
  }

  .st1 {
    fill: #FFFFFF;
  }
</style>
  <g id="XMLID_1_"><rect class="st0" height="29.9" id="XMLID_55_" width="309.2" x="202.8" y="106.7"/>
    <rect class="st0" height="29.9" id="XMLID_54_" width="309.2" x="202.8" y="173.9"/>
    <rect class="st0" height="29.9" id="XMLID_53_" width="512" y="241.1"/>
    <rect class="st0" height="29.9" id="XMLID_52_" width="512" y="308.3"/>
    <rect class="st0" height="29.9" id="XMLID_51_" width="512" y="375.5"/>
    <rect class="st1" height="37.3" id="XMLID_50_" width="309.2" x="202.8" y="136.5"/>
    <rect class="st1" height="37.3" id="XMLID_49_" width="309.2" x="202.8" y="203.7"/>
    <rect class="st1" height="37.3" id="XMLID_48_" width="512" y="270.9"/>
    <rect class="st1" height="37.3" id="XMLID_47_" width="512" y="338.1"/>
    <rect class="st1" height="134.4" id="XMLID_46_" width="202.8" y="106.7"/>
    <polygon class="st0" id="XMLID_45_" points="152.1,163.4 156.6,160.4 164.1,163.4 156.6,166.4  "/>
    <polygon class="st0" id="XMLID_44_" points="152.1,163.4 147.6,166.4 140.2,163.4 147.6,160.4  "/>
    <polygon class="st0" id="XMLID_43_" points="152.1,163.4 149.1,158.9 152.1,151.5 155.1,158.9  "/>
    <polygon class="st0" id="XMLID_42_"
             points="152.1,197.8 149.1,191.8 138.7,196.3 152.1,163.4 165.5,196.3 155.1,191.8  "/>
    <polygon class="st0" id="XMLID_41_" points="177.5,203.7 181.9,200.7 189.4,203.7 181.9,206.7  "/>
    <polygon class="st0" id="XMLID_40_" points="177.5,203.7 173,206.7 165.5,203.7 173,200.7  "/>
    <polygon class="st0" id="XMLID_39_" points="177.5,203.7 174.5,199.3 177.5,191.8 180.5,199.3  "/>
    <polygon class="st0" id="XMLID_38_"
             points="177.5,238.1 174.5,232.1 164.1,236.6 177.5,203.7 190.9,236.6 180.5,232.1  "/>
    <polygon class="st0" id="XMLID_37_" points="126.8,203.7 131.2,200.7 138.7,203.7 131.2,206.7  "/>
    <polygon class="st0" id="XMLID_36_" points="126.8,203.7 122.3,206.7 114.8,203.7 122.3,200.7  "/>
    <polygon class="st0" id="XMLID_35_" points="126.8,203.7 123.8,199.3 126.8,191.8 129.7,199.3  "/>
    <polygon class="st0" id="XMLID_34_"
             points="126.8,238.1 123.8,232.1 113.3,236.6 126.8,203.7 140.2,236.6 129.7,232.1  "/>
    <polygon class="st0" id="XMLID_33_" points="177.5,120.1 181.9,117.1 189.4,120.1 181.9,123.1  "/>
    <polygon class="st0" id="XMLID_32_" points="177.5,120.1 173,123.1 165.5,120.1 173,117.1  "/>
    <polygon class="st0" id="XMLID_31_" points="177.5,120.1 174.5,115.6 177.5,108.2 180.5,115.6  "/>
    <polygon class="st0" id="XMLID_30_" points="177.5,154.5 174.5,148.5 164.1,153 177.5,120.1 190.9,153 180.5,148.5  "/>
    <polygon class="st0" id="XMLID_29_" points="128.3,120.9 132.7,117.9 140.2,120.9 132.7,123.9  "/>
    <polygon class="st0" id="XMLID_28_" points="128.3,120.9 123.8,123.9 116.3,120.9 123.8,117.9  "/>
    <polygon class="st0" id="XMLID_27_" points="128.3,120.9 125.3,116.4 128.3,108.9 131.2,116.4  "/>
    <polygon class="st0" id="XMLID_26_"
             points="128.3,155.2 125.3,149.3 114.8,153.7 128.3,120.9 141.7,153.7 131.2,149.3  "/>
    <polygon class="st0" id="XMLID_25_" points="101.4,163.4 105.9,160.4 113.3,163.4 105.9,166.4  "/>
    <polygon class="st0" id="XMLID_24_" points="101.4,163.4 96.9,166.4 89.5,163.4 96.9,160.4  "/>
    <polygon class="st0" id="XMLID_23_" points="101.4,163.4 98.4,158.9 101.4,151.5 104.4,158.9  "/>
    <polygon class="st0" id="XMLID_22_" points="101.4,197.8 98.4,191.8 88,196.3 101.4,163.4 114.8,196.3 104.4,191.8  "/>
    <polygon class="st0" id="XMLID_21_" points="76.1,120.1 80.5,117.1 88,120.1 80.5,123.1  "/>
    <polygon class="st0" id="XMLID_20_" points="76.1,120.1 71.6,123.1 64.1,120.1 71.6,117.1  "/>
    <polygon class="st0" id="XMLID_19_" points="76.1,120.1 73.1,115.6 76.1,108.2 79,115.6  "/>
    <polygon class="st0" id="XMLID_18_" points="76.1,154.5 73.1,148.5 62.6,153 76.1,120.1 89.5,153 79,148.5  "/>
    <polygon class="st0" id="XMLID_17_" points="76.1,203.7 80.5,200.7 88,203.7 80.5,206.7  "/>
    <polygon class="st0" id="XMLID_16_" points="76.1,203.7 71.6,206.7 64.1,203.7 71.6,200.7  "/>
    <polygon class="st0" id="XMLID_15_" points="76.1,203.7 73.1,199.3 76.1,191.8 79,199.3  "/>
    <polygon class="st0" id="XMLID_14_" points="76.1,238.1 73.1,232.1 62.6,236.6 76.1,203.7 89.5,236.6 79,232.1  "/>
    <polygon class="st0" id="XMLID_13_" points="50.7,163.4 55.2,160.4 62.6,163.4 55.2,166.4  "/>
    <polygon class="st0" id="XMLID_12_" points="50.7,163.4 46.2,166.4 38.8,163.4 46.2,160.4  "/>
    <polygon class="st0" id="XMLID_11_" points="50.7,163.4 47.7,158.9 50.7,151.5 53.7,158.9  "/>
    <polygon class="st0" id="XMLID_10_" points="50.7,197.8 47.7,191.8 37.3,196.3 50.7,163.4 64.1,196.3 53.7,191.8  "/>
    <polygon class="st0" id="XMLID_9_" points="25.4,120.1 29.8,117.1 37.3,120.1 29.8,123.1  "/>
    <polygon class="st0" id="XMLID_8_" points="25.4,120.1 20.9,123.1 13.4,120.1 20.9,117.1  "/>
    <polygon class="st0" id="XMLID_7_" points="25.4,120.1 22.4,115.6 25.4,108.2 28.3,115.6  "/>
    <polygon class="st0" id="XMLID_6_" points="25.4,154.5 22.4,148.5 11.9,153 25.4,120.1 38.8,153 28.3,148.5  "/>
    <polygon class="st0" id="XMLID_5_" points="25.4,203.7 29.8,200.7 37.3,203.7 29.8,206.7  "/>
    <polygon class="st0" id="XMLID_4_" points="25.4,203.7 20.9,206.7 13.4,203.7 20.9,200.7  "/>
    <polygon class="st0" id="XMLID_3_" points="25.4,203.7 22.4,199.3 25.4,191.8 28.3,199.3  "/>
    <polygon class="st0" id="XMLID_2_"
             points="25.4,238.1 22.4,232.1 11.9,236.6 25.4,203.7 38.8,236.6 28.3,232.1  "/></g></svg>
