<?xml version="1.0" ?>
<svg id="Layer_1" style="enable-background:new 0 0 512 512;" version="1.1" viewBox="0 0 512 512" xml:space="preserve"
     xmlns="http://www.w3.org/2000/svg"><style type="text/css">
	.st0 {
    fill: #BD1F34;
  }

  .st1 {
    fill: #50B648;
  }

  .st2 {
    fill: #FFFFFF;
  }
</style>
  <g id="XMLID_1_"><polygon class="st0" id="XMLID_13_" points="472.2,106.7 39.8,106.7 256,232.8  "/>
    <polygon class="st0" id="XMLID_12_" points="39.8,405.3 472.2,405.3 256,279.2  "/>
    <polygon class="st1" id="XMLID_11_" points="512,382.1 512,129.9 295.8,256  "/>
    <polygon class="st1" id="XMLID_10_" points="0,382.1 216.2,256 0,129.9  "/>
    <path class="st2"
          d="M512,106.7h-39.8L318,196.6c-15.8-15.6-37.7-25.2-62-25.2c-24.3,0-46.2,9.7-62,25.2L39.8,106.7   H0v23.2l172.9,100.9c-2.6,8-3.9,16.5-3.9,25.3s1.4,17.3,3.9,25.3L0,382.1v23.2h39.8L194,315.4c15.8,15.6,37.7,25.2,62,25.2   c24.3,0,46.2-9.7,62-25.2l154.2,89.9H512v-23.2L339.1,281.3c2.6-8,3.9-16.5,3.9-25.3s-1.4-17.3-3.9-25.3L512,129.9V106.7z"
          id="XMLID_9_"/>
    <polygon class="st1" id="XMLID_8_"
             points="261.7,202.2 256,192.3 250.3,202.2 238.8,202.2 244.5,212.2 238.8,222.2 250.3,222.2    256,232.1 261.7,222.2 273.2,222.2 267.5,212.2 273.2,202.2  "/>
    <polygon class="st1" id="XMLID_7_"
             points="305.4,277.9 311.2,267.9 299.7,267.9 293.9,258 288.2,267.9 276.7,267.9 282.4,277.9    276.7,287.9 288.2,287.9 293.9,297.8 299.7,287.9 311.2,287.9  "/>
    <polygon class="st1" id="XMLID_6_"
             points="223.8,267.9 218.1,258 212.3,267.9 200.8,267.9 206.6,277.9 200.8,287.9 212.3,287.9    218.1,297.8 223.8,287.9 235.3,287.9 229.6,277.9 235.3,267.9  "/>
    <polygon class="st0" id="XMLID_5_"
             points="260.7,204 256,195.9 251.3,204 241.9,204 246.6,212.2 241.9,220.4 251.3,220.4    256,228.5 260.7,220.4 270.1,220.4 265.4,212.2 270.1,204  "/>
    <polygon class="st0" id="XMLID_4_"
             points="303.4,277.9 308.1,269.7 298.6,269.7 293.9,261.6 289.2,269.7 279.8,269.7 284.5,277.9    279.8,286.1 289.2,286.1 293.9,294.2 298.6,286.1 308.1,286.1  "/>
    <polygon class="st0" id="XMLID_3_"
             points="222.8,269.7 218.1,261.6 213.3,269.7 203.9,269.7 208.6,277.9 203.9,286.1 213.3,286.1    218.1,294.2 222.8,286.1 232.2,286.1 227.5,277.9 232.2,269.7  "/></g></svg>
