<?xml version="1.0" ?>
<svg id="Layer_1" style="enable-background:new 0 0 512 512;" version="1.1" viewBox="0 0 512 512" xml:space="preserve"
     xmlns="http://www.w3.org/2000/svg"><style type="text/css">
	.st0 {
    fill: #120065;
  }

  .st1 {
    fill: #FFFFFF;
  }

  .st2 {
    fill: #F2C227;
  }

  .st3 {
    fill: #F09B47;
  }

  .st4 {
    fill: #F08D80;
  }

  .st5 {
    fill: #F296DF;
  }

  .st6 {
    fill: #44A82F;
  }

  .st7 {
    fill: #DB0037;
  }

  .st8 {
    fill-rule: evenodd;
    clip-rule: evenodd;
    fill: #AB582A;
  }

  .st9 {
    fill-rule: evenodd;
    clip-rule: evenodd;
    fill: #120065;
  }

  .st10 {
    fill: #BA0019;
  }
</style>
  <g><rect class="st0" height="298.7" width="512" y="106.7"/>
    <path class="st1" d="M430.5,207.6V244c0,29.8-11.7,57.2-46.5,73.8c-34.8-16.6-46.5-43.9-46.5-73.8v-36.3H430.5z"/>
    <g><path d="M384,317.9L384,317.9c-30.9-14.8-46.6-39.6-46.6-73.9v-36.3l93.1-0.1l0.1,36.5C430.6,278.2,414.9,303.1,384,317.9    L384,317.9L384,317.9z M430.4,207.6l-92.9,0.1l0.1,36.2c0,34.1,15.6,58.9,46.4,73.6c30.8-14.7,46.4-39.5,46.4-73.6V207.6    L430.4,207.6z"/></g>
    <path class="st2" d="M427.4,211.3v33.9c0,27.8-10.9,53.3-43.4,68.8c-32.4-15.5-43.4-41-43.4-68.8v-33.9H427.4z"/>
    <g><path d="M384,314.2L384,314.2c-28.9-13.8-43.5-37-43.5-68.9v-33.9l86.8-0.1l0.1,34C427.5,277.2,412.9,300.4,384,314.2L384,314.2    L384,314.2z M427.2,211.3l-86.6,0.1l0.1,33.8c0,31.8,14.5,55,43.2,68.7c28.7-13.7,43.3-36.8,43.3-68.7V211.3L427.2,211.3z"/></g>
    <path class="st3"
          d="M363.8,226.2c-0.6-0.5-1.3-0.8-2.2-0.8c0.2-2.3-1.5-3.3-2.7-3.7c-1.2-0.4-1.6-0.9-1.8-1.8   c-0.2-0.9-0.8-1.5-1.9-1.8c-1.1-0.3-2-1.4-2.5-1.9c-0.4-0.5-0.6-0.4-0.9,0.5c-0.3,0.9-1.6,2.6-0.4,2.6c-0.8,0.7-1.3,1.5-0.8,2.5   c-0.6,0.5-1,1.1-0.2,1.4c0.8,0.3,1,0.5,1,0.7c-0.7,0-0.9,1.4,0.8,1.7c-0.4,0.1-0.5,1.2,0.2,1.2c-0.9,0-1.7,1.4-2.9,1.4   c-1.2,0-1.8,0.3-1.9,0.8c0,0.5-0.7,1.2-1,1.4c0.9,0.1,1.5,0,1.9-0.4c0.5-0.4,1.3-0.5,1.8,0c0.5,0.4,1.6,0.6,2.1,0.5   c-1.2,0.8-2,1.8-2.1,2.8c-0.1,1-0.8,2.2-1.6,2.5c-0.8,0.3-1.8,1.1-2.2,2.1c1,2.5,2.4,3.1,3.8,3.7c2.5,1.2,4.1,2,5.1,3.1   c1,1.2,1.5,0.3,3,2.3c1.6,2,3,5.7,4.6,6.4c1.6,0.6,3.6,0.2,4.7-1.8C369,249.6,369.7,229.6,363.8,226.2L363.8,226.2z"/>
    <g><path d="M364.5,253.7c-0.5,0-1-0.1-1.4-0.3c-1-0.4-1.9-2-2.9-3.7c-0.6-1-1.1-2-1.7-2.7c-0.9-1.1-1.4-1.3-1.9-1.5    c-0.4-0.1-0.7-0.3-1.1-0.8c-1-1.1-2.6-2-5.1-3.1c-1.5-0.7-2.9-1.3-3.8-3.7c0.4-1,1.4-1.9,2.2-2.2c0.7-0.3,1.4-1.4,1.5-2.4    c0.1-0.7,0.5-1.4,1.1-2.1c-0.5,0.7-1,1.4-1,2.1c-0.1,1.1-0.8,2.2-1.6,2.5c-0.8,0.3-1.8,1.1-2.2,2.1c1,2.4,2.3,3,3.7,3.6    c2.6,1.2,4.2,2.1,5.2,3.2c0.4,0.5,0.8,0.6,1.1,0.7c0.5,0.2,1,0.4,1.9,1.6c0.6,0.7,1.2,1.7,1.7,2.7c0.9,1.6,1.9,3.3,2.9,3.7    c1.7,0.7,3.6,0,4.6-1.8c0.9-1.5,1.4-12.5-0.5-19.5c-0.8-3.1-2-5-3.5-5.9c-0.7-0.5-1.4-0.8-2.2-0.8c0.2-2.3-1.4-3.3-2.7-3.7    c-1.2-0.4-1.6-0.9-1.9-1.9c-0.2-0.9-0.8-1.5-1.9-1.8c-0.8-0.2-1.6-0.9-2.5-2c-0.5-0.3-0.7,0.1-0.8,0.5c-0.1,0.2-0.2,0.5-0.4,0.8    c-0.2,0.4-0.4,0.8-0.5,1.1c0-0.4,0.2-0.8,0.4-1.2c0.1-0.3,0.3-0.6,0.4-0.8c0.2-0.5,0.3-0.8,0.5-0.8c1.3,1.4,2.1,2,2.9,2.3    c1.1,0.3,1.8,0.9,2,1.9c0.2,1,0.6,1.4,1.8,1.8c1.1,0.4,2.9,1.4,2.7,3.8c0.8,0,1.5,0.2,2.2,0.7c1.5,0.9,2.7,2.9,3.5,5.9    c1.9,7.1,1.4,18,0.5,19.5C367.1,253,365.9,253.7,364.5,253.7L364.5,253.7z M351.9,230.4c-0.7,0-1.3-0.2-1.6-0.5    c-0.4-0.4-1.2-0.3-1.7,0c-0.4,0.3-0.8,0.4-1.4,0.4l-0.3-0.1c0.9-0.1,1.3-0.2,1.6-0.4c0.5-0.4,1.4-0.4,1.8,0    c0.4,0.3,1.2,0.5,1.8,0.5C352.1,230.5,351.9,230.4,351.9,230.4L351.9,230.4z M346.6,230.3l-0.1,0c0.4-0.4,0.9-0.9,1-1.4    c0.1-0.6,0.7-0.8,1.9-0.8c0.6,0,1.1-0.4,1.6-0.8c0.4-0.3,0.7-0.6,1.1-0.6c-0.2,0-0.3-0.2-0.3-0.5c0-0.3,0.1-0.7,0.4-0.7    c-1-0.1-1.4-0.7-1.3-1.2c0-0.3,0.3-0.6,0.6-0.6c-0.1-0.1-0.2-0.3-1.1-0.6l-0.5-0.4c-0.1-0.3,0.2-0.7,0.7-1.1    c-0.3-0.5-0.3-1.1,0-1.6c-0.2,0.6-0.2,1.1,0.1,1.6c-0.4,0.4-0.7,0.8-0.6,1c1.2,0.6,1.4,0.8,1.5,1.1c-0.3,0.1-0.5,0.3-0.5,0.5    c0,0.4,0.3,1,1.2,1.1c-0.2,0.1-0.3,0.4-0.3,0.7c0,0.1,0.1,0.5,0.4,0.5c0,0-0.1,0-0.1,0c-0.4,0.1-0.8,0.4-1.2,0.7    c-0.5,0.4-1,0.8-1.7,0.8c-1.2,0-1.8,0.2-1.8,0.7C347.5,229.5,346.9,230.1,346.6,230.3L346.6,230.3z"/></g>
    <path class="st4"
          d="M366.5,217.8c-1.5,1.6-3.3,3.1-3,6c0.3,2.8,0.6,7.4-2,9c-2.6,1.6-3.9,5.5-0.7,7.9c3.1,2.3,3.2,5.1,3.8,7.7   c0.5,2.6,1.9,4.7,4,2.9c2.1,0.3,3.2-0.5,3.2-2.2c0-1.7,0.1-2.6,1.7-3.1c1.6-0.5,2-1.1,2.7-2.5c0.7-1.4,1.1-2,0.7-2.9   c-0.4-0.8-0.6-2.6-0.3-3.8c0.3-1.3-0.4-1.9-0.8-2.7c-0.4-0.8-0.6-1.5-0.4-2.5c0.2-1-0.3-1.7-1-2.2c-0.7-0.5-1-1-0.9-1.9   c0.2-0.8-0.5-1.4-1.3-2c-0.8-0.6-1.4-1.5-1.4-2.7C370.8,221.5,368.4,218.6,366.5,217.8L366.5,217.8z"/>
    <g><path d="M367,252c-1.1,0-2.1-1.4-2.6-3.6l-0.2-1c-0.4-2.3-0.8-4.7-3.6-6.7c-1.3-0.9-1.9-2.2-1.9-3.7c0.1-1.7,1.1-3.3,2.6-4.2    c2.5-1.5,2.3-5.8,2-8.9c-0.3-2.5,1.2-4.1,2.6-5.5l0.5-0.5c2,0.7,4.4,3.7,4.4,5c0,1.1,0.4,2,1.3,2.7c0.8,0.7,1.5,1.2,1.3,2    c-0.1,0.8,0.1,1.3,0.9,1.8c0.9,0.6,1.3,1.4,1.1,2.3c-0.2,1.1,0,1.8,0.4,2.5c0.7,1.1,1.1,1.7,0.8,2.8c-0.3,1.3-0.1,3,0.3,3.8    c0.4,0.8,0.1,1.4-0.6,2.6c-0.9,1.7-1.3,2.3-2.9,2.8c-1.6,0.5-1.6,1.5-1.6,3.1c0,0.7-0.2,1.3-0.6,1.7c-0.6,0.5-1.4,0.7-2.7,0.5    C368,251.8,367.5,252,367,252L367,252z M366.4,217.9l-0.4,0.5c-1.4,1.4-2.8,2.9-2.5,5.4c0.4,3.2,0.5,7.5-2,9    c-1.5,0.9-2.5,2.5-2.6,4.1c0,1,0.2,2.4,1.8,3.6c2.8,2,3.2,4.4,3.6,6.8l0.2,1c0.6,3.1,2.2,4.4,3.9,2.9c1.3,0.1,2.1,0,2.6-0.5    c0.4-0.4,0.6-0.9,0.6-1.6c0-1.6,0.1-2.7,1.7-3.2c1.6-0.5,2-1.1,2.7-2.4c0.8-1.5,1.1-2.1,0.7-2.8c-0.4-0.8-0.6-2.5-0.3-3.9    c0.2-1-0.2-1.6-0.5-2.2c-0.7-1.2-0.9-1.9-0.7-3c0.2-0.9-0.2-1.6-1-2.2c-0.8-0.6-1.1-1.1-0.9-1.9c0.1-0.8-0.5-1.3-1.2-1.9    c-1-0.8-1.4-1.7-1.4-2.8C370.7,221.5,368.3,218.6,366.4,217.9L366.4,217.9z"/></g>
    <path class="st5"
          d="M367,252c3.5-0.9,3.2-6.6,2.7-9.1c-0.5-2.4-1.9-5.8-0.8-8.6c1.5-3.9-1.8-7.5-0.9-9c0.8-1.5,0.7-2.2,0.6-2.7   c-0.1-0.5-0.9-0.8-0.9,0.2c-0.1,1-0.3,1.4-0.9,2c-0.6,0.6-0.5,2,0,3.5s1.5,3.8-0.1,6.9c-1.6,3-0.9,4.4-0.3,5.8   C367.2,243.2,369.5,250.8,367,252L367,252z"/>
    <g><path d="M366.6,252.2l0.5-0.2c2.4-1.2,0-9-0.8-11c-0.6-1.4-1.2-2.9,0.3-5.9c1.4-2.7,0.7-4.9,0.2-6.4c-0.7-2.2-0.7-3.4-0.1-4    c0.6-0.6,0.9-1,0.9-2c0-0.6,0.3-0.7,0.4-0.7c0.3,0,0.6,0.2,0.6,0.5c0.1,0.5,0.2,1.4-0.6,2.8c-0.3,0.6,0,1.5,0.4,2.7    c0.6,1.8,1.4,4,0.5,6.3c-0.8,2.2-0.1,4.8,0.5,7c0.1,0.6,0.3,1.1,0.4,1.6c0.5,2.2,0.9,8.2-2.7,9.1L366.6,252.2L366.6,252.2z     M368,222.2C368,222.2,368,222.2,368,222.2c-0.2,0-0.3,0.2-0.3,0.6c-0.1,1-0.3,1.4-1,2c-0.5,0.5-0.5,1.7,0,3.5    c0.6,1.9,1.3,4.1-0.1,6.9c-1.5,3-1,4.3-0.3,5.7c0.9,2.1,3.1,9.2,1.1,11c3.2-1.2,2.7-6.8,2.3-8.9c-0.1-0.5-0.2-1-0.4-1.6    c-0.6-2.2-1.3-4.9-0.5-7c0.9-2.3,0.1-4.4-0.5-6.2c-0.4-1.2-0.8-2.2-0.4-2.8c0.9-1.5,0.7-2.3,0.6-2.7    C368.5,222.4,368.2,222.2,368,222.2L368,222.2z M350.6,240.6c-0.1,0-0.1,0-0.2,0l0-0.1c0.5,0.1,0.8-0.1,1-0.5    c0.2-0.4,0.3-0.7,0.9-0.7c0.6,0,1.4-0.2,1.5-0.6c0.7-0.4,1.1-0.5,1.4-1.1c0.7-1.5,1.2-2.5,2.4-2.9c-1.2,0.5-1.6,1.5-2.1,2.4    c-0.6,1.2-1,1.4-1.3,1.4c-0.6,0.8-1.7,0.8-2,0.9c-0.5,0-0.6,0.2-0.7,0.5C351.3,240.4,351,240.6,350.6,240.6L350.6,240.6z     M352.4,230.5L352.4,230.5c0.3-0.4,0.8-0.7,1.4-1c0.7-0.3,1.4-0.7,1.6-1.1c-0.1,0.5-0.8,0.8-1.5,1.2    C353.3,229.9,352.8,230.2,352.4,230.5L352.4,230.5z M354.6,226.9c-0.2,0-0.5,0-0.8-0.1c-0.4,0-0.9-0.1-1.4-0.1l0-0.1    c0.4,0,0.9,0,1.4,0.1c0.7,0.1,1.3,0.1,1.4-0.1C355.1,226.9,354.9,226.9,354.6,226.9L354.6,226.9z M358.9,226.9    c0.2-0.7,1-1.5,2.7-1.5v0.1C359.9,225.5,359.2,226.2,358.9,226.9L358.9,226.9z M358,226.2c0.1-0.4-0.1-0.6-0.3-0.8    c-0.2-0.3-0.5-0.6-0.3-1.3c0.2-1,0.3-1.1-0.6-1.4c-0.5-0.1-0.5-0.5-0.5-0.8c0-0.4,0-0.9-0.6-1.3c-0.3-0.2-0.3-0.5-0.4-0.7    c-0.1-0.4-0.2-0.8-1-1l0-0.1c0.8,0.3,0.9,0.7,1.1,1.1c0.1,0.2,0.1,0.5,0.4,0.7c0.6,0.5,0.6,1,0.6,1.4c0,0.4,0,0.6,0.4,0.7    c1,0.3,1,0.5,0.7,1.5c-0.1,0.6,0.1,0.9,0.3,1.2C358.1,225.6,358.3,225.8,358,226.2L358,226.2z"/></g>
    <path class="st6"
          d="M391.9,263.4c0.6,0.9,0,1.8,1,2.2c1.2,0.4,0.2,2,1.5,2.5c1.2,0.5,0,2,1.3,2.6c1.2,0.6-0.2,2,1.4,2.8   c1.6,0.8-0.3,2.6,0.9,3.3c1.2,0.7-0.4,2.5,1,3.2c1.4,0.7-0.6,2.1,0.7,3.1c1.3,1-0.3,2.5,1,3.4c1.3,0.9-0.8,2.1,0.5,3.4   c1,1-0.4,2,0.4,3.5c0.5,1-0.5,5-3.3,4.6c-1,1.7-4.9,3.2-6.2,2.7c-1.4,1-5.9,2.4-8.1,0.2c-2.3,2.2-6.7,0.8-8.1-0.2   c-1.4,0.5-5.3-1-6.3-2.7c-2.8,0.4-3.8-3.6-3.3-4.6c0.8-1.5-0.6-2.5,0.4-3.5c1.3-1.3-0.8-2.5,0.5-3.4c1.3-0.9-0.3-2.4,1-3.4   c1.3-1-0.7-2.4,0.7-3.1c1.4-0.7-0.2-2.5,1-3.2c1.2-0.7-0.7-2.5,0.9-3.3c1.6-0.8,0.2-2.2,1.4-2.8c1.3-0.7,0.1-2.1,1.3-2.6   c1.4-0.5,0.4-2.1,1.5-2.5c1-0.4,0.4-1.3,1-2.2C379,264.5,388.1,265.3,391.9,263.4L391.9,263.4z"/>
    <g><path d="M387.3,301.9c-1.4,0-2.6-0.4-3.4-1.2c-1.7,1.8-6.5,1-8.1-0.2c-0.8,0.5-3.8-0.5-5.3-1.7c1.7,1.2,4.3,2,5.4,1.6    c1.4,1,6.2,2.1,8.1,0.2c2,1.8,6.5,0.9,8.1-0.2c1.7,0.5,5.3-1,6.2-2.7l0,0c1.6,0,2.3-0.8,2.7-1.4c0.7-1.1,0.9-2.6,0.6-3.1    c-0.4-0.8-0.2-1.4-0.1-1.9c0.1-0.6,0.2-1-0.3-1.5c-0.7-0.7-0.5-1.3-0.2-1.9c0.2-0.6,0.4-1-0.2-1.4c-0.7-0.5-0.6-1.1-0.5-1.7    c0.1-0.6,0.1-1.2-0.5-1.7c-0.7-0.5-0.5-1.1-0.3-1.7c0.2-0.6,0.3-1-0.4-1.4c-0.8-0.4-0.7-1.1-0.6-1.7c0.1-0.6,0.1-1.1-0.4-1.5    c-0.6-0.3-0.5-0.9-0.4-1.5c0.1-0.7,0.3-1.3-0.5-1.7c-0.9-0.4-0.9-1.1-0.9-1.6c0-0.5,0-0.9-0.5-1.2c-0.7-0.3-0.7-0.9-0.7-1.5    c0-0.5,0-0.9-0.6-1.2c-0.8-0.3-0.8-0.9-0.9-1.4c-0.1-0.5-0.1-0.9-0.6-1.1c-0.6-0.2-0.7-0.7-0.7-1.1c0-0.3-0.1-0.7-0.3-1.1    c-1.8,1-4.8,1.2-6.9,1.2h0c-3.4,0-7.1-0.5-8.9-1.2c-0.2,0.3-0.2,0.7-0.3,1.1c0,0.5-0.1,0.9-0.7,1.1c-0.5,0.2-0.6,0.6-0.6,1.1    c-0.1,0.5-0.1,1.1-0.9,1.4c-0.6,0.2-0.6,0.7-0.6,1.2c0,0.5,0,1.1-0.7,1.5c-0.5,0.3-0.5,0.7-0.5,1.2c0,0.6,0,1.2-0.9,1.6    c-0.8,0.4-0.7,1.1-0.5,1.7c0.1,0.6,0.2,1.2-0.3,1.5c-0.5,0.3-0.5,0.9-0.4,1.5c0.1,0.7,0.2,1.3-0.6,1.7c-0.7,0.3-0.5,0.8-0.4,1.4    c0.2,0.6,0.3,1.2-0.3,1.7c-0.6,0.5-0.5,1.1-0.5,1.7c0.1,0.6,0.2,1.2-0.5,1.7c-0.6,0.4-0.4,0.9-0.2,1.4c0.2,0.6,0.4,1.2-0.2,1.9    c-0.5,0.5-0.4,1-0.3,1.5c0.1,0.5,0.3,1.2-0.1,1.9c-0.3,0.5-0.1,2,0.6,3.1c0.4,0.6,1.1,1.4,2.2,1.4c0,0,0,0,0.1,0.1    c-1.3,0-2-0.8-2.4-1.4c-0.7-1.1-0.9-2.6-0.6-3.2c0.4-0.7,0.2-1.3,0.1-1.9c-0.1-0.6-0.2-1.1,0.3-1.6c0.6-0.6,0.4-1.2,0.2-1.8    c-0.2-0.6-0.4-1.1,0.3-1.6c0.6-0.4,0.6-1,0.5-1.6c-0.1-0.6-0.2-1.3,0.5-1.8c0.6-0.5,0.5-1,0.3-1.6c-0.2-0.6-0.3-1.1,0.4-1.5    c0.7-0.3,0.6-1,0.5-1.6c-0.1-0.6-0.2-1.2,0.5-1.6c0.5-0.3,0.4-0.8,0.3-1.4c-0.1-0.7-0.3-1.4,0.6-1.9c0.8-0.4,0.8-1,0.8-1.5    c0-0.5,0-1,0.6-1.3c0.6-0.3,0.7-0.8,0.7-1.4c0-0.5,0-1,0.7-1.3c0.7-0.3,0.8-0.8,0.8-1.3c0.1-0.5,0.1-1,0.7-1.2    c0.5-0.2,0.6-0.6,0.6-1c0-0.4,0.1-0.8,0.4-1.1c1.8,0.7,5.6,1.2,8.9,1.2c2.2,0,5.1-0.2,7-1.2c0.3,0.4,0.4,0.8,0.4,1.1    c0,0.5,0.1,0.8,0.6,1c0.6,0.2,0.7,0.7,0.7,1.2c0.1,0.5,0.1,1.1,0.8,1.3c0.6,0.3,0.7,0.8,0.7,1.3c0,0.5,0,1,0.7,1.4    c0.6,0.3,0.6,0.8,0.6,1.3c0,0.5,0,1.1,0.8,1.5c0.9,0.4,0.7,1.2,0.6,1.9c-0.1,0.6-0.2,1.1,0.3,1.4c0.6,0.4,0.5,1,0.5,1.6    c-0.1,0.6-0.2,1.3,0.5,1.6c0.7,0.4,0.6,0.9,0.4,1.5c-0.2,0.5-0.3,1.1,0.3,1.6c0.7,0.5,0.6,1.2,0.5,1.8c-0.1,0.6-0.1,1.2,0.5,1.6    c0.7,0.5,0.5,1,0.3,1.6c-0.2,0.6-0.4,1.2,0.2,1.8c0.5,0.5,0.4,1.1,0.3,1.6c-0.1,0.5-0.2,1.1,0.1,1.9c0.3,0.6,0.1,2.1-0.6,3.2    c-0.4,0.7-1.2,1.5-2.3,1.5c-1.4,1.6-5.3,3.1-6.6,2.7C391.2,301.2,389.2,301.9,387.3,301.9L387.3,301.9z"/></g>
    <path class="st2"
          d="M377.2,268.6c0,0.4,0,0.9-0.4,1.4c-0.9,1.2,0.4,1.8-0.6,3.1c-1,1.3,0.2,2.1-0.9,3.2c-1.1,1.1,0.2,2.1-0.9,3.3   c-1.1,1.2,0.2,2-0.9,3.1c-1.1,1.1,0.2,2.3-0.9,3.4c-1.1,1.1,0.2,2.5-1,3.8c-1.2,1.3,0.2,2.3-0.8,3.3c-1,1-0.1,2-0.8,2.7   c1.2-0.9,1.2-2.3,2.1-3c0.9-0.7-0.3-1.7,0.2-2.2c0.5-0.5,0.1-2.6,1-3.6c0.9-1,0.1-3,0.9-3.7c0.8-0.7,0.2-2.8,1.2-3.5   c1-0.7,0-2.4,0.8-3.3c0.8-0.9,0-2.3,0.8-3.4c0.8-1.1,0-2.1,0.6-3C377.8,269.8,377.8,266.9,377.2,268.6L377.2,268.6z"/>
    <g><path d="M370.1,295.7L370.1,295.7c0.2-0.4,0.2-0.7,0.2-1.1c0-0.5,0-1.1,0.5-1.6c0.5-0.4,0.4-0.9,0.3-1.4c-0.1-0.6-0.2-1.2,0.5-1.9    c0.6-0.6,0.6-1.3,0.5-2c0-0.6-0.1-1.3,0.5-1.8c0.5-0.5,0.5-1.1,0.4-1.6c-0.1-0.6-0.1-1.2,0.5-1.7c0.5-0.5,0.5-1,0.4-1.4    c-0.1-0.5-0.1-1,0.5-1.6c0.5-0.6,0.5-1.1,0.4-1.6c0-0.5-0.1-1.1,0.5-1.6c0.5-0.5,0.5-1,0.5-1.5c0-0.5-0.1-1,0.4-1.7    c0.5-0.6,0.4-1.1,0.3-1.6c-0.1-0.4-0.2-0.9,0.3-1.5c0.4-0.5,0.4-1,0.4-1.4v-0.1l0.4-0.5c0.3,0.5,0.3,1.9,0.1,2.2    c-0.2,0.4-0.2,0.8-0.2,1.3c0,0.6,0.1,1.1-0.4,1.7c-0.4,0.5-0.4,1.1-0.4,1.7c0,0.6,0,1.2-0.4,1.6c-0.4,0.4-0.3,1-0.3,1.6    c0,0.6,0.1,1.3-0.5,1.7c-0.5,0.4-0.6,1.1-0.7,1.8c-0.1,0.7-0.1,1.3-0.5,1.6c-0.4,0.3-0.4,0.9-0.4,1.6c0,0.7,0,1.5-0.5,2    c-0.5,0.6-0.6,1.4-0.7,2.2c-0.1,0.6-0.1,1.1-0.3,1.3c-0.2,0.2-0.1,0.5,0,0.8c0.2,0.5,0.3,1-0.2,1.4c-0.4,0.3-0.6,0.8-0.9,1.3    C371.1,294.6,370.7,295.2,370.1,295.7L370.1,295.7z M377.6,268.2c-0.3,0.8-0.3,1.3-0.7,1.9c-0.4,0.6-0.3,1-0.3,1.4    c0.1,0.5,0.2,1-0.3,1.7c-0.5,0.6-0.4,1.1-0.4,1.6c0,0.5,0.1,1-0.5,1.6c-0.5,0.5-0.5,1-0.4,1.6c0.1,0.5,0.1,1.1-0.5,1.7    c-0.5,0.6-0.5,1.1-0.4,1.5c0.1,0.5,0.1,1-0.5,1.5c-0.5,0.5-0.5,1.1-0.4,1.6c0.1,0.6,0.1,1.2-0.5,1.7c-0.5,0.5-0.5,1.1-0.4,1.7    c0,0.7,0.1,1.4-0.5,2c-0.6,0.7-0.5,1.2-0.4,1.8c0.1,0.5,0.1,1-0.3,1.5c-0.5,0.5-0.5,1-0.5,1.5c0,0.3,0,0.6-0.1,0.8    c0.4-0.4,0.7-0.9,0.9-1.4c0.2-0.5,0.5-1,0.9-1.3c0.5-0.4,0.3-0.8,0.2-1.3c-0.1-0.3-0.2-0.7,0-0.9c0.2-0.2,0.2-0.7,0.3-1.3    c0.1-0.8,0.2-1.7,0.7-2.3c0.4-0.5,0.5-1.2,0.5-2c0-0.7,0-1.3,0.4-1.7c0.4-0.3,0.4-0.9,0.5-1.6c0.1-0.8,0.2-1.5,0.7-1.9    c0.5-0.3,0.5-1,0.4-1.6c0-0.6-0.1-1.2,0.3-1.6c0.4-0.4,0.4-1,0.4-1.6c0-0.6,0-1.2,0.4-1.8c0.4-0.6,0.4-1.1,0.4-1.7    c0-0.5,0-0.9,0.2-1.3C377.7,269.9,377.8,268.5,377.6,268.2L377.6,268.2z"/></g>
    <path class="st2"
          d="M380.1,269.8c-0.7,1.3,0.5,1.6-0.4,2.9c-0.9,1.3,0.5,2.3-0.5,3.6c-1,1.3,0.5,2-0.4,3.3c-0.9,1.3,0.4,2-0.4,3   c-0.8,1,0.6,2-0.4,3.2c-1,1.2,0.4,2.1-0.4,3.2c-0.8,1.1,0.3,2.3-0.4,3.2c-0.7,0.9,0.5,2.2-0.5,3.4c-1,1.2,0.2,2-0.4,2.8   c1.2-0.4,0.7-2,1.2-2.4c0.4-0.3-0.2-2.6,0.5-3.2c0.7-0.6-0.4-2.4,0.2-3.2c1.1-1.3,0.2-2.2,0.8-3.3c0.6-1-0.2-2.4,0.3-3.1   c0.8-1.2-0.4-2.3,0.2-3.1c0.9-1.2-0.2-2.3,0.5-3.1c0.9-1.2-0.1-2.5,0.3-3.1C380.7,273,381.3,270.2,380.1,269.8L380.1,269.8z"/>
    <g><path d="M376.2,298.3l0.1-0.1c0.2-0.3,0.2-0.7,0.1-1c-0.1-0.5-0.3-1.1,0.3-1.7c0.5-0.6,0.4-1.3,0.3-1.9c-0.1-0.5-0.2-1,0.2-1.5    c0.3-0.4,0.2-0.9,0.2-1.4c-0.1-0.6-0.2-1.2,0.2-1.8c0.4-0.5,0.3-1,0.1-1.4c-0.1-0.5-0.3-1.1,0.3-1.7c0.5-0.6,0.4-1.2,0.2-1.7    c-0.1-0.5-0.2-1,0.2-1.5c0.4-0.5,0.3-0.8,0.2-1.3c-0.1-0.5-0.2-1,0.2-1.7c0.4-0.6,0.3-1.1,0.2-1.6c-0.1-0.5-0.3-1,0.2-1.7    c0.5-0.6,0.4-1.2,0.3-1.8c-0.1-0.6-0.2-1.1,0.2-1.8c0.5-0.7,0.4-1,0.3-1.4c-0.1-0.4-0.2-0.8,0.1-1.4c0.4,0.1,0.6,0.3,0.7,0.7    c0.4,1-0.1,2.8-0.4,3.3c-0.1,0.2-0.1,0.6,0,1c0.1,0.6,0.3,1.4-0.3,2.2c-0.3,0.3-0.2,0.7-0.1,1.2c0.1,0.6,0.2,1.2-0.3,1.9    c-0.3,0.4-0.2,0.8-0.1,1.3c0.1,0.6,0.3,1.2-0.2,1.8c-0.2,0.3-0.2,0.7-0.1,1.3c0.1,0.6,0.2,1.2-0.2,1.8c-0.3,0.4-0.3,0.9-0.2,1.3    c0,0.6,0.1,1.2-0.6,2c-0.3,0.4-0.2,1-0.1,1.6c0.1,0.7,0.2,1.3-0.1,1.6c-0.4,0.3-0.4,1.2-0.3,1.9c0,0.6,0,1.2-0.2,1.3    c-0.1,0.1-0.2,0.4-0.2,0.8c-0.1,0.6-0.2,1.4-1,1.6L376.2,298.3L376.2,298.3z M380.1,269.9c-0.3,0.6-0.2,0.9-0.1,1.3    c0.1,0.4,0.2,0.8-0.3,1.5c-0.4,0.6-0.3,1.1-0.2,1.7c0.1,0.6,0.2,1.2-0.3,1.9c-0.5,0.6-0.4,1.1-0.2,1.6c0.1,0.5,0.3,1-0.2,1.7    c-0.5,0.7-0.3,1.1-0.2,1.6c0.1,0.4,0.2,0.9-0.2,1.4c-0.4,0.4-0.2,0.9-0.1,1.4c0.1,0.5,0.3,1.1-0.3,1.8c-0.5,0.6-0.4,1.1-0.2,1.6    c0.1,0.5,0.2,1-0.2,1.5c-0.4,0.5-0.3,1.1-0.2,1.7c0.1,0.5,0.2,1-0.2,1.5c-0.3,0.4-0.2,0.9-0.2,1.4c0.1,0.6,0.2,1.3-0.3,2    c-0.5,0.6-0.4,1.2-0.3,1.6c0.1,0.3,0.2,0.7,0,1c0.6-0.3,0.7-0.9,0.7-1.5c0.1-0.4,0.1-0.7,0.3-0.8c0.2-0.1,0.2-0.7,0.2-1.2    c0-0.8,0-1.6,0.4-2c0.3-0.3,0.2-0.9,0.1-1.5c-0.1-0.6-0.2-1.3,0.1-1.7c0.6-0.7,0.6-1.3,0.5-1.9c0-0.5,0-0.9,0.2-1.4    c0.3-0.5,0.2-1.2,0.2-1.7c-0.1-0.5-0.1-1,0.1-1.3c0.4-0.6,0.3-1.2,0.2-1.8c-0.1-0.5-0.2-0.9,0.1-1.4c0.5-0.7,0.4-1.3,0.3-1.8    c-0.1-0.5-0.1-0.9,0.2-1.3c0.6-0.7,0.4-1.4,0.3-2.1c-0.1-0.4-0.2-0.8,0-1.1c0.3-0.5,0.7-2.2,0.4-3.2    C380.5,270.2,380.3,269.9,380.1,269.9L380.1,269.9z"/></g>
    <path class="st2"
          d="M383.9,270.9c-0.7,1.7,0.5,2.4,0.1,3.8c-0.4,1.4,0.5,2.4-0.1,3.9c-0.6,1.5,0.8,2.6,0,4.6c-0.8,2,0.5,2.5,0,4.4   c-0.6,2.2,1,3.4,0,5c-1,1.6,1.1,2.1,0.1,3.8c-0.5,0.8,0,2.8,0.8,0.4c0.8-2.4-0.6-2.7,0.1-3.7c0.7-1-0.3-3.6,0-5   c0.3-1.4-0.7-3.3,0-4.8c0.6-1.5-1-3.1-0.3-4.4c0.6-1.3-0.3-2.9,0.3-3.9c0.6-1-0.4-2.4-0.2-3C385,271.4,384.5,269.2,383.9,270.9   L383.9,270.9z"/>
    <g><path d="M384.2,298l-0.2-0.2c-0.2-0.3-0.2-1,0.1-1.5c0.5-0.8,0.2-1.3,0-1.9c-0.3-0.5-0.6-1.1-0.1-1.9c0.5-0.8,0.3-1.5,0.1-2.3    c-0.2-0.7-0.4-1.6-0.1-2.7c0.2-0.9,0.1-1.5-0.1-2c-0.2-0.7-0.4-1.3,0.1-2.3c0.4-1,0.2-1.8,0-2.6c-0.2-0.7-0.3-1.3,0-2    c0.3-0.8,0.2-1.5,0.1-2.1c-0.1-0.6-0.2-1.1,0-1.8c0.2-0.6,0-1.1-0.1-1.6c-0.2-0.6-0.4-1.3,0-2.2c0.1-0.5,0.3-0.7,0.5-0.7    c0.5,0.5,0.6,1.4,0.4,1.8c-0.1,0.2,0,0.6,0.1,1c0.2,0.6,0.4,1.4,0.1,2c-0.3,0.5-0.2,1.1-0.1,1.8c0.1,0.7,0.2,1.5-0.2,2.1    c-0.3,0.6-0.1,1.3,0.2,2c0.3,0.8,0.5,1.6,0.2,2.3c-0.4,0.8-0.2,1.8-0.1,2.7c0.1,0.7,0.2,1.4,0.1,2c-0.1,0.6,0,1.4,0.1,2.2    c0.1,1.1,0.3,2.2-0.1,2.8c-0.3,0.4-0.2,0.7-0.1,1.1c0.2,0.5,0.4,1.2,0,2.6C384.7,297.6,384.4,298,384.2,298L384.2,298z     M384.4,270.4c-0.1,0-0.2,0.1-0.4,0.5c-0.4,0.9-0.2,1.6,0,2.2c0.2,0.5,0.3,1,0.1,1.6c-0.2,0.6-0.1,1.2,0,1.7    c0.1,0.7,0.2,1.4-0.1,2.2c-0.3,0.7-0.1,1.3,0,1.9c0.2,0.8,0.4,1.6,0,2.7c-0.4,1-0.2,1.6-0.1,2.3c0.2,0.6,0.3,1.2,0.1,2.1    c-0.3,1.1-0.1,1.9,0.1,2.6c0.2,0.8,0.4,1.6-0.1,2.4c-0.5,0.8-0.2,1.3,0.1,1.8c0.3,0.6,0.6,1.1,0,2c-0.2,0.4-0.2,1-0.1,1.3l0.2,0.1    c0.1,0,0.3-0.1,0.7-1.1c0.4-1.3,0.2-2,0-2.5c-0.1-0.4-0.3-0.7,0.1-1.2c0.4-0.5,0.2-1.6,0.1-2.7c-0.1-0.8-0.2-1.7-0.1-2.3    c0.1-0.6,0-1.3-0.1-2c-0.2-0.9-0.3-1.9,0.1-2.8c0.3-0.7,0.1-1.5-0.2-2.3c-0.3-0.7-0.5-1.5-0.2-2.1c0.3-0.6,0.2-1.4,0.2-2.1    c-0.1-0.7-0.2-1.3,0.1-1.9c0.3-0.6,0.1-1.3-0.1-1.9c-0.1-0.4-0.2-0.8-0.1-1.1c0.1-0.3,0-1.2-0.2-1.5    C384.4,270.4,384.4,270.4,384.4,270.4L384.4,270.4z"/></g>
    <path class="st7" d="M391.4,264.5c0-11.2-1.6-15.1-7.4-15.1c-5.8,0-7.4,3.9-7.4,15.1H391.4z"/>
    <g><path d="M384,300.7c0.2-0.9,0-1.5-0.1-2.1c-0.2-0.6-0.3-1.3,0.1-2.2c0.4-0.9,0.1-1.4-0.1-1.9c-0.3-0.5-0.5-1.1,0-1.9    c0.5-0.8,0.3-1.5,0.1-2.3c-0.2-0.7-0.4-1.6-0.1-2.7c0.2-0.9,0.1-1.5-0.1-2c-0.2-0.7-0.4-1.3,0.1-2.4c0.4-1,0.2-1.8,0-2.6    c-0.2-0.7-0.3-1.3,0-2c0.3-0.8,0.2-1.5,0.1-2.1c-0.1-0.6-0.2-1.1,0-1.8c0.2-0.6,0-1.1-0.1-1.6c-0.2-0.6-0.4-1.3,0-2.2    c0.4-0.9,0.2-1.8,0.1-2.8c-0.1-0.9-0.3-1.9-0.1-2.9l0.1,0c-0.2,1-0.1,1.9,0.1,2.8c0.2,1,0.3,1.9-0.1,2.8c-0.4,0.9-0.2,1.6,0,2.2    c0.2,0.5,0.3,1,0.1,1.6c-0.2,0.6-0.1,1.2,0,1.7c0.1,0.7,0.2,1.4-0.1,2.2c-0.3,0.7-0.1,1.3,0,1.9c0.2,0.8,0.4,1.6,0,2.7    c-0.4,1-0.2,1.6-0.1,2.3c0.2,0.6,0.3,1.2,0.1,2.1c-0.3,1.1-0.1,1.9,0.1,2.6c0.2,0.8,0.4,1.6-0.1,2.4c-0.5,0.8-0.3,1.2,0,1.8    c0.2,0.5,0.5,1.1,0.1,2c-0.4,0.9-0.3,1.5-0.1,2.2C384.1,299.2,384.3,299.8,384,300.7L384,300.7z M392.4,300.1    c0-0.5-0.4-1.4-0.8-1.9c-0.3-0.4-0.2-0.7-0.1-1.1c0.1-0.5,0.2-1-0.3-1.6c-0.6-0.7-0.4-1.4-0.3-2c0.1-0.5,0.2-1-0.2-1.4    c-0.3-0.5-0.3-1-0.2-1.5c0.1-0.6,0.2-1.1-0.2-1.7c-0.4-0.5-0.3-1-0.2-1.5c0.1-0.5,0.3-1-0.2-1.6c-0.5-0.6-0.4-1.3-0.3-1.8    c0.1-0.5,0.2-0.9-0.1-1.4c-0.4-0.5-0.3-0.9-0.2-1.4c0.1-0.5,0.2-1-0.2-1.6c-0.5-0.7-0.3-1.2-0.2-1.7c0.1-0.5,0.3-1-0.2-1.6    c-0.5-0.7-0.4-1.3-0.3-1.9c0.1-0.6,0.2-1.1-0.2-1.7c-0.5-0.7-0.4-1.1-0.3-1.5c0.1-0.4,0.2-0.8-0.1-1.3c-0.4-0.6-0.2-1.1-0.1-1.5    c0.1-0.4,0.2-0.8-0.2-1.3c-0.5-0.6-0.3-1-0.2-1.4c0.1-0.3,0.2-0.6,0.1-1h-6.8c-0.1,0.4,0,0.7,0.1,1c0.1,0.4,0.3,0.9-0.2,1.4    c-0.4,0.5-0.3,0.9-0.2,1.3c0.1,0.4,0.3,0.8-0.1,1.5c-0.3,0.6-0.2,1-0.1,1.3c0.1,0.4,0.2,0.8-0.3,1.5c-0.4,0.6-0.3,1.1-0.2,1.7    c0.1,0.6,0.2,1.2-0.3,1.9c-0.5,0.6-0.4,1.1-0.2,1.6c0.1,0.5,0.3,1-0.2,1.7c-0.5,0.7-0.3,1.1-0.2,1.6c0.1,0.4,0.2,0.9-0.2,1.4    c-0.4,0.4-0.2,0.9-0.1,1.4c0.1,0.5,0.3,1.1-0.3,1.8c-0.5,0.6-0.4,1.1-0.2,1.6c0.1,0.5,0.2,1-0.2,1.5c-0.4,0.5-0.3,1.1-0.2,1.7    c0.1,0.5,0.2,1-0.2,1.5c-0.3,0.4-0.2,0.9-0.1,1.4c0.1,0.6,0.2,1.3-0.3,2c-0.5,0.6-0.4,1.2-0.3,1.6c0.1,0.4,0.2,0.8-0.1,1.1    c-0.4,0.6-0.8,1.4-0.7,1.9c-0.2-0.5,0.2-1.4,0.6-2c0.2-0.3,0.2-0.6,0.1-1c-0.1-0.5-0.3-1.1,0.3-1.7c0.5-0.6,0.4-1.3,0.3-1.9    c-0.1-0.5-0.2-1,0.2-1.5c0.3-0.4,0.2-0.9,0.2-1.4c-0.1-0.6-0.2-1.2,0.2-1.8c0.4-0.5,0.3-1,0.1-1.4c-0.1-0.5-0.3-1.1,0.3-1.7    c0.5-0.6,0.4-1.2,0.2-1.7c-0.1-0.5-0.2-1,0.2-1.5c0.4-0.5,0.3-0.8,0.2-1.3c-0.1-0.5-0.2-1,0.2-1.7c0.4-0.6,0.3-1.1,0.2-1.6    c-0.1-0.5-0.3-1,0.2-1.7c0.5-0.6,0.4-1.2,0.3-1.8c-0.1-0.6-0.2-1.1,0.2-1.8c0.5-0.7,0.4-1,0.3-1.4c-0.1-0.4-0.2-0.8,0.1-1.4    c0.3-0.6,0.2-1,0.1-1.4c-0.1-0.4-0.3-0.8,0.2-1.4c0.4-0.5,0.3-0.9,0.2-1.3c-0.1-0.3-0.2-0.7-0.1-1.1h-2.1c0,0.2,0,0.4,0,0.6    c0.1,0.5,0.1,1-0.5,1.7c-0.6,0.7-0.6,1.1-0.6,1.7c0,0.5,0,0.9-0.4,1.5c-0.4,0.6-0.3,1-0.3,1.4c0.1,0.5,0.2,1-0.3,1.7    c-0.5,0.6-0.4,1.1-0.4,1.6c0,0.5,0.1,1-0.5,1.6c-0.5,0.5-0.5,1-0.4,1.6c0.1,0.5,0.1,1.1-0.5,1.7c-0.5,0.6-0.5,1.1-0.4,1.5    c0.1,0.5,0.1,1-0.5,1.5c-0.5,0.5-0.5,1.1-0.4,1.6c0.1,0.6,0.1,1.2-0.5,1.7c-0.5,0.5-0.5,1.1-0.4,1.7c0,0.7,0.1,1.4-0.5,2    c-0.6,0.7-0.5,1.2-0.4,1.8c0.1,0.5,0.1,1-0.3,1.5c-0.5,0.5-0.5,1-0.5,1.5c0,0.4,0,0.8-0.3,1.1c-0.7,0.7-0.8,1.6-0.5,2    c-0.4-0.4-0.3-1.4,0.4-2.1c0.3-0.3,0.3-0.6,0.3-1.1c0-0.5,0-1.1,0.5-1.6c0.5-0.5,0.4-0.9,0.3-1.4c-0.1-0.6-0.2-1.2,0.5-1.9    c0.6-0.6,0.6-1.3,0.5-2c0-0.6-0.1-1.3,0.5-1.8c0.5-0.5,0.5-1.1,0.4-1.6c-0.1-0.6-0.1-1.2,0.5-1.7c0.5-0.5,0.5-1,0.4-1.4    c-0.1-0.5-0.1-1,0.5-1.6c0.5-0.6,0.5-1.1,0.4-1.6c0-0.5-0.1-1.1,0.5-1.6c0.5-0.5,0.5-1,0.5-1.5c0-0.5-0.1-1,0.4-1.7    c0.5-0.6,0.4-1.1,0.3-1.6c-0.1-0.4-0.2-0.9,0.3-1.5c0.4-0.6,0.4-1,0.4-1.4c0-0.5,0-1,0.6-1.7c0.5-0.6,0.5-1.1,0.4-1.6    c0-0.2,0-0.4,0-0.6h-1.7c-0.1-11.6,1.7-15.2,7.4-15.2c5.7,0,7.5,3.5,7.5,15.1l-0.1,0.1h-1.7c0,0.2,0,0.4,0,0.6    c-0.1,0.5-0.1,1,0.4,1.6c0.6,0.7,0.6,1.2,0.6,1.7c0,0.5,0,0.9,0.4,1.4c0.5,0.6,0.4,1.1,0.3,1.5c-0.1,0.5-0.2,0.9,0.3,1.6    c0.5,0.6,0.5,1.2,0.4,1.7c0,0.5-0.1,1,0.5,1.5c0.6,0.6,0.5,1.1,0.5,1.6c0,0.5-0.1,1.1,0.4,1.6c0.6,0.6,0.5,1.1,0.5,1.6    c0,0.5-0.1,0.9,0.4,1.4c0.6,0.6,0.5,1.2,0.5,1.7c0,0.6-0.1,1.1,0.4,1.6c0.6,0.6,0.5,1.2,0.5,1.8c0,0.6-0.1,1.3,0.5,2    c0.6,0.7,0.6,1.3,0.5,1.9c-0.1,0.5-0.1,0.9,0.3,1.4c0.6,0.6,0.5,1.1,0.5,1.6c0,0.4,0,0.8,0.3,1.1c0.7,0.7,0.8,1.7,0.5,2.1    c0.2-0.5,0.1-1.4-0.6-2.1c-0.3-0.3-0.3-0.7-0.3-1.1c0-0.5,0-1-0.5-1.5c-0.5-0.5-0.4-1-0.3-1.5c0.1-0.6,0.2-1.1-0.4-1.8    c-0.6-0.7-0.6-1.4-0.5-2c0-0.6,0.1-1.2-0.4-1.7c-0.6-0.6-0.5-1.2-0.5-1.7c0-0.6,0.1-1.1-0.4-1.6c-0.6-0.6-0.5-1.1-0.5-1.5    c0-0.5,0.1-1-0.4-1.5c-0.6-0.6-0.5-1.2-0.5-1.7c0-0.5,0.1-1-0.4-1.6c-0.6-0.6-0.5-1.1-0.5-1.6c0-0.5,0.1-1-0.4-1.6    c-0.5-0.7-0.4-1.2-0.3-1.7c0.1-0.4,0.2-0.9-0.3-1.4c-0.4-0.6-0.4-1.1-0.4-1.5c0-0.5,0-1-0.6-1.7c-0.6-0.7-0.5-1.2-0.5-1.7    c0-0.2,0-0.4,0-0.6h-2.1c0.1,0.4,0,0.8-0.1,1.1c-0.1,0.4-0.2,0.8,0.2,1.3c0.5,0.6,0.4,1,0.2,1.4c-0.1,0.4-0.2,0.8,0.1,1.4    c0.3,0.6,0.2,1,0.1,1.4c-0.1,0.4-0.2,0.8,0.2,1.4c0.4,0.6,0.3,1.2,0.2,1.8c-0.1,0.6-0.2,1.1,0.3,1.8c0.5,0.7,0.4,1.2,0.2,1.7    c-0.1,0.5-0.3,0.9,0.2,1.6c0.5,0.7,0.3,1.2,0.2,1.7c-0.1,0.4-0.2,0.8,0.2,1.3c0.4,0.5,0.3,1,0.2,1.5c-0.1,0.5-0.3,1.1,0.2,1.7    c0.5,0.6,0.4,1.2,0.3,1.7c-0.1,0.5-0.2,0.9,0.1,1.4c0.4,0.6,0.3,1.2,0.2,1.8c-0.1,0.5-0.2,1,0.2,1.4c0.3,0.4,0.3,0.9,0.2,1.5    c-0.1,0.6-0.2,1.3,0.3,1.9c0.6,0.7,0.4,1.3,0.3,1.7c-0.1,0.4-0.2,0.7,0.1,1C392.1,298.7,392.5,299.6,392.4,300.1L392.4,300.1z     M383.9,249.5c-5.7,0-7.4,3.5-7.4,15l1.6,0c0-0.3,0.2-0.6,0.5-0.9l0.1,0.1c-0.3,0.3-0.4,0.6-0.4,0.8l2.2,0    c0.1-0.2,0.2-0.3,0.3-0.5l0.1,0.1c-0.1,0.2-0.2,0.3-0.3,0.5l6.8,0c-0.1-0.1-0.1-0.3-0.3-0.4l0.1-0.1c0.1,0.2,0.2,0.3,0.3,0.5    l2.2,0c0-0.3-0.2-0.5-0.4-0.8l0.1-0.1c0.3,0.3,0.4,0.6,0.5,0.9l1.6,0C391.3,253,389.6,249.5,383.9,249.5L383.9,249.5z"/></g>
    <path
      d="M376.5,264.5c0-11.2,1.6-15.1,7.4-15.1c-2.7,0-4.3,2.1-4.8,3.5c-0.5,1.4-0.2,1.3,0.4,0.7c0.6-0.5,0.3,0.6-0.2,1.3   c-0.5,0.6-1,2.5-0.3,1.9c0.7-0.6,1.2,0.1,0.5,1.1c-0.7,1-1.4,3.5-0.6,2.6c0.7-0.8,0.9,0.5,0.5,1.2c-0.5,0.7-0.4,1.3,0,1   c0.4-0.3,0.3,1.1,0,1.7H376.5z"/>
    <g><path d="M379.4,264.6h-2.9c-0.1-11.6,1.7-15.2,7.4-15.2c-2.6,0.1-4.3,2.2-4.7,3.5c-0.2,0.8-0.3,1-0.2,1h0c0.1,0,0.4-0.3,0.5-0.4    c0.1,0,0.1,0,0.2,0.1c-0.4,0.3-0.6,0.4-0.7,0.4c-0.2-0.1-0.2-0.3,0.1-1.2c0.4-1.4,2-3.3,4.5-3.5c-5.4,0.2-7.1,3.8-7.1,15.1    l2.7-0.1c0.2-0.3,0.3-0.7,0.3-1C379.7,263.9,379.6,264.3,379.4,264.6L379.4,264.6L379.4,264.6z M378.7,260.9    c-0.3-0.4,0.3-2.1,0.8-2.9c0.3-0.4,0.4-0.7,0.3-1c0.1,0.3,0,0.6-0.3,1c-0.6,0.8-1.1,2.5-0.9,2.7l0.7-0.4c0.1,0.1,0.1,0.1,0.2,0.2    l0,0L378.7,260.9L378.7,260.9z"/></g>
    <path
      d="M390.2,263.9c0-8.8-1.1-11.4-3.3-12.3c-1.2-0.5-1.3-0.4-0.7,0.4c0.6,0.8,0.5,1.9,0,1.1c-0.5-0.8-0.7-0.9-0.9-0.6   c-0.2,0.3,0.6,2,1.3,3.5c0.5,1.2,0.2,1.8-0.6,0.6c-0.8-1.2-0.8-0.1-0.1,0.9c0.9,1.3,0.8,5.2,0.8,6.8L390.2,263.9z"/>
    <g><path d="M386.7,264.4v-0.2c0-1.8,0-5.4-0.8-6.7c-0.4-0.6-0.6-1.2-0.5-1.4c0.2-0.1,0.4,0.1,0.7,0.5c0.4,0.6,0.6,0.6,0.6,0.6    c0.2-0.2,0.1-0.6-0.1-1.2l-0.5-1c-0.6-1.4-1-2.2-0.8-2.5c0.1,0,0.2-0.1,0.2-0.1c-0.3,0.4,0.2,1.5,0.6,2.5l0.5,1    c0.2,0.6,0.3,1,0.2,1.2c-0.4,0.1-0.7-0.3-0.9-0.6c-0.3-0.5-0.4-0.5-0.5-0.5c-0.1,0.2,0.1,0.7,0.5,1.3c0.9,1.3,0.9,4.9,0.9,6.7    l0,0.1l3.5-0.4c0-9.1-1.2-11.4-3.3-12.2c-0.5-0.2-0.8-0.3-0.9-0.3c-0.1,0.1,0.2,0.5,0.3,0.6c0.4,0.5,0.5,1.1,0.4,1.4    c-0.1-0.1-0.2-0.2-0.3-0.3c0.3-0.1,0.2-0.6-0.1-1.1c-0.3-0.4-0.4-0.6-0.4-0.7c0.3-0.1,0.6,0,1.1,0.2c2.1,0.9,3.3,3.1,3.3,12.4    L386.7,264.4L386.7,264.4z"/></g>
    <path class="st7"
          d="M383.9,266.2c2.3,0,4.9-0.4,6.6-1.1c2-0.8,2.1-1.5,1.4-2.4c-0.5-0.6-1.6-0.3-2.6,0.2c-1,0.5-3.9,0.7-5.4,0.7   c-1.5,0-4.4-0.3-5.4-0.7c-1-0.5-2.1-0.8-2.6-0.2c-0.7,0.9-0.6,1.6,1.4,2.4C379.1,265.8,381.6,266.2,383.9,266.2L383.9,266.2z"/>
    <g><path d="M383.9,266.2c-2.3,0-4.9-0.4-6.6-1.1c-1.1-0.4-1.7-0.9-1.8-1.3c-0.1-0.3,0-0.7,0.4-1.1c0.5-0.6,1.7-0.3,2.7,0.2    c1,0.5,3.9,0.7,5.4,0.7c1.5,0,4.4-0.3,5.4-0.7c1-0.4,2.2-0.8,2.7-0.2c0.3,0.4,0.5,0.8,0.4,1.1c-0.1,0.5-0.7,0.9-1.8,1.3    C388.8,265.8,386.3,266.2,383.9,266.2L383.9,266.2z M376.7,262.5c-0.3,0-0.6,0.1-0.7,0.3c-0.3,0.4-0.4,0.7-0.4,1    c0.1,0.4,0.7,0.8,1.8,1.3c3.4,1.3,9.7,1.3,13.2,0c1.1-0.4,1.7-0.8,1.8-1.3c0.1-0.3,0-0.6-0.4-1c-0.4-0.5-1.6-0.2-2.6,0.2    c-1,0.5-3.9,0.8-5.4,0.8c-1.5,0-4.4-0.3-5.4-0.8C377.9,262.7,377.2,262.5,376.7,262.5L376.7,262.5z"/></g>
    <path class="st8"
          d="M406.6,251.3c0,0,1.5,2.6,2.6,4.6c1.1,1.9,2,2.4,2.8,1.8c0.8-0.6,0.1-2.1-0.5-2.9c-0.7-0.7-4.2-4.2-4.2-4.2   L406.6,251.3z"/>
    <g><path d="M411.4,258c-0.7,0-1.4-0.7-2.2-2.1l-2.6-4.6l0.7-0.8l0,0c0.1,0,3.7,3.5,4.3,4.2c0.5,0.6,1,1.6,0.9,2.3    c0,0.3-0.2,0.5-0.4,0.7C411.8,257.9,411.6,258,411.4,258L411.4,258z M407.2,250.6l-0.6,0.8l2.7,4.5c0.8,1.3,1.5,2,2.1,2l0,0    c0.2,0,0.4-0.1,0.6-0.2c0.2-0.1,0.3-0.3,0.3-0.6c0.1-0.7-0.4-1.6-0.9-2.2C410.8,254.1,407.2,250.6,407.2,250.6L407.2,250.6z"/></g>
    <path class="st8"
          d="M406.2,251.5c0,0,0.6,3,1.1,5.2c0.4,2.2,1.2,2.9,2.1,2.7c0.9-0.3,0.8-2,0.4-2.9c-0.4-0.9-2.6-5.5-2.6-5.5   L406.2,251.5z"/>
    <g><path d="M409,259.6c-0.9,0-1.5-0.9-1.8-2.8l-1.1-5.2l1-0.5c0.1,0,2.4,4.6,2.7,5.5c0.3,0.7,0.4,1.8,0.1,2.5    c-0.1,0.3-0.3,0.4-0.6,0.5L409,259.6L409,259.6z M407.1,251.1l-0.8,0.5l1.1,5.2c0.4,1.8,0.9,2.7,1.7,2.7v0.1l0.3-0.1    c0.2-0.1,0.4-0.2,0.5-0.4c0.3-0.6,0.2-1.7-0.1-2.4C409.3,255.7,407.1,251.1,407.1,251.1L407.1,251.1z"/></g>
    <path class="st8"
          d="M405.5,251.6c0,0,0,3.1,0,5.4c0,2.2,0.6,3.1,1.5,3.1c1,0,1.2-1.8,1-2.8c-0.2-1-1.5-5.9-1.5-5.9L405.5,251.6z"/>
    <g><path d="M407,260.1c-1,0-1.5-1-1.5-3.2v-5.4l1.1-0.3c0.1,0,1.4,5,1.6,6c0.1,0.8,0.1,1.9-0.4,2.5C407.6,260,407.3,260.1,407,260.1    L407,260.1L407,260.1z M406.5,251.4l-0.9,0.3l0.1,5.3c0,2,0.5,3,1.4,3v0.1l0.1-0.1c0.2,0,0.4-0.1,0.6-0.3c0.4-0.5,0.5-1.6,0.4-2.4    C407.8,256.3,406.5,251.4,406.5,251.4L406.5,251.4z"/></g>
    <path class="st8" d="M405.5,251.6c2.8,0,3.1-1.1,3.1-1.1s0.6-2.1,0.3-2.6c-0.3-0.5-3.4-0.5-3.4-0.5V251.6z"/>
    <g><path d="M405.5,251.7v-4.3c0.4-0.1,3.2-0.1,3.6,0.5c0.3,0.5-0.2,2.5-0.3,2.7C408.7,250.6,408.4,251.6,405.5,251.7L405.5,251.7    L405.5,251.7z M405.5,247.4l0.1,4.1c2.6-0.1,2.9-1,2.9-1c0.2-0.6,0.6-2.2,0.3-2.6C408.7,247.6,406.7,247.4,405.5,247.4    L405.5,247.4z"/></g>
    <path class="st8" d="M405.5,249.5c3,0,3.5-1.1,3.5-1.1s1-2.1,0.5-2.6c-0.5-0.5-4-0.5-4-0.5V249.5z"/>
    <g><path d="M405.5,249.5L405.5,249.5l-0.1-4.3c0.2-0.1,3.6-0.1,4.1,0.5c0.5,0.6-0.4,2.6-0.5,2.7C409.1,248.5,408.6,249.5,405.5,249.5    L405.5,249.5z M405.5,245.3l0.1,4.1c2.9,0,3.4-1,3.4-1c0.3-0.6,0.9-2.2,0.5-2.6C409.1,245.4,406.5,245.3,405.5,245.3L405.5,245.3z    "/></g>
    <path class="st8" d="M405.5,247.4c2.5,0,4-1.1,4-1.1s1-2.1,0.5-2.6c-0.5-0.5-4.5-0.5-4.5-0.5V247.4z"/>
    <g><path d="M405.5,247.4L405.5,247.4l-0.1-4.3c0.5-0.1,4.1-0.1,4.6,0.5c0.5,0.6-0.5,2.6-0.5,2.7C409.6,246.4,408,247.4,405.5,247.4    L405.5,247.4z M405.6,243.2l0.1,4.1c2.4,0,3.9-1,3.9-1c0.2-0.5,0.9-2.1,0.5-2.5C409.6,243.3,406.9,243.2,405.6,243.2L405.6,243.2z    "/></g>
    <path class="st8"
          d="M407.2,227.9c0,0,2.5-2.6,6.8-5.3c4.3-2.6,7.5-4.7,8.1-4.2c0,0.5-3.7,3.2-6.8,5.3c-3.1,2.1-6.8,5.3-6.8,5.3   L407.2,227.9z"/>
    <g><path d="M408.5,229l-1.3-1.1c0-0.1,2.5-2.8,6.8-5.4l1.5-0.9c3.2-2,5.5-3.4,6.4-3.4c0,0,0,0.1,0,0.1c-1.1,0.1-3.3,1.5-6.3,3.4    l-1.5,0.9c-4.3,2.6-6.8,5.2-6.8,5.3l1.2,0.9c0.4-0.3,3.9-3.3,6.8-5.3c3.9-2.7,5.6-4,6.3-4.7c-0.8,0.9-2.9,2.5-6.3,4.7    C412.3,225.8,408.6,228.9,408.5,229L408.5,229L408.5,229z"/></g>
    <path class="st8"
          d="M407.5,230c0,0,2.5-1.6,7.2-3.7c4.6-1.9,11.2-1.6,11.2-1.1c-0.6,0.5-6.2,0.5-9.9,2.1c-3.6,1.5-7.2,3.7-7.2,3.7   L407.5,230z"/>
    <g><path d="M408.8,231.1l-1.3-1.1c0-0.1,2.5-1.7,7.2-3.8c3.3-1.4,7.3-1.5,8.4-1.5c0.3,0,2.9,0,2.9,0.5c-0.3,0.3-1.3,0.4-2.6,0.6    c-2.1,0.3-5.1,0.6-7.4,1.6C412.4,228.9,408.8,231.1,408.8,231.1L408.8,231.1L408.8,231.1z M423.1,224.9c-1.1,0-5,0.1-8.3,1.5    c-4.7,2.1-7.1,3.7-7.2,3.7l1.2,0.9c0.4-0.2,3.8-2.3,7.1-3.7c2.3-1,5.2-1.3,7.4-1.6c1.3-0.2,2.3-0.3,2.5-0.5    C425.8,225.1,425,224.9,423.1,224.9L423.1,224.9z"/></g>
    <path class="st8"
          d="M407.6,233.6c0,0,2.2-1,7.2-2.6c5-1.6,11.6-0.5,11.6,0c-0.6,0.5-6,0.2-9.7,1.1c-3.9,0.8-7.8,2.6-7.8,2.6   L407.6,233.6z"/>
    <g><path d="M408.8,234.7l-1.3-1.1c0-0.1,2.2-1.2,7.2-2.7c2.2-0.7,4.5-0.8,6.1-0.8c2.7,0,5.5,0.5,5.5,0.9c-0.3,0.3-1.6,0.4-3.4,0.5    c-2,0.1-4.4,0.2-6.4,0.7C412.8,232.9,408.9,234.7,408.8,234.7L408.8,234.7L408.8,234.7z M420.8,230.2c-1.6,0-3.9,0.1-6.1,0.8    c-4.9,1.6-7.1,2.6-7.2,2.6l1.2,0.9c0.4-0.2,4.1-1.9,7.8-2.6c2-0.5,4.5-0.6,6.4-0.7c1.6-0.1,3-0.1,3.3-0.4    C426.2,230.8,424,230.2,420.8,230.2L420.8,230.2z"/></g>
    <path class="st8"
          d="M407.8,237.3c0,0,2.5-2.1,7.8-2.6c5.3-0.5,9.7,2.6,9.7,3.2c-0.6,0.5-5.6-2.3-9.3-1.9c-3.9,0.4-6.9,2.4-6.9,2.4   L407.8,237.3z"/>
    <g><path d="M409,238.4l-1.3-1.1c0-0.1,2.6-2.2,7.8-2.7c5.4-0.5,9.8,2.7,9.8,3.2c-0.7,0.1-1.5-0.2-2.5-0.5c-1.9-0.7-4.6-1.6-6.8-1.4    C412.1,236.4,409.1,238.4,409,238.4L409,238.4L409,238.4z M416.8,234.7c-0.4,0-0.8,0-1.2,0.1c-5.2,0.5-7.7,2.6-7.8,2.6l1.2,0.9    c0.3-0.2,3.2-2,6.9-2.4c2.3-0.2,5,0.7,6.9,1.4c1,0.3,1.8,0.6,2.2,0.6C425.2,237.5,421.7,234.7,416.8,234.7L416.8,234.7z"/></g>
    <path class="st8" d="M405.5,244.7c4.5,0,4.5-1.4,4.5-1.4s1-2.1,0.5-2.6c-0.5-0.5-5-0.2-5-0.2V244.7z"/>
    <g><path d="M405.5,244.8v-4.3c0.1-0.1,1.3-0.2,2.6-0.2c2.2,0,2.4,0.3,2.5,0.3c0.5,0.6-0.4,2.6-0.5,2.7    C410.1,243.4,410.1,244.7,405.5,244.8L405.5,244.8L405.5,244.8z M408.1,240.5c-1.3,0-2.5,0.1-2.5,0.1l0.1,4.1    c4.3-0.1,4.4-1.3,4.4-1.3c0.3-0.6,0.9-2.2,0.5-2.6C410.4,240.7,410,240.5,408.1,240.5L408.1,240.5z"/></g>
    <path class="st8" d="M405.5,242.6c4.5,0,5-1.1,5-1.1s1-2.1,0.5-2.6c-0.5-0.5-5.5-0.5-5.5-0.5V242.6z"/>
    <g><path d="M405.5,242.7v-4.3c0.3-0.1,5.1-0.1,5.6,0.5c0.5,0.6-0.5,2.6-0.5,2.7C410.6,241.6,410,242.6,405.5,242.7L405.5,242.7    L405.5,242.7z M405.5,238.4l0.1,4.1c4.3-0.1,4.9-1,4.9-1c0.3-0.6,0.9-2.2,0.5-2.6C410.6,238.5,406.9,238.4,405.5,238.4    L405.5,238.4z"/></g>
    <path class="st8" d="M405.5,240c4.5,0,5.5-1.1,5.5-1.1s1-2.1,0.5-2.6c-0.5-0.5-6-0.5-6-0.5V240z"/>
    <g><path d="M405.5,240v-4.3c0.6-0.1,5.6,0,6.1,0.5c0.5,0.6-0.4,2.6-0.5,2.7C411.1,239,410,240,405.5,240L405.5,240L405.5,240z     M405.5,235.8l0.1,4.1c4.4,0,5.4-1,5.4-1c0.3-0.6,0.9-2.1,0.5-2.5C411.1,235.9,407.1,235.8,405.5,235.8L405.5,235.8z"/></g>
    <path class="st8" d="M405.5,237.3c4.5,0,6-1.1,6-1.1s0.5-2.1,0-2.6c-0.5-0.5-6-0.5-6-0.5V237.3z"/>
    <g><path d="M405.5,237.4v-4.3c0.6-0.1,5.6-0.1,6.1,0.5c0.5,0.5,0,2.6,0,2.7C411.5,236.4,410,237.3,405.5,237.4L405.5,237.4    L405.5,237.4z M405.5,233.2l0.1,4.1c4.4,0,5.9-1,5.9-1l0,0c0,0,0.5-2,0-2.5C411.1,233.3,407.1,233.2,405.5,233.2L405.5,233.2z"/></g>
    <path class="st8"
          d="M406.6,225.7c0,0,4-2.6,4-4.8c0-2.1-1.8-4.2-2.3-5.3c1,0,3.3,3.2,3.3,5.3c0,2.3-3.8,5.8-3.8,5.8L406.6,225.7z"/>
    <g><path d="M407.8,226.8l-1.3-1.1c0-0.1,4-2.7,4-4.8c0-1.6-1-3.1-1.7-4.3c-0.2-0.4-0.5-0.7-0.6-1c1.1,0,3.4,3.2,3.4,5.3    C411.6,223.3,408,226.7,407.8,226.8L407.8,226.8L407.8,226.8z M408.3,215.7c0.2,0.2,0.4,0.5,0.6,0.9c0.7,1.2,1.7,2.7,1.7,4.3    c0,2.1-3.9,4.7-4,4.8l1.2,0.9c0.4-0.4,3.7-3.6,3.7-5.7C411.5,218.8,409.2,215.7,408.3,215.7L408.3,215.7z"/></g>
    <path class="st8"
          d="M406.6,225.7c0,0-0.5-1.6-0.5-4.8c0-3.7,2.2-6,3-6.9c0.2,0.8-2,3.7-2,6.9c0,2.3,0.7,5.8,0.7,5.8L406.6,225.7z"/>
    <g><path d="M407.9,226.9l-1.4-1.2c0,0-0.5-1.7-0.5-4.8c0-2.5,1-4.9,3-6.9c0.2,0.4-0.1,1-0.5,1.8c-0.6,1.3-1.4,3.1-1.4,5.1    c0,2.3,0.7,5.8,0.7,5.8L407.9,226.9L407.9,226.9z M409,214.1c-1.9,2.1-2.9,4.4-2.9,6.9c0,3.1,0.5,4.7,0.5,4.7l1.1,0.9    c-0.1-0.7-0.7-3.7-0.7-5.7c0-2,0.8-3.8,1.4-5.1C408.8,215,409.1,214.4,409,214.1L409,214.1z"/></g>
    <path class="st8" d="M405.5,234.7c4.5,0,6-1.1,6-1.1s0-2.1-0.5-2.6c-0.5-0.5-5.5-0.5-5.5-0.5V234.7z"/>
    <g><path d="M405.5,234.7v-4.3c0.3-0.1,5.1-0.1,5.6,0.5c0.5,0.5,0.5,2.6,0.5,2.7C411.5,233.7,410,234.7,405.5,234.7L405.5,234.7    L405.5,234.7z M405.5,230.5l0.1,4.1c4.4-0.1,5.9-1,5.9-1l0,0c0,0,0-2-0.5-2.5C410.6,230.6,406.9,230.5,405.5,230.5L405.5,230.5z"/></g>
    <path class="st8" d="M405.5,232c4.5,0,5.5-1.1,5.5-1.1s0-2.1-0.5-2.6c-0.5-0.5-5-0.5-5-0.5V232z"/>
    <g><path d="M405.5,232.1v-4.3c0.2-0.1,4.6-0.1,5.1,0.5c0.5,0.5,0.5,2.6,0.5,2.7C411.1,231.1,410,232.1,405.5,232.1L405.5,232.1    L405.5,232.1z M405.5,227.9l0.1,4.1c4.3,0,5.4-1,5.4-1l0,0c0,0,0-2-0.5-2.5C410.1,228,406.8,227.9,405.5,227.9L405.5,227.9z"/></g>
    <path class="st8"
          d="M418.6,263.7c-1.6-3.6-2-10-2-11.1c0-3,0.9-17.4,1-23.2c0.1-5.8-3.5-9-7-9c-3,0-5,2.1-5,5.3h1.5   c0-2.1,1.5-3.7,3.5-3.7c3,0,5.3,2.5,5.5,7.4c0.2,5.7-0.6,20.4-0.5,24.3C415.7,257.6,417,261.1,418.6,263.7L418.6,263.7z"/>
    <g><path class="st2" d="M418.4,263.8c-1.9-3.1-2.9-6.7-3-10.1c0-1.7,0.1-5.4,0.2-9.5c0.2-5.4,0.4-11.5,0.3-14.8    c-0.2-4.5-2.2-7.2-5.3-7.2c-1.9,0-3.3,1.5-3.3,3.5l-1.7,0.2c-0.2-3.4,1.9-5.6,5-5.6c1.7,0,3.4,0.7,4.7,2c1.7,1.7,2.6,4.2,2.5,7.1    c0,3.2-0.3,9.1-0.6,14.1c-0.2,4.1-0.4,7.8-0.4,9.1c0,0.8,0.4,7.3,2,11L418.4,263.8L418.4,263.8z M410.6,221.8    c3.3,0,5.5,2.9,5.7,7.6c0.1,3.2-0.1,9.4-0.3,14.8c-0.1,4.1-0.3,7.8-0.2,9.5c0.1,2.7,0.8,5.6,2,8.2c-1.1-3.8-1.3-8.5-1.3-9.2    c0-1.3,0.2-5,0.4-9.1c0.3-5.1,0.6-10.9,0.6-14.1c0-2.8-0.8-5.3-2.4-6.9c-1.2-1.2-2.8-1.9-4.4-1.9c-2.9,0-4.8,2.1-4.8,5.1l1.3-0.2    C406.9,223.5,408.5,221.8,410.6,221.8L410.6,221.8z"/></g>
    <path class="st8"
          d="M404.5,251.3c0,0-1.5,2.6-2.6,4.6c-1.1,1.9-2,2.4-2.8,1.8c-0.8-0.6-0.1-2.1,0.5-2.9c0.6-0.7,4.2-4.2,4.2-4.2   L404.5,251.3z"/>
    <g><path d="M399.7,258c-0.2,0-0.5-0.1-0.7-0.2c-0.2-0.2-0.4-0.4-0.4-0.7c-0.1-0.7,0.4-1.7,0.9-2.3c0.6-0.7,4.2-4.2,4.2-4.2l0.8,0.8    l-2.6,4.6C401.1,257.3,400.4,258,399.7,258L399.7,258z M403.8,250.6c0,0.1-3.5,3.5-4.1,4.2c-0.5,0.6-0.9,1.5-0.9,2.2    c0,0.3,0.1,0.5,0.3,0.6c0.8,0.6,1.7,0,2.7-1.8l2.6-4.6L403.8,250.6L403.8,250.6z"/></g>
    <path class="st8" d="M405.5,225.4c3.5,0,5,3.1,5,3l-1,1c-0.5,0.5-4,0.5-4,0.5L405.5,225.4z"/>
    <g><path d="M405.7,230l-0.1-0.1l0-4.5c3-0.1,4.6,2,5.1,2.9l-1,1.1C409.1,230,405.8,230,405.7,230L405.7,230z M405.5,225.5l0.1,4.4    l0-0.1c0.9,0,3.4-0.1,3.8-0.5l1-1C410,227.5,408.4,225.5,405.5,225.5L405.5,225.5z"/></g>
    <path class="st8"
          d="M404.9,251.5c0,0-0.6,3-1.1,5.2c-0.4,2.2-1.2,2.9-2.1,2.7c-0.9-0.3-0.8-2-0.4-2.9c0.4-0.9,2.6-5.5,2.6-5.5   L404.9,251.5z"/>
    <g><path d="M402.1,259.6l-0.4-0.1c-0.2-0.1-0.4-0.2-0.6-0.5c-0.3-0.6-0.2-1.8,0.1-2.5c0.4-0.9,2.6-5.5,2.6-5.5l1,0.4l-1,5.3    C403.5,258.7,402.9,259.6,402.1,259.6L402.1,259.6z M403.9,251.1c0,0.1-2.2,4.5-2.6,5.4c-0.3,0.7-0.4,1.8-0.1,2.4    c0.1,0.2,0.3,0.4,0.5,0.4l0.3,0c0.8,0,1.3-0.9,1.7-2.7l1.1-5.2L403.9,251.1L403.9,251.1z"/></g>
    <path class="st8"
          d="M405.5,251.6c0,0,0,3.1,0,5.4c0,2.2-0.6,3.1-1.5,3.1c-1,0-1.2-1.8-1-2.8c0.2-1,1.5-5.9,1.5-5.9L405.5,251.6z"/>
    <g><path d="M404.1,260.1L404.1,260.1c-0.3,0-0.5-0.1-0.7-0.4c-0.4-0.6-0.5-1.7-0.4-2.5c0.2-1,1.5-5.9,1.5-5.9l1.1,0.2l0.1,5.4    C405.6,259.1,405.1,260.1,404.1,260.1L404.1,260.1z M404.5,251.5c0,0.1-1.2,4.9-1.4,5.9c-0.1,0.8,0,1.9,0.4,2.4    c0.2,0.2,0.3,0.3,0.6,0.3l0.1,0.1V260c0.9,0,1.4-1,1.4-3v-5.4L404.5,251.5L404.5,251.5z"/></g>
    <path class="st8" d="M405.5,251.6c-2.8,0-3.1-1.1-3.1-1.1s-0.6-2.1-0.3-2.6c0.3-0.5,3.4-0.5,3.4-0.5V251.6z"/>
    <g><path d="M405.6,251.7L405.6,251.7c-2.9,0-3.3-1.1-3.3-1.1c-0.1-0.2-0.6-2.2-0.3-2.7c0.3-0.6,3.2-0.6,3.5-0.6L405.6,251.7    L405.6,251.7z M405.5,247.4c-1.1,0.1-3.1,0.2-3.3,0.6c-0.2,0.4,0.2,2,0.3,2.6c0,0,0.3,0.9,2.9,1V247.4L405.5,247.4z"/></g>
    <path class="st8" d="M405.5,249.5c-3,0-3.5-1.1-3.5-1.1s-1-2.1-0.5-2.6c0.5-0.5,4-0.5,4-0.5V249.5z"/>
    <g><path d="M405.6,249.5L405.6,249.5c-3.1,0-3.6-1.1-3.6-1.1c0-0.1-1-2.2-0.5-2.7c0.5-0.5,3.9-0.6,4.1-0.6L405.6,249.5L405.6,249.5z     M405.5,245.2c-0.9,0.1-3.5,0.2-3.9,0.6c-0.4,0.4,0.2,2,0.5,2.6c0,0,0.5,1,3.4,1V245.2L405.5,245.2z"/></g>
    <path class="st8" d="M405.5,247.4c-2.5,0-4-1.1-4-1.1s-1-2.1-0.5-2.6c0.5-0.5,4.5-0.5,4.5-0.5V247.4z"/>
    <g><path d="M405.6,247.4L405.6,247.4c-2.6,0-4.1-1.1-4.1-1.1c-0.1-0.1-1-2.2-0.5-2.7c0.5-0.5,4.1-0.5,4.6-0.5L405.6,247.4    L405.6,247.4z M401.6,246.3c0,0,1.5,1,3.9,1v-4.2c-1.3,0.1-4,0.2-4.4,0.6C400.7,244.1,401.3,245.7,401.6,246.3L401.6,246.3    L401.6,246.3z"/></g>
    <path class="st8"
          d="M403.9,227.9c0,0-2.5-2.6-6.8-5.3c-4.4-2.6-7.5-4.7-8.1-4.2c0,0.5,3.7,3.2,6.8,5.3c3.1,2.1,6.8,5.3,6.8,5.3   L403.9,227.9z"/>
    <g><path d="M402.6,229L402.6,229c-0.1-0.1-3.8-3.2-6.9-5.3c-4.6-3.1-6.9-4.9-6.9-5.3c0.1,0,0.2,0,0.3,0c-0.2,0.2,0.5,1.1,6.6,5.2    c2.9,2,6.4,4.9,6.8,5.3l1.2-1l0,0c-0.1,0-2.6-2.6-6.8-5.2l-1.6-0.9c-2.7-1.7-4.8-3-5.9-3.3c1.3,0.3,3.3,1.6,5.9,3.2l1.6,1    c4.3,2.6,6.8,5.3,6.9,5.3L402.6,229L402.6,229z"/></g>
    <path class="st8"
          d="M403.6,230c0,0-2.5-1.6-7.2-3.7c-4.6-1.9-11.2-1.6-11.2-1.1c0.6,0.5,6.2,0.5,9.9,2.1c3.6,1.5,7.2,3.7,7.2,3.7   L403.6,230z"/>
    <g><path d="M402.3,231.1L402.3,231.1c-0.1,0-3.7-2.2-7.2-3.7c-2.3-1-5.2-1.3-7.4-1.6c-1.4-0.2-2.4-0.3-2.6-0.5c0-0.5,2.6-0.5,2.9-0.5    c1.1,0,5.1,0.1,8.4,1.5c4.7,2.1,7.2,3.7,7.2,3.7L402.3,231.1L402.3,231.1z M388,224.9c-1.9,0-2.8,0.2-2.8,0.3    c0.2,0.2,1.2,0.3,2.5,0.4c2.2,0.3,5.1,0.6,7.4,1.6c3.3,1.4,6.8,3.5,7.1,3.7l1.2-1l0,0c-0.1,0-2.6-1.5-7.2-3.6    C393.1,225,389.2,224.9,388,224.9L388,224.9z"/></g>
    <path class="st8"
          d="M403.5,233.6c0,0-2.2-1-7.2-2.6c-5-1.6-11.6-0.5-11.6,0c0.6,0.5,6,0.2,9.7,1.1c3.9,0.8,7.8,2.6,7.8,2.6   L403.5,233.6z"/>
    <g><path d="M402.3,234.7L402.3,234.7c-0.1,0-4-1.8-7.8-2.7c-2-0.4-4.4-0.6-6.4-0.7c-1.8-0.1-3-0.2-3.3-0.4c0-0.5,2.8-0.9,5.5-0.9    c1.6,0,3.9,0.1,6.1,0.8c5,1.6,7.2,2.6,7.2,2.6L402.3,234.7L402.3,234.7z M390.3,230.2c-3.1,0-5.4,0.5-5.4,0.8    c0.3,0.2,1.6,0.3,3.2,0.3c2,0.1,4.4,0.2,6.4,0.7c3.6,0.8,7.4,2.5,7.8,2.6l1.2-1c-0.2-0.1-2.3-1-7.1-2.5    C394.2,230.4,391.8,230.2,390.3,230.2L390.3,230.2z"/></g>
    <path class="st8"
          d="M403.3,237.3c0,0-2.5-2.1-7.8-2.6c-5.3-0.5-9.7,2.6-9.7,3.2c0.6,0.5,5.6-2.3,9.3-1.9c3.9,0.4,6.9,2.4,6.9,2.4   L403.3,237.3z"/>
    <g><path d="M402.1,238.4L402.1,238.4c-0.1,0-3.1-2-6.9-2.5c-2.3-0.3-4.9,0.7-6.8,1.4c-1,0.3-1.8,0.6-2.2,0.6c0,0,0-0.1,0-0.1    c0.6,0,1.3-0.3,2.2-0.6c1.9-0.7,4.7-1.6,6.9-1.4c3.7,0.4,6.6,2.2,6.9,2.4l1.2-1c0,0-2.5-2-7.8-2.5c-4-0.4-7.4,1.3-8.8,2.3    c1.4-1.2,4.8-2.8,8.9-2.4c5.3,0.5,7.8,2.6,7.8,2.7L402.1,238.4L402.1,238.4z"/></g>
    <path class="st8" d="M405.5,244.7c-4.5,0-4.5-1.4-4.5-1.4s-1-2.1-0.5-2.6c0.5-0.5,5-0.2,5-0.2V244.7z"/>
    <g><path d="M405.6,244.8L405.6,244.8c-4.6,0-4.6-1.4-4.6-1.4c0-0.1-1-2.1-0.5-2.7c0.1-0.1,0.3-0.3,2.5-0.3c1.3,0,2.5,0.1,2.5,0.1    L405.6,244.8L405.6,244.8z M403,240.5c-1.9,0-2.3,0.2-2.4,0.3c-0.4,0.4,0.2,2,0.5,2.6c0,0,0.1,1.3,4.4,1.3v-4.2    C405.4,240.6,404.2,240.5,403,240.5L403,240.5z"/></g>
    <path class="st8" d="M405.5,242.6c-4.5,0-5-1.1-5-1.1s-1-2.1-0.5-2.6c0.5-0.5,5.5-0.5,5.5-0.5V242.6z"/>
    <g><path d="M405.6,242.7L405.6,242.7c-4.6,0-5.1-1.1-5.1-1.1c0-0.1-1-2.2-0.5-2.7c0.5-0.5,5.4-0.6,5.6-0.6L405.6,242.7L405.6,242.7z     M405.5,238.4c-1.3,0.1-5,0.2-5.4,0.6c-0.4,0.4,0.2,2,0.5,2.6c0,0,0.6,1,4.9,1V238.4L405.5,238.4z"/></g>
    <path class="st8" d="M405.5,240c-4.5,0-5.5-1.1-5.5-1.1s-1-2.1-0.5-2.6c0.5-0.5,6-0.5,6-0.5V240z"/>
    <g><path d="M405.6,240L405.6,240c-4.6,0-5.6-1-5.6-1.1c-0.1-0.1-1-2.2-0.5-2.7c0.5-0.5,5.5-0.5,6.1-0.5L405.6,240L405.6,240z     M400.1,238.9c0,0,1,1,5.4,1v-4.2c-1.5,0.1-5.5,0.2-5.9,0.6C399.2,236.7,399.8,238.3,400.1,238.9L400.1,238.9L400.1,238.9z"/></g>
    <path class="st8" d="M405.5,237.3c-4.5,0-6-1.1-6-1.1s-0.5-2.1,0-2.6c0.5-0.5,6-0.5,6-0.5V237.3z"/>
    <g><path d="M405.6,237.4L405.6,237.4c-4.5,0-6.1-1-6.1-1.1c0-0.1-0.5-2.2,0-2.7c0.5-0.5,5.5-0.6,6.1-0.6L405.6,237.4L405.6,237.4z     M399.6,236.2c0,0,1.6,1,5.9,1v-4.2c-1.5,0.1-5.5,0.2-5.9,0.6C399.1,234.2,399.6,236.2,399.6,236.2L399.6,236.2L399.6,236.2z"/></g>
    <path class="st8"
          d="M404.5,225.7c0,0-4-2.6-4-4.8c0-2.1,1.8-4.2,2.3-5.3c-1,0-3.3,3.2-3.3,5.3c0,2.3,3.8,5.8,3.8,5.8L404.5,225.7z   "/>
    <g><path d="M403.3,226.8L403.3,226.8c-0.2-0.2-3.8-3.6-3.8-5.9c0-2,2.2-5.3,3.3-5.3c-0.1,0.4-0.3,0.7-0.5,1.1    c-0.7,1.1-1.7,2.7-1.7,4.2c0,2.1,3.9,4.7,4,4.7L403.3,226.8L403.3,226.8z M402.7,215.6c-0.9,0.1-3.2,3.2-3.2,5.3    c0,2.1,3.3,5.4,3.7,5.7l1.2-1c-0.2,0-4-2.6-4-4.7c0-1.6,1-3.2,1.7-4.3C402.4,216.2,402.6,215.9,402.7,215.6L402.7,215.6z"/></g>
    <path class="st8"
          d="M404.5,225.7c0,0,0.5-1.6,0.5-4.8c0-3.7-2.2-6-3-6.9c-0.2,0.8,2,3.7,2,6.9c0,2.3-0.7,5.8-0.7,5.8L404.5,225.7z   "/>
    <g><path d="M403.2,226.9l0-0.2c0,0,0.7-3.5,0.7-5.8c0-1.9-0.8-3.7-1.4-5.1c-0.4-0.9-0.7-1.5-0.6-1.8c2.1,2,3.1,4.3,3.1,6.9    c0,3.1-0.5,4.8-0.5,4.8L403.2,226.9L403.2,226.9z M402,214.1c0,0.3,0.3,0.9,0.7,1.7c0.6,1.3,1.4,3.2,1.4,5.1c0,2-0.6,4.9-0.7,5.7    l1.1-0.9l0,0c0,0,0.5-1.6,0.5-4.7C405,218.4,404,216.1,402,214.1L402,214.1z"/></g>
    <path class="st8" d="M405.5,234.7c-4.5,0-6-1.1-6-1.1s0-2.1,0.5-2.6c0.5-0.5,5.5-0.5,5.5-0.5V234.7z"/>
    <g><path d="M405.6,234.7L405.6,234.7c-4.5,0-6.1-1-6.1-1.1c0-0.1,0-2.2,0.5-2.7c0.5-0.5,5.4-0.6,5.6-0.6L405.6,234.7L405.6,234.7z     M399.6,233.6c0.1,0,1.6,0.9,5.9,1v-4.2c-1.3,0.1-5,0.2-5.4,0.6C399.6,231.5,399.6,233.6,399.6,233.6L399.6,233.6L399.6,233.6z"/></g>
    <path class="st8" d="M405.5,232c-4.5,0-5.5-1.1-5.5-1.1s0-2.1,0.5-2.6c0.5-0.5,5-0.5,5-0.5V232z"/>
    <g><path d="M405.6,232.1L405.6,232.1c-4.6,0-5.6-1-5.6-1.1c0-0.1,0-2.2,0.5-2.7c0.5-0.5,4.9-0.5,5.1-0.5L405.6,232.1L405.6,232.1z     M400.1,231c0,0,1.1,0.9,5.4,1v-4.2c-1.2,0.1-4.5,0.2-4.9,0.6C400.1,228.9,400.1,230.9,400.1,231L400.1,231L400.1,231z"/></g>
    <path class="st8"
          d="M392.5,263.7c1.6-3.6,2-10,2-11.1c0-3-0.9-17.4-1-23.2c-0.1-5.8,3.5-9,7-9c3,0,5,2.1,5,5.3H404   c0-2.1-1.5-3.7-3.5-3.7c-3,0-5.3,2.5-5.5,7.4c-0.2,5.7,0.6,20.4,0.5,24.3C395.4,257.6,394.1,261.1,392.5,263.7L392.5,263.7z"/>
    <g><path class="st2" d="M392.7,263.8l-0.3-0.2c1.6-3.7,2-10.2,2-11c0-1.3-0.2-5-0.4-9.2c-0.3-5.1-0.6-10.9-0.6-14.1    c0-2.9,0.9-5.4,2.5-7.1c1.3-1.3,2.9-2,4.7-2c3.1,0,5.2,2.2,5.2,5.4l-1.7,0.2c-0.2-2.2-1.6-3.7-3.5-3.7c-3.1,0-5.2,2.8-5.3,7.2    c-0.1,3.2,0.1,9.3,0.3,14.8c0.1,4.1,0.3,7.8,0.2,9.5C395.6,257.1,394.5,260.7,392.7,263.8L392.7,263.8z M400.5,220.6    c-1.6,0-3.2,0.7-4.4,1.9c-1.6,1.6-2.5,4.1-2.4,6.9c0,3.2,0.3,9,0.6,14c0.2,4.2,0.4,7.9,0.4,9.2c0,0.7-0.3,5.5-1.4,9.2    c1.2-2.6,2-5.4,2-8.2c0-1.7-0.1-5.4-0.2-9.5c-0.2-5.4-0.4-11.6-0.3-14.8c0.2-4.7,2.4-7.6,5.7-7.6c2.1,0,3.7,1.7,3.7,3.9l1.3-0.2    C405.4,222.6,403.4,220.6,400.5,220.6L400.5,220.6z"/></g>
    <path class="st8" d="M405.5,225.4c-3.5,0-5,3.1-5,3l1,1c0.5,0.5,4,0.5,4,0.5L405.5,225.4z"/>
    <g><path d="M405.4,230c-0.1,0-3.4,0-3.9-0.5l-1-1c0.6-1,2.1-3.1,5.1-3.1l0,4.6L405.4,230L405.4,230z M405.5,225.4    c-2.8,0.1-4.3,2.1-4.9,3l1,1c0.4,0.4,2.9,0.5,3.8,0.5v0.1l0.1-0.1L405.5,225.4L405.5,225.4z"/></g>
    <rect class="st9" height="128" width="256" y="106.7"/>
    <path class="st1"
          d="M0,106.7V121l227.4,113.7H256v-14.3L28.6,106.7H0z M256,106.7V121L28.6,234.7H0v-14.3l227.4-113.7H256z"/>
    <path class="st1" d="M106.7,234.7h42.7v-128h-42.7V234.7z M0,192h256v-42.7H0V192z"/>
    <path class="st10" d="M0,183.5h256v-25.6H0V183.5z M115.2,234.7h25.6v-128h-25.6V234.7z"/>
    <path class="st10"
          d="M0,234.7L85.3,192h19.1l-85.3,42.7H0z M0,106.7l85.3,42.7H66.3L0,116.2V106.7z M151.6,149.3l85.3-42.7H256   l-85.3,42.7H151.6z M256,234.7L170.7,192h19.1l66.3,33.1V234.7z"/></g></svg>
