<?xml version="1.0" ?>
<svg id="Layer_1" style="enable-background:new 0 0 512 512;" version="1.1" viewBox="0 0 512 512" xml:space="preserve"
     xmlns="http://www.w3.org/2000/svg"><style type="text/css">
	.st0 {
    fill: #FFFFFF;
  }

  .st1 {
    fill-rule: evenodd;
    clip-rule: evenodd;
    fill: #2B3379;
  }

  .st2 {
    fill-rule: evenodd;
    clip-rule: evenodd;
    fill: #FFFFFF;
  }

  .st3 {
    fill-rule: evenodd;
    clip-rule: evenodd;
    fill: #BD1F34;
  }

  .st4 {
    fill-rule: evenodd;
    clip-rule: evenodd;
    fill: #BD1F32;
  }

  .st5 {
    fill-rule: evenodd;
    clip-rule: evenodd;
    fill: #964421;
  }

  .st6 {
    fill-rule: evenodd;
    clip-rule: evenodd;
    fill: #2F7037;
  }

  .st7 {
    fill: #010101;
  }

  .st8 {
    fill-rule: evenodd;
    clip-rule: evenodd;
    fill: #9B9B9B;
  }

  .st9 {
    fill: #BA2025;
  }

  .st10 {
    fill-rule: evenodd;
    clip-rule: evenodd;
    fill: #EFDA33;
  }

  .st11 {
    fill-rule: evenodd;
    clip-rule: evenodd;
    fill: #4E833C;
  }

  .st12 {
    fill-rule: evenodd;
    clip-rule: evenodd;
    fill: #BA2025;
  }

  .st13 {
    fill-rule: evenodd;
    clip-rule: evenodd;
    fill: #010101;
  }

  .st14 {
    fill: none;
  }
</style>
  <g id="XMLID_1_"><rect class="st0" height="298.7" id="XMLID_280_" width="512" y="106.7"/>
    <path class="st1"
          d="M512,330.9c-5.7,3.5-10.7,11.6-25.9,11.6c-30.5,0-38.1-17.1-61-17.1   c-15.2,0-22.8,17.1-38.1,17.1c-30.5,0-38.1-17.1-61-17.1c-15.2,0-22.9,17.1-38.1,17.1c-30.5,0-38.1-17.1-60.9-17.1   c-15.2,0-22.9,17.1-38.1,17.1c-30.5,0-38.1-17.1-61-17.1c-15.2,0-22.8,17.1-38.1,17.1c-30.5,0-38.1-17.1-60.9-17.1   c-15.2,0-19.8,12.2-29,12.2v22c9.2,0,13.7-12.2,29-12.2c22.9,0,30.5,17.1,60.9,17.1c15.2,0,22.9-17.1,38.1-17.1   c22.9,0,30.5,17.1,61,17.1c15.2,0,22.9-17.1,38.1-17.1c22.9,0,30.5,17.1,60.9,17.1c15.2,0,22.9-17.1,38.1-17.1   c22.9,0,30.5,17.1,61,17.1c15.2,0,22.9-17.1,38.1-17.1c22.9,0,30.5,17.1,61,17.1c15.2,0,20.2-4.8,25.9-8.3V330.9z"
          id="XMLID_279_"/>
    <path class="st1"
          d="M512,371.7c-5.7,3.5-10.7,11.6-25.9,11.6c-30.5,0-38.1-17.1-61-17.1   c-15.2,0-22.8,17.1-38.1,17.1c-30.5,0-38.1-17.1-61-17.1c-15.2,0-22.9,17.1-38.1,17.1c-30.5,0-38.1-17.1-60.9-17.1   c-15.2,0-22.9,17.1-38.1,17.1c-30.5,0-38.1-17.1-61-17.1c-15.2,0-22.8,17.1-38.1,17.1c-30.5,0-38.1-17.1-60.9-17.1   c-15.2,0-19.8,12.2-29,12.2v22c9.2,0,13.7-12.2,29-12.2c22.9,0,30.5,17.1,60.9,17.1c15.2,0,22.9-17.1,38.1-17.1   c22.9,0,30.5,17.1,61,17.1c15.2,0,22.9-17.1,38.1-17.1c22.9,0,30.5,17.1,60.9,17.1c15.2,0,22.9-17.1,38.1-17.1   c22.9,0,30.5,17.1,61,17.1c15.2,0,22.9-17.1,38.1-17.1c22.9,0,30.5,17.1,61,17.1c15.2,0,20.2-4.8,25.9-8.3V371.7z"
          id="XMLID_278_"/>
    <path class="st1"
          d="M512,288.1c-5.7,3.5-10.7,11.6-25.9,11.6c-30.5,0-38.1-17.1-61-17.1   c-15.2,0-22.8,17.1-38.1,17.1c-30.5,0-38.1-17.1-61-17.1c-15.2,0-22.9,17.1-38.1,17.1c-30.5,0-38.1-17.1-60.9-17.1   c-15.2,0-22.9,17.1-38.1,17.1c-30.5,0-38.1-17.1-61-17.1c-15.2,0-22.8,17.1-38.1,17.1c-30.5,0-38.1-17.1-60.9-17.1   c-15.2,0-19.8,12.2-29,12.2v22c9.2,0,13.7-12.2,29-12.2c22.9,0,30.5,17.1,60.9,17.1c15.2,0,22.9-17.1,38.1-17.1   c22.9,0,30.5,17.1,61,17.1c15.2,0,22.9-17.1,38.1-17.1c22.9,0,30.5,17.1,60.9,17.1c15.2,0,22.9-17.1,38.1-17.1   c22.9,0,30.5,17.1,61,17.1c15.2,0,22.9-17.1,38.1-17.1c22.9,0,30.5,17.1,61,17.1c15.2,0,20.2-4.9,25.9-8.3V288.1z"
          id="XMLID_277_"/>
    <path class="st1"
          d="M512,245.4c-5.7,3.5-10.7,11.6-25.9,11.6c-30.5,0-38.1-17.1-61-17.1   c-15.2,0-22.8,17.1-38.1,17.1c-30.5,0-38.1-17.1-61-17.1c-15.2,0-22.9,17.1-38.1,17.1c-30.5,0-38.1-17.1-60.9-17.1   c-15.2,0-22.9,17.1-38.1,17.1c-30.5,0-38.1-17.1-61-17.1c-15.2,0-22.8,17.1-38.1,17.1c-30.5,0-38.1-17.1-60.9-17.1   C13.7,239.8,9.2,252,0,252v22c9.2,0,13.7-12.2,29-12.2c22.9,0,30.5,17.1,60.9,17.1c15.2,0,22.9-17.1,38.1-17.1   c22.9,0,30.5,17.1,61,17.1c15.2,0,22.9-17.1,38.1-17.1c22.9,0,30.5,17.1,60.9,17.1c15.2,0,22.9-17.1,38.1-17.1   c22.9,0,30.5,17.1,61,17.1c15.2,0,22.9-17.1,38.1-17.1c22.9,0,30.5,17.1,61,17.1c15.2,0,20.2-4.9,25.9-8.3V245.4z"
          id="XMLID_276_"/>
    <path class="st1"
          d="M512,202.6c-5.7,3.5-10.7,11.6-25.9,11.6c-30.5,0-38.1-17.1-61-17.1   c-15.2,0-22.8,17.1-38.1,17.1c-30.5,0-38.1-17.1-61-17.1c-15.2,0-22.9,17.1-38.1,17.1c-30.5,0-38.1-17.1-60.9-17.1   c-15.2,0-22.9,17.1-38.1,17.1c-30.5,0-38.1-17.1-61-17.1c-15.2,0-22.8,17.1-38.1,17.1c-30.5,0-38.1-17.1-60.9-17.1   c-15.2,0-19.8,12.2-29,12.2v22c9.2,0,13.7-12.2,29-12.2h99h99.1c22.9,0,30.5,17.1,60.9,17.1c15.2,0,22.9-17.1,38.1-17.1   c22.9,0,30.5,17.1,61,17.1c15.2,0,22.9-17.1,38.1-17.1c22.9,0,30.5,17.1,61,17.1c15.2,0,20.2-4.8,25.9-8.3V202.6z"
          id="XMLID_275_"/>
    <path class="st1"
          d="M512,159.8c-5.7,3.5-10.7,11.6-25.9,11.6c-30.5,0-38.1-17.1-61-17.1   c-15.2,0-22.8,17.1-38.1,17.1c-30.5,0-38.1-17.1-61-17.1c-15.2,0-22.9,17.1-38.1,17.1c-30.5,0-38.1-17.1-60.9-17.1   c-15.2,0-22.9,17.1-38.1,17.1c-30.5,0-38.1-17.1-61-17.1c-15.2,0-22.8,17.1-38.1,17.1c-30.5,0-38.1-17.1-60.9-17.1   c-15.2,0-19.8,12.2-29,12.2v22c9.2,0,13.7-12.2,29-12.2c22.9,0,30.5,17.1,60.9,17.1c15.2,0,22.9-17.1,38.1-17.1   c22.9,0,30.5,17.1,61,17.1c15.2,0,22.9-17.1,38.1-17.1c22.9,0,30.5,17.1,60.9,17.1c15.2,0,22.9-17.1,38.1-17.1   c22.9,0,30.5,17.1,61,17.1c15.2,0,22.9-17.1,38.1-17.1c22.9,0,30.5,17.1,61,17.1c15.2,0,20.2-4.9,25.9-8.3V159.8z"
          id="XMLID_274_"/>
    <path class="st1"
          d="M512,117.1c-5.7,3.5-10.7,11.6-25.9,11.6c-30.5,0-38.1-17.1-61-17.1   c-15.2,0-22.8,17.1-38.1,17.1c-30.5,0-38.1-17.1-61-17.1c-15.2,0-22.9,17.1-38.1,17.1c-30.5,0-38.1-17.1-60.9-17.1   c-15.2,0-22.9,17.1-38.1,17.1c-30.5,0-38.1-17.1-61-17.1c-15.2,0-22.8,17.1-38.1,17.1c-30.5,0-38.1-17.1-60.9-17.1   c-15.2,0-19.8,12.2-29,12.2v22c9.2,0,13.7-12.2,29-12.2c22.9,0,30.5,17.1,60.9,17.1c15.2,0,22.9-17.1,38.1-17.1   c22.9,0,30.5,17.1,61,17.1c15.2,0,22.9-17.1,38.1-17.1c22.9,0,30.5,17.1,60.9,17.1c15.2,0,22.9-17.1,38.1-17.1   c22.9,0,30.5,17.1,61,17.1c15.2,0,22.9-17.1,38.1-17.1c22.9,0,30.5,17.1,61,17.1c15.2,0,20.2-4.8,25.9-8.3V117.1z"
          id="XMLID_273_"/>
    <rect class="st2" height="128.9" id="XMLID_272_" width="255.7" y="106.7"/>
    <polygon class="st1" id="XMLID_271_" points="0.3,220.8 0,121.5 99.4,170.9  "/>
    <polygon class="st1" id="XMLID_270_" points="255.7,220.8 256,121.5 156.6,170.9  "/>
    <polygon class="st1" id="XMLID_269_" points="227.4,235.4 28.6,235.6 127.6,185.3  "/>
    <polygon class="st1" id="XMLID_268_" points="227.4,106.8 28.6,106.7 127.6,156.9  "/>
    <polygon class="st3" id="XMLID_267_" points="151.6,149.6 170.7,149.6 256,106.7 236.9,106.7  "/>
    <polygon class="st3" id="XMLID_266_" points="0,106.7 0,116.3 66.3,149.6 85.3,149.6  "/>
    <polygon class="st3" id="XMLID_265_" points="255.8,225.9 189.7,192.6 170.7,192.6 255.7,235.4  "/>
    <polygon class="st3" id="XMLID_264_" points="0,235.6 19.1,235.6 104.4,192.6 85.3,192.6  "/>
    <rect class="st2" height="43" id="XMLID_263_" width="256" y="149.6"/>
    <rect class="st2" height="128.9" id="XMLID_262_" width="42.7" x="106.7" y="106.7"/>
    <rect class="st4" height="25.8" id="XMLID_261_" width="256" y="158.2"/>
    <rect class="st4" height="128.9" id="XMLID_260_" width="25.6" x="115.2" y="106.7"/>
    <path class="st5" d="M380.9,175l-1.8,175c0,9.2,8.3,9.2,9.2,0l-1.8-175H380.9z" id="XMLID_259_"/>
    <g id="XMLID_704_"><path class="st0" d="M383.4,357.7c-2.5,0-5.1-2.4-5.1-7.8l1.8-175.8h7.2l0,0.8l1.8,175    C388.6,355.4,385.9,357.7,383.4,357.7L383.4,357.7z M381.8,175.9L380,350c0,8.4,6.7,8.3,7.5-0.1l-1.8-174H381.8L381.8,175.9z" id="XMLID_705_"/></g>
    <polygon class="st6" id="XMLID_256_"
             points="399.9,240 394.1,233.7 392.7,240.1 390.2,230.8 387.8,235.5 387.4,225.6 385.1,230.3    384.7,220.4 382.3,225 381,213.4 378.7,218.1 377.3,206.4 375,211.1 373.7,199.5 373,193.7 374.2,191.3 377.2,192.5 382,197.1    391.7,206.3 385.7,204 395.4,213.3 389.3,211 399,220.2 393,218 401.8,225.4 395.8,223.2 404.5,230.7 398.5,228.4 405.2,236.5    398.3,232.5  "/>
    <g id="XMLID_699_"><path class="st0" d="M392.7,242l-2.7-9.9l-2.6,5.2l-0.4-9.9l-2.3,4.7l-0.4-9.9l-2.2,4.5l-1.3-11.6l-2.3,4.7    l-1.3-11.6l-2.3,4.7l-2.2-19l1.2-2.6l3.6,0.9l16.3,15.5l-6-2.3l9.7,9.2l-6-2.3l9.7,9.2l-5.7-2.1l8.8,7.5l-6-2.3l8.8,7.5l-6.9-2.6    l7.2,8.7l-8.2-4.8l1.7,8.2l-6.3-6.9L392.7,242L392.7,242z M393.8,232.7l5.2,5.8l-1.4-6.9l5.6,3.2l-6.2-7.5l5.2,2l-8.8-7.5l6,2.3    l-8.8-7.5l6.4,2.4l-9.7-9.2l6,2.3l-9.7-9.2l6,2.3l-12.9-12.3l-2.9-1l-0.6,2.1l1.9,15.7l2.3-4.7l1.3,11.6l2.3-4.7l1.3,11.6l2.4-4.9    l0.4,9.9l2.3-4.7l0.4,9.9l2.1-4.2l2.3,8.7L393.8,232.7L393.8,232.7z" id="XMLID_700_"/></g>
    <g id="XMLID_697_"><polygon class="st7" id="XMLID_253_" points="392.7,240.1 393.4,227.9 391.6,224.5 387.9,235.5 391.5,224.4 388.8,219.2     385.2,230.3 388.8,219.2 385.1,212.3 382.4,225 385.1,212.2 381.5,205.3 378.7,218.1 381.4,205.2 377.8,198.4 375.1,211.1     377.8,198.3 374.1,191.3 377.8,198.3 391.7,206.2 391.6,206.4 377.8,198.3 381.5,205.2 395.4,213.2 395.3,213.3 381.5,205.3     385.2,212.2 399.1,220.2 399,220.3 385.2,212.3 388.9,219.2 401.8,225.4 401.7,225.5 388.9,219.3 391.6,224.4 404.6,230.6     404.5,230.7 391.7,224.5 393.5,228 405.2,236.4 405.2,236.5 393.6,228 399.9,240 399.8,240.1 393.4,227.9 392.7,240.1   "/></g>
    <polygon class="st6" id="XMLID_252_"
             points="332.5,157 341.9,160.6 339.1,153.5 347.3,161.6 346.6,155.8 353.2,165.5 352.4,159.7    359.1,169.4 358.3,163.6 366.9,174.7 366.1,168.8 374.7,179.9 373.9,174 382.5,185.1 386.8,190.6 387.2,193.6 383.7,193.9    376.3,191.6 361.4,187 368.4,186.3 353.6,181.8 360.6,181.1 345.7,176.5 352.8,175.9 339.9,172.6 346.9,172 334,168.7 341.1,168.1    329.7,163.2 338.7,163.8  "/>
    <g id="XMLID_692_"><path class="st0" d="M383.6,194.4l-25.1-7.8l7-0.6l-14.9-4.6l7.1-0.6l-14.9-4.6l6.6-0.6l-12.9-3.3l7-0.6    l-12.9-3.3l8.1-0.7l-12.4-5.4l10.9,0.8l-6.9-7.5l10.4,4l-3.2-8.4l8.9,8.8l-0.9-6.5l6.6,9.8l-0.8-5.8l6.7,9.8l-0.7-5.6l8.6,11.1    l-0.8-5.8l8.6,11.1l-0.8-5.8l14.1,18.2l0.6,3.8L383.6,194.4L383.6,194.4z M364.2,187.3l19.5,6l2.8-0.3l-0.3-2.3L374.7,176l0.8,5.8    l-8.6-11.1l0.8,5.8l-8.6-11.1l0.8,6.1l-6.6-9.7l0.8,5.8l-6.7-9.8l0.7,5.2l-7.6-7.5l2.3,5.9l-8.4-3.2l5.6,6.1l-7.1-0.5l10.3,4.5    l-6,0.5l12.9,3.3l-7,0.6l12.9,3.3l-7.5,0.7l14.9,4.6l-7,0.6l14.9,4.6L364.2,187.3L364.2,187.3z" id="XMLID_693_"/></g>
    <g id="XMLID_690_"><polygon class="st7" id="XMLID_249_" points="387.3,193.5 379.5,188.3 361.4,187.1 361.4,186.9 379.4,188.3 371.6,183.1     353.6,181.8 353.6,181.7 371.5,183 363.7,177.9 345.7,176.6 345.7,176.4 363.6,177.8 355.9,172.6 339.9,172.7 339.9,172.5     355.8,172.6 350,168.7 334,168.8 334,168.6 349.9,168.7 346,166.1 329.7,163.2 329.7,163.1 345.9,166 332.4,157.1 332.5,156.9     346.2,166 339.1,153.5 346.2,166.1 350.1,168.7 346.5,155.8 350.1,168.7 355.9,172.6 352.3,159.7 356,172.6 363.7,177.8     358.2,163.6 363.8,177.8 371.6,183 366,168.8 371.6,183.1 379.4,188.2 373.9,174.1 379.5,188.3 387.3,193.5   "/></g>
    <polygon class="st6" id="XMLID_248_"
             points="441.6,169.2 433.8,175 442.4,176 430.4,178.8 436.8,180.7 423.8,181.7 430.2,183.6    417.1,184.6 423.6,186.5 408.3,188.4 414.7,190.3 399.5,192.2 405.9,194.2 390.7,196.1 383,197 379.8,196.1 381,193.2 386.6,188.4    397.9,178.8 395.5,184.6 406.7,175 404.3,180.7 415.5,171.1 413.1,176.9 422.2,168.2 419.7,174 428.8,165.3 426.4,171.1    436.4,164.4 431.8,171.1  "/>
    <g id="XMLID_685_"><path class="st0" d="M383,197.6l-3.9-1.2l1.4-3.5l18.8-16.2l-2.4,5.8l11.2-9.6l-2.4,5.8l11.2-9.6l-2.3,5.5l9-8.7    l-2.4,5.8l9-8.7l-2.7,6.5l10.9-7.3l-5.5,8l10.9-2.1l-8.7,6.4l10.4,1.2l-13.1,3.1l7.3,2.2l-13,0.9l6.4,1.9l-13,1l6,1.8l-15.2,1.9    l6.4,1.9l-15.3,1.9l6.4,1.9L383,197.6L383,197.6z M380.6,195.7l2.5,0.7l20.1-2.5l-6.4-1.9l15.2-1.9l-6.4-1.9l15.2-1.9l-6.8-2l13-1    l-6.4-1.9l13.1-0.9l-5.5-1.7l10.9-2.6l-6.8-0.8l7-5.1l-8.7,1.7l3.7-5.4l-9.1,6.1l2.1-5l-9,8.7l2.4-5.8l-9,8.6l2.5-6.1l-11.2,9.6    l2.4-5.8l-11.2,9.6l2.4-5.8l-15.1,12.9L380.6,195.7L380.6,195.7z" id="XMLID_686_"/></g>
    <g id="XMLID_683_"><polygon class="st7" id="XMLID_245_" points="379.9,196.2 388.7,192.3 397.8,178.7 397.9,178.8 388.7,192.3 397.5,188.4     406.6,174.9 406.8,175 397.6,188.4 406.4,184.6 415.4,171.1 415.6,171.2 406.4,184.5 415.2,180.7 422.1,168.2 422.2,168.3     415.3,180.6 421.8,177.8 428.7,165.3 428.8,165.4 421.9,177.7 426.4,175.8 436.3,164.3 436.5,164.5 426.4,175.8 441.6,169.1     441.6,169.3 426.2,176 442.4,175.9 426.2,176 421.8,177.9 436.8,180.7 421.8,177.9 415.2,180.8 430.2,183.5 415.1,180.8     406.4,184.6 423.6,186.4 406.3,184.7 397.6,188.5 414.8,190.3 397.5,188.5 388.7,192.3 405.9,194.1 388.7,192.3 379.9,196.2   "/></g>
    <polygon class="st6" id="XMLID_244_"
             points="440.4,227.4 430.6,224.6 434.1,231.5 425.1,224 426.4,229.8 418.8,220.6 420.2,226.4    412.5,217.2 413.9,222.9 404.2,212.6 405.6,218.3 395.8,208 397.2,213.8 387.5,203.4 382.6,198.3 381.9,195.4 385.4,194.8    393.1,196.5 408.3,199.9 401.4,201.1 416.7,204.5 409.7,205.6 425,209 418.1,210.2 431.3,212.5 424.4,213.6 437.6,215.9    430.6,217.1 442.4,221.1 433.4,221.1  "/>
    <g id="XMLID_678_"><path class="st0" d="M435.8,233.6l-9.8-8.1l1.6,6.5l-7.6-9.2l1.4,5.8l-7.7-9.2l1.3,5.5l-9.7-10.3l1.4,5.8    l-9.7-10.4l1.4,5.8l-16-17l-1-3.7l4.1-0.7l25.9,5.7l-6.9,1.2l15.3,3.4l-7,1.2l15.3,3.4l-6.5,1.1l13.2,2.3l-7,1.2l13.2,2.3l-8,1.4    l12.9,4.3l-11,0l7.7,7l-10.8-3.2L435.8,233.6L435.8,233.6z M424.1,222.5l8.3,6.8l-2.9-5.7l8.7,2.5l-6.2-5.7l7.1,0l-10.7-3.6l5.9-1    l-13.2-2.3l6.9-1.2l-13.2-2.3l7.4-1.3l-15.3-3.4l7-1.2l-15.3-3.4l7-1.2l-20.2-4.5l-2.7,0.5l0.6,2.3l13,13.7l-1.4-5.8l9.7,10.3    l-1.4-5.8l9.7,10.3l-1.5-6l7.7,9.2l-1.4-5.8l7.6,9.2L424.1,222.5L424.1,222.5z" id="XMLID_679_"/></g>
    <g id="XMLID_676_"><polygon class="st7" id="XMLID_241_" points="434.2,231.4 425.7,219.5 421.6,217.2 426.5,229.8 421.5,217.2 415.3,213.8     420.3,226.3 415.2,213.7 407,209.2 414,222.9 406.9,209.2 398.6,204.6 405.7,218.3 398.6,204.6 390.3,200.1 397.3,213.7     390.2,200 381.9,195.4 390.2,200 408.3,199.8 408.3,200 390.3,200 398.6,204.6 416.7,204.4 416.7,204.5 398.7,204.6 407,209.1     425,208.9 425,209.1 407.1,209.2 415.4,213.7 431.3,212.4 431.3,212.6 415.5,213.8 421.6,217.1 437.6,215.8 437.6,216     421.7,217.2 426,219.5 442.4,221 442.4,221.1 426,219.5 440.4,227.3 440.3,227.5 425.7,219.5 434.2,231.4   "/></g>
    <polygon class="st6" id="XMLID_240_"
             points="338.9,230.8 343.8,223.9 336.3,225 345.5,219.8 339.7,219.5 350.2,215.7 344.4,215.4    354.9,211.7 349.1,211.4 361.2,206.3 355.3,206 367.5,200.9 361.6,200.6 373.7,195.5 379.8,192.9 382.8,193 382.6,195.9    379.2,201.4 372.6,212.5 373,206.8 366.3,217.9 366.7,212.2 360.1,223.3 360.5,217.6 355.4,227.3 355.8,221.6 350.7,231.4    351.1,225.7 344.6,233.9 346.6,226.9  "/>
    <g id="XMLID_671_"><path class="st0" d="M343.5,236.1l2.3-8.3l-8.4,4.3l5.4-7.6l-8.9,1.3l10-5.7l-6.7-0.3l10.6-3.8l-5.9-0.3l10.6-3.8    l-5.6-0.3l12.2-5.1l-5.9-0.3l12.1-5.1l-5.9-0.3l20.2-8.5l3.6,0.1l-0.2,3.3l-11,18.5l0.4-5.7l-6.6,11.1l0.4-5.7l-6.7,11.1l0.4-5.4    l-5.1,9.7l0.4-5.7l-5.1,9.7l0.4-6.4L343.5,236.1L343.5,236.1z M347.3,226l-1.6,5.7l5.9-7.6l-0.3,4.9l5.1-9.7l-0.4,5.7l5.1-9.7    l-0.4,6l6.7-11.1l-0.4,5.7l6.6-11l-0.4,5.7l8.9-14.9l0.1-2.1l-2.5-0.1l-16,6.8l5.9,0.3l-12.2,5.1l5.9,0.3l-12.2,5.1l6.2,0.3    l-10.6,3.8l5.9,0.3l-10.6,3.8l5.1,0.2l-8.5,4.8l6.1-0.9l-4.4,6.2L347.3,226L347.3,226z" id="XMLID_672_"/></g>
    <g id="XMLID_669_"><polygon class="st7" id="XMLID_237_" points="344.7,233.9 344.5,233.9 349.7,221.6 339,230.9 338.9,230.8 349.8,221.3     336.4,225.1 349.8,221.3 349.8,221.3 352.9,218.7 339.7,219.6 353,218.6 357.6,214.6 344.4,215.5 357.7,214.6 363.9,209.2     349.1,211.5 363.9,209.2 370.1,203.8 355.3,206.1 370.2,203.8 376.4,198.4 361.6,200.7 376.5,198.4 382.7,193 376.5,198.4     372.7,212.5 372.5,212.5 376.4,198.4 370.2,203.8 366.4,217.9 366.3,217.8 370.1,203.9 363.9,209.2 360.1,223.3 360,223.2     363.9,209.3 357.7,214.7 355.5,227.3 355.3,227.3 357.6,214.7 353,218.7 350.8,231.4 350.6,231.3 352.9,218.8 349.8,221.5     344.7,233.9   "/></g>
    <polygon class="st6" id="XMLID_236_"
             points="427.5,140.1 418.1,146.5 416.5,139.7 410.9,149.1 409.9,144.6 405.4,154.3    404.8,149.8 401.2,159.7 399.2,154.9 395.7,167 393.6,162.2 390.1,174.3 388.1,169.5 384.5,181.6 382.8,187.6 383.8,190    387.6,188.8 394.1,183.9 407.3,174.1 399.7,176.6 412.9,166.8 405.3,169.3 418.4,159.5 410.8,162 424,154.4 415,156.5 429.2,149.1    420.6,151.4 430.9,143.1 422,147.4  "/>
    <g id="XMLID_664_"><path class="st0" d="M383.5,190.7l-1.2-2.8L388,168l2,4.8l3.6-12.1l2,4.8l3.5-12.1l2.1,4.9l3.8-10.7l0.7,4.8    l4.5-9.5l1,4.8l5.6-9.4l1.7,7.4l11.5-7.8l-6.2,8.1l11.2-5.4l-12.1,9.7l10.8-2.8l-14.5,7.6l8.3-2l-11.9,6.9l5.9-1.9l-13.2,9.8    l7.6-2.5l-13.1,9.8l7.6-2.5l-22.4,16.7L383.5,190.7L383.5,190.7z M388.2,171.1l-4.9,16.7l0.8,1.6l3.4-1.1l16.9-12.7l-7.6,2.5    l13.2-9.8l-7.6,2.5l13.1-9.8l-9.3,3.1l14.4-8.4l-9.6,2.3l13.8-7.2l-6.4,1.7l8.7-6.9l-6.8,3.3l4.9-6.5l-7.4,5l-1.4-6.3l-5.6,9.5    l-1-4.3l-4.6,9.9l-0.6-4.1l-3.3,9.2l-2-4.7l-3.5,12.1l-2-4.8l-3.6,12.1L388.2,171.1L388.2,171.1z" id="XMLID_665_"/></g>
    <g id="XMLID_662_"><polygon class="st7" id="XMLID_233_" points="383.8,190.1 389.4,182.8 388,171.7 389.4,182.7 394.9,175.4 393.6,164.4 395,175.4     400.5,168.1 399.2,157.1 400.5,168 406,160.8 404.3,151.9 406.1,160.7 410.2,155.3 409.5,146.6 410.3,155.2 413.5,152.5     416,141.7 413.5,152.4 423.8,143.5 423.9,143.6 413.4,152.7 427.4,145.4 427.4,145.5 413.4,152.8 413.4,152.7 410.4,155.4     425.3,150.3 425.4,150.5 410.2,155.5 406.1,160.8 420.1,155.5 420.2,155.7 406.1,160.9 400.6,168.1 415.6,160.9 415.7,161.1     400.5,168.2 395,175.4 410.2,168.3 410.2,168.4 394.9,175.5 389.4,182.7 404.4,175.5 404.4,175.6 389.4,182.8 383.8,190.1   "/></g>
    <polygon class="st6" id="XMLID_232_"
             points="376.3,128.2 380.5,137.9 386,132.8 385.1,143.3 388.6,139.9 386.7,150.2 389.9,146.7    386.9,156.8 391.5,153.6 387.3,165.5 391.9,162.4 387.6,174.3 392.3,171.1 388,183 385.9,188.9 383.6,190.5 381.1,187.7    378.4,180.6 373.1,166.3 378.1,171.9 372.8,157.6 377.7,163.1 372.4,148.8 377.4,154.4 370.8,141.9 377.1,147.8 369.5,135.1    375.5,141 371.6,129.2 376.7,136.9  "/>
    <g id="XMLID_657_"><path class="st0" d="M383.5,191.2l-2.8-3.1l-9-24.1l5,5.6l-5.3-14.3l5,5.6l-5.3-14.3l4,4.4l-6.1-11.4l5.9,5.5    l-7.8-13l7.3,7.1l-4.4-13.5l6.1,9.5l-0.4-9.6l5,11.5l5.9-5.5l-0.9,10.6l3.8-3.6l-1.9,10.1l3.5-3.8l-3.2,10.8l4.7-3.2l-4.3,11.9    l4.6-3.2l-4.3,11.9l4.6-3.2l-6.9,19.3L383.5,191.2L383.5,191.2z M374.5,168.7l7,18.9l2.1,2.3l1.9-1.3l5.7-16.1l-4.6,3.2l4.2-11.9    l-4.6,3.2l4.3-11.9L386,158l2.8-9.3l-3,3.2l2-10.5l-3.4,3.3l0.9-10.6l-5,4.7l-3.4-7.9l0.3,7.9l-3.9-6.1l3.3,10.1l-4.7-4.5    l7.5,12.5l-6.8-6.3l7.1,13.5l-6-6.7l5.3,14.3l-5-5.6l5.3,14.3L374.5,168.7L374.5,168.7z" id="XMLID_658_"/></g>
    <g id="XMLID_655_"><polygon class="st7" id="XMLID_229_" points="383.6,190.5 383.3,181.8 374.6,168.9 374.8,168.8 383.3,181.7 382.9,173 374,160.1     374.2,160 382.9,172.9 382.5,164.3 373.8,151.4 373.9,151.3 382.5,164.2 382.1,155.5 373.2,144.8 373.3,144.7 382.1,155.4     381.8,148.9 371.9,138 372,137.9 381.7,148.8 380.7,145 373.2,132.8 373.3,132.8 380.7,144.8 377.3,132.8 377.5,132.8     380.9,145.2 385.1,134.7 380.9,145.3 382,149 387.6,141.8 382,149.1 382.2,155.5 388.9,148.6 382.2,155.6 382.6,164.3     390.1,155.4 382.6,164.4 382.9,173 390.6,164.1 382.9,173.1 383.3,181.8 390.9,172.9 383.3,181.8 383.6,190.5   "/></g>
    <polygon class="st6" id="XMLID_228_"
             points="319.7,199.6 332,191 325.9,187.8 336.7,189.6 333,184.7 343.5,188.6 339.8,183.7    350.3,187.7 346.5,182.7 359.2,187.1 355.5,182.1 367.9,188.6 364.1,183.6 376.8,188 383,191.2 384.8,193.6 382.4,195.3    375.6,196.3 364.6,200.9 366.6,196.9 353.1,198.9 358,195.4 344.1,199.5 349,196 337.3,200.5 342.6,194.9 330.5,201.5 335.8,195.9    325.9,202.8 331.4,195.2  "/>
    <g id="XMLID_650_"><path class="st0" d="M323.7,205l6.3-8.7l-14,5.3l15-10.5l-8.4-4.3l12.8,2.2l-4-5.3l10.5,3.9l-3.7-4.9l10.5,3.9    l-3.7-4.9l12.7,4.3l-4.1-5.4l12.4,6.4l-3.4-4.5l14.2,4.9l6.3,3.2l2.3,3l-2.9,2l-7,1.1l-12.1,5.1l2.2-4.3l-14.7,2.1l4.1-2.9    l-13.9,4l4.1-2.9l-10,3.8l4.6-4.8l-12,6.5l4-4.2L323.7,205L323.7,205z M332.8,194.1l-4.8,6.6l11.5-8l-6.5,6.8l12-6.5l-5.9,6.3    l13.5-5.1l-5.7,4l13.9-4.1l-5.7,4l12.4-1.8l-1.8,3.6l9.7-4l6.9-1l1.8-1.3l-1.5-2.1l-6-3.1l-11-3.8l4.1,5.4l-12.4-6.4l3.4,4.5    l-12.7-4.3l3.8,5l-10.5-3.9l3.7,4.9l-10.5-3.9l3.4,4.6l-8.8-1.5l4,2.1l-9.7,6.7L332.8,194.1L332.8,194.1z" id="XMLID_651_"/></g>
    <g id="XMLID_648_"><polygon class="st7" id="XMLID_225_" points="328.5,200.4 328.4,200.3 336.1,191.9 323.6,197.3 323.6,197.2 336.3,191.7     330,189.4 336.4,191.6 343.1,190.7 334.9,186.3 343.2,190.7 348.8,190.6 349.7,190.6 349.8,190.6 341.7,185.2 349.9,190.6     349.8,190.6 358.5,191.2 348.5,184 358.6,191.2 367.3,191.6 357.4,183.8 367.4,191.6 375.5,192.5 366.1,185.2 375.6,192.5     384.8,193.5 375.7,192.6 376.1,192.9 366.4,199.1 366.3,199 376,192.9 375.6,192.6 367.2,191.7 355.4,198.2 355.3,198.1     367.1,191.7 358.4,191.3 347.6,198 347.5,197.9 358.3,191.3 349.6,190.8 339.8,198.8 339.7,198.7 349.5,190.8 348.8,190.7     343,190.8 333,199.8 332.9,199.7 342.9,190.8 336.2,191.9 328.5,200.4   "/></g>
    <polygon class="st8" id="XMLID_224_" points="362.9,297.9 384.2,294 406.4,297.9 396.1,302.2 377.1,302.5  "/>
    <g id="XMLID_643_"><path class="st7" d="M377.1,302.6l-14.2-4.6l21.3-4l22.2,3.8l-10.3,4.5L377.1,302.6L377.1,302.6z M384.2,294.1    l-21.3,3.8l14.2,4.4l19-0.3l10.3-4.3L384.2,294.1L384.2,294.1z" id="XMLID_644_"/></g>
    <path class="st9"
          d="M384.4,263.2c-3.7,1.3-7.8-1.8-14.6,3.3c0,0-11.7-5.1-12.6,6.6c0,0.5,1.9,3.3,2.1,3.1   c1.5-1.1-0.7,1.1-0.7,1.4c0,0.3,0.2,0.5,0.3,0.7c0.1,0.1,0.2,0.4,0.3,1c0,0.6-1.3,2.3-0.8,2.9c0.6,0.6,0.6,2.4,0.6,2.9   s0.4,1.9,0.6,2.2c0.3,0.3,0.7,1,0.7,1.6c0,0.6,0.2,2.3,0.1,2.7c-0.1,0.4,0.6,1,1.3,1.2c0.7,0.2,9.5,0.4,21.9,0.2   c12.4-0.2,16.5,1.8,21.6-0.1c0.8-0.3,0.9-0.9,0.9-1.3c-0.1-0.4,0-1.5,0.2-1.8c0.2-0.3,1.7-2.6,1.4-3.1c0.3-0.2,2.3,1.2,1-0.1   c-0.3-0.3,0.2-3.8,0.4-4.5c0.2-0.7,0.5-2.1,0.8-2.3c0.3-0.3-0.6-1.2-0.5-1.4c0.1-0.2,0.3-0.7,0.6-1c0,0,0.6-2.9,0.2-4.4   c-0.4-1.4-1.8-8-10.6-6.6C399.8,266.5,388,261.9,384.4,263.2L384.4,263.2z"
          id="XMLID_221_"/>
    <g id="XMLID_638_"><path class="st7" d="M400.3,293.9c-1.4,0-2.9-0.1-4.7-0.3c-2.6-0.2-5.8-0.5-10-0.5l-1.9,0    c-12,0.2-21.2,0.1-21.9-0.2c-0.7-0.2-1.6-0.8-1.4-1.4c0.1-0.2,0-1-0.1-1.6c0-0.4-0.1-0.8-0.1-1.1c0-0.5-0.4-1.2-0.6-1.5    c-0.3-0.3-0.6-1.8-0.6-2.3c0-0.5,0-2.2-0.6-2.8c-0.4-0.5,0-1.3,0.3-2c0.2-0.4,0.4-0.8,0.4-1c0-0.5-0.2-0.7-0.2-0.8    c-0.2-0.3-0.3-0.5-0.3-0.8c0-0.2,0.2-0.4,0.7-1.1c0,0,0.1-0.1,0.1-0.2c-1-0.9-2.3-2.8-2.3-3.3c0.5-6.5,4.3-7.9,7.4-7.9    c2.8,0,5.4,1.1,5.4,1.1c4.5-3.6,7.8-3.2,10.4-3c1.6,0.1,3,0.1,4-0.3c3.4-1.1,15.1,3.1,15.5,3.3c5.3-1,9.3,1.4,10.6,6.6    c0.4,1.6-0.2,4.5-0.2,4.6c-0.4,0.3-0.6,0.8-0.6,1c0.4,0.7,0.8,1.2,0.4,1.4c-0.2,0.2-0.5,1.1-0.6,1.7c-0.3,1.4-0.7,4.5-0.5,4.8    c0.4,0.4,0.5,0.6,0.5,0.7l-0.8-0.1c-0.3-0.1-0.6-0.3-0.7-0.3c0.5,0.4-1.3,3-1.3,3c-0.2,0.2-0.3,1.3-0.2,1.7c0.1,0.4,0,1.2-1,1.5    C403.8,293.6,402.3,293.9,400.3,293.9L400.3,293.9z M385.7,292.8c4.2,0,7.4,0.2,10,0.5c4.3,0.3,7,0.4,9.6-0.6    c0.7-0.3,0.8-0.8,0.7-1.1c-0.1-0.4,0-1.6,0.3-1.9c0.4-0.5,1.5-2.6,1.4-2.8c0.4-0.3,0.7-0.2,1.1,0c-0.6-0.5,0.2-4.4,0.2-4.7    c0.4-1.5,0.6-2.2,0.8-2.4c0.1-0.1-0.2-0.5-0.3-0.7l-0.2-0.6c0.1-0.2,0.3-0.8,0.7-1l0,0c0,0,0.5-2.8,0.2-4.2    c-1.3-5.2-4.5-7.4-10.4-6.5c-0.2,0-12.1-4.4-15.3-3.3c-1.1,0.4-2.5,0.4-4.1,0.3c-2.7-0.2-5.8-0.5-10.4,3h0c-0.2,0-2.7-1.1-5.4-1.1    c-4.3,0-6.7,2.5-7.1,7.5c0,0.4,1.6,2.8,1.9,2.9c0.3-0.3,0.4-0.3,0.5-0.3c0.3,0.3,0.2,0.4-0.4,1.1c-0.2,0.3-0.6,0.8-0.6,0.9    l0.3,0.6c0.1,0.2,0.3,0.5,0.3,1c0,0.3-0.2,0.7-0.4,1.2c-0.3,0.6-0.7,1.4-0.4,1.6c0.6,0.6,0.7,2.3,0.7,3c0,0.5,0.4,1.9,0.6,2.1    c0.3,0.3,0.7,1.1,0.7,1.7c0,0.2,0,0.6,0.1,1.1c0.1,0.7,0.1,1.4,0.1,1.7c-0.1,0.3,0.5,0.8,1.2,1c0.6,0.2,9.1,0.4,21.8,0.2    L385.7,292.8L385.7,292.8z" id="XMLID_639_"/></g>
    <path class="st10"
          d="M369.4,270.7c-0.6,0.2-1.1,5.2-0.7,6.8c0.3,1.1,0.8,1.9,1,2.3c-0.5-0.8-1.6-2.3-2.9-2.1   c-1.6,0.1-1.2,5.3-1.1,5.6v0l0,0h0c0-0.1,0.4-2.3,2-2.5c1-0.1,2,1.1,2.3,1.5c0,0.2,0,0.3,0.1,0.5c-0.2,0.5-0.2,1.7-0.7,3.2   c-0.7,1.8-3.3,2.3-3.8,2.3c0.1,0,4.4-0.4,5.8-0.5c0,0,0,0,0,0l0,0c0,0,0,0,0,0c1.4-0.1,5.7-0.5,5.8-0.5c-0.5,0-3.2,0.1-4.3-1.6   c-0.9-1.4-1.1-2.5-1.4-3c0-0.2,0-0.3-0.1-0.5c0.2-0.5,0.9-1.8,1.9-1.9c1.6-0.1,2.5,1.9,2.6,2.1c0,0,0,0,0,0c0,0,0,0,0,0v0   c0-0.3-0.8-5.5-2.4-5.3c-1.3,0.1-2,1.8-2.3,2.6c0.1-0.5,0.3-1.5,0.4-2.4C371.8,275.5,370,270.6,369.4,270.7   C369.4,270.7,369.4,270.7,369.4,270.7L369.4,270.7z M369.7,279.8c0.1,0.1,0.1,0.1,0.1,0.2l0.1,0.5c0,0,0.5,1.7,0.5,1.7   C370.5,282.2,369.8,279.9,369.7,279.8L369.7,279.8z M371.3,279.7c0,0.1-0.2,2.5-0.2,2.5c0,0,0.1-2.3,0.1-2.3l0,0.5   C371.2,280.4,371.3,279.8,371.3,279.7L371.3,279.7z"
          id="XMLID_634_"/>
    <g id="XMLID_632_"><path class="st7" d="M365.7,288.5l0-0.2l0,0l0,0l0,0c0.5-0.1,3-0.5,3.7-2.2c0.3-1,0.5-1.8,0.6-2.4    c0.1-0.3,0.1-0.6,0.2-0.8c-0.4-0.8-1.3-1.9-2.2-1.9c-0.7,0.1-1.6,0.5-2,2.3c0,0,0,0,0,0c0.3-1.9,1.2-2.4,1.9-2.5c0,0,0,0,0,0    c1.2,0,2.1,1.1,2.4,1.6c0,0.8,0,1-0.1,1.3c-0.1,0.6-0.2,1.4-0.6,2.4c-0.4,1.1-1.5,1.7-2.4,2c1.4-0.1,3.4-0.3,4.3-0.4    c1-0.1,3.6-0.3,4.9-0.4c-1,0.1-2.7-0.3-3.5-1.5c-0.6-0.9-0.9-1.7-1.1-2.3c-0.1-0.3-0.2-0.5-0.3-0.7c0.2-1.2,0.9-2.5,1.9-2.6    c1.1,0.2,1.9,0.7,2.6,2c-0.2-0.4-1-5.1-2.4-5.1c-1.2,0.1-2,1.6-2.3,2.5c-0.1-0.6,0.1-1.6,0.2-2.5c0.1-1.5-1.3-5.6-2-6.3    c-0.6,0.1-1.2,4.9-0.7,6.6c0.3,0.9,0.6,1.6,0.9,2.1c0,0,0,0-0.1,0c0.1,0.1,0.1,0.2,0.2,0.3c-0.1-0.1-0.2-0.3-0.3-0.4    c-0.5-0.5-1.4-1.6-2.5-1.6c-0.3,0-0.5,0.1-0.7,0.4c-0.8,1.1-0.6,4.4-0.5,5.1c-0.3-0.6-0.5-4,0.3-5.2c0.2-0.3,0.4-0.4,0.7-0.4h0    c1,0,1.8,0.7,2.4,1.4c-0.2-0.4-0.4-0.9-0.6-1.5c-0.5-1.6,0.1-6.7,0.7-6.9c1.1,1,2.5,5.1,2.5,6.6c0,0.7-0.1,1.4-0.3,1.9    c0.3-1,1-2.1,2.1-2.2c0,0,0,0,0,0c1.7,0,2.5,5.1,2.5,5.4c-0.9-1.3-1.7-1.9-2.5-1.9c-1.1,0.1-1.7,1.3-2,1.9    c0.2,0.6,0.3,0.8,0.4,1.1c0.2,0.6,0.5,1.4,1.1,2.2c0.9,1.4,3,1.5,3.9,1.5c0,0,0,0,0,0c0.2,0,0.3,0,0.3,0c-0.1,0-0.2,0-0.3,0    c-0.3,0.2-4.1,0.6-5.4,0.7C370.1,288.1,365.8,288.5,365.7,288.5L365.7,288.5z" id="XMLID_215_"/></g>
    <path class="st10"
          d="M369.9,282.4c0,0,0.4-0.4,0.9-0.4c0.5,0,1,0.2,1,0.2l0.1,0.9c0,0-0.5-0.3-1-0.2   c-0.5,0-0.9,0.4-0.9,0.4L369.9,282.4z"
          id="XMLID_214_"/>
    <g id="XMLID_629_"><path class="st7" d="M369.9,283.4l-0.1-1c0.1-0.1,0.5-0.5,1-0.5c0,0,0,0,0,0c0.5,0,1,0.2,1,0.2l0.2,0.9    c-0.2,0.1-0.6-0.1-1-0.1c-0.5,0-0.9,0.4-0.9,0.4L369.9,283.4L369.9,283.4z" id="XMLID_213_"/></g>
    <path class="st10"
          d="M398.5,271c-0.6,0.1-2.2,4.8-2,6.5c0.1,1.2,0.4,2,0.5,2.5c-0.3-0.9-1.1-2.5-2.4-2.7   c-1.6-0.2-2.2,4.9-2.2,5.3v0l0,0l0,0c0.1-0.1,0.9-2.2,2.5-2c1,0.1,1.7,1.4,2,2c0,0.2,0,0.3,0,0.5c-0.3,0.4-0.5,1.6-1.4,3   c-1,1.6-3.7,1.5-4.1,1.5c0.1,0,4.4,0.5,5.8,0.7c0,0,0,0,0,0l0,0c0,0,0,0,0,0c1.4,0.2,5.7,0.7,5.8,0.7c-0.5-0.1-3.1-0.6-3.9-2.4   c-0.6-1.5-0.6-2.7-0.8-3.2c0-0.2,0-0.3,0-0.5c0.3-0.5,1.2-1.6,2.3-1.5c1.6,0.2,2,2.4,2.1,2.5l0,0l0,0l0,0c0.1-0.3,0.3-5.5-1.3-5.7   c-1.3-0.2-2.3,1.3-2.8,2.1c0.2-0.5,0.6-1.4,0.9-2.3C399.9,276.2,399.1,271.1,398.5,271C398.5,271,398.5,271,398.5,271L398.5,271z    M397,280c0,0.1,0.1,0.2,0.1,0.2c0,0,0,0.5,0,0.5c0,0,0.2,1.8,0.2,1.8C397.2,282.5,397,280.1,397,280L397,280z M398.5,280.2   c-0.1,0.1-0.7,2.4-0.7,2.4c0,0,0.6-2.2,0.6-2.2l-0.1,0.5C398.3,280.9,398.5,280.3,398.5,280.2L398.5,280.2z"
          id="XMLID_625_"/>
    <g id="XMLID_620_"><path class="st7" d="M402.8,289l-5.8-0.7c-1.4-0.2-5.3-0.7-5.8-0.7h0l0-0.1l0,0.1c1.5-0.2,3.3-0.4,4-1.6    c0.5-0.9,0.8-1.6,1-2.2c0.1-0.3,0.2-0.6,0.3-0.8c-0.2-0.9-0.9-2.2-1.9-2.3c-1,0.1-1.7,0.6-2.3,1.8c0,0,0,0,0,0    c0.5-1.4,1.3-2,2.2-2c1.3,0.2,2,1.5,2.3,2.1c-0.1,0.8-0.2,1-0.4,1.3c-0.2,0.6-0.5,1.4-1.1,2.2c-0.7,1.1-2,1.4-3.1,1.5    c1.2,0.1,3.6,0.4,4.6,0.5l4.3,0.5c-0.9-0.4-2.1-1-2.5-2.1c-0.4-1-0.5-1.8-0.6-2.4c-0.1-0.3-0.1-0.6-0.2-0.8c0.4-1,1.2-2.1,2.3-2.1    c1.1,0.1,1.9,1,2.3,2.5c-0.1-0.4,0-3.9-0.8-5.1c-0.2-0.2-0.3-0.4-0.5-0.4c0,0,0,0,0,0c-1.3,0-2.2,1.3-2.7,2c0-0.6,0.4-1.5,0.7-2.4    c0.4-1.4-0.1-5.8-0.7-6.6c0,0,0,0,0,0c-0.6,0-2.2,4.5-2,6.3c0.1,1,0.3,1.8,0.4,2.3c0,0,0,0,0,0c0,0.1,0.1,0.1,0.1,0.2    c-0.1-0.1-0.1-0.2-0.2-0.4c-0.4-0.6-1.1-2.1-2.3-2.2c-0.3-0.1-0.5,0.1-0.6,0.3c-0.9,1-1.4,4.1-1.5,4.8c-0.2-0.6,0.3-3.9,1.3-4.9    c0.2-0.2,0.5-0.3,0.7-0.3c1,0.1,1.7,1,2.1,1.8c-0.1-0.4-0.2-0.9-0.3-1.5c-0.2-1.6,1.4-6.5,2.1-6.6c0.9,1.1,1.4,5.5,1,7    c-0.2,0.7-0.4,1.4-0.7,1.9c0.5-0.9,1.3-1.8,2.3-1.8c0.5,0,0.7,0.2,0.9,0.5c1,1.3,0.7,5.2,0.7,5.4c-0.7-1.6-1.3-2.3-2.2-2.4    c0,0,0,0,0,0c-1.1,0-1.9,1.1-2.2,1.4c0,0.6,0.1,0.9,0.1,1.2c0.1,0.6,0.2,1.4,0.6,2.4c0.7,1.8,3.3,2.3,3.8,2.4L402.8,289L402.8,289    z M397.4,283.1l-0.3-0.5c0,0,0-0.1-0.2-1.6c0-0.5-0.1-0.9-0.1-1l0.1,0.2l0-0.3l0.1,0c0,0,0,0.3,0.1,0.7l0,0.1    c0,0.1,0.2,1.8,0.2,1.8L397.4,283.1L397.4,283.1z M397.9,282.7C397.9,282.7,397.9,282.7,397.9,282.7c-0.2-0.1-0.1-0.5,0.1-1    c0.1-0.4,0.2-0.6,0.3-0.9c0,0,0,0,0,0v0c0.1-0.4,0.2-0.6,0.2-0.7l-0.1,0.2c0,0,0,0,0,0l0.4-0.7l-0.3,1.3v0    c-0.1,0.3-0.2,0.6-0.2,0.9C398,282.2,397.9,282.6,397.9,282.7L397.9,282.7L397.9,282.7C397.9,282.7,397.9,282.7,397.9,282.7    L397.9,282.7z" id="XMLID_621_"/></g>
    <path class="st10"
          d="M396.6,282.5c0,0,0.5-0.3,1-0.2c0.5,0.1,0.9,0.4,0.9,0.4l-0.1,0.9c0,0-0.4-0.4-0.9-0.4   c-0.5-0.1-1,0.2-1,0.2L396.6,282.5z"
          id="XMLID_206_"/>
    <g id="XMLID_617_"><path class="st7" d="M398.5,283.8l-0.2-0.1c0,0-0.4-0.4-0.9-0.4c0,0,0,0,0,0c-0.5,0-0.9,0.2-0.9,0.2l-0.1-1    c0.1-0.1,0.5-0.3,0.9-0.3c0.6,0.1,1.1,0.5,1.1,0.5L398.5,283.8L398.5,283.8z" id="XMLID_205_"/></g>
    <path class="st10"
          d="M358.8,279.3l2.3-2.8c0,0,0.2,0.3,0,0c-4.7-6.1-4.9-9.5-4.4-11.3c0.5-1.8,1.6-3.7,4.4-6   c2.8-2.3,4.7-1,7.4-1c2.6,0,3.3,0.6,5.6,0.9c2.3,0.3,8.4,0.6,8.4,0.6v-1.6c0,0,0.2,0,0,0c-2.7-0.5-6.1,0-8.4-0.6   c-2.3-0.6-4.2-0.7-6.7-0.7c-2.4,0-4.2-0.7-5.8,0.3c-1.6,1-3.5,2.8-4.9,4.3c-1.4,1.5-2.1,4.4-1.9,6.3c0.2,1.9,0.9,3.5,1.9,5   c1,1.5,0.9,2.6,1.2,3.7C358.3,277.2,358.8,279.4,358.8,279.3L358.8,279.3z"
          id="XMLID_204_"/>
    <g id="XMLID_612_"><path class="st7" d="M358.8,279.3c-0.1,0-0.1,0-0.3-0.8c-0.2-0.7-0.5-1.7-0.7-2.4c-0.1-0.3-0.2-0.7-0.2-1.1    c-0.1-0.8-0.3-1.6-1-2.6c-1.1-1.6-1.8-3.3-1.9-5c-0.2-1.9,0.5-4.9,1.9-6.4c1.3-1.4,3.3-3.2,4.9-4.3c0.9-0.6,2.2-0.6,3.7-0.5    c0.6,0.1,1.3,0.1,2.1,0.1c2.4,0,4.3,0.1,6.7,0.7c1.2,0.3,2.6,0.3,4.2,0.3c1.4,0,2.9,0,4.2,0.3l0,0.2l0.1,0l0,0.1h0l-0.1,0l0.1,1.5    c-0.1,0.1-6.2-0.2-8.5-0.5c-0.9-0.1-1.5-0.3-2.2-0.4c-0.9-0.2-1.8-0.5-3.4-0.5c-0.7,0-1.4-0.1-2-0.2c-1.9-0.3-3.6-0.2-5.3,1.2    c-3,2.5-3.9,4.5-4.4,6c-0.5,1.8-0.2,5.3,4.4,11.2l-0.1,0.1l0,0l-0.1,0.1h0L358.8,279.3L358.8,279.3z M363.7,256.4    c-0.8,0-1.5,0.2-2,0.5c-1.6,1.1-3.6,2.9-4.9,4.3c-1.4,1.5-2.1,4.4-1.9,6.3c0.2,1.7,0.8,3.4,1.9,5c0.7,1,0.9,1.9,1,2.7    c0.1,0.4,0.1,0.7,0.2,1c0.2,0.6,0.5,1.7,0.7,2.4c0.1,0.2,0.1,0.5,0.2,0.6l2.2-2.7c-4.6-5.9-4.9-9.4-4.4-11.3    c0.4-1.5,1.3-3.5,4.4-6.1c1.7-1.4,3.5-1.5,5.4-1.2c0.6,0.1,1.3,0.2,2,0.2c1.6,0,2.5,0.2,3.5,0.5c0.6,0.2,1.3,0.3,2.1,0.4    c2.3,0.3,8.4,0.6,8.4,0.6l-0.1-1.5c-1.2-0.2-2.7-0.2-4.1-0.2c-1.6,0-3,0-4.2-0.3c-2.4-0.6-4.3-0.7-6.6-0.7c-0.8,0-1.5-0.1-2.1-0.1    C364.7,256.5,364.2,256.4,363.7,256.4L363.7,256.4z" id="XMLID_613_"/></g>
    <path class="st10"
          d="M409.2,279.3l-2.3-2.8c0,0-0.2,0.3,0,0c4.7-6.1,4.9-9.5,4.4-11.3c-0.5-1.8-1.6-3.7-4.4-6   c-2.8-2.3-4.7-1-7.4-1c-2.6,0-3.3,0.6-5.6,0.9c-2.3,0.3-8.4,0.6-8.4,0.6v-1.6c0,0-0.2,0,0,0c2.7-0.5,6.1,0,8.4-0.6   c2.3-0.6,4.2-0.7,6.6-0.7c2.5,0,4.2-0.7,5.8,0.3c1.6,1,3.5,2.8,4.9,4.3c1.4,1.5,2.1,4.4,1.9,6.3c-0.2,1.9-0.9,3.5-1.9,5   c-1.1,1.5-0.9,2.6-1.2,3.7C409.8,277.2,409.2,279.4,409.2,279.3L409.2,279.3z"
          id="XMLID_201_"/>
    <g id="XMLID_607_"><path class="st7" d="M409.2,279.3L409.2,279.3l-2.3-2.8c4.6-6.1,4.9-9.5,4.4-11.3c-0.4-1.5-1.3-3.5-4.4-6    c-1.7-1.4-3.4-1.5-5.3-1.2c-0.6,0.1-1.3,0.2-2,0.2c-1.6,0-2.5,0.2-3.4,0.5c-0.6,0.2-1.3,0.3-2.1,0.4c-2.3,0.3-8.4,0.6-8.4,0.6    l-0.1-1.7c1.4-0.3,2.9-0.3,4.3-0.3c1.5,0,3,0,4.2-0.3c2.4-0.6,4.3-0.7,6.7-0.7c0.8,0,1.5-0.1,2.1-0.1c1.6-0.2,2.8-0.2,3.7,0.5    c1.6,1.1,3.6,2.9,4.9,4.3c1.4,1.5,2.1,4.5,2,6.4c-0.2,1.8-0.8,3.4-1.9,5c-0.7,1-0.9,1.9-1,2.6c-0.1,0.4-0.1,0.7-0.2,1    c-0.2,0.6-0.5,1.6-0.6,2.3C409.3,279.3,409.3,279.3,409.2,279.3L409.2,279.3z M403.4,257.6c1.3,0,2.4,0.4,3.6,1.4    c3.1,2.6,4,4.6,4.4,6.1c0.6,1.9,0.3,5.4-4.4,11.4l2.2,2.6c0-0.1,0.1-0.4,0.2-0.6c0.2-0.7,0.4-1.7,0.6-2.3c0.1-0.3,0.2-0.7,0.2-1    c0.1-0.8,0.3-1.7,1-2.7c1.1-1.6,1.7-3.2,1.9-5c0.2-1.9-0.5-4.8-1.9-6.3c-1.3-1.4-3.3-3.2-4.9-4.3c-0.9-0.6-2.1-0.6-3.6-0.4    c-0.7,0.1-1.4,0.1-2.1,0.1c-2.4,0-4.3,0.1-6.6,0.7c-1.2,0.3-2.7,0.3-4.2,0.3c-1.4,0-2.9,0-4.2,0.3l0.1,1.5    c0.1-0.1,6.1-0.4,8.3-0.7c0.9-0.1,1.5-0.3,2.1-0.4c1-0.2,1.9-0.5,3.5-0.5c0.7,0,1.4-0.1,2-0.2    C402.2,257.7,402.8,257.6,403.4,257.6L403.4,257.6z" id="XMLID_608_"/></g>
    <rect class="st10" height="16.8" id="XMLID_198_" width="8.1" x="380.2" y="256.6"/>
    <g id="XMLID_602_"><path class="st7" d="M388.4,273.4h-8.2l-0.1-16.9l8.2-0.1L388.4,273.4L388.4,273.4z M388.2,256.6l-8,0.1l0.1,16.7    l7.9-0.1V256.6L388.2,256.6z" id="XMLID_603_"/></g>
    <path class="st10"
          d="M381.2,241.8c0,0,0.9,0.7,1.5,1.6c0.7,0.9,1.1,2,1.1,2s-1.1-0.5-2-1.1   c-0.9-0.7-1.6-1.6-1.6-1.6v6.2c0,0,0.7-0.9,1.6-1.5c0.9-0.7,2-1.2,2-1.2s-0.4,0.9-0.6,2c-0.2,1-1.9,3.3-1.9,3.3l5,0.3   c0,0-0.8-2.7-1.2-3.7c-0.4-1.1-0.5-2-0.5-2s1.1,0.5,2,1.2c0.9,0.7,1.6,1.5,1.6,1.5v-6.2c0,0-0.7,0.9-1.6,1.6c-0.9,0.7-2,1.1-2,1.1   s0.5-1.1,1.1-2c0.7-0.9,1.5-1.6,1.5-1.6H381.2z"
          id="XMLID_195_"/>
    <g id="XMLID_597_"><path class="st7" d="M386.4,252.1l-5.1-0.3c0-0.1,1.7-2.4,1.9-3.4c0.2-1,0.5-1.8,0.6-2c-0.1,0.1-1.1,0.6-1.9,1.2    c-0.9,0.7-1.6,1.5-1.6,1.5l-0.1-6.3c0,0,0,0,0,0c0.1,0,0.8,0.9,1.7,1.5c0.8,0.6,1.8,1,2,1.1c-0.1-0.1-0.6-1.1-1.2-1.9    c-0.7-0.9-1.5-1.6-1.5-1.6l6.2-0.1c0,0.1-0.8,0.8-1.5,1.7c-0.6,0.8-1,1.8-1.1,2c0.2-0.1,1.1-0.6,1.9-1.2c0.9-0.7,1.6-1.5,1.6-1.5    l0.1,6.3c0,0,0,0,0,0c-0.1,0-0.8-0.8-1.7-1.5c-0.8-0.6-1.8-1.1-2-1.1c0.1,0.1,0.2,1,0.6,2L386.4,252.1L386.4,252.1z M383.8,246.3    c0.1,0.1-0.3,1-0.5,2.1c-0.2,1-1.9,3.3-1.9,3.4l4.9,0.2l-1.1-3.6c-0.4-1.1-0.5-2.1-0.5-2.1c0.2-0.1,1.2,0.4,2.1,1.1    c0.9,0.7,1.6,1.5,1.6,1.6l-0.1-6.1c-0.1,0.2-0.7,1-1.5,1.6c-0.9,0.7-2,1.1-2,1.1c-0.1-0.1,0.4-1.2,1.1-2.1    c0.7-0.9,1.5-1.6,1.6-1.7l-6.1,0.1c0.2,0.1,1,0.7,1.5,1.5c0.7,0.9,1.1,2,1.1,2c-0.1,0.1-1.2-0.4-2.1-1.1c-0.9-0.7-1.6-1.6-1.6-1.6    l0.1,6.1c0.1-0.2,0.7-1,1.5-1.5C382.7,246.7,383.8,246.3,383.8,246.3L383.8,246.3z" id="XMLID_598_"/></g>
    <path class="st10"
          d="M388.3,252.9c0,2.2-1.8,4.1-4,4.1c-2.2,0-4-1.8-4-4.1c0-2.2,1.8-4.1,4-4.1   C386.5,248.8,388.3,250.7,388.3,252.9L388.3,252.9z"
          id="XMLID_192_"/>
    <g id="XMLID_592_"><path class="st7" d="M384.3,257c-2.3,0-4.1-1.9-4.1-4.1c0-2.3,1.8-4.2,4.1-4.2c2.3,0,4.1,1.9,4.1,4.2    C388.4,255.2,386.5,257,384.3,257L384.3,257z M384.3,248.9c-2.2,0-3.9,1.8-3.9,4c0,2.2,1.8,4,3.9,4c2.2,0,3.9-1.8,3.9-4    C388.2,250.7,386.4,248.9,384.3,248.9L384.3,248.9z" id="XMLID_593_"/></g>
    <path class="st10"
          d="M380.3,253.5h8c0,0,0.1-1.6-0.5-2.1h-2.5l-0.1-2.3h-0.9H383l0,2.3c0,0-1.7,0.1-2.4,0.1   c-0.3,1-0.3,1-0.3,1L380.3,253.5z"
          id="XMLID_189_"/>
    <g id="XMLID_587_"><path class="st7" d="M388.4,253.5h-8.1l-0.2-1.1c0-0.1,0.1-0.6,0.3-1.1c0.8,0,2.5-0.1,2.5-0.1l0-2.3l2.4-0.1    l0.1,2.4l2.4-0.1C388.5,251.9,388.4,253.4,388.4,253.5L388.4,253.5L388.4,253.5z M383,249l0,2.3c-0.1,0.1-1.7,0.1-2.5,0.1    c-0.3,0.8-0.2,1-0.2,1l0.1,1l7.9-0.1c0-0.3,0.1-1.5-0.4-2l-2.4,0l-0.1-2.4L383,249L383,249z" id="XMLID_588_"/></g>
    <path class="st10"
          d="M379.1,272.8c0,0,1.5,1.2,2.6,2.7c1.1,1.5,1.9,3.4,1.9,3.4s-1.9-0.8-3.4-1.9   c-1.5-1.1-2.7-2.6-2.7-2.6v10.4c0,0,1.2-1.5,2.7-2.6c1.5-1.1,3.4-1.9,3.4-1.9s-0.8,1.9-1.9,3.4c-1.1,1.5-2.6,2.7-2.6,2.7h10.3   c0,0-1.5-1.2-2.6-2.7c-1.1-1.5-1.9-3.4-1.9-3.4s1.9,0.8,3.4,1.9c1.5,1.1,2.7,2.6,2.7,2.6v-10.4c0,0-1.2,1.5-2.7,2.6   c-1.5,1.1-3.4,1.9-3.4,1.9s0.8-1.9,1.9-3.4c1.1-1.5,2.6-2.7,2.6-2.7H379.1z"
          id="XMLID_186_"/>
    <g id="XMLID_582_"><path class="st7" d="M389.4,286.5h-10.3c0-0.2,1.4-1.4,2.5-2.9c1-1.4,1.7-3,1.9-3.4c-0.2,0.2-1.9,1-3.2,2    c-1.5,1.1-2.7,2.5-2.7,2.6l-0.2-10.4c0.1,0,1.3,1.4,2.9,2.5c1.4,1,3,1.7,3.3,1.9c-0.2-0.2-0.9-1.9-2-3.3c-1.1-1.5-2.5-2.7-2.6-2.7    l10.4-0.2c0,0.2-1.4,1.4-2.5,2.9c-1,1.4-1.7,3-1.9,3.3c0.2-0.2,1.9-1,3.2-2c1.5-1.1,2.7-2.6,2.7-2.6l0.2,10.4    c-0.2,0-1.3-1.4-2.9-2.5c-1.3-1-3-1.8-3.3-1.9c0.2,0.2,0.9,1.9,2,3.3c1.1,1.5,2.6,2.7,2.6,2.7l0.2,0.2H389.4L389.4,286.5z     M383.5,280.2c0.1,0.1-0.7,2-1.8,3.6c-1.1,1.5-2.6,2.7-2.6,2.7l10-0.2c-0.4-0.4-1.5-1.4-2.4-2.6c-1.1-1.5-1.9-3.4-1.9-3.4    c0.2-0.1,2,0.7,3.5,1.8c1.5,1.1,2.7,2.6,2.7,2.6l-0.2-10.3c-0.1,0.3-1.2,1.6-2.6,2.6c-1.5,1.1-3.4,1.9-3.4,1.9    c-0.1-0.1,0.7-2,1.8-3.6c1.1-1.5,2.6-2.7,2.6-2.7l-10.2,0.2c0.3,0.1,1.6,1.2,2.6,2.6c1.1,1.5,1.9,3.4,1.9,3.4    c-0.2,0.1-2-0.7-3.5-1.8c-1.5-1.1-2.7-2.6-2.7-2.6l0.2,10.2c0.1-0.3,1.2-1.6,2.6-2.6C381.7,281,383.5,280.2,383.5,280.2    L383.5,280.2z" id="XMLID_583_"/></g>
    <path class="st10"
          d="M359.5,290.4l5.1-0.9c0,0-1.6-0.9-3-2.2c-1.4-1.3-2.5-3-2.5-3s2,0.4,3.7,1.3   c1.7,0.8,3.1,2.1,3.1,2.1l-1.8-10.2c0,0-0.9,1.6-2.2,3c-1.3,1.4-3,2.5-3,2.5s0.4-2,1.3-3.7c0.8-1.7,2.1-3.1,2.1-3.1l-5.1,0.9   L359.5,290.4z"
          id="XMLID_183_"/>
    <g id="XMLID_577_"><path class="st7" d="M359.4,290.5L359.4,290.5L357,277l5.1-1c0.1,0.2-1.1,1.6-2,3.3c-0.7,1.5-1.2,3.3-1.3,3.6    c0.2-0.3,1.7-1.3,2.8-2.5c1.3-1.4,2.2-3,2.2-3l2,10.2c0.1,0.3-1.6-1.1-3.2-2c-1.5-0.8-3.3-1.2-3.6-1.3c0.3,0.2,1.3,1.7,2.5,2.9    c1.3,1.3,3,2.2,3,2.2L359.4,290.5L359.4,290.5z M362.1,276l-5,1.1l2.4,13.3l4.9-0.9c-0.3-0.1-1.8-0.9-3-2.1    c-1.4-1.3-2.5-3-2.5-3.1c0.1-0.2,2.1,0.3,3.8,1.2c1.7,0.8,3.1,2.1,3.1,2.1l-1.9-10.1c-0.1,0.3-0.9,1.8-2.1,3c-1.3,1.4-3,2.5-3,2.5    c-0.1-0.1,0.3-2.1,1.1-3.8C360.9,277.5,362.1,276,362.1,276L362.1,276z" id="XMLID_578_"/></g>
    <path class="st10"
          d="M406.3,276.1c0,0,1.2,1.4,2.1,3.1c0.8,1.7,1.3,3.7,1.3,3.7s-1.7-1.1-3-2.5   c-1.3-1.4-2.2-3-2.2-3l-1.8,10.2c0,0,1.4-1.2,3.1-2.1c1.7-0.8,3.7-1.3,3.7-1.3s-1.1,1.7-2.5,3c-1.4,1.3-3,2.2-3,2.2l5.1,0.9   l2.3-13.4L406.3,276.1z"
          id="XMLID_180_"/>
    <g id="XMLID_572_"><path class="st7" d="M409.1,290.5l-5.2-0.9c0-0.2,1.6-1.1,3-2.4c1.2-1.2,2.2-2.7,2.4-3c-0.3,0.2-2,0.6-3.5,1.4    c-1.7,0.8-3.1,2.1-3.1,2.1l1.6-10.3l0,0c0.2,0,1.1,1.6,2.4,3c1.2,1.2,2.7,2.2,2.9,2.4c-0.2-0.3-0.6-2-1.4-3.6    c-0.8-1.7-2-3.1-2.1-3.1l5.2,0.8L409.1,290.5L409.1,290.5z M409.4,284.1c0.1,0.2-1,1.9-2.4,3.2c-1.4,1.3-3,2.2-3,2.3l5,0.7    l2.3-13.4l-4.9-0.8c0.3,0.2,1.4,1.5,2.1,3c0.8,1.7,1.3,3.7,1.3,3.7c-0.3-0.1-1.9-1-3.2-2.4c-1.3-1.4-2.2-3-2.2-3l-1.6,10.1    c0.2-0.3,1.5-1.4,3-2.1C407.4,284.6,409.4,284.1,409.4,284.1L409.4,284.1z" id="XMLID_573_"/></g>
    <path class="st10"
          d="M359.5,289.9l0,7.4c0,0,12.4-4.2,24.7-4.2c12.4,0,24.7,4.2,24.7,4.2v-7.4   c0,0-12.4-4.2-24.7-4.2C371.9,285.6,359.5,289.9,359.5,289.9L359.5,289.9z"
          id="XMLID_177_"/>
    <g id="XMLID_567_"><path class="st7" d="M409.1,297.4l-0.1,0c-0.1,0-12.5-4.2-24.7-4.2c-12.2,0-24.6,4.2-24.7,4.2l-0.2-7.5    c0.2-0.1,12.6-4.3,24.8-4.3c12.2,0,24.6,4.2,24.8,4.2L409.1,297.4L409.1,297.4z M384.3,285.7c-12.2,0-24.6,4.2-24.7,4.2l0.1,7.3    c0-0.1,12.4-4.3,24.6-4.3c11.6,0,23.3,3.8,24.6,4.2v-7.3l0,0C408.7,289.9,396.4,285.7,384.3,285.7L384.3,285.7z" id="XMLID_568_"/></g>
    <path class="st2"
          d="M358.4,275.3c0,1.1-0.8,1.9-1.9,1.9c-1,0-1.9-0.8-1.9-1.9c0-1,0.9-1.9,1.9-1.9   C357.5,273.4,358.4,274.2,358.4,275.3L358.4,275.3z"
          id="XMLID_174_"/>
    <g id="XMLID_562_"><path class="st7" d="M356.5,277.3c-1.1,0-2-0.9-2-2c0-1.1,0.9-2,2-2c1.1,0,2,0.9,2,2    C358.5,276.4,357.6,277.3,356.5,277.3L356.5,277.3z M356.5,273.5c-1,0-1.8,0.8-1.8,1.8c0,1,0.8,1.8,1.8,1.8c1,0,1.7-0.8,1.7-1.8    C358.2,274.3,357.5,273.5,356.5,273.5L356.5,273.5z" id="XMLID_563_"/></g>
    <path class="st2"
          d="M356,271c0,1.1-0.8,1.9-1.9,1.9c-1,0-1.9-0.8-1.9-1.9c0-1,0.8-1.9,1.9-1.9   C355.1,269.1,356,269.9,356,271L356,271z"
          id="XMLID_171_"/>
    <g id="XMLID_557_"><path class="st7" d="M354.1,273c-1.1,0-2-0.9-2-2c0-1.1,0.9-2,2-2c1.1,0,2,0.9,2,2    C356.1,272.1,355.2,273,354.1,273L354.1,273z M354.1,269.2c-1,0-1.8,0.8-1.8,1.8s0.8,1.8,1.8,1.8c1,0,1.8-0.8,1.8-1.8    S355,269.2,354.1,269.2L354.1,269.2z" id="XMLID_558_"/></g>
    <path class="st2"
          d="M355.5,265.9c0,1-0.9,1.9-1.9,1.9c-1,0-1.9-0.8-1.9-1.9c0-1.1,0.8-1.9,1.9-1.9   C354.6,264,355.5,264.8,355.5,265.9L355.5,265.9z"
          id="XMLID_168_"/>
    <g id="XMLID_552_"><path class="st7" d="M353.6,267.9c-1.1,0-2-0.9-2-2c0-1.1,0.9-2,2-2c1.1,0,2,0.9,2,2    C355.6,267,354.7,267.9,353.6,267.9L353.6,267.9z M353.6,264.1c-1,0-1.8,0.8-1.8,1.8c0,1,0.8,1.8,1.8,1.8c1,0,1.8-0.8,1.8-1.8    C355.3,264.9,354.5,264.1,353.6,264.1L353.6,264.1z" id="XMLID_553_"/></g>
    <path class="st2"
          d="M357,261.2c0,1.1-0.8,1.9-1.9,1.9c-1,0-1.9-0.8-1.9-1.9c0-1,0.8-1.9,1.9-1.9   C356.1,259.3,357,260.1,357,261.2L357,261.2z"
          id="XMLID_165_"/>
    <g id="XMLID_547_"><path class="st7" d="M355.1,263.2c-1.1,0-2-0.9-2-2c0-1.1,0.9-2,2-2s2,0.9,2,2    C357.1,262.3,356.2,263.2,355.1,263.2L355.1,263.2z M355.1,259.4c-1,0-1.8,0.8-1.8,1.8s0.8,1.8,1.8,1.8s1.8-0.8,1.8-1.8    S356.1,259.4,355.1,259.4L355.1,259.4z" id="XMLID_548_"/></g>
    <path class="st2"
          d="M360.1,257.3c0,1.1-0.8,1.9-1.9,1.9c-1,0-1.9-0.8-1.9-1.9c0-1,0.8-1.9,1.9-1.9   C359.3,255.4,360.1,256.2,360.1,257.3L360.1,257.3z"
          id="XMLID_162_"/>
    <g id="XMLID_542_"><path class="st7" d="M358.3,259.3c-1.1,0-2-0.9-2-2c0-1.1,0.9-2,2-2c1.1,0,2,0.9,2,2    C360.3,258.4,359.4,259.3,358.3,259.3L358.3,259.3z M358.3,255.5c-1,0-1.8,0.8-1.8,1.8s0.8,1.8,1.8,1.8c1,0,1.8-0.8,1.8-1.8    S359.2,255.5,358.3,255.5L358.3,255.5z" id="XMLID_543_"/></g>
    <path class="st2"
          d="M364.5,254.6c0,1-0.8,1.9-1.9,1.9c-1,0-1.9-0.8-1.9-1.9c0-1.1,0.8-1.9,1.9-1.9   C363.7,252.7,364.5,253.5,364.5,254.6L364.5,254.6z"
          id="XMLID_159_"/>
    <g id="XMLID_537_"><path class="st7" d="M362.6,256.6c-1.1,0-2-0.9-2-2c0-1.1,0.9-2,2-2c1.1,0,2,0.9,2,2    C364.6,255.7,363.7,256.6,362.6,256.6L362.6,256.6z M362.6,252.8c-1,0-1.8,0.8-1.8,1.8s0.8,1.8,1.8,1.8c1,0,1.8-0.8,1.8-1.8    S363.6,252.8,362.6,252.8L362.6,252.8z" id="XMLID_538_"/></g>
    <path class="st2"
          d="M369.4,254.9c0,1-0.9,1.9-1.9,1.9c-1,0-1.9-0.8-1.9-1.9c0-1.1,0.9-1.9,1.9-1.9   C368.5,253,369.4,253.9,369.4,254.9L369.4,254.9z"
          id="XMLID_156_"/>
    <g id="XMLID_532_"><path class="st7" d="M367.5,256.9c-1.1,0-2-0.9-2-2c0-1.1,0.9-2,2-2c1.1,0,2,0.9,2,2    C369.5,256,368.6,256.9,367.5,256.9L367.5,256.9z M367.5,253.1c-1,0-1.8,0.8-1.8,1.8c0,1,0.8,1.8,1.8,1.8c1,0,1.8-0.8,1.8-1.8    C369.3,253.9,368.5,253.1,367.5,253.1L367.5,253.1z" id="XMLID_533_"/></g>
    <path class="st2"
          d="M374.2,255.7c0,1-0.8,1.9-1.9,1.9c-1,0-1.9-0.9-1.9-1.9c0-1,0.8-1.9,1.9-1.9   C373.4,253.8,374.2,254.7,374.2,255.7L374.2,255.7z"
          id="XMLID_153_"/>
    <g id="XMLID_527_"><path class="st7" d="M372.4,257.7c-1.1,0-2-0.9-2-2c0-1.1,0.9-2,2-2c1.1,0,2,0.9,2,2    C374.3,256.8,373.5,257.7,372.4,257.7L372.4,257.7z M372.4,253.9c-1,0-1.8,0.8-1.8,1.8s0.8,1.8,1.8,1.8c1,0,1.8-0.8,1.8-1.8    S373.3,253.9,372.4,253.9L372.4,253.9z" id="XMLID_528_"/></g>
    <path class="st2"
          d="M379.1,256.2c0,1-0.8,1.9-1.9,1.9c-1,0-1.9-0.8-1.9-1.9c0-1.1,0.8-1.9,1.9-1.9   C378.3,254.3,379.1,255.2,379.1,256.2L379.1,256.2z"
          id="XMLID_150_"/>
    <g id="XMLID_522_"><path class="st7" d="M377.2,258.2c-1.1,0-2-0.9-2-2c0-1.1,0.9-2,2-2c1.1,0,2,0.9,2,2    C379.2,257.3,378.3,258.2,377.2,258.2L377.2,258.2z M377.2,254.5c-1,0-1.8,0.8-1.8,1.8c0,1,0.8,1.8,1.8,1.8c1,0,1.8-0.8,1.8-1.8    C379,255.3,378.2,254.5,377.2,254.5L377.2,254.5z" id="XMLID_523_"/></g>
    <path class="st2"
          d="M409.6,275.3c0,1.1,0.8,1.9,1.9,1.9c1.1,0,1.9-0.8,1.9-1.9c0-1-0.8-1.9-1.9-1.9   C410.5,273.4,409.6,274.2,409.6,275.3L409.6,275.3z"
          id="XMLID_147_"/>
    <g id="XMLID_517_"><path class="st7" d="M411.5,277.3c-1.1,0-2-0.9-2-2c0-1.1,0.9-2,2-2c1.1,0,2,0.9,2,2    C413.5,276.4,412.6,277.3,411.5,277.3L411.5,277.3z M411.5,273.5c-1,0-1.8,0.8-1.8,1.8c0,1,0.8,1.8,1.8,1.8c1,0,1.8-0.8,1.8-1.8    C413.3,274.3,412.5,273.5,411.5,273.5L411.5,273.5z" id="XMLID_518_"/></g>
    <path class="st2"
          d="M412,271c0,1.1,0.8,1.9,1.9,1.9c1,0,1.9-0.8,1.9-1.9c0-1-0.8-1.9-1.9-1.9   C412.9,269.1,412,269.9,412,271L412,271z"
          id="XMLID_144_"/>
    <g id="XMLID_512_"><path class="st7" d="M413.9,273c-1.1,0-2-0.9-2-2c0-1.1,0.9-2,2-2c1.1,0,2,0.9,2,2C415.9,272.1,415,273,413.9,273    L413.9,273z M413.9,269.2c-1,0-1.8,0.8-1.8,1.8s0.8,1.8,1.8,1.8c1,0,1.8-0.8,1.8-1.8S414.9,269.2,413.9,269.2L413.9,269.2z" id="XMLID_513_"/></g>
    <path class="st2"
          d="M412.6,265.9c0,1,0.8,1.9,1.9,1.9c1,0,1.9-0.8,1.9-1.9c0-1.1-0.8-1.9-1.9-1.9   C413.4,264,412.6,264.8,412.6,265.9L412.6,265.9z"
          id="XMLID_141_"/>
    <g id="XMLID_507_"><path class="st7" d="M414.4,267.9c-1.1,0-2-0.9-2-2c0-1.1,0.9-2,2-2c1.1,0,2,0.9,2,2    C416.4,267,415.5,267.9,414.4,267.9L414.4,267.9z M414.4,264.1c-1,0-1.8,0.8-1.8,1.8c0,1,0.8,1.8,1.8,1.8c1,0,1.8-0.8,1.8-1.8    C416.2,264.9,415.4,264.1,414.4,264.1L414.4,264.1z" id="XMLID_508_"/></g>
    <path class="st2"
          d="M411,261.2c0,1.1,0.8,1.9,1.9,1.9c1,0,1.9-0.8,1.9-1.9c0-1-0.8-1.9-1.9-1.9   C411.9,259.3,411,260.1,411,261.2L411,261.2z"
          id="XMLID_138_"/>
    <g id="XMLID_502_"><path class="st7" d="M412.9,263.2c-1.1,0-2-0.9-2-2c0-1.1,0.9-2,2-2s2,0.9,2,2C414.9,262.3,414,263.2,412.9,263.2    L412.9,263.2z M412.9,259.4c-1,0-1.8,0.8-1.8,1.8s0.8,1.8,1.8,1.8s1.8-0.8,1.8-1.8S413.9,259.4,412.9,259.4L412.9,259.4z" id="XMLID_503_"/></g>
    <path class="st2"
          d="M407.9,257.3c0,1.1,0.8,1.9,1.9,1.9c1,0,1.9-0.8,1.9-1.9c0-1-0.8-1.9-1.9-1.9   C408.7,255.4,407.9,256.2,407.9,257.3L407.9,257.3z"
          id="XMLID_135_"/>
    <g id="XMLID_497_"><path class="st7" d="M409.7,259.3c-1.1,0-2-0.9-2-2c0-1.1,0.9-2,2-2c1.1,0,2,0.9,2,2    C411.7,258.4,410.8,259.3,409.7,259.3L409.7,259.3z M409.7,255.5c-1,0-1.8,0.8-1.8,1.8s0.8,1.8,1.8,1.8s1.8-0.8,1.8-1.8    S410.7,255.5,409.7,255.5L409.7,255.5z" id="XMLID_498_"/></g>
    <path class="st2"
          d="M403.5,254.6c0,1,0.8,1.9,1.9,1.9c1,0,1.9-0.8,1.9-1.9c0-1.1-0.8-1.9-1.9-1.9   C404.3,252.7,403.5,253.5,403.5,254.6L403.5,254.6z"
          id="XMLID_132_"/>
    <g id="XMLID_492_"><path class="st7" d="M405.4,256.6c-1.1,0-2-0.9-2-2c0-1.1,0.9-2,2-2c1.1,0,2,0.9,2,2    C407.4,255.7,406.5,256.6,405.4,256.6L405.4,256.6z M405.4,252.8c-1,0-1.8,0.8-1.8,1.8s0.8,1.8,1.8,1.8s1.8-0.8,1.8-1.8    S406.4,252.8,405.4,252.8L405.4,252.8z" id="XMLID_493_"/></g>
    <path class="st2"
          d="M398.6,254.9c0,1,0.8,1.9,1.9,1.9c1,0,1.9-0.8,1.9-1.9c0-1.1-0.8-1.9-1.9-1.9   C399.5,253,398.6,253.9,398.6,254.9L398.6,254.9z"
          id="XMLID_129_"/>
    <g id="XMLID_487_"><path class="st7" d="M400.5,256.9c-1.1,0-2-0.9-2-2c0-1.1,0.9-2,2-2c1.1,0,2,0.9,2,2    C402.5,256,401.6,256.9,400.5,256.9L400.5,256.9z M400.5,253.1c-1,0-1.8,0.8-1.8,1.8c0,1,0.8,1.8,1.8,1.8s1.8-0.8,1.8-1.8    C402.3,253.9,401.5,253.1,400.5,253.1L400.5,253.1z" id="XMLID_488_"/></g>
    <path class="st2"
          d="M393.8,255.7c0,1,0.8,1.9,1.9,1.9c1,0,1.9-0.9,1.9-1.9c0-1-0.8-1.9-1.9-1.9   C394.6,253.8,393.8,254.7,393.8,255.7L393.8,255.7z"
          id="XMLID_126_"/>
    <g id="XMLID_482_"><path class="st7" d="M395.7,257.7c-1.1,0-2-0.9-2-2c0-1.1,0.9-2,2-2c1.1,0,2,0.9,2,2    C397.7,256.8,396.8,257.7,395.7,257.7L395.7,257.7z M395.7,253.9c-1,0-1.8,0.8-1.8,1.8s0.8,1.8,1.8,1.8c1,0,1.8-0.8,1.8-1.8    S396.6,253.9,395.7,253.9L395.7,253.9z" id="XMLID_483_"/></g>
    <path class="st2"
          d="M388.9,256.2c0,1,0.8,1.9,1.9,1.9c1,0,1.9-0.8,1.9-1.9c0-1.1-0.8-1.9-1.9-1.9   C389.8,254.3,388.9,255.2,388.9,256.2L388.9,256.2z"
          id="XMLID_123_"/>
    <g id="XMLID_477_"><path class="st7" d="M390.8,258.2c-1.1,0-2-0.9-2-2c0-1.1,0.9-2,2-2c1.1,0,2,0.9,2,2    C392.8,257.3,391.9,258.2,390.8,258.2L390.8,258.2z M390.8,254.5c-1,0-1.8,0.8-1.8,1.8c0,1,0.8,1.8,1.8,1.8c1,0,1.8-0.8,1.8-1.8    C392.6,255.3,391.8,254.5,390.8,254.5L390.8,254.5z" id="XMLID_478_"/></g>
    <path class="st2"
          d="M386.1,271c0,1.1-0.8,1.9-1.9,1.9c-1,0-1.9-0.8-1.9-1.9c0-1,0.8-1.9,1.9-1.9   C385.3,269.1,386.1,270,386.1,271L386.1,271z"
          id="XMLID_120_"/>
    <g id="XMLID_472_"><path class="st7" d="M384.3,273c-1.1,0-2-0.9-2-2c0-1.1,0.9-2,2-2c1.1,0,2,0.9,2,2    C386.3,272.1,385.4,273,384.3,273L384.3,273z M384.3,269.2c-1,0-1.8,0.8-1.8,1.8c0,1,0.8,1.8,1.8,1.8s1.8-0.8,1.8-1.8    C386,270,385.2,269.2,384.3,269.2L384.3,269.2z" id="XMLID_473_"/></g>
    <path class="st2"
          d="M386.1,267.7c0,1.1-0.8,1.9-1.9,1.9c-1,0-1.9-0.8-1.9-1.9c0-1,0.8-1.9,1.9-1.9   C385.3,265.8,386.1,266.6,386.1,267.7L386.1,267.7z"
          id="XMLID_117_"/>
    <g id="XMLID_467_"><path class="st7" d="M384.3,269.7c-1.1,0-2-0.9-2-2c0-1.1,0.9-2,2-2c1.1,0,2,0.9,2,2    C386.3,268.8,385.4,269.7,384.3,269.7L384.3,269.7z M384.3,265.9c-1,0-1.8,0.8-1.8,1.8s0.8,1.8,1.8,1.8s1.8-0.8,1.8-1.8    S385.2,265.9,384.3,265.9L384.3,265.9z" id="XMLID_468_"/></g>
    <path class="st2"
          d="M386.1,264.9c0,1.1-0.8,1.9-1.9,1.9c-1,0-1.9-0.8-1.9-1.9c0-1,0.8-1.9,1.9-1.9   C385.3,263.1,386.1,263.9,386.1,264.9L386.1,264.9z"
          id="XMLID_114_"/>
    <g id="XMLID_462_"><path class="st7" d="M384.3,267c-1.1,0-2-0.9-2-2c0-1.1,0.9-2,2-2c1.1,0,2,0.9,2,2    C386.3,266.1,385.4,267,384.3,267L384.3,267z M384.3,263.2c-1,0-1.8,0.8-1.8,1.8c0,1,0.8,1.8,1.8,1.8s1.8-0.8,1.8-1.8    C386,264,385.2,263.2,384.3,263.2L384.3,263.2z" id="XMLID_463_"/></g>
    <path class="st2"
          d="M386.1,262.5c0,1.1-0.8,1.9-1.9,1.9c-1,0-1.9-0.8-1.9-1.9c0-1,0.8-1.9,1.9-1.9   C385.3,260.6,386.1,261.4,386.1,262.5L386.1,262.5z"
          id="XMLID_111_"/>
    <g id="XMLID_457_"><path class="st7" d="M384.3,264.5c-1.1,0-2-0.9-2-2c0-1.1,0.9-2,2-2c1.1,0,2,0.9,2,2    C386.3,263.6,385.4,264.5,384.3,264.5L384.3,264.5z M384.3,260.7c-1,0-1.8,0.8-1.8,1.8s0.8,1.8,1.8,1.8s1.8-0.8,1.8-1.8    S385.2,260.7,384.3,260.7L384.3,260.7z" id="XMLID_458_"/></g>
    <path class="st2"
          d="M386.1,254.6c0,1-0.8,1.9-1.9,1.9c-1,0-1.9-0.8-1.9-1.9c0-1.1,0.8-1.9,1.9-1.9   C385.3,252.7,386.1,253.5,386.1,254.6L386.1,254.6z"
          id="XMLID_108_"/>
    <g id="XMLID_452_"><path class="st7" d="M384.3,256.6c-1.1,0-2-0.9-2-2c0-1.1,0.9-2,2-2c1.1,0,2,0.9,2,2    C386.3,255.7,385.4,256.6,384.3,256.6L384.3,256.6z M384.3,252.8c-1,0-1.8,0.8-1.8,1.8s0.8,1.8,1.8,1.8s1.8-0.8,1.8-1.8    S385.2,252.8,384.3,252.8L384.3,252.8z" id="XMLID_453_"/></g>
    <path class="st2"
          d="M386.1,254.9c0,1-0.8,1.9-1.9,1.9c-1,0-1.9-0.8-1.9-1.9c0-1.1,0.8-1.9,1.9-1.9   C385.3,253,386.1,253.9,386.1,254.9L386.1,254.9z"
          id="XMLID_105_"/>
    <g id="XMLID_447_"><path class="st7" d="M384.3,256.9c-1.1,0-2-0.9-2-2c0-1.1,0.9-2,2-2c1.1,0,2,0.9,2,2    C386.3,256,385.4,256.9,384.3,256.9L384.3,256.9z M384.3,253.1c-1,0-1.8,0.8-1.8,1.8c0,1,0.8,1.8,1.8,1.8s1.8-0.8,1.8-1.8    C386,253.9,385.2,253.1,384.3,253.1L384.3,253.1z" id="XMLID_448_"/></g>
    <path class="st2"
          d="M386.1,256.7c0,1-0.8,1.9-1.9,1.9c-1,0-1.9-0.8-1.9-1.9c0-1,0.8-1.9,1.9-1.9   C385.3,254.8,386.1,255.6,386.1,256.7L386.1,256.7z"
          id="XMLID_102_"/>
    <g id="XMLID_442_"><path class="st7" d="M384.3,258.7c-1.1,0-2-0.9-2-2c0-1.1,0.9-2,2-2c1.1,0,2,0.9,2,2    C386.3,257.8,385.4,258.7,384.3,258.7L384.3,258.7z M384.3,254.9c-1,0-1.8,0.8-1.8,1.8c0,1,0.8,1.8,1.8,1.8s1.8-0.8,1.8-1.8    C386,255.7,385.2,254.9,384.3,254.9L384.3,254.9z" id="XMLID_443_"/></g>
    <path class="st2"
          d="M386.1,259.1c0,1.1-0.8,1.9-1.9,1.9c-1,0-1.9-0.8-1.9-1.9c0-1,0.8-1.9,1.9-1.9   C385.3,257.2,386.1,258,386.1,259.1L386.1,259.1z"
          id="XMLID_99_"/>
    <g id="XMLID_437_"><path class="st7" d="M384.3,261.1c-1.1,0-2-0.9-2-2c0-1.1,0.9-2,2-2c1.1,0,2,0.9,2,2    C386.3,260.2,385.4,261.1,384.3,261.1L384.3,261.1z M384.3,257.3c-1,0-1.8,0.8-1.8,1.8c0,1,0.8,1.8,1.8,1.8s1.8-0.8,1.8-1.8    C386,258.1,385.2,257.3,384.3,257.3L384.3,257.3z" id="XMLID_438_"/></g>
    <path class="st2"
          d="M386.7,279.2c0,1.3-1.1,2.4-2.4,2.4c-1.3,0-2.4-1.1-2.4-2.4c0-1.4,1.1-2.5,2.4-2.5   C385.6,276.7,386.7,277.8,386.7,279.2L386.7,279.2z"
          id="XMLID_96_"/>
    <g id="XMLID_432_"><path class="st7" d="M384.2,281.8c-1.4,0-2.6-1.2-2.6-2.6c0-1.4,1.1-2.6,2.6-2.6c1.4,0,2.6,1.2,2.6,2.6    C386.8,280.6,385.6,281.8,384.2,281.8L384.2,281.8z M384.2,276.9c-1.3,0-2.3,1-2.3,2.3c0,1.3,1,2.3,2.3,2.3c1.3,0,2.3-1,2.3-2.3    C386.5,277.9,385.5,276.9,384.2,276.9L384.2,276.9z" id="XMLID_433_"/></g>
    <path class="st2"
          d="M361.3,283.6c0,1.3-1.1,2.4-2.4,2.4c-1.3,0-2.4-1.1-2.4-2.4c0-1.4,1.1-2.4,2.4-2.4   C360.2,281.2,361.3,282.3,361.3,283.6L361.3,283.6z"
          id="XMLID_93_"/>
    <g id="XMLID_427_"><path class="st7" d="M358.8,286.2c-1.4,0-2.5-1.1-2.5-2.6s1.1-2.6,2.5-2.6c1.4,0,2.6,1.2,2.6,2.6    S360.2,286.2,358.8,286.2L358.8,286.2z M358.8,281.3c-1.3,0-2.3,1-2.3,2.3c0,1.3,1,2.3,2.3,2.3c1.3,0,2.3-1,2.3-2.3    C361.1,282.3,360.1,281.3,358.8,281.3L358.8,281.3z" id="XMLID_428_"/></g>
    <path class="st2"
          d="M412,283.6c0,1.3-1.1,2.4-2.4,2.4c-1.3,0-2.4-1.1-2.4-2.4c0-1.4,1.1-2.4,2.4-2.4   C410.9,281.2,412,282.3,412,283.6L412,283.6z"
          id="XMLID_90_"/>
    <g id="XMLID_422_"><path class="st7" d="M409.5,286.2c-1.4,0-2.6-1.1-2.6-2.6s1.1-2.6,2.6-2.6c1.4,0,2.5,1.2,2.5,2.6    S410.9,286.2,409.5,286.2L409.5,286.2z M409.5,281.3c-1.3,0-2.3,1-2.3,2.3c0,1.3,1,2.3,2.3,2.3c1.3,0,2.3-1,2.3-2.3    C411.8,282.3,410.8,281.3,409.5,281.3L409.5,281.3z" id="XMLID_423_"/></g>
    <rect class="st1" height="3.3" id="XMLID_87_" width="7.5" x="380.7" y="287.5"/>
    <g id="XMLID_417_"><path class="st7" d="M388.3,290.9h-7.6l-0.1-3.4l7.6-0.1L388.3,290.9L388.3,290.9z M388.1,287.5l-7.4,0.1l0.1,3.2    l7.3-0.1V287.5L388.1,287.5z" id="XMLID_418_"/></g>
    <path class="st11"
          d="M392.7,289.9c0,1,1.6,1.9,3.4,2.1c1.9,0.2,3.3-0.5,3.3-1.5c0-1-1.6-1.9-3.4-2.1   C394.2,288.3,392.7,289,392.7,289.9L392.7,289.9z"
          id="XMLID_84_"/>
    <g id="XMLID_412_"><path class="st7" d="M396.7,292.3L396.7,292.3l-0.6,0c-2-0.2-3.5-1.2-3.6-2.3c0-0.3,0.1-0.6,0.4-0.8    c0.5-0.5,1.4-0.8,2.5-0.8l0.6,0c2,0.2,3.5,1.2,3.6,2.3c0,0.3-0.1,0.6-0.4,0.9C398.7,292,397.8,292.3,396.7,292.3L396.7,292.3z     M395.8,288.6c-1.5,0-2.2,0.3-2.6,0.7c-0.2,0.2-0.3,0.4-0.3,0.6c0,0.9,1.5,1.8,3.3,2l0.6,0c1,0,1.9-0.3,2.3-0.7    c0.2-0.2,0.3-0.4,0.3-0.6c0-0.9-1.5-1.8-3.3-2C395.9,288.6,395.8,288.6,395.8,288.6L395.8,288.6z" id="XMLID_413_"/></g>
    <polygon class="st12" id="XMLID_81_" points="359.6,291.7 357.7,293.6 359.9,294.8 364.9,293.5 364,290.6  "/>
    <g id="XMLID_407_"><path class="st7" d="M359.8,295l-2.2-1.3l1.9-2.1l4.5-1.1l1.1,3L359.8,295L359.8,295z M363.9,290.6l-4.3,1.2    l-1.8,1.9l2.1,1.1l5-1.4L363.9,290.6L363.9,290.6z" id="XMLID_408_"/></g>
    <polygon class="st12" id="XMLID_78_" points="409.4,291.7 411.3,293.6 409.1,294.8 404,293.5 404.9,290.6  "/>
    <g id="XMLID_402_"><path class="st7" d="M409.1,295l-5.1-1.4l0.8-3.1l4.6,1l1.9,1.9L409.1,295L409.1,295z M404.9,290.7l-0.8,2.8    l5,1.2l2.1-1.2l-1.9-1.7L404.9,290.7L404.9,290.7z" id="XMLID_403_"/></g>
    <path class="st11"
          d="M376.3,289.9c0,1-1.6,1.9-3.4,2.1c-1.9,0.2-3.3-0.5-3.3-1.5c0-1,1.6-1.9,3.4-2.1   C374.8,288.3,376.3,289,376.3,289.9L376.3,289.9z"
          id="XMLID_75_"/>
    <g id="XMLID_397_"><path class="st7" d="M372.2,292.3c-1.1,0-2-0.3-2.5-0.8c-0.2-0.2-0.4-0.5-0.4-0.9c0-1.1,1.6-2.1,3.6-2.3l0.6,0    c1.1,0,2,0.3,2.5,0.8c0.2,0.2,0.4,0.5,0.3,0.8c0,1.1-1.6,2.1-3.6,2.3L372.2,292.3L372.2,292.3z M373.6,288.6    c-2.4,0.2-3.9,1.1-3.9,2c0,0.2,0.1,0.4,0.3,0.6c0.4,0.4,1.3,0.7,2.3,0.7l0.6,0c1.8-0.2,3.3-1.1,3.3-2c0-0.2-0.1-0.4-0.3-0.6    C375.4,288.9,374.6,288.6,373.6,288.6L373.6,288.6z" id="XMLID_398_"/></g>
    <path class="st2"
          d="M379.1,287.7c0,0.5-0.4,0.9-0.9,0.9s-0.9-0.4-0.9-0.9c0-0.5,0.4-0.9,0.9-0.9   S379.1,287.2,379.1,287.7L379.1,287.7z"
          id="XMLID_72_"/>
    <g id="XMLID_392_"><path class="st7" d="M378.2,288.8c-0.6,0-1-0.5-1-1c0-1.1,2-1.1,2,0C379.2,288.3,378.7,288.8,378.2,288.8    L378.2,288.8z M378.2,286.9c-0.5,0-0.9,0.4-0.9,0.8c0,1,1.7,1,1.7,0C379,287.3,378.6,286.9,378.2,286.9L378.2,286.9z" id="XMLID_393_"/></g>
    <path class="st2"
          d="M379.4,290.7c0,0.5-0.4,0.9-0.9,0.9c-0.5,0-0.9-0.4-0.9-0.9c0-0.5,0.4-0.9,0.9-0.9   C379,289.8,379.4,290.2,379.4,290.7L379.4,290.7z"
          id="XMLID_69_"/>
    <g id="XMLID_387_"><path class="st7" d="M378.5,291.7c-0.5,0-1-0.5-1-1c0-1.1,2-1.1,2,0C379.5,291.3,379,291.7,378.5,291.7    L378.5,291.7z M378.5,289.9c-0.5,0-0.8,0.4-0.8,0.9c0,1,1.7,0.9,1.7,0C379.3,290.2,378.9,289.9,378.5,289.9L378.5,289.9z" id="XMLID_388_"/></g>
    <path class="st2"
          d="M367.5,289.8c0,0.5-0.4,0.9-0.9,0.9c-0.5,0-0.9-0.4-0.9-0.9c0-0.5,0.4-0.9,0.9-0.9   C367.1,288.9,367.5,289.3,367.5,289.8L367.5,289.8z"
          id="XMLID_66_"/>
    <g id="XMLID_382_"><path class="st7" d="M366.6,290.8c-0.6,0-1-0.4-1-1c0-1.1,2-1.1,2,0C367.6,290.4,367.2,290.8,366.6,290.8    L366.6,290.8z M366.6,289c-0.5,0-0.8,0.4-0.8,0.9c0,0.9,1.7,0.9,1.7,0C367.5,289.4,367.1,289,366.6,289L366.6,289z" id="XMLID_383_"/></g>
    <path class="st2"
          d="M368.7,292.6c0,0.5-0.4,0.9-0.9,0.9c-0.5,0-0.9-0.4-0.9-0.9s0.4-0.9,0.9-0.9   C368.3,291.7,368.7,292.1,368.7,292.6L368.7,292.6z"
          id="XMLID_63_"/>
    <g id="XMLID_377_"><path class="st7" d="M367.8,293.6c-0.6,0-1-0.5-1-1c0-1.1,2-1.1,2,0C368.8,293.2,368.3,293.6,367.8,293.6    L367.8,293.6z M367.8,291.8c-0.5,0-0.8,0.4-0.8,0.9c0,0.9,1.7,1,1.7,0C368.6,292.2,368.2,291.8,367.8,291.8L367.8,291.8z" id="XMLID_378_"/></g>
    <path class="st2"
          d="M389.8,287.7c0,0.5,0.4,0.9,0.9,0.9s0.9-0.4,0.9-0.9c0-0.5-0.4-0.9-0.9-0.9   S389.8,287.2,389.8,287.7L389.8,287.7z"
          id="XMLID_60_"/>
    <g id="XMLID_372_"><path class="st7" d="M390.7,288.8c-0.6,0-1-0.4-1-1c0-1.1,2-1.1,2,0C391.7,288.3,391.3,288.8,390.7,288.8    L390.7,288.8z M390.7,286.9c-0.5,0-0.8,0.4-0.8,0.8c0,1,1.7,1,1.7,0C391.6,287.3,391.2,286.9,390.7,286.9L390.7,286.9z" id="XMLID_373_"/></g>
    <path class="st2"
          d="M389.5,290.7c0,0.5,0.4,0.9,0.9,0.9s0.9-0.4,0.9-0.9c0-0.5-0.4-0.9-0.9-0.9   S389.5,290.2,389.5,290.7L389.5,290.7z"
          id="XMLID_57_"/>
    <g id="XMLID_367_"><path class="st7" d="M390.4,291.7c-0.6,0-1-0.5-1-1c0-1.1,2-1.1,2,0C391.5,291.3,391,291.7,390.4,291.7    L390.4,291.7z M390.4,289.9c-0.5,0-0.8,0.4-0.8,0.9c0,0.9,1.7,0.9,1.7,0C391.3,290.2,390.9,289.9,390.4,289.9L390.4,289.9z" id="XMLID_368_"/></g>
    <path class="st2"
          d="M401.4,289.8c0,0.5,0.4,0.9,0.9,0.9s0.9-0.4,0.9-0.9c0-0.5-0.4-0.9-0.9-0.9   S401.4,289.3,401.4,289.8L401.4,289.8z"
          id="XMLID_54_"/>
    <g id="XMLID_362_"><path class="st7" d="M402.3,290.8c-0.6,0-1-0.4-1-1c0-1.1,2-1.1,2,0C403.3,290.4,402.9,290.8,402.3,290.8    L402.3,290.8z M402.3,289c-0.5,0-0.8,0.4-0.8,0.9c0,0.9,1.7,0.9,1.7,0C403.1,289.4,402.8,289,402.3,289L402.3,289z" id="XMLID_363_"/></g>
    <path class="st2"
          d="M400.2,292.6c0,0.5,0.4,0.9,0.9,0.9c0.5,0,0.9-0.4,0.9-0.9s-0.4-0.9-0.9-0.9   C400.6,291.7,400.2,292.1,400.2,292.6L400.2,292.6z"
          id="XMLID_51_"/>
    <g id="XMLID_357_"><path class="st7" d="M401.1,293.6c-0.6,0-1-0.5-1-1c0-1.1,2-1.1,2,0C402.1,293.2,401.7,293.6,401.1,293.6    L401.1,293.6z M401.1,291.8c-0.5,0-0.8,0.4-0.8,0.9c0,0.9,1.7,1,1.7,0C402,292.2,401.6,291.8,401.1,291.8L401.1,291.8z" id="XMLID_358_"/></g>
    <path class="st0"
          d="M403.1,302.8c0.7-0.1,5-1.1,5.9-1.7c-0.6-1.1-1.6-1.9-0.8-1.5c0.4,0.2,0.8-1.3-0.5-2.4   c-3.7,1.2-12.5,3.4-23.5,3.4c-11.3,0-20.2-2.3-23.9-3.5c-1.3,1.1-0.9,2.4-0.9,2.8c0,0,0,0.6,0.2,1.1c1.2,1.4,5.3,2,6,2.2   c3.3,0.6,6.6,1.4,18.6,1.4C395.3,304.6,399.8,303.4,403.1,302.8L403.1,302.8z"
          id="XMLID_48_"/>
    <g id="XMLID_352_"><path class="st7" d="M384.2,304.8c-10.8,0-14.6-0.7-17.6-1.3l-1-0.2c-3.3-0.6-5.3-1.3-6.1-2.2    c-0.3-0.6-0.3-1.2-0.3-1.2c0-1,0-2,1-3c2.7,0.8,11.9,3.5,24,3.5c12.5,0,21.7-2.8,23.5-3.4c1.1,0.9,1.2,1.9,1,2.4h0l-0.5,0.3    c0.5,0.4,0.8,0.8,1,1.3c-1,0.8-5.3,1.8-6,2l-1.5,0.3C398.5,303.9,393.7,304.8,384.2,304.8L384.2,304.8z M360.2,297.3    c-0.8,0.8-0.7,1.7-0.7,2.2c0,0.4,0,1,0.2,1.4c0.5,0.5,1.9,1.4,5.7,2l1.2,0.2c3,0.6,6.8,1.3,17.6,1.3c9.5,0,14.3-0.9,17.4-1.5    l1.5-0.3c0.7-0.1,4.9-1.1,5.8-1.7c-0.3-0.2-0.6-0.6-0.8-0.9l-0.3-0.7l0.6-0.3c0.1-0.4,0-1.1-0.8-1.8c-1.6,0.6-10.9,3.5-23.4,3.5    C372,300.9,362.8,298.2,360.2,297.3L360.2,297.3z" id="XMLID_353_"/></g>
    <path class="st0"
          d="M365.2,295.2c-0.7,0.1-5.2,1.7-6.1,2.3c0,0,0,0,0,0c0.1,0.5-0.8,2.7,0.5,3.8   c3.7-1.2,14-4.8,25-4.8c11.3,0,20.7,3.6,24.4,4.8c1.3-1.1,0.4-3.3,0.5-3.8c0,0,0,0,0,0c-0.9-0.5-5.4-2.1-6.1-2.3   c-3.3-0.6-6.8-2.7-18.7-2.7C373.5,292.5,368.5,294.6,365.2,295.2L365.2,295.2z"
          id="XMLID_45_"/>
    <g id="XMLID_347_"><path class="st7" d="M409,301.4l-1.3-0.4c-4.2-1.4-12.9-4.4-23.1-4.4c-10.5,0-20.2,3.2-24.4,4.6l-0.7,0.2    c-1-0.9-0.8-2.4-0.6-3.3l0-0.1l0.2-0.6c0.9-0.6,5.5-2.2,6.1-2.3c0.8-0.1,1.6-0.4,2.7-0.6c3.3-0.8,8.3-2.1,16.8-2.1    c9,0,13.2,1.2,16.2,2.1c1,0.3,1.8,0.5,2.6,0.7c0.7,0.1,5.2,1.7,6.2,2.3l0.2,0.8C409.9,299,410.1,300.5,409,301.4L409,301.4    L409,301.4z M359.2,297.6c0.1,0,0,0.2,0,0.5c-0.1,0.8-0.4,2.2,0.5,3c4.6-1.6,14.3-4.9,24.9-4.9c10.3,0,19,3,23.2,4.4l1.1,0.4    c0.8-0.8,0.6-2.1,0.4-2.9c-0.1-0.3-0.1-0.5-0.1-0.7c-0.8-0.3-5.2-1.9-6-2.1c-0.8-0.1-1.7-0.4-2.6-0.7c-3-0.9-7.1-2.1-16.1-2.1    c-8.5,0-13.4,1.3-16.7,2.1c-1,0.3-1.9,0.5-2.7,0.6C364.5,295.5,360.1,297.1,359.2,297.6C359.2,297.6,359.2,297.6,359.2,297.6    L359.2,297.6z" id="XMLID_348_"/></g>
    <path class="st13"
          d="M362,297.9c0,0.2-0.1,0.3-0.3,0.3c-0.2,0-0.3-0.1-0.3-0.2c0-0.2,0.1-0.3,0.3-0.3   C361.8,297.6,361.9,297.7,362,297.9L362,297.9z"
          id="XMLID_42_"/>
    <g id="XMLID_344_"><path class="st14" d="M362,297.9c0,0.2-0.1,0.3-0.3,0.3c-0.2,0-0.3-0.1-0.3-0.2c0-0.2,0.1-0.3,0.3-0.3    C361.8,297.6,361.9,297.7,362,297.9z" id="XMLID_41_"/></g>
    <path class="st13"
          d="M361.6,298.7c0,0.1-0.1,0.3-0.3,0.3c-0.2,0-0.3-0.1-0.3-0.2c0-0.2,0.1-0.3,0.3-0.3   C361.4,298.4,361.6,298.5,361.6,298.7L361.6,298.7z"
          id="XMLID_40_"/>
    <g id="XMLID_341_"><path class="st14" d="M361.6,298.7c0,0.1-0.1,0.3-0.3,0.3c-0.2,0-0.3-0.1-0.3-0.2c0-0.2,0.1-0.3,0.3-0.3    C361.4,298.4,361.6,298.5,361.6,298.7z" id="XMLID_39_"/></g>
    <path class="st13"
          d="M362.3,299.1c0,0.2-0.1,0.3-0.3,0.3c-0.2,0-0.3-0.1-0.3-0.3c0-0.1,0.1-0.3,0.3-0.3   C362.1,298.8,362.3,298.9,362.3,299.1L362.3,299.1z"
          id="XMLID_38_"/>
    <g id="XMLID_338_"><path class="st14" d="M362.3,299.1c0,0.2-0.1,0.3-0.3,0.3c-0.2,0-0.3-0.1-0.3-0.3c0-0.1,0.1-0.3,0.3-0.3    C362.1,298.8,362.3,298.9,362.3,299.1z" id="XMLID_37_"/></g>
    <polygon class="st13" id="XMLID_36_"
             points="361.7,298.6 364.4,297.3 363.1,298.2 363.9,298.1 363.2,298.5 364.5,298.5  "/>
    <g id="XMLID_335_"><polygon class="st7" id="XMLID_35_" points="361,298.7 364.3,297.2 363.1,298.3 364.3,297.2 362.3,298.4 363.5,298.3 363.9,297.9     363.5,298.3 364.5,298.3 363.3,298.6 364.5,298.3 363.2,298.7 363.4,298.5 361,298.7   "/></g>
    <path class="st13"
          d="M371.7,295.1c0,0.2-0.1,0.3-0.3,0.3c-0.2,0-0.3-0.1-0.3-0.2c0-0.2,0.1-0.3,0.3-0.3   C371.6,294.8,371.7,294.9,371.7,295.1L371.7,295.1z"
          id="XMLID_34_"/>
    <g id="XMLID_332_"><path class="st14" d="M371.7,295.1c0,0.2-0.1,0.3-0.3,0.3c-0.2,0-0.3-0.1-0.3-0.2c0-0.2,0.1-0.3,0.3-0.3    C371.6,294.8,371.7,294.9,371.7,295.1z" id="XMLID_33_"/></g>
    <path class="st13"
          d="M371.4,295.9c0,0.1-0.1,0.3-0.3,0.3c-0.2,0-0.3-0.1-0.3-0.2c0-0.2,0.1-0.3,0.3-0.3   C371.2,295.6,371.4,295.7,371.4,295.9L371.4,295.9z"
          id="XMLID_32_"/>
    <g id="XMLID_329_"><path class="st14" d="M371.4,295.9c0,0.1-0.1,0.3-0.3,0.3c-0.2,0-0.3-0.1-0.3-0.2c0-0.2,0.1-0.3,0.3-0.3    C371.2,295.6,371.4,295.7,371.4,295.9z" id="XMLID_31_"/></g>
    <path class="st13"
          d="M372,296.3c0,0.2-0.1,0.3-0.3,0.3c-0.2,0-0.3-0.1-0.3-0.3c0-0.2,0.1-0.3,0.3-0.3   C371.9,296,372,296.1,372,296.3L372,296.3z"
          id="XMLID_30_"/>
    <g id="XMLID_326_"><path class="st14" d="M372,296.3c0,0.2-0.1,0.3-0.3,0.3c-0.2,0-0.3-0.1-0.3-0.3c0-0.2,0.1-0.3,0.3-0.3    C371.9,296,372,296.1,372,296.3z" id="XMLID_29_"/></g>
    <polygon class="st13" id="XMLID_28_"
             points="371.4,295.7 374.1,294.5 372.8,295.4 373.7,295.2 372.9,295.7 374.3,295.6  "/>
    <g id="XMLID_323_"><polygon class="st7" id="XMLID_27_" points="370.7,295.9 374,294.4 372.9,295.5 374,294.4 372,295.6 373.2,295.5 373.7,295.1     373.3,295.5 374.3,295.5 373,295.8 374.2,295.5 373,295.8 373.1,295.6 370.7,295.9   "/></g>
    <path class="st13"
          d="M383.8,293.8c0,0.2-0.2,0.3-0.3,0.2c-0.2,0-0.3-0.2-0.3-0.3c0-0.2,0.2-0.3,0.3-0.2   C383.7,293.5,383.9,293.6,383.8,293.8L383.8,293.8z"
          id="XMLID_26_"/>
    <g id="XMLID_320_"><path class="st14" d="M383.8,293.8c0,0.2-0.2,0.3-0.3,0.2c-0.2,0-0.3-0.2-0.3-0.3c0-0.2,0.2-0.3,0.3-0.2    C383.7,293.5,383.9,293.6,383.8,293.8z" id="XMLID_25_"/></g>
    <path class="st13"
          d="M383.3,294.4c0,0.1-0.2,0.3-0.3,0.2c-0.2,0-0.3-0.2-0.3-0.3c0-0.2,0.2-0.3,0.3-0.2   C383.2,294.1,383.3,294.3,383.3,294.4L383.3,294.4z"
          id="XMLID_24_"/>
    <g id="XMLID_317_"><path class="st14" d="M383.3,294.4c0,0.1-0.2,0.3-0.3,0.2c-0.2,0-0.3-0.2-0.3-0.3c0-0.2,0.2-0.3,0.3-0.2    C383.2,294.1,383.3,294.3,383.3,294.4z" id="XMLID_23_"/></g>
    <path class="st13"
          d="M383.9,295c0,0.2-0.2,0.3-0.3,0.2c-0.2,0-0.3-0.2-0.3-0.3c0-0.1,0.2-0.3,0.3-0.2   C383.8,294.7,383.9,294.8,383.9,295L383.9,295z"
          id="XMLID_22_"/>
    <g id="XMLID_314_"><path class="st14" d="M383.9,295c0,0.2-0.2,0.3-0.3,0.2c-0.2,0-0.3-0.2-0.3-0.3c0-0.1,0.2-0.3,0.3-0.2    C383.8,294.7,383.9,294.8,383.9,295z" id="XMLID_21_"/></g>
    <polygon class="st13" id="XMLID_20_"
             points="383.4,294.4 386.3,293.8 384.9,294.3 385.7,294.4 384.9,294.7 386.2,294.9  "/>
    <g id="XMLID_311_"><polygon class="st7" id="XMLID_19_" points="386.1,295.1 384.9,294.8 384.9,294.8 383.4,294.5 386.2,293.7 383.5,294.5     384.9,294.5 385.7,294.3 384.9,294.8 386.2,294.8 386.1,295.1   "/></g>
    <path class="st13"
          d="M395.1,296.1c0-0.2-0.1-0.3-0.3-0.3c-0.2,0-0.3,0.1-0.3,0.2c0,0.2,0.1,0.3,0.3,0.3   C394.9,296.4,395,296.3,395.1,296.1L395.1,296.1z"
          id="XMLID_18_"/>
    <g id="XMLID_308_"><path class="st14" d="M395.1,296.1c0-0.2-0.1-0.3-0.3-0.3c-0.2,0-0.3,0.1-0.3,0.2c0,0.2,0.1,0.3,0.3,0.3    C394.9,296.4,395,296.3,395.1,296.1z" id="XMLID_17_"/></g>
    <path class="st13"
          d="M394.7,295.3c0-0.2-0.1-0.3-0.3-0.3c-0.2,0-0.3,0.1-0.3,0.3c0,0.2,0.1,0.3,0.3,0.3   C394.6,295.6,394.7,295.5,394.7,295.3L394.7,295.3z"
          id="XMLID_16_"/>
    <g id="XMLID_305_"><path class="st14" d="M394.7,295.3c0-0.2-0.1-0.3-0.3-0.3c-0.2,0-0.3,0.1-0.3,0.3c0,0.2,0.1,0.3,0.3,0.3    C394.6,295.6,394.7,295.5,394.7,295.3z" id="XMLID_15_"/></g>
    <path class="st13"
          d="M395.4,294.9c0-0.2-0.1-0.3-0.3-0.3c-0.2,0-0.3,0.1-0.3,0.3c0,0.2,0.1,0.3,0.3,0.3   C395.2,295.2,395.4,295.1,395.4,294.9L395.4,294.9z"
          id="XMLID_14_"/>
    <g id="XMLID_302_"><path class="st14" d="M395.4,294.9c0-0.2-0.1-0.3-0.3-0.3c-0.2,0-0.3,0.1-0.3,0.3c0,0.2,0.1,0.3,0.3,0.3    C395.2,295.2,395.4,295.1,395.4,294.9z" id="XMLID_13_"/></g>
    <polygon class="st13" id="XMLID_12_"
             points="394.8,295.4 397.5,296.7 396.2,295.8 397.1,295.9 396.3,295.5 397.6,295.6  "/>
    <g id="XMLID_299_"><polygon class="st7" id="XMLID_11_" points="397.4,296.8 394.7,295.6 397.6,295.4 394.8,295.6 396.4,296.2 396.1,295.9 397,295.8     397.1,295.8 396.2,296 397.5,296.5 397.4,296.8   "/></g>
    <path class="st13"
          d="M404.9,298.7c0-0.1-0.1-0.3-0.3-0.3c-0.2,0-0.3,0.1-0.3,0.2c0,0.2,0.1,0.3,0.3,0.3   C404.8,299,404.9,298.8,404.9,298.7L404.9,298.7z"
          id="XMLID_10_"/>
    <g id="XMLID_296_"><path class="st14" d="M404.9,298.7c0-0.1-0.1-0.3-0.3-0.3c-0.2,0-0.3,0.1-0.3,0.2c0,0.2,0.1,0.3,0.3,0.3    C404.8,299,404.9,298.8,404.9,298.7z" id="XMLID_9_"/></g>
    <path class="st13"
          d="M404.6,297.9c0-0.2-0.1-0.3-0.3-0.3c-0.2,0-0.3,0.1-0.3,0.3c0,0.2,0.1,0.3,0.3,0.3   C404.4,298.2,404.6,298.1,404.6,297.9L404.6,297.9z"
          id="XMLID_8_"/>
    <g id="XMLID_293_"><path class="st14" d="M404.6,297.9c0-0.2-0.1-0.3-0.3-0.3c-0.2,0-0.3,0.1-0.3,0.3c0,0.2,0.1,0.3,0.3,0.3    C404.4,298.2,404.6,298.1,404.6,297.9z" id="XMLID_7_"/></g>
    <path class="st13"
          d="M405.2,297.5c0-0.2-0.1-0.3-0.3-0.3c-0.2,0-0.3,0.1-0.3,0.3c0,0.1,0.1,0.3,0.3,0.3   C405.1,297.8,405.2,297.7,405.2,297.5L405.2,297.5z"
          id="XMLID_6_"/>
    <g id="XMLID_290_"><path class="st14" d="M405.2,297.5c0-0.2-0.1-0.3-0.3-0.3c-0.2,0-0.3,0.1-0.3,0.3c0,0.1,0.1,0.3,0.3,0.3    C405.1,297.8,405.2,297.7,405.2,297.5z" id="XMLID_5_"/></g>
    <polygon class="st13" id="XMLID_4_" points="404.7,298 407.3,299.3 406,298.4 406.9,298.5 406.1,298.1 407.5,298.1  "/>
    <g id="XMLID_287_"><polygon class="st7" id="XMLID_3_" points="407.3,299.4 404.6,298.2 407.5,298 404.7,298.2 406.3,298.7 406,298.5 406.9,298.4     407,298.4 406,298.5 407.4,299.1 407.3,299.4   "/></g></g></svg>
