<?xml version="1.0" ?>
<svg id="Layer_1" style="enable-background:new 0 0 512 512;" version="1.1" viewBox="0 0 512 512" xml:space="preserve"
     xmlns="http://www.w3.org/2000/svg"><style type="text/css">
	.st0 {
    fill: #FFFFFF;
  }

  .st1 {
    fill: #D51F3A;
  }

  .st2 {
    fill: #F2DD31;
  }
</style>
  <g><rect class="st0" height="298.7" width="512" y="106.7"/>
    <polygon class="st1"
             points="218.7,106.7 218.7,218.7 0,218.7 0,293.3 218.7,293.3 218.7,405.4 293.3,405.4 293.3,293.3 512,293.3    512,218.7 293.3,218.7 293.3,106.7  "/>
    <polygon class="st2" points="144,280.9 156.4,268.5 268.4,268.5 268.4,243.6 156.4,243.6 144,231.1  "/>
    <polygon class="st2" points="231.1,144 243.6,156.4 243.6,268.5 268.4,268.5 268.4,156.4 280.9,144  "/>
    <polygon class="st2" points="280.9,368 268.4,355.6 268.4,243.6 243.6,243.6 243.6,355.6 231.1,368  "/>
    <polygon class="st2" points="368,231.1 355.6,243.6 243.6,243.6 243.6,268.5 355.6,268.5 368,280.9  "/></g></svg>
