<?xml version="1.0" ?>
<svg id="Layer_1" style="enable-background:new 0 0 512 512;" version="1.1" viewBox="0 0 512 512" xml:space="preserve"
     xmlns="http://www.w3.org/2000/svg"><style type="text/css">
	.st0 {
    fill: #C5314D;
  }

  .st1 {
    fill: #4055A5;
  }

  .st2 {
    fill: #7CABDB;
  }

  .st3 {
    fill: #1F3C74;
  }

  .st4 {
    fill: #E5DCDC;
  }

  .st5 {
    fill: #F7EC36;
  }

  .st6 {
    fill: #010101;
  }

  .st7 {
    fill: #734B1E;
  }

  .st8 {
    fill: #3E926F;
  }

  .st9 {
    fill: #FFFFFF;
  }

  .st10 {
    fill: #5594CF;
  }
</style>
  <g><rect class="st0" height="272.4" width="485.1" x="13.1" y="119.8"/>
    <rect class="st0" height="298.7" width="512" y="106.7"/>
    <rect class="st1" height="250.5" width="464.1" x="24" y="130.8"/>
    <path class="st0"
          d="M255.9,181.4c0,0-46.1,34-46.1,74.1c0,40.1,46.1,75.1,46.1,75.1s45.8-32.1,45.8-75.1   C301.7,212.5,255.9,181.4,255.9,181.4"/>
    <path class="st2"
          d="M294.8,268.8c1-4.3,1.6-8.7,1.6-13.3c0-38.5-40.5-67-40.5-67s-41,29.5-41,67c0,4.5,0.6,8.9,1.6,13.1   L294.8,268.8"/>
    <path class="st3" d="M255.6,323.2c0,0,31.7-22.7,39.2-54.5h-78.3C224,299.8,255.6,323.2,255.6,323.2"/>
    <path class="st4" d="M296.1,260c-6.9,5.3-46,2.8-46,2.8l-2.2,6h46.8c0.2-0.8,0.4-1.6,0.5-2.5L296.1,260"/>
    <path class="st5"
          d="M253.5,297.9c-0.6-4.5-18.9-9.3-28.6-8.9c3,5.1,6.5,9.8,9.9,14C239.8,297.3,253.7,299.3,253.5,297.9"/>
    <path class="st5"
          d="M290.5,281.2c-2.3,0.1-6.5,0.5-9.4,2.1c-4.2,2.4-13.5,4.9-17.6,3.6c-4.2-1.3-10.7,2.8-9.9,3.6   c1.3,1.4,10.9-0.2,10.9,9c0,7.7-11.1,4.3-15.5,7.5c-2.6,1.9-4.5,4-5.5,5.4c6.8,6.8,12.1,10.8,12.1,10.8s12.6-9.1,23.9-23.7l5.3-7.6   C286.8,288.5,288.8,285,290.5,281.2"/>
    <rect class="st6" height="19.6" width="1.7" x="241.2" y="259.5"/>
    <path class="st7"
          d="M246.6,282.8c0,0-0.7,0.1-1.8,0.3v-1.5h-1.1v1.7c-1.1,0.1-2.5,0.2-4,0.2c-1.5,0-3.1-0.1-4.4-0.3v-1.6h-1.2v1.4   c-1.1-0.1-1.7-0.3-1.7-0.3s-0.3,2,7.2,2C247.2,284.7,246.6,282.8,246.6,282.8"/>
    <path class="st8"
          d="M253.4,221.9c0,0-6.3-4-14.9-2.1c-8.6,1.9-10.5,7.8-10.5,7.8l2.9-1.4l0.1,1.3l2.6-1.8l0.1,1.3l2.2-2.2l0.4,1.4   l2-1.9l0.1,1l3.3-2.2v1.4l2.6-1.3l-0.2,1.4l4.9-1c0,0-11.6,4.2-13.1,14.2l2.2-2.9l0.2,1.4l1.4-3l0.4,1.2l1.3-2.8l0.4,1.7l1.9-3   l0.2,1.8l2.2-3.3v1.6l2.4-2.8l-0.1,2.1c0,0,2.3-2.1,3-2.1l-2.8,3.9l0.9,0.3c0,0-1.9,1.7-2.1,2c-0.1,0.3,1.3,0,1.3,0   s-1.7,1.9-1.8,2.5c-0.1,0.6,1.1,0,1.1,0s-1.6,2.2-1.8,3c-0.2,0.8,0.8,0.2,0.8,0.2s-1,2.6-1,3.3c-0.1,0.7,1.1-0.2,1.1-0.2l0.7,4.4   l1.2-5.3l0.7,1.2V239l0.7,0.6l-0.1-2.5l0.9,1l-0.4-3l1,1.2l-0.1-2.6l1,1v-3.4l0.9,0.9l0.1-2.3l1,0.6c0,0,0.1-2.8,1.3-2.7   c1.2,0.1,2.7,1.4,2.1,2.1l1-0.3l-0.2,2.7l1-0.6l-0.1,2l0.8-0.4l-0.3,2.6l1-0.6l0.1,3.1l1.1-0.9l-0.1,3.7l1.1-1v3l1-0.8l1.1,3   l-0.2-4.4l0.8,0.7l-1.5-3.1l1.1-0.2l-1.2-2.1l1.1,0.1l-1.6-2.1l1.1-0.2l-2.5-1.9l1.3-0.6l-2.5-1.8l1-0.4l-1.8-2l1.9,0.8l0.6-1.3   l2.2,1.9v-1.9l1.9,2.9l0.2-1.8l1.5,2.2l0.3-1l1,2.2l0.5-1.7l1,2.4l0.3-1.7l1,2.7l0.9-1l0.4,2.7l0.9-1l0.8,2.4l1-0.9l0.9,2.7   c0,0,2.5-14.6-18.6-14.8L253.4,221.9"/>
    <path class="st8"
          d="M243.7,208.9l1.2,1.6l-0.6,0.5l2,1.2l-0.4,0.9l2,0.8l-0.7,0.6l1.8,1.1l-1.2,0.4l2.2,1.1l-0.3,1l1.9,0.5   l-0.8,0.7l2.2,1.8l2.5,1.8l1.7-0.6l-0.7-3.5C256.3,218.9,249.2,208.5,243.7,208.9"/>
    <path class="st8"
          d="M250.2,198.8l0.8,2.1l-1.1,0.2l2.5,2.7l-2,0.1l2.5,2.1l-1.2,0.4l2.2,2.4l-1.2,0.6l2.3,2.5l-1.6,0.6l2.6,2.6   l-1.5,0.1l1.6,2.2l-1.4,0.5c0,0,1.7,3.4,1.6,4.9l2.9,0.2c0,0,0.4-9.3,0.1-10.5l-0.7,0.6l0.2-3.4l-1.1,0.7l-0.2-4l-1.1,1.3l-0.3-3.9   l-0.8,1.4l-0.8-3.9l-0.9,1.2l-0.8-2.5l-0.7,1L250.2,198.8"/>
    <path class="st8"
          d="M257.7,222.2c0.8-5.6,6.3-13.8,16.4-14.1l-2.3,1.3l1.3,0.6l-2.7,1l1.3,0.9l-3.2,0.2l1.6,1.2l-2.4,0.3l-1.9,0.4   l1.3,1.4l-2.7,0.3l1.7,1c0,0-4.2,1.6-4.5,2.1c0,0,14.3-3.9,17.8,3.4l-2.8-1.3l0.2,1.4l-1.9-1.5l0.3,1.1l-2-1.1l0.3,1.4l-2.1-1.3   l0.4,1.2l-2.7-1.4l0.5,1.3l-2.3-0.8l0.2,1.4l-2.3-0.2l0.2,1.6l-7.1-0.2L257.7,222.2"/>
    <path class="st7"
          d="M255.5,227.1l1.5-0.1c-0.7,15.3,0,37.2,1.9,45.3c3.3,13.8,12.8,19.1,15.1,20.4c1.3,0.7,0.8,3.8-1.8,3.6   c-2.6-0.2-11.6-7.4-14.7-20.2C253.3,258.9,255.3,228.9,255.5,227.1"/>
    <path class="st0"
          d="M235.6,250.5h-1.8c-0.1-0.8-0.5-1.4-1-1.7c-0.3-0.2-0.6-0.3-1-0.3c-0.7,0-1.3,0.4-1.7,1.1   c-0.4,0.7-0.7,1.8-0.7,3.3c0,1.5,0.2,2.5,0.7,3.1c0.5,0.6,1,0.9,1.6,0.9c0.6,0,1.1-0.2,1.5-0.7c0.4-0.5,0.6-1.1,0.7-1.9h-2v-2h3.6   v6.4h-1.2l-0.2-1.5c-0.3,0.6-0.7,1-0.9,1.2c-0.5,0.4-1,0.6-1.7,0.6c-1.1,0-2.1-0.6-2.8-1.7c-0.8-1.1-1.1-2.6-1.1-4.5   c0-1.9,0.4-3.5,1.2-4.7c0.8-1.2,1.8-1.8,3-1.8c1.1,0,2,0.4,2.6,1.2C235.1,248.4,235.5,249.4,235.6,250.5"/>
    <path class="st0"
          d="M244,254.1v-7.4h1.8v7.4c0,0.8,0.1,1.4,0.2,1.8c0.2,0.7,0.7,1,1.4,1c0.7,0,1.2-0.3,1.4-1   c0.1-0.4,0.2-1,0.2-1.8v-7.4h1.8v7.4c0,1.3-0.1,2.3-0.4,3c-0.5,1.3-1.5,1.9-3,1.9c-1.5,0-2.5-0.6-3-1.9   C244.2,256.4,244,255.4,244,254.1"/>
    <polygon class="st0"
             points="262.1,258.8 262.7,256.3 265.9,256.3 266.4,258.8 268.3,258.8 265.3,246.8 263.3,246.8 260.2,258.8     "/>
    <path class="st0"
          d="M279.7,256.2l1.5-9.4h2.6v12h-1.7v-8.1c0-0.2,0-0.6,0-1c0-0.4,0-0.7,0-1l-1.6,10.1h-1.7l-1.6-10.1   c0,0.2,0,0.6,0,1c0,0.4,0,0.7,0,1v8.1h-1.7v-12h2.6L279.7,256.2"/>
    <path class="st7"
          d="M239.4,279c6.1,0,11.3-1.1,11.3-1.1s0.8,4.3-11.3,4.3c-12.1,0-11.1-3.6-11.1-3.6S233.3,279,239.4,279"/>
    <path class="st9"
          d="M234.3,260.6c0,0,9.5,3.9,13.3,17.3c0,0-8.7-1.9-13.7,0.2h-2.8C231.1,278.2,235.9,270.7,234.3,260.6"/>
    <path class="st7" d="M257.9,222c0.9,0,1.7,0.8,1.7,1.8s-0.8,1.8-1.7,1.8c-0.9,0-1.7-0.8-1.7-1.8S257,222,257.9,222"/>
    <path class="st7"
          d="M255.2,221.4c0.9,0,1.6,0.8,1.6,1.7c0,0.9-0.7,1.7-1.6,1.7c-0.9,0-1.6-0.8-1.6-1.7   C253.6,222.2,254.4,221.4,255.2,221.4"/>
    <path class="st7"
          d="M255.2,224.5c0.8,0,1.5,0.7,1.5,1.6c0,0.9-0.7,1.6-1.5,1.6c-0.8,0-1.5-0.7-1.5-1.6   C253.8,225.2,254.4,224.5,255.2,224.5"/>
    <path class="st7"
          d="M257.2,223.6c0.9,0,1.6,0.8,1.6,1.7c0,0.9-0.7,1.7-1.6,1.7c-0.9,0-1.6-0.8-1.6-1.7   C255.7,224.3,256.4,223.6,257.2,223.6"/>
    <polygon class="st10" points="265.4,254.2 263.2,254.2 264.3,249.5  "/></g></svg>
