<?xml version="1.0" ?>
<svg id="Layer_1" style="enable-background:new 0 0 512 512;" version="1.1" viewBox="0 0 512 512" xml:space="preserve"
     xmlns="http://www.w3.org/2000/svg"><style type="text/css">
	.st0 {
    fill: #2E6D42;
  }

  .st1 {
    fill: #FFFFFF;
  }

  .st2 {
    fill: #010101;
  }

  .st3 {
    fill: #F4D130;
  }

  .st4 {
    fill: #C21F3B;
  }

  .st5 {
    fill: #3D9546;
  }

  .st6 {
    fill: #914C21;
  }

  .st7 {
    fill: #835FA8;
  }
</style>
  <g id="XMLID_1_"><rect class="st0" height="298.7" id="XMLID_242_" width="512" y="106.7"/>
    <rect class="st1" height="24.9" id="XMLID_241_" width="512" y="268.4"/>
    <rect class="st2" height="24.9" id="XMLID_240_" width="512" y="243.6"/>
    <rect class="st3" height="24.9" id="XMLID_239_" width="512" y="218.7"/>
    <rect class="st3" height="298.7" id="XMLID_238_" width="24.9" x="218.7" y="106.7"/>
    <rect class="st2" height="298.7" id="XMLID_237_" width="24.9" x="243.6" y="106.7"/>
    <rect class="st1" height="298.7" id="XMLID_236_" width="24.9" x="268.4" y="106.7"/>
    <path class="st4"
          d="M330.7,256c0,41.2-33.4,74.7-74.7,74.7c-41.2,0-74.7-33.4-74.7-74.7   c0-41.2,33.4-74.7,74.7-74.7C297.2,181.3,330.7,214.8,330.7,256L330.7,256z"
          id="XMLID_235_"/>
    <path class="st0"
          d="M253.6,197.1c0-0.1,2.4-6.8,2.4-6.8l2.2,6.7c0,0,7.3,0.2,7.3,0.1c0-0.1-5.8,4.4-5.8,4.4   s2.7,7.7,2.6,7.5c-0.1-0.2-6.3-4.6-6.3-4.6s-6.3,4.4-6.2,4.4c0.1,0,2.4-7.3,2.4-7.3l-5.7-4.3L253.6,197.1z"
          id="XMLID_234_"/>
    <g><path class="st2" d="M262.3,209.5l-0.2-0.4c-0.3-0.3-4-3-6.3-4.6c-1.3,1.1-5.6,4.1-5.9,4.4c-0.2-0.6,1.1-4.8,2-7.5l-5.6-4l7.1-0.6    c0-0.2,0.4-1.5,2.3-6.7l2.7,6.7c0.1-0.1,4.4,0,6.3,0c0.3,0,0.6,0,0.7,0l0.1,0l-0.1,0c0,0,0,0.1-0.1,0.1c0,0,0,0.1,0,0.1l0.1,0    l-0.1,0c0,0.2-0.1,0.2-0.3,0.3c-1,1.1-4,3.4-5.2,4.3c1.9,5,2.5,6.6,2.7,7.1c0,0,0,0,0,0l0,0c0.1,0.2,0,0.2,0,0.3L262.3,209.5    L262.3,209.5z M255.8,190.5c0,1.1-1.9,6.3-2,6.6l-7.3,0.3l5.8,3.8c-0.1,0.9-1.8,6.3-2.2,7.4c0.7-1,5.5-4.4,5.7-4.5    c3.5,2.4,5.2,3.6,6,4.1c-0.7-1.9-2.4-6.7-2.4-6.7c0.5-0.6,3.7-3.1,5.2-4.2c-1.9,0-6.5-0.1-6.5-0.1L255.8,190.5L255.8,190.5z"/></g>
    <path class="st0"
          d="M258.4,315.1c0,0.1-2.4,6.8-2.4,6.8l-2.2-6.7c0,0-7.3-0.2-7.3-0.1c0,0.1,5.8-4.4,5.8-4.4   s-2.7-7.7-2.6-7.5c0.1,0.2,6.3,4.6,6.3,4.6s6.3-4.4,6.2-4.4c-0.1,0-2.4,7.3-2.4,7.3l5.7,4.3L258.4,315.1z"
          id="XMLID_231_"/>
    <g><path class="st2" d="M256,322.7l-2.4-7.4c-0.1,0.1-4.6,0-6.3,0c-0.3,0-0.6,0-0.7,0c0,0,0-0.1,0.1-0.2c0-0.2,0.1-0.3,0.3-0.3    c0.9-1,3.5-3,5.2-4.3c-1.9-5-2.5-6.6-2.7-7.1c0,0,0,0,0,0c0,0,0,0,0,0c-0.1-0.2,0-0.2,0-0.3c0.6,0.3,4.4,2.9,6.7,4.6    c1.3-1.1,5.4-4,5.8-4.3l0.2-0.1l-0.2,0.1l0.2,0.2l-0.2-0.2c0,0,0,0.1,0,0.2l-0.1,0l0.1,0c0,1.1-1.2,4.8-2,7.3l5.6,4l-7.1,0.5    c0,0.2-0.4,1.5-2.3,6.7L256,322.7L256,322.7z M247.4,314.8c1.9,0,6.5,0.1,6.5,0.1l2.2,6.2c0.6-1.7,2.1-5.9,2.1-6.1l7.3-0.3    l-5.8-3.8c0.1-0.9,1.8-6.3,2.2-7.4c-0.7,1-5.5,4.4-5.7,4.5c-4.8-3.2-6.1-4.2-6.5-4.6c0.8,1.1,2.9,7.1,2.9,7.1    C252,311.2,248.8,313.7,247.4,314.8L247.4,314.8z"/></g>
    <path class="st0"
          d="M290.7,213.9c0,0.1-2.4,6.8-2.4,6.8l-2.2-6.7c0,0-7.3-0.2-7.3-0.1s5.8-4.4,5.8-4.4   s-2.7-7.7-2.6-7.5c0.1,0.2,6.3,4.6,6.3,4.6s6.3-4.4,6.2-4.4c-0.1,0-2.4,7.3-2.4,7.3l5.7,4.3L290.7,213.9z"
          id="XMLID_228_"/>
    <g><path class="st2" d="M288.3,221.5l-2.4-7.4c-0.1,0.2-4.5,0-6.3,0c-0.4,0-0.6,0-0.7,0c0,0,0-0.1,0.1-0.2c0-0.2,0.1-0.3,0.3-0.3    c0.9-1,3.5-3,5.2-4.3c-1.9-5-2.5-6.6-2.6-7.1c0,0,0,0,0-0.1c0,0,0,0,0,0c-0.1-0.2,0-0.2,0-0.3c0.6,0.3,4.4,2.9,6.7,4.6    c1.3-1.1,5.4-4,5.8-4.3l0.2-0.1l-0.2,0.1l0.2,0.2l-0.2-0.2c0,0,0,0.1,0,0.2l-0.1,0l0.1,0c0,1.1-1.2,4.8-2,7.3l5.6,4l-7.1,0.5    c0,0.2-0.4,1.5-2.3,6.7L288.3,221.5L288.3,221.5z M279.7,213.6c1.9,0,6.5,0.1,6.5,0.1l2.2,6.2c0.6-1.7,2.1-5.9,2.1-6.1l7.3-0.3    l-5.8-3.8c0.1-0.9,1.8-6.3,2.2-7.4c-0.7,1-5.5,4.4-5.7,4.5c-4.7-3.2-6.1-4.2-6.5-4.6c0.8,1.1,2.9,7.1,2.9,7.1    C284.3,210,281.1,212.5,279.7,213.6L279.7,213.6z"/></g>
    <path class="st0"
          d="M311.7,275.2c0,0.1-2.4,6.8-2.4,6.8l-2.2-6.7c0,0-7.3-0.2-7.3-0.1c0,0.1,5.8-4.4,5.8-4.4   s-2.7-7.7-2.6-7.5c0.1,0.2,6.3,4.6,6.3,4.6s6.3-4.4,6.2-4.4c-0.1,0-2.4,7.3-2.4,7.3l5.7,4.3L311.7,275.2z"
          id="XMLID_225_"/>
    <g><path class="st2" d="M309.3,282.8l-2.4-7.4c-0.1,0.1-4.6,0-6.3,0c-0.3,0-0.6,0-0.7,0c0,0,0-0.1,0.1-0.2c0-0.2,0.1-0.3,0.3-0.3    c0.9-1,3.5-3,5.2-4.3c-1.9-5-2.5-6.6-2.7-7.1c0,0,0,0,0,0c0,0,0,0,0,0c-0.1-0.2,0-0.2,0-0.3c0.6,0.3,4.4,2.9,6.7,4.6    c1.3-1.1,5.4-4,5.8-4.3l0.2-0.1l-0.2,0.1l0.2,0.2l0,0l-0.1-0.2l0,0c0,0,0,0.1,0,0.2l-0.1,0l0.1,0c0,1.1-1.2,4.9-2,7.3l5.6,4    l-7.1,0.5c0,0.2-0.4,1.5-2.3,6.7L309.3,282.8L309.3,282.8z M300.6,274.9c1.9,0,6.5,0.1,6.5,0.1l2.2,6.2c0.6-1.7,2.1-5.9,2.1-6.1    l7.3-0.3l-5.8-3.8c0.1-0.9,1.8-6.3,2.2-7.4c-0.7,1-5.5,4.4-5.7,4.5c-4.8-3.2-6.1-4.2-6.5-4.5c0.8,1.1,2.9,7.1,2.9,7.1    C305.3,271.2,302.1,273.8,300.6,274.9L300.6,274.9z"/></g>
    <path class="st0"
          d="M205.1,276.9c0,0.1-2.4,6.8-2.4,6.8l-2.2-6.7c0,0-7.3-0.2-7.3-0.1c0,0.1,5.8-4.4,5.8-4.4   s-2.7-7.7-2.6-7.5c0.1,0.2,6.3,4.6,6.3,4.6s6.3-4.4,6.2-4.4c-0.1,0-2.4,7.3-2.4,7.3l5.7,4.3L205.1,276.9z"
          id="XMLID_222_"/>
    <g><path class="st2" d="M202.7,284.5l-2.4-7.4c-0.1,0.1-4.6,0-6.3,0c-0.3,0-0.6,0-0.7,0c0,0,0-0.1,0.1-0.2c0-0.2,0.1-0.3,0.3-0.3    c0.9-1,3.5-3,5.2-4.3c-1.9-5-2.5-6.6-2.7-7.1c0,0,0,0,0,0c0,0,0,0,0,0c-0.1-0.2,0-0.2,0-0.3c0.6,0.3,4.4,2.9,6.7,4.6    c1.3-1.1,5.4-4,5.8-4.3l0.2-0.1l-0.2,0.1l0.2,0.2l0,0l-0.1-0.2l0,0c0,0,0,0.1,0,0.2l-0.1,0l0.1,0c0,1.1-1.2,4.9-2,7.3l5.6,4    l-7.1,0.5c0,0.2-0.4,1.5-2.3,6.7L202.7,284.5L202.7,284.5z M194.1,276.6c1.9,0,6.5,0.1,6.5,0.1l2.2,6.2c0.6-1.7,2.1-5.9,2.1-6.1    l7.3-0.3l-5.8-3.8c0.1-0.9,1.8-6.3,2.2-7.4c-0.7,1-5.5,4.4-5.7,4.5c-4.8-3.2-6.1-4.2-6.5-4.6c0.8,1.1,2.9,7.1,2.9,7.1    C198.8,273,195.6,275.5,194.1,276.6L194.1,276.6z"/></g>
    <path class="st0"
          d="M224.5,214.6c0,0.1-2.4,6.8-2.4,6.8l-2.2-6.7c0,0-7.3-0.2-7.3-0.1c0,0.1,5.8-4.4,5.8-4.4   s-2.7-7.7-2.6-7.5c0.1,0.2,6.3,4.6,6.3,4.6s6.3-4.4,6.2-4.4c-0.1,0-2.4,7.3-2.4,7.3l5.7,4.3L224.5,214.6z"
          id="XMLID_219_"/>
    <g><path class="st2" d="M222.1,222.2l-2.4-7.4c-0.1,0.2-4.5,0-6.3,0c-0.4,0-0.6,0-0.7,0c0,0,0-0.1,0.1-0.2c0-0.2,0.1-0.3,0.3-0.3    c0.9-1,3.5-3,5.2-4.3c-1.9-5-2.5-6.6-2.6-7.1c0,0,0,0,0-0.1c0,0,0,0,0,0c-0.1-0.2,0-0.2,0-0.3c0.6,0.3,4.4,2.9,6.7,4.6    c1.3-1.1,5.4-4,5.8-4.3l0.2-0.1l-0.2,0.1l0.2,0.2l-0.2-0.2c0,0,0,0.1,0,0.2l-0.1,0l0.1,0c0,1.1-1.2,4.8-2,7.3l5.6,4l-7.1,0.5    c0,0.2-0.4,1.5-2.3,6.7L222.1,222.2L222.1,222.2z M213.4,214.4c1.9,0,6.5,0.1,6.5,0.1l2.2,6.2c0.6-1.7,2.1-5.9,2.1-6.1l7.3-0.3    l-5.8-3.8c0.1-0.9,1.8-6.3,2.2-7.4c-0.7,1-5.5,4.4-5.7,4.5c-4.7-3.2-6.1-4.2-6.5-4.6c0.8,1.1,2.9,7.1,2.9,7.1    C218.1,210.7,214.9,213.3,213.4,214.4L213.4,214.4z"/></g>
    <path class="st0"
          d="M199.9,237c0-0.1,2.4-6.8,2.4-6.8l2.2,6.7c0,0,7.3,0.2,7.3,0.1c0-0.1-5.8,4.4-5.8,4.4   s2.7,7.7,2.6,7.5c-0.1-0.2-6.3-4.6-6.3-4.6s-6.3,4.4-6.2,4.4c0.1,0,2.4-7.3,2.4-7.3l-5.7-4.3L199.9,237z"
          id="XMLID_216_"/>
    <g><path class="st2" d="M208.6,249.4l-0.2-0.3c-0.3-0.3-4-3-6.2-4.6c-1.3,1.1-5.6,4.1-5.9,4.4c-0.2-0.6,1.1-4.8,2-7.5l-5.6-4l7.1-0.5    c0-0.2,0.4-1.5,2.3-6.7l2.6,6.7c0.1-0.2,4.5,0,6.3,0c0.3,0,0.5,0,0.6,0l0.1,0l-0.1,0l0,0.2l-0.1,0c0,0.2-0.1,0.2-0.3,0.3    c-0.9,1-3.4,3-5.2,4.3c1.9,5,2.5,6.6,2.6,7.1c0,0,0,0,0,0.1l0,0c0,0.2,0,0.2,0,0.3L208.6,249.4L208.6,249.4z M202.1,230.4    c0,1.1-1.9,6.3-2,6.6l-7.3,0.3l5.8,3.8c-0.1,0.9-1.8,6.3-2.2,7.4c0.7-1,5.5-4.4,5.7-4.5c3.5,2.4,5.2,3.6,6,4.1    c-0.7-1.9-2.3-6.7-2.3-6.7c0.5-0.6,3.7-3.1,5.2-4.2c-1.9,0-6.5-0.1-6.5-0.1L202.1,230.4L202.1,230.4z"/></g>
    <path class="st0"
          d="M220.7,298.2c0-0.1,2.4-6.8,2.4-6.8l2.2,6.7c0,0,7.3,0.2,7.3,0.1c0-0.1-5.8,4.4-5.8,4.4   s2.7,7.7,2.6,7.5c-0.1-0.2-6.3-4.6-6.3-4.6s-6.3,4.4-6.2,4.4c0.1,0,2.4-7.3,2.4-7.3l-5.7-4.3L220.7,298.2z"
          id="XMLID_213_"/>
    <g><path class="st2" d="M229.4,310.5l-0.2-0.3c-0.3-0.3-4-3-6.2-4.6c-1.3,1.1-5.6,4.1-5.9,4.4c-0.2-0.6,1.1-4.8,2-7.5l-5.6-4l7.1-0.6    c0-0.2,0.4-1.5,2.3-6.7l2.6,6.7c0.1-0.1,4.4,0,6.3,0c0.3,0,0.6,0,0.7,0l0.1,0l-0.1,0c0,0,0,0.1-0.1,0.1c0,0,0,0.1,0,0.1l0.1,0    l-0.1,0c0,0.2-0.1,0.2-0.3,0.3c-1,1.1-3.9,3.4-5.2,4.3c1.9,5,2.5,6.6,2.6,7.1c0,0,0,0,0,0l0,0c0,0.2,0,0.2,0,0.3L229.4,310.5    L229.4,310.5z M222.9,291.6c0,1.1-1.9,6.3-2,6.6l-7.3,0.3l5.8,3.8c-0.1,0.9-1.8,6.3-2.2,7.4c0.7-1,5.5-4.4,5.7-4.5    c3.5,2.4,5.2,3.6,6,4.1c-0.7-1.9-2.4-6.7-2.4-6.7c0.5-0.6,3.7-3.1,5.2-4.2c-1.9,0-6.5-0.1-6.5-0.1L222.9,291.6L222.9,291.6z"/></g>
    <path class="st0"
          d="M306.5,235.4c0-0.1,2.4-6.8,2.4-6.8l2.2,6.7c0,0,7.3,0.2,7.3,0.1c0-0.1-5.8,4.4-5.8,4.4   s2.7,7.7,2.6,7.5c-0.1-0.2-6.3-4.6-6.3-4.6s-6.3,4.4-6.2,4.4c0.1,0,2.4-7.3,2.4-7.3l-5.7-4.3L306.5,235.4z"
          id="XMLID_210_"/>
    <g><path class="st2" d="M315.2,247.8l-0.2-0.4c-0.3-0.3-4-3-6.2-4.6c-1.3,1.1-5.6,4.1-5.9,4.4c-0.2-0.6,1.1-4.8,2-7.5l-5.6-4l7.1-0.6    c0-0.2,0.4-1.5,2.3-6.7l2.6,6.7c0.1-0.1,4.4,0,6.3,0c0.3,0,0.6,0,0.7,0l0.1,0l-0.1,0c0,0,0,0.1-0.1,0.1c0,0,0,0.1,0,0.1l0.1,0    l-0.1,0c0,0.2-0.1,0.2-0.3,0.3c-1,1.1-3.9,3.4-5.2,4.3c1.9,5,2.5,6.6,2.7,7.1c0,0,0,0,0,0l0,0c0,0.2,0,0.2,0,0.3L315.2,247.8    L315.2,247.8z M308.7,228.8c0,1.1-1.9,6.3-2,6.6l-7.3,0.3l5.8,3.8c-0.1,0.9-1.8,6.3-2.2,7.4c0.7-1,5.5-4.4,5.7-4.5    c3.5,2.4,5.2,3.6,6,4.1c-0.7-1.9-2.4-6.7-2.4-6.7c0.5-0.6,3.7-3.1,5.2-4.2c-1.9,0-6.5-0.1-6.5-0.1L308.7,228.8L308.7,228.8z"/></g>
    <path class="st0"
          d="M287.1,297.6c0-0.1,2.4-6.8,2.4-6.8l2.2,6.7c0,0,7.3,0.2,7.3,0.1c0-0.1-5.8,4.4-5.8,4.4   s2.7,7.7,2.6,7.5c-0.1-0.2-6.3-4.6-6.3-4.6s-6.3,4.4-6.2,4.4c0.1,0,2.4-7.3,2.4-7.3l-5.7-4.3L287.1,297.6z"
          id="XMLID_207_"/>
    <g><path class="st2" d="M295.8,310l-0.2-0.4c-0.3-0.3-4-3-6.2-4.6c-1.3,1.1-5.6,4.1-5.9,4.4c-0.2-0.6,1.1-4.8,2-7.5l-5.6-4l7.1-0.5    c0-0.2,0.4-1.5,2.3-6.7l2.6,6.7c0.1-0.1,4.6,0,6.3,0c0.3,0,0.5,0,0.6,0l0.1,0l-0.1,0l0,0.2l-0.1,0c0,0.2-0.1,0.2-0.3,0.3    c-0.9,1-3.5,3-5.2,4.3c1.9,5,2.5,6.6,2.7,7.1c0,0,0,0,0,0l0,0c0.1,0.2,0,0.2,0,0.3L295.8,310L295.8,310z M289.3,291    c0,1.1-1.9,6.3-2,6.6l-7.3,0.3l5.8,3.8c-0.1,0.9-1.8,6.3-2.2,7.4c0.7-1,5.5-4.4,5.7-4.5c3.5,2.4,5.2,3.6,6,4.1    c-0.7-1.9-2.4-6.7-2.4-6.7c0.5-0.6,3.7-3.1,5.2-4.2c-1.9,0-6.5-0.1-6.5-0.1L289.3,291L289.3,291z"/></g>
    <path class="st5" d="M205.8,239.7h0.4H205.8z" id="XMLID_204_"/>
    <path class="st5" d="M270,285h0.4H270z" id="XMLID_203_"/>
    <path class="st5" d="M303.7,271.1h-0.4H303.7z" id="XMLID_197_"/>
    <path class="st5" d="M243.6,219.7h-0.4H243.6z" id="XMLID_196_"/>
    <path class="st0"
          d="M264.7,253.8c2.5-0.3,5.1,9.4,6,21.5c0.9,12.1-0.4,22.1-2.9,22.4c-2.5,0.3-5.1-9.4-6-21.5   C260.9,264.1,262.2,254.1,264.7,253.8L264.7,253.8z"
          id="XMLID_194_"/>
    <g><path class="st2" d="M267.7,298c-3,0-5.4-11.2-6.2-21.7c-0.8-10.9,0.2-22.4,3.1-22.7h0c3.1,0,5.5,11.2,6.3,21.7    c0.8,10.9-0.2,22.4-3.1,22.7L267.7,298L267.7,298z M264.8,254.1c-2.1,0.2-3.6,9.2-2.7,22.1c0.9,12.7,3.7,21.3,5.7,21.3v0.3    l0.1-0.3c2-0.2,3.6-9.2,2.7-22.1C269.5,262.6,266.8,254.1,264.8,254.1L264.8,254.1z"/></g>
    <path class="st0"
          d="M269,253.8c2.6-0.3,5.4,9.3,6.3,21.5c0.9,12.1-0.5,22.2-3.1,22.4c-2.6,0.3-5.4-9.3-6.3-21.5   C265,264.1,266.4,254,269,253.8L269,253.8z"
          id="XMLID_191_"/>
    <g><path class="st2" d="M272.1,297.9c-3.1,0-5.7-11.2-6.4-21.7c-0.8-10.9,0.3-22.4,3.3-22.7h0c3.3,0,5.8,11.2,6.5,21.7    c0.8,10.9-0.3,22.4-3.3,22.7L272.1,297.9L272.1,297.9z M269.1,254c-2.2,0.2-3.9,9.2-3,22.2c0.9,12.7,3.8,21.2,5.9,21.2v0.3    l0.1-0.3c2.2-0.2,3.8-9.2,2.9-22.2C274.2,262.5,271.3,254,269.1,254L269.1,254z"/></g>
    <path class="st0"
          d="M266.9,252.6c2.1-0.2,4.5,10.5,5.4,23.9c0.9,13.4,0,24.4-2.1,24.7c-2.1,0.2-4.5-10.5-5.4-23.9   C263.9,263.9,264.8,252.8,266.9,252.6L266.9,252.6z"
          id="XMLID_188_"/>
    <g><path class="st2" d="M270.2,301.4c-2.6,0-4.8-12.4-5.6-24.1c-0.8-11.9-0.3-24.7,2.3-24.9c0,0,0,0,0,0c2.7,0,4.9,12.4,5.7,24.1    C273.4,288.3,272.9,301.1,270.2,301.4L270.2,301.4L270.2,301.4z M266.9,252.9c-1.7,0.2-2.9,10.2-1.9,24.4    c1,14.1,3.5,23.6,5.1,23.6v0.3l0-0.3c1.7-0.2,2.8-10.2,1.8-24.4C271.1,262.4,268.6,252.9,266.9,252.9L266.9,252.9z"/></g>
    <path class="st6"
          d="M234,287.1c3.8-0.2,2.2-2.2,4.1-3.3c1.9-1.1,4.7-0.4,5.5,1c0.8,1.4,0.2,2.7,1.2,2.7   c1.1,0,29.8-1.2,30.9-0.1c1,1.1,1.2,3.4,0.1,4.2c-1.1,0.9-37.5,1.3-38.7,0.4C235.8,291.2,234,287.4,234,287.1L234,287.1z"
          id="XMLID_185_"/>
    <g><path class="st2" d="M250.8,292.9c-6,0-13.2-0.1-13.9-0.6c-1.3-0.9-3.2-4.8-3.2-5.2c2.4-0.3,2.6-1,2.9-1.8    c0.2-0.6,0.4-1.2,1.3-1.7c1.9-1,4.9-0.4,5.8,1.1c0.4,0.6,0.5,1.3,0.5,1.8c0.1,0.7,0.1,0.8,0.5,0.8h0c0.3,0,1.3,0,2.8-0.1    c4.6-0.2,13.7-0.5,20.3-0.5c7.4,0,7.7,0.4,7.9,0.6c0.6,0.7,1,1.8,0.9,2.8c-0.1,0.8-0.3,1.4-0.8,1.8    C275.1,292.6,258.3,292.9,250.8,292.9L250.8,292.9z M240.2,283.6c-0.7,0-1.4,0.2-2,0.5c-0.7,0.4-0.9,0.9-1,1.4    c-0.3,0.9-0.7,1.8-3.2,1.9c0.3,0.1,2.1,3.7,3.2,4.5c0.4,0.2,4.1,0.5,13.6,0.5c12,0,24.1-0.4,24.8-0.8c0.3-0.3,0.6-0.8,0.6-1.4    c0.1-0.9-0.2-1.9-0.8-2.5c-0.1-0.1-1.2-0.4-7.5-0.4c-6.6,0-15.7,0.3-20.3,0.5c-1.5,0-2.6,0.1-2.8,0.1c-0.8,0-0.9-0.6-1-1.3    c-0.1-0.5-0.1-1-0.5-1.6C242.8,284.2,241.6,283.6,240.2,283.6L240.2,283.6z"/></g>
    <path class="st3"
          d="M254.3,289.9c-0.1,2.9,4.2,2.1,4.2,4.5c-0.1,2.5-7.1,0.2-7.2-4.5c0.3-4.7,7.1-6.9,7.2-4.3   C258.7,287.8,254.4,287.1,254.3,289.9L254.3,289.9z"
          id="XMLID_182_"/>
    <g><path class="st2" d="M257.1,295.7c-2.1,0-6-2.2-6-5.8c0.3-5,7.6-7,7.7-4.3c0,1.2-1,1.6-2,2.1c-1.1,0.5-2.2,0.9-2.2,2.3    c0,1.3,1,1.8,2.1,2.2c1,0.4,2.1,0.9,2.2,2.2C258.8,295.2,258.1,295.7,257.1,295.7L257.1,295.7z M257.1,284.7c-1.8,0-5.3,2-5.5,5.2    c0,3.2,3.7,5.3,5.5,5.3c0.5,0,1.1-0.1,1.2-0.8c0-1-0.9-1.3-1.9-1.7c-1.1-0.5-2.4-1-2.4-2.7c0-1.7,1.4-2.3,2.5-2.7    c1.1-0.5,1.8-0.8,1.7-1.6C258.3,284.9,257.7,284.7,257.1,284.7L257.1,284.7z"/></g>
    <path class="st3"
          d="M256.8,290c-0.1,2.9,4.2,2.1,4.2,4.5c-0.1,2.5-7.1,0.2-7.2-4.5c0.3-4.7,7.1-7,7.2-4.3   C261.2,287.9,256.9,287.1,256.8,290L256.8,290z"
          id="XMLID_179_"/>
    <g><path class="st2" d="M259.7,295.7c-2.1,0-6-2.2-6-5.8c0.3-5,7.6-7,7.7-4.3c0,1.2-1,1.7-2,2.1c-1.1,0.5-2.2,0.9-2.2,2.3    c0,1.3,1,1.8,2.1,2.2c1,0.4,2.1,0.9,2.2,2.2C261.3,295.3,260.7,295.7,259.7,295.7L259.7,295.7z M259.6,284.8c-1.8,0-5.3,2-5.5,5.2    c0.1,3.2,3.7,5.3,5.5,5.3c0.5,0,1.1-0.1,1.2-0.8c0-1-0.9-1.3-1.9-1.7c-1.1-0.5-2.4-1-2.4-2.7c0-1.7,1.4-2.2,2.5-2.7    c1.1-0.5,1.8-0.8,1.7-1.6C260.8,284.9,260.2,284.8,259.6,284.8L259.6,284.8z"/></g>
    <path class="st3"
          d="M259.5,289.9c-0.1,2.9,4.2,2.1,4.2,4.5c-0.1,2.5-7.1,0.2-7.2-4.5c0.3-4.7,7.1-6.9,7.2-4.3   C263.9,287.8,259.6,287,259.5,289.9L259.5,289.9z"
          id="XMLID_176_"/>
    <g><path class="st2" d="M262.4,295.6c-2.1,0-6-2.2-6-5.8c0.3-5,7.6-7,7.7-4.3c0,1.2-1,1.6-2,2.1c-1.1,0.5-2.2,0.9-2.2,2.3    c0,1.3,1,1.8,2.1,2.2c1,0.4,2.1,0.9,2.2,2.2C264,295.2,263.4,295.6,262.4,295.6L262.4,295.6z M262.3,284.7c-1.8,0-5.3,2-5.5,5.2    c0,3.2,3.7,5.3,5.5,5.3c0.5,0,1.1-0.1,1.2-0.8c0-1-0.9-1.3-1.9-1.7c-1.1-0.5-2.4-1-2.4-2.7c0-1.7,1.4-2.2,2.5-2.7    c1.1-0.5,1.8-0.8,1.7-1.6C263.5,284.8,262.9,284.7,262.3,284.7L262.3,284.7z"/></g>
    <path class="st3"
          d="M262,289.9c-0.1,2.9,4.2,2.1,4.2,4.5c-0.1,2.5-7.1,0.2-7.2-4.5c0.3-4.6,7.1-6.9,7.2-4.3   C266.4,287.8,262.1,287,262,289.9L262,289.9z"
          id="XMLID_173_"/>
    <g><path class="st2" d="M264.9,295.7c-2.1,0-6-2.2-6-5.8c0.3-5,7.6-7,7.7-4.3c0,1.2-1,1.6-2,2.1c-1.1,0.5-2.2,0.9-2.2,2.3    c0,1.3,1,1.8,2.1,2.2c1,0.4,2.1,0.9,2.2,2.2C266.5,295.2,265.9,295.7,264.9,295.7L264.9,295.7z M264.8,284.7c-1.8,0-5.3,2-5.5,5.2    c0,3.2,3.7,5.3,5.5,5.3c0.5,0,1.1-0.1,1.2-0.8c0-1-0.9-1.3-1.9-1.7c-1.1-0.5-2.4-1-2.4-2.7c0-1.7,1.4-2.3,2.5-2.7    c1.1-0.5,1.8-0.8,1.7-1.6C266,284.9,265.4,284.7,264.8,284.7L264.8,284.7z"/></g>
    <path class="st6"
          d="M274,287.1c1.3,0,2.4,1.1,2.4,2.5c0,1.4-1.1,2.4-2.5,2.4c-1.3,0-2.4-1.1-2.4-2.5   C271.6,288.1,272.7,287.1,274,287.1L274,287.1z"
          id="XMLID_170_"/>
    <g><path class="st2" d="M274,292.3L274,292.3c-0.7,0-1.4-0.3-1.9-0.8c-0.5-0.5-0.8-1.2-0.8-1.9c0-1.5,1.2-2.7,2.7-2.7    c0.7,0,1.4,0.3,1.9,0.8c0.5,0.5,0.8,1.2,0.8,2C276.6,291.1,275.4,292.3,274,292.3L274,292.3z M274,287.3c-1.2,0-2.2,1-2.2,2.2    c0,0.6,0.2,1.2,0.6,1.6c0.4,0.4,0.9,0.6,1.5,0.7l0,0.3v-0.3c1.2,0,2.2-1,2.2-2.2c0-0.6-0.2-1.2-0.6-1.6    C275.2,287.6,274.6,287.3,274,287.3L274,287.3L274,287.3z"/></g>
    <path class="st0"
          d="M258.9,276.5c1.2-0.2,2.4,1.8,2.7,4.4c0.3,2.6-0.5,4.9-1.6,5.1c-1.2,0.2-2.4-1.8-2.7-4.4   C257,279,257.7,276.7,258.9,276.5L258.9,276.5z"
          id="XMLID_167_"/>
    <g><path class="st2" d="M259.8,286.3c-1.3,0-2.5-2-2.8-4.7c-0.3-2.8,0.5-5.1,1.9-5.3c0,0,0,0,0,0c1.5,0,2.6,2,2.9,4.7    c0.3,2.8-0.5,5.1-1.9,5.3L259.8,286.3L259.8,286.3z M259.1,276.8c-1,0.2-1.8,2.1-1.5,4.8c0.3,2.6,1.4,4.2,2.3,4.2v0.3l0.1-0.3    c0.9-0.1,1.7-2.1,1.4-4.8C261,278.4,259.9,276.8,259.1,276.8L259.1,276.8z"/></g>
    <path class="st0"
          d="M255.2,276.3c1.2-0.2,2.4,1.8,2.7,4.4c0.3,2.6-0.5,4.9-1.6,5.1c-1.2,0.2-2.4-1.8-2.7-4.4   C253.3,278.7,254.1,276.4,255.2,276.3L255.2,276.3z"
          id="XMLID_164_"/>
    <g><path class="st2" d="M256.1,286c-1.3,0-2.5-2-2.8-4.7c-0.3-2.8,0.5-5.1,1.9-5.3c0,0,0,0,0,0c1.5,0,2.6,2,2.9,4.7    c0.3,2.8-0.5,5.1-1.9,5.3L256.1,286L256.1,286z M255.4,276.5c-1,0.2-1.8,2.1-1.5,4.8c0.3,2.6,1.4,4.2,2.3,4.2v0.3l0.1-0.3    c0.9-0.1,1.7-2.1,1.4-4.8C257.4,278.1,256.3,276.5,255.4,276.5L255.4,276.5z"/></g>
    <path class="st0"
          d="M252.6,271.6c1.2-0.2,2.4,1.8,2.7,4.4c0.3,2.6-0.5,4.9-1.6,5.1c-1.2,0.2-2.4-1.8-2.7-4.4   C250.7,274,251.4,271.7,252.6,271.6L252.6,271.6z"
          id="XMLID_161_"/>
    <g><path class="st2" d="M253.5,281.3c-1.3,0-2.5-2-2.8-4.7c-0.3-2.8,0.5-5.2,1.9-5.3c0,0,0,0,0,0c1.5,0,2.6,2,2.9,4.6    c0.3,2.8-0.5,5.1-1.9,5.3L253.5,281.3L253.5,281.3z M252.8,271.8c-1,0.1-1.8,2.1-1.5,4.8c0.3,2.6,1.4,4.2,2.3,4.2v0.3l0.1-0.3    c0.9-0.1,1.7-2.1,1.4-4.8C254.8,273.4,253.6,271.8,252.8,271.8L252.8,271.8z"/></g>
    <path class="st0"
          d="M256.3,270.9c1.1-0.2,2.3,2,2.6,4.9c0.3,2.9-0.4,5.4-1.5,5.6c-1.1,0.2-2.3-2-2.6-4.9   C254.5,273.6,255.1,271.1,256.3,270.9L256.3,270.9z"
          id="XMLID_158_"/>
    <g><path class="st2" d="M257.3,281.6c-1.3,0-2.4-2.2-2.7-5.1c-0.3-3.1,0.4-5.6,1.7-5.8c0,0,0,0,0,0c1.4,0,2.6,2.2,2.9,5.1    c0.3,3.1-0.4,5.6-1.7,5.8L257.3,281.6L257.3,281.6z M256.4,271.1c-1,0.1-1.7,2.3-1.4,5.3c0.3,2.8,1.4,4.7,2.2,4.7v0.3l0.1-0.3    c0.9-0.1,1.6-2.3,1.3-5.3C258.4,273,257.3,271.1,256.4,271.1L256.4,271.1z"/></g>
    <path class="st5"
          d="M261.4,271.2c1.1-0.2,2.3,1.9,2.6,4.6c0.3,2.7-0.4,5.1-1.5,5.2c-1.1,0.2-2.3-1.9-2.6-4.6   C259.6,273.8,260.3,271.4,261.4,271.2L261.4,271.2z"
          id="XMLID_155_"/>
    <g><path class="st2" d="M262.4,281.3c-1.3,0-2.4-2.1-2.7-4.8c-0.3-2.9,0.5-5.3,1.7-5.5c0,0,0,0,0,0c1.4,0,2.6,2.1,2.9,4.8    c0.3,2.9-0.5,5.3-1.7,5.5L262.4,281.3L262.4,281.3z M261.6,271.5c-1,0.1-1.7,2.2-1.4,5c0.3,2.7,1.4,4.4,2.2,4.4v0.3l0.1-0.3    c0.9-0.1,1.6-2.2,1.3-5C263.5,273.2,262.4,271.5,261.6,271.5L261.6,271.5z"/></g>
    <path class="st5"
          d="M258.6,269.6c1.1-0.2,2.3,1.9,2.6,4.6c0.3,2.7-0.4,5.1-1.5,5.2c-1.1,0.2-2.3-1.9-2.6-4.6   C256.8,272.1,257.5,269.7,258.6,269.6L258.6,269.6z"
          id="XMLID_152_"/>
    <g><path class="st2" d="M259.5,279.6c-1.2,0-2.4-2.1-2.7-4.8c-0.3-2.9,0.5-5.3,1.8-5.5c0,0,0,0,0,0c1.4,0,2.6,2.1,2.9,4.8    c0.3,2.9-0.5,5.3-1.7,5.5L259.5,279.6L259.5,279.6z M258.8,269.8c-1,0.1-1.7,2.2-1.4,5c0.3,2.7,1.4,4.4,2.2,4.4v0.3l0.1-0.3    c0.9-0.1,1.6-2.2,1.3-5C260.7,271.5,259.6,269.8,258.8,269.8L258.8,269.8z"/></g>
    <path class="st5"
          d="M255.1,267.1c1.1-0.2,2.3,1.9,2.6,4.6c0.3,2.7-0.4,5.1-1.5,5.2c-1.1,0.2-2.3-1.9-2.6-4.6   C253.2,269.6,253.9,267.3,255.1,267.1L255.1,267.1z"
          id="XMLID_149_"/>
    <g><path class="st2" d="M256,277.2c-1.3,0-2.4-2.1-2.7-4.8c-0.3-2.9,0.5-5.3,1.8-5.5c0,0,0,0,0,0c1.4,0,2.6,2.1,2.9,4.8    c0.3,2.9-0.5,5.3-1.7,5.5L256,277.2L256,277.2z M255.2,267.3c-1,0.1-1.7,2.2-1.4,5c0.3,2.7,1.4,4.4,2.2,4.4v0.3l0.1-0.3    c0.9-0.1,1.6-2.2,1.3-5C257.1,269,256,267.3,255.2,267.3L255.2,267.3z"/></g>
    <path class="st0"
          d="M251.8,265.6c1.1-0.2,2.3,1.9,2.6,4.6c0.3,2.7-0.4,5.1-1.5,5.2c-1.1,0.2-2.3-1.9-2.6-4.6   C250,268.1,250.6,265.8,251.8,265.6L251.8,265.6z"
          id="XMLID_146_"/>
    <g><path class="st2" d="M252.7,275.7c-1.3,0-2.4-2.1-2.7-4.8c-0.3-2.9,0.5-5.3,1.7-5.5c0,0,0,0,0,0c1.4,0,2.6,2.1,2.9,4.8    c0.3,2.9-0.5,5.3-1.7,5.5L252.7,275.7L252.7,275.7z M251.9,265.9c-1,0.1-1.7,2.2-1.4,5c0.3,2.7,1.4,4.4,2.2,4.4v0.3l0.1-0.3    c0.9-0.1,1.6-2.2,1.3-5C253.8,267.5,252.8,265.9,251.9,265.9L251.9,265.9z"/></g>
    <path class="st7"
          d="M248.7,229.8c0,0-7.3,6.3-6.5,23.5c0.9,17.2,16.1,25.3,16.1,25.3s3.9-4.9,3.4-18.7   c-1.1-20.2-8.3-29.2-8.3-29.2L248.7,229.8z"
          id="XMLID_143_"/>
    <g><path class="st2" d="M258.4,278.9l-0.2-0.1c-0.2-0.1-15.3-8.4-16.3-25.5c-0.8-17.1,6.5-23.6,6.6-23.7l5,0.8    c0.2,0.2,7.4,9.3,8.5,29.4c0.5,13.8-3.3,18.7-3.5,18.9L258.4,278.9L258.4,278.9z M248.6,230c0.1,0-7,6.4-6.2,23.2    c0.8,15.8,14,24,15.8,25c0.6-1,3.6-6.2,3.3-18.4c-1.1-19.9-8.1-28.9-8.2-29L248.6,230L248.6,230z"/></g>
    <path class="st0"
          d="M265.4,277.1c1.2,0,2,2.2,1.8,4.8c-0.2,2.6-1.3,4.7-2.5,4.7c-1.2,0-2-2.2-1.8-4.8   C263.1,279.2,264.2,277,265.4,277.1L265.4,277.1z"
          id="XMLID_140_"/>
    <g><path class="st2" d="M264.8,286.9L264.8,286.9c-0.4,0-0.8-0.2-1.1-0.5c-0.8-0.9-1.2-2.6-1-4.6c0.2-2.8,1.4-4.9,2.7-4.9    c0.4,0,0.8,0.2,1.1,0.5c0.8,0.9,1.2,2.6,1,4.6C267.3,284.7,266.1,286.9,264.8,286.9L264.8,286.9z M265.4,277.3    c-0.9,0-2.1,1.8-2.3,4.5c-0.1,1.8,0.2,3.4,0.9,4.2c0.2,0.2,0.5,0.4,0.7,0.4l0,0.3v-0.3c0.9,0,2-1.8,2.2-4.5    c0.1-1.8-0.2-3.4-0.9-4.2C265.9,277.5,265.7,277.3,265.4,277.3L265.4,277.3L265.4,277.3z"/></g>
    <path class="st0"
          d="M261.9,276.1c1.2,0,2,2.2,1.8,4.8c-0.2,2.6-1.3,4.7-2.5,4.7c-1.2,0-2-2.2-1.8-4.8   C259.6,278.2,260.7,276.1,261.9,276.1L261.9,276.1z"
          id="XMLID_137_"/>
    <g><path class="st2" d="M261.2,285.9L261.2,285.9c-0.4,0-0.8-0.2-1.1-0.5c-0.8-0.9-1.2-2.6-1-4.6c0.2-2.8,1.4-4.9,2.7-4.9    c0.4,0,0.8,0.2,1.1,0.5c0.8,0.9,1.2,2.6,1,4.6C263.8,283.8,262.6,285.9,261.2,285.9L261.2,285.9z M261.9,276.4    c-0.9,0-2.1,1.8-2.3,4.5c-0.1,1.8,0.2,3.4,0.9,4.2c0.2,0.2,0.4,0.4,0.7,0.4l0,0.3v-0.3c0.9,0,2-1.8,2.2-4.5    c0.1-1.8-0.2-3.4-0.9-4.2C262.4,276.5,262.1,276.4,261.9,276.4L261.9,276.4L261.9,276.4z"/></g>
    <path class="st0"
          d="M260.1,271.1c1.2,0,2,2.2,1.8,4.8c-0.2,2.6-1.3,4.7-2.5,4.7c-1.2,0-2-2.2-1.8-4.8   C257.8,273.1,258.9,271,260.1,271.1L260.1,271.1z"
          id="XMLID_134_"/>
    <g><path class="st2" d="M259.5,280.8L259.5,280.8c-0.4,0-0.8-0.2-1.1-0.5c-0.8-0.9-1.2-2.6-1-4.6c0.2-2.8,1.4-4.9,2.7-4.9    c0.4,0,0.8,0.2,1.1,0.5c0.8,0.9,1.2,2.6,1,4.6C262,278.7,260.8,280.8,259.5,280.8L259.5,280.8z M260.1,271.3    c-0.9,0-2.1,1.8-2.3,4.5c-0.1,1.8,0.2,3.4,0.9,4.2c0.2,0.2,0.5,0.4,0.7,0.4l0,0.3v-0.3c0.9,0,2-1.8,2.2-4.5    c0.1-1.8-0.2-3.4-0.9-4.2C260.6,271.5,260.4,271.3,260.1,271.3L260.1,271.3L260.1,271.3z"/></g>
    <path class="st0"
          d="M263.9,271c1.2,0,1.9,2.4,1.7,5.3c-0.2,2.9-1.3,5.2-2.5,5.2c-1.2,0-1.9-2.4-1.7-5.3   C261.6,273.3,262.7,271,263.9,271L263.9,271z"
          id="XMLID_131_"/>
    <g><path class="st2" d="M263.1,281.8L263.1,281.8c-0.4,0-0.7-0.2-0.9-0.5c-0.8-0.9-1.2-2.9-1-5.1c0.3-3.9,2.4-6.4,3.7-5    c0.8,0.9,1.2,2.9,1,5.1C265.6,279.4,264.4,281.8,263.1,281.8L263.1,281.8z M263.9,271.3c-0.9,0-2,2-2.2,5c-0.2,2.1,0.2,4,0.9,4.7    c0.2,0.2,0.4,0.3,0.6,0.3l0,0.3v-0.3c0.9,0,2-2,2.2-5c0.2-2.1-0.2-4-0.9-4.7C264.3,271.4,264.1,271.3,263.9,271.3L263.9,271.3z"/></g>
    <path class="st0"
          d="M268.9,272.3c1.2,0,1.9,2.3,1.7,5c-0.2,2.7-1.3,4.9-2.5,4.9c-1.2,0-1.9-2.3-1.7-5   C266.6,274.5,267.7,272.3,268.9,272.3L268.9,272.3z"
          id="XMLID_128_"/>
    <g><path class="st2" d="M268.2,282.4L268.2,282.4c-0.4,0-0.7-0.2-1-0.5c-0.8-0.8-1.2-2.7-1-4.8c0.2-2.9,1.4-5.1,2.7-5.1    c0.4,0,0.7,0.2,1,0.5c0.8,0.8,1.2,2.7,1,4.8C270.7,280.2,269.5,282.4,268.2,282.4L268.2,282.4z M268.9,272.6c-0.9,0-2,1.9-2.2,4.6    c-0.1,1.9,0.2,3.6,0.9,4.4c0.2,0.2,0.4,0.3,0.6,0.3l0,0.3v-0.3c0.9,0,2-1.9,2.2-4.6c0.1-1.9-0.2-3.6-0.9-4.4    C269.3,272.7,269.1,272.6,268.9,272.6L268.9,272.6z"/></g>
    <path class="st0"
          d="M266.4,270.2c1.2,0,1.9,2.3,1.7,5c-0.2,2.7-1.3,4.9-2.4,4.9s-1.9-2.3-1.7-5   C264.2,272.3,265.3,270.1,266.4,270.2L266.4,270.2z"
          id="XMLID_125_"/>
    <g><path class="st2" d="M265.7,280.3L265.7,280.3c-0.4,0-0.7-0.2-1-0.5c-0.8-0.8-1.2-2.7-1-4.8c0.2-2.9,1.4-5.1,2.7-5.1    c0.4,0,0.7,0.2,1,0.5c0.8,0.8,1.2,2.7,1,4.8C268.2,278,267,280.3,265.7,280.3L265.7,280.3z M266.4,270.4c-0.9,0-2,1.9-2.2,4.6    c-0.1,1.9,0.2,3.6,0.9,4.4c0.2,0.2,0.4,0.3,0.6,0.3l0,0.3v-0.3c0.9,0,2-1.9,2.2-4.6c0.1-1.9-0.2-3.6-0.9-4.4    C266.8,270.5,266.6,270.4,266.4,270.4L266.4,270.4z"/></g>
    <path class="st0"
          d="M263.4,267.1c1.2,0,1.9,2.3,1.7,5c-0.2,2.7-1.3,4.9-2.5,4.9c-1.2,0-1.9-2.3-1.7-5   C261.1,269.3,262.2,267.1,263.4,267.1L263.4,267.1z"
          id="XMLID_122_"/>
    <g><path class="st2" d="M262.7,277.2L262.7,277.2c-0.4,0-0.7-0.2-1-0.5c-0.8-0.8-1.2-2.7-1-4.8c0.2-2.9,1.4-5.1,2.7-5.1    c0.4,0,0.7,0.2,1,0.5c0.8,0.8,1.2,2.7,1,4.8C265.1,275,263.9,277.2,262.7,277.2L262.7,277.2z M263.3,267.4c-0.9,0-2,1.9-2.2,4.6    c-0.1,1.9,0.2,3.7,0.9,4.4c0.2,0.2,0.4,0.3,0.6,0.3l0,0.3v-0.3c0.9,0,2-1.9,2.2-4.6c0.1-1.9-0.2-3.7-0.9-4.4    C263.8,267.5,263.6,267.4,263.3,267.4L263.3,267.4z"/></g>
    <path class="st0"
          d="M260.4,265.1c1.2,0,1.9,2.3,1.7,5c-0.2,2.7-1.3,4.9-2.4,4.9c-1.2,0-1.9-2.3-1.7-5   C258.1,267.2,259.2,265,260.4,265.1L260.4,265.1z"
          id="XMLID_119_"/>
    <g><path class="st2" d="M259.7,275.2L259.7,275.2c-0.4,0-0.7-0.2-1-0.5c-0.8-0.8-1.2-2.7-1-4.8c0.2-2.9,1.4-5.1,2.7-5.1    c0.4,0,0.7,0.2,1,0.5c0.8,0.8,1.2,2.7,1,4.8C262.2,272.9,261,275.2,259.7,275.2L259.7,275.2z M260.4,265.3c-0.9,0-2,1.9-2.2,4.6    c-0.1,1.9,0.2,3.6,0.9,4.4c0.2,0.2,0.4,0.3,0.6,0.3l0,0.3v-0.3c0.9,0,2-1.9,2.2-4.6c0.1-1.9-0.2-3.6-0.9-4.4    C260.8,265.4,260.6,265.3,260.4,265.3L260.4,265.3z"/></g>
    <path class="st4"
          d="M256.7,241.9c3.2-1.2,9.1,5.6,13.2,15.1c4.1,9.6,4.9,18.4,1.7,19.6   c-3.2,1.2-9.1-5.6-13.2-15.2C254.3,251.8,253.5,243.1,256.7,241.9L256.7,241.9z"
          id="XMLID_116_"/>
    <g><path class="st2" d="M270.8,277c-3.5,0-8.8-6.5-12.6-15.4c-3.3-7.6-4.5-14.9-3.1-18.2c0.4-0.8,0.9-1.4,1.6-1.7    c3.3-1.3,9.3,5.5,13.5,15.3c3.3,7.6,4.5,14.9,3.1,18.2c-0.4,0.9-0.9,1.4-1.6,1.7C271.4,276.9,271.1,277,270.8,277L270.8,277z     M257.5,242c-0.3,0-0.5,0-0.7,0.1c-0.5,0.2-1,0.7-1.3,1.4c-1.3,3.2-0.1,10.4,3.1,17.9c4,9.3,9.9,16.2,12.9,15    c0.5-0.2,1-0.7,1.3-1.4c1.3-3.2,0.1-10.4-3.1-17.9C265.9,248.5,260.7,242,257.5,242L257.5,242z"/></g>
    <path class="st5"
          d="M259.4,239.1c1.5,0,2.7,1.1,2.6,2.4c0,1.3-1.2,2.4-2.7,2.3c-1.5,0-2.7-1.1-2.6-2.4   C256.7,240.1,258,239.1,259.4,239.1L259.4,239.1z"
          id="XMLID_113_"/>
    <g><path class="st2" d="M259.4,244.1L259.4,244.1c-1.7,0-3-1.2-2.9-2.7c0-1.4,1.3-2.6,2.9-2.6c1.7,0,3,1.2,2.9,2.7    C262.3,242.9,261,244.1,259.4,244.1L259.4,244.1z M259.4,239.3c-1.4,0-2.4,0.9-2.5,2.1c0,1.2,1.1,2.1,2.4,2.2l0,0.3v-0.3    c1.3,0,2.4-0.9,2.4-2.1C261.9,240.3,260.8,239.4,259.4,239.3L259.4,239.3L259.4,239.3z"/></g>
    <path class="st5"
          d="M261.5,235.7c1.3,0,2.4,1.1,2.4,2.4c0,1.3-1.1,2.4-2.4,2.3c-1.3,0-2.4-1.1-2.4-2.4   C259,236.8,260.1,235.7,261.5,235.7L261.5,235.7z"
          id="XMLID_110_"/>
    <g><path class="st2" d="M261.4,240.7L261.4,240.7c-0.8,0-1.4-0.3-1.9-0.8c-0.5-0.5-0.8-1.2-0.7-1.9c0-1.4,1.2-2.6,2.7-2.6    c0.8,0,1.4,0.3,1.9,0.8c0.5,0.5,0.8,1.2,0.7,1.9C264.1,239.6,262.9,240.7,261.4,240.7L261.4,240.7z M261.5,236    c-1.2,0-2.2,0.9-2.2,2.1c0,0.6,0.2,1.1,0.6,1.5c0.4,0.4,0.9,0.6,1.5,0.6l0,0.3v-0.3c1.2,0,2.1-0.9,2.2-2.1c0-0.6-0.2-1.1-0.6-1.5    C262.6,236.2,262,236,261.5,236L261.5,236L261.5,236z"/></g>
    <path class="st5"
          d="M258.2,235.7c1.3,0,2.4,1.1,2.4,2.4c0,1.3-1.1,2.4-2.5,2.3c-1.3,0-2.4-1.1-2.4-2.4   C255.8,236.7,256.9,235.7,258.2,235.7L258.2,235.7z"
          id="XMLID_107_"/>
    <g><path class="st2" d="M258.2,240.7L258.2,240.7c-1.5,0-2.7-1.2-2.7-2.7c0-1.4,1.2-2.6,2.7-2.6c0.8,0,1.4,0.3,1.9,0.8    c0.5,0.5,0.8,1.2,0.7,1.9C260.8,239.5,259.6,240.7,258.2,240.7L258.2,240.7z M258.2,235.9c-1.2,0-2.2,0.9-2.2,2.1    c0,1.2,0.9,2.1,2.1,2.2l0,0.3v-0.3c1.2,0,2.1-0.9,2.2-2.1c0-0.6-0.2-1.1-0.6-1.5S258.8,235.9,258.2,235.9    C258.2,235.9,258.2,235.9,258.2,235.9L258.2,235.9z"/></g>
    <path class="st0"
          d="M258.9,233.4c1.4,0,2.5,1,2.5,2.3c0,1.2-1.2,2.2-2.6,2.2s-2.5-1-2.5-2.3   C256.4,234.3,257.5,233.4,258.9,233.4L258.9,233.4z"
          id="XMLID_104_"/>
    <g><path class="st2" d="M258.9,238.1L258.9,238.1c-0.8,0-1.6-0.3-2.1-0.9c-0.4-0.5-0.7-1.1-0.7-1.7c0-1.3,1.3-2.4,2.8-2.4    c0.8,0,1.6,0.3,2.1,0.9c0.4,0.5,0.7,1.1,0.7,1.7C261.6,237,260.4,238.1,258.9,238.1L258.9,238.1z M258.9,233.6    c-1.3,0-2.3,0.9-2.3,1.9c0,0.5,0.2,0.9,0.5,1.3c0.4,0.4,1,0.7,1.7,0.7l0,0.3v-0.3c1.2,0,2.2-0.9,2.3-1.9c0-0.5-0.2-0.9-0.5-1.3    C260.2,233.9,259.6,233.6,258.9,233.6C258.9,233.6,258.9,233.6,258.9,233.6L258.9,233.6z"/></g>
    <path class="st0"
          d="M258.6,230.6c1.4,0,2.5,1,2.5,2.3c0,1.2-1.2,2.2-2.6,2.2c-1.4,0-2.5-1-2.5-2.3   C256.1,231.5,257.3,230.5,258.6,230.6L258.6,230.6z"
          id="XMLID_101_"/>
    <g><path class="st2" d="M258.6,235.3L258.6,235.3c-1.6,0-2.8-1.2-2.8-2.5c0-1.4,1.2-2.4,2.8-2.4c1.6,0,2.8,1.2,2.8,2.5    C261.3,234.2,260.1,235.3,258.6,235.3L258.6,235.3z M258.6,230.8c-1.3,0-2.3,0.8-2.3,1.9c0,1.1,1,2,2.2,2l0,0.3v-0.3    c1.2,0,2.2-0.9,2.3-1.9C260.9,231.7,259.9,230.8,258.6,230.8L258.6,230.8L258.6,230.8z"/></g>
    <path class="st0"
          d="M255.1,233.8c1.3,0,2.4,1.1,2.4,2.4c0,1.3-1.1,2.4-2.4,2.3c-1.3,0-2.4-1.1-2.4-2.4   C252.7,234.8,253.8,233.8,255.1,233.8L255.1,233.8z"
          id="XMLID_98_"/>
    <g><path class="st2" d="M255.1,238.8L255.1,238.8c-0.8,0-1.4-0.3-1.9-0.8c-0.5-0.5-0.8-1.2-0.7-1.9c0-1.4,1.2-2.6,2.7-2.6    c0.8,0,1.4,0.3,1.9,0.8c0.5,0.5,0.8,1.2,0.7,1.9C257.7,237.6,256.5,238.8,255.1,238.8L255.1,238.8z M255.1,234    c-1.2,0-2.2,0.9-2.2,2.1c0,0.6,0.2,1.1,0.6,1.5c0.4,0.4,0.9,0.6,1.5,0.6l0,0.3v-0.3c1.2,0,2.1-0.9,2.2-2.1c0-0.6-0.2-1.1-0.6-1.5    C256.2,234.3,255.7,234,255.1,234L255.1,234L255.1,234z"/></g>
    <path class="st0"
          d="M255.8,230.8c1.3,0,2.4,1.1,2.4,2.4c0,1.3-1.1,2.3-2.4,2.3c-1.3,0-2.4-1.1-2.4-2.4   C253.4,231.8,254.5,230.8,255.8,230.8L255.8,230.8z"
          id="XMLID_95_"/>
    <g><path class="st2" d="M255.8,235.7L255.8,235.7c-1.5,0-2.7-1.2-2.7-2.6c0-1.4,1.2-2.5,2.7-2.5c1.5,0,2.7,1.2,2.7,2.6    C258.4,234.6,257.2,235.7,255.8,235.7L255.8,235.7z M255.8,231.1c-1.2,0-2.2,0.9-2.2,2c0,1.1,0.9,2.1,2.1,2.1l0,0.3v-0.3    c1.2,0,2.1-0.9,2.2-2C258,232,257,231.1,255.8,231.1L255.8,231.1L255.8,231.1z"/></g>
    <path class="st0"
          d="M251.9,230.8c1.5,0,2.7,1.1,2.6,2.4c0,1.3-1.2,2.3-2.7,2.3c-1.5,0-2.7-1.1-2.6-2.4   C249.2,231.8,250.4,230.8,251.9,230.8L251.9,230.8z"
          id="XMLID_92_"/>
    <g><path class="st2" d="M251.8,235.8L251.8,235.8c-0.9,0-1.7-0.3-2.2-0.9c-0.5-0.5-0.7-1.1-0.7-1.8c0-1.4,1.3-2.6,2.9-2.6    c1.7,0,3,1.2,2.9,2.7C254.7,234.7,253.4,235.8,251.8,235.8L251.8,235.8z M251.9,231.1c-1.4,0-2.5,0.9-2.5,2.1c0,0.5,0.2,1,0.6,1.4    c0.5,0.5,1.1,0.7,1.8,0.8l0,0.3v-0.3c1.3,0,2.4-0.9,2.4-2.1C254.3,232.1,253.2,231.1,251.9,231.1L251.9,231.1L251.9,231.1z"/></g>
    <path class="st0"
          d="M256.8,227c1.4,0,2.5,1,2.5,2.3c0,1.2-1.2,2.2-2.6,2.2c-1.4,0-2.5-1-2.5-2.3   C254.3,228,255.4,227,256.8,227L256.8,227z"
          id="XMLID_89_"/>
    <g><path class="st2" d="M256.8,231.7L256.8,231.7c-0.9,0-1.6-0.3-2.1-0.9c-0.4-0.5-0.7-1.1-0.7-1.7c0-1.4,1.2-2.4,2.8-2.4    c1.6,0,2.8,1.2,2.8,2.5C259.5,230.7,258.3,231.7,256.8,231.7L256.8,231.7z M256.8,227.3c-1.3,0-2.3,0.8-2.3,1.9    c0,0.5,0.2,0.9,0.5,1.3c0.4,0.4,1,0.7,1.7,0.7l0.1,0.3v-0.3c1.2,0,2.2-0.9,2.2-1.9C259.1,228.2,258,227.3,256.8,227.3L256.8,227.3    L256.8,227.3z"/></g>
    <path class="st0"
          d="M253.4,227.4c1.3,0,2.4,1.1,2.4,2.4c0,1.3-1.1,2.3-2.5,2.3c-1.3,0-2.4-1.1-2.4-2.4   C251,228.4,252.1,227.4,253.4,227.4L253.4,227.4z"
          id="XMLID_86_"/>
    <g><path class="st2" d="M253.4,232.3L253.4,232.3c-0.8,0-1.4-0.3-1.9-0.8c-0.5-0.5-0.8-1.1-0.7-1.8c0-1.4,1.2-2.5,2.7-2.5    c1.5,0,2.7,1.2,2.7,2.6C256,231.1,254.8,232.3,253.4,232.3L253.4,232.3z M253.4,227.6c-1.2,0-2.2,0.9-2.2,2c0,0.5,0.2,1.1,0.6,1.5    c0.4,0.4,0.9,0.6,1.5,0.6l0,0.3v-0.3c1.2,0,2.1-0.9,2.2-2C255.6,228.6,254.6,227.6,253.4,227.6L253.4,227.6L253.4,227.6z"/></g>
    <path class="st0"
          d="M248.3,231c1.3,0,2.4,1.1,2.4,2.4c0,1.3-1.1,2.4-2.4,2.3c-1.3,0-2.4-1.1-2.4-2.4   C245.9,232,247,230.9,248.3,231L248.3,231z"
          id="XMLID_83_"/>
    <g><path class="st2" d="M248.3,236L248.3,236c-0.8,0-1.4-0.3-1.9-0.8c-0.5-0.5-0.8-1.2-0.7-1.9c0-1.4,1.2-2.6,2.7-2.6    c0.8,0,1.4,0.3,1.9,0.8c0.5,0.5,0.8,1.2,0.7,1.9C250.9,234.8,249.7,236,248.3,236L248.3,236z M248.3,231.2c-1.2,0-2.2,0.9-2.2,2.1    c0,0.6,0.2,1.1,0.6,1.5c0.4,0.4,0.9,0.6,1.5,0.6l0,0.3v-0.3c1.2,0,2.1-0.9,2.2-2.1c0-0.6-0.2-1.1-0.6-1.5    C249.5,231.5,248.9,231.2,248.3,231.2L248.3,231.2L248.3,231.2z"/></g>
    <path class="st0"
          d="M249.2,229.2c1.3,0,2.4,1.1,2.4,2.4c0,1.3-1.1,2.3-2.4,2.3c-1.3,0-2.4-1.1-2.4-2.4   C246.8,230.2,247.9,229.2,249.2,229.2L249.2,229.2z"
          id="XMLID_80_"/>
    <g><path class="st2" d="M249.1,234.1L249.1,234.1c-0.7,0-1.4-0.3-1.9-0.8c-0.5-0.5-0.8-1.1-0.7-1.8c0-1.4,1.2-2.5,2.7-2.5    c0.8,0,1.4,0.3,1.9,0.8c0.5,0.5,0.8,1.1,0.7,1.8C251.8,233,250.6,234.1,249.1,234.1L249.1,234.1z M249.2,229.5    c-1.2,0-2.2,0.9-2.2,2c0,0.5,0.2,1.1,0.6,1.5c0.4,0.4,0.9,0.6,1.5,0.6l0,0.3v-0.3c1.2,0,2.1-0.9,2.2-2c0-0.5-0.2-1.1-0.6-1.5    C250.3,229.7,249.8,229.5,249.2,229.5L249.2,229.5L249.2,229.5z"/></g>
    <path class="st0"
          d="M250.2,227.3c1.3,0,2.4,1.1,2.4,2.4c0,1.3-1.1,2.3-2.4,2.3c-1.3,0-2.4-1.1-2.4-2.4   C247.8,228.3,248.9,227.3,250.2,227.3L250.2,227.3z"
          id="XMLID_77_"/>
    <g><path class="st2" d="M250.2,232.2L250.2,232.2c-0.8,0-1.4-0.3-1.9-0.8c-0.5-0.5-0.8-1.1-0.7-1.8c0-1.4,1.2-2.5,2.7-2.5    c0.8,0,1.4,0.3,1.9,0.8c0.5,0.5,0.8,1.1,0.7,1.8C252.8,231,251.6,232.2,250.2,232.2L250.2,232.2z M250.2,227.5    c-1.2,0-2.2,0.9-2.2,2c0,0.6,0.2,1.1,0.6,1.5c0.4,0.4,0.9,0.6,1.5,0.6l0,0.3v-0.3c1.2,0,2.1-0.9,2.2-2c0-0.5-0.2-1.1-0.6-1.5    C251.3,227.8,250.8,227.5,250.2,227.5L250.2,227.5L250.2,227.5z"/></g>
    <path class="st0"
          d="M257,235.6c4.1-1.4,11.3,6.7,16.3,18.1c4.9,11.4,5.6,21.8,1.5,23.3   c-4.1,1.4-11.3-6.7-16.3-18.1C253.7,247.5,253,237,257,235.6L257,235.6z"
          id="XMLID_74_"/>
    <g><path class="st2" d="M273.8,277.4c-4.3,0-11-7.9-15.5-18.4c-3.8-8.9-5.2-17.5-3.4-21.5c0.5-1.1,1.2-1.8,2.1-2.1    c4.2-1.5,11.7,6.8,16.6,18.2c3.8,8.9,5.2,17.5,3.4,21.5c-0.5,1.1-1.2,1.8-2.1,2.1C274.6,277.3,274.2,277.4,273.8,277.4    L273.8,277.4z M258,235.7c-0.3,0-0.6,0.1-0.9,0.2c-0.8,0.3-1.4,0.9-1.8,1.9c-1.7,3.9-0.3,12.3,3.4,21.1    c4.8,11.1,12,19.3,15.9,17.9c0.8-0.3,1.4-0.9,1.8-1.9c1.7-3.9,0.3-12.3-3.5-21.1C268.6,243.5,262.2,235.7,258,235.7L258,235.7z"/></g>
    <path class="st0"
          d="M270.4,255.6c0.8-0.4,2.2,1.3,3.3,3.7c1.1,2.4,1.3,4.6,0.6,5c-0.8,0.4-2.2-1.3-3.3-3.7   C269.9,258.2,269.7,255.9,270.4,255.6L270.4,255.6z"
          id="XMLID_71_"/>
    <g><path class="st2" d="M274,264.5c-1.1,0-2.5-2-3.3-3.9c-1-2.3-1.5-4.8-0.4-5.3c1.5,0,2.8,1.9,3.6,3.8c1,2.2,1.5,4.8,0.4,5.3    L274,264.5L274,264.5z M270.6,255.8c-0.6,0.3-0.6,2.1,0.6,4.7c1,2.2,2.2,3.6,2.8,3.6v0.3l0.1-0.3c0.5-0.2,0.5-2.1-0.7-4.6    C272.5,257.1,271.2,255.8,270.6,255.8L270.6,255.8z"/></g>
    <path class="st0"
          d="M271.7,259.9c6.4,7.8,5.6,12.7,4.9,16.9c-2-4.8-3.1-7.8-9.5-15.6c-6.4-7.8-3.2-13.2-2.8-16.1   C265.3,247.5,265.3,252.1,271.7,259.9L271.7,259.9z"
          id="XMLID_68_"/>
    <g><path class="st2" d="M276.7,277.6l-0.6-1.5c-1.8-4.4-3.1-7.5-9.1-14.9c-5.4-6.6-4-11.6-3.2-14.6c0.2-0.6,0.3-1.2,0.4-1.6    c0.7,0.5,0.9,1.1,1,1.9c0.7,2.7,1.7,6.8,6.7,12.8c6.4,7.8,5.6,12.9,5,17L276.7,277.6L276.7,277.6z M264.4,245.9    c0,0.3-0.1,0.6-0.2,0.9c-0.8,3.1-2.1,7.8,3.1,14.2c6,7.3,7.4,10.5,9.2,14.8c0.6-4,0.9-8.6-5-15.8c-5-6.1-6.1-10.3-6.8-13    C264.5,246.6,264.5,246.3,264.4,245.9L264.4,245.9z"/></g>
    <path class="st0"
          d="M272.2,266.2c6.4,7.8,5.6,12.7,4.9,16.9c-2-4.8-3.1-7.8-9.5-15.6c-6.4-7.8-3.2-13.2-2.8-16.1   C265.9,253.8,265.9,258.4,272.2,266.2L272.2,266.2z"
          id="XMLID_65_"/>
    <g><path class="st2" d="M277.3,283.9l-0.6-1.5c-1.8-4.3-3.1-7.5-9.1-14.8c-5.4-6.6-4-11.6-3.2-14.7c0.2-0.6,0.3-1.2,0.4-1.6    c0.7,0.5,0.9,1.1,1,1.9c0.7,2.7,1.7,6.8,6.7,12.9c6.4,7.8,5.6,12.9,5,17L277.3,283.9L277.3,283.9z M264.9,252.2    c0,0.3-0.1,0.5-0.2,0.8c-0.8,3.1-2.1,7.8,3.1,14.2c6,7.3,7.4,10.5,9.2,14.8c0.6-4,0.9-8.6-5-15.8c-5.1-6.2-6.1-10.3-6.8-13    C265.1,252.9,265,252.5,264.9,252.2L264.9,252.2z"/></g>
    <path class="st0"
          d="M272.4,271.2c6.5,7.6,5.8,12.6,5.2,16.8c-2.1-4.8-3.3-7.8-9.8-15.4c-6.5-7.6-3.5-13.1-3.1-16   C265.8,259,265.9,263.6,272.4,271.2L272.4,271.2z"
          id="XMLID_62_"/>
    <g><path class="st2" d="M277.8,288.8l-0.7-1.5c-1.9-4.3-3.3-7.4-9.4-14.6c-5.5-6.4-4.3-11.5-3.5-14.6c0.2-0.6,0.3-1.2,0.4-1.6    c0.7,0.5,0.9,1.1,1.1,1.8c0.7,2.7,1.9,6.7,7,12.7c6.6,7.7,5.9,12.8,5.3,16.9L277.8,288.8L277.8,288.8z M264.9,257.4    c0,0.3-0.1,0.5-0.2,0.8c-0.8,3.1-2,7.9,3.4,14.1c6.2,7.2,7.6,10.4,9.5,14.6c0.5-4,0.7-8.7-5.3-15.7c-5.2-6.1-6.3-10.2-7.1-12.9    C265,258.1,264.9,257.7,264.9,257.4L264.9,257.4z"/></g>
    <path class="st0"
          d="M264.5,244.9c1.5-0.4,4.2,2.7,6.1,7c1.9,4.2,2.2,8,0.7,8.4c-1.5,0.4-4.2-2.7-6.1-7   C263.3,249,263,245.3,264.5,244.9L264.5,244.9z"
          id="XMLID_59_"/>
    <g><path class="st2" d="M271,260.5c-1.7,0-4.3-3.1-6.1-7.2c-1.5-3.4-2-6.6-1.4-8c0.2-0.4,0.5-0.6,0.9-0.7c0,0,0,0,0,0    c2,0,4.6,3.1,6.3,7.1c1.5,3.4,2,6.6,1.4,8c-0.2,0.4-0.5,0.6-0.8,0.7L271,260.5L271,260.5z M264.8,245.1c-0.4,0.1-0.6,0.2-0.7,0.5    c-0.6,1.2,0,4.3,1.4,7.5c1.9,4.3,4.3,6.9,5.6,6.9v0.2l0.2-0.3c0.2-0.1,0.4-0.2,0.5-0.5c0.6-1.2,0-4.3-1.4-7.5    C268.5,247.7,266,245.1,264.8,245.1L264.8,245.1z"/></g>
    <path class="st0"
          d="M262.7,250.5c1.3-0.2,3.6,2.4,5.1,5.9c1.5,3.5,1.6,6.5,0.2,6.8c-1.3,0.2-3.6-2.4-5.1-5.9   C261.5,253.8,261.4,250.8,262.7,250.5L262.7,250.5z"
          id="XMLID_56_"/>
    <g><path class="st2" d="M267.8,263.5c-1.5,0-3.7-2.6-5.1-6.1c-1.2-2.8-1.5-5.3-0.9-6.5c0.2-0.4,0.5-0.6,0.8-0.6c0,0,0,0,0,0    c1.7,0,3.9,2.6,5.3,6.1c1.2,2.8,1.5,5.3,0.9,6.5c-0.2,0.4-0.5,0.6-0.8,0.6L267.8,263.5L267.8,263.5z M262.9,250.8    c-0.3,0-0.5,0.2-0.6,0.4c-0.5,1-0.2,3.5,0.9,6c1.5,3.6,3.6,5.8,4.7,5.8v0.2l0.1-0.3c0.2,0,0.4-0.2,0.5-0.4c0.5-1,0.2-3.5-0.9-6    C266.1,253,264,250.8,262.9,250.8L262.9,250.8z"/></g>
    <path class="st0"
          d="M259.8,253.4c1.3-0.2,3.6,2.5,4.9,6c1.4,3.5,1.4,6.6,0.1,6.8c-1.3,0.2-3.6-2.5-4.9-6   C258.5,256.6,258.5,253.6,259.8,253.4L259.8,253.4z"
          id="XMLID_53_"/>
    <g><path class="st2" d="M264.7,266.5c-1.5,0-3.6-2.7-5-6.2c-1.1-2.8-1.4-5.3-0.7-6.5c0.2-0.3,0.5-0.6,0.9-0.6c0,0,0,0,0,0    c1.7,0,3.8,2.7,5.2,6.2c1.1,2.8,1.4,5.3,0.7,6.5c-0.2,0.3-0.5,0.6-0.9,0.6L264.7,266.5L264.7,266.5z M260,253.6    c-0.3,0-0.5,0.2-0.6,0.4c-0.6,1-0.3,3.5,0.8,6.1c1.4,3.6,3.5,5.9,4.6,5.9v0.3l0.1-0.3c0.2,0,0.4-0.2,0.5-0.4    c0.6-1,0.3-3.5-0.8-6.1C263.1,255.9,261.1,253.6,260,253.6L260,253.6z"/></g>
    <path class="st0"
          d="M262.6,244.5c1.1-0.2,3,1.8,4.2,4.4c1.3,2.6,1.4,4.9,0.3,5.1c-1.1,0.2-3-1.8-4.2-4.4   C261.6,246.9,261.5,244.7,262.6,244.5L262.6,244.5z"
          id="XMLID_50_"/>
    <g><path class="st2" d="M267,254.2c-1.2,0-3.1-1.9-4.3-4.5c-1-2-1.3-4-0.8-4.9c0.2-0.3,0.4-0.5,0.7-0.6c0,0,0,0,0,0    c1.4,0,3.3,1.9,4.5,4.5c1,2,1.3,4,0.8,4.9c-0.2,0.3-0.4,0.5-0.7,0.6L267,254.2L267,254.2z M262.7,244.7c-0.8,0.9-0.7,2.6,0.4,4.7    c1.3,2.6,3,4.2,3.9,4.2v0.2l0.1-0.3c0.7-0.9,0.6-2.6-0.5-4.7C265.3,246.3,263.6,244.7,262.7,244.7L262.7,244.7z"/></g>
    <path class="st0"
          d="M260.3,246.3c1.1-0.1,2.9,1.9,3.9,4.6c1.1,2.7,1.1,5,0,5.1c-1.1,0.1-2.9-1.9-4-4.6   C259.2,248.7,259.2,246.5,260.3,246.3L260.3,246.3z"
          id="XMLID_47_"/>
    <g><path class="st2" d="M264.1,256.3c-1.2,0-3-2-4.1-4.8c-0.9-2.1-1.1-4-0.5-4.9c0.2-0.3,0.4-0.5,0.8-0.5c0,0,0,0,0,0    c1.4,0,3.1,2,4.2,4.7c0.9,2.1,1.1,4,0.5,4.9c-0.2,0.3-0.4,0.5-0.8,0.5L264.1,256.3L264.1,256.3z M260.4,246.6    c-0.8,0.9-0.8,2.5,0.1,4.8c1.1,2.7,2.7,4.4,3.6,4.4v0.3l0.1-0.3c0.8-1,0.6-2.9-0.2-4.8C262.9,248.3,261.3,246.6,260.4,246.6    L260.4,246.6z"/></g>
    <path class="st0" d="M260.3,248.1c1.9,4.6,2.7,8.8,1.7,9.3c-0.9,0.5-3.2-2.8-5.1-7.4L260.3,248.1z" id="XMLID_44_"/>
    <g><path class="st2" d="M262,257.7l-0.5,0c-1.2-0.4-3.2-3.6-4.8-7.6c2.2,4.1,4.1,6.8,5,7.1c0.9-0.3,0.5-3.9-1.6-8.9    l0.5-0.2C262.3,252.3,263.4,257,262,257.7L262,257.7L262,257.7z" id="XMLID_43_"/></g>
    <path class="st0"
          d="M260,240.9c1.1-0.1,2.9,1.9,4,4.6c1.1,2.7,1.1,5,0,5.1c-1.1,0.1-2.9-1.9-3.9-4.6   C258.9,243.3,258.9,241,260,240.9L260,240.9z"
          id="XMLID_42_"/>
    <g><path class="st2" d="M263.8,250.9c-1.2,0-3-2-4.1-4.8c-0.9-2.1-1.1-4-0.5-4.9c0.2-0.3,0.4-0.5,0.8-0.5h0c1.4,0,3.1,2,4.2,4.7    c0.8,2.1,1.1,4,0.5,4.9c-0.2,0.3-0.4,0.5-0.8,0.5L263.8,250.9L263.8,250.9z M260.1,241.1c-0.9,1-0.7,2.9,0.1,4.8    c1.1,2.7,2.7,4.4,3.6,4.4v0.3l0.1-0.3c0.8-0.9,0.7-2.5-0.2-4.8C262.6,242.8,261,241.1,260.1,241.1L260.1,241.1z"/></g>
    <path class="st0"
          d="M257,242.4c1.1-0.1,2.8,2,3.8,4.7c1,2.7,1,5-0.1,5.1c-1.1,0.1-2.8-2-3.8-4.7   C255.8,244.8,255.9,242.5,257,242.4L257,242.4z"
          id="XMLID_39_"/>
    <g><path class="st2" d="M260.6,252.4c-1.2,0-2.9-2.1-4-4.8c-0.8-2.1-1-4-0.4-4.9c0.2-0.3,0.5-0.5,0.8-0.5h0c1.3,0,3.1,2.1,4.1,4.8    c0.8,2.1,1,4,0.4,4.9c-0.2,0.3-0.5,0.5-0.8,0.5L260.6,252.4L260.6,252.4z M257.1,242.6c-0.9,1-0.7,2.8,0,4.8    c1,2.7,2.6,4.5,3.5,4.5v0.3l0.1-0.3c0.9-1,0.7-2.8-0.1-4.8C259.5,244.4,257.9,242.6,257.1,242.6L257.1,242.6z"/></g>
    <path class="st0" d="M257,241.9c1.8,3.1,2.8,6,2.2,6.5c-0.6,0.5-2.6-1.7-4.4-4.8L257,241.9z" id="XMLID_36_"/>
    <g><path class="st2" d="M259.4,248.6c-1.6-0.1-3.4-2.5-4.8-4.9c2.1,2.6,3.7,4.3,4.4,4.5c0.4-0.3-0.1-2.6-2.2-6.2    l0.4-0.3C258.6,244.1,260.3,247.9,259.4,248.6L259.4,248.6z" id="XMLID_35_"/></g>
    <path class="st0" d="M258.3,239.8c1.8,3.1,2.8,6,2.2,6.5c-0.6,0.5-2.6-1.7-4.4-4.8L258.3,239.8z" id="XMLID_34_"/>
    <g><path class="st2" d="M260.6,246.5c-1.6-0.1-3.4-2.5-4.8-4.9c2.1,2.6,3.7,4.3,4.4,4.5c0.4-0.3-0.1-2.6-2.2-6.2    l0.4-0.3C259.9,242,261.6,245.8,260.6,246.5L260.6,246.5z" id="XMLID_33_"/></g>
    <path class="st0" d="M264,240.3c2.5,4.2,3.9,8.2,3.1,8.9c-0.9,0.6-3.6-2.3-6.2-6.5L264,240.3z" id="XMLID_32_"/>
    <g><path class="st2" d="M266.5,249.5c-1.2-0.2-3.7-3-5.9-6.7c2.8,3.7,5.1,6.1,6,6.2c0.8-0.5-0.1-3.9-2.9-8.6l0.4-0.3    c2.4,3.9,4.1,8.3,3,9.2L266.5,249.5L266.5,249.5z" id="XMLID_31_"/></g>
    <path class="st0" d="M260.2,238c1.8,3.4,2.8,6.6,2.2,7.2c-0.6,0.5-2.6-1.9-4.4-5.3L260.2,238z" id="XMLID_30_"/>
    <g><path class="st2" d="M262.6,245.4c-1.6-0.1-3.5-2.8-4.8-5.4c2.1,2.9,3.8,4.9,4.4,5c0.4-0.3-0.1-2.9-2.2-6.9    l0.4-0.2C261.8,240.5,263.5,244.6,262.6,245.4L262.6,245.4z" id="XMLID_29_"/></g>
    <path class="st7"
          d="M260,233.1c-1.2,1.2,0,3.5,1.1,4.4c1.3,1.1,8.3,8.6,13.3,2.3C270.5,239.7,263,230.3,260,233.1   L260,233.1z"
          id="XMLID_28_"/>
    <g><path class="st2" d="M269.8,242.5L269.8,242.5c-3.7,0-7.2-3.3-8.5-4.6c-1-0.8-1.9-2.1-2-3.3c-0.1-0.7,0.1-1.3,0.6-1.7    c1.7-1.6,4.9,0.6,8.2,3.1c2.3,1.7,4.7,3.5,6.4,3.6C273.3,241.6,271.7,242.5,269.8,242.5L269.8,242.5z M261.4,232.8    c-0.5,0-0.9,0.1-1.2,0.4c-0.3,0.3-0.5,0.8-0.4,1.3c0.1,1,0.8,2.2,1.5,2.7c1.6,1.5,5,4.8,8.5,4.8l0,0c1.7,0,3.2-0.8,4.5-2.4    c-1.7,0.4-4-1.4-6.5-3.2C265.5,234.6,263,232.8,261.4,232.8L261.4,232.8z"/></g>
    <path class="st7"
          d="M259.2,229.4c-1.2,1.2,0,3.5,1.1,4.4c1.3,1.1,8.3,8.6,13.3,2.3   C269.6,236,262.1,226.6,259.2,229.4L259.2,229.4z"
          id="XMLID_25_"/>
    <g><path class="st2" d="M268.9,238.8L268.9,238.8c-3.7,0-7.2-3.3-8.5-4.6c-1-0.8-1.9-2.1-2-3.3c-0.1-0.7,0.2-1.3,0.6-1.7    c1.7-1.6,4.9,0.6,8.2,3.1c2.3,1.7,4.7,3.5,6.4,3.6C272.4,238,270.8,238.8,268.9,238.8L268.9,238.8z M260.5,229.1    c-0.5,0-0.9,0.1-1.2,0.4c-0.3,0.3-0.5,0.8-0.4,1.3c0.1,1,0.8,2.2,1.5,2.7c1.6,1.5,5,4.8,8.5,4.8c1.7,0,3.2-0.8,4.5-2.4    c-1.6,0.4-4-1.4-6.5-3.2C264.6,230.9,262.2,229.1,260.5,229.1L260.5,229.1z"/></g>
    <path class="st7"
          d="M258.1,225.9c-1.2,1.2,0,3.5,1.1,4.4c1.3,1.1,8.3,8.6,13.3,2.3   C268.5,232.5,261,223.1,258.1,225.9L258.1,225.9z"
          id="XMLID_22_"/>
    <g><path class="st2" d="M267.8,235.3L267.8,235.3c-3.7,0-7.2-3.3-8.5-4.6c-1-0.8-1.9-2.1-2-3.3c-0.1-0.7,0.2-1.3,0.6-1.7    c1.7-1.6,4.9,0.6,8.2,3.1c2.3,1.7,4.7,3.5,6.4,3.5C271.3,234.4,269.7,235.3,267.8,235.3L267.8,235.3z M259.4,225.6    c-0.5,0-0.9,0.1-1.2,0.4c-0.3,0.3-0.5,0.8-0.4,1.3c0.1,1,0.8,2.2,1.5,2.7c1.6,1.5,5,4.8,8.5,4.8l0,0c1.7,0,3.2-0.8,4.5-2.4    c-1.7,0.4-4-1.4-6.5-3.2C263.5,227.4,261.1,225.6,259.4,225.6L259.4,225.6z"/></g>
    <path class="st7"
          d="M255.6,221.8c-1.2,1.2,0,3.5,1.1,4.4c1.3,1.1,8.3,8.6,13.3,2.3   C266,228.4,258.6,219.1,255.6,221.8L255.6,221.8z"
          id="XMLID_19_"/>
    <g><path class="st2" d="M265.4,231.3L265.4,231.3c-3.7,0-7.2-3.3-8.5-4.6c-1.1-0.8-1.9-2.1-2-3.3c-0.1-0.7,0.1-1.3,0.6-1.7    c1.7-1.6,4.9,0.6,8.2,3.1c2.3,1.7,4.7,3.5,6.4,3.6C268.9,230.4,267.2,231.3,265.4,231.3L265.4,231.3z M257,221.6    c-0.5,0-0.9,0.1-1.2,0.4c-0.3,0.3-0.5,0.8-0.4,1.3c0.1,1,0.8,2.2,1.5,2.7c1.6,1.5,5,4.8,8.5,4.8c1.7,0,3.2-0.8,4.5-2.4    c-1.6,0.4-4-1.4-6.5-3.2C261,223.4,258.6,221.6,257,221.6L257,221.6z"/></g>
    <path class="st7"
          d="M246.9,217.9c2.5-1.9,7.2-2.4,10.8-0.6c3,1.5,8,7.5,11.8,8.9c-2.7,0.5-4.3,0.1-6-0.7   c-3.4,2.4-4.6,2.8-8,3.3c-4.8,0.7-8.7-0.6-10.1-3C244.1,223.4,244.7,219.7,246.9,217.9L246.9,217.9z"
          id="XMLID_16_"/>
    <g><path class="st2" d="M253,229.3c-3.7,0-6.6-1.3-7.8-3.3c-1.5-2.5-0.8-6.4,1.5-8.2c2.7-2,7.7-2.3,11.1-0.6c1.4,0.7,3.1,2.2,4.9,3.9    c2.2,2,4.8,4.3,6.9,5.1c-0.8,0.6-1.6,0.7-2.2,0.7c-1.4,0-2.6-0.3-4-1c-3.1,2.4-4.4,2.8-7.8,3.3C254.7,229.2,253.9,229.3,253,229.3    L253,229.3z M252.8,216.5c-2.2,0-4.3,0.6-5.7,1.7c-2.1,1.6-2.7,5.2-1.4,7.5c1.3,2.4,5.2,3.6,9.8,2.9c3.4-0.5,4.5-0.8,7.9-3.2    c2.4,0.9,3.7,1.1,6.1,0.7c-2.2-0.3-4.7-2.5-7.1-4.7c-1.8-1.6-3.5-3.1-4.8-3.8C256.2,216.9,254.5,216.5,252.8,216.5L252.8,216.5z"/></g>
    <path class="st4"
          d="M252.3,220.4c1.2,0,2.2,0.6,2.2,1.3c0,0.7-1,1.2-2.2,1.2c-1.2,0-2.2-0.6-2.2-1.3   C250.1,221,251.1,220.4,252.3,220.4L252.3,220.4z"
          id="XMLID_13_"/>
    <g><path class="st2" d="M252.3,223.2L252.3,223.2c-1.4,0-2.5-0.7-2.5-1.6c0-0.8,1.1-1.5,2.4-1.5c1.4,0,2.5,0.7,2.5,1.6    C254.7,222.6,253.6,223.2,252.3,223.2L252.3,223.2z M252.3,220.7c-1.1,0-1.9,0.4-1.9,1c0,0.5,0.9,1,1.9,1l0.1,0.3v-0.3    c1,0,1.9-0.4,1.9-1C254.2,221.2,253.3,220.7,252.3,220.7L252.3,220.7L252.3,220.7z"/></g>
    <path class="st3"
          d="M245,225.1c1.6-0.6,3.1-0.3,3.5,0.7c0.4,1-0.6,2.2-2.2,2.8c-1.6,0.6-3.1,0.3-3.5-0.7   C242.4,226.9,243.4,225.7,245,225.1L245,225.1z"
          id="XMLID_10_"/>
    <g><path class="st2" d="M244.7,229.1c-1.1,0-1.9-0.4-2.1-1.1c-0.4-1.1,0.6-2.5,2.3-3.1c1.7-0.6,3.4-0.2,3.8,0.8    c0.4,1.1-0.6,2.5-2.4,3.1C245.8,229,245.2,229.1,244.7,229.1L244.7,229.1z M246.6,225c-0.5,0-1,0.1-1.5,0.3    c-1.4,0.5-2.4,1.7-2.1,2.5c0.3,0.8,1.8,1.1,3.2,0.5c1.4-0.5,2.4-1.7,2.1-2.5C248.1,225.3,247.4,225,246.6,225L246.6,225z"/></g>
    <path class="st2"
          d="M252.2,220.9c0.4,0,0.8,0.3,0.8,0.7c0,0.4-0.4,0.7-0.8,0.7c-0.4,0-0.8-0.3-0.8-0.7   C251.4,221.2,251.7,220.9,252.2,220.9L252.2,220.9z"
          id="XMLID_7_"/>
    <path class="st3"
          d="M247.5,223.4c0.2,1-0.5,2.3-2.1,2.7c-1.6,0.7-2.8,2.1-3.5,4.6c-2.4-5.6-0.9-7.9,1.7-8.5   C245.8,221.5,247.1,221.6,247.5,223.4L247.5,223.4z"
          id="XMLID_6_"/>
    <g><path class="st2" d="M241.9,231.5l-0.3-0.6c-1.3-3-1.6-5.4-0.8-6.9c0.5-1,1.4-1.6,2.6-1.9c2.7-0.9,3.8-0.4,4.2,1.4    c0.2,1.1-0.6,2.5-2.3,3c-1.5,0.6-2.7,2.1-3.3,4.4L241.9,231.5L241.9,231.5z M245.7,222.1c-0.5,0-1.2,0.1-2,0.4    c-1.1,0.3-1.9,0.8-2.3,1.6c-0.7,1.3-0.5,3.3,0.5,5.9c0.7-2.1,1.9-3.4,3.4-4.1c1.4-0.4,2.1-1.6,1.9-2.5    C247,222.5,246.6,222.1,245.7,222.1L245.7,222.1z"/></g>
    <path class="st2"
          d="M245.1,223.2c0.3,0,0.6,0.2,0.6,0.5c0,0.3-0.2,0.6-0.5,0.6c-0.3,0-0.6-0.2-0.6-0.5   C244.6,223.5,244.8,223.3,245.1,223.2L245.1,223.2z"
          id="XMLID_3_"/></g></svg>
