<?xml version="1.0" ?>
<svg id="Layer_1" style="enable-background:new 0 0 512 512;" version="1.1" viewBox="0 0 512 512" xml:space="preserve"
     xmlns="http://www.w3.org/2000/svg"><style type="text/css">
	.st0 {
    fill: #F4D130;
  }

  .st1 {
    fill: #262D65;
  }

  .st2 {
    fill: #FFFFFF;
  }

  .st3 {
    fill: #BD1F34;
  }
</style>
  <g><rect class="st0" height="298.7" width="512" y="106.7"/>
    <rect class="st1" height="128" width="256" y="106.7"/>
    <polygon class="st2" points="227.4,106.7 0,220.4 0,234.7 28.6,234.7 256,121 256,106.7  "/>
    <polygon class="st2" points="0,106.7 0,121 227.4,234.7 256,234.7 256,220.4 28.6,106.7  "/>
    <rect class="st2" height="128" width="42.7" x="106.7" y="106.7"/>
    <rect class="st2" height="42.7" width="256" y="149.3"/>
    <rect class="st3" height="25.6" width="256" y="157.9"/>
    <rect class="st3" height="128" width="25.6" x="115.2" y="106.7"/>
    <polygon class="st3" points="85.3,192 0,234.7 19.1,234.7 104.4,192  "/>
    <polygon class="st3" points="151.6,149.3 170.7,149.3 256,106.7 236.9,106.7  "/>
    <polygon class="st3" points="256,234.7 256,225.1 189.7,192 170.7,192  "/>
    <polygon class="st3" points="0,106.7 0,116.2 66.3,149.3 85.3,149.3  "/>
    <path class="st1"
          d="M149.3,170.7c0-11.8-9.6-21.3-21.3-21.3c-11.8,0-21.3,9.6-21.3,21.3S116.2,192,128,192   C139.8,192,149.3,182.4,149.3,170.7"/>
    <polygon class="st0"
             points="107.7,164.1 123.2,164.1 128,149.3 132.8,164.1 148.3,164.1 135.8,173.2 140.5,187.9 128,178.8    115.5,187.9 120.2,173.2  "/>
    <polygon class="st0"
             points="115.8,210.6 125.1,210.6 128,201.8 130.9,210.6 140.2,210.6 132.6,216.1 135.5,224.9 128,219.4    120.5,224.9 123.3,216.1  "/>
    <polygon class="st0"
             points="115.8,125.3 125.1,125.3 128,116.4 130.9,125.3 140.2,125.3 132.6,130.7 135.5,139.6 128,134.1    120.5,139.6 123.3,130.7  "/>
    <polygon class="st0"
             points="41.2,167.9 50.5,167.9 53.3,159.1 56.2,167.9 65.5,167.9 58,173.4 60.9,182.2 53.3,176.8 45.8,182.2    48.7,173.4  "/>
    <polygon class="st0"
             points="190.5,167.9 199.8,167.9 202.7,159.1 205.5,167.9 214.8,167.9 207.3,173.4 210.2,182.2 202.7,176.8    195.1,182.2 198,173.4  "/></g></svg>
