<?xml version="1.0" ?>
<svg id="Layer_1" style="enable-background:new 0 0 512 512;" version="1.1" viewBox="0 0 512 512" xml:space="preserve"
     xmlns="http://www.w3.org/2000/svg"><style type="text/css">
	.st0 {
    fill: #010101;
  }

  .st1 {
    fill: #4FA045;
  }

  .st2 {
    fill: #BD1F34;
  }
</style>
  <g><rect class="st0" height="149.3" width="512" y="106.7"/>
    <rect class="st1" height="149.4" width="512" y="256"/>
    <rect class="st2" height="99.6" width="512" y="206.2"/>
    <path class="st2" d="M256,155.9c-28,0-51.7,17.9-60.6,42.8h121.1C307.7,173.8,284,155.9,256,155.9"/>
    <path class="st2"
          d="M256,118.6c-2.2,0-3,3.2-3,6.5c0,7.8,0.9,11.9,3,23.4c2-11.5,3-15.6,3-23.4C259,121.8,258.2,118.6,256,118.6    M247.2,119c-2.2,0.2-2.7,3.5-2.4,6.7c0.7,7.8,2,11.8,5,23.1c1-11.7,1.6-15.8,0.9-23.6C250.4,121.9,249.3,118.8,247.2,119    M264.8,119c-2.1-0.2-3.2,3-3.5,6.2c-0.7,7.8-0.1,11.9,0.9,23.6c3-11.3,4.3-15.3,5-23.1C267.5,122.5,267,119.2,264.8,119    M238.8,120.1c-0.1,0-0.3,0-0.4,0c-2.1,0.4-2.4,3.7-1.8,6.9c1.4,7.7,3,11.5,7,22.5c0-11.7,0.2-15.9-1.1-23.6   C241.9,123,240.7,120.2,238.8,120.1 M273.2,120.1c-1.9,0-3.1,2.9-3.7,5.9c-1.4,7.7-1.1,11.9-1.1,23.6c4-11,5.6-14.8,7-22.5   c0.6-3.2,0.3-6.5-1.8-6.9C273.5,120.1,273.4,120.1,273.2,120.1 M230.1,122c-0.1,0-0.3,0-0.4,0.1c-2.1,0.6-2.1,3.9-1.2,7   c2,7.5,4,11.2,9,21.8c-1-11.6-1.2-15.9-3.2-23.4C233.5,124.6,232,121.9,230.1,122 M281.9,122c-1.9-0.1-3.4,2.6-4.2,5.5   c-2,7.5-2.2,11.7-3.2,23.4c4.9-10.6,6.9-14.3,9-21.8c0.8-3.1,0.9-6.5-1.2-7C282.2,122,282,122,281.9,122 M222,124.6   c-0.3,0-0.5,0-0.8,0.1c-2,0.7-1.7,4.1-0.6,7.1c2.7,7.3,5,10.8,10.8,21c-2-11.5-2.5-15.7-5.2-23C225.3,127.1,223.8,124.7,222,124.6    M290,124.6c-1.7,0.1-3.3,2.5-4.3,5.2c-2.7,7.3-3.2,11.5-5.2,23c5.8-10.1,8.1-13.6,10.8-21c1.1-3,1.4-6.4-0.6-7.1   C290.5,124.6,290.2,124.6,290,124.6 M213.8,127.9c-0.2,0-0.5,0.1-0.7,0.2c-2,0.9-1.4,4.2,0,7.1c3.3,7.1,5.9,10.4,12.6,19.9   c-3-11.3-3.9-15.4-7.2-22.5C217.3,130.2,215.6,127.9,213.8,127.9 M298.2,127.9c-1.7-0.1-3.5,2.2-4.7,4.8   c-3.3,7.1-4.2,11.2-7.2,22.5c6.7-9.6,9.3-12.9,12.6-19.9c1.4-2.9,2-6.2,0-7.1C298.7,128,298.4,127.9,298.2,127.9 M205.9,131.9   c-0.3,0-0.5,0.1-0.7,0.3c-1.9,1.1-1,4.3,0.6,7.1c3.9,6.8,6.8,9.8,14.3,18.8c-4-11-5.2-15-9.1-21.8   C209.6,133.9,207.7,131.7,205.9,131.9 M305.7,131.9c-1.6,0.1-3.4,2.1-4.7,4.4c-3.9,6.7-5.1,10.8-9.1,21.8c7.5-9,10.4-12,14.3-18.8   c1.6-2.8,2.5-6,0.6-7.1C306.4,132,306.1,131.9,305.7,131.9 M198.8,136.6c-0.4,0-0.7,0.1-1.1,0.3c-1.8,1.2-0.6,4.4,1.3,7   c4.5,6.4,7.6,9.2,15.8,17.5c-4.9-10.6-6.5-14.5-11-20.9C202.4,138.4,200.4,136.6,198.8,136.6 M313.2,136.6c-1.6,0-3.6,1.8-5.1,4   c-4.5,6.4-6,10.3-11,20.9c8.3-8.3,11.4-11.1,15.8-17.5c1.9-2.7,3-5.8,1.3-7C313.9,136.7,313.6,136.6,313.2,136.6 M191.7,141.9   c-0.4,0-0.7,0.2-1,0.5c-1.6,1.4-0.2,4.4,1.9,6.9c5,6,8.4,8.5,17.3,16c-5.9-10.1-7.7-13.9-12.8-19.8   C195.5,143.4,193.4,141.7,191.7,141.9 M319.9,141.9c-1.6,0.1-3.5,1.6-5,3.5c-5,6-6.9,9.7-12.8,19.8c9-7.5,12.3-10,17.3-16   c2.1-2.5,3.5-5.5,1.9-6.9C320.9,142,320.4,141.9,319.9,141.9 M185.6,147.8c-0.5,0-1,0.2-1.4,0.6c-1.5,1.5,0.2,4.4,2.5,6.7   c5.5,5.5,9.1,7.7,18.7,14.4c-6.7-9.6-8.9-13.2-14.4-18.7C189.2,149.1,187.1,147.7,185.6,147.8 M326.4,147.8   c-1.6-0.1-3.6,1.3-5.3,3.1c-5.5,5.5-7.7,9.1-14.4,18.7c9.6-6.7,13.2-8.9,18.7-14.4c2.3-2.3,4-5.2,2.5-6.7   C327.4,148,327,147.8,326.4,147.8 M179.9,154.2c-0.7,0-1.3,0.2-1.7,0.7c-1.4,1.6,0.5,4.4,3,6.4c6,5,9.7,6.9,19.8,12.8   c-7.5-9-10-12.3-16-17.3C183.4,155.3,181.4,154.2,179.9,154.2 M332.1,154.2c-1.5,0-3.5,1.2-5.2,2.6c-6,5-8.5,8.4-16,17.3   c10.1-5.8,13.9-7.7,19.8-12.8c2.5-2.1,4.4-4.8,3-6.4C333.3,154.4,332.8,154.2,332.1,154.2 M174.5,161c-0.7,0-1.3,0.3-1.7,0.9   c-1.2,1.8,1,4.3,3.6,6.2c6.4,4.5,10.3,6,20.9,11c-8.3-8.3-11.1-11.4-17.5-15.8C178,161.9,176,160.9,174.5,161 M337.1,161   c-1.4,0.1-3.3,1-4.9,2.2c-6.4,4.5-9.2,7.6-17.5,15.8c10.6-4.9,14.5-6.5,20.9-11c2.7-1.9,4.9-4.4,3.6-6.2   C338.7,161.2,338,161,337.1,161 M170,168.4c-0.9,0-1.6,0.3-2,1c-1.1,1.9,1.3,4.2,4.1,5.8c6.8,3.9,10.8,5.1,21.8,9.1   c-9-7.5-12-10.4-18.8-14.3C173.4,169,171.5,168.3,170,168.4 M342,168.4c-1.5,0-3.4,0.7-5.1,1.7c-6.8,3.9-9.8,6.8-18.8,14.3   c11-4,15-5.2,21.8-9.1c2.8-1.6,5.2-4,4.1-5.8C343.5,168.7,342.8,168.4,342,168.4 M166.8,176c-1.3-0.1-2.3,0.3-2.8,1.2   c-0.9,2,1.7,4.1,4.6,5.4c7.1,3.3,11.2,4.2,22.5,7.2c-9.6-6.7-12.9-9.3-19.9-12.6C169.6,176.6,168.1,176.1,166.8,176 M345.2,176   c-1.3,0.1-2.9,0.6-4.3,1.2c-7.1,3.3-10.4,5.9-19.9,12.6c11.3-3,15.4-3.9,22.5-7.2c2.9-1.4,5.5-3.5,4.6-5.4   C347.6,176.3,346.5,175.9,345.2,176 M163.3,183.9c-1.3,0-2.3,0.5-2.7,1.5c-0.7,2,2,3.9,5,5c7.3,2.7,11.5,3.2,23,5.2   c-10.1-5.9-13.6-8.1-21-10.8C166.2,184.3,164.6,183.9,163.3,183.9 M348.7,183.9c-1.3,0-2.9,0.3-4.4,0.9c-7.3,2.7-10.8,4.9-21,10.8   c11.5-2,15.7-2.5,23-5.2c3-1.1,5.8-3,5-5C351.1,184.4,350.1,184,348.7,183.9 M161.5,192.1c-1.8,0-3.2,0.4-3.6,1.7   c-0.6,2.1,2.3,3.7,5.5,4.6c0.4,0.1,0.9,0.2,1.3,0.3h16c-6.3-2.9-9.9-4.5-15.7-6.1C163.8,192.3,162.6,192.1,161.5,192.1    M350.5,192.1c-1.1,0-2.3,0.2-3.5,0.5c-5.8,1.6-9.5,3.2-15.7,6.1h16c0.4-0.1,0.8-0.2,1.3-0.3c3.1-0.8,6-2.5,5.5-4.6   C353.7,192.6,352.3,192.1,350.5,192.1"/></g></svg>
