<?xml version="1.0" ?>
<svg id="Layer_1" style="enable-background:new 0 0 512 512;" version="1.1" viewBox="0 0 512 512" xml:space="preserve"
     xmlns="http://www.w3.org/2000/svg"><style type="text/css">
	.st0 {
    fill: #2D328E;
  }

  .st1 {
    fill: #C01F3F;
  }

  .st2 {
    fill-rule: evenodd;
    clip-rule: evenodd;
    fill: #FFFFFF;
  }

  .st3 {
    fill-rule: evenodd;
    clip-rule: evenodd;
    fill: #2E6D36;
  }

  .st4 {
    fill: #2E6D36;
  }

  .st5 {
    fill-rule: evenodd;
    clip-rule: evenodd;
    fill: #E5B32C;
  }

  .st6 {
    fill: #010101;
  }

  .st7 {
    fill-rule: evenodd;
    clip-rule: evenodd;
    fill: #2C3686;
  }

  .st8 {
    fill-rule: evenodd;
    clip-rule: evenodd;
    fill: #C12028;
  }

  .st9 {
    fill: #2C3686;
  }

  .st10 {
    fill: #C12028;
  }

  .st11 {
    fill-rule: evenodd;
    clip-rule: evenodd;
    fill: #4D3714;
  }

  .st12 {
    fill: none;
  }

  .st13 {
    fill: #FFFFFF;
  }

  .st14 {
    fill: #E5B32C;
  }
</style>
  <g><rect class="st0" height="298.7" width="512" y="106.7"/>
    <rect class="st1" height="149.4" width="512" y="256"/>
    <rect class="st2" height="77.2" width="96.9" x="207.5" y="217.4"/>
    <path class="st3"
          d="M275.5,273.2l-19.8,0.6L236,274c0,0-10.1,3.7-14.2,4.6c-4.1,0.8-3.6,2.2-6.8,2.9c-2.6,0.6-2.8,0.8-4.4,0.9   c-0.9,0.1-2,0.8-3.1,1.5v10.7h96.9v-10.2c-1-0.6-2-1-3.1-1.3c-1.4-0.5-2.4-1-4.9-1.6c-3.2-0.7-2.7-2.1-6.8-2.9   C285.5,277.7,275.5,273.2,275.5,273.2L275.5,273.2z"/>
    <g><path class="st4" d="M304.5,294.6h-97l-0.1-10.8c1.1-0.8,2.3-1.6,3.2-1.6c1.1-0.1,1.5-0.2,2.6-0.4l1.7-0.4    c1.5-0.3,2.1-0.8,2.8-1.3c0.8-0.6,1.7-1.2,3.9-1.6c4.1-0.8,14.1-4.5,14.2-4.6l19.7-0.2l19.8-0.6c0.1,0.1,10.1,4.6,14.2,5.4    c2.2,0.5,3.1,1.1,3.9,1.6c0.7,0.5,1.4,0.9,2.8,1.3c1.8,0.4,2.8,0.8,3.8,1.2l1.1,0.4c1,0.4,2,0.7,3.1,1.3L304.5,294.6L304.5,294.6z     M275.5,273.3l-19.7,0.6l-19.7,0.2c-0.1,0-10.1,3.8-14.2,4.6c-2.2,0.4-3.1,1-3.9,1.6c-0.7,0.5-1.4,1-2.9,1.3l-1.7,0.4    c-1.1,0.3-1.6,0.4-2.6,0.4c-0.9,0.1-2,0.8-3.1,1.5l0,10.6l96.7-0.1v-10.1c-1-0.5-2-0.9-3-1.2l-1.2-0.4c-0.9-0.4-1.9-0.7-3.8-1.2    c-1.5-0.3-2.2-0.8-2.9-1.3c-0.8-0.6-1.7-1.2-3.9-1.6C285.5,277.8,275.6,273.3,275.5,273.3L275.5,273.3z"/></g>
    <polygon class="st3"
             points="254.7,231 254.3,240.3 257.2,240.3 256.8,231.1 259.9,230.7 259.5,227 251.8,227.3 251.9,230.6  "/>
    <g><path class="st4" d="M257.3,240.4h-3.1l0.4-9.4l-2.8-0.3l-0.1-3.4l7.8-0.4l0.4,3.8l-3.2,0.5L257.3,240.4L257.3,240.4z M259.5,227    l-7.6,0.4l0.1,3.2l2.8,0.3l-0.4,9.4l2.8-0.1l-0.4-9.1l3.2-0.5L259.5,227L259.5,227z"/></g>
    <polygon class="st5" points="247.7,256.6 245.1,251 246.2,250.8 251,260  "/>
    <g><path class="st6" d="M251.3,260.5l-3.7-3.9L245,251l1.2-0.4L251.3,260.5L251.3,260.5z M246.2,250.8l-1,0.3l2.7,5.4l2.8,2.9    L246.2,250.8L246.2,250.8z"/></g>
    <polygon class="st2" points="241.7,244.5 244.6,252.3 246.1,252.3  "/>
    <g><path class="st6" d="M246.2,252.4h-1.6l-2.9-7.9L246.2,252.4L246.2,252.4z M241.7,244.6l3,7.7l1.2-0.1L241.7,244.6L241.7,244.6z"/></g>
    <polygon class="st5" points="250.4,249.4 251.8,249.3 254.4,260.3 253.9,263.8  "/>
    <g><path class="st6" d="M253.9,264.3l-3.6-14.9l1.5-0.2l2.7,11.1L253.9,264.3L253.9,264.3z M251.7,249.3l-1.3,0.1l3.5,13.9l0.5-3    L251.7,249.3L251.7,249.3z"/></g>
    <polygon class="st5" points="251.6,260.7 247.2,248.9 248.9,248.8 254,263.2  "/>
    <g><path class="st6" d="M254.2,263.6l-2.7-2.8l-4.4-11.8l1.7-0.2L254.2,263.6L254.2,263.6z M248.8,248.8l-1.6,0.2l4.5,11.7l2,2.2    L248.8,248.8L248.8,248.8z"/></g>
    <polygon class="st2" points="245.2,242.1 247,250.4 248.4,250.4  "/>
    <g><path class="st6" d="M248.6,250.5H247l-1.9-8.3L248.6,250.5L248.6,250.5z M245.1,242.2l2,8.2l1.2-0.1L245.1,242.2L245.1,242.2z"/></g>
    <polygon class="st2" points="248.9,242 249.9,250.5 250.9,250.4  "/>
    <g><path class="st6" d="M249.8,250.6L249.8,250.6l-1-8.6l2.2,8.4L249.8,250.6L249.8,250.6z M248.8,242l1.1,8.4l1-0.1L248.8,242    L248.8,242z"/></g>
    <path class="st7" d="M248.1,257.4l-11.7-12.8c-3.7,2.9-3,8.2-3,8.2l13.3,10.4L248.1,257.4z"/>
    <g><path class="st6" d="M246.7,263.4l-13.4-10.5c0-0.1-0.7-5.5,3-8.4l11.8,12.8L246.7,263.4L246.7,263.4z M236.3,244.7    c-3.4,2.8-2.8,8.1-2.8,8.1l13.1,10.3l1.4-5.7L236.3,244.7L236.3,244.7z"/></g>
    <path class="st8" d="M254.8,264.4l-8.7-8.8c-3.7,0.1-0.8,5.6-0.6,6.3l9.3,7.9V264.4z"/>
    <g><path class="st6" d="M254.9,270l-9.7-8.7c-0.5-1.2-1.6-3.8-0.7-5.1c0.3-0.5,0.9-0.7,1.6-0.8l8.8,8.8L254.9,270L254.9,270z     M246.1,255.7c-0.6,0.1-1.1,0.3-1.4,0.7c-0.8,1.2,0.3,3.7,0.8,4.9c0.1,0.3,0.2,0.5,0.2,0.6l9.1,7.7v-5.2L246.1,255.7L246.1,255.7z    "/></g>
    <polygon class="st5" points="254.1,262.9 236.1,243.7 235.4,244.2 254.4,265.3  "/>
    <g><path class="st6" d="M254.6,265.6l-0.2-0.2l-19-21.1l0.7-0.6l18.1,19.2L254.6,265.6L254.6,265.6z M236.1,243.8l-0.6,0.5l18.8,20.8    l-0.3-2.1L236.1,243.8L236.1,243.8z"/></g>
    <polygon class="st5" points="235.1,242.5 234.7,242 234.7,241.1 231,238.7 232.7,242.5 233.9,242.7 234.3,243.1  "/>
    <g><polygon class="st6" points="234.3,243.3 233.9,242.7 232.7,242.5 231,238.8 234.8,241 234.8,241.6 234.6,241.1 231,238.8     232.8,242.4 234,242.6 234.3,243 235,242.4 235,242.3 235.2,242.5 234.3,243.3   "/></g>
    <path class="st5" d="M233.2,243.8c0.6-0.8,1.4-1.5,2.7-2.2l1,1.5l-2.2,1.9L233.2,243.8z"/>
    <g><path class="st6" d="M234.7,245l-1.6-1.1c0.6-0.9,1.4-1.7,2.7-2.4l1.2,1.5L234.7,245L234.7,245z M235.8,241.6    c-1.2,0.8-2,1.5-2.6,2.3l1.5,0.9l2.2-1.8L235.8,241.6L235.8,241.6z"/></g>
    <path class="st7" d="M243,260.8l-14.7-11.7c-2.5,2.6-0.4,10.5-0.4,10.5l14.4,7.8L243,260.8z"/>
    <g><path class="st6" d="M242.3,267.5l-14.5-7.9c-0.1-0.4-2.1-8,0.4-10.6l14.8,11.7L242.3,267.5L242.3,267.5z M228.2,249.2    c-2.3,2.5-0.3,10.3-0.3,10.4l14.2,7.7l0.7-6.5L228.2,249.2L228.2,249.2z"/></g>
    <path class="st8" d="M255.1,270.3l-12.1-9.7c-4.1,0.6-0.9,6.7-0.6,7.3l12.8,6.9L255.1,270.3z"/>
    <g><path class="st6" d="M255.3,275l-12.9-7c-0.7-1.5-2.1-4.6-1.2-6.4c0.3-0.6,1-1,1.8-1.1l12.2,9.7L255.3,275L255.3,275z M243,260.6    c-0.7,0.1-1.3,0.5-1.6,1.1c-0.9,1.7,0.5,4.8,1,5.8l12.7,7.2l0-4.4L243,260.6L243,260.6z"/></g>
    <polygon class="st5" points="254.7,268.3 228.5,248.7 227.9,249.3 255.4,270.7  "/>
    <g><path class="st6" d="M255.5,271l-0.2-0.2l-27.5-21.5l0.6-0.7l26.3,19.6L255.5,271L255.5,271z M228.4,248.7l-0.5,0.6l27.2,21.1    l-0.6-2.1L228.4,248.7L228.4,248.7z"/></g>
    <polygon class="st5" points="227.2,247.6 226.8,247.2 226.7,246.3 222.6,244.6 224.9,248 226.2,248 226.6,248.4  "/>
    <g><polygon class="st6" points="226.7,248.5 226.1,248.1 224.9,248.1 222.5,244.7 226.7,246.2 226.8,246.8 226.6,246.3 222.5,244.7     225,248 226.2,247.9 226.6,248.3 227.2,247.6 227.1,247.5 227.3,247.7 226.7,248.5   "/></g>
    <path class="st5" d="M225.6,249.3c0.5-0.9,1.1-1.7,2.3-2.7l1.3,1.3l-1.8,2.2L225.6,249.3z"/>
    <g><path class="st6" d="M227.4,250.2l-1.8-0.9c0.4-1,1-1.9,2.3-2.8l1.4,1.3L227.4,250.2L227.4,250.2z M227.8,246.7    c-1.1,1-1.7,1.8-2.1,2.6l1.6,0.7l1.8-2.2L227.8,246.7L227.8,246.7z"/></g>
    <path class="st7"
          d="M241.9,267.9c-0.2,0-19-10.7-19-10.7c-1.4,2.3-0.1,5.7,0.5,6.2c0,1.5-0.6,2.4,0.7,5.6c0.4,2.1,1.4,4,2.8,5.1   c1.7,6.6,8.4,7,11,1.7L241.9,267.9z"/>
    <g><path class="st6" d="M232.7,279.6C232.7,279.6,232.7,279.6,232.7,279.6c-2.2,0-4.8-1.4-5.9-5.4c-1.3-1.1-2.3-3-2.8-5.2    c-1-2.4-0.9-3.5-0.8-4.5c0-0.3,0.1-0.7,0.1-1.1c-0.5-0.4-1.9-3.8-0.5-6.2c6.5,3.6,18.8,10.5,19.1,10.7l-3.9,8    C236.8,278.2,234.9,279.6,232.7,279.6L232.7,279.6z M222.9,257.3c-1.2,2.3,0,5.6,0.6,6c0,0.5,0,0.8,0,1.2c-0.1,1-0.2,2.1,0.8,4.4    c0.4,2.2,1.4,4,2.7,5.1c1,3.9,3.6,5.3,5.7,5.3h0c2.1,0,4.1-1.4,5.2-3.6l4-7.9l0,0C241.5,267.9,226,259.1,222.9,257.3L222.9,257.3z    "/></g>
    <path class="st8" d="M254.3,275l-12.9-7.5c-4.1,0.6,0.1,8.2,0.3,8.9l12.4,4.4L254.3,275z"/>
    <g><path class="st6" d="M254.3,280.9l-12.6-4.5l-0.2-0.5c-0.7-1.5-2.7-5.6-1.6-7.5c0.3-0.6,0.8-0.9,1.6-1l12.9,7.5L254.3,280.9    L254.3,280.9z M241.4,267.5c-0.6,0.1-1.1,0.4-1.4,0.9c-1,1.9,0.9,5.9,1.6,7.4l12.5,4.8l0.1-5.7L241.4,267.5L241.4,267.5z"/></g>
    <polygon class="st5" points="252.1,272.2 223.1,256.8 222.6,257.5 253.3,274.5  "/>
    <g><path class="st6" d="M253.5,274.7l-30.9-17.2l0.5-0.8l29.1,15.4L253.5,274.7L253.5,274.7z M223.1,256.9l-0.4,0.7l30.3,16.8l-1-2    L223.1,256.9L223.1,256.9z"/></g>
    <polygon class="st5"
             points="221.7,255.9 221.2,255.6 220.9,254.8 216.6,253.7 219.4,256.7 220.7,256.5 221.3,256.8  "/>
    <g><polygon class="st6" points="221.3,256.9 220.7,256.6 219.5,256.8 216.6,253.7 221,254.7 221.1,255.2 220.8,254.8 216.6,253.8     219.5,256.6 220.7,256.4 221.2,256.7 221.6,255.9 221.6,255.8 221.8,256 221.3,256.9   "/></g>
    <path class="st5" d="M220.4,257.8c0.3-0.9,0.8-1.9,1.8-3l1.5,1.1l-1.5,2.5L220.4,257.8z"/>
    <g><path class="st6" d="M222.3,258.5l-1.9-0.6c0.3-1,0.7-2,1.8-3.1l1.6,1.1L222.3,258.5L222.3,258.5z M222.2,254.9    c-0.9,1.1-1.4,2.1-1.7,2.9l1.7,0.4l1.4-2.4L222.2,254.9L222.2,254.9z"/></g>
    <path class="st7"
          d="M231.2,247.1l0.6,1.1c0.4-0.1,4.1-3.5,4.1-3.5l2.7-0.1l0.8-0.9c-2-2.1-3.8,0.3-3.8,0.3L231.2,247.1z"/>
    <g><path class="st9" d="M231.8,248.2l-0.6-1.1l4.4-3.2c0-0.1,2.3-2.1,4-0.3l-0.8,1l-2.8,0.1C235.6,245,232.2,248.1,231.8,248.2    L231.8,248.2L231.8,248.2z M237.7,242.9c-1.2,0-2,1.1-2,1.1l-4.4,3.1l0.6,0.9c0.5-0.3,2.6-2.2,4-3.5l2.8-0.1l0.7-0.8    C238.8,243.1,238.3,242.9,237.7,242.9L237.7,242.9z"/></g>
    <path class="st8"
          d="M233.4,248.8c0.1-0.9,1.9-3.3,2.2-3.4c1.3,0.4,2.6,1.2,3.9-1.9c-1.2,1.5-3.6,0-3.6,0l-1,0.9l0,0.4l-3.1,2.9   L233.4,248.8z"/>
    <g><path class="st10" d="M233.4,249l-1.7-1.2l1.2-1.2l-1.1,1.2l1.5,0.9c0.3-1,1.9-3.2,2.2-3.3c0.9,0.3,1.2,0.4,1.6,0.4    c0.6,0,1.3-0.2,2.2-2c-0.7,1.2-3.4,0-3.5-0.1l-0.5,0.4l0.4-0.6c0.2,0,2.6,1.2,3.5,0c-0.8,2.5-2.2,2.6-3.5,2.1    c-0.7-0.1-2.3,2.2-2.4,3.2L233.4,249L233.4,249z"/></g>
    <path class="st7"
          d="M224.2,252.6l0.2,1.1c0.3-0.2,3.6-3.8,3.6-3.8l2.7-0.5l0.5-0.8c-1.8-2.2-3.8,0.7-3.8,0.7L224.2,252.6z"/>
    <g><path class="st9" d="M224.3,253.8l-0.2-1.2l3.2-3.4c0-0.1,2.4-2.6,3.9-0.7l-0.5,1l-2.7,0.5c-0.3,0.3-3.3,3.6-3.6,3.8L224.3,253.8    L224.3,253.8z M229.7,247.8c-1.2,0-2.2,1.5-2.2,1.5l-3.2,3.4l0.2,0.9c0.5-0.4,2.3-2.4,3.5-3.7l2.7-0.5l0.5-0.8    C230.7,248,230.2,247.8,229.7,247.8L229.7,247.8z"/></g>
    <path class="st8"
          d="M226.3,254.5c-0.1-1,1.3-4,1.5-4.1c1.6,0.5,3,1.2,3.5-2.1c-0.9,1.7-3.5,0.4-3.5,0.4l-0.9,1l0.1,0.5l-2.7,3.5   L226.3,254.5z"/>
    <g><path class="st10" d="M226.4,254.7l-2.1-0.9l0.7-0.9l-0.6,0.9l1.8,0.6c0-1.1,1.3-3.9,1.6-4c0.9,0.3,1.4,0.4,1.8,0.4    c0.6,0,1.3-0.3,1.7-2.4c-0.4,1.5-3.4,0.5-3.5,0.5l-0.3,0.3l0.2-0.5c0.1,0,1,0.4,2,0.4c0.7,0,1.2-0.3,1.5-0.8    c-0.2,2.7-1.5,2.9-3.1,2.4c-0.5,0-1.9,2.9-1.7,3.9L226.4,254.7L226.4,254.7z"/></g>
    <path class="st7"
          d="M219.2,261.3l0.6,1.2c0.3-0.2,3.1-4.7,3.1-4.7l2.5-0.8l0.5-1c-2-1.9-3.6,1.4-3.6,1.4L219.2,261.3z"/>
    <g><path class="st9" d="M219.8,262.6l-0.7-1.3l3.1-4.1c0-0.1,1.9-3.1,3.7-1.4l-0.5,1.1l-2.6,0.9C222.7,258.3,220.2,262.3,219.8,262.6    L219.8,262.6L219.8,262.6z M224.7,255.4c-1.3,0-2.2,1.9-2.2,1.9l-3.1,4l0.6,1c0.4-0.5,2-2.9,3-4.6l2.6-0.9l0.4-1    C225.5,255.6,225.1,255.4,224.7,255.4L224.7,255.4z"/></g>
    <path class="st8"
          d="M222,263c-0.2-1,0.5-4.3,0.7-4.4c1.6,0.5,2.9,0.6,3.3-2.7c-0.9,1.6-3.4,1-3.4,1l-0.7,1.1l0.2,0.4l-2.1,4   L222,263z"/>
    <g><path class="st10" d="M222.1,263.1l-2.2-0.7l0.8-1.7l-0.7,1.6l1.9,0.5c-0.1-1.1,0.5-4.2,0.8-4.4c1.4,0.3,2.8,1.3,3.3-2.6    c-0.7,1.7-3.3,1.1-3.3,1.1l-0.3,0.5l0.3-0.7c0.1,0,0.6,0.1,1.1,0.1c0.8,0,1.8-0.2,2.3-1c-0.1,2.9-1.6,3.3-3.2,2.8    c-0.1,0.2-0.8,3.3-0.6,4.3L222.1,263.1L222.1,263.1z"/></g>
    <polygon class="st5"
             points="251.9,279.3 244.7,277.1 241.6,271.7 230.4,271.2 230.8,275.2 240.3,277 241.2,278.6 252.1,281.7  "/>
    <g><path class="st6" d="M252.2,281.8l-11.1-3.1l-1-1.7l-9.4-1.8l-0.5-4.1l11.3,0.4l3.2,5.4l7.2,2.2L252.2,281.8L252.2,281.8z     M230.4,271.3l0.5,3.9l9.4,1.7l1,1.7l10.7,3l-0.2-2.2l-7.2-2.2l-3.2-5.4L230.4,271.3L230.4,271.3z"/></g>
    <polygon class="st11" points="244.4,280.8 233,264 232.4,264.5 243.7,281.3  "/>
    <g><path class="st6" d="M243.7,281.5l-11.4-16.9l0.6-0.6l11.6,16.8L243.7,281.5L243.7,281.5z M232.9,264.1l-0.4,0.4l11.3,16.7    l0.6-0.4L232.9,264.1L232.9,264.1z"/></g>
    <path class="st2" d="M234,264.7l-1.2-2c-0.2-0.4-0.6-0.5-1.1-0.2c-0.5,0.3-0.4,0.8-0.3,1.1l1.1,1.9L234,264.7z"/>
    <g><path class="st6" d="M232.6,265.6l-1.2-2c-0.2-0.4-0.3-1,0.3-1.3c0.8-0.2,1,0,1.2,0.3l1.2,2L232.6,265.6L232.6,265.6z     M232.2,262.3l-0.5,0.2c-0.4,0.2-0.4,0.7-0.2,1l1.1,1.8l1.3-0.7L232.2,262.3L232.2,262.3z"/></g>
    <polygon class="st5" points="245.7,270.5 222.7,268.1 222.2,271.5 245.1,273.8  "/>
    <g><path class="st6" d="M245.2,273.9l-23-2.3l0.5-3.5l23.1,2.3L245.2,273.9L245.2,273.9z M222.7,268.2l-0.5,3.3l22.8,2.2l0.6-3.2    L222.7,268.2L222.7,268.2z"/></g>
    <polygon class="st5" points="222.3,267.3 221.7,271.9 222.7,271.9 223.3,267.7  "/>
    <g><path class="st6" d="M222.7,272h-1.1l0.5-4.8l1.2,0.3L222.7,272L222.7,272z M222.3,267.4l-0.5,4.6l0.8-0.1l0.7-4.2L222.3,267.4    L222.3,267.4z"/></g>
    <polygon class="st5" points="226.1,268 225.9,272.2 226.5,272.3 227,268.6  "/>
    <g><path class="st6" d="M226.6,272.4l-0.7-0.1l0.2-4.3l1,0.5L226.6,272.4L226.6,272.4z M226.1,268.1l-0.1,4.1l0.5,0.1l-0.1,0l0.5-3.7    L226.1,268.1L226.1,268.1z"/></g>
    <polygon class="st5" points="241.7,269.8 241.2,273.7 242.3,273.7 242.8,269.8  "/>
    <g><polygon class="st6" points="241.1,273.8 241.7,269.8 242.8,269.7 242.4,273.7 241.1,273.8   "/></g>
    <path class="st5"
          d="M245.2,269.9l-0.8,4.5l1.3,0.2l0.4-2.4c0.1,0.5,0.5,0.8,1.1,0.8c0.6,0,1.1-0.5,1.1-1.1c0-0.6-0.5-1-1.1-1   c-0.4,0-0.8,0.2-1,0.7l0.2-1.7L245.2,269.9z"/>
    <g><path class="st6" d="M245.7,274.8l-1.4-0.2l0.7-4.6l1.3,0l-0.1,1.6c0.2-1,2-0.5,2,0.5c0,1.2-2.1,1.4-2.3,0.2L245.7,274.8    L245.7,274.8z M246.3,270l-1.1,0l-0.7,4.5l1.1,0.1l0.3-2.3c0.6,1,2.2,0.8,2.2-0.2c0-0.9-1.5-1.3-1.9-0.3L246.3,270L246.3,270z"/></g>
    <polygon class="st5" points="236.9,270.7 233.7,274.2 234.1,274.7 238.1,271.9  "/>
    <g><path class="st6" d="M234,274.8l-0.4-0.5l3.2-3.7l1.4,1.2L234,274.8L234,274.8z M236.8,270.7l-3,3.6l0.3,0.4l-0.1-0.1l4.1-2.8    L236.8,270.7L236.8,270.7z"/></g>
    <polygon class="st5" points="229.5,279.6 232.7,276 232.3,275.6 228.2,278.3  "/>
    <g><path class="st6" d="M229.5,279.7l-1.3-1.3l4.1-3l0.4,0.5L229.5,279.7L229.5,279.7z M232.6,275.9l-4.3,2.5l1.2,1L232.6,275.9    L232.6,275.9z"/></g>
    <polygon class="st5" points="237.8,278.7 233.9,275.7 233.5,276 236.6,279.8  "/>
    <g><path class="st6" d="M236.6,279.9l-3.1-3.9l0.5-0.4l3.9,3L236.6,279.9L236.6,279.9z M233.9,275.8l2.7,3.9l1.1-1.1L233.9,275.8    L233.9,275.8z"/></g>
    <polygon class="st5" points="228.3,271.8 232.2,274.7 232.7,274.3 229.6,270.5  "/>
    <g><path class="st6" d="M232.2,274.8l-4-2.9l1.3-1.5l3.3,3.9L232.2,274.8L232.2,274.8z M229.5,270.5l-1.2,1.3l3.8,2.7l0.4-0.3    L229.5,270.5L229.5,270.5z"/></g>
    <polygon class="st5" points="232.5,269.4 232.9,274.1 233.4,274.1 234.7,269.5  "/>
    <g><path class="st6" d="M232.8,274.2l-0.4-4.8l2.2,0l-1.2,4.7L232.8,274.2L232.8,274.2z M234.6,269.5l-2.1,0l0.5,4.5l0.4,0    L234.6,269.5L234.6,269.5z"/></g>
    <polygon class="st5" points="233.8,280.8 233.4,276.1 232.9,276 232.2,280.8  "/>
    <g><path class="st6" d="M233.9,280.9h-1.8l0.6-4.9l0.7,0.1L233.9,280.9L233.9,280.9z M233.4,276.1l-1.1,4.7l1.5-0.1L233.4,276.1    L233.4,276.1z"/></g>
    <polygon class="st5" points="239,274.5 234.1,275 234,275.5 239,276.1  "/>
    <g><path class="st6" d="M239.1,276.2l-5.1-0.7l0.1-0.6l4.9-0.5L239.1,276.2L239.1,276.2z M238.9,274.5l-4.8,0.6l4.8,0.9L238.9,274.5    L238.9,274.5z"/></g>
    <polygon class="st5" points="227.3,276.1 232.1,275.3 232.2,275 227.3,274.4  "/>
    <g><polygon class="st6" points="227.2,276.2 227.2,274.4 232.2,274.9 231.3,275.1 227.2,274.5 227.4,276 229,275.7 227.2,276.2   "/></g>
    <path class="st5"
          d="M234.5,275c0,0.7-0.6,1.3-1.3,1.3c-0.7,0-1.3-0.6-1.3-1.3c0-0.7,0.6-1.3,1.3-1.3   C233.9,273.7,234.5,274.3,234.5,275L234.5,275z"/>
    <g><path class="st6" d="M233.2,276.3c-0.8,0-1.4-0.6-1.4-1.3c0-1.5,2.8-1.5,2.8,0C234.6,275.7,233.9,276.3,233.2,276.3L233.2,276.3z     M233.2,273.8c-0.7,0-1.2,0.5-1.2,1.2c0,1.3,2.4,1.3,2.4,0C234.4,274.4,233.8,273.8,233.2,273.8L233.2,273.8z"/></g>
    <path class="st5"
          d="M240.1,275c0,3.7-3.1,6.7-6.9,6.7c-3.8,0-6.9-3-6.9-6.7c0-3.7,3.1-6.7,6.9-6.7   C237,268.3,240.1,271.3,240.1,275L240.1,275z M238.7,275c0,2.9-2.5,5.3-5.5,5.3c-3,0-5.5-2.4-5.5-5.3c0-2.9,2.5-5.3,5.5-5.3   C236.2,269.7,238.7,272.1,238.7,275L238.7,275z"/>
    <g><path class="st6" d="M233.2,281.8c-3.9,0-7-3-7-6.8c0-3.7,3.1-6.8,7-6.8c3.9,0,7,3,7,6.8C240.2,278.7,237,281.8,233.2,281.8    L233.2,281.8z M233.2,268.4c-3.8,0-6.8,2.9-6.8,6.6c0,3.6,3.1,6.6,6.8,6.6c3.8,0,6.8-2.9,6.8-6.6    C240,271.4,236.9,268.4,233.2,268.4L233.2,268.4z M233.2,280.4c-3.1,0-5.6-2.4-5.6-5.4c0-3,2.5-5.4,5.6-5.4c3.1,0,5.6,2.4,5.6,5.4    C238.8,278,236.3,280.4,233.2,280.4L233.2,280.4z M233.2,269.8c-3,0-5.4,2.4-5.4,5.2c0,2.9,2.4,5.2,5.4,5.2c3,0,5.4-2.4,5.4-5.2    C238.6,272.1,236.2,269.8,233.2,269.8L233.2,269.8z"/></g>
    <g><path class="st12" d="M228.8,271.6l-1.1-0.8L228.8,271.6z M236.6,270.8l0.9-0.9L236.6,270.8z M238.6,279.3l-1.1-0.9L238.6,279.3z     M228.8,280.3l1-1L228.8,280.3z"/></g>
    <polygon class="st5" points="252.1,268.4 253.3,274.4 252.3,275 251.3,268.5  "/>
    <g><path class="st6" d="M252.3,275.1l-1.1-6.6l0.9-0.2l1.3,6.1L252.3,275.1L252.3,275.1z M252,268.4l-0.7,0.2l1.1,6.2l0.9-0.5    L252,268.4L252,268.4z"/></g>
    <path class="st2"
          d="M251.5,267.6c-0.6-0.2-1.3,0.2-2.4-1.3c-1.9,1.8-0.1,2,0.2,3.8c0.5,0.2,0.9-1.4,2.4-1.5c0.2,0,2.4-0.2,2.4-0.2   l-0.6-0.7C253.4,267.6,251.9,267.7,251.5,267.6L251.5,267.6z"/>
    <g><path class="st6" d="M249.3,270.2l-0.1,0c-0.2-0.7-0.4-1.1-0.7-1.4c-0.5-0.7-0.8-1.3,0.5-2.5c1,1.1,1.6,1.1,2,1.2l0.9,0.1l1.4,0    l0.6,0.8l-2.4,0.4c-0.8,0.1-1.3,0.6-1.6,1C249.8,270,249.6,270.2,249.3,270.2L249.3,270.2z M249,266.4c-1.1,1.1-0.8,1.6-0.3,2.3    c0.3,0.4,0.5,0.8,0.6,1.4l0-0.1c0.1,0,0.3-0.2,0.5-0.4c0.4-0.4,0.8-1,1.7-1.1l2.4-0.2l-0.6-0.6l-1.4,0.1l-0.9-0.1    C250.5,267.6,249.9,267.5,249,266.4L249,266.4z"/></g>
    <path class="st2" d="M252.3,268.8l-0.2-1.8c-0.2-0.6-1-0.1-1,0.3l0.2,1.7L252.3,268.8z"/>
    <g><path class="st6" d="M251.2,269.1l-0.2-1.7c0-0.3,0.4-0.7,0.7-0.7l0.1,0.3c-0.4-0.1-0.7,0.2-0.7,0.3l0.2,1.6l0.9-0.1l-0.1-0.6    l0.2,0.6L251.2,269.1L251.2,269.1z"/></g>
    <path class="st5"
          d="M238.9,283.7c0,0.3-0.1,0.5-0.4,0.6c-0.2,0.1-0.5,0.1-0.8,0c-0.2-0.1-0.4-0.4-0.4-0.6c0-0.3,0.1-0.5,0.4-0.6   c0.2-0.1,0.5-0.1,0.8,0C238.7,283.2,238.9,283.4,238.9,283.7L238.9,283.7z"/>
    <g><path class="st12" d="M238.9,283.7c0,0.3-0.1,0.5-0.4,0.6c-0.2,0.1-0.5,0.1-0.8,0c-0.2-0.1-0.4-0.4-0.4-0.6c0-0.3,0.1-0.5,0.4-0.6    c0.2-0.1,0.5-0.1,0.8,0C238.7,283.2,238.9,283.4,238.9,283.7z"/></g>
    <path class="st5"
          d="M236.9,282.3c0,0.3-0.1,0.5-0.4,0.6c-0.2,0.1-0.5,0.1-0.8,0c-0.2-0.1-0.4-0.4-0.4-0.6c0-0.3,0.1-0.5,0.4-0.6   c0.2-0.1,0.5-0.1,0.8,0C236.8,281.8,236.9,282.1,236.9,282.3L236.9,282.3z"/>
    <g><path class="st12" d="M236.9,282.3c0,0.3-0.1,0.5-0.4,0.6c-0.2,0.1-0.5,0.1-0.8,0c-0.2-0.1-0.4-0.4-0.4-0.6c0-0.3,0.1-0.5,0.4-0.6    c0.2-0.1,0.5-0.1,0.8,0C236.8,281.8,236.9,282.1,236.9,282.3z"/></g>
    <path class="st5"
          d="M234.3,283.2c0,0.3-0.1,0.5-0.4,0.6c-0.2,0.1-0.5,0.1-0.8,0c-0.2-0.1-0.4-0.4-0.4-0.6c0-0.3,0.1-0.5,0.4-0.6   c0.2-0.1,0.5-0.1,0.8,0C234.2,282.7,234.3,283,234.3,283.2L234.3,283.2z"/>
    <g><path class="st12" d="M234.3,283.2c0,0.3-0.1,0.5-0.4,0.6c-0.2,0.1-0.5,0.1-0.8,0c-0.2-0.1-0.4-0.4-0.4-0.6c0-0.3,0.1-0.5,0.4-0.6    c0.2-0.1,0.5-0.1,0.8,0C234.2,282.7,234.3,283,234.3,283.2z"/></g>
    <path class="st5"
          d="M230.3,284.1c0,0.3-0.1,0.5-0.4,0.6c-0.2,0.1-0.5,0.1-0.8,0c-0.2-0.1-0.4-0.4-0.4-0.6c0-0.3,0.1-0.5,0.4-0.6   c0.2-0.1,0.5-0.1,0.8,0C230.1,283.6,230.3,283.8,230.3,284.1L230.3,284.1z"/>
    <g><path class="st12" d="M230.3,284.1c0,0.3-0.1,0.5-0.4,0.6c-0.2,0.1-0.5,0.1-0.8,0c-0.2-0.1-0.4-0.4-0.4-0.6c0-0.3,0.1-0.5,0.4-0.6    c0.2-0.1,0.5-0.1,0.8,0C230.1,283.6,230.3,283.8,230.3,284.1z"/></g>
    <path class="st5"
          d="M228.6,284.3c0,0.3-0.1,0.5-0.4,0.6c-0.2,0.1-0.5,0.1-0.8,0c-0.2-0.1-0.4-0.4-0.4-0.6c0-0.3,0.1-0.5,0.4-0.6   c0.2-0.1,0.5-0.1,0.8,0C228.4,283.8,228.6,284,228.6,284.3L228.6,284.3z"/>
    <g><path class="st12" d="M228.6,284.3c0,0.3-0.1,0.5-0.4,0.6c-0.2,0.1-0.5,0.1-0.8,0c-0.2-0.1-0.4-0.4-0.4-0.6c0-0.3,0.1-0.5,0.4-0.6    c0.2-0.1,0.5-0.1,0.8,0C228.4,283.8,228.6,284,228.6,284.3z"/></g>
    <path class="st5"
          d="M226.9,284.3c0,0.3-0.1,0.5-0.4,0.6c-0.2,0.1-0.5,0.1-0.8,0c-0.2-0.1-0.4-0.4-0.4-0.6c0-0.3,0.1-0.5,0.4-0.6   c0.2-0.1,0.5-0.1,0.8,0C226.8,283.8,226.9,284,226.9,284.3L226.9,284.3z"/>
    <g><path class="st12" d="M226.9,284.3c0,0.3-0.1,0.5-0.4,0.6c-0.2,0.1-0.5,0.1-0.8,0c-0.2-0.1-0.4-0.4-0.4-0.6c0-0.3,0.1-0.5,0.4-0.6    c0.2-0.1,0.5-0.1,0.8,0C226.8,283.8,226.9,284,226.9,284.3z"/></g>
    <path class="st5"
          d="M225.2,284.3c0,0.3-0.1,0.5-0.4,0.6c-0.2,0.1-0.5,0.1-0.8,0c-0.2-0.1-0.4-0.4-0.4-0.6c0-0.3,0.1-0.5,0.4-0.6   c0.2-0.1,0.5-0.1,0.8,0C225,283.8,225.2,284,225.2,284.3L225.2,284.3z"/>
    <g><path class="st12" d="M225.2,284.3c0,0.3-0.1,0.5-0.4,0.6c-0.2,0.1-0.5,0.1-0.8,0c-0.2-0.1-0.4-0.4-0.4-0.6c0-0.3,0.1-0.5,0.4-0.6    c0.2-0.1,0.5-0.1,0.8,0C225,283.8,225.2,284,225.2,284.3z"/></g>
    <path class="st5"
          d="M226,283c0,0.3-0.1,0.5-0.4,0.6c-0.2,0.1-0.5,0.1-0.8,0c-0.2-0.1-0.4-0.4-0.4-0.6c0-0.3,0.1-0.5,0.4-0.6   c0.2-0.1,0.5-0.1,0.8,0C225.9,282.5,226,282.7,226,283L226,283z"/>
    <g><path class="st12" d="M226,283c0,0.3-0.1,0.5-0.4,0.6c-0.2,0.1-0.5,0.1-0.8,0c-0.2-0.1-0.4-0.4-0.4-0.6c0-0.3,0.1-0.5,0.4-0.6    c0.2-0.1,0.5-0.1,0.8,0C225.9,282.5,226,282.7,226,283z"/></g>
    <path class="st5"
          d="M227.7,283c0,0.3-0.1,0.5-0.4,0.6c-0.2,0.1-0.5,0.1-0.8,0c-0.2-0.1-0.4-0.4-0.4-0.6c0-0.3,0.1-0.5,0.4-0.6   c0.2-0.1,0.5-0.1,0.8,0C227.5,282.5,227.7,282.8,227.7,283L227.7,283z"/>
    <g><path class="st12" d="M227.7,283c0,0.3-0.1,0.5-0.4,0.6c-0.2,0.1-0.5,0.1-0.8,0c-0.2-0.1-0.4-0.4-0.4-0.6c0-0.3,0.1-0.5,0.4-0.6    c0.2-0.1,0.5-0.1,0.8,0C227.5,282.5,227.7,282.8,227.7,283z"/></g>
    <path class="st5"
          d="M229.3,282.8c0,0.3-0.1,0.5-0.4,0.6c-0.2,0.1-0.5,0.1-0.8,0c-0.2-0.1-0.4-0.4-0.4-0.6c0-0.3,0.1-0.5,0.4-0.6   c0.2-0.1,0.5-0.1,0.8,0C229.1,282.3,229.3,282.6,229.3,282.8L229.3,282.8z"/>
    <g><path class="st12" d="M229.3,282.8c0,0.3-0.1,0.5-0.4,0.6c-0.2,0.1-0.5,0.1-0.8,0c-0.2-0.1-0.4-0.4-0.4-0.6c0-0.3,0.1-0.5,0.4-0.6    c0.2-0.1,0.5-0.1,0.8,0C229.1,282.3,229.3,282.6,229.3,282.8z"/></g>
    <path class="st5"
          d="M228.5,281.6c0,0.3-0.1,0.5-0.4,0.6c-0.2,0.1-0.5,0.1-0.8,0c-0.2-0.1-0.4-0.4-0.4-0.6c0-0.3,0.1-0.5,0.4-0.6   c0.2-0.1,0.5-0.1,0.8,0C228.3,281.1,228.5,281.3,228.5,281.6L228.5,281.6z"/>
    <g><path class="st12" d="M228.5,281.6c0,0.3-0.1,0.5-0.4,0.6c-0.2,0.1-0.5,0.1-0.8,0c-0.2-0.1-0.4-0.4-0.4-0.6c0-0.3,0.1-0.5,0.4-0.6    c0.2-0.1,0.5-0.1,0.8,0C228.3,281.1,228.5,281.3,228.5,281.6z"/></g>
    <path class="st5"
          d="M226.9,281.5c0,0.3-0.1,0.5-0.4,0.6c-0.2,0.1-0.5,0.1-0.8,0c-0.2-0.1-0.4-0.4-0.4-0.6c0-0.3,0.1-0.5,0.4-0.6   c0.2-0.1,0.5-0.1,0.8,0C226.8,281,226.9,281.3,226.9,281.5L226.9,281.5z"/>
    <g><path class="st12" d="M226.9,281.5c0,0.3-0.1,0.5-0.4,0.6c-0.2,0.1-0.5,0.1-0.8,0c-0.2-0.1-0.4-0.4-0.4-0.6c0-0.3,0.1-0.5,0.4-0.6    c0.2-0.1,0.5-0.1,0.8,0C226.8,281,226.9,281.3,226.9,281.5z"/></g>
    <path class="st2"
          d="M239.9,278.9c-0.6-0.3-0.6,1.2-0.6,1.2l1,0c0.4,0.2,0.8,0.9,0.5,1.2c-0.2,0.3-2.2-0.5-2.4,0   c0.3,2,3,2.8,3.9,1.9c0.9-0.9,1.2-3.1-1.9-3.7L239.9,278.9z"/>
    <g><path class="st6" d="M241.3,283.6c-0.3,0-0.6-0.1-1-0.2c-1.1-0.4-1.8-1.2-2-2.1c0.1-0.3,0.7-0.2,1.4-0.1c0.3,0.1,0.9,0.2,1,0.1    c0-0.6-0.2-0.9-0.5-1l-1,0c-0.1-0.2-0.1-1.1,0.3-1.4l0,0l0.4,0l0.6,0.5c1.3,0.2,2.2,0.9,2.4,1.8c0.2,0.8-0.1,1.7-0.6,2.1    C242.2,283.4,241.8,283.6,241.3,283.6L241.3,283.6z M238.8,281.2c-0.1,0-0.2,0-0.2,0.1c0.2,0.9,0.9,1.6,1.8,2    c0.8,0.3,1.5,0.2,1.9-0.2c0.4-0.4,0.7-1.1,0.5-1.9c-0.2-0.8-1-1.4-2.3-1.7l-0.2,0.5c0.3,0.2,0.6,0.5,0.6,0.8    c-0.2,0.7-0.6,0.6-1.3,0.5C239.4,281.3,239,281.2,238.8,281.2L238.8,281.2z M220,279.6l-1-4.2l0,0v0v0l6.4,2.6l-0.1,0.2l-6.3-2.7    l1.2,4.1L220,279.6L220,279.6z M221.2,279.4l-1.5-3.2l1.7,3.1L221.2,279.4L221.2,279.4z M223.9,278.6l-3.4-1.8l3.5,1.7    L223.9,278.6L223.9,278.6z"/></g>
    <path class="st8"
          d="M215.3,272.4c0,0-2.3,0-2.7,0.1c-0.2,0.1,0.6,0.8,0.4,1.1c-0.6,1.1-4.5,1-4.8,0.7c-0.5-0.4,3.7-0.8,3.7-1.1   c0-0.3-0.6-1.2-0.5-1.7c0.1-0.7,1.8-0.9,1.8-0.9L215.3,272.4z"/>
    <g><path class="st10" d="M209.7,274.6c-0.7,0-1.4-0.1-1.6-0.2c0-0.4,0.6-0.6,2.1-0.8c0.6-0.1,1.5-0.3,1.6-0.4    c-0.4-0.9-0.6-1.3-0.5-1.7c0.1-0.7,1.7-1,1.9-1l2.2,1.7c-1.2,0.1-1.9,0.2-2.3,0.2c0.4-0.2,1.1-0.2,1.7-0.2l-1.6-1.5    c-0.4,0.1-1.6,0.4-1.7,0.9c-0.1,0.3,0.1,0.7,0.3,1c0.1,0.3,0.2,0.5,0.2,0.7c0,0.2-0.4,0.3-1.7,0.5c-0.7,0.1-1.9,0.3-2,0.5    c0.2,0.1,4.2,0.3,4.7-0.7c0.1-0.1-0.1-0.5-0.3-0.7c0-0.1,0-0.1,0.1-0.2c0.3,0.4,0.5,0.7,0.4,0.9    C212.6,274.6,210.4,274.6,209.7,274.6L209.7,274.6z"/></g>
    <path class="st11" d="M218.4,274.5l-5.2-4.3c0,0-0.2-0.2-0.4,0c-0.2,0.2,0.1,0.4,0.1,0.4l5.4,4.4L218.4,274.5z"/>
    <g><path class="st6" d="M218.2,275.2l-5.5-4.5l0,0l0.1-0.7l5.6,4.5L218.2,275.2L218.2,275.2z M213.1,270.2l5.1,4.6l0.2-0.4    L213.1,270.2L213.1,270.2z"/></g>
    <path class="st5"
          d="M223.4,278.8c-0.1-0.1-4.3-3.7-4.3-3.7l-0.3-1.1c0,0-0.6,0.4-0.9,0.7c-0.2,0.2-0.6,0.8-0.6,0.8l1.2,0.1   l3.7,3.4L223.4,278.8z"/>
    <g><path class="st6" d="M222.2,279l-3.7-3.4l-1.1,0c-0.1-0.2,0.3-0.8,0.5-1c0.2-0.2,0.9-0.7,0.9-0.7l0.4,1.1l0,0c0,0,4.1,3.6,4.2,3.7    L222.2,279L222.2,279z M218.5,275.5l3.7,3.4l1.1-0.2c-0.2,0-4.3-3.5-4.3-3.5l-0.3-1c-0.1,0.1-0.5,0.5-0.7,0.7    c-0.2,0.2-0.6,0.8-0.6,0.8L218.5,275.5L218.5,275.5z"/></g>
    <path class="st5"
          d="M246.5,273.8l0,1.7c-0.5,0.2-0.5,0.6-0.4,1.2l0,4.9c-0.2,0.3-0.8,0.3-1.1,0.6c-0.3,0.3-0.3,0.7,1,1.1l1,0   c1.5-0.3,1.8-0.8,1.1-1.1c-0.4-0.2-0.9-0.3-1.1-0.6l0-1.2l1,0c0.3,0,0.8-0.7,0.8-1.2v-2.5c0-1.4-1.1-1.6-1.4-1.6l0-1.3L246.5,273.8   z M248.2,276.6c0-0.4-0.6-0.8-0.8-0.8c-0.2,0-0.8,0.5-0.8,0.9v1c0,0.4,0.3,1.6,0.9,1.7c0.3,0,0.6-0.4,0.6-0.8L248.2,276.6z"/>
    <g><path class="st6" d="M247.1,283.3l-1,0c-1-0.2-1.2-0.6-1.3-0.8l0.7-0.7c0.2-0.1,0.5-0.2,0.5-0.3l0-4.8c0-0.7,0-1.1,0.5-1.3    l-0.1-1.6l1-0.1l0.1,1.4c0.5-0.1,1.4,0.3,1.4,1.6v2.5c0,0.6-0.5,1.3-0.9,1.3l-1,0l0.1,1.1c0.2,0.1,0.6,0.3,1,0.4    c0.5,0.2,0.6,0.4,0.6,0.5C248.6,282.8,248.1,283.1,247.1,283.3L247.1,283.3L247.1,283.3z M247.4,273.8l-0.8,0.1l0.1,1.6    c-0.5,0.2-0.5,0.5-0.5,1l0,5.1c-0.1,0.3-0.4,0.4-0.6,0.4l-0.6,0.5c0,0.1,0.2,0.4,1.1,0.6l1,0c1-0.2,1.4-0.5,1.4-0.7    c-0.8-0.5-1.3-0.6-1.5-0.9l0-1.2l1.1-0.1c0.2,0,0.7-0.6,0.7-1.1v-2.5c0-1.4-1.1-1.5-1.3-1.5L247.4,273.8L247.4,273.8z     M247.6,279.6L247.6,279.6c-0.8-0.1-1-1.6-1.1-1.8v-1c0-0.4,0.5-1,0.9-1l0,0c0.3,0,0.9,0.4,0.9,0.9l0,2.1    C248.3,279,248,279.6,247.6,279.6L247.6,279.6z M247.4,275.8L247.4,275.8c-0.2,0.1-0.7,0.5-0.7,0.9v1c0,0.4,0.4,1.6,0.9,1.7    c0,0,0,0,0,0c0.3,0,0.5-0.4,0.5-0.7l0-2.1C248.1,276.3,247.6,275.9,247.4,275.8L247.4,275.8L247.4,275.8z"/></g>
    <path class="st3"
          d="M255.8,227.2c-7.9-8-14.2-4.1-15.7-3c1,0.2,1.9-0.4,2.3-0.5c-0.3,0.4-0.9,1.3-0.9,1.3s2.5-1.2,2.7-1.1   c-0.3,0.3-0.7,1-0.7,1c0.2,0.1,1.6-1.1,1.8-1.1c-0.4,0.5-0.6,1.6-0.6,1.6l1.2-0.6c0.3,0.2-0.1,0.6,0.2,0.6c2-0.2,4.8,1.8,5.2,2.4   L255.8,227.2z"/>
    <g><path class="st6" d="M251.5,227.8c-0.5-0.5-3.2-2.5-5.2-2.3l-0.1-0.2l0,0.1C248.3,225.2,251,227.2,251.5,227.8L251.5,227.8z     M255.7,227.3c-7.7-7.7-13.9-4.2-15.6-3c0.6,0,1.3-0.3,1.7-0.5l0.3,0c-0.8,0.4-1.4,0.6-2.1,0.5c1.7-1.4,8-5,15.8,2.8L255.7,227.3    L255.7,227.3z M244.9,225.5c-0.1-0.1,0-1,0.3-1.5c-0.2,0.2-0.4,0.4-0.7,0.5c-0.7,0.5-0.8,0.6-1,0.5c0-0.2,0.4-0.8,0.7-1.1    c-0.2,0.1-1.5,0.7-2.6,1.2c-0.1-0.1,0.4-0.9,0.7-1.3l0.2,0c-0.3,0.4-0.9,1.3-0.9,1.3c0.5-0.4,2.4-1.3,2.7-1.2    c-0.2,0.3-0.5,0.8-0.7,1c0.1-0.2,0.5-0.4,0.7-0.6c0.5-0.4,0.8-0.6,1-0.6C245,224.3,244.9,225.4,244.9,225.5l1.1-0.7l0,0.2    L244.9,225.5L244.9,225.5z"/></g>
    <path class="st3"
          d="M253.8,228.7c-0.8-1.9-16-5.1-19,0.3c1.2,0.3,2.3-1,2.3-1l-0.1,1.2l2-1.6l-0.7,1.6l1.6-1.3l-0.1,1.3l2-2.1   l-0.3,1.3l1.8-0.8l-0.2,1L253.8,228.7z"/>
    <g><path class="st6" d="M238.4,229.2l0.6-1.7l-1.9,1.7l0-1.2c-0.1,0.3-1.1,1.3-2.3,1c1.6-3.1,6.6-3.3,9.4-3.1    c4.4,0.2,9.3,1.6,9.8,2.7l-0.2,0.1c-0.4-1-4.9-2.4-9.6-2.6c-2.8-0.2-7.6,0-9.2,2.9c1,0.1,2.2-1.1,2.2-1.1l0,1.3l1.9-1.6    L238.4,229.2l1.5-1.4l0.1,1.4l1.8-2.2l-0.1,1.3l1.6-0.9l-0.1,1.1l0-1.1l-1.6,0.9l0.1-1.4l-1.8,2.2l-0.1-1.4L238.4,229.2    L238.4,229.2z"/></g>
    <path class="st3"
          d="M253.2,229c-3.9-2.6-9.9-0.8-9.9-0.8c-3.8,2.1-5.9,1.8-6.4,5.7c0.4-0.2,1.4-1.4,1.4-1.4l0.8,1.6l0.3-2.2   l0.6,1.7l0.9-2.8l0.2,1.9l1.4-1.9l0.7,0.5l0.6-1.4l0.6,0.9c0,0,1-0.6,1.6-0.2l1.1-1.3l0.3,0.9l0.9-1.1l0.4,0.8l0.9-0.9l-0.1,0.6   l3.2,0.1L253.2,229z"/>
    <g><path class="st6" d="M239.2,234l-0.9-1.5c0,0.1-0.9,1.3-1.3,1.4c0.2-3.1,1.5-3.7,3.7-4.6c0.7-0.3,1.6-0.7,2.6-1.3    c0.1,0,6.1-1.7,10,0.9l-0.1,0.2c-3.8-2.5-9.8-0.8-9.8-0.8c-1,0.5-1.8,0.9-2.6,1.3c-2.2,1-3.4,1.5-3.7,4.4c0.2-0.2,0.9-1.1,1.2-1.5    L239.2,234l0.1-2.2l0.8,1.7l0.8-2.8l0.4,1.9l1.3-1.9l0.8,0.5l0.5-1.4l0.7,0.9c0-0.1,0.9-0.6,1.5-0.3l1-1.2l0.4,0.9l0.8-1.1    l0.5,0.8l1-1l-0.1,0.8l3.1,0l-3.2,0.1l-0.1,0l0.1-0.7l-0.8,0.9l-0.5-0.8l-0.8,1.1l-0.4-0.9l-0.9,1.3c-0.6-0.3-1.6,0.3-1.6,0.3    l-0.7-1l-0.5,1.4l-0.8-0.5l-1.3,1.9l-0.4-1.9l-0.8,2.8l-0.8-1.7L239.2,234L239.2,234z"/></g>
    <path class="st3"
          d="M252.3,229.4c-2.7,0-10.5,2.9-12.5,5.9c0.8-0.4,1.3-0.6,1.3-0.6l0.4,1.2l0.5-1.2l0.1,0.9   c0.3-0.7,0.6-0.8,1.2-0.1l0.2-1.1l0.3,1.1l0.5-1.2c0,0,0.3,1.3,0.5,1.2c0,0,0.9-2.2,1.2-2.3l0.1,1.4l0.5-1.4l0.5,1l0.1-1.5l0.5,1.1   c0,0,0.3-1.1,0.7-1.3l0.8,0.7l3.5-2.5L252.3,229.4z"/>
    <g><path class="st6" d="M241.6,236l-0.5-1.2c0,0.1-0.5,0.3-1.2,0.7c1.9-3.3,9.6-6.1,12.4-6.1c0,0,0,0,0.1,0v0.2c0,0,0,0-0.1,0    c-2.7,0-10.4,2.9-12.3,5.9c0.7-0.6,1.2-0.8,1.2-0.8L241.6,236l0.3-1.3l0.3,1c0-0.4,0.2-0.6,0.4-0.7c0.2,0,0.5,0.1,0.8,0.6l0.1-1.1    l0.5,1.1l0.4-1.2c0.3,0.5,0.5,1.1,0.6,1.2c0.1-0.3,0.8-2.2,1.2-2.3l0.2,1.5l0.3-1.4l0.6,1l-0.1-1.5l0.7,1.1    c-0.1-0.2,0.2-1.1,0.6-1.3l0.9,0.7l3.3-2.5l-3.3,2.6l-0.9-0.7c-0.2,0.2-0.5,1-0.5,1.3l-0.7-1.1l0.1,1.5l-0.6-1l-0.3,1.4l-0.3-1.4    c-0.1,0.1-0.6,1.3-1.1,2.4c-0.4-0.1-0.6-1-0.7-1.3l-0.4,1.2l-0.5-1.1l0,1.1c-0.4-0.3-0.7-0.4-0.8-0.5c-0.1,0-0.3,0.2-0.4,0.5    l-0.3-1L241.6,236L241.6,236z"/></g>
    <path class="st3"
          d="M252.8,230.1c-3.6,1.4-6.8,6.3-6.6,8.4c1.6-2,1.3-1.7,2,0.6c0,0,0.3-2,0.5-2.2l0.5,1.5l0.2-1.9l0.5,0l-0.1-1.2   l0.7,0.5c-0.2-0.7-0.3-0.9,0.4-1.5c0,0-0.9,0.1-0.2-1.6l0.7,0.7c0,0-0.1-0.7,0.1-1l2.5-0.9L252.8,230.1z"/>
    <g><path class="st6" d="M248.3,239.1l-0.5-1c-0.1-0.5-0.2-0.9-0.3-0.9c0,0,0,0,0,0c-0.1,0-0.5,0.4-1,1c0,0,0-0.1,0-0.1    c0.6-0.9,0.8-1.2,1-1.1c0.2,0,0.3,0.3,0.5,1L248.3,239.1c-0.1-0.5,0.1-2.1,0.4-2.3l0.6,1.5v-1.9l0.3-1.2l0.2,0.1l-0.2-0.1l0.3,1.1    l-0.7,1.9l-0.6-1.5C248.6,237.1,248.4,238.3,248.3,239.1L248.3,239.1z M246.5,237.1c0.4-2.3,3.2-6,6.3-7.2l0.1,0.2    C249.9,231.3,247.2,234.8,246.5,237.1L246.5,237.1z M250.5,233.9c-0.3-0.3-0.2-0.7,0.1-1.3l0.8,0.6c-0.1-0.2-0.1-0.7,0.1-1    l2.6-0.9l-2.5,1.1c-0.1,0.2-0.1,0.7-0.1,0.9l-0.9-0.6C250.4,233.4,250.4,233.8,250.5,233.9L250.5,233.9z"/></g>
    <path class="st3"
          d="M253.2,230.4l-1.4,2.6l0.7,0.2l-1.6,1.2l1.3-0.1c0,0-2,0.7-2.3,2.7l2.1-0.9c0,0-1.7,1.8-2,2.9l1.2-1   c0,0-1.2,1.3-1,3.1l0.9-1c-0.2,2.3-0.1,2.5,0.9,4.2c0,0-0.3-2.7,0-3l2.3,2.4l-1.3-3.4c0,0,1.4,2.2,2.3,2l-1.8-2.8l1.8,1.4l-2-3   l1.9,0.6c0,0-1.4-1.7-1.3-2.8l1.3,1.4c0,0-0.5-1.6-0.3-2.1l0.7,0.1l-1.3-1.5l0.9-0.2l-0.1-1l0.6-0.2l0-1.1L253.2,230.4z"/>
    <g><path class="st6" d="M252.1,244.3c-1.2-1.7-1.3-1.9-1.1-4.3l-0.7,1c-0.3-1.8,0.7-3,0.8-3.2l0,0c0.1,0.1-1,1.4-0.8,3.2l0.7-1    C251,242.4,251.1,242.5,252.1,244.3c-0.2-0.4-0.4-2.7-0.1-3.1l2.4,2.4l-1.4-3.3c0.5,0.5,1.7,2,2.4,1.8l-1.9-2.6l1.9,1.3l-2.2-2.9    l1.9,0.4c-0.3-0.2-1.4-1.7-1.3-2.7l1.4,1.3c-0.2-0.3-0.6-1.6-0.4-2l0.8,0.1l-1.4-1.3l0.9-0.3l-0.2-0.9l0.7-0.3l-0.1-1l0.2,1.1    l-0.7,0.3l0.2,0.9l-0.9,0.3l1.3,1.3l-0.7,0c0,0.3,0.3,1.5,0.5,2l-1.5-1.3c0.1,1,1.4,2.7,1.4,2.7l-2-0.4l2.1,2.9l-1.9-1.3l2,2.6    c-1,0.4-2.4-1.8-2.5-1.9l1.4,3.3l-2.5-2.3C251.9,241.6,252,243.3,252.1,244.3L252.1,244.3z M252.2,241.4c0.4-1.1,0.5-2.6,0.6-4.1    c0.2-2,0.3-4.4,1.6-6.1l0.1,0.1c-1.3,1.7-1.4,4-1.6,6C252.9,238.8,252.8,240.3,252.2,241.4L252.2,241.4z M250.1,239    c0.1-1.2,1.8-2.9,1.9-3l-2,1.1c0.1-2.1,2.1-2.9,2.2-2.9l0,0c0,0.2-1.9,0.9-2.2,2.8l1.9-1C252.1,236.2,250.4,237.9,250.1,239l1-1.1    L250.1,239L250.1,239z M250.9,234.5l1.5-1.3l-0.7,0l1.3-2.7l0.2,0.1l-1.4,2.6l0.6,0.1L250.9,234.5l1.3-0.3L250.9,234.5    L250.9,234.5z"/></g>
    <path class="st5"
          d="M242.1,284.7c0-0.3-0.8-0.2-0.8-0.6c0-0.4,1.2-0.1,1.4,0.3c0.7-0.6,1-0.2,1.4,0c0.6-0.9,1.3-0.8,2-0.2   c0.4-0.5,1.4-0.3,1.8,0.2c0.7-0.7,1.3-0.5,1.8,0c0.2-0.4,0.5-0.3,0.7,0c0.4-0.6,1.3-0.4,1.7,0c0.3-0.4,0.7-0.1,1.1,0.2   c0.3-0.3,0.8-0.2,0.8,0c0,0.3-0.6,0.2-0.6,0.5c0,0.3,0.5,0.1,0.5,0.5c0,0.3-0.7,0.4-0.8-0.1c-0.2,0.5-1.1,0.3-1.2-0.1   c-0.3,0.3-0.9,0.4-1.3-0.1c-0.3,0.2-0.6,0.3-0.8,0c-0.5,0.6-1.4,0.5-1.7-0.2l-0.3,0c-0.5,0.7-1.3,0.4-1.6,0c-0.9,0.6-1.4,0.4-1.9,0   c-0.6,0.7-1.4,0.6-1.6,0c-0.4,0.3-1.2,0.3-1.2,0C241.5,284.8,242.1,285,242.1,284.7L242.1,284.7z M243.8,284.8   c0,0.2-0.2,0.3-0.4,0.3c-0.3,0-0.4-0.1-0.4-0.3c0-0.1,0.2-0.3,0.4-0.3C243.6,284.6,243.8,284.7,243.8,284.8L243.8,284.8z    M245.7,284.6c0,0.2-0.2,0.3-0.5,0.3c-0.3,0-0.5-0.1-0.5-0.3c0-0.2,0.2-0.3,0.5-0.3C245.5,284.3,245.7,284.4,245.7,284.6   L245.7,284.6z M249.4,284.8c0,0.2-0.2,0.3-0.5,0.3c-0.3,0-0.5-0.1-0.5-0.3c0-0.2,0.2-0.3,0.5-0.3   C249.1,284.5,249.4,284.6,249.4,284.8L249.4,284.8z M247.4,284.7c0,0.2-0.2,0.4-0.5,0.4c-0.3,0-0.5-0.2-0.5-0.4   c0-0.2,0.2-0.4,0.5-0.4C247.2,284.3,247.4,284.5,247.4,284.7L247.4,284.7z M251.6,284.7c0,0.2-0.2,0.4-0.4,0.4   c-0.2,0-0.4-0.2-0.4-0.4c0-0.2,0.2-0.4,0.4-0.4C251.4,284.4,251.6,284.5,251.6,284.7L251.6,284.7z M250.3,284.8   c0,0.1-0.1,0.2-0.3,0.2c-0.1,0-0.3-0.1-0.3-0.2c0-0.1,0.1-0.2,0.3-0.2C250.2,284.6,250.3,284.7,250.3,284.8L250.3,284.8z    M252.8,284.9c0,0.2-0.1,0.3-0.3,0.3c-0.2,0-0.3-0.2-0.3-0.3c0-0.2,0.1-0.3,0.3-0.3C252.6,284.6,252.8,284.7,252.8,284.9   L252.8,284.9z"/>
    <g><path class="st6" d="M248.9,285.7c-0.4,0-0.7-0.2-0.9-0.5c0.8,0.4,1.3,0.4,1.7,0l0.1-0.1l0.9,0c0.1,0.2,0.3,0.3,0.6,0.3l0.1-0.2    l0.6-0.1c0,0.2,0.3,0.3,0.6,0.3c-0.5,0.1-0.7-0.1-0.7-0.3c0,0.5-0.9,0.5-1.3,0l-0.7,0l0.1,0.1    C249.6,285.6,249.2,285.7,248.9,285.7L248.9,285.7z M243.3,285.7c-0.4,0-0.7-0.2-0.8-0.6c-0.1,0.2-0.4,0.3-0.7,0.3l0-0.3    c0.4,0,0.6,0,0.7-0.1c0.5,0.6,1.1,0.6,1.6,0c0.9,0.5,1.2,0.5,1.9,0c0.4,0.3,0.9,0.9,1.5,0c0.1,0,0.2,0.1,0.2,0.1    c-1.1,1-1.6,0.3-1.8,0c-0.6,0.7-1.5,0.4-1.9,0.1C244.1,285.5,243.7,285.7,243.3,285.7L243.3,285.7z M241.8,285l0-0.2    c-0.3-0.4-0.5-0.4-0.5-0.7c0.8-0.3,1.4-0.1,1.5,0.2c0.1-0.3,0.3-0.4,0.5-0.4l0.8,0.4l-0.1-0.1c0.6-0.9,1.4-0.9,2.2-0.2    c0.1-0.4,1.4-0.3,1.8,0.2c0.3-0.7,1.2-0.6,1.8,0c1.3-0.6,1.7-0.6,2.2-0.1c-0.8-0.1-1.2-0.5-1.6,0.2l-0.1,0.1l-0.8-0.1    c-0.5-0.5-1.1-0.5-1.6,0c-0.5-0.5-1.4-0.6-1.8-0.2c-1-0.6-1.5-0.6-2,0.2l-0.8-0.3c-0.2,0-0.4,0.1-0.6,0.3    c-0.2-0.2-0.7-0.4-1.1-0.4l0.6,0.7L241.8,285L241.8,285z"/></g>
    <polygon class="st5" points="264.1,256.6 266.7,251 265.6,250.8 260.9,260  "/>
    <g><path class="st6" d="M260.5,260.5l5-9.8l1.2,0.2l-2.5,5.7L260.5,260.5L260.5,260.5z M265.6,250.9l-4.3,8.6l2.8-3l2.6-5.5    L265.6,250.9L265.6,250.9z"/></g>
    <polygon class="st2" points="270.1,244.5 267.2,252.3 265.8,252.3  "/>
    <g><path class="st6" d="M267.3,252.4h-1.5l4.3-8L267.3,252.4L267.3,252.4z M270,244.5l-4.2,7.9l1.3-0.1L270,244.5L270,244.5z"/></g>
    <polygon class="st5" points="261.5,249.4 260,249.3 257.4,260.3 258,263.8  "/>
    <g><path class="st6" d="M257.9,264.3l-0.6-3.9l2.6-11l1.5,0L257.9,264.3L257.9,264.3z M261.4,249.3l-1.3,0.1l-2.5,10.9l0.5,3    L261.4,249.3L261.4,249.3z"/></g>
    <polygon class="st5" points="260.2,260.7 264.6,248.9 263,248.8 257.9,263.2  "/>
    <g><path class="st6" d="M257.6,263.6l5.3-14.9l1.7,0l-4.3,11.9L257.6,263.6L257.6,263.6z M264.5,248.8l-1.6,0l-4.9,14l2.1-2.2    L264.5,248.8L264.5,248.8z"/></g>
    <polygon class="st2" points="266.7,242.1 264.9,250.4 263.4,250.4  "/>
    <g><path class="st6" d="M265,250.5h-1.5l3.2-8.3L265,250.5L265,250.5z M266.6,242.1l-3.1,8.3l1.3-0.1L266.6,242.1L266.6,242.1z"/></g>
    <polygon class="st2" points="263,242 262,250.5 260.9,250.4  "/>
    <g><path class="st6" d="M262.1,250.6l-1.1-0.1l1.9-8.5L262.1,250.6L262.1,250.6z M262.9,242l-1.8,8.4l0.9,0L262.9,242L262.9,242z"/></g>
    <path class="st7" d="M263.8,257.4l11.7-12.8c3.7,2.9,3,8.2,3,8.2l-13.3,10.4L263.8,257.4z"/>
    <g><path class="st6" d="M265.2,263.4l-1.5-6l11.7-12.9c3.8,2.9,3.1,8.2,3.1,8.3L265.2,263.4L265.2,263.4z M275.5,244.7l-11.6,12.8    l1.4,5.6l13.2-10.3l0,0C278.4,252.8,279,247.5,275.5,244.7L275.5,244.7z"/></g>
    <path class="st8" d="M257,264.4l8.7-8.8c3.7,0.1,0.8,5.6,0.6,6.3l-9.3,7.9V264.4z"/>
    <g><path class="st6" d="M256.9,270v-5.6l8.7-8.9h0c0.8,0,1.4,0.3,1.7,0.7c0.8,1.3-0.2,3.9-0.7,5.1l-0.2,0.6L256.9,270L256.9,270z     M265.7,255.7l-8.6,8.8l0,5.2l9.1-7.8c0-0.1,0.1-0.3,0.2-0.5c0.5-1.2,1.5-3.7,0.8-4.9C266.9,256,266.4,255.8,265.7,255.7    L265.7,255.7z"/></g>
    <polygon class="st5" points="257.8,262.9 275.7,243.7 276.4,244.2 257.4,265.3  "/>
    <g><path class="st6" d="M257.3,265.6l0.4-2.7l18-19.3l0.8,0.5L257.3,265.6L257.3,265.6z M275.7,243.8L257.8,263l-0.3,2l18.8-20.9    L275.7,243.8L275.7,243.8z"/></g>
    <polygon class="st5" points="276.8,242.5 277.2,242 277.1,241.1 280.8,238.7 279.2,242.5 277.9,242.7 277.5,243.1  "/>
    <g><path class="st6" d="M277.5,243.2l-0.8-0.7l0.5-0.5l-0.1-0.9l3.7-2.4l-1.5,3.8L277.5,243.2L277.5,243.2z M280.7,238.7l-3.6,2.5    l0.1,0.9l-0.4,0.5l0.7,0.5l0.3-0.4l1.3-0.3L280.7,238.7L280.7,238.7z"/></g>
    <path class="st5" d="M278.7,243.8c-0.6-0.8-1.4-1.5-2.7-2.2l-1,1.5l2.2,1.9L278.7,243.8z"/>
    <g><path class="st6" d="M277.1,245l-2.3-1.9l1-1.6c1.5,0.7,2.3,1.5,2.9,2.2L277.1,245L277.1,245z M275.9,241.7l-0.9,1.5l2.1,1.7    l1.5-1.1C277.9,243,277.2,242.3,275.9,241.7L275.9,241.7z"/></g>
    <path class="st7" d="M268.9,260.8l14.7-11.7c2.5,2.6,0.4,10.5,0.4,10.5l-14.4,7.8L268.9,260.8z"/>
    <g><path class="st6" d="M269.6,267.5l-0.8-6.7l14.7-11.8c2.7,2.6,0.7,10.2,0.6,10.6L269.6,267.5L269.6,267.5z M283.6,249.2L269,260.9    l0.8,6.4l14.3-7.7C284,259.5,286,251.7,283.6,249.2L283.6,249.2z"/></g>
    <path class="st8" d="M256.7,270.3l12.1-9.7c4.1,0.6,0.9,6.7,0.6,7.3l-12.8,6.9L256.7,270.3z"/>
    <g><path class="st6" d="M256.6,275l0-4.7l12.1-9.8c1,0.1,1.6,0.5,1.9,1.1c0.9,1.7-0.5,4.8-1,6l-0.2,0.1c0.6-1.4,2-4.4,1.1-6    c-0.3-0.6-0.9-0.9-1.7-1l-12,9.7l0,4.3l9.6-5.2L256.6,275L256.6,275z"/></g>
    <polygon class="st5" points="257.2,268.3 283.4,248.7 284,249.3 256.5,270.7  "/>
    <g><path class="st6" d="M256.3,271l0.8-2.7l26.2-19.7l0.7,0.6L256.3,271L256.3,271z M283.3,248.7l-26.1,19.6l-0.6,2.1l27.3-21.3    L283.3,248.7L283.3,248.7z"/></g>
    <polygon class="st5" points="284.6,247.6 285.1,247.2 285.2,246.3 289.3,244.6 287,248 285.7,248 285.2,248.4  "/>
    <g><path class="st6" d="M285.1,248.5l-0.7-0.9l0.6-0.4l0.1-0.8l4.1-1.8l-2.2,3.5L285.1,248.5L285.1,248.5z M289.2,244.6l-4,1.8    l-0.1,0.9l-0.5,0.4l0.6,0.6l0.4-0.3l1.3,0L289.2,244.6L289.2,244.6z"/></g>
    <path class="st5" d="M286.2,249.3c-0.5-0.9-1.1-1.7-2.3-2.7l-1.3,1.3l1.8,2.2L286.2,249.3z"/>
    <g><path class="st6" d="M284.5,250.2l-1.9-2.3l1.3-1.4c1.4,1,2,1.9,2.4,2.7L284.5,250.2L284.5,250.2z M283.9,246.7l-1.2,1.3l1.8,2    l1.6-0.8C285.7,248.5,285.1,247.6,283.9,246.7L283.9,246.7z"/></g>
    <path class="st7"
          d="M270,267.9c0.2,0,19-10.7,19-10.7c1.4,2.3,0.1,5.7-0.5,6.2c0,1.5,0.6,2.4-0.7,5.6c-0.4,2.1-1.4,4-2.8,5.1   c-1.7,6.6-8.4,7-11,1.7L270,267.9z"/>
    <g><path class="st6" d="M279.2,279.6c-2.2,0-4.2-1.4-5.3-3.7l-4-7.9c0.3-0.2,12.6-7.2,19-10.8c1.6,2.5,0.2,5.8-0.4,6.3    c0,0.3,0.1,0.7,0.1,1c0.1,1,0.2,2.1-0.8,4.5c-0.4,2.2-1.4,4.1-2.8,5.2C284,278.1,281.4,279.6,279.2,279.6L279.2,279.6z     M288.8,257.3c-3,1.8-18.7,10.7-18.9,10.7l4.1,7.7c1.1,2.3,3,3.6,5.2,3.6c2.1,0,4.7-1.4,5.7-5.3c1.4-1.1,2.4-3,2.8-5.1    c1-2.4,0.9-3.4,0.8-4.5c0-0.4-0.1-0.7-0.1-1.1C288.9,262.9,290.2,259.6,288.8,257.3L288.8,257.3z"/></g>
    <path class="st8" d="M257.5,275l12.9-7.5c4.1,0.6-0.1,8.2-0.3,8.9l-12.4,4.4L257.5,275z"/>
    <g><path class="st6" d="M257.6,280.9l-0.1-5.9l12.9-7.6c0.8,0.1,1.3,0.4,1.6,1c1,1.9-0.9,6-1.6,7.5l-0.3,0.6L257.6,280.9L257.6,280.9    z M270.4,267.5l-12.8,7.5l0.2,5.6l12.3-4.4c0.9-2,2.8-6,1.8-7.8C271.6,267.9,271.1,267.6,270.4,267.5L270.4,267.5z"/></g>
    <polygon class="st5" points="259.7,272.2 288.7,256.8 289.2,257.5 258.6,274.5  "/>
    <g><path class="st6" d="M258.4,274.7l1.2-2.5l29.1-15.5l0.6,0.7L258.4,274.7L258.4,274.7z M288.7,256.8l-28.9,15.5l-0.9,2l30.4-16.9    L288.7,256.8L288.7,256.8z"/></g>
    <polygon class="st5"
             points="290.1,255.9 290.7,255.6 290.9,254.8 295.2,253.7 292.4,256.7 291.1,256.5 290.6,256.8  "/>
    <g><path class="st6" d="M290.5,256.9l-0.5-1l0.6-0.4l0.2-0.8l4.4-1.1l-2.7,3.2l-1.4-0.2L290.5,256.9L290.5,256.9z M295.2,253.6    l-4.2,1.2l-0.2,0.8l-0.5,0.3l0.5,0.7l0.5-0.3l1.3,0.2L295.2,253.6L295.2,253.6z"/></g>
    <path class="st5" d="M291.5,257.8c-0.3-0.9-0.8-1.9-1.8-3l-1.5,1.1l1.5,2.5L291.5,257.8z"/>
    <g><path class="st6" d="M289.6,258.5l-1.5-2.5l1.5-1.2c1.2,1.2,1.6,2.1,2,3L289.6,258.5L289.6,258.5z M289.6,254.9l-1.3,1.1l1.4,2.3    l1.8-0.5C291.1,257,290.6,256,289.6,254.9L289.6,254.9z"/></g>
    <path class="st7"
          d="M280.6,247.1l-0.6,1.1c-0.4-0.1-4.1-3.5-4.1-3.5l-2.7-0.1l-0.8-0.9c2-2.1,3.8,0.3,3.8,0.3L280.6,247.1z"/>
    <g><path class="st9" d="M280.1,248.2L280.1,248.2c-0.5-0.2-3.9-3.2-4.2-3.6l-2.6-0.1l-0.8-0.9c1.6-2.1,3.9,0.1,4,0.2l4.3,3.1    L280.1,248.2L280.1,248.2z M274.2,242.9c-0.6,0-1.1,0.3-1.7,0.8l0.8,0.7l2.6,0.1c1.5,1.3,3.6,3.2,4.1,3.5l0.6-1l-4.3-3    C276.2,244,275.3,242.9,274.2,242.9L274.2,242.9z"/></g>
    <path class="st8"
          d="M278.5,248.8c-0.1-0.9-1.9-3.3-2.2-3.4c-1.3,0.4-2.6,1.2-3.9-1.9c1.2,1.5,3.6,0,3.6,0l1,0.9l0,0.4l3.1,2.9   L278.5,248.8z"/>
    <g><path class="st10" d="M278.4,249l0-0.1c-0.1-0.8-1.3-2.4-1.9-3c0.8,0.6,1.8,2.1,2,2.9l1.5-1l-4.1-4c0,0.1-2.6,1.2-3.6,0    c1.7,3.1,2.6,2.2,3.6,1.9c0,0,0.2,0,0.3,0.1c-2.3,0.8-2.9,0.3-3.9-2c1.3,0.9,3.6-0.1,3.6-0.1l1.1,0.9l3.1,3.3L278.4,249L278.4,249    z"/></g>
    <path class="st7"
          d="M287.7,252.6l-0.2,1.1c-0.3-0.2-3.6-3.8-3.6-3.8l-2.7-0.5l-0.5-0.8c1.8-2.2,3.8,0.7,3.8,0.7L287.7,252.6z"/>
    <g><path class="st9" d="M287.6,253.8l-0.1-0.1c-0.4-0.2-3.3-3.5-3.7-3.8l-2.6-0.5l-0.6-0.9c1.6-2.2,3.9,0.5,4,0.6l3.2,3.3    L287.6,253.8L287.6,253.8z M282.2,247.8c-0.5,0-1,0.3-1.4,0.8l0.5,0.7l2.6,0.5c1.2,1.3,3,3.3,3.6,3.7l0.1-0.9l-3.2-3.3    C284.4,249.2,283.4,247.8,282.2,247.8L282.2,247.8z"/></g>
    <path class="st8"
          d="M285.6,254.5c0.1-1-1.3-4-1.5-4.1c-1.6,0.5-3,1.2-3.5-2.1c0.9,1.7,3.5,0.4,3.5,0.4l0.9,1l-0.1,0.5l2.7,3.5   L285.6,254.5z"/>
    <g><path class="st10" d="M285.5,254.7l0-0.2c0.1-0.7-0.7-2.7-1.2-3.5c0.6,0.9,1.3,2.6,1.3,3.4l1.8-0.8l-2.7-3.3l0.1-0.6l-0.9-0.9    c0,0.1-2.8,0.9-3.6-0.4c0.9,3.5,2,2.5,3.2,2.1c0.1,0,0.2,0,0.2,0.1c-2.4,0.8-3,0.3-3.5-2.2c1.1,1.1,3.6,0.3,3.6,0.3l1,1.1    l-0.1,0.6l2.7,3.4L285.5,254.7L285.5,254.7z"/></g>
    <path class="st7"
          d="M292.6,261.3l-0.6,1.2c-0.3-0.2-3.1-4.7-3.1-4.7l-2.5-0.8l-0.5-1c2-1.9,3.6,1.4,3.6,1.4L292.6,261.3z"/>
    <g><path class="st9" d="M292,262.6L292,262.6c-0.4-0.3-2.9-4.3-3.2-4.8l-2.5-0.8l-0.5-1.1c1.9-2.1,3.7,1.2,3.8,1.3l3.1,4L292,262.6    L292,262.6z M287.2,255.4c-0.4,0-0.8,0.2-1.2,0.6l0.5,0.9l2.5,0.8c1.1,1.7,2.6,4.1,3,4.6l0.5-1.1l-3.1-3.9    C289.4,257.3,288.5,255.4,287.2,255.4L287.2,255.4z"/></g>
    <path class="st8"
          d="M289.9,263c0.2-1-0.5-4.3-0.7-4.4c-1.6,0.5-2.9,0.6-3.3-2.7c0.9,1.6,3.4,1,3.4,1l0.7,1.1l-0.1,0.4l2.1,4   L289.9,263z"/>
    <g><path class="st10" d="M289.8,263.1l0-0.2c0.2-1-0.5-4.2-0.7-4.4c-0.4,0.1-0.8,0.3-1.3,0.3c-1.2,0-1.8-0.9-2-3    c1.2,1.4,3.5,0.9,3.5,0.9l0.8,1.2l2,4.4L289.8,263.1L289.8,263.1z M289.1,258.5c0.4,0.2,1,3.3,0.9,4.4l1.9-0.6l-2.7-5.4    c-0.1,0.1-2.5,0.6-3.4-1C286.5,259.8,287.9,258.8,289.1,258.5L289.1,258.5z"/></g>
    <polygon class="st5"
             points="259.9,279.3 267.1,277.1 270.3,271.7 281.4,271.2 281.1,275.2 271.6,277 270.7,278.6 259.7,281.7  "/>
    <g><path class="st6" d="M259.6,281.8l0.2-2.5l7.3-2.3l3.1-5.3l11.2-0.6l-0.3,4.1l-9.6,1.9l-0.8,1.6L259.6,281.8L259.6,281.8z     M281.4,271.2l-11,0.6l-3.1,5.3l-7.3,2.3l-0.1,2.1l10.8-3l0.8-1.6l9.6-1.9L281.4,271.2L281.4,271.2z"/></g>
    <polygon class="st11" points="267.5,280.8 278.9,264 279.4,264.5 268.1,281.3  "/>
    <g><path class="st6" d="M268.1,281.5l-0.7-0.6l11.4-16.9l0.7,0.4L268.1,281.5L268.1,281.5z M278.8,264.1l-11.3,16.8l0.5,0.3    l11.3-16.8L278.8,264.1L278.8,264.1z"/></g>
    <path class="st2" d="M277.8,264.7l1.2-2c0.2-0.4,0.6-0.5,1.1-0.2c0.5,0.3,0.4,0.8,0.2,1.1l-1.1,1.9L277.8,264.7z"/>
    <g><path class="st6" d="M279.3,265.6l-1.5-0.8l1.2-2.2c0.2-0.3,0.4-0.4,0.7-0.4c0.7,0.3,0.9,0.4,0.9,0.6c0.1,0.2,0,0.5-0.1,0.8    L279.3,265.6L279.3,265.6z M279.6,262.4l-1.7,2.4l1.3,0.6l1.1-1.8c0.1-0.2,0.2-0.5,0.1-0.7L279.6,262.4L279.6,262.4z"/></g>
    <polygon class="st5" points="266.1,270.5 289.2,268.1 289.7,271.5 266.8,273.8  "/>
    <g><path class="st6" d="M266.7,273.9l-0.7-3.4l23.1-2.5l0.7,3.4L266.7,273.9L266.7,273.9z M289.1,268.1l-22.9,2.4l0.7,3.1l22.8-2.3    L289.1,268.1L289.1,268.1z"/></g>
    <polygon class="st5" points="289.6,267.3 290.1,271.9 289.2,271.9 288.5,267.7  "/>
    <g><polygon class="st6" points="290.3,272 289.2,272 288.4,267.7 289.5,267.2 290.3,272   "/></g>
    <polygon class="st5" points="285.7,268 286,272.2 285.4,272.3 284.9,268.6  "/>
    <g><polygon class="st6" points="285.3,272.4 284.8,268.6 285.7,267.9 286.1,272.3 285.3,272.4   "/></g>
    <polygon class="st5" points="270.1,269.8 270.7,273.7 269.5,273.7 269.1,269.8  "/>
    <g><polygon class="st6" points="270.8,273.8 269.5,273.8 269,269.8 270.1,269.7 270.8,273.8   "/></g>
    <path class="st5"
          d="M266.7,269.9l0.8,4.5l-1.3,0.2l-0.4-2.4c-0.1,0.5-0.5,0.8-1.1,0.8c-0.6,0-1.1-0.5-1.1-1.1c0-0.6,0.5-1,1.1-1   c0.4,0,0.8,0.2,1,0.7l-0.2-1.7L266.7,269.9z"/>
    <g><path class="st6" d="M266.1,274.8l-0.4-2.5c0.1,1.2-2.2,0.9-2.2-0.2c0-1.1,1.8-1.5,2.2-0.4l-0.4-1.7l1.3-0.2l0.9,4.6L266.1,274.8    L266.1,274.8z M265.8,272.2l0.5,2.3l1.2-0.2l-0.9-4.4l-1.1,0.1l0.3,1.6c-0.8-0.8-2.1-0.5-2.1,0.4    C263.8,273,265.5,273.2,265.8,272.2L265.8,272.2z"/></g>
    <polygon class="st5" points="275,270.7 278.2,274.2 277.8,274.7 273.7,271.9  "/>
    <g><path class="st6" d="M277.8,274.8l-4.1-2.8l1.3-1.4l3.3,3.6L277.8,274.8L277.8,274.8z M274.9,270.7l-1.1,1.2l4,2.6l0.3-0.4    L274.9,270.7L274.9,270.7z"/></g>
    <polygon class="st5" points="282.4,279.6 279.2,276 279.6,275.6 283.6,278.3  "/>
    <g><path class="st6" d="M282.3,279.7l-3.3-3.7l0.4-0.5l4.2,2.8L282.3,279.7L282.3,279.7z M279.5,275.6l2.9,3.8l1.2-1.1L279.5,275.6    L279.5,275.6z"/></g>
    <polygon class="st5" points="274.1,278.7 277.9,275.7 278.3,276 275.3,279.8  "/>
    <g><path class="st6" d="M275.3,279.9l-1.3-1.2l3.9-3.1l0.5,0.4L275.3,279.9L275.3,279.9z M278.2,275.9l-4.1,2.8l1.1,0.9L278.2,275.9    L278.2,275.9z"/></g>
    <polygon class="st5" points="283.6,271.8 279.7,274.7 279.2,274.3 282.2,270.5  "/>
    <g><path class="st6" d="M279.7,274.8l-0.5-0.4l3-4l1.4,1.3L279.7,274.8L279.7,274.8z M282.2,270.5l-2.9,3.8l0.4,0.3l-0.1-0.1l3.9-2.9    L282.2,270.5L282.2,270.5z"/></g>
    <polygon class="st5" points="279.3,269.4 278.9,274.1 278.4,274.1 277.2,269.5  "/>
    <g><path class="st6" d="M279,274.2l-0.6,0l-1.3-4.6l2.2-0.2L279,274.2L279,274.2z M279.2,269.4l-2,0.2l1.3,4.4l0.3,0L279.2,269.4    L279.2,269.4z"/></g>
    <polygon class="st5" points="278,280.8 278.4,276.1 279,276 279.7,280.8  "/>
    <g><path class="st6" d="M279.8,280.9H278l0.3-4.9l0.7-0.1L279.8,280.9L279.8,280.9z M278.9,276.1l-0.8,4.7l1.5-0.1L278.9,276.1    L278.9,276.1z"/></g>
    <polygon class="st5" points="272.8,274.5 277.8,275 277.8,275.5 272.9,276.1  "/>
    <g><path class="st6" d="M272.8,276.2l0-1.7l5,0.5l0.1,0.6L272.8,276.2L272.8,276.2z M272.8,274.6l0.1,1.4l4.9-0.6L272.8,274.6    L272.8,274.6z"/></g>
    <polygon class="st5" points="284.5,276.1 279.7,275.3 279.6,275 284.6,274.4  "/>
    <g><polygon class="st6" points="284.6,276.2 279.7,275.4 280.6,275.2 284.4,276 284.5,274.4 283.8,274.5 284.6,274.3 284.6,276.2       "/></g>
    <path class="st5"
          d="M277.4,275c0,0.7,0.6,1.3,1.3,1.3c0.7,0,1.3-0.6,1.3-1.3c0-0.7-0.6-1.3-1.3-1.3   C278,273.7,277.4,274.3,277.4,275L277.4,275z"/>
    <g><path class="st6" d="M278.7,276.3c-0.8,0-1.4-0.6-1.4-1.3c0-1.5,2.8-1.5,2.8,0C280.1,275.7,279.5,276.3,278.7,276.3L278.7,276.3z     M278.7,273.8c-0.7,0-1.2,0.5-1.2,1.2c0,1.3,2.4,1.3,2.4,0C279.9,274.4,279.4,273.8,278.7,273.8L278.7,273.8z"/></g>
    <path class="st5"
          d="M271.8,275c0,3.7,3.1,6.7,6.9,6.7c3.8,0,6.9-3,6.9-6.7c0-3.7-3.1-6.7-6.9-6.7   C274.9,268.3,271.8,271.3,271.8,275L271.8,275z M273.2,275c0,2.9,2.5,5.3,5.5,5.3c3,0,5.5-2.4,5.5-5.3c0-2.9-2.5-5.3-5.5-5.3   C275.6,269.7,273.2,272.1,273.2,275L273.2,275z"/>
    <g><path class="st6" d="M278.7,281.8c-3.9,0-7-3-7-6.8c0-3.7,3.1-6.8,7-6.8c3.9,0,7,3,7,6.8C285.7,278.7,282.6,281.8,278.7,281.8    L278.7,281.8z M278.7,268.4c-3.8,0-6.8,2.9-6.8,6.6c0,3.6,3.1,6.6,6.8,6.6c3.8,0,6.8-2.9,6.8-6.6    C285.5,271.4,282.5,268.4,278.7,268.4L278.7,268.4z M278.7,280.4c-3.1,0-5.6-2.4-5.6-5.4c0-3,2.5-5.4,5.6-5.4    c3.1,0,5.6,2.4,5.6,5.4C284.3,278,281.8,280.4,278.7,280.4L278.7,280.4z M278.7,269.8c-3,0-5.4,2.4-5.4,5.2c0,2.9,2.4,5.2,5.4,5.2    c3,0,5.4-2.4,5.4-5.2C284.1,272.1,281.7,269.8,278.7,269.8L278.7,269.8z"/></g>
    <g><path class="st12" d="M283,271.6l1.1-0.8L283,271.6z M275.3,270.8l-0.9-0.9L275.3,270.8z M273.3,279.3l1.1-0.9L273.3,279.3z     M283,280.3l-1-1L283,280.3z"/></g>
    <polygon class="st5" points="259.8,268.4 258.6,274.4 259.5,275 260.6,268.5  "/>
    <g><path class="st6" d="M259.6,275.1l-1.1-0.6l1.1-6.1l0.9,0L259.6,275.1L259.6,275.1z M260.5,268.5l-0.7,0l-1.1,6l0.8,0.4    L260.5,268.5L260.5,268.5z"/></g>
    <path class="st2"
          d="M260.4,267.6c0.6-0.2,1.3,0.2,2.4-1.3c1.9,1.8,0.1,2-0.2,3.8c-0.5,0.2-0.9-1.4-2.4-1.5c-0.2,0-2.4-0.2-2.4-0.2   l0.5-0.7C258.4,267.6,260,267.7,260.4,267.6L260.4,267.6z"/>
    <g><path class="st6" d="M262.5,270.2c-0.2,0-0.4-0.2-0.6-0.5c-0.3-0.4-0.8-1-1.6-1l-2.4-0.2l0.5-0.9l2.5-0.1c0.5-0.1,1.1-0.1,1.9-1.2    c1.4,1.2,1.1,1.8,0.6,2.5c-0.2,0.4-0.5,0.8-0.6,1.4L262.5,270.2L262.5,270.2z M258.4,267.7l-0.5,0.7l2.3,0.1    c0.9,0.1,1.4,0.7,1.7,1.1c0.2,0.2,0.4,0.4,0.5,0.4v0.1l0.1-0.1c0-0.6,0.3-1,0.6-1.4c0.5-0.7,0.8-1.2-0.4-2.3    c-0.8,1.1-1.4,1.2-1.9,1.3l-0.9,0.1L258.4,267.7L258.4,267.7z"/></g>
    <path class="st2" d="M259.6,268.8l0.2-1.8c0.2-0.6,1-0.1,1,0.3l-0.2,1.7L259.6,268.8z"/>
    <g><path class="st6" d="M260.7,269.1l-1.1-0.2l0.2-1.9c0.2-0.1,0.3-0.1,0.4-0.1l-0.5,2l0.9,0l0.2-1.6c0-0.1-0.2-0.4-0.4-0.4h0    c0.4,0,0.6,0.2,0.6,0.4L260.7,269.1L260.7,269.1z"/></g>
    <path class="st5"
          d="M273,283.7c0,0.3,0.1,0.5,0.4,0.6c0.2,0.1,0.5,0.1,0.8,0c0.2-0.1,0.4-0.4,0.4-0.6c0-0.3-0.1-0.5-0.4-0.6   c-0.2-0.1-0.5-0.1-0.8,0C273.1,283.2,273,283.4,273,283.7L273,283.7z"/>
    <g><path class="st12" d="M273,283.7c0,0.3,0.1,0.5,0.4,0.6c0.2,0.1,0.5,0.1,0.8,0c0.2-0.1,0.4-0.4,0.4-0.6c0-0.3-0.1-0.5-0.4-0.6    c-0.2-0.1-0.5-0.1-0.8,0C273.1,283.2,273,283.4,273,283.7z"/></g>
    <path class="st5"
          d="M274.9,282.3c0,0.3,0.1,0.5,0.4,0.6c0.2,0.1,0.5,0.1,0.8,0c0.2-0.1,0.4-0.4,0.4-0.6c0-0.3-0.1-0.5-0.4-0.6   c-0.2-0.1-0.5-0.1-0.8,0C275.1,281.8,274.9,282.1,274.9,282.3L274.9,282.3z"/>
    <g><path class="st12" d="M274.9,282.3c0,0.3,0.1,0.5,0.4,0.6c0.2,0.1,0.5,0.1,0.8,0c0.2-0.1,0.4-0.4,0.4-0.6c0-0.3-0.1-0.5-0.4-0.6    c-0.2-0.1-0.5-0.1-0.8,0C275.1,281.8,274.9,282.1,274.9,282.3z"/></g>
    <path class="st5"
          d="M277.5,283.2c0,0.3,0.1,0.5,0.4,0.6c0.2,0.1,0.5,0.1,0.8,0c0.2-0.1,0.4-0.4,0.4-0.6c0-0.3-0.1-0.5-0.4-0.6   c-0.2-0.1-0.5-0.1-0.8,0C277.7,282.7,277.5,283,277.5,283.2L277.5,283.2z"/>
    <g><path class="st12" d="M277.5,283.2c0,0.3,0.1,0.5,0.4,0.6c0.2,0.1,0.5,0.1,0.8,0c0.2-0.1,0.4-0.4,0.4-0.6c0-0.3-0.1-0.5-0.4-0.6    c-0.2-0.1-0.5-0.1-0.8,0C277.7,282.7,277.5,283,277.5,283.2z"/></g>
    <path class="st5"
          d="M281.6,284.1c0,0.3,0.1,0.5,0.4,0.6c0.2,0.1,0.5,0.1,0.8,0c0.2-0.1,0.4-0.4,0.4-0.6c0-0.3-0.1-0.5-0.4-0.6   c-0.2-0.1-0.5-0.1-0.8,0C281.7,283.6,281.6,283.8,281.6,284.1L281.6,284.1z"/>
    <g><path class="st12" d="M281.6,284.1c0,0.3,0.1,0.5,0.4,0.6c0.2,0.1,0.5,0.1,0.8,0c0.2-0.1,0.4-0.4,0.4-0.6c0-0.3-0.1-0.5-0.4-0.6    c-0.2-0.1-0.5-0.1-0.8,0C281.7,283.6,281.6,283.8,281.6,284.1z"/></g>
    <path class="st5"
          d="M283.3,284.3c0,0.3,0.1,0.5,0.4,0.6c0.2,0.1,0.5,0.1,0.8,0c0.2-0.1,0.4-0.4,0.4-0.6c0-0.3-0.1-0.5-0.4-0.6   c-0.2-0.1-0.5-0.1-0.8,0C283.4,283.8,283.3,284,283.3,284.3L283.3,284.3z"/>
    <g><path class="st12" d="M283.3,284.3c0,0.3,0.1,0.5,0.4,0.6c0.2,0.1,0.5,0.1,0.8,0c0.2-0.1,0.4-0.4,0.4-0.6c0-0.3-0.1-0.5-0.4-0.6    c-0.2-0.1-0.5-0.1-0.8,0C283.4,283.8,283.3,284,283.3,284.3z"/></g>
    <path class="st5"
          d="M285,284.3c0,0.3,0.1,0.5,0.4,0.6c0.2,0.1,0.5,0.1,0.8,0c0.2-0.1,0.4-0.4,0.4-0.6c0-0.3-0.1-0.5-0.4-0.6   c-0.2-0.1-0.5-0.1-0.8,0C285.1,283.8,285,284,285,284.3L285,284.3z"/>
    <g><path class="st12" d="M285,284.3c0,0.3,0.1,0.5,0.4,0.6c0.2,0.1,0.5,0.1,0.8,0c0.2-0.1,0.4-0.4,0.4-0.6c0-0.3-0.1-0.5-0.4-0.6    c-0.2-0.1-0.5-0.1-0.8,0C285.1,283.8,285,284,285,284.3z"/></g>
    <path class="st5"
          d="M286.7,284.3c0,0.3,0.1,0.5,0.4,0.6c0.2,0.1,0.5,0.1,0.8,0c0.2-0.1,0.4-0.4,0.4-0.6c0-0.3-0.1-0.5-0.4-0.6   c-0.2-0.1-0.5-0.1-0.8,0C286.8,283.8,286.7,284,286.7,284.3L286.7,284.3z"/>
    <g><path class="st12" d="M286.7,284.3c0,0.3,0.1,0.5,0.4,0.6c0.2,0.1,0.5,0.1,0.8,0c0.2-0.1,0.4-0.4,0.4-0.6c0-0.3-0.1-0.5-0.4-0.6    c-0.2-0.1-0.5-0.1-0.8,0C286.8,283.8,286.7,284,286.7,284.3z"/></g>
    <path class="st5"
          d="M285.8,283c0,0.3,0.1,0.5,0.4,0.6c0.2,0.1,0.5,0.1,0.8,0c0.2-0.1,0.4-0.4,0.4-0.6c0-0.3-0.1-0.5-0.4-0.6   c-0.2-0.1-0.5-0.1-0.8,0C286,282.5,285.8,282.7,285.8,283L285.8,283z"/>
    <g><path class="st12" d="M285.8,283c0,0.3,0.1,0.5,0.4,0.6c0.2,0.1,0.5,0.1,0.8,0c0.2-0.1,0.4-0.4,0.4-0.6c0-0.3-0.1-0.5-0.4-0.6    c-0.2-0.1-0.5-0.1-0.8,0C286,282.5,285.8,282.7,285.8,283z"/></g>
    <path class="st5"
          d="M284.2,283c0,0.3,0.1,0.5,0.4,0.6c0.2,0.1,0.5,0.1,0.8,0c0.2-0.1,0.4-0.4,0.4-0.6c0-0.3-0.1-0.5-0.4-0.6   c-0.2-0.1-0.5-0.1-0.8,0C284.3,282.5,284.2,282.8,284.2,283L284.2,283z"/>
    <g><path class="st12" d="M284.2,283c0,0.3,0.1,0.5,0.4,0.6c0.2,0.1,0.5,0.1,0.8,0c0.2-0.1,0.4-0.4,0.4-0.6c0-0.3-0.1-0.5-0.4-0.6    c-0.2-0.1-0.5-0.1-0.8,0C284.3,282.5,284.2,282.8,284.2,283z"/></g>
    <path class="st5"
          d="M282.6,282.8c0,0.3,0.1,0.5,0.4,0.6c0.2,0.1,0.5,0.1,0.8,0c0.2-0.1,0.4-0.4,0.4-0.6c0-0.3-0.1-0.5-0.4-0.6   c-0.2-0.1-0.5-0.1-0.8,0C282.7,282.3,282.6,282.6,282.6,282.8L282.6,282.8z"/>
    <g><path class="st12" d="M282.6,282.8c0,0.3,0.1,0.5,0.4,0.6c0.2,0.1,0.5,0.1,0.8,0c0.2-0.1,0.4-0.4,0.4-0.6c0-0.3-0.1-0.5-0.4-0.6    c-0.2-0.1-0.5-0.1-0.8,0C282.7,282.3,282.6,282.6,282.6,282.8z"/></g>
    <path class="st5"
          d="M283.4,281.6c0,0.3,0.1,0.5,0.4,0.6c0.2,0.1,0.5,0.1,0.8,0c0.2-0.1,0.4-0.4,0.4-0.6c0-0.3-0.1-0.5-0.4-0.6   c-0.2-0.1-0.5-0.1-0.8,0C283.5,281.1,283.4,281.3,283.4,281.6L283.4,281.6z"/>
    <g><path class="st12" d="M283.4,281.6c0,0.3,0.1,0.5,0.4,0.6c0.2,0.1,0.5,0.1,0.8,0c0.2-0.1,0.4-0.4,0.4-0.6c0-0.3-0.1-0.5-0.4-0.6    c-0.2-0.1-0.5-0.1-0.8,0C283.5,281.1,283.4,281.3,283.4,281.6z"/></g>
    <path class="st5"
          d="M285,281.5c0,0.3,0.1,0.5,0.4,0.6c0.2,0.1,0.5,0.1,0.8,0c0.2-0.1,0.4-0.4,0.4-0.6c0-0.3-0.1-0.5-0.4-0.6   c-0.2-0.1-0.5-0.1-0.8,0C285.1,281,285,281.3,285,281.5L285,281.5z"/>
    <g><path class="st12" d="M285,281.5c0,0.3,0.1,0.5,0.4,0.6c0.2,0.1,0.5,0.1,0.8,0c0.2-0.1,0.4-0.4,0.4-0.6c0-0.3-0.1-0.5-0.4-0.6    c-0.2-0.1-0.5-0.1-0.8,0C285.1,281,285,281.3,285,281.5z"/></g>
    <path class="st2"
          d="M272,278.9c0.6-0.3,0.6,1.2,0.6,1.2l-1,0c-0.4,0.2-0.8,0.9-0.5,1.2c0.2,0.3,2.2-0.5,2.4,0   c-0.3,2-3,2.8-3.9,1.9c-0.9-0.9-1.2-3.1,1.9-3.7L272,278.9z"/>
    <g><path class="st6" d="M270.6,283.6c-0.5,0-0.9-0.1-1.2-0.4c-0.4-0.4-0.8-1.2-0.6-2.1c0.3-0.9,1.1-1.5,2.5-1.8l0.7-0.5l0.3,0    c0.4,0.3,0.4,1.2,0.4,1.3l-1.1,0.1c-0.2,0.1-0.5,0.4-0.5,0.7c0.1,0.4,0.7,0.3,1.1,0.3c0.7-0.1,1.3-0.2,1.4,0.1    c-0.2,1-0.9,1.8-2,2.2C271.2,283.5,270.9,283.6,270.6,283.6L270.6,283.6z M271.3,279.5c-1.3,0.3-2.1,0.9-2.3,1.7    c-0.2,0.8,0.1,1.5,0.5,1.9c0.4,0.4,1.2,0.4,2,0.2c1-0.3,1.7-1.1,1.8-2c0-0.1-0.8,0-1.2,0.1c-0.6,0.1-1,0.2-1.2,0    c0-0.8,0.2-1.2,0.6-1.3l0.2,0L271.3,279.5L271.3,279.5z M286.5,278.2l-0.1-0.2l6.3-2.8L286.5,278.2L286.5,278.2z"/></g>
    <path class="st8"
          d="M296.6,272.4c0,0,2.3,0,2.7,0.1c0.2,0.1-0.6,0.8-0.4,1.1c0.6,1.1,4.5,1,4.8,0.7c0.5-0.4-3.7-0.8-3.7-1.1   c0-0.3,0.6-1.2,0.5-1.7c-0.1-0.7-1.8-0.9-1.8-0.9L296.6,272.4z"/>
    <g><path class="st10" d="M302.1,274.6c-0.7,0-2.9-0.1-3.3-0.9c-0.1-0.2,0.1-0.5,0.3-0.8c0-0.3-0.8-0.4-2-0.4l0.1-0.1    c1.1-0.1,1.9-0.1,2.2,0c-0.2,0.7-0.4,1.1-0.4,1.2c0.5,1,4.5,0.8,4.7,0.7c-0.1-0.1-1.3-0.4-2-0.5c-1.3-0.2-1.7-0.3-1.7-0.5    c0-0.2,0.1-0.4,0.2-0.7c0.2-0.3,0.3-0.7,0.3-1c-0.1-0.5-1.3-0.8-1.7-0.9l-0.5,0.4l0.5-0.6c0.3,0,1.8,0.3,2,1    c0.1,0.3-0.1,0.7-0.3,1.1c-0.1,0.2-0.2,0.5-0.2,0.6c0.1,0.1,0.9,0.2,1.5,0.3c1.5,0.3,2.1,0.4,2.2,0.6    C303.6,274.6,302.8,274.6,302.1,274.6L302.1,274.6z"/></g>
    <path class="st11" d="M293.5,274.5l5.2-4.3c0,0,0.2-0.2,0.4,0c0.2,0.2-0.1,0.4-0.1,0.4l-5.4,4.4L293.5,274.5z"/>
    <g><path class="st6" d="M293.7,275.2l-0.2-0.7l5.3-4.4l0.6,0.2L293.7,275.2L293.7,275.2z M299,270.5l-5.5,4.1l0.1,0.4L299,270.5    L299,270.5z"/></g>
    <path class="st5"
          d="M288.5,278.8c0.1-0.1,4.3-3.7,4.3-3.7l0.3-1.1c0,0,0.6,0.4,0.9,0.7c0.2,0.2,0.6,0.8,0.6,0.8l-1.2,0.1l-3.7,3.4   L288.5,278.8z"/>
    <g><path class="st6" d="M289.7,279l-1.2-0.2c0-0.2,4.2-3.9,4.2-3.9l0.2-1c0.2-0.1,0.8,0.4,1,0.6c0.2,0.2,0.6,0.8,0.6,0.9l-1.2,0.2    L289.7,279L289.7,279z M293,274.1l-0.1,1c0,0-4.2,3.6-4.3,3.7l1.1,0l3.7-3.3l1.1-0.1c-0.1-0.1-0.4-0.5-0.6-0.7    C293.6,274.5,293,274.1,293,274.1L293,274.1z"/></g>
    <path class="st5"
          d="M265.3,273.8l0,1.7c0.6,0.2,0.5,0.6,0.5,1.2l0,4.9c0.2,0.3,0.8,0.3,1.1,0.6c0.3,0.3,0.2,0.7-1,1.1l-1,0   c-1.5-0.3-1.8-0.8-1.1-1.1c0.4-0.2,0.9-0.3,1.1-0.6l0-1.2l-1,0c-0.3,0-0.8-0.7-0.8-1.2v-2.5c0-1.4,1.1-1.6,1.4-1.6l0-1.3   L265.3,273.8z M263.6,276.6c0-0.4,0.6-0.8,0.8-0.8c0.2,0,0.8,0.5,0.8,0.9v1c0,0.4-0.3,1.6-0.9,1.7c-0.3,0-0.6-0.4-0.6-0.8   L263.6,276.6z"/>
    <g><path class="st6" d="M264.8,283.3L264.8,283.3c-1-0.2-1.5-0.5-1.6-0.8l0-0.1l0.5-0.4c0.5-0.2,0.9-0.3,1.1-0.5l-0.1-1.1l-0.9,0.1    c-0.4,0-0.9-0.8-0.9-1.3v-2.5c0-1.3,0.9-1.7,1.5-1.7l-0.1-1.2l1-0.1l0.1,1.8c0.5,0.1,0.5,0.5,0.5,1l0,5.1c0.1,0.1,0.3,0.2,0.5,0.3    l0.7,0.7c-0.1,0.2-0.3,0.5-1.2,0.8L264.8,283.3L264.8,283.3z M264.8,280.3l0.1,1.3c-0.2,0.3-0.7,0.5-1.1,0.6    c-0.5,0.5-0.1,0.8,0.9,1l1,0c0.9-0.2,1.1-0.5,1.1-0.6l-0.6-0.5c-0.3-0.1-0.5-0.2-0.6-0.4l0-4.9c0-0.7,0-1-0.4-1.1l0-1.8l-0.8,0.1    l0.1,1.2c-0.3,0.1-1.4,0.1-1.4,1.6v2.5c0,0.5,0.5,1.1,0.7,1.1L264.8,280.3L264.8,280.3z M264.3,279.5c-0.4,0-0.8-0.5-0.8-0.9    l0-2.1c0-0.5,0.6-0.9,0.9-0.9h0c0.3,0,0.8,0.5,0.9,1v1C265.3,278,265,279.4,264.3,279.5L264.3,279.5L264.3,279.5z M264.5,275.9    c-0.2,0-0.7,0.4-0.7,0.7l0,2.1c0,0.3,0.3,0.7,0.5,0.7c0.5-0.1,0.8-1.2,0.9-1.7v-1C265.1,276.3,264.6,275.9,264.5,275.9    L264.5,275.9z"/></g>
    <path class="st3"
          d="M256,227.2c7.9-8,14.2-4.1,15.7-3c-1,0.2-1.9-0.4-2.3-0.5c0.3,0.4,0.9,1.3,0.9,1.3s-2.5-1.2-2.7-1.1   c0.3,0.3,0.7,1,0.7,1c-0.2,0.1-1.6-1.1-1.8-1.1c0.4,0.5,0.6,1.6,0.6,1.6l-1.2-0.6c-0.3,0.2,0.1,0.6-0.2,0.6c-2-0.2-4.8,1.8-5.2,2.4   L256,227.2z"/>
    <g><path class="st6" d="M260.6,227.9c0.2-0.7,3.2-2.8,5.1-2.6l0,0l0,0.2C263.6,225.4,260.9,227.4,260.6,227.9L260.6,227.9z     M256.1,227.3l-0.1-0.1c7.8-7.8,14.1-4.3,15.8-3c-0.8,0.3-1.4,0-1.9-0.2c-0.1,0,0.5,0.9,0.5,0.9c0,0,0,0-0.1,0c0,0,0,0-0.1,0    c-1.2-0.4-2.4-0.9-2.6-0.9c0.4,0.1,0.8,0.8,0.8,0.8c-0.2,0.2-0.4,0-1.1-0.4c-0.3-0.2-0.8-0.5-0.9-0.5c0.5,0.3,0.6,1.4,0.6,1.5    l-1.3-0.5l0-0.2l1.1,0.5c-0.1-0.2-0.3-1-0.6-1.4c0.2-0.1,0.5,0.1,1,0.4c0.2,0.2,0.5,0.4,0.7,0.5c-0.2-0.2-0.4-0.6-0.7-0.7    c0.3-0.3,1.9,0.5,2.6,0.8c-0.2-0.2-0.6-0.8-0.8-1l-0.2-0.3l0.9,0.3c0.5,0.2,1.1,0.4,1.7,0.3C270,223.1,263.8,219.6,256.1,227.3    L256.1,227.3z"/></g>
    <path class="st3"
          d="M258,228.7c0.8-1.9,16-5.1,19,0.3c-1.2,0.3-2.3-1-2.3-1l0.1,1.2l-2-1.6l0.7,1.6l-1.6-1.3l0,1.3l-2-2.1l0.3,1.3   l-1.8-0.8l0.2,1L258,228.7z"/>
    <g><path class="st6" d="M272,229.2l-2.1-2.1l0.4,1.2l-1.9-0.6l0.3,0.9l-0.4-1l1.9,0.6l-0.4-1.1L272,229.2l-0.2-1.3l1.8,1.2l-0.9-1.5    l2.2,1.4l-0.2-1.1c0,0,1.1,0.9,2.1,0.9c0.1,0,0.2,0,0.3,0c-1.7-2.7-6.6-2.9-9.3-2.7c-4.6,0.2-9.1,1.6-9.6,2.6l-0.2-0.1    c0.5-1.1,5.3-2.5,9.7-2.7c2.8-0.1,7.8,0,9.4,3c-1.3,0.4-2.4-0.8-2.5-0.9l0.3,1.1l-2.2-1.5l0.9,1.5l-1.8-1.2L272,229.2L272,229.2z"/></g>
    <path class="st3"
          d="M258.7,229c3.9-2.6,9.9-0.8,9.9-0.8c3.8,2.1,5.9,1.8,6.4,5.7c-0.4-0.2-1.4-1.4-1.4-1.4l-0.8,1.6l-0.3-2.2   l-0.6,1.7l-0.9-2.8l-0.2,1.9l-1.4-1.9l-0.7,0.5l-0.6-1.4l-0.6,0.9c0,0-1-0.6-1.6-0.2l-1.1-1.3l-0.3,0.9l-0.9-1.1l-0.4,0.8l-0.9-0.9   l0.1,0.6l-3.2,0.1L258.7,229z"/>
    <g><path class="st6" d="M272.8,234.1l-0.4-2.2l-0.5,1.7l-1.1-2.8l0,1.9l-1.6-1.9l-0.5,0.6l-0.8-1.5l-0.4,1c0,0-0.7-0.3-1.2-0.3    c-0.1,0-0.3,0-0.4,0.1l-1.2-1.3l-0.1,0.9l-1.1-1.1l-0.2,0.8l-0.2-0.2l0.2,0.1l0.2-0.8l1.1,1.1l0.1-0.9l1.2,1.2    c0.5-0.4,1.5,0.2,1.5,0.2l0.4-0.9l0.8,1.5l0.5-0.6l1.6,1.9l0.1-1.9l1.1,2.8l0.5-1.7L272.8,234.1l0.6-1.6c0.4,0.3,1.2,1.2,1.5,1.4    c-0.5-2.8-1.7-3.4-3.9-4.3c-0.8-0.3-1.6-0.7-2.6-1.3c0,0-6-1.7-9.8,0.8l-0.1-0.2c3.9-2.6,9.9-0.9,10-0.9c1,0.6,1.9,0.9,2.6,1.3    c2.2,1,3.5,1.5,3.8,4.6c-0.5-0.1-1.4-1.2-1.6-1.3L272.8,234.1L272.8,234.1z"/></g>
    <path class="st3"
          d="M259.6,229.4c2.7,0,10.5,2.9,12.5,5.9c-0.8-0.4-1.3-0.6-1.3-0.6l-0.4,1.2l-0.5-1.2l-0.1,0.9   c-0.3-0.7-0.6-0.8-1.2-0.1l-0.2-1.1l-0.3,1.1l-0.5-1.2c0,0-0.3,1.3-0.5,1.2c0,0-0.9-2.2-1.2-2.3l-0.1,1.4l-0.5-1.4l-0.5,1l-0.1-1.5   l-0.5,1.1c0,0-0.3-1.1-0.7-1.3l-0.8,0.7l-3.5-2.5L259.6,229.4z"/>
    <g><path class="st6" d="M270.4,236l-0.7-1.2l0.1,0.9c-0.3-0.3-0.4-0.5-0.6-0.5c-0.1,0-0.4,0.2-0.6,0.5l-0.4-1.2l-0.1,1.1l-0.7-1.2    c0.1,0.3-0.1,1.2-0.3,1.3c-0.6-1.1-1.1-2.3-1.4-2.3l0,1.3l-0.7-1.4l-0.3,1.1l-0.3-1.5l-0.3,1.2c-0.2-0.3-0.5-1.1-0.8-1.3l-0.7,0.7    l-3.6-2.5l3.6,2.3l0.7-0.7c0.5,0.2,0.8,1.3,0.8,1.4l0.3-1.2l0.3,1.5l0.3-1.1l0.7,1.4l-0.1-1.4c0.5,0,1.3,1.9,1.4,2.3    c0-0.1,0.2-0.7,0.3-1.2l0.7,1.2l0.1-1.1l0.4,1.2c0.1-0.5,0.4-0.7,0.6-0.6c0.2,0,0.4,0.2,0.6,0.6l-0.1-0.9L270.4,236l0.2-1.3    c0.2-0.1,0.6,0.2,1.4,0.6c-2.1-2.9-9.7-5.8-12.5-5.8c0,0,0,0-0.1,0v-0.2c0,0,0,0,0.1,0c2.7,0,10.4,2.8,12.5,6    c-0.9-0.3-1.4-0.5-1.4-0.5L270.4,236L270.4,236z"/></g>
    <path class="st3"
          d="M259,230.1c3.6,1.4,6.8,6.3,6.6,8.4c-1.6-2-1.3-1.7-2,0.6c0,0-0.3-2-0.5-2.2l-0.5,1.5l-0.2-1.9l-0.5,0l0.1-1.2   l-0.7,0.5c0.2-0.7,0.3-0.9-0.4-1.5c0,0,0.9,0.1,0.2-1.6l-0.7,0.7c0,0,0.1-0.7-0.1-1l-2.5-0.9L259,230.1z"/>
    <g><path class="st6" d="M263.7,239.1c-0.3-0.8-0.5-2-0.7-2.2l-0.3,1.4l0-0.1l0,0.1l0.3-1.5C263.4,237,263.7,238.7,263.7,239.1l0.1-1    c0.2-0.7,0.3-1,0.5-1c0.4,0,0.5,0.3,1.2,1.1c0.3-1.7-2.9-6.6-6.5-8l0.1-0.2c3.7,1.4,6.9,6.4,6.6,8.5c-0.9-0.8-1.2-1.3-1.3-1.3    c0,0,0,0,0,0c-0.1,0-0.2,0.4-0.3,0.9L263.7,239.1L263.7,239.1z M261.4,235.8c0.1-0.8,0.1-1-0.5-1.5c0.5-0.4,0.6-0.7,0.2-1.6    l-0.5,0.7c-0.1-0.3-0.1-0.8-0.3-1l-2.5-0.9l2.6,0.7c0.3,0.3,0.2,1,0.2,1.1l0.5-0.7c0.5,0.8,0.5,1.3,0.3,1.5    c0.3,0.6,0.2,0.9,0.1,1.4l0.5-0.4v0.2l0-0.1L261.4,235.8L261.4,235.8z"/></g>
    <path class="st3"
          d="M258.7,230.4l1.4,2.6l-0.7,0.2l1.6,1.2l-1.3-0.1c0,0,2,0.7,2.3,2.7l-2.1-0.9c0,0,1.8,1.8,2,2.9l-1.2-1   c0,0,1.2,1.3,1,3.1l-0.9-1c0.2,2.3,0.1,2.5-0.9,4.2c0,0,0.3-2.7,0-3l-2.3,2.4l1.3-3.4c0,0-1.4,2.2-2.3,2l1.8-2.8l-1.8,1.4l2-3   l-1.9,0.6c0,0,1.4-1.7,1.3-2.8l-1.3,1.4c0,0,0.5-1.6,0.3-2.1l-0.7,0.1l1.3-1.5l-0.9-0.2l0.1-1l-0.6-0.2l0-1.1L258.7,230.4z"/>
    <g><path class="st6" d="M259.9,244.4c-0.1-1.1,0-2.8-0.2-3l-2.2,2.4l1-3.2c-0.3,0.6-1.3,2-2.1,1.8l1.8-2.9l-1.7,1.6l1.9-3.2l-1.8,0.7    c-0.1-0.2,1.2-1.8,1.1-2.9l-1.1,1.5c0-0.5,0.3-1.8,0.2-2.1l-0.6,0.2l1.2-1.6l-0.8,0l0-1.1l-0.6-0.1l0-1.2l0.1,1.1l0.6,0.1l0,1.1    l0.8,0.1l-1.2,1.6l0.6-0.3c0.3,0.5-0.2,2-0.2,2.2l1.1-1.5c0.3,1.2-1.1,2.8-1.1,2.9l1.8-0.7l-1.9,3.2l1.7-1.6l-1.7,2.9h0    c0.6,0,1.7-1.5,2.1-2.1l0,0c0,0,0,0.1-0.1,0.2l-1,3.2l2.2-2.5C260.2,241.6,259.9,243.9,259.9,244.4c0.9-1.8,0.9-2,0.7-4.3l1,0.9    c0-1.8-1.1-3-1.1-3l0,0c0.1,0,0.2,0.1,0.3,0.2l1,0.7c-0.4-0.9-2.1-2.7-2.1-2.7l0.1,0c0,0,0,0,0,0l2.1,0.7    c-0.4-1.8-2.3-2.6-2.3-2.6l0,0c0,0,0.1,0,0.2,0l1.2,0l-1.6-1l0.7-0.4l-1.4-2.5l0.2-0.1l1.4,2.6l-0.8,0.3l1.6,1l-1.2,0    c0.5,0.1,2,1,2.2,2.6l-2.1-0.8c0.4,0.3,1.8,1.7,2,2.7l-1-0.7c0.4,0.4,0.9,1.5,0.8,2.8l-1-0.9C261,242.3,261,242.6,259.9,244.4    L259.9,244.4z M259.8,241.3c-0.7-1-0.9-2.4-1-4c-0.2-2-0.3-4.3-1.6-6l0.1-0.1c1.3,1.7,1.5,4.1,1.6,6.1    C259.1,238.8,259.3,240.3,259.8,241.3L259.8,241.3z"/></g>
    <path class="st5"
          d="M269.7,284.7c0-0.3,0.8-0.2,0.8-0.6c0-0.4-1.2-0.1-1.4,0.3c-0.7-0.6-1-0.2-1.4,0c-0.6-0.9-1.3-0.8-2-0.2   c-0.4-0.5-1.4-0.3-1.8,0.2c-0.7-0.7-1.3-0.5-1.8,0c-0.2-0.4-0.5-0.3-0.7,0c-0.4-0.6-1.3-0.4-1.7,0c-0.3-0.4-0.7-0.1-1.1,0.2   c-0.3-0.3-0.8-0.2-0.8,0c0,0.3,0.6,0.2,0.6,0.5c0,0.3-0.5,0.1-0.5,0.5c0,0.3,0.7,0.4,0.8-0.1c0.2,0.5,1.1,0.3,1.2-0.1   c0.3,0.3,0.9,0.4,1.3-0.1c0.3,0.2,0.6,0.3,0.8,0c0.5,0.6,1.4,0.5,1.7-0.2l0.3,0c0.5,0.7,1.3,0.4,1.6,0c0.9,0.6,1.4,0.4,1.9,0   c0.6,0.7,1.4,0.6,1.6,0c0.4,0.3,1.2,0.3,1.2,0C270.4,284.8,269.7,285,269.7,284.7L269.7,284.7z M268,284.8c0,0.2,0.2,0.3,0.4,0.3   c0.2,0,0.4-0.1,0.4-0.3c0-0.1-0.2-0.3-0.4-0.3C268.2,284.6,268,284.7,268,284.8L268,284.8z M266.2,284.6c0,0.2,0.2,0.3,0.5,0.3   c0.3,0,0.5-0.1,0.5-0.3c0-0.2-0.2-0.3-0.5-0.3C266.4,284.3,266.2,284.4,266.2,284.6L266.2,284.6z M262.5,284.8   c0,0.2,0.2,0.3,0.5,0.3c0.3,0,0.5-0.1,0.5-0.3c0-0.2-0.2-0.3-0.5-0.3C262.7,284.5,262.5,284.6,262.5,284.8L262.5,284.8z    M264.4,284.7c0,0.2,0.2,0.4,0.5,0.4c0.3,0,0.5-0.2,0.5-0.4c0-0.2-0.2-0.4-0.5-0.4C264.6,284.3,264.4,284.5,264.4,284.7   L264.4,284.7z M260.3,284.7c0,0.2,0.2,0.4,0.4,0.4c0.2,0,0.4-0.2,0.4-0.4c0-0.2-0.2-0.4-0.4-0.4   C260.5,284.4,260.3,284.5,260.3,284.7L260.3,284.7z M261.6,284.8c0,0.1,0.1,0.2,0.3,0.2c0.2,0,0.3-0.1,0.3-0.2   c0-0.1-0.1-0.2-0.3-0.2C261.7,284.6,261.6,284.7,261.6,284.8L261.6,284.8z M259.1,284.9c0,0.2,0.1,0.3,0.3,0.3   c0.2,0,0.3-0.2,0.3-0.3c0-0.2-0.1-0.3-0.3-0.3C259.2,284.6,259.1,284.7,259.1,284.9L259.1,284.9z"/>
    <g><path class="st6" d="M258.5,285.8L258.5,285.8l-0.5-0.3l0.5-0.5l-0.6-0.5l0.5-0.1l0.3,0.5l-0.5,0.5L258.5,285.8l0.4-0.5l0.6,0.3    c0.3,0,0.5-0.1,0.6-0.3l0.7,0.2c0.2,0,0.4-0.1,0.6-0.3l0.1-0.1l0.9,0.1c0.5,0.5,1.3,0.4,1.6-0.2c0.1,0,0.2,0.1,0.3,0.1    c-0.6,0.6-1.5,0.7-2,0.2l-0.7-0.1l0.1,0.1c-0.3,0.5-1.1,0.5-1.4,0.1c0.1,0.3-0.3,0.4-0.6,0.4h-0.1l-0.5-0.3    C258.9,285.7,258.7,285.8,258.5,285.8L258.5,285.8z M268.5,285.7c-0.4,0-0.7-0.2-1-0.5c-0.2,0.4-1,0.6-1.9,0c0,0.3-0.8,1-1.5,0    c1.4,0.6,1.4,0.1,1.5-0.2c0.9,0.4,1.3,0.5,1.9,0c0.7,0.6,1.4,0.6,1.6,0c0.3,0.1,0.6,0.2,0.9,0.2l-0.4-0.6l0.5-0.4l0,0.2l0.4,0.6    c-0.8,0.3-1.1,0.2-1.3,0.1C269.2,285.5,268.9,285.7,268.5,285.7L268.5,285.7z M262.2,284.8h-0.7l0.4-0.3l-0.5-0.1    c-0.4-0.7-1.2-0.4-1.5,0c-0.6-0.2-0.8,0-1,0.1l-0.3,0l0.1,0c0.3-0.3,0.5-0.4,0.7-0.4c1-0.1,1.8-0.3,2.1,0.2c1.7-0.6,1.8-0.6,2.4,0    c0.1-0.5,1.4-0.7,1.8-0.2c0.5-0.7,1.5-0.7,2,0.2l0.7-0.4c0.2,0,0.4,0.1,0.7,0.3c0-0.3,0.6-0.5,1-0.5l0,0.3c-0.5,0-0.9,0.2-0.9,0.3    c-0.4-0.2-0.5-0.3-0.7-0.3l-0.8,0.3c-0.5-0.8-1.2-0.8-1.9-0.2c-0.7-0.4-1.5-0.3-1.8,0.2c-0.8-0.5-1.2-0.6-1.8,0l-0.1,0.1l-0.2,0    L262.2,284.8L262.2,284.8z"/></g>
    <path class="st5"
          d="M257,272.9c0,0,1.2-10.2,1.2-14.6c0-3.5-0.8-11.1-0.8-11.1h-3.5c0,0-0.5,7.6-0.5,11c0.1,4.4,1.2,14.6,1.2,14.6   H257z"/>
    <g><path class="st6" d="M257.1,273h-2.4c-0.1-0.2-1.2-10.4-1.3-14.7c-0.1-3.4,0.5-11,0.5-11.1l3.6-0.1c0.1,0.2,0.9,7.8,0.9,11.2    C258.3,262.7,257.1,272.8,257.1,273L257.1,273L257.1,273z M253.9,247.4c0.1,0-0.5,7.6-0.4,11c0.1,4.3,1.2,14.5,1.2,14.6l2.2-0.1    c0.1-1,1.2-10.4,1.2-14.5c0-3.4-0.8-11-0.8-11.1L253.9,247.4L253.9,247.4z"/></g>
    <polygon class="st5" points="253.6,247.8 257.7,247.8 257.2,245 254.3,245  "/>
    <g><path class="st6" d="M257.8,247.9h-4.2l0.6-2.8l3-0.1L257.8,247.9L257.8,247.9z M257.1,245l-2.8,0.1l-0.6,2.7l3.9-0.1L257.1,245    L257.1,245z"/></g>
    <polygon class="st5" points="253.9,245.6 257.5,245.6 256.8,242.8 254.6,242.8  "/>
    <g><path class="st6" d="M257.6,245.7h-3.7l0.6-2.8l2.3-0.1L257.6,245.7L257.6,245.7z M256.7,242.9l-2.1,0.1l-0.6,2.7l3.4-0.1    L256.7,242.9L256.7,242.9z"/></g>
    <polygon class="st5" points="254.1,243.4 257.1,243.4 256.6,240.6 254.7,240.6  "/>
    <g><path class="st6" d="M257.2,243.5h-3.1l0.5-2.8l2-0.1L257.2,243.5L257.2,243.5z M256.5,240.6l-1.8,0.1l-0.5,2.7l2.8-0.1    L256.5,240.6L256.5,240.6z"/></g>
    <polygon class="st5" points="256.7,240.3 254.6,240.3 254.4,241.3 256.9,241.3  "/>
    <g><path class="st6" d="M257.7,266.8h-3.8l3.8-0.2V266.8L257.7,266.8z M257.9,264.6h-4l4-0.2V264.6L257.9,264.6z M257.9,262.4h-4.2    l4.2-0.2V262.4L257.9,262.4z M258.1,260.4h-4.6l4.6-0.2V260.4L258.1,260.4z M258.1,258.5h-4.8l4.8-0.2V258.5L258.1,258.5z     M258.1,256.3h-4.8l4.8-0.2V256.3L258.1,256.3z M257.9,254.1h-4.6l4.6-0.2V254.1L257.9,254.1z M257.7,251.9h-4.2l4.2-0.2V251.9    L257.7,251.9z M257.5,249.9h-3.8l3.8-0.2V249.9L257.5,249.9z"/></g>
    <path class="st7"
          d="M255.8,272.1c-2.6,0-4.7,1-4.7,2.2c0,0.2,0.1,0.4,0.2,0.6c0.6,0.6,2.4,1.1,4.5,1.1c2,0,3.7-0.4,4.4-1   c0.2-0.2,0.3-0.5,0.3-0.7C260.5,273.1,258.4,272.1,255.8,272.1L255.8,272.1z"/>
    <g><path class="st9" d="M255.9,276.1c-2.1,0-4-0.5-4.6-1.2l-0.2-0.7c0-1.3,2.1-2.3,4.8-2.3c2.6,0,4.8,1,4.8,2.3    c0,0.3-0.1,0.5-0.3,0.8C259.6,275.7,257.8,276.1,255.9,276.1L255.9,276.1z M255.8,272.2c-2.5,0-4.6,0.9-4.6,2    c1.3,2.2,7.5,1.8,8.9,0.6c0.2-0.2,0.2-0.4,0.2-0.6C260.4,273.1,258.3,272.2,255.8,272.2L255.8,272.2z"/></g>
    <path class="st5"
          d="M260.5,274.4v7.2c0,0.8-2.1,1.5-4.7,1.5c-2.6,0-4.7-0.7-4.7-1.5v-7.2c0,0.8,2.1,1.5,4.7,1.5   C258.4,276,260.5,275.3,260.5,274.4L260.5,274.4z"/>
    <g><path class="st6" d="M255.9,283.3c-2.7,0-4.8-0.7-4.8-1.6v-7.2c0.2,0.7,2,1.4,4.8,1.4c2.7,0,4.6-0.7,4.6-1.4c0,0.1,0,0.1,0,0.2    l0.2,7C260.6,282.6,258.5,283.3,255.9,283.3L255.9,283.3z M251.1,274.4l0.2,7.2c0,0.7,1.8,1.4,4.6,1.4c2.7,0,4.6-0.7,4.6-1.4v-7    c-0.2,0.8-2.1,1.4-4.6,1.4C253.2,276,251.1,275.3,251.1,274.4L251.1,274.4z"/></g>
    <path class="st8"
          d="M251.2,274.4v1.1l2.3,7l1.8-5.4l2,5.6l1.5-5.3l1.8,3.5v-2l-1.7-3.4c-0.2,0.1-0.4,0.1-0.6,0.1l-1.1,3.9   l-1.5-3.7c-0.2,0-0.5,0-0.7,0l-1.5,3.7l-1.7-4.5C251.4,274.9,251.2,274.7,251.2,274.4L251.2,274.4z"/>
    <g><path class="st10" d="M257.3,283l-2.1-5.9l-1.6,5.4l-2.4-7v-1.1v0c0.2,0.3,0.5,0.5,0.7,0.7l1.7,4.5l1.3-3.7l0.8,0l1.6,3.8l0.9-3.9    l0.7-0.2l1.8,3.5l0,2l-2-3.5L257.3,283L257.3,283z M251.1,274.6l0.2,0.9l2.3,7l1.6-5.4l2.1,5.3l1.4-5l2,3.5l-0.2-1.9l-1.7-3.4    l-0.5,0.2l-1,3.8l-1.7-3.7l-0.7,0l-1.4,3.7l-1.9-4.5C251.4,275.1,251.2,274.8,251.1,274.6L251.1,274.6z"/></g>
    <path class="st7"
          d="M260.5,280.3v1.4c0,0.8-2.1,1.5-4.7,1.5c-2.6,0-4.7-0.7-4.7-1.5v-1.4c0,0.8,2.1,1.5,4.7,1.5   C258.4,281.8,260.5,281.1,260.5,280.3L260.5,280.3z"/>
    <g><path class="st9" d="M255.9,283.3c-2.7,0-4.8-0.7-4.8-1.6v-1.4c0.2,0.7,2,1.4,4.8,1.4c2.7,0,4.6-0.7,4.6-1.4c0,0,0,0,0,0.1    l0.2,1.3C260.6,282.6,258.5,283.3,255.9,283.3L255.9,283.3z M251.1,280.5l0.2,1.2c0,0.7,1.8,1.4,4.6,1.4c2.7,0,4.6-0.7,4.6-1.4    v-1.1c-0.2,0.8-2.1,1.4-4.6,1.4C253.3,281.9,251.3,281.3,251.1,280.5L251.1,280.5z"/></g>
    <path class="st5" d="M257.8,281.7c-0.4,0.1-0.8,0.1-1.2,0.1v1.3c0.4,0,0.8-0.1,1.2-0.1L257.8,281.7z"/>
    <g><path class="st12" d="M257.8,281.7c-0.4,0.1-0.8,0.1-1.2,0.1v1.3c0.4,0,0.8-0.1,1.2-0.1L257.8,281.7z"/></g>
    <path class="st5"
          d="M252.8,281.5l0,1.3c0.4,0.1,0.8,0.2,1.2,0.3v-1.3C253.6,281.6,253.1,281.6,252.8,281.5L252.8,281.5z"/>
    <g><path class="st12" d="M252.8,281.5l0,1.3c0.4,0.1,0.8,0.2,1.2,0.3v-1.3C253.6,281.6,253.1,281.6,252.8,281.5z"/></g>
    <path class="st5"
          d="M251.2,280.3v1.3c0,0.3,0.2,0.5,0.5,0.7l0-1.3C251.4,280.8,251.2,280.6,251.2,280.3L251.2,280.3z"/>
    <g><path class="st12" d="M251.2,280.3v1.3c0,0.3,0.2,0.5,0.5,0.7l0-1.3C251.4,280.8,251.2,280.6,251.2,280.3z"/></g>
    <path class="st5" d="M260.5,280.4L260.5,280.4c-0.1,0.3-0.4,0.5-0.9,0.7v1.3c0.6-0.2,0.9-0.6,0.9-0.9V280.4z"/>
    <g><path class="st6" d="M255.9,283.3c-2.7,0-4.8-0.7-4.8-1.6v-7.2l0.2,7.2c0,0.7,1.8,1.4,4.6,1.4c1.7,0,3-0.3,3.8-0.7l-0.1-1.2    c0.5-0.3,0.8-0.5,0.9-0.8h0v-6c0-0.1,0.2-0.1,0.2,0v7.2c0,0,0,0,0,0v0v0v0c0,0.2-0.1,0.4-0.4,0.6    C259.5,282.9,257.9,283.3,255.9,283.3L255.9,283.3z"/></g>
    <path class="st2"
          d="M259.5,273.9c0,0.5-1.6,0.9-3.6,0.9c-2,0-3.6-0.4-3.6-0.9c0-0.5,1.6-0.9,3.6-0.9   C257.9,273,259.5,273.4,259.5,273.9L259.5,273.9z"/>
    <g><path class="st13" d="M255.9,275c-1.8,0-3.7-0.4-3.7-1c0-1.3,7.4-1.3,7.4,0C259.5,274.6,257.6,275,255.9,275L255.9,275z     M255.9,273.1c-2.1,0-3.5,0.5-3.5,0.9c0,0.4,1.5,0.9,3.5,0.9c2.1,0,3.5-0.5,3.5-0.9C259.4,273.5,257.9,273.1,255.9,273.1    L255.9,273.1z"/></g>
    <path class="st5" d="M254.7,274.6l0.2,1.3c0.3,0,0.6,0,1,0l0.2-1.3H254.7z"/>
    <g><path class="st12" d="M254.7,274.6l0.2,1.3c0.3,0,0.6,0,1,0l0.2-1.3H254.7z"/></g>
    <path class="st5" d="M258.9,274.3l-0.9,0.3l0.1,1.2c0.3-0.1,0.6-0.1,0.9-0.2L258.9,274.3z"/>
    <g><path class="st12" d="M258.9,274.3l-0.9,0.3l0.1,1.2c0.3-0.1,0.6-0.1,0.9-0.2L258.9,274.3z"/></g>
    <path class="st5" d="M253.3,272.4c-0.3,0.1-0.5,0.2-0.7,0.3l0.1,1l0.6-0.2L253.3,272.4z"/>
    <g><path class="st12" d="M253.3,272.4c-0.3,0.1-0.5,0.2-0.7,0.3l0.1,1l0.6-0.2L253.3,272.4z"/></g>
    <path class="st5" d="M255.8,272c-0.1,0-0.3,0-0.4,0l0.2,1.2l0.6,0l0.2-1.2C256.3,272,256.1,272,255.8,272L255.8,272z"/>
    <g><path class="st12" d="M255.8,272c-0.1,0-0.3,0-0.4,0l0.2,1.2l0.6,0l0.2-1.2C256.3,272,256.1,272,255.8,272z"/></g>
    <path class="st5" d="M258.6,272.4l-0.1,1.1l0.7,0.3l0.1-1C259,272.6,258.8,272.5,258.6,272.4L258.6,272.4z"/>
    <g><path class="st12" d="M258.6,272.4l-0.1,1.1l0.7,0.3l0.1-1C259,272.6,258.8,272.5,258.6,272.4z"/></g>
    <polygon class="st5" points="251.9,275.3 252.1,273.9 251.1,273.4 251.2,274.9  "/>
    <g><polygon class="st12" points="251.9,275.3 252.1,273.9 251.1,273.4 251.2,274.9   "/></g>
    <polygon class="st5" points="260.5,275 260.5,273.6 259.6,273.9  "/>
    <g><polygon class="st12" points="260.5,275 260.5,273.6 259.6,273.9   "/></g>
    <path class="st3"
          d="M244.3,266.5c-0.3-0.5-1.1-0.9-2-0.9c-1,0-1.8,0.4-2,0.9c-0.1-0.1-0.1-0.2-0.1-0.4c0-0.7,0.9-1.2,2.1-1.2   c1.2,0,2.1,0.6,2.1,1.2C244.4,266.3,244.3,266.4,244.3,266.5L244.3,266.5z"/>
    <g><path class="st13" d="M244.2,266.6c-0.5-1-3.4-0.9-3.9,0c0-0.2-0.1-0.3-0.1-0.5c0.4-0.5,3.2-0.8,4,0.2l0-0.1c0-1.1-3.6-1.3-4-0.2    c0.3-1.7,4.2-1.1,4.2,0.2l-0.2,0.2c0,0,0,0,0,0.1l-0.1,0.1l0,0L244.2,266.6l0-0.1L244.2,266.6L244.2,266.6L244.2,266.6z"/></g>
    <path class="st3" d="M244.1,268c0,1.3-0.8,2.4-1.9,2.4c-1,0-1.9-1.1-1.9-2.4v-1.3h3.7V268z"/>
    <g><path class="st13" d="M242.2,270.6c-1.1,0-2-1.1-2-2.6v-1.3l3.9-0.2l0.2,1.5C244.2,269.4,243.3,270.6,242.2,270.6L242.2,270.6z     M243.9,266.7l-3.6,0.2l0.2,1.2c0,1.2,0.8,2.3,1.7,2.3s1.7-1,1.7-2.3V266.7L243.9,266.7z"/></g>
    <path class="st2"
          d="M244.1,266.3c0,0.5-0.8,0.9-1.9,0.9c-1,0-1.9-0.4-1.9-0.9c0-0.5,0.8-0.9,1.9-0.9   C243.2,265.4,244.1,265.8,244.1,266.3L244.1,266.3z"/>
    <polygon class="st3" points="241.8,267.3 241.5,264 242.9,264 242.7,267.3  "/>
    <g><polygon class="st14" points="242.7,267.4 241.8,267.4 241.4,264 242.9,263.9 242.7,267.4   "/></g>
    <path class="st3"
          d="M244.3,266.4c-0.3,0.5-1.1,0.9-2,0.9c-1,0-1.8-0.4-2-0.9c-0.1,0.1-0.1,0.2-0.1,0.4c0,0.7,0.9,1.2,2.1,1.2   c1.2,0,2.1-0.6,2.1-1.2C244.4,266.6,244.3,266.5,244.3,266.4L244.3,266.4z"/>
    <g><path class="st13" d="M242.2,268.1c-1.3,0-2.3-0.6-2.3-1.4c0.1,0,0.1,0,0.2,0c0.5,1.4,3.7,1.2,4,0.2    C244.1,267.7,243.2,268.1,242.2,268.1L242.2,268.1z M242.2,267.4c-0.7,0-1.4-0.2-1.8-0.5c1.2,0.3,3.3,0.3,3.8-0.5    c0,0.2,0.1,0.3,0.1,0.5C244,267,243.2,267.4,242.2,267.4L242.2,267.4z"/></g>
    <polygon class="st5" points="240.8,273.3 244.5,273.7 245.1,270.4 240.7,270  "/>
    <g><polygon class="st6" points="244.6,273.7 240.8,273.4 240.8,273.3 244.5,273.6 245,270.4 240.7,270 245.1,270.3 244.6,273.7   "/></g>
    <polygon class="st5" points="241.7,269.8 241.2,273.7 242.3,273.7 242.8,269.8  "/>
    <g><polygon class="st6" points="241.1,273.8 241.7,269.8 242.8,269.7 242.4,273.7 241.1,273.8   "/></g>
    <path class="st5"
          d="M270,266.3c0.9-0.1,2.1,1,2.2,2.5c0.1,1.1-1.7,1.1-1.7,1.1c-0.1,0.5-1.1,0.9-1.9,0.9c-0.8,0,0.2-1.5,0.2-1.5   c-0.5-1.3,0.2-2.8,0.2-2.8L270,266.3z"/>
    <g><path class="st6" d="M268.6,270.9c-0.1-0.1-0.1-0.2-0.2-0.3c1.2,0.1,1.9-0.4,2-0.8c0.1-0.1,1.1-0.1,1.5-0.5    c0.2-1.5-0.3-2.2-0.8-2.6c-0.4-0.3-0.8-0.4-1.1-0.4l-1.1,0.2c0,0-0.5,1.4-0.1,2.6l2.6,0l-1.3,0.2l-0.6-0.1l-0.7,0.1    c-0.2,0.4-0.5,0.9-0.5,1.2c-0.1-0.5,0.2-1.1,0.3-1.3c-0.5-1.2,0.1-2.7,0.2-2.8l1.1-0.3c0.4-0.1,0.8,0.1,1.2,0.4    c0.6,0.5,1,1.3,1.1,2.1c0,0.3-0.1,0.5-0.3,0.7c-0.5,0.5-1.5,0.5-1.6,0.5C270.5,270.4,269.4,270.8,268.6,270.9L268.6,270.9z"/></g>
    <path class="st8"
          d="M270.5,267.1c0.7-0.5,0.1-1.5-0.4-1.5l-1.1,0c-0.5,0-1.4,0.6-1.3,1.1c0.1,0.4,0.4,0.6,0.9,0.6   c0.2,0,0.6-0.6,0.9-0.6C269.6,266.7,270.2,267.3,270.5,267.1L270.5,267.1z"/>
    <g><path class="st14" d="M268.3,267.4c-0.4,0-0.6-0.2-0.8-0.6c0.4-0.9,1-1.2,1.4-1.2l1.1,0c0.3,0,0.6,0.3,0.8,0.7    c0.1,0.4,0,0.7-0.3,1c-0.3,0-0.5-0.1-0.7-0.2L268.3,267.4L268.3,267.4z M270.1,265.7l-1.1,0c-0.3,0-0.9,0.3-1.1,0.6    c0,0.7,0.2,0.9,0.5,0.9v0.1l1-0.7l1,0.5c0.4-0.3,0.3-0.6,0.3-0.8C270.6,266,270.3,265.7,270.1,265.7L270.1,265.7z"/></g>
    <path class="st7"
          d="M255.9,224.3c-0.7-0.3-2.3-1.3-1.8-2l0.7-1.2c1-2.3,0-1.4-0.1-2.2c-0.1-0.7,4-0.2,4,1.4c0,0.4-0.3,0.2-0.3,2.7   l-0.8,1.5C257.1,224.6,256.4,224.5,255.9,224.3L255.9,224.3z"/>
    <g><path class="st9" d="M257.3,224.7c-0.5,0-1-0.1-1.4-0.3c-0.5-0.2-1.8-1-1.9-1.7l0.8-1.7c0.6-1.5,0.4-1.6,0.2-1.7l-0.3-0.6    c0.7-0.9,4.1,0.1,4.1,1.6c-0.1,0.6-0.3,0.9-0.3,2.7l-0.8,1.5L257.3,224.7L257.3,224.7z M255.4,218.7c-0.4,0-0.6,0.1-0.6,0.1    c0.6,0.5,0.8,0.7,0.1,2.3l-0.7,1.3c0.1,0.8,1.2,1.6,1.8,1.8c0.3,0.2,0.8,0.3,1.3,0.3v0.1l0.4-0.1l0.7-1.4c0-1.7,0.1-2.1,0.2-2.4    C258.6,219.3,256.5,218.7,255.4,218.7L255.4,218.7z"/></g>
    <polygon class="st5" points="256.4,230.3 255.4,229.5 255.7,222.2 256.7,222.5  "/>
    <g><path class="st6" d="M256.5,230.5l-1.2-1l0.2-7.4l1.1,0.2L256.5,230.5L256.5,230.5z M255.6,222.3l-0.2,7.2l0.8,0.7l0.2-7.7    L255.6,222.3L255.6,222.3z"/></g>
    <path class="st8"
          d="M257.7,224.5c0.6-0.4,1-1.5,0.7-2.1c-1-1.3-1.7-0.8-3.5-1.4c-0.3,0.4-1.1,1.1-0.9,1.6c2.3,1.1,1.4,0.2,2.2,0.3   C256.6,223,256.8,223.5,257.7,224.5L257.7,224.5z"/>
    <g><path class="st10" d="M257.7,224.6l-0.6-0.8c-0.4-0.5-0.6-0.8-0.9-0.8l-0.6,0.2c-0.3,0-0.7-0.2-1.5-0.5c-0.2-0.6,0.4-1.2,0.8-1.6    c0.8,0.1,1.3,0.1,1.7,0.2c0.8,0.1,1.3,0.2,2,1.1c0.2,0.3,0.2,0.7,0.1,1.1C258.4,223.9,258.1,224.4,257.7,224.6L257.7,224.6    L257.7,224.6z M256.2,222.8c0.3,0.1,0.6,0.3,1,0.9l0.5,0.6c0.3-0.2,0.5-0.6,0.6-1c0.1-0.4,0.1-0.7-0.1-1c-0.6-0.8-1.1-0.9-1.9-1    c-0.4-0.1-0.9-0.1-1.5-0.3c-0.4,0.5-0.9,1.1-0.8,1.5c0.7,0.3,1.2,0.5,1.4,0.5L256.2,222.8L256.2,222.8z"/></g>
    <path class="st5"
          d="M219.4,281.5c-0.6,0.1-0.8,0.8-0.5,1.5c-2.8,0.8-5.2,1.8-7.6,2.5c-0.1-0.5,1.2-1.9,1.2-1.9   c0.3,0.2,0.6,0.9,0.6,0.9c0.1-1.6,1.7-2.7,1.7-2.7c-0.9-0.1-3.8,1-4.2,1.4c0,0,1.1-0.1,1.3,0c0,0-2.2,2.4-2.3,3.1   c0.3,0.8,4.1,1.3,4.1,1.3c0,0.2-1.1,1-1.1,1c1.5,0.3,3.8-0.7,4.4-1.4c0,0-1.8-0.2-3.1-1.3c0,0,0.3,0.7,0.1,1c0,0-2.2-0.6-2.4-1   c0,0,5.1-1.3,7.5-2c0.1,0.4,0.6,1.3,1.2,1.1c0.4-0.1,0.3-0.9,0.1-1.4c0.1,0.1,0.3,0.2,0.5,0.2c0.4,0,0.8-0.3,0.8-0.8   c0-0.4-0.3-0.8-0.8-0.8c-0.3,0-0.6,0.2-0.7,0.5C220.1,282.3,219.9,281.4,219.4,281.5L219.4,281.5z M221.3,283   c0,0.2-0.2,0.4-0.4,0.4c-0.2,0-0.4-0.2-0.4-0.4c0-0.2,0.2-0.4,0.4-0.4C221.2,282.7,221.3,282.8,221.3,283L221.3,283z"/>
    <g><path class="st6" d="M213.2,288.7c-0.2,0-0.4,0-0.6-0.1c0.5-0.5,1-1,1-1.1c-0.4,0-3.8-0.5-4.1-1.3c0.1-0.5,0.9-1.6,1.6-2.3    c-0.5,0.9-1.3,1.9-1.4,2.3c0.3,0.5,3,1.1,4,1.2c0,0.3-0.7,0.9-1.1,1.1l0.6-0.1c1.4,0,3.1-0.8,3.7-1.4c-0.3,0.1-1.7-0.1-3-1    c0.1,0.2,0.2,0.6,0.1,0.9c-0.3,0-2.3-0.6-2.5-1c0-0.1,0-0.1,2.3-0.7c1.7-0.4,3.9-1,5.3-1.4c0.2,0.4,0.6,1.1,1,1.1    c0.4-0.1,0.4-0.6,0.2-1.3c1,0.1,1.3-0.2,1.3-0.6c0-0.7-1.1-0.8-1.4-0.2c-0.3-0.8-0.6-1.3-0.9-1.3c-0.6,0.5-0.6,0.9-0.5,1.4    c-1.5,0.5-2.8,1-4.1,1.4c-1.2,0.4-2.4,0.8-3.6,1.2c-0.2-0.6,1-1.9,1.1-2c0.5,0.2,0.7,0.9,0.8,1c-0.1-1.4,1.1-2.4,1.4-2.7    c-0.2,0.3-1.4,1.3-1.4,2.7c-0.2-0.2-0.5-0.8-0.7-0.9c-0.4,0.5-1.1,1.5-1.1,1.8c1.1-0.4,2.2-0.8,3.4-1.2c1.3-0.4,2.6-0.9,4.1-1.3    c-0.2-0.4-0.2-0.8,0-1.1l0.6-0.4c0,0,0,0,0,0c0.5,0,0.8,0.8,0.9,1.4c-0.1-0.8,1.5-0.6,1.5,0.3c0,0.5-0.4,0.8-0.9,0.8l-0.6-0.2    c0.3,0.5,0.4,1.3,0,1.4c0,0,0,0,0,0c-0.7,0-1.2-0.7-1.2-1.1c-1.3,0.5-3.5,1.1-5.2,1.5c-1.2,0.3-2.1,0.6-2.2,0.6    c0.2,0.1,1.5,0.6,2.4,0.8c0-0.2-0.2-0.7-0.2-0.9c0,0,0,0,0.1,0c0,0,0,0,0.1,0c1.5,0.9,3.1,1.1,3.1,1.1    C216.4,287.9,214.6,288.7,213.2,288.7L213.2,288.7z M210.6,283.3c0.3-0.6,2.9-1.6,4-1.6c0,0,0,0,0,0c-1.1,0.2-3.1,1-3.8,1.4    c0.2,0,0.4-0.1,0.6-0.1c0,0,0,0.1,0,0.1C210.9,283.3,210.6,283.3,210.6,283.3L210.6,283.3z"/></g>
    <path class="st5"
          d="M300.1,284.6c0.2-0.4-0.2-2.3-0.2-2.3c-0.4,0-0.9,0.7-0.9,0.7c0.5-1.6-0.9-4.1-0.9-4.1c0.9,0.2,4,3.2,4.2,3.7   c0,0-1.4-0.5-1.6-0.4c0.2,1.5,1.3,2.3,1.7,3.1c0,0-1.8,0.4-1.6,1.9l-1.2,0c-0.4-0.5,0.2-1.3,0.2-1.3l-7.9-3.3   c-0.5-0.2-1.7-0.7-1.5-1.4c0.2-0.6,2.1,0.3,2.5,0.4L300.1,284.6z"/>
    <g><path class="st6" d="M299.7,287.2L299.7,287.2c-0.5-0.6,0.1-1.4,0.1-1.4l-7.9-3.2c-0.4-0.2-1.8-0.7-1.5-1.5c0.2,0,0.3-0.1,0.5-0.1    c-0.4,0.5,0,0.9,1.1,1.4l7.9,3.3c0,0.1-0.4,0.9-0.1,1.3l1.1,0c-0.3-1.4,1.6-1.9,1.6-1.9c-0.2-0.1-0.4-0.4-0.6-0.7    c-0.4-0.6-1-1.2-1.2-2.3c0.5-0.1,1.6,0.3,1.7,0.3c-0.3-0.4-3.3-3.4-4.2-3.6c0.2,0.1,1.3,2.3,1,3.8c0.1-0.2,0.5-0.5,0.7-0.6    c0.1,0.3,0.5,2,0.3,2.4l-7.2-3c-0.8-0.3-1.6-0.6-2-0.6c0.8-0.1,1.4,0.2,1.8,0.3l7.4,3.1c0-0.2-0.2-1.4-0.3-2.2    c-0.2,0.1-0.6,0.6-0.7,0.7c0,0,0,0,0,0c0,0,0-0.1,0-0.2c0.2-1.6-1.1-3.9-1.1-4c1.1,0.1,4.2,3.1,4.4,3.7c-0.5,0-1.4-0.3-1.6-0.3    c0.2,0.9,0.7,1.6,1.2,2.1c0.2,0.3,0.4,0.5,0.6,0.8c-0.1,0.1-1.7,0.5-1.6,1.9L299.7,287.2L299.7,287.2z"/></g>
    <path class="st5"
          d="M292.5,283.2l0.9-1.7c0.3-0.5-0.3-0.9-0.8-0.4l-1,1.6C291.1,283.5,292,283.8,292.5,283.2L292.5,283.2z"/>
    <g><path class="st6" d="M291.9,283.6l-0.5-0.2c-0.1-0.1-0.1-0.4,0.1-0.7l1.1-1.6l0.5-0.3l0.4,0.8l-0.9,1.7    C292.4,283.5,292.1,283.6,291.9,283.6L291.9,283.6z"/></g>
    <polygon class="st2" points="236.9,287.1 236.9,285.2 234.6,285.4 234.5,287.4  "/>
    <g><path class="st6" d="M234.4,287.5l0.1-2.1l2.3-0.2l0.2,2L234.4,287.5L234.4,287.5z M236.8,285.2l-2.2,0.2l0,1.8l2.3-0.3    L236.8,285.2L236.8,285.2z"/></g>
    <path class="st2"
          d="M220.4,289.7l-3-1.7c12.5,1.1,15-3.2,18-3.4c1.9-0.2,2.1,2-1.5,1l0.9,2.3c0,0-8.8,5-17.5,2.9L220.4,289.7z"/>
    <g><path class="st6" d="M221.8,291.4c-1.6,0-3.1-0.2-4.5-0.5l3.1-1.3l-3-1.5c1.5-0.1,2.8,0,4,0c6.1,0,9-1.5,11.2-2.6    c1.1-0.5,1.9-1,2.8-1c0,0,0,0,0,0c1,0,1.4,0.4,1.4,0.8c0,0.5-1,0.9-2.9,0.4l1,2.2C234.9,288,228.7,291.4,221.8,291.4L221.8,291.4z     M217.4,288.1l3.1,1.5l-3.1,1.3c1.4,0.2,2.9,0.3,4.4,0.3c6.9,0,13-3.4,13.1-3.4l-1-2.2c2,0.2,2.8,0,2.8-0.3c0-0.3-0.4-0.6-1.1-0.6    c-1,0.1-1.9,0.5-2.9,1C230,287,226.2,288.9,217.4,288.1L217.4,288.1z"/></g>
    <polygon class="st2" points="274.7,287.1 274.7,285.2 277.5,285.3 277.6,287.3  "/>
    <g><path class="st6" d="M277.7,287.4l-3.1-0.2l0-2l2.9,0L277.7,287.4L277.7,287.4z M277.4,285.3l-2.7,0l0,1.8l2.8,0.1L277.4,285.3    L277.4,285.3z"/></g>
    <path class="st2"
          d="M291.8,289.3l2.8-1.6c-14.3,0.4-11-2.3-18.2-3.1c-1.8-0.2-3.2,2.2,1.4,1l-0.9,2.3h2.2   c4.9,3.2,11.4,3.5,15.8,2.5L291.8,289.3z"/>
    <g><path class="st6" d="M290.2,291L290.2,291c-4.2,0-8.1-1.1-11-3l-2.2,0l0.8-2.4c-0.8,0.3-1.5,0.4-2,0.4c-0.4,0-1.1-0.1-1.1-0.6    c0-0.4,0.7-1,1.6-1c2.9,0.3,4.2,0.9,5.4,1.5c2,0.9,4.1,2,13,1.7l-2.8,1.7l3.2,0.9C293.5,290.8,291.9,291,290.2,291L290.2,291z     M279.2,287.8c4.2,2.7,10.7,3.7,15.7,2.5l-3.2-0.9l2.8-1.7c-1,0.2-1.9,0.2-2.7,0.2c-6.6,0-8.5-0.9-10.3-1.7    c-1.3-0.6-2.4-1.1-5.1-1.4c-0.9,0.1-1.6,0.5-1.6,0.8c0,0.3,0.6,0.4,1,0.4c0.5,0,1.2-0.1,2.1-0.3l-0.8,2.4L279.2,287.8L279.2,287.8    z"/></g>
    <path class="st2"
          d="M233.9,285.6v3.2c0,0,7.9,2.9,22,2.9c14.2,0,22-2.9,22-2.9v-3.2c0,0-6,2.8-22,2.8   C239.9,288.4,233.9,285.6,233.9,285.6L233.9,285.6z"/>
    <g><path class="st6" d="M255.9,291.9c-14,0-22-2.9-22.1-2.9l-0.1-3.3c0,0,6.2,2.7,22.1,2.7c15.8,0,21.9-2.7,22-2.8l0.1,3.3    C277.9,288.9,270,291.9,255.9,291.9L255.9,291.9z M234,288.8c0.2,0,8.1,2.8,21.9,2.8c14,0,21.9-2.9,22-2.9l-0.1-3.1    c-0.1,0.2-6.2,2.8-21.9,2.8c-15.8,0-22-2.7-22.1-2.8L234,288.8C234,288.8,234,288.8,234,288.8L234,288.8z"/></g>
    <path class="st6"
          d="M235.1,288.9l0.7-2.4l0.3,0.1l-0.6,2.1l1.2,0.3l-0.1,0.3L235.1,288.9z M237.4,287.8l0-0.5l0.1-0.4l0.3,0.1   l-0.1,0.4l-0.2,0.4L237.4,287.8z M240.8,287.7l0.3,0.1l-0.3,1.4c0,0.2-0.1,0.4-0.2,0.6c-0.1,0.1-0.2,0.2-0.4,0.3   c-0.2,0.1-0.4,0.1-0.6,0c-0.2,0-0.4-0.1-0.5-0.2c-0.1-0.1-0.2-0.2-0.3-0.4c0-0.2,0-0.4,0-0.6l0.3-1.4l0.3,0.1l-0.3,1.4   c0,0.2,0,0.4,0,0.5c0,0.1,0.1,0.2,0.2,0.3c0.1,0.1,0.2,0.1,0.3,0.2c0.2,0,0.4,0,0.6-0.1c0.1-0.1,0.2-0.3,0.3-0.6L240.8,287.7z    M241.1,290.2l0.4-2.4l0.3,0.1l1,2.1l0.3-1.9l0.3,0.1l-0.4,2.4l-0.3-0.1l-1-2.1l-0.3,1.9L241.1,290.2z M243.8,290.6l0.3-2.4l0.3,0   l-0.3,2.4L243.8,290.6z M244.7,289.5c0-0.4,0.2-0.7,0.5-0.9c0.3-0.2,0.6-0.3,0.9-0.3c0.2,0,0.4,0.1,0.6,0.2   c0.2,0.1,0.3,0.3,0.4,0.5c0.1,0.2,0.1,0.4,0.1,0.7c0,0.2-0.1,0.5-0.2,0.6c-0.1,0.2-0.3,0.3-0.5,0.4c-0.2,0.1-0.4,0.1-0.6,0.1   c-0.2,0-0.4-0.1-0.6-0.2c-0.2-0.1-0.3-0.3-0.4-0.5C244.7,290,244.7,289.8,244.7,289.5L244.7,289.5z M245.1,289.6   c0,0.3,0,0.5,0.2,0.7c0.1,0.2,0.3,0.3,0.6,0.3c0.3,0,0.5,0,0.6-0.2c0.2-0.2,0.3-0.4,0.3-0.7c0-0.2,0-0.4,0-0.5   c0-0.2-0.1-0.3-0.3-0.4c-0.1-0.1-0.3-0.2-0.4-0.2c-0.2,0-0.4,0-0.6,0.2C245.2,289,245.1,289.2,245.1,289.6L245.1,289.6z M247.4,291   l0.2-2.4l0.3,0l1.2,2l0.2-1.9l0.3,0l-0.2,2.5l-0.3,0l-1.2-2l-0.2,1.9L247.4,291z M251,291.3l0.1-2.5l1.7,0.1l0,0.3l-1.4-0.1l0,0.8   l1.2,0.1l0,0.3l-1.2-0.1l0,1.1L251,291.3z M252.9,291.4l1-2.4l0.4,0l1,2.5l-0.4,0l-0.3-0.8l-1.1,0l-0.3,0.7L252.9,291.4z    M253.6,290.4l0.9,0l-0.3-0.7c-0.1-0.2-0.1-0.4-0.2-0.5c0,0.2-0.1,0.3-0.2,0.5L253.6,290.4z M255.6,291.4v-2.5h0.3v2.5H255.6z    M257.2,291.4l0-2.2l-0.8,0l0-0.3l2,0v0.3l-0.8,0l0,2.2H257.2z M259.7,291.3l-0.1-2.5l0.3,0l0.1,2.2l1.3-0.1l0,0.3L259.7,291.3z    M261.4,291.3l0.8-2.5l0.4,0l1.2,2.4l-0.4,0l-0.3-0.7l-1.1,0.1l-0.2,0.8L261.4,291.3z M262,290.2l0.9-0.1l-0.3-0.7   c-0.1-0.2-0.2-0.4-0.2-0.5c0,0.2,0,0.3-0.1,0.5L262,290.2z M265,291l-0.3-2.4l1.7-0.2l0,0.3l-1.4,0.2l0.1,0.8l1.2-0.1l0,0.3   l-1.2,0.1l0.1,1.1L265,291z M266.9,289.6c-0.1-0.4,0-0.7,0.2-1c0.2-0.3,0.5-0.4,0.8-0.5c0.2,0,0.4,0,0.6,0.1   c0.2,0.1,0.4,0.2,0.5,0.4c0.1,0.2,0.2,0.4,0.3,0.6c0,0.2,0,0.5-0.1,0.7c-0.1,0.2-0.2,0.4-0.4,0.5c-0.2,0.1-0.4,0.2-0.6,0.2   c-0.2,0-0.5,0-0.7-0.1c-0.2-0.1-0.4-0.2-0.5-0.4C267,290,266.9,289.8,266.9,289.6L266.9,289.6z M267.2,289.5c0,0.3,0.2,0.5,0.3,0.7   c0.2,0.2,0.4,0.2,0.6,0.2c0.3,0,0.4-0.2,0.6-0.3c0.1-0.2,0.2-0.4,0.1-0.8c0-0.2-0.1-0.4-0.2-0.5c-0.1-0.1-0.2-0.2-0.4-0.3   c-0.1-0.1-0.3-0.1-0.5-0.1c-0.2,0-0.4,0.1-0.6,0.3C267.2,288.9,267.2,289.2,267.2,289.5L267.2,289.5z M269.9,290.4l-0.5-2.4   l1.1-0.2c0.2,0,0.4,0,0.5,0c0.1,0,0.2,0.1,0.3,0.2c0.1,0.1,0.2,0.2,0.2,0.3c0,0.2,0,0.3-0.1,0.5c-0.1,0.1-0.3,0.2-0.5,0.3   c0.1,0,0.2,0.1,0.2,0.1c0.1,0.1,0.2,0.2,0.3,0.3l0.6,0.6l-0.4,0.1l-0.4-0.4c-0.1-0.1-0.2-0.2-0.3-0.3c-0.1-0.1-0.1-0.1-0.2-0.1   c0,0-0.1,0-0.2,0c0,0-0.1,0-0.2,0l-0.4,0.1l0.2,1.1L269.9,290.4z M270,289l0.7-0.1c0.2,0,0.3-0.1,0.3-0.1c0.1,0,0.1-0.1,0.2-0.2   c0-0.1,0-0.2,0-0.2c0-0.1-0.1-0.2-0.2-0.3c-0.1-0.1-0.2-0.1-0.4,0l-0.8,0.1L270,289z M274,288.7l0.3,0c0,0.3-0.1,0.5-0.2,0.7   c-0.1,0.2-0.3,0.3-0.6,0.3c-0.3,0.1-0.5,0.1-0.7,0c-0.2-0.1-0.3-0.2-0.5-0.4c-0.1-0.2-0.2-0.4-0.3-0.6c-0.1-0.2-0.1-0.5,0-0.7   c0-0.2,0.2-0.4,0.3-0.5c0.2-0.1,0.3-0.2,0.6-0.3c0.3-0.1,0.5,0,0.7,0c0.2,0.1,0.3,0.2,0.5,0.4l-0.3,0.1c-0.1-0.2-0.2-0.3-0.3-0.3   c-0.1-0.1-0.3-0.1-0.4,0c-0.2,0-0.3,0.1-0.5,0.2c-0.1,0.1-0.2,0.3-0.2,0.4c0,0.2,0,0.3,0,0.5c0,0.2,0.1,0.4,0.2,0.5   c0.1,0.1,0.2,0.2,0.4,0.3c0.1,0,0.3,0.1,0.4,0c0.2,0,0.3-0.1,0.4-0.3C274,289.1,274,288.9,274,288.7L274,288.7z M275,289.4   l-0.7-2.4l1.8-0.5l0.1,0.3l-1.5,0.4l0.2,0.7l1.4-0.4l0.1,0.3l-1.4,0.4l0.2,0.8l1.5-0.4l0.1,0.3L275,289.4z"/></g></svg>
