<?xml version="1.0" ?>
<svg id="Layer_1" style="enable-background:new 0 0 512 512;" version="1.1" viewBox="0 0 512 512" xml:space="preserve"
     xmlns="http://www.w3.org/2000/svg"><style type="text/css">
	.st0 {
    fill: #D61E42;
  }

  .st1 {
    fill: #F4C637;
  }

  .st2 {
    fill: #5E82C2;
  }

  .st3 {
    fill: #4BAD48;
  }
</style>
  <g id="XMLID_1_"><rect class="st0" height="298.7" id="XMLID_6_" width="512" y="106.7"/>
    <path class="st1"
          d="M116.5,327.2c-6.5,1.8-10.2,6.8-10.1,11.5l31.8-0.1c0.3-5.1-3.9-9.8-10.3-11.6   c31.1-0.6,58.1-12.3,63.1-19.8c-4.9-2.1-10.5,1.3-14.5,0.5c9.5-4.4,38-22.8,33.4-42.6c-3.6,11-14.5,20.1-19.2,22.5   c10.7-16.2,25.2-33,12.6-46c0.6,7.6-4.8,15.9-7.2,16.5c6.2-17.1,12.1-38.5-1.3-52.7c1.8,5.1,1,19.5-1.4,20.2   c-0.7-11.6-2.7-36.1-15-35.7c3.9,3.5,5.6,12.9,5.7,22.4c-2.8-6.5-6-11.5-12.7-16.3c-5.5-10.5-15.2-19.2-25-25.5   c1.1,7.7,2,13.7,12.7,21.6c-5.6-0.3-11.1-10.9-17.1-11.2c-4.7-0.2-8.5,4.3-16.2,1.7c0.9,2.6,4.5,3.7,5.2,5.6   c-1.6,1.1-5.6-0.2-8.9-1.9c4.5,6.1,11.5,9.7,17.4,8.5c7-1.4,14.6-0.6,21.8,3.5c-1.8,0.9-9,0.9-13.6,0.4c4.2,4.2,7,7,14.2,7   c6.5,0,9.9-3.5,11.6-1.3c4.1,4.8,6.8,9.6,10.2,15.3c-7.5,0.8-5.3-8.5-13.6-13.3c-4.7,9.7,5.4,21.3,12.3,26.1   c0.1,7.3,1.2,13.4,4.3,19c2.1,3.9,4.8,7.9,3.8,16.8c-4.1-3-8.2-13.1-6.7-21.2c-5.2,1.4-7.2,10.5-4.7,15c1.8,3.5,3,10.1,0.9,13.1   c-2,2.8-2.3,2.5-2.2,8.4c0.1,3.6-1.9,7.8-5.2,10.7c0.7-2.5,1.4-6.8,0.7-9.5c-2.6,4.3-9,8.8-11,13.5c-2,4.7-2.5,12.8-12.1,14.6   c-12.3,2.5-16.6,4.6-24.6,7.9c-0.9-6,1.8-18.6,6.8-17.9c4.9,0.9,19.9-5.2,14.5-17.7c-1.1,4-4.6,7.8-8.4,8   c4.1-5.3,11.5-10.9,7.9-19.8c-2,3.8-5.1,8.4-9.9,10.9c5.1-9.7,0.6-12.7-5.4-4.6c-2.3,3.1-3.7,9.3-5.1,17.2   c-2.4-6.4-2.2-14.8-5-21.7c-2.9-7.4,3.9-9.4,7.1-8.8c7.9,2.1,21,2.1,20.1-10.9c-3.4,4.4-9.4,5.8-15.8,4.2   c7.2-5.3,12.9-15.2,4.9-20.4c-0.3,5.5-4.5,11.7-10.2,14.5c-1.3-4.6-1.3-9.6-0.2-15c-3.2,3.3-5.5,10.3-7.3,18.2   c-0.1-7.8,1.3-13.4,2.4-17.6c1.7-6.1,5.8-2.1,12.1-1.7c6.1,0.3,14.5-3,12.9-11.3c-2.1,3.3-6.3,4.5-10.7,4.2   c5.2-3.2,14.4-8.8,9.4-17.5c-2.1,3.3-2.8,6.1-8.9,7.1c1.6-3.7,1.9-8.9,6.6-10.9c-8.4-1.7-13.3,3.9-15.7,12.5c-1-6-2.2-8.2-2.4-12.6   c4.6-5.1,5-15-4.8-17.2c-0.6,5.1-0.4,6.3,0.7,10.5c-4.6-2.8-11.2-4.3-15.5-0.4c2.9,3.2,7.5,6,14.5,2.5c-1.7,5.4-6,4.5-11.9,2.4   c3.6,6.8,8.2,8,13.3,7.2c2.6,7,2.8,12.3-5,22.4c0.3-6.3-0.1-11-5.1-16.1c-4.3-4.2-7.8,0.2-1.1,9.5c-4.1-3-8.7-9.1-10.1-15.2   c-1.3,7.5-0.1,16.4,4,21.4c-2,2.1-4.2-0.2-7.5-5.4c1.3,16.5,8.3,19.6,17.7,16c0.3,9,0.3,17.4,0.8,28.3   c-5.5-7.9-12.5-13.8-16.4-15.3c-1.2,4.4,3.4,10.2,5.9,13.4c-3.9-0.8-12.4-7.3-12.4-7.3c-0.9,7.3,8.6,14.1,14.8,17.2   c-7.2-0.3-10.4-3-15-7.5c0.1,20.4,22.1,16.8,26.2,13.7c0.5,10,1.3,21.6,1.8,31.6c-6.2-1.1-5.7-3-11-3.4   c-14.8-0.6-26.4-17.7-30.3-30.3c-1.1,2.1-0.2,4.2-1.2,6.8c-2.4-6.2-5.5-14.2-9.6-17.9c1,3.6,1.2,7.3,0.8,14   c-1.4-4.4-2.7-5.7-2.8-10.8c0.1-3.9,3.8-6.8,3.6-12.4c-0.2-4-3.8-12.8-4.4-19.6c-1.8,7-2.9,14.3-5.7,18.7   c1.4-7.5,0.9-12.6,3.2-17.6c2.7-5.3,4.9-10,3.1-15.3c-1.7,2.1-1.1,3.9-5.4,8.9c-0.9-5.4,5.5-14.1,11.8-17.6   c4.4-2.3,10-10.6,6.3-16.3c-4.1,3-6,7-11.9,13.9c4.2-16.3,15-20.6,28-20.6c2.9,0,8.7-1,10.3-4.8c-3.7,1.4-8,1.6-11.8,0.8   c2.8-4.1,8.7-3.6,14.2-3.6c4.3,0,11-0.6,13.8-6.7c-5.3,2.3-13.5,2.7-18.6,1.1c8.2-4.3,21.1-4.7,27.7-10.3   c-7.5-5.6-26.3,1.3-38.2,9.5c3.3-3,8.6-8.4,11.5-12.8c-6.5-3.1-22.9,15.1-28.6,25.9c-5.4,3-7.5,7.8-9.6,11.1   c2.9-9.7,3.2-16.7,5.6-24.7C52.4,193.2,60,227.3,56,235.4c0.5-9,0.1-20.6-3.6-26.5c-5.7,4.3-6.1,29.8-0.8,51.1   c-1.9-5.7-5.6-11-6.7-17.9c-8.4,15.3,4.9,33.4,16.1,47.7c-8.4-4.4-16.7-13.8-22.1-21.7c1.5,27.4,30.2,33.1,34.6,39.9   c-6-2.8-17.6-8.4-22.5-2.5c8,1.8,14.3,4,19.5,7.3C77.9,322.1,91.9,326.2,116.5,327.2L116.5,327.2z"
          id="XMLID_5_"/>
    <polygon class="st2" id="XMLID_4_" points="0,405.3 512,405.1 512,256  "/>
    <polygon class="st3" id="XMLID_3_" points="0,106.7 512,106.9 512,256  "/></g></svg>
