<?xml version="1.0" ?>
<svg id="Layer_1" style="enable-background:new 0 0 512 512;" version="1.1" viewBox="0 0 512 512" xml:space="preserve"
     xmlns="http://www.w3.org/2000/svg"><style type="text/css">
	.st0 {
    fill: #F5CD28;
  }

  .st1 {
    fill: #ED6F22;
  }

  .st2 {
    fill: #2F742E;
  }

  .st3 {
    fill: #8E1841;
  }
</style>
  <g><rect class="st0" height="298.7" width="512" y="106.7"/>
    <rect class="st1" height="236.1" width="86.9" x="108.2" y="138"/>
    <rect class="st2" height="236.1" width="85.7" x="22.7" y="138"/>
    <rect class="st3" height="236.1" width="271.5" x="217.9" y="138"/>
    <path class="st0"
          d="M321.4,247.6l4.5,0.1c0,0-5,4.2-3.9,10c5.3-7.8,7.2-6.3,7.2-6.3c-1.6,1.7-4.7,4.1-2.3,9.4   c2.1-5.4,6.3-9.5,6.3-9.5s-1.2,6,1.4,11.5c1.8-5.5,4.9-10.2,4.9-10.2s-0.5,6,2.2,8.2c2.1-1.8,3.4-6.5,3.4-6.5s3.9,6.9,6.3,7.9   c1.9-4.7,1.9-8.4,1.9-8.4s8,5.7,14.5,2.4c-5.7-2.1-7.7-6.9-7.7-6.9s10.4,4.6,14.9,2.5c-4.4-3.3-14.6-8.3-14.6-8.3s7.6,2.8,9.8,2.1   c-1-1.5-4.4-3.3-4.4-3.3L321.4,247.6z"/>
    <g><path class="st3" d="M334.8,262.8c-2.7-4.8-2.1-10.1-1.9-11.3c-0.5,1-4,4.8-5.8,9.4c-2.8-5-0.3-7.5,1.4-9.2l0.4-0.4    c-0.5,0.2-2.4,0.2-6.7,6.5c-1.7-5.9,3.5-10.3,3.5-10.4l-4.3,0.4c-0.2,0-0.3-0.1-0.3-0.3c0-0.2,0.1-0.3,0.3-0.3l4.5,0.1    c0.1,0.5-4.7,4.7-3.6,10.2c2.9-5.1,5-6.4,6.2-6.6c0.6-0.1,0.9,0.1,0.9,0.1l-0.4,0.9c-1.6,1.7-3.9,4-1.8,8.6    c1.6-5.4,5.8-9.6,5.9-9.6c0.4,0.3-0.6,6.2,1.8,11.6c1.3-5.5,4.4-10.2,4.5-10.3c0.5,0.2,0.1,6,2.6,8.1c1.6-1.8,3-6.4,3-6.4    c0.5,0,4.4,6.8,6.7,7.7c1.5-4.4,1.6-8.1,1.6-8.1c0.2-0.1,5.2,3.2,10.3,3.2c1.5,0,3-0.3,4.3-1c-5.8-1.6-7.7-6.3-7.8-6.5    c0.3-0.2,7.3,2.7,12.2,2.7c1.1,0,2.1-0.2,2.9-0.5c-4.3-2.8-14.5-7.7-14.6-7.8c0.2-0.4,6.2,1.7,8.9,1.7c0.3,0,0.6,0,0.9-0.1    c-1.1-1-4.4-2.8-4.4-2.8c0.4-0.4,3.7,1.4,4.7,2.9c-1.6,0.7-5.4-0.2-7.8-0.9c3.3,1.5,9.5,4.7,12.6,7c-4.3,2.4-13.5-1.3-15-2    c0.7,0.7,2.8,4.5,7.7,6.3c-6.1,3.7-13.6-1.2-14.6-1.9c0.3,0.5,0.1,3.9-1.6,8.2c-2.6-0.9-6.2-6.8-6.7-7.8c0.1,0.8-1.2,4.8-3.1,6.5    c-2.6-1.9-2.7-6.5-2.7-8C338.8,254.2,336.3,258.3,334.8,262.8L334.8,262.8z"/></g>
    <path class="st0"
          d="M384,191.6c13.8-1.3,35.2,10,46.5,17.6c0-2.5,0-5,2.5-6.3c2.5-1.3,6.3,1.3,5,5c-3.8,8.8-18.9-1.3-23.9-3.8   l2.5,5c-7.6-1.3-8.8-2.5-13.8-8.8c-1.3,5-1.3,6.3-7.6,6.3c2.4-3.7,3.2-5,0-8.8l-1.3,7.5l-6.3-8.8v8.8c-1.3-1.3-6.3-5-8.8-5   c-3.8-1.3-6.3,6.3-7.5,10.1c3.8-3.8,5-6.3,11.3-3.8c-3.4,3.2-2.4,7.1,1.3,10.1c0,0,0.7-5.2,1.1-6.4c2,1.5,6.2,7.1,11.5,7.7   c3.8,0,7.5-1.3,11.3-2.5c12.6-1.3,40.3,1.3,34,20.1c-1.3,3.8-2.5,6.3-5,8.8c17.6,6.3,2.5,28.9-1.3,40.2   c-2.5,10.1-0.8,18.1,11.6,16.8c-2.5,5-6.6,5.9-11.6,5.9c0,0,0.6,3,3.9,4.4c-5.4,4.8,1.9,12-1.3,15.7c-5.4,2.6-12.6-1.3-12.6-1.3   l-0.3,3.6c0,0-9.5-0.6-9.7-1.1c0,0,2.7-5.1,2.5-5.2c-2.5,3.8-4.9,6-10.1,5.2c0,0,0.4-2.4,3.2-5.4c-3.8,3.8-4.2,5.5-8.2,5.4   c0-6.3,3.8-13.8,11.3-11.3c1.3,0,5.2,3.1,7.1,1.1c1.5-2.2,0.6-9.5,0.6-12c0.8-11.1-1.4-10.4-7.7-16.7c-5-3.8-8.7-9.5-15-10.8   c-6.3-1.3-16.5,5.8-21.5,8.3c-12.6,7.5-23.9,12.6-37.7,15.1c0,0,0.3-0.6,0.3-1.9c0-0.8,13.6-11.4,16-30   c-3.7,18.3-16.9,28-17.4,31.4c-0.5,3.4-3.2,9.2-3.5,9.6c1.6-1,6.9-3.6,13.5-4.1c-1.4,7.9-8.8,6.3-10.1,10.1c0,3.8,5,8.8,0,11.3   h-20.1c0,0,3.1-4.3,3.2-5.5c-2.7,1.6-4.4,6-10.4,5.5c0.2-1.6,3.1-4.2,2.6-5.2c-3.4,3.1-5,5.8-9.3,5.1c1.3-3.8,1.3-8.8,6.3-8.8   c3.8-1.3,7.5,1.3,10.1-2.5c5-6.3-0.9-20-2.2-27.6c0-6.3,0-7.5-1.6-15.1l1.3,22.6c-5-3.8-10.1-6.3-13.8-11.3   c-8.8-11.3-6.3-23.9,5-31.4c5-3.8,7.8-5.7,14.1-8.2c-1.3-3.8,1.8-6.6-2.7-7.7c-1.3,2.3-2.6,4.9-5.2,4.7l1.4-6.3   c0,0-4.5,0.3-3.6,8.4c-5.2-2.5-2.7-8.4-2.7-8.4h-2.5c0,0,0,7.5-4.1,9c1.1-3.5,1.6-9,1.6-9s-6.7,8-10.6,5.4c2.3-2.6,4.1-3,3.8-6.2   c-0.3-3.1-1.9-7.2-2.2-7.8c1.4,0.7,10.9,3.5,16.9,0.6c-0.4,2-0.2,4.2-0.2,4.2c6.3-1.3,7.5-1.3,13.8,1.2   c-1.3-8.8-6.3-10.1-11.3-16.3v5c-5-1.3-6.3-2.5-8.8-7.5l-3.8,2.5c-6.6-3.9-11.5-13.2-2.1-12.7c5.6,0.7,0.9,5.1,0.9,5.1   s14.4-4.5,20.1-5c0,0-1.7-3.5-7-4.1c4.4-3.3,8.8-4.4,12,2.6c3.2,0.2,6.1-3.6,4.2-8.6c4.7-0.1,7,2.9,9.1,6c1.7,0.3,3.5-1.5,3.1-7.8   c4.4,3.8,6.6,4.9,6.9,8.1c3.8,0.8,6.3,0,11.9-2.5c-1.2,5-1.2,6.3-6.3,8.8c3.6,4.4,3.9,9.7,3.2,11.6c-1.2-0.4-1.5-0.4-2.4-0.7   c0.3,1.9,0.7,7.3,0.5,10.4h-2.5l3.8,11.3l-2.5,3.8c8.8-3.8,17.6-2.5,26.4-5c10.1-1.3,20.1-5,31.4-5c7.5,0,7.5,3.8,17.6,3.8v-6.3   c0-5-3.8-10.1-10.1-11.3c-3.8,0-10.1,2.5-13.8,3.8c-5,1.3-12.6,1.3-17.6,1.3c-16.3-2.5-13.7-4.1-19.4-7.2c-3.4,0.9-5.3,3.8-7,8.9   c-3.2-4.6-2.5-10.6,1.3-13.1C361.4,200.4,371.5,194.1,384,191.6L384,191.6z"/>
    <path class="st0"
          d="M387.8,304.7c-2.5-3.8-11.3-10.1-8.8-16.4c3.8-6.3,25.2-16.3,28.9-2.5c1.3,3.8-2.6,13.8-3.9,17.5   c1.9-0.5,4-3.4,10.2-2.4c-1.2,4.9-8.7,8.7-8.7,8.7c0.8,3.3-5.2,18.8-5.2,18.8H384l2.5-5l-3.8,5h-6.3l5-6.3c0,0-6,7-11,6.7   c1.3-10.1,7.3-11.7,16.1-7.9C387.8,316,390.3,309.7,387.8,304.7L387.8,304.7z"/>
    <g><path class="st3" d="M370.8,329.3c0,0-0.3,0-0.3,0c0.8-9.9,6.5-12.6,16.2-8.5c-0.2-0.6,0.1-1.5,0.3-2.3c1.2-4.5,2.7-9.5,0.6-13.6    c-0.6-0.9-1.7-2.1-2.9-3.3c-3.5-3.8-7.9-8.4-6-13.3c2.6-4.3,12.3-9.6,19.6-9.6c5.2,0,8.5,2.5,9.8,7.1c1.1,3.3-1.6,11.2-3.3,15.9    l-0.6,1.7c0.2-0.4,0.7-0.7,1.2-1.1c1.7-1,4.1-2.4,8.8-1.6c-0.9,5.3-8.3,9.1-8.6,9.3c0.9,3.1-4.8,18-5.1,18.6l-16.6,0.2l2.3-5.4    l-3.3,5.3l-6.5,0.1l3.3-4.5C377.7,326.4,374.1,329.3,370.8,329.3L370.8,329.3z M379.9,324.1l-3.2,4.6l6.1-0.4l3.6-4.9l-2.1,5.3    l16.1-0.4c-0.2,0,5.7-15.2,4.9-18.4c0.2-0.3,7.6-4.1,8.7-8.9c-0.7,0.2-1.5,0.1-2.3,0.1c-2.9,0-4.5,1-5.9,1.8    c-0.6,0.4-1.2,0.7-1.7,0.8l0.3-2.1c1.5-4.3,4.3-12.4,3.3-15.6c-1.5-5.6-5.9-6.8-9.3-6.8c-7.7,0-16.9,5.6-19.1,9.3    c-1.8,4.5,2.5,9,5.9,12.6c1.2,1.3,2.3,2.4,2.9,3.4c2.2,4.3,0.7,9.5-0.6,14c-0.2,0.9-0.5,1.7-0.7,2.5c-3.2-1-5.7-1.6-7.8-1.6    c-4.7,0-7.4,3-8.2,9.3c4.8,0,10.5-6.5,10.5-6.6l0,0C381.4,322.3,380.8,323.1,379.9,324.1L379.9,324.1z"/></g>
    <path class="st0" d="M320.5,210.1c-1.7,1-0.3,7.9,2.3,6.8C326,215.4,321.7,209.3,320.5,210.1L320.5,210.1z"/>
    <g><path class="st3" d="M322.2,217.3c-1,0-1.9-1-2.4-2.8c-0.5-1.8-0.5-4,0.6-4.6c1.7-0.1,3.4,2.2,3.8,4.2c0.3,1.5-0.1,2.5-1.3,3    L322.2,217.3L322.2,217.3z M320.7,210.3c-0.8,0.4-0.9,2.3-0.4,4c0.3,1.2,1,2.4,1.9,2.4v0.3l0.5-0.4c1.1-0.5,1.1-1.6,0.9-2.4    C323.2,212.2,321.4,210.3,320.7,210.3L320.7,210.3z"/></g>
    <path class="st0"
          d="M322.1,207.9c3.1,2.2,8,8,14.1,7.7c-4.6-3.8-3.7-6.5-3.7-6.5c2.4,2.9,10.4,5.5,13.1,4.4   c-3.1-2.3-3.7-2.5-4.4-4.7c3.7,0.5,8.3,1.3,11.9-0.3L322.1,207.9z"/>
    <g><path class="st3" d="M335,215.5c-4.4,0-8-3.1-10.7-5.4c-0.9-0.8-1.7-1.4-2.4-1.9c-0.1-0.1-0.2-0.3-0.1-0.4    c0.1-0.1,0.3-0.2,0.4-0.1c0.7,0.5,1.5,1.2,2.4,2c2.9,2.5,6.9,5.9,11.5,5.7c-4.8-3.4-4-6.2-3.9-6.4c2.8,2.7,10.6,5.3,13.2,4.2    l-0.9-0.2c-2.4-1.7-2.9-2.1-3.6-4.2l1.3-0.2c3.5,0.5,7.5,1,10.8-0.5c-3.2,2-7.3,1.5-10.8,1l-1-0.1c0.9,1.5,1.4,1.9,3.7,3.6    l0.9,0.7c-2.8,1.7-10.6-0.9-13.3-3.8c0.2,0.6,0.2,3,3.9,6C335.9,215.4,335.4,215.5,335,215.5L335,215.5z"/></g>
    <path class="st0" d="M328,246.2l0.3-5.3c0,0,3.4,8,6,8.2c-1.6-5.9-0.9-10.6-0.9-10.6L328,246.2z"/>
    <g><path class="st3" d="M334.5,249c-2.9,0-6-7.2-6.3-8l0.2,5.2c0,0.2-0.2,0.2-0.3,0.3c-0.2,0-0.3-0.1-0.3-0.3l0.3-5.3    c1.5,2.1,4.3,7.8,6.2,7.9c-1.9-5.5-1.2-10.3-1.2-10.3c0.5,0.1-0.1,4.8,1.4,10.5C334.6,249,334.5,249,334.5,249L334.5,249z"/></g>
    <path class="st0"
          d="M336.1,239.8c0,0,6.9,12.6,10.2,10.6c-5-4.5-4.5-10.3-4.5-10.3s2.3,7.8,9.1,10.2c0.5-4.4-2.6-11.5-2.6-11.5   s5.6,9.9,8.5,10.1c1.8-2.3,1.1-4.7,1.1-4.7L336.1,239.8z"/>
    <g><path class="st3" d="M345.3,250.8c-0.2,0-0.3,0-0.5-0.1c-3.6-1-8.8-10.4-9-10.8c-0.1-0.1,0-0.3,0.1-0.4c0.1-0.1,0.3,0,0.4,0.1    c0.1,0.1,5.3,9.7,8.7,10.6c0.4,0.1,0.8,0.1,1.1-0.1c-5.1-4.1-4.6-10.1-4.6-10.1c0.6,0,2.9,7.6,9.4,10c0.1-4-3-11-3-11.1    c0,0,0,0,0,0c0.1,0,0.3,0.3,0.6,0.7c2.2,2.9,6.1,8.8,8.2,9c1.5-2.1,0.9-4.3,0.9-4.4c0,0,0,0,0,0c0.6,0,1.2,2.5-0.7,4.8    c-2.4-0.1-5.9-5.3-7.8-8.2c1,2.4,2.3,6.5,2,9.4c-5.9-1.8-8.5-7.4-9.3-9.4c0.3,1.7,0.8,5.9,4.7,9.3    C346.1,250.7,345.7,250.8,345.3,250.8L345.3,250.8z"/></g>
    <path class="st0"
          d="M330.7,231.1l5,6.4l0.8-8.6c0,0,4.9,3.9,5.9,3.8c0.9-0.1-1.4-9.2-1.4-9.2s6.7,10.1,7.1,9.9   c0.5-0.2,0.7-10,0.7-10s5,13.9,6.8,13.8c1.7-0.1,1.3-1.9,1.3-1.9L330.7,231.1z"/>
    <g><path class="st3" d="M336,237.5l-5.5-6.3c-0.1-0.1-0.1-0.3,0-0.4c0.1-0.1,0.3-0.1,0.4,0l5,6.4l0.3-8.5c2.8,1.7,5.6,3.5,6.1,3.5    c0.2-0.5-0.6-4.9-1.6-8.8c2.9,3.4,6.9,9.2,7.4,9.6c0-0.4,0.3-5.3,0.4-9.7c2.9,6.5,6.2,13.6,7,13.5c0.4,0,0.7-0.2,0.9-0.4    c0.3-0.5,0.2-1.2,0.2-1.2c0.5-0.2,0.8,0.9,0.3,1.5c-0.3,0.4-0.7,0.6-1.3,0.6c0,0,0,0,0,0c-1.8,0-5.8-10.7-7-13.9    c0.3,9.8-0.1,10-0.3,10.1c-0.2,0.1-0.6,0.4-7.5-10c1,1.7,2.6,8.2,1.9,9.1c-1.3,0.3-5.2-2.7-6.4-3.7L336,237.5L336,237.5z"/></g>
    <path class="st0"
          d="M326.9,219.8c0,0,7.8,7.1,8.6,6.6c0.8-0.5-3.2-8.3-3.2-8.3s4.5,4.2,6.2,4.6c1.7,0.3,0.6-5.5,0.6-5.5   s5.3,4.5,6.2,4.2c0.9-0.2,0.5-4.2,0.5-4.2s3.4,3.4,3.7,3.4c0.2,0-0.7-9.9-0.7-9.9s7.7,8.2,8.3,8L326.9,219.8z"/>
    <g><path class="st3" d="M335.5,226.8c-1.1,0-5.3-3.6-8.8-6.7c-0.1-0.1-0.1-0.3,0-0.4c0.1-0.1,0.3-0.1,0.4,0c3.6,3.3,7.6,6.6,8.3,6.6    c0,0,0,0,0,0c0.1-0.5-1.6-4.5-3.4-7.9c1.7,0.8,5.1,3.9,6.5,4.2c0.9-0.7,0.6-3.5,0.2-5.2c2.9,1.8,5.7,4,6.4,3.9    c0.4-0.1,0.5-2,0.2-4c2,1.3,3.8,3,4,3.2c-0.2-0.3-0.7-6.1-1.1-9.6c3.3,2.8,7.9,7.5,8.6,7.7c-0.1,0.6-0.7,0.7-8.5-7.6    c1.4,9.6,1.2,9.8,1.1,9.9c-0.3,0.1-0.6,0.1-4.1-3.4c0.6,1.1,0.8,4.1-0.2,4.3c-0.9,0.3-4.9-3-6.3-4.2c0.5,0.7,1.1,4.3,0.2,5.2    c-0.1,0.1-0.7,0.2-0.8,0.2c-1.8-0.4-6.1-4.5-6.3-4.7c3.2,5,4.2,7.9,3.5,8.3C335.6,226.7,335.5,226.8,335.5,226.8L335.5,226.8z"/></g>
    <path class="st0"
          d="M295.7,222.4c0.3,0.6,1.6,10.7,17.3,6.6c1.5-0.8,0.8,2.8,0.8,3.9c0.7-0.1,8.2-2.8,13.3,1   c-0.6-4.2-1.7-7-6.2-9.4c-2.2-0.5-3.8,0.7-3.8,0.7S298.2,225.2,295.7,222.4L295.7,222.4z"/>
    <g><path class="st3" d="M327.1,234.1c-0.1,0-0.1,0-0.2-0.1c-1.8-1.3-4.1-2-6.8-2c-2.6,0-4.9,0.6-5.9,0.9c-0.1,0-0.4,0-0.5,0    c-0.1-0.1-0.3-0.1-0.3-0.2l0.1-0.7c0.1-0.8,0.3-2.6-0.1-3c-2.9,0.7-5.2,1-7.3,1c-5.7,0-9.3-2.5-10.7-7.4c0-0.1-0.1-0.2-0.1-0.2    c2.7,6.5,8.3,8.5,17.5,6.1l1,0.1c0.5,0.5,0.4,1.9,0.2,3.4l-0.1,0.6c1.1-0.7,3.5-1.3,6.2-1.3c2.6,0,4.8,0.6,6.6,1.7    c-0.6-3.8-1.9-6.4-6-8.6c-0.3,0-0.6-0.1-0.9-0.1c-1.5,0-2.6,0.7-2.6,0.7c-5,0-19.5-0.1-21.8-2.7c0-0.1,0-0.2,0.1-0.3    c0.1-0.1,0.2-0.2,0.3-0.1c1.7,1.9,12.3,2.6,20.8,2.6c0.2,0,1.5-0.8,3.2-0.8c0.4,0,0.7,0,1.1,0.1c4.6,2.5,5.8,5.3,6.4,9.7    c0,0.1,0,0.2-0.1,0.3C327.2,234.1,327.2,234.1,327.1,234.1L327.1,234.1z"/></g>
    <path class="st0"
          d="M287.1,287c-0.3,1.2-1.1,1.5-3.4,4.9c1,1.4,5.8,3.7,7.1,2.5c1.2-0.6,1.3-3.8,1.3-3.8c2.5,3.8,6.9,9.7,12,11   c3.8,1.3,7.5-1.3,7.5-5s-5.7-9.8-8.2-12.3c-6.3-7.6-5.7-21.8-17.6-19.8c-0.1,0.1-0.5,1.7-1.7,2c1,1.8,1.5,3.4-0.8,4   c1.8,1.7,2.1,3-0.2,3.9c1.4,1.9,3,2.5-0.2,4.1C286.2,281.6,286.9,286.4,287.1,287L287.1,287z"/>
    <g><path class="st3" d="M306,302.2c-0.7,0-1.4-0.1-2.1-0.3c-3.8-0.9-7.7-4.5-11.9-10.8c0.2,0.8,0,3-1.1,3.6c-0.2,0.2-0.7,0.4-1.2,0.4    l0,0c-2,0-5.4-1.7-6.3-2.9c1-1.8,1.8-2.7,2.3-3.4c0.7-0.8,1-1.2,1.1-1.8c-0.4-1.5-1.2-5.5-4.1-8.3c1.1-1,1.7-1.4,1.7-1.8    c0.1-0.4-0.3-0.9-0.8-1.4c-0.2-0.3-0.5-0.6-0.8-0.9c1-0.7,1.5-1.1,1.6-1.6c0.1-0.6-0.3-1.3-1.3-2.3c0.8-0.6,1.3-0.9,1.4-1.3    c0.3-0.6-0.1-1.5-0.7-2.7c0.7-0.5,1.2-1.1,1.6-2.1c1-0.4,1.8-0.5,2.4-0.5c6.4,0,8.7,5.4,11,11.2c1.3,3.1,2.6,6.4,4.7,8.9    c2.5,2.5,8.3,8.7,8.3,12.5C311.9,299.7,309.3,302.2,306,302.2L306,302.2z M291.8,290.6c4.8,6.2,8.6,9.8,12.3,10.7    c3.6,1.2,7.2-1.3,7.2-4.8c0-3.7-5.7-9.7-8.1-12.2c-2.1-2.6-3.5-5.9-4.8-9c-2.5-6.2-4.9-12-12.6-10.7c-0.3,1.1-0.9,1.8-1.7,2    c0.7,0.7,1.3,1.9,0.9,2.8c-0.2,0.5-0.8,0.9-1.7,1.1c1.3,0.7,1.7,1.6,1.6,2.3c-0.1,0.7-0.7,1.2-1.8,1.6c0.4-0.1,0.6,0.2,0.9,0.5    c0.6,0.7,1.1,1.2,1,1.9c-0.1,0.6-0.7,1.1-2,1.7c3.1,2.5,4,6.6,4.3,8c-0.1,1.2-0.4,1.6-1.1,2.4c-0.5,0.6-1.3,1.5-2.3,3    c1,1,5.7,3,6.7,2.1C291.5,293.7,291.8,291.4,291.8,290.6L291.8,290.6z"/></g>
    <path class="st0"
          d="M284,180.5c-3.8,5.5-4.2,65.8-3,77.9c-3.8,2.5-10.8,1.4-12.8,0.6C269.1,254.7,272.4,184.8,284,180.5L284,180.5   z"/>
    <g><path class="st3" d="M274.4,260.2c-2.6,0-5.1-0.5-6.3-0.9c0-1.1,0.3-4.1,0.6-8.4c1.7-20.1,5.5-67.1,15.2-70.7    c-3.4,5.8-3.9,65.3-2.6,78.1C279.1,259.9,276.3,260.2,274.4,260.2L274.4,260.2z M283.8,180.3c-9,3.9-13,52.4-14.5,70.6    c-0.4,4.4-0.6,7.3-0.8,8.1c0.9,0.1,3.4,0.6,5.9,0.6c1.9,0,4.6-0.3,6.5-1.5C279.7,247.5,279.8,186,283.8,180.3L283.8,180.3z"/></g>
    <path class="st0"
          d="M273.3,304.1c0,0-16.7,2.3-9.7-7.6c6-2.6,5.9,3.5,3.7,5.6c2.7,0.3,4.6-1.5,5-4.2c-3.4-4.6,1.4-7.6,1.2-7.6   c-11.6,2.6-13.2-5.4-8.9-6.6c5.4,0.3,3.7,2,5.9,3.7c3.9-3.6,6.3-4,8.6-0.3c2.4-3.7,5.7-3.3,5.9-2.9c3.8,6.4-4.6,6.8-8,6   c2.9,3.1,1.7,6.1,0.8,8.4c0.1,2.2,1.7,2.5,4.4,3.4c-5.7-15.8,20.2,4.2-5.9,2.2c0,0.7,0.1,1.4,0.1,2.1c2.1,0.4,3.6,0.9,4.3,3.1   c-0.9,1.2-2.3,1.4-4.6,0.5c0,0,1.3,3.7-1,4.7c-2-1.2-2.2-4-2.2-4c-1.1,1.3-2.7,0.5-4-0.7C270.1,306.9,273.5,308.4,273.3,304.1   L273.3,304.1z"/>
    <path class="st0"
          d="M258.9,255.8c1-4.5,11.5-4,6.5,0.9c3.3,5.4,13.6,4.6,17.5,1.6c-3.3-6.2,5.6-4.9,5.2-0.1   C287.1,266.5,257.8,265.4,258.9,255.8L258.9,255.8z"/>
    <path class="st0"
          d="M451.8,335.9c3.1,5.9,8.7,19.8,11.8,23.1c2.9,2.6,10.1,2.3,12.3-0.6c0,0,4.6,4.7,6.5,6.2   c1.1-0.4,1.8-1.4,1.8-1.4c-1.9-2-4.4-3.2-5.7-7c1.9-2.5,2.9-7.4,1.7-11.2C474.6,335.7,456.3,339.4,451.8,335.9L451.8,335.9z"/>
    <g><path class="st3" d="M482.4,364.8l-0.1-0.1c-1.9-1.4-6.3-6-6.5-6.2c-1.4,2.8-9.4,3.2-12.3,0.7c-2.1-2.2-5.2-9-7.9-15    c-1.5-3.2-2.8-6.2-3.9-8.2c2,0.9,5.6,1.2,9.7,1.6c6.9,0.6,15.6,1.3,19.1,7.2c1.3,4,0.2,9-1.7,11.5c0.9,2.4,2.5,3.7,4,5    c0.6,0.5,1.2,1,1.7,1.6c0,0.4-0.7,1.5-1.9,1.9L482.4,364.8L482.4,364.8z M475.7,358.2c0.4,0,4.8,4.5,6.7,6    c0.9-0.4,1.5-1.3,1.5-1.3c-0.5-0.2-1.1-0.7-1.7-1.2c-1.5-1.3-3.1-2.7-4.1-5.5c1.8-2.6,2.9-7.4,1.7-11.2    c-3.4-5.6-11.8-6.3-18.6-6.9c-4.2-0.4-7.8-0.7-9.6-2c1.5,1.7,2.9,4.7,4.3,7.9c2.7,5.9,5.8,12.7,7.8,14.8    C466.4,361.1,473.8,360.7,475.7,358.2L475.7,358.2z"/></g>
    <path class="st0"
          d="M255.3,175.8c-3.1-5.9-8.7-19.8-11.8-23.1c-2.9-2.6-10.1-2.3-12.3,0.6c0,0-4.6-4.7-6.5-6.2   c-1.1,0.4-1.8,1.4-1.8,1.4c1.9,2,4.4,3.2,5.7,7c-1.9,2.5-2.9,7.4-1.6,11.2C232.5,175.9,250.8,172.3,255.3,175.8L255.3,175.8z"/>
    <g><path class="st3" d="M255.2,176c-1.6-1.3-5.2-1.6-9.3-1.9c-6.9-0.6-15.6-1.3-19.1-7.2c-1.3-4-0.2-9,1.7-11.5    c-0.9-2.4-2.5-3.7-3.9-5c-0.6-0.5-1.2-1-1.7-1.6c0-0.4,0.7-1.5,1.9-1.9c2.1,1.5,6.6,6.1,6.8,6.2c1.4-2.8,9.5-3.2,12.3-0.6    c2.1,2.2,5.2,9,7.9,14.9c1.5,3.2,2.8,6.2,3.9,8.2L255.2,176L255.2,176z M224.6,147.3c-0.8,0.4-1.4,1.4-1.4,1.4    c0.5,0.2,1.1,0.7,1.7,1.2c1.5,1.3,3.1,2.7,4.1,5.5c-1.8,2.6-2.9,7.4-1.6,11.2c3.3,5.6,11.8,6.3,18.6,6.9c3.6,0.3,6.8,0.6,8.7,1.5    c-1-2-2.2-4.6-3.5-7.4c-2.7-5.9-5.8-12.7-7.8-14.8c-2.6-2.3-9.9-1.9-11.9,0.6C231,153.4,226.4,148.7,224.6,147.3L224.6,147.3z"/></g>
    <path class="st0"
          d="M253.5,335c-5.9,3.1-19.8,8.7-23.1,11.8c-2.6,2.9-2.3,10.1,0.6,12.3c0,0-4.7,4.6-6.2,6.5   c0.4,1.1,1.4,1.8,1.4,1.8c2-1.9,3.2-4.4,7-5.7c2.5,1.9,7.4,2.9,11.2,1.6C253.6,357.8,250,339.5,253.5,335L253.5,335z"/>
    <g><path class="st3" d="M226.3,367.7l-0.2-0.1c0,0-1.1-0.8-1.5-1.9c1.5-2.1,6.1-6.6,6.3-6.8c-1.3-0.6-2.2-2.6-2.4-5.1    c-0.3-2.9,0.4-5.7,1.8-7.2c2.2-2.1,9-5.2,14.9-7.9c3.2-1.5,6.2-2.8,8.2-3.9c-0.9,2-1.2,5.6-1.6,9.7c-0.6,6.9-1.3,15.6-7.2,19.1    c-1.2,0.4-2.4,0.6-3.8,0.6l0,0c-2.8,0-5.8-0.9-7.7-2.3c-2.4,0.9-3.7,2.5-5,3.9c-0.5,0.6-1,1.2-1.6,1.7L226.3,367.7L226.3,367.7z     M253.3,334.8c-1.7,1.5-4.7,2.9-7.9,4.4c-5.9,2.7-12.6,5.8-14.8,7.8c-1.2,1.4-1.9,4.1-1.6,6.8c0.2,2.3,1.1,4.2,2.2,5.1    c0,0.5-4.7,5-6.1,6.9c0.3,0.6,0.9,1.1,1.2,1.3c0.5-0.5,1-1,1.4-1.5c1.3-1.5,2.7-3.1,5.5-4.1c2.9,2,7.8,2.8,11.2,1.6    c5.6-3.3,6.3-11.8,6.9-18.6C251.6,340.2,251.9,336.6,253.3,334.8L253.3,334.8z"/></g>
    <path class="st0"
          d="M452.3,175.8c3.1-5.9,8.7-19.8,11.8-23.1c2.9-2.6,10.1-2.3,12.3,0.6c0,0,4.6-4.7,6.5-6.2   c1.1,0.4,1.8,1.4,1.8,1.4c-1.9,2-4.4,3.2-5.7,7c1.9,2.5,2.9,7.4,1.6,11.2C475.1,175.9,456.8,172.2,452.3,175.8L452.3,175.8z"/>
    <g><path class="st3" d="M452.5,176l-0.4-0.3c1.1-2,2.5-5,3.9-8.2c2.7-6,5.9-12.7,7.9-14.9c2.9-2.6,10.6-2.2,12.7,0.7    c-0.2-0.3,4.2-4.8,6.1-6.2c1.4,0.4,2.1,1.5,2.2,1.5c-0.6,0.9-1.2,1.4-1.8,2c-1.5,1.3-3,2.6-3.9,5.3c1.8,2.2,3,7.2,1.6,11.2    c-3.5,5.9-12.2,6.7-19.1,7.3C457.7,174.4,454.1,174.7,452.5,176L452.5,176z M469.9,151.2c-2.3,0-4.4,0.6-5.6,1.7    c-2,2.1-5.1,8.8-7.8,14.8c-1.3,2.8-2.5,5.4-3.5,7.4c1.9-0.9,5.1-1.2,8.7-1.5c6.8-0.6,15.3-1.3,18.6-7c1.2-3.7,0.2-8.5-1.6-10.9    c0.9-3,2.5-4.4,4-5.7c0.6-0.5,1.1-1,1.6-1.5c-0.2,0-0.8-0.8-1.6-1.1c-1.6,1.4-6.2,6.1-6.2,6.1    C475.1,152.1,472.7,151.2,469.9,151.2L469.9,151.2z"/></g>
    <path class="st0"
          d="M263.7,266.1c-0.2,1.9,4.3,2.7,9,2.8c4.7,0,9.5-0.8,9.7-2.1c0.1-2.4-4.1-0.3-8.8-0.4   C268.8,266.3,264.9,264.5,263.7,266.1L263.7,266.1z"/>
    <g><path class="st0" d="M272.9,269.1l-0.2,0c-1.7,0-7.4-0.2-8.9-1.9c-0.3-0.3-0.4-0.7-0.4-1.1c0.8-1.2,2.6-0.9,5.1-0.5    c1.5,0.3,3.2,0.5,5,0.6c0,0,0,0,0,0c1.8,0,3.4-0.3,4.7-0.5c2-0.3,3.4-0.5,4,0.1c0.2,0.2,0.3,0.6,0.3,1    C282.3,268.7,276.1,269.1,272.9,269.1L272.9,269.1z M265.5,265.7c-0.8,0-1.3,0.2-1.6,0.5c0,0.1,0.1,0.4,0.3,0.6    c0.9,1.1,4.2,1.7,8.5,1.7l0.2,0.3v-0.3c5.3,0,9.1-1,9.2-1.9c0-0.2-0.1-0.4-0.2-0.6c-0.4-0.4-1.8-0.2-3.5,0c-1.4,0.2-3,0.5-4.7,0.5    c-2,0-3.7-0.3-5.2-0.6C267.3,265.9,266.3,265.7,265.5,265.7L265.5,265.7z"/></g>
    <path class="st0"
          d="M264,271.4c0.1,1.8,4.6,2.2,8.6,2.3c4,0.1,8-0.7,8.8-2c-0.7-2-5.2-0.3-8.8-0.3C269,271.6,265,269.7,264,271.4   L264,271.4z"/>
    <g><path class="st0" d="M273.4,274l-0.8,0c-4.1-0.1-8.8-0.6-8.9-2.6c0.5-0.9,1.3-1,1.9-1c0.8,0,1.7,0.2,2.8,0.4    c1.2,0.2,2.6,0.5,3.9,0.5c1.4,0,2.6-0.2,3.8-0.4c1.2-0.2,2.3-0.3,3.2-0.3c0.8,0,2,0.1,2.4,1.2C280.8,273.4,276.8,274,273.4,274    L273.4,274z M265.7,271c-0.8,0-1.2,0.2-1.4,0.6c0.1,1.1,2.9,1.8,8.4,1.9l0.8,0c3.8,0,7.2-0.8,7.8-1.8c-0.4-0.6-2.4-0.6-5-0.3    c-1.2,0.2-2.4,0.4-3.6,0.4c-1.4,0.2-3-0.2-4.2-0.5C267.4,271.1,266.4,271,265.7,271L265.7,271z"/></g>
    <path class="st0"
          d="M265.3,276.2c-0.3,1.3,3.7,2.3,7.4,2.3c3.7,0,8.9-1.4,8.9-2.8c-0.2-1.1-5.4,0.4-8.8,0.5   C269.3,276.3,265.3,274.9,265.3,276.2L265.3,276.2z"/>
    <g><path class="st0" d="M272.8,278.8C272.8,278.8,272.7,278.8,272.8,278.8c-3,0-6.6-0.7-7.5-1.8c-0.2-0.3-0.3-0.6-0.2-0.8    c0-0.7,1-0.7,1.3-0.7c0.6,0,1.4,0.1,2.3,0.2c1.1,0.2,2.4,0.3,3.7,0.3c1.7,0,3.3-0.3,4.7-0.5c1.3-0.2,2.6-0.4,3.4-0.4    c0.3,0,1.3,0,1.4,0.6C281.8,277.4,276.3,278.8,272.8,278.8L272.8,278.8z M266.4,275.9c-0.5,0-0.8,0.1-0.8,0.2    c0.8,1.3,3.9,2.1,7.1,2.1l0.1,0.3v-0.3c3.7,0,8.5-1.4,8.6-2.6c0-0.1-1.9-0.1-4.2,0.3c-1.4,0.2-3,0.5-4.3,0.5    c-1.9-0.1-3.1-0.2-4.2-0.3C267.7,276,266.9,275.9,266.4,275.9L266.4,275.9z"/></g>
    <path class="st0"
          d="M264.9,281c0.3,1.3,4.8,1.8,8.8,1.5c4-0.3,8-1.5,8.4-2.9c-0.2-0.9-4.8,0.7-8.6,0.9   C269.7,280.6,264.8,280,264.9,281L264.9,281z"/>
    <g><path class="st0" d="M271.3,282.8c-1.5,0-6.3-0.1-6.7-1.8c0.5-0.8,1.3-1,3-1l4.2,0.1c0.6,0,1.2,0,1.7,0c1.6-0.1,3.4-0.4,4.9-0.7    c1.3-0.2,2.3-0.4,3-0.4c0.2,0,0.9,0,1,0.5c-0.4,1.8-4.7,3-8.6,3.3C272.9,282.8,272.1,282.8,271.3,282.8L271.3,282.8z M267.6,280.7    c-1.4,0-2.3,0.1-2.5,0.3c0.1,0.7,2.3,1.3,6.1,1.3c0.8,0,1.6,0,2.4-0.1c4.1-0.3,7.8-1.6,8.1-2.7c-1.1,0.1-2.1,0.3-3.3,0.5    c-1.5,0.3-3.3,0.6-5,0.7c-0.6,0-1.1,0-1.7,0L267.6,280.7L267.6,280.7z"/></g></g></svg>
