<?xml version="1.0" ?>
<svg id="Layer_1" style="enable-background:new 0 0 512 512;" version="1.1" viewBox="0 0 512 512" xml:space="preserve"
     xmlns="http://www.w3.org/2000/svg"><style type="text/css">
	.st0 {
    fill: #BD1F34;
  }

  .st1 {
    fill: #357B5F;
  }

  .st2 {
    fill: #F4D130;
  }
</style>
  <g><rect class="st0" height="298.7" width="512" y="106.7"/>
    <rect class="st1" height="215.1" width="414.2" x="48.9" y="148.5"/>
    <polygon class="st2" points="48.9,363.5 256,256 463.1,363.5  "/>
    <polygon class="st2" points="48.9,148.5 256,256 463.1,148.5  "/>
    <path class="st0"
          d="M291.8,256c0-19.8-16-35.8-35.8-35.8c-19.8,0-35.8,16-35.8,35.8s16,35.8,35.8,35.8   C275.8,291.8,291.8,275.8,291.8,256"/>
    <polygon class="st2"
             points="224.7,245.9 248.6,245.9 256,223.1 263.4,245.9 287.3,245.9 267.9,259.9 275.3,282.6 256,268.6    236.7,282.6 244.1,259.9  "/>
    <polygon class="st2"
             points="138,121.6 152.1,121.6 156.4,108.1 160.8,121.6 174.9,121.6 163.5,129.9 167.8,143.3 156.4,135    145,143.3 149.4,129.9  "/>
    <polygon class="st2"
             points="237.5,121.6 251.6,121.6 256,108.1 260.4,121.6 274.5,121.6 263.1,129.9 267.4,143.3 256,135    244.6,143.3 248.9,129.9  "/>
    <polygon class="st2"
             points="337.1,121.6 351.2,121.6 355.6,108.1 359.9,121.6 374,121.6 362.6,129.9 367,143.3 355.6,135    344.2,143.3 348.5,129.9  "/>
    <polygon class="st2"
             points="138,378.4 152.1,378.4 156.4,365 160.8,378.4 174.9,378.4 163.5,386.7 167.8,400.2 156.4,391.9    145,400.2 149.4,386.7  "/>
    <polygon class="st2"
             points="237.5,378.4 251.6,378.4 256,365 260.4,378.4 274.5,378.4 263.1,386.7 267.4,400.2 256,391.9    244.6,400.2 248.9,386.7  "/>
    <polygon class="st2"
             points="337.1,378.4 351.2,378.4 355.6,365 359.9,378.4 374,378.4 362.6,386.7 367,400.2 355.6,391.9    344.2,400.2 348.5,386.7  "/>
    <path class="st0" d="M74.6,256.4c4.5,8.4,13.2,17.4,20.8,20.6c0.1-8.5-2.9-19.4-7-28L74.6,256.4z"/>
    <path class="st2"
          d="M67,227.8c6.5,13.6-16.9,45.9,22.1,53.5c-4.8-6.6-7.9-17.4-6.7-26.1c8.2,3.1,16.7,12.2,20.2,19.2   C112.7,237.3,76.4,239.6,67,227.8"/></g></svg>
