<?xml version="1.0" ?>
<svg id="Layer_1" style="enable-background:new 0 0 512 512;" version="1.1" viewBox="0 0 512 512" xml:space="preserve"
     xmlns="http://www.w3.org/2000/svg"><style type="text/css">
	.st0 {
    fill: #3A6FB7;
  }

  .st1 {
    fill: #FFFFFF;
  }

  .st2 {
    fill: #010101;
  }

  .st3 {
    fill: #3E7C3B;
  }

  .st4 {
    fill: #F6D12C;
  }

  .st5 {
    fill: #E08828;
  }

  .st6 {
    fill: #89888A;
  }

  .st7 {
    fill: none;
  }

  .st8 {
    fill: #653996;
  }

  .st9 {
    fill: #CC2027;
  }

  .st10 {
    fill: #F7E325;
  }

  .st11 {
    fill: #EFDF78;
  }

  .st12 {
    fill: #811818;
  }
</style>
  <g><rect class="st0" height="298.7" width="512" y="106.7"/>
    <path class="st1"
          d="M285.6,330.5c0,0,9-9.5,17.7-7.7c2.6-10.1,12.4-10.8,12.4-10.8s-0.9-11.1,11.6-13.5c0.3-7.6,8-13.8,8-13.8   s-1.6-11.7,6.4-14.4c-4.9-9.3,1.6-16.1,1.6-16.2c-0.1-0.2-8.2-14.7-1-18.8c-7.7-6.5-5.2-13.9-5.2-13.9s-8.4-2.2-5.4-12.2   c-6.9-1.2-8.3-12.4-8.3-12.4s-10.7,2.2-12-7.1c-7,1.1-7.8-5.8-7.9-5.8c-0.1,0-14,3.7-16.8-6.8c-5.4,2.8-7.7-2.2-7.7-2.2   s-7.7,3.8-12.3-3.6c-9.2,5.7-14.3-0.3-14.3-0.3s-12.1,8-16.1,1.8c-7.1,7.2-13.5,4.1-13.5,4.1s-5.4,9.6-14.1,7.1c-2,8.9-12,9-12,9   s1,7.8-10.9,9.9c-1.6,9.2-7.8,10.8-7.8,10.8s0.6,8.9-5,11.8c2,5-3.2,11.2-3.2,11.2s5.6,6.9-2,14.8c7.3,1.9,2,14.5,2,14.5   s10.1,4.5,3.7,12.8c7.2,2.3,5,8.1,5,11.5c4.6,2.1,8.7,1,6.7,10.3c14.1,1.6,7.5,9.4,7.5,9.4s6.6,0.3,4,5.5c12.1-0.3,13.8,9,13.8,9   s11.2-2.9,12.7,1.4c1.5,4.3-4.9,33.6-4.9,33.6s-9.5,0-16.5-7.6c-16.5-0.4-12.8-11.3-13.1-11.3c-0.3,0-5.5,2-8.2-7   c-11,2.3-10.7-7-10.8-7.1c-0.1-0.1-5-2.2-3.1-6.9c-11.4,1-10.5-10.1-10.5-10.1c-2.5-1-3.4-3.3-3-5.6c-1.5-0.5-11.5-0.7-6.3-14   c-9.6-5.8-3.6-12.5-3.6-12.5s-13.3-6.9-3-14.8c-7.6-11.3,0.6-16.9,0.6-16.9s-10.6-10.8,0.2-18.4c-1.7-16.3,8-20.2,8-20.2   s-5.1-13.3,8.8-18.8c0.9-13.5,10.6-13.8,10.6-13.8s0.3-10.7,15.5-9.6c3-9.6,13.4-7.6,13.4-7.6s3.2-11.5,17.4-6   c7.2-14.1,17.9-6.9,17.9-6.9s6.8-4.4,10.2-3c4.3-7.4,13.5-0.3,19.4,1.1c2.1-0.8,9.8-6.6,15.7,0.7c7.8-5.1,14.5,4.1,14.5,4.1   s10.8-5.5,15.8,7c22.8-2.1,19.5,12.8,19.5,12.8s18-4.1,14.1,13.8c16.3,1.1,14.7,11.9,14.7,11.9s10.3,7.8,5.8,14.8   c9.2,0.4,5.8,9.3,5.8,9.3s7,2.7,1.2,13.6c13.5,10.8,2.6,21.4,2.5,21.4c-0.1-0.1,7.2,8.7,0.6,18.8c2,16-6.1,20-6.1,20   s2.1,10.3-6.9,13.3c-0.2,12.2-11.6,13.6-11.6,13.6s3,5.3-8.3,10.8c-0.4,8.1-12.3,8.8-12.3,8.8s-1.1,14.9-16.2,10.9   c-3.7,12-21.4,8.4-21.7,8.2C288.6,356.1,285.6,330.6,285.6,330.5L285.6,330.5z"/>
    <g><path class="st2" d="M218.8,359.8h-0.4c-0.4,0-9.8-0.1-16.9-7.7c0,0,0,0,0,0c-5.3,0-9.3-1.4-11.5-4c-2.2-2.6-1.9-5.8-1.8-7.1    c-0.2,0.1-0.5,0.1-0.9,0.1c-2.2,0-5.2-1.3-7.1-7.1c-6.5,1.2-10.5-1.6-10.9-7.5c-2.8-1.4-4.1-3.8-3.4-6.5c-3.4,0.2-6-0.7-7.7-2.7    c-2.9-3.1-2.6-7.8-2.5-8c-2.1-0.5-3.3-2.6-3.1-5.2c-0.1,0-0.2,0-0.3-0.1c-1.6-0.3-4.9-1-6.6-3.9c-1.3-2.4-1.2-5.8,0.5-10.2    c-3.1-2-4.9-4.3-5.3-6.8c-0.4-2.7,0.9-4.8,1.5-5.7c-1.6-0.9-6.3-4-6.6-8.2c-0.2-2.4,1-4.7,3.7-6.9c-6.4-9.7-1.1-15.4,0.6-16.9    c-1.2-1.4-4.8-5.9-4.4-10.9c0.3-3,1.9-5.6,5-7.8c-1.7-14.1,5.8-19.1,7.7-20.1c-0.7-2.4-3.6-13.9,9.2-19    c0.5-11.7,8.4-13.5,10.3-13.8c0.3-2.1,2.2-10.6,16-9.7c2.1-8.3,10.9-8,13-7.7c0.6-1.6,3.3-7.4,10.6-7.4c2.1,0,4.4,0.5,6.8,1.4    c3.8-7.1,8.5-8.6,11.7-8.6c3.7,0,6.4,1.8,6.6,1.9c-0.2-0.2,6.2-4.2,9.7-3.2c1.4-2.2,3.3-3.2,5.8-3.2c2.8,0,5.9,1.3,8.9,2.6    c1.8,0.8,3.5,1.5,5,1.9c0-0.1,0.4-0.3,0.9-0.6c1.7-0.9,4.6-2.4,7.6-2.4c2.7,0,5.1,1.2,7.1,3.5c1.5-0.9,3.1-1.4,4.8-1.4    c5,0,8.8,4.3,9.8,5.5c0.8-0.3,2.8-1.1,5.2-1.1c3.4,0,8.1,1.5,10.9,8.5c1-0.4,2.4-0.5,3.7-0.5c6.5,0,11.2,1.6,13.8,4.9    c2.4,3,2.4,6.5,2.2,8c2.2-0.4,9-1.2,12.5,3.2c2,2.4,2.5,6,1.5,10.7c5.8,0.5,10,2.3,12.4,5.3c2.7,3.4,2.2,7,2.1,7.1    c0.4-0.2,9.8,7.2,6.2,14.3c2.4,0.3,4.1,1.2,5.1,2.7c1.6,2.4,0.8,5.6,0.5,6.8c0.7,0.4,2.2,1.4,2.9,3.4c1,2.7,0.4,6.2-1.7,10.3    c7.3,6,7.3,12.1,5.9,16.1c-0.8,2.5-2.4,4.6-3.3,5.5c1.4,1.9,6.3,10,0.4,19c2.1,15.5-5.7,19.9-6.2,20.2c0.4,0.1,2.1,10.4-7,13.3    c0.1,10.4-8.7,13-11.1,13.5c0.2,0.6,0.3,1.7-0.1,3c-0.9,2.8-3.8,5.5-8.7,7.9c-0.2,7.2-9.9,8.6-12.1,8.8    c-0.3,2.1-2.2,11.7-11.9,11.7c-1.4,0-2.9-0.2-4.5-0.6c-2,5.7-7.5,8.8-15.8,8.8c-3.4,0-6.2-0.6-6.5-0.7c-0.7-0.4-3.6-26-3.6-26.2    c0.4-0.7,7.9-8.5,15.9-8.5c0.6,0,1.3,0.1,1.9,0.2c2.5-8.6,10.3-10.4,12.3-10.7c0-2.2,0.7-11.4,12-13.6c0-7.2,7.3-13.3,7.8-13.7    l0,0c-0.2,0-1.5-11.2,6.1-14.3c-1.9-3.9-3-9.6,1.6-15.9c0,0,0,0,0,0c0.1,0-2-3.6-3.1-7.8c-1.5-5.3-0.8-9.1,1.9-11.1    c-6.2-5.6-5.4-11.8-5-13.5c-1-0.4-3.4-1.5-4.8-4c-1.3-2.2-1.4-5-0.6-8.2c-6-1.5-7.8-10-8.1-12.2c-2.1,0.3-10.5,1-12-7.1    c-4.2,0.5-6.9-1.7-7.9-6.1c-1.3,0.6-3.3,0.8-5,0.8c-4.3,0-9.7-1.3-11.6-7.2c-1,0.4-1.9,0.6-2.8,0.6c-2.7,0-4.3-2-4.8-2.9    c-0.8,0.3-2.4,0.9-4.4,0.9c-2.3,0-5.5-0.8-7.9-4.4c-2.6,1.5-5.1,2.3-7.5,2.3c-3.7,0-6-1.8-6.8-2.6c-1.4,0.9-6.7,4-11.2,4    c-2.1,0-3.7-0.7-4.8-2.1c-6.4,6.1-11.7,4.5-13.2,3.9c-1,1.6-5.1,7.4-11.5,7.4c-0.8,0-1.6-0.1-2.5-0.3c-2,7.5-9.8,8.7-11.8,8.9    c0,1.9-0.9,8.1-11.4,9.9c-1,7.8-5.9,10.1-7.4,10.6c0,1.8-0.1,8.9-4.9,11.7c1.5,4.6-2.2,9.7-3.2,11c1,1.5,4.4,7.7-1.7,14.5    c1.2,0.5,2.1,1.3,2.7,2.5c1.9,3.9-0.3,10.2-1,12c1.2,0.6,4.6,2.7,5.5,6.1c0.5,2.1,0,4.4-1.6,6.7c5.6,2.1,5.2,6.4,4.9,9.6    c-0.1,0.7-0.1,1.4-0.1,2.1c0.7-0.1,1.4,0.2,2.2,0.5c3.4,1.1,6,2,4.5,9.4c4.9,0.6,7.8,2.1,8.7,4.3c0.8,2-0.2,4-0.9,5.1    c1.1,0.2,3,0.7,3.8,2.1c0.5,0.9,0.6,2,0.1,3.3c10.1,0.3,12.8,7,13.4,8.9c1.1-0.3,4-0.9,6.8-0.9c3.4,0,5.4,0.9,6,2.7    c1.5,4.4-4.6,32.7-4.9,33.9L218.8,359.8L218.8,359.8z M188.6,340.1l0.8,0.3l-0.1,0.6c-0.1,1-0.6,4.1,1.5,6.6    c2,2.4,5.8,3.6,11.1,3.8c6.3,6.6,14.2,7.4,16.1,7.5c2.2-10.2,5.9-29.6,4.8-32.9c-0.6-1.7-3.1-2-5.1-2c-3.3,0-7,0.9-7,1l-0.5,0.1    l-0.1-0.5c-0.1-0.3-1.8-8.6-12.8-8.6h-0.8l-0.1-0.7c0.6-1.3,0.7-2.3,0.3-3c-0.9-1.6-3.8-1.7-3.8-1.7l-1,0l0.7-0.8    c0,0,2.1-2.5,1.2-4.8c-0.8-1.9-3.7-3.3-8.4-3.8l-0.5-0.1l0.1-0.5c1.5-7.1-0.5-7.7-3.8-8.8c-0.8-0.3-1.7-0.6-2.6-1    c-0.3-1.1-0.2-1.8-0.2-2.6c0.3-3.3,0.7-7-4.8-8.8l-0.7-0.2l0.4-0.6c1.7-2.3,2.3-4.4,1.8-6.4c-0.9-3.7-5.3-5.7-5.4-5.7l-0.4-0.2    l0.2-0.4c0-0.1,3.1-7.6,1.2-11.6c-0.6-1.2-1.5-1.9-2.8-2.2l-0.8-0.2l0.6-0.6c7.2-7.4,2-14,2-14.1l-0.3-0.3l0.3-0.3    c0-0.1,5-6,3.1-10.7l-0.2-0.4l0.4-0.2c5.3-2.7,4.8-11.2,4.8-11.3l0-0.4l0.4-0.1c0.2-0.1,6-1.6,7.4-10.4c11.7-2.4,11-9.4,10.9-9.7    l-0.1-0.5l0.6,0c0.4,0,9.6-0.3,11.5-8.6l0.1-0.5l0.5,0.1c0.9,0.3,1.8,0.4,2.7,0.4c6.6,0,10.8-7.2,10.8-7.3l0.2-0.4l0.4,0.2    c0,0,5.8,3.2,12.9-4l0.4-0.4l0.3,0.5c0.9,1.4,2.3,2.1,4.4,2.1c4.8,0,10.9-4,11-4.1l0.4-0.2l0.3,0.3c0,0,2.3,2.6,6.3,2.6    c2.3,0,4.8-0.8,7.3-2.4l0.4-0.3l0.3,0.4c1.8,2.9,4.3,4.3,7.3,4.3c2.4,0,4.3-0.9,4.4-0.9l0.4-0.2l0.2,0.5c0.1,0.1,1.3,2.7,4.2,2.7    c0.9,0,1.9-0.3,2.9-0.8l0.5-0.3l0.2,0.6c1.5,5.8,6.7,7,10.8,7c1.7,0,3.6-0.2,5.3-0.6h0.4l0.3,0.5c0.6,2.7,2.3,6,7.3,5.3l0.5-0.1    l0.1,0.5c0.8,5.7,5.3,6.9,8.9,6.9c1.4,0,2.5-0.2,2.5-0.2l0.5-0.1l0.1,0.5c0,0.1,1.4,10.8,7.9,12l0.6,0.1l-0.2,0.5    c-1,3.2-0.8,5.8,0.3,7.9c1.6,2.8,4.7,3.7,4.7,3.7l0.5,0.1l-0.2,0.5c-0.1,0.3-2.3,7.2,5.1,13.4l0.5,0.5l-0.6,0.4    c-2.8,1.6-3.5,5.1-2.1,10.3c1.1,4.1,3.2,7.8,3.2,7.8l0.2,0.3l-0.4,0.6c-4.5,6.2-3.2,11.8-1.3,15.4l0.3,0.5l-0.6,0.2    c-7.5,2.5-6.1,13.8-6.1,13.9c-0.3,0.5-7.6,6.7-8,13.9c-12.4,2.8-11.7,13.1-11.6,13.5l0,0.5l-0.5,0c-0.4,0-9.5,0.9-12,10.5    l-0.1,0.5l-0.5-0.1c-0.7-0.2-1.4-0.2-2.2-0.2c-7.6,0-15,7.7-15.1,7.8c0.3,1,3.1,24.1,3.5,25.2c0-0.2,2.5,0.4,5.8,0.4    c5.7,0,12.8-1.5,15-8.5l0.1-0.5l0.5,0.1c1.7,0.4,3.2,0.7,4.7,0.7c10,0,10.9-10.7,10.9-11.2l0-0.4l0.4,0c0.1,0,11.4-0.7,11.9-8.3    c6-3.2,7.9-5.9,8.5-7.7c0.5-1.7-0.1-2.8-0.1-2.9l-0.4-0.6l0.7-0.1c0.5-0.1,11-1.6,11.2-13.1c8.8-3.2,7-12.8,7-13.2    c0.3-0.6,8-4.7,6.1-20.1c6.1-9.5,0.2-17.6-0.5-18.5l0.4-0.8c0.2-0.3,3.7-4.1,3.7-9.1c0-4.1-2.2-7.9-6.5-11.4l-0.3-0.3l0.2-0.4    c2.1-4,2.8-7.3,1.8-9.9c-0.8-2.3-2.8-3.1-2.8-3.1l-0.5-0.2l0.2-0.5c0,0,1.4-3.8-0.2-6.3c-0.9-1.4-2.7-2.2-5.2-2.3l-0.9,0l0.5-0.7    c4.2-6.6-5.6-14.1-5.7-14.2c-0.2-0.5,0.3-3.8-2.1-6.8c-2.3-2.9-6.4-4.6-12.3-5l-0.6,0l0.1-0.6c1-4.7,0.6-8.2-1.2-10.5    c-3.8-4.8-12.2-2.7-12.2-2.7l-0.8,0.2l0.2-0.8c0,0,0.9-4.4-1.9-7.9c-2.9-3.6-8.4-5.1-17.1-4.3c-2.6-5.5-6-8.2-10.5-8.2    c-2.8,0-5.1,1.1-5.1,1.1l-0.4,0.2l-0.3-0.3c0-0.1-4-5.4-9.2-5.4c-1.6,0-3.1,0.5-4.6,1.5l-0.4,0.2l-0.3-0.3    c-1.9-2.3-4.1-3.5-6.6-3.5c-2.8,0-5.5,1.4-7.2,2.3c-0.5,0.3-1,0.5-1.3,0.6c-1.9-0.4-3.6-1.1-5.4-1.9c-5.4-2.3-11.1-3.9-13.7,0.5    l-0.2,0.4l-0.4-0.2c-2.8-1.1-9.6,3-9.7,3c-0.6,0-3.2-1.8-6.6-1.8c-4.5,0-8.2,2.8-11.1,8.4l-0.2,0.4l-0.4-0.2    c-2.5-1-4.8-1.5-6.9-1.5c-7.7,0-9.7,6.8-9.8,7.1l-0.1,0.4l-0.4-0.1c-0.1,0-10-1.7-12.8,7.3c-1.2,0.3-1.9,0.3-2.5,0.3    c-12.6,0-13,8.8-13,9.2l0,0.5l-0.5,0c-0.4,0-9.3,0.5-10.1,13.3c-13.6,5.7-9,18.1-8.8,18.6l0.2,0.5l-0.5,0.2    c-0.4,0.2-9.4,4-7.7,19.7c-3,2.5-4.6,4.8-4.8,7.6c-0.5,5.5,4.4,10.5,4.5,10.6l0.4,0.4l-0.5,0.3c-0.3,0.2-7.7,5.5-0.5,16.2l0.3,0.4    l-0.4,0.3c-2.6,2-3.9,4.1-3.7,6.3c0.4,4.4,6.6,7.6,6.6,7.7l0.6,0.3l-0.4,0.5c0,0-2.1,2.4-1.6,5.4c0.4,2.3,2.1,4.5,5.2,6.3l0.4,0.2    l-0.2,0.4c-1.7,4.2-1.9,7.5-0.7,9.7c1.4,2.5,4.3,3.1,5.9,3.4c0.4,0.1,0.7,0.1,0.8,0.2l0.4,0.1l-0.1,0.4c-0.3,1.8,0.3,4.1,2.7,5.1    c0.3,0.5,0,4.9,2.6,7.7c1.7,1.8,4.2,2.6,7.7,2.3l0.8-0.1l-0.3,0.7c-1.3,3.3,1.2,5.3,2.8,6.2l0.4,0.6c0.2,2.6,1.3,6.8,7,6.8    c0.9,0,2-0.1,3.1-0.3l0.4-0.1l0.1,0.4c1.7,5.7,4.3,6.9,6.3,6.9C187.9,340.2,188.4,340.1,188.6,340.1L188.6,340.1z"/></g>
    <path class="st3"
          d="M175.9,187.3c0,0,3.8,3.3,3.1,8.2c-0.7,4.9-3.6,11.8-3,16.9c0.3,2.1,0.2,5.7,0.2,5.7s-3.4-4.9-3.5-10.1   c0-5.2,3.7-10.2,3.7-14C176.5,190.2,175.8,187.2,175.9,187.3L175.9,187.3z"/>
    <g><path class="st2" d="M176.3,218.7c-0.2,0-0.3-0.1-0.4-0.2c-0.1-0.2-3.5-5.1-3.6-10.4c0-2.9,1.1-5.8,2.1-8.3    c0.8-2.1,1.6-4.1,1.6-5.7c0-2.8-0.4-5.2-0.5-6.2c0-0.1,0-0.8,0-0.9c0.5-0.2,0.7-0.2,1.6,0.9c1.1,1.3,2.9,4.1,2.4,7.7    c-0.3,1.8-0.8,3.8-1.3,5.9c-1,3.8-2,7.7-1.7,10.9c0.3,2.1,0.2,5.7,0.2,5.8c0,0.2-0.2,0.4-0.4,0.5    C176.3,218.7,176.3,218.7,176.3,218.7L176.3,218.7z M176.5,188.6c0.3,1.3,0.5,3.3,0.5,5.5c0,1.9-0.8,3.9-1.7,6.1    c-1,2.5-2.1,5.2-2,7.9c0,3.3,1.5,6.6,2.5,8.4c0-1.2,0-2.8-0.2-3.9c-0.4-3.4,0.7-7.4,1.7-11.3c0.5-2.1,1.1-4,1.3-5.8    C179,192.3,177.5,189.8,176.5,188.6L176.5,188.6z"/></g>
    <path class="st3"
          d="M174,188.7c0,0-5,4.7-5.6,9.3c-0.5,2.4-0.6,13.4-0.7,18.4c-0.1,1.5-0.7,7.5-0.9,9.6c-0.1,2.2,3.7-3.7,3.9-8.5   c-0.1-4.9-0.1-15.3,0.4-16.9c0.4-2,0.3-4.2,1-6.2C173,191.6,174.1,188.8,174,188.7L174,188.7z"/>
    <g><path class="st2" d="M167,227L167,227c-0.1,0-0.4-0.1-0.5-0.2c-0.1-0.1-0.2-0.6-0.2-0.8c0.1-1.3,0.3-3.9,0.5-6.1    c0.2-1.5,0.3-2.9,0.3-3.5c0.1-5.9,0.3-16.1,0.7-18.4c0.7-4.7,5.6-9.4,5.8-9.6c0.2-0.2,0.5-0.2,0.7,0c0.2,0.2,0.2,0.2-0.5,2.5    l-1.3,3.7c-0.4,1.1-0.5,2.4-0.6,3.6c-0.1,0.9-0.2,1.8-0.4,2.6c-0.4,1.4-0.5,10.9-0.4,16.8C171,221.4,168.3,227,167,227L167,227z     M172.8,190.7c-1.5,1.7-3.5,4.6-3.9,7.4c-0.3,1.7-0.6,8.3-0.7,18.3c0,0.6-0.2,2-0.3,3.6c-0.2,1.9-0.4,4.2-0.5,5.5    c0.9-1.3,2.7-4.8,2.8-8c-0.1-3.7-0.2-15.2,0.4-17c0.2-0.8,0.3-1.6,0.3-2.5c0.1-1.3,0.3-2.6,0.7-3.8L172.8,190.7L172.8,190.7z"/></g>
    <path class="st4"
          d="M283.3,173.2c0,0,6.4-3,8.3-8.5c1.9-5.5-5.6-5.6-6.5-3.8c-1,1.8,0.8,6.1,0.4,7.3   C284.9,169.4,282.3,172.2,283.3,173.2L283.3,173.2z"/>
    <g><path class="st5" d="M283.2,173.6l-0.1-0.1c-0.8-0.9,0.3-2.6,1.2-4c0.3-0.5,0.7-1,0.8-1.3c0.2-0.4,0-1.5-0.3-2.6    c-0.3-1.7-0.7-3.6-0.1-4.7c0.8-1.5,5.4-1.4,6.7,0.4c0.7,0.9,0.8,2.1,0.3,3.6c-1.9,5.6-8.1,8.5-8.4,8.7L283.2,173.6L283.2,173.6z     M287.8,160.1c-1.2,0-2.3,0.4-2.6,0.9c-0.5,0.9-0.2,2.9,0.1,4.4c0.3,1.3,0.5,2.3,0.2,2.9c-0.2,0.4-0.5,0.9-0.9,1.4    c-0.7,1.1-1.7,2.5-1.4,3.2c1.1-0.6,6.3-3.4,7.9-8.3c0.4-1.3,0.4-2.4-0.2-3.1C290.5,160.7,289.2,160.1,287.8,160.1L287.8,160.1z"/></g>
    <path class="st4"
          d="M226.2,175.3c0,0,4.2-5.7,3.1-11.5c-1.1-5.7-7.6-2.2-7.6-0.2c0,2,3.7,5,3.9,6.2   C225.7,171.1,224.8,174.8,226.2,175.3L226.2,175.3z"/>
    <g><path class="st5" d="M226.3,175.6l-0.2-0.1c-1.2-0.4-1-2.4-0.9-4.1c0.1-0.6,0.1-1.2,0.1-1.6c-0.1-0.4-0.8-1.3-1.5-2.1    c-1.1-1.3-2.4-2.8-2.4-4.1c0-1.3,2.4-3.2,4.7-3.2c1,0,2.9,0.4,3.4,3.3c1.1,5.8-3,11.4-3.1,11.7L226.3,175.6L226.3,175.6z     M226.1,161c-2.1,0-4.2,1.7-4.2,2.7c0,1.1,1.3,2.6,2.3,3.8c0.9,1,1.5,1.8,1.6,2.4c0,0.4,0,1-0.1,1.7c-0.1,1.3-0.3,3,0.3,3.4    c0.7-1,3.9-6.1,2.9-11.1C228.6,161.5,227.2,161,226.1,161L226.1,161z"/></g>
    <path class="st4"
          d="M214.9,178.7c0,0,4.2-5.7,3.1-11.5c-1.1-5.7-7.6-2.2-7.6-0.2c0,2,3.7,5,3.9,6.2   C214.4,174.5,213.5,178.2,214.9,178.7L214.9,178.7z"/>
    <g><path class="st5" d="M215,179l-0.2-0.1c-1.2-0.4-1-2.4-0.9-4.1c0.1-0.6,0.1-1.2,0.1-1.6c-0.1-0.4-0.8-1.3-1.5-2.1    c-1.1-1.3-2.4-2.8-2.4-4.1c0-1.3,2.4-3.2,4.7-3.2c1,0,2.9,0.4,3.4,3.3c1.1,5.8-3,11.4-3.1,11.7L215,179L215,179z M214.8,164.4    c-2.1,0-4.2,1.7-4.2,2.7c0,1.1,1.3,2.6,2.3,3.8c0.9,1,1.5,1.8,1.6,2.4c0,0.4,0,1-0.1,1.7c-0.1,1.3-0.3,3,0.3,3.4    c0.7-1,3.9-6.1,2.9-11.1C217.3,164.9,215.9,164.4,214.8,164.4L214.8,164.4z"/></g>
    <path class="st4"
          d="M202.4,182.5c0,0,4.2-5.7,3.1-11.5c-1.1-5.7-7.6-2.2-7.6-0.2c0,2,3.7,5,3.9,6.2   C201.9,178.4,201,182.1,202.4,182.5L202.4,182.5z"/>
    <g><path class="st5" d="M202.5,182.8l-0.2-0.1c-1.2-0.4-1-2.4-0.9-4.1c0.1-0.6,0.1-1.2,0.1-1.6c-0.1-0.4-0.8-1.3-1.5-2.1    c-1.1-1.3-2.4-2.8-2.4-4.1c0-1.3,2.4-3.2,4.7-3.2c1,0,2.9,0.4,3.4,3.3c1.1,5.8-3,11.4-3.1,11.7L202.5,182.8L202.5,182.8z     M202.3,168.2c-2.1,0-4.2,1.7-4.2,2.7c0,1.1,1.3,2.6,2.3,3.8c0.9,1,1.5,1.8,1.6,2.4c0,0.4,0,1-0.1,1.7c-0.1,1.3-0.3,3,0.3,3.4    c0.7-1,3.9-6.1,2.9-11.1C204.8,168.7,203.4,168.2,202.3,168.2L202.3,168.2z"/></g>
    <path class="st4"
          d="M193.5,191.4c0,0,4.2-5.7,3.1-11.5c-1.1-5.7-7.6-2.2-7.6-0.2c0,2,3.7,5,3.9,6.2   C193.1,187.2,192.1,190.9,193.5,191.4L193.5,191.4z"/>
    <g><path class="st5" d="M193.6,191.7l-0.2-0.1c-1.2-0.4-1-2.4-0.9-4.1c0.1-0.6,0.1-1.2,0.1-1.6c-0.1-0.4-0.8-1.3-1.5-2.1    c-1.1-1.3-2.4-2.8-2.4-4.1c0-1.3,2.4-3.2,4.7-3.2c1,0,2.9,0.4,3.4,3.3c1.1,5.8-3,11.4-3.1,11.7L193.6,191.7L193.6,191.7z     M193.5,177.1c-2.1,0-4.2,1.7-4.2,2.7c0,1.1,1.3,2.6,2.3,3.8c0.9,1,1.5,1.8,1.6,2.4c0,0.4,0,1-0.1,1.7c-0.1,1.3-0.3,3,0.3,3.4    c0.7-1,3.9-6.1,2.9-11.1C195.9,177.6,194.5,177.1,193.5,177.1L193.5,177.1z"/></g>
    <path class="st4"
          d="M184.2,199.9c0,0,4.2-5.7,3.1-11.5c-1.1-5.7-7.6-2.2-7.6-0.2c0,2,3.7,5,3.9,6.2   C183.8,195.7,182.9,199.4,184.2,199.9L184.2,199.9z"/>
    <g><path class="st5" d="M184.3,200.2l-0.2-0.1c-1.2-0.4-1-2.4-0.9-4.1c0.1-0.6,0.1-1.2,0.1-1.5c-0.1-0.4-0.8-1.3-1.5-2.1    c-1.1-1.3-2.4-2.8-2.4-4.1c0-1.3,2.4-3.2,4.7-3.2c1,0,2.9,0.4,3.4,3.3c1.1,5.8-3,11.4-3.1,11.7L184.3,200.2L184.3,200.2z     M184.2,185.6c-2.1,0-4.2,1.7-4.2,2.7c0,1.1,1.3,2.6,2.3,3.8c0.8,1,1.5,1.8,1.6,2.4c0,0.4,0,1-0.1,1.7c-0.1,1.3-0.3,3,0.3,3.5    c0.7-1,3.9-6.1,2.9-11.1C186.6,186.1,185.3,185.6,184.2,185.6L184.2,185.6z"/></g>
    <path class="st4"
          d="M205.6,150.3c0,0-5.6,4.4-6.1,10.2c-0.5,5.8,6.7,4.1,7.3,2.2c0.5-1.9-2.2-5.8-2.1-7   C204.9,154.4,206.8,151.1,205.6,150.3L205.6,150.3z"/>
    <g><path class="st5" d="M203,164.7L203,164.7c-0.8,0-2-0.2-2.8-1.1c-0.7-0.7-1-1.8-0.9-3.2c0.5-5.8,5.9-10.2,6.2-10.4    c1.3,0.7,0.6,2.6,0,4.1c-0.2,0.6-0.4,1.2-0.5,1.5c-0.1,0.4,0.4,1.5,0.9,2.5c0.7,1.6,1.5,3.4,1.2,4.6    C206.8,163.8,204.8,164.7,203,164.7L203,164.7z M205.5,150.5c0.1,0.2-5.2,4.5-5.7,10c-0.1,1.2,0.1,2.2,0.7,2.8    c0.7,0.8,1.7,0.9,2.4,0.9c1.8,0,3.4-0.9,3.6-1.6c0.3-1-0.5-2.8-1.2-4.2c-0.5-1.2-1-2.1-0.9-2.7c0.1-0.4,0.3-1,0.5-1.6    C205.5,152.7,206.1,151,205.5,150.5L205.5,150.5z"/></g>
    <path class="st4"
          d="M224.2,144.5c0,0-5.6,4.4-6.1,10.2c-0.5,5.8,6.7,4.1,7.3,2.2c0.5-1.9-2.2-5.8-2.1-7   C223.5,148.7,225.4,145.4,224.2,144.5L224.2,144.5z"/>
    <g><path class="st5" d="M221.5,159L221.5,159c-0.8,0-2-0.2-2.8-1.1c-0.7-0.8-1-1.8-0.9-3.2c0.5-5.8,5.9-10.2,6.2-10.4    c1.3,0.7,0.6,2.6,0,4.1c-0.2,0.6-0.4,1.2-0.5,1.5c-0.1,0.4,0.4,1.5,0.9,2.4c0.7,1.6,1.6,3.4,1.2,4.6    C225.3,158.1,223.4,159,221.5,159L221.5,159z M224,144.8c0.1,0.2-5.2,4.5-5.7,10c-0.1,1.2,0.1,2.2,0.7,2.8    c0.7,0.8,1.7,0.9,2.4,0.9l0,0c1.8,0,3.4-0.9,3.6-1.6c0.3-1-0.5-2.8-1.2-4.2c-0.5-1.2-1-2.1-0.9-2.7c0.1-0.4,0.3-1,0.5-1.6    C224.1,147,224.7,145.2,224,144.8L224,144.8z"/></g>
    <path class="st4"
          d="M155,194.7c0,0,1.2,7,6,10.2c4.9,3.2,6.9-3.9,5.4-5.3c-1.4-1.4-6.1-0.8-7.1-1.6   C158.3,197.3,156.3,194,155,194.7L155,194.7z"/>
    <g><path class="st5" d="M163.3,206L163.3,206c-0.8,0-1.6-0.3-2.5-0.9c-4.9-3.2-6.1-10.1-6.1-10.4l-0.1-0.3l0.7-0.1c1,0,2,1.2,3,2.3    c0.4,0.5,0.8,0.9,1.1,1.1c0.4,0.3,1.5,0.4,2.6,0.4c1.7,0.1,3.7,0.3,4.6,1.1c0.7,0.7,0.7,2.4,0.1,3.9C166,205,164.8,206,163.3,206    L163.3,206z M155.3,194.9c-0.1,0,1.1,6.8,5.8,9.8c2.7,1.8,4.7-0.6,5-1.5c0.5-1.3,0.6-2.9,0-3.4c-0.8-0.8-2.7-0.9-4.3-1    c-1.3-0.1-2.4-0.2-2.8-0.5c-0.3-0.2-0.7-0.7-1.2-1.2C157.2,196.1,156.1,194.9,155.3,194.9L155.3,194.9L155.3,194.9z"/></g>
    <path class="st4"
          d="M145.7,218.4c0,0,0.1,7.1,4.3,11c4.3,4,7.4-2.8,6.2-4.4c-1.2-1.6-5.9-1.8-6.8-2.7   C148.5,221.5,147.1,218,145.7,218.4L145.7,218.4z"/>
    <g><path class="st5" d="M152.7,231L152.7,231c-0.9,0-1.9-0.4-2.8-1.3c-4.3-4-4.4-10.9-4.4-11.2c1.6-0.3,2.5,1.2,3.3,2.5    c0.3,0.5,0.6,1.1,0.9,1.3c0.3,0.3,1.4,0.6,2.5,0.8c1.7,0.4,3.6,0.8,4.4,1.9c0.5,0.7,0.4,2.1-0.3,3.5C155.3,230,154,231,152.7,231    L152.7,231z M145.9,218.7c0,0.1,0.2,6.9,4.3,10.6c0.8,0.8,1.7,1.2,2.5,1.2l0,0c1.2,0,2.3-0.9,3-2.3c0.6-1.2,0.7-2.4,0.3-2.9    c-0.6-0.9-2.5-1.3-4.1-1.7c-1.3-0.3-2.3-0.5-2.7-1c-0.3-0.3-0.6-0.8-1-1.4C147.6,220.1,146.7,218.7,145.9,218.7L145.9,218.7z"/></g>
    <path class="st4"
          d="M167.1,245c0,0-2.5-6.6-7.9-8.8c-5.4-2.2-6,5.2-4.3,6.3c1.7,1.1,6.2-0.4,7.3,0.1   C163.3,243.1,165.9,245.9,167.1,245L167.1,245z"/>
    <g><path class="st5" d="M166.5,245.4c-0.9,0-2.1-0.9-3.1-1.7c-0.5-0.4-1-0.8-1.3-0.9c-0.3-0.2-1.4-0.1-2.6,0.1    c-1.8,0.2-3.8,0.3-4.7-0.2c-0.9-0.6-1.2-2.6-0.7-4.4c0.7-2.4,2.7-3.4,5.2-2.3c5.4,2.2,8,8.7,8.1,9l0.1,0.3L166.5,245.4    L166.5,245.4z M161.4,242.2c0.4,0,0.7,0,0.9,0.1c0.4,0.2,0.8,0.5,1.4,1c0.9,0.7,2.1,1.6,2.8,1.6v0.3l0.4-0.4l0,0    c-0.2,0-2.7-6.3-7.9-8.4c-2.8-1.1-4.2,0.8-4.5,2c-0.5,1.7-0.1,3.4,0.5,3.8c0.8,0.5,2.7,0.4,4.4,0.1    C160.2,242.2,160.9,242.2,161.4,242.2L161.4,242.2z"/></g>
    <path class="st4"
          d="M162.6,233.5c0,0,4.3-5.6,3.3-11.4c-1-5.7-7.5-2.3-7.6-0.3c0,2,3.6,5,3.8,6.3   C162.2,229.3,161.2,233,162.6,233.5L162.6,233.5z"/>
    <g><path class="st5" d="M162.7,233.8l-0.2-0.1c-1.2-0.4-0.9-2.5-0.8-4.1c0.1-0.6,0.1-1.2,0.1-1.5c0-0.4-0.8-1.3-1.4-2.2    c-1.1-1.3-2.3-2.9-2.3-4.1c0-1.4,2.5-3.1,4.7-3.1c1.1,0,2.9,0.4,3.4,3.4c1,5.8-3.2,11.3-3.4,11.6L162.7,233.8L162.7,233.8z     M162.8,219.2c-2.1,0-4.1,1.7-4.1,2.6c0,1.1,1.2,2.6,2.2,3.8c0.8,1,1.5,1.8,1.6,2.4c0,0.4,0,1-0.1,1.7c-0.1,1.3-0.3,3,0.3,3.5    c0.7-1,4-6,3.1-11C165.3,219.7,163.9,219.2,162.8,219.2L162.8,219.2z"/></g>
    <path class="st4"
          d="M296.4,179c0,0,6.4-3,8.3-8.5c1.8-5.5-5.6-5.6-6.6-3.8c-1,1.8,0.8,6.1,0.4,7.3   C298,175.1,295.4,177.9,296.4,179L296.4,179z"/>
    <g><path class="st5" d="M296.3,179.3l-0.1-0.1c-0.8-0.9,0.3-2.5,1.2-4c0.4-0.5,0.7-1,0.8-1.4c0.2-0.4,0-1.5-0.3-2.6    c-0.3-1.7-0.7-3.6-0.1-4.7c0.8-1.5,5.4-1.4,6.8,0.4c0.7,0.9,0.8,2.1,0.3,3.6c-1.9,5.6-8.2,8.5-8.4,8.7L296.3,179.3L296.3,179.3z     M300.9,165.9c-1.2,0-2.3,0.4-2.6,0.9c-0.5,0.9-0.2,2.9,0.2,4.4c0.3,1.3,0.5,2.3,0.2,2.9c-0.2,0.4-0.5,0.9-0.9,1.4    c-0.7,1.1-1.7,2.5-1.4,3.2c1.1-0.6,6.3-3.4,7.9-8.3c0.4-1.3,0.4-2.4-0.2-3.1C303.6,166.4,302.4,165.9,300.9,165.9L300.9,165.9z"/></g>
    <path class="st4"
          d="M315.9,188.7c0,0,3.8-6,2.3-11.6c-1.5-5.6-7.7-1.7-7.6,0.3c0.1,2,4,4.7,4.3,5.9   C315.1,184.5,314.5,188.3,315.9,188.7L315.9,188.7z"/>
    <g><path class="st5" d="M316,189l-0.2,0c-1.2-0.3-1.2-2.4-1.1-4c0-0.6,0-1.2,0-1.5c-0.1-0.4-0.9-1.2-1.6-2c-1.2-1.3-2.6-2.7-2.7-3.9    c0-0.5,0.3-1.1,0.8-1.7c0.8-0.9,2.4-1.8,3.9-1.8c1,0,2.7,0.4,3.4,3.1c1.5,5.7-2.2,11.6-2.4,11.8L316,189L316,189z M315.1,174.4    c-1.4,0-2.7,0.8-3.5,1.6c-0.5,0.5-0.7,1-0.7,1.3c0.1,1.1,1.4,2.5,2.5,3.6c0.9,0.9,1.6,1.7,1.8,2.3c0.1,0.4,0.1,1,0,1.6    c0,1.3-0.1,3,0.6,3.4c0.6-1.1,3.5-6.3,2.2-11.2C317.5,175.3,316.5,174.4,315.1,174.4L315.1,174.4z"/></g>
    <path class="st4"
          d="M369,243.9c0,0-2.5-6.6-7.9-8.8c-5.4-2.2-5.9,5.2-4.3,6.3c1.7,1.1,6.2-0.4,7.3,0.1   C365.3,242,367.9,244.8,369,243.9L369,243.9z"/>
    <g><path class="st5" d="M368.5,244.3c-0.9,0-2.1-0.9-3.2-1.7c-0.5-0.4-1-0.8-1.3-0.9c-0.3-0.2-1.4-0.1-2.6,0.1    c-1.8,0.2-3.8,0.4-4.7-0.2c-0.9-0.6-1.2-2.7-0.7-4.4c0.7-2.4,2.7-3.3,5.2-2.3c5.4,2.2,8,8.7,8.1,9l0.1,0.3L368.5,244.3    L368.5,244.3z M363.4,241c0.4,0,0.7,0,0.9,0.1c0.4,0.2,0.8,0.5,1.4,1c0.9,0.7,2.1,1.6,2.8,1.6v0.3l0.4-0.4l0,0    c-0.2,0-2.7-6.3-7.9-8.4c-2.8-1.1-4.2,0.8-4.5,2c-0.5,1.7-0.1,3.4,0.5,3.8c0.8,0.5,2.7,0.4,4.4,0.1    C362.1,241.1,362.8,241,363.4,241L363.4,241z"/></g>
    <path class="st4"
          d="M343,248c0,0,0.1-7.1,4.5-11c4.3-3.9,7.3,2.9,6.1,4.5c-1.2,1.6-6,1.7-6.8,2.6C345.9,244.9,344.4,248.4,343,248   L343,248z"/>
    <g><path class="st5" d="M343.3,248.3l-0.3-0.1c-0.2-0.5,0-7.5,4.4-11.4c2.3-2.1,4.9-1.4,6.2,1.3c0.7,1.4,0.8,2.8,0.3,3.5    c-0.8,1-2.7,1.4-4.4,1.8c-1.1,0.2-2.2,0.5-2.5,0.8c-0.2,0.2-0.6,0.8-0.9,1.3C345.3,246.8,344.3,248.3,343.3,248.3L343.3,248.3z     M350.1,236c-0.8,0-1.6,0.4-2.4,1.1c-3.8,3.4-4.3,9.4-4.4,10.6c0.7,0,1.7-1.5,2.3-2.5c0.4-0.6,0.7-1.1,1-1.4    c0.4-0.4,1.4-0.7,2.7-0.9c1.5-0.3,3.4-0.8,4.1-1.6c0.4-0.5,0.2-1.8-0.3-3C352.4,236.9,351.3,236,350.1,236L350.1,236z"/></g>
    <path class="st4"
          d="M338.9,172.8c0,0-6.6-2.5-11.9,0c-5.2,2.6-0.1,7.9,1.9,7.4c1.9-0.5,3.8-4.9,5-5.4   C335,174.3,338.8,174.3,338.9,172.8L338.9,172.8z"/>
    <g><path class="st5" d="M328.6,180.5c-1.4,0-3.5-1.8-4-3.9c-0.2-1-0.2-2.8,2.3-4c1.6-0.8,3.5-1.2,5.6-1.2c3.5,0,6.4,1.1,6.5,1.1    c0.1,1.5-1.9,1.9-3.5,2.2c-0.6,0.1-1.2,0.2-1.5,0.3c-0.4,0.2-1,1.1-1.7,2c-1,1.4-2.1,3.1-3.3,3.4L328.6,180.5L328.6,180.5z     M332.5,171.9c-2,0-3.8,0.4-5.3,1.1c-1.7,0.8-2.4,2-2.1,3.4c0.4,1.9,2.5,3.5,3.5,3.5v0.3l0.2-0.3c1-0.3,2.1-1.9,3-3.2    c0.7-1.1,1.3-1.9,1.9-2.2c0.4-0.2,0.9-0.3,1.6-0.4c1.3-0.2,3.2-0.6,3.3-1.4C338.4,173,335.7,171.9,332.5,171.9L332.5,171.9z"/></g>
    <path class="st4"
          d="M323.7,160.1c0,0-6.6-2.5-11.9,0c-5.2,2.6-0.1,7.9,1.9,7.4c1.9-0.5,3.8-4.9,5-5.4   C319.8,161.6,323.6,161.6,323.7,160.1L323.7,160.1z"/>
    <g><path class="st5" d="M313.4,167.8c-1.4,0-3.5-1.8-4-3.9c-0.2-1-0.2-2.8,2.3-4c1.6-0.8,3.5-1.2,5.6-1.2c3.5,0,6.4,1.1,6.5,1.1    c0.1,1.5-1.9,1.9-3.5,2.2c-0.6,0.1-1.2,0.2-1.5,0.4c-0.4,0.2-1.1,1.1-1.7,2c-1,1.4-2.1,3.1-3.3,3.4L313.4,167.8L313.4,167.8z     M317.3,159.2c-2,0-3.8,0.4-5.3,1.1c-1.7,0.8-2.4,2-2.1,3.4c0.4,1.9,2.5,3.5,3.5,3.5v0.3l0.2-0.3c1-0.3,2.1-1.9,3-3.2    c0.7-1.1,1.3-1.9,1.9-2.2c0.4-0.2,1-0.3,1.6-0.4c1.3-0.3,3.2-0.6,3.3-1.4C323.2,160.2,320.5,159.2,317.3,159.2L317.3,159.2z"/></g>
    <path class="st4"
          d="M301.1,148c0,0-5.6,4.3-6.2,10.1c-0.6,5.8,6.7,4.2,7.2,2.3c0.6-1.9-2.2-5.8-2-7   C300.3,152.1,302.3,148.8,301.1,148L301.1,148z"/>
    <g><path class="st5" d="M298.3,162.4C298.3,162.4,298.3,162.4,298.3,162.4c-0.9,0-2-0.2-2.9-1.1c-0.7-0.8-1-1.8-0.8-3.2    c0.6-5.8,6-10.1,6.3-10.3c1.3,0.7,0.6,2.6,0,4.2c-0.2,0.6-0.4,1.1-0.5,1.5c-0.1,0.4,0.4,1.5,0.8,2.5c0.7,1.6,1.5,3.4,1.1,4.6    C302.1,161.5,300.2,162.4,298.3,162.4L298.3,162.4z M300.9,148.2c0.1,0.2-5.2,4.4-5.8,9.9c-0.1,1.2,0.1,2.2,0.7,2.8    c0.7,0.8,1.7,0.9,2.5,0.9c0,0,0,0,0,0c1.7,0,3.3-0.8,3.5-1.6c0.3-1-0.5-2.8-1.1-4.2c-0.5-1.2-1-2.2-0.9-2.8    c0.1-0.4,0.3-0.9,0.5-1.6C300.9,150.5,301.6,148.7,300.9,148.2L300.9,148.2z"/></g>
    <path class="st4"
          d="M286.3,144.4c0,0-2.6,6.6,0,11.9c2.5,5.3,7.9,0.1,7.4-1.8s-4.9-3.8-5.3-5C287.9,148.4,287.8,144.5,286.3,144.4   L286.3,144.4z"/>
    <g><path class="st5" d="M289.3,158.9L289.3,158.9c-0.9,0-2.3-0.4-3.3-2.4c-2.5-5.3-0.1-11.8,0-12.1c1.5,0,1.8,1.9,2.1,3.5    c0.1,0.6,0.2,1.2,0.3,1.5c0.2,0.4,1.1,1.1,2,1.7c1.4,1,3,2.1,3.4,3.3c0.2,0.6-0.1,1.4-0.8,2.3    C292.4,157.7,290.9,158.9,289.3,158.9L289.3,158.9z M286.3,144.7c0.1,0.1-2.2,6.5,0.2,11.5c1.5,3.2,4.9,1.9,6.2,0.2    c0.5-0.7,0.8-1.4,0.7-1.8c-0.3-1-1.9-2.1-3.1-3c-1.1-0.8-1.9-1.4-2.2-1.9c-0.2-0.4-0.3-1-0.4-1.6    C287.5,146.6,287.2,144.8,286.3,144.7L286.3,144.7z"/></g>
    <path class="st4"
          d="M244.6,169.9c0,0,4.6-5.4,3.9-11.2c-0.7-5.8-7.4-2.7-7.5-0.7c-0.2,2,3.3,5.2,3.4,6.5   C244.4,165.7,243.2,169.3,244.6,169.9L244.6,169.9z"/>
    <g><path class="st5" d="M244.6,170.2l-0.2-0.1c-1.1-0.5-0.8-2.5-0.6-4.1c0.1-0.6,0.2-1.2,0.2-1.6c0-0.5-0.7-1.4-1.3-2.2    c-1-1.4-2.2-3-2.1-4.2c0.1-1.3,2.5-2.9,4.6-2.9c1.1,0,3.1,0.5,3.5,3.6c0.7,5.8-3.8,11.2-4,11.4L244.6,170.2L244.6,170.2z     M245.3,155.6c-1.9,0-4,1.4-4.1,2.4c-0.1,1.1,1.1,2.6,2,3.9c0.8,1.1,1.4,1.9,1.4,2.5c0,0.4-0.1,1-0.2,1.7    c-0.2,1.3-0.5,2.9,0.1,3.4c0.8-1,4.3-5.8,3.7-10.8C247.9,156.2,246.4,155.6,245.3,155.6L245.3,155.6z"/></g>
    <path class="st6"
          d="M269.5,181.5c0,0,11,0.7,11.5,7c0.5,6.3-2.6,10.1-2.6,10.1s1.4,13.6-9.4,17.6c-11.5,1.4-29.6,0.3-29.6,0.3   s-5.3,1.3-7.5-9.7c-2.2-11-2.8-18.7-2.8-18.7s1.1-6.2,8.8-6.5C245.8,181.2,269.4,181.7,269.5,181.5L269.5,181.5z"/>
    <g><path class="st2" d="M254,217.5c-7.8,0-14.5-0.4-14.6-0.4c-2.2,0.1-6.1-0.9-7.9-10.1c-2.1-10.9-2.8-18.7-2.8-18.8    c0-0.2,1.3-6.7,9.3-7.1c4.9-0.2,16-0.2,23.7-0.1l6.2,0c0.8,0,1.3,0,1.4,0c0.6,0,11.5,0.8,12.1,7.4c0.6,6.4-2.6,10.3-2.7,10.5l0,0    c0.1,0,1.3,13.7-9.6,17.8C265.2,217.2,260.1,217.5,254,217.5L254,217.5z M239.1,216.1c1.2,0,7.6,0.4,15,0.4c6,0,11.1-0.2,14.9-0.7    c10.1-3.8,8.9-16.9,8.9-17.1c0.1-0.4,3.1-4.1,2.6-10.1c-0.5-5.8-11-6.5-11.1-6.5c0.3,0,0.3,0-1.5,0l-6.3,0    c-7.6-0.1-18.7-0.2-23.6,0.1c-7.2,0.4-8.3,5.9-8.4,6.1l0,0c0,0,0.6,7.8,2.8,18.6c1.7,8.7,5.4,9.3,6.4,9.3    C239,216.1,239,216.1,239.1,216.1L239.1,216.1z"/></g>
    <g><path class="st2" d="M273,209.4c-0.2,0-0.4-0.2-0.5-0.4c-0.6-3.1,4.8-10,5.4-10.8c0.2-0.2,0.5-0.2,0.7-0.1    c0.2,0.2,0.2,0.5,0.1,0.7c-1.6,2-5.7,7.7-5.2,9.9c0.1,0.3-0.1,0.5-0.4,0.6C273.1,209.4,273.1,209.4,273,209.4L273,209.4z"/></g>
    <path class="st6"
          d="M270.4,215.9c1.5,1.2,2.8,2.6,3.1,7.1c0.3,4.5,0.6,9.1,0.6,9.1l7.7,69.2l6.8,50l0.5,7.8c0,0-1.6,5.7-6.1,6.2   c-3.3,6.9-21.2,8.9-23,8.8c-1.6-0.1-7.3-2.5-10.7-2.1c-3.5,0.3-9.4,2.6-12.1,2.2c-2.7-0.4-8.8-2.5-9.8-6.8   c-7.5-2.4-8.8-8.1-8.8-8.1l8.2-57.9l7.9-73.1c0,0,0.9-9.8,4.8-11.2C243.5,216.5,264.5,217.3,270.4,215.9L270.4,215.9z"/>
    <g><path class="st2" d="M237.8,374.6c-0.3,0-0.5,0-0.7,0c-2.3-0.3-9.1-2.4-10.2-7.2c-7.4-2.1-8.7-7.9-8.8-8.2l8.1-58l7.9-73.1    c0-0.4,1-10.1,5.2-11.6c1.3-0.1,3.7-0.2,6.7-0.2l5.3,0c7.6,0,15.8-0.1,19.1-0.9c2.1,1.5,3.4,3,3.8,7.6l0.6,9.1l7.7,69.1l6.8,50    l0.5,7.8c-0.1,0.4-1.8,6.2-6.6,6.7c-3,6.9-20.6,8.8-22.9,8.8c-0.8,0-1.9-0.3-3.2-0.7c-2.2-0.6-4.9-1.4-7-1.4l-0.6,0    c-1.4,0.1-3.4,0.6-5.2,1.1C241.8,374,239.4,374.6,237.8,374.6L237.8,374.6z M245.9,217.2c-3,0-5.4,0-6.5,0.1    c-2.8,1.1-4.2,8.1-4.4,10.8l-7.9,73.2l-8.2,57.9c0,0.1,1.3,5.3,8.4,7.6c1.4,4.7,7.6,6.5,9.8,6.8l0.6,0c1.5,0,3.8-0.6,6-1.1    c1.9-0.5,3.9-1,5.4-1.1c2.2-0.2,5.5,0.7,8,1.4c1.3,0.4,2.3,0.7,2.9,0.7l0,0c3.2,0,19.5-2.3,22.5-8.5c4.5-0.7,6.1-6,6.1-6.1    l-0.5-7.6l-6.8-50l-7.7-69.2l-0.6-9.1c-0.3-4.2-1.5-5.5-3-6.8c-2.9,0.9-10.8,1-18.9,1L245.9,217.2L245.9,217.2z"/></g>
    <g><polygon class="st2" points="227.8,367.2 226.8,367.1 228.5,316 229.4,316 227.8,367.2   "/></g>
    <g><polygon class="st2" points="282.7,365 278.2,322.8 279.1,322.7 283.7,364.9 282.7,365   "/></g>
    <g><path class="st7" d="M147.2,289.4l-0.2,0.6L147.2,289.4z"/></g>
    <g><path class="st7" d="M359.8,287.5l0.2,0.6L359.8,287.5z"/></g>
    <g><path class="st8" d="M150.2,266.4C150.2,266.4,150.2,266.4,150.2,266.4c-4-0.1-12.2-2.7-12.6-10c-0.2-4.4,0.8-6.3,1.7-8    c0.6-1.2,1.1-2.2,1.3-3.9c0.3-4.4,0.4-24,0.4-24.2c0-0.2,0.1-0.4,0.3-0.5c0.2-0.1,0.4,0,0.6,0.2c0.1,0.2,3.4,4.8,4,7.5    c0.7,3,1.8,8,3.1,9.9c6.7,9.8,10.1,16.2,10.4,19.4c0.1,2-1.1,4.7-3,6.6C155.2,264.8,153.1,266.3,150.2,266.4    C150.2,266.4,150.2,266.4,150.2,266.4L150.2,266.4z M142,221.9c0,4.8-0.1,19.1-0.4,22.7c-0.2,1.9-0.8,3.1-1.4,4.2    c-0.9,1.7-1.8,3.4-1.6,7.5c0.3,6.6,7.9,8.9,11.6,9c2.6-0.1,4.4-1.5,5.5-2.6c1.7-1.7,2.7-4.1,2.7-5.9c-0.2-2.1-2-7-9.9-18.4    c-1.8-2.6-2.8-7.4-3.5-10.4C144.7,226.2,143,223.5,142,221.9L142,221.9z"/></g>
    <g><path class="st8" d="M176.8,190.7L176.8,190.7c-2.9,0-6-1-7.7-2c-2.4-1.5-3.3-3.9-3.7-5.6c-0.6-2.5-0.2-5.3,0.9-7    c1.7-2.3,5.3-4,9.1-5.8c3.3-1.6,6.8-3.2,9.6-5.5c2.1-3,5.1-4.8,7.3-6.1l0.8-0.5c2.7-1.5,6.1-1.7,6.3-1.7    c-1.7,2.7-8.1,10.6-10.9,18.5c-0.8,1.6-0.9,2.8-1,4.1c-0.1,1.9-0.3,4-2.7,7.6C183,189.4,180.3,190.7,176.8,190.7L176.8,190.7z     M199,156.9c-0.7,0.3-3.5,0.7-5.7,1.9l-0.8,0.5c-2.1,1.3-5,3-7.2,6c-2.9,2.3-6.4,4-9.8,5.6c-3.8,1.8-7.3,3.5-8.9,5.6    c-1,1.5-1.3,4.2-0.8,6.6c0.4,1.6,1.3,3.9,3.5,5.3c1.2,0.7,4.2,1.9,7.4,1.9c3.3,0,5.8-1.2,7.5-3.7c2.4-3.5,2.5-5.5,2.6-7.4    c0.1-1.3,0.2-2.6,1-4.2C190.8,167.1,196.9,159.4,199,156.9L199,156.9z"/></g>
    <g><path class="st8" d="M249.9,157.2L249.9,157.2c-6.1,0-9.2-5.7-10-8.7c-0.6-2.8,0.5-5.1,1.4-6.6c1.4-2.2,3.7-3.9,5.6-4.2    c2.8-0.4,6.3,1.1,10.2,2.7c3.4,1.4,7.2,2.9,10.8,3.4c1.7,0.2,3.4,0.2,5,0.3c2.2,0.1,4.1,0.1,5.5,0.5c2.9,0.9,5.5,3.2,5.6,3.3    c-0.6,0.4-1.4,0.4-2.6,0.4c-3.7,0-11.1,0.6-18.3,4.7c-1.6,0.5-2.6,1-3.6,1.6c-1.6,0.9-3.3,1.8-7.8,2.6    C251.1,157.2,250.5,157.2,249.9,157.2L249.9,157.2z M247.9,138.2c-0.3,0-0.6,0-0.8,0.1c-1.8,0.3-3.9,2-5.3,4    c-0.9,1.4-1.9,3.6-1.4,6.2c0.7,2.9,3.7,8.3,9.5,8.3l0,0c0.6,0,1.1,0,1.8-0.2c4.4-0.8,6-1.7,7.6-2.5c1-0.5,2-1.1,3.6-1.6    c9-5.1,18.4-4.8,20.5-4.6c-0.8-0.4-2.9-2-5.2-2.7c-1.3-0.3-3.2-0.4-5.3-0.5c-1.6,0-3.3-0.1-5-0.3c-3.7-0.5-7.6-2.1-10.9-3.5    C253.6,139.5,250.4,138.2,247.9,138.2L247.9,138.2z"/></g>
    <g><path class="st8" d="M367.7,229.8C367.7,229.8,367.7,229.8,367.7,229.8c-2-0.5-3.9-2.9-6.3-5.9c-2.5-3.2-5.6-7.1-9.7-9.9    c-1.3-1.2-2.5-1.5-3.7-1.9c-1.8-0.5-3.8-1.2-6.7-4.4c-4.8-5.3-0.8-12.8,1.9-15.6c2-1.9,4.4-2.3,6.1-2.3c2.7,0,5.4,1,6.8,2.5    c1.8,2.1,2.4,5.8,3.1,10.1c0.6,3.6,1.3,7.6,2.8,11c2.7,3.1,3.8,6.7,4.6,9c0.2,0.9,0.4,1.6,0.6,2.2c0.6,2.1,1.1,3.8,0.7,4.9    C367.9,229.7,367.8,229.8,367.7,229.8L367.7,229.8z M349.3,190.4c-1.6,0-3.9,0.4-5.7,2.1c-2.6,2.7-6.4,9.9-1.9,14.9    c2.8,3.1,4.7,3.7,6.5,4.3c1.3,0.4,2.4,0.8,3.8,2c4.2,2.8,7.3,6.8,9.8,10c2.2,2.8,4,5.1,5.7,5.6c0.2-0.9-0.2-2.5-0.8-4.3    c-0.2-0.7-0.4-1.4-0.6-2.1c-0.8-2.4-1.9-5.9-4.5-9c-1.6-3.5-2.3-7.6-2.9-11.2c-0.7-4-1.4-7.9-3-9.9    C354.5,191.3,351.8,190.4,349.3,190.4L349.3,190.4z"/></g>
    <g><path class="st8" d="M364.9,293.1c-0.1,0-0.1,0-0.2,0c-2.1-1.6-2.4-5-2.7-9c-0.3-4-0.7-8.6-2.9-12.8c-0.6-1.6-1.3-2.6-2-3.6    c-1.2-1.6-2.4-3.2-3.4-7.6c-1.6-7.1,5-11.1,8.7-12.2c5.1-1.3,10.1,3.3,10.9,6.6c0.8,4-0.5,7.9-1.9,11.9c-1,3-2.1,6-2.4,9.3    c0,1-0.3,2.6-0.5,4.3c-0.3,2.4-0.6,4.8-0.5,5.9c0.3,2.7-2.1,5.9-2.8,7C365,293.1,364.9,293.1,364.9,293.1L364.9,293.1z     M364.3,248.2c-0.6,0-1.2,0.1-1.8,0.2c-3.5,1.1-9.8,4.9-8.3,11.6c1,4.2,2.1,5.8,3.3,7.4c0.8,1,1.5,2,2.1,3.7    c2.2,4.3,2.6,8.9,2.9,12.9c0.3,3.9,0.6,7,2.3,8.5c0.9-1.2,2.8-4.1,2.6-6.4c-0.1-1.2,0.2-3.6,0.5-6c0.2-1.6,0.4-3.2,0.5-4.3    c0.3-3.4,1.4-6.5,2.4-9.5c1.4-4,2.7-7.8,1.9-11.7C372,251.9,368.5,248.2,364.3,248.2L364.3,248.2z"/></g>
    <g><path class="st2" d="M310.5,348.4c-2.4-1-3.8-2.2-4.3-3.6c-0.4-1.1,0-1.9,0-2l0.9,0.5c0,0-0.2,0.5,0,1.2c0.3,0.7,1.2,1.9,3.7,2.9    L310.5,348.4L310.5,348.4z"/></g>
    <g><path class="st2" d="M317.5,337.5l-0.2-1c0.2-0.1,6.1-1.5,10.3,0l-0.3,0.9C323.4,336.1,317.6,337.5,317.5,337.5L317.5,337.5z"/></g>
    <g><path class="st2" d="M338.8,328.7c-4.2-3.3-4.3-5.9-4.1-6.8l1,0l0,0.1c-0.1,0.6-0.2,2.8,3.7,5.9L338.8,328.7L338.8,328.7z"/></g>
    <g><path class="st2" d="M347.7,318.2c-5.8,0-9.2-2.5-9.3-2.6l0.6-0.8c0,0,3.3,2.3,9.1,2.4l0,1C347.9,318.2,347.8,318.2,347.7,318.2    L347.7,318.2z"/></g>
    <g><path class="st2" d="M300.3,333.1l-0.7-0.7c3.3-3,3.1-9.5,3.1-9.6l1,0C303.8,323.1,304,329.8,300.3,333.1L300.3,333.1z"/></g>
    <g><path class="st2" d="M319.1,313.2c-2.3,0-4.1-0.4-4.2-0.5l0.2-1c0.1,0,5.7,1.4,10.2-0.9l0.4,0.9    C323.5,312.9,321.1,313.2,319.1,313.2L319.1,313.2z"/></g>
    <g><path class="st2" d="M358.2,304.3c-5.2,0-6.4-1.5-6.6-1.7l0.8-0.6c0,0,1.3,1.5,7.2,1.3l0,1C359.2,304.2,358.7,304.3,358.2,304.3    L358.2,304.3z"/></g>
    <g><path class="st2" d="M334.5,300c-3.9,0-7.5-1.2-7.6-1.2l0.4-0.9l-0.2,0.5l0.2-0.5c0.1,0,7.3,2.4,11.8,0.3l0.4,0.9    C338,299.7,336.2,300,334.5,300L334.5,300z"/></g>
    <g><path class="st2" d="M343.8,277.9c-1.8-6.3-2.3-7.2-2.4-7.3l-0.1-0.6l0.5-0.2c0.4,0.1,0.7,0.1,2.9,7.9L343.8,277.9L343.8,277.9z"/></g>
    <g><path class="st2" d="M343.9,254.4l-0.5-0.9c3.1-1.7,3.4-5.7,3.5-5.7l1,0.1C347.9,248.1,347.5,252.4,343.9,254.4L343.9,254.4z"/></g>
    <g><path class="st2" d="M364.7,236.5c-1.1-1.9,3.3-5.6,4.1-6.3l0.6,0.8c-2.2,1.8-4.3,4.3-3.9,5L364.7,236.5L364.7,236.5z"/></g>
    <g><path class="st2" d="M343.2,235.4l-0.6-0.8c3.8-2.7,1.6-6.5,1.5-6.7l0.9-0.5C345,227.5,347.7,232.2,343.2,235.4L343.2,235.4z"/></g>
    <g><path class="st2" d="M338,212.9c-1.8-3.5-5.8-3.3-5.9-3.3l0-1c0.2,0,4.8-0.2,6.8,3.9L338,212.9L338,212.9z"/></g>
    <g><polygon class="st2" points="327.1,197 323.7,197 323.7,196.1 327.1,196.1 327.1,197   "/></g>
    <g><path class="st2" d="M340.8,184.1l-0.7-0.7c0.8-0.8,1.1-1.5,0.8-2l0.9-0.3h-0.5l0.4-0.2C342.4,181.8,342,182.9,340.8,184.1    L340.8,184.1z"/></g>
    <g><path class="st2" d="M312.1,189.8l-1-0.1c0.4-4.3-1.9-7.9-1.9-7.9l0.8-0.5C310.2,181.4,312.6,185.1,312.1,189.8L312.1,189.8z"/></g>
    <g><path class="st2" d="M323.4,169.4l-0.1-1c0.7-0.1,3-1,4.4-1.6l0.4,0.9C327.8,167.9,324.5,169.3,323.4,169.4L323.4,169.4z"/></g>
    <g><path class="st2" d="M308.8,160.9c-2.2-1.6-1.5-5.7-1.2-6.7l0.5-0.5v0.5l0.4,0.2c-0.1,0.3-1.1,4.3,0.8,5.6L308.8,160.9    L308.8,160.9z"/></g>
    <g><path class="st2" d="M304.1,184l-0.9-0.5c1.3-2.4,0.9-3,0.2-4c-0.6-0.9-1.5-1.9-1.5-4.2h1c0,2,0.7,2.9,1.3,3.6    C305.2,180.3,305.7,181.2,304.1,184L304.1,184z"/></g>
    <g><path class="st2" d="M287.2,176.8l-1-0.1c0-1.1,6.3-6.1,6.7-6.1l0.2,0.9C292.5,172,287.5,176.1,287.2,176.8L287.2,176.8z"/></g>
    <g><path class="st2" d="M279.5,174.8l-1-0.2c0.6-3.2-1.8-5.6-1.8-5.6l0.7-0.7C277.5,168.4,280.1,171.1,279.5,174.8L279.5,174.8z"/></g>
    <g><path class="st2" d="M266.7,171.9l-0.5-0.9c1.3-0.8,2.5-3.6,2.9-4.7l0.9,0.3C269.9,166.9,268.5,170.8,266.7,171.9L266.7,171.9z"/></g>
    <g><path class="st2" d="M252.4,171.4l-0.5-0.9c0.8-0.4,2-2.4,3.4-5.2l0.9,0.4C255.3,167.6,253.7,170.7,252.4,171.4L252.4,171.4z"/></g>
    <g><path class="st2" d="M236.9,173.1l-0.7-0.6c2.4-2.7,0.5-6.4,0.5-6.5l0.4-0.8l0.6,0.5C238.4,167.3,239,170.6,236.9,173.1    L236.9,173.1z"/></g>
    <g><path class="st2" d="M231.6,150.5l-0.8-0.6c1.7-2.4,1.6-5.1,1.5-5.4l0.8-0.5C233.4,144.3,233.6,147.7,231.6,150.5L231.6,150.5z"/></g>
    <g><path class="st2" d="M209.6,156.4l-0.2-1c4.4-0.9,4.4-3.3,4.3-4l1-0.1h-0.5l0.5-0.1C214.8,152.2,214.9,155.3,209.6,156.4    L209.6,156.4z"/></g>
    <g><path class="st2" d="M208.8,184.3c-5.4-0.9-5.5-1-5.6-1.3l0.7-0.6c0.3,0.1,2.8,0.6,5.1,1L208.8,184.3L208.8,184.3z"/></g>
    <g><path class="st2" d="M191,195.1l-0.6-0.8c0.1-0.1,0.2-0.2,6.5-2.1l0.3,0.9C197.2,193.2,191.4,194.9,191,195.1L191,195.1z"/></g>
    <g><path class="st2" d="M184.8,203.3c-1,0-2.4-0.2-3.6-0.3l-0.4-1l0.5,0.1c3.2,0.5,4.3,0.4,4.6,0.2l0.4,0.9    C186,203.2,185.4,203.3,184.8,203.3L184.8,203.3z"/></g>
    <g><path class="st2" d="M178.6,213.9l-1-0.2c1-6.1,0-7.1,0-7.2l0.5-0.8C178.5,206,179.7,207.2,178.6,213.9L178.6,213.9z"/></g>
    <g><polygon class="st2" points="159.9,192.1 157.4,188.4 158.2,187.8 160.7,191.5 159.9,192.1   "/></g>
    <g><path class="st2" d="M155,212.1c-2-0.4-4-1.9-5.9-4.4l0.3-0.5l-0.2-0.5l0.7,0.3c2.2,2.9,4.1,3.8,5.3,4.1L155,212.1L155,212.1z"/></g>
    <g><path class="st2" d="M168.8,227l-0.1-1c0.5-0.1,4-0.9,4.4-1.2l0.6,0.8C173,226.2,169,227,168.8,227L168.8,227z"/></g>
    <g><path class="st2" d="M167.1,241v-0.5l-0.5-0.1c0.3-2,1.4-3.6,3.3-4.6l0.5,0.9c-1.6,0.9-2.6,2.2-2.8,3.8L167.1,241L167.1,241z"/></g>
    <g><path class="st2" d="M167.8,251.7c-2-0.5-5.4-4.2-5.4-4.8h1h-0.5l0.4-0.2c0.2,0.4,3,3.6,4.7,4.1L167.8,251.7L167.8,251.7z"/></g>
    <g><path class="st2" d="M161.2,254.5l-0.3-0.9l0.1,0.5l-0.2-0.5c1.4-0.9,4.2-3,7.4-2.7l-0.1,1c-2.9-0.1-5.5,1.6-6.5,2.3L161.2,254.5    L161.2,254.5z"/></g>
    <g><path class="st2" d="M166.8,266.6c-3.8,0-5.6-0.8-6.4-1.6c-0.8-0.7-0.8-1.4-0.8-1.4l1,0c0,0,0.4,2.6,9,1.9l0.1,1    C168.6,266.6,167.6,266.6,166.8,266.6L166.8,266.6z"/></g>
    <g><path class="st2" d="M161.5,275l-1-0.1c0-0.3,2.9-6.8,8.8-9.2l0.4,0.9C164.2,268.8,161.5,274.9,161.5,275L161.5,275z"/></g>
    <g><path class="st2" d="M169.1,283.1l-0.9-0.3c0-0.1,1-2.9,5.9-4.9l0.4,0.9C169.9,280.6,169.1,283,169.1,283.1L169.1,283.1z"/></g>
    <g><path class="st2" d="M174.2,293.9l-0.6-0.8c0.4-0.3,3.5-2.8,4.8-3.3l0.3,0.9C177.7,291.1,175.1,293.1,174.2,293.9L174.2,293.9z"/></g>
    <g><path class="st2" d="M180,302.9c-1.5,0-2.3-0.7-2.3-0.8l0.7-0.7c0,0,1.9,1.8,6.6-1.6l0.6,0.8C183.1,302.4,181.3,302.9,180,302.9    L180,302.9z"/></g>
    <g><path class="st2" d="M163.6,305.8c-2-3.1-7.7-2.3-10-1.9l-0.3-0.5l0.1-0.5c3.2-0.6,8.8-1.2,11.1,2.3L163.6,305.8L163.6,305.8z"/></g>
    <g><path class="st2" d="M156.3,310.2l-0.1-1c1.9-0.2,8.2-1,9.3-0.1l-0.6,0.8C164.3,309.4,160,309.7,156.3,310.2L156.3,310.2z"/></g>
    <g><path class="st2" d="M185.5,312.5c-0.9,0-1.1-0.3-1.3-0.4l-0.1-0.9l0.9,0.3c0.1,0,1,0.7,8.2-2l0.3,0.9    C188.9,312,186.7,312.5,185.5,312.5L185.5,312.5z"/></g>
    <g><path class="st2" d="M195.1,322.4l-0.5-0.9c0.9-0.5,0.9-1.2,0.9-2.5c0-1.1-0.1-2.5,0.8-4.1l0.9,0.5c-0.8,1.3-0.7,2.5-0.7,3.5    C196.5,320.3,196.6,321.5,195.1,322.4L195.1,322.4z"/></g>
    <g><path class="st2" d="M167.3,319.7l-0.6-0.8l0.2-0.1c2.1-1,3-2.9,2.7-5.5l1-0.1C170.8,315.4,170.4,318.2,167.3,319.7L167.3,319.7z"/></g>
    <g><path class="st2" d="M170.1,327l-0.2-1l0.1,0.5l0.3-0.6c2.9-1.1,6-2,7-0.9l-0.7,0.7c-0.3-0.3-1.4-0.5-5.9,1.2L170.1,327L170.1,327    z"/></g>
    <g><path class="st2" d="M181.2,333.5l-1-0.1c0.1-0.9,0.9-5.2,2.6-5.8l0.3,0.9C182.2,328.8,181.4,331.6,181.2,333.5L181.2,333.5z"/></g>
    <g><path class="st2" d="M188.9,341.2l0-1c0,0,4.4-0.1,6.2-1.4l0.6,0.8C193.6,341.1,189.1,341.2,188.9,341.2L188.9,341.2z"/></g>
    <g><path class="st2" d="M203.5,325.9c-3.9,0-5.9-1-6.1-1.2l0.6-0.8c0,0,4,2.2,12.6,0l0.2,1C207.9,325.6,205.4,325.9,203.5,325.9    L203.5,325.9z"/></g>
    <g><path class="st2" d="M202.6,351.8l-1-0.1c0.1-1.1-0.8-5.9-1.1-7.6l1-0.2C201.5,344.2,202.7,350.3,202.6,351.8L202.6,351.8z"/></g>
    <path class="st9"
          d="M359.2,247.4c-0.3-2.1-1.3-3.9-2.6-4.8c-1.4-0.9-2.9-0.7-4,0.5c-1.1,1.2-1.6,3.2-1.4,5.3   c0.3,2.1,1.3,3.9,2.6,4.8c1.4,0.9,2.9,0.7,4-0.5C359,251.4,359.5,249.4,359.2,247.4L359.2,247.4z"/>
    <g><path class="st2" d="M355.6,253.9L355.6,253.9c-0.6,0-1.3-0.2-1.9-0.6c-1.4-0.9-2.5-2.8-2.7-5c-0.3-2.1,0.3-4.2,1.4-5.5    c1.1-1.3,2.9-1.5,4.3-0.5c1.4,0.9,2.5,2.8,2.7,5c0.3,2.1-0.3,4.2-1.4,5.5C357.4,253.5,356.5,253.9,355.6,253.9L355.6,253.9z     M354.9,242.3c-0.8,0-1.5,0.3-2.1,1c-1.1,1.1-1.6,3.1-1.3,5.1c0.3,2,1.2,3.8,2.5,4.6c0.5,0.3,1.1,0.5,1.6,0.5l0,0    c0.8,0,1.5-0.3,2-1c1-1.1,1.5-3.1,1.3-5.1c-0.2-2-1.2-3.8-2.5-4.6C355.9,242.4,355.4,242.3,354.9,242.3L354.9,242.3z"/></g>
    <path class="st9"
          d="M358.4,236.9c-0.3-2.1-1.3-3.9-2.6-4.8c-1.4-0.9-2.9-0.7-4,0.5c-1.1,1.2-1.6,3.2-1.4,5.3   c0.3,2.1,1.3,3.9,2.6,4.8c1.4,0.9,2.9,0.7,4-0.5C358.1,241,358.6,239,358.4,236.9L358.4,236.9z"/>
    <g><path class="st2" d="M354.8,243.5L354.8,243.5c-0.6,0-1.3-0.2-1.9-0.6c-1.4-0.9-2.5-2.8-2.7-5c-0.3-2.1,0.3-4.2,1.4-5.5    c1.2-1.3,2.9-1.5,4.3-0.5c1.4,0.9,2.5,2.8,2.7,5c0.3,2.1-0.3,4.2-1.4,5.5C356.5,243.1,355.7,243.5,354.8,243.5L354.8,243.5z     M354,231.8c-0.8,0-1.5,0.3-2,1c-1,1.1-1.5,3.1-1.3,5.1c0.3,2,1.2,3.8,2.5,4.6c0.5,0.3,1.1,0.5,1.6,0.5l0,0c0.8,0,1.5-0.3,2-1    c1.1-1.1,1.5-3.1,1.3-5.1c-0.2-2-1.2-3.8-2.5-4.6C355.1,232,354.6,231.8,354,231.8L354,231.8z"/></g>
    <path class="st9"
          d="M356.2,225.7c-0.4-2-1.6-3.8-3-4.5c-1.4-0.8-2.9-0.4-3.9,0.9c-1,1.3-1.3,3.3-0.9,5.4c0.4,2,1.6,3.8,3,4.5   c1.4,0.8,2.9,0.4,3.9-0.8C356.4,229.8,356.7,227.7,356.2,225.7L356.2,225.7z"/>
    <g><path class="st2" d="M353,232.6L353,232.6c-0.6,0-1.1-0.1-1.7-0.4c-1.5-0.8-2.7-2.6-3.2-4.7c-0.5-2.1-0.1-4.2,0.9-5.6    c1-1.4,2.7-1.7,4.2-0.9c1.5,0.8,2.7,2.6,3.2,4.7c0.5,2.1,0.1,4.3-0.9,5.6C354.9,232.1,354,232.6,353,232.6L353,232.6z M351.7,221    c-0.8,0-1.6,0.4-2.2,1.2c-1,1.2-1.3,3.2-0.9,5.2c0.4,2,1.5,3.6,2.9,4.3c0.5,0.3,1,0.4,1.4,0.4l0,0c0.8,0,1.6-0.4,2.2-1.2    c0.9-1.2,1.3-3.2,0.8-5.2c-0.4-2-1.5-3.6-2.9-4.4C352.6,221.2,352.2,221,351.7,221L351.7,221z"/></g>
    <path class="st9"
          d="M352.4,214c-0.9-1.9-2.5-3.2-4.1-3.6c-1.6-0.4-2.9,0.3-3.6,1.8c-0.6,1.5-0.4,3.6,0.5,5.4   c0.9,1.9,2.5,3.2,4.1,3.6c1.6,0.4,2.9-0.3,3.6-1.8C353.5,217.9,353.3,215.9,352.4,214L352.4,214z"/>
    <g><path class="st2" d="M350.1,221.6L350.1,221.6c-0.3,0-0.6,0-0.9-0.1c-1.6-0.4-3.3-1.8-4.3-3.7c-1-1.9-1.2-4.1-0.5-5.7    c0.7-1.6,2.2-2.3,3.9-2c1.6,0.4,3.3,1.8,4.3,3.7c1,1.9,1.2,4.1,0.5,5.6C352.6,220.9,351.5,221.6,350.1,221.6L350.1,221.6z     M347.5,210.6c-1.1,0-2,0.6-2.5,1.8c-0.6,1.4-0.4,3.4,0.5,5.2c0.9,1.8,2.4,3.1,3.9,3.5c1.4,0.3,2.7-0.3,3.3-1.7    c0.6-1.4,0.4-3.4-0.5-5.2c-0.9-1.8-2.4-3.1-3.9-3.5C348,210.6,347.7,210.6,347.5,210.6L347.5,210.6z"/></g>
    <path class="st9"
          d="M348.2,204.6c-0.9-1.9-2.5-3.2-4.1-3.6c-1.6-0.4-2.9,0.3-3.6,1.8c-0.6,1.5-0.4,3.6,0.5,5.4   c0.9,1.9,2.5,3.2,4.1,3.6c1.6,0.4,2.9-0.3,3.6-1.8C349.4,208.6,349.2,206.5,348.2,204.6L348.2,204.6z"/>
    <g><path class="st2" d="M346,212.2L346,212.2c-0.3,0-0.6,0-0.9-0.1c-1.7-0.4-3.3-1.8-4.3-3.7c-1-1.9-1.2-4.1-0.5-5.6    c0.7-1.6,2.2-2.4,3.9-2c1.6,0.4,3.3,1.8,4.3,3.7c1,1.9,1.2,4.1,0.5,5.7C348.4,211.5,347.3,212.2,346,212.2L346,212.2z     M343.3,201.2c-1.1,0-2.1,0.6-2.5,1.8c-0.6,1.4-0.4,3.4,0.5,5.2c0.9,1.8,2.4,3.1,3.9,3.5c1.4,0.3,2.7-0.3,3.3-1.7    c0.6-1.4,0.4-3.4-0.5-5.2c-0.9-1.8-2.4-3.1-3.9-3.5C343.8,201.2,343.6,201.2,343.3,201.2L343.3,201.2z"/></g>
    <path class="st9"
          d="M342.3,195.2c-1.1-1.8-2.8-3-4.4-3.2c-1.6-0.2-2.9,0.6-3.4,2.1c-0.5,1.5-0.1,3.6,1,5.4c1.1,1.8,2.8,3,4.4,3.2   c1.6,0.2,2.9-0.6,3.4-2.1C343.8,199,343.5,197,342.3,195.2L342.3,195.2z"/>
    <g><path class="st2" d="M340.4,203l-0.6,0c-1.7-0.2-3.4-1.5-4.6-3.4c-1.1-1.8-1.5-4-1-5.6c0.5-1.5,1.7-2.3,3.1-2.3    c2.2,0.3,4,1.6,5.1,3.4c1.1,1.8,1.5,4,1,5.6C343.1,202.1,341.9,203,340.4,203L340.4,203z M337.8,192.2c-1.7,0-2.6,0.7-3,1.9    c-0.5,1.5-0.1,3.5,0.9,5.1c1.1,1.7,2.7,2.9,4.2,3.1l0.5,0c1.3,0,2.2-0.7,2.6-2c0.5-1.5,0.1-3.4-0.9-5.1c-1.1-1.7-2.7-2.9-4.2-3.1    C337.9,192.2,337.9,192.2,337.8,192.2L337.8,192.2z"/></g>
    <path class="st9"
          d="M335.8,186.1c-1.3-1.7-3-2.7-4.7-2.8c-1.6-0.1-2.8,0.9-3.2,2.4c-0.4,1.6,0.2,3.6,1.5,5.2   c1.3,1.7,3,2.7,4.7,2.8c1.6,0.1,2.8-0.9,3.2-2.4C337.6,189.8,337.1,187.8,335.8,186.1L335.8,186.1z"/>
    <g><path class="st2" d="M334.3,194.1l-0.2,0c-1.7-0.1-3.6-1.2-4.9-2.9c-1.3-1.7-1.9-3.8-1.5-5.5c0.4-1.6,1.6-2.6,3.3-2.6    c1.9,0.1,3.8,1.2,5.1,2.9c1.3,1.7,1.9,3.8,1.5,5.5C337.2,193.1,335.9,194.1,334.3,194.1L334.3,194.1z M331.1,183.6    c-1.6,0-2.6,0.8-2.9,2.2c-0.3,1.5,0.2,3.4,1.4,5c1.2,1.6,2.9,2.6,4.5,2.7l0.2,0.3v-0.3c1.4,0,2.5-0.8,2.8-2.2    c0.3-1.5-0.2-3.4-1.4-5C334.4,184.7,332.7,183.6,331.1,183.6C331.1,183.6,331.1,183.6,331.1,183.6L331.1,183.6z"/></g>
    <path class="st9"
          d="M328,177.7c-1.5-1.5-3.4-2.3-5-2.1c-1.6,0.2-2.7,1.3-2.8,2.9c-0.1,1.6,0.7,3.5,2.2,5c1.5,1.5,3.4,2.3,5,2.1   c1.6-0.2,2.7-1.3,2.8-2.9C330.3,181,329.5,179.1,328,177.7L328,177.7z"/>
    <g><path class="st2" d="M327,185.8c-1.6,0-3.4-0.8-4.8-2.2c-1.6-1.5-2.4-3.5-2.3-5.2c0.1-1.7,1.3-2.9,3-3.1c1.8-0.1,3.8,0.8,5.2,2.2    c1.5,1.5,2.4,3.5,2.3,5.2c-0.1,1.7-1.3,2.9-3,3.1L327,185.8L327,185.8z M323.4,175.8c-1.9,0.2-2.8,1.1-3,2.7    c-0.1,1.5,0.7,3.4,2.1,4.8c1.3,1.3,3,2.1,4.4,2.1v0.3l0.4-0.3c1.5-0.1,2.5-1.1,2.6-2.6c0.1-1.6-0.7-3.4-2.1-4.8    C326.5,176.6,324.8,175.8,323.4,175.8L323.4,175.8z"/></g>
    <path class="st9"
          d="M319.2,169.9c-1.6-1.3-3.6-1.9-5.2-1.6c-1.6,0.3-2.6,1.5-2.5,3.1c0,1.6,1,3.4,2.7,4.8c1.6,1.3,3.6,1.9,5.2,1.6   c1.6-0.3,2.6-1.5,2.5-3.1C321.8,173,320.8,171.2,319.2,169.9L319.2,169.9z"/>
    <g><path class="st2" d="M318.5,178.1L318.5,178.1c-1.5,0-3.1-0.6-4.5-1.8c-1.7-1.4-2.7-3.2-2.8-5c0-1.8,1-3,2.7-3.4    c1.7-0.3,3.8,0.3,5.4,1.7c1.7,1.3,2.7,3.2,2.8,4.9c0,1.8-1,3-2.7,3.4C319.1,178,318.8,178.1,318.5,178.1L318.5,178.1z     M314.8,168.4c-0.3,0-0.5,0-0.8,0.1c-1.5,0.3-2.4,1.3-2.3,2.9c0,1.6,1,3.3,2.6,4.6c1.6,1.3,3.5,1.9,5,1.6c1.5-0.3,2.4-1.3,2.3-2.9    c0-1.6-1-3.3-2.6-4.6C317.7,169,316.2,168.4,314.8,168.4L314.8,168.4z"/></g>
    <path class="st9"
          d="M309.9,163.6c-1.8-1-3.9-1.3-5.4-0.7c-1.5,0.6-2.3,1.9-2,3.5c0.3,1.6,1.6,3.2,3.4,4.2c1.8,1,3.9,1.3,5.4,0.7   c1.5-0.6,2.3-1.9,2-3.5C313,166.3,311.7,164.7,309.9,163.6L309.9,163.6z"/>
    <g><path class="st2" d="M309.6,171.9c-1.2,0-2.6-0.4-3.8-1.1c-1.9-1.1-3.2-2.7-3.5-4.4c-0.3-1.7,0.5-3.2,2.1-3.8    c1.6-0.6,3.8-0.3,5.6,0.8c1.9,1.1,3.2,2.7,3.6,4.4c0.3,1.7-0.5,3.2-2.1,3.8C310.9,171.8,310.2,171.9,309.6,171.9L309.6,171.9z     M306.2,162.9c-0.6,0-1.1,0.1-1.6,0.3c-1.4,0.5-2.1,1.7-1.8,3.2c0.3,1.5,1.6,3.1,3.3,4.1c1.1,0.6,2.4,1,3.6,1l0,0    c0.6,0,1.1-0.1,1.6-0.3c1.4-0.5,2.1-1.7,1.8-3.2c-0.3-1.5-1.6-3.1-3.3-4.1C308.6,163.2,307.3,162.9,306.2,162.9L306.2,162.9z"/></g>
    <path class="st9"
          d="M299.4,158.1c-1.9-0.9-4-1-5.4-0.3c-1.5,0.7-2.1,2.1-1.6,3.7c0.4,1.6,1.9,3.1,3.8,3.9c1.9,0.9,4,1,5.4,0.3   c1.5-0.7,2.1-2.1,1.6-3.7C302.8,160.5,301.3,159,299.4,158.1L299.4,158.1z"/>
    <g><path class="st2" d="M299.3,166.4c-1.1,0-2.2-0.3-3.3-0.7c-2-0.9-3.5-2.4-3.9-4.1c-0.5-1.7,0.2-3.2,1.8-4c1.5-0.7,3.7-0.6,5.7,0.3    c2,0.9,3.5,2.4,3.9,4.1c0.5,1.7-0.2,3.2-1.8,4C301,166.3,300.2,166.4,299.3,166.4L299.3,166.4z M296.2,157.7    c-0.8,0-1.5,0.2-2.1,0.5c-1.4,0.7-1.9,1.9-1.5,3.4c0.4,1.5,1.8,2.9,3.6,3.7c1.8,0.8,3.9,0.9,5.2,0.3c1.3-0.6,1.9-1.9,1.5-3.4    c-0.4-1.5-1.8-2.9-3.6-3.7C298.3,157.9,297.3,157.7,296.2,157.7L296.2,157.7z"/></g>
    <path class="st9"
          d="M289.2,154c-2-0.7-4-0.7-5.4,0.1c-1.4,0.8-1.9,2.2-1.4,3.8c0.5,1.5,2.1,2.9,4.1,3.7c1.9,0.7,4,0.7,5.4-0.1   c1.4-0.8,1.9-2.2,1.4-3.8C292.7,156.1,291.2,154.7,289.2,154L289.2,154z"/>
    <g><path class="st2" d="M289.2,162.3c-0.9,0-1.9-0.2-2.9-0.5c-2-0.8-3.6-2.2-4.2-3.8c-0.6-1.7,0-3.2,1.5-4.1c1.4-0.8,3.7-0.9,5.7-0.1    c2,0.8,3.6,2.2,4.2,3.8c0.6,1.7,0,3.2-1.5,4.1C291.2,162.1,290.2,162.3,289.2,162.3L289.2,162.3z M286.4,153.7    c-1,0-1.9,0.2-2.5,0.6c-1.3,0.7-1.8,2-1.3,3.5c0.5,1.4,2,2.8,3.9,3.5c1.8,0.7,3.9,0.6,5.2-0.1c1.3-0.7,1.8-2.1,1.3-3.5    c-0.5-1.5-2-2.8-3.9-3.5C288.2,153.9,287.3,153.7,286.4,153.7L286.4,153.7z"/></g>
    <path class="st9"
          d="M278.8,150.7c-2-0.6-4.1-0.4-5.4,0.5c-1.3,0.9-1.8,2.4-1.1,3.9c0.7,1.5,2.3,2.8,4.3,3.3c2,0.6,4.1,0.4,5.4-0.5   c1.3-0.9,1.8-2.4,1.1-3.9C282.5,152.6,280.8,151.3,278.8,150.7L278.8,150.7z"/>
    <g><path class="st2" d="M278.9,159L278.9,159c-0.8,0-1.6-0.1-2.3-0.3c-2.1-0.6-3.8-1.9-4.5-3.5c-0.7-1.6-0.3-3.2,1.2-4.2    c1.4-0.9,3.6-1.2,5.6-0.6c2.1,0.6,3.8,1.9,4.5,3.5c0.7,1.6,0.3,3.2-1.2,4.2C281.3,158.7,280.1,159,278.9,159L278.9,159z     M276.6,150.7c-1.2,0-2.2,0.3-3,0.8c-1.2,0.8-1.6,2.2-1,3.5c0.6,1.4,2.2,2.6,4.2,3.2c1.9,0.6,4,0.4,5.2-0.5c1.2-0.8,1.6-2.2,1-3.5    c-0.6-1.4-2.2-2.6-4.2-3.2C278,150.8,277.3,150.7,276.6,150.7L276.6,150.7z"/></g>
    <path class="st9"
          d="M267.4,148.8c-2.1-0.3-4.1,0.3-5.3,1.4c-1.2,1.1-1.4,2.6-0.5,4c0.9,1.4,2.7,2.4,4.8,2.6   c2.1,0.3,4.1-0.3,5.3-1.4c1.2-1.1,1.4-2.6,0.5-4C271.3,150.1,269.4,149,267.4,148.8L267.4,148.8z"/>
    <g><path class="st2" d="M267.4,157.1L267.4,157.1c-0.4,0-0.7,0-1.1-0.1c-2.2-0.3-4.1-1.3-5-2.8c-1-1.5-0.8-3.1,0.5-4.3    c1.2-1.1,3.3-1.7,5.5-1.4c2.1,0.3,4,1.3,5,2.7c0.9,1.5,0.7,3.1-0.5,4.3C270.8,156.5,269.2,157.1,267.4,157.1L267.4,157.1z     M266.3,149c-1.6,0-3.1,0.5-4,1.4c-1.1,1-1.3,2.4-0.5,3.6c0.8,1.3,2.6,2.3,4.6,2.5c2,0.3,3.9-0.2,5.1-1.3c1.1-1,1.3-2.4,0.5-3.7    c-0.9-1.3-2.6-2.3-4.6-2.5C267,149,266.7,149,266.3,149L266.3,149z"/></g>
    <path class="st9"
          d="M256.1,148.2c-2.1-0.1-4.1,0.6-5.1,1.8c-1.1,1.2-1.2,2.7-0.2,4c1,1.3,2.9,2.1,5,2.2c2.1,0.1,4.1-0.6,5.1-1.8   c1.1-1.2,1.2-2.7,0.2-4C260.1,149.1,258.2,148.2,256.1,148.2L256.1,148.2z"/>
    <g><path class="st2" d="M256.1,156.4L256.1,156.4l-0.4,0c-2.2-0.1-4.1-1-5.2-2.3c-1.1-1.4-1-3,0.2-4.3c1.1-1.2,2.9-1.9,5-1.9    c2.5,0.1,4.5,1,5.5,2.3c1.1,1.4,1,3-0.2,4.3C260,155.7,258.1,156.4,256.1,156.4L256.1,156.4z M256,148.4c-2.2,0-3.9,0.6-4.9,1.7    c-1,1.1-1.1,2.5-0.1,3.7c0.9,1.2,2.8,2,4.8,2.1l0.3,0.3v-0.3c1.9,0,3.6-0.6,4.6-1.7c1-1.1,1.1-2.5,0.1-3.7    C259.9,149.3,258.1,148.5,256,148.4C256.1,148.4,256,148.4,256,148.4L256,148.4z"/></g>
    <path class="st9"
          d="M245.7,148.5c-2.1-0.1-4.1,0.6-5.1,1.8c-1.1,1.2-1.2,2.7-0.2,4c1,1.3,2.9,2.1,5,2.2c2.1,0.1,4.1-0.6,5.1-1.8   c1.1-1.2,1.2-2.7,0.2-4C249.7,149.4,247.8,148.6,245.7,148.5L245.7,148.5z"/>
    <g><path class="st2" d="M245.7,156.8L245.7,156.8l-0.4,0c-2.2-0.1-4.1-1-5.2-2.3c-1.1-1.4-1-3,0.2-4.3c1.1-1.2,2.9-1.9,5-1.9    c2.5,0.1,4.5,1,5.5,2.3c1.1,1.4,1,3.1-0.2,4.3C249.7,156.1,247.8,156.8,245.7,156.8L245.7,156.8z M245.7,148.8    c-2.2,0-3.9,0.6-4.9,1.7c-1,1.1-1.1,2.5-0.1,3.7c0.9,1.2,2.8,2,4.8,2.1l0.3,0.3v-0.3c1.9,0,3.6-0.6,4.6-1.7c1-1.1,1.1-2.5,0.2-3.7    C249.6,149.7,247.7,148.9,245.7,148.8C245.7,148.8,245.7,148.8,245.7,148.8L245.7,148.8z"/></g>
    <path class="st9"
          d="M233.6,150c-2,0.5-3.8,1.6-4.5,3.1c-0.7,1.5-0.4,2.9,0.9,3.9c1.3,1,3.4,1.3,5.4,0.8c2-0.5,3.8-1.6,4.5-3.1   c0.7-1.4,0.4-2.9-0.9-3.9C237.7,149.8,235.6,149.5,233.6,150L233.6,150z"/>
    <g><path class="st2" d="M233.5,158.3c-1.4,0-2.8-0.4-3.7-1.1c-1.4-1-1.8-2.7-1-4.2c0.8-1.5,2.6-2.7,4.7-3.2c2.1-0.5,4.3-0.1,5.6,0.9    c1.4,1,1.8,2.7,1,4.2c-0.8,1.5-2.5,2.7-4.7,3.2C234.8,158.2,234.2,158.3,233.5,158.3L233.5,158.3z M235.4,150    c-0.6,0-1.2,0.1-1.8,0.2c-2,0.4-3.6,1.6-4.3,2.9c-0.7,1.3-0.4,2.7,0.8,3.6c1.2,0.9,3.2,1.2,5.2,0.8c2-0.4,3.6-1.6,4.3-3    c0.7-1.3,0.4-2.7-0.8-3.6C238,150.4,236.8,150,235.4,150L235.4,150z"/></g>
    <path class="st9"
          d="M222.6,152.7c-2,0.6-3.6,1.9-4.2,3.4c-0.6,1.5-0.2,3,1.2,3.8c1.4,0.9,3.4,1,5.4,0.4c2-0.6,3.6-1.9,4.2-3.5   c0.6-1.5,0.2-3-1.2-3.8C226.6,152.2,224.6,152.1,222.6,152.7L222.6,152.7z"/>
    <g><path class="st2" d="M222.5,161c-1.2,0-2.3-0.3-3.1-0.8c-1.5-0.9-2-2.5-1.3-4.1c0.7-1.6,2.3-2.9,4.4-3.6c2-0.7,4.2-0.5,5.7,0.4    c1.5,0.9,2,2.5,1.3,4.1c-0.6,1.6-2.3,2.9-4.4,3.6C224.2,160.9,223.4,161,222.5,161L222.5,161z M225,152.6c-0.8,0-1.6,0.1-2.4,0.4    c-1.9,0.6-3.5,1.9-4.1,3.3c-0.6,1.4-0.2,2.7,1.1,3.5c1.3,0.8,3.3,0.9,5.2,0.4c1.9-0.6,3.5-1.9,4.1-3.3c0.6-1.4,0.2-2.7-1.1-3.5    C227.1,152.8,226.1,152.6,225,152.6L225,152.6z"/></g>
    <path class="st9"
          d="M212.5,157c-1.9,0.9-3.3,2.4-3.8,3.9c-0.4,1.6,0.2,3,1.7,3.7s3.5,0.6,5.4-0.3c1.9-0.9,3.3-2.4,3.8-3.9   c0.4-1.6-0.2-3-1.7-3.7C216.5,156.1,214.4,156.2,212.5,157L212.5,157z"/>
    <g><path class="st2" d="M212.6,165.3L212.6,165.3c-0.9,0-1.7-0.2-2.3-0.5c-1.6-0.8-2.3-2.3-1.8-4c0.5-1.6,1.9-3.2,3.9-4.1    c1.9-0.9,4.2-1,5.7-0.3c1.6,0.8,2.3,2.3,1.8,4c-0.5,1.6-1.9,3.2-3.9,4.1C214.9,165.1,213.7,165.3,212.6,165.3L212.6,165.3z     M215.7,156.6c-1,0-2.1,0.2-3.1,0.7c-1.8,0.8-3.2,2.3-3.6,3.8c-0.4,1.5,0.2,2.7,1.5,3.4c1.4,0.7,3.4,0.5,5.2-0.3    c1.8-0.8,3.2-2.3,3.6-3.8c0.4-1.5-0.2-2.7-1.5-3.4C217.2,156.7,216.5,156.6,215.7,156.6L215.7,156.6z"/></g>
    <path class="st9"
          d="M202.5,162.2c-1.8,1-3.1,2.6-3.4,4.2c-0.3,1.6,0.5,2.9,2,3.5c1.5,0.6,3.6,0.3,5.4-0.7c1.8-1,3.1-2.6,3.4-4.2   c0.3-1.6-0.5-2.9-2-3.5C206.3,160.9,204.3,161.2,202.5,162.2L202.5,162.2z"/>
    <g><path class="st2" d="M202.7,170.5c-0.7,0-1.3-0.1-1.8-0.3c-1.6-0.6-2.5-2.1-2.1-3.8c0.3-1.7,1.7-3.4,3.6-4.4    c1.9-1.1,4-1.3,5.6-0.8c1.6,0.6,2.5,2.1,2.1,3.8c-0.3,1.7-1.7,3.4-3.6,4.4C205.3,170.1,204,170.5,202.7,170.5L202.7,170.5z     M206.1,161.4c-1.2,0-2.4,0.3-3.5,1c-1.8,1-3,2.5-3.3,4.1c-0.3,1.5,0.4,2.7,1.8,3.2c1.4,0.5,3.5,0.3,5.2-0.7c1.8-1,3-2.5,3.3-4.1    c0.3-1.5-0.4-2.7-1.8-3.2C207.3,161.5,206.7,161.4,206.1,161.4L206.1,161.4z"/></g>
    <path class="st9"
          d="M193,168.6c-1.7,1.2-2.8,3-3,4.6c-0.1,1.6,0.8,2.9,2.3,3.3c1.6,0.4,3.6-0.1,5.3-1.3c1.7-1.2,2.8-3,3-4.6   c0.1-1.6-0.8-2.9-2.3-3.3C196.7,166.9,194.7,167.4,193,168.6L193,168.6z"/>
    <g><path class="st2" d="M193.5,176.9L193.5,176.9c-0.4,0-0.8,0-1.2-0.1c-1.7-0.4-2.7-1.8-2.5-3.5c0.1-1.7,1.3-3.5,3.1-4.8    c1.7-1.2,3.9-1.8,5.5-1.4c1.7,0.4,2.7,1.8,2.5,3.5c-0.1,1.7-1.3,3.5-3.1,4.8C196.4,176.3,194.9,176.9,193.5,176.9L193.5,176.9z     M197.1,167.4c-1.3,0-2.7,0.5-4,1.4c-1.6,1.2-2.7,2.8-2.8,4.4c-0.1,1.5,0.7,2.6,2.1,3c1.5,0.4,3.5-0.1,5.1-1.3    c1.6-1.2,2.7-2.8,2.8-4.4c0.1-1.5-0.7-2.6-2.1-3C197.9,167.5,197.5,167.4,197.1,167.4L197.1,167.4z"/></g>
    <path class="st9"
          d="M184.2,175.3c-1.6,1.4-2.6,3.2-2.6,4.8c0,1.6,1,2.8,2.6,3.1c1.6,0.3,3.6-0.4,5.2-1.8c1.6-1.4,2.6-3.2,2.5-4.8   c0-1.6-1-2.8-2.6-3.1C187.7,173.3,185.8,173.9,184.2,175.3L184.2,175.3z"/>
    <g><path class="st2" d="M185,183.5L185,183.5c-0.3,0-0.5,0-0.8-0.1c-1.7-0.3-2.8-1.6-2.8-3.3c0-1.7,1-3.6,2.7-5    c1.6-1.4,3.7-2.1,5.4-1.8c1.7,0.3,2.8,1.6,2.8,3.3c0,1.7-1,3.6-2.6,5C188.2,182.8,186.5,183.5,185,183.5L185,183.5z M188.6,173.7    c-1.4,0-3,0.6-4.3,1.8c-1.5,1.3-2.5,3.1-2.5,4.6c0,1.5,0.9,2.6,2.4,2.8c1.6,0.2,3.4-0.4,4.9-1.7c1.5-1.3,2.5-3.1,2.5-4.6    c0-1.5-0.9-2.6-2.4-2.8C189.1,173.7,188.8,173.7,188.6,173.7L188.6,173.7z"/></g>
    <path class="st9"
          d="M176.4,183.4c-1.5,1.5-2.3,3.4-2.2,5c0.1,1.6,1.2,2.7,2.8,2.9c1.6,0.1,3.5-0.7,5-2.1c1.5-1.5,2.3-3.4,2.2-5   c-0.1-1.6-1.2-2.7-2.8-2.9C179.8,181.1,177.9,181.9,176.4,183.4L176.4,183.4z"/>
    <g><path class="st2" d="M177.4,191.5l-0.4,0c-1.7-0.2-2.9-1.4-3-3.1c-0.1-1.7,0.7-3.7,2.3-5.2c1.4-1.4,3.2-2.2,4.8-2.2    c2.2,0.2,3.3,1.4,3.5,3.1c0.1,1.7-0.7,3.7-2.3,5.2C180.8,190.7,179,191.5,177.4,191.5L177.4,191.5z M181.4,181.5    c-1.8,0-3.5,0.8-4.8,2.1c-1.4,1.4-2.2,3.2-2.1,4.8c0.1,1.5,1.1,2.5,2.6,2.6l0.4,0.3V191c1.5,0,3.1-0.8,4.5-2.1    c1.4-1.4,2.2-3.2,2.1-4.8C183.9,182.6,182.9,181.7,181.4,181.5C181.4,181.5,181.4,181.5,181.4,181.5L181.4,181.5z"/></g>
    <path class="st9"
          d="M169.7,192.4c-1.4,1.6-2,3.5-1.8,5.2c0.3,1.6,1.4,2.6,3.1,2.6c1.6,0,3.5-0.9,4.8-2.5c1.4-1.6,2-3.5,1.8-5.1   c-0.3-1.6-1.4-2.6-3-2.6C172.9,189.8,171.1,190.8,169.7,192.4L169.7,192.4z"/>
    <g><path class="st2" d="M171.1,200.4L171.1,200.4L171.1,200.4c-1.8,0-3.1-1.1-3.4-2.8c-0.3-1.7,0.4-3.7,1.8-5.4    c1.4-1.6,3.3-2.6,5-2.6c1.8,0,3,1.1,3.3,2.8c0.3,1.7-0.4,3.7-1.8,5.4C174.6,199.4,172.7,200.4,171.1,200.4L171.1,200.4z     M174.6,190.1c-1.6,0-3.3,0.9-4.6,2.4c-1.3,1.5-2,3.4-1.7,4.9c0.2,1.5,1.3,2.4,2.8,2.4l0.1,0.3v-0.3c1.5,0,3.3-0.9,4.6-2.4    c1.3-1.5,2-3.4,1.7-4.9C177.1,191,176.1,190.1,174.6,190.1L174.6,190.1z"/></g>
    <path class="st9"
          d="M163.6,201.6c-1.2,1.7-1.7,3.7-1.2,5.3c0.4,1.6,1.7,2.4,3.3,2.3c1.6-0.2,3.3-1.3,4.5-3   c1.2-1.7,1.6-3.7,1.2-5.3c-0.4-1.6-1.7-2.4-3.3-2.3C166.5,198.7,164.8,199.9,163.6,201.6L163.6,201.6z"/>
    <g><path class="st2" d="M165.3,209.5c-1.6,0-2.8-0.9-3.2-2.5c-0.5-1.6,0-3.7,1.3-5.5c1.2-1.8,3-3,4.7-3.2c0,0,0,0,0.1,0    c1.9,0,3.1,0.9,3.5,2.5c0.5,1.6,0,3.7-1.3,5.5c-1.2,1.8-3,3-4.7,3.2L165.3,209.5L165.3,209.5z M168.5,198.8    c-1.9,0.2-3.5,1.3-4.7,2.9c-1.1,1.7-1.6,3.6-1.2,5.1c0.4,1.3,1.4,2.1,2.7,2.1v0.3l0.3-0.3c1.5-0.2,3.2-1.3,4.3-2.9    c1.1-1.6,1.6-3.6,1.2-5.1C170.9,199.6,169.9,198.8,168.5,198.8L168.5,198.8z"/></g>
    <path class="st9"
          d="M158.5,212.1c-0.9,1.9-1,4-0.3,5.4c0.7,1.5,2.1,2.1,3.7,1.7c1.6-0.4,3.1-1.9,3.9-3.8c0.9-1.9,1-4,0.3-5.4   c-0.7-1.5-2.1-2.1-3.7-1.7C160.9,208.7,159.4,210.2,158.5,212.1L158.5,212.1z"/>
    <g><path class="st2" d="M161,219.6c-1.3,0-2.4-0.7-2.9-2c-0.7-1.5-0.6-3.7,0.3-5.7c0.9-2,2.5-3.5,4.1-3.9c1.6-0.5,3.2,0.2,4,1.8    c0.7,1.5,0.6,3.7-0.3,5.7c-0.9,2-2.5,3.5-4.1,3.9C161.6,219.6,161.3,219.6,161,219.6L161,219.6z M163.4,208.4    c-0.3,0-0.6,0-0.9,0.1c-1.5,0.4-2.9,1.8-3.8,3.6c-0.8,1.8-0.9,3.8-0.3,5.2c0.6,1.3,1.9,1.9,3.4,1.5c1.5-0.4,2.9-1.8,3.8-3.6    c0.8-1.8,0.9-3.8,0.3-5.2C165.4,209,164.5,208.4,163.4,208.4L163.4,208.4z"/></g>
    <path class="st9"
          d="M154.5,223c-0.7,2-0.6,4,0.2,5.4c0.8,1.4,2.3,1.9,3.8,1.3c1.5-0.6,2.9-2.1,3.6-4.1c0.7-2,0.6-4-0.2-5.4   c-0.8-1.4-2.3-1.9-3.8-1.3C156.6,219.5,155.2,221,154.5,223L154.5,223z"/>
    <g><path class="st2" d="M157.3,230.3c-1.1,0-2.2-0.6-2.8-1.7c-0.9-1.5-1-3.6-0.2-5.7c0.7-2,2.1-3.7,3.7-4.3c1.6-0.6,3.2,0,4.1,1.4    c0.9,1.5,0.9,3.6,0.2,5.7c-0.7,2-2.1,3.7-3.7,4.3C158.2,230.2,157.7,230.3,157.3,230.3L157.3,230.3z M159.3,218.9    c-0.4,0-0.7,0.1-1.1,0.2c-1.5,0.6-2.8,2.1-3.4,4c-0.7,1.9-0.6,3.9,0.2,5.2c0.8,1.3,2.1,1.8,3.5,1.2c1.4-0.5,2.8-2.1,3.4-4    c0.7-1.9,0.6-3.9-0.2-5.2C161.1,219.4,160.3,218.9,159.3,218.9L159.3,218.9z"/></g>
    <path class="st9"
          d="M151,243.7c-0.2,1.7,0.4,3.3,1.5,4.2c1.1,0.9,2.7,1,4,0.3s2.3-2.2,2.5-3.9c0.2-1.7-0.4-3.3-1.5-4.2   c-1.1-0.9-2.7-1-4-0.3C152.1,240.6,151.2,242.1,151,243.7L151,243.7z"/>
    <g><path class="st2" d="M154.7,249C154.7,249,154.7,249,154.7,249c-0.9,0-1.7-0.3-2.4-0.8c-1.2-1-1.8-2.7-1.6-4.4    c0.2-1.8,1.2-3.3,2.6-4.1c1.4-0.8,3.1-0.7,4.3,0.3c1.2,1,1.8,2.7,1.6,4.4c-0.2,1.7-1.2,3.3-2.6,4.1    C156.1,248.8,155.4,249,154.7,249L154.7,249z M155.3,239.6c-0.6,0-1.2,0.2-1.7,0.5c-1.3,0.7-2.2,2.1-2.3,3.7    c-0.2,1.6,0.4,3.1,1.4,4c0.6,0.5,1.3,0.7,2,0.7l0,0c0.6,0,1.2-0.2,1.7-0.5c1.3-0.7,2.2-2.1,2.3-3.7c0.2-1.6-0.4-3.1-1.4-4    C156.7,239.8,156,239.6,155.3,239.6L155.3,239.6z"/></g>
    <path class="st9"
          d="M151.9,234.1c-0.5,2-0.2,4.1,0.8,5.4c1,1.3,2.5,1.6,3.9,0.9c1.4-0.7,2.6-2.5,3.1-4.5c0.5-2,0.2-4.1-0.8-5.4   c-1-1.3-2.5-1.6-3.9-0.9C153.6,230.3,152.4,232,151.9,234.1L151.9,234.1z"/>
    <g><path class="st2" d="M155.2,241c-1,0-1.9-0.5-2.6-1.4c-1-1.4-1.4-3.5-0.9-5.6c0.5-2.1,1.7-3.9,3.2-4.7c1.6-0.8,3.2-0.4,4.2,1    c1,1.4,1.4,3.5,0.9,5.6c-0.5,2.1-1.7,3.9-3.2,4.7C156.3,240.8,155.7,241,155.2,241L155.2,241z M156.5,229.4    c-0.5,0-0.9,0.1-1.4,0.4c-1.4,0.7-2.5,2.4-2.9,4.3c-0.5,2-0.2,3.9,0.8,5.2c0.9,1.2,2.3,1.5,3.6,0.8c1.4-0.7,2.5-2.4,2.9-4.3    c0.5-2,0.2-3.9-0.8-5.2C158.2,229.8,157.4,229.4,156.5,229.4L156.5,229.4z"/></g>
    <path class="st10"
          d="M350.9,229.1c1.3-1.4,2.5-1.7,4-1.3c-0.5-3.6-1.7-4.8-3-4.4C350.4,223.9,349.8,225.7,350.9,229.1L350.9,229.1   z"/>
    <path class="st10"
          d="M352.8,239.9c1.4-1.3,2.6-1.6,4-0.9c-0.3-3.6-1.3-4.9-2.7-4.6C352.7,234.7,352,236.5,352.8,239.9L352.8,239.9   z"/>
    <path class="st10"
          d="M348.2,219.2c0.9-1.6,1.9-2.3,3.5-2.2c-1.4-3.3-2.8-4.2-4.1-3.5C346.4,214.3,346.3,216.2,348.2,219.2   L348.2,219.2z"/>
    <path class="st10"
          d="M343.4,209.3c0.9-1.6,1.9-2.3,3.5-2.2c-1.4-3.3-2.8-4.2-4.1-3.5C341.6,204.4,341.5,206.4,343.4,209.3   L343.4,209.3z"/>
    <path class="st10"
          d="M331.8,191.2c0.6-1.8,1.5-2.6,3.1-2.7c-1.9-3.1-3.5-3.7-4.6-2.8C329.3,186.7,329.5,188.6,331.8,191.2   L331.8,191.2z"/>
    <path class="st10"
          d="M324.3,183.4c0.5-1.8,1.4-2.7,3-2.9c-2.1-3-3.6-3.6-4.7-2.6C321.5,178.9,321.8,180.8,324.3,183.4L324.3,183.4   z"/>
    <path class="st10"
          d="M308.4,169.9c0-1.9,0.5-3,2-3.6c-2.9-2.2-4.5-2.3-5.2-1C304.4,166.5,305.2,168.3,308.4,169.9L308.4,169.9z"/>
    <path class="st10"
          d="M316.6,176.2c0.3-1.8,1.1-2.8,2.6-3.3c-2.5-2.7-4.1-3.1-5-1.9C313.3,172.1,313.8,174,316.6,176.2L316.6,176.2   z"/>
    <path class="st10"
          d="M298.9,164.7c-0.2-1.9,0.2-3,1.6-3.8c-3.1-1.9-4.8-1.8-5.3-0.5C294.6,161.8,295.6,163.4,298.9,164.7   L298.9,164.7z"/>
    <path class="st10"
          d="M289.3,160.5c-0.5-1.8-0.2-3,1-4c-3.3-1.4-5-1.1-5.3,0.3C284.6,158.2,285.8,159.7,289.3,160.5L289.3,160.5z"/>
    <path class="st10"
          d="M278.9,157.3c-0.6-1.7-0.4-3,0.7-4.1c-3.4-1.2-5-0.7-5.3,0.7C274,155.4,275.4,156.8,278.9,157.3L278.9,157.3z   "/>
    <path class="st10"
          d="M268.6,155.3c-0.8-1.7-0.7-2.9,0.4-4.1c-3.5-0.9-5.1-0.3-5.2,1.1C263.7,153.7,265.1,155,268.6,155.3   L268.6,155.3z"/>
    <path class="st10"
          d="M257.8,154.5c-0.9-1.6-1-2.9-0.1-4.1c-3.6-0.5-5.1,0.2-5.1,1.6C252.7,153.4,254.3,154.6,257.8,154.5   L257.8,154.5z"/>
    <path class="st10"
          d="M236.7,156.1c-1.3-1.3-1.6-2.5-1.1-4c-3.6,0.3-4.9,1.4-4.5,2.8C231.4,156.3,233.2,157,236.7,156.1   L236.7,156.1z"/>
    <path class="st10"
          d="M247.1,154.7c-1.1-1.5-1.3-2.7-0.5-4.1c-3.6-0.1-5,0.7-4.9,2.2C241.9,154.2,243.6,155.2,247.1,154.7   L247.1,154.7z"/>
    <path class="st10"
          d="M226.4,158.3c-1.5-1.1-2-2.3-1.6-3.8c-3.5,0.9-4.6,2.1-4.1,3.4C221.3,159.3,223.2,159.7,226.4,158.3   L226.4,158.3z"/>
    <path class="st10"
          d="M206.8,167.3c-1.7-0.8-2.4-1.9-2.3-3.5c-3.3,1.5-4.2,3-3.4,4.2C202,169.2,203.9,169.3,206.8,167.3   L206.8,167.3z"/>
    <path class="st10"
          d="M216.3,162.5c-1.6-1-2.1-2.1-1.9-3.7c-3.5,1.1-4.5,2.4-3.8,3.7C211.2,163.8,213.1,164.1,216.3,162.5   L216.3,162.5z"/>
    <path class="st10"
          d="M189.3,179.5c-1.8-0.5-2.7-1.3-3-2.9c-2.9,2.2-3.4,3.8-2.4,4.8C184.9,182.4,186.8,182.1,189.3,179.5   L189.3,179.5z"/>
    <path class="st10"
          d="M197.7,172.7c-1.8-0.6-2.6-1.5-2.8-3.1c-3.1,1.9-3.7,3.5-2.8,4.6C193.1,175.2,195,175,197.7,172.7   L197.7,172.7z"/>
    <path class="st10"
          d="M181.8,186.9c-1.8-0.3-2.8-1.1-3.2-2.6c-2.7,2.4-3.1,4-2,5C177.8,190.1,179.6,189.6,181.8,186.9L181.8,186.9z   "/>
    <path class="st10"
          d="M175.1,195.5c-1.9-0.1-2.9-0.8-3.5-2.3c-2.5,2.7-2.7,4.3-1.5,5.1C171.4,199.2,173.2,198.5,175.1,195.5   L175.1,195.5z"/>
    <path class="st10"
          d="M169.6,204.4c-1.9,0.1-3-0.4-3.8-1.7c-2,3-2,4.7-0.7,5.3C166.4,208.5,168.1,207.6,169.6,204.4L169.6,204.4z"/>
    <path class="st10"
          d="M164.7,213.8c-1.8,0.4-3,0-4-1.2c-1.6,3.2-1.4,4.9,0,5.3C162.1,218.4,163.7,217.2,164.7,213.8L164.7,213.8z"/>
    <path class="st10"
          d="M160.7,223.5c-1.7,0.7-3,0.5-4.1-0.6c-1.1,3.5-0.6,5.1,0.8,5.3C158.9,228.4,160.3,227,160.7,223.5   L160.7,223.5z"/>
    <path class="st10"
          d="M158.1,234.4c-1.7,0.8-2.9,0.7-4.1-0.3c-0.9,3.5-0.3,5.1,1.2,5.2S157.9,237.9,158.1,234.4L158.1,234.4z"/>
    <path class="st10"
          d="M157,243.4c-1.6,0.8-2.8,0.9-4.1,0.3c-0.5,2.9,0.3,4,1.7,3.9C156.1,247.5,157.2,246.2,157,243.4L157,243.4z"/>
    <path class="st10"
          d="M339.1,200.5c0.6-1.8,1.6-2.6,3.1-2.7c-1.9-3.1-3.4-3.8-4.5-2.8C336.6,195.9,336.8,197.9,339.1,200.5   L339.1,200.5z"/>
    <path class="st10"
          d="M354,250.9c1.4-1.3,2.6-1.6,4-0.9c-0.3-3.6-1.3-4.9-2.7-4.6C353.9,245.7,353.2,247.5,354,250.9L354,250.9z"/>
    <path class="st3"
          d="M339.8,192c0,0-4.1,4.1-3.4,9c0.7,5,3.8,11,3.3,16.2c-0.6,5.1-1.5,8.5-1.5,8.5s4.8-5.4,4.8-10.6   c0-5.2-3.3-12.1-3.3-15.9C339.7,195.3,339.9,191.9,339.8,192L339.8,192z"/>
    <g><path class="st2" d="M338.2,226.1c-0.1,0-0.2,0-0.2-0.1c-0.2-0.1-0.3-0.3-0.2-0.6c0,0,0.9-3.4,1.5-8.4c0.3-3.1-0.7-6.6-1.7-10    c-0.6-2.1-1.3-4.2-1.5-6.1c-0.6-4.3,2.2-7.9,3.1-8.9c0.5-0.6,0.6-0.6,0.8-0.6c0.5,0.3,0.5,0.3,0.5,2.6c0,1.3-0.1,3.1-0.1,5    c0,1.7,0.7,4.1,1.4,6.6c0.9,3,1.9,6.4,1.8,9.3c0,5.3-4.7,10.7-4.9,11C338.4,226.1,338.3,226.1,338.2,226.1L338.2,226.1z     M339.3,193.1c-0.9,1.3-2.9,4.3-2.4,7.7c0.3,1.8,0.9,3.8,1.5,5.9c1.1,3.5,2.1,7.1,1.8,10.4c-0.3,2.6-0.7,4.8-1,6.3    c1.4-2,3.3-5.3,3.3-8.5c0-2.7-0.9-6.1-1.8-9c-0.8-2.6-1.5-5-1.5-6.9c0-1.9,0-3.8,0.1-5.1C339.3,193.7,339.3,193.4,339.3,193.1    L339.3,193.1z"/></g>
    <path class="st3"
          d="M347.3,208.6c0,0-3.2,2.3-2.9,7.7c0.3,5.4,5.9,15.3,5.9,15.3s4.1,8.4,3.9,10.5c-0.1,2.2,0.8-2.1,0.4-6.9   c-0.4-4.8-6.5-15.3-6.5-15.3s-1.3-2.2-1.2-5.7C347,210.6,347.4,208.6,347.3,208.6L347.3,208.6z"/>
    <g><path class="st2" d="M354.3,243.2c-0.1,0-0.3-0.1-0.4-0.2c-0.1-0.1-0.2-0.8-0.1-0.9c0.1-1.7-2.8-8-3.9-10.3    c-0.2-0.4-5.6-10-5.9-15.5c-0.3-5.6,2.9-8.1,3.1-8.2c0.2-0.1,0.5-0.1,0.6,0c0.1,0.1,0.1,0.8,0.1,1c-0.1,0.8-0.3,2.6-0.4,5    c-0.1,3.4,1.1,5.4,1.1,5.5c0.3,0.4,6.2,10.7,6.6,15.5c0.3,3.5-0.1,7.4-0.5,7.8C354.6,243.1,354.4,243.2,354.3,243.2L354.3,243.2    L354.3,243.2z M346.7,209.9c-0.8,1.1-1.9,3.1-1.7,6.3c0.3,5.2,5.8,15,5.8,15.1c0.3,0.7,2.4,5,3.4,8.1c0.1-1.2,0.1-2.6-0.1-4.2    c-0.4-4.6-6.4-15-6.5-15.1c-0.1-0.1-1.4-2.3-1.3-6C346.5,212.3,346.6,210.9,346.7,209.9L346.7,209.9z"/></g>
    <path class="st8"
          d="M251.8,141.8c0-1.1-1.3-2-2.8-2c-1.5,0-2.8,0.9-2.8,2c0,1.1,1.3,2,2.8,2C250.5,143.8,251.8,142.9,251.8,141.8   L251.8,141.8z"/>
    <path class="st8"
          d="M253,146.5c0-1.1-1.3-1.9-2.9-1.9c-1.6,0-2.9,0.9-2.9,1.9c0,1.1,1.3,1.9,2.9,1.9   C251.7,148.4,253,147.6,253,146.5L253,146.5z"/>
    <path class="st8" d="M256.6,140.9c0,0-3.3,2.5-1.9,3.5c1.4,1,5.1-2.1,5.1-2.1L256.6,140.9z"/>
    <path class="st8"
          d="M353.4,197.5c0-0.7-0.3-1.4-0.9-1.7c-0.5-0.3-1.2-0.3-1.7,0c-0.5,0.3-0.9,1-0.9,1.7c0,0.7,0.3,1.3,0.9,1.7   c0.5,0.4,1.2,0.4,1.7,0C353.1,198.9,353.4,198.2,353.4,197.5L353.4,197.5z"/>
    <path class="st8"
          d="M352.2,192.8c0-1.2-0.8-2.1-1.8-2.1c-1,0-1.8,0.9-1.8,2.1c0,1.2,0.8,2.1,1.8,2.1   C351.4,194.9,352.2,194,352.2,192.8L352.2,192.8z"/>
    <path class="st8"
          d="M353,202.4c0-0.6-0.3-1.1-0.7-1.1c-0.4,0-0.7,0.5-0.7,1.1c0,0.6,0.3,1.1,0.7,1.1   C352.7,203.5,353,203,353,202.4L353,202.4z"/>
    <path class="st8"
          d="M356,193.8c0-0.7-0.3-1.3-0.7-1.3c-0.4,0-0.7,0.6-0.7,1.3c0,0.7,0.3,1.3,0.7,1.3   C355.6,195.1,356,194.5,356,193.8L356,193.8z"/>
    <path class="st8"
          d="M348,194.7c0-0.6-0.3-1-0.7-1c-0.4,0-0.7,0.5-0.7,1c0,0.6,0.3,1,0.7,1C347.7,195.7,348,195.3,348,194.7   L348,194.7z"/>
    <path class="st8"
          d="M349.3,201.5c0-0.9-0.7-1.6-1.5-1.6c-0.8,0-1.5,0.7-1.5,1.6c0,0.9,0.7,1.7,1.5,1.7   C348.6,203.1,349.3,202.4,349.3,201.5L349.3,201.5z"/>
    <path class="st8"
          d="M345.4,198.5c0-0.8-0.6-1.4-1.3-1.4c-0.7,0-1.3,0.6-1.3,1.4c0,0.8,0.6,1.4,1.3,1.4   C344.8,199.9,345.4,199.3,345.4,198.5L345.4,198.5z"/>
    <path class="st8"
          d="M344.7,194.5c0-0.4-0.2-0.8-0.5-1c-0.3-0.2-0.8-0.2-1.1,0c-0.3,0.2-0.6,0.6-0.6,1s0.2,0.8,0.6,1   c0.3,0.2,0.8,0.2,1.1,0C344.5,195.3,344.7,194.9,344.7,194.5L344.7,194.5z"/>
    <path class="st8"
          d="M362.6,214.8c-1.6-2.2-4.2-3.1-5.8-2c-1.6,1-1.6,3.6,0.1,5.7c1.6,2.1,4.2,3,5.8,2   C364.3,219.6,364.3,217,362.6,214.8L362.6,214.8z"/>
    <path class="st8"
          d="M367.2,254.4c0.3-2.6-1-4.9-2.9-5.2c-1.9-0.2-3.7,1.7-4,4.4c-0.3,2.6,1,4.9,2.9,5.2   C365.1,258.9,366.9,257,367.2,254.4L367.2,254.4z"/>
    <path class="st8"
          d="M368.2,277.4c0.5-2.6-0.5-5-2.4-5.4c-1.9-0.4-3.8,1.4-4.4,4c-0.5,2.6,0.5,5,2.4,5.4   C365.7,281.8,367.7,280,368.2,277.4L368.2,277.4z"/>
    <path class="st8"
          d="M372.7,255.8c0-1-0.7-1.9-1.6-1.9c-0.9,0-1.6,0.8-1.6,1.9c0,1,0.7,1.9,1.6,1.9   C372,257.7,372.7,256.9,372.7,255.8L372.7,255.8z"/>
    <path class="st8"
          d="M368.8,260.2l-3.2,3.7c0,0-3,0.1-2.9,1.1c0.2,1,4.2,3.9,4.1,5.1c0,1.2,2.7-0.3,2.7-0.3s2.2-6.6,2.2-6.6   c0,0-0.1-4.6-1.3-4.5C369.2,258.7,368.9,260.1,368.8,260.2L368.8,260.2z"/>
    <path class="st8"
          d="M156.9,258.7c0-0.8-0.7-1.5-1.5-1.5c-0.9,0-1.5,0.7-1.5,1.5c0,0.9,0.7,1.5,1.5,1.5   C156.2,260.3,156.9,259.6,156.9,258.7L156.9,258.7z"/>
    <path class="st8"
          d="M158.3,254c0-0.9-0.7-1.6-1.5-1.6c-0.8,0-1.5,0.7-1.5,1.6c0,0.9,0.7,1.6,1.5,1.6   C157.6,255.7,158.3,254.9,158.3,254L158.3,254z"/>
    <path class="st8"
          d="M145.7,231.7c-0.6-1.3-1.8-2-2.7-1.6c-0.9,0.4-1.2,1.8-0.6,3.1c0.6,1.3,1.8,2,2.7,1.6   C146,234.4,146.3,233,145.7,231.7L145.7,231.7z"/>
    <path class="st8"
          d="M149.5,245.6c-0.8-1.7-2.4-2.6-3.7-2.1c-1.2,0.5-1.6,2.3-0.8,4c0.8,1.7,2.4,2.6,3.7,2.1   C149.9,249.1,150.3,247.3,149.5,245.6L149.5,245.6z"/>
    <path class="st8"
          d="M153.6,255.8c0.3-2.1-0.6-4-1.9-4.3c-1.3-0.3-2.6,1.2-2.8,3.3c-0.3,2.1,0.6,4,1.9,4.3   C152.1,259.4,153.3,257.9,153.6,255.8L153.6,255.8z"/>
    <path class="st8"
          d="M147.1,257.3c0.8-1.9,0.5-4-0.7-4.7c-1.2-0.6-2.8,0.4-3.7,2.4c-0.8,1.9-0.5,4,0.7,4.6   C144.6,260.3,146.2,259.2,147.1,257.3L147.1,257.3z"/>
    <path class="st8"
          d="M144.1,252.9c0-1-0.8-1.8-1.7-1.8c-0.9,0-1.7,0.8-1.7,1.8c0,1,0.8,1.8,1.7,1.8   C143.3,254.7,144.1,253.9,144.1,252.9L144.1,252.9z"/>
    <path class="st8"
          d="M142.7,248.5c0-0.9-0.7-1.6-1.5-1.6c-0.8,0-1.5,0.7-1.5,1.6c0,0.9,0.7,1.6,1.5,1.6   C142,250.1,142.7,249.4,142.7,248.5L142.7,248.5z"/>
    <path class="st8"
          d="M144.2,240c0-1.5-0.7-2.7-1.5-2.7c-0.8,0-1.5,1.2-1.5,2.7c0,1.5,0.7,2.7,1.5,2.7   C143.5,242.7,144.2,241.5,144.2,240L144.2,240z"/>
    <path class="st8"
          d="M148.8,239.3c0.2-1.5-0.3-2.8-1.1-2.9c-0.8-0.1-1.6,1-1.8,2.5c-0.2,1.5,0.3,2.8,1.1,2.9   C147.7,241.9,148.6,240.8,148.8,239.3L148.8,239.3z"/>
    <path class="st8"
          d="M181.4,174.1c0.6-2.1,0-4.2-1.4-4.7c-1.4-0.5-3,0.8-3.6,2.9c-0.6,2.1,0,4.2,1.4,4.7   C179.2,177.5,180.8,176.2,181.4,174.1L181.4,174.1z"/>
    <path class="st8"
          d="M175.2,183.5c1.8-1.6,2.6-3.7,1.7-4.8c-0.9-1.1-3-0.7-4.9,0.8c-1.8,1.6-2.6,3.7-1.7,4.8   C171.2,185.4,173.4,185.1,175.2,183.5L175.2,183.5z"/>
    <path class="st8"
          d="M171.6,178.3c1.8-1.3,2.6-3.2,1.7-4.1c-0.9-0.9-3-0.6-4.8,0.7c-1.8,1.3-2.6,3.2-1.7,4.1   C167.7,179.9,169.8,179.6,171.6,178.3L171.6,178.3z"/>
    <path class="st8"
          d="M185.6,169.1c1.2-0.9,1.7-2.2,1.2-2.9c-0.6-0.6-2-0.4-3.2,0.5c-1.2,0.9-1.7,2.2-1.2,2.9   C182.9,170.3,184.4,170,185.6,169.1L185.6,169.1z"/>
    <path class="st8"
          d="M178.3,178c0.8-1.3,0.9-2.7,0.1-3.1c-0.8-0.4-2.1,0.3-2.9,1.6c-0.8,1.3-0.9,2.7-0.1,3.1   C176.2,180,177.5,179.3,178.3,178L178.3,178z"/>
    <path class="st8"
          d="M188.8,172.5c1.3-1.1,1.8-2.6,1.1-3.3c-0.7-0.7-2.3-0.4-3.6,0.7c-1.3,1.1-1.8,2.5-1.1,3.2   C185.9,173.9,187.5,173.6,188.8,172.5L188.8,172.5z"/>
    <path class="st8"
          d="M169.8,185.3c1.2-0.1,2.1-0.7,2.1-1.4c-0.1-0.7-1.1-1.2-2.4-1.1c-1.2,0.1-2.1,0.7-2.1,1.4   C167.5,184.9,168.6,185.4,169.8,185.3L169.8,185.3z"/>
    <path class="st8"
          d="M192.8,165.7c0.8-1.3,0.9-2.7,0.1-3.1c-0.8-0.4-2.1,0.3-2.9,1.6c-0.8,1.3-0.9,2.7-0.1,3.1   C190.7,167.7,192,167,192.8,165.7L192.8,165.7z"/>
    <path class="st4"
          d="M331.2,204.6c0,0,3.8-6,2.3-11.6c-1.5-5.6-7.7-1.7-7.6,0.3c0.1,2,4,4.7,4.3,5.9   C330.5,200.5,329.8,204.3,331.2,204.6L331.2,204.6z"/>
    <g><path class="st5" d="M331.3,204.9l-0.2,0c-1.2-0.3-1.2-2.4-1.1-4c0-0.6,0-1.2,0-1.6c-0.1-0.4-0.9-1.2-1.6-2    c-1.2-1.3-2.6-2.7-2.7-3.9c0-0.5,0.2-1.1,0.8-1.7c0.8-0.9,2.4-1.8,3.9-1.8c1,0,2.7,0.4,3.4,3.1c1.5,5.7-2.2,11.6-2.4,11.8    L331.3,204.9L331.3,204.9z M330.4,190.3c-1.4,0-2.8,0.8-3.5,1.7c-0.4,0.5-0.7,1-0.7,1.3c0.1,1.1,1.4,2.5,2.5,3.6    c0.9,0.9,1.6,1.7,1.7,2.3c0.1,0.4,0.1,1,0.1,1.7c0,1.3,0,3,0.6,3.4c0.6-1.1,3.5-6.3,2.2-11.2C332.8,191.3,331.8,190.3,330.4,190.3    L330.4,190.3z"/></g>
    <path class="st3"
          d="M258.9,154.8c0,0,13.6,0.5,13.7,9.4c0,1.4,0,3-0.5,6.9c2.7-1.5,4.5-5.5,4.2-8.1   C276.3,154,264.1,147.8,258.9,154.8L258.9,154.8z"/>
    <g><path class="st2" d="M272.1,171.7c-0.1,0-0.2,0-0.3-0.1c-0.2-0.1-0.3-0.4-0.3-0.6c0.4-3.2,0.4-4.9,0.5-6.1l0-0.8    c-0.1-8.1-13-8.7-13.1-8.7c-0.2,0-0.4-0.1-0.5-0.4c-0.1-0.2-0.1-0.5,0.1-0.6c3.3-4.4,10.6-4,15.1,0.5c2.2,2.2,3.5,5.1,3.5,8    c0.4,2.7-1.5,7-4.5,8.7C272.3,171.7,272.2,171.7,272.1,171.7L272.1,171.7z M260.2,154.2c3.5,0.4,13,2.1,13.1,9.9l0,0.8    c0,1.1-0.1,2.5-0.3,4.9c1.9-1.7,3-4.8,2.8-6.7c0-2.7-1.1-5.2-3.1-7.2c-2.1-2.1-5-3.4-7.6-3.4C263.6,152.4,261.7,152.7,260.2,154.2    L260.2,154.2z"/></g>
    <path class="st3"
          d="M250.2,154.4c0,0,11-2.3,11.1,6.5c0.1,8.8-3.5,10.2-3.5,10.2s8.4-1.8,8.5-10.8   C266.4,151.4,255.5,147.4,250.2,154.4L250.2,154.4z"/>
    <g><path class="st2" d="M257.8,171.8c-0.3,0-0.5-0.2-0.6-0.4c-0.1-0.3,0.1-0.6,0.3-0.8c0,0,3.2-1.5,3.1-9.7c0-5.1-4.1-6.2-7.5-6.2    c-1.6,0-2.8,0.3-2.9,0.3c-0.2,0-0.5-0.1-0.6-0.3c-0.1-0.2-0.1-0.5,0-0.7c3.4-4.6,10.4-4.8,14.3-0.9c1.9,1.9,2.9,4.5,2.9,7.3    c0,9.3-8.9,11.4-9,11.4C257.9,171.8,257.9,171.8,257.8,171.8L257.8,171.8z M253.2,153.5c5.6,0,8.7,2.6,8.7,7.4    c0,4.5-0.8,7.1-1.8,8.7c2.3-1.2,5.5-3.9,5.5-9.2c0-3.2-1.4-5.2-2.5-6.4c-3.1-3.1-8.3-3.3-11.4-0.5    C252.2,153.5,252.7,153.5,253.2,153.5L253.2,153.5z"/></g>
    <path class="st11" d="M287.6,344.9c0,0,51.5-14.5,67-77.7c-9,64.9-65.4,85.4-65.4,85.4L287.6,344.9z"/>
    <g><path class="st2" d="M289.3,352.9c0,0-0.1,0-0.1,0c-0.1,0-0.1-0.1-0.1-0.2l-1.7-7.7c0.7-0.4,51.7-15.5,67-77.8    C345.9,331.5,289.9,352.7,289.3,352.9C289.3,352.9,289.3,352.9,289.3,352.9L289.3,352.9z M354.4,267.2    c-14.9,62.7-66.2,77.9-66.7,78l1.8,7.1C293.7,350.6,345.8,328.8,354.4,267.2L354.4,267.2z"/></g>
    <path class="st12"
          d="M292.9,348.9c1.6,0,5.5-4.4,7.8-4.9c2.3-0.5,2.5-2.8-0.1-2.8c-2.6-0.1-4.9,2.9-4.9,2.9s-2.3,1.9-4.6,2.2   S290.3,349.5,292.9,348.9L292.9,348.9z"/>
    <path class="st12"
          d="M322.5,326.8c0,0-5.4,3.1-4.6,3.8c0.7,0.8,5.5-2.9,5.6-3C323.6,327.5,325.5,325.2,322.5,326.8L322.5,326.8z"/>
    <g><path class="st12" d="M318.2,331L318.2,331l-0.5-0.2c0-1.5,3.9-3.8,4.7-4.2c0.8-0.4,1.3-0.6,1.6-0.6c0.7,0.8-0.3,1.8-0.3,1.8    C323.6,327.9,319.6,331,318.2,331L318.2,331z M324,326.4c-0.1,0.1-0.5,0.1-1.3,0.6c-2.5,1.5-4.6,3-4.5,3.4l0.1,0    c1.1,0,4.8-2.7,5.1-3C323.5,327.2,324,326.6,324,326.4L324,326.4z"/></g>
    <path class="st12"
          d="M303.9,340.8c0,0-1.6-0.6,2.5-2.2c4.1-1.6,3.9-3.4,5.2-4.2c1.3-0.8,4.2-2.8,4.8-1.6c0.6,1.2-3,3.5-3.8,3.8   c-0.8,0.3-4.9,4-6.1,4.4C305.2,341.3,304.3,341.2,303.9,340.8L303.9,340.8z"/>
    <g><path class="st12" d="M326.9,323.2c0,0-0.1,0-0.1,0l0.3-0.8c-0.4,0,0.1-0.5,3-3.8c0.2-0.2,0.4-0.2,0.6,0c0.2,0.2,0.2,0.4,0,0.6    C327.7,322.7,327.2,323.2,326.9,323.2L326.9,323.2z"/></g>
    <g><path class="st12" d="M332.4,316.9c-0.1,0-0.2,0-0.2-0.1c-0.2-0.1-0.2-0.4-0.1-0.5l3.3-4.1c0.1-0.2,0.4-0.2,0.5-0.1    c0.2,0.1,0.2,0.4,0.1,0.5l-3.3,4.1C332.6,316.9,332.5,316.9,332.4,316.9L332.4,316.9z"/></g>
    <g><path class="st12" d="M337.3,310.5c-0.1,0-0.1,0-0.2-0.1c-0.2-0.1-0.2-0.3-0.1-0.5l3.8-6c0.1-0.2,0.3-0.2,0.5-0.1    c0.2,0.1,0.2,0.3,0.1,0.5l-3.8,6C337.5,310.4,337.4,310.5,337.3,310.5L337.3,310.5z"/></g>
    <g><path class="st12" d="M342.4,302c0,0-0.1,0-0.1,0c-0.2-0.1-0.2-0.3-0.1-0.4l3.1-6.2c0.1-0.2,0.3-0.2,0.4-0.1    c0.2,0.1,0.2,0.3,0.1,0.4l-3.1,6.2C342.6,302,342.5,302,342.4,302L342.4,302z"/></g>
    <g><path class="st12" d="M346.5,293.5c0,0-0.1,0-0.1,0c-0.2-0.1-0.2-0.3-0.2-0.4l1-2.2c0.1-0.2,0.3-0.2,0.4-0.2    c0.2,0.1,0.2,0.3,0.2,0.4l-1,2.2C346.7,293.4,346.6,293.5,346.5,293.5L346.5,293.5z"/></g>
    <g><path class="st7" d="M349.7,285.1l-0.8,2.6L349.7,285.1z"/></g>
    <path class="st11" d="M220.1,343.6c0,0-51-14.8-66.4-79.1c8.9,66,64.7,87,64.7,87L220.1,343.6z"/>
    <g><path class="st2" d="M218.5,351.7C218.4,351.7,218.4,351.7,218.5,351.7c-0.6-0.2-56.1-21.8-65-87.2c15.7,63.3,66.2,78.7,66.7,78.8    l-1.5,8.1c0,0.1-0.1,0.1-0.1,0.2C218.6,351.6,218.5,351.7,218.5,351.7L218.5,351.7z M153.5,264.5c9,62.6,60.5,84.8,64.8,86.5    l1.6-7.5h0C219.1,343.5,168.7,327.9,153.5,264.5L153.5,264.5z"/></g>
    <path class="st12"
          d="M214.9,347.6c-1.6,0-5.5-4.4-7.7-4.9c-2.2-0.5-2.5-2.8,0.1-2.9c2.6-0.1,4.8,3,4.8,3s2.2,2,4.6,2.2   C219,345.2,217.5,348.2,214.9,347.6L214.9,347.6z"/>
    <path class="st12"
          d="M185.5,325.1c0,0,5.3,3.1,4.6,3.9c-0.8,0.8-5.5-3-5.6-3.1C184.5,325.8,182.6,323.4,185.5,325.1L185.5,325.1z"/>
    <g><path class="st12" d="M189.8,329.4c-1.4,0-5.4-3.2-5.4-3.2c0,0-0.9-1.1-0.7-1.6c0.8-0.3,1.3-0.1,2,0.3c0.8,0.5,4.6,2.8,4.8,3.9    L189.8,329.4L189.8,329.4z M184.1,324.8c0,0.1,0.4,0.8,0.6,1c0.4,0.3,4,3.1,5.1,3.1v0.3l0.1-0.3c0.1-0.4-2-2-4.5-3.5    C184.6,324.8,184.2,324.8,184.1,324.8L184.1,324.8z"/></g>
    <path class="st12"
          d="M204,339.4c0,0,1.6-0.6-2.5-2.2c-4.1-1.6-3.8-3.5-5.1-4.3c-1.3-0.8-4.1-2.8-4.7-1.6c-0.6,1.2,3,3.6,3.8,3.8   c0.8,0.3,4.9,4.1,6.1,4.4C202.7,339.9,203.5,339.7,204,339.4L204,339.4z"/>
    <g><path class="st12" d="M181.1,321.4c-0.3,0-0.7-0.5-3.8-4.1c-0.2-0.2-0.1-0.4,0-0.6c0.2-0.1,0.4-0.1,0.6,0c2.9,3.3,3.4,3.8,3.4,3.9    l-0.3,0.3l0.1,0.4C181.2,321.4,181.2,321.4,181.1,321.4L181.1,321.4z"/></g>
    <g><path class="st12" d="M175.7,315.1c-0.1,0-0.2,0-0.3-0.1l-3.3-4.2c-0.1-0.2-0.1-0.4,0.1-0.5c0.2-0.1,0.4-0.1,0.5,0.1l3.3,4.2    c0.1,0.2,0.1,0.4-0.1,0.5C175.9,315,175.8,315.1,175.7,315.1L175.7,315.1z"/></g>
    <g><path class="st12" d="M170.9,308.5c-0.1,0-0.2-0.1-0.3-0.2l-3.7-6.1c-0.1-0.2,0-0.4,0.1-0.5c0.2-0.1,0.4,0,0.5,0.1l3.7,6.1    c0.1,0.2,0,0.4-0.1,0.5C171.1,308.4,171,308.5,170.9,308.5L170.9,308.5z"/></g>
    <g><path class="st12" d="M165.9,299.9c-0.1,0-0.2-0.1-0.3-0.2l-3.1-6.3c-0.1-0.2,0-0.3,0.2-0.4c0.1-0.1,0.3,0,0.4,0.2l3.1,6.3    c0.1,0.2,0,0.3-0.2,0.4C166,299.9,165.9,299.9,165.9,299.9L165.9,299.9z"/></g>
    <g><path class="st12" d="M161.8,291.2c-0.1,0-0.2-0.1-0.3-0.2l-1-2.2c-0.1-0.2,0-0.4,0.2-0.4c0.2-0.1,0.4,0,0.4,0.2l1,2.2    c0.1,0.2,0,0.4-0.2,0.4C161.9,291.2,161.8,291.2,161.8,291.2L161.8,291.2z"/></g>
    <g><path class="st7" d="M158.6,282.6l0.8,2.6L158.6,282.6z"/></g>
    <path class="st3"
          d="M357.1,255.6c0.3,4,4.1,7.8,2.6,14.7c-1.9,7.8-8.8,26.5-7.6,29.8c-2-2.8-1.7-5.4-1.9-9.3   c-0.2-3.9,5.7-18.3,6.2-23.2C356.4,263.2,356.8,257.2,357.1,255.6L357.1,255.6z"/>
    <g><path class="st2" d="M352.1,300.6c-0.2,0-0.4-0.1-0.5-0.3c-1.8-2.5-1.9-4.8-1.9-7.8l-0.1-1.9c-0.1-2.2,1.5-7.2,3.2-12.4    c1.4-4.2,2.8-8.6,3-10.8c0-4.2,0.4-10.3,0.7-12c0.1-0.3,0.3-0.5,0.6-0.5c0.3,0,0.6,0.3,0.6,0.6c0.1,1.3,0.6,2.6,1.2,4.1    c1.1,2.7,2.4,6.1,1.4,10.7c-0.6,2.5-1.8,6.2-3,10.1c-2.3,7.3-5.4,17.3-4.6,19.3c0.1,0.3,0,0.6-0.3,0.8    C352.3,300.6,352.2,300.6,352.1,300.6L352.1,300.6z M357.3,259.1c-0.2,2.5-0.3,5.7-0.3,8.4c-0.2,2.4-1.6,6.6-3,11.1    c-1.6,4.9-3.2,10-3.1,12l0.1,1.9c0,1.9,0.1,3.4,0.5,4.9c0.5-3.6,2.3-9.7,4.7-17.3c1.2-3.9,2.3-7.5,3-10c0.9-4.2-0.3-7.3-1.3-10    C357.6,259.8,357.5,259.5,357.3,259.1L357.3,259.1z"/></g>
    <path class="st3"
          d="M357.1,255.7c0,0,6.3,8,6,14.3c-0.3,6.3-3.9,13.7-2.7,17c-2-2.8-2.5-4.6-2.7-8.4c-0.2-3.9,3.1-8.2,2.4-12.4   C359.4,262,357,255.7,357.1,255.7L357.1,255.7z"/>
    <g><path class="st2" d="M360.3,287.7c-0.2,0-0.4-0.1-0.5-0.3c-2-2.8-2.6-4.7-2.8-8.8c-0.1-1.9,0.6-3.8,1.3-5.7    c0.8-2.2,1.5-4.4,1.2-6.6c-0.5-3.1-2-7.5-2.7-9.4c-0.5-1.3-0.5-1.3-0.3-1.6c0.1-0.2,0.4-0.3,0.5-0.3c0.2,0,0.4,0.1,0.5,0.2    c0.3,0.3,6.5,8.3,6.1,14.7c-0.2,2.9-1,6-1.7,8.7c-0.8,3.3-1.7,6.4-1.1,8c0.1,0.3,0,0.6-0.3,0.8    C360.5,287.6,360.4,287.7,360.3,287.7L360.3,287.7z M359.1,259.8c0.6,2,1.3,4.4,1.6,6.3c0.4,2.4-0.4,4.9-1.2,7.2    c-0.6,1.9-1.3,3.6-1.2,5.3c0.1,2.8,0.4,4.4,1.3,6c0.1-1.7,0.7-3.8,1.3-6.1c0.7-2.7,1.5-5.8,1.6-8.5    C362.6,266.6,360.8,262.6,359.1,259.8L359.1,259.8z"/></g>
    <path class="st3"
          d="M149.9,257.4c-0.3,4-3.2,7.5-1.7,14.4c1.9,7.9,8.9,17.8,7.8,29.2c2-2.8,2.6-5.9,2.8-9.8   c0.2-3.9-7.7-16.9-8.2-21.8C150.6,265,150.2,259,149.9,257.4L149.9,257.4z"/>
    <g><path class="st2" d="M156,301.7c-0.1,0-0.2,0-0.2,0c-0.3-0.1-0.4-0.4-0.4-0.6c0.7-7.6-2.2-14.5-4.7-20.7c-1.2-2.9-2.4-5.7-3-8.3    c-1-4.7-0.1-7.9,0.8-10.7c0.4-1.4,0.8-2.6,0.9-3.9c0-0.3,0.3-0.6,0.6-0.6c0.4,0,0.6,0.2,0.6,0.5c0.3,1.7,0.7,7.8,0.7,12.1    c0.2,2.2,2.2,6.5,4.1,10.7c2.1,4.7,4.1,9,4.1,11.2c-0.1,3.4-0.6,7-2.9,10.1C156.4,301.6,156.2,301.7,156,301.7L156,301.7z     M149.7,261.4c0,0.1,0,0.2-0.1,0.2c-0.8,2.7-1.7,5.7-0.8,10.1c0.6,2.5,1.8,5.2,3,8.1c2.3,5.6,4.9,11.8,4.9,18.7    c1-2.4,1.3-4.9,1.4-7.3c0.1-1.8-2-6.3-3.9-10.6c-2-4.2-4-8.7-4.2-11.1C150,266.9,149.8,263.8,149.7,261.4L149.7,261.4z"/></g>
    <path class="st3"
          d="M149.9,257.5c0,0-6.2,7.8-5.8,14.1c0.1,4.2,7.8,21.8,6.7,25.1c2-2.8,2.6-2.4,2.5-6.7   c-2.3-10.8-6.3-17.7-5.6-21.9C148.3,263.9,150,257.5,149.9,257.5L149.9,257.5z"/>
    <g><path class="st2" d="M150.8,297.4c-0.1,0-0.2,0-0.3-0.1c-0.3-0.1-0.4-0.5-0.3-0.8c0.6-1.7-1.7-8.5-3.6-13.9    c-1.7-4.9-3.1-9.1-3.1-11c-0.3-6.5,5.7-14.2,6-14.5c0.1-0.2,0.3-0.2,0.5-0.2l0,0c0.2,0,0.4,0.1,0.5,0.2c0.2,0.3,0.2,0.3-0.3,2.4    c-0.5,2.2-1.4,6-1.9,8.8c-0.3,2.2,0.7,5.3,2.1,9.3c1.1,3.3,2.5,7.5,3.6,12.3c0.1,3.6-0.3,4.2-1.6,5.8c-0.3,0.4-0.6,0.8-1,1.3    C151.1,297.3,151,297.4,150.8,297.4L150.8,297.4z M148.6,260.5c-1.7,2.8-4.1,7.2-3.9,11.1c0,1.8,1.6,6.3,3.1,10.6    c1.9,5.7,3.4,10,3.7,12.6c1-1.3,1.3-1.7,1.2-4.8c-1-4.7-2.4-8.8-3.5-12.1c-1.5-4.3-2.5-7.5-2.1-9.9    C147.4,265.7,148.1,262.7,148.6,260.5L148.6,260.5z"/></g>
    <polygon class="st1"
             points="255.1,186.6 270.4,233.7 320,233.7 279.9,262.9 295.2,310.1 255.1,280.9 215,310.1 230.3,262.9    190.2,233.7 239.8,233.7  "/>
    <g><path class="st2" d="M295.2,310.4c-0.1,0-0.2,0-0.2-0.1l-40.1-29.1l-39.6,29.1c-0.1,0.1-0.3,0.1-0.5,0c-0.1-0.1-0.2-0.3-0.1-0.4    l15.3-47.2l-40-28.7c-0.1-0.1-0.2-0.3-0.1-0.4c0.1-0.2,0.2-0.3,0.4-0.3h49.6l14.9-46.9c0.1-0.3,0.6-0.3,0.7,0l15.3,47.2l49.2-0.3    c0.2,0,0.3,0.1,0.4,0.3c0.1,0.2,0,0.3-0.1,0.4l-40.1,29.2l15.5,46.7c0.1,0.2,0,0.3-0.1,0.4C295.3,310.4,295.3,310.4,295.2,310.4    L295.2,310.4z M254.8,280.6l39.6,28.5l-15-46l39.3-28.9h-48.4l-15.3-46.3l-15,46l-48.8,0.3l39.2,28.5l-14.8,46.5L254.8,280.6    L254.8,280.6z"/></g></g></svg>
