<?xml version="1.0" ?>
<svg id="Layer_1" style="enable-background:new 0 0 512 512;" version="1.1" viewBox="0 0 512 512" xml:space="preserve"
     xmlns="http://www.w3.org/2000/svg"><style type="text/css">
	.st0 {
    fill: #273B8C;
  }

  .st1 {
    fill: #FFFFFF;
  }

  .st2 {
    fill: #BD1F34;
  }

  .st3 {
    fill: #F4D130;
  }
</style>
  <g id="XMLID_1_"><rect class="st0" height="298.7" id="XMLID_14_" width="512" y="106.7"/>
    <rect class="st1" height="74.7" id="XMLID_13_" width="512" y="256"/>
    <rect class="st2" height="24.9" id="XMLID_12_" width="512" y="280.9"/>
    <polygon class="st3" id="XMLID_11_"
             points="190.4,203.7 187,214.1 176.2,214.1 185,220.4 181.6,230.7 190.4,224.4 199.2,230.7    195.8,220.4 204.6,214.1 193.8,214.1  "/>
    <polygon class="st3" id="XMLID_10_"
             points="146.5,218 143.2,228.3 132.3,228.3 141.1,234.7 137.7,245 146.5,238.6 155.3,245    151.9,234.7 160.7,228.3 149.9,228.3  "/>
    <polygon class="st3" id="XMLID_9_"
             points="119.4,255.3 116,265.6 105.2,265.6 114,272 110.6,282.3 119.4,276 128.2,282.3    124.8,272 133.6,265.6 122.7,265.6  "/>
    <polygon class="st3" id="XMLID_8_"
             points="119.4,301.5 116,311.8 105.2,311.8 114,318.2 110.6,328.5 119.4,322.1 128.2,328.5    124.8,318.2 133.6,311.8 122.7,311.8  "/>
    <polygon class="st3" id="XMLID_7_"
             points="146.5,338.8 143.2,349.1 132.3,349.1 141.1,355.5 137.7,365.8 146.5,359.4 155.3,365.8    151.9,355.5 160.7,349.1 149.9,349.1  "/>
    <polygon class="st3" id="XMLID_6_"
             points="190.4,353.1 187,363.4 176.2,363.4 185,369.8 181.6,380.1 190.4,373.7 199.2,380.1    195.8,369.8 204.6,363.4 193.8,363.4  "/>
    <polygon class="st3" id="XMLID_5_"
             points="234.3,338.8 230.9,349.1 220.1,349.1 228.9,355.5 225.5,365.8 234.3,359.4 243.1,365.8    239.7,355.5 248.5,349.1 237.6,349.1  "/>
    <polygon class="st3" id="XMLID_4_"
             points="261.4,255.3 258.1,265.6 247.2,265.6 256,272 252.6,282.3 261.4,276 270.2,282.3    266.8,272 275.6,265.6 264.8,265.6  "/>
    <polygon class="st3" id="XMLID_3_"
             points="261.4,301.5 258.1,311.8 247.2,311.8 256,318.2 252.6,328.5 261.4,322.1 270.2,328.5    266.8,318.2 275.6,311.8 264.8,311.8  "/>
    <polygon class="st3" id="XMLID_2_"
             points="234.3,218 230.9,228.3 220.1,228.3 228.9,234.7 225.5,245 234.3,238.6 243.1,245    239.7,234.7 248.5,228.3 237.6,228.3  "/></g></svg>
