<?xml version="1.0" ?>
<svg id="Layer_1" style="enable-background:new 0 0 512 512;" version="1.1" viewBox="0 0 512 512" xml:space="preserve"
     xmlns="http://www.w3.org/2000/svg"><style type="text/css">
	.st0 {
    fill: #231E5F;
  }

  .st1 {
    fill: #FFFFFF;
  }

  .st2 {
    fill: #BD1F34;
  }

  .st3 {
    fill: #A0C0E5;
  }

  .st4 {
    fill: #5069B1;
  }

  .st5 {
    fill: #583615;
  }

  .st6 {
    fill: #F4EB32;
  }

  .st7 {
    fill: #C16228;
  }

  .st8 {
    fill: #4EB748;
  }

  .st9 {
    fill: #6FC060;
  }

  .st10 {
    fill: #010101;
  }

  .st11 {
    fill: #DA1E3A;
  }
</style>
  <g><rect class="st0" height="298.7" width="512" y="106.7"/>
    <polygon class="st1"
             points="224.5,106.7 149,144.3 149,106.7 106.4,106.7 106.4,144.3 30.9,106.7 0,106.7 0,122.2 54,149.3    0,149.3 0,192 54,192 0,219.1 0,234.7 30.9,234.7 106.4,197 106.4,234.7 149,234.7 149,197 224.5,234.7 255.6,234.7 255.6,219.1    201.4,192 255.6,192 255.6,149.3 201.4,149.3 255.6,122.2 255.6,106.7  "/>
    <polygon class="st2" points="235.5,106.7 150.2,149.3 170.6,149.3 255.6,106.7  "/>
    <polygon class="st2" points="255.6,234.7 170.6,192 191.1,192 255.6,224.5  "/>
    <polygon class="st2" points="0,116.8 64.9,149.3 85.5,149.3 0,106.7  "/>
    <polygon class="st2" points="85.3,192 0,234.7 20.4,234.7 105.7,192  "/>
    <polygon class="st2"
             points="115.5,106.7 115.5,158.2 0,158.2 0,183.2 115.5,183.2 115.5,234.7 140.5,234.7 140.5,183.2    255.6,183.2 255.6,158.2 140.5,158.2 140.5,106.7  "/>
    <path class="st3" d="M426.2,232.4c-0.1,29-4.7,60.3-42.2,75.2c-37.6-14.9-42.2-46.2-42.2-75.2H426.2z"/>
    <g><path class="st1" d="M384,308.6l-0.3-0.1c-37.5-14.9-42.7-45.3-42.8-76.1l0-0.9h86.3l0,0.9c-0.1,30.7-5.3,61.2-42.8,76.1    L384,308.6L384,308.6z M342.7,233.3c0.2,29.7,5.5,59,41.3,73.4c35.8-14.4,41.2-43.7,41.3-73.4H342.7L342.7,233.3z"/></g>
    <path class="st4"
          d="M384,307.6c17-6.8,27.3-16.9,33.4-28.6c-0.9,0-2.8,0-3.7-0.1c-0.9-0.1-36-3.6-40.2-5.1   c-3.6-1.3-17.4,1.1-23.9,3.4C355.7,289.7,366.1,300.5,384,307.6L384,307.6z"/>
    <path class="st5"
          d="M357.7,289.6c0.6-0.2,1.7-0.1,2.1-0.1c0.5,0.1,0.6,0.1,0.8-0.4c0.2-0.6,0.6-0.4,0.9-0.1   c0.3,0.3,1.2,0.1,1.5-0.3c0.3-0.5,0.4-0.4,0.7-0.1c0.3,0.3,0.5,0.2,0.8,0.1c0.3-0.1,0.9-0.5,1.2-1c0.3-0.5,0.7-0.7,0.9-0.4   c0.2,0.3,0.5,0.4,0.8,0.4c0.3,0,0.4,0.3,0.4,0.7c0,0.4,0.1,0.5,0.9-0.1c0.7,0.7,0.9,0.4,0.9-0.3c0-0.7-0.2-3.5-0.5-3.8   c-0.3-0.4-0.6-1.4-0.6-2.3c-0.1-1.6-0.1-1.7-2-2.6c0-0.6-0.1-0.8-1.5-0.7c0-0.2-0.2-0.7-0.5-1c-0.3-0.2-0.3-0.3-0.2-1   c0.6,0,1.2,0,1.5-0.5c0.3-0.5,1.4-0.4,2-0.1c0.6,0.3,1.5,0.3,2.7,0.1c0.5-0.4,1.3-0.8,2.1-1.3c0.8-0.5,1.1-0.6,1.1-1.3   c0.1-1.7-0.5-3.6-0.9-4.4c-0.5-0.9-0.6-2-1.2-3.4c-0.7-1.5-0.7-1.9-1.5-2.8c-0.2-0.3-0.5-0.5-0.5-1c0-0.5-0.2-1.2-0.8-1.7   c-1.4-1.3-1.9-5.4-2.5-8.5c-0.3-1.7-0.1-5.9-0.8-6.5c-1.3-1-1.9-0.8-2.7-1.2c-0.6-0.8-0.9-2.5-1.4-4c-0.9,0.1-1.5,1.1-2.1,1.4   c-0.6,0.3-0.7,0.3-0.7,1.2c0,0.8-0.5,2-1.3,3.3c-0.8,1.3-2.2,0.9-3.4,2.9c-2.5-3.1-2.6-4-2.8-4.9c-0.2-0.9-0.6-1.1-2-2.3   c0-0.4-0.2-1.9,0-2.7c-1.1-0.9-1.8-0.7-2.4-0.1c-0.5,0.6-0.9,1.6-1.7,2c-0.5,0.6-1.9,2.1-3.1,3.9   C343.2,260.9,346.8,276.8,357.7,289.6L357.7,289.6z"/>
    <path class="st6"
          d="M426.2,232.4c0-10.9-0.6-21.6-0.3-30.9c-14-6.3-32.5-7.6-41.9-7.6c-9.4,0-27.9,1.3-41.9,7.6   c0.3,9.3-0.3,19.9-0.3,30.9H426.2z"/>
    <g><path class="st1" d="M427.1,233.2h-86.2l0-0.9c0-4.7,0.1-9.4,0.2-14c0.1-6,0.3-11.6,0.1-16.9l0-0.6l0.5-0.2    c15.9-7.1,36.4-7.7,42.3-7.7c5.9,0,26.4,0.6,42.3,7.7l0.5,0.2l0,0.6c-0.2,5.3,0,10.9,0.1,16.9c0.1,4.5,0.2,9.2,0.2,14L427.1,233.2    L427.1,233.2z M342.6,231.5h82.7c0-4.4-0.1-8.8-0.2-13.1c-0.1-5.8-0.3-11.2-0.1-16.4c-15.5-6.7-35.3-7.3-41.1-7.3    c-5.8,0-25.6,0.5-41.1,7.3c0.1,5.1,0,10.6-0.1,16.4C342.7,222.7,342.6,227.1,342.6,231.5L342.6,231.5z"/></g>
    <path class="st7"
          d="M344,245c0.5,0.7,1.3,2,1.4,2.7c0.3-0.7,0.6-1,0.6-1.4c0.1-0.4,0.6-1.2,0.4-1.7c-0.2-0.4-0.3-0.8,0.2-0.5   c0.5,0.3,0.4,0.9,0.3,1.7c-0.3,2.3-1.3,2.7-1.4,4.3c1.4,3.2,0.3,4.4,1.8,7.5c0.2,0.1,0.8-0.1,1-0.1c0.8-0.6,1.4-0.3,2.5-0.1   c1.1,0.2,1.7,1,1.7,1.7c0,0.7,0,0.9,0.2,1.3c0.2,0.4,0.7,1.1,0.6,1.5c-0.1,0.5,0.1,0.7,0.2,1c0.1,0.2,0,0.7-0.2,1.1   c-0.1,0.3-0.1,0.7,0.5,1.4c0.6,0.7,1.9,3.6,1.9,5.3c0,1.7,0.1,2.5,0.8,2.8c0.7,0.3,0.9,0.6,0.8,1.3c-0.1,0.7,0.3,4.6,0.4,5.2   c0.1,0.6,0.3,0.5,0.6,0.8c0.3,0.3,0.5,0.7,1.4,0.7s1.8-0.1,2.4,0c0.8,1.2,1.3,2.7,1.5,3.7c0.2,1,0.2,2.3,0.5,2.3   c0.3,0,0.6,0,0.6-1.2c-0.1-1.2-0.2-1.4-0.6-2c-0.4-0.6-0.6-0.9-0.4-1.2c0.2-0.4,0.3-1,0.2-1.4c-0.1-0.5-0.2-1.2,0.6-0.2   c0.8,0.9,1,1.2,1.3,1.5c0.2,0.3,0.3,0.9,0.3,1.5c0,0.6,0,0.8,0.4,0.5c0.3-0.3,0.7,0.2,0.6,0.8c-0.2,0.6,0,1,0.6,1.2   c0.6,0.2,0.8,0.3,0.9,0.7c0.1,0.4,0.6,0.6,0.6-0.2c0-0.8-0.3-2.6-0.6-3.1c-0.2-0.6-0.4-1.8-0.5-2.5c0-0.7-0.2-0.9-0.5-1   c-0.3-0.1-0.6-0.4-0.6-0.7s-0.3-0.4-0.5-0.4c-0.2,0-0.4-0.2-0.5-0.4c-0.1-0.2-0.2-0.3-0.5-0.3c-0.2,0-0.6,0.1-0.7-0.3   c-0.1-0.4-0.3-0.9-0.5-1.2c-0.2-0.3-0.4-0.4-0.5-1.4c0-1,0-1.2-0.4-1.6c-0.3-0.4-0.9-1.3-1.1-1.8c-0.2-0.4-0.5-0.8-0.5,0   c0,0.9,0,1.3,0.6,1.7c0.6,0.3,0.7,0.3,0.5,0.8c-0.2,0.5,0,0.8,0.1,1.1c0.1,0.3,0.3,0.6,0,1c-0.3,0.3-0.6,0.2-0.5-0.3   c0-0.5-0.1-1.1-0.4-1.5c-0.2-0.4-0.4-0.7-0.7-0.5c-0.3,0.2-0.5,0-0.3-0.2c0.2-0.2,0.1-0.3,0-0.5c-0.1-0.1-0.2-0.3,0-0.6   c0.2-0.3,0.2-0.4,0.1-1.1c-0.1-0.6-1.2-3.9-1.6-4.6c-0.5-0.7-0.4-1.3,0.2-0.6c0.6,0.7,1.1,1.4,1.2,2c0,0.6,0.2,1,0.4,1.2   c0.2,0.2,0.3,0.1,0.4-0.4c0.1-0.5,0.5-0.3-0.2-1.3c-0.6-1-1.9-2.6-2.3-5.5c-0.5-2.9-0.6-4.9-1.1-5.6c-0.5-0.8-0.6-1-0.6-1.7   c0-0.7,0-1.5-0.3-2c-0.3-0.6-0.6-0.6-0.6,0.2c0,0.8,0,2.7,0.3,3c0.2,0.3,0.1,1.2,0,1.6c0,0.5-0.8,0.9,0.7,1.8   c0.6,0.4,0.5,0.9,0.4,1.2c-0.1,0.3-0.2,0.3-0.5-0.2c-0.3-0.5-0.6-0.9-1-1.2c-0.3-0.3-0.4-0.5-0.3-1.1c0-0.6,0.2-1.1,0-1.3   c-0.2-0.2-0.3,0-0.4,0.3c-0.1,0.4-0.2,1.4-0.4,1.7c-0.2,0.3-0.3,0.1-0.4-0.5c-0.1-0.6,0-1.5,0.4-2.6c0.3-1.1,0.5-2.2,0.2-3.6   c-0.3-1.4-0.1-1.8-1.2-3c-1.1-1.2-2.3-2.3-2.8-3.7c-0.5-1.4-0.6-2.7-1.2-3.3c-0.6-0.6-1.3-1.5-1.9-1.7v-2.1c0-0.5-0.2-0.8-0.8-0.7   c-0.6,0.1-1,0.6-1.3,1.3c-0.4,0.7-0.6,0.4-1.2,1.6C344.8,243.1,344,243.7,344,245L344,245z"/>
    <path class="st7"
          d="M347.4,258.6c0.4,0.2,0.7,0.4,1.3,0.1c0.6-0.3,1.2-1.1,2-0.3c0.7,0.8,1.2,2.1,1.2,3.1c0,1,0,2.9,1.2,4   c1.2,1.1,1.8,2.2,1.8,3.6c0,1.4,0.6,3.5,0.7,4.1c0.1,0.6,0.5,1.2,0.8,1.6c0.4,0.4,0.6,1.4,0.7,2.5c0,1.1-0.1,1.9,0,2.5   c0.1,0.6,0,1-0.4,0.7c-0.4-0.3-0.5-0.4-0.7-0.9c-0.2-0.5-0.5-0.4-0.3,0.3c0.2,0.7,0.9,1.3,1.5,1.3c0.6,0,0.8,0.1,1.2,0.5   c0.4,0.4,0.4,0.6,1.1,0.6c0.6,0,0.7,0,1.3,0.2c0.6,0.2,0.6,0.1,0.9,0c0.3-0.1,0.6,0.2,0.9,0.8c0.2,0.6,0.8,2.3,0.8,2.7   c0,0.5,0,0.9,0.3,1.4c0.3,0.5,0.2,0.9-0.1,0.6c-0.4-0.3-0.4-0.2-0.6-0.1c-0.3,0-0.5-0.1-0.8-0.3c-0.4-0.2-0.1-0.2-0.5-0.7   c-0.4-0.6-0.6-0.7-0.6-0.3c0,0.4,0,0.9-0.3,0.7c-0.3-0.2-0.4-0.2-0.6,0c-0.2,0.2-0.3,0.4-0.6,0c-0.3-0.5-0.6-0.5-0.9-0.6   c-0.3-0.1-0.3-0.1-0.4-0.5c-0.1-0.4-0.6-0.5-0.9-0.5c-0.4,0-0.6-0.2-0.6-0.5c0-0.3-0.3-0.5-0.5-0.6c-0.2-0.1-0.1-0.5-0.1-0.8   c0-0.3-0.3-0.2-0.5-0.3c-0.2-0.1-0.3,0-0.3-0.5c0-0.5-0.2-0.6-0.3-0.9c-0.1-0.3,0-0.6,0.1-1c0.1-0.4,0-0.6-0.2-0.9s0-0.6-0.8-1.3   c-0.7-0.6-1.1-0.1-1.3-1.6c-0.2-1.5-0.7-4.7-1.1-5.2c-0.4-0.5-0.7-0.9-1.1-1c-0.4-0.1-0.7,0-0.7-0.9c0-0.9-0.3-2-0.9-2.5   c-0.6-0.6-0.8-0.7-1.1-1c-0.3-0.2-0.4-0.6,0-1.4c0.4-0.8,0.2-1.8,0.2-2.4c0-0.5-0.2-1.2-0.1-1.7c0.1-0.6,0-1.3-0.1-1.6   C347.3,258.9,347.1,258.8,347.4,258.6L347.4,258.6z"/>
    <path class="st7"
          d="M358.5,245.4c-0.6,0.8-1.3,1.5-2.2,2.1c-0.9,0.6-2,1.1-1.3,2.2c0.6,1,1.1,1.2,1.2,2c0.1,0.8,0.3,1.5,0.9,1.7   c0.6,0.2,0.9,0.1,0.9,1.4c0,1.3,0,1.8,0.6,2.3c0.6,0.5,0.5,1,0.7,2.2c0.3,1.2,0.3,3.7,1,5.4c0.7,1.7,2.4,5,2.2,5.7   c-0.2,0.7-0.4,1.2,0.3,2c0.7,0.8,1.2,2,1.3,2.7c0.1,0.7,0.2,0.9,0.9,0.7c0.7-0.2,1.1-0.5,1.4-0.8c0.2-0.3,0.7-0.2,1.4,0.1   c0.7,0.4,1.7,0.7,2.3,0.4c0.6-0.4,0.9-0.9,1.5-0.9c0.9-0.6,1.2-1.9,1.4-2.3c0.2-0.4,0.1-0.4-0.3-0.7c-0.4-0.4-0.2-1-0.2-1.6   c-0.1-0.6-0.3-1.5-1-2.9c-0.7-1.4-1.2-3-1.7-3.5c-0.5-0.4-0.7-1.5-0.8-2c-0.1-0.5-0.6-0.9-1-1.3c-0.4-0.4-0.7-0.9-1.2-3.1   c-0.4-2.2-0.7-3.7-0.7-4.1c0-0.4-0.1-0.4-0.4-0.6c-0.4-0.1-0.6-0.7-0.4-1c0.1-0.3-0.1-0.6-0.2-1c-0.1-0.4,0-1,0.2-1.4   c0.3-0.4,0.2-1.4-0.1-2.3c-0.3-0.9-0.5-1.6-1.5-1.7c-1-0.1-1.2-0.4-1.5-1.2c-0.4-0.8-0.7-2.2-0.9-2.5c-0.1-0.3-0.3-0.4-1,0.2   c-0.7,0.6-1,0.8-1,2c0,0.7,0.1,1,0.4,1.4c0.2,0.4,0.3,0.6,0.5,1.7c0.2,1.2,1.2,3-0.1,4.1c-1.3,1-1.2,1.3-1.1,2   c0.1,0.7-0.4,1.2-0.6,0.2c-0.2-1,0-1.7,0.7-2.2c0.7-0.5,1.4-1.1,0.9-1.8c-0.5-0.7-0.7-2.3-0.7-3   C359.1,245.1,358.9,244.9,358.5,245.4L358.5,245.4z"/>
    <path class="st8"
          d="M347.5,261.1c0,0.5,0.1,1.1,0.1,1.5c0,0.5,0.2,1.6-0.2,2.4c-0.4,0.8-0.3,1.2,0,1.4c0,0,0,0,0,0   c0.8-0.3,0.9-1.1,0.6-1.5c-0.2-0.4-0.2-1,0.1-1.4c0.2-0.4,0.2-0.7,0-1c-0.2-0.3-0.2-0.3,0-1.2C348.5,260.7,348,260.7,347.5,261.1   L347.5,261.1z"/>
    <path class="st8"
          d="M355.4,273.1c-0.1-0.6-0.6-2.7-0.7-4.1c0-1.4-0.6-2.5-1.8-3.6c-0.9-0.8-1.1-2.2-1.1-3.2   c-0.7-0.4-1-0.2-0.9,0.5c0.1,0.8,0.9,1.2,0.8,2.4c-0.1,1.2-0.1,0.9,0.5,1.5c0.6,0.6,0.8,1.1,0.5,1.4c-0.3,0.2-0.3,0.7,0.1,0.8   c0.4,0.2,0.5,0.6,0.4,1c-0.1,0.4,0.3,0.5,0.6,0.8c0.3,0.3,0.3,1,0,1.5c-0.2,0.4-0.3,1.1,0.2,0.7c0.4-0.4,0.6,0,0.9,0.5   c0.3,0.5,0.5,0.3,0.9,0.2C355.5,273.5,355.5,273.3,355.4,273.1L355.4,273.1z"/>
    <path class="st8"
          d="M361.4,283.8c-0.3,0.6-0.6,0.4-0.9,0.1c-0.3-0.3-0.6-0.3-0.5-0.8c0.1-0.5,0.1-0.6-0.3-0.9c0,0-0.1-0.1-0.1-0.1   c-0.1,0-0.3,0-0.4,0c-0.6,0-0.7-0.2-1.1-0.6c-0.1-0.1-0.2-0.2-0.2-0.2c0,0.1,0,0.2,0,0.3c0,0.5,0,0.4-0.5,0.6   c-0.5,0.1-0.4-0.5-0.5-0.9c0-0.1,0-0.2-0.1-0.3c-0.6-0.1-1.1-0.7-1.3-1.3c-0.2-0.7,0-0.8,0.3-0.3c0.2,0.5,0.3,0.6,0.7,0.9   c0.4,0.3,0.6-0.2,0.4-0.7c0-0.2,0-0.4,0-0.6c-0.1-0.2-0.2-0.3-0.4-0.4c-0.7-0.3-0.5-0.4-0.5-1c0-0.6-0.1-0.6-0.6-0.3   c-0.5,0.3-0.5,0-0.5-1c0-0.9-0.6-0.9-0.7-0.3c-0.1,0.6-0.4,0.2-0.6-0.7c-0.3-0.9-0.6-1.2-0.7-0.3c0,0.7-0.2,0.9-0.7,0.5   c0.1,0.5,0.2,1,0.2,1.4c0.2,1.5,0.6,1,1.3,1.6c0.7,0.6,0.5,1,0.8,1.3s0.3,0.6,0.2,0.9c-0.1,0.4-0.2,0.7-0.1,1   c0.1,0.3,0.3,0.5,0.3,0.9c0,0.5,0.1,0.4,0.3,0.5c0.1,0.1,0.3,0,0.4,0.1c0.1-0.2,0.2-0.3,0.4-0.5c0.6-0.6,1.4,0,1.7,0.7   c0.3,0.7,0.6,0.9,1,0.3c0.4-0.6,0.3-0.5,0.7,0c0.5,0.5,0.6,0.4,0.6,0.4s0.5-0.2,0.8,0.1c0.3,0.3,0.5,0.2,1.1-0.6   C362.6,283,361.7,283.3,361.4,283.8L361.4,283.8z"/>
    <path class="st8"
          d="M363.1,258.5c0.2-1.4,0.1-2.7,0.6-3.2c0.6-0.5,1.2-1.5,1.2,0.6c-0.1,2.1-0.1,2-0.6,2.5   c-0.4,0.5-0.8,0.6-0.4,1.4c0.4,0.8,0.5,0.9,0.4,2.1c-0.1,1.2-0.1,1.7,0.4,2.3c0.5,0.6,0.6,0.7,0.7,1.4c0.1,0.7,0.6,1.6,1.1,2.1   s1.2,1.9,1.2,2.9c0.1,1,0.9,1.2,1.7,1.9c0.8,0.7-0.2,1.2-0.8,0.9c-0.6-0.3-0.4,0-0.7,0.4c-0.4,0.4-0.5,0.5-0.8-0.2   c-0.3-0.7-1.3-1.2-1.8-1.4c-0.5-0.2-0.9-1-1.4-1.8c-0.4-0.7-1.1-1.2-1.8-1.2c0.2,0.5,0.3,0.9,0.2,1.1c-0.2,0.7-0.4,1.2,0.3,2   c0.7,0.8,1.2,2,1.3,2.7c0.1,0.7,0.2,0.9,0.9,0.7c0.7-0.2,1.1-0.5,1.4-0.8c0.2-0.3,0.7-0.2,1.4,0.1c0.7,0.4,1.7,0.7,2.3,0.4   c0.6-0.4,0.9-0.9,1.5-0.9c0.9-0.6,1.2-1.9,1.4-2.3c0.2-0.4,0.1-0.4-0.3-0.7c-0.4-0.4-0.2-1-0.2-1.6c-0.1-0.6-0.3-1.5-1-2.9   c-0.7-1.4-1.2-3-1.7-3.5c-0.5-0.4-0.7-1.5-0.8-2c-0.1-0.5-0.6-0.9-1-1.3c-0.4-0.4-0.7-0.9-1.2-3.1c-0.3-1.7-0.6-3-0.7-3.7   c-0.4,0.7-0.7,0.9-0.9,0.4c-0.2-0.6-0.4-0.9-0.7-0.5c-0.3,0.4-0.3-0.3-0.3-0.6c0-0.3-0.1-0.4-0.4-0.4c-0.3,0-0.1-0.5-0.2-1.4   c-0.1-0.9-0.3-1.1-0.4,0.1c-0.1,1.1-0.7,1.8-0.5,2c0.3,0.2,0.1,0.7-0.1,1.5c-0.3,0.7-0.1,1.2,0.1,1.7c0.2,0.5-0.1,1.4-0.3,2.2   C362.3,259,362.9,259.8,363.1,258.5L363.1,258.5z"/>
    <path class="st8"
          d="M351.8,247.4c-0.5,0-0.8,0.4-0.5,1.8c0.2,0.9-0.5,0.7-0.7,0.3c-0.3-0.4-0.4-1.4-0.9-2.2s-0.3,0.6-0.3,1.3   c-0.1,0.7,0.4,0.7,0.9,1.4c0.4,0.6,0.1,0.9-0.4,0.9s-0.2,1-0.1,1.7c0.1,0.7-0.1,0.8-0.5,0.2c-0.4-0.6-0.1-1.4-0.1-2.5   c0.1-1.1,0.1-0.8-0.6-1.1c-0.7-0.2-0.6-0.4-0.3-1c0.2-0.6,0.5-0.9,0.2-1.2c-0.3-0.3-0.2-0.5,0.3-0.6c0.5-0.1,0.3-0.4,0.7-0.6   c0.4-0.1,0.6,0.1,0.7-0.7c0-0.7,0.3-1.1,0.8-0.9C351.1,245.3,351.5,246.9,351.8,247.4L351.8,247.4z"/>
    <path class="st8"
          d="M358,254.7c0,1.3,0,1.8,0.6,2.3c0.6,0.5,0.5,1,0.7,2.2c0.3,1.2,0.3,3.7,1,5.4c0.2,0.5,0.5,1.2,0.8,1.8   c0.4-0.3,0.8-0.9,0.9-1.2c0.2-0.4-0.4-1.3-0.8-2c-0.4-0.7,0.1-1,0.5-1.9c0.4-0.9-0.1-1-0.7-1.2c-0.7-0.2-0.7-0.9-1-1.9   c-0.4-1-0.3-1.4-0.1-2c0.2-0.6,0.1-1-0.4-1.1c-0.5-0.1-0.4-0.5-0.2-1.1c0.2-0.6,0.3-0.7-0.4-0.6c-0.6,0.1-0.7,0.2-0.9,0.4   C358,254.1,358,254.3,358,254.7L358,254.7z"/>
    <path class="st5"
          d="M365.1,257.3c-0.1,0.7-0.1,1.1-0.3,1.4c-0.2,0.2-0.1,0.6,0.1,1c0.2,0.4,0.3,0.9,0.1,1.5   c-0.2,0.7,0.1,1.2,0.5,1.4c0.4,0.2,0.6,0,0.4,0.9c-0.1,0.9,0.4,1.8,0.8,2.2c0.4,0.4,0.7,1,0.7,1.4c-0.1,0.4,0.3,0.7,0.7,0.9   c0.4,0.2,0.4,0.2,0.4,0.5c0,0.2,0.2,0.2,0.7,0.4c0.5,0.1,0.9,0.4,1.4,1.1c0.6,0.7,1.4,1,1.2,0.3c-0.1-0.7,0-1.2-0.7-1.6   c-0.7-0.4-1.3-2.2-1.6-3.4c-0.3-1.2-1.3-2.9-1.9-3.2c-0.1-0.9,0.1-1.3-0.5-1.7c-0.6-0.4-0.7-1-0.7-1.4c0-0.4-0.3-1-0.6-1.1   c-0.3-0.1-0.4-0.4-0.4-0.8C365.6,256.5,365.2,256.6,365.1,257.3L365.1,257.3z"/>
    <path class="st9"
          d="M361.8,290.3c1.1-0.1,4.1-1,4.4-1.2c0.7,0.5,2,1.2,2.6,1.2c-1.1,0.2-1.8,0.1-2-0.1c0.1,0.3,0.5,0.8,0.7,0.9   c-1,0-2.2-0.3-2.5-0.6C364.1,290.8,362.7,290.9,361.8,290.3L361.8,290.3z"/>
    <path class="st9"
          d="M363.8,291.7c0.4,0.1,2.4,0.4,2.6,0.4c-0.6,0.6-0.1,1.1,1,1c-0.5,0.1-1.1,0.3-0.7,0.3c0.9,0.2,3.5-0.5,4-0.8   C369.8,293.8,365.6,294.9,363.8,291.7L363.8,291.7z"/>
    <path class="st9" d="M365.6,294.5c0.5-0.3,1.8-0.2,2.5,0.1C367.4,294.9,366,294.9,365.6,294.5L365.6,294.5z"/>
    <path class="st10"
          d="M367.6,294.5c0.9-0.2,3.6,0.5,4.6-0.1c-0.3,0.9-2,1-2.6,0.8c-0.6-0.2-1.1-0.4-1.5-0.4   C368.2,294.7,367.9,294.6,367.6,294.5L367.6,294.5z"/>
    <path class="st9"
          d="M368.5,295.8c0.7,0.1,3.3-0.2,4.1-0.5c0.8,0.3,2.5,0.7,2.8,0.7c-0.8,0.5-2.3,0.2-2.8,0   C371.3,296.4,370.1,296.5,368.5,295.8L368.5,295.8z"/>
    <path class="st9"
          d="M369.8,296.2c1,0.2,1.9,0.1,2.9-0.3c0.3,0.1,1,0.3,1.7,0.3c0.5,0.3,1.1,0.6,1.7,0.7c-0.6,0.3-2.9,0-3.4-0.3   c-1.2,0-3.1,0.3-3.6,0.7C369.1,297,369.3,296.5,369.8,296.2L369.8,296.2z"/>
    <path class="st10"
          d="M368.5,291c0.8,0.3,3.7,0.1,5.2-0.6c0.6-0.3,0.9,0.2,0.3,0.4c-2.4,0.8-4.3,1.2-5.7,0.4   C367.7,291,367.7,290.7,368.5,291L368.5,291z"/>
    <path class="st9"
          d="M382.7,287.1c-3.6,1.7-5.9,2.2-10.9,0.6c-0.5-0.1-0.8,0-0.3,0.3c0.5,0.3,3.2,1.1,3.9,1.1c0.6,0,0.4,0.3,0,0.5   c-0.4,0.1-0.5,0.4,0,0.2c0.5-0.2,3.5-0.3,4.7,0.3c0.5,0.3,0.7,0.2,0.6,0c0-0.2,0.2-0.3,0.6-0.4c0.4,0,0.6-0.2,0.3-0.3   c-0.3-0.1-0.3-0.2-0.1-0.3c0.2-0.1,0.3-0.2-0.1-0.3c-0.3-0.1-0.6-0.2-0.3-0.3c0.3-0.2,0.8-0.3,1.2-0.3   C382.6,288,382.4,287.3,382.7,287.1L382.7,287.1z"/>
    <path class="st10"
          d="M376.8,287.5c2,0.1,5.8-0.8,7.8-2.7c0.7,0.4,1.7,0.9,2.2,1c0.5,0.1,1,0.6,0.2,0.6c-0.8,0-1.9-0.3-2.4-0.6   c-2.6,1.6-5.7,2.2-7.7,2C376.3,287.7,376.2,287.4,376.8,287.5L376.8,287.5z"/>
    <path class="st9"
          d="M370.8,276.4c0.7,0.5,1.9,1.3,3.5,1.2c0.8,0.6,2,1.2,2.6,1.3c-1.1,0.4-2.2,0.8-2.5,1.2   c-0.5-0.5-1.1-0.4-1.3-0.6c-0.5,0.4-0.4,0.6-0.1,0.8s2.6,0.6,3.2,0.4c0.6-0.2,0.7,0.3,0.3,0.5c-1.3,0.4-3.7,0-4.5-1.3   c-0.8-1.3-1.6-1.8-3.8-0.6c-0.3-0.6-0.3-0.8-0.7-0.8c-0.4,0-1.2-0.6-0.6-0.6C367.4,277.8,369.3,277.5,370.8,276.4L370.8,276.4z"/>
    <path class="st9"
          d="M371.3,279.4c-0.4,0.1-1.5,0.7-1.9,0.7c-0.4,0-1.1,0.6-0.4,0.6c0.7,0,1.6-0.8,2.1-0.8   C371.8,279.8,371.8,279.3,371.3,279.4L371.3,279.4z"/>
    <path class="st9"
          d="M373.6,281.7c-0.3,0-1.5,0.3-1.8,0.3c-0.3,0-0.6,0.1-0.6,0.3c0,0.2,0.1,0.4-0.4,0.3c-0.5,0-0.9,0.1-1,0.3   c-0.1,0.1-0.2,0.3,0.3,0.3c0.5,0,0.7,0.1,1.3-0.2c0.6-0.3,1.1-0.6,1.7-0.7C373.7,282.4,374.3,281.6,373.6,281.7L373.6,281.7z"/>
    <path class="st10"
          d="M371.9,283.1c0.5,0.3,3,1.2,3.9,1.1c0.9-0.1,0.7,0.4,0,0.5c-1.4,0.3-3.1-0.3-4.3-1.2   C371,283.1,371.5,282.9,371.9,283.1L371.9,283.1z"/>
    <path class="st9"
          d="M383.8,284.4c-1.9,0.6-3.9,0.4-4.6,0.2c-0.8-0.2-1.5-0.3-1,0.3c0.5,0.5,2.2,0.9,3.2,0.6   c-3.4,0.8-4.3,0.7-5.2,0.6c-0.9-0.1-2.5-0.1-3.1,0c-0.5,0-1.2,0-1.5-0.2c-0.3-0.2-0.4-0.5,0.5-0.4c0.9,0.1,1-0.1,0.2-0.2   c-0.8-0.1-1.9,0.2-0.8,0.9c1.1,0.7,3.4,0,4.9,0.4c1.5,0.4,4.6,0.7,7.6-1.7C384.1,284.5,384.3,284.2,383.8,284.4L383.8,284.4z"/>
    <path class="st9"
          d="M374.4,281.5c0.1,0.2,0.1,0.5,0,0.6c-0.1,0.2-0.1,0.4,0.2,0.1c0.3-0.2,0.5-0.5,0.8-0.3   c0.3,0.2,1.1,0.1,1.4,0.1c0.3,0,0.5-0.1,0-0.3c-0.5-0.2-1-0.3-1.3-0.3c-0.3,0-0.6,0-0.9-0.1C374.4,281.3,374.3,281.3,374.4,281.5   L374.4,281.5z"/>
    <path class="st9"
          d="M379.3,282.5c-0.4,0-1.1-0.2-1.5-0.4c-0.4-0.2-0.9-0.2-0.5,0.3c0.4,0.5,2.1,0.8,2.7,0.6   c0.6-0.3,0.3-0.5,0.9-0.2c0.6,0.4,1.2,0.6,1.7,0.6c0.4,0,0.6,0,0.1-0.3c-0.5-0.3-0.7-0.3-0.8-0.6c0-0.2-0.1-0.4,0.3-0.2   c0.4,0.1,0.9,0.4,1.3,0.2c0.3-0.2,1-0.6,1.6-0.6l0.1-0.3c-0.8-0.1-1.4,0.2-1.6,0.3c-0.2,0.1-0.6,0.1-1.1,0.1   c-0.4-0.1-1-0.1-1.2-0.2c-0.1-0.1-0.1-0.2,0.2-0.3c0.4-0.1,0.5-0.3,0-0.2c-0.5,0.1-1.9,0-2.6-0.2c-0.7-0.2-1-0.3-1.3-0.1   c-0.3,0.1-0.3,0.4,0.2,0.5c0.4,0,1.4,0.1,1.8,0.4c0.3,0.3,0.3,0.3-0.1,0.2C379.3,281.8,378.5,281.9,379.3,282.5L379.3,282.5z"/>
    <path class="st9"
          d="M385.3,281.6l-0.1,0.3c0.9,0,2.9,0.2,3.6,0.6c0.6-0.5,0.5-0.7,1-0.6c0.5,0.1,1,0.3,1.3,0.1   c0.3-0.1,0.4-0.1,0.7-0.1c0.3,0,0.9-0.1,1.2-0.3c0.3-0.2,1.1-0.5,1.5-0.5c0.4,0,0.9-0.1,0.2-0.2c-0.8-0.1-1.9,0.1-2.3,0.3   c-0.4,0.1-1.6,0.2-2.3,0.2c-0.7,0-1.6,0.3-2.4,0.1C386.9,281.5,385.8,281.6,385.3,281.6L385.3,281.6z"/>
    <path class="st10"
          d="M396,281.2c-1.4,1-3.1,1.3-5,1.4c-0.6,0-0.4,0.2,0.1,0.3c2.1,0.2,4.5-0.6,5.3-1.4   C396.6,281.2,396.5,280.8,396,281.2L396,281.2z"/>
    <path class="st9"
          d="M386.6,283.6c0.6,0,2.7,0.6,3.4,0.8c0.5,0,0.6-0.2,0.6-0.3c-0.1-0.2-0.2-0.4,0.8-0.3c0.9,0,3.1,0,3.5,0   c0.3-0.1,1-0.7,1.4-0.7c-0.8,0-4.3,0.2-4.7,0.2c-0.4,0-0.7,0-0.9,0.2c-0.3,0.2-0.4,0.2-0.8,0.1c-0.3-0.1-1-0.3-1.3-0.1   C387.9,283.5,387.2,283.3,386.6,283.6L386.6,283.6z"/>
    <path class="st9"
          d="M394.7,283.7c0.3-0.1,1-0.7,1.4-0.7c0.6,0,1.3,0.2,1.6,0.3c0.3,0,0.7,0,0.4-0.3c-0.2-0.3,0-0.7,0.9-0.6   c0.9,0.1,1.4,0.3,2.4,0.2c0.9-0.1,1.3,0.6,3.1-0.1c-0.1,0.7,0.2,0.7,0.5,0.6c0.3-0.1,0.7-0.1,1.2,0.3c0.6,0.4,3.9,0.5,4.7,0.3   c0.8-0.1,1.2,0.3,0.6,0.5c-0.6,0.2-0.7,0.5-0.6,0.6c0.1,0.2,0.3,0.4-0.5,0.3c-0.7-0.1-0.9,0.1-1.3,0.4c-0.4,0.3-0.5,0.4-1.5,0.2   c-1-0.2-1.2,0-1.8,0c-0.6,0.1-0.7,0.1-1.3-0.1c-0.6-0.2-1.8-0.4-2.5-0.1c-0.7,0.2-1.3,0.5-1.9,0.3c-0.6-0.2-0.7-0.1-0.3-0.5   c0.4-0.4,0.5-0.4,1.3-0.5c0.8-0.1,1.4-0.3,0.8-0.6c-0.6-0.3-0.7-0.3-1.5,0.1c-0.7,0.4-1.1,0.6-1.9,0.1c-0.8-0.5-1.3-0.4-1.8-0.2   C396.4,284.4,395.5,284,394.7,283.7L394.7,283.7z"/>
    <path class="st9"
          d="M397.4,285.1c-1.1,0.2-1.3-0.5-2.4-0.4c-0.4,0-1,0.5-0.1,0.4c0.9-0.1,1.8,0.4,2.6,0.3   C398.3,285.4,397.9,285,397.4,285.1L397.4,285.1z"/>
    <path class="st9"
          d="M396.2,285.9c0.6-0.2,1.7,0.2,2.2,0.1c0.5-0.1,0.9,0.2,0.4,0.4c-0.5,0.2-1.7-0.3-2.3-0.1   C396,286.4,395.5,286.2,396.2,285.9L396.2,285.9z"/>
    <path class="st9"
          d="M385.2,288.9c0.8,0,3.5-0.1,4.6-2.4c0.1-0.2,0.2-0.3,0.5,0c0.3,0.2,1.6,1,4,1.2c0.7,0.1,1.4,0.4,0,0.3   c-1.3-0.1-3.5-0.5-4.2-0.9c-1.2,1.9-3.4,2.1-5,2.1C384.2,289.1,384.4,288.8,385.2,288.9L385.2,288.9z"/>
    <path class="st9"
          d="M391.1,285.7c-0.4,0.5-1.6,1.4-2.2,1.4c-0.6,0-2.3-0.1-2.7-0.3c-0.4-0.2-1-0.1-0.3,0.3   c0.6,0.4,2.2,0.7,2.8,0.6c0.6-0.1,1.3-0.3,1.8,0c0.5,0.3,1.4,0.9,1.9,0.8c0.5-0.1,1.6-0.1,2,0c0.3,0.2,0.9,0.6,0,0.4   c-0.9-0.3-1.6,0-2.1-0.2c0.5,0.6,1.5,1.7,2.4,1.7c0.2,0,0.3,0.4-0.1,0.6c0.4,0.2,1.5,0.4,2-0.1c-0.1,0.2-0.1,0.3,0.2,0.4   c0.2,0.1,0.5,0.3,0.1,0.3c-0.4,0-1.4,0.2-1.6,0c0.9,0.6,3.2,1.5,5.6,1c0.4-0.1,0.7-0.3,0-0.3c-1.5,0-1.6,0-1.9-0.1   c-0.3-0.2-0.2-0.3,0.2-0.4c0.4-0.1,1.5-0.3,2-0.3c0.5,0,0.9-0.2,0-0.2s-2.1,0-2.6-0.2c-0.5-0.2-0.8-0.4-0.3-0.7   c0.5-0.3,1-0.2,1.2-0.5c-1.5,0-3.4-0.8-2.4-1.6c0.2-0.2,0.2-0.2-0.2-0.2c-0.4,0-1.5-0.4-2-0.6c-0.5-0.3-0.2-0.5,0.2-0.6   C394.1,287.1,392.3,286.6,391.1,285.7L391.1,285.7z"/>
    <path class="st9"
          d="M404.7,285.7c-0.8,0.6-2.4,0.9-3.1,0.9c-0.7,0-0.8,0.2-0.2,0.3c0.5,0.1,1.1,0.1,1.3,0.1   c0.2-0.1,0.4-0.1,0.7,0.1c0.3,0.2,1.1,0.3,1.7,0c0.6-0.2,1.7-0.3,2.2-0.3c0.4,0,0.9,0,0-0.2c-0.9-0.3-2.3-0.1-2.7,0   c-0.3,0.1-1.3,0-0.8-0.1c0.5-0.2,0.9-0.4,1.2-0.6C404.9,285.8,404.8,285.7,404.7,285.7L404.7,285.7z"/>
    <path class="st9"
          d="M404.2,287.5c-0.7,0.5-1.8,1-2.8,1.1c1,0.3,1.8,1.3,2.4,1.3c-0.3,0.2-0.7,0.5-1.1,0.5c0.6,0.2,1.6,0,2.5-0.5   c1.4,0.4,3.2,0.1,3.8-0.4c-0.9,0-2-0.3-2.5-0.7c0.4,0,0.9-0.3,1.1-0.5C406.5,288.4,404.8,287.9,404.2,287.5L404.2,287.5z"/>
    <path class="st9"
          d="M402.8,290.4c0.4,0,0.8-0.3,1.1-0.5c-0.8,0.3-4.1-0.3-5.1-1.2c-1-0.9-1-0.2-0.3,0.4   C399.1,289.7,400.4,290.7,402.8,290.4L402.8,290.4z"/>
    <path class="st9"
          d="M405.2,292.5c-0.4,0.2-2.4,0.4-3.1,0.2c-0.6-0.1-0.9-0.1-0.8,0.2c0.2,0.3,0.2,0.5-0.3,0.4   c-0.5-0.1-1.5,0-1.9,0.2c-0.4,0.1-0.9,0.5,0,0.3c0.8-0.1,1.6-0.3,2.2-0.1c0.6,0.2,2.8,0.2,3.3,0c0.4-0.2,0.1-0.2-0.1-0.2   c-0.2,0-0.3-0.1,0-0.3C404.9,293.1,405.1,292.7,405.2,292.5L405.2,292.5z"/>
    <path class="st9"
          d="M386,289.8c-0.8,0.4-3.6,1.1-4.3,1.2c-0.9,0.4-1.7,0.6-2.1,0.6c0.3,0.3,1.6,0.5,2.1,0.4   c-0.3,0.3-0.9,0.6-1.2,0.7c0.7-0.1,1.6,0.1,2,0.1c-1,0.6-2.3,0.7-3,0.6c0.2,0.3,0.6,0.6,1,0.6c-0.9,0.2-1.9,0.2-2.5,0   c0.2,0.5,0.5,0.7,0.8,0.8c-0.7,0.1-1.7,0.2-2.5-0.2c0.6,0.8,1.9,1.1,3.9,0.8c2-0.2,3.7-1.1,4.1-1.5c-0.8,0.1-1.9,0.1-2.5,0   c1.1-0.3,3.5-1.3,3.9-1.7c-0.5,0-0.9-0.1-1.3-0.4c0.6,0.1,2.9-0.2,3.6-0.5c-0.8-0.2-1.3-0.7-1.6-1c2.9,0.9,6.1,0.6,7.7,0.2   c0.4-0.1,0.4-0.6-0.3-0.5c-1.3,0.1-3.8-0.3-4.4-0.6c0.6,0.5,1.3,0.7,1.9,0.8C390.1,290.9,388.4,291.1,386,289.8L386,289.8z"/>
    <path class="st9"
          d="M380.4,292.8c0.2-0.1,0.9-0.5,1.2-0.7c-0.5,0.1-1.8-0.1-2.1-0.4c0.5,0,1.2-0.2,2.1-0.6c-1.7,0-2.8,0-3.4-0.4   c-0.6-0.3-1.7-0.2-2.1-0.1c-0.4,0.1-0.3,0.8,1.5,0.6c-0.7,0.5-2.7,0.7-3.5,0.5c0.2,0.6,0.3,1.2,0.1,1.5c1,0.6,3.5,1.3,4.8,1.2   c-1.1-0.4-1.7-0.9-0.8-1C379.2,293.2,379.7,293,380.4,292.8L380.4,292.8z"/>
    <path class="st10"
          d="M377.6,295.8c2.2-0.2,5.2-0.2,7.5-2.2c0.6-0.5,1-0.3,0.4,0.2c-1.3,1.1-4.3,2.6-7.3,2.7   C377,296.4,376.5,295.9,377.6,295.8L377.6,295.8z"/>
    <path class="st9"
          d="M394.1,292.1c-0.6,0.2-2.1,0.5-2.6,0.4c-0.5-0.1-1.1-0.1-1.5,0.1c-0.4,0.2-0.4,0.4,0.1,0.4   c0.5,0,1.2,0.1,1.5,0.1c-0.4,0.2-0.7,0.6-0.8,0.7c0.7-0.2,2.1,0.1,2.5,0.4c-0.3,0.1-0.6,0-0.9-0.2c1.3,1.3,4.9,1.3,5.5,1.1   c-0.3,0.2-0.5,0.4-0.8,0.5c1,0.2,2.2,0.2,3.4-0.5c-0.4,0.1-1.6,0-1.9-0.1c0.2-0.2,0.6-0.4,0.9-0.5c-0.5-0.1-1.9,0-2.3,0.1   c0.1-0.3,0.4-0.6,0.7-0.7c-1.8,0-4,0-4.8-0.5c1.3,0.1,2.7-0.6,3.3-0.6C395.5,292.8,394.4,292.5,394.1,292.1L394.1,292.1z"/>
    <path class="st9"
          d="M389.5,293.1c-0.9,0.2-2.3,0.6-2.6,0.8c-0.4,0.2-0.8,0.3,0,0.3c0.8,0,3,0.1,3.5,0.2c-1.2-0.2-2.9-0.2-3.2-0.2   c-0.3,0-0.7,0-0.1-0.2C387.7,293.8,388.5,293.3,389.5,293.1L389.5,293.1z"/>
    <path class="st9"
          d="M387.7,295.3c0.3,0,1.7,0,2.3-0.5c0.6,0.4,1.7,1.1,2.4,1.1c0.7,0,0.6,0.2,0,0.3c-0.6,0.1-1.8-0.3-2.5-0.8   C389.1,295.6,388.4,295.4,387.7,295.3L387.7,295.3z"/>
    <path class="st9"
          d="M377,301.5c1.4,0.6,3.3,1,4.7,0.5c0.8,0.7,2.4,0.7,3.3,0.6c0.9-0.2,1.7-0.3,2.6,0c1,0.3,3,0.3,3.5,0.8   c-0.5,0-1.6,0-1.9,0.1c-0.3,0.1-0.1,0.2,0.3,0.5c-1.6-0.1-4.3,0.6-5.1,1.3c0.3-0.7,1.2-1.7,2.7-1.7c-0.8-0.3-3.5-0.3-4.3,0.2   c-0.3-0.3-0.6-0.7-0.6-0.9C380.9,303.7,378.1,302.5,377,301.5L377,301.5z"/>
    <path class="st9"
          d="M373.3,298.9c1.7-0.2,2.9-0.8,3.4-1.3c0.3,0.3,1.6,0.6,2.9,0.1c-0.3,0.2-0.3,0.6-0.2,0.8   c-0.9,0-2.6,0.5-3.2,0.8c-0.6,0.3-2.3,0.5-2.8,0.2C372.8,299.2,372.8,299,373.3,298.9L373.3,298.9z"/>
    <path class="st9"
          d="M379.4,298.6c-0.9,0-2.6,0.5-3.2,0.8c0.1,0.2,0.2,0.6,0.2,0.9c1.7-0.6,5.5-1,6.9-0.7c-0.7,0-2,0.8-2.7,0.9   c1.8-0.1,3.6,0.2,4,0.3c0.5,0.1,0.6,0.5,0.2,0.8c-0.3,0.3-0.5,0.4,0.2,0.4c0.7,0,2.3-0.1,3-0.7c-0.3-0.3-1-0.2-1.2-0.4   c0.5-0.2,1-0.5,1.3-0.8c-1.3,0-1.7,0-2.1-0.1c-0.4-0.1-0.7-0.2-0.2-0.5c0.5-0.3,0.7-0.5,0.9-0.7c-0.9,0.3-2.3,0.5-3.5-0.5   c0.4,0.1,1.5,0,1.9-0.1c-0.4-0.2-0.7-0.4-1-0.4c0.9-0.5,2.8-0.9,5.1,0c1.2-0.1,2.4,0,3.3,0.2c0.4-0.4,1.2-1.3,1.6-1.5   c-2.7,0.2-7.6-0.3-7.5-1.7c-0.9,1.2-2.9,1.8-3.8,1.6c-0.1,0.4,0.3,0.9,0.6,1.2c-0.9,0.2-2.5,0.3-3.2,0.2c0.4,0.4,1.2,0.8,1.7,0.7   C380.7,298.4,380.2,298.6,379.4,298.6L379.4,298.6z"/>
    <path class="st9"
          d="M385.1,301.8c0.7,0,2.3-0.1,3-0.7c-0.3-0.3-1-0.2-1.2-0.4c0.5-0.2,1-0.5,1.3-0.8c1.9-0.2,3.7-0.1,4.5-0.3   c0.8-0.3,3-0.1,3.4-0.2c-1.8,0.3-2.2,0.5-2.3,0.8c-0.1,0.3,0.6,0.6,1,0.6c-0.8,0-1.9,0.8-2,1.2c-1.1-0.6-1.6,0.1-1.8,0.4   c-0.5-0.2-2-0.1-2.8,0.5c-1-0.3-1.7-0.5-2.7-0.3C386.1,302.3,386,301.9,385.1,301.8L385.1,301.8z"/>
    <path class="st9"
          d="M393.9,296.4c0.6,0,2,0,2.5,0c-0.3,0.2-0.7,0.5-0.8,0.6c1.6-0.2,3.7-0.3,4.3-0.2c-0.8-0.1-1.6,0.4-1.9,0.6   c-0.4,0.3-0.2,0.4,0.4,0.5c0.5,0.1,1.3,0.5,0.3,0.3c-1-0.1-2.9-0.1-3.3-0.1c-0.5,0.1-0.7-0.2,0-0.3c0.7-0.1,1.1-0.3,1.5-0.5   c-0.6,0.1-1.6,0.1-1.9,0c-0.3-0.1-0.5-0.3-0.2-0.4c0.4-0.1,0.1-0.2-0.3-0.2c-0.4,0-1.4,0.5-1.9,1   C393,297.3,393.5,296.7,393.9,296.4L393.9,296.4z"/>
    <path class="st10"
          d="M386.9,297.4c0.8,0.9,1.7,1.3,3.1,1.4c0.3,0,0.9,0.4,0.1,0.4c-1.9,0.1-2.9-0.4-3.8-1.6   C386.2,297.4,386.5,297,386.9,297.4L386.9,297.4z"/>
    <path class="st10"
          d="M398.5,281.3c1,0.5,3.1,0.9,4.7,0.8c0.3,0,0.8,0.3,0.1,0.3c-1.8,0.2-3.4-0.1-4.9-0.9   C397.9,281.3,398.1,281.1,398.5,281.3L398.5,281.3z"/>
    <path class="st9"
          d="M399.5,281.3c1.6,0,2.8,0,3.2,0.4c0.9-0.3,2.5-0.4,2.9-0.4c0.4,0.1,0.8-0.1-0.1-0.3c-0.9-0.2-2.8-0.3-3.5-0.2   c-0.6,0.1-2.6,0.2-3.2,0.1C399.2,281,399.3,281.1,399.5,281.3L399.5,281.3z"/>
    <path class="st9"
          d="M405.6,281.9c0.7-0.4,2.9,0,3.5-0.3c-0.5,0.6,1.5,0.6,3.2,0.2c-0.6,0.4-2,0.5-2.6,0.7   c-0.6,0.3-0.9,0.1-1.4-0.1C407.8,282.2,406.6,281.7,405.6,281.9L405.6,281.9z"/>
    <path class="st9"
          d="M412.3,281.8c-1.7,0.4-3.6,0.4-3.2-0.2c-0.6,0.3-2.8-0.1-3.5,0.3c0.8-0.5,1.3-0.1,1.9-1   c0.3,0.1,1.2,0.1,1.4-0.3c0.5,0.1,1.3,0.3,1.6,0.6c0.3,0.3,0.6-0.1,0.3-0.5c0.8-0.3,0.3,0.3,2.1-0.1c0.4-0.1,1.3-0.3,1.6-0.3   C413.9,280.8,413.2,281.3,412.3,281.8L412.3,281.8z"/>
    <path class="st6"
          d="M379.5,274c0-3.5-0.4-32.8-0.4-39.5c0-1.6-0.8-1.3-0.8,0v39.3C378.7,273.9,379.2,274,379.5,274L379.5,274z"/>
    <g><path class="st10" d="M379.6,274.1l-0.1,0l0-0.1l-0.4,0.1l-0.8-0.1l-0.1-39.4c0-1.4,1.1-1.6,1.1,0c0,4.8,0.2,20.6,0.3,30.9    L379.6,274.1L379.6,274.1z M378.7,233.5c-0.1,0-0.3,0.3-0.3,1v39.3l1,0.1l-0.1-8.6c-0.1-10.2-0.3-26.1-0.3-30.9    C379,233.8,378.8,233.5,378.7,233.5L378.7,233.5z"/></g>
    <polygon class="st6" points="392.3,232.4 393.8,274.1 393.5,274.4 392.7,274.4 391.8,232.4  "/>
    <g><polygon class="st10" points="392.6,274.5 392.6,274.4 391.7,232.3 392.3,232.3 393.9,274.1 393.5,274.2 392.2,232.4 392.8,274.3     393.3,274.3 392.6,274.5   "/></g>
    <path class="st6"
          d="M404.5,267.6c-0.1-4.2-0.6-23.9-0.9-33.6c0-1.3-0.8-1.1-0.8,0c0.1,7.8,0.5,29.6,0.6,33.6   C403.8,267.6,404.3,267.6,404.5,267.6L404.5,267.6z"/>
    <g><path class="st10" d="M403.9,267.7l-0.5-0.1c-0.1-3.9-0.6-25.8-0.6-33.6c0-0.4,0.1-0.7,0.3-0.9c0.4-0.1,0.7,0.1,0.7,0.9    c0.2,7.4,0.5,20.6,0.7,28.4l0.1,5.2L403.9,267.7L403.9,267.7z M403.3,233.2c-0.2,0.2-0.3,0.4-0.3,0.8c0.1,7.8,0.5,29.5,0.6,33.6    l0.4-0.1l0.3-5.1c-0.2-7.7-0.6-21-0.7-28.4C403.5,233.4,403.4,233.2,403.3,233.2L403.3,233.2z"/></g>
    <path class="st1"
          d="M385.3,239.3l-12.3-0.2c-0.7,2.5,2.4,2.4,3.6,1.8c1.3,1,2.3,0.9,3.1,0.1c1.1,0.9,2.4,0.6,3,0.1   C384.1,242.2,385.6,241.1,385.3,239.3L385.3,239.3z"/>
    <g><path class="st10" d="M378.3,241.8c-0.6,0-1.2-0.3-1.8-0.8c-0.7,0.6-2.8,0.5-3.4-0.3c-0.3-0.4-0.4-0.9-0.2-1.6l12.4,0.1    c0.2,0.8,0.1,1.4-0.3,1.9c-0.6,0.7-1.6,0.7-2.5,0.1c-0.3,0.6-1.5,1.1-3-0.1C379.3,241.5,378.8,241.8,378.3,241.8L378.3,241.8z     M376.5,240.8c1.4,0.9,2.3,1,3.1,0.1c1.6,1,2.5,0.6,3,0.1c1.1,0.5,1.8,0.5,2.3-0.1c0.3-0.4,0.5-1,0.3-1.6l-12.2-0.1    c-0.1,0.5,0,1,0.3,1.3C374.2,241.8,375.8,241.2,376.5,240.8L376.5,240.8z"/></g>
    <path class="st1"
          d="M386.2,245.5l-12.6,0c-2.2,2.1,0.6,3.1,3.1,1.7c0.3,0.7,1.8,1.1,3,0.6c1.1,0.8,2.4,0.2,3.1-0.5   C384,247.8,385.5,248,386.2,245.5L386.2,245.5z"/>
    <g><path class="st10" d="M380.8,248.2c-0.5,0-0.9-0.1-1.2-0.4c-0.8,0.6-2.6,0.2-3-0.6c-1.2,1-3.4,0.9-3.8,0c-0.1-0.3-0.1-0.9,0.7-1.8    l12.7,0c-0.3,1.6-1,2.3-2,2.3l0,0c-0.4,0-0.9-0.1-1.5-0.4C382.4,247.7,381.6,248.2,380.8,248.2L380.8,248.2z M379.6,247.6    c1.2,0.8,2.4,0.2,3.1-0.4c2.2,0.8,2.9,0.3,3.4-1.7l-12.5,0.1c-0.5,0.6-0.8,1.1-0.6,1.5c0.3,0.8,2.2,0.8,3.6,0    C377.1,247.7,378.6,248,379.6,247.6L379.6,247.6z"/></g>
    <path class="st1"
          d="M385.8,253.3l-12.1-0.1c-0.2,2.2,2.2,1.9,3.2,1.3c0.9,1.4,3,1.1,3.8,0.3c1.2,0.8,2.2,0.6,2.8-0.1   C384.8,255.9,385.9,254.4,385.8,253.3L385.8,253.3z"/>
    <g><path class="st10" d="M378.8,255.7c-0.9,0-1.6-0.4-2-1c-0.6,0.6-2.3,0.6-2.9-0.1c-0.3-0.3-0.4-0.8-0.3-1.3l12.2,0    c0.2,0.6,0,1.2-0.4,1.6c-0.3,0.3-0.6,0.5-1,0.5l0,0c-0.3,0-0.7-0.2-1-0.5c-0.4,0.8-1.7,0.9-2.8,0.2    C380.3,255.4,379.5,255.7,378.8,255.7L378.8,255.7z M376.8,254.5c0.7,0.8,1.5,1,2,1c0.7,0,1.4-0.3,1.8-0.7    c1.3,0.6,2.2,0.6,2.8-0.1c0.5,0.3,0.8,0.4,1.1,0.4l0,0c0.4,0,0.7-0.2,0.8-0.4c0.3-0.3,0.5-0.9,0.5-1.3l-12,0    c0.1,0.4,0.2,0.8,0.4,1.1C374.9,255.3,376.1,254.9,376.8,254.5L376.8,254.5z"/></g>
    <path class="st1"
          d="M386.4,261.2l-13.5-0.2c-0.7,2.3,1.3,2.7,2.3,2.2c0.3,1.3,2.1,0.9,2.6-0.1c0.7,0.7,1.6,0.3,2-0.1   c0.2,1.3,1.8,1.3,3,0.2C385.2,264.8,387.5,262.9,386.4,261.2L386.4,261.2z"/>
    <g><path class="st10" d="M376.2,264.1c-0.6,0-1-0.3-1.2-0.9c-0.3,0.6-1.7,0.3-2.2-0.3c-0.2-0.3-0.4-0.9-0.1-1.9l13.6,0.2    c0.4,0.6,0.5,1.2,0.2,1.8c-0.4,0.7-1.1,1.1-2,1.1l0,0c-0.6,0-1.3-0.2-2-0.7c-0.9,1.1-2.8,0.9-3-0.3c-0.1,0.5-1.3,0.9-2,0.2    C377.6,263.7,376.9,264.1,376.2,264.1L376.2,264.1z M375.1,263c0.3,0.7,0.8,0.8,1.1,0.8c0.6,0,1.2-0.4,1.4-0.9    c1,0.5,1.7,0.2,2-0.2c0.5,1.2,1.9,1.2,3,0.2c0.7,0.4,1.4,0.6,2,0.6l0,0c0.8,0,1.5-0.4,1.8-0.9c0.3-0.5,0.2-1-0.1-1.5l-13.4-0.2    c-0.1,0.6-0.1,1.2,0.2,1.6C373.5,263.3,374.5,263.4,375.1,263L375.1,263z"/></g>
    <path class="st1"
          d="M398.4,258l-11.3-0.1c0.5,2.3,1.6,2.9,3.4,1.6c1.3,1.4,3.6,0.9,4.1,0.2C397.1,261.6,398.5,259.3,398.4,258   L398.4,258z"/>
    <g><path class="st10" d="M396.5,260.5L396.5,260.5c-0.6,0-1.2-0.3-1.9-0.8c-0.4,0.8-3,1-4.1-0.2c-1.4,1.4-2.9,0.8-3.5-1.6l11.4,0    c0.1,0.7-0.1,1.5-0.6,2.1C397.4,260.3,397,260.5,396.5,260.5L396.5,260.5z M394.6,259.6c0.8,0.5,1.3,0.7,1.9,0.7l0,0    c0.4,0,0.8-0.2,1.1-0.5c0.5-0.5,0.7-1.3,0.7-1.8l-11.2,0c0.7,2.1,1.7,2.6,3.4,1.4C391.9,260.5,394.1,260.2,394.6,259.6    L394.6,259.6z"/></g>
    <path class="st1"
          d="M397.3,250.2l-10.9-0.3c0.2,2.8,2.8,2.7,4.2,1.5c1,1.3,2.8,0.9,3.5,0C395.4,252.8,397.6,252,397.3,250.2   L397.3,250.2z"/>
    <g><path class="st10" d="M392.2,252.4c-0.7,0-1.4-0.3-1.8-0.9c-0.4,0.5-1.2,0.8-2,0.8c-1.3,0-2.1-0.9-2.2-2.4l11,0.2    c0.2,0.6,0.1,1.1-0.2,1.4c-0.7,0.8-2.3,0.9-3.2-0.1C393.7,252,393,252.4,392.2,252.4L392.2,252.4z M390.4,251.3    c1.1,1.1,2.8,0.9,3.4,0c1.1,0.8,2.4,0.8,3,0.1c0.3-0.3,0.3-0.7,0.2-1.1l-10.8-0.2c0.2,1.8,1.6,2.1,2.1,2.1    C389.2,252.1,389.9,251.8,390.4,251.3L390.4,251.3z"/></g>
    <path class="st1"
          d="M398.7,241.6H387c0.1,1.9,2.7,3,4.7,1.2c0.6,2.2,2.7,1.5,3.6,0.6C396.6,245.1,399.7,243.2,398.7,241.6   L398.7,241.6z"/>
    <g><path class="st10" d="M393.3,244.4c-0.9,0-1.5-0.6-1.8-1.6c-0.7,0.9-1.5,1-2.1,1c-1.4,0-2.5-1-2.6-2.3l11.8-0.1    c0.4,0.5,0.4,1,0.1,1.5c-0.4,0.7-1.3,1.2-2.2,1.2l0,0c-0.6,0-1.1-0.2-1.5-0.7C394.9,243.9,394.1,244.4,393.3,244.4L393.3,244.4z     M391.6,242.7c0.8,1.9,2.7,1.5,3.6,0.6c0.6,0.5,1.1,0.6,1.5,0.6l0,0c0.8,0,1.6-0.5,2-1.1c0.2-0.3,0.3-0.7,0-1.2l-11.6,0    c0.2,1,1.2,1.9,2.5,1.9C390,243.6,390.8,243.4,391.6,242.7L391.6,242.7z"/></g>
    <path class="st1"
          d="M398,235.6l-10.5,0.1c-0.2,1.7,2.3,2.4,3.2,1.1c0.5,0.9,2.3,0.8,2.8,0c0.8,1.3,1.8,0.4,2.2,0   C396.9,237.7,398.2,237.3,398,235.6L398,235.6z"/>
    <g><path class="st10" d="M389.3,237.7c-0.6,0-1.2-0.2-1.5-0.6c-0.3-0.3-0.5-0.8-0.4-1.3l10.6-0.2c0.2,0.7,0.1,1.1-0.2,1.5    c-0.2,0.2-0.5,0.4-0.9,0.4l0,0c-0.4,0-0.9-0.2-1.3-0.5c-0.2,0.6-1.5,1-2.2,0c-0.2,0.9-2.3,0.9-2.8,0    C390.5,237.4,390,237.7,389.3,237.7L389.3,237.7z M397.9,235.7l-10.4,0.2c0.1,0.3,0.2,0.7,0.5,1c0.7,0.8,2.1,0.7,2.7-0.1    c0.8,0.7,2.3,0.7,2.8,0c1,1,1.8,0.5,2.2,0c0.5,0.3,0.9,0.4,1.3,0.4l0,0c0.3,0,0.6-0.1,0.7-0.3    C397.9,236.6,397.9,236.2,397.9,235.7L397.9,235.7z"/></g>
    <path class="st1"
          d="M410.3,239.5l-12.9-0.1c0,1.3,1.3,1.9,2.2,1.3c0,1.3,1.8,1.7,3,0.7c0.8,1.1,3.1,1.4,4-0.1   C408.5,242.9,410.5,241.7,410.3,239.5L410.3,239.5z"/>
    <g><path class="st10" d="M404.6,242.4c-0.9,0-1.7-0.4-2.1-1c-0.7,1.1-3,0.5-3-0.8c-0.2,0.6-1.3,0.4-1.7-0.2c-0.3-0.3-0.4-0.7-0.4-1.2    l13,0c0.2,0.9,0,1.6-0.5,2.1c-0.8,0.8-2.2,0.8-3.3-0.1C406.3,242,405.5,242.4,404.6,242.4L404.6,242.4z M402.5,241.3    c1.1,1.1,3.2,1.2,4-0.1c1.4,0.8,2.5,0.9,3.2,0.1c0.4-0.4,0.6-1.1,0.5-1.9l-12.7,0c0.1,0.3,0.2,0.7,0.5,0.9    c0.4,0.4,1.2,0.5,1.6,0.2C399.9,242.2,401.6,242.1,402.5,241.3L402.5,241.3z"/></g>
    <path class="st1"
          d="M410.1,250l-12.6,0c0.1,1.8,2.1,2.4,3.3,1.4c0.3,1.5,1.9,1.6,2.8,0.8c1.1,1.2,3,1.3,4,0   C409.1,252.7,410.2,251.4,410.1,250L410.1,250z"/>
    <g><path class="st10" d="M405.6,253.3c-0.8,0-1.6-0.4-2.1-1c-0.5,0.8-2.5,0.9-2.8-0.9c-0.6,1.1-3.2,0.5-3.3-1.4l12.7-0.1    c0.2,0.8,0,1.4-0.5,1.9c-0.4,0.4-0.8,0.6-1.4,0.6l0,0c-0.2,0-0.5,0-0.7-0.1C407.2,252.9,406.4,253.3,405.6,253.3L405.6,253.3z     M403.5,252.2c1.4,1.2,3.1,1.2,4,0c0.4,0,0.6,0.1,0.8,0.1l0,0c0.5,0,0.9-0.2,1.2-0.5c0.4-0.4,0.6-1,0.5-1.6l-12.5,0    c0.3,1.6,2.2,2,3.2,1.2C401.2,252.6,402.6,252.9,403.5,252.2L403.5,252.2z"/></g>
    <path class="st1"
          d="M409.5,259.5l-9.9-0.1c0,1.8,2.1,2,3,1.1c1,1.2,2.5,1.2,3.3,0.2C407.1,261.8,409.2,261.5,409.5,259.5   L409.5,259.5z"/>
    <g><path class="st10" d="M407.5,261.4L407.5,261.4c-0.6,0-1.3-0.2-1.8-0.7c-0.5,1-2.3,0.9-3.3-0.2c-0.5,0.9-3,0.8-3-1.1l10,0    C409.4,260.9,408.4,261.4,407.5,261.4L407.5,261.4z M405.7,260.6c0.6,0.4,1.2,0.6,1.8,0.6l0,0c0.8,0,1.7-0.5,1.8-1.7l-9.8,0    c0.2,1.7,2.2,1.6,2.9,0.9C403.6,261.4,404.9,261.5,405.7,260.6L405.7,260.6z"/></g>
    <path class="st10"
          d="M393.5,274.4c-5.4,0.1-10.8,0.1-14.5-0.5c-3.7-0.6-4.9-1.1-7.4-2.6c-3.8-2.3-4.7-2.8-10.1-6   c-0.8-0.5-1.7,0.1-0.6,0.9c5.4,3.6,7.5,4.9,10,6.6c2.7,1.8,4.4,3.3,6,5.2c2.1,2.4,3.7,2.5,4.7,2.1c1-0.4,2.5-0.9,4-0.5   c1.5,0.4,3.6,0.4,4.6,0.2c1,0.9,3.2,0.7,4.4,0.4c1.3-0.3,2.2-0.4,3.1-0.2c0.9,0.2,2.2,0,3.1-0.1c0.9-0.1,3.2-0.4,4.8-0.1   c1.6,0.2,3.3,0.1,4.3-0.2c1.1-0.3,3-0.2,3.7,0c0.9-0.7,1.4-1.6,1.6-2.5c1.1-0.1,1.5-0.3,1.7-0.9c0.4-1.2,0.9-2.3,1-2.8h0.4l0.1-1   l-0.9-1l0.3-2l1-0.2c0-0.6-0.2-1.5-0.4-1.9c-5.8,0.2-11.5,0.4-15.6,0.5c-0.5,0.4-1,1.3-1.1,1.9c-2.5,0.4-4,0.6-4.6,0.7   c-0.6,0.1-1,0.2-1.5,0.9C395,272.3,394.2,273.6,393.5,274.4L393.5,274.4z"/>
    <g><path class="st10" d="M392.8,280.6c-0.8,0-1.8-0.1-2.5-0.7c-0.9,0.3-3.2,0.1-4.6-0.2c-1.3-0.3-2.9,0.1-3.9,0.5    c-1.4,0.6-3.1-0.2-4.8-2.1c-1.8-2-3.5-3.5-6-5.2l-10-6.6c-0.6-0.4-0.6-0.7-0.6-0.9l0-0.1l0.6-0.3c0.2,0,0.4,0.1,0.6,0.2    c5.4,3.1,6.3,3.7,10.1,6c2.5,1.5,3.6,2,7.4,2.6c2.3,0.3,5.4,0.5,9.9,0.5c1.5,0,3.1,0,4.6,0c0.2-0.4,0.6-0.9,0.9-1.4    c0.4-0.6,0.8-1.2,1.2-1.8c0.5-0.7,0.9-0.8,1.5-0.9c0.4-0.1,1-0.2,1.8-0.3l3-0.5c0-0.5,0.5-1.5,1-1.9c4.1-0.1,9.8-0.3,15.7-0.5    c0.3,0.5,0.6,1.4,0.5,2l-1.1,0.3l-0.2,1.9l0.9,0.9l-0.1,1.1c-0.6,0.5-1,1.7-1.4,2.8c-0.3,0.7-0.7,0.8-1.8,1    c-0.2,1-0.7,1.8-1.6,2.5c-0.9-0.2-2.8-0.2-3.7,0.1c-1.1,0.3-2.8,0.5-4.4,0.2c-1.6-0.2-3.9,0-4.8,0.1c-0.9,0.2-2.3,0.3-3.1,0.1    c-0.8-0.2-1.8,0-3,0.2C394.2,280.5,393.4,280.6,392.8,280.6L392.8,280.6z M390.4,279.7c1.2,1,3,0.7,4.4,0.4    c1.3-0.3,2.3-0.4,3.1-0.2c0.8,0.1,2.2,0,3-0.1c0.9-0.1,3.2-0.4,4.8-0.1c1.5,0.2,3.2,0.1,4.3-0.2c0.9-0.3,3-0.3,3.7,0    c0.7-0.6,1.2-1.4,1.5-2.4c1.2-0.2,1.5-0.4,1.7-0.9c0.4-1.1,0.8-2.3,1-2.8l0.6-1l-0.9-1l0.3-2.1l1.1-0.3c0-0.5-0.3-1.4-0.5-1.7    c-5.7,0.3-11.4,0.5-15.5,0.6c-0.4,0.3-0.9,1.3-1,1.9l-3,0.6c-0.8,0.1-1.3,0.2-1.7,0.3c-0.7,0.1-1,0.2-1.5,0.8    c-0.4,0.6-0.8,1.2-1.2,1.7c-0.4,0.6-0.7,1.1-1,1.5c-6.4,0.3-11.5,0-14.6-0.4c-3.8-0.6-5-1.1-7.4-2.6c-3.8-2.3-4.7-2.8-10.1-6    l-0.9,0c0,0.1,0.1,0.4,0.5,0.7l10,6.6c2.5,1.6,4.3,3.2,6.1,5.2c1.6,1.9,3.2,2.6,4.5,2c1.1-0.4,2.7-0.9,4.1-0.5    C387.1,279.8,389.2,279.9,390.4,279.7L390.4,279.7z"/></g>
    <path class="st10"
          d="M412.2,267.4c0.3-1,1-3.6,2.4-8.6c0.2-0.8-0.6-1.2-0.9-0.1c-1.6,5.8-2.2,8-2.5,8.7   C411.6,267.4,412.1,267.4,412.2,267.4L412.2,267.4z"/>
    <g><path class="st10" d="M412.2,267.5l-0.9-0.1l0.4-0.1l0.5,0.1l0.1-0.6c0.4-1.3,1.1-3.8,2.2-8l0-0.6l-0.2,0c-0.1,0-0.3,0.2-0.5,0.6    l-2.6,8.7v-0.1v0.1l-0.1,0l2.5-8.7c0.1-0.5,0.4-0.8,0.7-0.8c0.5,0.3,0.5,0.6,0.4,0.9c-1.2,4.2-1.9,6.7-2.2,8L412.2,267.5    L412.2,267.5z"/></g>
    <path class="st1"
          d="M421.2,257.6c-2,1-2.9,1.4-3.8,1.1c-0.8-0.3-2-0.5-2.8-0.1c0,0.1,0,0.2,0,0.2c-0.8,3.1-1.5,5.2-1.9,6.7   c1.5,0.5,4,0.6,4.5,0c0.6-0.6,2.2-0.5,3.1-0.5c0.5-0.7,0.7-1.6,0.6-2c-0.1-0.4-0.1-1.2,0.1-1.7   C421.3,260.7,421.6,258.8,421.2,257.6L421.2,257.6z"/>
    <g><path class="st10" d="M385.9,274.5l0.2-0.6h-1.5l0.2,0.5l-0.4-0.5l-0.2,0.5l0.2-0.5h-0.9l0.1,0.4l-0.2-0.4h-0.6l-0.2,0.5l0.2-0.5    h-0.1l0.1,0l-0.4,0l0.1,0.4l-0.1-0.4l-1,0.1l0.1,0.3l-0.1-0.3l-0.1,0l-1.4-6.4l-1-4.2l0.2,0l0.3,0.5l-0.2-0.7l0.2-0.1l0.2,0.7h0.4    l-0.1-0.2l0.2-0.1l0.1,0.2h0.6l-0.5,0.1l0.2,0.5h0.4l-0.2-0.5l0.2-0.1l2.9,8l5.8-12l0.2,0.1l-0.3,0.5l0.2,0l0.3-0.8l0.2,0.1    l-0.3,0.7l0.2,0l0.3-0.9l0.2,0.1l-0.2,0.7l0.2,0l0.1-0.5l0.2,0.1l-3.8,14.7l1.5-6.1h-0.9l-0.3,0.9l0.9-0.1v0.2h-0.9l-0.2,0.8    l1-0.1v0.2h-1l-0.3,1l1-0.1v0.2h-1l-0.3,0.9l1.1-0.1v0.2h-1.2l-0.4,1.2l1.2-0.1v0.2h-1.3L385.9,274.5L385.9,274.5z M383.5,273.8    L383.5,273.8l1-0.2l-0.4-1.1l-0.5,0.1l0.5,0v0.2h-0.6l-0.2,0.4L383.5,273.8l1-0.1L383.5,273.8L383.5,273.8z M378.4,273.8h-0.2    v-0.7h-1l-0.1,0.5l0-0.5l-1.1,0.3l0-0.3h-1.2l0.3,0l0.2-0.9h-0.9l-0.1,0.6l0.1-0.6h-0.1h0.1l0.2-1h-0.1h0.1l0.2-0.9h0h0l0.2-0.9h0    h0l1.2-5.4l0.2,0l0,0.2l0.5-0.3l0.2,0l0,0.2l0.2,0l0.1-0.6l0.2,0l-0.1,0.5l0.4,0l0.1-0.7l0.2,0l-0.1,0.7l0.1,0v-0.6l0,0.6l0.1,0    l-0.1,0.6l0.1,0l-0.1,0.8l0.1,0L378.4,273.8L378.4,273.8z M371.1,271c0.1-0.7,0.2-1.5,0.3-2.4c-0.6,0.6-1.2,1.2-1.7,1.6    c0.5-0.6,1.1-1.3,1.7-2c0.3-1.8,0.6-4,0.9-6.1c-2.6,2.5-4.9,4.6-6.5,5.8l-0.1-0.2c1.6-1.2,4-3.4,6.7-6c0.5-3.2,0.9-6.3,1.2-8.6    l0.2,0c-0.3,2.2-0.7,5.3-1.2,8.3c3-3,6.3-6.4,8.9-9.5c-1.1-0.6-2.1-1.3-2.4-1.7l0.2-0.1c0.2,0.3,1.2,1,2.4,1.7    c2.1-2.5,3.7-4.8,4.4-6.5c-0.6,1.7-2.2,4-4.3,6.6c1.2,0.6,2.5,1.2,3.3,1.2c-0.8,0.1-2.2-0.4-3.4-1.1c-2.6,3.2-6,6.8-9.1,9.8    c-0.3,2.2-0.7,4.3-1,6.2c0.5-0.6,1.1-1.2,1.6-1.7c0.9-1,1.7-1.9,2.5-2.6l0.2,0.2c-0.7,0.7-1.6,1.6-2.5,2.6c-0.6,0.7-1.2,1.3-1.8,2    C371.4,269.4,371.2,270.3,371.1,271L371.1,271z M398.5,270.2l0.1-0.3l-0.4-0.8l0.1,0l-0.5-1.2h0.1l-0.4-1.2h0l-0.4-1.2h0l-0.4-1.2    h0l-1.4-4.1l0.2-0.1l0.2,0.6l0.3,0l-0.1-0.3l0.2-0.1l0.1,0.3l0.3,0l-0.1-0.2l0.2-0.1l0.1,0.3l0.5-0.1l-0.2-0.3l0.2,0.3l0.2,0    l0,0.2l0.6,1l0.1,0l0,0.2l0.6,1l0.1,0v0.2l0.6,1l0.1,0v0.1l0.6,1l1.3-4.3l0.8,0.1l0.1-0.5l0.2,0.1l-0.1,0.4l0.5-0.1l0,0.1h0.4    l-0.5,0.1l-0.2,1.1h0.6l0.2-1l0.2,0l-1.5,7.4l0.2,0.3L402,269l-0.1,0.6l0.1-0.6h-0.8l-0.1,0.4l0.1,0.2l-0.1-0.2l-0.1,0.3l-0.2,0    l0.1-0.6l-0.1-0.1l-0.9,0.1l-0.1,0.4l0.2,0.4l-0.2-0.4l-0.2,0.5l0.1-0.5l-0.1-0.3l-0.8,0.1l-0.2,0.7l0.1,0.2l-0.1-0.2L398.5,270.2    L398.5,270.2z M401.6,267.8l0.4,0.7l1-5.3l-0.7,0.1l-0.2,1.1h0.7l-0.7,0.1l-0.2,1.1h0.7l-0.7,0.1l-0.2,1.1h0.7l-0.7,0.1l-0.2,0.8    L401.6,267.8l0.5,0L401.6,267.8L401.6,267.8z M405.1,267.7c0.4-0.3,0.8-0.6,1.2-0.9l-0.2-0.6h0.1l-0.3-0.9h0l-0.3-0.9h0l-0.8-3    l0.2,0l0.1,0.3l0.5,0l-0.2-0.5l0.2-0.1l0.2,0.5l0.5,0l-0.2-0.4l0.1,0c-1.1-1.1-2.2-2.2-3.3-3.4c-0.7,1.1-2.3,1.8-2.9,2l0-0.2    c0.6-0.1,2.2-0.9,2.9-1.8c-4.8-5.4-9.2-11.9-12.6-16.9l-0.1-0.2c-0.9,0.6-2,1.1-2.9,1.3l-0.1-0.2c0.8-0.2,1.9-0.7,2.8-1.3l-2-3    l0.2-0.1l2,3c0.6-0.4,1.2-0.8,1.6-1.3c-0.4,0.5-0.9,1-1.5,1.4l0.1,0.2c3.4,4.9,7.8,11.5,12.5,16.9c0.1-0.1,0.1-0.2,0.2-0.3    c0,0.1-0.1,0.2-0.1,0.4c1.2,1.4,2.5,2.7,3.8,4l0.3,0v0l0.1,0l0.2,0.7c0.7,0.7,1.5,1.3,2.2,1.9c1-1,1.9-2,2.8-3.1    c-0.1-0.2-0.2-0.3-0.3-0.5c-4.3-2.8-8.4-7.2-11.4-11.4c-0.9,0.6-1.9,1.1-2.7,1.4l-0.1-0.2c0.8-0.3,1.8-0.7,2.7-1.3    c-1.2-1.6-2.2-3.2-3-4.7l0.2-0.1c0.8,1.5,1.8,3.1,3,4.7c0.8-0.5,1.6-1.1,2.1-1.8c-0.5,0.7-1.2,1.4-2,1.9c3,4.2,6.9,8.5,11.1,11.5    c-2.4-4.3-3.9-9.7-5.7-16.2l-0.5-1.9l0.7,1.8c1.9,6.8,3.4,12.2,5.9,16.6c0,0,0.1,0,0.1,0.1c0.3-0.4,0.6-0.7,0.8-1.1l0.2,0.1    c-0.3,0.4-0.5,0.7-0.8,1.1c0.1,0.1,0.2,0.2,0.4,0.2c-0.1-0.1-0.2-0.1-0.4-0.2c0,0-0.1,0.1-0.1,0.1c0.1,0.2,0.2,0.4,0.4,0.6    l-0.2,0.1c-0.1-0.2-0.2-0.4-0.3-0.5c-0.9,1.1-1.8,2.1-2.8,3c0.7,0.5,1.4,1,2.1,1.5c-0.7-0.4-1.4-0.9-2.1-1.4    c-0.4,0.4-0.8,0.7-1.2,1.1l0.9,2.4l-1-2.4c0,0,0,0,0,0l-0.1,0.1c-0.2,0.1-0.3,0.3-0.5,0.4l0.1,0.4l0.8-0.1v0.2h-0.7l0.3,0.8    l0.8-0.1v0.2h-0.8l0.1,0.4l-0.2-0.4h-0.9l0.1,0.5l-0.2-0.5h-1.1l0.1,0.5l-0.3-0.5l0.1,0l-0.1-0.2    C405.9,267.1,405.5,267.4,405.1,267.7L405.1,267.7z M407.5,262.1l1,2.7c0.4-0.3,0.7-0.7,1.1-1    C408.9,263.3,408.2,262.7,407.5,262.1L407.5,262.1z M415.4,266c-0.9,0-1.9-0.2-2.6-0.4l1.8-6.8c0.8-0.7,2.1-0.5,2.9-0.2    c0.8,0.3,1.8-0.1,3.7-1.1l0.1-0.1l0,0.1c0.3,1.2,0.1,3.1-0.1,3.7c-0.2,0.6-0.2,1.3-0.1,1.7c0.2,0.5-0.1,1.4-0.6,2.1    c-1.1,0-2.5-0.1-3.1,0.5C417.1,265.8,416.3,266,415.4,266L415.4,266z M415.7,258.4c-0.4,0-0.7,0.1-0.9,0.2l-1.8,6.6    c1.2,0.6,3.7,0.7,4.3,0.1c0.6-0.6,2.1-0.6,3-0.5c0.6-0.6,0.8-1.4,0.6-1.8c-0.1-0.4-0.1-1.2,0.1-1.8c0.2-0.6,0.4-2.3,0.2-3.4    c-1.9,1-2.8,1.4-3.8,1C416.9,258.6,416.2,258.4,415.7,258.4L415.7,258.4z M362.3,265.9c3.6-3.8,9.1-13.7,12.3-20.6    c-0.3,0.1-0.5,0.2-0.7,0.3c0.2-0.1,0.5-0.3,0.8-0.4c0.7-1.6,1.3-3.1,1.7-4.2l0.2,0.1c-0.4,1.1-0.9,2.5-1.6,4    c1.1-0.6,2.5-1.5,3.2-2.1l0.1,0.2c-0.7,0.6-2.2,1.5-3.4,2.1C371.8,252.1,366.1,262.2,362.3,265.9L362.3,265.9z M374.6,261.1    l-0.1-0.2c1.1-0.4,3-1.3,4.8-2.5c0,0-0.1,0-0.1-0.1l0.1-0.2c0.1,0,0.1,0.1,0.2,0.1c1.5-1,3-2.2,4-3.4c-0.9,1.3-2.4,2.5-3.9,3.5    c2.3,1.6,4.1,2.5,5.4,2.7c-1.4,0-3.2-0.9-5.6-2.6C377.6,259.8,375.7,260.7,374.6,261.1L374.6,261.1z M408,259.4    c-1.3-0.2-3.2-2-3.9-2.9l0.2-0.1C405.1,257.3,406.9,259,408,259.4L408,259.4z M387.6,258c1.4-0.6,3-2.2,4.4-3.6l0.2,0l0,0.2    C390.8,256,389.1,257.6,387.6,258L387.6,258z M397.8,257.9c-2-0.3-4.2-2.5-4.8-3.2l0.2-0.2C394.8,256.3,396.5,257.5,397.8,257.9    L397.8,257.9z M374.2,253.4l-0.1-0.2c0.9-0.4,2.7-1.3,4.1-2.7C377,252,375.1,252.9,374.2,253.4L374.2,253.4z M396.8,250.1    c-1.2-0.3-2.1-1.1-3-2c-0.3-0.3-0.7-0.6-1-0.9l0.1-0.2c0.3,0.3,0.7,0.6,1,0.9C394.8,248.8,395.7,249.7,396.8,250.1L396.8,250.1z     M387,250c2.2-0.8,4.4-2.7,5-3.2l0.1,0.2C391.5,247.6,389.3,249.4,387,250L387,250z M407.3,249.9c-1.2-0.2-3-2.2-3.4-3l0.2-0.1    C404.5,247.7,406.3,249.5,407.3,249.9L407.3,249.9z M384.4,245.4c-1.8,0-4.1-1.4-5.3-2.3l0.1-0.2c1.1,0.7,3.7,2.5,5.5,2.5    C384.6,245.4,384.5,245.4,384.4,245.4L384.4,245.4z M397.4,241.5c-1.3-0.1-3.7-1.3-5-2.7l0.2-0.1    C393.9,240,396.2,241.1,397.4,241.5L397.4,241.5z M398.9,239.5C398.9,239.5,398.9,239.5,398.9,239.5c1.2-0.2,3.2-1.7,3.9-2.5    l0.2,0.2C402.2,238,400.2,239.5,398.9,239.5L398.9,239.5z M406.5,239.3c-0.9,0-2.3-1.4-2.9-2.3l0.2-0.1    C404.4,237.9,405.8,239.2,406.5,239.3C406.6,239.3,406.5,239.3,406.5,239.3L406.5,239.3z M374.1,239.2c1-0.5,2.5-1.7,4.1-3.6    l0.2,0.1C377.2,237.1,375.5,238.8,374.1,239.2L374.1,239.2z M383.5,239.2c-1.5,0-3.7-1.8-4.5-3.1l0.2-0.1    C380,237.2,382.1,238.9,383.5,239.2L383.5,239.2z M387.5,235.9l0-0.2c0.7-0.2,3-0.8,4.2-2.4C390.7,235.1,388.2,235.7,387.5,235.9    L387.5,235.9z M397.1,235.5c-1.4,0-3.5-1.4-4.8-2.5l0.1-0.2c1.1,0.9,3.4,2.6,4.8,2.7C397.2,235.5,397.1,235.5,397.1,235.5    L397.1,235.5z"/></g>
    <path class="st8"
          d="M377.7,277.7c1.4-0.9,3.9-0.7,5.1,0.2c1.5-0.8,4.2-0.6,5.4,0.5c1.9-1.3,3.5-1.5,5.3-0.2c1.4-1,3.7-1.1,5.4,0.1   c1.7-0.8,3.5-1.4,5.1,0.3c-1-0.7-3.1-1.3-5.1,0.3c-1.6-1.6-4.4-1-5.4,0.1c-1.2-1.4-3.7-1.7-5.3,0.1c-1.7-1.4-4.2-1.4-5.5-0.4   C381.8,277.8,380.2,277.1,377.7,277.7L377.7,277.7z"/>
    <path class="st7"
          d="M403,275.7c-7.4,1.3-23.4,0.4-26.9-0.5c-1.2-0.3-0.9-0.7,0.1-0.5c4.1,0.9,12.7,0.9,17.4,0.7   c0.9-1.2,2.4-3.3,2.8-3.9c0.4-0.6,0.6-0.6,1.6-0.8c1.6-0.3,2.6-0.4,4-0.7c0,0.2,0,0.4,0,0.6c-0.1,0.1-0.2,0.3-0.3,0.3   c0,0.9,0.2,3.3,0.4,4.1c0.2,0,0.4-0.1,0.5-0.1C403,274.8,403.3,275.6,403,275.7L403,275.7z"/>
    <path class="st7"
          d="M415,276.1c0.3,0,0.8,0,1,0c0.3,0,0.7-0.2,0.9-0.7c0.2-0.5,0.8-2.2,1-2.9l-0.7-1.1c0.2-0.9,0.4-2.2,0.4-2.4   c0.4-0.1,0.8-0.3,0.9-0.3c0-0.2,0-0.8-0.2-1c-3.2,0.1-12.6,0.5-14.4,0.5c-0.4,0-0.6,0-0.8,0.6c-0.9,3.3,0.3,7.9,3.7,10.5   c0.2,0.2,0.5,0,0.1-0.3c-0.6-0.5-1.4-1.6-2-2.6c0.6,0,2,0,2.4,0c0.2,0.8,0.8,2.4,0.9,2.7c0.1,0.3,0.4,0.3,0.3-0.1   c-0.3-1-0.5-2.1-0.6-2.6c0.6,0,1.7,0,2.4,0c0,0.9,0.1,2.1,0.1,2.4c0,0.3,0.3,0.3,0.3,0c0-0.4,0-1.9,0-2.4c0.8,0,1.8-0.1,2.2-0.1   c-0.1,0.5-0.2,2.1-0.2,2.4c0,0.4,0.1,0.6,0.2,0c0.1-0.5,0.3-1.8,0.3-2.4c0.3,0,1.1,0,1.5,0c0,0.5-0.5,2-0.6,2.4   c-0.1,0.4,0.1,0.4,0.2,0C414.4,278.1,415,276.6,415,276.1L415,276.1z"/>
    <path class="st10"
          d="M404.5,275.7c-0.3-0.5-1-2.3-1.1-3.6c0.7,0,2.3,0,3.1-0.1c0.1,1,0.4,3.1,0.6,3.6   C406.2,275.6,405,275.7,404.5,275.7L404.5,275.7z"/>
    <path class="st10"
          d="M407.1,272c0.1,0.8,0.5,3.4,0.6,3.7c0.7,0,2.3,0,2.5-0.1c0-0.7-0.1-3.3-0.1-3.7   C409.3,271.9,407.5,272,407.1,272L407.1,272z"/>
    <path class="st10"
          d="M403.5,268.8c-0.1,0.7-0.2,2.1-0.1,2.7c0.8,0,2.8,0,3.1-0.1c-0.1-0.7-0.2-1.9-0.3-2.7   C405.6,268.7,404,268.7,403.5,268.8L403.5,268.8z"/>
    <path class="st10"
          d="M406.8,268.7c0,0.6,0.2,2.2,0.2,2.7c0.7,0,2.4-0.1,3-0.1c0-0.6-0.1-2.5-0.1-2.7   C409,268.6,407.4,268.7,406.8,268.7L406.8,268.7z"/>
    <path class="st10"
          d="M410.5,268.6c0,0.6,0.1,2.3,0.1,2.7c0.7,0,2.2,0,2.6-0.1c0-0.6,0.1-2.3,0.1-2.8   C412.4,268.5,411.1,268.5,410.5,268.6L410.5,268.6z"/>
    <path class="st10"
          d="M413.8,268.4c0,0.5-0.1,2.3-0.1,2.8c0.7,0,2.4-0.1,2.8-0.1c0.1-0.6,0.3-2.1,0.4-2.8   C416.2,268.4,414.3,268.4,413.8,268.4L413.8,268.4z"/>
    <path class="st10"
          d="M416.6,271.7c-0.9,0-2.5,0.1-3,0.1c-0.1,1.2-0.2,3.2-0.3,3.7c0.8,0,2.5-0.1,2.9-0.1c0.3-0.6,0.9-2.3,1-2.8   C417.1,272.2,416.9,272.1,416.6,271.7L416.6,271.7z"/>
    <path class="st10"
          d="M410.6,271.9c0,0.4,0.1,3.4,0.1,3.6c0.5,0,1.9,0,2.2-0.1c0.1-1.2,0.3-3.4,0.3-3.7   C412.2,271.9,411.2,271.9,410.6,271.9L410.6,271.9z"/>
    <path class="st10"
          d="M398.3,271.2l-1.2,0.2c-0.6,0.9-2.6,3.7-2.9,4c1.4,0,3.7-0.1,4.2-0.1C398.5,274.5,398.4,271.5,398.3,271.2   L398.3,271.2z"/>
    <path class="st10"
          d="M398.9,271.1c0,0.9,0.1,3.5,0.1,4.1c0.7,0,2-0.1,2.5-0.2c-0.1-1.2-0.3-4-0.4-4.4   C400.6,270.8,399.4,271,398.9,271.1L398.9,271.1z"/>
    <path class="st10" d="M386.5,261.1c0.2,0,0.2,0.1,0,0.1l-13.6-0.2c-0.2,0-0.2-0.1,0-0.1L386.5,261.1z"/>
    <g><path class="st10" d="M386.5,261.3l-13.6-0.2l6.8-0.1l6.8,0.2l0,0L386.5,261.3L386.5,261.3z M386.5,261.1l-6.6,0l6.7-0.1    L386.5,261.1L386.5,261.1z"/></g>
    <path class="st10" d="M397.2,250.2c0.2,0,0.2,0.1,0,0.1l-10.8-0.3c-0.2,0-0.2-0.1,0-0.1L397.2,250.2z"/>
    <g><path class="st10" d="M397.2,250.4l-10.8-0.3l5.5,0l5.3,0.1l0,0.1l0-0.1V250.4L397.2,250.4z M397.2,250.2l-5.2-0.1l5.2,0V250.2    L397.2,250.2z"/></g>
    <path class="st10" d="M385.8,253.3c0.2,0,0.2,0.1,0,0.1l-12.1-0.1c-0.2,0-0.2-0.1,0-0.1L385.8,253.3z"/>
    <g><path class="st10" d="M385.8,253.5l-12.1-0.1l6.1-0.1l6.1,0.1v-0.1V253.5L385.8,253.5z M385.8,253.3h-5.9l5.9-0.1V253.3    L385.8,253.3z"/></g>
    <path class="st10" d="M386.2,245.4c0.2,0,0.2,0.1,0,0.1l-12.7-0.1c-0.2,0-0.2-0.1,0-0.1L386.2,245.4z"/>
    <g><path class="st10" d="M386.2,245.7l-12.7-0.1l12.7-0.2v0.1v-0.1V245.7L386.2,245.7z M379.9,245.5l6.2-0.1v0.1L379.9,245.5    L379.9,245.5z"/></g>
    <path class="st10" d="M385.3,239.2c0.2,0,0.2,0.1,0,0.1l-12.3-0.2c-0.2,0-0.2-0.1,0-0.1L385.3,239.2z"/>
    <g><path class="st10" d="M385.3,239.5l-12.3-0.2l6.2-0.1l6.2,0.2l0-0.1L385.3,239.5L385.3,239.5z M385.3,239.3l-6.1,0l6.1-0.1    L385.3,239.3L385.3,239.3z"/></g>
    <path class="st1" d="M398,235.6c0.2,0,0.2,0.1,0,0.1l-10.6,0.1c-0.2,0-0.2-0.1,0-0.1L398,235.6z"/>
    <g><polygon class="st10" points="387.4,235.9 387.2,235.8 398,235.5 394.1,235.7 398,235.6 387.4,235.9   "/></g>
    <path class="st10" d="M398.7,241.5c0.2,0,0.2,0.1,0,0.1H387c-0.2,0-0.2-0.1,0-0.1H398.7z"/>
    <g><polygon class="st10" points="398.7,241.7 387,241.7 398.7,241.5 398.7,241.7   "/></g>
    <path class="st10" d="M410.1,249.9c0.2,0,0.2,0.1,0,0.1h-12.6c-0.2,0-0.2-0.1,0-0.1H410.1z"/>
    <g><path class="st10" d="M410.1,250.2h-12.6l12.6-0.2V250.2L410.1,250.2z M403.9,250l6.2-0.2v0.1L403.9,250L403.9,250z"/></g>
    <path class="st10" d="M410.3,239.4c0.2,0,0.2,0.1,0,0.1l-12.8-0.1c-0.2,0-0.2-0.1,0-0.1L410.3,239.4z"/>
    <g><path class="st10" d="M410.3,239.6l-12.8-0.1l6.3-0.1l6.6,0.1l0,0L410.3,239.6L410.3,239.6z M410.3,239.4l-6.4,0l6.4-0.1    L410.3,239.4L410.3,239.4z"/></g>
    <path class="st10" d="M398.4,257.9c0.2,0,0.2,0.1,0,0.1l-11.3-0.1c-0.2,0-0.2-0.1,0-0.1L398.4,257.9z"/>
    <g><polygon class="st10" points="398.4,258.1 387.1,258 398.4,257.9 398.4,258 398.4,258 398.4,258.1   "/></g>
    <path class="st10" d="M409.5,259.4c0.2,0,0.2,0.1,0,0.1l-9.9-0.1c-0.2,0-0.2-0.1,0-0.1L409.5,259.4z"/>
    <g><path class="st10" d="M409.5,259.7l-9.9-0.1l5-0.1l5,0.1v-0.1V259.7L409.5,259.7z M409.5,259.4l-4.8,0l4.8-0.1V259.4L409.5,259.4z    "/></g>
    <path class="st11"
          d="M418.4,261.3c0.3-0.6,0.3-2,0.2-2.6c-0.4,0.1-0.8,0.1-1.2-0.1c-0.2-0.1-0.4-0.1-0.6-0.2   c0,0.7-0.3,2.5-0.6,3.2c-0.6,0.2-1.7,0-2.3-0.2c-0.2,0.6-0.3,1.2-0.5,1.7c0.8,0.2,1.8,0.2,2.6,0c-0.1,1.1-0.2,2-0.8,2.7   c0.9,0,1.8-0.1,2.1-0.5c0,0,0.1-0.1,0.1-0.1c0.4-0.7,0.4-1.7,0.6-2.3c0.3,0,0.7-0.1,0.9-0.3c0.2-0.2,0.5-0.3,0.8-0.3   c0.3,0,0.7,0,1.2-0.3c0-0.3,0.1-0.7,0.2-1c0.1-0.2,0.1-0.4,0.2-0.8C420.6,260.8,419.1,261.3,418.4,261.3L418.4,261.3z"/>
    <g><path class="st10" d="M415.4,266l-0.2,0c0.5-0.8,0.6-1.8,0.7-2.8c-0.6,0.4-1.7,0.3-2.5,0.1l0.3-1.6c0,0,0.1,0,0.1,0l-0.3,1.5    c0.3,0,0.7,0,1.1,0c0.5,0,0.9,0,1.3-0.1c0.1,1,0,2-0.5,2.7c0.9,0,1.6-0.2,1.8-0.4c0.4-0.6,0.5-1.3,0.6-1.9l0.3-0.6    c0.3,0,0.6-0.1,0.7-0.2c0.2-0.2,0.6-0.3,0.9-0.3c0.3,0,0.7,0,1.2-0.2c-0.1-0.2,0-0.6,0.1-0.9c0.1-0.2,0.1-0.4,0.2-0.8    c-0.5,0.4-2,1-2.7,1c0.1-0.5,0.1-1.4,0.1-2.1c0.3,0.7,0.2,1.6,0,2c0.6-0.2,2-0.7,2.7-1c0.1,0.5,0,0.8,0,0.9    c-0.1,0.3-0.2,0.6-0.2,1c-0.5,0.3-1,0.3-1.3,0.4c-0.4,0-0.6,0.1-0.8,0.2c-0.2,0.2-0.6,0.3-0.9,0.3c-0.1,1-0.2,1.7-0.6,2.3    C417,265.9,416,266,415.4,266L415.4,266z M415.7,261.9c-0.5,0-1.2-0.1-1.7-0.3c0.6-0.1,1.2,0,1.7,0l0,0c0.8-0.7,1-2.5,1.1-3.2    c0.4,0,0.6,0,0.8,0.1c0.2,0.1,0.4,0.1,0.6,0.1c0.1,0,0.1,0.1,0.1,0.1c-0.5,0.1-0.7,0-0.9,0c-0.2-0.1-0.4-0.1-0.6-0.2    c0.1,0.6-0.2,2.5-0.5,3.2l0,0.1L415.7,261.9L415.7,261.9z"/></g>
    <path class="st10"
          d="M374.3,201.1c-1.4,0-4.5,0.1-5.1,0.4c-0.6,0.4-0.9,0.5,0.2,0.7c1.1,0.2,3,0.7,4.1,1.4c1,0.6,1.9,1.8,1.6,3.4   c-0.9,4.9,1.7,9.6,5.4,11.3c0.4,0.2,0.4,0.3,0.4,1c-0.1,0.7-0.3,1.8-0.5,2c-0.2,0.3-0.3,0.7,0.3,0.5c-0.4,0.8-1.4,2.5-1.7,2.9   c-2.9-0.4-5.4,0-5.6,3.1c0,0.3,0.1,0.8,0.5,0c0.5-0.8,1-1.5,2.2-1.7c-0.7,1.1-1,2.2-0.9,2.8c0.1,0.7,0.3,1.1,0.6,0.2   c0.3-0.8,0.9-1.6,1.6-2.1c0.2-0.2,0.4-0.2,0.2,0.3c-0.2,0.5,0.1,1.6,0.4,2c0.4,0.4,0.5,0.2,0.4-0.4c-0.1-0.6,0-1.9,0.8-2.3   c1.1-0.6,2-0.3,2.5,0.5c0.4,0.8,0.8,0,0.3-0.8c-0.5-0.9-1-1.5-1.8-1.5c0.7-1.2,1.5-2.8,1.7-3.1c0.2-0.3,0.5-0.4,0.7-0.3   c0.2,0.2,0.4,0.2,0.6-0.3c0.2-0.5,0.7-2,1.3-2.6c0.3-0.1,0.8-0.2,1-0.4c0.8,1.1,1.5,2.4,1.7,2.7c0.2,0.3,0.4,0.4,0.2,1   c-0.2,0.6-0.8,2.4-0.9,2.8c-2.2,0.1-3.2,0.1-3.9,1.3c-0.3,0.5,0.2,0.7,0.7,0.5c0.5-0.3,1.3-0.5,1.6-0.5c0.4,0.1,0.6,0.3,0.2,0.4   c-1.3,0.7-2.2,1.5-2.1,2.7c0,0.4,0.2,0.6,0.5,0.1c0.5-0.8,1.3-1.6,2.3-1.8c-0.1,1,0.2,2.4,0.8,2.7c0.6,0.3,0.6,0,0.4-0.6   c-0.4-0.9,0-1.9,0.5-2.4c0.9-1,3.1,0.4,3.5,0.8c0.4,0.4,0.8,0.5,0.5-0.4c-0.3-1.2-2.1-2-3.6-2.2c0.4-2,1.6-6.1,2.2-7.5   c0.9,0.5,1.6-0.8,3.1-0.2c2.5,0.9,6.2,3.3,6.9,3.8c0.6,0.5,0.9,0.4,1.2,0.1c0.3-0.3,0.9,0,1.3,0.1c0.4,0.1,0.8,0.2,0.3-0.9   c-0.6-1.1-1.9-3.1-4.2-4.6c1.4,0.1,3.2,0.1,3.2-0.2c0-0.4-2.1-1-3-1.1c0.8-0.2,2.1-0.7,2.7-1.4c0.4-0.4-0.1-0.5-1.3-0.5   c-3.9-0.1-5.8,0-7.8-1.2c-3.2-1.8-5-3.8-6.6-4.6c-0.9-0.4-1.4-1.5-1.7-2.3c-1-2.8-1-4.1-3.4-5C378.4,198.8,375.6,199.9,374.3,201.1   L374.3,201.1z"/>
    <path class="st1"
          d="M374.5,201.8c-0.6,0-1.8-0.2-2.9-0.1c-0.2,0-0.5,0.1,0,0.2c0.6,0.1,2.1,0.4,2.6,0.6c0.5,0.2,0.3,0.5-0.2,0.3   c-0.5-0.1-0.6,0.1-0.3,0.3c2,1.4,2.2,1.9,1.7,6.7c0.4,0.3,0.7,0.4,1,0.6c0.3,0.2,0.2,0.4-0.1,0.3c-0.3-0.1-0.7,0.1-0.1,0.2   c0.6,0.1,0.8,0.4,0.3,0.3c-0.5,0-1.2,0.4-0.1,0.3c1-0.1,1.5,0.4,0.2,0.4c-1.2,0-0.8,0.4-0.1,0.4c1.2,0,0.8,0.3,0.5,0.3   c-0.3,0-0.4,0.4,0.3,0.3c0.8-0.1,1.1-0.1,1.3,0c0.3,0,0.4,0.3,0,0.3c-0.4,0-0.4,0.3,0.2,0.3s0.9,0.2,0.3,0.3   c-0.2,0-0.6,0.2,0.1,0.3c1.2,0.2,1.2,0.4,0.8,0.5c-0.4,0-0.4,0.3,0.1,0.3c0.5,0,1,0.2,0.6,0.3c-0.4,0.1-0.7,0.4-0.1,0.4   c0.6,0,1,0.3,0.6,0.4c-0.4,0.1-0.5,0.4,0,0.4c0.5,0,0.7,0.3,0.4,0.5c-0.4,0.2-0.6,0.3-0.9,0c-0.2-0.4-0.4-0.5-0.4-0.2   c-0.1,0.3-0.2,0.1-0.4-0.3c-0.2-0.4-0.5-0.5-0.4-0.2c0.1,0.3-0.3,0.4-0.7,0.2c1.5,1.5,3.6,2.8,7,1.4c0.3-0.1,0.3,0,0.6,0.5   c0.2,0.5,0.9,1.6,1.1,1.9c0.2,0.4,0.4,0,0.5-0.3c0.5-1.5,0.8-2.7,0.9-3.1c0.1-0.4,0.8-0.8,0.6,0.6c0.5-0.3,2.8-0.7,4.5,0   c1.9,0.7,3.8,1.8,4.8,2.6c0.2,0.1,0.4,0.3,0.9,0.3c0.5,0,0.6-0.1-0.3-0.9c-0.9-0.8-0.5-1.2,0-0.8c0.6,0.4,0.9,0.2,0.4-0.3   c-0.4-0.5-1.4-1.4-1.7-1.7c-0.3-0.2-0.4-0.3-1.1-0.4c-0.7,0-2.3,0-2.8,0c-0.5,0-0.6,0,0.4,0.4c1,0.4,3.1,1.7,3.6,2   c0.5,0.3,0.8,1.1-0.2,0.4c-1-0.6-4.2-2.6-6.3-3.4c-4.8,0.3-8.7,1-11.5-2.2c-1.4-1.5-1.4-4.9,0.9-6.4c-0.5-0.4-0.4-0.6-0.2-0.7   c0.2-0.1,0.3-0.2,0.1-0.4c-0.2-0.2-0.2-0.4,0-0.5c-0.5-0.3-0.7-0.6-0.7-0.9c-0.6-0.1-0.9-0.9-1.7-0.6c-0.8,0.2-1.2,0-1.5-0.2   c-0.3-0.2-0.5-0.3-0.9-0.3c-0.5,0-0.8-0.1-0.9-0.4c0-0.2,0.4-0.3,1-0.1c1.3,0.6,2.4,0.9,3.2-0.2c0.8-1.1-0.2-2.1-1.8-2.4   C376.2,200.1,375.1,201.2,374.5,201.8L374.5,201.8z"/>
    <g><path class="st10" d="M387.8,220.6l-0.3-0.2c-0.5-0.8-0.9-1.6-1.1-1.9l-0.3-0.6L386,218c-2.7,1.1-5,0.7-7.1-1.5l0.8-0.2l0.6,0    l1,0.8l0.5-0.3h-0.1l-0.7-0.5l0.5-0.4l0,0c0,0-0.3-0.1-0.7-0.1l0-0.1l0-0.1c0.3,0,0.8,0.1,0.9,0.4l-0.5,0.4c0.7,0,0.9,0.1,0.9,0.3    c-0.4,0.5-0.6,0.6-0.8,0.6l-1.3-0.8l0,0l-0.6,0.1c1.5,1.7,3.9,2.2,6.6,1.1c0.5,0,0.5,0.1,0.7,0.5c0.2,0.4,0.6,1.2,0.9,1.6l0.3,0.5    l0-0.1l0,0.1l0.2-0.6c0.5-1.5,0.8-2.7,1-3.1l0-0.1l0.5-0.4c0.3,0.3,0.4,0.6,0.3,1.1c0.3-0.6,2.2-1,4.4-0.1    c1.9,0.7,3.9,1.8,4.9,2.6c0.2,0.1,0.3,0.2,0.7,0.2c0.4-0.1,0.3-0.2-0.2-0.7c-0.4-0.4-0.6-0.8-0.5-1l0.7,0    c-0.1-0.6-1.1-1.6-1.4-1.8c-0.3-0.2-0.4-0.3-1-0.3c-0.7,0-2.3,0-2.8,0c1.5,0.6,3.7,2,4,2.3c0.2,0.2,0.5,0.5,0.5,0.7    c-0.3,0.1-0.5,0-0.8-0.1c-3.4-2.2-5.3-3-6.3-3.4l-1.3,0.1c-1.3,0.1-2.5,0.2-3.6,0.2c-2.2,0-4.7-0.3-6.7-2.5    c-0.8-0.8-1.1-2.2-0.9-3.6c0.2-1.3,0.8-2.4,1.8-3c-0.3-0.1-0.4-0.3-0.4-0.5l0,0l0.1-0.9c-0.4-0.3-0.6-0.7-0.6-1.1    c-0.2,0.1-0.4-0.1-0.6-0.2c-0.2-0.2-0.4-0.3-0.8-0.3c-1.5,0.3-1.5,0.2-1.9-0.1c-0.2-0.2-0.5-0.2-0.7-0.2c-0.7,0-1.1-0.2-1.1-0.5    c0.7-0.4,0.9-0.3,1.2-0.2c1.2,0.5,2.3,0.8,3.1-0.2c0.3-0.3,0.3-0.7,0.2-1c-0.2-0.6-0.9-1-1.9-1.2c-1.4,0-2.5,0.8-3.1,1.3l-0.8,0.1    c-0.6,0-1.4-0.1-2.1,0c0.6-0.8,1.5-0.2,2.1-0.2c1.1-0.5,2.1-1.4,3.3-1.4c1.6,0.3,2.4,0.8,2.6,1.4c0.2,0.4,0.1,0.8-0.2,1.2    c-0.8,1.1-2.1,0.8-3.3,0.3c-0.3-0.1-0.5-0.2-0.6-0.2c-0.3,0.3,0.1,0.4,0.5,0.4c0.6,0,0.8,0.1,1,0.3c0.2,0.2,0.7,0.4,1.4,0.1    c0.7,0,1,0.1,1.2,0.3c0.2,0.1,0.4,0.3,0.6,0.3c0.1,0.4,0.3,0.7,0.7,1l0.3,1l-0.1,0.8c-1,0.6-1.6,1.6-1.7,2.8    c-0.2,1.3,0.2,2.6,0.9,3.4c1.9,2.1,4.4,2.4,6.5,2.4c1.1,0,2.3-0.1,3.6-0.2l1.4-0.1c1,0.4,3,1.2,6.4,3.4c0.5,0.2,0.3-0.1,0.1-0.2    c-0.6-0.4-2.6-1.7-3.5-2c-0.8-0.3-0.9-0.4-0.8-0.5c0.9-0.1,2.5-0.2,3.2-0.1c0.7,0,0.8,0.1,1.1,0.3c0.4,0.3,1.4,1.3,1.8,1.7l0,0.7    l-0.9-0.4c-0.1,0.1,0,0.4,0.4,0.8c0.6,0.5,0.7,0.7,0.7,0.9l-0.6,0.2c-0.4,0-0.6-0.1-0.8-0.3c-1-0.7-2.9-1.8-4.8-2.5    c-2.3-0.8-4-0.3-4.4,0c-0.1-0.8-0.2-0.9-0.2-1c-0.5,0.7-0.8,1.8-1.3,3.4C388.1,220.4,388,220.6,387.8,220.6L387.8,220.6z     M379.2,214.1l-0.9-0.6l0.6-0.3c-0.7-0.1-1,0-1.5,0l-0.1,0l-0.6-0.3l0.5-0.3c0,0-0.2-0.1-0.7-0.1c-0.3,0-0.8-0.1-0.8-0.3    c0-0.2,0.3-0.3,0.9-0.3c0.5,0,0.6-0.1,0.6-0.1l-0.6-0.2l-0.3,0.1l-0.7-0.2c0-0.2,0.4-0.4,0.7-0.4l-0.6-0.4l0.3,0l-0.1,0.1    c0.3,0,0.9,0.2,0.9,0.4l-1,0.3l0.8-0.1c0.4,0,0.8,0.1,0.8,0.3c0,0.2-0.3,0.3-0.9,0.3c-0.6,0-0.7,0.1-0.7,0.1    c0.9,0.1,1.5,0.1,1.5,0.4l-0.5,0.3c0.9,0,1.2,0,1.5,0l0.7,0.3l-0.6,0.3c0.7,0.1,1.1,0.1,1.2,0.3L379.2,214.1L379.2,214.1z     M376.4,210.6c-0.3-0.2-0.6-0.4-0.9-0.6c0.5-4.9,0.2-5.3-1.7-6.7l0.2-0.3c2,1.5,2.2,2.2,1.7,6.9c0.3,0.1,0.6,0.3,0.9,0.5    L376.4,210.6L376.4,210.6z"/></g>
    <path class="st1"
          d="M382.2,201.4c-0.5-0.5-1.3-1-1.7-1.1c-0.4-0.1-0.5,0.3-0.2,0.5c-0.2,0.3-0.3,0.9,0.1,1.1   c0.3,0.2,0.3,0.5,0,0.6c-0.5,0.2-0.3,1.5,0.4,1.1c0.2-0.1,0.4-0.1,0.4,0.1c0,0.2,0,0.4,0.3,0.5c0.2,0,0.2,0.3,0.1,0.5   c0,0.1,0,0.2,0.3,0.2c0.2,0,0.3,0.6-0.2,0.8c0.5,0,0.6-0.1,0.8,0.3c0.1,0.4,0.7,0.5,0.7,1c0,0.5-0.1,0.6-0.7,0.5   c-0.6-0.1-0.8,0.1-1,0.3c-0.2,0.2-0.2,0.5,0.2,0.5c0.5,0,0.6,0.2,0.1,0.4c-0.5,0.2-1.2,0.1-1.3,0.5c-0.1,0.4,0,0.6,0.3,0.5   c0.3-0.2,1.1-0.5,1.3-0.6c0.3-0.2,0.5-0.2,0.8,0.2c0.2,0.4,0,0.8-0.3,0.5c-0.4-0.3-0.6,0-0.8,0.2s-0.6,0.3-0.9,0.3   c-0.4,0-0.6,0-0.6,0.9c0.1,2.5,2.1,4.3,5.6,4.3c3.6,0,5.3-0.1,5.8,0c-1.2-0.6-1.9-1-2.3-0.9c-0.4,0-0.8,0.1-0.6-0.2   c0.2-0.3,0-0.3-0.2-0.5c-0.2-0.1-0.4-0.3-0.8,0.1c-0.4,0.4-1.2,0.8-1.7,0.9c-0.4,0.1-1,0.1-0.6-0.3c0.4-0.4,1.3-0.6,1.6-0.7   c0.3-0.2,0.3-0.3,0.3-0.4s-0.1-0.5,0.5-0.2c1.1,0.6,2.7,1.5,3.2,1.5c0.4,0,0.7-0.2,0.3-0.5c-0.4-0.3-0.5-0.6-0.4-0.8   c0.1-0.1,0.2-0.3,0.9,0.1c0.7,0.4,1.8,0.9,2.2,1.1c0.4,0.2,1,0.1,0.1-0.5c-0.9-0.6-3.5-2.4-4.2-2.9c-0.7-0.6-0.4,0.1-0.3,0.3   c0.1,0.2-0.5,0.5-0.8,0.2c-0.3-0.3-0.5-0.5-0.1-0.8c0.4-0.2,0.5-0.3-0.1-0.8c-0.6-0.6-0.8-0.5-0.7,0c0.1,0.5,0.2,1-0.5,0.7   c-0.6-0.3-1-0.6-0.6-0.8c0.4-0.3,0.9-0.4,0.3-1c-0.7-0.6-0.5,0-0.6,0.3c-0.2,0.3-0.7,0.3-1,0.1c-0.3-0.3-0.4-0.5-0.2-0.7   c0.2-0.2,0.2-0.3,0.5-0.2c0.3,0.2,0.8,0.1,0.2-0.4c-0.6-0.5-0.8-0.3-0.6,0c0.1,0.3-0.3,0.8-1,0.1c-0.3-0.3-0.3-0.7,0-0.8   c0.3-0.1,0.4-0.2,0.1-0.6C383.1,204.5,383.7,202.9,382.2,201.4L382.2,201.4z"/>
    <g><path class="st10" d="M385.7,215.4c-3.3,0-5.5-1.7-5.6-4.4c0-0.4,0-0.7,0.2-0.8c0.9-0.2,1.2-0.3,1.4-0.4l0.6-0.3l0.6,0.3l-0.3-0.6    c-0.5,0.2-1,0.4-1.3,0.6l-0.8,0.1c0.1-0.9,0.5-1,0.8-1l0.8-0.3l-0.7-0.3c0.3-0.7,0.5-0.8,0.9-0.8l0.6,0.1l-0.1-0.9l-0.8-0.8    c0.4-0.1,0.5,0,0.6,0.3c0.5,0.5,0.7,0.7,0.7,1c0,0.4,0,0.7-0.5,0.7l-0.6-0.1c-0.3,0-0.5,0.1-0.6,0.3l0.6,0.6    c-0.6,0.5-0.8,0.5-1,0.5c-0.4,0.1-0.6,0.1-0.7,0.3c0.8,0.1,1.3-0.1,1.5-0.3c0.6-0.1,0.8,0,0.9,0.2l-0.2,0.7l-0.6-0.3    c-0.7,0.5-1,0.6-1.4,0.6c-0.5,0.2-0.5,0.4-0.5,0.8c0.2,2.6,2.2,4.2,5.4,4.2v0.1l0.1-0.1l4.7-0.1c0.6,0,0.9,0,1.1,0    c-1.1-0.4-1.9-0.7-2.3-0.7l-0.8-0.1l-0.1-0.7l-0.1,0.1l-0.7,0l0.1,0.1c-0.4,0.4-1.3,0.9-1.7,1l-0.8-0.1c0.4-0.7,0.9-0.8,1.3-1    l1.3-0.9c1.6,0.9,2.8,1.5,3.1,1.5c0-0.4-0.1-0.7-0.2-0.9c0.5-0.5,0.8-0.4,1.1-0.2c0.7,0.4,1.8,0.9,2.2,1.1c-0.4-0.6-1.2-1.2-2-1.7    c-0.9-0.6-1.8-1.2-2.2-1.5l-0.8,0.7c-0.6-0.3-0.8-0.5-0.8-0.7l0.6-0.5c-0.7-0.7-0.9-0.8-0.9-0.8c0.2-0.2,0.3-0.1,0.7,0.2    c0.4,0.3,0.5,0.5,0.5,0.6l-0.6,0.5l0.5,0.5l0.3-0.8l0.6,0.2c0.4,0.3,1.3,0.9,2.2,1.5c0.8,0.6,1.6,1.1,2,1.4    c0.4,0.3,0.5,0.5,0.5,0.6l-0.7,0.1c-0.4-0.2-1.6-0.7-2.3-1.1c-0.3-0.2-0.5-0.2-0.6-0.2l0.2,0.7l-0.4,0.7l0,0c-0.5,0-2-0.8-3.2-1.5    c-0.3,0.3-0.3,0.5-0.6,0.7c-0.9,0.3-1.4,0.5-1.6,0.7c0.9,0,1.7-0.4,2.1-0.7l0.9-0.1l0.1,0.1l0.2,0.6c1,0,1.8,0.4,2.9,1    c-0.3,0.2-0.6,0.2-1.2,0.2L385.7,215.4L385.7,215.4z M387.4,210.7c-0.5-0.2-0.8-0.4-0.8-0.6l0.9-0.8l-0.4-0.4l0,0.1l-1,0.5    c-0.2,0-0.4-0.1-0.6-0.2l-0.4-0.6l0.5-0.6l-0.6,0.3c-0.2,0-0.4-0.1-0.7-0.3c-0.2-0.2-0.3-0.5-0.3-0.7l0.4-0.3l-0.1,0.2    c0.3,0.8,0.5,0.9,0.6,0.9l0.3-0.6c0.4-0.1,0.6,0,0.8,0.2l0,0.1l0,0.6l-0.7,0.1l0.2,0.6l0.5,0.1l0.5-0.1l0-0.3l0.8-0.1    c0.3,0.2,0.4,0.4,0.4,0.6l0,0.1l-0.5,0.4c-0.3,0.3-0.1,0.5,0.4,0.7l0.4-0.6l-0.1,0c0.1-0.1,0.1-0.2,0.2-0.3c0.2,0.6,0.2,0.8,0.1,1    L387.4,210.7L387.4,210.7z M384.5,206.9c-0.8-1.3-1-2.2-1.2-3c-0.2-0.9-0.4-1.7-1.1-2.5c-0.5-0.5-1.3-0.9-1.7-1.1    c-0.2,0.6-0.3,0.9-0.2,1.2l0.5,0.7c-0.5,0.5-0.5,0.8-0.5,1l0,0l1,0.8l0.3,0.7c0.3,0.4,0.4,0.7,0.3,0.8l-0.8-1.8    c-0.7,0.1-0.9-0.1-1-0.4c-0.1-0.3,0-0.8,0.3-0.9l-0.3-0.8c-0.1-0.3,0-0.7,0.2-0.9h0l0.3-0.5c0.4,0.1,1.3,0.6,1.8,1.1    c0.7,0.8,0.9,1.7,1.2,2.6c0.2,0.8,0.4,1.7,1.1,2.7L384.5,206.9L384.5,206.9z"/></g>
    <path class="st7"
          d="M382.5,201.6c-0.1,0.2-0.2,0.2-0.4,0.3c-0.3,0.2-0.3,0.7,0.1,0.6c0.3,0,0.5-0.2,0.6-0.4   C382.8,202,382.6,201.8,382.5,201.6L382.5,201.6z"/>
    <path class="st7"
          d="M381,200.5c-0.3,0.3-0.4,0.5-0.2,0.5c0.2,0,0.1,0,0,0.3c-0.2,0.2,0.3,0.4,0.5,0.2c0.2-0.2,0.2-0.3,0.3,0   c0.1,0.2,0.4,0,0.6-0.2C381.8,200.9,381.4,200.7,381,200.5L381,200.5z"/>
    <path class="st7"
          d="M380.4,202.5c-0.5,0.2-0.3,1.5,0.4,1.1c0.2-0.1,0.4-0.1,0.4,0.1c0,0.1,0,0.2,0,0.3c0.3-0.1,0.6-0.3,0.8-0.6   c0.4-0.5,0-0.5-0.6-0.5c-0.6,0-0.8-0.1-0.2-0.5c0.5-0.3,0.2-0.6-0.6-0.5C380.7,202.2,380.6,202.4,380.4,202.5L380.4,202.5z"/>
    <path class="st7"
          d="M383.1,205.2c-0.3-0.4-0.1-0.6,0.2-0.7c0.1,0,0.2-0.1,0.2-0.2c-0.1-0.4-0.2-0.8-0.3-1.2   c-0.2,0.1-0.4,0.5-0.5,0.7c-0.1,0.3-0.2,0.5-0.5,0.4c-0.3-0.1-0.5,0.2-0.6,0.6c0,0,0.1,0,0.2,0c0.1,0,0.2,0.2,0.2,0.4   c0.8,0,1,0.5,1.1,0.9c0.2,0.4,0.3,0.4,0.5,0.1C383.7,206,383.4,205.6,383.1,205.2L383.1,205.2z"/>
    <path class="st6"
          d="M383.3,210c-0.2,0.3-0.2,0.3-0.6,0.3c-0.5,0-1.1,0.1-1.4,0.4c-0.1,0.2-1,0.2-1,0.6c0,0.4,0,0.7,0.4,0.7   c0.4,0,0.4,0.1,0.3,0.3c-0.1,0.3-0.2,0.7,0.4,0.8c0.6,0,1.1-0.2,1.3,0.2c0.2,0.4,0,1,0.1,1.2c0.1,0.2,0.6,0.4,1.3,0.6   c0.4,0.1,2.2,0.2,2.7,0.2c0.5-0.1,0.3-0.4-0.2-0.4c-0.5,0-0.9-0.1-1-0.5c-0.1-0.4-0.2-0.6,0.1-0.9c0.3-0.3,0.6-0.6,0.4-1.1   c-0.2-0.5-0.4-1.2-1.1-1.3c-0.6-0.2-0.4-1-1-1.1C383.6,209.9,383.4,209.9,383.3,210L383.3,210z"/>
    <path class="st7"
          d="M380.3,215c0.5,0,1,0.2,0.6,0.3c-0.4,0.1-0.7,0.4-0.1,0.4c0.6,0,1,0.3,0.6,0.4c-0.4,0.1-0.5,0.4,0,0.4   c0.5,0,0.7,0.3,0.4,0.5c-0.4,0.2-0.6,0.3-0.9,0c-0.2-0.4-0.4-0.5-0.4-0.2c-0.1,0.3-0.2,0.1-0.4-0.3c-0.2-0.4-0.5-0.5-0.4-0.2   c0.1,0.3-0.3,0.4-0.7,0.2c0.4,0.4,0.8,0.8,1.3,1.1c0.6-0.2,1.2,0,1.4,0c0.2,0,0.9,0.2,1.3,0.4c0.4,0.2,0.6-0.2,0.5-0.6   c-0.2-0.4-0.2-0.3-0.4,0c-0.2,0.2-0.3-0.1-0.2-0.6c0-0.4-0.3-0.3-0.3,0c-0.1,0.3-0.3-0.2-0.2-0.4c0.1-0.3,0-0.3-0.2-0.3   c-0.2,0.1-0.2,0-0.3-0.5c0-0.5-0.2-0.4-0.3-0.2c-0.1,0.2-0.3-0.1-0.5-0.4c-0.2-0.3-0.5-0.1-1,0.1C380,215,380.1,215,380.3,215   L380.3,215z"/>
    <path class="st6"
          d="M385.9,217.9c-2.5,1-4.3,0.6-5.7-0.3c0.6-0.2,1.2,0,1.4,0c0.2,0,0.9,0.2,1.3,0.4c0.4,0.2,0.6-0.2,0.5-0.6   c0.3,0.4,0.6,0.7,1,0.7C384.9,218.1,385.6,218,385.9,217.9L385.9,217.9z"/>
    <path class="st6"
          d="M380.5,206.3c-0.1-0.5-0.3-0.6-0.6-0.6c-0.3,0-0.4,0-0.7-0.2s-0.7,0-0.8,0.6c-0.1,0.6-0.4,0.8-0.9,1.2   c-0.5,0.3-0.7,0.6-0.7,1.2c0,0.6-0.1,0.7-0.4,1.1c-0.1,0.2-0.3,0.4-0.5,0.6c0.2,0.1,0.4,0.2,0.6,0.3c0.3,0.2,0.2,0.4-0.1,0.3   c-0.3-0.1-0.7,0.1-0.1,0.2c0.6,0.1,0.8,0.4,0.3,0.3c-0.5,0-1.2,0.4-0.1,0.3c1-0.1,1.5,0.4,0.2,0.4c-1.2,0-0.8,0.4-0.1,0.4   c1.2,0,0.8,0.3,0.5,0.3c-0.3,0-0.4,0.4,0.3,0.3l0,0c0.1-0.1,0.2-0.3,0.3-0.4c0.1-0.4,0.3-1.4,0.7-1.8c0.4-0.3,0.6-0.7,0.6-1   c0-0.3,0.6-1.7,1.1-2C380.5,207.5,380.7,206.8,380.5,206.3L380.5,206.3z"/>
    <path class="st7"
          d="M379.6,206.3c-0.4-0.3-0.9-0.1-0.9,0.4c0,0.6-0.3,0.7-0.6,0.9c-0.4,0.2-0.7,0.6-0.8,1.1   c-0.1,0.4,0.1,0.7-0.3,1c-0.3,0.3-0.3,0.6-0.1,0.8c0.2,0.2,0.2,0.2,0.3,0.5c0.1,0.3,0.6,0,0.6-0.3c0-0.3,0.1-0.3,0.5-0.5   c0.3-0.2,0.9-1.1,0.8-1.3c-0.1-0.3-0.4-0.5,0-0.8c0.4-0.3,0.8-0.4,0.8-0.7c0-0.3,0.1-0.5,0.2-0.6   C380.3,206.7,379.9,206.5,379.6,206.3L379.6,206.3z"/>
    <path class="st10" d="M379.6,205.8c-0.3-0.1-0.5,0.5-0.1,0.6C380,206.5,380,206,379.6,205.8L379.6,205.8z"/>
    <path class="st10" d="M379.5,206.6c-0.3,0-0.6,0.4-0.1,0.4C379.9,206.9,380.1,206.6,379.5,206.6L379.5,206.6z"/>
    <path class="st10" d="M378.9,207.4c-0.3,0.2-0.3,0.6,0.2,0.3C379.6,207.4,379.7,207,378.9,207.4L378.9,207.4z"/>
    <path class="st10" d="M378.4,208c-0.3,0.2-0.3,0.6,0.2,0.3C379.1,208,379.2,207.6,378.4,208L378.4,208z"/>
    <path class="st10" d="M377.8,208.3c-0.3,0.2-0.1,0.6,0.3,0.3C378.6,208.3,378.6,207.9,377.8,208.3L377.8,208.3z"/>
    <path class="st10" d="M378.2,208.7c-0.3,0.2-0.1,0.6,0.3,0.3C379,208.7,379,208.3,378.2,208.7L378.2,208.7z"/>
    <path class="st10" d="M377.7,208.9c-0.3,0.2-0.1,0.6,0.3,0.3C378.5,208.9,378.4,208.5,377.7,208.9L377.7,208.9z"/>
    <path class="st10" d="M378,209.3c-0.3,0.2-0.1,0.6,0.3,0.3C378.8,209.3,378.8,208.9,378,209.3L378,209.3z"/>
    <path class="st10" d="M377.5,209.6c-0.3,0.2-0.1,0.6,0.3,0.3C378.3,209.6,378.3,209.2,377.5,209.6L377.5,209.6z"/>
    <path class="st10" d="M377.5,210c-0.3,0.2-0.1,0.6,0.3,0.3C378.3,210,378.3,209.6,377.5,210L377.5,210z"/>
    <path class="st7"
          d="M377.3,213.9c-0.3,0-0.5,0.5-0.1,0.6c0.4,0.1,0.5,0.1,0.5,0.4c0,0.3,0.1,0.7,0.6,0.8c0.4,0,0.8-0.5,0.4-0.6   c-0.4-0.2-0.7-0.3-0.7-0.6C377.8,214.1,377.5,213.9,377.3,213.9L377.3,213.9z"/>
    <path class="st6"
          d="M388.6,211.2c0.1,0.1,0.1,0.2,0.2,0.2c0.3,0.3,0.9,0,0.8-0.2c-0.1-0.2-0.4-0.9,0.3-0.3   c0.7,0.6,3.4,2.3,4.2,2.9c0.9,0.6,0.3,0.7-0.1,0.5c-0.4-0.2-1.6-0.7-2.2-1.1c-0.7-0.4-0.8-0.3-0.9-0.1c-0.1,0.1,0,0.4,0.2,0.6   c-0.4,0.1-1.1,0-1.3-0.5c-0.2-0.5-0.8-1.2-1.2-1.7C388.6,211.5,388.6,211.3,388.6,211.2L388.6,211.2z"/>
    <path class="st9"
          d="M411.5,286.9c-0.6,0.4-1.3,1.1-0.8,2.1c0.1,0,0.1-0.1,0.2-0.1c2.3-2.7,4.2-5.6,5.8-8.6c0-0.1,0-0.2,0.1-0.3   c-0.6,0.6-1.7,1.1-2.1,1.2c0.3,0.7-1,1.7-1.7,2c0.3,0.5,0.2,1.2-0.4,1.3c0.1,0.4-0.3,0.4-0.9,0.6c-0.6,0.2-0.8,0.4-1,0.7   c0.3-0.2,0.7-0.3,0.9-0.2c0.2,0.1,0.3,0.4-0.1,0.5c-0.4,0.1-0.7,0.3-0.8,0.5C411.2,286.4,412.1,286.5,411.5,286.9L411.5,286.9z"/>
    <path class="st10"
          d="M384.1,210.4c-0.7-0.6-0.9-0.2-0.6,0.1c0.3,0.4,0.1,0.6-0.5,0.6c-0.6,0.1-1.5,0.2-1.9,0.2   c-0.4,0-0.8,0.5,0.1,0.5c0.9,0,2.4-0.3,2.8-0.5C384.4,211.2,384.7,210.9,384.1,210.4L384.1,210.4z"/>
    <g><path class="st10" d="M381.1,212l-0.5-0.4l0.6-0.3c0.4,0,1.3-0.1,1.8-0.2l0.7-0.2l-0.2-0.3l0.1-0.6c0.2,0,0.4,0.1,0.6,0.3l0.3,0.6    c0,0.2-0.2,0.4-0.5,0.5c-0.4,0.2-1.9,0.5-2.8,0.5L381.1,212L381.1,212z M384.1,210.5c-0.4,0.6-0.6,0.7-1,0.8    c-0.6,0.1-1.5,0.2-1.9,0.2l0,0.4l0.1-0.1c0.9,0,2.4-0.4,2.7-0.5l0.5-0.3L384.1,210.5L384.1,210.5z"/></g>
    <path class="st10"
          d="M385.5,211.4c-0.6-0.5-0.8-0.4-0.6,0c0.1,0.4-0.1,0.4-0.5,0.6c-0.4,0.1-1.8,0.6-2.5,0.7   c-0.6,0.1-0.8,0.5,0.2,0.5c0.9,0,2.7-0.8,2.9-0.9c0.2-0.1,0.3-0.4,0.5-0.3C385.7,212.1,385.9,211.9,385.5,211.4L385.5,211.4z"/>
    <g><path class="st10" d="M382,213.3c-0.6,0-0.7-0.2-0.7-0.3l0-0.1l0.6-0.3c0.6-0.1,1.9-0.5,2.3-0.6l0.3-0.1l-0.2,0.3    c-0.6,0.2-1.9,0.6-2.5,0.7l0.1,0.4l0.1-0.1c0.9,0,2.6-0.7,2.8-0.9l0.6-0.3l-0.6-0.6c0.2-0.2,0.4-0.1,0.6,0.1l0.3,0.6l-0.6,0.2    C384.8,212.5,383,213.2,382,213.3L382,213.3L382,213.3z"/></g>
    <path class="st10"
          d="M385.9,212.9c-0.4,0.2-1.4,0.7-1.9,0.8c-0.4,0.1-0.8,0.6,0.1,0.5c0.9-0.1,1.9-0.9,2.2-1   c0.3-0.2,0.4-0.3,0.6-0.3c0.2,0,0.6-0.3-0.1-0.7c-0.8-0.4-1.2-0.2-0.9,0.1C386.4,212.7,386.1,212.8,385.9,212.9L385.9,212.9z"/>
    <g><path class="st10" d="M384,214.3l-0.5-0.3l0.5-0.4c0.4-0.1,1.4-0.6,1.8-0.8l0-0.8c0.6-0.2,0.8-0.1,1.1,0.1    c0.5,0.3,0.5,0.5,0.5,0.6l-0.9,0.4c-0.8,0.5-1.6,1.1-2.4,1.1L384,214.3L384,214.3z M386.1,212.1L386,213c-0.5,0.3-1.5,0.7-1.9,0.9    l-0.1,0.4l0.2-0.1c0.7-0.1,1.5-0.6,1.9-0.9l0.9-0.4C386.6,212.2,386.3,212.1,386.1,212.1L386.1,212.1z"/></g>
    <path class="st10" d="M378.7,201.3c-1.1-0.7-2.4,0.8-1.2,1.7C378.6,203.7,379.7,202,378.7,201.3L378.7,201.3z"/>
    <path class="st1" d="M377.3,202l0.3,0c-0.1,0.3,0.3,0.9,0.8,0.7C378,203,377.2,202.7,377.3,202L377.3,202z"/>
    <path class="st1"
          d="M381.6,218.8c0.3,0.1,1.5,0.2,1.9,0.2c-0.2,0.4-0.4,0.7-0.5,1c-0.1,0.3-0.2,0.3-0.2-0.1c0-0.5-0.3-0.8-0.5-0.3   c-0.2,0.5-0.4,0.7-0.5,0.9c-0.1,0.2-0.3,0.3-0.3-0.2C381.7,219.8,381.7,219.2,381.6,218.8L381.6,218.8z"/>
    <g><path class="st10" d="M384,307.8L384,307.8c-37.2-14.7-42.4-45-42.5-75.5h0.2c-0.2-4.9-0.1-9.5,0-13.9c0.1-6,0.3-11.6,0.1-16.9    c15.9-7.3,36.3-7.8,42.2-7.8c5.9,0,26.3,0.5,42,7.6c0,5.5,0.1,11.1,0.2,17.1c0.1,4.5,0.2,9.2,0.2,13.9l-0.2,0.2    C426.3,263.1,421,293.2,384,307.8L384,307.8L384,307.8z M341.8,232.6c0.3,30.1,5.5,60.1,42.2,74.8c36.7-14.6,41.9-44.5,42-74.8    H341.8L341.8,232.6z M384,194.1c-5.9,0-26.2,0.5-41.9,7.6c0.3,5.1,0.2,10.7,0,16.7c-0.1,4.5-0.2,9.2-0.2,13.9l84-0.2    c0-4.7-0.1-9.3-0.2-13.7c-0.1-6-0.3-11.7-0.1-16.9C410.2,194.7,389.9,194.1,384,194.1L384,194.1z"/></g></g></svg>
