<?xml version="1.0" ?>
<svg id="Layer_1" style="enable-background:new 0 0 512 512;" version="1.1" viewBox="0 0 512 512" xml:space="preserve"
     xmlns="http://www.w3.org/2000/svg"><style type="text/css">
	.st0 {
    fill: #CCAE43;
  }

  .st1 {
    fill: #B51F32;
  }

  .st2 {
    fill: #AC6A31;
  }

  .st3 {
    fill: #365E8F;
  }

  .st4 {
    fill: #718C42;
  }
</style>
  <g><rect class="st0" height="298.7" width="512" y="106.7"/>
    <rect class="st1" height="268.8" width="482.1" x="14.9" y="121.6"/>
    <path class="st2"
          d="M320.9,253.6c1.8-0.5,7.8-2.3,12.1-5.7c4.3-3.5,5.1-6.3,5.5-7.8c0.3-1.5,0.5-2.7-0.6-1.8   c-1.1,0.9-4.4,3.5-6.7,4.7c-2.3,1.3-4.4,1.8-5.6,2.2c-1.2,0.3-2.2,0.6-1,0.1c1.2-0.5,5.1-1.8,8-4.8c3-3,5.3-7.5,5.4-10.2   c0-2.7-0.2-2.5-1-1.9c-0.9,0.7-4,4.6-5.8,6c-1.8,1.5-4.6,3.4-6,4.3c-1.4,0.8-3.4,1.8-0.6-0.2c2.8-1.9,8.1-6.4,10.2-12.3   c2.2-5.8,1.8-9.3,1.7-9.9c0-0.6-0.5-1.8-1-0.7c-0.5,1.1-4,8.1-6.9,11.2c-2.8,3-2.2,2.5-2.8,2.9s-1.7,1.4-0.3-0.3   c1.4-1.7,4.2-5.7,5.7-9.6c1.5-3.9,1.9-7.8,1.9-10.1c0-2.3-0.9-5.4-1.4-6.3c-0.4-0.9-0.9-1.6-1-0.5c-0.1,1.1-2.4,8-3.6,11.4   c-1.2,3.4-3.7,7.2-4.2,7.9c-0.5,0.7-1.8,2.3-0.4-0.3c1.4-2.5,4-10.1,4.4-17.2c0.3-7.1-0.6-11-1.6-13c-1-2-1.8-2.7-1.8-2.7   s0.2,4.9-1.3,11.8c-1.5,7-3.6,10.7-3.6,10.7s-0.9,1-0.3-0.7c0.4-1.1,1.3-3.6,1.6-7.8c0.4-4.4,0.5-9.4-0.8-13.7   c-1.4-4.6-3.8-7-3.8-7c-0.7,6.7-0.5,15.3-3,22.2c-0.5-0.4-1.1-1.2-1.3,0.4c-0.4,2.3-1.3,6.6-4.4,12.1c-3,5.5-4.2,6.2-4.2,6.2   s-0.6-1.3-0.9-2.1c-0.4-0.7-0.6-1.1-1.1-0.1c-0.5,1-2.2,4.9-5.8,9.1c-3.7,4.2-5.7,6.3-5.6,9.5c0.1,3.2,1.8,4.8,4,6.3   c2.2,1.4,2.6,2.2,2.3,4c-0.3,1.7-2.3,2.3-4.1,2.4c-1.7,0.1-3.9-0.1-4.7,0.3c-0.8,0.4-0.8,1.6-1.6,2.3c-0.8,0.8-1.1,1.2-1.8,1.3   c-0.3,0-0.5,0.1-0.6,0.1c-0.2-8.4,3.1-12.1,3.1-12.1l-9.1-10.7c-0.5,0.2-0.9,0.4-1.4,0.6c-0.1-0.1-0.1-0.3-0.3-0.4   c-1.2-1.5-1.6-2.8-1.6-4.8c0.4,0,1.4,0.4,2.2,0.2c0.8-0.2,0.2-1,0-1.8c-0.3-0.8-0.5-3.5-0.3-4.5c0.2-1,0.3-1.4,0.3-1.4   s1.3,1.4,2.1,1.4c0.8,0,0.7-0.8,0.9-1.7c0.2-1.4,0.8-3.1,1.9-4c0,0,1.4,1,3.1,1c1.6,0,3.9-0.5,5.6-2.1c1.8-1.7,1.7-2.1,1.7-2.1   s3.3,1.2,5.8,1.3c2.5,0.1,5.2-0.3,6.5-2.9c1.3-2.6-0.4-5.1-0.6-5.5c-0.3-0.4-1.1-0.7-1.1,0c0,0.7,0,2.7-1.5,3.7   c-1.5,1-2.7,0.9-4.2,0.5c-1.4-0.5-3.5-1-5.8-0.7c-2.1,0.3-2.3,0.5-2.4,0.5c0.1-0.1,2-2,3.8-2.6c1.9-0.6,3,0.2,3.6,0.9   c0.6,0.7,1.1,1.9,1.6,0.2c0.5-1.7,0.2-3.7-0.6-5c-0.8-1.3-2.6-2.1-4.4-1.9c-1.9,0.2-2.5,0.5-2.5,0.5s-0.9-2.7-3.3-3.2   c-2.9-0.6-6.1,0.5-8.7,1.9c0,0-2,0.5-4-0.1c-1.3-0.4-2.6-1.2-3.4-1.7c0.2-0.8,0.7-2.2,0.7-2.2s0.6-0.2,1.2-0.4   c0.6-0.2,0.5-0.4,0.6-0.9c0.1-0.5-1.1-1.4-1.1-1.4s-0.2-1.5,1.8-2.5c2-1,1.8-0.9,1.8-0.9s1.2,0.2,1.6-0.1c0.5-0.3,0.5-0.6,0.5-0.6   s0.9-0.3,1.2-0.8c0.3-0.5,0.4-1.3,0.1-1.9c-0.2-0.6-0.5-0.7-0.2-1c0.3-0.3,0.6-1,0.6-1.5c0-0.5,0-0.6,0-0.6s0.7-0.2,0.6-1.3   c0-1-0.6-1.4-0.9-1.5c-0.3-0.1-0.5-0.1-0.5-0.1s-0.1-0.6-0.6-1.4c-0.5-0.8-0.9-1.2-0.9-1.2s0.4-0.3,0.2-1c-0.2-0.7-0.7-1.1-1.2-1.2   c-0.5-0.1-1,0-1,0s-1.6-0.9-2.3-1.3c-0.7-0.4-0.9-0.5-0.9-0.5s0-0.6-0.3-1c-0.3-0.4-0.9-0.5-1.2-0.5c-0.3,0-0.7,0.2-0.7,0.2   s-2.6-0.7-3.7-0.9c-1.1-0.2-1.1-0.3-1.1-0.3s-2.4-1.1-3.3-1.3c-0.9-0.2-1.2-0.3-1.2-0.3s0.9-1.1,1-2.5c0.1-1.3-0.8-2.6-1.8-3.1   c-0.5-0.3-0.8-0.4-1-0.5l0-0.9l1.8,0.2l0.1-2.8l-1.7,0.2l0.3-1.7l-3.6,0l0.3,1.7l-1.7-0.1l0.1,2.8l1.8-0.2l-0.2,1.1   c0,0-0.7,0.1-1.2,0.5c-0.9,0.6-1.7,1.6-1.7,3c0.1,1.3,0.9,2.5,0.9,2.5s-0.2,0.1-1.1,0.2c-0.9,0.2-3.3,1.3-3.3,1.3s-0.1,0.1-1.2,0.3   c-1.1,0.2-3.7,0.9-3.7,0.9s-0.3-0.2-0.7-0.2s-0.9,0.2-1.2,0.5c-0.3,0.3-0.3,1-0.3,1s-0.2,0.1-0.9,0.5c-0.7,0.4-2.3,1.3-2.3,1.3   s-0.5-0.2-1,0c-0.5,0.2-0.9,0.6-1.1,1.2c-0.2,0.7,0.2,1,0.2,1s-0.3,0.4-0.9,1.2c-0.5,0.8-0.6,1.4-0.6,1.4s-0.2,0-0.5,0.1   c-0.3,0.1-0.9,0.5-0.9,1.5c0,1,0.6,1.3,0.6,1.3s0,0.1,0,0.6c0,0.5,0.3,1.2,0.6,1.5c0.3,0.3,0,0.4-0.2,1c-0.2,0.6-0.2,1.4,0.2,1.9   c0.3,0.5,1.2,0.8,1.2,0.8s0,0.2,0.5,0.6c0.5,0.3,1.6,0.1,1.6,0.1s-0.2-0.2,1.8,0.9c2,1,1.8,2.5,1.8,2.5s-1.2,0.9-1.1,1.4   c0.1,0.5,0,0.7,0.6,0.9c0.6,0.2,1.2,0.4,1.2,0.4s0.5,1.4,0.7,2.2c-0.8,0.5-2.1,1.3-3.4,1.7c-2,0.6-4,0.1-4,0.1   c-2.5-1.4-5.7-2.5-8.6-1.9c-2.4,0.5-3.3,3.2-3.3,3.2s-0.6-0.3-2.5-0.5c-1.9-0.2-3.6,0.6-4.4,1.9c-0.8,1.3-1.1,3.3-0.6,5   c0.5,1.7,1,0.5,1.6-0.2c0.6-0.7,1.7-1.5,3.6-0.9c1.8,0.6,3.7,2.5,3.8,2.6c0,0-0.3-0.2-2.4-0.5c-2.3-0.3-4.3,0.2-5.8,0.7   c-1.4,0.5-2.6,0.5-4.2-0.5c-1.5-1-1.5-3-1.5-3.7c0-0.7-0.8-0.4-1.1,0c-0.3,0.4-1.9,2.8-0.7,5.5c1.3,2.6,4,3.1,6.5,2.9   c2.5-0.1,5.8-1.3,5.8-1.3s0,0.4,1.7,2.1c1.8,1.7,4,2.1,5.6,2.1c1.6,0,3.1-1,3.1-1c1.1,0.9,1.7,2.7,1.9,4c0.1,0.9,0,1.7,0.9,1.7   c0.8,0,2.1-1.4,2.1-1.4s0.1,0.4,0.2,1.4c0.2,1-0.1,3.8-0.3,4.5c-0.3,0.8-0.9,1.6,0,1.8c0.8,0.2,1.7-0.2,2.2-0.2   c0,2-0.4,3.3-1.6,4.8c-0.1,0.1-0.2,0.3-0.3,0.4c-0.4-0.2-0.9-0.4-1.3-0.6l-9.1,10.7c0,0,3.3,3.8,3.1,12.2v-0.1   c-0.2,0-0.4,0-0.7-0.1c-0.7-0.1-1.1-0.6-1.8-1.3c-0.8-0.8-0.8-1.9-1.6-2.3c-0.8-0.4-3-0.3-4.7-0.3c-1.7-0.1-3.7-0.7-4.1-2.4   c-0.3-1.7,0.1-2.5,2.3-4c2.2-1.5,3.9-3.1,4-6.3c0.1-3.2-1.9-5.2-5.6-9.5c-3.7-4.2-5.3-8.1-5.9-9.1c-0.5-1-0.7-0.6-1.1,0.1   c-0.4,0.7-0.9,2.1-0.9,2.1s-1.2-0.7-4.2-6.2c-3-5.5-3.9-9.8-4.4-12.1c-0.2-1.5-0.8-0.8-1.3-0.4c-2.5-7-2.3-15.6-3-22.2   c0,0-2.4,2.4-3.8,7c-1.3,4.3-1.2,9.3-0.8,13.7c0.4,4.2,1.2,6.7,1.6,7.8c0.6,1.7-0.3,0.7-0.3,0.7s-2.1-3.7-3.6-10.7   c-1.4-7-1.3-11.8-1.3-11.8s-0.9,0.7-1.8,2.7c-1,2-2,5.9-1.6,13c0.3,7.1,3,14.6,4.4,17.2c1.4,2.5,0.1,1-0.4,0.3   c-0.5-0.7-2.9-4.6-4.2-7.9c-1.2-3.4-3.5-10.3-3.6-11.4c-0.1-1.1-0.6-0.4-1,0.5c-0.4,0.9-1.4,4.1-1.4,6.3c0.1,2.3,0.4,6.2,1.9,10.1   c1.5,3.9,4.3,7.9,5.7,9.6c1.4,1.7,0.3,0.8-0.3,0.3c-0.6-0.5,0.1,0.1-2.8-2.9c-2.8-3-6.4-10.1-6.9-11.2c-0.5-1.1-1,0.1-1,0.7   c0,0.6-0.4,4,1.7,9.9c2.2,5.8,7.5,10.3,10.3,12.3c2.8,1.9,0.8,1-0.6,0.2c-1.4-0.8-4.3-2.8-6-4.3c-1.8-1.5-4.9-5.3-5.8-6   c-0.9-0.7-1.1-0.9-1,1.9c0.1,2.7,2.4,7.2,5.4,10.2c3,3,6.9,4.3,8,4.8c1.2,0.5,0.2,0.2-1-0.1c-1.2-0.3-3.3-0.9-5.6-2.2   c-2.3-1.3-5.6-3.9-6.7-4.7c-1.1-0.9-1,0.3-0.6,1.8c0.3,1.5,1.2,4.3,5.5,7.8c4.3,3.5,10.4,5.3,12.1,5.7c1.7,0.5,0.5,0.5,0.5,0.5   s-0.7-0.1-4.2-0.9c-3.5-0.8-8.9-3.6-10.4-4.5c-1.5-0.9-1.7-1.3-1.5,0.7c0.2,1.9,2.2,6,5.5,8c3.3,1.9,9.2,2.9,10.7,3   c1.5,0.1,1.1,0.3,0.4,0.3c-0.7,0-2.4,0-5.2-0.3c-2.3-0.3-5.7-1.4-6.8-1.8c-0.1-0.5-0.2-1-0.3-1.3c-0.1-0.7-0.5-0.6-0.8-0.5   c-0.2,0.2-0.4,0.3-1.2,0.7c-0.8,0.4-0.8-0.1-0.9-0.3c0-0.2-0.2-1.3-0.2-1.9c0-0.5-0.3-0.6-0.7-0.4c-0.4,0.2-2.2,0.9-2.9,1.2   c-0.7,0.3,0,0.8,0.3,1.5c0.3,0.7,0.9,1.6,0.9,1.6s-1.7,0.5-2.2,0.6c-0.5,0.1-0.4,0.5-0.2,0.9c0.1,0.4,1,2.3,1.2,2.8   c0.2,0.5,0.7,0.2,0.7,0.2l1.7-1l0.6,2.3c0,0-0.8,0.2-1.6,0.8c-0.9,0.6-0.6,1.4,0.4,1.7c1,0.3,2.2,0.8,3.6,3.2   c1.3,2.4,1.7,6.8,2.5,13.7c0.8,6.9,5.2,10.4,5.8,10.8c0.6,0.4,0.3,0.8,0.3,0.8s-0.6,0.9-0.3,2.2c0.3,1.3,1.4,2.1,2,2.3   c0.6,0.2,0.4,0.8,0.4,0.8s-0.3,1.5,0,4.1c0.3,2.7,2.5,5.7,3.1,6.2c0.6,0.5,0.6,0.8,0.6,1c-0.1,0.2-0.5,0-1.2,0.6   c-0.7,0.6-1.6,1.3-2.1,2.3c-0.5,1-0.3,1.5-0.2,2.8c0.2,1.3,2.1,2.5,2.1,2.5s-0.3,0.1-0.4,1c-0.1,1,0.6,2,1.5,2.7   c0.9,0.7,2.5,1,2.5,1s0.1,0.8,0.2,1.4c0.1,0.6,1.2,1.1,1.9,1.5c0.7,0.4,2,0.2,2.6-0.1c0.6-0.3,0.9,0,1.3,0.6   c0.3,0.6,0.2,2.7,0.2,3.6c0,0.9-0.5,1.8-0.2,2.2c0.3,0.4,1.1,0.1,1.9-0.3c0.8-0.5,1-0.1,1.8,0.3c0.7,0.5,1.9,0.9,2.2,0.9   c0.3,0,0.2-0.8,0.2-1.5c0-0.6,0.1-2.1,0.4-2.3c0.1-0.1,1.4-0.2,2.4-0.6c0.4-0.2,1-0.4,1.1-0.8c0-0.4-0.6-0.4-2-1.2   c-1.4-0.7-1.7-1.2-2.6-1.8c-0.9-0.6-0.5-0.8-0.5-1.1c0-0.3,0.4-0.6,0.6-0.9c0.2-0.3,0.1-1.1,0.1-1.1s0.7-0.7,1.1-1.1   c0.3-0.4,0.8-1,1.3-1.4c0.5-0.4,1.2-2.2,1.7-2.9c0.5-0.6,1.6-1.3,2.2-2.1c0.6-0.8,2.4-2.2,3.4-2.8c1-0.6,3.7-1.9,3.7-1.9   s0,1.6,0.6,2.4c0.7,0.8,1.6-0.6,4.7-2.8c3.1-2.2,5.4-2.9,5.4-2.9s0.6,1,1.5,2c0.8,1,1.6,0,5.3-5.2c3-4.1,6.9-7.8,8.4-9.2   c0.3,0.1,0.6,0.2,0.8,0.4c-0.1,0.2-0.2,0.4-0.2,0.7c-0.3,1.1-0.9,1.8-1.6,3.3c-0.7,1.5-1.9,1.8-3.1,3.9c-1.3,2-1.5,3.4-1.6,5.5   c-0.1,2.1,1,2.5,1,2.5s-1.9,1.8-2.5,3.2c-0.6,1.4-0.9,4.2-0.9,4.2s-0.3,0.1-1,1.5c-0.7,1.4-1.9,1.6-3.7,3.4   c-1.8,1.8-3.8,2.6-4.8,3.1c-0.9,0.6-0.7,1.1-0.4,1.9c0.3,0.7,1.6,1.5,3.1,2c1.5,0.6,2,0.3,3.1,0.3c1,0,0.2,0.8-0.2,1.2   c-0.4,0.4-1,1.9-0.9,3.6c0.1,1.7,1.3,1.3,2.9,1c1.6-0.3,3.4-1,3.4-1l-0.2,0.5c-0.2,0.5-0.3,0.8-0.3,2.1c0,1.3,0.2,2,0.6,2.3   c0.4,0.3,1.2-0.4,1.7-0.6c0.6-0.2,1.5-0.7,2.9-1c1.4-0.3,1.9-0.9,1.9-0.9s-0.3,0.4-0.4,1.4c-0.1,0.9,0,2.4,0.2,3.2   c0.2,0.8,0.8,1.8,1.8,2.7c0.9,0.9,1.2,0.5,1.8-0.6c0.7-1.1,2.1-2.5,2.1-2.5s0.1,0.3,1,3.4c0.9,3,4,5.6,4,5.6s3.1-2.5,4-5.6   c0.9-3.1,1-3.4,1-3.4s1.4,1.4,2.1,2.5c0.7,1.1,0.9,1.5,1.9,0.6c0.9-0.9,1.6-1.9,1.8-2.7c0.2-0.8,0.3-2.2,0.2-3.2   c-0.1-0.9-0.4-1.4-0.4-1.4s0.5,0.6,1.9,0.9c1.4,0.3,2.3,0.9,2.9,1c0.6,0.2,1.3,0.9,1.7,0.6c0.4-0.3,0.6-1,0.6-2.3   c0-1.3-0.1-1.7-0.3-2.1l-0.2-0.5c0,0,1.8,0.8,3.4,1c1.5,0.3,2.8,0.6,2.9-1c0.1-1.7-0.5-3.2-0.9-3.6c-0.4-0.4-1.3-1.2-0.2-1.2   c1,0,1.6,0.3,3.1-0.3c1.5-0.6,2.8-1.3,3.1-2c0.3-0.7,0.5-1.3-0.4-1.9c-0.9-0.6-3-1.3-4.8-3.1c-1.8-1.8-3.1-2-3.7-3.4   c-0.7-1.4-1-1.5-1-1.5s-0.3-2.8-0.9-4.2c-0.6-1.4-2.5-3.2-2.5-3.2s1.2-0.4,1-2.5c-0.1-2.1-0.3-3.4-1.6-5.5c-1.3-2-2.4-2.4-3.1-3.9   c-0.7-1.5-1.3-2.2-1.6-3.3c-0.1-0.2-0.1-0.4-0.2-0.6c0.4-0.2,0.7-0.3,1.1-0.5c1.5,1.4,5.4,5.1,8.4,9.3c3.8,5.2,4.5,6.3,5.3,5.2   c0.8-1,1.5-2,1.5-2s2.3,0.8,5.4,2.9c3.1,2.2,4,3.5,4.7,2.8c0.4-0.4,0.4-1.1,0.5-1.6c0,0,1.8,0.5,3.8,1.2c1.2,0.4,2.5,1,3.5,1.4   c2.7,1.1,2.9,1.7,5,3.4c2.1,1.7,5.1,1.5,8,0.6c2.8-0.9,10.4-3.4,13.5-4.7c3-1.3,5.2-2.5,5.5-3.1c0.3-0.6,0.7-2.3,0.7-2.9   c0-0.6-0.7-1.5-0.9-1.7c-0.2-0.2-0.1-0.6-0.1-1c0.1-0.4-0.1-1.5-0.6-2.1c-0.5-0.5-0.4-0.7-0.3-2.2c0.1-3.1-2.1-7.1-5.3-8.3   c0,0-0.1-0.4-0.3-0.6c-0.3-0.2-0.7-0.4-0.7-0.4s0.1-1.8,0-2.2c0-0.4,0.2-0.3,0.4-0.2c0.2,0.1,0.6,0.5,1.1,0.7   c0.5,0.1,0.8-0.2,0.9-0.8c0.1-0.6,0.5-1.7,0.7-2.3c0.2-0.6,0-0.7-0.3-0.7c-0.2-0.1-1-0.1-1.4-0.2c-0.4-0.1-0.4-0.1-0.3-0.3   c0.1-0.2,0.2-0.5,0.7-1.2c0.5-0.7,0-0.7-0.4-0.9c-0.4-0.2-2.5-0.8-3-0.9c-0.6-0.1-0.7,0.4-0.7,0.6c0,0.2,0,1.3,0,1.6   c0,0.4-0.3,0.3-0.6,0.2c-0.2-0.1-0.7-0.4-1.1-0.7c-0.4-0.3-0.7,0-0.8,0.4c-0.1,0.4-0.6,2.2-0.8,2.7c-0.1,0.5-0.1,0.9,0.1,1   c0.2,0.1,1.2,0,1.8,0c0.6,0,0.3,0.3,0.3,0.3s-0.6,1-0.9,1.5c-0.2,0.4-0.6,0.5-1.1,0.5s-1.3,0-1.3,0s-3.3,0.1-5.7,1.9   c-2.4,1.8-3.1,3.3-3.5,4.1c-0.4,0.9-0.8,0.7-1.2,1c-0.4,0.3-1.4,1.4-1.4,2.1c0,0.7,0.2,1-0.8,1.7c-1.1,0.7-1.9,3.6-0.5,5.2   c1.4,1.6,2,3.1,2.4,3.8c0.4,0.7,0,1.1-0.4,1.1c-0.4,0-1.2-0.6-1.8-1.1c-0.6-0.5-3.9-3-5.3-4.1c-1.4-1.1-0.4-0.9-0.4-0.9   s0.4,0,1.2-0.3c0.8-0.3,0.9-0.8,0.1-1c-0.8-0.3-2.4-1.2-2.8-1.6c-0.4-0.4-0.6-0.9,0.2-1.3c0.8-0.4,2.6-1.6,1.2-2   c-1.4-0.4-3.1-0.7-4.5-1.1c-1.4-0.4-1.5-0.8-1.5-0.8l0.9-1.3c0,0,0.7-1-0.1-1.2c-0.9-0.1-2.9-0.4-4.8-1.2c-3.8-1.6-6.2-4.4-7.1-7.8   l0.1-0.1c0.7,1.4,2.4,4,4.9,4.1c3.4,0.1,3.8-0.9,3-2.1c-0.8-1.1-1.7-2.1-1.9-2.5c-0.2-0.3-0.3-0.8,0.6,0.1c0.9,0.8,2.6,3.7,7.7,3.3   c5.1-0.3,5.1-1.3,5.1-1.6c0-1-1-1.1-1.7-1.8c-0.3-0.3-0.5-0.8,0.5-0.4c1,0.4,3.6,0.9,7,0.1c1.4-0.3,5-1.9,5.3-3.7   c0,0-2.3-0.1-3.9-0.8c-1.6-0.7-2.6-1.3-0.9-0.9c1.7,0.3,5,1,7.9,0c1.7-0.6,3.9-1.9,3.9-4.5c0,0-3.2-0.7-4.3-1.1   c-1.2-0.4-1.5-0.7-1.5-0.7s4.5,1.4,8.6-0.6s4.3-4.9,4.3-5.6c0-0.7-0.1-0.9-0.1-0.9s-3.7,0.9-6.5,0.9c-2.8,0-3.6-0.3-3.6-0.3   s7.8-0.2,11.7-2.6c3.9-2.4,4.1-7.1,4.1-7.1s-4.4,1.6-7.2,1.9c-2.8,0.3-4.5,0.3-5.2,0.3c-0.7,0-1.1-0.3,0.4-0.3   c1.5-0.1,7.4-1.1,10.7-3c3.3-1.9,5.3-6,5.5-8c0.2-1.9,0-1.6-1.5-0.7c-1.5,0.9-6.8,3.7-10.4,4.5c-3.5,0.8-4.2,0.9-4.2,0.9   S319.1,254.1,320.9,253.6 M180.7,262.5c-0.4,0.2-1.6,0.9-1.6,0.9s-0.6-1.3-0.8-1.7c-0.2-0.4-0.1-0.5,0.1-0.5c0.2,0,0.9-0.2,1.4-0.2   c0.1,0,0.1,0,0.2,0C180.2,261.4,180.5,262,180.7,262.5C180.7,262.5,180.7,262.5,180.7,262.5 M228.5,290.5c-1,1.8-3.5,3.6-5.4,4.5   c-1.9,0.8-4,1.1-4.8,1.2c-0.9,0.1-0.1,1.2-0.1,1.2l0.9,1.3c0,0-0.1,0.4-1.5,0.8c-1.4,0.4-3.1,0.7-4.5,1.1c-1.4,0.4,0.4,1.6,1.2,2   c0.8,0.4,0.6,0.9,0.2,1.3c-0.4,0.4-2,1.3-2.8,1.6c-0.8,0.3-0.7,0.7,0.1,1c0.8,0.3,3.1,0.8,3.1,0.8s0,0.1-1.4,1.1   c-1.4,1-3.8,1.7-5.4,1.8c-1.6,0.1-4.1,0.2-7.3,0c-3.2-0.1-3.6-0.2-3.6-0.2s-0.1-1.1-0.3-2.6c-0.2-1.6-1.2-3.8-1.9-4.9   c-0.7-1-2.3-3.1-2.3-3.1s0-0.4,0.1-1c0.1-0.5,0-1.1-0.3-2c-0.4-1-2.2-2.4-2.2-2.4s-0.1-1-0.1-2c0-1-0.7-4.8-1.3-6.6   c-0.6-1.8-3.5-6.5-4.9-8.7c-1.3-2.2-2.1-5.6-2.5-8.1c-0.4-2.6-0.3-3.4-0.1-4.1c0.1-0.3,0.2-0.6,0.3-0.8c0.6,0.7,1.3,1.4,2.2,1.9   c3.9,2.4,11.7,2.6,11.7,2.6s-0.9,0.2-3.7,0.3c-2.8,0-6.5-0.9-6.5-0.9s-0.1,0.2-0.1,0.9c0,0.7,0.2,3.5,4.3,5.6   c4.1,2.1,8.6,0.6,8.6,0.6s-0.4,0.3-1.5,0.7c-1.2,0.4-4.3,1.1-4.3,1.1c0,2.5,2.2,3.9,3.9,4.5c2.9,1,6.2,0.3,7.9,0   c1.7-0.3,0.7,0.2-0.9,0.9c-1.6,0.7-3.9,0.8-3.9,0.8c0.3,1.8,4,3.4,5.3,3.7c3.5,0.7,6,0.3,7-0.1c1-0.4,0.8,0.1,0.5,0.4   c-0.6,0.6-1.7,0.8-1.7,1.8c0,0.3,0,1.3,5.1,1.6c5.1,0.3,6.8-2.5,7.7-3.3c0.9-0.8,0.8-0.4,0.6-0.1c-0.2,0.3-1.1,1.3-1.9,2.5   c-0.8,1.1-0.4,2.2,3,2.1c2.5-0.1,4.2-2.7,4.9-4.1l0,0.1c0,0.1,0.1,0.1,0.1,0.2C229.7,288,229.1,289.4,228.5,290.5 M269.9,179.6   c-0.5-0.9-0.7-1.3-0.7-1.3s1.9,0.9,3.1,2.2c1.1,1.3,1.1,2,1.3,2.6c0.2,0.6,0,1.8-0.2,2.9c-0.2,1.1-0.2,1.8,0,2.2   c0.2,0.4,0.4,0.6,0.4,0.6s-0.9,0.2-1.7,0.5c-0.8,0.3-1.9,0.6-2.5,0.1c-0.6-0.5-0.7-0.8-0.4-1.2c0.4-0.3,1.7-0.7,1.9-3.1   C271.4,182.9,270.3,180.5,269.9,179.6 M259.3,186c0.4-1.1,0.6-2.2,0.3-4.5c-0.3-1.9-0.7-3.6-0.8-5.6c0,0,1.4,0.3,3.5,2.2   c2,1.9,2.5,3.8,2.5,4.7c0,0.9-0.5,2.1-0.6,3c-0.1,0.9,0.3,1.7,0.3,1.7s-0.8,0.3-1.4,0.8c-0.7,0.5-1.1,0.8-2.2,0.7   c-1-0.1-1.7-0.5-2.3-0.8c-0.6-0.3-1-0.4-1-0.4S258.9,187.2,259.3,186 M249.3,178.1c2.1-1.9,3.5-2.2,3.5-2.2   c-0.1,2.1-0.5,3.7-0.7,5.6c-0.3,2.3-0.2,3.4,0.3,4.5c0.4,1.1,1.6,1.8,1.6,1.8s-0.4,0.1-1,0.4c-0.6,0.3-1.2,0.8-2.3,0.8   c-1,0.1-1.5-0.2-2.2-0.7c-0.7-0.5-1.4-0.8-1.4-0.8s0.3-0.8,0.3-1.7c-0.1-0.9-0.6-2.1-0.6-3C246.8,181.9,247.3,180,249.3,178.1    M242,189.5c-0.6,0.5-1.6,0.2-2.5-0.1c-0.8-0.3-1.7-0.5-1.7-0.5s0.2-0.2,0.4-0.6c0.2-0.4,0.2-1.1,0.1-2.2c-0.2-1.1-0.3-2.3-0.2-2.9   c0.2-0.6,0.2-1.3,1.3-2.6c1.2-1.3,3.1-2.2,3.1-2.2s-0.2,0.4-0.7,1.3c-0.5,0.9-1.6,3.3-1.4,5.6c0.2,2.4,1.5,2.7,1.9,3.1   C242.7,188.7,242.5,189,242,189.5 M269.3,209.2c-2,1.1-3.2,0.9-3.1,1.7c0.1,0.8,1.9,1.4,1.9,1.4s-1.9,2-3.3,2.9   c-1.4,0.9-3.1,1.5-3.1,1.5s-0.6,0.1-0.3,1c0.3,0.9,0.9,1.5,1.4,1.8c0.5,0.3,0.7,0.3,0.7,0.3s-2.5,2.7-3.6,3.5   c-1.1,0.9-1.7,1.2-2.6,1.5c-0.9,0.4-0.4,1.9-0.3,2.5c0.2,0.7,1,1.6,1.4,1.7c0.5,0.1,0.6,0.5,0,1.4c-0.4,0.7-1.9,2.5-2.6,3.5l0,0   c-0.7-1-2.1-2.8-2.6-3.5c-0.6-0.9-0.4-1.2,0-1.4c0.5-0.1,1.2-1,1.4-1.7c0.2-0.7,0.7-2.2-0.2-2.5c-0.9-0.4-1.5-0.7-2.6-1.5   c-1.1-0.9-3.6-3.5-3.6-3.5s0.3-0.1,0.7-0.3c0.5-0.2,1-0.9,1.4-1.8c0.3-0.9-0.2-1-0.2-1s-1.7-0.6-3.1-1.5c-1.4-0.9-3.3-2.9-3.3-2.9   s1.8-0.6,1.9-1.4c0.1-0.8-1.1-0.6-3.1-1.7c-2-1.1-2.7-2.5-2.7-2.5s2.4-0.8,3.5-3.1c0.4-0.8,0.5-1.6,0.5-2.2l0.1,0   c3.8,1.2,8.1,1.7,12.1,1.7c3.9,0,8.3-0.5,12-1.7l0.1,0c0,0.6,0,1.4,0.5,2.2c1.2,2.4,3.5,3.1,3.5,3.1S271.3,208,269.3,209.2"/>
    <path class="st1"
          d="M227.8,212.4c-0.8-0.5-2.9-1.4-5.2-1.6c-2.3-0.2-4,0.2-5.9,0.7c-1.3,0.4-2.4,0.4-3.5,0.1   c-1.6-0.4-2.9-1.9-3.3-3.7c0,0-1.5,1.9,0,4c0.7,1,1.7,1.6,2.7,1.8c3.2,0.6,6.3-1.3,8.9-1.5c2.5-0.2,4.5,1.4,4.5,1.4s0.6,0.5,1.4,0   C228.4,213.2,228.6,212.8,227.8,212.4"/>
    <path class="st1"
          d="M301.8,207.9c-0.4,1.8-1.7,3.3-3.3,3.7c-1.1,0.3-2.2,0.2-3.5-0.1c-1.9-0.5-3.6-0.8-5.9-0.7   c-2.3,0.2-4.4,1.1-5.2,1.6c-0.8,0.5-0.6,0.8,0.3,1.3c0.9,0.5,1.5,0,1.5,0s2-1.6,4.5-1.4c2.6,0.2,5.8,2.1,8.9,1.5   c1-0.2,1.9-0.8,2.7-1.8C303.3,209.8,301.8,207.9,301.8,207.9"/>
    <path class="st0"
          d="M281.5,254.6c0-6.3,2.9-10.3,2.9-10.3l-7.9-9.1c-7.5,2.9-14.5,3.1-20.6,0c-6.2,3.1-13.1,3-20.6,0l-7.9,9.1   c0,0,2.9,4,2.9,10.3c0,6.3-1.2,11-1.9,14.1c-0.7,3.1-1.3,8.8,0.3,12.9c1.6,4.1,3.4,7.7,10.4,10.6c7,3,10.7,4.5,13.2,6.5   c2.5,2,3.7,3.7,3.7,3.7s1.2-1.6,3.7-3.7c2.5-2,6.1-3.6,13.2-6.5c7.1-3,8.8-6.5,10.4-10.6c1.6-4.1,1-9.8,0.3-12.9   C282.7,265.6,281.5,260.9,281.5,254.6"/>
    <path class="st0"
          d="M220.7,305.2c0,0-2.6,1.2-3.4,1.4c-0.8,0.2-1,0.2-1,0.2s-1.8,1.6-3,2.3c-1.3,0.8-2.9,1.4-4.4,1.5   c-2,0.2-7.5,0.2-10,0.1c-2.5-0.1-4,0.5-5,1.7c-1.1,1.2-1.3,2.9,0,4.2c1.3,1.3,2.8,0.7,3.3-0.2c0.5-0.8,0.3-1.8,0-2.3   c-0.2-0.5,0.4-0.6,1.1-0.7c0.7,0,1.8,0.1,2.9,0.2c1.1,0.2,2.9,0.8,3.8,1.2c0.8,0.4,0.3,0.5-0.2,0.4c-0.6-0.1-1.2-0.3-2.2-0.7   c-1-0.4-1.9-0.6-2.5-0.6c-0.6,0-0.4,0.3-0.3,0.5c0.1,0.2,0.5,0.8,0.6,1c0.1,0.3-0.2,1.2-0.2,1.2l0.3,0.6c0,0,0.4-0.6,0.5-0.9   c0.1-0.3,0-0.9,0.1-1.2c0.1-0.3,0.7-0.3,1.1,0.2c0.4,0.5,0.9,1,1.1,2.2c0.2,1.2-0.2,2-0.2,2s0.5,0.4,0.6,0.7   c0.1,0.3-0.1,1.4-0.1,1.4s0.3,0.2,0.7-0.4c0.3-0.6,0.7-1.8,0.8-2.2c0.1-0.4,0.4-1.2,0.9-0.6c0.5,0.6,0.8,1.3,0.9,1.6   c0.1,0.3,0.1,0.6,0.1,0.6s1.1-1.1,1.5-1.7c0.4-0.6,1.2-1.6,2.2-2.4c1.1-0.9,2.9-2.6,3.8-3.2c0.9-0.6,3.2-1.8,3.9-2.3   c0.7-0.4,0.8-0.5,1-1.7c0.1-1.2,0.7-2.3,1-3.2C220.6,305.5,220.7,305.2,220.7,305.2"/>
    <path class="st0"
          d="M218.7,304.2c0,0-0.3,0-0.7-0.1c-0.4-0.1-1.4-0.4-1.7-0.5c-0.3-0.1-0.7-0.2-1,0.2c-0.3,0.3-2.6,1.7-2.6,1.7   h3.8C217.8,305.4,218.7,304.2,218.7,304.2"/>
    <path class="st0"
          d="M229.3,303.6v-0.4l-0.5-1.1c0,0-0.6,0.4-1.2,1c-0.7,0.8-1.5,1.8-1.9,2.3c-0.6,0.8-1.5,1.6-0.8,0.3   c0.8-1.3,1-1.8,1.6-2.7c0.6-0.9,1.1-1.2,1-1.3c-0.1-0.1-0.6-0.1-2.1-0.3c-1.6-0.2-2.6-0.8-3.3-1.2c-0.7-0.4-2-1.1-2-1.1   s-2.7,1.1-3.7,1.4c-1,0.3-1.6,0.4-0.6,0.9c1,0.5,1.8,0.6,2.3,0.9c0.5,0.3,2,0.8,2.9,0.8c0.9,0,2.4,0,1.8,0.7   c-0.6,0.6-1.3,1.8-1.9,3.7c-0.6,1.8-0.7,3.5-0.7,4.3c0,0.8,0.1,1.6,0.1,1.6s1.1-1.2,4.1-3.1c3-1.9,4.1-2.5,4.6-2.7   c0.6-0.3,0.8-0.3,0.7-1C229.6,305.7,229.3,303.9,229.3,303.6"/>
    <path class="st0"
          d="M240.7,294.6c-0.2-0.1-0.4-0.2-0.6-0.3c0,0-0.1,0-0.1,0c-0.3,0.2-2.2,1.4-2.9,2.6c-0.7,1.2-1.5,1.3-0.7,0   c0.8-1.3,1.4-2,2-2.6c0.2-0.2,0.5-0.4,0.6-0.5c-1.5-0.7-3-1.6-4.6-2.6c-0.2,0.4-0.6,1.1-1,1.6c-0.6,0.7-2,1.2-2,1.2s1.1-1.1,1.5-2   c0.2-0.6,0.4-1.2,0.5-1.5c-1.1-0.8-2.1-1.8-3-2.9c-0.2,0.8-0.8,2.6-2.6,4.6c-2.3,2.6-7,3.9-7,3.9s-1.6,0.2-0.3,0.5   c1.3,0.3,2.3,0.9,4.8,0.5c2.6-0.5,2.7-0.6,3.1-0.7c0.3-0.1,1.3,0,0,0.5c-1.3,0.5-4.3,0.9-5.4,0.8c-1.1-0.1-2.7-0.3-1.1,0.5   c1.6,0.9,2.3,1.2,3.3,1.2c1,0,1.4,0.3,2.4,0.3s1.3-0.2,1.9-0.3c0.7-0.1,1.1,0.1,1.1,0.4s-0.9,1-0.9,3c0,1.9,0.2,3.2,0.3,3.7   c0.2,0.6,0.6,1.5,0.9,2c0.3,0.5,0.4,1,0.7-0.1c0.3-1.1,0.9-2.7,1.1-3.8c0.2-1.1,0.4-1.1,0.5-1.7c0.1-0.6,0.7-1,0.4,0   c-0.3,1-0.6,2.3-0.8,3.2c-0.2,0.9-0.7,2.6,0.1,1.3c0.8-1.3,4-4.8,4.5-5.5c0.5-0.6,0.9-1.2,1.3-1.7c0.4-0.5,1.5-1.2,2-2   c0.5-0.7,1.9-2,2.5-2.5C242.6,295.4,241.7,295,240.7,294.6"/>
    <path class="st0"
          d="M179.7,259.3c0-0.2-0.4-0.9-0.5-1.3c-0.1-0.4-0.5-0.2-0.5-0.2s-0.8,0.5-1.4,0.6c-0.6,0.2-0.7-0.1-0.8-0.4   c-0.1-0.3-0.2-1.3-0.3-2c-0.1-0.7-0.2-0.6-0.5-0.5c-0.3,0.1-1,0.4-1.5,0.6c-0.5,0.2-0.4,0.5-0.2,0.8c0.2,0.3,0.8,1.5,1,2   c0.3,0.4,0,0.6-0.3,0.8c-0.3,0.1-0.8,0.2-1.4,0.4c-0.6,0.2-0.6,0.3-0.5,0.6c0.1,0.2,0.5,1.1,0.7,1.5c0.2,0.4,0.4,0.1,0.4,0.1   s0.7-0.6,1.2-0.9c0.6-0.3,0.6-0.2,0.7,0.2c0.2,0.4,0.8,2.6,0.9,3c0.1,0.4,0.3,0.4,0.6,0.3c0.3-0.1,0.7-0.2,1-0.3   c0.3-0.1,0.5-0.8,0.5-0.8s-1.2-2.2-1.6-2.8c-0.3-0.6,0-0.7,0.3-0.7c0.2,0,1-0.1,1.6-0.3C179.9,259.9,179.8,259.5,179.7,259.3"/>
    <path class="st0"
          d="M193.6,319.4c-0.1-0.5,0-1.1-0.4-1.5c-0.4-0.4-0.9-1.2-1.1-1.9c-0.2-0.7,0.2-1,0.1-1.3c-0.1-0.4-0.6-0.4-1.1,0   c-0.5,0.4-1.2,0.8-1.2,2c0,1.2,0.4,2.6,2.1,3.1C193.7,320.3,193.7,319.9,193.6,319.4"/>
    <path class="st0"
          d="M195.3,318.8c0,0-0.3-0.2-0.5,0.1c-0.2,0.3-0.1,0.5,0.3,1.2c0.4,0.7,0.7,0.8,1.2,1.2c0.5,0.3,0.2-0.3,0.1-0.5   s0-0.4-0.1-0.6c-0.1-0.2-0.2-0.3-0.2-0.8S195.3,318.8,195.3,318.8"/>
    <path class="st0"
          d="M197.3,324.4c0.3-0.5,0.6-0.6,1.3-0.9c0.8-0.3,2.1-0.5,2.6-0.6c0.5,0,1.5-0.9,1.4-1.9   c-0.2-0.9-0.8-1.3-1.4-1.4c-0.6-0.1-1.1-0.1-1.3,0.2c-0.2,0.3-0.5,0.7-1.2,0.9c-0.7,0.2-0.8,0.4-1.2,0.6c-0.4,0.1-0.1,0.4-0.4,0.7   c-0.3,0.3-0.8,0-1.3-0.2c-0.5-0.2-0.6-0.2-1.2-0.3c-0.6,0-2.2-0.1-2.2-0.1s-0.1,0-0.4,0c-0.3,0-0.4,0.1-0.5,0.4   c-0.1,0.4,0,1.3,0.4,1.8c0.4,0.5,1.6,0.7,2.4,0.9c0.8,0.3,1.2,0.3,1.9,0.5C196.9,325,197,324.9,197.3,324.4"/>
    <path class="st0"
          d="M204.9,325.2c0.6-0.4,0.3-1.2,0.1-1.7c-0.2-0.5-1.1-0.6-1.5-0.6c-0.5,0-0.7,0-1,0.2c-0.2,0.2-0.6,0.5-1.3,0.8   c-0.7,0.2-1.2,0.5-2.2,0.8c-0.9,0.4-1.2,1-1.6,1.3c-0.4,0.3-1.2,0-1.2,0s-0.6-0.2-0.8,0c-0.2,0.2,0,0.5,0.4,0.9   c0.4,0.4,1.1,0.4,1.9,0.6c0.8,0.3,1,0.1,1.3-0.2c0.3-0.2,0.6-0.7,1.1-1c0.6-0.3,1.8-0.4,2.4-0.5   C203.2,325.8,204.3,325.6,204.9,325.2"/>
    <path class="st0"
          d="M204.9,322.4c0.3,0.3,0.6,0.6,0.8,0.2c0.3-0.4,0.7-1.3,0.4-1.8c-0.3-0.5-0.6-0.9-0.6-0.9s-0.5,1.4-0.7,1.8   C204.6,322,204.6,322.1,204.9,322.4"/>
    <path class="st0"
          d="M202.4,318c0-0.8-0.6-1.8-0.6-1.8s-0.2,0.8-0.5,1.4c-0.3,0.7-0.7,1-0.7,1s0.8,0.2,1.1,0.2   S202.4,318.8,202.4,318"/>
    <path class="st0"
          d="M197.7,319.8c0.9-0.2,1.3-0.5,1.7-0.8c0.4-0.3,0.6-1.2,0.3-1.6s-0.9-0.9-1.1-0.9h-0.5c0,0-0.3,0.8-0.6,1.2   c-0.3,0.4-0.7,0.7-0.7,1.2C196.9,319.4,196.8,319.9,197.7,319.8"/>
    <path class="st0"
          d="M199.5,315.8c0-0.4-0.1-0.8-0.4-1.1c-0.3-0.3-0.5-0.5-0.5-0.5s-0.1,0.6-0.1,1c-0.1,0.3-0.1,0.4-0.1,0.4   s0.3,0.3,0.5,0.3C199.1,316,199.4,316.2,199.5,315.8"/>
    <path class="st0"
          d="M188.7,293.6c0,0,1,0,0.6-3.7c-0.4-3.7-2.4-7.2-3.9-9.6c-1.5-2.4-3.1-6.2-3.8-8.2c-0.7-2-1.1-4.8-1.1-6.2   c0-1.4,0.6-2.2,0.6-2.2s0.3-0.4,0-0.6c-0.3-0.2-0.6,0-1,0.4c-0.4,0.4-0.8,1.1-1,1.6c-0.2,0.5-0.2,0.7-0.2,0.7s-0.8-0.2-2-0.1   s-1.9,0.2-1.9,0.5c0,0.3,0.2,0.5,1.1,0.9c0.9,0.4,1.5,0.6,1.9,1.1c0.5,0.5,1.6,3.2,2,4.5c0.4,1.3,1.1,4.8,1.4,7.6   c0.3,2.8,1.2,6.1,2.5,8.9C184.4,290.1,186.7,294.4,188.7,293.6"/>
    <path class="st0"
          d="M191,300.1c-0.9,0.5-0.8,4-0.4,5.8c0.4,1.8,2.2,4.1,2.7,4.7c0.5,0.6,0.7,0.6,1,0.4c0.3-0.2,0.4-0.2,0.4-0.2   s0.8-0.3,1.3-0.7c0.6-0.5,0.3-1.6,0.3-2.5c-0.1-1-0.9-3-2.2-5.2C192.5,300,191.8,299.6,191,300.1"/>
    <path class="st0"
          d="M191.9,297.2c0-1.1-1-2-2.1-2c-0.5,0-1,0.1-1.3,0.4c-1.1,1-0.5,3.6,1.2,3.6c0.6,0,1.3-0.1,1.7-0.5   C191.8,298.4,191.9,297.8,191.9,297.2"/>
    <path class="st0"
          d="M208.4,330c-0.5-0.1-0.7-0.3-1.4-0.7c-0.7-0.5-1.7-1.4-1.9-1.8c-0.2-0.5-0.2-0.5-0.8-0.3   c-0.6,0.2-1.6,0.2-2.2,0.2c-0.7,0,0.1,0.8,0.6,1.5c0.5,0.7,0.3,3.2,0.3,3.2s0,0.2-0.1,0.6c-0.1,0.3,0,0.6,0.2,0.7   c0.2,0.1,0.3-0.1,0.8-0.6c0.5-0.6,1.4-2,1.4-2s0.1,0,0.9,0.2c0.7,0.2,2,0.1,2.6-0.1C209.2,330.6,208.9,330.1,208.4,330"/>
    <path class="st0"
          d="M205.6,331.9c-0.3-0.1-0.5-0.1-0.6,0.1c-0.2,0.2-0.3,0.6-0.4,0.8c-0.1,0.2,0,0.4,0.1,0.6   c0.2,0.2,0.5,0.3,0.5,0.3s0.3,0.3,0.5,0.4c0.3,0.1,0.3-0.3,0.3-0.6c0-0.3,0.2-0.8,0.2-1.2C206.2,332.1,205.9,332,205.6,331.9"/>
    <path class="st0"
          d="M197.4,214.2c0.1,1.9,2.2,5.6,3.4,7.6c1.2,2,1.5,2.8,1.3,2.9c-0.2,0.1-0.7-0.9-1.4-1.7c-0.7-0.9-1.9-2.9-3-4.5   c-1.1-1.5-2.7-5.2-2.9-5.5c-0.2-0.3-0.3-0.5-0.8-0.1c-0.5,0.4-1.6,4.5-0.3,7.2c1.3,2.8,3.1,4.7,3.9,5.7c0.8,1,1.8,2.5,1.7,2.6   c-0.2,0.1-0.5-0.2-1.4-1.3c-1-1-2.5-2.7-3.6-4c-0.8-1-2-3.1-2.4-3.8c-0.2-0.3-0.3-0.2-0.5-0.1c-0.3,0.3-0.9,1.1-0.7,3.3   c0.3,3,1.9,4.8,3.3,6.3c1.4,1.5,2.8,2.8,2.6,3c-0.2,0.2-1.7-1.1-2.7-2c-1-1-3.5-3.3-4-4c-0.5-0.7-1.3-0.3-1.3,2.3   c0,2.6,3,5.3,4.2,6.8c1.2,1.5,2.7,2.3,2.6,2.6c-0.1,0.3-1.3-0.5-2.1-1c-0.8-0.5-3.8-2.5-4.3-2.9c-0.6-0.4-0.9,0.4-0.1,2.9   c0.7,2.5,2.9,4.5,4.2,5.4c1.3,0.9,3.4,2,3.2,2.3c-0.1,0.3-1-0.1-2.2-0.7c-1.2-0.6-2.7-1.1-3.7-1.4c-1-0.3-1,0.5-1,0.5   s-0.2,2.1,1.3,3.8c1.6,1.7,3.3,2.4,5,2.7c1.7,0.3,1.9,0.4,1.9,0.6c0,0.2-0.2,0.3-0.6,0.3c-0.4,0-1.9,0.2-3.3,0.2   c-1.4,0-2.2,0.3-2.2,1c0,0.6,0,1.5,2.1,2.9c2.1,1.4,4.5,1.6,5.5,1.8c1,0.2,1,0.3,0.8,0.6c-0.2,0.3-0.7,0.3-2.2,0.4   c-1.6,0.2-2.5,0.8-2.8,1.2c-0.2,0.4,0.1,1.7,1.4,2.5c1.3,0.9,3,1.2,5.5,1c2.5-0.2,3.1-0.2,3.2,0.2c0.1,0.4-0.7,0.5-2,0.8   c-1.3,0.2-2.2,0.2-2.9,0.8c-0.7,0.6-0.2,1.8,1,2.7c1.2,0.9,4.2,0.9,5.5,0.8c1.3-0.1,3.2-0.5,3.3-0.2c0.1,0.3-0.9,0.8-2.2,1.3   c-1.3,0.5-1.7,0.8-1.9,1.3c-0.3,0.5,0,1,1.5,1.6c1.5,0.6,3.8,0.6,5,0c1.2-0.5,1.8-0.8,2-0.5c0.2,0.2,0,0.4-0.2,0.7   c-0.3,0.3-1.3,1.1-2.5,1.4c-1.3,0.3-1.4,0.3-1.9,1.4c-0.5,1,0.7,1.9,3,2c2.3,0.1,5.5-0.8,6.5-1.4c1-0.6,1.4-0.7,1.5-0.5   c0.2,0.2,0.1,0.3-0.4,0.7c-0.5,0.4-2.1,1.5-2.9,1.7c-0.8,0.2-0.9,0.8-0.9,1.3s-0.2,1.6,1.9,2.1c2.1,0.5,4.5,0.1,6.8-1.5   c0.7-0.5,1.1-0.9,1.4-1.3c-0.2-2.1-0.1-3.6,0.2-4.9c-0.4,0-1.3-0.2-2.1-0.5c-1.3-0.5-1.8-1.7-2-2.3c-0.3-0.6-0.7-0.6-1.2-0.5   c-0.5,0.2-1,0.4-1.7,0.3c-0.7,0-2.2-0.4-3.3-1.7c-1.1-1.3-0.9-2.5-0.9-3.2c0-0.6-1-0.2-1.5-0.2c-0.5,0-2-0.2-3.3-1.1   c-1.3-0.9-1.3-2.2-1.5-2.7c-0.1-0.5-0.7-0.8-1.1-1c-0.4-0.2-1.1-0.3-2-1.1c-0.9-0.8-1.2-2.2-1.3-2.7c0-0.5-0.6-0.5-2.5-1.5   c-1.9-1-1.7-3-1.6-3.8c0.1-0.8,1-1.5,1-1.7c0-0.3-0.6-0.4-1.3-0.8c-0.6-0.4-2.2-1-2.2-3.3c0-2.3,1.5-2.6,1.5-2.6s-0.3-0.1-0.9-0.5   c-0.6-0.4-2.3-1.5-2.3-2.9s0.6-2,1.1-2.3c0.5-0.3,1.7-0.7,1.7-0.7s-0.8-0.5-1.1-1.6c-0.3-1.1-0.5-2.4,0.3-3.4c0.8-1,2.1-1,2.8-1   c0.7,0,1.3,0.4,1.6,0.2c0.3-0.2,0.3-0.4,0-0.9c-0.3-0.5-0.3-1.9-0.1-2.3c0.2-0.5,0.3-1.4,2-2c1.8-0.6,3.7,0.6,4.2,1   c0.6,0.3,0.3-0.5,0.3-1c0-0.6-1.2-2-2.6-4.1c-1.4-2.1-2-3.2-3.5-6.3c-1.5-3.2-2.5-7.3-2.8-8.3c-0.2-1-0.6-0.5-0.6-0.5   s-0.4,0.2-1.4,2.6C197.4,210.1,197.3,212.3,197.4,214.2"/>
    <path class="st0"
          d="M228.8,256.9c-1.1,0-2.5-0.6-3.5-2.2c-1.1-1.6-2.7-1.9-5.5-1.9c-2.8,0.1-4.1-1.3-4.8-3.2   c-0.7-1.9,0.1-4.1,3-5.5c2.8-1.4,4.1-3,4.2-5.4c0.1-2.4-2.8-5.4-5.8-8.8c-3-3.4-5.3-8.2-5.3-8.2s-0.9,1.1-0.9,2.3   c0,1.1,0.4,2.3,0,2.6c-0.4,0.3-0.6-0.5-2.3-1.2c-1.7-0.8-3.1-0.9-4.2,0.4c-1.1,1.2,0,3.4,1,4.4c1,1,1.8,1.8,1.5,2.1   c-0.3,0.4-1.7-0.6-2.2-0.9c-0.5-0.3-1.6-1.6-3.3-1.4c-1.7,0.2-2.2,0.6-2.4,2c-0.2,1.4,1.5,2.6,2.6,3.2c1.1,0.5,1.5,1,1.2,1.2   c-0.3,0.2-0.5,0-1-0.2c-0.5-0.2-1.8-0.3-2.7,0c-0.9,0.3-2.2,1.5-1,3c1.3,1.4,4,2,4.5,2.1c0.5,0.1,0.8-0.1,0.9,0.4   c0.1,0.4-1.1,0.4-2.6,0.5c-1.4,0.1-1.9,1.5-1.7,2.5c0.2,1.1,2.6,2.3,4,2.5c1.3,0.2,1.8,0,1.9,0.4c0.1,0.4-0.2,0.5-0.9,0.8   c-0.8,0.2-2.2,0.4-2.5,1.6c-0.3,1.2-0.3,1.7,0.8,2.7c1.1,1,3,0.9,3.5,0.8c0.5-0.1,1.2-0.7,1.7-0.2c0.5,0.5-0.5,1-1.4,1.6   c-0.9,0.6-0.9,1.9,0.7,2.7c1.6,0.9,3.1,0.5,3.8,0.3c0.6-0.2,1.5-1.2,1.9-0.6c0.4,0.6-1.3,0.9-2.1,1.8c-0.7,0.9-0.5,2.4,1,3.3   c1.5,0.9,4,0.3,4.4-0.1c0.4-0.4,1-0.5,1.3-0.2c0.3,0.3-0.2,1.2-0.5,1.9c-0.3,0.8-0.9,3,1.3,3.8c2.2,0.9,4.3-1.1,4.7-1.4   c0.4-0.4,0.7-0.4,1.1-0.3c0.3,0.2,0.2,0.5-0.1,0.9c-0.3,0.4-0.9,2,0.8,3.1c1.1,0.8,2.3,0.7,2.9,0.6c0.3-1.3,0.8-2.6,1.2-4.5h-0.3   c-0.2,0-0.3,0.3-0.3,0.4c0,0.1,0.1,0.2-0.1,0.2c-0.2,0-0.2,0.1-0.5,0.3c-0.3,0.2-0.5,0.4-0.7,0.3c-0.2-0.1,0.6-0.5,0.8-0.7   c0.2-0.2,0.6-0.6,0.6-0.9s0.2-0.4,0.5-0.7c0.1-0.1,0.2-0.2,0.3-0.3c0.3-1.3,0.5-2.7,0.7-4.5c0.2-1.2,0.2-2.3,0.3-3.4L228.8,256.9z"/>
    <path class="st0"
          d="M182.9,223.4c2.4,4.8,5.8,7.6,5.8,7.6s-0.4-1.2-0.6-2c-0.2-0.8,0-1.8,0-1.8s-0.9-1.1-2.4-3.5   c-1.6-2.4-2.4-6-2.4-6s1.5,3.6,2.6,5.5c1.1,1.9,2.4,3.4,2.4,3.4s0.5-1.7,0.8-1.8c0.3-0.1,0.6,0.2,0.8,0.5c0.3,0.4,0.5,0.3,0.5,0.3   s-0.4-0.8-1-1.8c-0.3-0.4-0.7-0.9-0.9-1.3c-0.9-1.4-2.8-4.1-3.8-6.8c-1-2.7-3.1-9.4-3.5-11.4c-0.4-2-0.7-0.9-1.1,0.6   c-0.4,1.5-0.9,3.5-0.6,6.6C179.8,214.7,180.5,218.5,182.9,223.4"/>
    <path class="st0"
          d="M186,236.5c0.9,0.7,2.2,1.6,2.2,1.6s-0.2-0.5-0.3-1.1c-0.1-0.6-0.2-1.8-0.2-1.8s-1.1-0.9-1.8-1.6   c-0.7-0.6-1.7-1.5-3.5-3.7c-1.8-2.3-0.4-0.9,1.1,0.7c1.5,1.6,4.3,4,4.3,4s0,0,0-0.5c0-0.5,0.2-0.8,0.4-1.2c0.3-0.3,0.1-0.4-1.5-1.6   c-1.6-1.2-5.7-5.9-7.4-8.7c-1.7-2.8-3.5-6.5-3.5-6.5s-0.9,5.6,2.5,11.7C181.8,233.8,185.1,235.8,186,236.5"/>
    <path class="st0"
          d="M203.8,271.5c1.9-0.7,1.3-2.5,1.3-2.6c0,0-1.1,0.4-2.2,0.8c-1,0.4-3.6,1.1-4.6,1.2c-1,0-1-0.1-1-0.3   c0-0.1,0.8,0,2.2-0.3c1.5-0.3,4-1.6,4.5-1.9c0.4-0.3,0.4-0.4-0.3-0.4c-0.7-0.1-1.2-0.4-1.5-0.6c-0.2-0.2-0.9,0.1-2.6,0.5   c-1.7,0.4-5.1,1-7.8,1c-2.7,0-5.1-0.5-5.6-0.5c-0.4-0.1-0.9,0.2,0.4,2.3c1.3,2.2,5.8,3.3,8.9,3.3   C198.8,273.9,201.9,272.2,203.8,271.5"/>
    <path class="st0"
          d="M195.4,267c3.2,0,4.4-0.9,4.4-0.9s0-0.2-0.4-0.8c-0.4-0.7-0.3-1.8-0.3-1.8s-0.8,0.1-2.1,0.3   c-1.3,0.2-2.9,0.4-4.6,0.1c-1.7-0.3-1-0.5,0.4-0.3c1.4,0.2,4-0.3,4.9-0.6c0.9-0.3,0.5-0.6-0.1-0.8c-0.6-0.2-2.1-1.2-2.1-1.2   s-3.9,0.5-7.6,0.1c-3.7-0.4-6-1.3-6.7-1.5c-0.7-0.1-0.7,0.2-0.7,0.2s-0.2,0.3,1.1,2.3c1.3,2,3.7,3.3,5.8,3.9   C189.3,266.6,192.2,267,195.4,267"/>
    <path class="st0"
          d="M194.6,259.5c0,0-0.1-0.2-0.3-0.9c-0.2-0.7,0.4-1.2,0.4-1.2s-0.7-0.2-3.2-0.5c-2.4-0.3-2.6-0.5-4-0.8   c-1.5-0.3-2.5-0.8-2.4-0.9c0-0.2,0.5,0.1,1.4,0.4c0.9,0.3,4.6,0.7,6.1,0.9c1.6,0.2,2.5,0.4,2.7,0.2c0.3-0.2,1.2-0.4,1.2-0.4   s-0.7-0.2-1.5-0.3c-0.8-0.1-1.6-0.5-2-0.8c-0.4-0.3-0.6-0.4-2.5-0.6c-2-0.2-3.6-0.9-7.1-2.1c-3.5-1.3-6.2-2.8-6.9-3.4   c-0.7-0.6-0.7-0.2-0.5,0.6c0.2,0.7,0.2,1.7,1.9,3.8c1.8,2.1,2.7,3,7.2,4.6C189.6,259.7,194.6,259.5,194.6,259.5"/>
    <path class="st0"
          d="M181.3,248.5c4,2.8,8.7,3.8,9.6,4c0.2-0.3-0.2-1.2,0-1.8c0.3-0.7,0.7-0.7,1.6-0.7c1-0.1,0.3-0.2,0.1-0.2   c-0.2,0-0.3,0-1.9-0.4c-1.6-0.4-3.2-0.7-5.4-1.5c-2.2-0.8-2.9-1.4-2.8-1.6c0-0.2,1,0.5,3,1.3c2,0.8,4.4,1.1,5.7,1.3   c1.3,0.3,0.2-0.3-0.4-0.6c-0.6-0.4-1.5-1.7-1.5-1.7s-1.4-0.2-3.8-1c-2.3-0.7-4.3-1.5-6.2-2.6c-0.7-0.4-1.3-0.9-2-1.4   c-1.3-1-2.7-1.9-3.2-2.3c-0.8-0.6-0.6-0.1-0.5,0.2c0.1,0.4,0.6,2,1.9,3.8C176.9,245.1,177.3,245.7,181.3,248.5"/>
    <path class="st0"
          d="M180.6,240.6c3.9,3.1,7.3,4.1,7.9,4.3c0.6,0.2,0.5-0.1,0.4-0.4c-0.1-0.3-0.2-1.4-0.2-1.4s-1.4-0.8-3-1.7   c-1.6-0.9-3.3-2.1-4.4-2.9c-1.1-0.8-0.5-0.7-0.1-0.4c0.4,0.3,2,1.2,3.5,2.2c1.6,1,4,2.4,4,2.4s0-0.5,0.4-0.9   c0.3-0.3,1.2-0.2,1.2-0.2s-0.4-0.4-0.7-0.8c-0.2-0.4-1.5-0.8-3-1.5c-1.5-0.7-4.1-2.6-6-4.2c-1.9-1.6-5.7-5.7-5.9-6   c-0.2-0.3-0.4-0.3-0.4,0.1c0,0.4-0.2,0.7,0.2,2.6C175,233.6,176.7,237.5,180.6,240.6"/>
    <path class="st0"
          d="M194.5,211.2c0.4,0.9,0.9,1.6,1.3,2.2c0.5,0.9,0.8,1.5,0.8,1.5s0.1-0.3,0-0.9c-0.1-0.5-0.2-1.3,0-2.2   c0.1-0.5,0.2-1,0.2-1.4c0-0.5-0.2-0.9-0.3-1.2c-0.1-0.5-0.7-2.8-1-4.4c-0.3-1.6-0.6-3.9-0.6-6c0-2,0.3-1,0.3,0c0,1,0.1,2.5,0.4,4.8   c0.3,2.3,1.3,5.9,1.3,5.9s0.1-0.5,0.3-1.3c0.3-0.8,0.8-1.7,1.2-2.6c0.4-1,0.3-1.1,0.3-1.1s-1.4-6.6-1.7-9.7   c-0.4-3.1-0.9-11.3-0.9-11.3c-2,2-3.5,7.4-3.8,12.4c-0.2,3.8,0.4,7.3,0.6,8.8C193.3,207.5,193.8,209.7,194.5,211.2"/>
    <path class="st0"
          d="M190.1,221.6c0.1-1.5,0.4-2.6,1.4-3c0,0-0.9-1.5-1.6-3.6c-0.5-1.5-0.9-3.3-1.2-4.8c-0.5-3.5-0.9-7.2,0.1-1.2   c1.1,6,2.3,8.1,2.3,8.1l1.5,2.5c-0.2-1.1-0.3-1.9-0.2-3c0.1-1.2,0.2-2.8,0.6-4.1c0,0-1.9-3.7-3-8.1c-1.2-4.4-1.8-8.5-1.9-10.9   c-0.1-2.3-0.2-3.2-0.2-3.2s-1.9,1.4-2.5,8.7c-0.6,7.2,1.3,14.1,2.2,16.8C188.6,218.4,190.1,221.6,190.1,221.6"/>
    <path class="st0"
          d="M210.8,276.8c0,0-0.3-0.2-1.2-0.8c-0.9-0.6-0.6-2.3-0.6-2.3s-0.2,0.2-0.9,0.6c-0.7,0.5-1.4,1-2.3,1.3   c-0.9,0.4-1.3,0.6-1.9,0.8c-0.6,0.2-0.4-0.1,0.1-0.3c0.5-0.3,0.6-0.4,1.8-0.9c1.2-0.5,3.6-2.6,3.6-2.6s-0.6-0.1-1.6-0.1   c-1,0-2.2-0.5-2.2-0.5s-1,0.9-5,2.6c-4,1.7-7.4,2.2-7.4,2.2s0.4,2,2.3,2.7c1.6,0.7,3.8,1.1,8.1,0.1   C207.8,278.6,210.8,276.8,210.8,276.8"/>
    <path class="st0"
          d="M216,280.8c0.3-1.7-0.6-2.8-0.6-2.8s-0.2,0.1-0.8,0.7c-0.6,0.5-1.5,1.6-3.1,2.4c-1.7,0.8-2.3,0.8-0.7-0.1   c1.6-0.9,4-3.3,4-3.3l-0.6-0.2c-0.6-0.2-1.7,0.2-6.2,2.9c-4.5,2.7-7.1,2.8-7.1,2.8s2,2.4,7.4,2.2   C213.7,285.1,215.7,282.5,216,280.8"/>
    <path class="st0"
          d="M226.3,278.9c0,0-0.6,0.8-1.4,1.4c-0.8,0.5-3,0.9-3,0.9s-0.1,0.2-0.5,0.8c-0.4,0.5-1.3,1.8-2.3,2.5   c-1,0.7-2.5,1.1-2.5,1c-0.1-0.2,0.9-0.5,1.8-1.1c0.9-0.6,1.8-1.6,2.4-2.3c0.6-0.7-0.3-0.6-0.3-0.6s-1.1,0-2.2-0.1   c-1.1-0.1-0.8,0-1.1,0.5c-0.3,0.5-0.7,1-1.5,1.9c-0.9,1.1-1.9,2.1-2.8,3.2c-0.6,0.7-0.2,0.9-0.2,0.9s0.3,0.5,2.7,0.7   c1.5,0.2,3.1,0,4.8-1c1.1-0.6,2.2-1.6,3.3-2.8C226.4,281.5,226.3,278.9,226.3,278.9"/>
    <path class="st0"
          d="M227.6,285.4c-0.6,0.8-0.9,1.1-0.9,1.1s0.4-1.3,0.8-1.9c0.2-0.3,0.4-0.6,0.6-0.8c-0.4-0.9-0.7-1.9-1-2.9   c-0.3,0.9-1.1,3.4-2.1,5c-1.3,2-2.4,2.7-1.6,3.3s2.1,0.7,3.7-0.1c1.5-0.8,2-2.1,2.2-3.1c-0.3-0.4-0.5-0.8-0.8-1.3   C228.2,284.8,227.9,285,227.6,285.4"/>
    <path class="st0"
          d="M318.6,241.9c1.3-0.9,3.5-2.9,4.2-5.4c0.7-2.5,0.5-3.3-0.1-2.9c-0.6,0.4-3.5,2.3-4.3,2.9c-0.8,0.5-2,1.3-2.1,1   c-0.1-0.3,1.4-1.2,2.6-2.6c1.2-1.5,4.1-4.1,4.2-6.8c0-2.6-0.8-3-1.3-2.3c-0.5,0.7-3,3-4,4c-1,1-2.5,2.3-2.7,2   c-0.2-0.2,1.2-1.5,2.6-3c1.4-1.5,3-3.3,3.3-6.3c0.2-2.2-0.3-3-0.6-3.3c-0.1-0.1-0.3-0.2-0.5,0.1c-0.4,0.7-1.6,2.8-2.4,3.8   c-1,1.3-2.6,3-3.6,4c-1,1-1.3,1.4-1.4,1.3c-0.2-0.1,0.9-1.6,1.7-2.6c0.8-1,2.7-3,3.9-5.7c1.3-2.8,0.2-6.8-0.3-7.2   c-0.5-0.4-0.6-0.2-0.8,0.1c-0.2,0.3-1.8,4-2.9,5.5c-1.1,1.5-2.4,3.6-3,4.5c-0.7,0.9-1.2,1.9-1.4,1.7c-0.2-0.1,0.1-0.9,1.3-2.9   c1.2-2,3.3-5.6,3.4-7.5c0.1-1.9-0.1-4.1-1-6.5c-0.9-2.4-1.4-2.6-1.4-2.6s-0.4-0.5-0.6,0.5c-0.2,1-1.2,5.1-2.8,8.3   c-1.5,3.2-2.2,4.3-3.5,6.3c-1.4,2.1-2.6,3.5-2.6,4.1c0,0.6-0.3,1.4,0.3,1c0.6-0.3,2.5-1.5,4.2-1c1.8,0.6,1.8,1.5,2,2   c0.2,0.5,0.2,1.8-0.1,2.3s-0.2,0.7,0,0.9c0.3,0.2,0.9-0.2,1.6-0.2s2,0,2.8,1c0.8,1,0.7,2.3,0.3,3.4c-0.3,1.1-1.1,1.6-1.1,1.6   s1.3,0.3,1.7,0.7c0.5,0.3,1.1,1,1.1,2.3s-1.7,2.5-2.3,2.9c-0.6,0.4-0.9,0.5-0.9,0.5s1.5,0.3,1.5,2.6c0,2.3-1.6,3-2.2,3.3   c-0.6,0.4-1.3,0.5-1.3,0.8c0,0.3,0.9,1,1,1.7c0.1,0.8,0.3,2.8-1.6,3.8c-1.9,1-2.4,1-2.5,1.5c0,0.5-0.4,2-1.3,2.7   c-0.9,0.8-1.6,0.9-2,1.1c-0.4,0.2-1,0.5-1.1,1c-0.1,0.5-0.1,1.8-1.5,2.7c-1.3,0.9-2.8,1.1-3.3,1.1c-0.5,0-1.5-0.5-1.5,0.2   c0,0.6,0.2,1.9-0.9,3.2c-1.1,1.3-2.6,1.7-3.3,1.7c-0.7,0-1.2-0.2-1.7-0.3c-0.5-0.2-0.9-0.2-1.2,0.5c-0.3,0.6-0.8,1.8-2,2.3   c-0.9,0.3-1.7,0.5-2.1,0.5c0.3,1.3,0.3,2.8,0.2,4.9c0.2,0.4,0.7,0.8,1.4,1.3c2.2,1.6,4.7,2,6.8,1.5c2.1-0.5,1.9-1.6,1.9-2.1   s-0.1-1.1-0.9-1.3c-0.8-0.2-2.4-1.3-2.9-1.7c-0.5-0.4-0.5-0.5-0.4-0.7c0.2-0.2,0.5-0.1,1.5,0.5c1,0.6,4.1,1.5,6.5,1.4   c2.3-0.1,3.5-0.9,3-2c-0.5-1-0.6-1-1.9-1.4c-1.3-0.3-2.3-1.1-2.5-1.4c-0.3-0.3-0.5-0.5-0.3-0.7c0.2-0.2,0.8,0,2,0.5   c1.2,0.5,3.4,0.5,5,0c1.5-0.6,1.7-1.1,1.5-1.6c-0.3-0.5-0.6-0.8-1.9-1.3c-1.3-0.5-2.3-1-2.2-1.3c0.1-0.3,2,0.1,3.3,0.2   c1.3,0.1,4.3,0.1,5.5-0.8c1.2-0.9,1.8-2.1,1-2.7c-0.7-0.6-1.7-0.6-2.9-0.8c-1.3-0.2-2.1-0.3-2-0.8c0.1-0.4,0.7-0.4,3.2-0.2   c2.5,0.2,4.2-0.1,5.5-1c1.3-0.9,1.6-2.1,1.4-2.5c-0.2-0.4-1.2-1-2.8-1.2c-1.6-0.2-2-0.1-2.2-0.4c-0.2-0.3-0.2-0.4,0.8-0.6   c1-0.2,3.4-0.4,5.5-1.8c2.1-1.4,2.1-2.2,2.1-2.9c0-0.6-0.7-1-2.2-1c-1.4,0-3-0.2-3.3-0.2c-0.4,0-0.6,0-0.6-0.3   c0-0.3,0.2-0.3,1.9-0.6c1.7-0.3,3.4-1,5-2.7c1.6-1.7,1.3-3.8,1.3-3.8s0-0.8-1-0.5c-1,0.3-2.5,0.8-3.7,1.4c-1.2,0.6-2.1,1-2.2,0.7   C315.3,244,317.4,242.9,318.6,241.9"/>
    <path class="st0"
          d="M313.2,236.2c-0.9-0.3-2.2-0.2-2.7,0c-0.5,0.2-0.7,0.4-1,0.2c-0.3-0.2,0.2-0.7,1.2-1.2   c1.1-0.5,2.7-1.8,2.6-3.2c-0.2-1.4-0.7-1.9-2.4-2c-1.7-0.2-2.8,1.1-3.3,1.4c-0.5,0.3-1.9,1.3-2.2,0.9c-0.3-0.4,0.5-1.1,1.5-2.1   c1-1,2-3.2,1-4.4c-1.1-1.2-2.5-1.1-4.2-0.4c-1.7,0.7-1.9,1.6-2.3,1.2c-0.4-0.3,0-1.5,0-2.6c0-1.1-0.9-2.3-0.9-2.3s-2.3,4.8-5.3,8.2   c-3,3.4-5.9,6.4-5.8,8.8c0.1,2.4,1.4,4,4.2,5.4c2.8,1.4,3.7,3.6,3,5.5c-0.7,1.9-2,3.3-4.8,3.2c-2.8-0.1-4.4,0.3-5.5,1.9   c-1.1,1.6-2.5,2.2-3.5,2.2l-0.7,0c0,1.1,0.1,2.2,0.3,3.4c0.2,1.8,0.5,3.2,0.7,4.5c0.1,0.1,0.2,0.2,0.3,0.3c0.4,0.3,0.5,0.5,0.5,0.7   c0,0.3,0.4,0.6,0.6,0.9c0.2,0.2,0.9,0.6,0.8,0.7c-0.2,0.1-0.4-0.1-0.7-0.3c-0.3-0.2-0.3-0.3-0.5-0.3c-0.2,0-0.1-0.1-0.1-0.2   c0-0.1,0-0.4-0.3-0.4h-0.3c0.4,1.9,0.9,3.2,1.2,4.5c0.6,0.1,1.8,0.2,2.9-0.6c1.6-1.1,1-2.7,0.7-3.1c-0.3-0.4-0.4-0.7-0.1-0.9   c0.3-0.2,0.7-0.1,1.1,0.3c0.4,0.4,2.4,2.3,4.7,1.4c2.2-0.9,1.7-3.1,1.3-3.8c-0.3-0.8-0.8-1.6-0.5-1.9c0.3-0.3,0.9-0.2,1.3,0.2   c0.4,0.4,2.9,1,4.4,0.1c1.5-0.9,1.8-2.4,1-3.3c-0.7-0.9-2.5-1.1-2.1-1.8c0.4-0.6,1.3,0.4,1.9,0.6c0.6,0.2,2.2,0.5,3.8-0.3   c1.6-0.9,1.6-2.1,0.7-2.7c-0.9-0.6-1.9-1.1-1.4-1.6c0.5-0.5,1.2,0.1,1.7,0.2c0.5,0.1,2.4,0.3,3.5-0.8c1.1-1,1.1-1.6,0.8-2.7   c-0.3-1.2-1.7-1.3-2.5-1.6c-0.8-0.2-1-0.4-0.9-0.8c0.1-0.4,0.6-0.2,1.9-0.4c1.3-0.2,3.8-1.4,4-2.5c0.2-1.1-0.2-2.5-1.7-2.5   c-1.5-0.1-2.6-0.1-2.6-0.5c0.1-0.4,0.3-0.3,0.9-0.4c0.5-0.1,3.2-0.6,4.5-2.1C315.5,237.7,314.1,236.6,313.2,236.2"/>
    <path class="st0"
          d="M323,231c0,0,3.4-2.7,5.8-7.6c2.4-4.9,3.1-8.7,3.5-11.8c0.3-3.1-0.2-5.2-0.6-6.6c-0.4-1.5-0.8-2.5-1.1-0.6   c-0.4,2-2.5,8.7-3.5,11.4c-1,2.7-2.9,5.4-3.8,6.8c-0.3,0.4-0.7,0.9-0.9,1.3c-0.6,1-1,1.8-1,1.8s0.2,0,0.5-0.3   c0.3-0.4,0.5-0.6,0.9-0.5c0.3,0.1,0.8,1.8,0.8,1.8s1.3-1.5,2.4-3.4c1.1-1.9,2.6-5.5,2.6-5.5s-0.8,3.6-2.4,6   c-1.6,2.4-2.4,3.5-2.4,3.5s0.1,0.9,0,1.8C323.4,229.8,323,231,323,231"/>
    <path class="st0"
          d="M335.8,216c0,0-1.8,3.8-3.5,6.5c-1.7,2.8-5.8,7.4-7.4,8.7c-1.6,1.2-1.7,1.3-1.5,1.6c0.3,0.3,0.4,0.7,0.4,1.2   c0,0.5,0,0.5,0,0.5s2.8-2.4,4.3-4c1.5-1.6,2.9-3,1.1-0.7c-1.8,2.3-2.7,3.1-3.5,3.7c-0.7,0.6-1.8,1.6-1.8,1.6s-0.1,1.2-0.2,1.8   c-0.1,0.6-0.3,1.1-0.3,1.1s1.3-0.9,2.2-1.6c0.9-0.7,4.2-2.6,7.6-8.8C336.7,221.6,335.8,216,335.8,216"/>
    <path class="st0"
          d="M319.3,195.9c-0.3-5-1.8-10.4-3.8-12.4c0,0-0.6,8.2-0.9,11.3c-0.4,3.1-1.7,9.7-1.7,9.7s-0.1,0.2,0.2,1.1   c0.4,1,0.9,1.9,1.2,2.6c0.3,0.8,0.4,1.3,0.4,1.3s1-3.6,1.3-5.9c0.3-2.3,0.4-3.8,0.4-4.8c0-1,0.3-2,0.3,0c0,2-0.3,4.4-0.5,6   c-0.3,1.6-0.8,3.9-1,4.4c-0.1,0.3-0.2,0.7-0.3,1.2c0,0.4,0.1,0.9,0.2,1.4c0.1,0.9,0.1,1.7,0,2.2c-0.1,0.6,0,0.9,0,0.9   s0.3-0.6,0.8-1.5c0.3-0.6,0.8-1.3,1.3-2.2c0.7-1.5,1.2-3.7,1.6-6.6C318.9,203.2,319.6,199.7,319.3,195.9"/>
    <path class="st0"
          d="M324,215.7c0.9-2.6,2.8-9.6,2.2-16.8c-0.6-7.2-2.5-8.7-2.5-8.7s0,0.9-0.2,3.2c0,2.4-0.7,6.4-1.9,10.9   c-1.2,4.4-3,8.1-3,8.1c0.4,1.3,0.5,2.9,0.6,4.1s0,2-0.2,3l1.5-2.5c0,0,1.3-2.1,2.3-8.1c1.1-6,0.6-2.3,0.1,1.2   c-0.2,1.4-0.6,3.3-1.1,4.8c-0.7,2.1-1.6,3.6-1.6,3.6c1,0.3,1.3,1.5,1.4,3C321.6,221.6,323.1,218.4,324,215.7"/>
    <path class="st0"
          d="M325.4,268.3c-0.4,0.1-2.9,0.5-5.6,0.5c-2.7,0-6.1-0.6-7.8-1c-1.7-0.4-2.4-0.7-2.6-0.5   c-0.2,0.2-0.8,0.5-1.5,0.6s-0.7,0.1-0.3,0.4c0.4,0.3,3,1.6,4.5,1.9c1.5,0.3,2.3,0.1,2.2,0.3c0,0.2,0,0.3-1,0.3   c-1,0-3.6-0.8-4.6-1.2c-1-0.4-2.2-0.8-2.2-0.8s-0.5,1.9,1.3,2.6c1.9,0.7,5,2.4,8.1,2.4c3.1,0,7.7-1.1,8.9-3.3   C326.3,268.5,325.8,268.2,325.4,268.3"/>
    <path class="st0"
          d="M330.6,259.6c-0.7,0.1-3.1,1-6.7,1.5c-3.7,0.4-7.6-0.1-7.6-0.1s-1.6,1-2.1,1.2c-0.6,0.2-0.9,0.5-0.1,0.8   c0.9,0.3,3.5,0.8,4.9,0.6c1.4-0.2,2.1,0,0.4,0.3c-1.7,0.3-3.3,0.1-4.6-0.1c-1.3-0.2-2.1-0.3-2.1-0.3s0.1,1.1-0.4,1.8   c-0.4,0.7-0.4,0.8-0.4,0.8s1.2,1,4.4,0.9c3.2,0,6.1-0.4,8.2-1c2.1-0.6,4.6-1.9,5.8-3.9c1.3-2,1.1-2.3,1.1-2.3   S331.4,259.5,330.6,259.6"/>
    <path class="st0"
          d="M335.3,249c-0.7,0.6-3.4,2.1-6.9,3.4c-3.5,1.3-5.1,1.9-7.1,2.1c-2,0.2-2.1,0.3-2.6,0.6c-0.4,0.3-1.2,0.7-2,0.8   c-0.8,0.1-1.5,0.3-1.5,0.3s1,0.2,1.2,0.4c0.3,0.2,1.2,0,2.7-0.2c1.6-0.2,5.3-0.6,6.2-0.9c0.9-0.3,1.3-0.6,1.4-0.4   c0,0.2-1,0.6-2.4,0.9c-1.5,0.3-1.6,0.5-4,0.8c-2.4,0.3-3.2,0.5-3.2,0.5s0.6,0.5,0.4,1.2c-0.2,0.7-0.3,0.9-0.3,0.9s5.1,0.2,9.6-1.4   c4.5-1.7,5.4-2.6,7.2-4.7c1.8-2.1,1.8-3,1.9-3.8C336,248.9,336,248.5,335.3,249"/>
    <path class="st0"
          d="M337.5,239.3c-0.5,0.4-1.9,1.4-3.2,2.3c-0.7,0.5-1.3,1-2,1.4c-1.9,1.1-3.9,1.9-6.2,2.6c-2.3,0.7-3.8,1-3.8,1   s-0.9,1.3-1.5,1.7c-0.6,0.4-1.7,0.9-0.4,0.6c1.3-0.3,3.7-0.6,5.7-1.4c2-0.8,3-1.5,3.1-1.3c0,0.2-0.6,0.8-2.8,1.6   c-2.2,0.8-3.8,1.1-5.4,1.5c-1.6,0.4-1.6,0.4-1.9,0.4c-0.2,0-0.9,0.2,0.1,0.2c1,0.1,1.4,0.1,1.6,0.7c0.2,0.6-0.3,1.5,0,1.8   c1-0.1,5.7-1.2,9.6-4c4-2.8,4.4-3.4,5.7-5.2c1.3-1.8,1.8-3.5,1.9-3.8C338,239.1,338.3,238.7,337.5,239.3"/>
    <path class="st0"
          d="M322.6,241.8c0.3,0.3,0.4,0.9,0.4,0.9s2.4-1.4,4-2.4c1.6-1,3.2-1.9,3.5-2.2c0.4-0.3,1-0.4-0.1,0.4   c-1.2,0.8-2.9,2-4.4,2.9c-1.6,0.9-3,1.7-3,1.7s-0.1,1.1-0.2,1.4c-0.1,0.3-0.2,0.7,0.4,0.4c0.6-0.3,3.9-1.2,7.9-4.3   c3.9-3.1,5.7-7,6.1-8.9c0.4-1.9,0.3-2.1,0.3-2.6c0-0.4-0.2-0.5-0.4-0.1c-0.3,0.3-4,4.4-5.9,6c-1.9,1.6-4.5,3.5-6,4.2   c-1.5,0.7-2.7,1.1-3,1.5c-0.3,0.4-0.7,0.8-0.7,0.8S322.2,241.5,322.6,241.8"/>
    <path class="st0"
          d="M306.2,272c0,0-1.3,0.5-2.2,0.5c-1,0-1.6,0.1-1.6,0.1s2.4,2.1,3.6,2.6c1.2,0.5,1.3,0.6,1.8,0.9   c0.5,0.3,0.6,0.5,0.1,0.3c-0.6-0.2-1-0.4-1.9-0.8c-0.9-0.4-1.6-0.9-2.3-1.3c-0.7-0.5-0.9-0.6-0.9-0.6s0.3,1.7-0.6,2.3   c-0.9,0.6-1.2,0.8-1.2,0.8s2.9,1.8,7.2,2.8c4.3,1,6.5,0.6,8-0.1c1.9-0.7,2.3-2.7,2.3-2.7s-3.4-0.4-7.4-2.2   C307.2,272.9,306.2,272,306.2,272"/>
    <path class="st0"
          d="M297.6,277.4l-0.6,0.2c0,0,2.4,2.5,4,3.3c1.6,0.9,1,0.9-0.7,0.1c-1.7-0.8-2.5-1.9-3.1-2.4   c-0.6-0.5-0.8-0.7-0.8-0.7s-0.9,1.2-0.6,2.8c0.3,1.7,2.3,4.3,7.7,4.5c5.4,0.2,7.5-2.2,7.5-2.2s-2.6-0.1-7.1-2.8   C299.3,277.6,298.2,277.1,297.6,277.4"/>
    <path class="st0"
          d="M296,283.7c-0.8-0.9-1.2-1.3-1.5-1.9c-0.3-0.5-0.1-0.6-1.1-0.5c-1,0.1-2.2,0.1-2.2,0.1s-0.9-0.1-0.3,0.6   c0.6,0.7,1.5,1.8,2.4,2.3c0.9,0.6,1.9,0.9,1.8,1.1c-0.1,0.2-1.6-0.3-2.5-1c-1-0.7-1.9-2-2.3-2.5c-0.4-0.5-0.5-0.8-0.5-0.8   s-2.2-0.3-3-0.9c-0.8-0.5-1.4-1.4-1.4-1.4s-0.2,2.6,2.7,5.8c1.1,1.2,2.2,2.2,3.3,2.8c1.7,1,3.3,1.2,4.8,1c2.4-0.3,2.7-0.7,2.7-0.7   s0.4-0.2-0.1-0.9C297.9,285.7,297,284.7,296,283.7"/>
    <path class="st0"
          d="M284.7,280.9c-0.2,1-0.6,2-1,2.9c0.2,0.2,0.4,0.5,0.6,0.8c0.4,0.6,0.8,1.9,0.8,1.9s-0.3-0.3-0.9-1.1   c-0.3-0.4-0.6-0.6-0.8-0.8c-0.2,0.5-0.5,0.9-0.7,1.3c0.2,1.1,0.7,2.4,2.2,3.1c1.6,0.8,3,0.7,3.7,0.1c0.7-0.5-0.4-1.3-1.6-3.3   C285.8,284.3,285,281.8,284.7,280.9"/>
    <path class="st0"
          d="M284.4,204.3c0.6,0,1.1,0.5,1.1,1c0,0.6-0.5,1-1.1,1c-0.6,0-1.1-0.5-1.1-1   C283.3,204.8,283.8,204.3,284.4,204.3"/>
    <path class="st0"
          d="M270.9,204.8c0.6,0.3,1.2,0.7,1.8,0.8c2.2,0.6,4.4,0.2,6.1-0.5c2.2-1.2,4-1.9,5.3-2.1c1.1-0.1,1.7,0.4,2.7,0.4   c0.3,0,0.6-0.1,0.7-0.3c0.2-0.4,0.1-1.5-1.4-2.4c-1.5-0.9-3.8-0.8-5.9-0.2c-2,0.6-3.2,1.4-4.1,2c-0.8,0.6-1.8,1.5-2,1.3   c-0.2-0.2,0.5-0.6,0.9-1c0.4-0.4,0.6-0.5,0.6-0.5c-2.2,0.2-4.7-0.6-6.6-2C268.9,200.4,268.3,203.3,270.9,204.8"/>
    <path class="st0"
          d="M293.7,203.4c-1.5-0.7-3-0.6-4.8,0.1c-1.8,0.7-2.7,1.2-2.7,1.2s0.3,1.6-0.9,2.3c-1.1,0.7-2.2,0.3-2.5-0.4   c-0.3-0.7-0.4-1.1-0.4-1.1s-1.7,1-4.1,1.4c-1.4,0.2-3.9,0.5-5.5-0.1c0,0-1.5,1.4-2.5,2.3c-1.1,0.9-2.2,1.6-2.2,1.6s0.1,0.3,0.6,0.5   c0.5,0.2,0.7,0.3,0.3,0.8c-0.3,0.6-2.8,2.8-3.9,3.6c-1.1,0.8-2.6,1.4-2.6,1.4s0.5,0.9,1.2,1.2c0.7,0.3,0.9,0.8,0.6,1.3   c-0.3,0.5-2.9,3.3-3.9,4.3c-1.1,1-1.9,1.1-2.3,1.2c-0.5,0.1-1.3,0.6-0.4,1.7c0.9,1.1,3.2,1.5,5.4,0.8c2.2-0.6,4.4-3.3,4.4-3.3   s-0.5,3.8-0.5,5.5c0,1.8,0.2,3.8,0.5,4.8c0.3,1,0.6,1.5,0.6,1.5s1.5-0.9,2.5-3.5c1-2.6,1.3-4.1,1.3-4.8s0-1.2,0.7-0.8   c0.7,0.4,1.2,0.7,1.5,0.7c0.3,0,0.4,0,0.4,0s-0.4-1.9-0.4-3.3c0-1.4,0.5-4.5,1.1-5c0.6-0.6,0.7,0.2,0.8,0.6   c0.1,0.7,0.7,1.6,1.6,1.9c0.3-2.1,0.7-3.8,2.5-5.6c0.3-0.3,0.5-0.8,1.6-0.3c1.6,0.6,3.6,1,5.2,0.4c1.6-0.6,2.7-2.2,2.4-2.4   c-0.1,0-2.4,1.2-4.3,0.6c-1.8-0.6-2.7-1.2-1.6-2.3c1.1-1.1,1.5-1.2,3.7-3c2.1-1.7,3.8-2.7,5.7-2.4c1.9,0.3,2.2,1.4,2.4,1.6   c0.2,0.2,1,0.9,1-0.7C295.9,206.2,295.2,204.1,293.7,203.4"/>
    <path class="st0"
          d="M273.7,233.8c-0.4-0.5-1-2-1-2s-0.1,0.4-0.5,1.4c-0.4,1.1-1.5,2.6-1.5,2.6s0.9-0.2,1.9-0.5   c1-0.3,1.7-0.9,1.7-0.9S274,234.3,273.7,233.8"/>
    <path class="st0"
          d="M266.1,228c0,0-0.6,1.6-2,2.9c-1.4,1.3-2.4,1.2-2.4,1.2s0.1,0,1.2-0.8c1-0.7,2-2.8,2-2.8   c-1.1,0.7-3.7,1.3-5.1,1c0,0-0.2,0.5-0.5,1.3c-0.3,0.8-1.3,2.4-1.8,3.1c-0.5,0.7-0.1,0.8-0.1,0.8s0.3,0.3,3.5,1.2   c3.2,0.9,6.1,0.4,6.1,0.4s-0.1-0.3-0.7-2.5C265.8,231.6,266.1,228,266.1,228"/>
    <path class="st0"
          d="M227.2,204.3c0.6,0,1.1,0.5,1.1,1c0,0.6-0.5,1-1.1,1c-0.6,0-1.1-0.5-1.1-1   C226.1,204.8,226.6,204.3,227.2,204.3"/>
    <path class="st0"
          d="M224.9,203.4c1,0,1.6-0.5,2.7-0.4c1.3,0.1,3.1,0.9,5.3,2.1c1.7,0.8,4,1.2,6.1,0.5c0.6-0.2,1.2-0.5,1.8-0.8   c2.6-1.5,2-4.5,2-4.5c-1.9,1.4-4.4,2.2-6.6,2c0,0,0.2,0.1,0.6,0.5c0.4,0.4,1.1,0.8,0.9,1c-0.2,0.2-1.2-0.7-2-1.3   c-0.8-0.6-2-1.4-4.1-2c-2.1-0.6-4.4-0.6-5.9,0.2c-1.5,0.9-1.7,1.9-1.4,2.4C224.3,203.4,224.5,203.5,224.9,203.4"/>
    <path class="st0"
          d="M253.6,225c-0.5-0.1-1.3-0.3-2.3-1.2s-3.6-3.8-3.9-4.3c-0.3-0.5-0.2-1,0.6-1.3c0.7-0.3,1.2-1.2,1.2-1.2   s-1.6-0.6-2.6-1.4c-1.1-0.8-3.5-3-3.9-3.5c-0.3-0.6-0.2-0.6,0.3-0.8c0.5-0.2,0.6-0.5,0.6-0.5s-1.2-0.7-2.2-1.6   c-1.1-0.9-2.5-2.3-2.5-2.3c-1.6,0.6-4.1,0.4-5.5,0.1c-2.4-0.4-4.1-1.4-4.1-1.4s-0.1,0.4-0.4,1.1c-0.3,0.7-1.4,1.2-2.5,0.4   c-1.1-0.7-0.9-2.3-0.9-2.3s-0.9-0.6-2.7-1.2c-1.8-0.7-3.3-0.8-4.8-0.1c-1.5,0.7-2.2,2.7-2.2,4.3c0,1.5,0.8,0.9,1,0.7   c0.2-0.2,0.5-1.3,2.4-1.6c1.9-0.3,3.6,0.6,5.7,2.4c2.1,1.8,2.6,1.9,3.7,3c1.1,1.1,0.2,1.7-1.6,2.3c-1.8,0.6-4.2-0.6-4.3-0.6   c-0.4,0.2,0.8,1.8,2.4,2.4c1.6,0.6,3.6,0.2,5.2-0.4c1.1-0.4,1.3,0,1.6,0.3c1.7,1.8,2.2,3.5,2.5,5.6c0.9-0.3,1.5-1.2,1.6-1.9   c0.1-0.3,0.2-1.1,0.8-0.6c0.6,0.6,1.1,3.6,1.1,5c0,1.4-0.4,3.3-0.4,3.3s0.2,0,0.4,0c0.3,0,0.8-0.3,1.4-0.7c0.7-0.4,0.7,0,0.7,0.8   s0.3,2.2,1.3,4.8c1,2.6,2.5,3.5,2.5,3.5s0.3-0.5,0.6-1.5c0.3-1,0.5-3,0.5-4.8c0-1.8-0.5-5.5-0.5-5.5s2.1,2.6,4.4,3.3   c2.2,0.6,4.4,0.3,5.4-0.8C255,225.6,254.1,225.1,253.6,225"/>
    <path class="st0"
          d="M239,231.8c0,0-0.7,1.5-1,2c-0.4,0.5-0.5,0.6-0.5,0.6s0.7,0.6,1.6,0.9c1,0.3,1.9,0.5,1.9,0.5s-1.1-1.5-1.5-2.6   C239.1,232.1,239,231.8,239,231.8"/>
    <path class="st0"
          d="M252.4,230.9c-0.3-0.8-0.5-1.3-0.5-1.3c-1.4,0.3-4-0.4-5.1-1c0,0,1,2.1,2,2.8c1,0.7,1.2,0.8,1.2,0.8   s-1,0.2-2.4-1.2c-1.4-1.3-2-2.9-2-2.9s0.3,3.6-0.2,5.8c-0.6,2.2-0.7,2.5-0.7,2.5s2.9,0.5,6.1-0.4c3.2-0.9,3.5-1.2,3.5-1.2   s0.4-0.1-0.1-0.8C253.7,233.3,252.7,231.7,252.4,230.9"/>
    <path class="st0"
          d="M241.1,311.8c0.7,0.2,1.9-0.3,2.6-1c0.6-0.8,0.9-2,1.3-2.6c0.4-0.7,0.8-1.2,0.8-1.2s-0.1,1.1-0.7,2.6   c-0.6,1.4-0.7,3.4-0.5,4.2c0.3,1.7,1.4,2,2,1.7c0.5-0.2,1.2-0.9,1.9-2c0.2-0.4,0.4-0.8,0.6-1.2c0.4-0.8,0.8-2.2,1-2.1   c0.4,0.1,0.2,1,0,1.7c-0.3,1.3-1,3.1-1,4.3c0,1.1,0.1,3.2,1.2,3.3c1.1,0.1,1.7-0.9,2.4-3.2c0.6-2.3,0.8-3,1-3   c0.3,0,0.3,1.6,0.3,2.3c0,0.2,0,0.9,0.1,1.5c0.2,1.2,0.5,2.7,0.9,3.1c0.6,0.5,1,0.4,1,0.4s0.4,0.1,1-0.4c0.5-0.5,1-3.9,1-4.6   c0-0.7,0-2.3,0.3-2.3c0.3,0,0.4,0.7,1,3c0.6,2.3,1.2,3.3,2.4,3.2c1.1-0.1,1.3-2.1,1.2-3.3c0-1.1-0.7-3-1-4.3   c-0.3-1.3,0.1-1.2,1,0.5c0.3,0.5,0.5,1.1,0.8,1.6c0.6,1,1.2,1.5,1.6,1.7c0.6,0.2,1.7,0,2-1.7c0.3-1.7-1-6.5-1-6.5s0.1,0.1,0.5,0.8   c0.5,0.7,0.7,1.9,1.3,2.6c0.6,0.8,1.9,1.3,2.6,1c0.7-0.2,0.8-1.5,0.3-3.8c-0.5-2.3-2.5-3.5-4-5.4c-1.3-1.7-2.4-4.6-2.5-5.1   c-1.8,0.9-3.4,1.9-4.9,3.4c-3,3.1-3.7,3.9-3.7,3.9s-0.6-0.8-3.7-3.9c-1.5-1.5-3.1-2.5-4.9-3.5c-0.2,0.4-1.4,3.2-2.8,4.9   c-0.7,0.8-1.6,1.5-2.2,2.3c-0.8,0.9-1.2,2.1-1.5,3.3C240.3,310.3,240.4,311.6,241.1,311.8"/>
    <path class="st0"
          d="M241,319.5c0.9-0.8,1.3-1.2,1.3-1.2s0.6-0.5,0.5,0.5c-0.2,1-0.5,3.1-0.3,4c0.2,0.9,0.3,1.7,1.4,1   c1.1-0.7,1.4-1.1,1.9-1.6c0.5-0.6,1.1-0.8,1,0.1c-0.1,0.9-0.5,2.2-0.3,4c0.2,1.8,1.1,2,2.2,0.5c1.1-1.5,1.8-2.9,2.2-3.7   c0.3-0.7,1-1.4,1,0c0,3,0.7,7.3,4,8.5c3.3-1.2,4-5.5,4-8.5c0-1.4,0.7-0.7,1,0c0.3,0.8,1,2.1,2.2,3.7c1.1,1.5,2,1.3,2.2-0.5   c0.2-1.8-0.2-3.1-0.3-4c-0.1-0.9,0.4-0.6,1-0.1c0.5,0.6,0.8,1,1.9,1.6c1.1,0.7,1.2-0.1,1.4-1c0.2-0.9-0.1-3-0.3-4   c-0.2-1,0.5-0.5,0.5-0.5s0.4,0.4,1.3,1.2c0.9,0.8,2.1,0.8,2.1,0.8s0.6-3.1-0.7-5c-1.3-1.9-1.8-2.5-1.8-2.5s-0.7,0-1.3-0.3   c-0.6-0.2-1.1-0.6-1.1-0.6v1.3v0.5c0,0,1.6,1.5,2,2c0.4,0.5,1.1,1.2,0,0.5c-1.1-0.7-2-1.5-2-1.5s-0.2,1.6-0.7,2   c-0.5,0.4-1.1,0.5-1.4,0.3l-0.3-0.1l-0.1,0.6c0,0,1,1.8,1.1,2.6c0.1,0.7-0.1,0.7-0.5-0.3c-0.5-1-1.3-2.2-1.7-2.8   c-0.4-0.7-1-1.1-0.9-0.3c0.1,0.9-0.3,2.4-0.6,3c-0.3,0.6-0.5,0.7-0.5,0.7s0.6,2.2,0.7,2.6c0.1,0.4,0,0.9-0.3,0.3   c-0.3-0.5-1.3-2.6-1.3-2.6s-1.3-0.1-1.7-0.4c-0.4-0.4-1-1.8-1-1.8s-0.5,1.8-1,2.4c-0.4,0.6-1.5,1.2-1.5,1.2s-0.1,3.2-0.1,3.8   c-0.1,0.6-0.1,0.8-0.3,0.8c-0.2,0-0.3-0.2-0.3-0.8c-0.1-0.6-0.1-3.8-0.1-3.8s-1-0.6-1.5-1.2c-0.4-0.6-1-2.4-1-2.4s-0.6,1.4-0.9,1.8   c-0.4,0.4-1.7,0.4-1.7,0.4s-1,2.1-1.3,2.6c-0.3,0.5-0.4,0.1-0.3-0.3c0.1-0.4,0.7-2.6,0.7-2.6s-0.2-0.2-0.5-0.7   c-0.3-0.6-0.6-2.1-0.6-3c0-0.9-0.5-0.4-0.9,0.3c-0.4,0.7-1.3,1.9-1.7,2.8c-0.5,1-0.7,1-0.5,0.3c0.1-0.7,1.1-2.6,1.1-2.6l-0.1-0.6   l-0.3,0.1c-0.3,0.1-0.9,0.1-1.4-0.3c-0.5-0.4-0.7-2-0.7-2s-0.9,0.7-2,1.5c-1.1,0.7-0.3,0,0-0.5c0.4-0.5,2-2,2-2v-0.5v-1.3   c0,0-0.5,0.4-1.1,0.6c-0.6,0.2-1.3,0.3-1.3,0.3s-0.5,0.6-1.8,2.5c-1.3,1.9-0.7,5-0.7,5S240.1,320.3,241,319.5"/>
    <path class="st0"
          d="M237.4,330.1c0.8-0.5,1.5-1,3.2-2.2c1.8-1.2,2.4-2.5,2.4-2.5h-0.6c-0.3,0-0.6-0.5-0.6-0.9c0-0.5,0-1.4,0.1-2.6   c0.1-1.1-0.2-2-0.2-2s-0.8,0.7-1.9,1.3c-1.2,0.6-1.6,0.3-1.6,0.3l-0.3-1.2c0,0-0.5,1.1-1.2,2.3c-0.7,1.2-2.6,2.6-4,3.6   c-1.4,1-2.9,2.1-4,2.5c-1.1,0.4-0.5,0.9-0.5,0.9s1.1,1.1,4,1.7C235.3,331.8,236.7,330.6,237.4,330.1"/>
    <path class="st0"
          d="M247.6,329c-1-0.1-1.7-0.5-1.9-1.6c-0.1-0.7,0.1-3.5,0.1-3.5s-0.3,0.3-0.7,0.8c-0.4,0.5-1.3,0.6-1.3,0.6   s-0.1,0.4-0.5,1c-0.4,0.6-0.9,1.4-1.9,2c-1,0.6-2.2,1.4-2.9,2c-0.8,0.6-1.6,1.4-2.6,1.9c-1,0.6-1.9,1.4-2.2,2.9   c-0.3,1.5-0.1,1.9,1.1,1.9c1.1-0.1,1.3,0,3.1-0.4c1.9-0.5,4.5-2.5,6.4-3.8C246.2,331.4,247.6,329,247.6,329"/>
    <path class="st0"
          d="M252.8,330.7c0,0-0.8-1-1.1-2.1c-0.3-1.1-0.8-3.4-0.8-3.4s-0.3,0.7-0.9,2c-0.6,1.3-1.7,1.7-1.7,1.7   s-0.1,0.6-0.9,1.7c-0.9,1.1-2.2,2.2-3.5,3c-1.3,0.8-3.1,1.9-4,3.2c-0.9,1.3-1,2.7-0.6,3.3c0.4,0.6,1.1-0.1,2-0.5   c0.9-0.4,3.4-0.8,6.9-2.7C251.6,335,252.8,330.7,252.8,330.7"/>
    <path class="st0"
          d="M254.3,338.6c1-1.4,1.1-5,1.1-5s-0.3-0.2-0.8-0.6c-0.5-0.4-1.4-1.8-1.4-1.8s-0.6,1.2-1.2,2.3   c-0.6,1.1-0.9,1.5-2.2,2.7c-1.3,1.2-3.1,2.4-3.8,3.7c-0.8,1.3-0.3,3.9,0.2,4.7c0.5,0.9,1.2,0.6,1.9-0.1c0.7-0.7,1-0.9,2.2-2   S253.3,340,254.3,338.6"/>
    <path class="st0"
          d="M282.9,328.7c-1.1-0.4-2.6-1.5-4-2.5c-1.4-1-3.3-2.4-4-3.6c-0.7-1.2-1.2-2.3-1.2-2.3l-0.3,1.2   c0,0-0.5,0.3-1.6-0.3c-1.2-0.6-1.9-1.3-1.9-1.3s-0.3,0.9-0.2,2c0.1,1.1,0.2,2.1,0.1,2.6c0,0.5-0.3,0.9-0.7,0.9h-0.6   c0,0,0.6,1.3,2.4,2.5c1.8,1.2,2.5,1.7,3.3,2.2c0.8,0.5,2.2,1.7,5.1,1.2c2.9-0.5,4-1.7,4-1.7S284.1,329.1,282.9,328.7"/>
    <path class="st0"
          d="M275.9,332.1c-1-0.6-1.9-1.3-2.6-1.9c-0.8-0.6-1.9-1.4-2.9-2c-1-0.6-1.5-1.4-1.9-2c-0.4-0.6-0.5-1-0.5-1   s-0.9-0.1-1.3-0.6c-0.4-0.5-0.7-0.8-0.7-0.8s0.2,2.8,0,3.5c-0.2,1.1-0.8,1.5-1.9,1.6c0,0,1.4,2.4,3.3,3.7c1.9,1.2,4.6,3.3,6.4,3.8   c1.9,0.5,2,0.4,3.1,0.4c1.1,0.1,1.4-0.4,1.1-1.9C277.8,333.6,276.9,332.7,275.9,332.1"/>
    <path class="st0"
          d="M267.9,333.6c-1.3-0.8-2.6-1.8-3.5-3c-0.9-1.1-0.9-1.7-0.9-1.7s-1.1-0.3-1.7-1.7c-0.6-1.3-0.9-2-0.9-2   s-0.6,2.2-0.8,3.4c-0.3,1.1-1.1,2.1-1.1,2.1s1.2,4.3,4.7,6.2c3.5,1.9,6,2.3,6.9,2.7c0.9,0.5,1.5,1.1,2,0.5c0.4-0.6,0.4-2-0.6-3.3   C271,335.5,269.3,334.4,267.9,333.6"/>
    <path class="st0"
          d="M262,336.2c-1.3-1.2-1.6-1.6-2.3-2.7c-0.6-1.1-1.2-2.3-1.2-2.3s-0.9,1.4-1.4,1.8c-0.5,0.4-0.8,0.6-0.8,0.6   s0.2,3.5,1.1,5c1,1.4,2.8,2.9,4,4c1.3,1.1,1.5,1.3,2.3,2c0.7,0.7,1.4,1,1.9,0.1c0.5-0.9,0.9-3.4,0.2-4.7   C265.1,338.6,263.3,337.5,262,336.2"/>
    <path class="st0"
          d="M257,340.3c-0.8-1-1.1-1.5-1.1-1.5s-0.3,0.5-1.1,1.5c-0.8,1-2.8,2.5-2.8,2.5s0.2,2.6,1.1,4   c0.8,1.2,1.6,2.3,2.8,3.1c1.3-0.8,2-1.9,2.8-3.1c0.9-1.4,1.1-4,1.1-4S257.8,341.3,257,340.3"/>
    <path class="st3"
          d="M327.4,308.4c-0.8-0.2-1.1-0.5-1.1-0.5s-0.3,0-0.6,0.4c-0.3,0.5-1.3,1.1-1.3,1.1s-1.4,0.4-1.6,1.3   c-0.2,1,0.5,1.3,1.2,1.2c0.7-0.1,2.3-0.4,3-1.3c0.7-0.9,0.8-1.3,1-1.7C328.1,308.7,328.2,308.6,327.4,308.4"/>
    <path class="st3"
          d="M329.6,300.7c-0.5-2.2-1.9-4.8-4.6-6.1c0,0-1,3.5-1.3,4.7c-0.3,1.1-0.3,1.1,0.6,1.3c0.9,0.2,3.6,0.8,4.2,1   C329,301.6,329.9,302.1,329.6,300.7"/>
    <path class="st3"
          d="M316.8,298.7c0.6,0.1,0.6-0.2,0.8-1c0.2-0.9,1.3-5.1,1.3-5.1s-2.8-0.1-5.3,1.1c-2.5,1.2-3.5,3.4-3.5,3.4   s0.6,0.3,2.3,0.6C314.1,298,316.2,298.5,316.8,298.7"/>
    <path class="st3"
          d="M310.3,304.5c-1-0.2-1.4-0.3-1.4-0.3s0.6,2.4,1.7,3.8c1,1.3,2.2,2,4.4,2c2.2,0,3.8-1.2,4.1-2.1   c0.3-0.9,0.7-1.6,0.7-1.6s-3.9-0.5-5.5-0.9C312.6,305,311.3,304.7,310.3,304.5"/>
    <path class="st2"
          d="M279,257.2c-1-6.1,2.5-11.4,2.5-11.4l-6.8-7.9c-5.2,2.9-12.5,2.5-18.8-0.4c-6.3,2.9-13.6,3.3-18.8,0.4   l-6.8,7.9c0,0,3.5,5.3,2.5,11.4c-1,6-3.1,15.6-2.6,19.5c0.5,3.9,3.3,8.4,6.1,10.8c2.8,2.4,7.1,4.4,10,5.4c3,1.1,5.9,3.1,7.3,4.2   c1.4,1.1,2.3,2,2.3,2s0.9-0.9,2.3-2c1.4-1.1,4.3-3.1,7.3-4.2c3-1.1,7.2-3.1,10-5.4c2.8-2.4,5.6-6.9,6.1-10.8   C282.2,272.8,280,263.3,279,257.2"/>
    <path class="st2"
          d="M265.2,223c-1,1.1-3.4,2.2-3.4,2.2l0,0.2c0,0,1-0.2,1.9-0.7c1-0.5,2.4-1.8,2.7-2.3c0.3-0.5,0-0.8,0-0.8   S266.2,221.9,265.2,223"/>
    <path class="st2"
          d="M269.4,225.3c0,0.7-0.2,5.2-0.2,5.2c0,0.2-0.1,1.6-0.4,1.8c0.2,0,0.5,0.1,0.6-0.6c0.1-0.8,1-6.6,1-6.6   l-0.5-0.2C269.8,224.8,269.4,224.6,269.4,225.3"/>
    <path class="st2"
          d="M276.9,213.8c-0.4,0.1-1.5,0.9-2,1.4c-0.6,0.5-0.9,0.5-1.4,0.7c-0.5,0.2-0.3-0.9,0-1.8c0.3-0.9,1.3-2,2.2-2.9   c0.8-0.9,0-0.6-0.4-0.2c-0.4,0.4-1.2,1.3-2.2,2.9c-1,1.6-1.6,5.3-1.6,5.3s0.6-0.4,1.2-0.8c0.6-0.4,1.3-0.8,2.5-1.7   c1.2-0.9,1.9-1.5,2.5-2.2C278.2,213.8,277.4,213.7,276.9,213.8"/>
    <path class="st2"
          d="M246.5,223c-1-1.1-1.1-1.4-1.1-1.4s-0.3,0.3,0,0.8c0.3,0.5,1.7,1.7,2.7,2.3c1,0.5,1.9,0.7,1.9,0.7l0-0.2   C249.9,225.2,247.5,224.1,246.5,223"/>
    <path class="st2"
          d="M242.6,230.5c0,0-0.2-4.5-0.2-5.2s-0.4-0.5-0.4-0.5l-0.5,0.2c0,0,0.9,5.8,1,6.6c0.1,0.7,0.5,0.6,0.6,0.6   C242.6,232.1,242.6,230.7,242.6,230.5"/>
    <path class="st2"
          d="M236.5,210.9c-0.4-0.4-1.2-0.6-0.4,0.2c0.8,0.9,1.9,2,2.2,2.9c0.3,0.9,0.5,2.1,0,1.8c-0.5-0.2-0.9-0.2-1.4-0.7   c-0.6-0.5-1.6-1.2-2-1.4c-0.4-0.1-1.2,0-0.6,0.7c0.6,0.7,1.3,1.3,2.5,2.2c1.2,0.9,1.8,1.2,2.5,1.7c0.6,0.4,1.2,0.8,1.2,0.8   s-0.6-3.7-1.6-5.3C237.7,212.2,236.8,211.3,236.5,210.9"/>
    <path class="st2"
          d="M255.8,315.8c0.1,0,0.1-0.3,0.1-0.8c0-0.5,0.1-1.8,0.2-2.5c0.1-0.7-0.2-0.7-0.4-0.6c-0.2,0-0.3,0.6-0.3,0.9   c0,0.3,0.1,2.2,0.1,2.6C255.5,315.7,255.7,315.8,255.8,315.8"/>
    <path class="st2"
          d="M269,309.1c0.5,1.1,0.6,0.9,0.4,0c-0.2-0.9-0.5-1.7-1-2.5c-0.5-0.8-1.7-1.9-1.7-1.9s0.3,0.7,0.8,1.4   C267.8,306.8,268.4,308.1,269,309.1"/>
    <path class="st2"
          d="M264,310c0.2,0.7,1.3,2.6,1.4,2.6c0.1-0.1-0.4-1.7-0.8-2.9c-0.4-1.1-0.9-2-1-2c-0.1,0,0.1,0.7,0.1,0.7   S263.8,309.3,264,310"/>
    <path class="st2"
          d="M260,313.2c0.2,0.5,0.5,1.1,0.6,1c0.1-0.1-0.3-1.1-0.3-1.4c-0.1-0.3-0.1-0.9-0.4-1.6c-0.3-0.7-0.5-0.4-0.5-0.1   c0,0.3,0.4,1.6,0.4,1.6S259.8,312.7,260,313.2"/>
    <path class="st2"
          d="M242.8,309.1c0.5-1.1,1.1-2.3,1.6-3c0.5-0.7,0.8-1.4,0.8-1.4s-1.3,1.1-1.7,1.9c-0.5,0.8-0.8,1.6-1,2.5   C242.1,310,242.3,310.2,242.8,309.1"/>
    <path class="st2"
          d="M247.7,310c0.2-0.7,0.3-1.2,0.3-1.2s0.2-0.7,0.1-0.7c-0.1,0-0.6,0.4-1,1.6c-0.4,1.1-0.9,2.8-0.8,2.9   C246.5,312.6,247.5,310.7,247.7,310"/>
    <path class="st2"
          d="M251.7,313.2c0.2-0.5,0.2-0.5,0.2-0.5s0.4-1.3,0.4-1.6c0-0.3-0.1-0.6-0.5,0.1c-0.3,0.7-0.4,1.3-0.4,1.6   c-0.1,0.3-0.4,1.3-0.3,1.4C251.2,314.3,251.4,313.7,251.7,313.2"/>
    <path class="st2"
          d="M239.5,325.1l-0.5-0.3c0,0-0.3,0.4-0.8,0.9c-0.4,0.5-0.9,0.7-1.3,1.1c-0.3,0.4-0.9,1-1.7,1.4   c-0.8,0.4-1.1,0.6-1,0.7c0.2,0.1,0.7-0.2,0.7-0.2s0.2,0,1.2-0.6c1-0.6,1.2-0.9,1.8-1.4C238.6,326.1,239.5,325.1,239.5,325.1"/>
    <path class="st2"
          d="M243.7,330.1c0.4-0.4,0.8-0.7,0.6-0.9c-0.2-0.2-0.5-0.2-0.8,0.1c-0.3,0.3-1.3,1.2-1.8,1.6   c-0.4,0.4-0.8,0.6-1.3,1c-0.4,0.3-1.4,0.9-1.9,1.1c-0.5,0.3,0,0.3,0,0.3s0.4-0.2,0.8-0.3c0.4-0.1,1.5-0.6,1.5-0.6s0.4-0.2,1-0.6   C242.5,331.4,243.4,330.5,243.7,330.1"/>
    <path class="st2"
          d="M248.6,333.5c0.3-0.6,0-0.5-0.6-0.2c-0.5,0.2-1.7,1.5-2.4,2c-0.7,0.5-1.3,0.7-1.8,0.9   c-0.6,0.3-0.6,0.4-0.6,0.6c0,0.1,0.3,0.1,0.5,0c0.2-0.1,1.1-0.6,1.1-0.6s0.3-0.1,0.6-0.1c0.3,0,0.8-0.4,1.5-1   C247.7,334.5,248.3,334.1,248.6,333.5"/>
    <path class="st2"
          d="M250.9,338c-0.9,0.5-2.4,1.7-2.8,2.5c-0.4,0.8-0.7,1.3-0.5,1.5c0.1,0.1,0.6-0.1,0.7-0.4   c0.2-0.3,0.6-0.8,0.6-0.8s1.5-1.5,2-1.8c0.6-0.3,1.4-1.3,1.7-1.9c0.2-0.6,0-0.9,0-0.9S251.8,337.5,250.9,338"/>
    <path class="st2"
          d="M276.5,328.2c-0.8-0.4-1.3-1-1.7-1.4c-0.3-0.5-0.8-0.6-1.3-1.1c-0.5-0.5-0.8-0.9-0.8-0.9l-0.5,0.3   c0,0,0.8,1,1.5,1.6c0.6,0.5,0.9,0.9,1.8,1.4c1,0.6,1.2,0.6,1.2,0.6s0.6,0.3,0.7,0.2C277.6,328.8,277.3,328.6,276.5,328.2"/>
    <path class="st2"
          d="M273.2,333.1c-0.5-0.3-1.4-0.8-1.9-1.1c-0.4-0.3-0.8-0.6-1.3-1c-0.4-0.4-1.4-1.3-1.8-1.6   c-0.3-0.3-0.6-0.3-0.8-0.1c-0.2,0.2,0.2,0.5,0.6,0.9c0.4,0.4,1.3,1.2,1.9,1.7c0.6,0.4,1,0.6,1,0.6s1.1,0.5,1.5,0.6   c0.4,0.1,0.8,0.3,0.8,0.3S273.6,333.3,273.2,333.1"/>
    <path class="st2"
          d="M267.9,336.2c-0.6-0.3-1.2-0.5-1.8-0.9c-0.7-0.5-1.9-1.8-2.4-2c-0.5-0.2-0.9-0.4-0.6,0.2   c0.3,0.6,0.9,1,1.7,1.6c0.7,0.6,1.1,0.9,1.5,1c0.3,0,0.6,0.1,0.6,0.1s0.8,0.5,1,0.6c0.2,0.1,0.5,0.1,0.5,0   C268.4,336.6,268.4,336.5,267.9,336.2"/>
    <path class="st2"
          d="M260.8,338c-0.9-0.5-1.8-1.9-1.8-1.9s-0.2,0.3,0,0.9c0.2,0.6,1.1,1.6,1.6,1.9c0.6,0.3,2,1.8,2,1.8   s0.4,0.5,0.6,0.8c0.2,0.3,0.6,0.6,0.7,0.4s-0.1-0.7-0.5-1.5C263.2,339.7,261.7,338.5,260.8,338"/>
    <path class="st2"
          d="M255.5,343.5c0.1,0.6,0,2.1,0.4,2.1c0.4,0,0.3-1.5,0.4-2.1c0.1-0.6,0.1-2,0.1-2h-1   C255.3,341.4,255.4,342.9,255.5,343.5"/>
    <path class="st3"
          d="M278.4,257.9c-1-6.5,2-11.8,2-11.8l-6.1-6.8c-5.2,2.7-11.5,2-18.3-0.4c-6.9,2.4-13.2,3.1-18.3,0.4l-6.1,6.8   c0,0,2.9,5.3,2,11.8c-1,6.5-2.5,13.9-2.2,18.3c0,0.3,0,0.6,0.1,0.9h5.6c0,0,0.3-0.4,0.9-0.6c0.6-0.3,0.8-0.4,0.8-0.4   s0.1-1.1,0.8-1.4c0.7-0.2,1-0.2,1.2-0.2c0.3,0,0.5-0.1,0.8-0.4c0.3-0.3,1.2-1.1,1.6-2.3c0.4-1.1,0.6-1.6,0.6-2.3   c0-0.7,0.3-1.9,0.3-1.9s-0.2-0.4-0.7-0.2c-0.6,0.2-0.7-0.4-0.7-0.9c-0.1-0.6,0-1.7,0.3-2.2c0.3-0.5,0.4-0.7,0.4-0.7l-0.2-0.9   c0,0-3.5,0.7-4.2-2c-0.6-2.8-0.7-4.1-0.8-4.4c-0.1-0.3-0.2-0.5-0.7-0.4c-0.5,0-1.5-0.3-2.2-1.7c-0.7-1.4-0.8-2-0.6-2.6   c0.2-0.6,0.6-0.4,0.7-0.2c0.1,0.2,1.1,1.5,1.4,1.2s0.2-0.4-0.3-1.5c-0.5-1.1-0.4-1.4-0.3-2c0.1-0.5-0.2-1.2-0.2-1.5   c0-0.3,0.3-0.5,0.7-0.4c0.3,0.2,0.6,0.4,0.8,0.6c0.2,0.2,0.2,0.4,0.5,0.3c0.3-0.2,0.1-1.2,0.1-1.5c0-0.3,0.4-0.6,0.9-0.3   c0.5,0.3,0.7,0.8,0.7,1.1c0,0.4,0,0.7,0.2,0.7s0.4-0.5,0.4-0.9c0-0.4,0.2-0.9,0.6-0.4c0.3,0.4,0.4,1.1,0.3,1.8   c-0.1,0.7,0.1,0.3-0.1,1.5c-0.2,1.2-0.3,1.7-0.3,2.6c0,0.9,0.1,1.4,0.5,2.5c0.4,1.1,0.8,2.4,1.6,2.4c0.8,0,1.1,0,1.1,0   s0.9-1.8,1.6-2.2c0.7-0.4,1.7-0.5,2.4-0.6c0.7-0.1,1-0.3,1-0.5c0-0.2-0.2-0.2-1.1-0.4c-0.9-0.1-1.6-0.3-1.6-1   c0-0.7,0.1-1.2-0.4-1.3c-0.6,0-1.9-0.5-2.5-1.4c-0.5-0.9-0.4-1.1-0.3-1.6c0.1-0.5,0.7-1.5,1.1-0.6c0.4,0.9,0.7,1.1,1,1.3   c0.3,0.2,0.8,0.3,0.6-0.4c-0.2-0.7-0.4-1.1-0.3-1.5c0.1-0.5,0.4-0.7,0.8-0.8c0.4-0.1,1.5-0.4,2.1-0.6c0.6-0.1,0.6-0.2,0.6-0.2   s0.1-0.4,0.8-0.6c0.8-0.2,1.3-0.3,1.8-0.3c0.6,0,1,0.1,1.7-0.3c0.7-0.4,1.3-0.4,1.8-0.4c0.5,0,0.8,0.2,1.2,0.4   c0.3,0.2,0.2,0.6,0.2,0.9c0,0.3,0,0.5,0.6,0.5c0.5,0,0.9,0,1.4,0.2c0.5,0.2,1.1,0.4,0.7,0.9c-0.4,0.5-0.4,1.1-0.7,1   c-0.3,0-0.2,0.3-0.3,0.4c-0.1,0.2-0.2,0.3,0.1,0.5c0.3,0.2,0.3,0.4,0.7,0.7c0.4,0.4,1,0.8,0.4,1.4c-0.6,0.6-1.7,1.1-1.7,1.1   s-0.6,0.3,0.1,0.7c0.7,0.4,1,1.3,1.3,1.4c0.3,0.2,0.5,0.4,0.7,0.5c0.2,0.1,0.1,0.7,0.1,0.7s-0.4,0.3-0.9,0.5   c-0.5,0.2-1.1,0.4-1.6,0.4c-0.5,0-0.8,0-0.6,0.5c0.2,0.5,0.6,1,0.6,1.2c0.1,0.3,0.2,0.7,0.2,0.7s0.8,0.2,1.6,0.2   c0.7,0,1.1,0,2.7-0.2c1.6-0.2,2.1-0.2,3.7-0.1c1.6,0.2,1.8,0.1,2.2,0.3c0.4,0.1,0.8,0.4,0.8,0.4s2.2,0,3.4-0.3   c1.2-0.3,1.5-1,1.3-1.5c-0.2-0.4-0.2-1-2.3-1.3c-2.1-0.3-3-0.2-4.7-0.5c-1.7-0.3-4.3-1.2-4.8-3.3c-0.5-2.1,1.2-3,2.1-3.4   c0.9-0.4,2.7-1.1,3.6-1.4c0.9-0.4,2.4-0.7,4.1-0.5c1.6,0.2,2.6,0.7,3.2,0.3c0.6-0.4,1.2-0.1,1.1,0.5c-0.1,0.6-0.8,1.8-2.6,2.4   c-1.9,0.6-4.1,0.6-5.3,0.3c-1.2-0.3-2.1-0.8-2.9-0.5c-0.7,0.3-1.6,1.2-0.8,2.3c0.8,1.1,4.9,1.4,6,1.5c1.1,0.1,5.1-0.2,6.3,1.8   c1.1,2,0.2,4.3-1.1,4.8c-1.4,0.5-2.5,0.8-3.5,1l-1,0.1c0,0,0.5,1.1,0.5,1.5c0,0.4-0.1,1.3,0.4,1.6c0.5,0.3,1.2,0.6,2.1,0.5   c0.9-0.1,1.9,0.5,2,1.3c0,0.8,0.3,1.8,0.4,3.4c0.1,1.5,0,2.8,0,2.8s-0.1,0.6-0.3,1.2c-0.2,0.6-1.3,2.7-1.3,2.7h6   c0-0.3,0.1-0.6,0.1-0.9C280.8,271.9,279.3,264.5,278.4,257.9"/>
    <path class="st4"
          d="M232,280c1.2,3.3,3.6,6.7,7.2,8.9c5.1,3.1,7.3,2.7,12.1,5.8c4.8,3.1,4.5,3.6,4.6,3.6c0.1,0-0.2-0.5,4.6-3.6   c4.8-3.1,7-2.7,12.1-5.8c3.7-2.2,6.1-5.6,7.2-8.9H232z"/>
    <path class="st0"
          d="M236.1,254.3c0.6,0.6,1,0.8,1.8,0.7c0.8-0.1,1,0.5,1.2,1.2c0.1,0.7,0.1,2.2,0.7,3.7s2.6,1.5,2.6,1.5   c0.1-0.7,0.3-1.6,0.6-2.4c0.1-0.1,0.3-0.8-0.4-0.8c-0.7,0-0.7-0.3-1.1-1c-0.4-0.7-1.3-2.5-1.5-3.7c-0.2-1.2,0.2-2.9,0.4-3.6   c0.2-0.6,0.2-1.1,0-1.2c-0.2-0.1-0.7,0-0.7,0s0.2,0.5,0,0.6c-0.2,0.1-0.4-0.3-0.5-0.7c-0.1-0.4-0.3-0.3-0.6-0.3   c-0.3,0-0.3,0.3-0.1,0.6c0.2,0.3,0.1,0.8,0.1,0.8s-0.6-0.5-0.9-0.6c-0.3-0.1-0.9,0.1-0.9,0.5c-0.1,0.3,0.2,1.2,0.8,1.7   c0.6,0.5,0.6,1.4,0.4,1.8c-0.2,0.4-1,0.4-1.1,0.2c-0.2-0.2-0.5-0.3-0.8,0C235.8,253.5,235.6,253.7,236.1,254.3"/>
    <path class="st0"
          d="M235.8,252.7c0,0-0.3-0.3-0.4-0.4c-0.1-0.1-0.3-0.5-0.3-0.5s-0.1,0.1-0.1,0.5c0,0.3,0.4,0.7,0.4,0.7   L235.8,252.7z"/>
    <path class="st0"
          d="M237,248.7c0.3-0.1,0.5-0.2,0.3-0.5c-0.2-0.3-0.4-0.6-0.6-0.7c-0.2-0.1-0.4,0-0.4,0s0.2,0.5,0.3,0.8   C236.7,248.7,236.8,248.9,237,248.7"/>
    <path class="st0"
          d="M238.5,247.5c0,0.3,0,0.4,0.3,0.3c0.2-0.1,0.3-0.4,0.2-0.7c-0.1-0.2-0.4-0.4-0.4-0.4l-0.2-0.1   C238.4,246.6,238.5,247.3,238.5,247.5"/>
    <path class="st0"
          d="M240.7,247.9c0-0.3-0.1-0.6-0.1-0.6s0,0.3-0.1,0.5c-0.1,0.2-0.1,0.1,0,0.3   C240.6,248.3,240.6,248.2,240.7,247.9"/>
    <path class="st0"
          d="M244.1,262.5c0.4,1,1.5-0.6,2.5-1.8c1-1.2,0.9-0.3,0.8,0.7c-0.1,1,0.3,2.1,0.7,2.8c0.4,0.7,0.7,0.3,0.9-0.2   c0.2-0.5,0.3-1.5,0.6-2c0.3-0.5,0.6-0.1,0.7,0.4c0,0.4,0.6,1.4,1,1.9c0.5,0.6,0.7-0.2,0.9-0.9c0.2-0.7,0.3-1.7,0.5-2.2   c0.1-0.4,0.6-0.1,0.6-0.1s0.3,0.3,1,0.9c0.6,0.6,0.7-0.4,0.8-0.8c0.1-0.5-0.1-1.6,0.1-1.7c0.2-0.2,0.8,0.2,1.6,0.7   c0.8,0.4,0.8-0.4,0.7-0.9c-0.1-0.5-0.6-1.5-1.3-2.1c-0.7-0.6-0.8-1.3-0.6-1.6c0.2-0.3,1,0,1.6-0.1c0.5-0.1,0.8-0.1,1.2-0.2   c0.4-0.1,0.4-0.5,0.4-0.5s-0.3-0.5-0.8-1c-0.6-0.5-0.9-0.9-1.6-1c-0.7-0.2-1.6,0-1.6,0l-0.1-0.2c-0.1-0.2-0.3-0.2-0.4,0   c-0.1,0.2-0.5,0.5-0.7,0.7c-0.3,0.2-0.4,0.4-0.6,0.3c-0.2-0.1,0.1-0.3,0.1-0.3s0.4-0.3,0.7-0.9c0.3-0.7,0.4-1.3,0.2-1.6   c-0.3-0.3-1,0-1.4,0c-0.4,0-0.6,0.1-0.6-0.1c0-0.2,0.4-0.1,0.9-0.2c0.5-0.1,0.8-0.6,0.9-1.1c0.2-0.5,0.3-0.4,0.6-0.1   c0.3,0.3,0.6,0.2,0.6,0c0.1-0.2,0.3-0.7,0.6-1.2c0.3-0.5,0.5-1.2,0.2-1.6c-0.3-0.5-1.2-0.4-1.6-0.1c-0.4,0.3-0.6,0.6-0.7,1.3   c-0.1,0.7-0.3,0.3-0.3,0.1s-0.3-0.6-0.2-0.9c0.1-0.3,0-0.6,0-0.6s-0.1-0.6-0.7-0.8c-0.7-0.1-1.5,0-2.2,0.2   c-0.7,0.2-0.6,0.8-0.6,0.8s-0.5,0-1.1,0.1c-0.6,0.1-1.2,0.3-1.7,0.4c-0.5,0.1-0.7,0.2-0.7,0.5c0,0.3,0.1,0.7,0.1,0.7s0.4,0,0.7,0.1   c0.2,0.1,0.1,0.4-0.2,0.5c-0.3,0.1-0.4,0.1-0.4,0.5c0,0.3,0.1,0.4,0.4,0.4c0.3,0,0.8,0,1.5,0.3c0.6,0.3,0.8,0.9,0.7,1.2   c-0.1,0.3-1,0.8-1.4,0.8c-0.5,0-0.6,0.1-0.6,0.4c0,0.3,0.6,0.3,0.6,0.3s0.6,0,1.6,0.2c1.1,0.1,1.2,0.4,1.7,0.8   c0.5,0.4,0.1,0.5-0.1,0.7c-0.2,0.1-0.6,0.4-0.9,0.6c-0.3,0.1-0.6,0.4-0.9,0.5c-0.3,0.1-1.1,0-2.6,0.6c-1.5,0.6-2,2.5-2,2.5   s0.2-0.1,0.9-0.4c0.7-0.4,1.5-0.8,2.3-1.2c0.8-0.5,0.8,0.2,0.4,0.9c-0.4,0.7,0.4,0.6,0.6,0.4c0.2-0.2,0.5-0.4,1.3-0.8   c0.7-0.4,0.5,0.2,0.5,0.2s-0.2,0.5-0.3,1.5c-0.1,1.1,1.1,0.1,1.6-0.6c0.5-0.7,0.8,0,0.4,0.8c-0.4,0.8-1.1,1.4-1.6,1.4   c-0.4,0-0.7-0.5-0.8-0.7c0-0.3,0.1-1-0.1-1.2c-0.3-0.2-1,0-1.6,0.4c-0.6,0.3-0.7,0.1-0.8-0.2c-0.1-0.3,0.2-0.4,0.1-0.6   c-0.1-0.2-0.4,0-0.6,0.1c-0.2,0.1-0.7,0.4-1.8,0.9c-1,0.5-0.9,0.8-0.9,1.6C243.4,261.4,243.6,261.5,244.1,262.5"/>
    <path class="st0"
          d="M253.8,246.1c0.2-0.1,0.6-0.3,0.6-0.3s0.5-0.1,0.9-0.2c0.4-0.1,0.4-0.3,0.3-0.5c-0.1-0.2-0.3-0.3-0.8-0.3   c-0.6,0-0.9,0.3-1.3,0.4c-0.3,0.1-0.7,0.2-0.7,0.2s0.1,0.1,0.3,0.4C253.3,246.2,253.6,246.3,253.8,246.1"/>
    <path class="st0"
          d="M256.2,248.5c0.2,0,0.5-0.1,0.5-0.1s0.4-0.2,0.8-0.3c0.4-0.1,0.5-0.2,0.8-0.6c0.2-0.5-0.3-0.5-0.9-0.6   c-0.7-0.2-1,0.1-1.1,0.3c-0.1,0.3,0,0.5-0.3,1C255.6,248.5,255.9,248.5,256.2,248.5"/>
    <path class="st0"
          d="M256,249.1c-0.7,0-1.4,1-1.7,1.2c-0.3,0.2-0.1,0.3-0.1,0.3s0.2,0.4,0.3,0.8c0.1,0.4,0.1,1,0.1,1s0.1,0,0.5,0   c0.4,0,0.6-0.2,1-0.5c0.4-0.3,0.6-0.4,1.2-0.5c0.5-0.1,0.8-0.2,1.3-0.5c0.6-0.3-0.3-0.8-0.9-1.3C257,249.2,256.6,249.1,256,249.1"/>
    <path class="st0"
          d="M247.3,251.3c0.5-0.1,0.7-0.3,0.7-0.6c0-0.3-0.3-0.6-0.9-0.5c-1.6,0.1-3.2-0.4-3.5-2c0,0-0.6,1,0.5,2.1   C245.1,251.4,246.7,251.4,247.3,251.3"/>
    <path class="st0"
          d="M241.7,276.8c0.1,0.1,0.2,0.2,0.3,0.3h2.5c0.4-0.1,0.4-0.5,0.4-0.8c0-0.3,0.3-1.2,0.6-2.9   c0.3-1.6,0.9-2.8,1.2-3.5c0.2-0.7-0.3-0.9-0.4-1.3c-0.2-0.4-0.4-1.2-0.5-1.5c-0.1-0.4-0.7-0.3-1-0.3c-0.3,0-0.4,0.5-0.4,1   c0,0.5-0.3,1.9-0.5,3.2c-0.2,1.3-1.7,2.9-2.1,3.3c-0.4,0.4-0.7,0.5-1,0.5s-0.9,0-1.2,0.2c-0.3,0.2-0.6,0.6-0.6,1   c0,0.4,0.6,0.6,0.6,0.6s0.5-0.3,0.6-0.5c0.2-0.2,0.6-0.3,1-0.3c0.4-0.1,0.4,0.1,0.3,0.3C241.4,276.3,241.4,276.3,241.7,276.8"/>
    <path class="st0"
          d="M237.9,276.7c-0.2,0.1-0.3,0.3-0.4,0.4h1.6c0-0.1-0.1-0.3-0.2-0.4C238.8,276.5,238.3,276.6,237.9,276.7"/>
    <path class="st0"
          d="M240.1,276.6c-0.2,0.1-0.4,0.3-0.6,0.5h1.8c0.1-0.2,0.1-0.4-0.1-0.6C240.8,276.2,240.4,276.5,240.1,276.6"/>
    <path class="st0"
          d="M255.3,275.9c-0.2,0-0.4,0.2-0.6,0.4c-0.3,0.2-0.4,0.5-0.4,0.7c0,0,0,0.1,0,0.1h0.7c0,0,0-0.1,0-0.1   c0-0.2,0.1-0.4,0.4-0.7C255.8,276.1,255.5,275.9,255.3,275.9"/>
    <path class="st0"
          d="M256.8,276.7c0-0.2-0.1-0.4-0.3-0.4c-0.2,0-0.4,0.3-0.7,0.5c-0.1,0.1-0.2,0.2-0.3,0.3h1.1   C256.7,277,256.8,276.8,256.8,276.7"/>
    <path class="st0"
          d="M263.5,268.7c0.5-0.4,0.4-0.5,0.5-0.9c0-0.4,0-0.5-0.2-0.7c-0.2-0.2-1-0.5-1.7-0.5c-0.7,0-2.1,0.2-2.7,0.5   c-0.5,0.4-0.8,1.6-0.8,2.3c0,0.7,0.1,0.8,0.3,0.8c0.2,0,0.5-0.5,0.5-0.5s0.7,0.9,1.1,1.5c0.4,0.6,0.2,0.9,0,1.4   c-0.2,0.5-0.9,1.8-1.4,2.1c-0.6,0.3-1,0-1.6-0.1c-0.6-0.1-1,0.1-1.4,0.5c-0.4,0.4,0,0.7,0.2,0.7s0.5,0,0.8,0.3c0.2,0.2,0.1,0.7,0,1   h3.2c0.5-0.2,0.9-1,1.1-1.4c0.2-0.5,0.9-1.1,1.2-1.4c0.3-0.3,0.4-0.5,0.4-1.2c0-0.7-0.2-1.1-0.4-1.6c-0.3-0.5-0.4-1.2-0.4-1.6   C262.3,269.5,263,269.1,263.5,268.7"/>
    <path class="st0"
          d="M258.2,260.6c0.3,0.5,0.2,0.6-0.3,0.7c-0.5,0.1-1,0.2-1.7,0.1c-0.7-0.1-0.7,0-0.7,0.4c0,0.4-0.1,1.1-0.5,1.7   c-0.4,0.6-0.9,0.3-1.3,0.1c-0.3-0.2-0.5-0.2-0.6,0.2c-0.1,0.4-0.3,0.7-0.7,1.3c-0.3,0.6-0.6,0.6-0.8,0.6c-0.2-0.1-0.5-0.4-0.7-0.4   c-0.3,0-0.6-0.5-1-1.1c-0.4-0.6-0.5,0.1-0.8,0.6c-0.2,0.5-0.5,0.9-0.9,0.8c-0.5-0.1-1-0.9-1.2-1.4c-0.3-0.5-0.4-1-0.8-1   c-0.4,0-1.1,0.9-1.5,1.1c-0.4,0.2-0.6,0.1-0.8-0.1c-0.2-0.3-0.5,0.1-0.7,0.8c-0.3,0.7,0,1.2,0.4,1.4c0.4,0.2,1.1-0.3,1.6-0.7   c0.5-0.3,0.7-0.2,1.2-0.2c0.5,0,0.5,0.8,0.7,2c0.2,1.2,0.9,1.4,0.9,1.4s0.3,0.2,0.8-0.7c0.5-0.9,0.6-1.8,1.1-1.8   c0.5,0,0.6,0.1,1.1,0.8c0.5,0.7,1,1.3,1.3,0.7c0.3-0.5,0.6-1.4,0.9-1.6c0.3-0.3,0.7-0.4,0.3,0.2c-0.4,0.5-0.5,1.1,0.2,0.9   c0.7-0.2,3.6-1.4,4.7-1.6c0,0,1.3-0.2,2.9-0.3c1.6-0.1,1.9-0.2,2.5-0.2c0.6,0,0.6-0.1,0.7-0.5c0-0.4-0.3-0.3-1.4-0.3   c-1.1,0-1.9,0.1-2.7,0.3c-0.8,0.1-1.2,0.1-1-0.1c0.1-0.2,0.4-0.3,1.3-0.5c0.9-0.1,2.8-0.2,3.7-0.3c1,0,0.7,0.3,0.6,0.9   c-0.1,0.6,0.1,1.6,0.1,2.2c0.1,0.6,0.1,0.8,0.6,1.6c0.5,0.8,2.3,1.4,2.9,1.7c0.5,0.3,0.4,0,0.4-0.5c0-0.5,0.4-0.5,0.9-0.2   c0.5,0.3,1.2,0.5,1.8,0.6c0.6,0.1,0.6,0.2,0.6,0.5c0,0.3,0.1,0.9,0.1,1.5c0.1,0.6,0,0.8-0.2,1.1c-0.3,0.4-1.3,1.4-1.3,1.4   s-0.5,0-1.4,0.2c-1,0.2-1.3,0.7-1.4,1.1c-0.1,0.4,0.2,0.5,0.2,0.7c0,0.1,0,0.3,0,0.5h0.2c0.1-0.1,0.2-0.3,0.4-0.5   c0.3-0.4,1.2-0.5,1.8-0.3c0.4,0.2,0.4,0.6,0.3,0.8h2.3c0.3-0.6,1-2,1.2-2.4c0.2-0.5,0.4-0.9,0.4-1.6c0-0.7,0.1-3.6,0-3.8   c-0.1-0.2,0-0.6,0-1.4c0-0.8,0-1.4-1.5-1.6c-1.5-0.1-1.9-0.8-2.5-1.3c-0.5-0.5-0.4-1.7-0.8-3.1c-0.4-1.4-1.4-1.6-3.1-2   c-1.8-0.3-3-0.4-4.4-0.3c-1.3,0.1-2.9,0.3-3.8,0.2C257.7,259.8,257.9,260.1,258.2,260.6"/>
    <path class="st0"
          d="M266.6,276.8c-0.2,0.1-0.3,0.2-0.3,0.3h1.5c0-0.1,0-0.3-0.1-0.4C267.5,276.4,267,276.5,266.6,276.8"/>
    <path class="st0"
          d="M269.4,276.7c-0.2,0.1-0.4,0.3-0.5,0.4h1.6c0-0.1,0-0.1,0-0.2C270.3,276.7,269.9,276.4,269.4,276.7"/>
    <path class="st0" d="M231.3,277.6c0.1,0.5,0.2,1,0.3,1.4H280c0.1-0.5,0.3-1,0.3-1.4H231.3z"/>
    <path class="st0"
          d="M263.9,254.6c1.5,1,6.4,1.1,8.7,1.5c2.3,0.5,2.1,2.2,1.4,3.1c-0.7,0.9-3.9,1-4.5,1.1c0.3,0.2,0.8,0.9,0.8,0.9   s0.3,0,1.3-0.1c1-0.1,2.7-0.3,3.8-1.3c1.2-1,1.1-2.5,0.1-3.6c-1-1-2.7-1.1-4.4-1.3c-1.7-0.2-3.1-0.3-5-0.6   c-1.9-0.3-2.9-1.1-2.9-2.2c0-1.1,1-1.7,1.8-1.9c0.8-0.2,2-0.5,3-0.1c1.1,0.4,2.3,0.5,4.4,0.2c2.1-0.3,2.6-1.7,2.6-1.7   s-0.3,0.1-1.3,0.2c-1.1,0-1.9-0.5-3.8-0.5c-2,0-2.7,0.7-3.6,1c-0.9,0.3-3.4,0.6-4.1,2.1C261.6,252.8,262.4,253.5,263.9,254.6"/>
    <path class="st2"
          d="M251.2,246.4c0.5,0,0.9,0.4,0.9,0.9c0,0.5-0.4,0.9-0.9,0.9c-0.5,0-0.9-0.4-0.9-0.9   C250.3,246.8,250.7,246.4,251.2,246.4"/>
    <path class="st2"
          d="M270.8,248.8c-1.2-0.1-2.8,0.2-2.8,0.2s0.3,0.2,0.7,0.2c0.4,0,1.1-0.1,2.3,0.2c1.2,0.2,2-0.3,2-0.3   S272,248.9,270.8,248.8"/>
    <path class="st0"
          d="M309.6,303c1,0.2,8.9,1.8,9.6,1.9c0.7,0.2,1.2,0.3,1.4,0.1c0.2-0.2,0.3-0.3,1-0.6c0.7-0.3,0.7-1,0.7-1   s0.2-0.7,0.3-1.3c0.1-0.7,0.5-0.9,1.2-0.1c0.8,0.8,0.9,2,1.1,3.2c0.2,1.2,2,1.4,2.7,1.6c0.7,0.1,1-0.1,1.5-0.8   c0.4-0.7,0.6-2,0.7-2.9c0.1-0.9,0-0.8-0.9-1c-0.9-0.2-5-1.2-5.8-1.3c-0.7-0.2-0.6-0.7-0.5-1.2c0.1-0.5,1.7-5.8,1.7-5.8   c-1.2-0.7-2.8-1.2-4.8-1.4c0,0-1.2,5.4-1.4,6.2c-0.2,0.8-0.7,0.8-1.6,0.7c-0.9-0.2-7-1.6-7-1.6l-0.5,1.2c-0.5,1.2-0.7,2.5-0.7,3.2   C308.4,302.8,308.6,302.8,309.6,303"/>
    <path class="st0"
          d="M330.8,307.8c-0.8-0.5-1.4-0.7-1.9,0.3c-0.4,1-0.5,2.5-1.5,3.5c-1.1,1-2.6,2.1-4.1,2c-1.5-0.1-2.4-0.5-2-2.2   c0.4-1.7,2.6-2.2,3.2-3.1c0.5-0.9,0.4-1.9-0.4-2.6c-0.8-0.7-1.9-0.8-2.2-0.6c-0.3,0.2-1.3,1-1.7,2.3c-0.5,1.3-0.8,2.3-1.8,3.1   c-1,0.8-3.6,1.6-5.6,1.2c-2-0.5-2.7-1.1-3.5-3c-0.7-2-1.6-5.2-2-5.6c-0.4-0.4-0.9-0.6-1.8,0c-0.9,0.6-0.9,1.5-1,2.2   c-0.1,0.7,0,1.5,0.9,2.6c0.9,1,1.7,2.1,2.1,3.1c0.3,1.1,1.3,2.7-0.1,2.8c-1.4,0.1-2,0.1-3-0.9c-1-1-5.1-3.7-6.2-4.6   c-1.1-0.9-1.6-1.2-1.6-1.2c-1.9,0-3.7-0.8-5.6-2.1c0,0,1.1,2.7,1.3,3.8c0.2,1,0.2,1.6,0.2,1.6s4.1,2.1,5.7,2.9   c1.6,0.8,4.8,2.6,6.4,3.6c1.6,1,2.9,2.5,5.7,1.9c2.8-0.6,8.4-2.3,10.2-2.8c1.8-0.5,6.9-1.8,8.7-3.1c1.9-1.3,2-1.2,2.4-2.5   C331.9,309.1,331.6,308.4,330.8,307.8"/>
    <path class="st0"
          d="M320,288.6c0.3,0,0.4-0.1,1.4-0.2c0.9-0.1,0.6,0.8,0.4,1.1c-0.2,0.3-0.5,1.1-0.8,1.7c-0.4,0.7,0.1,0.8,0.4,0.9   c0.3,0.1,0.7,0.1,1.4,0.4c0.8,0.2,0.6-0.4,0.6-0.6c0-0.3,0.1-1.8,0.1-2.3c0.1-0.5,0.6-0.4,0.8-0.3c0.2,0.1,0.7,0.4,1.1,0.6   c0.4,0.2,0.6,0,0.6-0.2c0.1-0.2,0.3-0.6,0.4-1.2c0.2-0.6-0.2-0.5-0.6-0.5c-0.4,0-0.9,0-1.5,0c-0.6,0-0.2-0.6-0.2-0.6   s0.4-0.7,0.8-1.3c0.4-0.6,0.2-0.6-0.1-0.7c-0.3-0.1-1.4-0.3-1.8-0.4c-0.3-0.1-0.4,0-0.4,0.2c0,0.2,0,1.3,0,1.7c0,0.4,0,0.7-0.6,0.7   c-0.5,0-0.9-0.3-1.3-0.8c-0.4-0.5-0.6-0.3-0.7-0.1c0,0.2-0.4,1.6-0.5,1.9C319.5,288.7,319.7,288.6,320,288.6"/>
    <path class="st0"
          d="M289.1,303.7c-0.6-0.6,0.9-0.7,1.8-0.7s2.4-0.5,2.9-0.8c0.5-0.3,1.3-0.5,2.3-0.9c1-0.5,0.4-0.6-0.6-0.9   c-1-0.3-3.7-1.4-3.7-1.4s-1.3,0.7-2,1.1c-0.7,0.4-1.7,1-3.3,1.2c-1.6,0.2-2.1,0.3-2.1,0.3c-0.1,0.1,0.4,0.4,1,1.3   c0.6,0.9,0.9,1.4,1.6,2.7c0.8,1.3-0.1,0.5-0.8-0.3c-0.3-0.5-1.1-1.5-1.9-2.3c-0.6-0.6-1.2-1-1.2-1l-0.5,1.1v0.4   c0,0.4-0.3,2.1-0.4,2.8c-0.1,0.7,0.2,0.7,0.7,1c0.6,0.3,1.7,0.9,4.6,2.7c3,1.9,4.1,3.1,4.1,3.1s0.1-0.8,0.1-1.6   c0-0.8,0-2.4-0.7-4.3C290.3,305.5,289.7,304.3,289.1,303.7"/>
    <path class="st0"
          d="M282.2,299.6c0.7,0.1,1,0.3,1.9,0.3c1,0,1.4-0.3,2.4-0.3c1,0,1.7-0.3,3.3-1.2c1.6-0.9,0.1-0.6-1.1-0.5   c-1.1,0.1-4.1-0.3-5.4-0.8c-1.3-0.5-0.3-0.6,0-0.5c0.3,0.1,0.5,0.2,3.1,0.7c2.6,0.5,3.5-0.1,4.8-0.5c1.3-0.3-0.3-0.5-0.3-0.5   s-4.7-1.3-7-3.9c-1.8-2-2.4-3.8-2.6-4.6c-0.9,1.1-1.9,2-3,2.9c0.1,0.4,0.2,1,0.5,1.5c0.4,0.9,1.5,2,1.5,2s-1.4-0.6-2-1.2   c-0.4-0.5-0.8-1.2-1-1.6c-1.5,1.1-3.1,1.9-4.6,2.6c0.2,0.1,0.4,0.3,0.6,0.5c0.6,0.6,1.2,1.3,2,2.6c0.8,1.3,0.1,1.2-0.7,0   c-0.7-1.2-2.5-2.4-2.9-2.6c0,0-0.1,0-0.1,0c-0.2,0.1-0.4,0.2-0.6,0.3c-1,0.4-1.9,0.8-2.8,1.2c0.6,0.5,2,1.8,2.5,2.5   c0.5,0.8,1.6,1.5,2,2c0.4,0.5,0.8,1.1,1.3,1.7c0.5,0.6,3.7,4.1,4.5,5.5c0.8,1.3,0.3-0.3,0.1-1.3c-0.2-0.9-0.5-2.2-0.8-3.2   c-0.3-1,0.3-0.6,0.4,0c0.1,0.6,0.3,0.6,0.5,1.7c0.2,1.1,0.9,2.7,1.1,3.8c0.3,1.1,0.4,0.6,0.7,0.1c0.3-0.5,0.7-1.4,0.9-2   c0.2-0.6,0.3-1.8,0.3-3.7c0-1.9-0.9-2.7-0.9-3C281,299.7,281.5,299.5,282.2,299.6"/>
    <path class="st0"
          d="M295.6,303.7c-0.3,0.1-1.2,0.4-1.7,0.5c-0.4,0.1-0.7,0.1-0.7,0.1s0.9,1.2,2.2,1.2h3.8c0,0-2.3-1.3-2.6-1.7   C296.3,303.6,295.9,303.6,295.6,303.7"/>
    <path class="st0"
          d="M323,302.1c0,0,0,1.1-0.2,1.5c-0.1,0.4-0.4,0.9,0.1,1.1c0.5,0.2,0.9,0.3,1.1,0.3c0.3-0.1,0.2-0.6,0-1   c-0.1-0.4-0.4-1-0.7-1.4L323,302.1z"/>
    <path class="st0"
          d="M329.6,306.4c0.1,0.3,0.4,0.4,0.7,0.5c0.2,0.1,0.5,0.1,0.5-0.3c0-0.4,0.1-0.9-0.3-1.4   c-0.3-0.4-0.5-0.8-0.7-0.1C329.6,305.8,329.4,306.1,329.6,306.4"/>
    <path class="st0"
          d="M306.7,302.1c0.2,0,0.9,0.3,0.9,0.3s0-1,0.1-1.7c0.2-0.7,0.4-1.2,0.2-1.2c-0.3,0-0.4,0.2-0.6,0.5   c-0.2,0.3-0.7,0.4-0.9,1.2C306.3,302,306.5,302,306.7,302.1"/>
    <path class="st2"
          d="M216.6,272.7c-0.8,0.6-1.7,0.8-1.7,0.8s-0.5,0-0.5,0.2c0,0.2,0.5,0,1.1-0.1c0.6-0.1,1.3-0.7,1.6-0.9   c0.3-0.2,0.7-0.5,0.6-0.8C217.5,271.5,217.3,272.1,216.6,272.7"/>
    <path class="st2"
          d="M223,276.1c-0.1,0.2-1.4,1.1-1.4,1.1s-0.4,0.3-0.8,0.4c-0.4,0.2-0.5,0.4-0.5,0.4s0.1,0.1,0.5,0   c0.4-0.1,1.7-1,2.1-1.4c0.4-0.4,0.6-0.5,0.4-0.6C223.2,275.8,223.1,275.9,223,276.1"/>
    <path class="st2"
          d="M196.9,229.8c0.2,0.3,0.5,0.7,0.6,0.5c0.1-0.1,0-0.3-0.3-0.6c-0.3-0.4-0.5-0.5-0.5-0.5s-0.4-0.7-0.7-0.9   c-0.3-0.3-0.6-0.4-0.2,0.2C196.4,229,196.7,229.5,196.9,229.8"/>
    <path class="st2"
          d="M194.9,234.1c0.3,0.3,0.5,0.5,0.9,0.8c0.3,0.3,0.5,0.7,0.7,0.5c0.2-0.2-0.5-0.6-0.7-0.9   c-0.3-0.4-0.5-0.6-0.9-0.9c-0.4-0.3-0.8-0.5-0.8-0.5S194.6,233.9,194.9,234.1"/>
    <path class="st2"
          d="M195.7,241.1c0.5,0.5,1.2,0.7,1.3,0.5c0.1-0.2,0-0.4-0.5-0.6c-0.4-0.2-1.1-0.6-1.4-0.9   c-0.3-0.2-0.7-0.5-0.9-0.7c-0.2-0.2-0.5-0.4-0.6-0.4c-0.1,0.1,0.7,0.9,0.9,1C194.8,240.2,195.2,240.6,195.7,241.1"/>
    <path class="st2"
          d="M197.1,246.8c0-0.2,0-0.3-0.4-0.3c-0.4,0-1-0.1-1-0.1s-0.8-0.3-0.9-0.2c0,0.2,0.7,0.5,1,0.5   c0.3,0,0.7,0.2,0.9,0.3C196.9,247,197.1,247,197.1,246.8"/>
    <path class="st2"
          d="M197.7,252.9c-0.9,0-1.6-0.2-1.7-0.1c0,0.1,0.4,0.3,0.9,0.5c0.4,0.2,1.3,0.2,1.8,0.2c0.6,0,0.7-0.1,0.6-0.4   C199.3,252.8,198.6,252.9,197.7,252.9"/>
    <path class="st2"
          d="M204.6,259.5c-0.1-0.1-0.4,0-0.9,0.1c-0.5,0.1-1.3,0.3-1.7,0.2c-0.5,0-1.5,0-1.5,0s-0.6,0-0.6,0.1   s0.7,0.1,1.8,0.2c1.1,0.1,1.8-0.1,2.3-0.2C204.5,259.9,204.7,259.7,204.6,259.5"/>
    <path class="st2"
          d="M207.4,264.3c-0.5,0.2-0.9,0.3-1.3,0.3c-0.4,0-1.4,0.2-1.4,0.2s-0.5,0.1-0.4,0.2c0.1,0.2,0.2,0,0.6-0.1   c0.4-0.1,0.7,0,1.4,0c0.7,0,1.1-0.2,1.6-0.3c0.4-0.1,0.9-0.3,0.7-0.6C208.4,263.7,207.9,264.1,207.4,264.3"/>
    <path class="st2"
          d="M212.9,267.9c-0.3,0.3-1.5,1.1-1.5,1.1s-0.2,0.2-0.7,0.4c-0.5,0.2-0.4,0.3-0.4,0.5c0.1,0.1,0.4-0.2,0.6-0.3   c0.3-0.1,1.1-0.7,1.6-1c0.4-0.4,1-0.6,0.9-0.9C213.3,267.4,213.2,267.6,212.9,267.9"/>
    <path class="st2"
          d="M203.7,221.3c0,0,0.1,0.2,1.1,1.4c0.9,1.2,0.4,0.1,0.2-0.2c-0.2-0.3-1.6-2.3-2.1-2.8c-0.5-0.5-0.5-0.3-0.3,0.1   C202.8,220.1,203.7,221.3,203.7,221.3"/>
    <path class="st2"
          d="M201.7,227.5c0.1-0.1-0.2-0.3-0.7-0.9c-0.5-0.7-1.6-2.1-1.6-2.1s-0.3-0.6-0.4-0.6c-0.1,0.1,0.4,1.1,0.8,1.5   c0.4,0.4,1,1.3,1.3,1.7C201.4,227.4,201.6,227.6,201.7,227.5"/>
    <path class="st2"
          d="M204.4,239c0-0.3-1.1-0.3-1.6-0.4c-0.5-0.1-1.4-0.3-1.4-0.3s-1-0.2-1-0.1c0,0.1,0.2,0.3,0.8,0.4   s1.4,0.4,2.1,0.5C203.9,239.2,204.4,239.3,204.4,239"/>
    <path class="st2"
          d="M201.7,232.7c0.7,0.6,1.2,0.9,1.6,1.1c0.4,0.2,0.7,0.5,0.9,0.3c0.2-0.2-0.2-0.4-0.8-0.7   c-0.6-0.3-0.9-0.5-0.9-0.5s-0.3-0.2-0.6-0.3C201.5,232.4,201,232.2,201.7,232.7"/>
    <path class="st2"
          d="M207.9,228.7c-0.4-0.4-0.8-0.6-0.8-0.6s-0.6-0.5-0.6-0.3c-0.1,0.2,0.6,0.7,0.9,1c0.3,0.3,1,1.2,1.3,1   C208.9,229.6,208.3,229,207.9,228.7"/>
    <path class="st2"
          d="M203.9,244.7c0,0-0.6,0.2-1,0.3c-0.4,0.1-0.4,0.3,0.3,0.3c0.7,0,1-0.2,1.7-0.3c0.7-0.1,0.9-0.2,0.8-0.4   c-0.1-0.2-0.5-0.2-0.7-0.1C204.6,244.5,203.9,244.7,203.9,244.7"/>
    <path class="st2"
          d="M204.9,250.5c0,0.1,0.5,0,0.9-0.1c0.4-0.1,1.1-0.5,1.6-0.6c0.4-0.1,0.4-0.2,0.4-0.5s-0.5-0.1-1,0.1   c-0.6,0.2-1.3,0.8-1.3,0.8S205,250.3,204.9,250.5"/>
    <path class="st2"
          d="M212.4,254c0.5-0.3,0.6-0.5,0.4-0.7c-0.2-0.2-0.3-0.1-0.7,0.2c-0.4,0.3-1.2,0.9-1.2,0.9s-0.4,0.2-0.7,0.3   c-0.3,0.2-0.7,0.4-0.6,0.6c0.1,0.2,0.7,0,1.1-0.3C211,254.7,211.9,254.3,212.4,254"/>
    <path class="st2"
          d="M215.9,258.6c0.2-0.2,0.8-0.4,1.1-0.6c0.3-0.2,0.5-0.8,0.2-0.9c-0.2-0.1-0.4,0.3-0.9,0.6   c-0.5,0.4-2.2,1.5-2.2,1.5s0,0-0.4,0.2s-0.3,0.3,0.1,0.3c0.4-0.1,0.6-0.1,1.1-0.4C215.5,258.9,215.7,258.8,215.9,258.6"/>
    <path class="st2"
          d="M221.1,263c0.4-0.2,1.1-0.8,1.4-1c0.3-0.3,0.7-0.6,0.5-0.8c-0.2-0.2-0.5,0.1-0.9,0.4c-0.4,0.3-1.3,1.3-1.3,1.3   s-0.1,0-0.6,0.4c-0.5,0.4,0,0.3,0.2,0.2C220.6,263.3,220.7,263.2,221.1,263"/>
    <path class="st2"
          d="M296.9,273.5c0,0-1-0.2-1.7-0.8c-0.7-0.6-1-1.2-1.1-0.9c-0.1,0.4,0.3,0.6,0.6,0.8c0.3,0.2,1.1,0.8,1.6,0.9   c0.6,0.1,1.1,0.3,1.1,0.1C297.3,273.5,296.9,273.5,296.9,273.5"/>
    <path class="st2"
          d="M290.9,277.6c-0.4-0.2-0.8-0.4-0.8-0.4s-1.2-0.9-1.4-1.1c-0.2-0.2-0.2-0.3-0.4-0.1c-0.2,0.2,0,0.3,0.4,0.6   c0.4,0.4,1.7,1.3,2.1,1.4c0.4,0.1,0.5,0,0.5,0S291.3,277.8,290.9,277.6"/>
    <path class="st2"
          d="M314.8,229.8c0.2-0.3,0.5-0.8,1-1.4c0.5-0.6,0.1-0.5-0.2-0.2c-0.3,0.3-0.7,0.9-0.7,0.9s-0.2,0.2-0.5,0.5   c-0.3,0.4-0.5,0.5-0.3,0.6C314.3,230.5,314.6,230.1,314.8,229.8"/>
    <path class="st2"
          d="M315.2,235.5c0.2,0.2,0.4-0.2,0.7-0.5c0.3-0.3,0.6-0.6,0.8-0.8c0.3-0.3,0.9-1,0.9-1s-0.4,0.2-0.8,0.5   c-0.4,0.3-0.6,0.5-0.9,0.9C315.7,234.9,315,235.3,315.2,235.5"/>
    <path class="st2"
          d="M318.1,239.1c-0.1-0.1-0.4,0.1-0.6,0.4c-0.2,0.2-0.6,0.5-0.9,0.7c-0.3,0.2-1,0.7-1.4,0.9   c-0.4,0.2-0.6,0.4-0.5,0.6c0.1,0.2,0.8,0,1.3-0.5c0.5-0.5,0.9-0.9,1.1-1C317.4,240,318.2,239.2,318.1,239.1"/>
    <path class="st2"
          d="M316,246.3c0,0-0.6,0.1-1,0.1c-0.4,0-0.4,0.1-0.4,0.3c0,0.2,0.2,0.3,0.3,0.2c0.2-0.1,0.6-0.2,0.9-0.3   c0.3-0.1,1-0.4,1-0.5C316.8,246,316,246.3,316,246.3"/>
    <path class="st2"
          d="M314,252.9c-0.9,0-1.6,0-1.6,0.3c0,0.3,0.1,0.4,0.6,0.4c0.6,0,1.4-0.1,1.8-0.2c0.4-0.2,0.9-0.4,0.9-0.5   C315.6,252.7,314.9,252.9,314,252.9"/>
    <path class="st2"
          d="M311.3,259.8c0,0-1,0-1.5,0c-0.5,0-1.3-0.1-1.8-0.2c-0.5-0.1-0.8-0.2-0.9-0.1c-0.1,0.1,0,0.4,0.6,0.4   c0.5,0.1,1.2,0.3,2.3,0.2c1.1-0.1,1.8-0.1,1.8-0.2C311.9,259.8,311.3,259.8,311.3,259.8"/>
    <path class="st2"
          d="M307,264.7c0,0-1-0.2-1.4-0.2c-0.4,0-0.8-0.1-1.3-0.3c-0.5-0.2-1-0.6-1.2-0.3c-0.2,0.3,0.3,0.5,0.7,0.6   c0.4,0.1,0.9,0.3,1.6,0.3c0.7,0,1,0,1.5,0c0.4,0.1,0.6,0.2,0.6,0.1C307.5,264.8,307,264.7,307,264.7"/>
    <path class="st2"
          d="M301,269.4c-0.5-0.2-0.7-0.4-0.7-0.4s-1.2-0.8-1.5-1.1c-0.3-0.3-0.4-0.5-0.5-0.2c-0.1,0.3,0.5,0.5,0.9,0.9   c0.4,0.4,1.3,0.9,1.6,1c0.3,0.1,0.5,0.4,0.6,0.3C301.4,269.7,301.4,269.6,301,269.4"/>
    <path class="st2"
          d="M306.9,222.8c0.9-1.2,1.1-1.4,1.1-1.4s0.9-1.2,1.2-1.6c0.2-0.3,0.2-0.6-0.3-0.1c-0.5,0.5-1.9,2.5-2.1,2.8   C306.5,222.8,306,224,306.9,222.8"/>
    <path class="st2"
          d="M312.7,223.9c-0.1-0.1-0.4,0.6-0.4,0.6s-1.1,1.4-1.6,2.1c-0.5,0.7-0.8,0.8-0.7,1c0.1,0.1,0.3,0,0.6-0.4   c0.3-0.4,0.9-1.2,1.3-1.7C312.4,225,312.8,223.9,312.7,223.9"/>
    <path class="st2"
          d="M307.3,239c0,0.3,0.5,0.2,1.2,0.1c0.6-0.1,1.5-0.4,2.1-0.5c0.6-0.1,0.8-0.2,0.8-0.4c0-0.1-1.1,0.1-1.1,0.1   s-0.9,0.2-1.4,0.3C308.4,238.7,307.3,238.6,307.3,239"/>
    <path class="st2"
          d="M309.9,232.5c-0.3,0.2-0.6,0.3-0.6,0.3s-0.3,0.2-0.9,0.5c-0.6,0.3-1,0.4-0.8,0.7c0.2,0.2,0.5-0.1,0.9-0.3   c0.4-0.2,0.9-0.5,1.6-1.1C310.7,232.2,310.2,232.4,309.9,232.5"/>
    <path class="st2"
          d="M303.1,229.8c0.3,0.2,0.9-0.7,1.3-1c0.3-0.3,1-0.8,0.9-1c-0.1-0.2-0.6,0.3-0.6,0.3s-0.4,0.2-0.8,0.6   C303.4,229,302.8,229.6,303.1,229.8"/>
    <path class="st2"
          d="M306.9,244.9c0.7,0.1,1,0.3,1.7,0.3s0.7-0.2,0.3-0.3c-0.4-0.1-1-0.3-1-0.3s-0.8-0.2-1.1-0.3   c-0.3-0.1-0.6-0.2-0.8,0.1C305.9,244.7,306.2,244.8,306.9,244.9"/>
    <path class="st2"
          d="M306.2,250.1c0,0-0.7-0.6-1.3-0.8c-0.6-0.2-1-0.4-1-0.1s0,0.3,0.4,0.5c0.4,0.1,1.2,0.5,1.5,0.6   c0.4,0.1,0.9,0.3,0.9,0.1C306.7,250.3,306.2,250.1,306.2,250.1"/>
    <path class="st2"
          d="M301.5,254.7c-0.3-0.2-0.7-0.3-0.7-0.3s-0.8-0.6-1.2-0.9c-0.4-0.3-0.6-0.4-0.8-0.2c-0.2,0.2-0.1,0.4,0.4,0.7   c0.5,0.3,1.4,0.7,1.8,1c0.3,0.3,1,0.4,1.1,0.3C302.2,255.1,301.8,254.8,301.5,254.7"/>
    <path class="st2"
          d="M297.9,259.4c-0.5-0.2-0.4-0.2-0.4-0.2s-1.7-1.1-2.2-1.5c-0.5-0.4-0.6-0.7-0.9-0.6c-0.2,0.1-0.1,0.7,0.2,0.9   c0.3,0.2,0.9,0.4,1.1,0.6c0.2,0.2,0.4,0.3,0.9,0.6c0.5,0.4,0.7,0.4,1.1,0.4C298.2,259.7,298.4,259.6,297.9,259.4"/>
    <path class="st2"
          d="M291.5,263.4c-0.5-0.4-0.6-0.4-0.6-0.4s-0.9-1-1.3-1.3c-0.4-0.3-0.6-0.6-0.9-0.4c-0.2,0.2,0.2,0.5,0.5,0.8   c0.3,0.3,0.9,0.9,1.4,1c0.4,0.2,0.6,0.3,0.7,0.5C291.5,263.7,292,263.8,291.5,263.4"/>
    <path class="st0"
          d="M255.8,200.8c-3.5,0.1-7.6-0.4-9.9-1.3c-0.8,0.2-1.6,0.4-2.4,0.5c3.7,1.4,6.9,2,12.3,2c5.5-0.1,8.6-0.6,12.3-2   c-0.8-0.2-1.6-0.4-2.4-0.5C263.5,200.4,259.3,200.9,255.8,200.8"/>
    <path class="st0"
          d="M268.6,197.9c-0.3-0.2-1.9-1.4-2.3-1.6c-0.4-0.2-0.1-0.8,0-1c0.1-0.2,1.9-0.7,2.9-1c1-0.3,0.8-0.5,0.8-0.5   s-0.6-0.7-4.2-1.1c-3.6-0.4-10-0.3-10-0.3s-6.4-0.1-10,0.3c-3.6,0.4-4.2,1.1-4.2,1.1s-0.2,0.2,0.8,0.5c1,0.3,2.8,0.8,2.9,1   c0.1,0.2,0.4,0.8,0,1c-0.4,0.2-2,1.3-2.3,1.6c-0.3,0.2-0.3,0.6,0.1,0.6c0.4,0,0.5,0,1.7-0.2c3.7-0.7,7.2-0.9,11-1   c3.7,0.1,7.2,0.3,11,1c1.2,0.3,1.3,0.3,1.7,0.2C268.9,198.5,268.9,198.1,268.6,197.9"/>
    <polygon class="st0" points="242,194.7 240.4,196 242.4,196.8 244.5,195.3  "/>
    <polygon class="st0" points="269.7,194.7 267.2,195.3 269.3,196.8 271.2,196  "/>
    <path class="st0"
          d="M264.5,199.4c-2.5-0.3-4.1-0.6-8.7-0.6c-4.6,0-6.2,0.3-8.7,0.6c1.6,0.6,4.1,0.9,8.7,0.9   C260.4,200.4,263,200,264.5,199.4"/>
    <path class="st3"
          d="M259.3,271.3c-0.3-0.5-0.4-0.4-0.7-0.1c-0.3,0.3-0.7-0.7-0.7-1.4c0-0.6,0.3-2.6,0.3-2.6s-1.7,0.3-2.5,0.6   c-0.9,0.3-1.7,0.4-2.5,0.5c-0.7,0.2-1.1,0.3-1.5,0.3c-0.4-0.1-1.2-0.1-1.8-0.1s-0.6,0.1-1.2,0.8c-0.6,0.6-0.8,1-1.3,2.2   c-0.5,1.2-0.7,2.3-0.8,3.7c-0.1,0.9-0.3,1.6-0.4,1.9h7.6c0.1-0.2,0.2-0.5,0.3-0.8c0.2-0.4,0.6-0.7,0.9-0.9c0.3-0.1,0.6-0.1,0.7-0.5   c0.1-0.3,0.5-0.6,0.9-0.8c0.4-0.2,1.1-0.1,1.7,0.1c0.6,0.2,0.9-0.3,1-0.5c0.2-0.2,0.3-0.6,0.6-1c0.3-0.4,0.1-0.8,0.1-0.8   S259.6,271.8,259.3,271.3"/>
    <path class="st3"
          d="M271.5,271.5c-0.1-0.4-0.1-0.5-0.3-0.6c-0.3-0.1-0.7-0.1-1.1-0.3c-0.4-0.2-0.3,0.9-0.3,0.9s-0.9,0.1-1.9,0   c-1-0.1-2.2-1-2.6-1.3c-0.4-0.3-0.9-1-0.9-1s-0.3,0.3-0.6,0.5c-0.3,0.2-0.5,0.8-0.6,1.4c-0.1,0.6,0.7,1.4,0.8,2   c0.1,0.6-0.7,1.9-1.1,2.4c-0.3,0.4-0.6,1.1-0.8,1.5h3.7c0.1-0.2,0.2-0.4,0.4-0.6c0.4-0.4,1-0.5,1-0.5s0-0.2,0.1-0.5   c0.1-0.3,0.5-0.7,1.4-1.1c0.9-0.4,2-0.4,2-0.4s0.4-0.4,0.7-0.9C271.8,272.7,271.6,271.9,271.5,271.5"/>
    <polygon class="st0"
             points="255.1,165.4 257,165.2 256.8,163.5 258.8,163.8 258.9,162.2 256.8,162.4 257.2,160.6 254.8,160.6    255.2,162.4 253.1,162.2 253.1,163.8 255.2,163.6  "/>
    <path class="st0"
          d="M259.2,168h-2.5v-2.2c-0.2,0-0.5-0.1-0.8-0.1c-0.2,0-0.4,0-0.7,0.1v2.2h-2.6c-0.1,0.3-0.1,0.6-0.1,0.9   c0,0.1,0,0.3,0,0.4h2.7h1.4h2.7c0-0.1,0-0.2,0-0.4C259.4,168.6,259.3,168.3,259.2,168"/>
    <path class="st3" d="M255.9,172c1.5,0,2.8-0.9,3.3-2.1h-6.5C253.1,171.1,254.4,172,255.9,172"/>
    <path class="st3" d="M257.3,166.1v1.5h1.7C258.7,166.9,258.1,166.4,257.3,166.1"/>
    <path class="st3" d="M254.5,166.1c-0.7,0.3-1.3,0.8-1.7,1.5h1.7V166.1z"/>
    <path class="st2"
          d="M257.9,193.8c-0.6-0.3-2-0.9-2-0.9s-1.3,0.7-2.1,1c-0.7,0.4-0.6,0.3-0.9,0.8c-0.2,0.5,0,0.7,0.3,0.9   c0.3,0.1,2.6,1.3,2.6,1.3s2.3-1.1,2.8-1.3c0.5-0.3,0.4-0.5,0.3-0.9C258.8,194.2,258.5,194.1,257.9,193.8"/>
    <path class="st2"
          d="M262.5,193.1c1.1,0,2,0.9,2,1.9c0,1.1-0.9,1.9-2,1.9c-1.1,0-2-0.9-2-1.9C260.5,194,261.4,193.1,262.5,193.1"/>
    <path class="st2"
          d="M249.1,193.1c1.1,0,2,0.9,2,1.9c0,1.1-0.9,1.9-2,1.9c-1.1,0-2-0.9-2-1.9C247.1,194,248,193.1,249.1,193.1"/>
    <polygon class="st0" points="253.6,194.4 255.9,195.6 258.1,194.4 255.8,193.4  "/>
    <path class="st0"
          d="M262.5,193.5c0.7,0,1.2,0.5,1.2,1.2c0,0.6-0.5,1.2-1.2,1.2c-0.7,0-1.2-0.5-1.2-1.2   C261.3,194,261.9,193.5,262.5,193.5"/>
    <path class="st0"
          d="M249.1,193.5c0.7,0,1.2,0.5,1.2,1.2c0,0.6-0.5,1.2-1.2,1.2c-0.7,0-1.2-0.5-1.2-1.2   C247.9,194,248.4,193.5,249.1,193.5"/>
    <path class="st0"
          d="M244.9,188.4c0.5,0.2,1.2,0.1,1.2,0.1s0.2-0.9-0.3-1.3c-0.5-0.4-0.9-0.7-1.2-1c-0.3-0.3-0.4-0.4-0.4-0.4   s0,0.8,0,1.3C244.2,187.5,244.4,188.2,244.9,188.4"/>
    <path class="st0"
          d="M246,189.1c0.2,0,0.4,0.2,0.4,0.3c0,0.2-0.2,0.4-0.4,0.4c-0.2,0-0.4-0.2-0.4-0.4   C245.6,189.2,245.8,189.1,246,189.1"/>
    <path class="st0"
          d="M243.3,189c-0.2,0.2-0.5,0.6-0.5,0.6s0.4,0,0.7,0.3c0.3,0.2,0.8,0.4,1.2,0.4c0.4,0,0.6-0.4,0.5-0.7   c-0.1-0.3-0.3-0.5-0.9-0.8C243.6,188.5,243.4,188.8,243.3,189"/>
    <path class="st0"
          d="M244.7,191.4c-1.3,0.1-2.9-1.3-2.9-1.3c-0.2,1.1-0.8,1.7-1.9,1.9l0.1,0.1c0,0,1,0.5,2.1,0.7   c0.5,0.1,1,0,1.6-0.1c0.7-0.1,1.4-0.3,1.9-0.6c0.8-0.5,0.5-1.7,0.5-1.7S245.9,191.3,244.7,191.4"/>
    <path class="st0"
          d="M239.8,190.1c-0.5-0.2-1.3-0.6-1.6-0.6c-0.3,0-0.8-0.1-0.7,0.5c0.1,0.6,0.7,0.9,1.3,0.9c0.6,0,0.9-0.2,1.3-0.4   C240.3,190.4,240.3,190.3,239.8,190.1"/>
    <path class="st0"
          d="M235.8,188c-0.6-0.4-1.1-0.5-1.1-0.5s-0.4,1-0.2,1.6c0.2,0.6,0.6,0.8,1.2,0.7c0.5,0,1.3-0.3,1.1-0.7   C236.6,188.7,236.4,188.4,235.8,188"/>
    <path class="st0"
          d="M236.3,190.4c0.2,0,0.4,0.1,0.4,0.3c0,0.2-0.2,0.3-0.4,0.3c-0.2,0-0.4-0.1-0.4-0.3   C235.9,190.5,236.1,190.4,236.3,190.4"/>
    <path class="st0"
          d="M237.5,185.9c-0.3-1.7-0.3-3.5,1.3-5.8c1.6-2.3,4.3-3.2,4.3-3.2s0.1-0.2,0.9-1.1c0.9-0.9,2.6-2.1,2.6-2.1   s-2.1,0.5-3.2,0.9v0.1c0,0.8-0.6,1.4-1.4,1.4c-0.3,0-0.6-0.1-0.8-0.3c-0.6,0.1-2.8,1.4-3.3,1.8c0.1,0.2,0.2,0.5,0.2,0.8   c0,0.8-0.6,1.4-1.4,1.4c-0.2,0-0.5-0.1-0.6-0.2c-0.1,0.1-0.1,0.2-0.2,0.3c-0.4,0.8-0.8,1.6-1,2.3c0.4,0.3,0.6,0.7,0.6,1.3   c0,0.8-0.5,1.4-1.2,1.4c0,0.5,0,0.8,0,0.9c0.1,0.5,0.2,0.8,1,1c0.8,0.2,1.9,1.7,1.9,1.7C237.4,188.6,238,187.5,237.5,185.9"/>
    <path class="st0"
          d="M242.5,175.3c0.3-0.2,0.3-0.6,0.1-0.8c-0.2-0.2-0.7-0.2-1,0.1c-0.3,0.2-0.3,0.6-0.1,0.8   C241.8,175.5,242.2,175.5,242.5,175.3"/>
    <path class="st0"
          d="M237.3,178.8c0.3-0.3,0.4-0.8,0.1-1c-0.3-0.3-0.7-0.2-1.1,0.1c-0.3,0.3-0.4,0.8-0.1,1   C236.4,179.2,236.9,179.1,237.3,178.8"/>
    <path class="st0"
          d="M234.1,182.5c0.5,0,0.8,0.4,0.8,0.8c0,0.4-0.4,0.8-0.8,0.8c-0.4,0-0.8-0.4-0.8-0.8   C233.3,182.9,233.7,182.5,234.1,182.5"/>
    <path class="st0"
          d="M251.7,172c-0.4,0.1-1.2,0.3-2.4,1h0c0.8,0,1.5,0.5,1.5,1.2s-0.7,1.4-1.6,1.4c-0.8,0-1.4-0.7-1.4-1.4   c0-0.2,0-0.3,0.1-0.5c-0.3,0.2-0.7,0.5-1.1,0.7c-2.6,1.7-3.2,2.6-4.5,5c-1.3,2.4-1.7,5-1.2,6.5c0.6,1.5,2.6,1.9,2.6,1.9   c0,0-0.2-0.2-0.3-0.5c0-0.3,0.1-0.4,0.1-1c0.1-0.6,0-1.3,0-1.3s0.5-0.1,0.7,0.3c0.3,0.3,0.6,0.7,0.9,1c0.3,0.3,1,0.9,1,0.9   s0.4-0.6,0.4-1.3c0-0.7-0.5-1.4-0.6-2.7c-0.1-1.2,0.6-3.4,1.7-5c1.2-1.6,3.4-3.1,4.1-3.4c0.7-0.3,0.8-0.8,0.8-1.1   c0-0.3,0.1-0.5,0.1-1.2C253,171.8,252.4,171.9,251.7,172"/>
    <path class="st0"
          d="M249.1,174.8c0.5,0,0.9-0.4,0.9-0.8c0-0.4-0.4-0.7-0.8-0.7c-0.5,0-0.8,0.3-0.8,0.7   C248.3,174.4,248.7,174.8,249.1,174.8"/>
    <path class="st0"
          d="M253,190c0.6,0.3,1.3,0.1,1.7-0.1c0.3-0.2,0.4-0.8,0-1.1c-0.4-0.3-1-0.3-1.3-0.1c-0.4,0.2-1.2,0.8-1.2,0.8   S252.3,189.7,253,190"/>
    <path class="st0"
          d="M255,190.7c-0.2,0.3-0.4,0.6-1.1,0.6c-0.7,0-1.4,0-1.9-0.5c-0.4-0.5-0.8-1.1-0.8-1.1l-0.8,0   c0,0-0.3,1.1-0.6,1.4c-0.3,0.3-1.6,0.3-2.1,0c-0.5-0.4-1-0.9-1.1-0.8c-0.1,0.1,0,0.5,0.5,0.9c0.5,0.5,0.9,0.8,1.8,0.8h5   c0,0,1,0.1,1.3-0.5c0.3-0.6,0.3-1,0.2-1.1C255.3,190.1,255.2,190.3,255,190.7"/>
    <path class="st0"
          d="M247.4,189.8c0.7,0.4,1.2,0.2,1.4-0.2c0.3-0.3,0.3-0.5,0.3-0.5s-0.7-0.3-1-0.5c-0.3-0.2-0.6-0.4-0.9-0.3   c-0.3,0-0.4,0.1-0.4,0.1S246.7,189.4,247.4,189.8"/>
    <path class="st0"
          d="M257,188.7c-0.4,0.3-0.3,0.9,0.1,1.1c0.3,0.2,1,0.4,1.7,0.1c0.6-0.3,0.8-0.6,0.8-0.6s-0.8-0.6-1.2-0.8   C258,188.4,257.4,188.4,257,188.7"/>
    <path class="st0"
          d="M263.9,191c-0.5,0.4-1.7,0.3-2.1,0c-0.3-0.3-0.6-1.4-0.6-1.4l-0.8,0c0,0-0.3,0.6-0.8,1.1   c-0.5,0.5-1.2,0.5-1.9,0.5c-0.7,0-0.9-0.2-1.1-0.6c-0.2-0.3-0.3-0.6-0.5-0.5c-0.1,0.1-0.1,0.5,0.2,1.1c0.3,0.6,1.3,0.5,1.3,0.5h5   c0.9,0,1.3-0.3,1.8-0.8c0.5-0.5,0.6-0.9,0.5-0.9C264.9,190.1,264.4,190.6,263.9,191"/>
    <path class="st0"
          d="M263.6,188.7c-0.3,0.2-1,0.5-1,0.5s0,0.2,0.3,0.5c0.3,0.3,0.7,0.6,1.4,0.2c0.7-0.4,0.6-1.4,0.6-1.4   s0-0.1-0.4-0.1C264.1,188.3,263.9,188.5,263.6,188.7"/>
    <path class="st0"
          d="M267.5,187c0-0.5,0-1.3,0-1.3s-0.1,0.1-0.4,0.4c-0.3,0.3-0.7,0.6-1.2,1c-0.5,0.4-0.3,1.3-0.3,1.3   s0.7,0.1,1.2-0.1C267.3,188.2,267.5,187.5,267.5,187"/>
    <path class="st0"
          d="M266.1,189.4c0-0.2-0.2-0.3-0.4-0.3c-0.2,0-0.4,0.2-0.4,0.3c0,0.2,0.2,0.3,0.4,0.3   C265.9,189.7,266.1,189.6,266.1,189.4"/>
    <path class="st0"
          d="M267,190.2c0.4,0,0.8-0.2,1.2-0.4c0.3-0.2,0.7-0.3,0.7-0.3s-0.3-0.3-0.5-0.6c-0.2-0.2-0.3-0.5-1-0.3   c-0.6,0.2-0.8,0.5-0.9,0.8C266.5,189.8,266.6,190.2,267,190.2"/>
    <path class="st0"
          d="M269.9,190.1c0,0-1.7,1.4-2.9,1.3c-1.3-0.1-1.4-1-1.4-1s-0.2,1.2,0.5,1.7c0.4,0.3,1.2,0.5,1.9,0.6   c0.6,0.1,1,0.2,1.6,0.1c1.2-0.2,2.1-0.7,2.1-0.7l0.1,0C270.8,191.8,270.1,191.2,269.9,190.1"/>
    <path class="st0"
          d="M273.5,189.5c-0.3,0-1.1,0.4-1.6,0.6c-0.5,0.2-0.6,0.3-0.2,0.4c0.4,0.2,0.7,0.4,1.3,0.4c0.6,0,1.2-0.3,1.3-0.9   C274.3,189.4,273.9,189.5,273.5,189.5"/>
    <path class="st0"
          d="M275.9,188c-0.6,0.4-0.8,0.7-1.1,1.1c-0.2,0.4,0.6,0.7,1.1,0.7c0.5,0,1-0.1,1.2-0.7c0.2-0.6-0.2-1.6-0.2-1.6   S276.4,187.6,275.9,188"/>
    <path class="st0"
          d="M275.3,190.4c0.2,0,0.4,0.1,0.4,0.3c0,0.2-0.2,0.3-0.4,0.3c-0.2,0-0.4-0.1-0.4-0.3   C274.9,190.5,275.1,190.4,275.3,190.4"/>
    <path class="st0"
          d="M276.1,183.6c0-0.5,0.2-1,0.6-1.3c-0.2-0.7-0.6-1.5-1-2.3c0-0.1-0.1-0.2-0.2-0.3c-0.2,0.1-0.4,0.2-0.6,0.2   c-0.8,0-1.4-0.6-1.4-1.4c0-0.3,0.1-0.5,0.2-0.8c-0.5-0.5-2.7-1.7-3.3-1.8c-0.2,0.2-0.5,0.3-0.8,0.3c-0.8,0-1.4-0.6-1.4-1.4v-0.1   c-1.2-0.4-3.2-0.9-3.2-0.9s1.8,1.2,2.6,2.1c0.9,0.9,1,1.1,1,1.1s2.7,0.9,4.3,3.2c1.6,2.3,1.6,4.1,1.3,5.8c-0.4,1.7,0.2,2.7,0.2,2.7   c0,0,1.1-1.4,1.9-1.7c0.8-0.2,1-0.5,1-1c0-0.1,0-0.5,0-0.9C276.7,185,276.1,184.3,276.1,183.6"/>
    <path class="st0"
          d="M269.1,175.3c0.3,0.2,0.7,0.3,1,0.1c0.2-0.2,0.2-0.6-0.1-0.8c-0.3-0.2-0.7-0.3-1-0.1   C268.8,174.7,268.8,175,269.1,175.3"/>
    <path class="st0"
          d="M274.4,178.8c0.3,0.3,0.8,0.3,1.1,0.1c0.3-0.3,0.2-0.7-0.1-1c-0.3-0.3-0.8-0.3-1.1-0.1   C274,178.1,274.1,178.5,274.4,178.8"/>
    <path class="st0"
          d="M277.5,182.5c0.4,0,0.8,0.4,0.8,0.8c0,0.4-0.4,0.8-0.8,0.8c-0.5,0-0.8-0.4-0.8-0.8   C276.7,182.9,277.1,182.5,277.5,182.5"/>
    <path class="st0"
          d="M258.9,173.8c0,0.3,0.1,0.8,0.8,1.1c0.7,0.3,2.9,1.8,4.1,3.4c1.2,1.6,1.8,3.8,1.7,5c-0.1,1.2-0.6,2-0.6,2.7   c0,0.7,0.4,1.3,0.4,1.3s0.7-0.6,0.9-0.9c0.3-0.3,0.6-0.7,0.9-1c0.3-0.3,0.7-0.3,0.7-0.3s-0.1,0.7,0,1.3c0.1,0.6,0.2,0.7,0.1,1   c0,0.3-0.3,0.5-0.3,0.5c0,0,2.1-0.3,2.6-1.9c0.6-1.5,0.1-4.2-1.2-6.5c-1.3-2.4-1.9-3.2-4.5-5c-0.4-0.3-0.8-0.5-1.1-0.7   c0.1,0.1,0.1,0.3,0.1,0.5c0,0.7-0.6,1.4-1.4,1.4c-0.8,0-1.6-0.7-1.6-1.4s0.6-1.2,1.5-1.2h0c-1.2-0.6-1.9-0.9-2.4-1   c-0.7-0.1-1.3-0.2-1.3,0.6C258.8,173.3,258.8,173.5,258.9,173.8"/>
    <path class="st0"
          d="M255.8,185.7c0,0-0.2,0.8-0.4,1.1c-0.3,0.3-0.4,0.6-0.4,1c0.1,0.4,0.5,0.7,0.8,0.7s0.7-0.3,0.8-0.7   c0.1-0.4-0.1-0.7-0.4-1C256,186.5,255.8,185.7,255.8,185.7"/>
    <path class="st0"
          d="M255.8,188.9c0.2,0,0.4,0.2,0.4,0.4c0,0.2-0.2,0.4-0.4,0.4c-0.2,0-0.4-0.2-0.4-0.4   C255.4,189.1,255.6,188.9,255.8,188.9"/>
    <path class="st0"
          d="M254.3,187.2c0,0,0.7-0.8,1-1.3c0.3-0.5,0.5-1,0.5-1s0.2,0.5,0.5,1c0.3,0.5,1,1.3,1,1.3s1-0.5,1.6-2.5   c0.6-2-0.1-4-0.4-6.3c-0.3-2.2-0.5-6.1-0.5-6.1c-0.8,0.4-1.5,0.6-2.2,0.6c-0.7,0-1.4-0.2-2.2-0.6c0,0-0.2,3.8-0.5,6.1   c-0.3,2.2-1,4.3-0.4,6.3C253.3,186.6,254.3,187.2,254.3,187.2"/>
    <path class="st0"
          d="M261.7,174c0,0.4,0.4,0.8,0.9,0.8c0.5,0,0.8-0.4,0.8-0.8c0-0.4-0.4-0.7-0.8-0.7   C262,173.3,261.7,173.6,261.7,174"/>
    <path class="st2"
          d="M243.8,180.8c0.9,0,1.6,0.7,1.6,1.6c0,0.9-0.7,1.6-1.6,1.6c-0.9,0-1.7-0.7-1.7-1.6   C242.2,181.6,242.9,180.8,243.8,180.8"/>
    <path class="st2"
          d="M246.7,176.8c-0.7-0.4-1.6-0.3-2.2,0.4c-0.5,0.7-0.4,1.6,0.2,2c0.7,0.4,1.6,0.3,2.2-0.4   C247.5,178.1,247.4,177.2,246.7,176.8"/>
    <path class="st0"
          d="M243.7,181.4c0.5,0,1,0.4,1,0.9c0,0.5-0.4,0.9-1,0.9c-0.5,0-1-0.4-1-0.9C242.8,181.8,243.2,181.4,243.7,181.4"/>
    <path class="st0" d="M246,177c-0.4-0.1-1,0.1-1.2,0.5c-0.2,0.4,0,0.8,0.6,0.9C246.4,178.5,247,177.2,246,177"/>
    <path class="st2" d="M255.8,181c1,0,1.8,0.8,1.8,1.7s-0.8,1.7-1.8,1.7c-1,0-1.8-0.8-1.8-1.7S254.9,181,255.8,181"/>
    <path class="st2"
          d="M255.8,177.1c0.9,0,1.7,0.7,1.7,1.6c0,0.9-0.8,1.6-1.7,1.6c-0.9,0-1.7-0.7-1.7-1.6   C254.1,177.8,254.9,177.1,255.8,177.1"/>
    <path class="st2"
          d="M255.8,173.3c0.9,0,1.6,0.7,1.6,1.6c0,0.9-0.7,1.6-1.6,1.6c-0.9,0-1.6-0.7-1.6-1.6   C254.2,174,254.9,173.3,255.8,173.3"/>
    <path class="st2"
          d="M267.9,180.8c-0.9,0-1.6,0.7-1.6,1.6c0,0.9,0.7,1.6,1.6,1.6c0.9,0,1.7-0.7,1.7-1.6   C269.5,181.6,268.8,180.8,267.9,180.8"/>
    <path class="st2"
          d="M267.2,177.2c-0.5-0.7-1.5-0.8-2.2-0.4c-0.7,0.5-0.8,1.4-0.2,2c0.5,0.7,1.5,0.8,2.2,0.4   C267.6,178.8,267.7,177.9,267.2,177.2"/>
    <path class="st0"
          d="M267.9,181.4c0.5,0,1,0.4,1,0.9c0,0.5-0.4,0.9-1,0.9c-0.5,0-1-0.4-1-0.9C267,181.8,267.4,181.4,267.9,181.4"/>
    <path class="st0"
          d="M265.7,177c-0.9,0.3-0.4,1.6,0.6,1.4c0.6-0.1,0.8-0.5,0.6-0.9C266.6,177.1,266.1,176.9,265.7,177"/>
    <path class="st0"
          d="M255.8,181.5c0.5,0,0.9,0.4,0.9,0.9c0,0.5-0.4,0.9-0.9,0.9c-0.5,0-0.9-0.4-0.9-0.9   C254.9,181.9,255.3,181.5,255.8,181.5"/>
    <path class="st0"
          d="M255.8,177.6c0.5,0,0.9,0.4,0.9,0.9c0,0.5-0.4,0.9-0.9,0.9c-0.5,0-0.9-0.4-0.9-0.9   C254.9,178,255.3,177.6,255.8,177.6"/>
    <path class="st0"
          d="M255.8,173.9c0.4,0,0.8,0.3,0.8,0.8c0,0.4-0.3,0.8-0.8,0.8c-0.4,0-0.8-0.3-0.8-0.8   C255,174.2,255.4,173.9,255.8,173.9"/>
    <path class="st2"
          d="M311.2,298.8c0.8,0,1.5,0.6,1.5,1.4c0,0.8-0.6,1.5-1.5,1.5c-0.8,0-1.5-0.6-1.5-1.5   C309.7,299.5,310.4,298.8,311.2,298.8"/>
    <path class="st2"
          d="M315.3,299.8c0.8,0,1.5,0.7,1.5,1.5c0,0.8-0.7,1.5-1.5,1.5s-1.5-0.7-1.5-1.5   C313.8,300.5,314.5,299.8,315.3,299.8"/>
    <path class="st2"
          d="M327.2,302.3c0.8,0,1.5,0.7,1.5,1.5s-0.7,1.5-1.5,1.5c-0.8,0-1.5-0.7-1.5-1.5S326.4,302.3,327.2,302.3"/>
    <path class="st2"
          d="M319.4,300.8c0.8,0,1.5,0.7,1.5,1.5c0,0.8-0.7,1.5-1.5,1.5s-1.5-0.7-1.5-1.5   C317.9,301.4,318.6,300.8,319.4,300.8"/>
    <path class="st2"
          d="M320.5,297.2c0.8,0,1.5,0.7,1.5,1.5c0,0.8-0.7,1.5-1.5,1.5c-0.8,0-1.5-0.7-1.5-1.5   C319,297.9,319.6,297.2,320.5,297.2"/>
    <path class="st2"
          d="M321.5,293.6c0.8,0,1.5,0.7,1.5,1.5s-0.7,1.5-1.5,1.5c-0.8,0-1.5-0.7-1.5-1.5S320.7,293.6,321.5,293.6"/>
    <path class="st0"
          d="M311.3,299.4c0.4,0,0.7,0.3,0.7,0.7c0,0.4-0.3,0.7-0.7,0.7c-0.4,0-0.7-0.3-0.7-0.7   C310.6,299.8,310.9,299.4,311.3,299.4"/>
    <path class="st0"
          d="M315.4,300.4c0.4,0,0.7,0.3,0.7,0.7c0,0.4-0.3,0.7-0.7,0.7c-0.4,0-0.7-0.3-0.7-0.7   C314.7,300.7,315,300.4,315.4,300.4"/>
    <path class="st0"
          d="M327.3,302.9c0.4,0,0.7,0.3,0.7,0.7s-0.3,0.7-0.7,0.7c-0.4,0-0.7-0.3-0.7-0.7S326.9,302.9,327.3,302.9"/>
    <path class="st0"
          d="M319.5,301.4c0.4,0,0.7,0.3,0.7,0.7s-0.3,0.7-0.7,0.7c-0.4,0-0.7-0.3-0.7-0.7S319.1,301.4,319.5,301.4"/>
    <path class="st0"
          d="M320.6,297.8c0.4,0,0.7,0.3,0.7,0.7c0,0.4-0.3,0.7-0.7,0.7c-0.4,0-0.7-0.3-0.7-0.7   C319.8,298.1,320.2,297.8,320.6,297.8"/>
    <path class="st0"
          d="M321.6,294.2c0.4,0,0.7,0.3,0.7,0.7c0,0.4-0.3,0.7-0.7,0.7c-0.4,0-0.7-0.3-0.7-0.7   C320.9,294.6,321.2,294.2,321.6,294.2"/></g></svg>
