<?xml version="1.0" ?>
<svg id="Layer_1" style="enable-background:new 0 0 512 512;" version="1.1" viewBox="0 0 512 512" xml:space="preserve"
     xmlns="http://www.w3.org/2000/svg"><style type="text/css">
	.st0 {
    fill: #58B44D;
  }

  .st1 {
    fill: #FFFFFF;
  }

  .st2 {
    fill: #EA0042;
  }

  .st3 {
    fill: #CFB428;
  }
</style>
  <g><rect class="st0" height="85.3" width="512" y="320.1"/>
    <rect class="st1" height="128.1" width="512" y="191.9"/>
    <rect class="st2" height="85.3" width="512" y="106.7"/>
    <path class="st3"
          d="M255.6,286.3c2.5,3,11.5,6.1,19.2,2.2c1.2,3.6,10.8,9.5,19.5,3.2c-9.4-1.3-14.5-4.4-19.7-11.4   c-5.2,4.2-13.7,0.4-15.6-1.6l0.1-24.2l12.4-12.2c0-2.6-8-10.1-15.9-10.1c-8,0-15.9,7.4-15.9,10.1l12.4,12.2l0.1,24.2   c-1.9,2-10.4,5.7-15.6,1.6c-5.2,7-10.3,10.1-19.7,11.4c8.6,6.3,18.3,0.4,19.5-3.2C244.1,292.5,253.1,289.3,255.6,286.3L255.6,286.3   z M255.6,250.4c-3.1-5.3-9.4-7.3-9.4-7.3s3.2-5.2,9.4-5.2c6.2,0,9.4,5.2,9.4,5.2S258.7,245.1,255.6,250.4"/>
    <path class="st3"
          d="M255.6,298.9c-11.4,0-18.6,4-22.3,8.2l-3.2-3.4c2.9-3.5,6.8-4.8,7.7-9.2c1-3.1-1.2-5.5-1.2-5.5   s3.2,4.4,11.2,4.4c4.9,0,7.9-5.4,7.9-5.4 M255.6,287.9c0,0,3,5.4,7.9,5.4c8,0,11.2-4.4,11.2-4.4s-2.2,2.4-1.2,5.5   c1,4.4,4.9,5.7,7.7,9.2L278,307c-3.8-4.2-11-8.2-22.3-8.2"/>
    <polygon class="st3"
             points="310.4,259.3 312.6,266 319.6,266 313.9,270.1 316.1,276.7 310.4,272.6 304.8,276.7 307,270.1    301.3,266 308.3,266  "/>
    <polygon class="st3"
             points="303.1,232.1 305.3,238.7 312.3,238.7 306.6,242.8 308.8,249.5 303.1,245.4 297.5,249.5 299.7,242.8    294,238.7 301,238.7  "/>
    <polygon class="st3"
             points="283.2,212.2 285.4,218.8 292.4,218.8 286.7,222.9 288.9,229.6 283.2,225.4 277.6,229.6 279.7,222.9    274.1,218.8 281.1,218.8  "/>
    <polygon class="st3"
             points="256,204.9 258.2,211.5 265.1,211.5 259.5,215.6 261.6,222.3 256,218.2 250.4,222.3 252.5,215.6    246.9,211.5 253.8,211.5  "/>
    <polygon class="st3"
             points="228.8,212.2 230.9,218.8 237.9,218.8 232.3,222.9 234.4,229.6 228.8,225.4 223.1,229.6 225.3,222.9    219.6,218.8 226.6,218.8  "/>
    <polygon class="st3"
             points="208.9,232.1 211,238.7 218,238.7 212.3,242.8 214.5,249.5 208.9,245.4 203.2,249.5 205.4,242.8    199.7,238.7 206.7,238.7  "/>
    <polygon class="st3"
             points="201.6,259.3 203.7,266 210.7,266 205,270.1 207.2,276.7 201.6,272.6 195.9,276.7 198.1,270.1    192.4,266 199.4,266  "/></g></svg>
