<?xml version="1.0" ?>
<svg id="Layer_1" style="enable-background:new 0 0 512 512;" version="1.1" viewBox="0 0 512 512" xml:space="preserve"
     xmlns="http://www.w3.org/2000/svg"><style type="text/css">
	.st0 {
    fill: #272E68;
  }

  .st1 {
    fill: #FFFFFF;
  }

  .st2 {
    fill: #BD1F38;
  }

  .st3 {
    fill: #3B71B8;
  }

  .st4 {
    fill: #D87134;
  }
</style>
  <g id="XMLID_1_"><rect class="st0" height="298.7" id="XMLID_17_" width="512" y="106.7"/>
    <polygon class="st1" id="XMLID_16_"
             points="238.4,106.7 156.5,147.6 156.5,106.7 111.8,106.7 111.8,147.6 30,106.7 0,106.7    0,121.7 59.5,151.4 0,151.4 0,196.1 59.5,196.1 0,225.8 0,240.8 30,240.8 111.8,199.9 111.8,240.8 156.5,240.8 156.5,199.9    238.4,240.8 268.4,240.8 268.4,225.8 208.9,196.1 268.4,196.1 268.4,151.4 208.9,151.4 268.4,121.7 268.4,106.7  "/>
    <polygon class="st2" id="XMLID_15_" points="268.4,106.7 248.4,106.7 158.9,151.4 178.9,151.4  "/>
    <polygon class="st2" id="XMLID_14_" points="0,106.7 0,116.7 69.5,151.4 89.5,151.4  "/>
    <polygon class="st2" id="XMLID_13_" points="89.5,196.1 0,240.8 20,240.8 109.5,196.1  "/>
    <polygon class="st2" id="XMLID_12_" points="178.9,196.1 268.4,240.8 268.4,230.8 198.9,196.1  "/>
    <polygon class="st2" id="XMLID_11_"
             points="120.8,106.7 120.8,160.3 0,160.3 0,187.2 120.8,187.2 120.8,240.8 147.6,240.8    147.6,187.2 268.4,187.2 268.4,160.3 147.6,160.3 147.6,106.7  "/>
    <path class="st1"
          d="M390.5,191.4c-20.7,11.9-43.1,11.5-57.1,2v74.1c0,25.7,15.6,54.5,57.1,69.5   c41.5-15,57.1-43.8,57.1-69.5v-74.1C433.6,202.9,411.3,203.3,390.5,191.4"
          id="XMLID_10_"/>
    <path class="st3" d="M338.4,292.1c7.4,17.8,23.7,34.5,52.1,44.8c28.4-10.3,44.7-27,52.1-44.8H338.4z" id="XMLID_9_"/>
    <path class="st4"
          d="M428,225.5c-6.7-6.2-14.5-3.4-20.7-8.8c-5.4-4.6-13.2-6.5-19.2-6c0.4-0.8,0.9-1.7,1.3-2.5   c-28.3,6.7-31.4,44.1-5.6,48.4c0.3-3.9-2.8-6.4-3-10.2c1.2,0.3,2.7,0.8,3.6,1.4c-0.4-4.4-4.3-5.3-4.2-10.8c0.3-11,5.9-17.9,16-18.7   c4.8-0.4,11.3,1.5,13.3,5.6c0.8,1.5,2.3,3.7,3.5,4.9c1.1,1.1,1.1,0.7,1.3-0.9c0.3-3.3,6.2-4.7,13.1-1.5   C429.3,227.4,429.4,226.8,428,225.5"
          id="XMLID_8_"/>
    <path class="st4"
          d="M403.3,246.2c-2.1,1.2-4.7,5.9-8.9,6.4c0.1-1.5,0-4.1-0.3-5.1c-2.4,3.7-3,8.4-9.1,12.6   c-6.8,4.6-19,6.1-25.1-0.5c-3.2-3.5-5.3-8.2-3.5-14.8c1.2-4.4,5-4.6,7.1-6.5c0.6-0.5,0.1-0.6-0.8-0.7c-3.8-0.5-4.9-5.8-1.7-13.7   c0.7-1.8-0.2-1.7-2.3,2c-2.9,5.3-2.9,10.2-4.5,14.7c-3.9,10.6-1.9,25.5,8,30.8c-0.5,0.7-1.1,1.6-1.7,2.4   C382.7,279,405,269.7,403.3,246.2"
          id="XMLID_7_"/>
    <path class="st4"
          d="M397.1,229.4c1.3,2.6,5.1,4.4,6.2,7.9c-1,0-3,0.5-4,1.2c2.8,1.3,4.3,1.5,6.9,3.6l0.6,0.3   c8.3,8.8,11.9,17.5,8.8,25.4c-1.6,3.9-4.8,8.4-10.1,10c-7.1,2.3-9.1-3.6-15.5-2.5c-0.5,0.1-0.1,0.4,0.5,0.7c4,1.7,2.6,6.2-5,9.6   c-0.6,0.3-0.6,0.3,0.7,0.5c4.6,0.5,10.4-1,13.4-2.6c3.8-2,8.4-3.4,12.4-5.3c7.8-3.7,12.1-10.2,13.3-19.3c1.5,1.1,2,2.1,2.7,3.3   C431.3,247.5,421,228.7,397.1,229.4"
          id="XMLID_6_"/>
    <path class="st1"
          d="M374.4,244.5c0.7,0,1.3,0.6,1.3,1.3c0,0.7-0.6,1.3-1.3,1.3c-0.7,0-1.3-0.6-1.3-1.3   C373.1,245.1,373.7,244.5,374.4,244.5"
          id="XMLID_5_"/>
    <path class="st1"
          d="M399.2,254.1c-0.7,0-1.3,0.6-1.3,1.3c0,0.7,0.6,1.3,1.3,1.3c0.7,0,1.3-0.6,1.3-1.3   C400.5,254.7,399.9,254.1,399.2,254.1"
          id="XMLID_4_"/>
    <path class="st1"
          d="M409.5,232.4c-0.7,0-1.3,0.6-1.3,1.3c0,0.7,0.6,1.3,1.3,1.3c0.7,0,1.3-0.6,1.3-1.3   C410.8,233,410.2,232.4,409.5,232.4"
          id="XMLID_3_"/></g></svg>
