<?xml version="1.0" ?>
<svg id="Layer_1" style="enable-background:new 0 0 512 512;" version="1.1" viewBox="0 0 512 512" xml:space="preserve"
     xmlns="http://www.w3.org/2000/svg"><style type="text/css">
	.st0 {
    fill: #345E38;
  }

  .st1 {
    fill: #3A53A4;
  }

  .st2 {
    fill: #F4D130;
  }

  .st3 {
    fill: #FFFFFF;
  }
</style>
  <g><path class="st0" d="M512,106.7L512,106.7L512,106.7z"/>
    <polygon class="st0" points="25.8,405.4 512,405.4 512,121.7  "/>
    <polygon class="st1" points="0,106.7 0,390.3 486.2,106.7  "/>
    <path class="st1" d="M512,106.7L512,106.7L512,106.7z"/>
    <polygon class="st2" points="486.2,106.7 0,390.3 0,405.4 25.8,405.4 512,121.7 512,106.7  "/>
    <g><polygon class="st3" points="98.9,201.8 113.9,190.9 95.4,190.9 89.6,173.2 83.8,190.9 65.3,190.9 80.3,201.8 74.6,219.5     89.6,208.6 104.6,219.5   "/>
      <polygon class="st3"
               points="142.4,237.9 136.7,220.2 131,237.9 112.3,237.9 127.3,248.9 121.6,266.6 136.7,255.6 151.7,266.6     146,248.9 161,237.9   "/>
      <polygon class="st3"
               points="48.2,237.9 42.5,220.2 36.8,237.9 18.2,237.9 33.2,248.9 27.5,266.6 42.5,255.6 57.6,266.6     51.9,248.9 66.9,237.9   "/>
      <polygon class="st3"
               points="33.3,154.7 27.5,172.4 42.5,161.5 57.6,172.4 51.8,154.7 66.9,143.8 48.3,143.8 42.5,126.1     36.7,143.8 18.2,143.8   "/>
      <polygon class="st3"
               points="127.4,154.7 121.6,172.4 136.7,161.5 151.7,172.4 145.9,154.7 161,143.8 142.5,143.8 136.7,126.1     130.9,143.8 112.3,143.8   "/></g></g></svg>
