<?xml version="1.0" ?>
<svg id="Layer_1" style="enable-background:new 0 0 512 512;" version="1.1" viewBox="0 0 512 512" xml:space="preserve"
     xmlns="http://www.w3.org/2000/svg"><style type="text/css">
	.st0 {
    fill: #FFFFFF;
  }

  .st1 {
    fill: #CA202E;
  }

  .st2 {
    fill: #352E89;
  }
</style>
  <g><rect class="st0" height="298.7" width="512" y="106.7"/>
    <rect class="st1" height="298.7" width="99.6" x="206.2" y="106.7"/>
    <rect class="st2" height="99.6" width="512" y="206.2"/>
    <polygon class="st0" points="256,211.6 252.2,223.4 258.1,225.3  "/>
    <polygon class="st0" points="256,211.6 259.8,223.4 253.9,225.3  "/>
    <polygon class="st0" points="267.8,220.2 255.4,220.2 255.4,226.4  "/>
    <polygon class="st0" points="267.8,220.2 257.8,227.5 254.1,222.4  "/>
    <polygon class="st0" points="244.2,220.2 254.2,227.5 257.9,222.4  "/>
    <polygon class="st0" points="244.2,220.2 256.6,220.2 256.6,226.4  "/>
    <polygon class="st0" points="263.3,234.1 259.5,222.2 253.6,224.2  "/>
    <polygon class="st0" points="263.3,234.1 253.2,226.8 256.9,221.7  "/>
    <polygon class="st0" points="248.7,234.1 258.8,226.8 255.1,221.7  "/>
    <polygon class="st0" points="248.7,234.1 252.5,222.2 258.4,224.2  "/>
    <polygon class="st0" points="322.4,239 318.5,250.9 324.4,252.8  "/>
    <polygon class="st0" points="322.4,239 326.2,250.9 320.3,252.8  "/>
    <polygon class="st0" points="334.2,247.7 321.8,247.7 321.8,253.9  "/>
    <polygon class="st0" points="334.2,247.7 324.1,255 320.5,249.9  "/>
    <polygon class="st0" points="310.5,247.7 320.6,255 324.3,249.9  "/>
    <polygon class="st0" points="310.5,247.7 323,247.7 323,253.9  "/>
    <polygon class="st0" points="329.7,261.6 325.8,249.7 319.9,251.6  "/>
    <polygon class="st0" points="329.7,261.6 319.6,254.3 323.3,249.2  "/>
    <polygon class="st0" points="315.1,261.6 325.1,254.3 321.5,249.2  "/>
    <polygon class="st0" points="315.1,261.6 318.9,249.7 324.8,251.6  "/>
    <polygon class="st0" points="283.5,277.9 279.6,289.8 285.6,291.7  "/>
    <polygon class="st0" points="283.5,277.9 287.3,289.8 281.4,291.7  "/>
    <polygon class="st0" points="295.3,286.5 282.9,286.5 282.9,292.8  "/>
    <polygon class="st0" points="295.3,286.5 285.3,293.8 281.6,288.8  "/>
    <polygon class="st0" points="271.7,286.5 281.7,293.8 285.4,288.8  "/>
    <polygon class="st0" points="271.7,286.5 284.1,286.5 284.1,292.8  "/>
    <polygon class="st0" points="290.8,300.4 287,288.6 281,290.5  "/>
    <polygon class="st0" points="290.8,300.4 280.7,293.1 284.4,288.1  "/>
    <polygon class="st0" points="276.2,300.4 286.2,293.1 282.6,288.1  "/>
    <polygon class="st0" points="276.2,300.4 280,288.6 285.9,290.5  "/>
    <polygon class="st0" points="189.6,239 193.5,250.9 187.6,252.8  "/>
    <polygon class="st0" points="189.6,239 185.8,250.9 191.7,252.8  "/>
    <polygon class="st0" points="177.8,247.7 190.2,247.7 190.2,253.9  "/>
    <polygon class="st0" points="177.8,247.7 187.9,255 191.5,249.9  "/>
    <polygon class="st0" points="201.5,247.7 191.4,255 187.7,249.9  "/>
    <polygon class="st0" points="201.5,247.7 189,247.7 189,253.9  "/>
    <polygon class="st0" points="182.3,261.6 186.2,249.7 192.1,251.6  "/>
    <polygon class="st0" points="182.3,261.6 192.4,254.3 188.7,249.2  "/>
    <polygon class="st0" points="196.9,261.6 186.9,254.3 190.5,249.2  "/>
    <polygon class="st0" points="196.9,261.6 193.1,249.7 187.2,251.6  "/>
    <polygon class="st0" points="228.5,277.9 232.4,289.8 226.4,291.7  "/>
    <polygon class="st0" points="228.5,277.9 224.7,289.8 230.6,291.7  "/>
    <polygon class="st0" points="216.7,286.5 229.1,286.5 229.1,292.8  "/>
    <polygon class="st0" points="216.7,286.5 226.7,293.8 230.4,288.8  "/>
    <polygon class="st0" points="240.3,286.5 230.3,293.8 226.6,288.8  "/>
    <polygon class="st0" points="240.3,286.5 227.9,286.5 227.9,292.8  "/>
    <polygon class="st0" points="221.2,300.4 225,288.6 231,290.5  "/>
    <polygon class="st0" points="221.2,300.4 231.3,293.1 227.6,288.1  "/>
    <polygon class="st0" points="235.8,300.4 225.8,293.1 229.4,288.1  "/>
    <polygon class="st0" points="235.8,300.4 232,288.6 226.1,290.5  "/></g></svg>
