<?xml version="1.0" ?>
<svg id="Layer_1" style="enable-background:new 0 0 512 512;" version="1.1" viewBox="0 0 512 512" xml:space="preserve"
     xmlns="http://www.w3.org/2000/svg"><style type="text/css">
	.st0 {
    fill: #E91D26;
  }

  .st1 {
    fill: #40489E;
  }

  .st2 {
    fill: #F2AF23;
  }

  .st3 {
    fill: #FFFFFF;
  }
</style>
  <g><rect class="st0" height="99.6" width="512" y="106.7"/>
    <rect class="st1" height="99.6" width="512" y="206.2"/>
    <rect class="st2" height="99.6" width="512" y="305.8"/>
    <polygon class="st3"
             points="423.5,106.7 423.5,139.8 379.3,139.8 379.3,173 335,173 335,206.2 290.8,206.2 290.8,239.4    246.5,239.4 246.5,272.6 290.8,272.6 290.8,305.8 335,305.8 335,339 379.3,339 379.3,372.2 423.5,372.2 423.5,405.4 512,405.4    512,372.2 467.8,372.2 467.8,339 423.5,339 423.5,305.8 379.3,305.8 379.3,272.6 335,272.6 335,239.4 379.3,239.4 379.3,206.2    423.5,206.2 423.5,173 467.8,173 467.8,139.8 512,139.8 512,106.7  "/></g></svg>
