<?xml version="1.0" ?>
<svg id="Layer_1" style="enable-background:new 0 0 512 512;" version="1.1" viewBox="0 0 512 512" xml:space="preserve"
     xmlns="http://www.w3.org/2000/svg" xmlns:xlink="http://www.w3.org/1999/xlink"><style type="text/css">
	.st0 {
    fill: #FFFFFF;
  }

  .st1 {
    clip-path: url(#SVGID_2_);
  }

  .st2 {
    fill: #A8A6A6;
  }

  .st3 {
    fill: #479D46;
  }

  .st4 {
    fill: #C8202C;
  }

  .st5 {
    fill: #ECBB37;
  }

  .st6 {
    fill: #418CB3;
  }
</style>
  <g><rect class="st0" height="298.7" width="512" y="106.7"/>
    <g><defs><rect height="298.7" id="SVGID_1_" width="512" y="106.7"/></defs>
      <clipPath id="SVGID_2_"><use style="overflow:visible;" xlink:href="#SVGID_1_"/></clipPath>
      <g class="st1"><path class="st2" d="M512.1,405.5H0l-0.1-298.8l512.1-0.1L512.1,405.5L512.1,405.5z M511.9,106.7L0,106.8l0.1,298.6l511.7-0.1     V106.7L511.9,106.7z"/></g></g>
    <rect class="st3" height="94.5" width="512" y="310.9"/>
    <rect class="st4" height="99.5" width="512" y="206.6"/>
    <rect class="st5" height="91.4" width="512" y="210.6"/>
    <rect class="st6" height="95.6" width="512" y="106.7"/>
    <polygon class="st0"
             points="155.1,171.5 147.7,166.4 156.6,166.4 159.2,157.6 162.3,166.4 171.5,166.4 164.2,171.8 167.2,180    159.8,174.9 152.4,180.3  "/>
    <polygon class="st0"
             points="130.8,171.5 123.5,166.4 132.4,166.4 135.1,157.6 138.1,166.4 147.4,166.4 140,171.8 143,180    135.7,174.9 128.2,180.3  "/>
    <polygon class="st0"
             points="106.6,171.5 99.3,166.4 108.2,166.4 110.9,157.6 114,166.4 123.2,166.4 115.9,171.8 118.8,180    111.5,174.9 104.1,180.3  "/>
    <polygon class="st0"
             points="118.7,156 111.4,150.8 120.3,150.8 123,141.9 126.1,150.8 135.3,150.8 127.9,156.2 130.9,164.5    123.6,159.3 116.2,164.8  "/>
    <polygon class="st0"
             points="143,156 135.6,150.8 144.5,150.8 147.1,141.9 150.2,150.8 159.4,150.8 152.1,156.2 155.1,164.5    147.7,159.3 140.3,164.8  "/>
    <path class="st0"
          d="M90.2,178c-1.4,0.2-2.9,0.3-4.4,0.3c-13.8,0-24.9-10.1-24.9-22.6c0-12.5,11.2-22.7,24.9-22.7   c0.9,0,1.8,0,2.7,0.1c-4.3-2.5-9.2-3.9-14.6-3.9c-15.4,0-28.1,12-28.1,26.8c0,14.8,12.7,26.8,28.1,26.8C80,182.9,85.7,181,90.2,178   "/></g></svg>
