<?xml version="1.0" ?>
<svg id="Layer_1" style="enable-background:new 0 0 512 512;" version="1.1" viewBox="0 0 512 512" xml:space="preserve"
     xmlns="http://www.w3.org/2000/svg"><style type="text/css">
	.st0 {
    fill: #398A41;
  }

  .st1 {
    fill: #FFFFFF;
  }

  .st2 {
    fill: #DA1F31;
  }
</style>
  <g id="XMLID_1_"><rect class="st0" height="298.7" id="XMLID_17_" width="512" y="106.7"/>
    <rect class="st1" height="42.7" id="XMLID_16_" width="512" y="149.3"/>
    <rect class="st1" height="42.7" id="XMLID_15_" width="512" y="234.7"/>
    <rect class="st1" height="42.7" id="XMLID_14_" width="512" y="320"/>
    <rect class="st2" height="128" id="XMLID_13_" width="227" y="106.7"/>
    <polygon class="st1" id="XMLID_12_"
             points="118.1,127.5 121.1,136.3 113.6,130.7 106,136.3 109.1,127.5 101.4,122.1 110.8,122.2    113.6,113.4 116.3,122.3 125.7,122.1  "/>
    <polygon class="st1" id="XMLID_11_"
             points="186.1,189.6 189.2,198.4 181.7,192.9 174.2,198.4 177.3,189.6 169.6,184.3    178.9,184.4 181.7,175.5 184.4,184.4 193.8,184.3  "/>
    <polygon class="st1" id="XMLID_10_"
             points="49.9,189.6 52.9,198.4 45.4,192.8 37.9,198.4 41,189.5 33.2,184.3 42.6,184.4    45.4,175.5 48.1,184.4 57.6,184.3  "/>
    <polygon class="st1" id="XMLID_9_"
             points="84.5,137 87.5,145.8 80,140.2 72.5,145.8 75.6,137 67.9,131.7 77.2,131.8 80,122.9    82.7,131.9 92.2,131.7  "/>
    <polygon class="st1" id="XMLID_8_"
             points="151.5,137 154.5,145.8 147,140.2 139.5,145.8 142.6,137 134.9,131.7 144.3,131.8    147,122.9 149.8,131.9 159.2,131.7  "/>
    <polygon class="st1" id="XMLID_7_"
             points="175.6,161.7 178.6,170.5 171.1,164.9 163.6,170.5 166.7,161.7 159,156.4 168.3,156.5    171.1,147.6 173.8,156.5 183.2,156.4  "/>
    <polygon class="st1" id="XMLID_6_"
             points="60.8,161.7 63.9,170.5 56.3,164.9 48.8,170.5 51.9,161.7 44.2,156.4 53.6,156.5    56.3,147.6 59.1,156.5 68.5,156.4  "/>
    <path class="st1"
          d="M100.2,183.9c0,0-2,0.8-0.6,16.4c1.1,12.9,5.7,17,5.7,17l2,8l19,0.1c0,0,0.4-4.9,1.1-6.5   c1.8-3.8,9-8.2,12-14.8c3.3-4,1.6-12.3,8.3-20.2c3.3-3.9-3.8-2.3-3.8-2.3c-3.9,2.6-5.8,5.6-6.8,7.8c-0.7,4.1-3.7,7.5-4,4.6   c0,0-1.1-5.2-4.5-15.2c-0.3-3-1.8-13.2-2.1-21.1c-0.2-5.1-4.7-5.4-5-0.2l-0.5,20.5l-1.1-23.7c-0.5-6.7-5.5-5.7-5.7-0.2l-0.2,24.6   l-0.9-23.9c-1.4-4.6-5-1.9-5.1,3.1l-0.6,23.3c0,0-0.8-12.7-0.9-18.1c-0.2-3.2-4-3-4.3,1.6C101.4,171.5,100.6,176.9,100.2,183.9   L100.2,183.9z"
          id="XMLID_5_"/>
    <g><path class="st2" d="M126.4,225.6l-19.2-0.1l-2.3-8.1c-0.1,0-4.6-4.3-5.7-17.1c-1.3-15.4,0.6-16.6,0.8-16.7    c0.1-3.9,0.4-7.4,0.8-11c0.3-2.5,0.5-5.1,0.7-7.8c0.4-4.9,4.6-5.5,4.8-1.6c0.2,5.4,0.9,18.1,0.9,18.1l0.1-23.3    c0-3.4,1.7-5.7,3.2-5.7c0.6,0,1.7,0.3,2.3,2.5l0.9,24l-0.3-24.6c0.1-3.1,1.7-4.8,3.2-4.8c1.3,0,2.8,1.3,3.1,4.9L121,178l0-20.5    c0.4-5.6,5.3-5.5,5.5,0.2c0.2,6.2,1.2,14.2,1.8,18.4l0.3,2.6c3.3,9.8,4.5,15.1,4.5,15.1c0,0.4,0.1,0.9,0.5,0.9    c0.8,0,2.6-2.5,3.1-5.5c1.5-3.2,3.8-5.9,6.9-7.9c0.1-0.1,1.6-0.4,2.9-0.4c1.1,0,1.8,0.3,2.1,0.8c0.3,0.5,0,1.3-0.8,2.3    c-3.8,4.6-4.9,9.4-5.7,13.3c-0.6,2.8-1.1,5.2-2.5,6.9c-1.7,3.7-4.8,6.8-7.5,9.4c-2,2-3.7,3.7-4.5,5.3c-0.7,1.5-1.1,6.4-1.1,6.4    L126.4,225.6L126.4,225.6z M104.5,161.2c-1,0-2.1,1.1-2.3,3.6c-0.2,2.8-0.5,5.3-0.7,7.8c-0.4,3.6-0.7,7.2-1,11.2    c-0.2,0.3-1.9,1.6-0.6,16.4c1.1,12.6,5.5,16.8,5.6,16.9l2.1,8.1l18.5-0.1c0.1-1,0.4-4.9,1.1-6.3c0.8-1.7,2.6-3.4,4.6-5.5    c2.7-2.6,5.7-5.6,7.4-9.3c1.4-1.7,1.9-4,2.5-6.8c0.9-3.9,1.9-8.8,5.8-13.5c0.6-0.8,0.9-1.4,0.8-1.7c-0.4-0.8-4.3-0.2-4.4-0.1    c-2.9,2-5.2,4.5-6.6,7.6c-0.5,2.9-2.2,5.8-3.5,5.8c-0.3,0-0.8-0.2-1-1.4c0,0-1.2-5.2-4.5-15.1l-0.3-2.7    c-0.5-4.3-1.5-12.2-1.8-18.5c-0.2-5-4.2-5.2-4.5-0.2L121,178l-1.6-23.7c-0.5-7.1-5-5.3-5.2-0.2l-0.2,24.6l-1.4-23.9    c-0.4-1.3-1.1-2.1-1.8-2.1c-1.3,0-2.7,2.1-2.7,5.2l-0.6,23.3l0,0c-0.5,0-1.3-12.7-1.4-18.1C105.9,162,105.3,161.2,104.5,161.2    L104.5,161.2z"/></g></g></svg>
