<?xml version="1.0" ?>
<svg id="Layer_1" style="enable-background:new 0 0 512 512;" version="1.1" viewBox="0 0 512 512" xml:space="preserve"
     xmlns="http://www.w3.org/2000/svg"><style type="text/css">
	.st0 {
    fill: #4A9318;
  }

  .st1 {
    fill: #F6D128;
  }

  .st2 {
    fill: #CB0423;
  }

  .st3 {
    fill: #FFFFFF;
  }

  .st4 {
    fill: #FCFF2C;
  }
</style>
  <g><rect class="st0" height="298.7" width="512" y="106.7"/>
    <rect class="st1" height="213.4" width="512" y="149.3"/>
    <rect class="st2" height="128" width="512" y="192"/>
    <rect height="42.7" width="512" y="234.7"/>
    <polygon points="0,106.7 0,405.4 10.8,405.4 209.8,256 10.8,106.7  "/>
    <polygon class="st3" points="0,106.7 0,405.4 199,256  "/>
    <polygon class="st2" points="80.5,180.1 47,248.2 98,273.3  "/>
    <polygon class="st2" points="80.5,180.1 114.1,248.2 63.1,273.3  "/>
    <polygon class="st2" points="80.5,180.1 55.1,251.6 108.7,270.7  "/>
    <polygon class="st2" points="80.5,180.1 105.9,251.6 52.4,270.7  "/>
    <polygon class="st2" points="152.6,232.6 77.6,221.7 69.4,278  "/>
    <polygon class="st2" points="8.4,232.6 83.5,221.7 91.6,278  "/>
    <polygon class="st2" points="152.6,232.6 76.8,230.5 75.3,287.3  "/>
    <polygon class="st2" points="8.4,232.6 84.2,230.5 85.8,287.3  "/>
    <polygon class="st2" points="118.8,308.7 105.5,244.9 73.6,251.6  "/>
    <polygon class="st2" points="118.8,308.7 62.3,276.4 78.5,248.1  "/>
    <polygon class="st2" points="42.2,308.7 98.8,276.4 82.6,248.1  "/>
    <polygon class="st2" points="42.2,308.7 55.5,244.9 87.4,251.6  "/>
    <path
      d="M106.5,303.4c0-9.6,1.7-18.7,5.1-28.5c1.6-4.4,5.7-13.4,6.8-14.8c0.1-0.1,1.9,0.2,3.9,0.8c4.2,1.2,5.3,0.9,5.3-1   c0-1.1-4.3-4.9-25.2-22.4c-14.1-11.8-25.6-21.1-26.2-21.1c-0.6,0-1.1-0.3-1.3-0.7c-0.1-0.4-0.8-5-1.5-10.2   c-0.7-5.2-1.6-10.3-2.1-11.4c-1.3-3.1-4.1-4.8-8.5-5.1c-3.3-0.2-4-0.1-6.3,1.2c-1.5,0.9-3.3,1.5-4.6,1.5c-2.5,0-4.5,1.9-4.5,4.3   v1.6l3.7-0.1c2-0.1,3,0,2.3,0.2c-2.6,0.5-1.6,4.2,1.5,5.3c3.3,1.2,3.2,0.5,3.2,15.9c0,12.7-0.1,14.5-1,17.4   c-1.3,4.3-1.3,10.7,0,14.9c0.5,1.7,1,3.3,1,3.5c0,0.2-1.6,2.3-3.5,4.6c-3.5,4.1-5.6,8.6-5.6,11.7c0,0.7-0.5,1.9-1,2.7   c-1.3,1.8-1.3,4.9-0.1,6.1c1.3,1.2,6.6,23.2,6.6,27.3c0,1.5,0.2,1.5,8.3-0.2c6.5-1.4,21.9-1.7,29.7-0.6c3.6,0.5,7.8,1.3,9.3,1.7   C106.8,309.3,106.5,309.6,106.5,303.4"/>
    <path class="st4"
          d="M100,306.5c-7.1-1.7-15.1-2.4-24.2-2c-4.6,0.2-9.4,0.6-10.7,0.8l-2.3,0.5l-0.6-3.9c-0.3-2.1-0.5-4-0.4-4.1   c0.1-0.1,2.3-0.5,4.9-0.9c9-1.3,28.2-0.8,37.1,1l1.6,0.3v4.7c0,3.4-0.2,4.7-0.6,4.6C104.6,307.6,102.3,307.1,100,306.5"/>
    <path class="st4"
          d="M55.6,306.9c0-1.1-2.8-14.6-4-19.3c-0.8-3.2-1.5-6.1-1.5-6.4c0-0.3,0.8,0.1,1.7,0.7c0.9,0.6,2.1,1.2,2.6,1.2   c2.6,0,4,3.9,6.2,17.1c0.3,1.8,0.7,3.9,0.8,4.6c0.2,1.1-0.1,1.3-2.3,1.8C56.3,307.2,55.6,307.3,55.6,306.9"/>
    <path class="st4"
          d="M104.8,296.6c-0.2-0.3,0.1-0.8,0.5-1.2c0.6-0.6,0.8-0.5,0.8,0.2C106,296.6,105.2,297.3,104.8,296.6"/>
    <path class="st4"
          d="M64.3,294.4c1.3-1.5,1.4-1.5,2.4-0.4c1,1,1,1.1,0.2,1.5c-0.5,0.2-1.6,0.4-2.4,0.4l-1.5,0L64.3,294.4z"/>
    <path class="st4"
          d="M97.6,295.3c0.1-0.4,0.6-1,1.2-1.4c0.8-0.6,1.1-0.5,1.9,0.7l0.9,1.4h-2.1C98.1,296,97.5,295.7,97.6,295.3"/>
    <path class="st4"
          d="M102.1,294.5c-0.6-0.8-1-1.6-0.9-1.7c0.1-0.1,1.1,0,2.3,0.2l2.2,0.4l-1.2,1.3l-1.2,1.3L102.1,294.5z"/>
    <path class="st4" d="M60.9,294.6c-0.4-1.1,0.5-2,1.9-2c1.1,0,1.1,0.1-0.4,1.7C61.3,295.4,61.2,295.5,60.9,294.6"/>
    <path class="st4"
          d="M72.6,293.6L74,292l1.3,1.3c0.7,0.7,1.4,1.3,1.5,1.3c0.1,0-1.1,0.2-2.6,0.3l-2.8,0.2L72.6,293.6z"/>
    <path class="st4" d="M90.5,294.9l-1.7-0.3l1.2-1.3l1.2-1.3l1.4,1.7C94.3,295.5,94.1,295.6,90.5,294.9"/>
    <path class="st4"
          d="M68.2,293.4l-1.2-1.4h1.8c1,0,2.2-0.2,2.7-0.4c0.7-0.3,0.6,0-0.3,1.4c-0.6,1-1.3,1.8-1.5,1.8   C69.6,294.8,68.9,294.2,68.2,293.4"/>
    <path class="st4" d="M81.1,293.2l1.4-1.7L84,293c0.8,0.8,1.4,1.6,1.4,1.7c0,0.1-1.3,0.2-2.9,0.2h-2.9L81.1,293.2z"/>
    <path class="st4" d="M94.4,293.4l-1.2-1.4h2.4c2.5,0,2.9,0.4,1.4,1.9C95.9,295.1,95.8,295.1,94.4,293.4"/>
    <path class="st4" d="M76.8,292.9l-1.2-1.4h2.7H81l-1.2,1.4C78.4,294.6,78.3,294.6,76.8,292.9"/>
    <path class="st4" d="M85.9,292.9l-1.2-1.4h2.7h2.7l-1.2,1.4C87.4,294.6,87.3,294.6,85.9,292.9"/>
    <path class="st4"
          d="M102,291.5c-1.3-0.2-6.3-0.8-11.1-1.1c-8.5-0.7-18.9-0.3-28.3,1c-1.9,0.3-2.4,0.2-2.4-0.5   c0-1.5,10.1-2.4,25.7-2.4c7.6,0,15.4,0.2,17.3,0.5c3.2,0.4,3.4,0.6,3.4,1.8C106.5,292.2,106.1,292.2,102,291.5"/>
    <path class="st4"
          d="M62.8,286.7c1-1.1,2.1-1.9,2.3-1.9c0.2,0,0.9,0.6,1.6,1.4l1.1,1.4l-2.4,0.4c-1.3,0.2-2.9,0.4-3.5,0.6   C61.2,288.6,61.4,288.1,62.8,286.7"/>
    <path class="st4"
          d="M59.2,286.9c-0.4-1.1-0.3-1.4,0.6-1.8c0.6-0.2,1.5-0.4,2-0.3c0.8,0.1,0.8,0.4-0.6,1.8l-1.5,1.6L59.2,286.9z"/>
    <path class="st4" d="M106,287.6c0-0.3,0.3-0.6,0.7-0.8c0.5-0.2,0.6,0,0.5,0.5C106.9,288.2,106,288.4,106,287.6"/>
    <path class="st4" d="M72.2,285.6c0.8-0.9,1.4-1.7,1.4-1.8c0-0.1,0.7,0.6,1.6,1.5l1.6,1.6l-3,0.2l-3,0.2L72.2,285.6z"/>
    <path class="st4"
          d="M99.1,287.1l-2.1-0.2l1.5-1.4l1.5-1.4l1.2,1.3c1.3,1.4,1.6,2.3,0.6,2.1C101.5,287.4,100.3,287.2,99.1,287.1"/>
    <path class="st4"
          d="M67.9,285.6l-1.5-1.3l2.4-0.4c1.3-0.2,2.5-0.3,2.6-0.2c0.1,0.1-0.3,0.9-1,1.7l-1.1,1.5L67.9,285.6z"/>
    <path class="st4"
          d="M90,286.5l-1.2-0.4l1.3-1.3c1.1-1.1,1.4-1.2,2.1-0.6c0.4,0.4,1,1.2,1.3,1.8c0.4,0.9,0.3,1-0.9,1   C91.8,286.9,90.6,286.7,90,286.5"/>
    <path class="st4"
          d="M102.7,285.2l-1.5-1.8l1.3,0.3c0.7,0.2,2.2,0.4,3.3,0.4l2,0l-1.5,1.4c-0.8,0.8-1.6,1.4-1.8,1.4   C104.3,287,103.5,286.2,102.7,285.2"/>
    <path class="st4"
          d="M76.9,285.1c-0.6-0.7-1.1-1.4-1.1-1.7c0-0.2,1.3-0.4,2.8-0.4h2.8l-1,1.2C78.9,286.3,78.1,286.5,76.9,285.1"/>
    <path class="st4" d="M81.5,285c1.6-1.6,2.2-1.6,3.2,0.2c0.7,1.2,0.7,1.2-2,1.2l-2.7,0L81.5,285z"/>
    <path class="st4"
          d="M94,284.7l-1.2-1.7h1.2c0.7,0,1.9,0.2,2.8,0.3l1.5,0.3l-1.4,1.3c-0.8,0.7-1.5,1.3-1.6,1.3   C95.3,286.4,94.7,285.6,94,284.7"/>
    <path class="st4" d="M85.9,284.5l-1.2-1.4h2.7h2.7l-1.2,1.4C87.4,286.2,87.3,286.2,85.9,284.5"/>
    <path class="st4"
          d="M58.9,282.6c0.2-0.5,0.6-2.2,1-3.8l0.6-2.8L66,273c3-1.7,6.4-3.9,7.5-4.8c1.1-0.9,2.2-1.9,2.6-2.1   c0.8-0.5,15.4,0.6,21.8,1.6c5,0.8,13.7,2.5,14,2.8c0.1,0.1-0.7,2.6-1.7,5.7c-1,3.1-1.9,5.9-2,6.3c-0.2,0.6-0.8,0.7-2.5,0.4   c-8.3-1.4-32.1-1.3-41.3,0.2C59.2,283.9,58.5,283.8,58.9,282.6"/>
    <path d="M101,279.2c3.2-3.6,1-9.6-3.6-9.6c-2.9,0-5,2.3-5,5.6C92.4,280.3,97.8,282.8,101,279.2"/>
    <path class="st4" d="M95.6,279c-2.7-1.5-2.5-6.4,0.3-7.7c2.8-1.3,5.6,0.7,5.6,4C101.5,278.4,98.2,280.5,95.6,279"/>
    <path
      d="M80.8,278.8c3-2.8,2.3-7.9-1.3-9.6c-2.4-1.1-4.9-0.2-6.3,2.2c-1.5,2.7-1.2,4.7,0.7,6.9C76.2,280.8,78.5,280.9,80.8,278.8"/>
    <path class="st4" d="M76,278.6c-3.7-1.7-2.4-8.4,1.6-8.4c4,0,5.3,6.1,1.7,8.2C77.7,279.2,77.5,279.3,76,278.6"/>
    <path class="st4"
          d="M56.7,281.1c0.7-2.1,0.6-4.7-0.2-4.7c-0.4,0-0.7,0.7-0.7,2c0,1.1-0.3,2.3-0.7,2.7c-0.6,0.6-0.6,0.1-0.4-2.5   c0.2-1.8,0.1-3.2-0.2-3.2c-0.5,0-1.3,2.7-1.6,5c-0.2,1.4-0.2,1.4-0.6-0.3c-0.3-1.3-0.2-2.1,0.7-3.8c0.6-1.2,1.1-2.8,1.1-3.8   c0-1.4,1-2.7,5.6-7.7c3.1-3.3,6.7-7.5,8-9.2c2.3-3,2.4-3.3,2.3-6.3c0-1.7-0.2-3.3-0.4-3.5c-0.6-0.7-1.4,2.7-1.1,4.6   c0.3,1.7,0,2.2-3.3,6.3c-2,2.5-5.3,6.2-7.4,8.3c-3.9,3.9-5.3,6-5.3,7.9c0,0.6-0.4,2.2-1,3.5c-0.5,1.3-0.8,2.7-0.7,3   c0.2,0.4,0.1,0.3-0.3,0c-0.4-0.4-0.5-1.3-0.1-3.1c0.3-1.3,0.4-2.6,0.2-2.9c-0.5-1-1.2,0.3-1.5,2.9c-0.2,1.5-0.5,2.6-0.8,2.5   c-0.7-0.5-0.5-3.3,0.4-4.7c0.5-0.7,1-2.5,1.3-3.9c0.7-3.9,2.3-7.1,5.8-11.3c1.8-2.1,3.2-4,3.2-4.1c0-0.1-0.5-1.7-1-3.5   c-1.3-4.2-1.4-10.6-0.2-14.5c1.3-4.1,3.9-8.2,8-12.5c4.3-4.4,8.3-7.1,10.3-6.8c1.7,0.3,50.5,41.1,50.5,42.2c0,0.4-0.4,0.8-0.9,0.8   c-0.5,0-12.9-3.8-27.6-8.4c-23.5-7.3-26.8-8.5-27.8-9.8c-1.4-1.9-1.5-4.7-0.1-6.6c0.6-0.8,1-1.8,1-2.2c0-1.2-2.5,1.9-3,3.8   c-0.6,2.2,0.5,5.8,2,6.9c0.6,0.5,5.1,2.1,9.9,3.6c8.3,2.6,8.9,2.9,9.3,4.4c1.1,3.5-2.4,7.6-7.5,8.8c-1.6,0.4-3.7,1.4-5.1,2.6   c-5.7,4.6-9.6,7.3-13,8.8c-2,0.9-3.8,1.9-4.2,2.3c-0.3,0.4-0.8,2-1.1,3.6c-0.6,3.5-0.8,4-1.8,4C56.3,282.5,56.3,282.2,56.7,281.1"/>
    <path class="st4"
          d="M107.8,268.2c-5.2-1.3-13.4-2.5-21.7-3.2l-8-0.7l3-1.2c1.7-0.7,4.1-1.8,5.3-2.6c2-1.2,2.8-1.3,5.8-1.1   c4.5,0.4,7.5-0.5,8.6-2.5c0.5-0.8,0.9-1.6,1-1.7c0.1-0.1,3.6,0.9,7.9,2.2l7.8,2.4l-1.5,2.9c-0.8,1.6-1.9,3.7-2.3,4.7   C112.8,269.2,112.5,269.3,107.8,268.2"/>
    <path class="st4" d="M90.1,257.9c-0.4-0.3-0.4-0.7,0.1-1.4c0.4-0.6,0.8-0.8,1-0.4C91.6,256.9,90.8,258.4,90.1,257.9"/>
    <path class="st4" d="M91.9,257.8c0-0.7,0.4-0.7,0.8,0c0.2,0.3,0.1,0.6-0.2,0.6C92.2,258.4,91.9,258.1,91.9,257.8"/>
    <path class="st4" d="M94.4,257.5c0-0.5,0.2-0.7,0.5-0.5c0.7,0.4,0.7,1.4,0,1.4C94.7,258.4,94.4,258,94.4,257.5"/>
    <path class="st4"
          d="M96.8,257.5c-0.2-0.2-0.4-0.8-0.4-1.3c0-0.6,0.1-0.7,0.6-0.2c0.3,0.3,0.5,0.9,0.4,1.3   C97.3,257.6,97,257.7,96.8,257.5"/>
    <path class="st4"
          d="M92.8,256.4c-0.2-0.2-0.4-0.8-0.4-1.3c0-0.6,0.2-0.7,0.6-0.2c0.3,0.3,0.5,0.9,0.4,1.3   C93.3,256.5,93,256.6,92.8,256.4"/>
    <path class="st4" d="M98.7,256.1c-0.5-1,0.1-1.2,0.8-0.3c0.4,0.5,0.4,0.9,0.1,0.9C99.3,256.7,98.9,256.4,98.7,256.1"/>
    <path class="st4" d="M94.7,255.1c-0.2-0.3-0.1-0.7,0.2-0.9c0.3-0.2,0.5,0,0.5,0.5C95.5,255.7,95.2,255.8,94.7,255.1"/>
    <path class="st4" d="M97,254.1c0-0.5,0.2-0.7,0.5-0.5c0.7,0.5,0.7,1.4,0,1.4C97.2,255,97,254.6,97,254.1"/>
    <path class="st4" d="M90.9,253.7c0-1,0.3-1.1,0.7-0.3c0.2,0.3,0.1,0.7-0.2,0.9C91.1,254.4,90.9,254.1,90.9,253.7"/>
    <path class="st4" d="M92.9,253c0-0.5,0.2-0.7,0.5-0.5c0.6,0.4,0.6,1.4,0,1.4C93.2,253.9,92.9,253.5,92.9,253"/>
    <path class="st4"
          d="M59.1,226.1c-0.1-2.4-0.1-8.1,0-12.6c0.3-9.3,0.1-10.2-2.8-11.2c-2.3-0.8-3.2-1.5-3.2-2.6   c0-0.7,0.5-0.8,3.1-0.5c2.7,0.3,3,0.2,2.9-0.6c-0.3-1.4-3.8-2.5-7.5-2.3c-2.9,0.2-3.3,0.1-3.1-0.8c0.4-1.7,2-2.8,4.5-3.1   c1.3-0.1,3.3-0.8,4.3-1.4c1.6-0.9,2.6-1.1,5.6-0.9c6.6,0.4,7.9,2.3,9.6,14.9c0.7,4.9,1.2,9.4,1.2,10.1c0,0.8-0.9,1.9-3.2,3.5   c-3.4,2.5-7.8,6.9-10,10.1l-1.3,1.9L59.1,226.1z"/>
    <path
      d="M64,196.7c0.8-0.9,0.8-1.4,0.3-2.5c-0.7-1.8-1.5-1.4-1.2,0.6c0.2,1.2,0,1.4-0.8,1.4c-0.9,0-1.1-0.3-1.1-1.8   c0-1.5-0.1-1.6-0.8-1c-1,0.9-1,2.2,0.1,3.5C61.6,198.1,62.8,198.1,64,196.7"/></g></svg>
