<?xml version="1.0" ?>
<svg id="Layer_1" style="enable-background:new 0 0 512 512;" version="1.1" viewBox="0 0 512 512" xml:space="preserve"
     xmlns="http://www.w3.org/2000/svg" xmlns:xlink="http://www.w3.org/1999/xlink"><style type="text/css">
	.st0 {
    fill: #231E60;
  }

  .st1 {
    fill: #FFFFFF;
  }

  .st2 {
    fill: #BA2025;
  }

  .st3 {
    fill: #F3C426;
  }

  .st4 {
    fill: #6C6767;
  }

  .st5 {
    fill: #273B93;
  }

  .st6 {
    fill: #255329;
  }

  .st7 {
    fill: #010101;
  }

  .st8 {
    fill: none;
  }

  .st9 {
    fill: #102015;
  }

  .st10 {
    fill: #0B0C14;
  }

  .st11 {
    clip-path: url(#XMLID_3_);
    fill: #C22026;
  }

  .st12 {
    clip-path: url(#XMLID_263_);
    fill: #C22026;
  }

  .st13 {
    clip-path: url(#XMLID_264_);
    fill: #F5DC61;
  }

  .st14 {
    clip-path: url(#XMLID_265_);
    fill: #F5DC61;
  }

  .st15 {
    clip-path: url(#XMLID_266_);
    fill: #F5DC61;
  }

  .st16 {
    clip-path: url(#XMLID_267_);
    fill: #C22026;
  }

  .st17 {
    clip-path: url(#XMLID_268_);
    fill: #C22026;
  }

  .st18 {
    fill: #F2C325;
  }

  .st19 {
    clip-path: url(#XMLID_269_);
    fill: #C22026;
  }

  .st20 {
    clip-path: url(#XMLID_270_);
    fill: #3A61AD;
  }

  .st21 {
    clip-path: url(#XMLID_271_);
    fill: #3A61AD;
  }

  .st22 {
    clip-path: url(#XMLID_272_);
    fill: #3A61AD;
  }

  .st23 {
    clip-path: url(#XMLID_273_);
    fill: #F2C325;
  }

  .st24 {
    clip-path: url(#XMLID_274_);
    fill: #F2C325;
  }

  .st25 {
    clip-path: url(#XMLID_275_);
    fill: #010101;
  }

  .st26 {
    clip-path: url(#XMLID_276_);
    fill: #010101;
  }

  .st27 {
    clip-path: url(#XMLID_277_);
    fill: #010101;
  }

  .st28 {
    clip-path: url(#XMLID_278_);
    fill: #010101;
  }

  .st29 {
    clip-path: url(#XMLID_279_);
    fill: #010101;
  }

  .st30 {
    clip-path: url(#XMLID_280_);
    fill: #010101;
  }

  .st31 {
    clip-path: url(#XMLID_281_);
    fill: #010101;
  }

  .st32 {
    clip-path: url(#XMLID_282_);
    fill: #010101;
  }

  .st33 {
    clip-path: url(#XMLID_283_);
    fill: #010101;
  }

  .st34 {
    clip-path: url(#XMLID_284_);
    fill: #010101;
  }

  .st35 {
    clip-path: url(#XMLID_285_);
    fill: #010101;
  }

  .st36 {
    clip-path: url(#XMLID_286_);
    fill: #010101;
  }

  .st37 {
    clip-path: url(#XMLID_287_);
    fill: #F2C325;
  }

  .st38 {
    clip-path: url(#XMLID_288_);
    fill: #F2C325;
  }

  .st39 {
    clip-path: url(#XMLID_289_);
    fill: #F2C325;
  }

  .st40 {
    clip-path: url(#XMLID_290_);
    fill: #010101;
  }

  .st41 {
    clip-path: url(#XMLID_291_);
    fill: #010101;
  }

  .st42 {
    clip-path: url(#XMLID_292_);
    fill: #121139;
  }

  .st43 {
    clip-path: url(#XMLID_293_);
    fill: #17341E;
  }

  .st44 {
    clip-path: url(#XMLID_294_);
    fill: #17341E;
  }

  .st45 {
    clip-path: url(#XMLID_295_);
    fill: #17341E;
  }
</style>
  <g id="XMLID_1_"><rect class="st0" height="298.7" id="XMLID_262_" width="512" y="106.7"/>
    <rect class="st0" height="129.3" id="XMLID_261_" width="258.7" y="106.7"/>
    <path class="st1"
          d="M129.3,185.8L229.8,236h28.9v-14.5l-100.4-50.2L129.3,185.8z M0,221.5V236h28.9l100.4-50.2l-28.9-14.5L0,221.5   z M0,106.7v14.5l100.4,50.2l28.9-14.5L28.9,106.7H0z M229.8,106.7l-100.4,50.2l28.9,14.5l100.4-50.2v-14.5H229.8z"/>
    <polygon class="st1" id="XMLID_256_"
             points="107.8,106.7 107.8,149.8 0,149.8 0,192.9 107.8,192.9 107.8,236 150.9,236    150.9,192.9 258.7,192.9 258.7,149.8 150.9,149.8 150.9,106.7  "/>
    <polygon class="st2" id="XMLID_255_"
             points="116.4,106.7 116.4,158.4 0,158.4 0,184.3 116.4,184.3 116.4,236 142.3,236    142.3,184.3 258.7,184.3 258.7,158.4 142.3,158.4 142.3,106.7  "/>
    <path class="st2"
          d="M86.2,192.9L0,236h19.3l86.2-43.1H86.2z M172.5,192.9l86.2,43.1v-9.6l-66.9-33.5H172.5z M0,106.7v9.6   l66.9,33.5h19.3L0,106.7z M239.4,106.7l-86.2,43.1h19.3l86.2-43.1H239.4z"/>
    <path class="st1"
          d="M369.5,193.4c-0.5,0.3-1.5,1.2-2.5,0.9c-1-0.3-3.3-4.3-5.9-3.7c-2.5,0.6-4.1,1.5-5.1,1.5c-1,0-3.8,0.9-3.8,3.4   c0,2.5,0.3,4.3,0.8,4.3c0.5,0,1.3-1.5,1.3-1.5s0.3,3.1,2,3.1c1.8,0,5.6,0.3,5.9,1.2c0.3,0.9-1.8,3.1-1.3,4.9   c0.5,1.9,2.8,4.9,2.8,4.9s-3.3,2.5-3.3,4c0,1.5,0.5,3.1,0.5,3.1l-14.8,0.6c0,0-1,43.8-0.5,47.2c0.5,3.4,1.8,11.7,1.8,11.7   s-3.3-1.1-6.1,1.7c-2.8,2.8-12.6,7.5-12.9,9.7c-0.3,2.2-1.2,4-0.1,5.6c1,1.5,4.6,5.7,3.6,5.5c-3.4-0.6-4.7-5.5-7-7.2   c-2.3-1.8-6.8-1.4-7.3,0.5c-0.5,1.9-0.3,4.9,0,5.5c0.3,0.6,3.1,10.5,3.8,12.6c0.8,2.2,8.8,5.4,12.4,5.1c6.8,0.2,9.8-2.9,10.1-2.6   c0.3,0.3,14.5,15,43.9,15.1c22.8,0,40-14.8,40-14.5c0,0.3,9.4,3.1,12.7,2.2c3.3-0.9,8.2-3.1,9.2-5.2c1-2.2,3.8-13.3,4.1-15.1   c0.3-1.8,0-4-2.3-4.6c-2.3-0.6-3.6-0.5-4.8,0.2c-1.3,0.6-1.7,2.3-3.6,5.4c-1,0.9-3.7,3.4-2.9,2.8c0.8-0.6,2.4-5.2,2.7-6.8   c0.3-1.5,1-4.3-0.8-5.9c-1.8-1.5-4.5-2.2-7.7-4.5c-3-2-5.3-5.4-7.1-5.4c-1.8,0-3.8-0.9-3.6-0.9c0.3,0,2.3-4.5,1.8-9.1   c-0.5-4.6,0.3-48.9,0-48.9c-0.3,0-12.8,0.9-12.8,0.3c0-0.6,1-4.9,0-7.7c-1-2.8-5.4-4.6-4.1-5.2c1.3-0.6,6.9-2.2,6.6-4.6   c-0.3-2.5-3.8-2.2-5.4-3.1c-1.5-0.9-6.1-5.2-6.6-5.2c-0.5,0,13.3-8.3,12.2-8.3c-1,0-6.4-1.5-8.2-0.6c0-1.5,7.4-6.2,6.1-6.8   c-1.3-0.6-7.1-1.2-5.6-1.5c1.5-0.3,2-4,1.8-4c-0.3,0-6.6,0.9-6.6,0.9s-1.5-2.2-2-2.2c-0.5,0-2.8,1.2-2.8,1.2l-1.3-3.4l-2.8,1.9   l-1.3-1.5c0,0-2.3,0.6-2.3,0c0.1,0-0.3-1.5-0.6-1.5c-0.4,0-2.9,2-3,1.9c-0.1-0.1-2.9-4-2.9-3.9c0,0.1-2,7.4-2.1,7.4   c-0.1,0-2,0.2-2.1,0.3c-0.1,0.1-10.1-5.8-10-5.7c0.1,0.1,2.6,5.7,2.6,5.7s-2.2,1.2-2.2,1.3c0,0.1,0.4,2.5,0.4,2.5l-6.7-2.3   c0,0,2.5,5.1,2.3,5.1c-0.2,0-5,0.2-4.9,0.2c0.1,0,2.3,4.2,2.3,4.2l-0.8,2.5C362.8,188,370,193,369.5,193.4L369.5,193.4z    M412.1,300.6c0.6,0.9,4.1,5.2,3.6,5.2c-0.5,0-9.1,5.7-12.5,6.8c-3.5,1.1-14.7,3.1-14,2.9c0.6-0.2,10.1-5.3,13.9-7.8   C406.9,305.3,412.1,300.9,412.1,300.6L412.1,300.6z M358.8,300.5c-0.5,0.6-2.9,5.4-2.9,5.4s7,4.9,12.2,6.8   c5.2,1.9,14.2,2.5,13.6,2.3c-0.5-0.2-11.2-4.9-14.3-7.4C364.4,305.1,358.9,300.5,358.8,300.5L358.8,300.5z"/>
    <path class="st3"
          d="M364.4,186.3c0,0,4.5,3.2,5.5,4c1,0.8,4.3,4.2,4.6,4c0.3-0.2,2-1.9,2-1.9s-3.7-3.5-6-4.3   C368.2,187.4,364.4,186.6,364.4,186.3L364.4,186.3z"
          id="XMLID_247_"/>
    <g><path class="st4" d="M374.4,194.7c-0.3,0-0.7-0.4-2.7-2.3c-0.8-0.8-1.6-1.5-2-1.8c-0.9-0.7-4.3-3.1-5.2-3.8l-0.2-0.2l0,0l0,0    l-0.1-0.2v-0.6l0.7,0.5c0.4,0.2,1.4,0.4,2.5,0.7c1.1,0.3,2.4,0.6,3.4,1c2.3,0.8,6,4.2,6.1,4.4c-0.4,0.9-1.8,2.2-2.1,2.4    L374.4,194.7L374.4,194.7z M366.3,187.3c1.4,1,3.1,2.3,3.7,2.7c0.4,0.3,1.2,1.1,2.1,1.9c0.8,0.8,1.9,1.8,2.3,2    c0.4-0.3,1.6-1.5,1.8-1.7c0,0,0,0,0,0c-0.4,0-3.8-3.1-5.8-3.8c-1-0.3-2.2-0.7-3.3-0.9C366.8,187.5,366.6,187.4,366.3,187.3    L366.3,187.3z"/></g>
    <path class="st3"
          d="M363.8,182.8c0.4,0,7.4,4.3,9.6,6.5c2.2,2.2,3.1,4.9,3.3,4.9c0.3,0,3.6-0.6,3.4-0.6   c-0.1,0-1.5-5.5-4.7-7.2C372.2,184.6,363.9,182.8,363.8,182.8L363.8,182.8z"
          id="XMLID_244_"/>
    <g><path class="st4" d="M376.6,194.5c-0.3,0-0.4-0.2-0.8-0.9c-0.5-1-1.4-2.7-2.8-4.1c-2.1-2.1-8.8-6.2-9.4-6.4l0.1-0.6l0,0.3l0-0.3    l0.1,0c0.5,0.1,8.6,1.9,11.7,3.6c2.7,1.5,4.2,5.6,4.7,6.9h0.3l-0.1,0.6c0,0.1-0.1,0.2-0.3,0.3l-0.1,0    C379,194.3,376.7,194.5,376.6,194.5L376.6,194.5z M365.9,183.6c2.4,1.5,6.1,4,7.6,5.4c1.5,1.5,2.4,3.3,2.9,4.2    c0.1,0.2,0.2,0.5,0.3,0.6c0.5-0.1,2.1-0.4,2.9-0.5l-0.1-0.1c-0.5-1.3-1.9-5.3-4.4-6.6C373.1,185.5,368.7,184.3,365.9,183.6    L365.9,183.6z"/></g>
    <path class="st3"
          d="M396.8,171.6c-0.1,0-1.4,4.6-1.8,6c-0.4,1.4-1,4.3-1,4.3s-5.6,0.6-5.4-0.2   C388.9,181,397.2,171.6,396.8,171.6L396.8,171.6z"
          id="XMLID_241_"/>
    <g><path class="st4" d="M390.3,182.5c-1.3,0-1.7-0.2-1.9-0.4c0.1-0.8,1.5-2.5,4.4-5.9c1.6-1.9,3.2-3.8,3.7-4.5l0.4-0.4l0.2,0.7    c-0.3,1-1.3,4.6-1.7,5.8c-0.4,1.4-1,4.3-1,4.3C394,182.3,391.9,182.5,390.3,182.5L390.3,182.5z M389.1,181.8    c0.5,0,4.4-0.1,4.8-0.2c-0.1-0.2,0.4-2.8,0.8-4.1c0.2-0.8,0.7-2.7,1.2-4.1c-0.7,0.9-1.7,2-2.6,3.1    C391.6,178.6,389.3,181.2,389.1,181.8C389,181.8,389,181.8,389.1,181.8L389.1,181.8z"/></g>
    <path class="st3"
          d="M365,177.2c0,0,6.6,5.4,8.9,8.5c2.3,3.1,4.6,8.5,4.7,8.5c0.1,0,6.3-1.5,6.3-1.4   c0,0.2-7.1-8.6-10.6-11.3C370.9,178.9,365.2,177.5,365,177.2L365,177.2z"
          id="XMLID_238_"/>
    <g><path class="st4" d="M378.7,194.5c-0.2,0-0.2,0-0.9-1.4c-0.9-1.8-2.5-5.1-4.1-7.3c-2.1-2.8-8-7.7-8.8-8.3l-0.2-0.2l-0.4-1.1    l0.9,0.8l-0.1,0.2l0.1-0.2c0.2,0.1,0.7,0.3,1.3,0.5c1.9,0.7,5.5,1.9,7.9,3.8c2.6,2,7.3,7.4,9.5,10c0.6,0.7,1,1.2,1.1,1.2l0.8,0.7    l-1-0.1l-0.1,0l0,0c-0.6,0.1-3.3,0.7-4.6,1C378.8,194.5,378.7,194.5,378.7,194.5L378.7,194.5z M366.8,178.3    c2.1,1.8,5.8,5.1,7.4,7.3c1.6,2.2,3.3,5.6,4.2,7.4c0.2,0.4,0.4,0.8,0.5,0.9c0.2-0.1,0.7-0.2,1.2-0.3c2-0.5,3.4-0.8,4.2-1l-0.3-0.2    l0.2,0c-0.2-0.2-0.4-0.4-0.6-0.6c-2-2.4-6.8-8-9.4-9.9C371.9,180.1,368.7,178.9,366.8,178.3L366.8,178.3z"/></g>
    <path class="st3"
          d="M371.9,175.8c0,0,3.3,6.2,3.9,8.3c0.6,2.2,2.6,7.7,2.6,7.7h5.2c0,0-2.6-6.9-5.4-10.3   C375.5,178.1,372,176.1,371.9,175.8L371.9,175.8z"
          id="XMLID_235_"/>
    <g><path class="st4" d="M384.1,192.1h-5.7c-0.3-0.2-2.2-5.8-2.9-7.9c-0.6-2-3.7-7.8-3.9-8.2l0-0.1l0.6-0.3c0.1,0.1,0.4,0.3,0.8,0.6    c1.2,0.9,3.6,2.6,5.6,5.1c2.8,3.4,5.3,10.1,5.4,10.4L384.1,192.1L384.1,192.1z M372.9,177c1,2,2.8,5.5,3.3,7    c0.6,2.2,2.6,7.7,2.6,7.7l4.5-0.2c-0.6-1.5-2.8-7-5.1-9.8C376.2,179.5,374.2,177.9,372.9,177L372.9,177z"/></g>
    <path class="st3"
          d="M373.7,172.4c0.1,0.5,4.8,5.9,6,9.4c1.1,3.5,2,8,2,8l4.6-1.4c0,0-4.1-9.1-6.6-11.6   C377.1,174.4,374,172.7,373.7,172.4L373.7,172.4z"
          id="XMLID_232_"/>
    <g><path class="st4" d="M381.5,190.2l-0.1-0.3c0,0-0.9-4.5-2-8c-0.8-2.5-3.5-6.1-5-8c-0.8-1-1-1.3-1-1.5l0.6-0.3    c0.1,0.1,0.5,0.3,0.8,0.5c1.2,0.7,3.3,2.1,5.2,3.9c2.6,2.5,6.5,11.3,6.7,11.7L381.5,190.2L381.5,190.2z M375,173.7    c1.5,2,4.1,5.5,5,8c1,3,1.7,6.6,2,7.7l4.2-1.3c-0.4-0.1-4.3-8.7-6.7-11C378,175.7,376.2,174.5,375,173.7L375,173.7z"/></g>
    <path class="st3"
          d="M411.8,186.9c0,0-9.6,1.2-13,2.3c-3.4,1.1-5.4,5.1-5.4,5.1s4.5,2,4.7,1.7   c0.3-0.3,2.9-3.5,5.9-4.8C407,190,412.1,187.1,411.8,186.9L411.8,186.9z"
          id="XMLID_229_"/>
    <g><path class="st4" d="M398.1,196.4c-0.8,0-4.1-1.5-4.7-1.8c-0.1-0.6,1.9-4.6,5.4-5.7c3.4-1.1,12.7-2.3,13.1-2.3    c0.3,1-5.8,4.2-7.6,4.9c-2.7,1.2-5.3,4.1-5.7,4.7L398.1,196.4L398.1,196.4z M411.4,187c-1.3,0.5-9.4,1.6-12.5,2.6    c-3.3,1-5.1,4.9-5.2,4.9c1.3,0.2,3.6,1.2,4.3,1.3c0.6-0.8,3.2-3.6,5.9-4.8C406.5,189.9,410.5,187.6,411.4,187L411.4,187z"/></g>
    <path class="st3"
          d="M411.4,179.4c-0.3,0.2-7.9,7.7-10.3,10.2c-2.4,2.5-4.7,5.1-5,5.2c-0.3,0.2-5-0.8-4.7-1.1   c0.3-0.3,7-6.9,11.5-9.9C407.4,180.9,411.1,179.7,411.4,179.4L411.4,179.4z"
          id="XMLID_226_"/>
    <g><path class="st4" d="M396,195.1c-0.3,0-4.6-0.6-4.9-1.2c0.3-0.6,7-7.3,11.6-10.3c3.3-2.1,6.1-3.4,7.6-4c0.5-0.2,0.8-0.3,0.9-0.4    l0,0l0.4,0.5l-0.1-0.2l0.1,0.2l0,0c-0.5,0.4-7.8,7.6-10.3,10.1c-1.3,1.3-2.6,2.7-3.5,3.7c-1.1,1.2-1.4,1.5-1.5,1.6L396,195.1    L396,195.1z M391.8,193.9c0.7,0,3.5,0.6,4.2,0.6v0.3l0-0.3c0-0.1,0.6-0.6,1.3-1.4c0.9-1,2.2-2.4,3.5-3.7c1.8-1.8,6.5-6.5,8.9-8.8    c-1.6,0.7-4,1.8-6.7,3.6c-4.5,3-11.2,9.5-11.4,9.8C391.7,193.9,391.7,193.9,391.8,193.9L391.8,193.9z"/></g>
    <path class="st3"
          d="M409.5,174c-0.8,1.1-8.3,8.5-10.3,11.1c-2,2.6-5.4,7.2-5.4,7.2s-4-2.2-3.7-3.1   c0.3-0.9,5.6-6.3,9.4-9.4C403.4,176.8,409.9,174.3,409.5,174L409.5,174z"
          id="XMLID_223_"/>
    <g><path class="st4" d="M393.9,192.8l-0.3-0.1c-1.3-0.7-4.1-2.4-3.8-3.5c0.3-1.1,6-6.7,9.5-9.6c2.3-1.9,5.6-3.5,7.8-4.6    c0.9-0.5,1.6-0.8,1.9-1l0.1,0.1l-0.1-0.1l0,0.1l-0.1,0l0.2,0.2l0-0.1l0,0l-0.1-0.3l0,0l0-0.1l0.6-0.9l0,1.1l-0.3,0l0.1,0.4    c-0.5,0.6-1.9,2.1-3.5,3.7c-2.4,2.5-5.5,5.6-6.6,7.1c-2,2.6-5.4,7.2-5.4,7.2L393.9,192.8L393.9,192.8z M407.8,175.4    c-0.1,0.1-0.2,0.1-0.3,0.2c-2.2,1.1-5.4,2.7-7.7,4.5c-4,3.2-9.1,8.5-9.3,9.2c-0.1,0.4,1.5,1.6,3.3,2.6c0.7-1,3.4-4.8,5.2-7    c1.2-1.5,4.2-4.7,6.7-7.2C406.4,176.8,407.2,176.1,407.8,175.4L407.8,175.4z"/></g>
    <path class="st3"
          d="M401.9,173.4c-0.1,0.2-4.6,5.9-5.5,7.4c-0.9,1.5-3.6,8.3-3.6,8.3s-4-4.2-4-4.3   c0-0.2,5-6.5,7.9-8.9C399.7,173.4,402,173.8,401.9,173.4L401.9,173.4z"
          id="XMLID_220_"/>
    <g><path class="st4" d="M392.9,189.7l-0.3-0.4c-4-4.3-4-4.4-4-4.5c0-0.5,5.5-7.1,8-9.2c2-1.7,3.7-2,4.6-2.2l0.5-0.2l0,0l0.7-0.3    l-0.3,0.8c-0.9,1.2-4.5,5.8-5.3,7.2c-0.9,1.5-3.5,8.2-3.5,8.3L392.9,189.7L392.9,189.7z M400.9,174.1c-1.2,0.3-2.5,0.8-3.9,2    c-2.8,2.4-7.6,8.4-7.8,8.8c0.2,0,2.1,2.1,3.5,3.6c0.6-1.6,2.6-6.6,3.4-7.9c0.7-1.1,3.2-4.5,4.6-6.3l0,0L400.9,174.1L400.9,174.1z"/></g>
    <path class="st3"
          d="M390.8,181.8c0,1.1-0.7,2-1.6,2c-0.9,0-1.6-0.9-1.6-2c0-1.1,0.7-2,1.6-2   C390.1,179.8,390.8,180.7,390.8,181.8L390.8,181.8z"
          id="XMLID_217_"/>
    <g><path class="st4" d="M389.2,184c-1,0-1.9-1-1.9-2.2c0-1.2,0.8-2.2,1.9-2.2c1,0,1.9,1,1.9,2.2C391.1,183,390.2,184,389.2,184    L389.2,184z M389.2,180.1c-0.8,0-1.4,0.8-1.4,1.7c0,1.9,2.7,1.9,2.7,0C390.6,180.9,390,180.1,389.2,180.1L389.2,180.1z"/></g>
    <path class="st3"
          d="M394.1,184.4c0,1-0.7,1.7-1.6,1.7c-0.9,0-1.6-0.8-1.6-1.7c0-1,0.7-1.7,1.6-1.7   C393.3,182.7,394.1,183.5,394.1,184.4L394.1,184.4z"
          id="XMLID_214_"/>
    <g><path class="st4" d="M392.5,186.4c-1,0-1.9-0.9-1.9-2s0.8-2,1.9-2c1,0,1.9,0.9,1.9,2S393.5,186.4,392.5,186.4L392.5,186.4z     M392.5,182.9c-0.8,0-1.4,0.7-1.4,1.5c0,1.6,2.7,1.6,2.7,0C393.8,183.6,393.2,182.9,392.5,182.9L392.5,182.9z"/></g>
    <path class="st3"
          d="M386.9,182.5c0,1-0.9,1.7-2,1.7c-1.1,0-2-0.8-2-1.7c0-1,0.9-1.7,2-1.7   C386,180.7,386.9,181.5,386.9,182.5L386.9,182.5z"
          id="XMLID_211_"/>
    <g><path class="st4" d="M384.9,184.5c-1.2,0-2.2-0.9-2.2-2s1-2,2.2-2c1.2,0,2.2,0.9,2.2,2S386.1,184.5,384.9,184.5L384.9,184.5z     M384.9,181c-0.9,0-1.7,0.7-1.7,1.5c0,1.6,3.4,1.6,3.4,0C386.6,181.6,385.8,181,384.9,181L384.9,181z"/></g>
    <path class="st3"
          d="M392.1,186.1c0,1.9-1,3.4-2.3,3.4c-1.2,0-2.2-1.5-2.2-3.4c0-1.9,1-3.4,2.2-3.4   C391.1,182.7,392.1,184.2,392.1,186.1L392.1,186.1z"
          id="XMLID_208_"/>
    <g><path class="st4" d="M389.8,189.7c-1.4,0-2.5-1.6-2.5-3.6c0-2,1.1-3.6,2.5-3.6c1.4,0,2.5,1.6,2.5,3.6    C392.4,188.1,391.2,189.7,389.8,189.7L389.8,189.7z M389.8,182.9c-1.1,0-2,1.4-2,3.1c0,1.7,0.9,3.1,2,3.1c1.1,0,2-1.4,2-3.1    C391.8,184.3,390.9,182.9,389.8,182.9L389.8,182.9z"/></g>
    <path class="st3"
          d="M386,186.2c0,1.4-1,2.6-2.3,2.6c-1.2,0-2.2-1.2-2.2-2.6c0-1.4,1-2.6,2.2-2.6   C385,183.5,386,184.7,386,186.2L386,186.2z"
          id="XMLID_205_"/>
    <g><path class="st4" d="M383.7,189c-1.4,0-2.5-1.3-2.5-2.9c0-1.6,1.1-2.9,2.5-2.9c1.4,0,2.5,1.3,2.5,2.9    C386.2,187.7,385.1,189,383.7,189L383.7,189z M383.7,183.8c-1.1,0-2,1.1-2,2.4c0,1.3,0.9,2.4,2,2.4c1.1,0,2-1.1,2-2.4    C385.7,184.9,384.8,183.8,383.7,183.8L383.7,183.8z"/></g>
    <path class="st3"
          d="M382.9,188.2c0,1.3-0.8,2.3-1.7,2.3c-0.9,0-1.7-1-1.7-2.3v0c0-1.3,0.8-2.3,1.7-2.3   C382.1,185.9,382.9,187,382.9,188.2L382.9,188.2z"
          id="XMLID_202_"/>
    <g><path class="st4" d="M381.2,190.8c-1.1,0-2-1.1-2-2.5c0-1.4,0.9-2.6,2-2.6c1.1,0,2,1.1,2,2.5C383.2,189.6,382.3,190.8,381.2,190.8    L381.2,190.8z M381.2,186.2c-0.8,0-1.4,0.9-1.4,2s0.6,2,1.4,2c0.8,0,1.5-0.9,1.5-2S382,186.2,381.2,186.2L381.2,186.2z"/></g>
    <path class="st3"
          d="M395.5,188c0,1.5-1.2,2.7-2.6,2.7s-2.6-1.2-2.6-2.7c0-1.5,1.2-2.7,2.6-2.7   S395.5,186.5,395.5,188L395.5,188z"
          id="XMLID_199_"/>
    <g><path class="st4" d="M392.9,191c-1.6,0-2.9-1.3-2.9-3s1.3-3,2.9-3c1.6,0,2.9,1.3,2.9,3S394.5,191,392.9,191L392.9,191z     M392.9,185.5c-1.3,0-2.4,1.1-2.4,2.5s1.1,2.5,2.4,2.5c1.3,0,2.4-1.1,2.4-2.5S394.2,185.5,392.9,185.5L392.9,185.5z"/></g>
    <path class="st3"
          d="M389.2,184.1c0,0.9-0.9,1.6-2.1,1.6c-1.1,0-2.1-0.7-2.1-1.6s0.9-1.6,2.1-1.6   C388.3,182.5,389.2,183.2,389.2,184.1L389.2,184.1z"
          id="XMLID_196_"/>
    <g><path class="st4" d="M387.1,186c-1.3,0-2.3-0.9-2.3-1.9c0-1,1-1.9,2.3-1.9c1.3,0,2.3,0.9,2.3,1.9C389.5,185.1,388.4,186,387.1,186    L387.1,186z M387.1,182.7c-1,0-1.8,0.6-1.8,1.4c0,1.5,3.6,1.5,3.6,0C389,183.3,388.1,182.7,387.1,182.7L387.1,182.7z"/></g>
    <path class="st3"
          d="M389.6,187.7c0,1.3-1.3,2.4-2.9,2.4c-1.6,0-2.9-1.1-2.9-2.4c0-1.3,1.3-2.4,2.9-2.4   C388.3,185.3,389.6,186.4,389.6,187.7L389.6,187.7z"
          id="XMLID_193_"/>
    <g><path class="st4" d="M386.7,190.3c-1.7,0-3.1-1.2-3.1-2.7s1.4-2.7,3.1-2.7c1.7,0,3.1,1.2,3.1,2.7S388.4,190.3,386.7,190.3    L386.7,190.3z M386.7,185.5c-1.4,0-2.6,1-2.6,2.1c0,1.2,1.2,2.1,2.6,2.1c1.4,0,2.6-1,2.6-2.1C389.3,186.5,388.1,185.5,386.7,185.5    L386.7,185.5z"/></g>
    <path class="st3"
          d="M397,191.9c0,1.6-1.2,2.9-2.7,2.9c-1.5,0-2.7-1.3-2.7-2.9c0-1.6,1.2-2.9,2.7-2.9   C395.7,189,397,190.3,397,191.9L397,191.9z"
          id="XMLID_190_"/>
    <g><path class="st4" d="M394.3,195.1c-1.6,0-3-1.4-3-3.2s1.3-3.2,3-3.2s3,1.4,3,3.2S395.9,195.1,394.3,195.1L394.3,195.1z     M394.3,189.3c-1.3,0-2.4,1.2-2.4,2.7c0,1.5,1.1,2.7,2.4,2.7c1.3,0,2.4-1.2,2.4-2.7C396.7,190.5,395.6,189.3,394.3,189.3    L394.3,189.3z"/></g>
    <path class="st3"
          d="M382.2,191.2c0,1.1-0.7,2-1.5,2c-0.8,0-1.5-0.9-1.5-2s0.7-2,1.5-2   C381.5,189.2,382.2,190.1,382.2,191.2L382.2,191.2z"
          id="XMLID_187_"/>
    <g><path class="st4" d="M380.6,193.4c-1,0-1.8-1-1.8-2.2c0-1.2,0.8-2.2,1.8-2.2c1,0,1.8,1,1.8,2.2    C382.4,192.4,381.6,193.4,380.6,193.4L380.6,193.4z M380.6,189.5c-0.7,0-1.3,0.8-1.3,1.7c0,1.9,2.5,1.9,2.5,0    C381.9,190.2,381.3,189.5,380.6,189.5L380.6,189.5z"/></g>
    <path class="st3"
          d="M393,190.9c0,1.4-1,2.5-2.3,2.5c-1.3,0-2.3-1.1-2.3-2.5c0-1.4,1-2.5,2.3-2.5   C391.9,188.3,393,189.5,393,190.9L393,190.9z"
          id="XMLID_184_"/>
    <g><path class="st4" d="M390.7,193.6c-1.4,0-2.6-1.2-2.6-2.8c0-1.5,1.2-2.8,2.6-2.8c1.4,0,2.6,1.2,2.6,2.8    C393.3,192.4,392.1,193.6,390.7,193.6L390.7,193.6z M390.7,188.6c-1.2,0-2.1,1-2.1,2.2c0,1.2,0.9,2.2,2.1,2.2c1.2,0,2.1-1,2.1-2.2    C392.7,189.6,391.8,188.6,390.7,188.6L390.7,188.6z"/></g>
    <path class="st3"
          d="M385.6,190.7c0,1.2-0.9,2.2-2.1,2.2c-1.1,0-2.1-1-2.1-2.2c0-1.2,0.9-2.2,2.1-2.2   C384.7,188.6,385.6,189.5,385.6,190.7L385.6,190.7z"
          id="XMLID_181_"/>
    <g><path class="st4" d="M383.5,193.2c-1.3,0-2.3-1.1-2.3-2.4c0-1.3,1-2.4,2.3-2.4c1.3,0,2.3,1.1,2.3,2.4    C385.9,192.1,384.8,193.2,383.5,193.2L383.5,193.2z M383.5,188.8c-1,0-1.8,0.9-1.8,1.9c0,1.1,0.8,1.9,1.8,1.9c1,0,1.8-0.9,1.8-1.9    C385.3,189.7,384.5,188.8,383.5,188.8L383.5,188.8z"/></g>
    <path class="st3"
          d="M389.2,191.4c0,1.3-1,2.4-2.2,2.4c-1.2,0-2.2-1.1-2.2-2.4c0-1.3,1-2.4,2.2-2.4   C388.2,189,389.2,190.1,389.2,191.4L389.2,191.4z"
          id="XMLID_178_"/>
    <g><path class="st4" d="M387,194c-1.3,0-2.4-1.2-2.4-2.7c0-1.5,1.1-2.7,2.4-2.7s2.4,1.2,2.4,2.7C389.5,192.9,388.4,194,387,194    L387,194z M387,189.3c-1.1,0-1.9,1-1.9,2.1c0,1.2,0.9,2.1,1.9,2.1c1.1,0,1.9-1,1.9-2.1C389,190.2,388.1,189.3,387,189.3L387,189.3    z"/></g>
    <path class="st3"
          d="M379.8,177c0.5,0,4.3,1.5,4.3,1.5s-4.7,2.2-4,2c0.7-0.2,5.2-0.9,4.9-0.9s-4,4.1-2.9,3.9   c1.1-0.2,3.2-2.8,3.4-2.8c0.2,0,2.3,4.1,2.5,3.9c0.2-0.2,0-4.1,0.2-4.1c0.2,0,4.5,2.6,4.1,2.4c-0.4-0.2-2.9-3.3-2.7-3.3   c0.2,0,6,0.7,5.6,0.4c-0.4-0.2-3.8-2.2-3.8-2.2s2.5-2.8,2-2.8s-4.7,2.8-4.3,2.6c0.4-0.2,4.5-5.9,4.5-5.9l-4.1,2.4   c0,0,0.7-3.5,0.4-3.3c-0.4,0.2-3.2,4.6-3.4,4.6c-0.2,0-0.9-4.4-0.9-4.4s0.2,4.8-0.9,5C383.6,176.4,379.8,177.2,379.8,177L379.8,177   z"
          id="XMLID_175_"/>
    <g><path class="st4" d="M388.1,184.9c-0.2,0-0.4-0.2-1.7-2.4c-0.3-0.6-0.7-1.3-0.9-1.5c0,0.1-0.2,0.3-0.4,0.5    c-1.1,1.1-2.1,2.1-2.9,2.3c-0.5-0.8,1-2.8,2-3.8c-0.2,0.1-0.4,0.1-0.7,0.1c-1.3,0.2-2.9,0.5-3.3,0.6c-0.5-0.4-0.5-0.5,3.6-2.3    c-0.7,0-3.1-0.9-3.8-1.1c0.6-0.5,2.4-0.9,3.7-1.2l1-0.2c0.5-0.1,0.8-2.5,0.7-4.8c0.8,1.7,1.2,3.7,1.3,4.1c0-0.3,0.6-1.2,1.2-2    c1.3-1.8,1.7-2.4,1.9-2.6c0.5,0.2,0.7,0.4,0,3.5l3.8-2.7c0.1,0.5-2,3.6-3.3,5.3c1.1-0.9,2.9-2,3.3-2c0.4,0.3,0.5,0.7-1.7,3.2    c0.2,0,3.3,1.6,3.7,1.8l-0.3,0.5c-0.7,0-3.1-0.2-4.5-0.4l-0.9-0.1c0.4,0.1,2.5,2.6,2.8,2.8c0,0,0,0,0,0c-0.1,0.1-0.2,0-0.4-0.1    c-1.5-0.4-3.5-1.6-3.9-1.8c0.2,0.1,0.2,1,0.2,1.7c0,1.8,0,2.2-0.2,2.3L388.1,184.9L388.1,184.9z M385.6,180.5c0.2,0,0.3,0,1.3,1.8    c0.3,0.6,0.8,1.4,1.1,1.8c0-0.4,0-1.1,0-1.6c0-2,0-2.2,0.3-2.2c0.1,0,0.2,0,3.1,1.7c-0.9-0.8-2-2.1-1.9-2.4    c0.3-0.2,0.7-0.2,1.2-0.1c1.2,0.1,3.3,0.3,4.2,0.4c-0.8-0.2-3.5-1.7-3.5-1.7c0.9-1.4,1.9-2.7,1.9-3c-0.2,0.2-3.1,2.1-3.9,2.7    c0,0,0,0,0-0.1c0,0,0-0.1,0.1-0.2c0.5-1.2,2.8-4.3,4-6l-3.8,2.8c-0.1-1.5,0.1-2.9,0.1-3.3c0,0.4-0.9,1.6-1.5,2.4    c-1.6,2.2-1.6,2.2-1.8,2.2c-0.2,0-0.3,0-0.8-2.4c0,1.4-0.2,2.9-1,3l-1,0.2c-1.1,0.2-2.5,0.5-3.3,0.7c1.3,0,3.8,1,3.8,1    c-0.8,0.6-1.9,1.3-2.7,1.7c0.6-0.2,1.3-0.3,1.9-0.4l1.5-0.3c0,0.1-0.1,0.2-0.1,0.2c0,0,0,0.1-0.1,0.1c-0.7,1-2.5,3.3-2.5,3.7    c0.6-0.3,1.8-1.6,2.5-2.3C385.4,180.5,385.4,180.5,385.6,180.5L385.6,180.5z"/></g>
    <path class="st5"
          d="M368.1,212.2c0.1,0.4,3,8.3,7.4,8.1c4.4-0.2,6.2-1.5,6-1.6c-0.2-0.1-2.1-1.4-3.2-4.2   c-1.1-2.8-1.3-4-1.3-4L368.1,212.2z"
          id="XMLID_172_"/>
    <path class="st5"
          d="M383.9,209.2c0,0,3.2,7.7,4.7,8.8c1.4,1.1,4.8,2,6.2,1.9c1.4-0.1,3.1,0,3.1,0s-1.4-0.8-2.6-5   c-1.2-4.2-1.5-5.7-1.5-5.7H383.9z"
          id="XMLID_171_"/>
    <path class="st5"
          d="M403.7,212c0,0-0.6,5.7,0,7.1c0.6,1.4,3.8,4,3.8,4s3.8-0.5,3.9-4c0.1-3.5-1.3-6.8-1.3-6.8   L403.7,212z"
          id="XMLID_170_"/>
    <path class="st6"
          d="M365,202.1c0,0,0.2,0.9,0,1.5c-0.2,0.7-1.7,2.4-1.7,3.8c0,1.4,1.8,5.8,7.3,5.9   c5.5,0.1,12.4-3.6,12.4-3.7c-0.1-0.1-13.2-10.7-13.3-10.6C369.4,199.2,365,202.3,365,202.1L365,202.1z"
          id="XMLID_169_"/>
    <g><path class="st7" d="M370.8,213.6l-0.2,0c-5.7-0.1-7.5-4.6-7.5-6.1c0-1,0.7-2.1,1.2-3c0.2-0.4,0.4-0.7,0.5-0.9    c0.2-0.6,0-1.4,0-1.4c0.5-0.4,3.1-2.2,4-2.9l0.7-0.5h0c0.7,0,13.6,10.5,13.7,10.6C383,210.2,376.2,213.6,370.8,213.6L370.8,213.6z     M365.1,202.4c0.2,0.1,0.3,0.8,0.1,1.3c-0.1,0.3-0.3,0.6-0.6,1c-0.5,0.8-1.1,1.8-1.1,2.7c0,1.2,1.7,5.5,7,5.6l0.2,0.3v-0.3    c5.3,0,11.6-3.3,11.9-3.6c-0.2,0.3-12.5-9.8-13.2-10.2l-0.5,0.5C366.2,201.8,365.4,202.3,365.1,202.4L365.1,202.4z"/></g>
    <path class="st6"
          d="M401.4,209.6c0,0,1.2,3.8,1.6,4.2c0.5,0.4,0.6,1.3,0.7,1.3c0.1,0,7.6,2,7.6,2s0.7-2.5-0.4-4.5   c-1.1-2-5.1-7.1-5.1-7.1L401.4,209.6z"
          id="XMLID_166_"/>
    <g><path class="st7" d="M411.4,217.5l-0.2-0.1c0,0-7.2-1.9-7.5-2c-0.4-0.7-0.6-1.1-0.9-1.4c-0.5-0.5-1.5-3.7-1.7-4.4l4.5-4.3    c0.5,0.2,4.5,5.2,5.5,7.2c1.1,2,0.4,4.6,0.4,4.7L411.4,217.5L411.4,217.5z M405.6,205.8l-4,4.1c0.6,1.6,1.4,3.6,1.6,3.9    c0.3,0.3,0.5,0.8,0.6,1.1c-0.1,0.1,0,0.1,7.3,2c0.1-0.7,0.4-2.5-0.4-4C409.6,210.9,405.6,205.8,405.6,205.8L405.6,205.8z"/></g>
    <path class="st6"
          d="M406.5,204.9c0.2,0,2,1.9,3.4,0.9c1.4-1,3.8-3.6,3.8-3.6s-2,0.8-3.4,0.7   C408.8,202.8,406.6,205.1,406.5,204.9L406.5,204.9z"
          id="XMLID_163_"/>
    <g><path class="st7" d="M409,206.4c-1,0-1.9-0.7-2.4-1l-0.9-0.3l0.6-0.3c0,0,0.1,0,0.1-0.1c1.2-0.9,2.9-2.1,3.8-2.1    c1.7,0,3.4-0.6,3.4-0.6c0.2,0.5-2.1,3.1-3.5,4C409.7,206.2,409.4,206.4,409,206.4L409,206.4z M406.6,205.2L406.6,205.2    c1.1,0.1,2.3,1,3.2,0.4c1-0.7,2.4-2.2,3.2-3c-0.6,0.3-1.4,0.5-2.4,0.5c-1.3,0-2.7,1.1-3.4,1.7l-0.4,0.3    C406.7,205.1,406.6,205.2,406.6,205.2L406.6,205.2z"/></g>
    <path class="st6"
          d="M364.7,202.5c0,0-0.5-1.9-2-2c-1.4-0.1-4.1,0.2-5-0.7c-0.9-0.9-1.2-2.9-1.6-2.8   c-0.4,0.1-1.6,0-1.7,0c-0.1,0-0.5-1.7,0.7-2.6c1.3-0.9,2.3-0.1,3.1-0.8c0.7-0.6,1.8-1.1,3.2-1.2c1.4-0.1,3.8,2.2,4.9,2.7   c1.1,0.5,3.4,1.2,4.3,0.7c0.9-0.5,6-2.9,7.8-3.1c1.8-0.1,5.6-0.2,7-0.1c1.4,0.1,7.1,1,8.8,2c1.7,1,10.8,4.8,12.1,5.7   c1.3,0.9,4.1,2.2,4.1,2.2s-5,5.9-7.4,6.9c-2.4,1-10.2,2.5-14.8,2.2c-4.6-0.3-8.2-0.9-11.7-3.1c-3.5-2.2-7.3-4.2-7.5-5.3   c-0.2-1.1-0.1-2.5-0.1-2.5L364.7,202.5z"
          id="XMLID_160_"/>
    <g><path class="st7" d="M389.7,211.9c-0.5,0-1,0-1.4,0c-4.9-0.3-8.4-1-11.8-3.1l-1.9-1.2c-3.4-2.1-5.5-3.4-5.7-4.3    c-0.2-1.1-0.1-2.5-0.1-2.6l-3.9,2.1c-0.4-0.2-0.9-1.8-2.1-1.9c-0.3,0-0.6,0-1,0l-0.7-0.3v0.3c-1.4,0-2.8-0.1-3.4-0.7    c-0.5-0.5-0.8-1.3-1.1-1.9c-0.1-0.3-0.3-0.8-0.4-0.8c-0.2,0.1-1.2,0-1.6,0c-0.6-0.8-0.7-2.3,0.5-3.1c0.7-0.5,1.4-0.5,1.9-0.5    c0.6,0,0.9,0,1.1-0.2c0.8-0.7,2-1.2,3.4-1.3c0,0,0,0,0,0c1.2,0,2.6,1,3.7,1.9c0.5,0.4,1,0.7,1.3,0.9c1.1,0.6,3.4,1.1,4.1,0.7    c0.9-0.6,6-3,7.9-3.1c1.8-0.1,5.6-0.2,7.1-0.1c1.3,0.1,7.1,0.9,8.9,2c0.8,0.4,3.1,1.5,5.4,2.5c2.9,1.3,5.9,2.7,6.7,3.1    c1.3,0.9,4,2.2,4,2.2c-0.1,0.6-4.9,6.3-7.4,7.3C400.9,210.6,394.3,211.9,389.7,211.9L389.7,211.9z M368.9,200.5    c0.4,0.3,0.3,1.7,0.5,2.7c0.1,0.8,2.8,2.4,5.4,4l1.9,1.2c3.3,2.1,6.8,2.7,11.6,3c4.5,0.3,12.2-1.2,14.7-2.2    c2.2-0.9,6.7-6.1,7.2-6.7c-0.4,0.1-2.8-1.1-4-1.9c-0.7-0.5-3.8-1.9-6.6-3.1c-2.4-1.1-4.7-2.1-5.5-2.6c-1.6-0.9-7.2-1.8-8.7-1.9    c-1.4-0.1-5.2,0-7,0.1c-1.7,0.1-6.7,2.4-7.6,3c-0.9,0.5-3.4,0-4.6-0.6c-0.4-0.2-0.8-0.5-1.4-0.9c-1.1-0.8-2.4-1.8-3.3-1.8    c-1.4,0.1-2.5,0.5-3.2,1.1c-0.4,0.3-0.9,0.2-1.3,0.4c-0.7,0-1.2,0-1.8,0.4c-1,0.7-0.7,2.1-0.7,2.2c0.1-0.1,0.5-0.1,0.9-0.1    l0.7-0.1c0.4,0,0.6,0.5,0.8,1.2c0.2,0.6,0.5,1.3,0.9,1.8c0.5,0.5,1.9,0.6,3.1,0.6l0.7,0c0.4,0,0.7,0,1,0c1.6,0.1,2.2,2.1,2.2,2.1    L368.9,200.5L368.9,200.5z"/></g>
    <path class="st6"
          d="M359.2,195.5c-0.2,0.1-1.1,0.5-0.9,0.8c0.2,0.2,0.5,0.9,1.6,0.8c1.1-0.1,2.2-0.9,2.2-0.9   S360.8,195.4,359.2,195.5L359.2,195.5z"
          id="XMLID_157_"/>
    <g><path class="st7" d="M359.6,197.3c-0.9,0-1.3-0.5-1.5-0.8c-0.1-0.6,0.2-0.8,0.8-1.1c2.1-0.1,3.3,0.5,3.4,0.6    c0,0.5-1.2,1.2-2.3,1.4L359.6,197.3L359.6,197.3z M359.5,195.7c-0.7,0.3-1,0.4-1,0.5c0.2,0.2,0.5,0.5,1.2,0.5v0.3l0.2-0.3    c0.7-0.1,1.5-0.5,1.9-0.7C361.3,196,360.5,195.7,359.5,195.7L359.5,195.7z"/></g>
    <path class="st7"
          d="M359.1,195.7v1.2c0,0,1.3,0.4,1.3,0.1c0-0.3,0.1-1.1-0.2-1.1   C359.9,195.9,359.2,195.8,359.1,195.7L359.1,195.7z"
          id="XMLID_154_"/>
    <g><path class="st8" d="M359.1,195.7v1.2c0,0,1.3,0.4,1.3,0.1c0-0.3,0.1-1.1-0.2-1.1    C359.9,195.9,359.2,195.8,359.1,195.7z" id="XMLID_153_"/></g>
    <path class="st9"
          d="M371.7,196.6c0.3-0.7,0-1.6,1.9-2.7c1.9-1.1,5.1-0.8,5.1-0.8s-0.9,0.9-1,1.7   c0,0.9,0.1,1.3,0.1,1.3s-1.7-0.7-3.1-0.3C373.3,196.3,371.7,196.7,371.7,196.6L371.7,196.6z"
          id="XMLID_152_"/>
    <g><path class="st10" d="M371.8,196.9l-0.3-0.3l0.2-0.6c0.1-0.6,0.3-1.4,1.8-2.3c1.8-1.1,5.2-0.8,5.2-0.8c0.1,0.5-0.7,1.2-0.7,2    c0,0.8,0.1,1.2,0.1,1.2c-0.4,0.3-1.3-0.1-2.4-0.1c-0.3,0-0.6,0-0.9,0.1C373.8,196.4,372.2,196.9,371.8,196.9L371.8,196.9z     M377.6,193.3c-1,0-2.7,0.1-3.9,0.8c-1.3,0.8-1.4,1.4-1.6,2l-0.1,0.2c0.5-0.1,1.5-0.4,2.5-0.7c0.9-0.3,2.3,0,2.9,0.2    c-0.1-0.2-0.1-0.5,0-0.9c0-0.6,0.4-1.2,0.7-1.5C377.9,193.3,377.7,193.3,377.6,193.3L377.6,193.3z"/></g>
    <path class="st9"
          d="M380,192.8c-0.2,0.1-1.6,2-1.4,2.6c0.2,0.6,2,2,2.6,1.8c0.6-0.1,3.4-1.7,3.5-2.5   c0.2-0.8,0.3-1.9,0.1-2.1C384.6,192.3,380,192.9,380,192.8L380,192.8z"
          id="XMLID_149_"/>
    <g><path class="st10" d="M381.1,197.5c-0.7,0-2.6-1.4-2.8-2c-0.2-0.7,1.3-2.7,1.6-2.9c0.4,0,0.9-0.1,1.5-0.1c1-0.1,2.3-0.2,3-0.2    l0.7,0.1c0.3,0.2,0.3,1,0,2.3c-0.2,1-3.1,2.6-3.8,2.8L381.1,197.5L381.1,197.5z M384.6,192.8c-1,0-2.2,0.1-3.2,0.2    c-0.6,0.1-1.2,0.1-1.3,0.1c-0.2,0.2-1.4,1.9-1.3,2.3c0.1,0.4,1.7,1.7,2.3,1.7v0.3l0-0.3c0.6-0.1,3.2-1.7,3.3-2.3    C384.7,193.5,384.7,192.9,384.6,192.8L384.6,192.8z"/></g>
    <path class="st9"
          d="M386.1,192.5c-0.3,0.4-0.2,2.5-0.1,2.7c0.1,0.2,2.3,2.9,2.8,3c0.5,0.2,4-0.3,4.3-0.7   c0.3-0.5,1.1-2.4,0.9-2.9c-0.3-0.5-1-1.1-3.4-1.7C388.2,192.3,386.8,192.4,386.1,192.5L386.1,192.5z"
          id="XMLID_146_"/>
    <g><path class="st10" d="M389.1,198.5l-0.5,0c-0.6-0.2-2.9-3-3-3.2c-0.2-0.3-0.3-2.5,0.1-3c1.4-0.4,2.9-0.2,4.8,0.3    c2,0.5,3.2,1.1,3.5,1.8c0.4,0.7-0.7,2.8-0.9,3.2C392.9,198.2,389.9,198.5,389.1,198.5L389.1,198.5z M387.2,192.7    c-0.5,0-0.8,0-1.1,0.1c-0.1,0.2,0,2,0.1,2.3c0.2,0.3,2.3,2.8,2.7,2.9l0.3,0c1.2,0,3.5-0.4,3.7-0.7c0.4-0.6,1-2.3,0.9-2.6    c-0.2-0.4-0.9-1-3.2-1.6C389.3,192.8,388.1,192.7,387.2,192.7L387.2,192.7z"/></g>
    <path class="st9"
          d="M395.1,195.1c0.6,0.3,3.9,2.3,5.9,3.9c2,1.6,2.8,3.4,3.4,3.5c0.6,0.2,2.9-1.5,3-2   c0.1-0.5-2.8-2.9-4.8-4C400.5,195.4,395.1,195.2,395.1,195.1L395.1,195.1z"
          id="XMLID_143_"/>
    <g><path class="st10" d="M404.4,202.8L404.4,202.8l-0.1,0c-0.3-0.1-0.6-0.5-1.1-1.1c-0.5-0.7-1.3-1.6-2.4-2.5    c-1.8-1.4-4.7-3.2-5.7-3.8c0,0,0,0,0,0c-0.1,0-0.1,0-0.1,0c0,0,0.1,0,0.1,0c0.1-0.5,0.5-0.5,0.9-0.4c1.8,0.2,5.1,0.5,6.6,1.3    c1.5,0.9,5.1,3.5,4.9,4.3C407.4,201.2,405.2,202.8,404.4,202.8L404.4,202.8z M395.2,195.4c1.4,0.3,4.2,2,5.9,3.4    c1.1,0.9,1.9,1.9,2.4,2.6c0.3,0.4,0.7,0.9,0.8,0.9h0c0.6,0,2.5-1.5,2.7-1.8c-0.1-0.4-2.7-2.6-4.7-3.8c-1.4-0.8-4.8-1.1-6.4-1.2    C395.6,195.4,395.4,195.4,395.2,195.4L395.2,195.4z"/></g>
    <path class="st9"
          d="M394.4,196.7c-0.3,0.3,3.6,8.4,4.3,8.7c0.7,0.3,5.1-1.6,5.1-2.2c-0.1-0.6-1.2-1.9-3.9-3.7   C397.1,197.8,394.9,196.6,394.4,196.7L394.4,196.7z"
          id="XMLID_140_"/>
    <g><path class="st10" d="M398.9,205.7l-0.3,0c-0.8-0.3-4.1-7.4-4.4-8.6l0.3-0.6c1,0,4.2,2,5.5,2.9c1.8,1.2,3.9,2.8,4,3.9    C403.2,204.4,400,205.7,398.9,205.7L398.9,205.7z M394.5,197c0.1,0.5,3.6,7.8,4.3,8.2l0.1,0c1.1,0,4.4-1.5,4.6-2    c0-0.1-0.3-1.1-3.8-3.4C396.6,197.7,394.9,197,394.5,197L394.5,197z"/></g>
    <path class="st9"
          d="M389.6,199.7c-0.6,0.4-1.6,7.7-1,8.1c0.6,0.3,8.1-0.9,8.4-1.7c0.3-0.8-3.1-7.2-4.1-7.2   C392,198.8,390.2,199.1,389.6,199.7L389.6,199.7z"
          id="XMLID_137_"/>
    <g><path class="st10" d="M389.1,208.1l-0.6-0.1c-0.2-0.1-0.3-0.4-0.3-1c-0.1-1.8,0.6-7,1.3-7.5c0.6-0.7,2.6-0.9,3.5-0.9    c0.2,0,0.6,0.1,1.4,1.3c1.2,1.6,3.2,5.5,2.9,6.3C396.9,207.1,390.4,208.1,389.1,208.1L389.1,208.1z M392.9,199.1    c-1,0-2.7,0.3-3.2,0.8c-0.6,0.6-1.4,7.1-1,7.7l0.3,0c1.9,0,7.3-1,7.6-1.6c0.1-0.4-1.3-3.7-2.8-5.8    C393.2,199.1,393,199.1,392.9,199.1L392.9,199.1z"/></g>
    <path class="st9"
          d="M381.9,198.2c-0.8,0.9-0.6,7.7-0.3,8.1c0.3,0.4,4.8,1.8,5.3,1.3c0.5-0.5,1.1-8.1,0.7-8.7   c-0.4-0.6-1.7-2-2.6-2.1C383.9,196.7,382.3,197.9,381.9,198.2L381.9,198.2z"
          id="XMLID_134_"/>
    <g><path class="st10" d="M386.4,207.9c-1.2,0-4.6-1-5-1.5c-0.5-0.6-0.6-7.4,0.3-8.4c1.1-0.7,2.2-1.5,3.1-1.5c1.4,0.2,2.8,2,3,2.2    c0.5,0.6-0.1,8.4-0.7,9l-0.1,0.1L386.4,207.9L386.4,207.9z M384.8,197c-0.8,0-1.9,0.7-2.5,1.1c-0.9,0.9-0.9,7.3-0.6,7.9    c0.3,0.3,3.4,1.3,4.6,1.3v0.3l0.3-0.3c0.4-0.6,1-7.7,0.6-8.4C386.8,198.4,385.7,197.1,384.8,197C384.9,197,384.8,197,384.8,197    L384.8,197z"/></g>
    <path class="st9"
          d="M371.9,198.1c-0.7,0.7-0.8,2.5,0,2.8c0.8,0.3,2.8,1.4,4.6,2.3c1.9,1,2.9,2.1,3.5,2.1   c0.5,0,1-6.8,0.5-7.2c-0.6-0.4-2.3-0.7-3.9-0.6C375,197.5,372.7,197.7,371.9,198.1L371.9,198.1z"
          id="XMLID_131_"/>
    <g><path class="st10" d="M380,205.5c-0.4,0-0.8-0.3-1.4-0.8c-0.5-0.4-1.2-0.9-2.1-1.4l-0.8-0.4c-1.6-0.8-3.1-1.6-3.8-1.9    c-0.4-0.1-0.6-0.5-0.7-1c-0.1-0.7,0-1.7,0.6-2.2c1.1-0.5,4-0.6,4.9-0.7c2,0,3.4,0.3,4,0.7c0.7,0.5,0.2,5.8-0.1,7L380,205.5    L380,205.5z M377.1,197.7c-2.2,0.1-4.4,0.3-5.1,0.6c-0.3,0.3-0.5,1.1-0.4,1.7c0.1,0.3,0.2,0.5,0.4,0.6c0.7,0.3,2.2,1.1,3.8,1.9    l0.8,0.4c0.9,0.5,1.6,1,2.2,1.4c0.5,0.3,0.9,0.7,1.1,0.7v0.3l0-0.3c0.4-0.5,0.7-6.2,0.3-6.8C379.9,198,378.6,197.7,377.1,197.7    L377.1,197.7z"/></g>
    <g><g><defs><rect height="19.8" id="XMLID_127_" width="18" x="335.5" y="279.8"/></defs><clipPath id="XMLID_3_"><use style="overflow:visible;" xlink:href="#XMLID_127_"/></clipPath><path
      class="st11"
      d="M339,284.3c1.3-1.3,3.3-4.4,6.1-4.5c2.8-0.1,5.7,2.4,5.7,2.4s2.9,11.9,2.8,11.9     c-0.2,0-4.8,3.4-4.9,3.4c-0.2,0-2-4.7-3.8-4.2c-1.7,0.4-1.6,6.8-1.9,6.4c-0.3-0.4-7.7-9.2-7.4-9.5     C335.8,289.8,339.2,284.7,339,284.3L339,284.3z"
      id="XMLID_128_"/></g></g>
    <g><g><defs><rect height="17.3" id="XMLID_125_" width="16.6" x="415.8" y="279.8"/></defs><clipPath id="XMLID_263_"><use style="overflow:visible;" xlink:href="#XMLID_125_"/></clipPath><path
      class="st12"
      d="M415.8,282.8c0.9-0.1,4.8-3.1,7.5-3c2.8,0.1,4.4,1.4,5.8,2.7c1.5,1.3,3.2,4.5,3.2,4.5     s-3.5,9.6-3.8,9.6c-0.3,0-1.7,0.8-2,0.1c-0.3-0.7-1.2-3-2.9-3.3c-1.8-0.3-2.2,3.1-2.2,3.1L415.8,282.8z"
      id="XMLID_126_"/></g></g>
    <g><g><defs><rect height="30.1" id="XMLID_123_" width="38.2" x="410.7" y="285.7"/></defs><clipPath id="XMLID_264_"><use style="overflow:visible;" xlink:href="#XMLID_123_"/></clipPath><path
      class="st13"
      d="M417.6,285.7c0,0.9,5.4,14.1,14.1,16.7c8.7,2.5,11.5-2.4,12.5-4.1c1-1.7,4.7-1.6,4.7-1.6     s-0.9,12.4-2.3,14c-1.5,1.6-2.6,5-10.8,5.1c-8.1,0.1-15.5-7.6-18-9.9c-2.5-2.3-5.7-8.2-7-10.9C409.5,292.4,417.8,286,417.6,285.7     L417.6,285.7z"
      id="XMLID_124_"/></g></g>
    <g><g><defs><rect height="32.4" id="XMLID_121_" width="36.4" x="321.8" y="283.5"/></defs><clipPath id="XMLID_265_"><use style="overflow:visible;" xlink:href="#XMLID_121_"/></clipPath><path
      class="st14"
      d="M322.9,312.2c0.1,0,3.9,4.1,9.4,3.7c5.5-0.4,15-3.7,19.3-9.3c4.4-5.7,6.5-11.7,6.5-11.7     s-6.4-11.3-6.5-11.3c-0.1,0-0.7,3.7-1.9,6.1c-1.2,2.4-4.4,9.2-9.7,11.3c-5.4,2.1-5.4,3-7.5,2.7c-2.2-0.3-7.9-3.7-7.9-3.8     c0-0.1-2.8,6.6-2.8,6.6S321.3,310.8,322.9,312.2L322.9,312.2z"
      id="XMLID_122_"/></g></g>
    <g><g><defs><rect height="47.2" id="XMLID_119_" width="112.7" x="328.6" y="281.5"/></defs><clipPath id="XMLID_266_"><use style="overflow:visible;" xlink:href="#XMLID_119_"/></clipPath><path
      class="st15"
      d="M338.9,283.9c-0.4,0-10.7,5.6-10.3,8c0.4,2.4,17.7,36.4,54.7,36.8c37,0.4,59.6-30.8,58-36     c-1.6-5.2-13.2-11.2-13.2-11.2s2.9,2.4,2.5,5.6c-0.4,3.2-13.2,30.8-45.2,30c-32.1-0.8-47.3-25.2-47.3-28S339.7,284.7,338.9,283.9     L338.9,283.9z"
      id="XMLID_120_"/></g></g>
    <g><g><defs><rect height="17.3" id="XMLID_117_" width="11.4" x="439.1" y="293.7"/></defs><clipPath id="XMLID_267_"><use style="overflow:visible;" xlink:href="#XMLID_117_"/></clipPath><path
      class="st16"
      d="M439.1,308.7c0.9-0.7,6.3-15.4,9.3-15c3.1,0.4,2,4.8,1.7,5.9c-0.3,1.1-3.3,11.3-3.3,11.3     s0.1-2.4-1.9-3C442.9,307.4,439.6,308.9,439.1,308.7L439.1,308.7z"
      id="XMLID_118_"/></g></g>
    <g><g><defs><rect height="18.3" id="XMLID_115_" width="11.5" x="318.4" y="294.1"/></defs><clipPath id="XMLID_268_"><use style="overflow:visible;" xlink:href="#XMLID_115_"/></clipPath><path
      class="st17"
      d="M322.9,312.4c0-0.8-2.5-3.6,0.4-4.4c2.9-0.8,6.6,0.8,6.6,0.8s-2.1-6-4.5-10.8     c-2.5-4.8-3.3-4-5.4-3.2c-2.1,0.8-2,2.9-0.8,6.1C320.5,304.1,322.9,313.2,322.9,312.4L322.9,312.4z"
      id="XMLID_116_"/></g></g>
    <polygon class="st18" id="XMLID_114_"
             points="356.8,284.9 360.4,272.8 350.4,265.2 362.9,264.9 366.9,253 371,264.9 383.4,265.1    373.6,272.8 377.2,284.9 367,277.7  "/>
    <path class="st1" d="M423.7,222v46.5c0.1,22.7-23.1,42.6-38.5,46.5c-15.4-3.9-38.6-23.8-38.5-46.5V222H423.7z"
          id="XMLID_113_"/>
    <g><g><defs><rect height="35.6" id="XMLID_111_" width="77" x="346.8" y="222"/></defs><clipPath id="XMLID_269_"><use style="overflow:visible;" xlink:href="#XMLID_111_"/></clipPath><path
      class="st19"
      d="M346.8,222l0.1,29.1c0,0,0.4-0.6,5.4-0.2c5.1,0.4,5.5,6.4,11,6.4c5.5,0,5.5-6.4,11-6.4     s5.5,6.4,11,6.4c5.5,0,5.5-6.4,11-6.4c5.5,0,5.5,6.4,11.3,6.8c5.2-0.4,5.2-6.8,10.7-7.1l5.5,0.4V222H346.8z"
      id="XMLID_112_"/></g></g>
    <g><path class="st7" d="M407.5,257.9L407.5,257.9c-3-0.2-4.5-1.9-6-3.6c-1.4-1.6-2.7-3.2-5.3-3.2c-2.6,0-3.9,1.5-5.3,3.1    c-1.4,1.6-2.8,3.3-5.7,3.3c-2.9,0-4.3-1.7-5.7-3.3c-1.4-1.6-2.7-3.1-5.3-3.1c-2.6,0-3.9,1.5-5.3,3.1c-1.4,1.6-2.8,3.3-5.7,3.3    c-3,0-4.5-1.7-6-3.3c-1.4-1.5-2.7-2.9-5-3.1c-4.5-0.3-5.2,0.1-5.2,0.2l-0.5-29.3l77.2-0.3l0.3,29.1l-5.7-0.1    c-2.7,0.2-4,1.8-5.3,3.6C411.6,256,410.2,257.7,407.5,257.9L407.5,257.9L407.5,257.9z M396.2,250.6c2.9,0,4.3,1.7,5.7,3.3    c1.4,1.6,2.8,3.3,5.6,3.4c2.4-0.2,3.6-1.7,5-3.4c1.4-1.8,2.8-3.6,5.7-3.8l5.5,0.4l-0.3-28.6l-76.7,0.3l0.3,28.6    c0.3-0.4,1.9-0.5,5.2-0.2c2.5,0.2,4,1.7,5.3,3.3c1.5,1.6,2.9,3.2,5.6,3.2c2.6,0,3.9-1.5,5.3-3.1c1.4-1.6,2.8-3.3,5.7-3.3    c2.9,0,4.3,1.7,5.7,3.3c1.4,1.6,2.7,3.1,5.3,3.1c2.6,0,3.9-1.5,5.3-3.1C391.9,252.3,393.4,250.6,396.2,250.6L396.2,250.6z"/></g>
    <g><g><defs><rect height="16" id="XMLID_107_" width="77" x="346.8" y="260.5"/></defs><clipPath id="XMLID_270_"><use style="overflow:visible;" xlink:href="#XMLID_107_"/></clipPath><path
      class="st20"
      d="M346.8,260.5v9.6h5.5c5.1,0.4,5.5,6.4,11,6.4c5.5,0,5.5-6.4,11-6.4s5.5,6.4,11,6.4     c5.5,0,5.5-6.4,11-6.4c5.5,0,5.2,6,11,6.4c5.2-0.4,5.5-6,11-6.4h5.5v-9.6h-5.5c-5.5,0-5.5,6.4-11,6.4s-5.5-6.4-11-6.4     c-5.5,0-5.5,6.4-11,6.4c-5.5,0-5.5-6.4-11-6.4s-5.5,6.4-11,6.4c-5.5,0-5.5-6.4-11-6.4H346.8z"
      id="XMLID_108_"/></g></g>
    <g><g><defs><rect height="16.2" id="XMLID_105_" width="73.6" x="348.4" y="279.6"/></defs><clipPath id="XMLID_271_"><use style="overflow:visible;" xlink:href="#XMLID_105_"/></clipPath><path
      class="st21"
      d="M348.4,279.7l3.8,9.6c5.1,0.4,5.5,6.4,11,6.4c5.5,0,5.5-6.4,11-6.4s5.5,6.4,11,6.4     c5.5,0,5.5-6.4,11-6.4c5.5,0,5.2,6,11,6.4c5.2-0.4,5.3-6,10.9-6.4l4-9.8l-3.8,0.2c-5.5,0-5.5,6.4-11,6.4s-5.5-6.4-11-6.4     c-5.5,0-5.5,6.4-11,6.4c-5.5,0-5.5-6.4-11-6.4s-5.5,6.4-11,6.4c-5.5,0-5.5-6.4-11-6.4H348.4z"
      id="XMLID_106_"/></g></g>
    <g><g><defs><rect height="16" id="XMLID_103_" width="35.9" x="367.3" y="299"/></defs><clipPath id="XMLID_272_"><use style="overflow:visible;" xlink:href="#XMLID_103_"/></clipPath><path
      class="st22"
      d="M385.2,315c5.5,0,18.1-9.6,18-9.6c0.1,0-1.5-6.4-7-6.4c-5.5,0-5.5,6.4-11,6.4     c-5.5,0-5.5-6.4-11-6.4s-6.9,6.4-6.9,6.4C367.1,305.4,379.7,315,385.2,315L385.2,315z"
      id="XMLID_104_"/></g></g>
    <g><g><defs><rect height="6.8" id="XMLID_101_" width="25.2" x="353.3" y="242"/></defs><clipPath id="XMLID_273_"><use style="overflow:visible;" xlink:href="#XMLID_101_"/></clipPath><path
      class="st23"
      d="M356.8,244.2c0.6,0,6.2,0.8,10.3,0.5c4.1-0.3,5.6-1.6,5.6-1.9V242h5.3c0,0,0.9,3.8,0.3,4.1     c-0.6,0.3-2.2,1.4-2.5,1.4c-0.3,0,0-1.9-0.6-1.4c-0.6,0.5-0.9,1.4-0.9,1.4s-0.6-0.8-0.9-0.8s-0.9,0.8-0.9,0.8s0-0.8-0.3-0.8     c-0.3,0-1.9,1.4-1.9,1.4l-1.6-1.1c0,0-0.9,1.4-1.3,1.4s-2.2-1.1-2.2-1.1l-3.1,1.6c0,0,0-2.4-0.6-2.2c-0.6,0.3-4.1,0.3-4.1,0.3     s-0.9,1.6-1.3,1.6c-0.3,0-1.6-1.4-1.3-1.4c0.3,0,0.9-0.8,0.6-1.1c-0.3-0.3-1.9,0-1.9-0.3s-0.6-1.9-0.3-1.9s1.6,0.3,1.6,0.3v-1.6     h1.6L356.8,244.2z"
      id="XMLID_102_"/></g></g>
    <g><path class="st7" d="M362,249.1v-0.3c0-1.1-0.2-2-0.4-2c-0.7,0.3-3.8,0.3-4.1,0.3c-0.3,0.7-0.9,1.6-1.3,1.6    c-0.4,0-1.5-1.2-1.5-1.5c0.3-0.2,0.6-0.5,0.7-0.8c-0.3-0.9-1.9-0.2-1.9-0.6c-0.4-1.4-0.5-1.8-0.3-2c0.5-0.1,1.6,0.2,1.8,0.2    l-0.2-1.5l1.7-0.2l0.5,1.8c0-0.1,0.4-0.1,1,0c2,0.2,6,0.6,9.1,0.4c4-0.3,5.4-1.6,5.5-1.8l0-0.8l5.5-0.2c0.4,1.3,1.1,4.1,0.4,4.4    c-0.3,0.1-0.7,0.4-1.1,0.6c-1.9,1.2-1.7,0.7-1.8-0.1c0-0.2,0-0.6-0.1-0.7c-0.6,0.6-0.9,1.4-0.9,1.4c-1.2-0.7-1.3-0.8-1.9,0    c-0.3-0.4-0.4-0.8-0.4-0.8c-0.2,0-1.1,0.7-1.8,1.3l-1.8-1.1c-0.1,0.5-0.8,1.4-1.2,1.4c-0.3,0-1.8-0.8-2.3-1.1L362,249.1L362,249.1    z M361.5,246.5c0.7,0,0.8,1.3,0.8,2.1l2.9-1.5c1,0.5,2.1,1.1,2.3,1.1c0.2,0,0.7-0.7,1.1-1.3l1.8,1c0.3-0.4,1.4-1.4,1.8-1.4    c0.3,0,0.4,0.5,0.5,0.8c0.1-0.3,0.5-0.8,0.8-0.8c0.3,0,0.8,0.5,1,0.8c0-0.2,0.3-0.8,0.8-1.3c0.7-0.2,0.7,0.3,0.7,0.8    c0.2,0.5,0.8,0.1,1.3-0.2c0.4-0.3,0.9-0.5,1.2-0.7c0.3-0.1,0.1-1.9-0.4-3.9l-5.1,0.1l0.2,0.6c0,0.5-1.8,1.8-5.8,2.1    c-3.1,0.2-7.1-0.2-9.1-0.4c-0.6-0.1-1-0.1-1.2-0.1l-0.5-1.8l-1.4,0.1l0.2,1.5c-0.5,0.1-1.5-0.1-1.7-0.1c0,0.1,0.2,0.8,0.3,1.1    c0.1,0.3,0.2,0.5,0.2,0.7c0,0,0.4,0,0.7,0c0.6,0,1,0,1.2,0.2c0,1-0.4,1.4-0.7,1.4c0.2,0.1,1,1,1.3,1c0.2-0.1,0.7-0.8,1.1-1.5    C358.4,246.7,361,246.7,361.5,246.5C361.5,246.5,361.5,246.5,361.5,246.5L361.5,246.5z"/></g>
    <g><g><defs><rect height="17" id="XMLID_97_" width="16.7" x="353.7" y="227.1"/></defs><clipPath id="XMLID_274_"><use style="overflow:visible;" xlink:href="#XMLID_97_"/></clipPath><path
      class="st24"
      d="M362.4,228.7c-0.3,0-2.5,2.2-2.2,4.6c0.3,2.4,5.6,6,5.6,6s2.8-1.1,3.7,0     c0.9,1.1,0.9,4.3,0.6,4.3c-0.3,0-4.1,0.8-4.1,0.3c0-0.5,0-1.1-0.3-1.1s-3.7,0.3-3.7,0.3l0.3-1.1l-3.1-0.5l1.3-1.1     c0,0-5-1.9-4.7-1.9s2.2-1.1,2.2-1.1l-3.7-2.2h2.2c0,0-3.1-2.2-2.8-2.2c0.3,0,1.9,0.3,1.9,0.3l-0.9-2.2h0.9l-0.9-1.6l1.6-0.5     l0.9,1.4l-0.3-3.3l2.2,0.3v2.7c0,0,0.9-1.6,0.9-1.9C359.9,227.9,362.8,229.3,362.4,228.7L362.4,228.7z"
      id="XMLID_98_"/></g></g>
    <g><path class="st7" d="M366.8,244.3c-0.3,0-0.8-0.1-0.8-0.3c0-0.3,0-0.9-0.2-0.9c-0.3,0-3.7,0.3-3.7,0.3l0.1-1.3l-3-0.3l1.2-1.4    c-4.8-1.6-4.8-1.6-4.7-1.8c0.4-0.1,1.4-0.7,2.3-1.2l-3.7-1.9l2.3-0.3c-3.1-1.8-3-1.9-3-2c0.5-0.1,2.1,0.2,2.1,0.2l-1.1-1.9    l1.1-0.2l-1.1-1.4l1.7-0.8l1.1,1.4l-0.6-3.1l2.4,0.1l0.1,2.9c0.1-0.8,0.6-1.7,0.6-1.9c0.4-0.2,0.8-0.1,1.3,0.1    c0.4,0.2,0.9,0.3,1.1,0.4c-0.5,0.7-2.1,2.6-1.8,4.6c0.3,2.3,5.4,5.7,5.5,5.8c-0.1-0.1,3-0.9,3.8,0c0.9,1.1,1,3.9,0.7,4.4    c-0.3,0.2-0.6,0.2-0.9,0.3C368.8,244.1,367.5,244.3,366.8,244.3L366.8,244.3z M365.9,242.7c0.5,0,0.5,0.6,0.5,1.2l0.4,0    c0.7,0,1.9-0.2,2.7-0.3c0.4-0.1,0.7-0.1,0.7-0.1c0.1-0.2,0.1-3.1-0.7-4.1c-0.7-0.8-3.5,0-3.6,0c-0.4-0.2-5.5-3.6-5.8-6.1    c-0.3-2.1,1.2-3.9,1.9-4.6c-0.2,0.1-0.6,0-1-0.2c-0.4-0.1-0.9-0.3-1-0.3c0.1,0.2-0.6,1.4-0.9,1.9l-0.3-2.8l-2-0.1l0.5,3.1    l-1.2-1.3l-1.4,0.6l1,1.4l-1.1,0.2l1.1,1.9c-0.2,0.2-1.6,0-2,0c0.3,0,1.6,1,2.9,1.9l-2.3,0.3l3.8,1.9c-0.4,0.5-1.7,1.3-2.2,1.4    c0.5,0,3.1,1,4.7,1.6l-1.2,1.4l3,0.3l-0.2,1.3C362.5,242.9,365.6,242.7,365.9,242.7L365.9,242.7z"/></g>
    <g><g><defs><rect height="1.1" id="XMLID_93_" width="2.6" x="409.2" y="245.6"/></defs><clipPath id="XMLID_275_"><use style="overflow:visible;" xlink:href="#XMLID_93_"/></clipPath><path
      class="st25"
      d="M410.8,245.6c-0.4,0.3-1.6,1.1-1.6,1.1s2.7-0.2,2.6-0.2     C411.7,246.4,410.8,245.8,410.8,245.6L410.8,245.6z"
      id="XMLID_94_"/></g></g>
    <g><g><defs><rect height="2.2" id="XMLID_91_" width="1.7" x="412.6" y="246.8"/></defs><clipPath id="XMLID_276_"><use style="overflow:visible;" xlink:href="#XMLID_91_"/></clipPath><path
      class="st26" d="M413,246.8c-0.2,0.2-0.6,2.3-0.3,2.2c0.3-0.1,1.6-1.7,1.6-1.7L413,246.8z" id="XMLID_92_"/></g></g>
    <g><g><defs><rect height="1.9" id="XMLID_89_" width="2" x="416.6" y="246.8"/></defs><clipPath id="XMLID_277_"><use style="overflow:visible;" xlink:href="#XMLID_89_"/></clipPath><path
      class="st27"
      d="M416.6,247.1c0.4,0.3,2.2,1.9,1.9,1.6c-0.2-0.3-0.5-1.8-0.6-1.8     C417.8,246.8,416.8,247.2,416.6,247.1L416.6,247.1z"
      id="XMLID_90_"/></g></g>
    <g><g><defs><rect height="1.4" id="XMLID_87_" width="3.1" x="383" y="244.9"/></defs><clipPath id="XMLID_278_"><use style="overflow:visible;" xlink:href="#XMLID_87_"/></clipPath><path
      class="st28" d="M385.2,244.9c-0.2,0.1-2.2,1.4-2.2,1.4s3.3-0.5,3.1-0.5S385.1,245.1,385.2,244.9     L385.2,244.9z"
      id="XMLID_88_"/></g></g>
    <g><g><defs><rect height="2.1" id="XMLID_85_" width="2.2" x="386.2" y="246.5"/></defs><clipPath id="XMLID_279_"><use style="overflow:visible;" xlink:href="#XMLID_85_"/></clipPath><path
      class="st29" d="M387.2,246.5c-0.3,0.3-1.3,2.2-0.9,2.1c0.4-0.1,2.1-1.3,2.1-1.3L387.2,246.5z"
      id="XMLID_86_"/></g></g>
    <g><g><defs><rect height="1.2" id="XMLID_83_" width="2.2" x="384.2" y="242.6"/></defs><clipPath id="XMLID_280_"><use style="overflow:visible;" xlink:href="#XMLID_83_"/></clipPath><path
      class="st30" d="M386,243.9c-0.2-0.1-1.9-0.7-1.8-0.7c0.1,0,2.2-0.5,2.2-0.5L386,243.9z" id="XMLID_84_"/></g></g>
    <g><g><defs><rect height="1.6" id="XMLID_81_" width="3" x="352.8" y="241.3"/></defs><clipPath id="XMLID_281_"><use style="overflow:visible;" xlink:href="#XMLID_81_"/></clipPath><polygon
      class="st31" id="XMLID_82_" points="355.1,243 352.8,241.3 355.7,242.2    "/></g></g>
    <g><g><defs><rect height="1.7" id="XMLID_79_" width="4.1" x="349.9" y="244.1"/></defs><clipPath id="XMLID_282_"><use style="overflow:visible;" xlink:href="#XMLID_79_"/></clipPath><path
      class="st32"
      d="M353.1,244.1c-0.3,0-3.3,1.6-3.2,1.6c0.1,0,4.1,0.1,4.1,0     C353.9,245.6,353.3,244.2,353.1,244.1L353.1,244.1z"
      id="XMLID_80_"/></g></g>
    <g><g><defs><rect height="1.7" id="XMLID_77_" width="3.5" x="352.5" y="246.4"/></defs><clipPath id="XMLID_283_"><use style="overflow:visible;" xlink:href="#XMLID_77_"/></clipPath><path
      class="st33" d="M355,246.4c-0.3,0.1-2.6,1.7-2.5,1.7s3.5,0.1,3.5,0C356,248.1,355,246.5,355,246.4     L355,246.4z"
      id="XMLID_78_"/></g></g>
    <g><g><defs><rect height="1.9" id="XMLID_75_" width="2.2" x="353.9" y="227.7"/></defs><clipPath id="XMLID_284_"><use style="overflow:visible;" xlink:href="#XMLID_75_"/></clipPath><path
      class="st34" d="M354.6,229.6c0,0-0.9-1.9-0.8-1.9c0.1,0,2.2,1.5,2.2,1.5L354.6,229.6z" id="XMLID_76_"/></g></g>
    <g><g><defs><rect height="1.4" id="XMLID_73_" width="2.3" x="357" y="226"/></defs><clipPath id="XMLID_285_"><use style="overflow:visible;" xlink:href="#XMLID_73_"/></clipPath><path
      class="st35" d="M357,227.2c0-0.1,0.2-1.2,0.2-1.2s2.1,1.4,2,1.4C359.2,227.4,357.1,227.4,357,227.2     L357,227.2z"
      id="XMLID_74_"/></g></g>
    <g><g><defs><rect height="2.4" id="XMLID_71_" width="2" x="360.3" y="226.3"/></defs><clipPath id="XMLID_286_"><use style="overflow:visible;" xlink:href="#XMLID_71_"/></clipPath><path
      class="st36"
      d="M360.3,228.1c0-0.1,0.2-1.8,0.2-1.8s1.9,2.3,1.8,2.4C362.1,228.7,360.4,228.3,360.3,228.1     L360.3,228.1z"
      id="XMLID_72_"/></g></g>
    <g><g><defs><rect height="7.8" id="XMLID_69_" width="18.5" x="384.7" y="239.8"/></defs><clipPath id="XMLID_287_"><use style="overflow:visible;" xlink:href="#XMLID_69_"/></clipPath><path
      class="st37"
      d="M391.5,239.9c0,0.1,3.3,2.4,3.4,3c0.1,0.5-5.9,0.7-5.9,0.7s-1.7-1.2-2.3-1.1     c-0.5,0.1-0.8,1.2-0.8,1.2l1.4,0.7l-2.6,0.1l0.8,1.3l2-0.1l-0.5,1.2c0,0,1.3,0.8,1.5,0.7c0.2-0.1,1-1.4,1.6-1.6     c0.6-0.2,1.9-0.2,1.9-0.2s-1,1.5-0.5,1.5c0.5,0,2.6-1.6,2.6-1.6s0.5,1.4,0.5,1.4c0.1,0,1.6-1.6,1.6-1.6s0,1.3,0.2,1.3     c0.2,0,2.4-1.6,2.4-1.6s1.7,1.9,1.9,1.8c0.2-0.1,0.5-2,0.7-2c0.2,0,1.7-0.2,1.7-0.3c0-0.1-0.9-0.7-1.1-1.7     c-0.2-0.9,0.2-3.2,0.1-3.2C402.1,239.8,391.7,240.1,391.5,239.9L391.5,239.9z"
      id="XMLID_70_"/></g></g>
    <g><path class="st7" d="M388.4,247.8c-0.4,0-1.3-0.6-1.5-0.7l0.4-1.4l-1.9,0.4l-0.9-1.4l2.8-0.4l-1.5-0.4c-0.1-0.3,0.2-1.4,0.8-1.5    c0,0,0,0,0,0c0.7,0,2.2,1,2.4,1.1c2.6-0.1,5.4-0.3,5.7-0.6c-0.1-0.2-1.6-1.5-2.4-2.1c-0.9-0.7-1-0.8-1-0.9    c0.3-0.1,0.5-0.1,1.6-0.1c2.5,0,7.6-0.2,8.9-0.2c0.5,0.1,0.5,0.1,0.5,0.9c-0.1,0.7-0.2,1.9-0.1,2.4c0.1,0.7,0.7,1.2,0.9,1.5    c0.2,0.6-1.7,0.7-1.7,0.7c0,0.1-0.1,0.6-0.2,0.9c-0.2,0.7-0.3,1-0.4,1.1c0,0,0,0,0,0c-0.5,0-1.5-1.1-2.1-1.8    c-0.8,0.8-2.1,1.7-2.3,1.7c-0.1,0-0.4,0-0.4-1.4c-1.2,1.8-1.3,1.8-1.4,1.8c-0.1,0-0.2,0-0.7-1.5c-0.1,0.3-1.9,1.7-2.4,1.7    c-0.4-0.4,0-1.1,0.3-1.6c-0.3,0.1-1.2,0.2-1.7,0.3c-0.4,0.1-0.8,0.7-1.1,1.1L388.4,247.8L388.4,247.8z M387.4,245.5l-0.3,1.4    c0.4,0.1,1,0.5,1.3,0.5c0.7-0.8,1.2-1.4,1.7-1.6c0.6-0.2,1.9-0.2,2-0.2c-0.2,0.8-0.5,1.4-0.5,1.5c0.2,0,1.6-0.9,2.4-1.6    c0.4,0.7,0.7,1.4,0.8,1.4c-0.1-0.1,0.8-1,1.3-1.6c0.3,0.6,0.3,1.2,0.4,1.3c0.1-0.1,1.3-0.9,2.3-1.6c0.9,0.8,1.8,1.7,2,1.7    c0-0.1,0.1-0.6,0.2-0.9c0.2-0.8,0.3-1.1,0.5-1.1c0.2,0,1.5-0.2,1.6-0.2c-0.4-0.1-1-0.7-1.2-1.5c-0.1-0.6,0-1.8,0.1-2.5    c0-0.3,0-0.6,0-0.6c-1.8,0.2-8.7,0.4-10.1,0.3c0.2,0.1,0.4,0.3,0.6,0.4c1.6,1.3,2.5,2,2.5,2.3c-0.5,0.7-4.8,0.8-6.1,0.9    c-0.5-0.3-1.8-1.1-2.2-1.1c-0.4,0-0.6,0.8-0.7,1.1l1.3,0.5l-2.7,0.4l0.9,1L387.4,245.5L387.4,245.5z"/></g>
    <g><g><defs><rect height="22.8" id="XMLID_65_" width="47.3" x="371.9" y="225.2"/></defs><clipPath id="XMLID_288_"><use style="overflow:visible;" xlink:href="#XMLID_65_"/></clipPath><path
      class="st38"
      d="M374.9,235.8h30.5c3.1,0,5.9-1.1,5.9-2.7c0-1.6-5-1.9-6.9-1.4c-1.9,0.5-10,3.8-13.4,3.5     c-3.4-0.3-6.6-2.2-6.9-4.1c-0.3-1.9,1.6-3.5,5-3.5c3.4,0,7.8,1.1,8.7,0.8c0.9-0.3,3.1-2.4,4.1-2.7c0.9-0.3,3.7-0.5,3.7-0.5     l-1.3,0.8l4.1-0.8c0,0-3.1,3-6.2,3.8c-3.1,0.8-9.7,0.5-12.2,0.5c-2.5,0-3.7-0.3-3.4,1.4c0.3,1.6,2.2,2.7,3.7,2.4     c1.6-0.3,6.2-1.6,6.2-1.6l-1.3-0.8l5.6-0.3c0,0-0.3-0.8,0-0.8c0.3,0,3.1,0.3,3.1,0.3s-1.9-0.8-1.6-0.8s1.6,0,4.1,0.3     c2.5,0.3,7.8,1.1,7.5,3.3c-0.3,2.2-2.2,4.1-4.4,4.1c-2.2,0-4.1-0.5-4.1,0.3c0,0.8,2.5,1.4,4.1,1.4c1.6,0,3.4-1.1,3.7-1.1     c0.3,0,0.9,1.6,1.3,1.6s2.2-0.5,2.2-0.5l-1.2,3l2.2,0.5c0,0-1.3,1.1-0.9,1.1c0.3,0,2.2,0,2.2,0.3c0,0.3-2.5,1.9-2.5,2.2     c0,0.3,1.9,1.1,1.9,1.1s-1.3,1.6-1.6,1.4c-0.3-0.3-1.6-1.6-1.6-1.6s-0.3,1.1-0.9,1.1c-0.6,0-1.9-0.3-1.9-0.3s0.9-1.6,0.6-1.6     c-0.3,0-1.9,1.1-1.9,0.8l-0.9-0.8c0,0,2.5-0.9,2.5-2.2c0-1.3-1-2.6-5.5-2.8c-4.5-0.2-4.6,0.9-7.9,0.8c-3.4-0.1-3.4-1.3-5.8-1.3     c-2.5,0-10.2,2.7-13.8,2.6c-3.6-0.1-8.1-0.3-7.9-0.4C372,242.2,374.8,236,374.9,235.8L374.9,235.8z"
      id="XMLID_66_"/></g></g>
    <g><path class="st7" d="M417.1,248.2l-0.2-0.1c-0.3-0.2-1.2-1.2-1.5-1.6c0,0.3-0.3,1-0.9,1c-0.6,0-1.9-0.3-1.9-0.3    c0.2-0.8,0.6-1.6,0.6-1.7c0,0.1-0.4,0.3-0.7,0.5c-0.5,0.3-0.8,0.4-1,0.4l-1.1-0.9c0.1-0.3,2.4-1.1,2.4-2.3c0-1.6-1.8-2.5-5.4-2.6    l-1,0c-1.8,0-2.7,0.2-3.6,0.5c-0.8,0.2-1.6,0.4-2.8,0.4c-2.3-0.1-3.2-0.4-3.9-0.8c-0.7-0.3-1.3-0.5-2.4-0.5    c-1.1,0-3.3,0.5-5.6,1.1c-2.8,0.7-6.1,1.5-8.1,1.5c-2.5,0-8.1-0.2-8.2-0.5c0.2-0.4,2.9-6.3,3-6.7l30.7-0.1c3.2,0,5.8-1.1,5.8-2.5    c0-1.4-4.8-1.7-6.7-1.2c-0.4,0.1-1.1,0.4-2,0.7c-3.1,1.1-8.2,2.9-11,2.9c-3.9-0.3-7.1-2.2-7.5-4.2c-0.1-0.8,0.1-1.5,0.6-2.1    c1.6-1.9,6.5-1.6,10.1-1.1c1.2,0.2,2.1,0.3,2.7,0.3c0.8-0.2,1.6-0.8,2.4-1.4c0.8-0.6,1.6-1.2,2.1-1.4c0.9-0.3,3.8-0.5,3.8-0.5    l-1.1,1.1l3.9-1.1c0,0.4-3,3.3-6.2,4.1c-1.5,0.4-4.1,0.6-7.8,0.6l-6.1-0.1c-0.8,0-1.3,0.1-1.5,0.3c-0.1,0.2-0.2,0.4-0.1,0.9    c0.3,1.5,1.8,2.3,3.1,2.3c2-0.3,6.7-1.7,6.7-1.7l-1.3-0.5l5.7-0.6c-0.1,0.1-0.4-0.5-0.2-0.7c0.5-0.1,3.4,0.2,3.4,0.2    c-1.8-0.4-1.8-0.5-1.8-0.7c0.5-0.1,1.8-0.1,4.3,0.1c2.7,0.3,6.2,0.9,7.3,2.3c0.3,0.3,0.4,0.7,0.3,1.1c-0.3,2.3-2.4,4.2-4.5,4.2    c-0.7,0-1.4-0.1-2-0.1c-1.5-0.1-1.9,0.1-1.9,0.2c0,0.6,2.2,1.2,3.9,1.2c1,0,2.3-0.5,3-0.8c1.2-0.5,1-0.2,1.5,0.6    c0.1,0.3,0.4,0.7,0.5,0.7c0.2,0,1.4-0.3,2.1-0.5l-1,3.2l2.1,0.3c-0.4,0.6-0.8,1.1-0.9,1.2c2.3-0.1,2.2,0.1,2.2,0.3    c0,0.2-0.3,0.4-1.3,1.2c-0.5,0.4-1.1,0.9-1.2,1c0.1,0.1,1,0.6,1.8,0.9C418.4,247.1,417.5,248.2,417.1,248.2L417.1,248.2z     M415.3,246.3c0.3,0,1.5,1.3,1.8,1.5c0.2,0,0.9-0.7,1.3-1.3c-1.9-0.6-1.9-0.9-1.9-1c0-0.2,0.3-0.4,1.3-1.2c0.5-0.4,1.1-0.9,1.2-1    c-0.1,0-0.6-0.1-2-0.1c-0.2-0.2-0.3-0.4,0.8-1.4l-2.1-0.3l1.1-3.1c-0.2,0.3-1.7,0.7-2,0.7c-0.2,0-0.4-0.3-0.8-0.9    c-0.1-0.3-0.4-0.7-0.5-0.7c-0.1,0-0.3,0.1-0.6,0.2c-0.8,0.3-2,0.9-3.1,0.9c-1.5,0-4.2-0.5-4.2-1.5c0-0.6,0.8-0.6,1.1-0.6    c0.3,0,0.7,0,1.2,0.1c0.6,0,1.2,0.1,1.9,0.1c2,0,3.9-1.8,4.2-3.9c0-0.3,0-0.6-0.2-0.9c-1.1-1.4-4.9-2-7.1-2.2    c-1.9-0.2-3.1-0.3-3.7-0.3c0.3,0.1,0.8,0.3,1.2,0.5c-0.1,0.3-2.9,0-3.2,0c0,0,0.1,0.3,0.2,0.6l-5.8,0.5l1.3,0.5    c0,0.3-4.7,1.6-6.3,1.9c-2,0-3.6-1.1-3.9-2.6c-0.1-0.5-0.1-0.9,0.2-1.1c0.3-0.4,0.9-0.4,1.8-0.4l6.1,0.1c3.7,0,6.2-0.2,7.7-0.6    c3-0.8,6.1-3.7,6.2-3.8l-3.9,1.1l1-1c-0.6,0.2-2.7,0.5-3.5,0.7c-0.4,0.1-1.2,0.7-2,1.3c-0.8,0.6-1.6,1.2-2.1,1.4    c-1.1,0-2.1-0.1-3.3-0.3c-3.5-0.5-8.3-0.9-9.8,0.9c-0.5,0.5-0.6,1.2-0.5,1.8c0.3,1.8,3.4,3.7,6.7,3.9c0,0,0,0,0,0    c3.2,0,8.3-1.8,11.3-2.8c0.9-0.3,1.6-0.6,2-0.7c0.6-0.2,1.4-0.3,2.4-0.3c1.7,0,4.7,0.4,4.7,1.8c0,1.9-3.1,2.9-6.1,2.9h-30.5    c0.1,0-2.7,6.3-2.9,6.5c0.3-0.1,4.3,0.1,7.8,0.1c0,0,0,0,0,0c2.1,0,5.3-0.8,8.1-1.5c2.4-0.6,4.5-1.1,5.7-1.1    c1.2,0,1.9,0.3,2.6,0.6c0.7,0.3,1.6,0.7,3.3,0.7c1.7,0,2.5-0.2,3.3-0.4c0.9-0.2,1.9-0.5,3.7-0.5l1,0c3.8,0.2,5.7,1.1,5.7,2.9    c0,1.4-2.5,2.3-2.6,2.3l1,0.5c0.1,0,0.5-0.2,0.8-0.4c0.5-0.3,0.8-0.5,1-0.5c0.3,0.3,0.1,0.9-0.4,1.8c0.2-0.1,1.2,0.1,1.7,0.1    C414.9,247.3,415.2,246.6,415.3,246.3C415.3,246.3,415.3,246.3,415.3,246.3L415.3,246.3z"/></g>
    <g><g><defs><rect height="17.3" id="XMLID_61_" width="14.7" x="365.8" y="225.8"/></defs><clipPath id="XMLID_289_"><use style="overflow:visible;" xlink:href="#XMLID_61_"/></clipPath><path
      class="st39"
      d="M369,234.2c-0.3,0.1-3,0.5-3.2,3c-0.2,2.5,0.2,2.5,0.6,2.4c0.3-0.1,0.9-2.3,0.9-2.3     s-0.9,3,0.1,3.7c1,0.7,2.1,0.9,2.1,0.9l0.4-2.4c0,0-0.8,2.3,1.1,3.1c1.9,0.8,2.6,0.2,2.4-0.4c-0.2-0.6-0.7-2.2-0.7-2.2     s1.5,1.4,1.6,1.6c0.1,0.1,0.8,1.2,2.7,0.7c1.9-0.5,0.5-1.6,0.5-1.6l-2.3-1.6c0,0,2.3,2.1,3.4,1.4c1-0.7-0.8-2.4-0.7-2.3     c0.1,0.1,1.5,2.3,2,0.9c0.5-1.4-0.9-1.8-1.3-3.2c-0.5-1.4-0.9-1.5-0.4-2.3c0.5-0.8,0.6-2.4,0.6-2.4s1.9,0.4,1.8-1     c-0.2-1.4-2.1-1.8-2.5-1.8c-0.4-0.1-0.3-1.5-0.5-1.4c-0.2,0.1-1.4,0.9-1.4,0.9s-1.1-2.2-1.3-2.1c-0.2,0.1-1.5,1.3-2.4,1.4     c-0.9,0.1-1.5,1.2-1.5,1.2s-3.3-1.4-3.2,0.9c0.1,2.2,1.9,1.7,1.9,1.8S369.3,234.1,369,234.2L369,234.2z"
      id="XMLID_62_"/></g></g>
    <g><path class="st7" d="M372.5,243.2c-0.4,0-1-0.1-1.6-0.4c-0.7-0.3-1-0.8-1.2-1.2l-0.1,0.4c-0.2,0.1-1.3-0.2-2.4-0.8    c-0.5-0.3-0.6-1.2-0.5-2c-0.2,0.5-0.3,0.6-0.3,0.6c-0.7-0.2-0.9-0.7-0.8-2.5c0.1-2.3,2.4-2.9,3.1-3.1c0.4-0.3,0.7-2.3,0.7-3    c0.2,0.9,0,3.1-0.4,3.2c-1,0.3-3,0.8-3.1,2.8c-0.1,1.7,0.1,2.1,0.2,2.2c0.3-0.1,0.6-0.8,1-2.1c0,1.4-0.2,3,0.4,3.4    c1,0.7,2,0.9,2.1,0.9l0-1.1c0,0,0-0.1,0-0.1l0,0c0-0.6,0.2-1,0.2-1l0,0c0.3,0.1,0.2,0.5,0.2,1l0,0l0,0c0,0.9,0.4,1.6,1.2,2    c1,0.4,1.9,0.5,2.1,0.1c-0.1-1-0.6-2.5-0.6-2.5c0.8,0.4,1.8,1.3,1.8,1.4c0.1,0.2,1,1,2.5,0.7c0.5-0.1,0.8-0.3,0.9-0.6    c0.1-0.3-0.4-0.7-0.4-0.7l-0.8-0.6c-0.8-0.4-1.5-1.1-1.5-1.1l0,0c0.2-0.3,0.9,0.4,1.7,0.8l0,0c0.5,0.3,0.9,0.4,1.2,0.4    c0.6-0.2,0.9-0.5,0.4-1.3c-0.3-0.2-0.5-0.6-0.6-0.8c0,0,0,0,0,0c-0.1-0.1-0.1-0.1-0.1-0.1c0,0,0.1,0,0.1,0    c0.3-0.2,0.8,0.5,0.9,0.7c0.3,0.3,0.5,0.4,0.6,0.4c0.7-1.2,0.3-1.6-0.1-2.1c-0.3-0.4-0.6-0.8-0.8-1.3c-0.1-0.4-0.3-0.7-0.4-0.9    c-0.3-0.6-0.4-0.9,0-1.5c0.4-0.8,0.5-2.3,0.5-2.3l0-0.2l0.7,0.1c0.3,0,0.7,0,0.9-0.3c0.1-0.1,0.2-0.3,0.2-0.6    c-0.1-1.1-1.5-1.5-2.4-1.7c-0.3-0.1-0.4-0.6-0.5-1.1c-0.1-0.3-1.3,0.5-1.3,0.5c-0.7-1-1.3-2-1.4-2.1c-0.7,0.6-1.6,1.3-2.4,1.4    c-0.8,0.1-1.4,1.1-1.4,1.1c-0.2,0-1.2-0.3-2-0.3c-0.4,0-0.7,0.1-0.9,0.3c-0.2,0.2-0.3,0.5-0.2,0.8c0,1.1,0.5,1.6,1.4,1.6    c0.1,0,0.1,0.1,0.2,0.2c-1.3,0.1-1.8-0.5-1.9-1.8c0-0.5,0.1-0.8,0.3-1.1c0.7-0.7,2.8-0.1,3,0c-0.1-0.1,0.5-1.2,1.4-1.2    c0.7,0,1.6-0.8,2-1.1c0.5-0.2,0.8-0.2,1.8,1.9c0.1-0.2,1.1-0.8,1.2-0.9l0.2-0.1l0.2,0.7c0,0.2,0.1,0.8,0.2,0.8    c0.9,0.2,2.5,0.6,2.6,2c0,0.4,0,0.6-0.2,0.9c-0.2,0.3-0.6,0.4-1.1,0.4l-0.6-0.1c0.1,0.1,0,1.5-0.4,2.3c-0.3,0.5-0.2,0.7,0,1.2    c0.1,0.2,0.2,0.5,0.4,0.9c0.2,0.5,0.5,0.9,0.8,1.2c0.5,0.6,0.9,1.1,0.6,2.1c-0.3,0.8-0.7,0.7-1,0.5c0.1,0.6-0.1,0.9-0.3,1    l-0.6,0.2c-0.1,0-0.2,0-0.3,0c0.2,0.2,0.4,0.5,0.3,0.9c-0.1,0.4-0.5,0.6-1.1,0.8c-1.7,0.4-2.7-0.5-2.8-0.8    c-0.1-0.1-0.6-0.6-1.2-1.2c0.2,0.5,0.5,1.3,0.6,1.7l0,0.1l-0.1,0.6C373.3,243,373,243.2,372.5,243.2L372.5,243.2z" id="XMLID_60_"/></g>
    <g><g><defs><rect height="1.1" id="XMLID_58_" width="2.8" x="370.8" y="230.3"/></defs><clipPath id="XMLID_290_"><use style="overflow:visible;" xlink:href="#XMLID_58_"/></clipPath><path
      class="st40"
      d="M370.8,230.8c0.4-0.1,0.9-0.6,1.6-0.5c0.6,0.1,1.7,0.6,1.2,0.8c-0.5,0.3-0.9,0.4-1.5,0.2     C371.5,231.2,371,230.9,370.8,230.8L370.8,230.8z"
      id="XMLID_59_"/></g></g>
    <g><g><defs><rect height="1.1" id="XMLID_56_" width="2.9" x="374.3" y="230.2"/></defs><clipPath id="XMLID_291_"><use style="overflow:visible;" xlink:href="#XMLID_56_"/></clipPath><path
      class="st41"
      d="M377.2,230.7c-0.4-0.1-0.9-0.6-1.6-0.5c-0.6,0.1-1.7,0.5-1.2,0.8c0.5,0.3,0.9,0.4,1.5,0.2     C376.5,231.1,376.9,230.8,377.2,230.7L377.2,230.7z"
      id="XMLID_57_"/></g></g>
    <g><g><defs><rect height="3" id="XMLID_54_" width="1.7" x="372.2" y="234.7"/></defs><clipPath id="XMLID_292_"><use style="overflow:visible;" xlink:href="#XMLID_54_"/></clipPath><path
      class="st42"
      d="M372.2,234.7c0.1,0.3,0.3,3.2,0.5,3c0.2-0.2,1.3-2.9,1.3-2.9     C373.8,234.8,372.3,234.9,372.2,234.7L372.2,234.7z"
      id="XMLID_55_"/></g></g>
    <g><path class="st7" d="M372.7,237.8c-0.1,0-0.2-0.1-0.4-2.1c-0.1-0.5-0.1-0.9-0.1-1c0.2-0.1,0.3,0,1,0l0.8,0    C374.1,234.9,372.8,237.8,372.7,237.8L372.7,237.8L372.7,237.8z M372.2,234.9c0.1,0.1,0.2,0.5,0.2,0.8c0.1,0.6,0.2,1.5,0.2,1.8    c0.3-0.6,1.1-2.5,1.2-2.7l-0.8,0.1C372.6,234.9,372.3,234.9,372.2,234.9L372.2,234.9z"/></g>
    <g><path class="st7" d="M373.4,235.6l-0.3,0c-0.4-0.1-0.7-0.1-1-0.1c-0.5,0-1-0.1-0.9-0.7c0.1-1.2,0.9-0.9,2.1-0.8    c1.1,0.1,1.8,0.6,1.9,0.8C375.1,235.4,374.1,235.6,373.4,235.6L373.4,235.6z M372.3,234.3c-0.6,0-0.6,0.2-0.7,0.5    c0,0.2,0,0.2,0.6,0.3c0.3,0,0.6,0,1,0.1l0.2,0c0.7,0,1.5-0.3,1.6-0.3c-0.1,0-0.6-0.4-1.7-0.5C372.9,234.4,372.5,234.3,372.3,234.3    L372.3,234.3z"/></g>
    <g><path class="st8" d="M373.3,232.8l-0.2,1.3L373.3,232.8z" id="XMLID_49_"/></g>
    <g><path class="st7" d="M378.6,231c0-0.6,0.5-0.7,0.5-0.9c0-0.1-0.4-0.3-0.7-0.5l0.2-0.5c0.2,0.1,1.2,0.5,1,1.2    C379.4,230.8,378.7,231,378.6,231L378.6,231z" id="XMLID_48_"/></g>
    <g><path class="st8" d="M370,229c-0.2,0.1-0.6,0.2-0.7,0.7c-0.2,0.5,0.7,0.9,0.7,0.9V229z" id="XMLID_47_"/></g>
    <g><path class="st7" d="M373.2,233.1c-0.5,0-1.1-0.1-1.3-0.5c-0.2-0.4,0.3-0.8,0.4-0.9l0.3,0.4    c-0.1,0.1-0.2,0.3-0.2,0.4c0,0,0.1,0.2,0.8,0.2c0.6,0,0.8-0.1,0.8-0.1l-0.1-0.7c0.2,0.1,0.7,0.5,0.6,0.9    C374.4,233,373.7,233.1,373.2,233.1L373.2,233.1z" id="XMLID_46_"/></g>
    <polygon class="st18" id="XMLID_45_"
             points="376.6,306.8 379.8,296.2 370.8,289.5 382.1,289.3 385.8,278.8 389.5,289.2    400.8,289.4 391.8,296.2 395.1,306.8 385.8,300.5  "/>
    <g><g><defs><rect height="22.3" id="XMLID_43_" width="24.9" x="373.3" y="281.7"/></defs><clipPath id="XMLID_293_"><use style="overflow:visible;" xlink:href="#XMLID_43_"/></clipPath><polygon
      class="st43" id="XMLID_44_"
      points="378.1,304 380.8,295.5 373.3,290.2 382.7,290 385.8,281.7 388.9,290 398.3,290.2      390.8,295.5 393.5,304 385.8,298.9    "/></g></g>
    <polygon class="st18" id="XMLID_42_"
             points="358,285.3 361.3,275.2 352.4,268.9 363.5,268.7 367.1,258.7 370.8,268.6 382,268.8    373.1,275.2 376.3,285.2 367.2,279.3  "/>
    <g><g><defs><rect height="21.1" id="XMLID_40_" width="24.7" x="354.8" y="261.5"/></defs><clipPath id="XMLID_294_"><use style="overflow:visible;" xlink:href="#XMLID_40_"/></clipPath><polygon
      class="st44" id="XMLID_41_"
      points="359.6,282.6 362.2,274.6 354.8,269.6 364.1,269.4 367.1,261.5 370.2,269.4      379.5,269.5 372.1,274.6 374.8,282.6 367.2,277.8    "/></g></g>
    <polygon class="st18" id="XMLID_39_"
             points="395.4,285.3 398.6,275.2 389.6,268.9 400.9,268.7 404.6,258.7 408.3,268.6    419.6,268.8 410.6,275.2 413.9,285.2 404.6,279.3  "/>
    <g><g><defs><rect height="21.1" id="XMLID_37_" width="25" x="392.1" y="261.5"/></defs><clipPath id="XMLID_295_"><use style="overflow:visible;" xlink:href="#XMLID_37_"/></clipPath><polygon
      class="st45" id="XMLID_38_"
      points="396.9,282.6 399.6,274.6 392.1,269.6 401.5,269.4 404.6,261.5 407.7,269.4      417.1,269.5 409.6,274.6 412.4,282.6 404.6,277.8    "/></g></g>
    <path class="st7"
          d="M331.5,293.8l5.6-3.1l0.5,1.1l-2.2,1.2l0.7,1.6l2.2-1.2l0.5,1.1l-5.6,3.1l-0.5-1.1l2.5-1.4l-0.7-1.6l-2.5,1.4   L331.5,293.8L331.5,293.8z M333.8,298.6l5.2-3.8l1.8,3l-0.9,0.6l-1.1-1.9l-1.2,0.9l1.1,1.8l-0.8,0.6l-1-1.8l-1.4,1.1l1.2,1.9   l-0.9,0.6L333.8,298.6L333.8,298.6z M337.4,304.2l4.6-4.7l0.8,0.9l-1.8,1.8l1.1,1.3l1.8-1.8l0.8,0.9l-4.6,4.7l-0.8-0.9l2.1-2.1   l-1.1-1.3l-2.1,2.1L337.4,304.2L337.4,304.2z M343.4,307l0.7,0.7l1.3-2.6L343.4,307L343.4,307z M340.5,307.9l5.2-4.2l1.2,1.1   l-3.1,6.3l-0.9-0.9l0.8-1.5l-1-1l-1.3,1.1L340.5,307.9L340.5,307.9z M345,312.1l3.1-4.7l-1.1-0.9l0.6-0.9l3.1,2.5l-0.6,0.9   l-1.1-0.9l-3.1,4.7L345,312.1L345,312.1z M347.6,314.1l3.2-5.9l1,0.7l-1.3,2.3l1.4,0.9l1.3-2.3l1,0.7l-3.2,5.9l-1-0.7l1.5-2.7   l-1.4-0.9l-1.5,2.7L347.6,314.1L347.6,314.1z M353.7,318l2.6-6.3l3,1.5l-0.4,1l-1.9-1l-0.6,1.5l1.8,0.9l-0.4,1l-1.8-0.9l-1.2,2.8   L353.7,318L353.7,318z M359.5,317c-0.4,1.1-0.5,1.8-0.5,2.1c0,0.3,0.2,0.5,0.5,0.7c0.3,0.1,0.6,0.1,0.7-0.1c0.2-0.2,0.5-0.9,0.9-2   c0.4-1.1,0.5-1.8,0.5-2.1c0-0.3-0.2-0.5-0.5-0.7c-0.3-0.1-0.6-0.1-0.8,0.2C360.1,315.3,359.8,315.9,359.5,317L359.5,317z    M358.3,316.5c0.2-0.7,0.5-1.2,0.6-1.6c0.2-0.4,0.4-0.7,0.6-0.8c0.3-0.2,0.5-0.3,0.8-0.4c0.3,0,0.6,0,1,0.2   c0.4,0.2,0.7,0.4,0.9,0.6c0.2,0.2,0.3,0.5,0.4,0.9c0,0.3,0,0.6-0.1,1c-0.1,0.4-0.2,1-0.5,1.7c-0.2,0.7-0.4,1.2-0.6,1.6   c-0.2,0.4-0.4,0.7-0.6,0.8c-0.3,0.2-0.5,0.3-0.8,0.4c-0.3,0-0.6,0-1-0.2c-0.4-0.2-0.7-0.4-0.9-0.6c-0.2-0.2-0.3-0.5-0.4-0.9   c-0.1-0.3,0-0.6,0-1C358,317.8,358.1,317.2,358.3,316.5L358.3,316.5z M363.7,315.1l1.1,0.4l-1.2,4.5c-0.1,0.5-0.2,0.9-0.1,1.1   c0.1,0.2,0.2,0.4,0.5,0.5c0.3,0.1,0.5,0.1,0.7-0.1c0.2-0.2,0.3-0.5,0.4-1l1.2-4.5l1.1,0.4l-1.2,4.6c-0.1,0.4-0.2,0.8-0.3,0.9   c-0.1,0.2-0.2,0.3-0.4,0.5c-0.2,0.2-0.5,0.3-0.8,0.3c-0.3,0-0.6,0-1-0.1c-0.7-0.2-1.1-0.6-1.3-1c-0.2-0.4-0.2-1,0-1.9L363.7,315.1   L363.7,315.1z M366.7,323.2l1.4-6.8l1.2,0.3l0.6,5.1l0.9-4.7l1.1,0.3l-1.4,6.8l-1.2-0.3l-0.6-5.1l-0.9,4.7L366.7,323.2L366.7,323.2   z M372.8,323.6l0.5,0.1c0.3,0,0.4,0.1,0.6,0c0.1,0,0.2-0.1,0.3-0.2c0.1-0.2,0.2-0.4,0.3-0.7c0.1-0.3,0.2-0.8,0.3-1.5   c0.1-0.7,0.1-1.1,0.1-1.5c0-0.3-0.1-0.6-0.2-0.7c-0.1-0.1-0.1-0.2-0.2-0.2c-0.1-0.1-0.3-0.1-0.5-0.1l-0.5-0.1L372.8,323.6   L372.8,323.6z M371.5,324.4l1-6.8l1.8,0.3c0.4,0.1,0.7,0.2,0.9,0.3c0.2,0.1,0.4,0.3,0.5,0.4c0.2,0.3,0.3,0.6,0.3,1   c0,0.4,0,0.9-0.1,1.7c-0.1,1-0.3,1.7-0.4,2c-0.1,0.4-0.3,0.7-0.5,1c-0.2,0.3-0.4,0.4-0.7,0.5c-0.3,0.1-0.7,0-1.3-0.1L371.5,324.4   L371.5,324.4z M376.4,325.2l0.6-6.9l3.2,0.3l-0.1,1.1l-2-0.2l-0.1,1.6l1.9,0.2l-0.1,1.1l-1.9-0.2l-0.2,1.9l2.1,0.2l-0.1,1.2   L376.4,325.2L376.4,325.2z M381.6,324.6l0.5,0c0.3,0,0.4,0,0.6,0c0.1,0,0.2-0.1,0.3-0.2c0.1-0.2,0.2-0.4,0.3-0.7   c0.1-0.3,0.1-0.8,0.1-1.5c0-0.7,0-1.2,0-1.5c0-0.3-0.1-0.5-0.3-0.7c-0.1-0.1-0.2-0.1-0.3-0.2c-0.1,0-0.3-0.1-0.5-0.1l-0.5,0   L381.6,324.6L381.6,324.6z M380.5,325.6l0.2-6.9l1.9,0.1c0.4,0,0.7,0.1,0.9,0.1c0.2,0.1,0.4,0.2,0.5,0.4c0.2,0.2,0.4,0.6,0.4,0.9   c0.1,0.4,0.1,0.9,0.1,1.7c0,1-0.1,1.7-0.2,2.1s-0.2,0.7-0.3,1c-0.2,0.3-0.4,0.5-0.6,0.6c-0.3,0.1-0.7,0.1-1.3,0.1L380.5,325.6   L380.5,325.6z M387.4,325.7l-0.3-6.9l1.2-0.1l0.2,6.9L387.4,325.7L387.4,325.7z M390.5,325.5l-0.4-5.8l-1.3,0.1l-0.1-1.1l3.8-0.3   l0.1,1.1l-1.3,0.1l0.4,5.8L390.5,325.5L390.5,325.5z M394.6,318.1l1.2-0.2l0.7,4.6c0.1,0.5,0.2,0.9,0.3,1c0.1,0.2,0.4,0.2,0.7,0.2   c0.3-0.1,0.5-0.2,0.6-0.4c0.1-0.2,0.1-0.6,0-1.1l-0.7-4.6l1.1-0.2l0.7,4.7c0.1,0.5,0.1,0.8,0.1,1c0,0.2-0.1,0.4-0.1,0.6   c-0.1,0.3-0.3,0.5-0.6,0.7c-0.3,0.2-0.6,0.3-0.9,0.4c-0.7,0.1-1.2,0.1-1.6-0.2c-0.3-0.3-0.6-0.8-0.7-1.7L394.6,318.1L394.6,318.1z    M400.8,319.8l0.5-0.1c0.3-0.1,0.6-0.2,0.7-0.4c0.1-0.2,0.1-0.5,0-0.8c-0.1-0.4-0.2-0.6-0.4-0.7c-0.2-0.1-0.4-0.1-0.8,0l-0.5,0.1   L400.8,319.8L400.8,319.8z M400.5,323.9l-1.5-6.7l2-0.5c0.6-0.2,1.1-0.1,1.4,0.1c0.3,0.2,0.6,0.7,0.7,1.4c0.1,0.7,0.1,1.2-0.1,1.6   c-0.2,0.4-0.6,0.7-1.2,0.8l-0.8,0.2l0.6,2.9L400.5,323.9L400.5,323.9z M405,319c0.3,1.1,0.6,1.7,0.7,2c0.2,0.2,0.5,0.3,0.8,0.2   c0.3-0.1,0.5-0.3,0.5-0.6c0-0.3-0.1-1-0.4-2.1c-0.3-1.1-0.6-1.8-0.8-2c-0.2-0.2-0.4-0.3-0.7-0.2c-0.3,0.1-0.5,0.3-0.5,0.6   C404.5,317.2,404.7,317.9,405,319L405,319z M403.9,319.4c-0.2-0.7-0.3-1.3-0.4-1.7c-0.1-0.4-0.1-0.8,0-1c0.1-0.4,0.2-0.6,0.4-0.9   c0.2-0.2,0.5-0.4,0.9-0.5c0.4-0.1,0.7-0.2,1-0.1c0.3,0,0.5,0.2,0.8,0.4c0.2,0.2,0.4,0.5,0.6,0.9c0.2,0.4,0.4,0.9,0.6,1.6   c0.2,0.7,0.3,1.3,0.4,1.7c0.1,0.4,0.1,0.8,0,1.1c-0.1,0.4-0.2,0.6-0.4,0.9c-0.2,0.2-0.5,0.4-0.9,0.5c-0.4,0.1-0.7,0.2-1,0.1   c-0.3,0-0.5-0.2-0.8-0.4c-0.2-0.2-0.4-0.4-0.5-0.8C404.3,320.7,404.1,320.1,403.9,319.4L403.9,319.4z M409.6,321l-2.3-6.4l1.1-0.5   l3.1,3.8l-1.6-4.5l1-0.5l2.3,6.4l-1.1,0.5l-3.1-3.8l1.7,4.5L409.6,321L409.6,321z M416.8,317.5l-2.4-5.1l-1.2,0.7l-0.5-1l3.4-2   l0.5,1l-1.2,0.7l2.4,5.1L416.8,317.5L416.8,317.5z M419.5,315.8l-3.3-5.9l1-0.7l1.3,2.3l1.3-0.9l-1.3-2.3l1-0.7l3.3,5.9l-1,0.7   l-1.5-2.7l-1.3,0.9l1.5,2.7L419.5,315.8L419.5,315.8z M423.7,312.8l-3.8-5.5l2.5-2.1l0.6,0.9l-1.6,1.4l0.9,1.3l1.5-1.3l0.6,0.9   l-1.5,1.3l1,1.5l1.7-1.4l0.6,0.9L423.7,312.8L423.7,312.8z M426.9,306.9l0.8-0.9l0.3,0.3c0.3,0.3,0.5,0.5,0.6,0.5   c0.2,0,0.3,0,0.5-0.2c0.2-0.2,0.3-0.4,0.3-0.6c0-0.2-0.1-0.4-0.3-0.6c-0.1-0.2-0.3-0.2-0.4-0.3c-0.2,0-0.4,0-0.8,0l-0.7,0.1   c-0.6,0.1-1.1,0.1-1.3,0.1c-0.3-0.1-0.5-0.3-0.8-0.5c-0.4-0.4-0.5-0.9-0.5-1.3c0-0.5,0.2-0.9,0.6-1.4c0.4-0.5,0.8-0.7,1.3-0.7   c0.4,0,0.9,0.3,1.3,0.7c0,0,0.1,0.1,0.1,0.1c0,0,0,0,0.1,0.1l-0.8,0.9l-0.1-0.1c-0.2-0.3-0.4-0.4-0.6-0.4c-0.2,0-0.4,0.1-0.6,0.3   c-0.1,0.1-0.2,0.3-0.2,0.5c0,0.2,0.1,0.3,0.2,0.5c0.2,0.2,0.6,0.3,1.1,0.1c0,0,0,0,0,0l0.8-0.2c0.5-0.1,0.9-0.1,1.3,0   c0.3,0.1,0.6,0.3,0.9,0.6c0.4,0.4,0.6,0.9,0.6,1.4c0,0.5-0.2,1-0.7,1.4c-0.4,0.5-0.9,0.7-1.3,0.7c-0.4,0-0.9-0.3-1.4-0.8   C427.1,307.2,427,307.1,426.9,306.9L426.9,306.9L426.9,306.9z M431.7,305l-4.8-4.5l2.1-2.7l0.8,0.7l-1.3,1.7l1.1,1l1.2-1.6l0.8,0.7   l-1.2,1.6l1.3,1.2l1.3-1.8l0.8,0.8L431.7,305L431.7,305z M433,298.7l0.6-0.9l-2.5-1.2L433,298.7L433,298.7z M434.1,301.8l-4.4-5.2   l0.9-1.4l6,2.6l-0.7,1.2l-1.5-0.7l-0.7,1.2l1.1,1.3L434.1,301.8L434.1,301.8z M434.8,296.2l0.5-1.1l0.3,0.2   c0.3,0.2,0.6,0.3,0.8,0.3c0.2,0,0.3-0.2,0.4-0.4c0.1-0.2,0.1-0.5,0.1-0.6c-0.1-0.2-0.2-0.3-0.4-0.5c-0.2-0.1-0.3-0.1-0.5-0.1   c-0.2,0-0.4,0.1-0.7,0.3l-0.6,0.4c-0.5,0.3-1,0.5-1.2,0.5c-0.3,0-0.6-0.1-0.9-0.2c-0.5-0.3-0.8-0.6-0.9-1.1c-0.1-0.5-0.1-1,0.2-1.5   c0.3-0.6,0.6-0.9,1-1.1c0.4-0.1,0.9-0.1,1.4,0.2c0,0,0.1,0.1,0.1,0.1c0,0,0,0,0.1,0l-0.5,1.1l-0.1-0.1c-0.3-0.2-0.5-0.2-0.7-0.2   c-0.2,0-0.3,0.2-0.4,0.4c-0.1,0.2-0.1,0.4-0.1,0.5c0,0.2,0.2,0.3,0.3,0.4c0.2,0.1,0.6,0,1.1-0.3c0,0,0,0,0,0l0.7-0.4   c0.5-0.3,0.9-0.5,1.2-0.5c0.3,0,0.6,0.1,1,0.3c0.5,0.3,0.8,0.7,0.9,1.1c0.1,0.5,0.1,1-0.2,1.6c-0.3,0.6-0.6,1-1.1,1.1   c-0.4,0.1-0.9,0-1.5-0.3C435.1,296.4,435,296.3,434.8,296.2L434.8,296.2L434.8,296.2z"/></g></svg>
