<?xml version="1.0" ?>
<svg id="Layer_1" style="enable-background:new 0 0 512 512;" version="1.1" viewBox="0 0 512 512" xml:space="preserve"
     xmlns="http://www.w3.org/2000/svg"><style type="text/css">
	.st0 {
    fill: #2D2F76;
  }

  .st1 {
    fill: #FFFFFF;
  }

  .st2 {
    fill: #BD1F38;
  }
</style>
  <g><polygon class="st0" points="256.1,106.7 256.1,116.1 256.1,119.4 256.1,120.9 199.3,149.3 256.1,149.3 256.1,157.9 256.1,170.7    256.1,183.5 256.1,192 199.3,192 256.1,220.4 256.1,225.2 256.1,234.7 256.1,235.5 238.6,235.5 232.1,235.5 229.1,235.5    149.3,195.6 149.3,235.5 140.8,235.5 128,235.5 115.2,235.5 106.7,235.5 106.7,195.6 26.9,235.5 17.4,235.5 0,235.5 0,405.4    512,405.4 512,106.7  "/>
    <polygon class="st0" points="0,192 0,220.4 56.7,192  "/>
    <polygon class="st0" points="149.3,106.7 149.3,145.7 227.4,106.7  "/>
    <polygon class="st0" points="106.7,106.7 28.6,106.7 106.7,145.7  "/>
    <polygon class="st0" points="0,149.3 56.7,149.3 0,121  "/>
    <polygon class="st1"
             points="256,106.7 170.7,149.3 151.6,149.3 236.9,106.7 227.4,106.7 149.3,145.7 149.3,106.7 140.8,106.7    140.8,149.9 140.8,154.7 140.8,157.9 153.6,157.9 172.7,157.9 179.2,157.9 182.2,157.9 256.1,157.9 256.1,149.3 199.3,149.3    256.1,120.9 256.1,119.4 256.1,116.1 256.1,106.7  "/>
    <polygon class="st1"
             points="106.7,106.7 106.7,145.7 28.6,106.7 0,106.7 85.3,149.3 66.3,149.3 0,116.2 0,121 56.7,149.3 0,149.3    0,157.9 73.8,157.9 83.3,157.9 102.4,157.9 115.2,157.9 115.2,154.7 115.2,151.5 115.2,149.9 115.2,106.7  "/>
    <polygon class="st1"
             points="172.7,183.5 153.6,183.5 140.8,183.5 140.8,186.6 140.8,189.9 140.8,191.4 140.8,235.5 149.3,235.5    149.3,195.6 229.1,235.5 232.1,235.5 238.6,235.5 256.1,235.5 256.1,234.7 170.7,192 189.7,192 256.1,225.2 256.1,220.4 199.3,192    256.1,192 256.1,183.5 182.2,183.5  "/>
    <polygon class="st1"
             points="102.4,183.5 83.3,183.5 76.8,183.5 73.8,183.5 0,183.5 0,192 56.7,192 0,220.4 0,234.7 85.3,192    104.4,192 17.4,235.5 26.9,235.5 106.7,195.6 106.7,235.5 115.2,235.5 115.2,191.4 115.2,186.6 115.2,183.5  "/>
    <polygon class="st2" points="85.3,192 0,234.7 0,235.5 17.4,235.5 104.4,192  "/>
    <polygon class="st2" points="0,116.2 66.3,149.3 85.3,149.3 0,106.7  "/>
    <polygon class="st2" points="256,106.7 236.9,106.7 151.6,149.3 170.7,149.3  "/>
    <polygon class="st2" points="170.7,192 256.1,234.7 256.1,225.2 189.7,192  "/>
    <polygon class="st2"
             points="115.2,106.7 115.2,149.9 115.2,151.5 115.2,154.7 115.2,157.9 102.4,157.9 83.3,157.9 73.8,157.9    0,157.9 0,183.5 73.8,183.5 76.8,183.5 83.3,183.5 102.4,183.5 115.2,183.5 115.2,186.6 115.2,191.4 115.2,235.5 128,235.5    140.8,235.5 140.8,191.4 140.8,189.9 140.8,186.6 140.8,183.5 153.6,183.5 172.7,183.5 182.2,183.5 256.1,183.5 256.1,170.7    256.1,157.9 182.2,157.9 179.2,157.9 172.7,157.9 153.6,157.9 140.8,157.9 140.8,154.7 140.8,149.9 140.8,106.7  "/>
    <polygon class="st1"
             points="355.4,193.8 369.3,193.8 373.6,180.6 377.9,193.8 391.8,193.8 380.6,202 384.9,215.2 373.6,207.1    362.4,215.2 366.7,202  "/>
    <polygon class="st2"
             points="361.6,195.8 370.8,195.8 373.6,187.1 376.5,195.8 385.7,195.8 378.2,201.2 381.1,210 373.6,204.6    366.2,210 369,201.2  "/>
    <polygon class="st1"
             points="299.8,249.8 313.7,249.8 318,236.6 322.3,249.8 336.2,249.8 324.9,258 329.2,271.2 318,263    306.7,271.2 311,258  "/>
    <polygon class="st2"
             points="305.9,251.8 315.1,251.8 318,243.1 320.8,251.8 330,251.8 322.6,257.2 325.4,266 318,260.6 310.5,266    313.4,257.2  "/>
    <polygon class="st1"
             points="405.1,235.9 417.5,235.9 421.3,224.2 425.2,235.9 437.5,235.9 427.5,243.2 431.3,255 421.3,247.7    411.3,255 415.1,243.2  "/>
    <polygon class="st2"
             points="410.6,237.7 418.8,237.7 421.3,229.9 423.9,237.7 432,237.7 425.4,242.5 427.9,250.3 421.3,245.5    414.7,250.3 417.2,242.5  "/>
    <polygon class="st1"
             points="353.4,337.7 368.8,337.7 373.6,323 378.4,337.7 393.8,337.7 381.3,346.8 386.1,361.5 373.6,352.4    361.1,361.5 365.9,346.8  "/>
    <polygon class="st2"
             points="360.2,339.9 370.5,339.9 373.6,330.2 376.8,339.9 387,339.9 378.7,346 381.9,355.7 373.6,349.7    365.4,355.7 368.5,346  "/></g></svg>
