<?xml version="1.0" ?>
<svg id="Layer_1" style="enable-background:new 0 0 512 512;" version="1.1" viewBox="0 0 512 512" xml:space="preserve"
     xmlns="http://www.w3.org/2000/svg"><style type="text/css">
	.st0 {
    fill: #2C3077;
  }

  .st1 {
    fill: #FFFFFF;
  }

  .st2 {
    fill: #BD1F38;
  }
</style>
  <g id="XMLID_1_"><polygon class="st0" id="XMLID_30_" points="256.1,106.7 256.1,116.1 256.1,119.4 256.1,120.9 199.3,149.3 256.1,149.3    256.1,157.9 256.1,170.7 256.1,183.5 256.1,192 199.3,192 256.1,220.4 256.1,225.2 256.1,234.7 256.1,235.5 238.6,235.5    232.1,235.5 229.1,235.5 149.3,195.6 149.3,235.5 140.8,235.5 128,235.5 115.2,235.5 106.7,235.5 106.7,195.6 26.9,235.5    17.4,235.5 0,235.5 0,405.3 512,405.3 512,106.7  "/>
    <polygon class="st0" id="XMLID_29_" points="0,192 0,220.4 56.7,192  "/>
    <polygon class="st0" id="XMLID_28_" points="149.3,106.7 149.3,145.7 227.4,106.7  "/>
    <polygon class="st0" id="XMLID_27_" points="106.7,106.7 28.6,106.7 106.7,145.7  "/>
    <polygon class="st0" id="XMLID_26_" points="0,149.3 56.7,149.3 0,121  "/>
    <polygon class="st1" id="XMLID_25_"
             points="256,106.7 170.7,149.3 151.6,149.3 236.9,106.7 227.4,106.7 149.3,145.7 149.3,106.7    140.8,106.7 140.8,150 140.8,154.7 140.8,157.9 153.6,157.9 172.7,157.9 179.2,157.9 182.2,157.9 256.1,157.9 256.1,149.3    199.3,149.3 256.1,120.9 256.1,119.4 256.1,116.1 256.1,106.7  "/>
    <polygon class="st1" id="XMLID_24_"
             points="106.7,106.7 106.7,145.7 28.6,106.7 0,106.7 85.3,149.3 66.3,149.3 0,116.2 0,121    56.7,149.3 0,149.3 0,157.9 73.8,157.9 83.3,157.9 102.4,157.9 115.2,157.9 115.2,154.7 115.2,151.5 115.2,150 115.2,106.7  "/>
    <polygon class="st1" id="XMLID_23_"
             points="172.7,183.5 153.6,183.5 140.8,183.5 140.8,186.6 140.8,189.9 140.8,191.4    140.8,235.5 149.3,235.5 149.3,195.6 229.1,235.5 232.1,235.5 238.6,235.5 256.1,235.5 256.1,234.7 170.7,192 189.7,192    256.1,225.2 256.1,220.4 199.3,192 256.1,192 256.1,183.5 182.2,183.5  "/>
    <polygon class="st1" id="XMLID_22_"
             points="102.4,183.5 83.3,183.5 76.8,183.5 73.8,183.5 0,183.5 0,192 56.7,192 0,220.4    0,234.7 85.3,192 104.4,192 17.4,235.5 26.9,235.5 106.7,195.6 106.7,235.5 115.2,235.5 115.2,191.4 115.2,186.6 115.2,183.5  "/>
    <polygon class="st2" id="XMLID_21_" points="85.3,192 0,234.7 0,235.5 17.4,235.5 104.4,192  "/>
    <polygon class="st2" id="XMLID_20_" points="0,116.2 66.3,149.3 85.3,149.3 0,106.7  "/>
    <polygon class="st2" id="XMLID_19_" points="256,106.7 236.9,106.7 151.6,149.3 170.7,149.3  "/>
    <polygon class="st2" id="XMLID_18_" points="170.7,192 256.1,234.7 256.1,225.2 189.7,192  "/>
    <polygon class="st2" id="XMLID_17_"
             points="115.2,106.7 115.2,150 115.2,151.5 115.2,154.7 115.2,157.9 102.4,157.9 83.3,157.9    73.8,157.9 0,157.9 0,183.5 73.8,183.5 76.8,183.5 83.3,183.5 102.4,183.5 115.2,183.5 115.2,186.6 115.2,191.4 115.2,235.5    128,235.5 140.8,235.5 140.8,191.4 140.8,189.9 140.8,186.6 140.8,183.5 153.6,183.5 172.7,183.5 182.2,183.5 256.1,183.5    256.1,170.7 256.1,157.9 182.2,157.9 179.2,157.9 172.7,157.9 153.6,157.9 140.8,157.9 140.8,154.7 140.8,150 140.8,106.7  "/>
    <polygon class="st1" id="XMLID_16_"
             points="377,171 372.7,184.2 384,176 395.3,184.2 391,171 402.3,162.8 388.3,162.8 384,149.5    379.7,162.8 365.7,162.8  "/>
    <polygon class="st1" id="XMLID_15_"
             points="416.4,182.9 423.4,195 424.9,181.1 438.5,178.2 425.8,172.6 427.2,158.7 417.9,169    405.1,163.4 412.1,175.5 402.8,185.8  "/>
    <polygon class="st1" id="XMLID_14_"
             points="442.3,193.8 429.6,199.5 443.2,202.4 444.7,216.3 451.7,204.2 465.3,207.1 456,196.7    463,184.7 450.2,190.3 440.9,180  "/>
    <polygon class="st1" id="XMLID_13_"
             points="462.5,222.9 448.5,222.9 459.8,231.1 455.5,244.4 466.8,236.2 478.1,244.4    473.8,231.1 485,222.9 471.1,222.9 466.8,209.6  "/>
    <polygon class="st1" id="XMLID_12_"
             points="467.6,271.5 474.6,283.6 476,269.7 489.7,266.8 476.9,261.2 478.4,247.3 469,257.7    456.3,252 463.3,264.1 453.9,274.4  "/>
    <polygon class="st1" id="XMLID_11_"
             points="466.7,298.5 473.7,286.4 460.9,292.1 451.6,281.7 453,295.6 440.3,301.3 453.9,304.2    455.4,318 462.4,306 476,308.9  "/>
    <polygon class="st1" id="XMLID_10_"
             points="439.5,320.2 435.2,307 430.9,320.2 416.9,320.2 428.2,328.4 423.9,341.7 435.2,333.5    446.4,341.7 442.1,328.4 453.4,320.2  "/>
    <polygon class="st1" id="XMLID_9_"
             points="408.5,337.2 409.9,323.3 400.6,333.7 387.8,328 394.8,340.1 385.5,350.5 399.1,347.6    406.1,359.7 407.6,345.8 421.2,342.9  "/>
    <polygon class="st1" id="XMLID_8_"
             points="373.2,340.1 380.2,328 367.4,333.7 358.1,323.3 359.6,337.2 346.8,342.9 360.5,345.8    361.9,359.7 368.9,347.6 382.5,350.5  "/>
    <polygon class="st1" id="XMLID_7_"
             points="339.8,328.4 351.1,320.2 337.2,320.2 332.8,307 328.5,320.2 314.6,320.2 325.9,328.4    321.5,341.7 332.8,333.5 344.1,341.7  "/>
    <polygon class="st1" id="XMLID_6_"
             points="314.1,304.2 327.7,301.3 315,295.6 316.4,281.7 307.1,292.1 294.4,286.4 301.3,298.5    292,308.9 305.6,306 312.6,318  "/>
    <polygon class="st1" id="XMLID_5_"
             points="293.4,283.6 300.4,271.5 314.1,274.4 304.7,264.1 311.7,252 299,257.7 289.6,247.3    291.1,261.2 278.3,266.8 292,269.7  "/>
    <polygon class="st1" id="XMLID_4_"
             points="294.2,231.1 289.9,244.4 301.2,236.2 312.5,244.4 308.2,231.1 319.5,222.9 305.5,222.9    301.2,209.6 296.9,222.9 283,222.9  "/>
    <polygon class="st1" id="XMLID_3_"
             points="316.3,204.2 323.3,216.3 324.8,202.4 338.4,199.5 325.7,193.8 327.1,180 317.8,190.3    305.1,184.7 312,196.7 302.7,207.1  "/>
    <polygon class="st1" id="XMLID_2_"
             points="343.2,181.1 344.6,195 351.6,182.9 365.2,185.8 355.9,175.5 362.9,163.4 350.1,169.1    340.8,158.7 342.3,172.6 329.5,178.2  "/></g></svg>
