<?xml version="1.0" ?>
<svg id="Layer_1" style="enable-background:new 0 0 512 512;" version="1.1" viewBox="0 0 512 512" xml:space="preserve"
     xmlns="http://www.w3.org/2000/svg"><style type="text/css">
	.st0 {
    fill: #83B0DA;
  }

  .st1 {
    fill: #FFFFFF;
  }
</style>
  <g><rect class="st0" height="298.7" width="512" y="106.7"/>
    <polygon class="st1" points="256,136.5 246.8,164.9 261,169.5  "/>
    <polygon class="st1" points="256,136.5 265.2,164.9 251,169.5  "/>
    <polygon class="st1" points="284.4,157.2 254.5,157.2 254.5,172.1  "/>
    <polygon class="st1" points="284.4,157.2 260.2,174.7 251.5,162.6  "/>
    <polygon class="st1" points="227.6,157.2 251.8,174.7 260.5,162.6  "/>
    <polygon class="st1" points="227.6,157.2 257.5,157.2 257.5,172.1  "/>
    <polygon class="st1" points="273.6,190.6 264.3,162.1 250.1,166.8  "/>
    <polygon class="st1" points="273.6,190.6 249.4,173 258.2,160.9  "/>
    <polygon class="st1" points="238.4,190.6 262.6,173 253.8,160.9  "/>
    <polygon class="st1" points="238.4,190.6 247.7,162.1 261.9,166.8  "/>
    <polygon class="st1" points="375.5,256 347.1,246.8 342.4,261  "/>
    <polygon class="st1" points="375.5,256 347.1,265.2 342.4,251  "/>
    <polygon class="st1" points="354.8,284.4 354.8,254.5 339.9,254.5  "/>
    <polygon class="st1" points="354.8,284.4 337.3,260.2 349.4,251.5  "/>
    <polygon class="st1" points="354.8,227.6 337.3,251.8 349.4,260.5  "/>
    <polygon class="st1" points="354.8,227.6 354.8,257.5 339.9,257.5  "/>
    <polygon class="st1" points="321.4,273.6 349.8,264.3 345.2,250.1  "/>
    <polygon class="st1" points="321.4,273.6 339,249.4 351.1,258.2  "/>
    <polygon class="st1" points="321.4,238.4 339,262.6 351.1,253.8  "/>
    <polygon class="st1" points="321.4,238.4 349.8,247.7 345.2,261.9  "/>
    <polygon class="st1" points="136.5,256 164.9,265.2 169.6,251  "/>
    <polygon class="st1" points="136.5,256 164.9,246.8 169.6,261  "/>
    <polygon class="st1" points="157.2,227.6 157.2,257.5 172.1,257.5  "/>
    <polygon class="st1" points="157.2,227.6 174.7,251.8 162.6,260.5  "/>
    <polygon class="st1" points="157.2,284.4 174.7,260.2 162.6,251.5  "/>
    <polygon class="st1" points="157.2,284.4 157.2,254.5 172.1,254.5  "/>
    <polygon class="st1" points="190.6,238.4 162.2,247.7 166.8,261.9  "/>
    <polygon class="st1" points="190.6,238.4 173,262.6 160.9,253.8  "/>
    <polygon class="st1" points="190.6,273.6 173,249.4 160.9,258.2  "/>
    <polygon class="st1" points="190.6,273.6 162.2,264.3 166.8,250.1  "/>
    <polygon class="st1" points="256,375.5 265.2,347.1 251,342.5  "/>
    <polygon class="st1" points="256,375.5 246.8,347.1 261,342.5  "/>
    <polygon class="st1" points="227.6,354.8 257.5,354.8 257.5,339.9  "/>
    <polygon class="st1" points="227.6,354.8 251.8,337.3 260.5,349.4  "/>
    <polygon class="st1" points="284.4,354.8 260.2,337.3 251.5,349.4  "/>
    <polygon class="st1" points="284.4,354.8 254.5,354.8 254.5,339.9  "/>
    <polygon class="st1" points="238.4,321.4 247.7,349.9 261.9,345.2  "/>
    <polygon class="st1" points="238.4,321.4 262.6,339 253.8,351.1  "/>
    <polygon class="st1" points="273.6,321.4 249.4,339 258.2,351.1  "/>
    <polygon class="st1" points="273.6,321.4 264.3,349.9 250.1,345.2  "/></g></svg>
