<?xml version="1.0" ?>
<svg id="Layer_1" style="enable-background:new 0 0 512 512;" version="1.1" viewBox="0 0 512 512" xml:space="preserve"
     xmlns="http://www.w3.org/2000/svg"><style type="text/css">
	.st0 {
    fill: #273B8C;
  }

  .st1 {
    fill: #BD1F34;
  }

  .st2 {
    fill: #FFFFFF;
  }
</style>
  <g><path class="st0" d="M17.4,127.1l286.5,117H83l230.1,150H17.4V127.1z M0,106.7v298.7h355l-230.1-150h239.3L0,106.7z"/>
    <polygon class="st1" points="8.7,116.9 8.7,399.7 334,399.7 104,249.7 334,249.7  "/>
    <path class="st2"
          d="M90,242.1c35.8,0,64.8-18.9,64.8-42.2c-5.7,9.4-16,17.2-29.1,22.3l-5.6-2.7l10.9-5.3l-13.2-2.2c0,0,0,0,0,0   l7-7.6l-13.5,1.3l1.9-8.8l-11.7,4.5c0,0,0,0,0,0l-3.4-8.6l-8.2,7.1l-8.2-7.1l-3.4,8.6l0,0l-11.7-4.5l2,8.8l-13.5-1.3l7,7.6   c0,0,0,0,0,0l-13.2,2.2l10.9,5.3l-5.6,2.7c-13.1-5.1-23.4-13-29.1-22.3C25.2,223.2,54.2,242.1,90,242.1"/>
    <polygon class="st2"
             points="132.7,332.2 132.7,332.2 159.6,324.7 132.7,317.2 132.7,317.2 150.3,302 121.2,304.3 124.8,285.4    101.4,296.9 101.4,296.9 90,279.3 78.6,296.9 78.6,296.9 55.2,285.4 58.8,304.3 29.7,302 47.4,317.2 47.4,317.2 20.4,324.7    47.4,332.2 47.4,332.2 29.7,347.4 58.8,345.1 58.8,345.1 58.8,345.1 55.2,364 78.6,352.5 78.6,352.5 90,370.1 101.4,352.5    101.4,352.5 124.8,364 121.2,345.1 150.3,347.4  "/></g></svg>
