<?xml version="1.0" ?>
<svg id="Layer_1" style="enable-background:new 0 0 512 512;" version="1.1" viewBox="0 0 512 512" xml:space="preserve"
     xmlns="http://www.w3.org/2000/svg" xmlns:xlink="http://www.w3.org/1999/xlink"><style type="text/css">
	.st0 {
    fill: #438DCB;
  }

  .st1 {
    fill: #317339;
  }

  .st2 {
    fill: #CD2027;
  }

  .st3 {
    fill: #F2AE23;
  }

  .st4 {
    clip-path: url(#SVGID_2_);
    fill: #FFFFFF;
  }

  .st5 {
    clip-path: url(#SVGID_2_);
    fill: #317339;
  }
</style>
  <g><rect class="st0" height="99.6" width="512" y="106.7"/>
    <rect class="st1" height="99.6" width="512" y="206.2"/>
    <rect class="st2" height="99.6" width="512" y="305.8"/>
    <path class="st3"
          d="M256,236.1c11,0,19.9,8.9,19.9,19.9c0,11-8.9,19.9-19.9,19.9c-11,0-19.9-8.9-19.9-19.9   C236.1,245,245,236.1,256,236.1"/>
    <g><defs><path d="M207.2,256c0,26.9,21.8,48.8,48.8,48.8c26.9,0,48.8-21.8,48.8-48.8c0-26.9-21.8-48.8-48.8-48.8     C229.1,207.2,207.2,229.1,207.2,256" id="SVGID_1_"/></defs>
      <clipPath id="SVGID_2_"><use style="overflow:visible;" xlink:href="#SVGID_1_"/></clipPath>
      <path class="st4" d="M256,251c-14.9-14.9-77.6,39.8-77.6,39.8l168.2,4c0,0-67.7-61.7-89.6-43.8H256z"/>
      <path class="st5"
            d="M257,268c-19.9-17.9-37.8,15.9-59.7,4c11,49.8,124.4,54.8,114.5-2C293.8,271.9,276.9,245,257,268"/></g>
    <g><path class="st3" d="M256,305.8c-27.4,0-49.8-22.3-49.8-49.8s22.3-49.8,49.8-49.8s49.8,22.3,49.8,49.8S283.4,305.8,256,305.8    L256,305.8z M256,210.2c-25.3,0-45.8,20.5-45.8,45.8c0,25.3,20.5,45.8,45.8,45.8s45.8-20.5,45.8-45.8    C301.8,230.7,281.3,210.2,256,210.2L256,210.2z"/></g>
    <path class="st3" d="M235.4,246c-11.6-7.9-17.5-11.8-18.8-9.2C215.3,239.5,222,241.6,235.4,246L235.4,246z"/>
    <path class="st3" d="M237,243.2c-10.4-9.4-15.7-14.2-17.3-11.7C218,234,224.3,237.1,237,243.2L237,243.2z"/>
    <path class="st3" d="M243.2,237c-6.1-12.7-9.2-19-11.7-17.3C229,221.3,233.7,226.6,243.2,237L243.2,237z"/>
    <path class="st3" d="M246,235.4c-4.3-13.4-6.5-20.1-9.2-18.8C234.1,217.9,238.1,223.8,246,235.4L246,235.4z"/>
    <path class="st3" d="M254.4,233.2c1-14,1.5-21.1-1.5-20.9C250,212.5,251.4,219.4,254.4,233.2L254.4,233.2z"/>
    <path class="st3" d="M257.6,233.2c3-13.8,4.4-20.6,1.5-20.9C256.1,212.1,256.6,219.1,257.6,233.2L257.6,233.2z"/>
    <path class="st3" d="M266,235.4c7.9-11.7,11.9-17.5,9.2-18.8C272.5,215.3,270.4,222,266,235.4L266,235.4z"/>
    <path class="st3" d="M268.8,237c9.4-10.4,14.2-15.7,11.7-17.3C278,218,274.9,224.3,268.8,237L268.8,237z"/>
    <path class="st3" d="M275,243.2c12.7-6.1,19-9.2,17.3-11.7C290.6,229,285.4,233.8,275,243.2L275,243.2z"/>
    <path class="st3" d="M276.6,246c13.4-4.3,20.1-6.5,18.8-9.2C294.1,234.1,288.2,238.1,276.6,246L276.6,246z"/>
    <path class="st3" d="M233.9,250.1c-9.4-3.5-13.1-5-13.5-3.6C220,247.9,224,248.5,233.9,250.1L233.9,250.1z"/>
    <path class="st3" d="M239.8,239.8c-6.3-7.7-8.8-10.9-9.9-9.9C228.9,231,232.1,233.5,239.8,239.8L239.8,239.8z"/>
    <path class="st3" d="M250.1,233.9c-1.6-9.9-2.2-13.9-3.6-13.5C245,220.8,246.5,224.5,250.1,233.9L250.1,233.9z"/>
    <path class="st3" d="M261.9,233.9c3.5-9.4,5-13.1,3.6-13.5C264.1,220,263.5,224,261.9,233.9L261.9,233.9z"/>
    <path class="st3" d="M272.2,239.8c7.7-6.3,10.9-8.8,9.9-9.9C281,228.9,278.5,232.1,272.2,239.8L272.2,239.8z"/>
    <path class="st3"
          d="M278.1,250.1c9.9-1.6,13.8-2.2,13.5-3.6C291.2,245,287.5,246.5,278.1,250.1L278.1,250.1z"/></g></svg>
