<?xml version="1.0" ?>
<svg id="Layer_1" style="enable-background:new 0 0 512 512;" version="1.1" viewBox="0 0 512 512" xml:space="preserve"
     xmlns="http://www.w3.org/2000/svg"><style type="text/css">
	.st0 {
    fill: #4A5BB5;
  }

  .st1 {
    fill: #F6D928;
  }

  .st2 {
    fill: #A1001D;
  }

  .st3 {
    fill-rule: evenodd;
    clip-rule: evenodd;
    fill: #F6D928;
  }

  .st4 {
    fill-rule: evenodd;
    clip-rule: evenodd;
    fill: #FFFFFF;
  }

  .st5 {
    fill-rule: evenodd;
    clip-rule: evenodd;
    fill: #485BA3;
  }

  .st6 {
    fill-rule: evenodd;
    clip-rule: evenodd;
    fill: #980015;
  }

  .st7 {
    fill-rule: evenodd;
    clip-rule: evenodd;
  }
</style>
  <g><rect class="st0" height="298.7" width="512" x="0" y="106.7"/>
    <rect class="st1" height="192" width="512" x="0" y="160"/>
    <rect class="st2" height="149.4" width="512" x="0" y="181.3"/>
    <path class="st3"
          d="M79.8,252.8h356.4c1.7,0,3.1,1.4,3.1,3.2s-1.4,3.2-3.1,3.2H79.8c-1.8,0-3.2-1.4-3.2-3.2S78.1,252.8,79.8,252.8   L79.8,252.8z"/>
    <g><path d="M436.2,259.6H79.8c-2,0-3.6-1.6-3.6-3.6c0-2,1.6-3.6,3.6-3.6h356.4c2,0,3.6,1.6,3.6,3.6    C439.7,258,438.1,259.6,436.2,259.6L436.2,259.6z M79.8,253.2c-1.5,0-2.8,1.3-2.8,2.8c0,1.5,1.2,2.8,2.8,2.8h356.4    c1.5,0,2.7-1.3,2.7-2.8c0-1.5-1.2-2.8-2.7-2.8H79.8L79.8,253.2z"/></g>
    <polygon class="st4" points="400,221.9 381.9,228.3 400,234.7 418.1,228.3  "/>
    <g><path d="M400,235l-19.2-6.8l19.1-6.7l19.3,6.7L400,235L400,235z M382.9,228.3l17.1,6l17.1-6l-17.2-6.1L382.9,228.3L382.9,228.3z"/></g>
    <path class="st3"
          d="M126,226.1h262c1.3,0,2.3,0.9,2.3,2.1s-1,2.1-2.3,2.1H126c-1.3,0-2.3-0.9-2.3-2.1S124.8,226.1,126,226.1   L126,226.1z"/>
    <g><path d="M388.1,230.8H126c-1.5,0-2.7-1.1-2.7-2.5c0-1.4,1.2-2.5,2.7-2.5h262c1.5,0,2.7,1.1,2.7,2.5    C390.8,229.6,389.6,230.8,388.1,230.8L388.1,230.8z M126,226.5c-1.1,0-1.9,0.8-1.9,1.8c0,1,0.9,1.8,1.9,1.8h262    c1.1,0,1.9-0.8,1.9-1.8c0-1-0.9-1.8-1.9-1.8H126L126,226.5z"/></g>
    <g><path d="M379.7,230.8V230c0.9,0,1.8-0.9,1.8-1.8c0-0.9-0.9-1.8-1.8-1.8v-0.8c1.3,0,2.5,1.2,2.5,2.5    C382.3,229.5,381,230.8,379.7,230.8L379.7,230.8z M384,230.8V230c0.9,0,1.8-0.9,1.8-1.8c0-0.9-0.9-1.8-1.8-1.8v-0.8    c1.3,0,2.5,1.2,2.5,2.5C386.5,229.5,385.3,230.8,384,230.8L384,230.8z M381.9,230.8V230c0.9,0,1.7-0.9,1.7-1.8    c0-0.9-0.9-1.8-1.7-1.8v-0.8c1.3,0,2.5,1.2,2.5,2.5C384.4,229.5,383.1,230.8,381.9,230.8L381.9,230.8z"/></g>
    <polygon class="st4" points="382.9,234.7 364.8,241.1 382.9,247.5 401.1,241.1  "/>
    <g><path d="M382.9,247.8l-19.2-6.8l19.1-6.7l19.3,6.7L382.9,247.8L382.9,247.8z M365.9,241.1l17.1,6l17.1-6l-17.2-6.1L365.9,241.1    L365.9,241.1z"/></g>
    <path class="st3"
          d="M109,238.9h262c1.3,0,2.3,0.9,2.3,2.1c0,1.2-1,2.1-2.3,2.1H109c-1.3,0-2.3-0.9-2.3-2.1   C106.7,239.9,107.7,238.9,109,238.9L109,238.9z"/>
    <g><path d="M371,243.6H109c-1.5,0-2.7-1.1-2.7-2.5c0-1.4,1.2-2.5,2.7-2.5h262c1.5,0,2.7,1.1,2.7,2.5    C373.7,242.4,372.5,243.6,371,243.6L371,243.6z M109,239.3c-1.1,0-1.9,0.8-1.9,1.8c0,1,0.9,1.8,1.9,1.8h262c1.1,0,1.9-0.8,1.9-1.8    c0-1-0.9-1.8-1.9-1.8H109L109,239.3z"/></g>
    <g><path d="M366.9,243.6v-0.8c0.9,0,1.8-0.9,1.8-1.8c0-0.9-0.9-1.8-1.8-1.8v-0.8c1.3,0,2.5,1.2,2.5,2.5    C369.5,242.3,368.2,243.6,366.9,243.6L366.9,243.6z M364.8,243.6v-0.8c0.9,0,1.7-0.9,1.7-1.8c0-0.9-0.9-1.8-1.7-1.8v-0.8    c1.3,0,2.5,1.2,2.5,2.5C367.3,242.3,366.1,243.6,364.8,243.6L364.8,243.6z M362.7,243.6v-0.8c0.9,0,1.8-0.9,1.8-1.8    c0-0.9-0.9-1.8-1.8-1.8v-0.8c1.3,0,2.5,1.2,2.5,2.5C365.2,242.3,363.9,243.6,362.7,243.6L362.7,243.6z"/></g>
    <path class="st5"
          d="M413.8,253.5c-3.2,5.6,2.5-1.9,16.4,7.5c2.6,1.7,4.8,6.3,4.8,9.5c-0.6-0.4-1.1-1.4-1.9-2.1c-1,1,1,5.7,1.3,7.9   c-2.2-1.2-2-1.8-2.7-3.3c0.1,1.8-0.4,6.8,0.5,8.7c-1.7-0.5-1.6-1.9-2.5-2.2c0.6,2.2-0.5,4.5-0.2,7c-1-1-2.1-1.8-2.5-2.2   c-0.1,1.2-1.9,4.2-2,5.3c-0.9-0.5-1.1-1.3-1.2-1.9c-1.1,1.3-4.8,6.2-5,7.7c-2.9-2.5-10.3-8.8-11.3-12.1c-0.9,1.9-2.1,2.5-4.5,3.9   c-1-5.2-4.6-11.1-2.6-15.6c-1.4,0.8-2.5,1.6-3.9,2.6C397.7,266.8,404.3,257.9,413.8,253.5L413.8,253.5z"/>
    <g><path d="M418.9,296.1l-1.2-1c-3.4-2.9-9.7-8.4-10.6-11.6c-0.3,1.9-1.6,2.6-3.9,3.9l-0.3,0.2l-0.3-0.3c-0.3-1.7-0.9-3.4-1.5-5.2    c-1.2-3.7-2.5-7.5-1.1-10.6c-0.9,1.1-2,1.9-3.4,2.9c0.9-8.5,8.1-17.2,17-21.3c0.1,0.8-0.6,2-0.5,2.2c0,0,0.1,0.1,0.7,0.1l1.6,0    c1.8,0,7.1,0,14.9,5.2c2.6,1.8,5,6.4,5,9.8c-0.8,0-1.1-0.4-1.5-0.9c-0.3-0.3-0.5-0.7-0.9-1c-0.2,0.6,0.5,3,1,4.8    c0.3,1.1,0.6,2.1,0.7,2.8c-1.9-0.6-2.4-1.2-2.7-1.9c0,0.3,0,0.7,0,1.1c0,2.1-0.1,4.9,0.5,6.2c-1.4,0.1-1.9-0.6-2.2-1.1    c-0.2-0.4-0.4-0.6-0.6-0.7c0.7,0.9,0.5,2.1,0.3,3.5c-0.2,1.1-0.3,2.1-0.2,3.2c-1.2-0.5-1.9-1-2.4-1.5l-0.6-0.5    c0.4,0.4-0.1,1.5-0.6,2.6c-0.5,1-0.9,2-0.9,2.5c-1.4-0.4-1.6-1.3-1.8-1.8c-1,2-4.3,6.4-4.5,7.7L418.9,296.1L418.9,296.1z     M407.2,283.4c1.4,3,7.9,8.6,11,11.3l0.4,0.4c0.8-2.2,4.9-7.3,5-7.4c0.6,0.6,0.8,1.3,1.6,1.8c-0.4-0.4,0.1-1.4,0.6-2.5    c0.5-1,0.9-2.1,1-2.6l1,0.2c0.5,0.4,1.3,1,2,1.7c-0.6-0.9-0.5-2.1-0.3-3.1c0.2-1.3,0.4-2.4,0.1-3.6c0.8-0.2,1.1,0.2,1.3,0.5    c0.3,0.5,0.6,1,1.5,1.3c-1-1-0.9-3.8-0.8-6c0-1,0-1.8,0-2.4l0.9,0.7c0.4,0.9,0.6,1.4,2.2,2.3c-0.5-0.4-0.8-1.4-1.1-2.5    c-0.7-2.3-1.3-4.6-0.5-5.4c0.7,0.3,1,0.7,1.3,1c0.3,0.4,0.6,0.8,0.9,1c-0.4-3-2.7-7.4-5.1-9.1c-7.6-5.1-12.8-5.1-14.5-5.1l-1.6,0    c-0.5,0-1,0-1.2-0.4c-0.2-0.4,0-1,0.8-2.4c-8.4,4.5-15.5,13-16.9,21.1c1-1.3,2.1-2.1,3.4-2.9c-0.9,3.3,0.4,7,1.6,10.6    c0.6,1.8,1.2,3.6,1.5,5.3C405.3,285.7,406.4,285.1,407.2,283.4L407.2,283.4z"/></g>
    <path class="st6"
          d="M401.8,281.2c1.3-2.7,2.6-3.5,3.5-5.3c1.5-3,1.8-5.4,3.1-5.1c1.3,0.4,1.3,1.6-0.4,4.6   C406.2,278.4,405.4,279,401.8,281.2L401.8,281.2z"/>
    <path class="st6"
          d="M410.8,287.6c-0.2-2,0.4-2.9,0.3-4.2c-0.2-2.3-1.1-3.9,0.1-4c1.2-0.1,1.8,0.7,1.8,3S412.7,285.3,410.8,287.6   L410.8,287.6z"/>
    <path class="st6"
          d="M417.7,291.6c-0.5-2.8-0.1-4.1-0.5-6c-0.6-3.2-1.8-5.4-0.6-5.7c1.1-0.3,1.8,0.8,2.3,4   C419.3,287.3,419.1,288.2,417.7,291.6L417.7,291.6z"/>
    <path class="st6"
          d="M424.9,271.6c-1.7-1.3-2.7-1.4-3.8-2.2c-1.9-1.4-2.9-3-3.5-2.2c-0.6,0.8-0.2,1.6,1.8,2.9   C421.5,271.5,422.1,271.6,424.9,271.6L424.9,271.6z"/>
    <path class="st6"
          d="M423.7,281.1c-0.9-1.8-1.8-2.3-2.4-3.5c-1-2.1-1-3.9-2.1-3.4c-1.1,0.5-1.2,1.4,0,3.4   C420.4,279.6,421,279.9,423.7,281.1L423.7,281.1z"/>
    <path class="st5"
          d="M92.3,258.8c-0.2-1.6,0.2-1.8-0.8-3.1c1.5,0.6,1.5,2.2,3.3,1.1c0.6-0.3,0.9-0.3,0.1-2.2   c1.9,0.1,7.9,2.2,8.9,2.2c2.5,0.1,7.2-2.7,10.4,0.8c3.1,3.1,2.1,6.4,2.1,10.7c-1.2-0.6-0.6-0.9-2-2.4c1,3.8-0.1,10.6-0.1,14.7   c-0.5-1-0.4-0.6-0.9-1.6c-1.3,3.7-2.9,4.4-2.9,8.8c-0.5-1.7,0-1.3-0.5-2.2c-1.3,2.8-9.9,5.2-6.6,8c-3-1.8-4.3-1.6-5.7-3.1   c-0.6,0.4-1,1.1-1.6,2.1c-5.3-2.4-3.4-7.6-7.5-11.1c-0.7,1.5-0.4,1.3-1.2,3.6c-0.8-3.3-1.1-5.4-2-7.9c-0.8,1.3-0.7,0.8-2.2,2.9   c-0.6-4-1.6-5-1.2-7.7c-1.6,1.1-0.5,0.7-2.1,2C81.3,264,87.7,256.4,92.3,258.8L92.3,258.8z"/>
    <g><path d="M103.1,293.9c-1.2-0.7-2.2-1.1-3-1.4c-1.1-0.5-2-0.8-2.8-1.8c0,0.4-0.5,1.1-1,2c-3.6-1.2-4.3-3.6-5.1-5.9    c-0.6-1.8-1.2-3.7-3-5.2c0.2,0.7,0.1,0.9,0,1.5c-0.1,0.4-0.2,1-0.6,2l-0.4,1.3l-0.3-1.3c-0.3-1.2-0.5-2.2-0.7-3.1    c-0.3-1.4-0.6-2.7-1-4c-0.2,0.2-0.3,0.4-0.5,0.6c-0.3,0.3-0.6,0.7-1.3,1.7l-0.5,0.8l-0.1-0.9c-0.2-1.6-0.5-2.7-0.8-3.6    c-0.3-1.2-0.6-2.1-0.5-3.3c-0.2,0.1-0.2,0.2-0.3,0.3c-0.1,0.2-0.3,0.5-1.1,1.1l-0.8,0.7l0.1-1c1.4-9.7,7.6-17.8,12.4-16.1    c0-0.2,0-0.3,0-0.4c0-0.7,0-1-0.7-1.8l-1-1.2l1.4,0.6c0.6,0.2,1,0.6,1.3,0.9c0.6,0.6,0.9,0.7,1.7,0.2c0.5-0.3,0.6-0.3,0-1.7    l-0.3-0.6l0.6,0c1.1,0.1,3.6,0.8,5.8,1.4c1.4,0.4,2.8,0.8,3.1,0.8c0.6-0.1,1.7-0.2,2.6-0.4c2.7-0.6,6.1-0.8,8.1,1.3    c2.6,2.6,2.4,5.3,2.2,8.4c0,0.8-0.1,1.7-0.1,2.6v0.6l-0.6-0.3c-0.7-0.3-0.9-0.6-1.1-1c0.2,2.5,0,5.6-0.2,8.4    c-0.1,1.7-0.2,3.2-0.2,4.5v1.6l-0.7-1.4c-0.2-0.4-0.3-0.6-0.4-0.7c0,0-0.1-0.1-0.1-0.1c-0.4,0.9-0.7,1.6-1.1,2.3    c-0.8,1.6-1.5,2.8-1.5,5.6v2.8l-0.8-2.7c-0.2-0.9-0.3-1.2-0.3-1.5c0,0,0,0,0,0c-0.8,0.9-2.1,1.8-3.4,2.6c-1.7,1.1-3.4,2.2-3.5,3.2    c0,0.4,0.2,0.7,0.6,1.1L103.1,293.9L103.1,293.9z M97.4,290.1c1.2,0.9,2,1.2,3,1.7c0.5,0.2,1.1,0.4,1.7,0.8c0-0.1,0-0.3,0-0.4    c0.1-1.4,1.9-2.5,3.8-3.8c1.5-1,3.1-2,3.5-2.9l0.3-0.7l0.4,0.6c0,0,0,0,0,0c0.3-1.5,0.8-2.5,1.4-3.6c0.4-0.8,0.9-1.7,1.4-3    l0.3-0.9l0.4,0.8c0.1,0.2,0.2,0.3,0.2,0.4c0-1,0.1-2.1,0.2-3.3c0.2-3.5,0.5-7.5-0.2-10l-0.4-1.6l1.1,1.3c0.6,0.7,0.8,1.2,1,1.5    c0.1,0.2,0.2,0.3,0.3,0.5c0-0.7,0-1.3,0.1-1.9c0.2-3.1,0.3-5.5-2-7.8c-1.8-1.9-4.9-1.7-7.4-1.1c-0.9,0.2-1.8,0.4-2.6,0.4    c-0.6,0-1.7-0.3-3.5-0.9c-1.7-0.5-3.7-1.1-5-1.3c0.5,1.2,0.3,1.6-0.5,2c-1.3,0.8-1.9,0.5-2.5,0c0,0.2,0,0.4,0,0.7    c0,0.3,0,0.6,0.1,1l0.1,0.7l-0.6-0.3c-3.8-2-9.9,4.2-11.7,14.1c0.1-0.1,0.1-0.1,0.1-0.2c0.2-0.3,0.3-0.5,1.2-1l0.7-0.5l-0.1,0.9    c-0.2,1.5,0,2.5,0.4,3.9c0.2,0.8,0.4,1.6,0.7,2.8c0.4-0.5,0.6-0.8,0.8-1c0.3-0.3,0.4-0.5,0.8-1.1l0.4-0.7l0.3,0.7    c0.6,1.6,0.9,3.1,1.3,4.8c0.1,0.5,0.2,1.1,0.4,1.7c0.1-0.2,0.1-0.4,0.2-0.6c0.1-0.5,0.2-0.9,0.6-1.7c2.5,1.5,3.2,3.5,3.8,5.4    c0.7,2.2,1.4,4.3,4.2,5.6C96.3,291.3,96.8,290.5,97.4,290.1L97.4,290.1z"/></g>
    <path class="st6"
          d="M85.8,275.7c1.4-3.3,2.6-4.4,3.4-6.5c1.6-3.8,1.8-6.8,3.1-6.3c1.3,0.5,1.3,2-0.5,5.7   C90.2,272.3,89.4,273.1,85.8,275.7L85.8,275.7z"/>
    <path class="st6"
          d="M91,284.1c0.6-3,1.4-4.1,1.8-6c0.6-3.4,0.3-5.9,1.5-5.8c1.2,0.1,1.5,1.4,0.7,4.8   C94.1,280.4,93.5,281.2,91,284.1L91,284.1z"/>
    <path class="st6"
          d="M97.1,289.8c0.2-2.9,0.8-4,0.9-5.9c0.2-3.3-0.4-5.6,0.7-5.6c1.2,0,1.6,1.2,1.2,4.4   C99.6,286,99.2,286.9,97.1,289.8L97.1,289.8z"/>
    <path class="st6"
          d="M110.3,270.9c-2.5-2.5-4.1-3-5.7-4.6c-2.9-2.8-4.3-5.5-5.3-4.6c-1,0.9-0.4,2.4,2.6,5.1   C105,269.5,106.1,269.9,110.3,270.9L110.3,270.9z"/>
    <path class="st6"
          d="M108.8,280.6c-1.6-2.5-2.8-3.2-3.9-4.8c-1.9-2.8-2.5-5.3-3.6-4.7c-1.1,0.6-0.8,1.9,1.2,4.7   C104.5,278.6,105.3,279.1,108.8,280.6L108.8,280.6z"/>
    <path class="st4"
          d="M362.7,256c-21.3,21.3-49.8,64-106.7,64c-49.8,0-85.3-42.7-106.7-64c21.3-21.3,56.9-64,106.7-64   C312.9,192,341.3,234.7,362.7,256L362.7,256z"/>
    <g><path d="M256,320.4c-44.7,0-77.9-34.2-99.8-56.8c-2.5-2.6-4.9-5.1-7.1-7.3c2.2-2.7,4.6-5.2,7.1-7.7c21.9-22.6,55.1-56.9,99.8-56.9    c48.3,0,76.1,30.6,96.5,52.9c3.7,4.1,7.2,7.9,10.5,11.2c-3.3,3.8-6.8,7.6-10.5,11.7C332.1,289.8,304.2,320.4,256,320.4L256,320.4z     M256,192.3c-44.5,0-77.5,34.1-99.3,56.7c-2.5,2.6-4.9,5-7.1,7.3c2.2,1.7,4.6,4.2,7.1,6.8c21.8,22.6,54.8,56.6,99.3,56.6    c47.9,0,75.7-30.5,95.9-52.7c3.7-4.1,7.2-7.9,10.5-11.2c-3.3-2.8-6.8-6.6-10.5-10.7C331.7,222.8,303.9,192.3,256,192.3L256,192.3z    "/></g>
    <path class="st7"
          d="M248.6,214.3c5.7,6.4,0.9,9,6.9,9.4c6.3,0.5,2.7,6.7,8.1,7c3.7,0.2-0.4,15.1,3.2,20c3.7,5.1,6.7,1.5,6.8,5.2   c0.1,3.8-10,3.4-10.1,15.2c-0.3,6.8-8.5,7.2-8.8,11.6c-0.5,4.1,16.1,6.4,15.8,10.1c-0.2,3.7-17.9,3.1-18.6,7.3   c-0.4,3.8,24.2,6.8,26.2,17.7c-3.7,1.2-14.1,2.3-22,2.3c-49.8,0-85.3-42.7-106.7-64c21.3-21.3,56.9-64,106.7-64   C256,192,241.2,205.5,248.6,214.3L248.6,214.3z"/>
    <rect class="st4" height="17.1" width="5.2" x="189.2" y="233.2"/>
    <rect class="st4" height="17.1" width="5.2" x="189.2" y="261.7"/>
    <rect class="st4" height="17.1" width="5.2" x="199.5" y="233.2"/>
    <rect class="st4" height="17.1" width="5.2" x="199.5" y="261.7"/>
    <rect class="st4" height="17.1" width="5.2" x="209.8" y="233.2"/>
    <rect class="st4" height="17.1" width="5.2" x="209.8" y="261.7"/>
    <rect class="st4" height="17.1" width="5.2" x="220.2" y="233.2"/>
    <rect class="st4" height="17.1" width="5.2" x="220.2" y="261.7"/>
    <rect class="st4" height="17.1" width="5.2" x="230.5" y="233.2"/>
    <rect class="st4" height="17.1" width="5.2" x="230.5" y="261.7"/>
    <rect class="st4" height="17.1" width="5.2" x="240.9" y="233.2"/>
    <rect class="st4" height="17.1" width="5.2" x="240.9" y="261.7"/>
    <rect class="st7" height="17.1" width="5.2" x="267.4" y="233.2"/>
    <rect class="st7" height="17.1" width="5.2" x="267.4" y="261.7"/>
    <rect class="st7" height="17.1" width="5.2" x="277.7" y="233.2"/>
    <rect class="st7" height="17.1" width="5.2" x="277.7" y="261.7"/>
    <rect class="st7" height="17.1" width="5.2" x="288.1" y="233.2"/>
    <rect class="st7" height="17.1" width="5.2" x="288.1" y="261.7"/>
    <rect class="st7" height="17.1" width="5.2" x="298.4" y="233.2"/>
    <rect class="st7" height="17.1" width="5.2" x="298.4" y="261.7"/>
    <rect class="st7" height="17.1" width="5.2" x="308.8" y="233.2"/>
    <rect class="st7" height="17.1" width="5.2" x="308.8" y="261.7"/>
    <rect class="st7" height="17.1" width="5.2" x="319.1" y="233.2"/>
    <rect class="st7" height="17.1" width="5.2" x="319.1" y="261.7"/>
    <path class="st5"
          d="M221.5,203.4c-3,5.7,5.2-1.9,17.9,7.7c2.4,1.8,5.7,8.8,5.7,12.1c-2.7-0.6-7.5-3.3-7.5-3.3s5.6,5.7,5.6,12.2   c-2-1.3-3-1.1-3.6-2.6c0,2.1,1.8,3.5,1.8,6.7c-1.4-1.1-2.7-1.9-3.9-2.6c1.9,3.3-3.4,9.6-0.8,11.7c-4.7-0.7-9.4-3.6-11.3-6.9   c-1,0.7-1.1,1.7-1.1,2.8c0.1,0.1-7.1-5.4-6.4-7.5c-1,1.4-1.1,2.1-1.3,3.6c-2.7-2.6-5.1-5.2-6-8.6c-1.2,1.5-1.3,1.5-2.4,3.1   c-0.9-5.3-0.9-5.2,0.9-9.8c-1.3,0.8-2.3,1.6-3.5,2.7C206.8,216.9,212.8,207.9,221.5,203.4L221.5,203.4z"/>
    <g><path d="M237.8,245.6l-1.1-0.2c-4.7-0.7-9.5-3.6-11.5-7c-0.5,0.7-0.6,1.6-0.6,2.7c-0.5,0.4-4-2.8-5.1-3.9c-1.4-1.6-2-2.7-1.9-3.5    c-0.4,1.5-0.5,2.2-0.7,3.7c-3.1-2.5-5.6-5.1-6.5-8.6c-0.1,0.9-0.4,1.3-0.7,1.7l-1.6,2l-0.1-0.8c-0.8-5.1-0.8-5.2,0.8-9.4    c-0.7,0.9-1.7,1.7-3,2.7c0.8-8.7,7.4-17.6,15.6-21.8c-0.1,1.3-0.3,1.9-0.1,2.1c0.1,0.2,0.7,0.2,1.3,0.2l2,0    c3.4,0,8.7,0.6,15.1,5.3c2.5,1.9,5.9,9,5.9,12.3c-2.4-0.2-5.9-1.9-7.3-2.7c1.6,1.3,5.4,6.1,5.4,11.6c-1.1-0.2-1.7-0.4-2.1-0.6    c-0.6-0.3-1.1-0.5-1.5-0.9c0.3,0.5,0.5,1,0.7,1.5c0.5,1.1,1.1,2.4,1.1,4.2c-1.9-0.9-3.1-1.7-4.3-2.3c1.4,1.3,0.6,3.6-0.2,5.9    c-0.8,2.2-1.5,4.3-0.3,5.3L237.8,245.6L237.8,245.6z M225.3,238.1c2.1,3.1,6.5,5.9,10.7,6.7c-0.7-1.3-0.1-3.2,0.6-5.3    c0.7-2.1,1.5-4.4,0.6-5.8c1.6,0.3,2.8,1.1,4.3,2.2c-0.5-1.5-1-2.7-1.5-3.8c-0.4-0.9-0.8-1.7-0.8-2.7c0.9,0.8,1.4,1,2.3,1.4    c0.5,0.2,1.1,0.5,1.8,0.9c-0.4-6.1-5.9-11.7-6-11.7c0.4-0.5,5.2,2.2,7.8,2.8c-0.3-2.8-3.7-9.8-6-11.6c-6.2-4.7-11.4-5.2-14.7-5.2    l-2,0c-0.8,0-1.5,0-1.8-0.5c-0.3-0.4-0.1-1.1,0.5-2.3c-7.6,4.5-14.1,13.2-15.4,21.5c0.8-1.3,1.8-2.1,3.1-3l0.8-0.5l-0.4,1.1    c-1.6,4.1-1.6,4.1-0.8,9.1l0.7-1.4c0.3-0.4,0.6-0.8,1.2-1.6c1.4,3.4,3.8,6,6.4,8.6c-0.3-1.4-0.1-2.2,0.9-3.6    c0,1.8,5.4,6.4,6.8,7.4C224.1,239.9,224.2,238.8,225.3,238.1L225.3,238.1z"/></g>
    <path class="st6"
          d="M214.2,231.3c0.5-3.9,1.5-5.4,1.8-8c0.6-4.5-0.1-7.7,1.5-7.6c1.6,0.1,2,1.7,1.3,6.2   C218,226.3,217.3,227.4,214.2,231.3L214.2,231.3z"/>
    <path class="st6"
          d="M222.5,238.5c-0.3-3.3,0.3-4.7,0.1-6.9c-0.3-3.8-1.5-6.3-0.1-6.6c1.4-0.2,2.1,1,2.2,4.8   C224.8,233.7,224.4,234.7,222.5,238.5L222.5,238.5z"/>
    <path class="st6"
          d="M235.4,244.4c-1.4-2.9-2.6-3.7-3.5-5.6c-1.6-3.2-1.9-5.9-3.2-5.4c-1.2,0.5-1.2,1.9,0.6,5   C231.1,241.6,231.9,242.2,235.4,244.4L235.4,244.4z"/>
    <path class="st6"
          d="M239.8,218.6c-3.6-1.9-5.4-1.9-7.7-3.1c-4.1-2.1-6.4-4.5-7.2-3.2c-0.8,1.3,0.3,2.6,4.4,4.5   C233.5,218.8,234.8,218.9,239.8,218.6L239.8,218.6z"/>
    <path class="st6"
          d="M241.1,229.4c-2.6-2.2-4.1-2.5-5.8-3.9c-3-2.4-4.4-4.8-5.4-3.9c-1,1-0.3,2.2,2.8,4.6   C235.8,228.5,236.8,228.8,241.1,229.4L241.1,229.4z"/></g></svg>
