<?xml version="1.0" ?>
<svg id="Layer_1" style="enable-background:new 0 0 512 512;" version="1.1" viewBox="0 0 512 512" xml:space="preserve"
     xmlns="http://www.w3.org/2000/svg"><style type="text/css">
	.st0 {
    fill: #BD1F38;
  }

  .st1 {
    fill: #FFFFFF;
  }

  .st2 {
    fill: #EFECEC;
  }

  .st3 {
    fill: #D31F3B;
  }

  .st4 {
    fill: #91857C;
  }

  .st5 {
    fill: #CACACA;
  }

  .st6 {
    fill: #CFCFCE;
  }

  .st7 {
    fill: #010101;
  }

  .st8 {
    fill: none;
  }
</style>
  <g><rect class="st0" height="298.7" width="256" x="256" y="106.7"/>
    <rect class="st1" height="298.7" width="256" y="106.7"/>
    <path class="st2"
          d="M59.2,152.1c0,0.5-0.5,0.9-1.2,0.9c-0.7,0-1.2-0.4-1.2-0.9c0-0.5,0.5-0.9,1.2-0.9   C58.7,151.2,59.2,151.6,59.2,152.1L59.2,152.1z"/>
    <path class="st3"
          d="M21.3,147.9v22h22c0,3.7,3.7,7.3,7.3,7.3v22h22v-22c3.7,0,7.3-3.7,7.3-7.3h22v-22H80c0-3.7-3.7-7.3-7.3-7.3   v-22h-22v22c-3.7,0-7.3,3.7-7.3,7.3H21.3z"/>
    <path class="st0"
          d="M22.1,148.7v20.5h22c0,3.7,3.7,7.3,7.3,7.3v22h20.5v-22c3.7,0,7.3-3.7,7.3-7.3h22v-20.5h-22   c0-3.7-3.7-7.3-7.3-7.3v-22H51.4v22c-3.7,0-7.3,3.7-7.3,7.3H22.1z"/>
    <path class="st4"
          d="M22.8,149.4v19.1h22c0,3.7,3.7,7.3,7.3,7.3v22h19.1v-22c3.7,0,7.3-3.7,7.3-7.3h22v-19.1h-22   c0-3.7-3.7-7.3-7.3-7.3v-22H52.1v22c-3.7,0-7.3,3.7-7.3,7.3H22.8z"/>
    <path class="st5"
          d="M23.5,150.1v17.6h22c0,3.7,3.7,7.3,7.3,7.3v22h17.6v-22c3.7,0,7.3-3.7,7.3-7.3h22v-17.6h-22   c0-3.7-3.7-7.3-7.3-7.3v-22H52.9v22c-3.7,0-7.3,3.7-7.3,7.3H23.5z"/>
    <path class="st6"
          d="M53,141c1.3,1.3,0.2,4.4-2.3,7c-2.6,2.6-5.7,3.6-7,2.3c-1.3-1.3-0.2-4.4,2.3-7C48.6,140.7,51.8,139.7,53,141   L53,141z"/>
    <path class="st4"
          d="M51.5,142.5c1.3,1.3,0.9,3.7-0.8,5.4c-1.7,1.7-4.2,2.1-5.4,0.8c-1.3-1.3-0.9-3.7,0.8-5.4   C47.8,141.6,50.2,141.2,51.5,142.5L51.5,142.5z"/>
    <polygon class="st6" points="45,146.4 45.5,145.9 47.6,146.9 46.6,144.9 47.1,144.3 49.2,148.5  "/>
    <rect class="st6" height="4.4" transform="matrix(0.7071 -0.7071 0.7071 0.7071 -87.63 77.6658)" width="0.7" x="49.6"
          y="142.4"/>
    <path class="st6"
          d="M79.6,150.3c-1.3,1.3-4.4,0.2-7-2.3c-2.6-2.6-3.6-5.7-2.3-7c1.3-1.3,4.4-0.2,7,2.3   C79.8,145.9,80.9,149,79.6,150.3L79.6,150.3z"/>
    <path class="st4"
          d="M78,148.8c-1.3,1.3-3.7,0.9-5.4-0.8c-1.7-1.7-2.1-4.2-0.8-5.4c1.3-1.3,3.7-0.9,5.4,0.8   C79,145,79.3,147.5,78,148.8L78,148.8z"/>
    <polygon class="st6" points="74.2,142.3 74.7,142.8 73.6,144.9 75.7,143.8 76.2,144.3 72.1,146.4  "/>
    <rect class="st6" height="0.7" transform="matrix(0.7117 -0.7025 0.7025 0.7117 -81.498 95.7997)" width="4.4" x="73.8"
          y="146.8"/>
    <path class="st6"
          d="M70.3,176.9c-1.3-1.3-0.2-4.4,2.3-7c2.6-2.6,5.7-3.6,7-2.3c1.3,1.3,0.2,4.4-2.3,7   C74.7,177.1,71.6,178.2,70.3,176.9L70.3,176.9z"/>
    <path class="st4"
          d="M71.8,175.3c-1.3-1.3-0.9-3.7,0.8-5.4c1.7-1.7,4.2-2.1,5.4-0.8s0.9,3.7-0.8,5.4   C75.6,176.3,73.1,176.6,71.8,175.3L71.8,175.3z"/>
    <polygon class="st6" points="78.3,171.4 77.8,171.9 75.7,170.9 76.7,173 76.2,173.5 74.2,169.4  "/>
    <rect class="st6" height="4.4" transform="matrix(0.7029 -0.7113 0.7113 0.7029 -101.4273 103.6728)" width="0.7"
          x="73" y="171"/>
    <path class="st6"
          d="M43.7,167.5c1.3-1.3,4.4-0.2,7,2.3c2.6,2.6,3.6,5.7,2.3,7c-1.3,1.3-4.4,0.2-7-2.3   C43.5,172,42.4,168.8,43.7,167.5L43.7,167.5z"/>
    <path class="st4"
          d="M45.3,169.1c1.3-1.3,3.7-0.9,5.4,0.8c1.7,1.7,2.1,4.2,0.8,5.4c-1.3,1.3-3.7,0.9-5.4-0.8   C44.3,172.8,44,170.4,45.3,169.1L45.3,169.1z"/>
    <polygon class="st6" points="49.2,175.6 48.6,175.1 49.7,173 47.6,174 47.1,173.5 51.2,171.4  "/>
    <rect class="st6" height="0.7" transform="matrix(0.7071 -0.7071 0.7071 0.7071 -106.7989 83.4485)" width="4.4"
          x="45.1" y="170.3"/>
    <g><path class="st4" d="M61.7,174.4c-8.6,0-15.5-7-15.5-15.5c0-8.6,7-15.5,15.5-15.5c4.1,0,8,1.6,11,4.5c2.9,2.9,4.5,6.8,4.5,11    c0,4.1-1.6,8-4.5,11C69.7,172.8,65.8,174.4,61.7,174.4L61.7,174.4z M61.7,143.6c-8.4,0-15.3,6.9-15.3,15.3    c0,8.4,6.9,15.3,15.3,15.3c4.1,0,7.9-1.6,10.8-4.5c2.9-2.9,4.5-6.7,4.5-10.8c0-4.1-1.6-7.9-4.5-10.8    C69.6,145.2,65.7,143.6,61.7,143.6L61.7,143.6z"/></g>
    <g><path class="st4" d="M61.7,170.8c-6.5,0-11.9-5.3-11.9-11.9c0-6.5,5.3-11.9,11.9-11.9c6.5,0,11.9,5.3,11.9,11.9    C73.5,165.5,68.2,170.8,61.7,170.8L61.7,170.8z M61.7,147.3c-6.4,0-11.6,5.2-11.6,11.6c0,6.4,5.2,11.6,11.6,11.6    c6.4,0,11.6-5.2,11.6-11.6C73.3,152.5,68.1,147.3,61.7,147.3L61.7,147.3z"/></g>
    <path class="st7"
          d="M56.5,171.4c0,0.3-0.1,0.5-0.4,0.6c-0.2,0.1-0.5,0.1-0.7,0c-0.2-0.1-0.4-0.4-0.4-0.6c0-0.3,0.1-0.5,0.4-0.6   c0.2-0.1,0.5-0.1,0.7,0C56.4,170.9,56.5,171.1,56.5,171.4L56.5,171.4z"/>
    <path class="st7"
          d="M68.3,171.4c0,0.3-0.1,0.5-0.4,0.6c-0.2,0.1-0.5,0.1-0.7,0c-0.2-0.1-0.4-0.4-0.4-0.6c0-0.3,0.1-0.5,0.4-0.6   c0.2-0.1,0.5-0.1,0.7,0C68.1,170.9,68.3,171.1,68.3,171.4L68.3,171.4z"/>
    <path class="st7"
          d="M61.2,171.4v0.8h-1c-1,0-1,0.8,0,0.8h1v0.8c0,0.8,0.9,0.9,0.9,0.1l0.1-0.8h1c1,0,1-0.8,0-0.8h-1v-0.8   C62.1,170.6,61.2,170.6,61.2,171.4L61.2,171.4z"/>
    <path class="st4"
          d="M70,161.2c0.3-0.1,0.7,0,0.7,0s0,0.2-0.1,0.2c0.1,0.1,0.6,0,0.6,0s-0.2,0.1-0.3,0.2c0.2,0,0.4,0.2,0.4,0.2   s-0.4,0.1-0.5,0c0.1,0.2,0.1,0.4,0.1,0.4s-0.6-0.2-0.8-0.5L70,161.2z"/>
    <g><path class="st8" d="M70,161.2c0.3-0.1,0.7,0,0.7,0s0,0.2-0.1,0.2c0.1,0.1,0.6,0,0.6,0s-0.2,0.1-0.3,0.2c0.2,0,0.4,0.2,0.4,0.2    s-0.4,0.1-0.5,0c0.1,0.2,0.1,0.4,0.1,0.4s-0.6-0.2-0.8-0.5L70,161.2z"/></g>
    <path class="st4" d="M69,160.8c-0.1,0.4-1.2-0.3-1.2-0.3s0.5,0.8,1.2,0.8L69,160.8z"/>
    <g><path class="st8" d="M69,160.8c-0.1,0.4-1.2-0.3-1.2-0.3s0.5,0.8,1.2,0.8L69,160.8z"/></g>
    <polygon class="st4"
             points="55.7,167.7 68.2,167.7 69.2,166.9 67.5,166 65.1,165.2 64.1,164.7 62.2,164.8 60.7,165.6 58.6,165.8    58.1,166.4 56.5,166.5 54.1,166.5 58.2,167.1 54.8,166.9  "/>
    <g><path class="st7" d="M68.2,167.7H55.7l-0.9-0.8l3.4,0.1l-4.1-0.5l4-0.2l0.5-0.6l2.1-0.3l1.5-0.8l1.9-0.1l1,0.6l4.1,1.7L68.2,167.7    L68.2,167.7z M54.8,167l0.9,0.6l12.5,0l0.9-0.8l-5.1-2.2l-1.8,0.1l-1.5,0.8l-2.1,0.3l-0.5,0.5l-1.6,0.1l-2.5,0l4.1,0.5L54.8,167    L54.8,167z"/></g>
    <path class="st4"
          d="M62.4,164.1c-1.6-0.8-2,1.2-2.7,1.7c0.9,0.2,1.6-0.7,2.4-1.1c0.6,1.6,1.5,0.5,1.5,0.5s1,1.5,2.3,0.8   c0.4,0.3,0.7,0,0.7,0s0.5,0.1,0.6-0.1c0.2,0.1,0.5-0.2,0.5-0.2s0.5,0,0.6-0.3c0.8,0.1,1.9-1.6,1.9-1.6l0.3-0.6l0.5-0.1   c0,0,0-0.3-0.2-0.3c0-0.2-0.2-0.3-0.4-0.2c0-0.1-0.1-0.2-0.1-0.2c-0.5,0.1-0.5,1.2-0.5,1.2s-0.8,0.6-1.1,0.7c0-0.6-1.1-1.5-0.9-1.9   c0.2-0.4,0.9,0.6,1.5,0.4c0.6-0.2,0.9-1,0.9-1.6c-0.2-0.4-0.6-1.1-0.6-1.1l-0.4,0l-0.3-0.8c0,0-0.7,0.5-0.7,0.9   c0,0.4,0.8,0.8,0.8,0.8s-0.4,0.3-0.8,0.2c0,0.4,0.5,0.3,0.7,0.3c0.1,0.3,0.4,0.5,0.4,0.5s0.2,0.5-0.3,0.4c-0.5,0-1.1-1.2-1.7-0.6   c-0.7,0.5,0.3,1.5,0.3,1.5s-0.6,0.3-1,1.2C65,163.1,64.1,163.7,62.4,164.1L62.4,164.1z"/>
    <g><path class="st7" d="M65.2,166.3c-0.9,0-1.5-0.9-1.6-1c0,0.2-1.1,0.6-1.5-0.6c-0.1,0.2-0.4,0.3-0.6,0.5c-0.5,0.3-0.9,0.7-1.5,0.7    c0,0,0,0,0-0.1c0.6-0.1,1-0.4,1.4-0.7c0.2-0.2,0.5-0.3,0.7-0.5c0.6,1.2,1.5,0.6,1.5,0.6c0.1,0,1.2,1.4,2.3,0.8l0,0l0.8,0l0.6-0.1    c0.5-0.2,0.9-0.2,1-0.5c0.9,0,1.9-1.6,1.9-1.6l0.3-0.6l-0.1,0l-0.1-0.7c-0.3-0.1-0.5,0.8-0.5,1.1c0,0.1-0.8,0.6-1.1,0.8    c-0.1-0.3-0.3-0.7-0.6-1c-0.3-0.4-0.5-0.7-0.4-1l0.7,0.1c0.2,0.2,0.5,0.3,0.7,0.3c0.7-0.2,1-0.9,1-1.6c-0.1-0.3-0.4-0.8-0.5-1    c0.3,0.2,0.5,0.7,0.7,1c0,0.7-0.4,1.5-1,1.7c-0.5,0-0.7-0.2-1-0.3c-0.6,0-0.4,0.4-0.1,0.7c0.2,0.4,0.5,0.7,0.5,1    c0.2-0.2,1-0.8,1-0.8c0-0.1,0-1.1,0.5-1.2l0.5,0.5l-0.5,1.1c0,0.1-1,1.7-1.8,1.7c-0.1,0.3-0.7,0.3-0.7,0.3l-0.9,0.4l-1-0.1l0,0.1    C65.7,166.3,65.4,166.3,65.2,166.3L65.2,166.3z M59.9,165.7c0-0.2,0.2-0.4,0.3-0.7c0.5-0.8,1.2-1.6,2.2-1l0.8-0.2    c1.3-0.3,2.2-0.4,3.3,0.6c0.3-0.8,0.8-1.1,0.9-1.2l0,0c-0.1,0-0.6-0.5-0.6-1l0.7-0.6c0.3,0,0.6,0.2,0.8,0.4    c0.2,0.2,0.4,0.3,0.5,0.3c0.2-0.3,0-0.5-0.1-0.8l0.5,0.4l-0.4,0.5c-0.2,0-0.4-0.2-0.6-0.4c-0.2-0.2-0.5-0.4-0.8-0.4l-0.6,0.5    c0,0.5,0.5,1,0.6,1c0,0.1-0.6,0.4-1,1.3c-1.3-0.9-2.1-0.8-3.3-0.5l-0.9,0.2c-1.2-0.5-1.6,0.2-2.1,1    C60.2,165.4,60.1,165.6,59.9,165.7L59.9,165.7z M68.6,161.2L69,161c-0.2-0.1-0.8-0.4-0.8-0.8c0-0.5,0.7-0.9,0.7-0.9l0.1,0.3    l-0.2-0.2c-0.1,0.2-0.6,0.6-0.6,0.9c0,0.3,0.5,0.6,0.7,0.7c0,0,0,0,0,0.1l0,0c0,0,0,0,0,0C68.9,161.1,68.8,161.2,68.6,161.2    L68.6,161.2z"/></g>
    <path class="st4"
          d="M60.2,161.9c0.6,0.6,0.2,1.6,0.4,1.8c0.3,0.2,0.6-0.1,0.6-0.1c0.7,0.2,1.9-0.2,1.9-0.2   c0.5,0.3,0.3-0.1,0.6-0.1c0.3,0.7,1.2,0.6,1.2,0.6s-0.9-0.9-1.4-1.1c-0.4,0.3-1.6,0.3-1.8,0.3c-0.2,0-0.1-0.3-0.2-0.5   c0.4-0.4,0.1-1.5-0.2-1.9C60.4,159.9,59.3,161,60.2,161.9L60.2,161.9z"/>
    <g><path class="st7" d="M64.8,163.9c-0.3,0-0.9-0.1-1.1-0.6c-0.6,0.2-1.4,0.4-2,0.4l-0.9,0.1l-0.4-0.7c0-0.4,0-0.9-0.3-1.2    c-0.3-0.3-0.4-0.7-0.3-1c0.2-0.6,1-0.8,1.6-0.4c0.3,0.5,0.6,1.6,0.2,2c0.9,0.4,1.7,0.3,2,0.1c0.6,0.3,1.5,1.1,1.5,1.2L64.8,163.9    L64.8,163.9z M63.8,163.2c0.3,0.5,0.8,0.6,1.1,0.6v0.1l0.1-0.1c-0.1,0-0.9-0.8-1.4-1c-0.3,0.2-1.2,0.3-1.6,0.3l-0.5-0.6    c0.4-0.4,0.1-1.5-0.2-1.8c-0.5-0.3-1.2-0.1-1.4,0.4c-0.1,0.3,0,0.6,0.3,0.9c0.4,0.4,0.4,0.9,0.4,1.3l0.2,0.6l0.4-0.2    c1.1,0,1.9-0.2,1.9-0.2L63.8,163.2L63.8,163.2z"/></g>
    <path class="st4"
          d="M55.9,160.1c-0.8,0.2-2.2-1.1-2.9-0.6c-0.7,0.5-0.4,1.7,0.1,2.3c0.4,0.6-0.6,0.8-0.9,1.1   c-0.3,0.3,0.1,0.7,0.1,0.7l0.3,0.2l-0.1,0.4l0.2,0.5c0,0,0.1,0.1,0.2,0c0.1,0.1,0,0.5,0.3,0.6c-0.1-0.2,0.1-0.9,0.1-0.9   s0.6,0,0.7-0.2c0.1-0.3-0.1-0.8-0.1-0.8h0.2c-0.2-0.1-0.3-0.5-0.3-0.5s0.8-0.3,0.8-0.9c0-0.6-1.3-1.3-0.8-1.6   c0.5-0.4,1.5,0.9,2.3,0.3c0.8-0.6,0.3,0,0.3,0S56.7,159.9,55.9,160.1L55.9,160.1z"/>
    <g><path class="st7" d="M53.3,165.4l-0.2,0l-0.7-1.1l0-0.1l0,0.1l0.1,0l0.5,0.9c0-0.3,0.1-0.7,0.1-0.8c0.5,0,0.7-0.1,0.7-0.2    c0.1-0.2-0.1-0.6-0.1-0.7l0-0.6c0,0,0.8-0.3,0.8-0.8c0-0.3-0.3-0.5-0.5-0.8c-0.2-0.2-0.4-0.5-0.4-0.6c0.1-0.1,0.3-0.1,0.4-0.1    c-0.3,0.3-0.1,0.5,0.1,0.7c0.3,0.3,0.6,0.6,0.6,0.9c0,0.7-0.8,0.9-0.9,0.9c0.2,0.5,0.4,1,0.3,1.3c-0.1,0.2-0.5,0.2-0.7,0.2    c-0.1,0.1-0.2,0.7-0.1,0.9L53.3,165.4L53.3,165.4z M52.3,163.7l-0.1-0.1c-0.1-0.2-0.3-0.5-0.1-0.8c0.7-0.5,0.9-0.6,1-0.8    c-0.3-0.6-0.5-1.1-0.5-1.5c-0.1-0.5,0.1-0.9,0.4-1.2c0.8-0.1,1.2,0.1,1.6,0.2c0.4,0.2,0.8,0.4,1.1,0.3l0.7,0l-0.2,0.3l-0.6-0.2    c-0.4,0-0.8-0.2-1.2-0.4c-0.4-0.2-0.8-0.3-1.1-0.3c-0.7,0.4-0.7,0.8-0.7,1.1c0,0.4,0.2,0.8,0.4,1.2c0.1,0.6-0.2,0.8-0.5,0.9    c-0.6,0.6-0.3,0.9-0.3,0.9L52.3,163.7L52.3,163.7z"/></g>
    <path class="st4"
          d="M60.1,151.4c-1.1-0.5-3.3-0.5-4.5-1.1c-0.5,0-0.8,0.5-0.8,0.6c-0.6,0-0.9,0.9-0.9,1c-1-0.4-1.5,1.2-1.2,1.6   c-0.9,0-0.8,1.2-0.9,1.5c-0.3,0.7,0.1,0.9,0.6,0.7c0.1,0.3,0,0.5-0.3,0.5c1.5,1.7,2.4-1.1,3.7-1.1c1.7-0.5,2.3-1.3,2.3-1.3l0.7,0.1   L60.1,151.4z"/>
    <g><path class="st7" d="M53.1,156.8c-0.3,0-0.7-0.2-1-0.6l-0.4-0.6c-0.1-0.2-0.1-0.4,0-0.7c0.1-0.7,0.2-1.5,0.9-1.5    c-0.2-0.1-0.2-0.5,0-0.9c0.2-0.5,0.5-0.8,0.9-0.7c0.2,0,0.3-0.3,0.4-0.5c0.1-0.2,0.4-0.5,0.7-0.5c0-0.1,0.2-0.6,0.8-0.6    c0.7,0.3,1.7,0.5,2.6,0.6c0.8,0.1,1.5,0.2,2,0.5l-1.2,2.6l-0.7-0.1c0,0-0.6,0.8-2.3,1.3c-0.5,0-1,0.4-1.4,0.8    C54.1,156.4,53.6,156.8,53.1,156.8L53.1,156.8z M51.9,155.6l0.6,0.1l-0.3,0.6c0.9,0.7,1.5,0.3,2.3-0.3c0.4-0.4,0.9-0.9,1.4-0.9    c1.6-0.5,2.3-1.3,2.3-1.3l0.7,0.1l1.1-2.5c-0.4-0.1-1.2-0.2-1.9-0.4c-0.9-0.2-1.9-0.3-2.6-0.6c-0.5,0-0.7,0.4-0.7,0.6    c-0.4,0.1-0.6,0.4-0.7,0.5l0.1,0.1l-0.3,0.5c-0.6-0.1-0.9,0.2-1.1,0.6c-0.1,0.3-0.2,0.7,0,0.9c-0.7,0.1-0.8,0.8-0.8,1.3    L51.9,155.6L51.9,155.6L51.9,155.6z"/></g>
    <path class="st4"
          d="M63.1,150.1c0,0.9-0.7,1.6-1.6,1.6c-0.9,0-1.6-0.7-1.6-1.6c0-0.9,0.7-1.6,1.6-1.6   C62.3,148.5,63.1,149.2,63.1,150.1L63.1,150.1z"/>
    <g><path class="st7" d="M61.5,151.8c-0.9,0-1.7-0.7-1.7-1.7c0-1.8,3.3-1.8,3.3,0C63.1,151,62.4,151.8,61.5,151.8L61.5,151.8z     M61.5,148.6c-0.8,0-1.5,0.7-1.5,1.5c0,1.7,3.1,1.7,3.1,0C63,149.3,62.3,148.6,61.5,148.6L61.5,148.6z"/></g>
    <path class="st4"
          d="M58.6,162.7c-1-0.2-2.6-1.2-2.8-2.6c0.9-3.6,5.7-1.7,6.1-4.5c-0.1-1.8,0.2-3.6,1.2-5.1   c0.5-0.6,1.1-0.7,1.1-0.7s0.1,0.4,0,0.6c0.8-0.1,1.9,0.4,2.6,0.4c0.2,0.4,0.2,0.6,0.2,0.9c0,0.3-0.3,0.2-0.3,0.2   c-0.2,0.2-0.4,0.4-0.9,0.3c-0.4,0.3-1.2,0.4-1.2,0.4s1.7,1.8,1.4,2.4c0.4,0.2,0.9,1,0.9,1s1.2-0.6,1.6-1.2c0.7,0,1.8,0.7,2.4,0.8   c0.7,0.6,1.4,1.1,1.4,1.1s-0.8,0.5-1.2-0.2c-0.4,0-1.4-1-2.6-0.7c0,1.1-1.3,1.9-1.3,1.9s1.2-0.2,1.8,0.2c0.7,0.6,1.6,1.3,1.6,1.3   l0.9,1.5c0,0-0.8,0.1-1.1-0.9c-0.3,0.8-0.3-0.5-1.5-1.1c-0.4,0-0.5,0.1-0.8-0.2c-0.8,0.2-1.9,0.7-3,0.6c-0.8,0.3-1.5,1-2.3,1.4   c-0.9,0.4-1.1,0.2-1.1,0.2l-0.7,0c-0.1,0.4,0,1.1-0.4,1.2c0.2,0.3-0.2,1.4-0.6,1.6c0.2,0.7,0.8,0.9,1.4,1.3c0,0,0.5-0.2,0.9,0.1   c0.4,0.3,0.7,1.2,0.7,1.2s-0.7,0.1-1,0c-0.2-0.1-0.3-0.3-0.5-0.3c-1.7-1.5-2.6-0.9-2.7-1.2C58.3,164.2,58.8,163.3,58.6,162.7   L58.6,162.7z"/>
    <g><path class="st7" d="M62.2,166.2l-0.6-0.1c-1.7-1.3-2.4-1.3-2.8-1.4c-0.1-0.1-0.2-0.1-0.3-0.2c0.7,0.1,1.5,0.2,2.6,1.2L62.2,166.2    l0.4-0.1c-0.1,0-0.3-0.6-0.6-0.9c0.4,0.5,0.6,0.9,0.6,1L62.2,166.2L62.2,166.2z M61.8,164.9l-0.9-0.1c-0.8-0.4-1.2-0.7-1.4-1.3    c0.3-0.2,0.6-0.7,0.6-1.1c0,0,0,0,0,0c-0.1,0.7-0.3,1.1-0.6,1.2c0.2,0.5,0.6,0.7,1.1,1l0.7,0.1C61.6,164.7,61.7,164.8,61.8,164.9    L61.8,164.9L61.8,164.9z M58.5,164.4c-0.1-0.2-0.1-0.4,0-0.6c0.1-0.4,0.2-0.7,0.1-1c-1-0.2-2.6-1.2-2.8-2.6c0.5-2,2.1-2.4,3.6-2.7    c1.3-0.3,2.4-0.5,2.5-1.8c-0.1-2,0.3-3.7,1.2-5.1c0.5-0.6,1.1-0.8,1.1-0.8c0.1,0,0.1,0.2,0.1,0.4l-0.1-0.4l0,0.1    c0,0-0.6,0.2-1,0.7c-0.9,1.4-1.3,3.1-1.2,5c-0.2,1.3-1.4,1.6-2.6,1.9c-1.4,0.3-3,0.7-3.5,2.6c0.2,1.2,1.7,2.3,2.8,2.5    c0.1,0.4,0,0.8-0.1,1.2C58.5,164,58.4,164.3,58.5,164.4L58.5,164.4z M61.6,160.9l-0.5,0l0.3-0.2c0.4,0.1,0.7,0,1.1-0.2    c0.4-0.2,0.7-0.4,1.1-0.6c0.4-0.3,0.8-0.6,1.3-0.7c1.2,0,1.8-0.2,2.4-0.4l0.6-0.2l0.9,0.2c0.5,0.2,0.8,0.6,1,0.9    c-0.3-0.3-0.6-0.6-1-0.8l-0.8-0.2l0,0.1l-0.6,0.2c-0.6,0.2-1.3,0.4-2,0.4c-0.8,0.1-1.2,0.4-1.6,0.7c-0.3,0.2-0.7,0.5-1.1,0.7    C62.1,160.8,61.8,160.9,61.6,160.9L61.6,160.9z M71.1,160.8c-0.3,0-0.5-0.1-0.8-0.4c0.4,0.3,0.7,0.4,0.9,0.4l-0.8-1.4l0,0    c0,0-1-0.7-1.6-1.3c-0.3-0.2-0.8-0.2-1.2-0.2c0,0-0.1,0-0.1,0c0.6-0.1,1.1,0,1.4,0.2c0.7,0.6,1.6,1.3,1.6,1.3l0.9,1.5    C71.2,160.8,71.2,160.8,71.1,160.8L71.1,160.8z M67.4,157.5c0.2-0.3,0.7-0.9,0.8-1.7c1.2-0.1,1.7,0.2,2.1,0.4l0.6,0.3l0-0.1    l0.6,0.4l-0.8-1.2c-0.2,0-0.6-0.2-0.9-0.3c-0.5-0.2-1-0.4-1.4-0.4c-0.3,0.6-1.5,1.2-1.5,1.2c-0.1,0-0.6-0.8-1-1    c0.2-0.5-1-1.9-1.5-2.4c0-0.1,0.9-0.2,1.2-0.5c0.6,0,0.8-0.1,0.9-0.3c0.4-0.4,0.4-0.6,0.2-1c-0.2,0-0.6-0.1-1-0.2    c-0.5-0.1-0.9-0.2-1.3-0.2l0,0c0.5-0.1,1,0,1.4,0.1c0.4,0.1,0.7,0.2,1,0.2c0.3,0.5,0.3,0.7,0.2,0.9c-0.5,0.4-0.7,0.6-1.1,0.6    c-0.6,0.3-1.4,0.3-1.5,0.3c0.2,0.1,1.8,1.8,1.5,2.3c0.3,0.1,0.8,0.8,0.9,0.9c0-0.1,1.1-0.7,1.5-1.2c0.4,0,1,0.2,1.5,0.4    c0.4,0.2,0.7,0.3,0.9,0.3l1.4,1.1c0,0.2-1,0.5-1.3-0.1c-0.1,0-0.3-0.1-0.6-0.2c-0.4-0.2-0.9-0.5-1.5-0.5    C68.4,156.6,67.8,157.2,67.4,157.5L67.4,157.5z"/></g>
    <path class="st4"
          d="M54.6,156.1c0.1-0.1,0.7,0.1,0.7,0.1l1.1,0.7l2.3,1.5l0.8,1.2l-1.4-0.5l-2-1.7l-1.1-0.7   C55,156.6,54.5,156.2,54.6,156.1L54.6,156.1z"/>
    <g><path class="st7" d="M59.7,159.7l-1.6-0.5l-3.1-2.4c-0.2-0.2-0.5-0.5-0.4-0.7c0.4-0.1,0.8,0.1,0.8,0.1l3.4,2.2L59.7,159.7    L59.7,159.7z M54.7,156L54.7,156l3.4,3l1.3,0.4l-0.7-1L54.7,156L54.7,156z"/></g>
    <path class="st4" d="M68.1,159.8c-0.8-0.2-2.7,2.2-2.7,2.2l1.5,1.6C66.8,163.5,66.9,160.8,68.1,159.8L68.1,159.8z"/>
    <g><path class="st7" d="M66.9,163.7l-1.6-1.7c0.1-0.2,1.8-2.3,2.7-2.3c0,0,0,0,0,0c-0.9,0.2-2.5,2.2-2.5,2.2l1.4,1.4    c0-0.5,0.2-2.1,0.9-3.2c-0.7,1.3-0.8,3.3-0.8,3.3L66.9,163.7L66.9,163.7z"/></g>
    <path class="st4"
          d="M58.5,153.2c-0.4,0.6-0.5,1.7,0.1,2.1c0,0.7,0.6,2,1.1,2.2c0.5,0.1,2.5,0.6,3.2,0.5c-0.2,1.3,0.8,2.2,1.7,2.9   c0,0.1,0,0.2,0.1,0.4c0.1,0.1,0.6,0.2,0.6,0.1c0.2,0.3,1.2,0.4,1.3,0.3c0.1-0.1-1.5-1.2-1.9-1.6c-0.3-0.6-0.9-1.8-1-2.8   c-0.8-0.9-2.1-0.9-2.1-0.9l0-1.8l0.1-2l-0.7-0.4c0,0,0.2-0.1,0.2-0.2c0.2,0.1,0.5-0.3,0.5-0.4c0.2,0.1,0.3,0.1,0.3,0   c0-0.1,0.1-0.4,0.1-0.6c0.5-0.5-0.1-1.5-0.9-1.5c-0.8,0-1,1-1,1.1c0.1,0.3,0.1,0.5,0,0.5c-0.1,0.1-0.3,0.2-0.3,0.2s-0.5-0.2-1,0   c-0.6,0.2-1.2,0.5-1.2,0.9c-0.3,0-0.7,0.4-0.7,0.6c-0.2,0-0.5,0.1-1,0.9c-0.9,0.4-0.9,2.2-0.9,2.2s-0.2,0.3-0.2,0.5   c0,0.2,0.1,0.3,0.2,0.3c0,0.1,0.2,0.2,0.2,0.2c0,0.1,0.2,0.2,0.3,0.2c0,0.1,0.3,0.1,0.4,0c0-0.1,0-0.5,0-0.5c0,0,0.3,0.2,0.4,0.1   c0.1-0.1,0-0.2-0.1-0.3c0-0.1-0.3-0.1-0.3-0.4c-0.1-0.3,0.2-0.7,0.2-0.7s0.9-0.7,1-1.4C57.9,154.1,58.3,153.5,58.5,153.2   L58.5,153.2z"/>
    <g><path class="st7" d="M66.4,161.7c-0.3,0-0.9-0.1-1.1-0.4l0,0c0.4,0.1,0.9,0.2,1.1,0.2V161.7l0.2-0.2c0-0.1-0.7-0.6-1.1-0.9    c-0.3-0.2-0.6-0.5-0.8-0.6c-0.1-0.2-0.9-1.6-1-2.8c-0.7-0.8-2-0.8-2-0.8l0-1.9l0.1-2l-0.7-0.3l0-0.1l1.2-1.2    c0.2-0.2,0.2-0.4,0.1-0.7c-0.1-0.4-0.5-0.7-1-0.7h0c-0.3,0-0.5,0.1-0.6,0.3c-0.2,0.3-0.3,0.7-0.3,0.7l0,0l-0.4,0.8l-1-0.1l0,0.1    c-0.5,0.2-1.1,0.5-1.2,0.8c-0.3,0.1-0.7,0.4-0.7,0.7c-0.3,0-0.6,0.3-1,0.9c-0.8,0.4-0.9,2.2-0.9,2.2l-0.1,0.3l0-0.3l-0.1,0    c0-0.1,0.1-1.9,0.9-2.3c0.4-0.6,0.7-0.9,0.9-0.9c0.1-0.3,0.5-0.6,0.8-0.6c0-0.3,0.6-0.6,1.2-0.9l1,0.1l0-0.1l0.3-0.7    c0-0.1,0.1-0.5,0.3-0.8c0.2-0.2,0.4-0.4,0.7-0.4c0.6,0,1,0.4,1.1,0.8c0.1,0.3,0.1,0.6-0.2,0.8l-0.3,0.7c-0.2,0-0.5,0.3-0.7,0.3    l0.5,0.4l-0.1,3.9c0.1-0.1,1.3,0,2.1,0.9c0.2,1.2,0.9,2.6,1,2.8c0.1,0.1,0.4,0.3,0.7,0.6c1,0.8,1.2,0.9,1.1,1L66.4,161.7    L66.4,161.7z M62.4,158c-1.1,0-2.4-0.3-2.8-0.4c-0.5-0.1-1.1-1.5-1.1-2.2c-0.5-0.4-0.5-1.2-0.3-1.8c-0.2,0.3-0.5,0.5-0.9,0.5    c-0.2,0.6-1.1,1.3-1.1,1.3c0,0-0.2,0.4-0.1,0.6l0.4,0.8l-0.6,0.5l-0.7-0.5l0.5,0.3l0.4-0.5c-0.1-0.8,0.1-1.2,0.1-1.3    c0,0,0.9-0.7,1-1.3c0.7,0,1-0.4,1.2-0.7c0,0,0,0.1,0,0.1c0-0.1,0.1-0.1,0.1-0.2c0,0.1-0.1,0.2-0.2,0.3c-0.2,0.5-0.1,1.4,0.3,1.8    c0.1,0.7,0.7,2,1,2.1c0.5,0.1,2,0.5,2.9,0.5c0,0,0,0,0,0C62.5,158,62.5,158,62.4,158L62.4,158z"/></g>
    <path class="st4"
          d="M56.9,150.6c0.2-0.5,1-0.5,1-0.5s0.3-0.7,1.3-0.3c0.4-0.3,1.4,0.1,1.4,0.1s0.4-0.5,0.9-0.5   c0.9,0.1,1.1,1,1,1.1c-0.5,0.1-1.4-0.4-2.1-0.3c-0.4,0.2-1,0.5-1.3,0.8C58.5,151.2,57.9,150.6,56.9,150.6L56.9,150.6z"/>
    <g><path class="st7" d="M59.1,151.2c-0.3,0-0.5-0.1-0.8-0.2c-0.4-0.2-0.8-0.3-1.3-0.3c0,0,0,0,0,0c0.5-0.1,0.9,0.1,1.3,0.2    c0.3,0.1,0.6,0.2,0.8,0.2V151.2l0.1-0.1c0.1-0.2,0.5-0.4,0.9-0.6l0.7-0.2c0.3,0,0.6,0.1,0.9,0.2c0.3,0.1,0.5,0.1,0.7,0.1    c-0.1-0.7-0.4-0.9-0.8-1c-0.6,0.1-0.8,0.4-0.8,0.4c-0.1,0-0.6-0.2-1.1-0.2l-1,0c-0.5,0-0.6,0.4-0.6,0.4c-0.3,0-0.8,0.1-1,0.4    c0.1-0.5,0.7-0.5,0.8-0.5l0,0c0,0,0.5-0.7,1.4-0.3c0.8-0.1,1.3,0.1,1.4,0.1c0,0,0.3-0.5,0.8-0.5c0.6,0.1,0.9,0.4,1,0.6l0.1,0.6    c-0.5,0.1-0.7,0-1-0.1c-0.3-0.1-0.6-0.2-0.9-0.2l-0.6,0.2c-0.3,0.2-0.7,0.3-0.9,0.6L59.1,151.2L59.1,151.2z"/></g>
    <path class="st4"
          d="M58.8,151.5c0.2-0.1,0.8-0.4,1.2-0.1c0.4,0.4,1,0.8,1,0.8l0.7,0.3l0.3,0.2l-0.2,3.2c-0.6-0.7-1.3-0.8-1.7-1.6   c-0.3-0.3-0.1-1.1-0.5-1.7C59.2,152.2,58.7,151.8,58.8,151.5L58.8,151.5z"/>
    <g><path class="st7" d="M61.9,156.1L61.9,156.1c-0.4-0.4-0.6-0.5-0.9-0.7c-0.4-0.3-0.7-0.5-1-1c-0.1-0.2-0.1-0.4-0.2-0.7    c0-0.3-0.1-0.7-0.3-1c-0.7-0.7-0.9-1-0.8-1.3c0.1-0.1,0.5-0.3,0.8-0.3c0.1,0.1,0.3,0.2,0.4,0.2c-0.6-0.1-0.9,0-1.1,0.1    c0,0.2,0.2,0.4,0.5,0.7c0.6,0.7,0.6,1.1,0.7,1.5c0,0.3,0.1,0.5,0.2,0.6c0.3,0.5,0.6,0.7,1,0.9c0.2,0.2,0.4,0.3,0.7,0.5l0.1-1    l0,1.2L61.9,156.1L61.9,156.1z"/></g>
    <path class="st4"
          d="M60.5,152.4c0,0,0.4-0.1,0.5,0c0.1,0,0.3,0.1,0.3,0.2c0.1,0,0.2,0.1,0.2,0.2c0.1,0,0.2,0.3,0.2,0.3l-0.1,0.2   c0,0-0.1-0.1-0.2-0.3c-0.1,0-0.3-0.1-0.3-0.2c-0.2,0-0.3-0.1-0.3-0.2C60.7,152.6,60.5,152.4,60.5,152.4L60.5,152.4z"/>
    <g><path class="st8" d="M60.5,152.4c0,0,0.4-0.1,0.5,0c0.1,0,0.3,0.1,0.3,0.2c0.1,0,0.2,0.1,0.2,0.2c0.1,0,0.2,0.3,0.2,0.3l-0.1,0.2    c0,0-0.1-0.1-0.2-0.3c-0.1,0-0.3-0.1-0.3-0.2c-0.2,0-0.3-0.1-0.3-0.2C60.7,152.6,60.5,152.4,60.5,152.4z"/></g>
    <path class="st4"
          d="M63.6,150.3c-0.2-0.2-0.6-0.1-0.6-0.1l-1,1.7l-0.4,0.4l0,1.3l0.4,1.3l-0.1,1c0,0,0.5-0.5,0.6-0.7   c0.1-0.3-0.2-1.1-0.2-1.1s-0.3-0.5,0.1-1.4C62.6,151.7,63.5,150.9,63.6,150.3L63.6,150.3z"/>
    <g><path class="st7" d="M61.8,156l0.1-1.1l-0.4-1.2l0-1.4l0.5-0.4l1-1.7l0.7,0.1c-0.1,0.3-0.3,0.7-0.6,1c-0.3,0.4-0.6,0.9-0.8,1.4    c-0.3,0.9-0.1,1.4-0.1,1.4c0,0.1,0.2,0.9,0.2,1.1c-0.1,0.3-0.6,0.7-0.6,0.8L61.8,156L61.8,156z M63.6,150.3l-1.5,1.7l-0.5,1.7    l0.4,1.2l-0.1,0.8c0.2-0.2,0.4-0.4,0.4-0.6c0-0.2-0.1-0.8-0.2-1c0,0-0.3-0.5,0.1-1.5c0.2-0.5,0.5-1,0.8-1.4    C63.3,150.8,63.5,150.5,63.6,150.3L63.6,150.3z"/></g>
    <path class="st4"
          d="M66.1,151.8c0,0-1.5,2.2-4.1,3c-0.7,0.2-0.4-1.6-0.4-1.6l-0.2,0c0,0-0.4,1.8,0.5,1.8c2.5-0.5,4.5-3.2,4.5-3.2   L66.1,151.8z"/>
    <g><path class="st7" d="M61.9,155.1l-0.5-0.2c-0.4-0.5-0.1-1.6-0.1-1.6c0,0.1,0.1,0.1,0.1,0.2c-0.1,0.4-0.1,1,0.1,1.4L61.9,155.1    l0-0.1c1.7-0.3,3.1-1.7,3.9-2.5C65.2,153.3,63.7,154.7,61.9,155.1L61.9,155.1L61.9,155.1z M62,154.9c-0.1-0.1-0.2-0.1-0.2-0.2    c2.7-0.7,4.2-2.9,4.2-2.9c0.1,0,0.1,0.2,0,0.3C65.4,152.8,64,154.3,62,154.9L62,154.9z"/></g>
    <path class="st4"
          d="M67.1,164.5c0,0-0.2,0.2-0.5,0c-0.2-0.4-0.6-0.4-0.6-0.4s-0.3-0.8-0.7-0.6c-0.1-0.4-0.5-0.2-0.5-0.2   s0-0.6-0.6-0.5c0.2-0.7-0.8-0.6-0.8-0.6s0-0.8-1.4-0.6c3-1.4,5.4,2.1,5.4,2.1L67.1,164.5z"/>
    <g><path class="st7" d="M66.6,164.6c-0.2-0.4-0.6-0.4-0.6-0.4c-0.1,0-0.2-0.5-0.5-0.6l-0.1,0l-0.8-0.3l-0.1,0l-0.5-0.6    c-0.2-0.6-0.7-0.6-0.7-0.6c-0.5-0.6-0.9-0.7-1.4-0.6c3-1.5,5.5,2,5.5,2c0.1,0.1-1.7-2.3-4.1-2.3c-0.4,0-0.9,0.1-1.4,0.3    c0.5-0.2,1-0.1,1.2,0.1c0.2,0.4,0.7,0.4,0.9,0.6l1,0.9c0.7,0.3,0.9,0.8,0.9,0.8C66.1,164.1,66.5,164.1,66.6,164.6l0.6,0    L66.6,164.6L66.6,164.6z"/></g>
    <path class="st4"
          d="M68.6,164.8c0,0,0.7,0.8,1.1,0.8c0.4,0,0.4-0.8,0.4-0.8s0.1,0.3,0.3,0.2c0,0.2,0.2,0.3,0.2,0.3   s-0.6,1.5-2.4,0.1L68.6,164.8z"/>
    <g><path class="st7" d="M69.5,166.1c-0.4,0-0.9-0.2-1.4-0.6c0.7,0.4,1.2,0.6,1.7,0.5c0.5-0.1,0.7-0.6,0.7-0.6l-0.4-0.5    c0,0.2-0.1,0.8-0.5,0.8h0c-0.4,0-1-0.7-1.1-0.8l0.1-0.1c0.2,0.2,0.9,0.6,1,0.8c0.2,0,0.3-0.5,0.3-0.7l0.1,0l0,0l0.1,0    c0,0,0,0,0,0.1l0.5,0.5c0,0-0.2,0.5-0.8,0.7C69.7,166.1,69.6,166.1,69.5,166.1L69.5,166.1z"/></g>
    <path class="st4"
          d="M63.1,165.1l-0.3,1c0,0-0.3,0.3-0.2,0.3c0.1,0.1,0.6-0.1,0.6-0.1s0.8-0.1,1-0.3c0.2,0.4,0.5,0.4,0.5,0.4   s0-0.2,0-0.2c0.2,0,0.3,0,0.3,0s0.1-0.3-0.1-0.4c0-0.2,0.1-0.4-0.2-0.4c-0.3,0.3-1,0.6-1.1,0.5c-0.2-0.1,0.7-0.5,0.4-1L63.1,165.1z   "/>
    <g><path class="st7" d="M62.6,166.5l0.5-1.4l0.1,0l-0.3,1c0.5,0.1,1.1,0,1.3-0.1l0.5,0.4l0.2-0.6l0.2,0.4c-0.1,0.1-0.2,0.2-0.4,0.2    l0.1,0l-0.1,0l0,0c-0.3,0-0.4-0.1-0.5-0.3c-0.1,0.3-0.9,0.4-0.9,0.4L62.6,166.5L62.6,166.5z"/></g>
    <path class="st7"
          d="M47.3,162.7l1-0.2l-0.1-0.5c0-0.1-0.1-0.2-0.1-0.2c-0.1,0-0.2,0-0.3,0l0-0.1l0.9-0.2l0,0.1   c-0.1,0-0.2,0.1-0.2,0.1c0,0-0.1,0.1-0.1,0.1c0,0,0,0.1,0,0.2l0.1,0.5l0.8-0.2c0.1,0,0.2-0.1,0.3-0.1c0,0,0-0.1,0.1-0.1   c0-0.1,0-0.1,0-0.2l0-0.1l0.1,0l0.3,1.1l-0.1,0l0-0.1c0-0.1-0.1-0.2-0.2-0.2c0,0-0.2,0-0.3,0l-1.7,0.4c-0.1,0-0.2,0.1-0.3,0.1   c0,0,0,0-0.1,0.1c0,0.1,0,0.1,0,0.2l0,0.1l-0.1,0l-0.5-1.9l0.6-0.2l0,0.1c-0.1,0.1-0.2,0.1-0.2,0.2c0,0.1-0.1,0.1-0.1,0.2   c0,0.1,0,0.2,0,0.3L47.3,162.7z M46.7,158.2c0-0.3,0.2-0.6,0.4-0.9c0.3-0.2,0.6-0.3,1-0.3c0.4,0,0.7,0.2,1,0.4   c0.2,0.3,0.4,0.6,0.3,0.9c0,0.4-0.2,0.7-0.4,0.9c-0.3,0.2-0.6,0.3-1,0.3c-0.4,0-0.8-0.2-1-0.5C46.8,158.8,46.7,158.5,46.7,158.2   L46.7,158.2z M46.8,158.2c0,0.2,0.1,0.4,0.2,0.6c0.2,0.2,0.5,0.3,0.9,0.3c0.4,0,0.8,0,1-0.2c0.2-0.1,0.3-0.3,0.3-0.5   c0-0.2-0.1-0.5-0.3-0.6c-0.2-0.2-0.5-0.3-0.9-0.3c-0.5,0-0.8,0-1,0.2C46.9,157.8,46.8,158,46.8,158.2L46.8,158.2z M50.6,153.4   l-0.2,0.7l-1.5,0.4c0,0.1,0,0.1-0.1,0.2c0,0,0,0,0,0.1c0,0,0,0,0,0.1l0.7,0.3c0.2,0.1,0.3,0.1,0.3,0.1c0.1,0,0.1-0.1,0.2-0.2l0-0.1   l0.1,0l-0.4,1.1l-0.1,0l0-0.1c0-0.1,0-0.2,0-0.3c0,0-0.1-0.1-0.3-0.1l-1.6-0.6c-0.2-0.1-0.3-0.1-0.3-0.1c-0.1,0-0.1,0.1-0.2,0.2   l0,0.1l-0.1,0l0.3-0.9c0.1-0.3,0.2-0.4,0.3-0.6c0.1-0.1,0.2-0.2,0.3-0.2c0.1,0,0.3,0,0.4,0c0.2,0.1,0.3,0.2,0.3,0.3   c0.1,0.1,0.1,0.3,0.1,0.6l0.9-0.2c0.2-0.1,0.3-0.1,0.4-0.2C50.4,153.6,50.5,153.5,50.6,153.4L50.6,153.4z M48.7,154.7   C48.7,154.6,48.7,154.6,48.7,154.7c0-0.1,0-0.1,0-0.1c0.1-0.2,0.1-0.4,0.1-0.6c-0.1-0.2-0.2-0.3-0.3-0.3c-0.2-0.1-0.3-0.1-0.4,0   c-0.1,0.1-0.2,0.2-0.3,0.3c0,0.1,0,0.2-0.1,0.3L48.7,154.7z M54.3,145.9l0.5,0.7l-0.1,0c-0.2-0.1-0.3-0.2-0.5-0.2   c-0.2,0-0.4,0-0.6,0.1c-0.3,0.2-0.4,0.4-0.4,0.8c0,0.3,0.1,0.5,0.2,0.8c0.1,0.2,0.3,0.4,0.5,0.5c0.2,0.1,0.4,0.2,0.6,0.2   c0.2,0,0.3-0.1,0.5-0.1c0.1-0.1,0.2-0.1,0.2-0.2c0.1-0.1,0.1-0.2,0.2-0.2l-0.4-0.6c-0.1-0.1-0.1-0.2-0.2-0.2c0,0-0.1,0-0.1,0   c0,0-0.1,0-0.2,0.1l0-0.1l0.9-0.6l0,0.1l0,0c-0.1,0.1-0.1,0.1-0.1,0.2c0,0.1,0,0.1,0.1,0.3l0.4,0.7c-0.1,0.1-0.2,0.3-0.3,0.4   c-0.1,0.1-0.2,0.2-0.4,0.3c-0.4,0.3-0.8,0.3-1.2,0.2c-0.3-0.1-0.5-0.3-0.7-0.5c-0.1-0.2-0.2-0.4-0.2-0.6c0-0.3,0-0.5,0.1-0.8   c0.1-0.2,0.3-0.4,0.5-0.5c0.1-0.1,0.2-0.1,0.2-0.1c0.1,0,0.2-0.1,0.3-0.1c0.1,0,0.1,0,0.1,0c0,0,0,0,0-0.1   C54.3,146.1,54.3,146,54.3,145.9L54.3,145.9z M58.6,146.2l-1,0.3l-0.1,0.4c0,0.1,0,0.2,0,0.2c0,0,0,0.1,0.1,0.1c0,0,0.1,0,0.3,0   l0,0.1l-0.8,0.2l0-0.1c0.1,0,0.2-0.1,0.2-0.1c0-0.1,0.1-0.2,0.1-0.4l0.3-2.3l0.1,0l1.4,1.9c0.1,0.2,0.2,0.2,0.3,0.3   c0.1,0,0.2,0,0.3,0l0,0.1l-1,0.3l0-0.1c0.1,0,0.2-0.1,0.2-0.1c0,0,0-0.1,0-0.1c0-0.1-0.1-0.1-0.1-0.2L58.6,146.2z M58.5,146.1   l-0.7-0.9l-0.2,1.1L58.5,146.1z M63.2,146.1L63.2,146.1l-0.2,0.7l-2-0.1v-0.1l0.1,0c0.1,0,0.2,0,0.2-0.1c0,0,0-0.1,0.1-0.3l0.1-1.7   c0-0.2,0-0.3,0-0.3c0-0.1-0.1-0.1-0.2-0.1H61l0-0.1l1.2,0v0.1c-0.1,0-0.2,0-0.3,0c-0.1,0-0.1,0.1-0.1,0.1c0,0,0,0.1,0,0.3l-0.1,1.7   c0,0.1,0,0.2,0,0.2c0,0,0,0,0.1,0.1c0,0,0.1,0,0.3,0l0.2,0c0.2,0,0.3,0,0.4,0c0.1,0,0.2-0.1,0.2-0.2   C63,146.4,63.1,146.3,63.2,146.1L63.2,146.1z M66.7,147L66.7,147l-0.4,0.6l-1.9-0.6l0-0.1l0.1,0c0.1,0,0.2,0,0.3,0   c0,0,0.1-0.1,0.1-0.3l0.5-1.6c0.1-0.2,0.1-0.3,0-0.3c0-0.1-0.1-0.1-0.2-0.2l-0.1,0l0-0.1l1.1,0.4l0,0.1c-0.1,0-0.2-0.1-0.3,0   c-0.1,0-0.1,0-0.1,0.1c0,0-0.1,0.1-0.1,0.3l-0.5,1.6c0,0.1,0,0.2,0,0.2c0,0,0,0.1,0,0.1c0,0,0.1,0.1,0.3,0.1l0.2,0.1   c0.2,0.1,0.3,0.1,0.4,0.1c0.1,0,0.2,0,0.3-0.1C66.5,147.3,66.6,147.2,66.7,147L66.7,147z M69.5,148.5l-0.8-0.6l-0.4,0.2   c-0.1,0.1-0.2,0.1-0.2,0.2c0,0,0,0.1,0,0.1c0,0,0.1,0.1,0.2,0.2l0,0.1l-0.7-0.5l0-0.1c0.1,0,0.2,0.1,0.2,0.1c0.1,0,0.2-0.1,0.4-0.2   l2-1.2l0.1,0l-0.5,2.3c0,0.2-0.1,0.3,0,0.4c0,0.1,0.1,0.1,0.2,0.2l0,0.1l-0.8-0.6l0-0.1c0.1,0.1,0.2,0.1,0.2,0.1c0,0,0.1,0,0.1-0.1   c0,0,0.1-0.1,0.1-0.3L69.5,148.5z M69.6,148.4l0.3-1.1l-1,0.6L69.6,148.4z M72.7,149l0.4,0.6l-0.6,2.5l1.2-0.9   c0.1-0.1,0.2-0.2,0.2-0.2c0-0.1,0-0.2-0.1-0.2l-0.1-0.1l0.1,0l0.5,0.7l-0.1,0l-0.1-0.1c-0.1-0.1-0.1-0.1-0.2-0.1c0,0-0.1,0-0.3,0.1   l-1.8,1.3l0-0.1l0.7-2.7l-1.3,1c-0.1,0.1-0.2,0.2-0.2,0.2c0,0.1,0,0.2,0.1,0.2l0.1,0.1l-0.1,0l-0.5-0.7l0.1,0l0.1,0.1   c0.1,0.1,0.1,0.1,0.2,0.1c0.1,0,0.1,0,0.3-0.1l1.5-1.1c0-0.1,0-0.2,0-0.3c0,0,0-0.1,0-0.2C72.7,149.1,72.7,149.1,72.7,149L72.7,149   z M76,155.1l-0.6,0.2l0-0.1c0.1,0,0.2-0.1,0.2-0.1c0.1-0.1,0.1-0.1,0.1-0.2c0-0.1,0-0.2,0-0.3l-0.1-0.4l-1.9,0.7   c-0.2,0.1-0.2,0.1-0.3,0.2c0,0.1,0,0.1,0,0.2l0,0.1l-0.1,0l-0.4-1.1l0.1,0l0,0.1c0,0.1,0.1,0.2,0.2,0.2c0,0,0.1,0,0.3-0.1l1.9-0.7   l-0.1-0.3c0-0.1-0.1-0.2-0.1-0.2c0-0.1-0.1-0.1-0.2-0.1c-0.1,0-0.2,0-0.3,0l0-0.1l0.6-0.2L76,155.1z M73.9,159.8l0-0.7l1.2-1   c0-0.1,0-0.1,0-0.2c0,0,0,0,0-0.1c0,0,0,0,0-0.1l-0.8,0c-0.2,0-0.3,0-0.3,0.1c-0.1,0-0.1,0.1-0.1,0.2l0,0.1l-0.1,0l-0.1-1.1l0.1,0   v0.1c0,0.1,0,0.2,0.1,0.2c0,0,0.1,0,0.3,0l1.7-0.1c0.2,0,0.3,0,0.3-0.1c0.1-0.1,0.1-0.1,0.1-0.2l0-0.1l0.1,0l0,1c0,0.3,0,0.5,0,0.6   c0,0.1-0.1,0.2-0.2,0.3c-0.1,0.1-0.2,0.2-0.4,0.2c-0.2,0-0.3,0-0.4-0.1c-0.1-0.1-0.2-0.3-0.3-0.5l-0.7,0.6   c-0.2,0.1-0.3,0.2-0.3,0.3C74,159.5,74,159.6,73.9,159.8L73.9,159.8z M75.2,157.8C75.2,157.8,75.2,157.9,75.2,157.8   c0,0.1,0,0.1,0,0.1c0,0.3,0.1,0.4,0.2,0.6c0.1,0.1,0.3,0.2,0.4,0.2c0.2,0,0.3-0.1,0.4-0.2c0.1-0.1,0.1-0.2,0.1-0.4   c0-0.1,0-0.2,0-0.3L75.2,157.8z M75.9,163.2l-0.2,0.9l-0.1,0l0,0c0,0,0-0.1,0-0.2c0-0.1,0-0.1-0.1-0.2c0-0.1-0.1-0.2-0.2-0.3   l-0.8-0.9l-0.6-0.2c-0.2,0-0.3,0-0.3,0c-0.1,0-0.1,0.1-0.1,0.2l0,0.1l-0.1,0l0.3-1.1l0.1,0l0,0.1c0,0.1,0,0.2,0,0.3   c0,0,0.1,0.1,0.3,0.1l0.6,0.2l1.3-0.4c0.2-0.1,0.2-0.1,0.3-0.1c0,0,0.1-0.1,0.2-0.2c0,0,0-0.1,0-0.1l0.1,0l-0.3,1.1l-0.1,0l0-0.1   c0-0.1,0-0.1,0-0.2c0-0.1,0-0.1-0.1-0.1c0,0-0.1,0-0.3,0l-1,0.3l0.7,0.7c0.1,0.1,0.2,0.2,0.2,0.2c0,0,0.1,0,0.1,0   c0,0,0.1,0,0.1-0.1C75.8,163.3,75.8,163.3,75.9,163.2L75.9,163.2z"/></g></svg>
