<?xml version="1.0" ?>
<svg id="Layer_1" style="enable-background:new 0 0 512 512;" version="1.1" viewBox="0 0 512 512" xml:space="preserve"
     xmlns="http://www.w3.org/2000/svg"><style type="text/css">
	.st0 {
    fill: #273B8C;
  }

  .st1 {
    fill: #FFFFFF;
  }

  .st2 {
    fill: #CD7429;
  }
</style>
  <g><rect class="st0" height="298.7" width="512" y="106.7"/>
    <polygon class="st1"
             points="109,308.3 105.2,244.7 91.9,279.8 97.8,242.8 75.9,273.1 91.2,238.9 62.2,262.6 85.8,233.5    51.6,248.9 82,226.9 45,232.9 80,219.5 16.5,215.7 80,211.9 45,198.5 82,204.5 51.6,182.6 85.8,197.9 62.2,168.8 91.2,192.5    75.9,158.3 97.8,188.7 91.9,151.7 105.2,186.7 109,123.1 112.9,186.7 126.2,151.7 120.2,188.7 142.2,158.3 126.9,192.5    155.9,168.8 132.3,197.9 166.5,182.6 136.1,204.5 173.1,198.5 138.1,211.9 201.6,215.7 138.1,219.5 173.1,232.9 136.1,226.9    166.5,248.9 132.3,233.5 155.9,262.6 126.9,238.9 142.2,273.1 120.2,242.8 126.2,279.8 112.9,244.7  "/>
    <polygon class="st1" points="0,391 0,400.6 512,228.5 512,111.4  "/>
    <polygon class="st2" points="0,391 0,395.8 512,170 512,111.4  "/></g></svg>
