<?xml version="1.0" ?>
<svg id="Layer_1" style="enable-background:new 0 0 512 512;" version="1.1" viewBox="0 0 512 512" xml:space="preserve"
     xmlns="http://www.w3.org/2000/svg"><style type="text/css">
	.st0 {
    fill: #D51F3A;
  }

  .st1 {
    fill: #F6EC32;
  }
</style>
  <g><rect class="st0" height="298.7" width="512" y="106.7"/>
    <path class="st1"
          d="M345.9,256.3c-11.6,2.9-24.1-6.4-34.8-4.4c0-0.1,0-0.3,0-0.4c10.3-4.9,27.5,0.6,33.7-9.2   c-10.9,4.7-24.7-2.5-34.9,1.1c0-0.1-0.1-0.3-0.1-0.4c9.4-6.4,27.1-3.7,31.8-14.3c-10,6.3-24.6,1.5-34.3,6.5   c-0.1-0.1-0.1-0.3-0.2-0.4c8.4-7.7,26.1-7.9,29.1-19c-8.9,7.7-24,5.3-32.7,11.7c-0.1-0.1-0.2-0.3-0.3-0.4   c7.1-8.9,24.5-11.8,25.6-23.2c-7.6,9-22.8,9-30.4,16.6c-0.1-0.1-0.2-0.3-0.3-0.4c5.7-9.8,22.3-15.5,21.7-26.9   c-6,10.1-21,12.5-27.4,21.1c-0.1-0.1-0.3-0.2-0.4-0.4c4.1-10.5,19.6-18.7,17.2-29.9c-4.4,10.9-18.8,15.6-23.8,25   c-0.2-0.1-0.3-0.2-0.5-0.3c2.5-11,16.4-21.5,12.3-32.1c-2.6,11.4-16,18.3-19.5,28.4c-0.2-0.1-0.4-0.1-0.6-0.2   c0.8-11.2,12.8-23.7,7.1-33.6c-0.8,11.6-13,20.6-14.8,31.1c-0.2,0-0.4-0.1-0.6-0.1c-1-11.2,8.9-25.4,1.7-34.2   c1,11.6-9.6,22.3-9.8,33c-0.2,0-0.4,0-0.6,0c-2.7-10.9,4.9-26.5-3.6-34.1c2.8,11.3-6,23.6-4.5,34.1c-0.2,0-0.4,0-0.6,0   c-4.4-10.4,0.6-27-8.9-33.1c4.6,10.8-2.2,24.2,0.9,34.4c-0.2,0-0.4,0.1-0.6,0.1c-6-9.5-3.6-26.7-14-31.3c6.2,9.9,1.6,24.3,6.3,33.9   c-0.2,0.1-0.3,0.2-0.5,0.2c-7.5-8.5-7.7-25.9-18.8-28.8c7.7,8.9,5.3,23.8,11.6,32.6c-0.2,0.1-0.3,0.2-0.5,0.3   c-8.7-7.2-11.7-24.4-23.1-25.5c9,7.6,9,22.8,16.6,30.4c-0.1,0.1-0.3,0.2-0.4,0.3c-9.8-5.7-15.5-22.3-26.9-21.7   c10.1,6.1,12.5,21.2,21.2,27.5c-0.1,0.1-0.2,0.3-0.3,0.4c-10.6-4-18.8-19.7-30-17.2c11,4.4,15.7,19.1,25.4,23.9   c-0.1,0.1-0.2,0.3-0.2,0.4c-11.1-2.2-21.7-16.5-32.5-12.3c11.6,2.7,18.5,16.5,28.9,19.7c0,0.1-0.1,0.3-0.2,0.4   c-11.4-0.4-24.1-12.9-34.1-7.1c11.9,0.8,20.9,13.5,31.7,14.9c0,0.1-0.1,0.3-0.1,0.4c-11.3,1.5-26-9-34.9-1.7   c11.9-1,22.9,10.1,33.8,9.8c0,0.1,0,0.2,0,0.4c-11,3.4-27.2-4.8-34.9,3.9c11.7-2.9,24.3,6.5,35.1,4.4c0,0.1,0,0.2,0,0.3   c-10.3,5.1-27.7-0.5-34,9.3c11.1-4.7,25.1,2.7,35.4-1.2c0,0.1,0.1,0.2,0.1,0.3c-9.3,6.8-27.5,3.9-32.2,14.6   c10.3-6.4,25.3-1.3,34.9-6.8c0,0.1,0.1,0.2,0.1,0.2c-8.1,8.3-26.6,8.2-29.6,19.6c9.2-8,24.9-5.2,33.5-12.3c0,0.1,0.1,0.1,0.1,0.2   c-6.6,9.5-25.1,12.3-26.3,24.1c7.8-9.3,23.9-9,31.2-17.4c0,0,0.1,0.1,0.1,0.2c-5,10.5-22.9,16.1-22.2,28   c6.3-10.5,22.3-12.6,28.2-22.2c0,0,0.1,0.1,0.1,0.1c-3.2,11.2-20.1,19.6-17.6,31.2c4.6-11.4,20.1-16,24.4-26.4c0,0,0.1,0.1,0.1,0.1   c-1.4,11.6-16.9,22.5-12.5,33.6c2.8-11.9,17.4-18.9,20-29.9c0,0,0.1,0,0.1,0.1c0.5,11.7-13.1,24.9-7.1,35.2   c0.8-12.2,14.2-21.4,15-32.7c0,0,0.1,0,0.1,0c2.3,11.5-9.1,26.7-1.5,35.9c-1.1-12.2,10.7-23.4,9.7-34.6c0,0,0.1,0,0.1,0   c4.1,11-4.8,27.8,4.1,35.7c-3-11.9,6.9-24.8,4.2-35.7c0,0,0.1,0,0.1,0c5.7,10.2-0.4,28.2,9.7,34.6c-4.8-11.3,2.9-25.5-1.4-35.9   c0,0,0.1,0,0.1,0c7.2,9.2,4,27.9,14.9,32.6c-6.5-10.4-1.1-25.6-7-35.2c0,0,0.1,0,0.1-0.1c8.5,8,8.3,26.9,19.8,29.9   c-8-9.2-5.1-25.1-12.4-33.6c0,0,0.1-0.1,0.1-0.1c9.6,6.6,12.4,25.2,24.2,26.4c-9.4-7.8-9-23.9-17.4-31.2c0,0,0.1-0.1,0.2-0.1   c10.5,5,16.1,22.9,28,22.2c-10.4-6.3-12.6-22.1-22-28.1c0-0.1,0.1-0.1,0.2-0.2c11.1,3.4,19.4,20.1,31,17.6   c-11.2-4.5-15.9-19.8-26-24.2c0-0.1,0.1-0.2,0.1-0.2c11.4,1.7,22.3,16.8,33.3,12.5c-11.8-2.7-18.7-16.9-29.4-19.8   c0-0.1,0.1-0.2,0.1-0.3c11.5,0,24.5,13.1,34.6,7.1c-12-0.8-21.1-13.7-32-15c0-0.1,0-0.2,0.1-0.3c11.4-1.7,26.1,9,35.2,1.6   c-11.9,1.1-22.9-10.1-33.8-9.8c0-0.1,0-0.2,0-0.4C322,256.8,338.2,265,345.9,256.3 M304.8,261.9c-0.3,2.4-0.7,4.8-1.3,7.1   c0.3,0.1,0.6,0.1,1,0.2c-0.4,0.1-0.8,0.2-1.1,0.3c-0.6,2.3-1.5,4.6-2.5,6.8c0.3,0.1,0.6,0.2,0.9,0.3c-0.4,0-0.8,0-1.1,0.1   c-1,2.2-2.2,4.3-3.5,6.3c0.3,0.2,0.6,0.3,0.9,0.5c-0.4,0-0.8-0.1-1.1-0.1c-1.3,2-2.8,3.9-4.4,5.7c0.2,0.2,0.5,0.4,0.8,0.6   c-0.4-0.1-0.8-0.2-1.1-0.3c-1.6,1.8-3.4,3.4-5.3,4.9c0.2,0.2,0.4,0.5,0.7,0.7c-0.4-0.2-0.7-0.3-1.1-0.4c-1.9,1.5-3.9,2.9-6,4.1   c0.2,0.3,0.4,0.5,0.6,0.8c-0.3-0.2-0.6-0.4-1-0.6c-2.1,1.2-4.3,2.2-6.5,3.1c0.1,0.3,0.3,0.6,0.5,0.9c-0.3-0.3-0.6-0.5-0.9-0.7   c-2.2,0.8-4.6,1.5-6.9,2c0.1,0.3,0.2,0.6,0.3,1c-0.2-0.3-0.5-0.6-0.7-0.9c-2.3,0.5-4.7,0.8-7.2,0.9c0,0.3,0.1,0.6,0.1,1   c-0.2-0.3-0.4-0.7-0.6-1c-0.7,0-1.4,0-2,0c-1.8,0-3.5-0.1-5.2-0.3c0,0.3,0,0.6,0,1c-0.1-0.4-0.3-0.7-0.4-1.1   c-2.4-0.3-4.8-0.7-7.1-1.4c-0.1,0.3-0.1,0.6-0.2,1c-0.1-0.4-0.2-0.8-0.3-1.1c-2.3-0.6-4.6-1.5-6.8-2.5c-0.1,0.3-0.2,0.6-0.3,1   c0-0.4,0-0.8-0.1-1.1c-2.2-1-4.3-2.2-6.3-3.5c-0.2,0.3-0.3,0.6-0.5,0.9c0-0.4,0.1-0.8,0.1-1.1c-2-1.3-3.9-2.8-5.7-4.4   c-0.2,0.2-0.4,0.5-0.6,0.8c0.1-0.4,0.2-0.8,0.3-1.1c-1.8-1.6-3.4-3.4-4.9-5.3c-0.2,0.2-0.5,0.4-0.7,0.7c0.2-0.4,0.3-0.7,0.4-1.1   c-1.5-1.9-2.8-3.9-4.1-6c-0.3,0.2-0.5,0.4-0.8,0.6c0.2-0.3,0.4-0.6,0.6-1c-1.2-2.1-2.2-4.3-3.1-6.5c-0.3,0.1-0.6,0.3-0.9,0.4   c0.3-0.3,0.5-0.6,0.7-0.9c-0.8-2.2-1.5-4.6-2-6.9c-0.3,0.1-0.6,0.2-1,0.3c0.3-0.2,0.6-0.5,0.9-0.7c-0.5-2.3-0.8-4.7-0.9-7.2   c-0.3,0-0.6,0.1-1,0.2c0.3-0.2,0.7-0.4,1-0.6c0-0.7,0-1.3,0-2c0-1.7,0.1-3.5,0.3-5.2c-0.3,0-0.6,0-1,0c0.4-0.1,0.7-0.3,1.1-0.4   c0.3-2.4,0.7-4.8,1.4-7.1c-0.3-0.1-0.6-0.1-1-0.2c0.4-0.1,0.8-0.2,1.1-0.3c0.6-2.3,1.5-4.6,2.5-6.8c-0.3-0.1-0.6-0.2-0.9-0.3   c0.4,0,0.8,0,1.1-0.1c1-2.2,2.2-4.3,3.5-6.3c-0.3-0.2-0.6-0.3-0.9-0.5c0.4,0,0.8,0.1,1.1,0.1c1.3-2,2.8-3.9,4.4-5.7   c-0.2-0.2-0.5-0.4-0.8-0.6c0.4,0.1,0.8,0.2,1.1,0.3c1.6-1.8,3.4-3.4,5.3-4.9c-0.2-0.2-0.4-0.5-0.7-0.7c0.4,0.2,0.7,0.3,1.1,0.4   c1.9-1.5,3.9-2.9,6-4.1c-0.2-0.3-0.3-0.5-0.6-0.8c0.3,0.2,0.6,0.4,1,0.6c2.1-1.2,4.3-2.2,6.5-3.1c-0.1-0.3-0.3-0.6-0.4-0.9   c0.3,0.3,0.6,0.5,0.9,0.7c2.2-0.8,4.6-1.5,6.9-2c-0.1-0.3-0.2-0.6-0.3-1c0.2,0.3,0.5,0.6,0.7,0.9c2.3-0.5,4.7-0.8,7.2-0.9   c0-0.3-0.1-0.6-0.2-1c0.2,0.3,0.4,0.7,0.6,1c0.7,0,1.3,0,2,0c1.7,0,3.5,0.1,5.2,0.3c0-0.3,0-0.6,0-1c0.1,0.4,0.3,0.7,0.4,1.1   c2.4,0.3,4.8,0.7,7.1,1.3c0.1-0.3,0.1-0.6,0.2-1c0.1,0.4,0.2,0.8,0.3,1.1c2.3,0.6,4.6,1.5,6.8,2.5c0.1-0.3,0.2-0.6,0.3-1   c0,0.4,0,0.8,0.1,1.1c2.2,1,4.3,2.2,6.3,3.5c0.2-0.3,0.3-0.6,0.5-0.9c0,0.4-0.1,0.8-0.1,1.1c2,1.3,3.9,2.8,5.7,4.4   c0.2-0.2,0.4-0.5,0.6-0.8c-0.1,0.4-0.2,0.8-0.3,1.1c1.8,1.6,3.4,3.4,4.9,5.3c0.2-0.2,0.5-0.4,0.7-0.7c-0.2,0.4-0.3,0.7-0.4,1.1   c1.5,1.9,2.8,3.9,4.1,6c0.3-0.2,0.5-0.4,0.8-0.6c-0.2,0.3-0.4,0.6-0.6,1c1.2,2.1,2.2,4.3,3.1,6.5c0.3-0.1,0.6-0.3,0.9-0.5   c-0.3,0.3-0.5,0.6-0.7,0.9c0.8,2.2,1.5,4.6,2,6.9c0.3-0.1,0.6-0.2,1-0.3c-0.3,0.2-0.6,0.5-0.9,0.7c0.5,2.3,0.8,4.7,0.9,7.2   c0.3,0,0.6-0.1,1-0.2c-0.3,0.2-0.7,0.4-1,0.6c0,0.7,0,1.4,0,2c0,1.8-0.1,3.5-0.3,5.2c0.3,0,0.6,0,1,0   C305.5,261.6,305.2,261.8,304.8,261.9"/>
    <path class="st1"
          d="M251.6,228.2c-6.8-2.8-14.2-4.5-21.9-4.8c-0.6,0.6-1.2,1.1-1.8,1.7c7.4,0.3,14.4,2,20.9,4.7   C249.7,229.3,250.6,228.7,251.6,228.2"/>
    <path class="st1"
          d="M279.7,220.7c-6.6-4.8-14.6-7.7-23.4-7.7c-8.7,0-16.8,2.8-23.4,7.7c8.3,0.3,16.1,2.2,23.4,5.3   C263.6,222.9,271.5,221,279.7,220.7"/>
    <path class="st1"
          d="M245,232.2c-6-2.5-12.5-4.1-19.3-4.6c-0.4,0.5-0.9,1.1-1.3,1.6c6.5,0.5,12.6,2.1,18.3,4.6   C243.4,233.3,244.2,232.7,245,232.2"/>
    <path class="st1"
          d="M261.9,243.1c-0.8,0.6-1.6,1.3-2.3,1.9c11.2,10.6,18.3,25.5,18.6,42.1c1.2-0.8,2.4-1.7,3.6-2.7   C280.7,268,273.3,253.4,261.9,243.1"/>
    <path class="st1"
          d="M263.9,229.8c6.5-2.7,13.5-4.3,20.9-4.7c-0.6-0.6-1.2-1.2-1.8-1.7c-7.7,0.3-15.1,2-21.9,4.8   C262,228.7,263,229.3,263.9,229.8"/>
    <path class="st1"
          d="M268.5,238.6c-0.9,0.5-1.9,1.1-2.8,1.7c11.2,9.7,19,23.4,21.2,38.9c1.1-1.4,2.2-2.8,3.1-4.3   C287,260.5,279.3,247.8,268.5,238.6"/>
    <path class="st1"
          d="M239.6,236.3c-5.2-2.4-10.9-4-16.9-4.7c-4,6.3-6.3,13.7-6.3,21.7c0,4.8,0.8,9.4,2.4,13.7   C222.8,254.9,230.1,244.3,239.6,236.3"/>
    <path class="st1"
          d="M270,233.8c5.7-2.5,11.9-4.1,18.3-4.6c-0.4-0.6-0.8-1.1-1.3-1.6c-6.8,0.4-13.3,2-19.3,4.6   C268.5,232.7,269.2,233.3,270,233.8"/>
    <path class="st1"
          d="M239.8,288.3c0,0.6,0,1.2,0,1.8c5,2.3,10.6,3.6,16.5,3.6c5.9,0,11.5-1.3,16.5-3.6c0-0.6,0-1.2,0-1.8   c0-15.7-6.3-30-16.5-40.3C246.1,258.3,239.8,272.6,239.8,288.3"/>
    <path class="st1"
          d="M256.3,230.4c-1,0.5-1.9,1-2.8,1.6c1,0.5,1.9,1,2.8,1.6c0.9-0.5,1.9-1.1,2.8-1.6   C258.2,231.5,257.3,230.9,256.3,230.4"/>
    <path class="st1"
          d="M273.1,236.3c9.5,8,16.8,18.6,20.8,30.8c1.5-4.3,2.4-8.9,2.4-13.7c0-8-2.3-15.4-6.3-21.7   C284,232.3,278.3,233.9,273.1,236.3"/>
    <path class="st1"
          d="M253.1,245c-0.8-0.7-1.6-1.3-2.3-1.9c-11.4,10.3-18.8,25-19.9,41.4c1.1,0.9,2.3,1.8,3.6,2.7   C234.8,270.5,241.9,255.5,253.1,245"/>
    <path class="st1"
          d="M254,240.3c0.8,0.6,1.6,1.2,2.4,1.8c0.8-0.6,1.6-1.2,2.3-1.8c-0.8-0.6-1.6-1.2-2.3-1.8   C255.5,239.1,254.8,239.7,254,240.3"/>
    <path class="st1"
          d="M246.9,240.3c-0.9-0.6-1.8-1.2-2.8-1.7c-10.8,9.2-18.5,21.9-21.5,36.3c0.9,1.5,2,2.9,3.1,4.3   C228,263.8,235.7,250.1,246.9,240.3"/>
    <path class="st1"
          d="M260.2,236c0.8,0.5,1.6,1.1,2.3,1.7c0.9-0.6,1.9-1.1,2.8-1.6c-0.8-0.6-1.5-1.1-2.3-1.7   C262.1,234.9,261.1,235.5,260.2,236"/>
    <path class="st1"
          d="M247.3,236.1c0.9,0.5,1.9,1.1,2.8,1.6c0.8-0.6,1.5-1.1,2.3-1.7c-0.9-0.6-1.9-1.1-2.8-1.6   C248.9,235,248.1,235.5,247.3,236.1"/></g></svg>
